<?xml version="1.0" encoding="UTF-8" standalone="no"?>
<!DOCTYPE svg PUBLIC "-//W3C//DTD SVG 1.1//EN"
 "http://www.w3.org/Graphics/SVG/1.1/DTD/svg11.dtd">
<!-- Generated by graphviz version 7.1.0 (20230121.1956)
 -->
<!-- Title: /Users/nikolajbankejensen/Desktop/Kepler/src/core/evaluation/algorithms.cpp Pages: 1 -->
<svg width="550pt" height="269pt"
 viewBox="0.00 0.00 550.00 269.00" xmlns="http://www.w3.org/2000/svg" xmlns:xlink="http://www.w3.org/1999/xlink">
<g id="graph0" class="graph" transform="scale(1 1) rotate(0) translate(4 265)">
<title>/Users/nikolajbankejensen/Desktop/Kepler/src/core/evaluation/algorithms.cpp</title>
<!-- Node1 -->
<g id="node1" class="node">
<title>Node1</title>
<g id="a_node1"><a xlink:title=" ">
<polygon fill="#999999" stroke="#666666" points="356.5,-261 225.5,-261 225.5,-220 356.5,-220 356.5,-261"/>
<text text-anchor="start" x="233.5" y="-249" font-family="Helvetica,sans-Serif" font-size="10.00">/Users/nikolajbankejensen</text>
<text text-anchor="start" x="233.5" y="-238" font-family="Helvetica,sans-Serif" font-size="10.00">/Desktop/Kepler/src/core</text>
<text text-anchor="middle" x="291" y="-227" font-family="Helvetica,sans-Serif" font-size="10.00">/evaluation/algorithms.cpp</text>
</a>
</g>
</g>
<!-- Node2 -->
<g id="node2" class="node">
<title>Node2</title>
<g id="a_node2"><a xlink:href="algorithms_8h.html" target="_top" xlink:title=" ">
<polygon fill="white" stroke="#666666" points="167,-184 97,-184 97,-165 167,-165 167,-184"/>
<text text-anchor="middle" x="132" y="-172" font-family="Helvetica,sans-Serif" font-size="10.00">algorithms.h</text>
</a>
</g>
</g>
<!-- Node1&#45;&gt;Node2 -->
<g id="edge1" class="edge">
<title>Node1&#45;&gt;Node2</title>
<path fill="none" stroke="#63b8ff" d="M241.56,-219.6C216.45,-209.49 186.65,-197.5 164.47,-188.57"/>
<polygon fill="#63b8ff" stroke="#63b8ff" points="165.93,-185.38 155.34,-184.9 163.31,-191.88 165.93,-185.38"/>
</g>
<!-- Node9 -->
<g id="node9" class="node">
<title>Node9</title>
<g id="a_node9"><a xlink:href="error_8h.html" target="_top" xlink:title=" ">
<polygon fill="white" stroke="#666666" points="296.5,-129 231.5,-129 231.5,-110 296.5,-110 296.5,-129"/>
<text text-anchor="middle" x="264" y="-117" font-family="Helvetica,sans-Serif" font-size="10.00">core/error.h</text>
</a>
</g>
</g>
<!-- Node1&#45;&gt;Node9 -->
<g id="edge9" class="edge">
<title>Node1&#45;&gt;Node9</title>
<path fill="none" stroke="#63b8ff" d="M276.71,-219.75C270.24,-209.6 263.31,-196.71 260,-184 256.28,-169.73 257.53,-153.07 259.58,-140.4"/>
<polygon fill="#63b8ff" stroke="#63b8ff" points="262.97,-141.26 261.44,-130.78 256.1,-139.93 262.97,-141.26"/>
</g>
<!-- Node15 -->
<g id="node15" class="node">
<title>Node15</title>
<g id="a_node15"><a xlink:title=" ">
<polygon fill="#e0e0e0" stroke="#999999" points="313,-184 269,-184 269,-165 313,-165 313,-184"/>
<text text-anchor="middle" x="291" y="-172" font-family="Helvetica,sans-Serif" font-size="10.00">cmath</text>
</a>
</g>
</g>
<!-- Node1&#45;&gt;Node15 -->
<g id="edge17" class="edge">
<title>Node1&#45;&gt;Node15</title>
<path fill="none" stroke="#63b8ff" d="M291,-219.6C291,-211.98 291,-203.3 291,-195.66"/>
<polygon fill="#63b8ff" stroke="#63b8ff" points="294.5,-195.68 291,-185.68 287.5,-195.68 294.5,-195.68"/>
</g>
<!-- Node16 -->
<g id="node16" class="node">
<title>Node16</title>
<g id="a_node16"><a xlink:title=" ">
<polygon fill="#e0e0e0" stroke="#999999" points="382.5,-184 331.5,-184 331.5,-165 382.5,-165 382.5,-184"/>
<text text-anchor="middle" x="357" y="-172" font-family="Helvetica,sans-Serif" font-size="10.00">numeric</text>
</a>
</g>
</g>
<!-- Node1&#45;&gt;Node16 -->
<g id="edge18" class="edge">
<title>Node1&#45;&gt;Node16</title>
<path fill="none" stroke="#63b8ff" d="M311.52,-219.6C320.62,-210.78 331.2,-200.51 339.87,-192.11"/>
<polygon fill="#63b8ff" stroke="#63b8ff" points="342.24,-194.69 346.98,-185.22 337.36,-189.66 342.24,-194.69"/>
</g>
<!-- Node17 -->
<g id="node17" class="node">
<title>Node17</title>
<g id="a_node17"><a xlink:title=" ">
<polygon fill="#e0e0e0" stroke="#999999" points="457,-184 401,-184 401,-165 457,-165 457,-184"/>
<text text-anchor="middle" x="429" y="-172" font-family="Helvetica,sans-Serif" font-size="10.00">algorithm</text>
</a>
</g>
</g>
<!-- Node1&#45;&gt;Node17 -->
<g id="edge19" class="edge">
<title>Node1&#45;&gt;Node17</title>
<path fill="none" stroke="#63b8ff" d="M333.91,-219.6C355.3,-209.68 380.63,-197.93 399.76,-189.06"/>
<polygon fill="#63b8ff" stroke="#63b8ff" points="400.99,-192.35 408.59,-184.97 398.04,-186 400.99,-192.35"/>
</g>
<!-- Node3 -->
<g id="node3" class="node">
<title>Node3</title>
<g id="a_node3"><a xlink:href="datatypes_8h.html" target="_top" xlink:title=" ">
<polygon fill="white" stroke="#666666" points="153.5,-74 64.5,-74 64.5,-55 153.5,-55 153.5,-74"/>
<text text-anchor="middle" x="109" y="-62" font-family="Helvetica,sans-Serif" font-size="10.00">core/datatypes.h</text>
</a>
</g>
</g>
<!-- Node2&#45;&gt;Node3 -->
<g id="edge2" class="edge">
<title>Node2&#45;&gt;Node3</title>
<path fill="none" stroke="#63b8ff" d="M130.12,-164.66C126.46,-147.5 118.32,-109.26 113.28,-85.6"/>
<polygon fill="#63b8ff" stroke="#63b8ff" points="116.73,-84.99 111.22,-75.94 109.88,-86.45 116.73,-84.99"/>
</g>
<!-- Node7 -->
<g id="node7" class="node">
<title>Node7</title>
<g id="a_node7"><a xlink:href="array_8h.html" target="_top" xlink:title=" ">
<polygon fill="white" stroke="#666666" points="103.5,-129 36.5,-129 36.5,-110 103.5,-110 103.5,-129"/>
<text text-anchor="middle" x="70" y="-117" font-family="Helvetica,sans-Serif" font-size="10.00">core/array.h</text>
</a>
</g>
</g>
<!-- Node2&#45;&gt;Node7 -->
<g id="edge6" class="edge">
<title>Node2&#45;&gt;Node7</title>
<path fill="none" stroke="#63b8ff" d="M121.48,-164.51C112.61,-156.93 99.69,-145.88 89.01,-136.75"/>
<polygon fill="#63b8ff" stroke="#63b8ff" points="91.39,-134.18 81.51,-130.34 86.84,-139.5 91.39,-134.18"/>
</g>
<!-- Node4 -->
<g id="node4" class="node">
<title>Node4</title>
<g id="a_node4"><a xlink:title=" ">
<polygon fill="#e0e0e0" stroke="#999999" points="165,-19 121,-19 121,0 165,0 165,-19"/>
<text text-anchor="middle" x="143" y="-7" font-family="Helvetica,sans-Serif" font-size="10.00">vector</text>
</a>
</g>
</g>
<!-- Node3&#45;&gt;Node4 -->
<g id="edge3" class="edge">
<title>Node3&#45;&gt;Node4</title>
<path fill="none" stroke="#63b8ff" d="M114.61,-54.75C119.12,-47.73 125.59,-37.64 131.21,-28.87"/>
<polygon fill="#63b8ff" stroke="#63b8ff" points="133.99,-31.02 136.45,-20.72 128.1,-27.24 133.99,-31.02"/>
</g>
<!-- Node5 -->
<g id="node5" class="node">
<title>Node5</title>
<g id="a_node5"><a xlink:title=" ">
<polygon fill="#e0e0e0" stroke="#999999" points="237.5,-19 196.5,-19 196.5,0 237.5,0 237.5,-19"/>
<text text-anchor="middle" x="217" y="-7" font-family="Helvetica,sans-Serif" font-size="10.00">string</text>
</a>
</g>
</g>
<!-- Node3&#45;&gt;Node5 -->
<g id="edge4" class="edge">
<title>Node3&#45;&gt;Node5</title>
<path fill="none" stroke="#63b8ff" d="M127.32,-54.51C144.18,-46.24 169.43,-33.84 188.85,-24.31"/>
<polygon fill="#63b8ff" stroke="#63b8ff" points="190.16,-27.57 197.59,-20.02 187.07,-21.29 190.16,-27.57"/>
</g>
<!-- Node6 -->
<g id="node6" class="node">
<title>Node6</title>
<g id="a_node6"><a xlink:title=" ">
<polygon fill="#e0e0e0" stroke="#999999" points="102.5,-19 49.5,-19 49.5,0 102.5,0 102.5,-19"/>
<text text-anchor="middle" x="76" y="-7" font-family="Helvetica,sans-Serif" font-size="10.00">complex</text>
</a>
</g>
</g>
<!-- Node3&#45;&gt;Node6 -->
<g id="edge5" class="edge">
<title>Node3&#45;&gt;Node6</title>
<path fill="none" stroke="#63b8ff" d="M103.55,-54.75C99.23,-47.81 93.04,-37.86 87.62,-29.16"/>
<polygon fill="#63b8ff" stroke="#63b8ff" points="90.62,-27.37 82.37,-20.73 84.68,-31.07 90.62,-27.37"/>
</g>
<!-- Node7&#45;&gt;Node3 -->
<g id="edge7" class="edge">
<title>Node7&#45;&gt;Node3</title>
<path fill="none" stroke="#63b8ff" d="M76.44,-109.75C81.66,-102.66 89.19,-92.42 95.69,-83.59"/>
<polygon fill="#63b8ff" stroke="#63b8ff" points="98.42,-85.79 101.52,-75.66 92.78,-81.64 98.42,-85.79"/>
</g>
<!-- Node8 -->
<g id="node8" class="node">
<title>Node8</title>
<g id="a_node8"><a xlink:title=" ">
<polygon fill="#e0e0e0" stroke="#999999" points="46,-74 0,-74 0,-55 46,-55 46,-74"/>
<text text-anchor="middle" x="23" y="-62" font-family="Helvetica,sans-Serif" font-size="10.00">variant</text>
</a>
</g>
</g>
<!-- Node7&#45;&gt;Node8 -->
<g id="edge8" class="edge">
<title>Node7&#45;&gt;Node8</title>
<path fill="none" stroke="#63b8ff" d="M62.24,-109.75C55.81,-102.5 46.49,-91.98 38.54,-83.02"/>
<polygon fill="#63b8ff" stroke="#63b8ff" points="41.19,-80.73 31.93,-75.57 35.95,-85.38 41.19,-80.73"/>
</g>
<!-- Node9&#45;&gt;Node3 -->
<g id="edge15" class="edge">
<title>Node9&#45;&gt;Node3</title>
<path fill="none" stroke="#63b8ff" d="M237.71,-109.51C212.47,-100.88 174.11,-87.76 145.84,-78.1"/>
<polygon fill="#63b8ff" stroke="#63b8ff" points="147.19,-74.86 136.6,-74.94 144.93,-81.48 147.19,-74.86"/>
</g>
<!-- Node10 -->
<g id="node10" class="node">
<title>Node10</title>
<g id="a_node10"><a xlink:title=" ">
<polygon fill="#e0e0e0" stroke="#999999" points="472,-74 418,-74 418,-55 472,-55 472,-74"/>
<text text-anchor="middle" x="445" y="-62" font-family="Helvetica,sans-Serif" font-size="10.00">iostream</text>
</a>
</g>
</g>
<!-- Node9&#45;&gt;Node10 -->
<g id="edge10" class="edge">
<title>Node9&#45;&gt;Node10</title>
<path fill="none" stroke="#63b8ff" d="M294.7,-109.51C325.69,-100.43 373.62,-86.4 406.99,-76.63"/>
<polygon fill="#63b8ff" stroke="#63b8ff" points="407.64,-80.09 416.25,-73.92 405.67,-73.37 407.64,-80.09"/>
</g>
<!-- Node11 -->
<g id="node11" class="node">
<title>Node11</title>
<g id="a_node11"><a xlink:title=" ">
<polygon fill="#e0e0e0" stroke="#999999" points="542,-74 490,-74 490,-55 542,-55 542,-74"/>
<text text-anchor="middle" x="516" y="-62" font-family="Helvetica,sans-Serif" font-size="10.00">sstream</text>
</a>
</g>
</g>
<!-- Node9&#45;&gt;Node11 -->
<g id="edge11" class="edge">
<title>Node9&#45;&gt;Node11</title>
<path fill="none" stroke="#63b8ff" d="M296.8,-112.16C337.28,-104.24 408.5,-90.05 478.83,-74.42"/>
<polygon fill="#63b8ff" stroke="#63b8ff" points="479.18,-77.93 488.17,-72.34 477.65,-71.1 479.18,-77.93"/>
</g>
<!-- Node12 -->
<g id="node12" class="node">
<title>Node12</title>
<g id="a_node12"><a xlink:title=" ">
<polygon fill="#e0e0e0" stroke="#999999" points="212,-74 172,-74 172,-55 212,-55 212,-74"/>
<text text-anchor="middle" x="192" y="-62" font-family="Helvetica,sans-Serif" font-size="10.00">utility</text>
</a>
</g>
</g>
<!-- Node9&#45;&gt;Node12 -->
<g id="edge12" class="edge">
<title>Node9&#45;&gt;Node12</title>
<path fill="none" stroke="#63b8ff" d="M251.79,-109.51C241.17,-101.7 225.56,-90.21 212.96,-80.93"/>
<polygon fill="#63b8ff" stroke="#63b8ff" points="215.38,-78.36 205.25,-75.26 211.23,-84 215.38,-78.36"/>
</g>
<!-- Node13 -->
<g id="node13" class="node">
<title>Node13</title>
<g id="a_node13"><a xlink:href="error__type_8h.html" target="_top" xlink:title=" ">
<polygon fill="white" stroke="#666666" points="298,-74 230,-74 230,-55 298,-55 298,-74"/>
<text text-anchor="middle" x="264" y="-62" font-family="Helvetica,sans-Serif" font-size="10.00">error_type.h</text>
</a>
</g>
</g>
<!-- Node9&#45;&gt;Node13 -->
<g id="edge13" class="edge">
<title>Node9&#45;&gt;Node13</title>
<path fill="none" stroke="#63b8ff" d="M264,-109.75C264,-103.27 264,-94.16 264,-85.9"/>
<polygon fill="#63b8ff" stroke="#63b8ff" points="267.5,-85.96 264,-75.96 260.5,-85.96 267.5,-85.96"/>
</g>
<!-- Node14 -->
<g id="node14" class="node">
<title>Node14</title>
<g id="a_node14"><a xlink:title=" ">
<polygon fill="#e0e0e0" stroke="#999999" points="399.5,-74 316.5,-74 316.5,-55 399.5,-55 399.5,-74"/>
<text text-anchor="middle" x="358" y="-62" font-family="Helvetica,sans-Serif" font-size="10.00">uni_algo/conv.h</text>
</a>
</g>
</g>
<!-- Node9&#45;&gt;Node14 -->
<g id="edge16" class="edge">
<title>Node9&#45;&gt;Node14</title>
<path fill="none" stroke="#63b8ff" d="M279.95,-109.51C294.35,-101.39 315.79,-89.3 332.56,-79.85"/>
<polygon fill="#63b8ff" stroke="#63b8ff" points="333.98,-83.06 340.97,-75.1 330.54,-76.96 333.98,-83.06"/>
</g>
<!-- Node13&#45;&gt;Node5 -->
<g id="edge14" class="edge">
<title>Node13&#45;&gt;Node5</title>
<path fill="none" stroke="#63b8ff" d="M256.24,-54.75C249.81,-47.5 240.49,-36.98 232.54,-28.02"/>
<polygon fill="#63b8ff" stroke="#63b8ff" points="235.19,-25.73 225.93,-20.57 229.95,-30.38 235.19,-25.73"/>
</g>
</g>
</svg>
