<?xml version="1.0" encoding="UTF-8" standalone="no"?>
<!DOCTYPE svg PUBLIC "-//W3C//DTD SVG 1.1//EN"
 "http://www.w3.org/Graphics/SVG/1.1/DTD/svg11.dtd">
<!-- Generated by graphviz version 7.1.0 (20230121.1956)
 -->
<!-- Title: src/core/evaluation/algorithms.h Pages: 1 -->
<svg width="200pt" height="203pt"
 viewBox="0.00 0.00 200.00 203.00" xmlns="http://www.w3.org/2000/svg" xmlns:xlink="http://www.w3.org/1999/xlink">
<g id="graph0" class="graph" transform="scale(1 1) rotate(0) translate(4 199)">
<title>src/core/evaluation/algorithms.h</title>
<!-- Node1 -->
<g id="node1" class="node">
<title>Node1</title>
<g id="a_node1"><a xlink:title=" ">
<polygon fill="#999999" stroke="#666666" points="163.5,-195 64.5,-195 64.5,-165 163.5,-165 163.5,-195"/>
<text text-anchor="start" x="72.5" y="-183" font-family="Helvetica,sans-Serif" font-size="10.00">src/core/evaluation</text>
<text text-anchor="middle" x="114" y="-172" font-family="Helvetica,sans-Serif" font-size="10.00">/algorithms.h</text>
</a>
</g>
</g>
<!-- Node2 -->
<g id="node2" class="node">
<title>Node2</title>
<g id="a_node2"><a xlink:href="datatypes_8h.html" target="_top" xlink:title=" ">
<polygon fill="white" stroke="#666666" points="127.5,-74 38.5,-74 38.5,-55 127.5,-55 127.5,-74"/>
<text text-anchor="middle" x="83" y="-62" font-family="Helvetica,sans-Serif" font-size="10.00">core/datatypes.h</text>
</a>
</g>
</g>
<!-- Node1&#45;&gt;Node2 -->
<g id="edge1" class="edge">
<title>Node1&#45;&gt;Node2</title>
<path fill="none" stroke="#63b8ff" d="M110.07,-164.63C104.58,-144.49 94.56,-107.83 88.37,-85.18"/>
<polygon fill="#63b8ff" stroke="#63b8ff" points="91.79,-84.41 85.78,-75.69 85.04,-86.26 91.79,-84.41"/>
</g>
<!-- Node6 -->
<g id="node6" class="node">
<title>Node6</title>
<g id="a_node6"><a xlink:href="array_8h.html" target="_top" xlink:title=" ">
<polygon fill="white" stroke="#666666" points="178.5,-129 111.5,-129 111.5,-110 178.5,-110 178.5,-129"/>
<text text-anchor="middle" x="145" y="-117" font-family="Helvetica,sans-Serif" font-size="10.00">core/array.h</text>
</a>
</g>
</g>
<!-- Node1&#45;&gt;Node6 -->
<g id="edge5" class="edge">
<title>Node1&#45;&gt;Node6</title>
<path fill="none" stroke="#63b8ff" d="M121.66,-164.54C125.71,-156.91 130.71,-147.46 135.05,-139.27"/>
<polygon fill="#63b8ff" stroke="#63b8ff" points="138.1,-140.99 139.69,-130.51 131.92,-137.71 138.1,-140.99"/>
</g>
<!-- Node3 -->
<g id="node3" class="node">
<title>Node3</title>
<g id="a_node3"><a xlink:title=" ">
<polygon fill="#e0e0e0" stroke="#999999" points="44,-19 0,-19 0,0 44,0 44,-19"/>
<text text-anchor="middle" x="22" y="-7" font-family="Helvetica,sans-Serif" font-size="10.00">vector</text>
</a>
</g>
</g>
<!-- Node2&#45;&gt;Node3 -->
<g id="edge2" class="edge">
<title>Node2&#45;&gt;Node3</title>
<path fill="none" stroke="#63b8ff" d="M72.65,-54.51C63.92,-46.93 51.21,-35.88 40.7,-26.75"/>
<polygon fill="#63b8ff" stroke="#63b8ff" points="43.18,-24.27 33.34,-20.35 38.59,-29.55 43.18,-24.27"/>
</g>
<!-- Node4 -->
<g id="node4" class="node">
<title>Node4</title>
<g id="a_node4"><a xlink:title=" ">
<polygon fill="#e0e0e0" stroke="#999999" points="103.5,-19 62.5,-19 62.5,0 103.5,0 103.5,-19"/>
<text text-anchor="middle" x="83" y="-7" font-family="Helvetica,sans-Serif" font-size="10.00">string</text>
</a>
</g>
</g>
<!-- Node2&#45;&gt;Node4 -->
<g id="edge3" class="edge">
<title>Node2&#45;&gt;Node4</title>
<path fill="none" stroke="#63b8ff" d="M83,-54.75C83,-48.27 83,-39.16 83,-30.9"/>
<polygon fill="#63b8ff" stroke="#63b8ff" points="86.5,-30.96 83,-20.96 79.5,-30.96 86.5,-30.96"/>
</g>
<!-- Node5 -->
<g id="node5" class="node">
<title>Node5</title>
<g id="a_node5"><a xlink:title=" ">
<polygon fill="#e0e0e0" stroke="#999999" points="174.5,-19 121.5,-19 121.5,0 174.5,0 174.5,-19"/>
<text text-anchor="middle" x="148" y="-7" font-family="Helvetica,sans-Serif" font-size="10.00">complex</text>
</a>
</g>
</g>
<!-- Node2&#45;&gt;Node5 -->
<g id="edge4" class="edge">
<title>Node2&#45;&gt;Node5</title>
<path fill="none" stroke="#63b8ff" d="M94.03,-54.51C103.42,-46.85 117.15,-35.66 128.41,-26.47"/>
<polygon fill="#63b8ff" stroke="#63b8ff" points="130.43,-29.35 135.96,-20.31 126,-23.92 130.43,-29.35"/>
</g>
<!-- Node6&#45;&gt;Node2 -->
<g id="edge6" class="edge">
<title>Node6&#45;&gt;Node2</title>
<path fill="none" stroke="#63b8ff" d="M134.48,-109.51C125.61,-101.93 112.69,-90.88 102.01,-81.75"/>
<polygon fill="#63b8ff" stroke="#63b8ff" points="104.39,-79.18 94.51,-75.34 99.84,-84.5 104.39,-79.18"/>
</g>
<!-- Node7 -->
<g id="node7" class="node">
<title>Node7</title>
<g id="a_node7"><a xlink:title=" ">
<polygon fill="#e0e0e0" stroke="#999999" points="192,-74 146,-74 146,-55 192,-55 192,-74"/>
<text text-anchor="middle" x="169" y="-62" font-family="Helvetica,sans-Serif" font-size="10.00">variant</text>
</a>
</g>
</g>
<!-- Node6&#45;&gt;Node7 -->
<g id="edge7" class="edge">
<title>Node6&#45;&gt;Node7</title>
<path fill="none" stroke="#63b8ff" d="M148.96,-109.75C152.04,-102.96 156.41,-93.3 160.29,-84.73"/>
<polygon fill="#63b8ff" stroke="#63b8ff" points="163.39,-86.37 164.33,-75.82 157.01,-83.49 163.39,-86.37"/>
</g>
</g>
</svg>
