<?xml version="1.0" encoding="UTF-8" standalone="no"?>
<!DOCTYPE svg PUBLIC "-//W3C//DTD SVG 1.1//EN"
 "http://www.w3.org/Graphics/SVG/1.1/DTD/svg11.dtd">
<!-- Generated by graphviz version 7.1.0 (20230121.1956)
 -->
<!-- Title: src/core/array.h Pages: 1 -->
<svg width="189pt" height="137pt"
 viewBox="0.00 0.00 189.00 137.00" xmlns="http://www.w3.org/2000/svg" xmlns:xlink="http://www.w3.org/1999/xlink">
<g id="graph0" class="graph" transform="scale(1 1) rotate(0) translate(4 133)">
<title>src/core/array.h</title>
<!-- Node1 -->
<g id="node1" class="node">
<title>Node1</title>
<g id="a_node1"><a xlink:title=" ">
<polygon fill="#999999" stroke="#666666" points="161.5,-129 78.5,-129 78.5,-110 161.5,-110 161.5,-129"/>
<text text-anchor="middle" x="120" y="-117" font-family="Helvetica,sans-Serif" font-size="10.00">src/core/array.h</text>
</a>
</g>
</g>
<!-- Node2 -->
<g id="node2" class="node">
<title>Node2</title>
<g id="a_node2"><a xlink:href="datatypes_8h.html" target="_top" xlink:title=" ">
<polygon fill="white" stroke="#666666" points="117,-74 49,-74 49,-55 117,-55 117,-74"/>
<text text-anchor="middle" x="83" y="-62" font-family="Helvetica,sans-Serif" font-size="10.00">datatypes.h</text>
</a>
</g>
</g>
<!-- Node1&#45;&gt;Node2 -->
<g id="edge1" class="edge">
<title>Node1&#45;&gt;Node2</title>
<path fill="none" stroke="#63b8ff" d="M113.89,-109.75C108.99,-102.73 101.95,-92.64 95.83,-83.87"/>
<polygon fill="#63b8ff" stroke="#63b8ff" points="98.7,-81.88 90.11,-75.68 92.96,-85.89 98.7,-81.88"/>
</g>
<!-- Node6 -->
<g id="node6" class="node">
<title>Node6</title>
<g id="a_node6"><a xlink:title=" ">
<polygon fill="#e0e0e0" stroke="#999999" points="181,-74 135,-74 135,-55 181,-55 181,-74"/>
<text text-anchor="middle" x="158" y="-62" font-family="Helvetica,sans-Serif" font-size="10.00">variant</text>
</a>
</g>
</g>
<!-- Node1&#45;&gt;Node6 -->
<g id="edge5" class="edge">
<title>Node1&#45;&gt;Node6</title>
<path fill="none" stroke="#63b8ff" d="M126.27,-109.75C131.36,-102.66 138.7,-92.42 145.03,-83.59"/>
<polygon fill="#63b8ff" stroke="#63b8ff" points="147.72,-85.84 150.71,-75.67 142.04,-81.76 147.72,-85.84"/>
</g>
<!-- Node3 -->
<g id="node3" class="node">
<title>Node3</title>
<g id="a_node3"><a xlink:title=" ">
<polygon fill="#e0e0e0" stroke="#999999" points="44,-19 0,-19 0,0 44,0 44,-19"/>
<text text-anchor="middle" x="22" y="-7" font-family="Helvetica,sans-Serif" font-size="10.00">vector</text>
</a>
</g>
</g>
<!-- Node2&#45;&gt;Node3 -->
<g id="edge2" class="edge">
<title>Node2&#45;&gt;Node3</title>
<path fill="none" stroke="#63b8ff" d="M72.65,-54.51C63.92,-46.93 51.21,-35.88 40.7,-26.75"/>
<polygon fill="#63b8ff" stroke="#63b8ff" points="43.18,-24.27 33.34,-20.35 38.59,-29.55 43.18,-24.27"/>
</g>
<!-- Node4 -->
<g id="node4" class="node">
<title>Node4</title>
<g id="a_node4"><a xlink:title=" ">
<polygon fill="#e0e0e0" stroke="#999999" points="103.5,-19 62.5,-19 62.5,0 103.5,0 103.5,-19"/>
<text text-anchor="middle" x="83" y="-7" font-family="Helvetica,sans-Serif" font-size="10.00">string</text>
</a>
</g>
</g>
<!-- Node2&#45;&gt;Node4 -->
<g id="edge3" class="edge">
<title>Node2&#45;&gt;Node4</title>
<path fill="none" stroke="#63b8ff" d="M83,-54.75C83,-48.27 83,-39.16 83,-30.9"/>
<polygon fill="#63b8ff" stroke="#63b8ff" points="86.5,-30.96 83,-20.96 79.5,-30.96 86.5,-30.96"/>
</g>
<!-- Node5 -->
<g id="node5" class="node">
<title>Node5</title>
<g id="a_node5"><a xlink:title=" ">
<polygon fill="#e0e0e0" stroke="#999999" points="174.5,-19 121.5,-19 121.5,0 174.5,0 174.5,-19"/>
<text text-anchor="middle" x="148" y="-7" font-family="Helvetica,sans-Serif" font-size="10.00">complex</text>
</a>
</g>
</g>
<!-- Node2&#45;&gt;Node5 -->
<g id="edge4" class="edge">
<title>Node2&#45;&gt;Node5</title>
<path fill="none" stroke="#63b8ff" d="M94.03,-54.51C103.42,-46.85 117.15,-35.66 128.41,-26.47"/>
<polygon fill="#63b8ff" stroke="#63b8ff" points="130.43,-29.35 135.96,-20.31 126,-23.92 130.43,-29.35"/>
</g>
</g>
</svg>
