<?xml version="1.0" encoding="UTF-8" standalone="no"?>
<!DOCTYPE svg PUBLIC "-//W3C//DTD SVG 1.1//EN"
 "http://www.w3.org/Graphics/SVG/1.1/DTD/svg11.dtd">
<!-- Generated by graphviz version 7.1.0 (20230121.1956)
 -->
<!-- Title: /Users/nikolajbankejensen/Desktop/Kepler/src/core/array.cpp Pages: 1 -->
<svg width="1183pt" height="500pt"
 viewBox="0.00 0.00 1182.50 500.00" xmlns="http://www.w3.org/2000/svg" xmlns:xlink="http://www.w3.org/1999/xlink">
<g id="graph0" class="graph" transform="scale(1 1) rotate(0) translate(4 496)">
<title>/Users/nikolajbankejensen/Desktop/Kepler/src/core/array.cpp</title>
<!-- Node1 -->
<g id="node1" class="node">
<title>Node1</title>
<g id="a_node1"><a xlink:title=" ">
<polygon fill="#999999" stroke="#666666" points="474.5,-492 343.5,-492 343.5,-451 474.5,-451 474.5,-492"/>
<text text-anchor="start" x="351.5" y="-480" font-family="Helvetica,sans-Serif" font-size="10.00">/Users/nikolajbankejensen</text>
<text text-anchor="start" x="351.5" y="-469" font-family="Helvetica,sans-Serif" font-size="10.00">/Desktop/Kepler/src/core</text>
<text text-anchor="middle" x="409" y="-458" font-family="Helvetica,sans-Serif" font-size="10.00">/array.cpp</text>
</a>
</g>
</g>
<!-- Node2 -->
<g id="node2" class="node">
<title>Node2</title>
<g id="a_node2"><a xlink:href="array_8h.html" target="_top" xlink:title=" ">
<polygon fill="white" stroke="#666666" points="111.5,-129 66.5,-129 66.5,-110 111.5,-110 111.5,-129"/>
<text text-anchor="middle" x="89" y="-117" font-family="Helvetica,sans-Serif" font-size="10.00">array.h</text>
</a>
</g>
</g>
<!-- Node1&#45;&gt;Node2 -->
<g id="edge1" class="edge">
<title>Node1&#45;&gt;Node2</title>
<path fill="none" stroke="#63b8ff" d="M343.1,-463.06C236.49,-449.18 38,-414.83 38,-351.5 38,-351.5 38,-351.5 38,-234 38,-197.61 60.08,-159.97 75.18,-138.48"/>
<polygon fill="#63b8ff" stroke="#63b8ff" points="77.92,-140.66 81.01,-130.52 72.28,-136.52 77.92,-140.66"/>
</g>
<!-- Node7 -->
<g id="node7" class="node">
<title>Node7</title>
<g id="a_node7"><a xlink:title=" ">
<polygon fill="#e0e0e0" stroke="#999999" points="112,-74 66,-74 66,-55 112,-55 112,-74"/>
<text text-anchor="middle" x="89" y="-62" font-family="Helvetica,sans-Serif" font-size="10.00">variant</text>
</a>
</g>
</g>
<!-- Node1&#45;&gt;Node7 -->
<g id="edge9" class="edge">
<title>Node1&#45;&gt;Node7</title>
<path fill="none" stroke="#63b8ff" d="M343.04,-470.11C272.92,-467.35 160.33,-456.09 73,-415 34.09,-396.69 0,-394.5 0,-351.5 0,-351.5 0,-351.5 0,-173.5 0,-132.78 38.14,-99.09 64.49,-80.68"/>
<polygon fill="#63b8ff" stroke="#63b8ff" points="66.27,-83.69 72.64,-75.23 62.38,-77.87 66.27,-83.69"/>
</g>
<!-- Node8 -->
<g id="node8" class="node">
<title>Node8</title>
<g id="a_node8"><a xlink:title=" ">
<polygon fill="#e0e0e0" stroke="#999999" points="247,-129 207,-129 207,-110 247,-110 247,-129"/>
<text text-anchor="middle" x="227" y="-117" font-family="Helvetica,sans-Serif" font-size="10.00">utility</text>
</a>
</g>
</g>
<!-- Node1&#45;&gt;Node8 -->
<g id="edge7" class="edge">
<title>Node1&#45;&gt;Node8</title>
<path fill="none" stroke="#63b8ff" d="M343.32,-466.9C269.24,-458.88 159,-433.22 159,-351.5 159,-351.5 159,-351.5 159,-234 159,-195.18 188.63,-158.15 208.77,-137.47"/>
<polygon fill="#63b8ff" stroke="#63b8ff" points="211.22,-139.98 215.89,-130.47 206.31,-134.99 211.22,-139.98"/>
</g>
<!-- Node9 -->
<g id="node9" class="node">
<title>Node9</title>
<g id="a_node9"><a xlink:title=" ">
<polygon fill="#e0e0e0" stroke="#999999" points="398.5,-415 347.5,-415 347.5,-396 398.5,-396 398.5,-415"/>
<text text-anchor="middle" x="373" y="-403" font-family="Helvetica,sans-Serif" font-size="10.00">numeric</text>
</a>
</g>
</g>
<!-- Node1&#45;&gt;Node9 -->
<g id="edge8" class="edge">
<title>Node1&#45;&gt;Node9</title>
<path fill="none" stroke="#63b8ff" d="M397.81,-450.6C393.21,-442.43 387.92,-433.02 383.4,-425"/>
<polygon fill="#63b8ff" stroke="#63b8ff" points="386.57,-423.48 378.61,-416.48 380.47,-426.91 386.57,-423.48"/>
</g>
<!-- Node10 -->
<g id="node10" class="node">
<title>Node10</title>
<g id="a_node10"><a xlink:title=" ">
<polygon fill="#e0e0e0" stroke="#999999" points="473,-415 417,-415 417,-396 473,-396 473,-415"/>
<text text-anchor="middle" x="445" y="-403" font-family="Helvetica,sans-Serif" font-size="10.00">algorithm</text>
</a>
</g>
</g>
<!-- Node1&#45;&gt;Node10 -->
<g id="edge10" class="edge">
<title>Node1&#45;&gt;Node10</title>
<path fill="none" stroke="#63b8ff" d="M420.19,-450.6C424.79,-442.43 430.08,-433.02 434.6,-425"/>
<polygon fill="#63b8ff" stroke="#63b8ff" points="437.53,-426.91 439.39,-416.48 431.43,-423.48 437.53,-426.91"/>
</g>
<!-- Node11 -->
<g id="node11" class="node">
<title>Node11</title>
<g id="a_node11"><a xlink:href="array__printer_8h.html" target="_top" xlink:title=" ">
<polygon fill="white" stroke="#666666" points="1174.5,-129 1055.5,-129 1055.5,-110 1174.5,-110 1174.5,-129"/>
<text text-anchor="middle" x="1115" y="-117" font-family="Helvetica,sans-Serif" font-size="10.00">interface/array_printer.h</text>
</a>
</g>
</g>
<!-- Node1&#45;&gt;Node11 -->
<g id="edge11" class="edge">
<title>Node1&#45;&gt;Node11</title>
<path fill="none" stroke="#63b8ff" d="M474.92,-465.87C645.82,-452.99 1090,-413.54 1090,-351.5 1090,-351.5 1090,-351.5 1090,-234 1090,-200.46 1100.54,-162.63 1107.93,-140.21"/>
<polygon fill="#63b8ff" stroke="#63b8ff" points="1111.19,-141.5 1111.14,-130.9 1104.57,-139.22 1111.19,-141.5"/>
</g>
<!-- Node12 -->
<g id="node12" class="node">
<title>Node12</title>
<g id="a_node12"><a xlink:href="symbol__table_8h.html" target="_top" xlink:title=" ">
<polygon fill="white" stroke="#666666" points="637.5,-415 554.5,-415 554.5,-396 637.5,-396 637.5,-415"/>
<text text-anchor="middle" x="596" y="-403" font-family="Helvetica,sans-Serif" font-size="10.00">symbol_table.h</text>
</a>
</g>
</g>
<!-- Node1&#45;&gt;Node12 -->
<g id="edge14" class="edge">
<title>Node1&#45;&gt;Node12</title>
<path fill="none" stroke="#63b8ff" d="M467.4,-450.51C497.4,-440.24 533.05,-428.04 559.2,-419.1"/>
<polygon fill="#63b8ff" stroke="#63b8ff" points="560.02,-422.51 568.34,-415.96 557.75,-415.89 560.02,-422.51"/>
</g>
<!-- Node28 -->
<g id="node28" class="node">
<title>Node28</title>
<g id="a_node28"><a xlink:href="literals_8h.html" target="_top" xlink:title=" ">
<polygon fill="white" stroke="#666666" points="870.5,-360 817.5,-360 817.5,-341 870.5,-341 870.5,-360"/>
<text text-anchor="middle" x="844" y="-348" font-family="Helvetica,sans-Serif" font-size="10.00">literals.h</text>
</a>
</g>
</g>
<!-- Node1&#45;&gt;Node28 -->
<g id="edge56" class="edge">
<title>Node1&#45;&gt;Node28</title>
<path fill="none" stroke="#63b8ff" d="M474.78,-456.69C522.77,-446.25 589.25,-431.01 647,-415 703.73,-399.27 768.53,-377.67 807.84,-364.15"/>
<polygon fill="#63b8ff" stroke="#63b8ff" points="808.96,-367.47 817.27,-360.89 806.68,-360.85 808.96,-367.47"/>
</g>
<!-- Node3 -->
<g id="node3" class="node">
<title>Node3</title>
<g id="a_node3"><a xlink:href="datatypes_8h.html" target="_top" xlink:title=" ">
<polygon fill="white" stroke="#666666" points="825,-74 757,-74 757,-55 825,-55 825,-74"/>
<text text-anchor="middle" x="791" y="-62" font-family="Helvetica,sans-Serif" font-size="10.00">datatypes.h</text>
</a>
</g>
</g>
<!-- Node2&#45;&gt;Node3 -->
<g id="edge2" class="edge">
<title>Node2&#45;&gt;Node3</title>
<path fill="none" stroke="#63b8ff" d="M111.91,-111.67C114.62,-111.02 117.36,-110.45 120,-110 352.75,-70.78 636.37,-65.75 745.35,-65.37"/>
<polygon fill="#63b8ff" stroke="#63b8ff" points="745.35,-68.87 755.34,-65.35 745.33,-61.87 745.35,-68.87"/>
</g>
<!-- Node2&#45;&gt;Node7 -->
<g id="edge6" class="edge">
<title>Node2&#45;&gt;Node7</title>
<path fill="none" stroke="#63b8ff" d="M89,-109.75C89,-103.27 89,-94.16 89,-85.9"/>
<polygon fill="#63b8ff" stroke="#63b8ff" points="92.5,-85.96 89,-75.96 85.5,-85.96 92.5,-85.96"/>
</g>
<!-- Node4 -->
<g id="node4" class="node">
<title>Node4</title>
<g id="a_node4"><a xlink:title=" ">
<polygon fill="#e0e0e0" stroke="#999999" points="779,-19 735,-19 735,0 779,0 779,-19"/>
<text text-anchor="middle" x="757" y="-7" font-family="Helvetica,sans-Serif" font-size="10.00">vector</text>
</a>
</g>
</g>
<!-- Node3&#45;&gt;Node4 -->
<g id="edge3" class="edge">
<title>Node3&#45;&gt;Node4</title>
<path fill="none" stroke="#63b8ff" d="M785.39,-54.75C780.88,-47.73 774.41,-37.64 768.79,-28.87"/>
<polygon fill="#63b8ff" stroke="#63b8ff" points="771.9,-27.24 763.55,-20.72 766.01,-31.02 771.9,-27.24"/>
</g>
<!-- Node5 -->
<g id="node5" class="node">
<title>Node5</title>
<g id="a_node5"><a xlink:title=" ">
<polygon fill="#e0e0e0" stroke="#999999" points="978.5,-19 937.5,-19 937.5,0 978.5,0 978.5,-19"/>
<text text-anchor="middle" x="958" y="-7" font-family="Helvetica,sans-Serif" font-size="10.00">string</text>
</a>
</g>
</g>
<!-- Node3&#45;&gt;Node5 -->
<g id="edge4" class="edge">
<title>Node3&#45;&gt;Node5</title>
<path fill="none" stroke="#63b8ff" d="M819.33,-54.51C849.08,-45.07 895.75,-30.25 926.61,-20.46"/>
<polygon fill="#63b8ff" stroke="#63b8ff" points="927.29,-23.92 935.76,-17.56 925.17,-17.25 927.29,-23.92"/>
</g>
<!-- Node6 -->
<g id="node6" class="node">
<title>Node6</title>
<g id="a_node6"><a xlink:title=" ">
<polygon fill="#e0e0e0" stroke="#999999" points="850.5,-19 797.5,-19 797.5,0 850.5,0 850.5,-19"/>
<text text-anchor="middle" x="824" y="-7" font-family="Helvetica,sans-Serif" font-size="10.00">complex</text>
</a>
</g>
</g>
<!-- Node3&#45;&gt;Node6 -->
<g id="edge5" class="edge">
<title>Node3&#45;&gt;Node6</title>
<path fill="none" stroke="#63b8ff" d="M796.45,-54.75C800.77,-47.81 806.96,-37.86 812.38,-29.16"/>
<polygon fill="#63b8ff" stroke="#63b8ff" points="815.32,-31.07 817.63,-20.73 809.38,-27.37 815.32,-31.07"/>
</g>
<!-- Node11&#45;&gt;Node3 -->
<g id="edge13" class="edge">
<title>Node11&#45;&gt;Node3</title>
<path fill="none" stroke="#63b8ff" d="M1060.04,-109.51C997.07,-99.21 895.06,-82.52 836.41,-72.93"/>
<polygon fill="#63b8ff" stroke="#63b8ff" points="837.21,-69.51 826.77,-71.35 836.08,-76.42 837.21,-69.51"/>
</g>
<!-- Node11&#45;&gt;Node5 -->
<g id="edge12" class="edge">
<title>Node11&#45;&gt;Node5</title>
<path fill="none" stroke="#63b8ff" d="M1105.95,-109.59C1092.51,-96.62 1066.14,-72.22 1041,-55 1024.07,-43.4 1003.79,-32.48 987.52,-24.36"/>
<polygon fill="#63b8ff" stroke="#63b8ff" points="989.35,-21.36 978.83,-20.11 986.28,-27.65 989.35,-21.36"/>
</g>
<!-- Node12&#45;&gt;Node2 -->
<g id="edge17" class="edge">
<title>Node12&#45;&gt;Node2</title>
<path fill="none" stroke="#63b8ff" d="M554.05,-402.06C451.61,-394.94 197,-369.88 197,-296.5 197,-296.5 197,-296.5 197,-234 197,-187.86 149.58,-153.03 117.58,-134.78"/>
<polygon fill="#63b8ff" stroke="#63b8ff" points="119.59,-131.89 109.14,-130.17 116.24,-138.04 119.59,-131.89"/>
</g>
<!-- Node12&#45;&gt;Node5 -->
<g id="edge16" class="edge">
<title>Node12&#45;&gt;Node5</title>
<path fill="none" stroke="#63b8ff" d="M637.72,-402.9C745.88,-397.62 1027,-376.24 1027,-296.5 1027,-296.5 1027,-296.5 1027,-118.5 1027,-81.29 997.55,-46.6 977.13,-27.02"/>
<polygon fill="#63b8ff" stroke="#63b8ff" points="979.63,-24.57 969.9,-20.39 974.9,-29.73 979.63,-24.57"/>
</g>
<!-- Node13 -->
<g id="node13" class="node">
<title>Node13</title>
<g id="a_node13"><a xlink:title=" ">
<polygon fill="#e0e0e0" stroke="#999999" points="760.5,-305 725.5,-305 725.5,-286 760.5,-286 760.5,-305"/>
<text text-anchor="middle" x="743" y="-293" font-family="Helvetica,sans-Serif" font-size="10.00">map</text>
</a>
</g>
</g>
<!-- Node12&#45;&gt;Node13 -->
<g id="edge15" class="edge">
<title>Node12&#45;&gt;Node13</title>
<path fill="none" stroke="#63b8ff" d="M608.03,-395.66C632.9,-377.39 690.28,-335.23 721.62,-312.21"/>
<polygon fill="#63b8ff" stroke="#63b8ff" points="723.6,-315.1 729.58,-306.36 719.45,-309.46 723.6,-315.1"/>
</g>
<!-- Node14 -->
<g id="node14" class="node">
<title>Node14</title>
<g id="a_node14"><a xlink:href="ast_8h.html" target="_top" xlink:title=" ">
<polygon fill="white" stroke="#666666" points="559.5,-305 452.5,-305 452.5,-286 559.5,-286 559.5,-305"/>
<text text-anchor="middle" x="506" y="-293" font-family="Helvetica,sans-Serif" font-size="10.00">core/evaluation/ast.h</text>
</a>
</g>
</g>
<!-- Node12&#45;&gt;Node14 -->
<g id="edge18" class="edge">
<title>Node12&#45;&gt;Node14</title>
<path fill="none" stroke="#63b8ff" d="M588.63,-395.66C573.8,-377.86 540.09,-337.41 520.62,-314.04"/>
<polygon fill="#63b8ff" stroke="#63b8ff" points="523.53,-312.06 514.44,-306.62 518.15,-316.55 523.53,-312.06"/>
</g>
<!-- Node24 -->
<g id="node24" class="node">
<title>Node24</title>
<g id="a_node24"><a xlink:href="error_8h.html" target="_top" xlink:title=" ">
<polygon fill="white" stroke="#666666" points="827,-184 783,-184 783,-165 827,-165 827,-184"/>
<text text-anchor="middle" x="805" y="-172" font-family="Helvetica,sans-Serif" font-size="10.00">error.h</text>
</a>
</g>
</g>
<!-- Node12&#45;&gt;Node24 -->
<g id="edge43" class="edge">
<title>Node12&#45;&gt;Node24</title>
<path fill="none" stroke="#63b8ff" d="M626.72,-395.53C666.2,-382.35 733.96,-353.87 770,-305 794.47,-271.83 801.83,-222.63 804.05,-195.42"/>
<polygon fill="#63b8ff" stroke="#63b8ff" points="807.52,-196.01 804.66,-185.81 800.53,-195.56 807.52,-196.01"/>
</g>
<!-- Node27 -->
<g id="node27" class="node">
<title>Node27</title>
<g id="a_node27"><a xlink:href="symbol_8h.html" target="_top" xlink:title=" ">
<polygon fill="white" stroke="#666666" points="624,-360 568,-360 568,-341 624,-341 624,-360"/>
<text text-anchor="middle" x="596" y="-348" font-family="Helvetica,sans-Serif" font-size="10.00">symbol.h</text>
</a>
</g>
</g>
<!-- Node12&#45;&gt;Node27 -->
<g id="edge51" class="edge">
<title>Node12&#45;&gt;Node27</title>
<path fill="none" stroke="#63b8ff" d="M596,-395.75C596,-389.27 596,-380.16 596,-371.9"/>
<polygon fill="#63b8ff" stroke="#63b8ff" points="599.5,-371.96 596,-361.96 592.5,-371.96 599.5,-371.96"/>
</g>
<!-- Node14&#45;&gt;Node2 -->
<g id="edge21" class="edge">
<title>Node14&#45;&gt;Node2</title>
<path fill="none" stroke="#63b8ff" d="M452.23,-288.83C415.77,-283.15 367.56,-271.93 330,-250 284.94,-223.68 293.75,-191.85 249,-165 247.61,-164.17 169.28,-142.56 122.75,-129.77"/>
<polygon fill="#63b8ff" stroke="#63b8ff" points="123.7,-126.4 113.13,-127.12 121.84,-133.15 123.7,-126.4"/>
</g>
<!-- Node14&#45;&gt;Node3 -->
<g id="edge35" class="edge">
<title>Node14&#45;&gt;Node3</title>
<path fill="none" stroke="#63b8ff" d="M517.17,-285.52C560.18,-250.96 715.41,-126.24 771.01,-81.56"/>
<polygon fill="#63b8ff" stroke="#63b8ff" points="773.12,-84.36 778.73,-75.36 768.74,-78.9 773.12,-84.36"/>
</g>
<!-- Node14&#45;&gt;Node5 -->
<g id="edge19" class="edge">
<title>Node14&#45;&gt;Node5</title>
<path fill="none" stroke="#63b8ff" d="M544,-285.55C606.88,-269.93 735.59,-234.46 836,-184 904.85,-149.4 940.51,-145.19 970,-74 975.85,-59.87 972.07,-42.79 967.26,-29.91"/>
<polygon fill="#63b8ff" stroke="#63b8ff" points="970.53,-28.67 963.39,-20.85 964.1,-31.42 970.53,-28.67"/>
</g>
<!-- Node15 -->
<g id="node15" class="node">
<title>Node15</title>
<g id="a_node15"><a xlink:title=" ">
<polygon fill="#e0e0e0" stroke="#999999" points="340,-19 286,-19 286,0 340,0 340,-19"/>
<text text-anchor="middle" x="313" y="-7" font-family="Helvetica,sans-Serif" font-size="10.00">iostream</text>
</a>
</g>
</g>
<!-- Node14&#45;&gt;Node15 -->
<g id="edge20" class="edge">
<title>Node14&#45;&gt;Node15</title>
<path fill="none" stroke="#63b8ff" d="M452.22,-294.19C352.25,-290.28 140.39,-265.46 57,-129 39.85,-100.94 35.83,-80.17 57,-55 84.34,-22.5 209.94,-13.74 274.48,-11.37"/>
<polygon fill="#63b8ff" stroke="#63b8ff" points="274.39,-14.88 284.27,-11.05 274.16,-7.88 274.39,-14.88"/>
</g>
<!-- Node16 -->
<g id="node16" class="node">
<title>Node16</title>
<g id="a_node16"><a xlink:href="token_8h.html" target="_top" xlink:title=" ">
<polygon fill="white" stroke="#666666" points="518.5,-184 447.5,-184 447.5,-165 518.5,-165 518.5,-184"/>
<text text-anchor="middle" x="483" y="-172" font-family="Helvetica,sans-Serif" font-size="10.00">core/token.h</text>
</a>
</g>
</g>
<!-- Node14&#45;&gt;Node16 -->
<g id="edge22" class="edge">
<title>Node14&#45;&gt;Node16</title>
<path fill="none" stroke="#63b8ff" d="M513.9,-285.63C525.45,-271.51 544.52,-243.14 534,-220 528.62,-208.16 518.36,-198.25 508.45,-190.8"/>
<polygon fill="#63b8ff" stroke="#63b8ff" points="510.69,-188.09 500.47,-185.3 506.71,-193.85 510.69,-188.09"/>
</g>
<!-- Node21 -->
<g id="node21" class="node">
<title>Node21</title>
<g id="a_node21"><a xlink:href="position_8h.html" target="_top" xlink:title=" ">
<polygon fill="white" stroke="#666666" points="188.5,-129 129.5,-129 129.5,-110 188.5,-110 188.5,-129"/>
<text text-anchor="middle" x="159" y="-117" font-family="Helvetica,sans-Serif" font-size="10.00">position.h</text>
</a>
</g>
</g>
<!-- Node14&#45;&gt;Node21 -->
<g id="edge42" class="edge">
<title>Node14&#45;&gt;Node21</title>
<path fill="none" stroke="#63b8ff" d="M456.62,-285.56C428.24,-278.86 392.82,-267.72 365,-250 321.75,-222.46 329.85,-193.16 287,-165 272.36,-155.38 231.43,-141.89 199.75,-132.29"/>
<polygon fill="#63b8ff" stroke="#63b8ff" points="201.03,-129.02 190.44,-129.5 199.02,-135.72 201.03,-129.02"/>
</g>
<!-- Node22 -->
<g id="node22" class="node">
<title>Node22</title>
<g id="a_node22"><a xlink:title=" ">
<polygon fill="#e0e0e0" stroke="#999999" points="391,-184 339,-184 339,-165 391,-165 391,-184"/>
<text text-anchor="middle" x="365" y="-172" font-family="Helvetica,sans-Serif" font-size="10.00">memory</text>
</a>
</g>
</g>
<!-- Node14&#45;&gt;Node22 -->
<g id="edge36" class="edge">
<title>Node14&#45;&gt;Node22</title>
<path fill="none" stroke="#63b8ff" d="M452.12,-286.17C428.54,-279.91 402.36,-269 385,-250 371.32,-235.03 366.83,-211.71 365.44,-195.15"/>
<polygon fill="#63b8ff" stroke="#63b8ff" points="368.95,-195.38 364.96,-185.57 361.96,-195.73 368.95,-195.38"/>
</g>
<!-- Node23 -->
<g id="node23" class="node">
<title>Node23</title>
<g id="a_node23"><a xlink:href="operation_8h.html" target="_top" xlink:title=" ">
<polygon fill="white" stroke="#666666" points="524.5,-250 393.5,-250 393.5,-220 524.5,-220 524.5,-250"/>
<text text-anchor="start" x="401.5" y="-238" font-family="Helvetica,sans-Serif" font-size="10.00">core/evaluation/operations</text>
<text text-anchor="middle" x="459" y="-227" font-family="Helvetica,sans-Serif" font-size="10.00">/operation.h</text>
</a>
</g>
</g>
<!-- Node14&#45;&gt;Node23 -->
<g id="edge37" class="edge">
<title>Node14&#45;&gt;Node23</title>
<path fill="none" stroke="#63b8ff" d="M499.06,-285.87C493.4,-278.81 485.11,-268.5 477.54,-259.08"/>
<polygon fill="#63b8ff" stroke="#63b8ff" points="480.28,-256.9 471.29,-251.29 474.82,-261.28 480.28,-256.9"/>
</g>
<!-- Node16&#45;&gt;Node2 -->
<g id="edge27" class="edge">
<title>Node16&#45;&gt;Node2</title>
<path fill="none" stroke="#63b8ff" d="M447.26,-167.18C442.47,-166.41 437.62,-165.66 433,-165 298.03,-145.78 259.5,-155.07 123.22,-129.37"/>
<polygon fill="#63b8ff" stroke="#63b8ff" points="123.9,-125.94 113.42,-127.49 122.58,-132.81 123.9,-125.94"/>
</g>
<!-- Node16&#45;&gt;Node3 -->
<g id="edge25" class="edge">
<title>Node16&#45;&gt;Node3</title>
<path fill="none" stroke="#63b8ff" d="M482.87,-164.56C483.2,-150.63 486.03,-123.9 502,-110 537.5,-79.09 673.19,-69.61 745.31,-66.73"/>
<polygon fill="#63b8ff" stroke="#63b8ff" points="745.36,-70.23 755.23,-66.37 745.1,-63.24 745.36,-70.23"/>
</g>
<!-- Node16&#45;&gt;Node8 -->
<g id="edge32" class="edge">
<title>Node16&#45;&gt;Node8</title>
<path fill="none" stroke="#63b8ff" d="M447.13,-166.85C403.15,-158.57 326.38,-143.72 261,-129 260.18,-128.81 259.34,-128.62 258.5,-128.43"/>
<polygon fill="#63b8ff" stroke="#63b8ff" points="259.47,-125.06 248.93,-126.13 257.84,-131.87 259.47,-125.06"/>
</g>
<!-- Node17 -->
<g id="node17" class="node">
<title>Node17</title>
<g id="a_node17"><a xlink:href="token__type_8h.html" target="_top" xlink:title=" ">
<polygon fill="white" stroke="#666666" points="349.5,-74 276.5,-74 276.5,-55 349.5,-55 349.5,-74"/>
<text text-anchor="middle" x="313" y="-62" font-family="Helvetica,sans-Serif" font-size="10.00">token_type.h</text>
</a>
</g>
</g>
<!-- Node16&#45;&gt;Node17 -->
<g id="edge23" class="edge">
<title>Node16&#45;&gt;Node17</title>
<path fill="none" stroke="#63b8ff" d="M447.24,-167.29C396.37,-158.09 308.2,-140.69 299,-129 288.97,-116.26 294.6,-97.83 301.48,-84.1"/>
<polygon fill="#63b8ff" stroke="#63b8ff" points="304.4,-86.06 306.24,-75.62 298.29,-82.63 304.4,-86.06"/>
</g>
<!-- Node18 -->
<g id="node18" class="node">
<title>Node18</title>
<g id="a_node18"><a xlink:title=" ">
<polygon fill="#e0e0e0" stroke="#999999" points="700.5,-129 617.5,-129 617.5,-110 700.5,-110 700.5,-129"/>
<text text-anchor="middle" x="659" y="-117" font-family="Helvetica,sans-Serif" font-size="10.00">uni_algo/conv.h</text>
</a>
</g>
</g>
<!-- Node16&#45;&gt;Node18 -->
<g id="edge26" class="edge">
<title>Node16&#45;&gt;Node18</title>
<path fill="none" stroke="#63b8ff" d="M512.86,-164.51C541.89,-155.76 586.22,-142.42 618.44,-132.71"/>
<polygon fill="#63b8ff" stroke="#63b8ff" points="619.28,-136.12 627.84,-129.88 617.26,-129.41 619.28,-136.12"/>
</g>
<!-- Node19 -->
<g id="node19" class="node">
<title>Node19</title>
<g id="a_node19"><a xlink:href="conversion_8h.html" target="_top" xlink:title=" ">
<polygon fill="white" stroke="#666666" points="454.5,-129 341.5,-129 341.5,-110 454.5,-110 454.5,-129"/>
<text text-anchor="middle" x="398" y="-117" font-family="Helvetica,sans-Serif" font-size="10.00">interface/conversion.h</text>
</a>
</g>
</g>
<!-- Node16&#45;&gt;Node19 -->
<g id="edge28" class="edge">
<title>Node16&#45;&gt;Node19</title>
<path fill="none" stroke="#63b8ff" d="M468.58,-164.51C455.8,-156.54 436.9,-144.75 421.87,-135.38"/>
<polygon fill="#63b8ff" stroke="#63b8ff" points="423.83,-132.48 413.49,-130.16 420.12,-138.42 423.83,-132.48"/>
</g>
<!-- Node20 -->
<g id="node20" class="node">
<title>Node20</title>
<g id="a_node20"><a xlink:title=" ">
<polygon fill="#e0e0e0" stroke="#999999" points="561,-129 511,-129 511,-110 561,-110 561,-129"/>
<text text-anchor="middle" x="536" y="-117" font-family="Helvetica,sans-Serif" font-size="10.00">optional</text>
</a>
</g>
</g>
<!-- Node16&#45;&gt;Node20 -->
<g id="edge33" class="edge">
<title>Node16&#45;&gt;Node20</title>
<path fill="none" stroke="#63b8ff" d="M491.75,-164.75C499.15,-157.35 509.96,-146.54 519.05,-137.45"/>
<polygon fill="#63b8ff" stroke="#63b8ff" points="521.39,-140.06 525.99,-130.51 516.44,-135.11 521.39,-140.06"/>
</g>
<!-- Node16&#45;&gt;Node21 -->
<g id="edge34" class="edge">
<title>Node16&#45;&gt;Node21</title>
<path fill="none" stroke="#63b8ff" d="M447.23,-167.35C442.45,-166.54 437.61,-165.74 433,-165 332.26,-148.72 303.82,-148.27 200.08,-129.28"/>
<polygon fill="#63b8ff" stroke="#63b8ff" points="200.73,-125.84 190.26,-127.46 199.46,-132.72 200.73,-125.84"/>
</g>
<!-- Node17&#45;&gt;Node15 -->
<g id="edge24" class="edge">
<title>Node17&#45;&gt;Node15</title>
<path fill="none" stroke="#63b8ff" d="M313,-54.75C313,-48.27 313,-39.16 313,-30.9"/>
<polygon fill="#63b8ff" stroke="#63b8ff" points="316.5,-30.96 313,-20.96 309.5,-30.96 316.5,-30.96"/>
</g>
<!-- Node19&#45;&gt;Node3 -->
<g id="edge30" class="edge">
<title>Node19&#45;&gt;Node3</title>
<path fill="none" stroke="#63b8ff" d="M454.73,-110.85C533.15,-100.27 673.17,-81.39 745.29,-71.66"/>
<polygon fill="#63b8ff" stroke="#63b8ff" points="745.74,-75.14 755.18,-70.33 744.8,-68.2 745.74,-75.14"/>
</g>
<!-- Node19&#45;&gt;Node5 -->
<g id="edge29" class="edge">
<title>Node19&#45;&gt;Node5</title>
<path fill="none" stroke="#63b8ff" d="M444.3,-109.57C554.88,-88.25 832.09,-34.78 926.18,-16.64"/>
<polygon fill="#63b8ff" stroke="#63b8ff" points="926.58,-20.12 935.74,-14.79 925.25,-13.25 926.58,-20.12"/>
</g>
<!-- Node19&#45;&gt;Node17 -->
<g id="edge31" class="edge">
<title>Node19&#45;&gt;Node17</title>
<path fill="none" stroke="#63b8ff" d="M383.58,-109.51C370.8,-101.54 351.9,-89.75 336.87,-80.38"/>
<polygon fill="#63b8ff" stroke="#63b8ff" points="338.83,-77.48 328.49,-75.16 335.12,-83.42 338.83,-77.48"/>
</g>
<!-- Node23&#45;&gt;Node2 -->
<g id="edge39" class="edge">
<title>Node23&#45;&gt;Node2</title>
<path fill="none" stroke="#63b8ff" d="M451.14,-219.61C441.42,-203.37 423.29,-177.59 400,-165 292.86,-107.08 245.81,-150.91 123.24,-129.31"/>
<polygon fill="#63b8ff" stroke="#63b8ff" points="123.9,-125.87 113.42,-127.45 122.6,-132.75 123.9,-125.87"/>
</g>
<!-- Node23&#45;&gt;Node3 -->
<g id="edge38" class="edge">
<title>Node23&#45;&gt;Node3</title>
<path fill="none" stroke="#63b8ff" d="M480.3,-219.5C494.18,-209.83 512.52,-196.61 528,-184 565.8,-153.2 565.98,-132.95 609,-110 652.05,-87.04 707.12,-75.71 745.36,-70.26"/>
<polygon fill="#63b8ff" stroke="#63b8ff" points="745.71,-73.75 755.15,-68.95 744.78,-66.81 745.71,-73.75"/>
</g>
<!-- Node23&#45;&gt;Node16 -->
<g id="edge40" class="edge">
<title>Node23&#45;&gt;Node16</title>
<path fill="none" stroke="#63b8ff" d="M464.93,-219.54C468.03,-212 471.85,-202.67 475.19,-194.55"/>
<polygon fill="#63b8ff" stroke="#63b8ff" points="478.31,-196.16 478.87,-185.58 471.83,-193.5 478.31,-196.16"/>
</g>
<!-- Node23&#45;&gt;Node22 -->
<g id="edge41" class="edge">
<title>Node23&#45;&gt;Node22</title>
<path fill="none" stroke="#63b8ff" d="M435.76,-219.54C421.5,-210.66 403.28,-199.32 388.9,-190.37"/>
<polygon fill="#63b8ff" stroke="#63b8ff" points="390.84,-187.46 380.5,-185.15 387.14,-193.4 390.84,-187.46"/>
</g>
<!-- Node24&#45;&gt;Node3 -->
<g id="edge49" class="edge">
<title>Node24&#45;&gt;Node3</title>
<path fill="none" stroke="#63b8ff" d="M803.85,-164.66C801.63,-147.5 796.67,-109.26 793.61,-85.6"/>
<polygon fill="#63b8ff" stroke="#63b8ff" points="797.11,-85.43 792.36,-75.96 790.17,-86.33 797.11,-85.43"/>
</g>
<!-- Node24&#45;&gt;Node8 -->
<g id="edge46" class="edge">
<title>Node24&#45;&gt;Node8</title>
<path fill="none" stroke="#63b8ff" d="M782.7,-171.45C693.59,-163.28 362.95,-132.97 258.7,-123.41"/>
<polygon fill="#63b8ff" stroke="#63b8ff" points="259.19,-119.94 248.92,-122.51 258.55,-126.91 259.19,-119.94"/>
</g>
<!-- Node24&#45;&gt;Node15 -->
<g id="edge44" class="edge">
<title>Node24&#45;&gt;Node15</title>
<path fill="none" stroke="#63b8ff" d="M794.33,-164.54C777.47,-150.84 743.19,-124.72 710,-110 585.09,-54.61 423.84,-26.29 351.31,-15.63"/>
<polygon fill="#63b8ff" stroke="#63b8ff" points="351.94,-12.18 341.55,-14.22 350.95,-19.11 351.94,-12.18"/>
</g>
<!-- Node24&#45;&gt;Node18 -->
<g id="edge50" class="edge">
<title>Node24&#45;&gt;Node18</title>
<path fill="none" stroke="#63b8ff" d="M782.51,-165.33C759.03,-156.81 721.87,-143.32 694.44,-133.37"/>
<polygon fill="#63b8ff" stroke="#63b8ff" points="695.73,-130.11 685.14,-129.99 693.34,-136.69 695.73,-130.11"/>
</g>
<!-- Node25 -->
<g id="node25" class="node">
<title>Node25</title>
<g id="a_node25"><a xlink:title=" ">
<polygon fill="#e0e0e0" stroke="#999999" points="885,-129 833,-129 833,-110 885,-110 885,-129"/>
<text text-anchor="middle" x="859" y="-117" font-family="Helvetica,sans-Serif" font-size="10.00">sstream</text>
</a>
</g>
</g>
<!-- Node24&#45;&gt;Node25 -->
<g id="edge45" class="edge">
<title>Node24&#45;&gt;Node25</title>
<path fill="none" stroke="#63b8ff" d="M813.92,-164.75C821.45,-157.35 832.47,-146.54 841.73,-137.45"/>
<polygon fill="#63b8ff" stroke="#63b8ff" points="844.12,-140 848.81,-130.5 839.22,-135.01 844.12,-140"/>
</g>
<!-- Node26 -->
<g id="node26" class="node">
<title>Node26</title>
<g id="a_node26"><a xlink:href="error__type_8h.html" target="_top" xlink:title=" ">
<polygon fill="white" stroke="#666666" points="961,-74 893,-74 893,-55 961,-55 961,-74"/>
<text text-anchor="middle" x="927" y="-62" font-family="Helvetica,sans-Serif" font-size="10.00">error_type.h</text>
</a>
</g>
</g>
<!-- Node24&#45;&gt;Node26 -->
<g id="edge47" class="edge">
<title>Node24&#45;&gt;Node26</title>
<path fill="none" stroke="#63b8ff" d="M827.48,-166.69C847.05,-159.82 875.17,-147.54 894,-129 906.46,-116.73 915.2,-98.75 920.54,-85.06"/>
<polygon fill="#63b8ff" stroke="#63b8ff" points="923.78,-86.39 923.85,-75.8 917.18,-84.03 923.78,-86.39"/>
</g>
<!-- Node26&#45;&gt;Node5 -->
<g id="edge48" class="edge">
<title>Node26&#45;&gt;Node5</title>
<path fill="none" stroke="#63b8ff" d="M932.12,-54.75C936.18,-47.81 941.99,-37.86 947.09,-29.16"/>
<polygon fill="#63b8ff" stroke="#63b8ff" points="949.98,-31.15 952.01,-20.75 943.94,-27.61 949.98,-31.15"/>
</g>
<!-- Node27&#45;&gt;Node2 -->
<g id="edge54" class="edge">
<title>Node27&#45;&gt;Node2</title>
<path fill="none" stroke="#63b8ff" d="M567.54,-341.76C536.87,-333.28 486.72,-319.02 444,-305 376.14,-282.73 352.89,-288.92 293,-250 248.99,-221.39 255.01,-193.62 211,-165 196.1,-155.31 153.29,-140.68 122.59,-130.87"/>
<polygon fill="#63b8ff" stroke="#63b8ff" points="123.94,-127.62 113.35,-127.95 121.83,-134.3 123.94,-127.62"/>
</g>
<!-- Node27&#45;&gt;Node13 -->
<g id="edge52" class="edge">
<title>Node27&#45;&gt;Node13</title>
<path fill="none" stroke="#63b8ff" d="M620.94,-340.51C646.88,-331.15 687.44,-316.53 714.6,-306.74"/>
<polygon fill="#63b8ff" stroke="#63b8ff" points="715.7,-310.06 723.92,-303.38 713.33,-303.48 715.7,-310.06"/>
</g>
<!-- Node27&#45;&gt;Node14 -->
<g id="edge55" class="edge">
<title>Node27&#45;&gt;Node14</title>
<path fill="none" stroke="#63b8ff" d="M580.73,-340.51C567.07,-332.47 546.8,-320.53 530.82,-311.11"/>
<polygon fill="#63b8ff" stroke="#63b8ff" points="532.74,-308.18 522.35,-306.13 529.19,-314.22 532.74,-308.18"/>
</g>
<!-- Node27&#45;&gt;Node20 -->
<g id="edge53" class="edge">
<title>Node27&#45;&gt;Node20</title>
<path fill="none" stroke="#63b8ff" d="M593.65,-340.52C584.82,-306.82 553.51,-187.35 541.11,-140.02"/>
<polygon fill="#63b8ff" stroke="#63b8ff" points="544.58,-139.42 538.66,-130.63 537.8,-141.19 544.58,-139.42"/>
</g>
<!-- Node28&#45;&gt;Node3 -->
<g id="edge57" class="edge">
<title>Node28&#45;&gt;Node3</title>
<path fill="none" stroke="#63b8ff" d="M854.18,-340.62C873.37,-322.85 913,-280.74 913,-236 913,-236 913,-236 913,-173.5 913,-144.04 913.58,-132.01 894,-110 878.93,-93.05 856.26,-82.31 836.02,-75.64"/>
<polygon fill="#63b8ff" stroke="#63b8ff" points="837.12,-72.32 826.54,-72.78 835.1,-79.02 837.12,-72.32"/>
</g>
<!-- Node28&#45;&gt;Node13 -->
<g id="edge59" class="edge">
<title>Node28&#45;&gt;Node13</title>
<path fill="none" stroke="#63b8ff" d="M826.87,-340.51C811.25,-332.31 787.92,-320.07 769.83,-310.58"/>
<polygon fill="#63b8ff" stroke="#63b8ff" points="771.7,-307.61 761.22,-306.06 768.45,-313.81 771.7,-307.61"/>
</g>
<!-- Node28&#45;&gt;Node17 -->
<g id="edge58" class="edge">
<title>Node28&#45;&gt;Node17</title>
<path fill="none" stroke="#63b8ff" d="M835.46,-340.92C822.24,-327.95 795.66,-303.05 770,-286 669.84,-219.46 642.03,-203.18 528,-165 444.43,-137.02 399.02,-187.38 333,-129 320.68,-118.1 315.88,-99.7 314.04,-85.5"/>
<polygon fill="#63b8ff" stroke="#63b8ff" points="317.56,-85.57 313.21,-75.91 310.59,-86.17 317.56,-85.57"/>
</g>
<!-- Node29 -->
<g id="node29" class="node">
<title>Node29</title>
<g id="a_node29"><a xlink:title=" ">
<polygon fill="#e0e0e0" stroke="#999999" points="987,-305 941,-305 941,-286 987,-286 987,-305"/>
<text text-anchor="middle" x="964" y="-293" font-family="Helvetica,sans-Serif" font-size="10.00">ranges</text>
</a>
</g>
</g>
<!-- Node28&#45;&gt;Node29 -->
<g id="edge60" class="edge">
<title>Node28&#45;&gt;Node29</title>
<path fill="none" stroke="#63b8ff" d="M864.36,-340.51C883.35,-332.12 911.93,-319.5 933.62,-309.92"/>
<polygon fill="#63b8ff" stroke="#63b8ff" points="934.83,-313.21 942.56,-305.97 932,-306.81 934.83,-313.21"/>
</g>
</g>
</svg>
