<?xml version="1.0" encoding="UTF-8" standalone="no"?>
<!DOCTYPE svg PUBLIC "-//W3C//DTD SVG 1.1//EN"
 "http://www.w3.org/Graphics/SVG/1.1/DTD/svg11.dtd">
<!-- Generated by graphviz version 7.1.0 (20230121.1956)
 -->
<!-- Title: /Users/nikolajbankejensen/Desktop/Kepler/src/interface/array_printer.cpp Pages: 1 -->
<!--zoomable 324 -->
<svg id="main" version="1.1" xmlns="http://www.w3.org/2000/svg" xmlns:xlink="http://www.w3.org/1999/xlink" xml:space="preserve" onload="init(evt)">
<style type="text/css"><![CDATA[
.edge:hover path { stroke: red; }
.edge:hover polygon { stroke: red; fill: red; }
]]></style>
<script type="text/javascript"><![CDATA[
var edges = document.getElementsByTagName('g');
if (edges && edges.length) {
  for (var i=0;i<edges.length;i++) {
    if (edges[i].id.substr(0,4)=='edge') {
      edges[i].setAttribute('class','edge');
    }
  }
}
]]></script>
        <defs>
                <circle id="rim" cx="0" cy="0" r="7"/>
                <circle id="rim2" cx="0" cy="0" r="3.5"/>
                <g id="zoomPlus">
                        <use xlink:href="#rim" fill="#404040">
                                <set attributeName="fill" to="#808080" begin="zoomplus.mouseover" end="zoomplus.mouseout"/>
                        </use>
                        <path d="M-4,0h8M0,-4v8" fill="none" stroke="white" stroke-width="1.5" pointer-events="none"/>
                </g>
                <g id="zoomMin">
                        <use xlink:href="#rim" fill="#404040">
                                <set attributeName="fill" to="#808080" begin="zoomminus.mouseover" end="zoomminus.mouseout"/>
                        </use>
                        <path d="M-4,0h8" fill="none" stroke="white" stroke-width="1.5" pointer-events="none"/>
                </g>
                <g id="dirArrow">
                        <path fill="none" stroke="white" stroke-width="1.5" d="M0,-3.0v7 M-2.5,-0.5L0,-3.0L2.5,-0.5"/>
                </g>
               <g id="resetDef">
                       <use xlink:href="#rim2" fill="#404040">
                               <set attributeName="fill" to="#808080" begin="reset.mouseover" end="reset.mouseout"/>
                       </use>
               </g>
        </defs>

<script type="text/javascript">
var viewWidth = 752;
var viewHeight = 324;
var sectionId = 'dynsection-0';
</script>
<script xlink:href="svgpan.js"/>
<svg id="graph" class="graph">
<g id="viewport">
<title>/Users/nikolajbankejensen/Desktop/Kepler/src/interface/array_printer.cpp</title>
<!-- Node1 -->
<g id="node1" class="node">
<title>Node1</title>
<g id="a_node1"><a xlink:title=" ">
<polygon fill="#999999" stroke="#666666" points="436,-316 292,-316 292,-275 436,-275 436,-316"/>
<text text-anchor="start" x="300" y="-304" font-family="Helvetica,sans-Serif" font-size="10.00">/Users/nikolajbankejensen</text>
<text text-anchor="start" x="300" y="-293" font-family="Helvetica,sans-Serif" font-size="10.00">/Desktop/Kepler/src/interface</text>
<text text-anchor="middle" x="364" y="-282" font-family="Helvetica,sans-Serif" font-size="10.00">/array_printer.cpp</text>
</a>
</g>
</g>
<!-- Node2 -->
<g id="node2" class="node">
<title>Node2</title>
<g id="a_node2"><a xlink:href="array_8h.html" target="_top" xlink:title=" ">
<polygon fill="white" stroke="#666666" points="133.5,-129 66.5,-129 66.5,-110 133.5,-110 133.5,-129"/>
<text text-anchor="middle" x="100" y="-117" font-family="Helvetica,sans-Serif" font-size="10.00">core/array.h</text>
</a>
</g>
</g>
<!-- Node1&#45;&gt;Node2 -->
<g id="edge1" class="edge">
<title>Node1&#45;&gt;Node2</title>
<path fill="none" stroke="#63b8ff" d="M333.72,-274.54C280.34,-239.36 170.67,-167.08 122.99,-135.65"/>
<polygon fill="#63b8ff" stroke="#63b8ff" points="125.08,-132.84 114.8,-130.26 121.22,-138.68 125.08,-132.84"/>
</g>
<!-- Node4 -->
<g id="node4" class="node">
<title>Node4</title>
<g id="a_node4"><a xlink:title=" ">
<polygon fill="#e0e0e0" stroke="#999999" points="67,-19 23,-19 23,0 67,0 67,-19"/>
<text text-anchor="middle" x="45" y="-7" font-family="Helvetica,sans-Serif" font-size="10.00">vector</text>
</a>
</g>
</g>
<!-- Node1&#45;&gt;Node4 -->
<g id="edge25" class="edge">
<title>Node1&#45;&gt;Node4</title>
<path fill="none" stroke="#63b8ff" d="M291.64,-290.81C231.18,-285.39 144.02,-272.01 75,-239 35.6,-220.15 0,-219.18 0,-175.5 0,-175.5 0,-175.5 0,-118.5 0,-84.77 18.93,-49.36 32.24,-28.64"/>
<polygon fill="#63b8ff" stroke="#63b8ff" points="35.04,-30.74 37.71,-20.48 29.23,-26.84 35.04,-30.74"/>
</g>
<!-- Node5 -->
<g id="node5" class="node">
<title>Node5</title>
<g id="a_node5"><a xlink:title=" ">
<polygon fill="#e0e0e0" stroke="#999999" points="191.5,-19 150.5,-19 150.5,0 191.5,0 191.5,-19"/>
<text text-anchor="middle" x="171" y="-7" font-family="Helvetica,sans-Serif" font-size="10.00">string</text>
</a>
</g>
</g>
<!-- Node1&#45;&gt;Node5 -->
<g id="edge24" class="edge">
<title>Node1&#45;&gt;Node5</title>
<path fill="none" stroke="#63b8ff" d="M291.65,-283.02C195.61,-265.71 38,-229.12 38,-175.5 38,-175.5 38,-175.5 38,-118.5 38,-87.29 45.56,-76.7 68,-55 87.79,-35.86 117.13,-24.29 139.44,-17.76"/>
<polygon fill="#63b8ff" stroke="#63b8ff" points="140.18,-21.19 148.92,-15.19 138.35,-14.43 140.18,-21.19"/>
</g>
<!-- Node8 -->
<g id="node8" class="node">
<title>Node8</title>
<g id="a_node8"><a xlink:href="array__printer_8h.html" target="_top" xlink:title=" ">
<polygon fill="white" stroke="#666666" points="230,-129 152,-129 152,-110 230,-110 230,-129"/>
<text text-anchor="middle" x="191" y="-117" font-family="Helvetica,sans-Serif" font-size="10.00">array_printer.h</text>
</a>
</g>
</g>
<!-- Node1&#45;&gt;Node8 -->
<g id="edge7" class="edge">
<title>Node1&#45;&gt;Node8</title>
<path fill="none" stroke="#63b8ff" d="M344.15,-274.54C309.76,-239.94 239.68,-169.46 207.65,-137.24"/>
<polygon fill="#63b8ff" stroke="#63b8ff" points="210.28,-134.93 200.75,-130.31 205.32,-139.87 210.28,-134.93"/>
</g>
<!-- Node9 -->
<g id="node9" class="node">
<title>Node9</title>
<g id="a_node9"><a xlink:href="helpers_8h.html" target="_top" xlink:title=" ">
<polygon fill="white" stroke="#666666" points="403,-239 325,-239 325,-220 403,-220 403,-239"/>
<text text-anchor="middle" x="364" y="-227" font-family="Helvetica,sans-Serif" font-size="10.00">core/helpers.h</text>
</a>
</g>
</g>
<!-- Node1&#45;&gt;Node9 -->
<g id="edge10" class="edge">
<title>Node1&#45;&gt;Node9</title>
<path fill="none" stroke="#63b8ff" d="M364,-274.6C364,-266.98 364,-258.3 364,-250.66"/>
<polygon fill="#63b8ff" stroke="#63b8ff" points="367.5,-250.68 364,-240.68 360.5,-250.68 367.5,-250.68"/>
</g>
<!-- Node13 -->
<g id="node13" class="node">
<title>Node13</title>
<g id="a_node13"><a xlink:title=" ">
<polygon fill="#e0e0e0" stroke="#999999" points="743.5,-129 660.5,-129 660.5,-110 743.5,-110 743.5,-129"/>
<text text-anchor="middle" x="702" y="-117" font-family="Helvetica,sans-Serif" font-size="10.00">uni_algo/conv.h</text>
</a>
</g>
</g>
<!-- Node1&#45;&gt;Node13 -->
<g id="edge28" class="edge">
<title>Node1&#45;&gt;Node13</title>
<path fill="none" stroke="#63b8ff" d="M395.07,-274.58C419.84,-259.01 455.61,-237.2 488,-220 551.45,-186.31 628.37,-152.1 670.54,-133.88"/>
<polygon fill="#63b8ff" stroke="#63b8ff" points="671.79,-137.15 679.59,-129.99 669.03,-130.72 671.79,-137.15"/>
</g>
<!-- Node14 -->
<g id="node14" class="node">
<title>Node14</title>
<g id="a_node14"><a xlink:href="conversion_8h.html" target="_top" xlink:title=" ">
<polygon fill="white" stroke="#666666" points="603.5,-129 490.5,-129 490.5,-110 603.5,-110 603.5,-129"/>
<text text-anchor="middle" x="547" y="-117" font-family="Helvetica,sans-Serif" font-size="10.00">interface/conversion.h</text>
</a>
</g>
</g>
<!-- Node1&#45;&gt;Node14 -->
<g id="edge27" class="edge">
<title>Node1&#45;&gt;Node14</title>
<path fill="none" stroke="#63b8ff" d="M382.73,-274.69C392.02,-264.42 403.12,-251.44 412,-239 434.09,-208.04 427.1,-190.86 455,-165 469.98,-151.12 490.09,-140.72 507.69,-133.48"/>
<polygon fill="#63b8ff" stroke="#63b8ff" points="508.78,-136.81 516.84,-129.93 506.25,-130.29 508.78,-136.81"/>
</g>
<!-- Node18 -->
<g id="node18" class="node">
<title>Node18</title>
<g id="a_node18"><a xlink:title=" ">
<polygon fill="#e0e0e0" stroke="#999999" points="553,-239 497,-239 497,-220 553,-220 553,-239"/>
<text text-anchor="middle" x="525" y="-227" font-family="Helvetica,sans-Serif" font-size="10.00">algorithm</text>
</a>
</g>
</g>
<!-- Node1&#45;&gt;Node18 -->
<g id="edge26" class="edge">
<title>Node1&#45;&gt;Node18</title>
<path fill="none" stroke="#63b8ff" d="M414.06,-274.6C439.49,-264.49 469.67,-252.5 492.12,-243.57"/>
<polygon fill="#63b8ff" stroke="#63b8ff" points="493.38,-246.84 501.38,-239.89 490.79,-240.33 493.38,-246.84"/>
</g>
<!-- Node19 -->
<g id="node19" class="node">
<title>Node19</title>
<g id="a_node19"><a xlink:title=" ">
<polygon fill="#e0e0e0" stroke="#999999" points="622.5,-239 571.5,-239 571.5,-220 622.5,-220 622.5,-239"/>
<text text-anchor="middle" x="597" y="-227" font-family="Helvetica,sans-Serif" font-size="10.00">numeric</text>
</a>
</g>
</g>
<!-- Node1&#45;&gt;Node19 -->
<g id="edge29" class="edge">
<title>Node1&#45;&gt;Node19</title>
<path fill="none" stroke="#63b8ff" d="M436.45,-274.6C477.43,-263.34 526.95,-249.74 560.06,-240.65"/>
<polygon fill="#63b8ff" stroke="#63b8ff" points="560.87,-244.05 569.59,-238.03 559.02,-237.3 560.87,-244.05"/>
</g>
<!-- Node3 -->
<g id="node3" class="node">
<title>Node3</title>
<g id="a_node3"><a xlink:href="datatypes_8h.html" target="_top" xlink:title=" ">
<polygon fill="white" stroke="#666666" points="267,-74 199,-74 199,-55 267,-55 267,-74"/>
<text text-anchor="middle" x="233" y="-62" font-family="Helvetica,sans-Serif" font-size="10.00">datatypes.h</text>
</a>
</g>
</g>
<!-- Node2&#45;&gt;Node3 -->
<g id="edge2" class="edge">
<title>Node2&#45;&gt;Node3</title>
<path fill="none" stroke="#63b8ff" d="M122.56,-109.51C143.9,-101.01 176.16,-88.15 200.31,-78.53"/>
<polygon fill="#63b8ff" stroke="#63b8ff" points="201.37,-81.87 209.37,-74.92 198.78,-75.37 201.37,-81.87"/>
</g>
<!-- Node7 -->
<g id="node7" class="node">
<title>Node7</title>
<g id="a_node7"><a xlink:title=" ">
<polygon fill="#e0e0e0" stroke="#999999" points="123,-74 77,-74 77,-55 123,-55 123,-74"/>
<text text-anchor="middle" x="100" y="-62" font-family="Helvetica,sans-Serif" font-size="10.00">variant</text>
</a>
</g>
</g>
<!-- Node2&#45;&gt;Node7 -->
<g id="edge6" class="edge">
<title>Node2&#45;&gt;Node7</title>
<path fill="none" stroke="#63b8ff" d="M100,-109.75C100,-103.27 100,-94.16 100,-85.9"/>
<polygon fill="#63b8ff" stroke="#63b8ff" points="103.5,-85.96 100,-75.96 96.5,-85.96 103.5,-85.96"/>
</g>
<!-- Node3&#45;&gt;Node4 -->
<g id="edge3" class="edge">
<title>Node3&#45;&gt;Node4</title>
<path fill="none" stroke="#63b8ff" d="M201.11,-54.51C166.94,-44.88 112.96,-29.66 78.27,-19.88"/>
<polygon fill="#63b8ff" stroke="#63b8ff" points="79.34,-16.54 68.76,-17.2 77.44,-23.28 79.34,-16.54"/>
</g>
<!-- Node3&#45;&gt;Node5 -->
<g id="edge4" class="edge">
<title>Node3&#45;&gt;Node5</title>
<path fill="none" stroke="#63b8ff" d="M222.48,-54.51C213.61,-46.93 200.69,-35.88 190.01,-26.75"/>
<polygon fill="#63b8ff" stroke="#63b8ff" points="192.39,-24.18 182.51,-20.34 187.84,-29.5 192.39,-24.18"/>
</g>
<!-- Node6 -->
<g id="node6" class="node">
<title>Node6</title>
<g id="a_node6"><a xlink:title=" ">
<polygon fill="#e0e0e0" stroke="#999999" points="262.5,-19 209.5,-19 209.5,0 262.5,0 262.5,-19"/>
<text text-anchor="middle" x="236" y="-7" font-family="Helvetica,sans-Serif" font-size="10.00">complex</text>
</a>
</g>
</g>
<!-- Node3&#45;&gt;Node6 -->
<g id="edge5" class="edge">
<title>Node3&#45;&gt;Node6</title>
<path fill="none" stroke="#63b8ff" d="M233.5,-54.75C233.86,-48.27 234.38,-39.16 234.85,-30.9"/>
<polygon fill="#63b8ff" stroke="#63b8ff" points="238.34,-31.13 235.41,-20.95 231.35,-30.74 238.34,-31.13"/>
</g>
<!-- Node8&#45;&gt;Node3 -->
<g id="edge9" class="edge">
<title>Node8&#45;&gt;Node3</title>
<path fill="none" stroke="#63b8ff" d="M197.94,-109.75C203.62,-102.58 211.84,-92.2 218.89,-83.3"/>
<polygon fill="#63b8ff" stroke="#63b8ff" points="221.51,-85.64 224.97,-75.63 216.02,-81.29 221.51,-85.64"/>
</g>
<!-- Node8&#45;&gt;Node5 -->
<g id="edge8" class="edge">
<title>Node8&#45;&gt;Node5</title>
<path fill="none" stroke="#63b8ff" d="M189.36,-109.66C186.18,-92.5 179.1,-54.26 174.72,-30.6"/>
<polygon fill="#63b8ff" stroke="#63b8ff" points="178.2,-30.14 172.93,-20.95 171.31,-31.42 178.2,-30.14"/>
</g>
<!-- Node10 -->
<g id="node10" class="node">
<title>Node10</title>
<g id="a_node10"><a xlink:href="token_8h.html" target="_top" xlink:title=" ">
<polygon fill="white" stroke="#666666" points="402.5,-184 331.5,-184 331.5,-165 402.5,-165 402.5,-184"/>
<text text-anchor="middle" x="367" y="-172" font-family="Helvetica,sans-Serif" font-size="10.00">core/token.h</text>
</a>
</g>
</g>
<!-- Node9&#45;&gt;Node10 -->
<g id="edge11" class="edge">
<title>Node9&#45;&gt;Node10</title>
<path fill="none" stroke="#63b8ff" d="M364.5,-219.75C364.86,-213.27 365.38,-204.16 365.85,-195.9"/>
<polygon fill="#63b8ff" stroke="#63b8ff" points="369.34,-196.13 366.41,-185.95 362.35,-195.74 369.34,-196.13"/>
</g>
<!-- Node10&#45;&gt;Node2 -->
<g id="edge16" class="edge">
<title>Node10&#45;&gt;Node2</title>
<path fill="none" stroke="#63b8ff" d="M331.27,-166.41C283.08,-156.84 197.27,-139.81 144.81,-129.4"/>
<polygon fill="#63b8ff" stroke="#63b8ff" points="145.81,-126.03 135.32,-127.51 144.45,-132.89 145.81,-126.03"/>
</g>
<!-- Node10&#45;&gt;Node3 -->
<g id="edge14" class="edge">
<title>Node10&#45;&gt;Node3</title>
<path fill="none" stroke="#63b8ff" d="M393.2,-164.5C421.85,-153.26 461.4,-132.71 443,-110 422.74,-84.99 334.23,-73.47 278.78,-68.63"/>
<polygon fill="#63b8ff" stroke="#63b8ff" points="279.25,-65.15 269,-67.81 278.68,-72.13 279.25,-65.15"/>
</g>
<!-- Node11 -->
<g id="node11" class="node">
<title>Node11</title>
<g id="a_node11"><a xlink:href="token__type_8h.html" target="_top" xlink:title=" ">
<polygon fill="white" stroke="#666666" points="625.5,-74 552.5,-74 552.5,-55 625.5,-55 625.5,-74"/>
<text text-anchor="middle" x="589" y="-62" font-family="Helvetica,sans-Serif" font-size="10.00">token_type.h</text>
</a>
</g>
</g>
<!-- Node10&#45;&gt;Node11 -->
<g id="edge12" class="edge">
<title>Node10&#45;&gt;Node11</title>
<path fill="none" stroke="#63b8ff" d="M402.93,-169.54C467.95,-162.03 599.64,-144.99 613,-129 624.07,-115.75 614.62,-96.88 604.5,-83.15"/>
<polygon fill="#63b8ff" stroke="#63b8ff" points="607.25,-80.99 598.25,-75.4 601.8,-85.38 607.25,-80.99"/>
</g>
<!-- Node10&#45;&gt;Node13 -->
<g id="edge15" class="edge">
<title>Node10&#45;&gt;Node13</title>
<path fill="none" stroke="#63b8ff" d="M402.85,-167.83C462.01,-158.47 580.36,-139.74 649.14,-128.86"/>
<polygon fill="#63b8ff" stroke="#63b8ff" points="649.32,-132.38 658.65,-127.36 648.22,-125.46 649.32,-132.38"/>
</g>
<!-- Node10&#45;&gt;Node14 -->
<g id="edge17" class="edge">
<title>Node10&#45;&gt;Node14</title>
<path fill="none" stroke="#63b8ff" d="M397.53,-164.51C427.36,-155.73 472.96,-142.3 505.95,-132.59"/>
<polygon fill="#63b8ff" stroke="#63b8ff" points="506.56,-136.06 515.16,-129.87 504.58,-129.34 506.56,-136.06"/>
</g>
<!-- Node15 -->
<g id="node15" class="node">
<title>Node15</title>
<g id="a_node15"><a xlink:title=" ">
<polygon fill="#e0e0e0" stroke="#999999" points="288,-129 248,-129 248,-110 288,-110 288,-129"/>
<text text-anchor="middle" x="268" y="-117" font-family="Helvetica,sans-Serif" font-size="10.00">utility</text>
</a>
</g>
</g>
<!-- Node10&#45;&gt;Node15 -->
<g id="edge21" class="edge">
<title>Node10&#45;&gt;Node15</title>
<path fill="none" stroke="#63b8ff" d="M350.21,-164.51C334.9,-156.31 312.03,-144.07 294.3,-134.58"/>
<polygon fill="#63b8ff" stroke="#63b8ff" points="296.35,-131.71 285.88,-130.07 293.04,-137.88 296.35,-131.71"/>
</g>
<!-- Node16 -->
<g id="node16" class="node">
<title>Node16</title>
<g id="a_node16"><a xlink:title=" ">
<polygon fill="#e0e0e0" stroke="#999999" points="356,-129 306,-129 306,-110 356,-110 356,-129"/>
<text text-anchor="middle" x="331" y="-117" font-family="Helvetica,sans-Serif" font-size="10.00">optional</text>
</a>
</g>
</g>
<!-- Node10&#45;&gt;Node16 -->
<g id="edge22" class="edge">
<title>Node10&#45;&gt;Node16</title>
<path fill="none" stroke="#63b8ff" d="M361.06,-164.75C356.29,-157.73 349.44,-147.64 343.48,-138.87"/>
<polygon fill="#63b8ff" stroke="#63b8ff" points="346.44,-137 337.92,-130.69 340.65,-140.93 346.44,-137"/>
</g>
<!-- Node17 -->
<g id="node17" class="node">
<title>Node17</title>
<g id="a_node17"><a xlink:href="position_8h.html" target="_top" xlink:title=" ">
<polygon fill="white" stroke="#666666" points="433.5,-129 374.5,-129 374.5,-110 433.5,-110 433.5,-129"/>
<text text-anchor="middle" x="404" y="-117" font-family="Helvetica,sans-Serif" font-size="10.00">position.h</text>
</a>
</g>
</g>
<!-- Node10&#45;&gt;Node17 -->
<g id="edge23" class="edge">
<title>Node10&#45;&gt;Node17</title>
<path fill="none" stroke="#63b8ff" d="M373.11,-164.75C378.01,-157.73 385.05,-147.64 391.17,-138.87"/>
<polygon fill="#63b8ff" stroke="#63b8ff" points="394.04,-140.89 396.89,-130.68 388.3,-136.88 394.04,-140.89"/>
</g>
<!-- Node12 -->
<g id="node12" class="node">
<title>Node12</title>
<g id="a_node12"><a xlink:title=" ">
<polygon fill="#e0e0e0" stroke="#999999" points="616,-19 562,-19 562,0 616,0 616,-19"/>
<text text-anchor="middle" x="589" y="-7" font-family="Helvetica,sans-Serif" font-size="10.00">iostream</text>
</a>
</g>
</g>
<!-- Node11&#45;&gt;Node12 -->
<g id="edge13" class="edge">
<title>Node11&#45;&gt;Node12</title>
<path fill="none" stroke="#63b8ff" d="M589,-54.75C589,-48.27 589,-39.16 589,-30.9"/>
<polygon fill="#63b8ff" stroke="#63b8ff" points="592.5,-30.96 589,-20.96 585.5,-30.96 592.5,-30.96"/>
</g>
<!-- Node14&#45;&gt;Node3 -->
<g id="edge19" class="edge">
<title>Node14&#45;&gt;Node3</title>
<path fill="none" stroke="#63b8ff" d="M493.73,-109.51C433.17,-99.29 335.32,-82.77 278.28,-73.14"/>
<polygon fill="#63b8ff" stroke="#63b8ff" points="279.04,-69.72 268.6,-71.51 277.87,-76.62 279.04,-69.72"/>
</g>
<!-- Node14&#45;&gt;Node5 -->
<g id="edge18" class="edge">
<title>Node14&#45;&gt;Node5</title>
<path fill="none" stroke="#63b8ff" d="M515.4,-109.51C456.19,-92.64 324.2,-54.97 202.86,-19.82"/>
<polygon fill="#63b8ff" stroke="#63b8ff" points="203.94,-16.49 193.36,-17.06 201.99,-23.21 203.94,-16.49"/>
</g>
<!-- Node14&#45;&gt;Node11 -->
<g id="edge20" class="edge">
<title>Node14&#45;&gt;Node11</title>
<path fill="none" stroke="#63b8ff" d="M553.94,-109.75C559.62,-102.58 567.84,-92.2 574.89,-83.3"/>
<polygon fill="#63b8ff" stroke="#63b8ff" points="577.51,-85.64 580.97,-75.63 572.02,-81.29 577.51,-85.64"/>
</g>
</g>
</svg>
        <g id="navigator" transform="translate(0 0)" fill="#404254">
                <rect fill="#f2f5e9" fill-opacity="0.5" stroke="#606060" stroke-width=".5" x="0" y="0" width="60" height="60"/>
                <use id="zoomplus" xlink:href="#zoomPlus" x="17" y="9" onmousedown="handleZoom(evt,'in')"/>
                <use id="zoomminus" xlink:href="#zoomMin" x="42" y="9" onmousedown="handleZoom(evt,'out')"/>
                <use id="reset" xlink:href="#resetDef" x="30" y="36" onmousedown="handleReset()"/>
                <g id="arrowUp" xlink:href="#dirArrow" transform="translate(30 24)" onmousedown="handlePan(0,-1)">
                  <use xlink:href="#rim" fill="#404040">
                        <set attributeName="fill" to="#808080" begin="arrowUp.mouseover" end="arrowUp.mouseout"/>
                  </use>
                  <path fill="none" stroke="white" stroke-width="1.5" d="M0,-3.0v7 M-2.5,-0.5L0,-3.0L2.5,-0.5"/>
                </g>
                <g id="arrowRight" xlink:href="#dirArrow" transform="rotate(90) translate(36 -43)" onmousedown="handlePan(1,0)">
                  <use xlink:href="#rim" fill="#404040">
                        <set attributeName="fill" to="#808080" begin="arrowRight.mouseover" end="arrowRight.mouseout"/>
                  </use>
                  <path fill="none" stroke="white" stroke-width="1.5" d="M0,-3.0v7 M-2.5,-0.5L0,-3.0L2.5,-0.5"/>
                </g>
                <g id="arrowDown" xlink:href="#dirArrow" transform="rotate(180) translate(-30 -48)" onmousedown="handlePan(0,1)">
                  <use xlink:href="#rim" fill="#404040">
                        <set attributeName="fill" to="#808080" begin="arrowDown.mouseover" end="arrowDown.mouseout"/>
                  </use>
                  <path fill="none" stroke="white" stroke-width="1.5" d="M0,-3.0v7 M-2.5,-0.5L0,-3.0L2.5,-0.5"/>
                </g>
                <g id="arrowLeft" xlink:href="#dirArrow" transform="rotate(270) translate(-36 17)" onmousedown="handlePan(-1,0)">
                  <use xlink:href="#rim" fill="#404040">
                        <set attributeName="fill" to="#808080" begin="arrowLeft.mouseover" end="arrowLeft.mouseout"/>
                  </use>
                  <path fill="none" stroke="white" stroke-width="1.5" d="M0,-3.0v7 M-2.5,-0.5L0,-3.0L2.5,-0.5"/>
                </g>
        </g>
        <svg viewBox="0 0 15 15" width="100%" height="30px" preserveAspectRatio="xMaxYMin meet">
         <g id="arrow_out" transform="scale(0.3 0.3)">
          <a xlink:href="array__printer_8cpp__incl_org.svg" target="_base">
           <rect id="button" ry="5" rx="5" y="6" x="6" height="38" width="38"
                fill="#f2f5e9" fill-opacity="0.5" stroke="#606060" stroke-width="1.0"/>
           <path id="arrow"
             d="M 11.500037,31.436501 C 11.940474,20.09759 22.043105,11.32322 32.158766,21.979434 L 37.068811,17.246167 C 37.068811,17.246167 37.088388,32 37.088388,32 L 22.160133,31.978069 C 22.160133,31.978069 26.997745,27.140456 26.997745,27.140456 C 18.528582,18.264221 13.291696,25.230495 11.500037,31.436501 z"
             style="fill:#404040;"/>
          </a>
         </g>
        </svg>
</svg>
