<?xml version="1.0" encoding="UTF-8" standalone="no"?>
<!DOCTYPE svg PUBLIC "-//W3C//DTD SVG 1.1//EN"
 "http://www.w3.org/Graphics/SVG/1.1/DTD/svg11.dtd">
<!-- Generated by graphviz version 7.1.0 (20230121.1956)
 -->
<!-- Title: src/core/array.cpp Pages: 1 -->
<svg width="1300pt" height="489pt"
 viewBox="0.00 0.00 1299.50 489.00" xmlns="http://www.w3.org/2000/svg" xmlns:xlink="http://www.w3.org/1999/xlink">
<g id="graph0" class="graph" transform="scale(1 1) rotate(0) translate(4 485)">
<title>src/core/array.cpp</title>
<!-- Node1 -->
<g id="node1" class="node">
<title>Node1</title>
<g id="a_node1"><a xlink:title=" ">
<polygon fill="#999999" stroke="#666666" points="785,-481 691,-481 691,-462 785,-462 785,-481"/>
<text text-anchor="middle" x="738" y="-469" font-family="Helvetica,sans-Serif" font-size="10.00">src/core/array.cpp</text>
</a>
</g>
</g>
<!-- Node2 -->
<g id="node2" class="node">
<title>Node2</title>
<g id="a_node2"><a xlink:href="array_8h.html" target="_top" xlink:title=" ">
<polygon fill="white" stroke="#666666" points="212.5,-134.5 167.5,-134.5 167.5,-115.5 212.5,-115.5 212.5,-134.5"/>
<text text-anchor="middle" x="190" y="-122.5" font-family="Helvetica,sans-Serif" font-size="10.00">array.h</text>
</a>
</g>
</g>
<!-- Node1&#45;&gt;Node2 -->
<g id="edge1" class="edge">
<title>Node1&#45;&gt;Node2</title>
<path fill="none" stroke="#63b8ff" d="M690.71,-468.21C533.46,-459.96 38,-428.71 38,-362.5 38,-362.5 38,-362.5 38,-305.5 38,-228.38 120.73,-167.35 164.12,-140.65"/>
<polygon fill="#63b8ff" stroke="#63b8ff" points="165.65,-143.81 172.43,-135.68 162.06,-137.81 165.65,-143.81"/>
</g>
<!-- Node7 -->
<g id="node7" class="node">
<title>Node7</title>
<g id="a_node7"><a xlink:title=" ">
<polygon fill="#e0e0e0" stroke="#999999" points="194,-74 148,-74 148,-55 194,-55 194,-74"/>
<text text-anchor="middle" x="171" y="-62" font-family="Helvetica,sans-Serif" font-size="10.00">variant</text>
</a>
</g>
</g>
<!-- Node1&#45;&gt;Node7 -->
<g id="edge36" class="edge">
<title>Node1&#45;&gt;Node7</title>
<path fill="none" stroke="#63b8ff" d="M690.59,-469.58C565.33,-466.76 227.9,-456.47 121,-426 62.59,-409.35 0,-423.23 0,-362.5 0,-362.5 0,-362.5 0,-184.5 0,-118.56 86.71,-86.19 136.64,-73.02"/>
<polygon fill="#63b8ff" stroke="#63b8ff" points="137.26,-76.47 146.11,-70.65 135.56,-69.68 137.26,-76.47"/>
</g>
<!-- Node8 -->
<g id="node8" class="node">
<title>Node8</title>
<g id="a_node8"><a xlink:href="error_8h.html" target="_top" xlink:title=" ">
<polygon fill="white" stroke="#666666" points="1006,-195 962,-195 962,-176 1006,-176 1006,-195"/>
<text text-anchor="middle" x="984" y="-183" font-family="Helvetica,sans-Serif" font-size="10.00">error.h</text>
</a>
</g>
</g>
<!-- Node1&#45;&gt;Node8 -->
<g id="edge7" class="edge">
<title>Node1&#45;&gt;Node8</title>
<path fill="none" stroke="#63b8ff" d="M754.55,-461.66C768.85,-453.54 789.58,-440.59 805,-426 880.81,-354.29 947.94,-247.51 973.27,-204.96"/>
<polygon fill="#63b8ff" stroke="#63b8ff" points="976.21,-206.86 978.27,-196.47 970.18,-203.31 976.21,-206.86"/>
</g>
<!-- Node11 -->
<g id="node11" class="node">
<title>Node11</title>
<g id="a_node11"><a xlink:title=" ">
<polygon fill="#e0e0e0" stroke="#999999" points="918,-134.5 878,-134.5 878,-115.5 918,-115.5 918,-134.5"/>
<text text-anchor="middle" x="898" y="-122.5" font-family="Helvetica,sans-Serif" font-size="10.00">utility</text>
</a>
</g>
</g>
<!-- Node1&#45;&gt;Node11 -->
<g id="edge34" class="edge">
<title>Node1&#45;&gt;Node11</title>
<path fill="none" stroke="#63b8ff" d="M785.16,-465.38C832.85,-459.13 901.78,-446.72 918,-426 984.72,-340.78 930.24,-196.8 907.12,-145.15"/>
<polygon fill="#63b8ff" stroke="#63b8ff" points="910.36,-143.82 903,-136.21 904.01,-146.76 910.36,-143.82"/>
</g>
<!-- Node14 -->
<g id="node14" class="node">
<title>Node14</title>
<g id="a_node14"><a xlink:href="literals_8h.html" target="_top" xlink:title=" ">
<polygon fill="white" stroke="#666666" points="251.5,-371 130.5,-371 130.5,-352 251.5,-352 251.5,-371"/>
<text text-anchor="middle" x="191" y="-359" font-family="Helvetica,sans-Serif" font-size="10.00">core/constants/literals.h</text>
</a>
</g>
</g>
<!-- Node1&#45;&gt;Node14 -->
<g id="edge15" class="edge">
<title>Node1&#45;&gt;Node14</title>
<path fill="none" stroke="#63b8ff" d="M690.75,-469.59C615.53,-467.17 464.45,-458.32 341,-426 295.92,-414.2 246.74,-391.28 217.4,-376.45"/>
<polygon fill="#63b8ff" stroke="#63b8ff" points="219.38,-373.53 208.88,-372.08 216.18,-379.76 219.38,-373.53"/>
</g>
<!-- Node17 -->
<g id="node17" class="node">
<title>Node17</title>
<g id="a_node17"><a xlink:href="config_8h.html" target="_top" xlink:title=" ">
<polygon fill="white" stroke="#666666" points="753.5,-255.5 634.5,-255.5 634.5,-236.5 753.5,-236.5 753.5,-255.5"/>
<text text-anchor="middle" x="694" y="-243.5" font-family="Helvetica,sans-Serif" font-size="10.00">core/constants/config.h</text>
</a>
</g>
</g>
<!-- Node1&#45;&gt;Node17 -->
<g id="edge20" class="edge">
<title>Node1&#45;&gt;Node17</title>
<path fill="none" stroke="#63b8ff" d="M736.28,-461.74C729.84,-429.06 707.15,-313.78 697.93,-266.98"/>
<polygon fill="#63b8ff" stroke="#63b8ff" points="701.42,-266.56 696.05,-257.43 694.55,-267.92 701.42,-266.56"/>
</g>
<!-- Node19 -->
<g id="node19" class="node">
<title>Node19</title>
<g id="a_node19"><a xlink:href="conversion_8h.html" target="_top" xlink:title=" ">
<polygon fill="white" stroke="#666666" points="720,-134.5 592,-134.5 592,-115.5 720,-115.5 720,-134.5"/>
<text text-anchor="middle" x="656" y="-122.5" font-family="Helvetica,sans-Serif" font-size="10.00">core/helpers/conversion.h</text>
</a>
</g>
</g>
<!-- Node1&#45;&gt;Node19 -->
<g id="edge37" class="edge">
<title>Node1&#45;&gt;Node19</title>
<path fill="none" stroke="#63b8ff" d="M741.82,-461.79C755.34,-429.62 798.27,-315.03 763,-231 746.37,-191.38 706.69,-159.2 680.61,-141.33"/>
<polygon fill="#63b8ff" stroke="#63b8ff" points="682.56,-138.43 672.29,-135.83 678.69,-144.26 682.56,-138.43"/>
</g>
<!-- Node22 -->
<g id="node22" class="node">
<title>Node22</title>
<g id="a_node22"><a xlink:title=" ">
<polygon fill="#e0e0e0" stroke="#999999" points="908.5,-426 857.5,-426 857.5,-407 908.5,-407 908.5,-426"/>
<text text-anchor="middle" x="883" y="-414" font-family="Helvetica,sans-Serif" font-size="10.00">numeric</text>
</a>
</g>
</g>
<!-- Node1&#45;&gt;Node22 -->
<g id="edge35" class="edge">
<title>Node1&#45;&gt;Node22</title>
<path fill="none" stroke="#63b8ff" d="M762.6,-461.51C786.07,-452.93 821.67,-439.92 848.07,-430.27"/>
<polygon fill="#63b8ff" stroke="#63b8ff" points="849.15,-433.6 857.34,-426.88 846.75,-427.02 849.15,-433.6"/>
</g>
<!-- Node23 -->
<g id="node23" class="node">
<title>Node23</title>
<g id="a_node23"><a xlink:href="array__printer_8h.html" target="_top" xlink:title=" ">
<polygon fill="white" stroke="#666666" points="1291.5,-140 1196.5,-140 1196.5,-110 1291.5,-110 1291.5,-140"/>
<text text-anchor="start" x="1204.5" y="-128" font-family="Helvetica,sans-Serif" font-size="10.00">core/helpers/array</text>
<text text-anchor="middle" x="1244" y="-117" font-family="Helvetica,sans-Serif" font-size="10.00">_printer.h</text>
</a>
</g>
</g>
<!-- Node1&#45;&gt;Node23 -->
<g id="edge38" class="edge">
<title>Node1&#45;&gt;Node23</title>
<path fill="none" stroke="#63b8ff" d="M785.14,-469.99C907.36,-467.39 1225,-452.03 1225,-362.5 1225,-362.5 1225,-362.5 1225,-245 1225,-212.25 1232.11,-175.05 1237.63,-151.09"/>
<polygon fill="#63b8ff" stroke="#63b8ff" points="1240.96,-152.18 1239.89,-141.64 1234.16,-150.55 1240.96,-152.18"/>
</g>
<!-- Node24 -->
<g id="node24" class="node">
<title>Node24</title>
<g id="a_node24"><a xlink:href="symbol__table_8h.html" target="_top" xlink:title=" ">
<polygon fill="white" stroke="#666666" points="433.5,-426 350.5,-426 350.5,-407 433.5,-407 433.5,-426"/>
<text text-anchor="middle" x="392" y="-414" font-family="Helvetica,sans-Serif" font-size="10.00">symbol_table.h</text>
</a>
</g>
</g>
<!-- Node1&#45;&gt;Node24 -->
<g id="edge41" class="edge">
<title>Node1&#45;&gt;Node24</title>
<path fill="none" stroke="#63b8ff" d="M690.62,-463.24C626.41,-453.41 512.11,-435.9 445.08,-425.63"/>
<polygon fill="#63b8ff" stroke="#63b8ff" points="445.85,-422.21 435.44,-424.15 444.79,-429.13 445.85,-422.21"/>
</g>
<!-- Node3 -->
<g id="node3" class="node">
<title>Node3</title>
<g id="a_node3"><a xlink:href="datatypes_8h.html" target="_top" xlink:title=" ">
<polygon fill="white" stroke="#666666" points="644,-74 576,-74 576,-55 644,-55 644,-74"/>
<text text-anchor="middle" x="610" y="-62" font-family="Helvetica,sans-Serif" font-size="10.00">datatypes.h</text>
</a>
</g>
</g>
<!-- Node2&#45;&gt;Node3 -->
<g id="edge2" class="edge">
<title>Node2&#45;&gt;Node3</title>
<path fill="none" stroke="#63b8ff" d="M210.85,-115.09C216.05,-113.15 221.66,-111.3 227,-110 290.04,-94.66 477.2,-77.04 564.37,-69.38"/>
<polygon fill="#63b8ff" stroke="#63b8ff" points="564.57,-72.88 574.23,-68.52 563.96,-65.91 564.57,-72.88"/>
</g>
<!-- Node2&#45;&gt;Node7 -->
<g id="edge6" class="edge">
<title>Node2&#45;&gt;Node7</title>
<path fill="none" stroke="#63b8ff" d="M187.2,-115.37C184.61,-107.42 180.69,-95.33 177.35,-85.05"/>
<polygon fill="#63b8ff" stroke="#63b8ff" points="180.7,-84.04 174.28,-75.61 174.04,-86.2 180.7,-84.04"/>
</g>
<!-- Node4 -->
<g id="node4" class="node">
<title>Node4</title>
<g id="a_node4"><a xlink:title=" ">
<polygon fill="#e0e0e0" stroke="#999999" points="666,-19 622,-19 622,0 666,0 666,-19"/>
<text text-anchor="middle" x="644" y="-7" font-family="Helvetica,sans-Serif" font-size="10.00">vector</text>
</a>
</g>
</g>
<!-- Node3&#45;&gt;Node4 -->
<g id="edge3" class="edge">
<title>Node3&#45;&gt;Node4</title>
<path fill="none" stroke="#63b8ff" d="M615.61,-54.75C620.12,-47.73 626.59,-37.64 632.21,-28.87"/>
<polygon fill="#63b8ff" stroke="#63b8ff" points="634.99,-31.02 637.45,-20.72 629.1,-27.24 634.99,-31.02"/>
</g>
<!-- Node5 -->
<g id="node5" class="node">
<title>Node5</title>
<g id="a_node5"><a xlink:title=" ">
<polygon fill="#e0e0e0" stroke="#999999" points="1119.5,-19 1078.5,-19 1078.5,0 1119.5,0 1119.5,-19"/>
<text text-anchor="middle" x="1099" y="-7" font-family="Helvetica,sans-Serif" font-size="10.00">string</text>
</a>
</g>
</g>
<!-- Node3&#45;&gt;Node5 -->
<g id="edge4" class="edge">
<title>Node3&#45;&gt;Node5</title>
<path fill="none" stroke="#63b8ff" d="M644.39,-59.77C734.91,-49.96 978.9,-23.52 1066.85,-13.98"/>
<polygon fill="#63b8ff" stroke="#63b8ff" points="1067.12,-17.48 1076.68,-12.92 1066.36,-10.52 1067.12,-17.48"/>
</g>
<!-- Node6 -->
<g id="node6" class="node">
<title>Node6</title>
<g id="a_node6"><a xlink:title=" ">
<polygon fill="#e0e0e0" stroke="#999999" points="603.5,-19 550.5,-19 550.5,0 603.5,0 603.5,-19"/>
<text text-anchor="middle" x="577" y="-7" font-family="Helvetica,sans-Serif" font-size="10.00">complex</text>
</a>
</g>
</g>
<!-- Node3&#45;&gt;Node6 -->
<g id="edge5" class="edge">
<title>Node3&#45;&gt;Node6</title>
<path fill="none" stroke="#63b8ff" d="M604.55,-54.75C600.23,-47.81 594.04,-37.86 588.62,-29.16"/>
<polygon fill="#63b8ff" stroke="#63b8ff" points="591.62,-27.37 583.37,-20.73 585.68,-31.07 591.62,-27.37"/>
</g>
<!-- Node8&#45;&gt;Node3 -->
<g id="edge13" class="edge">
<title>Node8&#45;&gt;Node3</title>
<path fill="none" stroke="#63b8ff" d="M980.04,-175.56C972.37,-159.44 953.86,-125.69 927,-110 881.87,-83.64 731.92,-71.99 655.55,-67.67"/>
<polygon fill="#63b8ff" stroke="#63b8ff" points="656.09,-64.19 645.91,-67.14 655.7,-71.18 656.09,-64.19"/>
</g>
<!-- Node9 -->
<g id="node9" class="node">
<title>Node9</title>
<g id="a_node9"><a xlink:title=" ">
<polygon fill="#e0e0e0" stroke="#999999" points="477,-19 423,-19 423,0 477,0 477,-19"/>
<text text-anchor="middle" x="450" y="-7" font-family="Helvetica,sans-Serif" font-size="10.00">iostream</text>
</a>
</g>
</g>
<!-- Node8&#45;&gt;Node9 -->
<g id="edge8" class="edge">
<title>Node8&#45;&gt;Node9</title>
<path fill="none" stroke="#63b8ff" d="M983.37,-175.58C981.75,-159.79 976.03,-126.97 956,-110 920,-79.51 600.22,-31.77 488.4,-15.86"/>
<polygon fill="#63b8ff" stroke="#63b8ff" points="489.22,-12.44 478.83,-14.51 488.24,-19.37 489.22,-12.44"/>
</g>
<!-- Node10 -->
<g id="node10" class="node">
<title>Node10</title>
<g id="a_node10"><a xlink:title=" ">
<polygon fill="#e0e0e0" stroke="#999999" points="1064,-134.5 1012,-134.5 1012,-115.5 1064,-115.5 1064,-134.5"/>
<text text-anchor="middle" x="1038" y="-122.5" font-family="Helvetica,sans-Serif" font-size="10.00">sstream</text>
</a>
</g>
</g>
<!-- Node8&#45;&gt;Node10 -->
<g id="edge9" class="edge">
<title>Node8&#45;&gt;Node10</title>
<path fill="none" stroke="#63b8ff" d="M991.97,-175.87C999.94,-167.23 1012.43,-153.7 1022.39,-142.92"/>
<polygon fill="#63b8ff" stroke="#63b8ff" points="1024.76,-145.5 1028.97,-135.78 1019.62,-140.75 1024.76,-145.5"/>
</g>
<!-- Node8&#45;&gt;Node11 -->
<g id="edge10" class="edge">
<title>Node8&#45;&gt;Node11</title>
<path fill="none" stroke="#63b8ff" d="M970.94,-175.62C957.55,-166.51 936.48,-152.18 920.42,-141.25"/>
<polygon fill="#63b8ff" stroke="#63b8ff" points="922.67,-138.55 912.44,-135.82 918.74,-144.34 922.67,-138.55"/>
</g>
<!-- Node12 -->
<g id="node12" class="node">
<title>Node12</title>
<g id="a_node12"><a xlink:href="error__type_8h.html" target="_top" xlink:title=" ">
<polygon fill="white" stroke="#666666" points="1102,-74 1034,-74 1034,-55 1102,-55 1102,-74"/>
<text text-anchor="middle" x="1068" y="-62" font-family="Helvetica,sans-Serif" font-size="10.00">error_type.h</text>
</a>
</g>
</g>
<!-- Node8&#45;&gt;Node12 -->
<g id="edge11" class="edge">
<title>Node8&#45;&gt;Node12</title>
<path fill="none" stroke="#63b8ff" d="M1006.43,-180.24C1027.72,-174.87 1058.56,-163.37 1073,-140 1083.21,-123.48 1079.76,-100.78 1075.14,-84.79"/>
<polygon fill="#63b8ff" stroke="#63b8ff" points="1078.53,-83.91 1072.06,-75.53 1071.89,-86.12 1078.53,-83.91"/>
</g>
<!-- Node13 -->
<g id="node13" class="node">
<title>Node13</title>
<g id="a_node13"><a xlink:title=" ">
<polygon fill="#e0e0e0" stroke="#999999" points="859.5,-134.5 776.5,-134.5 776.5,-115.5 859.5,-115.5 859.5,-134.5"/>
<text text-anchor="middle" x="818" y="-122.5" font-family="Helvetica,sans-Serif" font-size="10.00">uni_algo/conv.h</text>
</a>
</g>
</g>
<!-- Node8&#45;&gt;Node13 -->
<g id="edge14" class="edge">
<title>Node8&#45;&gt;Node13</title>
<path fill="none" stroke="#63b8ff" d="M961.61,-176.61C933.94,-166.86 886.51,-150.14 853.77,-138.61"/>
<polygon fill="#63b8ff" stroke="#63b8ff" points="855.31,-135.44 844.71,-135.41 852.98,-142.04 855.31,-135.44"/>
</g>
<!-- Node12&#45;&gt;Node5 -->
<g id="edge12" class="edge">
<title>Node12&#45;&gt;Node5</title>
<path fill="none" stroke="#63b8ff" d="M1073.12,-54.75C1077.18,-47.81 1082.99,-37.86 1088.09,-29.16"/>
<polygon fill="#63b8ff" stroke="#63b8ff" points="1090.98,-31.15 1093.01,-20.75 1084.94,-27.61 1090.98,-31.15"/>
</g>
<!-- Node14&#45;&gt;Node3 -->
<g id="edge16" class="edge">
<title>Node14&#45;&gt;Node3</title>
<path fill="none" stroke="#63b8ff" d="M190.49,-351.75C188.89,-315.09 188.12,-172.9 267,-110 278.51,-100.82 473.75,-79.58 564.41,-70.15"/>
<polygon fill="#63b8ff" stroke="#63b8ff" points="564.62,-73.65 574.2,-69.14 563.9,-66.69 564.62,-73.65"/>
</g>
<!-- Node15 -->
<g id="node15" class="node">
<title>Node15</title>
<g id="a_node15"><a xlink:href="token__type_8h.html" target="_top" xlink:title=" ">
<polygon fill="white" stroke="#666666" points="497.5,-74 402.5,-74 402.5,-55 497.5,-55 497.5,-74"/>
<text text-anchor="middle" x="450" y="-62" font-family="Helvetica,sans-Serif" font-size="10.00">core/token_type.h</text>
</a>
</g>
</g>
<!-- Node14&#45;&gt;Node15 -->
<g id="edge17" class="edge">
<title>Node14&#45;&gt;Node15</title>
<path fill="none" stroke="#63b8ff" d="M183.99,-351.57C177.71,-342.99 168.91,-329.4 165,-316 139.31,-228.07 98.3,-179.49 158,-110 187.4,-75.78 314.35,-67.58 390.85,-65.79"/>
<polygon fill="#63b8ff" stroke="#63b8ff" points="390.77,-69.3 400.7,-65.6 390.63,-62.3 390.77,-69.3"/>
</g>
<!-- Node16 -->
<g id="node16" class="node">
<title>Node16</title>
<g id="a_node16"><a xlink:title=" ">
<polygon fill="#e0e0e0" stroke="#999999" points="242.5,-316 207.5,-316 207.5,-297 242.5,-297 242.5,-316"/>
<text text-anchor="middle" x="225" y="-304" font-family="Helvetica,sans-Serif" font-size="10.00">map</text>
</a>
</g>
</g>
<!-- Node14&#45;&gt;Node16 -->
<g id="edge19" class="edge">
<title>Node14&#45;&gt;Node16</title>
<path fill="none" stroke="#63b8ff" d="M196.61,-351.75C201.12,-344.73 207.59,-334.64 213.21,-325.87"/>
<polygon fill="#63b8ff" stroke="#63b8ff" points="215.99,-328.02 218.45,-317.72 210.1,-324.24 215.99,-328.02"/>
</g>
<!-- Node15&#45;&gt;Node9 -->
<g id="edge18" class="edge">
<title>Node15&#45;&gt;Node9</title>
<path fill="none" stroke="#63b8ff" d="M450,-54.75C450,-48.27 450,-39.16 450,-30.9"/>
<polygon fill="#63b8ff" stroke="#63b8ff" points="453.5,-30.96 450,-20.96 446.5,-30.96 453.5,-30.96"/>
</g>
<!-- Node17&#45;&gt;Node3 -->
<g id="edge21" class="edge">
<title>Node17&#45;&gt;Node3</title>
<path fill="none" stroke="#63b8ff" d="M700.74,-236.25C717.44,-213.42 757.43,-150.98 729,-110 712.52,-86.24 681.71,-75.15 655.57,-69.97"/>
<polygon fill="#63b8ff" stroke="#63b8ff" points="656.27,-66.54 645.82,-68.3 655.09,-73.44 656.27,-66.54"/>
</g>
<!-- Node18 -->
<g id="node18" class="node">
<title>Node18</title>
<g id="a_node18"><a xlink:href="token_8h.html" target="_top" xlink:title=" ">
<polygon fill="white" stroke="#666666" points="587.5,-195 516.5,-195 516.5,-176 587.5,-176 587.5,-195"/>
<text text-anchor="middle" x="552" y="-183" font-family="Helvetica,sans-Serif" font-size="10.00">core/token.h</text>
</a>
</g>
</g>
<!-- Node17&#45;&gt;Node18 -->
<g id="edge22" class="edge">
<title>Node17&#45;&gt;Node18</title>
<path fill="none" stroke="#63b8ff" d="M672.43,-236.12C648.98,-226.45 611.23,-210.9 584.24,-199.78"/>
<polygon fill="#63b8ff" stroke="#63b8ff" points="585.75,-196.62 575.17,-196.05 583.08,-203.09 585.75,-196.62"/>
</g>
<!-- Node18&#45;&gt;Node2 -->
<g id="edge26" class="edge">
<title>Node18&#45;&gt;Node2</title>
<path fill="none" stroke="#63b8ff" d="M516.41,-179.23C462.42,-171.18 356.62,-155.14 267,-140 252.91,-137.62 237.4,-134.83 224.01,-132.37"/>
<polygon fill="#63b8ff" stroke="#63b8ff" points="224.84,-128.97 214.37,-130.59 223.57,-135.85 224.84,-128.97"/>
</g>
<!-- Node18&#45;&gt;Node3 -->
<g id="edge24" class="edge">
<title>Node18&#45;&gt;Node3</title>
<path fill="none" stroke="#63b8ff" d="M549.21,-175.66C545.14,-161.08 539.18,-131.5 550,-110 556.36,-97.37 568.19,-87.42 579.67,-80.17"/>
<polygon fill="#63b8ff" stroke="#63b8ff" points="581.31,-83.27 588.22,-75.24 577.81,-77.2 581.31,-83.27"/>
</g>
<!-- Node18&#45;&gt;Node11 -->
<g id="edge31" class="edge">
<title>Node18&#45;&gt;Node11</title>
<path fill="none" stroke="#63b8ff" d="M587.96,-183.07C647.56,-179.91 770.09,-170.02 869,-140 869.8,-139.76 870.61,-139.49 871.42,-139.21"/>
<polygon fill="#63b8ff" stroke="#63b8ff" points="872.5,-142.56 880.4,-135.49 869.82,-136.09 872.5,-142.56"/>
</g>
<!-- Node18&#45;&gt;Node13 -->
<g id="edge25" class="edge">
<title>Node18&#45;&gt;Node13</title>
<path fill="none" stroke="#63b8ff" d="M587.87,-176.61C633.85,-166.5 713.87,-148.9 766.39,-137.35"/>
<polygon fill="#63b8ff" stroke="#63b8ff" points="766.99,-140.8 776,-135.24 765.49,-133.97 766.99,-140.8"/>
</g>
<!-- Node18&#45;&gt;Node15 -->
<g id="edge23" class="edge">
<title>Node18&#45;&gt;Node15</title>
<path fill="none" stroke="#63b8ff" d="M544.33,-175.56C527.49,-155.9 487,-108.67 464.94,-82.93"/>
<polygon fill="#63b8ff" stroke="#63b8ff" points="467.63,-80.69 458.46,-75.37 462.31,-85.24 467.63,-80.69"/>
</g>
<!-- Node18&#45;&gt;Node19 -->
<g id="edge27" class="edge">
<title>Node18&#45;&gt;Node19</title>
<path fill="none" stroke="#63b8ff" d="M567.8,-175.62C584.36,-166.29 610.67,-151.5 630.25,-140.49"/>
<polygon fill="#63b8ff" stroke="#63b8ff" points="631.74,-143.66 638.74,-135.71 628.31,-137.56 631.74,-143.66"/>
</g>
<!-- Node20 -->
<g id="node20" class="node">
<title>Node20</title>
<g id="a_node20"><a xlink:title=" ">
<polygon fill="#e0e0e0" stroke="#999999" points="326,-134.5 276,-134.5 276,-115.5 326,-115.5 326,-134.5"/>
<text text-anchor="middle" x="301" y="-122.5" font-family="Helvetica,sans-Serif" font-size="10.00">optional</text>
</a>
</g>
</g>
<!-- Node18&#45;&gt;Node20 -->
<g id="edge32" class="edge">
<title>Node18&#45;&gt;Node20</title>
<path fill="none" stroke="#63b8ff" d="M516.24,-177.66C475.16,-169.59 405.86,-155.32 347,-140 343.82,-139.17 340.53,-138.27 337.24,-137.33"/>
<polygon fill="#63b8ff" stroke="#63b8ff" points="338.24,-133.98 327.65,-134.5 336.26,-140.69 338.24,-133.98"/>
</g>
<!-- Node21 -->
<g id="node21" class="node">
<title>Node21</title>
<g id="a_node21"><a xlink:href="position_8h.html" target="_top" xlink:title=" ">
<polygon fill="white" stroke="#666666" points="415.5,-134.5 356.5,-134.5 356.5,-115.5 415.5,-115.5 415.5,-134.5"/>
<text text-anchor="middle" x="386" y="-122.5" font-family="Helvetica,sans-Serif" font-size="10.00">position.h</text>
</a>
</g>
</g>
<!-- Node18&#45;&gt;Node21 -->
<g id="edge33" class="edge">
<title>Node18&#45;&gt;Node21</title>
<path fill="none" stroke="#63b8ff" d="M526.79,-175.62C498.88,-165.78 453.66,-149.84 422.02,-138.69"/>
<polygon fill="#63b8ff" stroke="#63b8ff" points="423.47,-135.49 412.88,-135.47 421.14,-142.1 423.47,-135.49"/>
</g>
<!-- Node19&#45;&gt;Node3 -->
<g id="edge29" class="edge">
<title>Node19&#45;&gt;Node3</title>
<path fill="none" stroke="#63b8ff" d="M649.21,-115.37C642.55,-106.9 632.21,-93.74 623.81,-83.07"/>
<polygon fill="#63b8ff" stroke="#63b8ff" points="626.68,-81.05 617.75,-75.36 621.18,-85.38 626.68,-81.05"/>
</g>
<!-- Node19&#45;&gt;Node5 -->
<g id="edge28" class="edge">
<title>Node19&#45;&gt;Node5</title>
<path fill="none" stroke="#63b8ff" d="M690.76,-115.09C774.47,-93.65 986.25,-39.39 1067.03,-18.69"/>
<polygon fill="#63b8ff" stroke="#63b8ff" points="1067.9,-22.08 1076.72,-16.21 1066.16,-15.3 1067.9,-22.08"/>
</g>
<!-- Node19&#45;&gt;Node15 -->
<g id="edge30" class="edge">
<title>Node19&#45;&gt;Node15</title>
<path fill="none" stroke="#63b8ff" d="M624.71,-115.12C589.4,-105.09 531.75,-88.72 492.41,-77.54"/>
<polygon fill="#63b8ff" stroke="#63b8ff" points="493.61,-74.25 483.04,-74.88 491.7,-80.98 493.61,-74.25"/>
</g>
<!-- Node23&#45;&gt;Node3 -->
<g id="edge40" class="edge">
<title>Node23&#45;&gt;Node3</title>
<path fill="none" stroke="#63b8ff" d="M1196.09,-119.58C1077.56,-108.64 771.81,-80.43 655.68,-69.71"/>
<polygon fill="#63b8ff" stroke="#63b8ff" points="656.18,-66.25 645.9,-68.81 655.54,-73.22 656.18,-66.25"/>
</g>
<!-- Node23&#45;&gt;Node5 -->
<g id="edge39" class="edge">
<title>Node23&#45;&gt;Node5</title>
<path fill="none" stroke="#63b8ff" d="M1233.57,-109.71C1222.14,-94.75 1202.65,-71.21 1182,-55 1166.17,-42.58 1146.39,-31.82 1130.1,-23.99"/>
<polygon fill="#63b8ff" stroke="#63b8ff" points="1131.9,-20.97 1121.36,-19.92 1128.95,-27.31 1131.9,-20.97"/>
</g>
<!-- Node24&#45;&gt;Node2 -->
<g id="edge44" class="edge">
<title>Node24&#45;&gt;Node2</title>
<path fill="none" stroke="#63b8ff" d="M350.11,-414.96C281.51,-413.08 149.89,-405.03 121,-371 62.62,-302.25 141.19,-187.39 175.44,-143.65"/>
<polygon fill="#63b8ff" stroke="#63b8ff" points="178.09,-145.95 181.61,-135.96 172.62,-141.57 178.09,-145.95"/>
</g>
<!-- Node24&#45;&gt;Node5 -->
<g id="edge43" class="edge">
<title>Node24&#45;&gt;Node5</title>
<path fill="none" stroke="#63b8ff" d="M434,-412.33C595.56,-399.01 1168,-340.92 1168,-186.5 1168,-186.5 1168,-186.5 1168,-124 1168,-84.85 1137.66,-47.72 1117.22,-27.14"/>
<polygon fill="#63b8ff" stroke="#63b8ff" points="1119.89,-24.86 1110.27,-20.43 1115.03,-29.89 1119.89,-24.86"/>
</g>
<!-- Node24&#45;&gt;Node8 -->
<g id="edge58" class="edge">
<title>Node24&#45;&gt;Node8</title>
<path fill="none" stroke="#63b8ff" d="M412.05,-406.64C475.01,-378.98 674.66,-292.36 844,-231 880.04,-217.94 922.01,-204.88 950.54,-196.32"/>
<polygon fill="#63b8ff" stroke="#63b8ff" points="951.47,-199.69 960.06,-193.48 949.47,-192.98 951.47,-199.69"/>
</g>
<!-- Node24&#45;&gt;Node16 -->
<g id="edge42" class="edge">
<title>Node24&#45;&gt;Node16</title>
<path fill="none" stroke="#63b8ff" d="M369.32,-406.63C349.93,-398.59 321.64,-385.76 299,-371 277.63,-357.07 255.77,-337.53 241.41,-323.82"/>
<polygon fill="#63b8ff" stroke="#63b8ff" points="244.2,-321.65 234.59,-317.19 239.32,-326.67 244.2,-321.65"/>
</g>
<!-- Node25 -->
<g id="node25" class="node">
<title>Node25</title>
<g id="a_node25"><a xlink:href="ast_8h.html" target="_top" xlink:title=" ">
<polygon fill="white" stroke="#666666" points="444.5,-316 337.5,-316 337.5,-297 444.5,-297 444.5,-316"/>
<text text-anchor="middle" x="391" y="-304" font-family="Helvetica,sans-Serif" font-size="10.00">core/evaluation/ast.h</text>
</a>
</g>
</g>
<!-- Node24&#45;&gt;Node25 -->
<g id="edge45" class="edge">
<title>Node24&#45;&gt;Node25</title>
<path fill="none" stroke="#63b8ff" d="M391.92,-406.66C391.76,-389.57 391.41,-351.61 391.19,-327.92"/>
<polygon fill="#63b8ff" stroke="#63b8ff" points="394.69,-327.94 391.1,-317.97 387.69,-328.01 394.69,-327.94"/>
</g>
<!-- Node28 -->
<g id="node28" class="node">
<title>Node28</title>
<g id="a_node28"><a xlink:href="symbol_8h.html" target="_top" xlink:title=" ">
<polygon fill="white" stroke="#666666" points="364,-371 308,-371 308,-352 364,-352 364,-371"/>
<text text-anchor="middle" x="336" y="-359" font-family="Helvetica,sans-Serif" font-size="10.00">symbol.h</text>
</a>
</g>
</g>
<!-- Node24&#45;&gt;Node28 -->
<g id="edge59" class="edge">
<title>Node24&#45;&gt;Node28</title>
<path fill="none" stroke="#63b8ff" d="M382.5,-406.51C374.57,-399 363.05,-388.1 353.46,-379.03"/>
<polygon fill="#63b8ff" stroke="#63b8ff" points="356.13,-376.73 346.46,-372.4 351.32,-381.81 356.13,-376.73"/>
</g>
<!-- Node25&#45;&gt;Node2 -->
<g id="edge48" class="edge">
<title>Node25&#45;&gt;Node2</title>
<path fill="none" stroke="#63b8ff" d="M381.03,-296.6C349.22,-268.19 249.77,-179.38 208.37,-142.41"/>
<polygon fill="#63b8ff" stroke="#63b8ff" points="210.95,-140.01 201.16,-135.96 206.28,-145.23 210.95,-140.01"/>
</g>
<!-- Node25&#45;&gt;Node3 -->
<g id="edge50" class="edge">
<title>Node25&#45;&gt;Node3</title>
<path fill="none" stroke="#63b8ff" d="M444.99,-303.88C482.97,-300.1 532.89,-289.49 567,-261 591.73,-240.34 590.18,-226.49 597,-195 598.79,-186.75 598.56,-184.3 597,-176 593.83,-159.13 586.17,-156.87 583,-140 580.54,-126.9 579.41,-122.84 583,-110 585.61,-100.67 590.77,-91.34 595.89,-83.66"/>
<polygon fill="#63b8ff" stroke="#63b8ff" points="598.71,-85.74 601.71,-75.58 593.03,-81.65 598.71,-85.74"/>
</g>
<!-- Node25&#45;&gt;Node5 -->
<g id="edge46" class="edge">
<title>Node25&#45;&gt;Node5</title>
<path fill="none" stroke="#63b8ff" d="M444.74,-302.52C614.8,-292.38 1130,-255.94 1130,-186.5 1130,-186.5 1130,-186.5 1130,-124 1130,-89.89 1116.81,-51.99 1107.64,-29.75"/>
<polygon fill="#63b8ff" stroke="#63b8ff" points="1110.95,-28.59 1103.78,-20.79 1104.52,-31.35 1110.95,-28.59"/>
</g>
<!-- Node25&#45;&gt;Node9 -->
<g id="edge47" class="edge">
<title>Node25&#45;&gt;Node9</title>
<path fill="none" stroke="#63b8ff" d="M368.34,-296.55C291.68,-265.05 51.61,-155.79 139,-55 173.81,-14.86 335.76,-10.04 411.17,-10.03"/>
<polygon fill="#63b8ff" stroke="#63b8ff" points="410.98,-13.53 420.99,-10.06 411,-6.53 410.98,-13.53"/>
</g>
<!-- Node25&#45;&gt;Node18 -->
<g id="edge49" class="edge">
<title>Node25&#45;&gt;Node18</title>
<path fill="none" stroke="#63b8ff" d="M444.66,-297.26C485.17,-289.84 535.93,-277.55 549,-261 561.02,-245.78 560,-222.86 557.08,-206.46"/>
<polygon fill="#63b8ff" stroke="#63b8ff" points="560.55,-205.93 554.99,-196.91 553.71,-207.43 560.55,-205.93"/>
</g>
<!-- Node25&#45;&gt;Node21 -->
<g id="edge57" class="edge">
<title>Node25&#45;&gt;Node21</title>
<path fill="none" stroke="#63b8ff" d="M386.13,-296.7C375.16,-275.77 350.29,-221.37 361,-176 363.6,-164.99 369.02,-153.63 374.15,-144.54"/>
<polygon fill="#63b8ff" stroke="#63b8ff" points="377.11,-146.4 379.27,-136.03 371.11,-142.79 377.11,-146.4"/>
</g>
<!-- Node26 -->
<g id="node26" class="node">
<title>Node26</title>
<g id="a_node26"><a xlink:title=" ">
<polygon fill="#e0e0e0" stroke="#999999" points="422,-195 370,-195 370,-176 422,-176 422,-195"/>
<text text-anchor="middle" x="396" y="-183" font-family="Helvetica,sans-Serif" font-size="10.00">memory</text>
</a>
</g>
</g>
<!-- Node25&#45;&gt;Node26 -->
<g id="edge51" class="edge">
<title>Node25&#45;&gt;Node26</title>
<path fill="none" stroke="#63b8ff" d="M391.38,-296.56C392.18,-277.51 394.06,-232.56 395.16,-206.37"/>
<polygon fill="#63b8ff" stroke="#63b8ff" points="398.65,-206.88 395.57,-196.74 391.65,-206.58 398.65,-206.88"/>
</g>
<!-- Node27 -->
<g id="node27" class="node">
<title>Node27</title>
<g id="a_node27"><a xlink:href="operation_8h.html" target="_top" xlink:title=" ">
<polygon fill="white" stroke="#666666" points="539.5,-261 408.5,-261 408.5,-231 539.5,-231 539.5,-261"/>
<text text-anchor="start" x="416.5" y="-249" font-family="Helvetica,sans-Serif" font-size="10.00">core/evaluation/operations</text>
<text text-anchor="middle" x="474" y="-238" font-family="Helvetica,sans-Serif" font-size="10.00">/operation.h</text>
</a>
</g>
</g>
<!-- Node25&#45;&gt;Node27 -->
<g id="edge52" class="edge">
<title>Node25&#45;&gt;Node27</title>
<path fill="none" stroke="#63b8ff" d="M403.61,-296.62C414.37,-289.03 430.27,-277.82 444.24,-267.98"/>
<polygon fill="#63b8ff" stroke="#63b8ff" points="446.12,-270.93 452.28,-262.31 442.09,-265.21 446.12,-270.93"/>
</g>
<!-- Node27&#45;&gt;Node2 -->
<g id="edge54" class="edge">
<title>Node27&#45;&gt;Node2</title>
<path fill="none" stroke="#63b8ff" d="M469.03,-230.67C462.74,-214.74 450.33,-189.48 431,-176 422.5,-170.07 288.58,-144.43 224.13,-132.35"/>
<polygon fill="#63b8ff" stroke="#63b8ff" points="224.92,-128.93 214.44,-130.53 223.63,-135.81 224.92,-128.93"/>
</g>
<!-- Node27&#45;&gt;Node3 -->
<g id="edge53" class="edge">
<title>Node27&#45;&gt;Node3</title>
<path fill="none" stroke="#63b8ff" d="M477.91,-230.89C485.79,-204.55 505.7,-147.22 539,-110 550.21,-97.47 565.76,-87.19 579.46,-79.67"/>
<polygon fill="#63b8ff" stroke="#63b8ff" points="580.86,-82.89 588.12,-75.17 577.63,-76.68 580.86,-82.89"/>
</g>
<!-- Node27&#45;&gt;Node18 -->
<g id="edge55" class="edge">
<title>Node27&#45;&gt;Node18</title>
<path fill="none" stroke="#63b8ff" d="M493.28,-230.54C504.84,-221.87 519.54,-210.85 531.34,-202"/>
<polygon fill="#63b8ff" stroke="#63b8ff" points="533.32,-204.88 539.22,-196.08 529.12,-199.28 533.32,-204.88"/>
</g>
<!-- Node27&#45;&gt;Node26 -->
<g id="edge56" class="edge">
<title>Node27&#45;&gt;Node26</title>
<path fill="none" stroke="#63b8ff" d="M454.72,-230.54C443.16,-221.87 428.46,-210.85 416.66,-202"/>
<polygon fill="#63b8ff" stroke="#63b8ff" points="418.88,-199.28 408.78,-196.08 414.68,-204.88 418.88,-199.28"/>
</g>
<!-- Node28&#45;&gt;Node2 -->
<g id="edge62" class="edge">
<title>Node28&#45;&gt;Node2</title>
<path fill="none" stroke="#63b8ff" d="M330.45,-351.59C309,-317.13 231.16,-192.1 201.54,-144.54"/>
<polygon fill="#63b8ff" stroke="#63b8ff" points="204.61,-142.84 196.35,-136.2 198.66,-146.54 204.61,-142.84"/>
</g>
<!-- Node28&#45;&gt;Node16 -->
<g id="edge60" class="edge">
<title>Node28&#45;&gt;Node16</title>
<path fill="none" stroke="#63b8ff" d="M317.17,-351.51C299.55,-343.1 273.02,-330.43 252.93,-320.84"/>
<polygon fill="#63b8ff" stroke="#63b8ff" points="254.72,-317.81 244.18,-316.66 251.7,-324.13 254.72,-317.81"/>
</g>
<!-- Node28&#45;&gt;Node20 -->
<g id="edge61" class="edge">
<title>Node28&#45;&gt;Node20</title>
<path fill="none" stroke="#63b8ff" d="M334.31,-351.65C332.62,-342.68 329.99,-328.4 328,-316 318.05,-254.16 308.15,-180.69 303.6,-146.01"/>
<polygon fill="#63b8ff" stroke="#63b8ff" points="307.09,-145.69 302.32,-136.23 300.14,-146.6 307.09,-145.69"/>
</g>
<!-- Node28&#45;&gt;Node25 -->
<g id="edge63" class="edge">
<title>Node28&#45;&gt;Node25</title>
<path fill="none" stroke="#63b8ff" d="M345.08,-351.75C352.84,-344.27 364.21,-333.32 373.7,-324.17"/>
<polygon fill="#63b8ff" stroke="#63b8ff" points="375.86,-326.95 380.63,-317.49 371,-321.91 375.86,-326.95"/>
</g>
</g>
</svg>
