<?xml version="1.0" encoding="UTF-8" standalone="no"?>
<!DOCTYPE svg PUBLIC "-//W3C//DTD SVG 1.1//EN"
 "http://www.w3.org/Graphics/SVG/1.1/DTD/svg11.dtd">
<!-- Generated by graphviz version 7.1.0 (20230121.1956)
 -->
<!-- Title: src/core/helpers/array_printer.cpp Pages: 1 -->
<svg width="497pt" height="203pt"
 viewBox="0.00 0.00 496.50 203.00" xmlns="http://www.w3.org/2000/svg" xmlns:xlink="http://www.w3.org/1999/xlink">
<g id="graph0" class="graph" transform="scale(1 1) rotate(0) translate(4 199)">
<title>src/core/helpers/array_printer.cpp</title>
<!-- Node1 -->
<g id="node1" class="node">
<title>Node1</title>
<g id="a_node1"><a xlink:title=" ">
<polygon fill="#999999" stroke="#666666" points="273.5,-195 162.5,-195 162.5,-165 273.5,-165 273.5,-195"/>
<text text-anchor="start" x="170.5" y="-183" font-family="Helvetica,sans-Serif" font-size="10.00">src/core/helpers/array</text>
<text text-anchor="middle" x="218" y="-172" font-family="Helvetica,sans-Serif" font-size="10.00">_printer.cpp</text>
</a>
</g>
</g>
<!-- Node2 -->
<g id="node2" class="node">
<title>Node2</title>
<g id="a_node2"><a xlink:href="array_8h.html" target="_top" xlink:title=" ">
<polygon fill="white" stroke="#666666" points="93.5,-129 26.5,-129 26.5,-110 93.5,-110 93.5,-129"/>
<text text-anchor="middle" x="60" y="-117" font-family="Helvetica,sans-Serif" font-size="10.00">core/array.h</text>
</a>
</g>
</g>
<!-- Node1&#45;&gt;Node2 -->
<g id="edge1" class="edge">
<title>Node1&#45;&gt;Node2</title>
<path fill="none" stroke="#63b8ff" d="M178.94,-164.54C153.11,-154.97 119.54,-142.55 94.66,-133.33"/>
<polygon fill="#63b8ff" stroke="#63b8ff" points="95.9,-130.06 85.31,-129.87 93.47,-136.63 95.9,-130.06"/>
</g>
<!-- Node4 -->
<g id="node4" class="node">
<title>Node4</title>
<g id="a_node4"><a xlink:title=" ">
<polygon fill="#e0e0e0" stroke="#999999" points="44,-19 0,-19 0,0 44,0 44,-19"/>
<text text-anchor="middle" x="22" y="-7" font-family="Helvetica,sans-Serif" font-size="10.00">vector</text>
</a>
</g>
</g>
<!-- Node1&#45;&gt;Node4 -->
<g id="edge11" class="edge">
<title>Node1&#45;&gt;Node4</title>
<path fill="none" stroke="#63b8ff" d="M162.38,-172.32C109.71,-164.78 35.92,-150.67 17,-129 -6.85,-101.69 4.48,-55.87 13.87,-29.94"/>
<polygon fill="#63b8ff" stroke="#63b8ff" points="17.11,-31.26 17.49,-20.67 10.59,-28.72 17.11,-31.26"/>
</g>
<!-- Node5 -->
<g id="node5" class="node">
<title>Node5</title>
<g id="a_node5"><a xlink:title=" ">
<polygon fill="#e0e0e0" stroke="#999999" points="221.5,-19 180.5,-19 180.5,0 221.5,0 221.5,-19"/>
<text text-anchor="middle" x="201" y="-7" font-family="Helvetica,sans-Serif" font-size="10.00">string</text>
</a>
</g>
</g>
<!-- Node1&#45;&gt;Node5 -->
<g id="edge10" class="edge">
<title>Node1&#45;&gt;Node5</title>
<path fill="none" stroke="#63b8ff" d="M216.55,-164.63C213.52,-134.57 206.5,-64.97 203.02,-30.54"/>
<polygon fill="#63b8ff" stroke="#63b8ff" points="206.52,-30.32 202.03,-20.72 199.55,-31.02 206.52,-30.32"/>
</g>
<!-- Node8 -->
<g id="node8" class="node">
<title>Node8</title>
<g id="a_node8"><a xlink:href="array__printer_8h.html" target="_top" xlink:title=" ">
<polygon fill="white" stroke="#666666" points="190,-129 112,-129 112,-110 190,-110 190,-129"/>
<text text-anchor="middle" x="151" y="-117" font-family="Helvetica,sans-Serif" font-size="10.00">array_printer.h</text>
</a>
</g>
</g>
<!-- Node1&#45;&gt;Node8 -->
<g id="edge7" class="edge">
<title>Node1&#45;&gt;Node8</title>
<path fill="none" stroke="#63b8ff" d="M201.44,-164.54C191.71,-156.04 179.39,-145.29 169.36,-136.53"/>
<polygon fill="#63b8ff" stroke="#63b8ff" points="171.91,-134.11 162.08,-130.17 167.31,-139.38 171.91,-134.11"/>
</g>
<!-- Node9 -->
<g id="node9" class="node">
<title>Node9</title>
<g id="a_node9"><a xlink:href="conversion_8h.html" target="_top" xlink:title=" ">
<polygon fill="white" stroke="#666666" points="318,-129 246,-129 246,-110 318,-110 318,-129"/>
<text text-anchor="middle" x="282" y="-117" font-family="Helvetica,sans-Serif" font-size="10.00">conversion.h</text>
</a>
</g>
</g>
<!-- Node1&#45;&gt;Node9 -->
<g id="edge12" class="edge">
<title>Node1&#45;&gt;Node9</title>
<path fill="none" stroke="#63b8ff" d="M233.82,-164.54C243.02,-156.13 254.64,-145.51 264.17,-136.8"/>
<polygon fill="#63b8ff" stroke="#63b8ff" points="266.37,-139.53 271.39,-130.2 261.65,-134.36 266.37,-139.53"/>
</g>
<!-- Node12 -->
<g id="node12" class="node">
<title>Node12</title>
<g id="a_node12"><a xlink:title=" ">
<polygon fill="#e0e0e0" stroke="#999999" points="419.5,-129 336.5,-129 336.5,-110 419.5,-110 419.5,-129"/>
<text text-anchor="middle" x="378" y="-117" font-family="Helvetica,sans-Serif" font-size="10.00">uni_algo/conv.h</text>
</a>
</g>
</g>
<!-- Node1&#45;&gt;Node12 -->
<g id="edge17" class="edge">
<title>Node1&#45;&gt;Node12</title>
<path fill="none" stroke="#63b8ff" d="M257.55,-164.54C283.83,-154.93 318.01,-142.43 343.25,-133.21"/>
<polygon fill="#63b8ff" stroke="#63b8ff" points="344.19,-136.59 352.38,-129.87 341.79,-130.01 344.19,-136.59"/>
</g>
<!-- Node13 -->
<g id="node13" class="node">
<title>Node13</title>
<g id="a_node13"><a xlink:title=" ">
<polygon fill="#e0e0e0" stroke="#999999" points="488.5,-129 437.5,-129 437.5,-110 488.5,-110 488.5,-129"/>
<text text-anchor="middle" x="463" y="-117" font-family="Helvetica,sans-Serif" font-size="10.00">numeric</text>
</a>
</g>
</g>
<!-- Node1&#45;&gt;Node13 -->
<g id="edge18" class="edge">
<title>Node1&#45;&gt;Node13</title>
<path fill="none" stroke="#63b8ff" d="M273.58,-166.03C313.57,-156.65 369.11,-143.53 426,-129.71"/>
<polygon fill="#63b8ff" stroke="#63b8ff" points="426.66,-133.15 435.55,-127.39 425,-126.35 426.66,-133.15"/>
</g>
<!-- Node3 -->
<g id="node3" class="node">
<title>Node3</title>
<g id="a_node3"><a xlink:href="datatypes_8h.html" target="_top" xlink:title=" ">
<polygon fill="white" stroke="#666666" points="152,-74 84,-74 84,-55 152,-55 152,-74"/>
<text text-anchor="middle" x="118" y="-62" font-family="Helvetica,sans-Serif" font-size="10.00">datatypes.h</text>
</a>
</g>
</g>
<!-- Node2&#45;&gt;Node3 -->
<g id="edge2" class="edge">
<title>Node2&#45;&gt;Node3</title>
<path fill="none" stroke="#63b8ff" d="M69.84,-109.51C78.05,-102 89.98,-91.1 99.91,-82.03"/>
<polygon fill="#63b8ff" stroke="#63b8ff" points="102.17,-84.71 107.19,-75.38 97.45,-79.54 102.17,-84.71"/>
</g>
<!-- Node7 -->
<g id="node7" class="node">
<title>Node7</title>
<g id="a_node7"><a xlink:title=" ">
<polygon fill="#e0e0e0" stroke="#999999" points="66,-74 20,-74 20,-55 66,-55 66,-74"/>
<text text-anchor="middle" x="43" y="-62" font-family="Helvetica,sans-Serif" font-size="10.00">variant</text>
</a>
</g>
</g>
<!-- Node2&#45;&gt;Node7 -->
<g id="edge6" class="edge">
<title>Node2&#45;&gt;Node7</title>
<path fill="none" stroke="#63b8ff" d="M57.19,-109.75C55.06,-103.11 52.06,-93.73 49.36,-85.31"/>
<polygon fill="#63b8ff" stroke="#63b8ff" points="52.72,-84.34 46.33,-75.88 46.05,-86.47 52.72,-84.34"/>
</g>
<!-- Node3&#45;&gt;Node4 -->
<g id="edge3" class="edge">
<title>Node3&#45;&gt;Node4</title>
<path fill="none" stroke="#63b8ff" d="M101.71,-54.51C87.01,-46.39 65.11,-34.3 47.98,-24.85"/>
<polygon fill="#63b8ff" stroke="#63b8ff" points="49.82,-21.86 39.37,-20.09 46.43,-27.99 49.82,-21.86"/>
</g>
<!-- Node3&#45;&gt;Node5 -->
<g id="edge4" class="edge">
<title>Node3&#45;&gt;Node5</title>
<path fill="none" stroke="#63b8ff" d="M132.08,-54.51C144.56,-46.54 163.02,-34.75 177.69,-25.38"/>
<polygon fill="#63b8ff" stroke="#63b8ff" points="179.31,-28.5 185.85,-20.17 175.54,-22.6 179.31,-28.5"/>
</g>
<!-- Node6 -->
<g id="node6" class="node">
<title>Node6</title>
<g id="a_node6"><a xlink:title=" ">
<polygon fill="#e0e0e0" stroke="#999999" points="144.5,-19 91.5,-19 91.5,0 144.5,0 144.5,-19"/>
<text text-anchor="middle" x="118" y="-7" font-family="Helvetica,sans-Serif" font-size="10.00">complex</text>
</a>
</g>
</g>
<!-- Node3&#45;&gt;Node6 -->
<g id="edge5" class="edge">
<title>Node3&#45;&gt;Node6</title>
<path fill="none" stroke="#63b8ff" d="M118,-54.75C118,-48.27 118,-39.16 118,-30.9"/>
<polygon fill="#63b8ff" stroke="#63b8ff" points="121.5,-30.96 118,-20.96 114.5,-30.96 121.5,-30.96"/>
</g>
<!-- Node8&#45;&gt;Node3 -->
<g id="edge9" class="edge">
<title>Node8&#45;&gt;Node3</title>
<path fill="none" stroke="#63b8ff" d="M145.55,-109.75C141.23,-102.81 135.04,-92.86 129.62,-84.16"/>
<polygon fill="#63b8ff" stroke="#63b8ff" points="132.62,-82.37 124.37,-75.73 126.68,-86.07 132.62,-82.37"/>
</g>
<!-- Node8&#45;&gt;Node5 -->
<g id="edge8" class="edge">
<title>Node8&#45;&gt;Node5</title>
<path fill="none" stroke="#63b8ff" d="M155.09,-109.66C163.15,-92.26 181.23,-53.19 192.15,-29.62"/>
<polygon fill="#63b8ff" stroke="#63b8ff" points="195.19,-31.38 196.22,-20.83 188.84,-28.44 195.19,-31.38"/>
</g>
<!-- Node9&#45;&gt;Node3 -->
<g id="edge14" class="edge">
<title>Node9&#45;&gt;Node3</title>
<path fill="none" stroke="#63b8ff" d="M254.18,-109.51C227.36,-100.84 186.54,-87.65 156.58,-77.97"/>
<polygon fill="#63b8ff" stroke="#63b8ff" points="157.71,-74.66 147.12,-74.91 155.56,-81.32 157.71,-74.66"/>
</g>
<!-- Node9&#45;&gt;Node5 -->
<g id="edge13" class="edge">
<title>Node9&#45;&gt;Node5</title>
<path fill="none" stroke="#63b8ff" d="M275.37,-109.66C262.14,-92.02 232.22,-52.12 214.63,-28.67"/>
<polygon fill="#63b8ff" stroke="#63b8ff" points="217.43,-26.57 208.63,-20.67 211.83,-30.77 217.43,-26.57"/>
</g>
<!-- Node10 -->
<g id="node10" class="node">
<title>Node10</title>
<g id="a_node10"><a xlink:href="token__type_8h.html" target="_top" xlink:title=" ">
<polygon fill="white" stroke="#666666" points="379.5,-74 284.5,-74 284.5,-55 379.5,-55 379.5,-74"/>
<text text-anchor="middle" x="332" y="-62" font-family="Helvetica,sans-Serif" font-size="10.00">core/token_type.h</text>
</a>
</g>
</g>
<!-- Node9&#45;&gt;Node10 -->
<g id="edge15" class="edge">
<title>Node9&#45;&gt;Node10</title>
<path fill="none" stroke="#63b8ff" d="M290.26,-109.75C297.16,-102.43 307.22,-91.76 315.74,-82.74"/>
<polygon fill="#63b8ff" stroke="#63b8ff" points="318.21,-85.22 322.53,-75.54 313.12,-80.42 318.21,-85.22"/>
</g>
<!-- Node11 -->
<g id="node11" class="node">
<title>Node11</title>
<g id="a_node11"><a xlink:title=" ">
<polygon fill="#e0e0e0" stroke="#999999" points="359,-19 305,-19 305,0 359,0 359,-19"/>
<text text-anchor="middle" x="332" y="-7" font-family="Helvetica,sans-Serif" font-size="10.00">iostream</text>
</a>
</g>
</g>
<!-- Node10&#45;&gt;Node11 -->
<g id="edge16" class="edge">
<title>Node10&#45;&gt;Node11</title>
<path fill="none" stroke="#63b8ff" d="M332,-54.75C332,-48.27 332,-39.16 332,-30.9"/>
<polygon fill="#63b8ff" stroke="#63b8ff" points="335.5,-30.96 332,-20.96 328.5,-30.96 335.5,-30.96"/>
</g>
</g>
</svg>
