<?xml version="1.0" encoding="UTF-8" standalone="no"?>
<!DOCTYPE svg PUBLIC "-//W3C//DTD SVG 1.1//EN"
 "http://www.w3.org/Graphics/SVG/1.1/DTD/svg11.dtd">
<!-- Generated by graphviz version 7.1.0 (20230121.1956)
 -->
<!-- Title: /Users/nikolajbankejensen/Desktop/Kepler/src/core/evaluation/ast.h Pages: 1 -->
<svg width="1825pt" height="467pt"
 viewBox="0.00 0.00 1825.50 467.00" xmlns="http://www.w3.org/2000/svg" xmlns:xlink="http://www.w3.org/1999/xlink">
<g id="graph0" class="graph" transform="scale(1 1) rotate(0) translate(4 463)">
<title>/Users/nikolajbankejensen/Desktop/Kepler/src/core/evaluation/ast.h</title>
<!-- Node1 -->
<g id="node1" class="node">
<title>Node1</title>
<g id="a_node1"><a xlink:title=" ">
<polygon fill="#999999" stroke="#666666" points="1263,-459 1132,-459 1132,-418 1263,-418 1263,-459"/>
<text text-anchor="start" x="1140" y="-447" font-family="Helvetica,sans-Serif" font-size="10.00">/Users/nikolajbankejensen</text>
<text text-anchor="start" x="1140" y="-436" font-family="Helvetica,sans-Serif" font-size="10.00">/Desktop/Kepler/src/core</text>
<text text-anchor="middle" x="1197.5" y="-425" font-family="Helvetica,sans-Serif" font-size="10.00">/evaluation/ast.h</text>
</a>
</g>
</g>
<!-- Node2 -->
<g id="node2" class="node">
<title>Node2</title>
<g id="a_node2"><a xlink:href="ast_8cpp.html" target="_top" xlink:title=" ">
<polygon fill="white" stroke="#666666" points="131,-200.5 0,-200.5 0,-159.5 131,-159.5 131,-200.5"/>
<text text-anchor="start" x="8" y="-188.5" font-family="Helvetica,sans-Serif" font-size="10.00">/Users/nikolajbankejensen</text>
<text text-anchor="start" x="8" y="-177.5" font-family="Helvetica,sans-Serif" font-size="10.00">/Desktop/Kepler/src/core</text>
<text text-anchor="middle" x="65.5" y="-166.5" font-family="Helvetica,sans-Serif" font-size="10.00">/evaluation/ast.cpp</text>
</a>
</g>
</g>
<!-- Node1&#45;&gt;Node2 -->
<g id="edge1" class="edge">
<title>Node1&#45;&gt;Node2</title>
<path fill="none" stroke="#63b8ff" d="M1120.3,-429.47C971.99,-412.89 637.79,-369.92 365.5,-294 273.02,-268.22 168.96,-225.87 110.91,-200.99"/>
<polygon fill="#63b8ff" stroke="#63b8ff" points="1119.68,-432.92 1130.01,-430.55 1120.45,-425.97 1119.68,-432.92"/>
</g>
<!-- Node3 -->
<g id="node3" class="node">
<title>Node3</title>
<g id="a_node3"><a xlink:href="node__visitor_8h.html" target="_top" xlink:title=" ">
<polygon fill="white" stroke="#666666" points="1169,-376.5 1038,-376.5 1038,-335.5 1169,-335.5 1169,-376.5"/>
<text text-anchor="start" x="1046" y="-364.5" font-family="Helvetica,sans-Serif" font-size="10.00">/Users/nikolajbankejensen</text>
<text text-anchor="start" x="1046" y="-353.5" font-family="Helvetica,sans-Serif" font-size="10.00">/Desktop/Kepler/src/core</text>
<text text-anchor="middle" x="1103.5" y="-342.5" font-family="Helvetica,sans-Serif" font-size="10.00">/evaluation/node_visitor.h</text>
</a>
</g>
</g>
<!-- Node1&#45;&gt;Node3 -->
<g id="edge2" class="edge">
<title>Node1&#45;&gt;Node3</title>
<path fill="none" stroke="#63b8ff" d="M1165.75,-410.31C1152.99,-399.39 1138.55,-387.02 1126.79,-376.95"/>
<polygon fill="#63b8ff" stroke="#63b8ff" points="1163.24,-412.77 1173.11,-416.62 1167.8,-407.45 1163.24,-412.77"/>
</g>
<!-- Node8 -->
<g id="node8" class="node">
<title>Node8</title>
<g id="a_node8"><a xlink:href="defined__function_8h.html" target="_top" xlink:title=" ">
<polygon fill="white" stroke="#666666" points="1313.5,-294 1167.5,-294 1167.5,-242 1313.5,-242 1313.5,-294"/>
<text text-anchor="start" x="1175.5" y="-282" font-family="Helvetica,sans-Serif" font-size="10.00">/Users/nikolajbankejensen</text>
<text text-anchor="start" x="1175.5" y="-271" font-family="Helvetica,sans-Serif" font-size="10.00">/Desktop/Kepler/src/core</text>
<text text-anchor="start" x="1175.5" y="-260" font-family="Helvetica,sans-Serif" font-size="10.00">/evaluation/operations/defined</text>
<text text-anchor="middle" x="1240.5" y="-249" font-family="Helvetica,sans-Serif" font-size="10.00">_function.h</text>
</a>
</g>
</g>
<!-- Node1&#45;&gt;Node8 -->
<g id="edge8" class="edge">
<title>Node1&#45;&gt;Node8</title>
<path fill="none" stroke="#63b8ff" d="M1205.41,-406.5C1213.63,-374.28 1226.35,-324.45 1234,-294.45"/>
<polygon fill="#63b8ff" stroke="#63b8ff" points="1202.06,-405.49 1202.98,-416.04 1208.84,-407.22 1202.06,-405.49"/>
</g>
<!-- Node9 -->
<g id="node9" class="node">
<title>Node9</title>
<g id="a_node9"><a xlink:href="dyadic__operators_8h.html" target="_top" xlink:title=" ">
<polygon fill="white" stroke="#666666" points="1458,-382 1315,-382 1315,-330 1458,-330 1458,-382"/>
<text text-anchor="start" x="1323" y="-370" font-family="Helvetica,sans-Serif" font-size="10.00">/Users/nikolajbankejensen</text>
<text text-anchor="start" x="1323" y="-359" font-family="Helvetica,sans-Serif" font-size="10.00">/Desktop/Kepler/src/core</text>
<text text-anchor="start" x="1323" y="-348" font-family="Helvetica,sans-Serif" font-size="10.00">/evaluation/operations/dyadic</text>
<text text-anchor="middle" x="1386.5" y="-337" font-family="Helvetica,sans-Serif" font-size="10.00">_operators.h</text>
</a>
</g>
</g>
<!-- Node1&#45;&gt;Node9 -->
<g id="edge11" class="edge">
<title>Node1&#45;&gt;Node9</title>
<path fill="none" stroke="#63b8ff" d="M1254.75,-413.11C1277.52,-403.42 1303.73,-392.25 1326.74,-382.45"/>
<polygon fill="#63b8ff" stroke="#63b8ff" points="1253.44,-409.87 1245.61,-417.01 1256.18,-416.31 1253.44,-409.87"/>
</g>
<!-- Node11 -->
<g id="node11" class="node">
<title>Node11</title>
<g id="a_node11"><a xlink:href="monadic__operators_8h.html" target="_top" xlink:title=" ">
<polygon fill="white" stroke="#666666" points="1628.5,-382 1476.5,-382 1476.5,-330 1628.5,-330 1628.5,-382"/>
<text text-anchor="start" x="1484.5" y="-370" font-family="Helvetica,sans-Serif" font-size="10.00">/Users/nikolajbankejensen</text>
<text text-anchor="start" x="1484.5" y="-359" font-family="Helvetica,sans-Serif" font-size="10.00">/Desktop/Kepler/src/core</text>
<text text-anchor="start" x="1484.5" y="-348" font-family="Helvetica,sans-Serif" font-size="10.00">/evaluation/operations/monadic</text>
<text text-anchor="middle" x="1552.5" y="-337" font-family="Helvetica,sans-Serif" font-size="10.00">_operators.h</text>
</a>
</g>
</g>
<!-- Node1&#45;&gt;Node11 -->
<g id="edge14" class="edge">
<title>Node1&#45;&gt;Node11</title>
<path fill="none" stroke="#63b8ff" d="M1274.54,-423.29C1328.53,-412.92 1402.23,-397.95 1466.5,-382 1469.67,-381.21 1472.9,-380.39 1476.15,-379.54"/>
<polygon fill="#63b8ff" stroke="#63b8ff" points="1273.98,-419.83 1264.82,-425.15 1275.3,-426.71 1273.98,-419.83"/>
</g>
<!-- Node13 -->
<g id="node13" class="node">
<title>Node13</title>
<g id="a_node13"><a xlink:href="parser_8h.html" target="_top" xlink:title=" ">
<polygon fill="white" stroke="#666666" points="1149,-288.5 1018,-288.5 1018,-247.5 1149,-247.5 1149,-288.5"/>
<text text-anchor="start" x="1026" y="-276.5" font-family="Helvetica,sans-Serif" font-size="10.00">/Users/nikolajbankejensen</text>
<text text-anchor="start" x="1026" y="-265.5" font-family="Helvetica,sans-Serif" font-size="10.00">/Desktop/Kepler/src/core</text>
<text text-anchor="middle" x="1083.5" y="-254.5" font-family="Helvetica,sans-Serif" font-size="10.00">/evaluation/parser.h</text>
</a>
</g>
</g>
<!-- Node1&#45;&gt;Node13 -->
<g id="edge18" class="edge">
<title>Node1&#45;&gt;Node13</title>
<path fill="none" stroke="#63b8ff" d="M1198.06,-406.06C1197.03,-383.21 1192.53,-352.47 1177.5,-330 1165.71,-312.37 1146.92,-298.7 1129.23,-288.81"/>
<polygon fill="#63b8ff" stroke="#63b8ff" points="1194.56,-406.09 1198.29,-416.01 1201.56,-405.93 1194.56,-406.09"/>
</g>
<!-- Node17 -->
<g id="node17" class="node">
<title>Node17</title>
<g id="a_node17"><a xlink:href="symbol_8h.html" target="_top" xlink:title=" ">
<polygon fill="white" stroke="#666666" points="1013,-376.5 882,-376.5 882,-335.5 1013,-335.5 1013,-376.5"/>
<text text-anchor="start" x="890" y="-364.5" font-family="Helvetica,sans-Serif" font-size="10.00">/Users/nikolajbankejensen</text>
<text text-anchor="start" x="890" y="-353.5" font-family="Helvetica,sans-Serif" font-size="10.00">/Desktop/Kepler/src/core</text>
<text text-anchor="middle" x="947.5" y="-342.5" font-family="Helvetica,sans-Serif" font-size="10.00">/symbol.h</text>
</a>
</g>
</g>
<!-- Node1&#45;&gt;Node17 -->
<g id="edge24" class="edge">
<title>Node1&#45;&gt;Node17</title>
<path fill="none" stroke="#63b8ff" d="M1125.09,-414.18C1088.47,-402.39 1044.49,-388.23 1009.45,-376.95"/>
<polygon fill="#63b8ff" stroke="#63b8ff" points="1123.67,-417.4 1134.26,-417.14 1125.82,-410.74 1123.67,-417.4"/>
</g>
<!-- Node18 -->
<g id="node18" class="node">
<title>Node18</title>
<g id="a_node18"><a xlink:href="symbol__table_8h.html" target="_top" xlink:title=" ">
<polygon fill="white" stroke="#666666" points="902,-288.5 771,-288.5 771,-247.5 902,-247.5 902,-288.5"/>
<text text-anchor="start" x="779" y="-276.5" font-family="Helvetica,sans-Serif" font-size="10.00">/Users/nikolajbankejensen</text>
<text text-anchor="start" x="779" y="-265.5" font-family="Helvetica,sans-Serif" font-size="10.00">/Desktop/Kepler/src/core</text>
<text text-anchor="middle" x="836.5" y="-254.5" font-family="Helvetica,sans-Serif" font-size="10.00">/symbol_table.h</text>
</a>
</g>
</g>
<!-- Node1&#45;&gt;Node18 -->
<g id="edge46" class="edge">
<title>Node1&#45;&gt;Node18</title>
<path fill="none" stroke="#63b8ff" d="M1120.51,-433.45C1036.35,-427.48 908.63,-413.42 872.5,-382 845.31,-358.36 838.47,-314.23 836.87,-288.68"/>
<polygon fill="#63b8ff" stroke="#63b8ff" points="1120.11,-436.93 1130.32,-434.11 1120.58,-429.94 1120.11,-436.93"/>
</g>
<!-- Node30 -->
<g id="node30" class="node">
<title>Node30</title>
<g id="a_node30"><a xlink:href="matcher_8h.html" target="_top" xlink:title=" ">
<polygon fill="white" stroke="#666666" points="909.5,-118 773.5,-118 773.5,-77 909.5,-77 909.5,-118"/>
<text text-anchor="start" x="781.5" y="-106" font-family="Helvetica,sans-Serif" font-size="10.00">/Users/nikolajbankejensen</text>
<text text-anchor="start" x="781.5" y="-95" font-family="Helvetica,sans-Serif" font-size="10.00">/Desktop/Kepler/src/testing</text>
<text text-anchor="middle" x="841.5" y="-84" font-family="Helvetica,sans-Serif" font-size="10.00">/matcher.h</text>
</a>
</g>
</g>
<!-- Node1&#45;&gt;Node30 -->
<g id="edge47" class="edge">
<title>Node1&#45;&gt;Node30</title>
<path fill="none" stroke="#63b8ff" d="M1274.57,-436.15C1363.85,-432.68 1514.43,-420.94 1637.5,-382 1729.52,-352.88 1860.28,-320.04 1803.5,-242 1728.75,-139.25 1656.11,-178.82 1531.5,-154 1306.97,-109.28 1034.52,-100.39 909.8,-98.76"/>
<polygon fill="#63b8ff" stroke="#63b8ff" points="1274.57,-432.64 1264.7,-436.5 1274.82,-439.64 1274.57,-432.64"/>
</g>
<!-- Node3&#45;&gt;Node2 -->
<g id="edge3" class="edge">
<title>Node3&#45;&gt;Node2</title>
<path fill="none" stroke="#63b8ff" d="M1031.03,-332.24C1027.82,-331.44 1024.63,-330.69 1021.5,-330 907.57,-304.91 876.99,-310.49 761.5,-294 495.56,-256.02 426.89,-258.83 163.5,-206 153.08,-203.91 142.12,-201.41 131.44,-198.82"/>
<polygon fill="#63b8ff" stroke="#63b8ff" points="1029.96,-335.58 1040.52,-334.72 1031.74,-328.8 1029.96,-335.58"/>
</g>
<!-- Node4 -->
<g id="node4" class="node">
<title>Node4</title>
<g id="a_node4"><a xlink:href="interpreter_8h.html" target="_top" xlink:title=" ">
<polygon fill="white" stroke="#666666" points="1463,-288.5 1332,-288.5 1332,-247.5 1463,-247.5 1463,-288.5"/>
<text text-anchor="start" x="1340" y="-276.5" font-family="Helvetica,sans-Serif" font-size="10.00">/Users/nikolajbankejensen</text>
<text text-anchor="start" x="1340" y="-265.5" font-family="Helvetica,sans-Serif" font-size="10.00">/Desktop/Kepler/src/core</text>
<text text-anchor="middle" x="1397.5" y="-254.5" font-family="Helvetica,sans-Serif" font-size="10.00">/evaluation/interpreter.h</text>
</a>
</g>
</g>
<!-- Node3&#45;&gt;Node4 -->
<g id="edge4" class="edge">
<title>Node3&#45;&gt;Node4</title>
<path fill="none" stroke="#63b8ff" d="M1180.41,-334.59C1222.53,-323.16 1275.55,-308.35 1322.5,-294 1327.75,-292.39 1333.19,-290.68 1338.63,-288.93"/>
<polygon fill="#63b8ff" stroke="#63b8ff" points="1179.59,-331.18 1170.85,-337.18 1181.42,-337.94 1179.59,-331.18"/>
</g>
<!-- Node5 -->
<g id="node5" class="node">
<title>Node5</title>
<g id="a_node5"><a xlink:href="execution_8cpp.html" target="_top" xlink:title=" ">
<polygon fill="white" stroke="#666666" points="755,-118 624,-118 624,-77 755,-77 755,-118"/>
<text text-anchor="start" x="632" y="-106" font-family="Helvetica,sans-Serif" font-size="10.00">/Users/nikolajbankejensen</text>
<text text-anchor="start" x="632" y="-95" font-family="Helvetica,sans-Serif" font-size="10.00">/Desktop/Kepler/src/core</text>
<text text-anchor="middle" x="689.5" y="-84" font-family="Helvetica,sans-Serif" font-size="10.00">/evaluation/execution.cpp</text>
</a>
</g>
</g>
<!-- Node4&#45;&gt;Node5 -->
<g id="edge5" class="edge">
<title>Node4&#45;&gt;Node5</title>
<path fill="none" stroke="#63b8ff" d="M1456.53,-242.23C1480.8,-230.73 1504.81,-217.16 1511.5,-206 1523.38,-186.17 1527.44,-170.73 1511.5,-154 1454.17,-93.84 846.65,-130.52 764.5,-118 761.44,-117.53 758.33,-116.99 755.19,-116.4"/>
<polygon fill="#63b8ff" stroke="#63b8ff" points="1455.14,-239.01 1447.53,-246.38 1458.08,-245.36 1455.14,-239.01"/>
</g>
<!-- Node6 -->
<g id="node6" class="node">
<title>Node6</title>
<g id="a_node6"><a xlink:href="interpreter_8cpp.html" target="_top" xlink:title=" ">
<polygon fill="white" stroke="#666666" points="1338,-200.5 1207,-200.5 1207,-159.5 1338,-159.5 1338,-200.5"/>
<text text-anchor="start" x="1215" y="-188.5" font-family="Helvetica,sans-Serif" font-size="10.00">/Users/nikolajbankejensen</text>
<text text-anchor="start" x="1215" y="-177.5" font-family="Helvetica,sans-Serif" font-size="10.00">/Desktop/Kepler/src/core</text>
<text text-anchor="middle" x="1272.5" y="-166.5" font-family="Helvetica,sans-Serif" font-size="10.00">/evaluation/interpreter.cpp</text>
</a>
</g>
</g>
<!-- Node4&#45;&gt;Node6 -->
<g id="edge6" class="edge">
<title>Node4&#45;&gt;Node6</title>
<path fill="none" stroke="#63b8ff" d="M1359.12,-240.6C1340.5,-227.78 1318.5,-212.65 1301.33,-200.84"/>
<polygon fill="#63b8ff" stroke="#63b8ff" points="1357.04,-243.41 1367.26,-246.2 1361.01,-237.64 1357.04,-243.41"/>
</g>
<!-- Node7 -->
<g id="node7" class="node">
<title>Node7</title>
<g id="a_node7"><a xlink:href="defined__function_8cpp.html" target="_top" xlink:title=" ">
<polygon fill="white" stroke="#666666" points="1502.5,-206 1356.5,-206 1356.5,-154 1502.5,-154 1502.5,-206"/>
<text text-anchor="start" x="1364.5" y="-194" font-family="Helvetica,sans-Serif" font-size="10.00">/Users/nikolajbankejensen</text>
<text text-anchor="start" x="1364.5" y="-183" font-family="Helvetica,sans-Serif" font-size="10.00">/Desktop/Kepler/src/core</text>
<text text-anchor="start" x="1364.5" y="-172" font-family="Helvetica,sans-Serif" font-size="10.00">/evaluation/operations/defined</text>
<text text-anchor="middle" x="1429.5" y="-161" font-family="Helvetica,sans-Serif" font-size="10.00">_function.cpp</text>
</a>
</g>
</g>
<!-- Node4&#45;&gt;Node7 -->
<g id="edge7" class="edge">
<title>Node4&#45;&gt;Node7</title>
<path fill="none" stroke="#63b8ff" d="M1408.86,-236.47C1412.52,-226.63 1416.54,-215.83 1420.05,-206.4"/>
<polygon fill="#63b8ff" stroke="#63b8ff" points="1405.66,-235.04 1405.45,-245.64 1412.22,-237.48 1405.66,-235.04"/>
</g>
<!-- Node8&#45;&gt;Node6 -->
<g id="edge9" class="edge">
<title>Node8&#45;&gt;Node6</title>
<path fill="none" stroke="#63b8ff" d="M1253.94,-230.88C1257.75,-220.65 1261.75,-209.88 1265.07,-200.98"/>
<polygon fill="#63b8ff" stroke="#63b8ff" points="1250.66,-229.65 1250.46,-240.24 1257.22,-232.09 1250.66,-229.65"/>
</g>
<!-- Node8&#45;&gt;Node7 -->
<g id="edge10" class="edge">
<title>Node8&#45;&gt;Node7</title>
<path fill="none" stroke="#63b8ff" d="M1306.65,-236.9C1328.54,-226.94 1352.67,-215.96 1373.7,-206.39"/>
<polygon fill="#63b8ff" stroke="#63b8ff" points="1305.47,-233.59 1297.82,-240.92 1308.37,-239.96 1305.47,-233.59"/>
</g>
<!-- Node9&#45;&gt;Node4 -->
<g id="edge12" class="edge">
<title>Node9&#45;&gt;Node4</title>
<path fill="none" stroke="#63b8ff" d="M1391.16,-318.55C1392.46,-308.42 1393.82,-297.79 1394.94,-288.98"/>
<polygon fill="#63b8ff" stroke="#63b8ff" points="1387.73,-317.8 1389.93,-328.16 1394.67,-318.69 1387.73,-317.8"/>
</g>
<!-- Node10 -->
<g id="node10" class="node">
<title>Node10</title>
<g id="a_node10"><a xlink:href="dyadic__operators_8cpp.html" target="_top" xlink:title=" ">
<polygon fill="white" stroke="#666666" points="1624,-294 1481,-294 1481,-242 1624,-242 1624,-294"/>
<text text-anchor="start" x="1489" y="-282" font-family="Helvetica,sans-Serif" font-size="10.00">/Users/nikolajbankejensen</text>
<text text-anchor="start" x="1489" y="-271" font-family="Helvetica,sans-Serif" font-size="10.00">/Desktop/Kepler/src/core</text>
<text text-anchor="start" x="1489" y="-260" font-family="Helvetica,sans-Serif" font-size="10.00">/evaluation/operations/dyadic</text>
<text text-anchor="middle" x="1552.5" y="-249" font-family="Helvetica,sans-Serif" font-size="10.00">_operators.cpp</text>
</a>
</g>
</g>
<!-- Node9&#45;&gt;Node10 -->
<g id="edge13" class="edge">
<title>Node9&#45;&gt;Node10</title>
<path fill="none" stroke="#63b8ff" d="M1445.43,-324.47C1464.39,-314.65 1485.19,-303.87 1503.37,-294.45"/>
<polygon fill="#63b8ff" stroke="#63b8ff" points="1444.02,-321.26 1436.75,-328.97 1447.24,-327.47 1444.02,-321.26"/>
</g>
<!-- Node11&#45;&gt;Node4 -->
<g id="edge15" class="edge">
<title>Node11&#45;&gt;Node4</title>
<path fill="none" stroke="#63b8ff" d="M1497,-324.21C1475.87,-312.49 1452.37,-299.44 1433.51,-288.98"/>
<polygon fill="#63b8ff" stroke="#63b8ff" points="1495.07,-327.14 1505.51,-328.93 1498.46,-321.02 1495.07,-327.14"/>
</g>
<!-- Node11&#45;&gt;Node10 -->
<g id="edge16" class="edge">
<title>Node11&#45;&gt;Node10</title>
<path fill="none" stroke="#63b8ff" d="M1552.5,-318.26C1552.5,-310.24 1552.5,-301.92 1552.5,-294.45"/>
<polygon fill="#63b8ff" stroke="#63b8ff" points="1549,-318.15 1552.5,-328.15 1556,-318.15 1549,-318.15"/>
</g>
<!-- Node12 -->
<g id="node12" class="node">
<title>Node12</title>
<g id="a_node12"><a xlink:href="monadic__operators_8cpp.html" target="_top" xlink:title=" ">
<polygon fill="white" stroke="#666666" points="1794.5,-294 1642.5,-294 1642.5,-242 1794.5,-242 1794.5,-294"/>
<text text-anchor="start" x="1650.5" y="-282" font-family="Helvetica,sans-Serif" font-size="10.00">/Users/nikolajbankejensen</text>
<text text-anchor="start" x="1650.5" y="-271" font-family="Helvetica,sans-Serif" font-size="10.00">/Desktop/Kepler/src/core</text>
<text text-anchor="start" x="1650.5" y="-260" font-family="Helvetica,sans-Serif" font-size="10.00">/evaluation/operations/monadic</text>
<text text-anchor="middle" x="1718.5" y="-249" font-family="Helvetica,sans-Serif" font-size="10.00">_operators.cpp</text>
</a>
</g>
</g>
<!-- Node11&#45;&gt;Node12 -->
<g id="edge17" class="edge">
<title>Node11&#45;&gt;Node12</title>
<path fill="none" stroke="#63b8ff" d="M1611.43,-324.47C1630.39,-314.65 1651.19,-303.87 1669.37,-294.45"/>
<polygon fill="#63b8ff" stroke="#63b8ff" points="1610.02,-321.26 1602.75,-328.97 1613.24,-327.47 1610.02,-321.26"/>
</g>
<!-- Node13&#45;&gt;Node5 -->
<g id="edge19" class="edge">
<title>Node13&#45;&gt;Node5</title>
<path fill="none" stroke="#63b8ff" d="M1129.01,-240.54C1140.8,-231.24 1152.01,-219.65 1158.5,-206 1168.43,-185.13 1174.08,-171.07 1158.5,-154 1128.86,-121.53 807.81,-125.56 764.5,-118 761.45,-117.47 758.35,-116.87 755.22,-116.23"/>
<polygon fill="#63b8ff" stroke="#63b8ff" points="1127.15,-237.56 1121.16,-246.3 1131.29,-243.2 1127.15,-237.56"/>
</g>
<!-- Node13&#45;&gt;Node6 -->
<g id="edge20" class="edge">
<title>Node13&#45;&gt;Node6</title>
<path fill="none" stroke="#63b8ff" d="M1137.65,-242.36C1166.47,-229.25 1201.46,-213.32 1228.58,-200.99"/>
<polygon fill="#63b8ff" stroke="#63b8ff" points="1136.37,-239.1 1128.71,-246.43 1139.26,-245.47 1136.37,-239.1"/>
</g>
<!-- Node14 -->
<g id="node14" class="node">
<title>Node14</title>
<g id="a_node14"><a xlink:href="parser_8cpp.html" target="_top" xlink:title=" ">
<polygon fill="white" stroke="#666666" points="1150,-200.5 1019,-200.5 1019,-159.5 1150,-159.5 1150,-200.5"/>
<text text-anchor="start" x="1027" y="-188.5" font-family="Helvetica,sans-Serif" font-size="10.00">/Users/nikolajbankejensen</text>
<text text-anchor="start" x="1027" y="-177.5" font-family="Helvetica,sans-Serif" font-size="10.00">/Desktop/Kepler/src/core</text>
<text text-anchor="middle" x="1084.5" y="-166.5" font-family="Helvetica,sans-Serif" font-size="10.00">/evaluation/parser.cpp</text>
</a>
</g>
</g>
<!-- Node13&#45;&gt;Node14 -->
<g id="edge21" class="edge">
<title>Node13&#45;&gt;Node14</title>
<path fill="none" stroke="#63b8ff" d="M1083.87,-235.56C1084,-223.95 1084.15,-211.13 1084.27,-200.84"/>
<polygon fill="#63b8ff" stroke="#63b8ff" points="1080.37,-235.5 1083.75,-245.54 1087.37,-235.58 1080.37,-235.5"/>
</g>
<!-- Node15 -->
<g id="node15" class="node">
<title>Node15</title>
<g id="a_node15"><a xlink:href="parser__fixture_8h.html" target="_top" xlink:title=" ">
<polygon fill="white" stroke="#666666" points="1000.5,-200.5 864.5,-200.5 864.5,-159.5 1000.5,-159.5 1000.5,-200.5"/>
<text text-anchor="start" x="872.5" y="-188.5" font-family="Helvetica,sans-Serif" font-size="10.00">/Users/nikolajbankejensen</text>
<text text-anchor="start" x="872.5" y="-177.5" font-family="Helvetica,sans-Serif" font-size="10.00">/Desktop/Kepler/src/testing</text>
<text text-anchor="middle" x="932.5" y="-166.5" font-family="Helvetica,sans-Serif" font-size="10.00">/fixtures/parser_fixture.h</text>
</a>
</g>
</g>
<!-- Node13&#45;&gt;Node15 -->
<g id="edge22" class="edge">
<title>Node13&#45;&gt;Node15</title>
<path fill="none" stroke="#63b8ff" d="M1038.72,-241.49C1015.99,-228.55 988.78,-213.05 967.59,-200.99"/>
<polygon fill="#63b8ff" stroke="#63b8ff" points="1036.74,-244.4 1047.16,-246.3 1040.21,-238.31 1036.74,-244.4"/>
</g>
<!-- Node16 -->
<g id="node16" class="node">
<title>Node16</title>
<g id="a_node16"><a xlink:href="test__parser_8cpp.html" target="_top" xlink:title=" ">
<polygon fill="white" stroke="#666666" points="1060.5,-41 924.5,-41 924.5,0 1060.5,0 1060.5,-41"/>
<text text-anchor="start" x="932.5" y="-29" font-family="Helvetica,sans-Serif" font-size="10.00">/Users/nikolajbankejensen</text>
<text text-anchor="start" x="932.5" y="-18" font-family="Helvetica,sans-Serif" font-size="10.00">/Desktop/Kepler/src/testing</text>
<text text-anchor="middle" x="992.5" y="-7" font-family="Helvetica,sans-Serif" font-size="10.00">/test_parser.cpp</text>
</a>
</g>
</g>
<!-- Node15&#45;&gt;Node16 -->
<g id="edge23" class="edge">
<title>Node15&#45;&gt;Node16</title>
<path fill="none" stroke="#63b8ff" d="M944.07,-148.63C956.13,-116.98 974.67,-68.3 984.96,-41.29"/>
<polygon fill="#63b8ff" stroke="#63b8ff" points="940.93,-147.05 940.64,-157.64 947.47,-149.54 940.93,-147.05"/>
</g>
<!-- Node17&#45;&gt;Node18 -->
<g id="edge25" class="edge">
<title>Node17&#45;&gt;Node18</title>
<path fill="none" stroke="#63b8ff" d="M912.96,-328.24C896.52,-315.51 877.21,-300.54 862.11,-288.84"/>
<polygon fill="#63b8ff" stroke="#63b8ff" points="910.51,-330.77 920.56,-334.13 914.8,-325.24 910.51,-330.77"/>
</g>
<!-- Node18&#45;&gt;Node2 -->
<g id="edge27" class="edge">
<title>Node18&#45;&gt;Node2</title>
<path fill="none" stroke="#63b8ff" d="M759.26,-258.48C712.23,-253.41 650.94,-247.01 596.5,-242 396.26,-223.58 342.92,-244.23 145.5,-206 138.5,-204.64 131.25,-202.89 124.1,-200.94"/>
<polygon fill="#63b8ff" stroke="#63b8ff" points="758.76,-261.94 769.08,-259.54 759.51,-254.98 758.76,-261.94"/>
</g>
<!-- Node18&#45;&gt;Node5 -->
<g id="edge28" class="edge">
<title>Node18&#45;&gt;Node5</title>
<path fill="none" stroke="#63b8ff" d="M838.56,-235.91C838.57,-211.23 834.72,-177.14 816.5,-154 807.35,-142.37 777.67,-129.11 749.31,-118.46"/>
<polygon fill="#63b8ff" stroke="#63b8ff" points="835.07,-235.59 838.34,-245.67 842.07,-235.75 835.07,-235.59"/>
</g>
<!-- Node18&#45;&gt;Node6 -->
<g id="edge39" class="edge">
<title>Node18&#45;&gt;Node6</title>
<path fill="none" stroke="#63b8ff" d="M913.3,-253.09C978.62,-241.11 1074.84,-223.09 1158.5,-206 1174.08,-202.82 1190.83,-199.23 1206.56,-195.8"/>
<polygon fill="#63b8ff" stroke="#63b8ff" points="912.98,-249.59 903.78,-254.83 914.24,-256.48 912.98,-249.59"/>
</g>
<!-- Node18&#45;&gt;Node7 -->
<g id="edge40" class="edge">
<title>Node18&#45;&gt;Node7</title>
<path fill="none" stroke="#63b8ff" d="M913.31,-255.19C943.01,-250.8 977.31,-245.93 1008.5,-242 1158.39,-223.13 1198.42,-235.91 1346.5,-206 1349.75,-205.34 1353.05,-204.62 1356.37,-203.83"/>
<polygon fill="#63b8ff" stroke="#63b8ff" points="913.04,-251.7 903.67,-256.63 914.07,-258.62 913.04,-251.7"/>
</g>
<!-- Node18&#45;&gt;Node14 -->
<g id="edge42" class="edge">
<title>Node18&#45;&gt;Node14</title>
<path fill="none" stroke="#63b8ff" d="M904.58,-243.39C942.95,-230.09 990.35,-213.65 1026.86,-200.99"/>
<polygon fill="#63b8ff" stroke="#63b8ff" points="903.75,-239.97 895.45,-246.56 906.04,-246.59 903.75,-239.97"/>
</g>
<!-- Node18&#45;&gt;Node15 -->
<g id="edge45" class="edge">
<title>Node18&#45;&gt;Node15</title>
<path fill="none" stroke="#63b8ff" d="M867.16,-239.53C881.2,-226.95 897.53,-212.32 910.36,-200.84"/>
<polygon fill="#63b8ff" stroke="#63b8ff" points="865.01,-236.76 859.89,-246.04 869.68,-241.98 865.01,-236.76"/>
</g>
<!-- Node19 -->
<g id="node19" class="node">
<title>Node19</title>
<g id="a_node19"><a xlink:href="array_8cpp.html" target="_top" xlink:title=" ">
<polygon fill="white" stroke="#666666" points="468,-200.5 337,-200.5 337,-159.5 468,-159.5 468,-200.5"/>
<text text-anchor="start" x="345" y="-188.5" font-family="Helvetica,sans-Serif" font-size="10.00">/Users/nikolajbankejensen</text>
<text text-anchor="start" x="345" y="-177.5" font-family="Helvetica,sans-Serif" font-size="10.00">/Desktop/Kepler/src/core</text>
<text text-anchor="middle" x="402.5" y="-166.5" font-family="Helvetica,sans-Serif" font-size="10.00">/array.cpp</text>
</a>
</g>
</g>
<!-- Node18&#45;&gt;Node19 -->
<g id="edge26" class="edge">
<title>Node18&#45;&gt;Node19</title>
<path fill="none" stroke="#63b8ff" d="M759.84,-257.59C686.46,-247.74 572.97,-230.31 476.5,-206 470.58,-204.51 464.46,-202.77 458.38,-200.92"/>
<polygon fill="#63b8ff" stroke="#63b8ff" points="758.95,-261 769.32,-258.84 759.87,-254.06 758.95,-261"/>
</g>
<!-- Node20 -->
<g id="node20" class="node">
<title>Node20</title>
<g id="a_node20"><a xlink:href="execution_8h.html" target="_top" xlink:title=" ">
<polygon fill="white" stroke="#666666" points="319,-200.5 188,-200.5 188,-159.5 319,-159.5 319,-200.5"/>
<text text-anchor="start" x="196" y="-188.5" font-family="Helvetica,sans-Serif" font-size="10.00">/Users/nikolajbankejensen</text>
<text text-anchor="start" x="196" y="-177.5" font-family="Helvetica,sans-Serif" font-size="10.00">/Desktop/Kepler/src/core</text>
<text text-anchor="middle" x="253.5" y="-166.5" font-family="Helvetica,sans-Serif" font-size="10.00">/evaluation/execution.h</text>
</a>
</g>
</g>
<!-- Node18&#45;&gt;Node20 -->
<g id="edge29" class="edge">
<title>Node18&#45;&gt;Node20</title>
<path fill="none" stroke="#63b8ff" d="M759.58,-258.67C627.71,-244.25 368.62,-215.3 327.5,-206 321.28,-204.59 314.86,-202.86 308.5,-200.97"/>
<polygon fill="#63b8ff" stroke="#63b8ff" points="758.96,-262.12 769.28,-259.73 759.72,-255.16 758.96,-262.12"/>
</g>
<!-- Node24 -->
<g id="node24" class="node">
<title>Node24</title>
<g id="a_node24"><a xlink:href="general__fixture_8h.html" target="_top" xlink:title=" ">
<polygon fill="white" stroke="#666666" points="441.5,-118 305.5,-118 305.5,-77 441.5,-77 441.5,-118"/>
<text text-anchor="start" x="313.5" y="-106" font-family="Helvetica,sans-Serif" font-size="10.00">/Users/nikolajbankejensen</text>
<text text-anchor="start" x="313.5" y="-95" font-family="Helvetica,sans-Serif" font-size="10.00">/Desktop/Kepler/src/testing</text>
<text text-anchor="middle" x="373.5" y="-84" font-family="Helvetica,sans-Serif" font-size="10.00">/fixtures/general_fixture.h</text>
</a>
</g>
</g>
<!-- Node18&#45;&gt;Node24 -->
<g id="edge44" class="edge">
<title>Node18&#45;&gt;Node24</title>
<path fill="none" stroke="#63b8ff" d="M759.24,-258.6C712.22,-253.57 650.92,-247.18 596.5,-242 550.09,-237.58 210.02,-240.35 178.5,-206 162.87,-188.97 164.57,-172.44 178.5,-154 182.53,-148.66 250.52,-130.1 305.1,-115.89"/>
<polygon fill="#63b8ff" stroke="#63b8ff" points="758.75,-262.07 769.07,-259.65 759.5,-255.11 758.75,-262.07"/>
</g>
<!-- Node28 -->
<g id="node28" class="node">
<title>Node28</title>
<g id="a_node28"><a xlink:href="functions_8cpp.html" target="_top" xlink:title=" ">
<polygon fill="white" stroke="#666666" points="659,-200.5 486,-200.5 486,-159.5 659,-159.5 659,-200.5"/>
<text text-anchor="start" x="494" y="-188.5" font-family="Helvetica,sans-Serif" font-size="10.00">/Users/nikolajbankejensen</text>
<text text-anchor="start" x="494" y="-177.5" font-family="Helvetica,sans-Serif" font-size="10.00">/Desktop/Kepler/src/core</text>
<text text-anchor="middle" x="572.5" y="-166.5" font-family="Helvetica,sans-Serif" font-size="10.00">/evaluation/operations/functions.cpp</text>
</a>
</g>
</g>
<!-- Node18&#45;&gt;Node28 -->
<g id="edge41" class="edge">
<title>Node18&#45;&gt;Node28</title>
<path fill="none" stroke="#63b8ff" d="M764.55,-243.56C723.61,-230.23 672.89,-213.7 633.86,-200.99"/>
<polygon fill="#63b8ff" stroke="#63b8ff" points="763.24,-246.82 773.83,-246.58 765.41,-240.16 763.24,-246.82"/>
</g>
<!-- Node29 -->
<g id="node29" class="node">
<title>Node29</title>
<g id="a_node29"><a xlink:href="symbol__table_8cpp.html" target="_top" xlink:title=" ">
<polygon fill="white" stroke="#666666" points="808,-200.5 677,-200.5 677,-159.5 808,-159.5 808,-200.5"/>
<text text-anchor="start" x="685" y="-188.5" font-family="Helvetica,sans-Serif" font-size="10.00">/Users/nikolajbankejensen</text>
<text text-anchor="start" x="685" y="-177.5" font-family="Helvetica,sans-Serif" font-size="10.00">/Desktop/Kepler/src/core</text>
<text text-anchor="middle" x="742.5" y="-166.5" font-family="Helvetica,sans-Serif" font-size="10.00">/symbol_table.cpp</text>
</a>
</g>
</g>
<!-- Node18&#45;&gt;Node29 -->
<g id="edge43" class="edge">
<title>Node18&#45;&gt;Node29</title>
<path fill="none" stroke="#63b8ff" d="M806.48,-239.53C792.73,-226.95 776.74,-212.32 764.18,-200.84"/>
<polygon fill="#63b8ff" stroke="#63b8ff" points="803.84,-241.86 813.58,-246.03 808.57,-236.7 803.84,-241.86"/>
</g>
<!-- Node20&#45;&gt;Node5 -->
<g id="edge30" class="edge">
<title>Node20&#45;&gt;Node5</title>
<path fill="none" stroke="#63b8ff" d="M319.55,-155.96C322.22,-155.26 324.88,-154.6 327.5,-154 452.81,-125.28 488.25,-142.23 614.5,-118 617.54,-117.42 620.64,-116.78 623.76,-116.11"/>
<polygon fill="#63b8ff" stroke="#63b8ff" points="318.65,-152.58 309.97,-158.66 320.54,-159.32 318.65,-152.58"/>
</g>
<!-- Node21 -->
<g id="node21" class="node">
<title>Node21</title>
<g id="a_node21"><a xlink:href="main_8cpp.html" target="_top" xlink:title=" ">
<polygon fill="white" stroke="#666666" points="605.5,-112.5 459.5,-112.5 459.5,-82.5 605.5,-82.5 605.5,-112.5"/>
<text text-anchor="start" x="467.5" y="-100.5" font-family="Helvetica,sans-Serif" font-size="10.00">/Users/nikolajbankejensen</text>
<text text-anchor="middle" x="532.5" y="-89.5" font-family="Helvetica,sans-Serif" font-size="10.00">/Desktop/Kepler/src/main.cpp</text>
</a>
</g>
</g>
<!-- Node20&#45;&gt;Node21 -->
<g id="edge31" class="edge">
<title>Node20&#45;&gt;Node21</title>
<path fill="none" stroke="#63b8ff" d="M322.09,-155.67C323.91,-155.1 325.72,-154.54 327.5,-154 377.07,-138.93 433.97,-123.69 475.23,-113"/>
<polygon fill="#63b8ff" stroke="#63b8ff" points="321.47,-152.19 313,-158.55 323.59,-158.86 321.47,-152.19"/>
</g>
<!-- Node22 -->
<g id="node22" class="node">
<title>Node22</title>
<g id="a_node22"><a xlink:href="file__fixture_8h.html" target="_top" xlink:title=" ">
<polygon fill="white" stroke="#666666" points="287.5,-118 151.5,-118 151.5,-77 287.5,-77 287.5,-118"/>
<text text-anchor="start" x="159.5" y="-106" font-family="Helvetica,sans-Serif" font-size="10.00">/Users/nikolajbankejensen</text>
<text text-anchor="start" x="159.5" y="-95" font-family="Helvetica,sans-Serif" font-size="10.00">/Desktop/Kepler/src/testing</text>
<text text-anchor="middle" x="219.5" y="-84" font-family="Helvetica,sans-Serif" font-size="10.00">/fixtures/file_fixture.h</text>
</a>
</g>
</g>
<!-- Node20&#45;&gt;Node22 -->
<g id="edge32" class="edge">
<title>Node20&#45;&gt;Node22</title>
<path fill="none" stroke="#63b8ff" d="M240.67,-148.62C236.41,-138.53 231.77,-127.55 227.93,-118.45"/>
<polygon fill="#63b8ff" stroke="#63b8ff" points="237.39,-149.86 244.51,-157.71 243.84,-147.13 237.39,-149.86"/>
</g>
<!-- Node20&#45;&gt;Node24 -->
<g id="edge34" class="edge">
<title>Node20&#45;&gt;Node24</title>
<path fill="none" stroke="#63b8ff" d="M292.62,-152.75C309.25,-141.6 328.32,-128.81 343.76,-118.45"/>
<polygon fill="#63b8ff" stroke="#63b8ff" points="290.77,-149.78 284.42,-158.26 294.67,-155.59 290.77,-149.78"/>
</g>
<!-- Node23 -->
<g id="node23" class="node">
<title>Node23</title>
<g id="a_node23"><a xlink:href="test__examples_8cpp.html" target="_top" xlink:title=" ">
<polygon fill="white" stroke="#666666" points="290.5,-41 154.5,-41 154.5,0 290.5,0 290.5,-41"/>
<text text-anchor="start" x="162.5" y="-29" font-family="Helvetica,sans-Serif" font-size="10.00">/Users/nikolajbankejensen</text>
<text text-anchor="start" x="162.5" y="-18" font-family="Helvetica,sans-Serif" font-size="10.00">/Desktop/Kepler/src/testing</text>
<text text-anchor="middle" x="222.5" y="-7" font-family="Helvetica,sans-Serif" font-size="10.00">/test_examples.cpp</text>
</a>
</g>
</g>
<!-- Node22&#45;&gt;Node23 -->
<g id="edge33" class="edge">
<title>Node22&#45;&gt;Node23</title>
<path fill="none" stroke="#63b8ff" d="M220.75,-65.36C221.07,-57.24 221.41,-48.7 221.71,-41.33"/>
<polygon fill="#63b8ff" stroke="#63b8ff" points="217.25,-65.15 220.35,-75.28 224.25,-65.43 217.25,-65.15"/>
</g>
<!-- Node24&#45;&gt;Node23 -->
<g id="edge36" class="edge">
<title>Node24&#45;&gt;Node23</title>
<path fill="none" stroke="#63b8ff" d="M323.13,-71.48C303.49,-61.73 281.3,-50.7 262.76,-41.49"/>
<polygon fill="#63b8ff" stroke="#63b8ff" points="321.56,-74.61 332.08,-75.92 324.68,-68.34 321.56,-74.61"/>
</g>
<!-- Node25 -->
<g id="node25" class="node">
<title>Node25</title>
<g id="a_node25"><a xlink:href="test__datatypes_8cpp.html" target="_top" xlink:title=" ">
<polygon fill="white" stroke="#666666" points="752.5,-41 616.5,-41 616.5,0 752.5,0 752.5,-41"/>
<text text-anchor="start" x="624.5" y="-29" font-family="Helvetica,sans-Serif" font-size="10.00">/Users/nikolajbankejensen</text>
<text text-anchor="start" x="624.5" y="-18" font-family="Helvetica,sans-Serif" font-size="10.00">/Desktop/Kepler/src/testing</text>
<text text-anchor="middle" x="684.5" y="-7" font-family="Helvetica,sans-Serif" font-size="10.00">/test_datatypes.cpp</text>
</a>
</g>
</g>
<!-- Node24&#45;&gt;Node25 -->
<g id="edge35" class="edge">
<title>Node24&#45;&gt;Node25</title>
<path fill="none" stroke="#63b8ff" d="M452.95,-76.44C521.96,-59.94 541.31,-56.97 607.5,-41 610.32,-40.32 613.19,-39.62 616.09,-38.91"/>
<polygon fill="#63b8ff" stroke="#63b8ff" points="452.29,-73 443.39,-78.74 453.93,-79.8 452.29,-73"/>
</g>
<!-- Node26 -->
<g id="node26" class="node">
<title>Node26</title>
<g id="a_node26"><a xlink:href="test__functions_8cpp.html" target="_top" xlink:title=" ">
<polygon fill="white" stroke="#666666" points="444.5,-41 308.5,-41 308.5,0 444.5,0 444.5,-41"/>
<text text-anchor="start" x="316.5" y="-29" font-family="Helvetica,sans-Serif" font-size="10.00">/Users/nikolajbankejensen</text>
<text text-anchor="start" x="316.5" y="-18" font-family="Helvetica,sans-Serif" font-size="10.00">/Desktop/Kepler/src/testing</text>
<text text-anchor="middle" x="376.5" y="-7" font-family="Helvetica,sans-Serif" font-size="10.00">/test_functions.cpp</text>
</a>
</g>
</g>
<!-- Node24&#45;&gt;Node26 -->
<g id="edge37" class="edge">
<title>Node24&#45;&gt;Node26</title>
<path fill="none" stroke="#63b8ff" d="M374.75,-65.36C375.07,-57.24 375.41,-48.7 375.71,-41.33"/>
<polygon fill="#63b8ff" stroke="#63b8ff" points="371.25,-65.15 374.35,-75.28 378.25,-65.43 371.25,-65.15"/>
</g>
<!-- Node27 -->
<g id="node27" class="node">
<title>Node27</title>
<g id="a_node27"><a xlink:href="test__operators_8cpp.html" target="_top" xlink:title=" ">
<polygon fill="white" stroke="#666666" points="598.5,-41 462.5,-41 462.5,0 598.5,0 598.5,-41"/>
<text text-anchor="start" x="470.5" y="-29" font-family="Helvetica,sans-Serif" font-size="10.00">/Users/nikolajbankejensen</text>
<text text-anchor="start" x="470.5" y="-18" font-family="Helvetica,sans-Serif" font-size="10.00">/Desktop/Kepler/src/testing</text>
<text text-anchor="middle" x="530.5" y="-7" font-family="Helvetica,sans-Serif" font-size="10.00">/test_operators.cpp</text>
</a>
</g>
</g>
<!-- Node24&#45;&gt;Node27 -->
<g id="edge38" class="edge">
<title>Node24&#45;&gt;Node27</title>
<path fill="none" stroke="#63b8ff" d="M425.31,-71.75C445.86,-61.93 469.19,-50.79 488.64,-41.49"/>
<polygon fill="#63b8ff" stroke="#63b8ff" points="424.04,-68.48 416.53,-75.95 427.06,-74.79 424.04,-68.48"/>
</g>
<!-- Node30&#45;&gt;Node16 -->
<g id="edge53" class="edge">
<title>Node30&#45;&gt;Node16</title>
<path fill="none" stroke="#63b8ff" d="M891.87,-71.48C911.51,-61.73 933.7,-50.7 952.24,-41.49"/>
<polygon fill="#63b8ff" stroke="#63b8ff" points="890.32,-68.34 882.92,-75.92 893.44,-74.61 890.32,-68.34"/>
</g>
<!-- Node30&#45;&gt;Node23 -->
<g id="edge49" class="edge">
<title>Node30&#45;&gt;Node23</title>
<path fill="none" stroke="#63b8ff" d="M762.02,-76.94C557.33,-44.86 500.02,-73.92 299.5,-41 296.64,-40.53 293.74,-40.01 290.81,-39.44"/>
<polygon fill="#63b8ff" stroke="#63b8ff" points="761.23,-80.36 771.66,-78.49 762.34,-73.45 761.23,-80.36"/>
</g>
<!-- Node30&#45;&gt;Node25 -->
<g id="edge48" class="edge">
<title>Node30&#45;&gt;Node25</title>
<path fill="none" stroke="#63b8ff" d="M789.69,-71.75C769.14,-61.93 745.81,-50.79 726.36,-41.49"/>
<polygon fill="#63b8ff" stroke="#63b8ff" points="787.94,-74.79 798.47,-75.95 790.96,-68.48 787.94,-74.79"/>
</g>
<!-- Node30&#45;&gt;Node26 -->
<g id="edge50" class="edge">
<title>Node30&#45;&gt;Node26</title>
<path fill="none" stroke="#63b8ff" d="M761.79,-76.84C625.02,-52.84 586.32,-65.42 453.5,-41 450.65,-40.48 447.75,-39.91 444.83,-39.3"/>
<polygon fill="#63b8ff" stroke="#63b8ff" points="761.17,-80.29 771.64,-78.61 762.41,-73.4 761.17,-80.29"/>
</g>
<!-- Node30&#45;&gt;Node27 -->
<g id="edge52" class="edge">
<title>Node30&#45;&gt;Node27</title>
<path fill="none" stroke="#63b8ff" d="M761.93,-76.65C692.47,-60.08 673.28,-56.92 607.5,-41 604.69,-40.32 601.81,-39.62 598.92,-38.91"/>
<polygon fill="#63b8ff" stroke="#63b8ff" points="761.02,-80.03 771.56,-78.96 762.65,-73.22 761.02,-80.03"/>
</g>
<!-- Node31 -->
<g id="node31" class="node">
<title>Node31</title>
<g id="a_node31"><a xlink:href="test__lexer_8cpp.html" target="_top" xlink:title=" ">
<polygon fill="white" stroke="#666666" points="906.5,-41 770.5,-41 770.5,0 906.5,0 906.5,-41"/>
<text text-anchor="start" x="778.5" y="-29" font-family="Helvetica,sans-Serif" font-size="10.00">/Users/nikolajbankejensen</text>
<text text-anchor="start" x="778.5" y="-18" font-family="Helvetica,sans-Serif" font-size="10.00">/Desktop/Kepler/src/testing</text>
<text text-anchor="middle" x="838.5" y="-7" font-family="Helvetica,sans-Serif" font-size="10.00">/test_lexer.cpp</text>
</a>
</g>
</g>
<!-- Node30&#45;&gt;Node31 -->
<g id="edge51" class="edge">
<title>Node30&#45;&gt;Node31</title>
<path fill="none" stroke="#63b8ff" d="M840.25,-65.36C839.93,-57.24 839.59,-48.7 839.29,-41.33"/>
<polygon fill="#63b8ff" stroke="#63b8ff" points="836.75,-65.43 840.65,-75.28 843.75,-65.15 836.75,-65.43"/>
</g>
</g>
</svg>
