<?xml version="1.0" encoding="UTF-8" standalone="no"?>
<!DOCTYPE svg PUBLIC "-//W3C//DTD SVG 1.1//EN"
 "http://www.w3.org/Graphics/SVG/1.1/DTD/svg11.dtd">
<!-- Generated by graphviz version 7.1.0 (20230121.1956)
 -->
<!-- Title: src/core/evaluation/ast.h Pages: 1 -->
<svg width="736pt" height="324pt"
 viewBox="0.00 0.00 736.00 324.00" xmlns="http://www.w3.org/2000/svg" xmlns:xlink="http://www.w3.org/1999/xlink">
<g id="graph0" class="graph" transform="scale(1 1) rotate(0) translate(4 320)">
<title>src/core/evaluation/ast.h</title>
<!-- Node1 -->
<g id="node1" class="node">
<title>Node1</title>
<g id="a_node1"><a xlink:title=" ">
<polygon fill="#999999" stroke="#666666" points="276.5,-316 177.5,-316 177.5,-286 276.5,-286 276.5,-316"/>
<text text-anchor="start" x="185.5" y="-304" font-family="Helvetica,sans-Serif" font-size="10.00">src/core/evaluation</text>
<text text-anchor="middle" x="227" y="-293" font-family="Helvetica,sans-Serif" font-size="10.00">/ast.h</text>
</a>
</g>
</g>
<!-- Node2 -->
<g id="node2" class="node">
<title>Node2</title>
<g id="a_node2"><a xlink:title=" ">
<polygon fill="#e0e0e0" stroke="#999999" points="188.5,-19 147.5,-19 147.5,0 188.5,0 188.5,-19"/>
<text text-anchor="middle" x="168" y="-7" font-family="Helvetica,sans-Serif" font-size="10.00">string</text>
</a>
</g>
</g>
<!-- Node1&#45;&gt;Node2 -->
<g id="edge1" class="edge">
<title>Node1&#45;&gt;Node2</title>
<path fill="none" stroke="#63b8ff" d="M177.18,-294.74C110.36,-284.61 0,-255.73 0,-175.5 0,-175.5 0,-175.5 0,-118.5 0,-79.37 28.7,-77.09 61,-55 84.19,-39.14 113.92,-27.34 136.16,-19.89"/>
<polygon fill="#63b8ff" stroke="#63b8ff" points="137.14,-23.25 145.59,-16.86 135,-16.59 137.14,-23.25"/>
</g>
<!-- Node3 -->
<g id="node3" class="node">
<title>Node3</title>
<g id="a_node3"><a xlink:title=" ">
<polygon fill="#e0e0e0" stroke="#999999" points="617,-19 563,-19 563,0 617,0 617,-19"/>
<text text-anchor="middle" x="590" y="-7" font-family="Helvetica,sans-Serif" font-size="10.00">iostream</text>
</a>
</g>
</g>
<!-- Node1&#45;&gt;Node3 -->
<g id="edge2" class="edge">
<title>Node1&#45;&gt;Node3</title>
<path fill="none" stroke="#63b8ff" d="M276.87,-298.17C403.59,-292.18 728,-267.81 728,-175.5 728,-175.5 728,-175.5 728,-118.5 728,-67.5 668.83,-36.98 627.98,-21.99"/>
<polygon fill="#63b8ff" stroke="#63b8ff" points="629.29,-18.74 618.69,-18.75 626.98,-25.35 629.29,-18.74"/>
</g>
<!-- Node4 -->
<g id="node4" class="node">
<title>Node4</title>
<g id="a_node4"><a xlink:href="array_8h.html" target="_top" xlink:title=" ">
<polygon fill="white" stroke="#666666" points="133.5,-129 66.5,-129 66.5,-110 133.5,-110 133.5,-129"/>
<text text-anchor="middle" x="100" y="-117" font-family="Helvetica,sans-Serif" font-size="10.00">core/array.h</text>
</a>
</g>
</g>
<!-- Node1&#45;&gt;Node4 -->
<g id="edge3" class="edge">
<title>Node1&#45;&gt;Node4</title>
<path fill="none" stroke="#63b8ff" d="M177.05,-292.62C151.1,-286.02 121.46,-273.54 105,-250 82.08,-217.22 88.58,-167.52 94.69,-140.2"/>
<polygon fill="#63b8ff" stroke="#63b8ff" points="98.01,-141.39 97.01,-130.84 91.21,-139.71 98.01,-141.39"/>
</g>
<!-- Node5 -->
<g id="node5" class="node">
<title>Node5</title>
<g id="a_node5"><a xlink:href="datatypes_8h.html" target="_top" xlink:title=" ">
<polygon fill="white" stroke="#666666" points="202,-74 134,-74 134,-55 202,-55 202,-74"/>
<text text-anchor="middle" x="168" y="-62" font-family="Helvetica,sans-Serif" font-size="10.00">datatypes.h</text>
</a>
</g>
</g>
<!-- Node1&#45;&gt;Node5 -->
<g id="edge22" class="edge">
<title>Node1&#45;&gt;Node5</title>
<path fill="none" stroke="#63b8ff" d="M177.21,-293.64C147.68,-287.34 111.7,-274.82 89,-250 51.46,-208.95 64.17,-184.16 57,-129 55.91,-120.63 52.27,-116.99 57,-110 64.97,-98.21 96.25,-86.29 123.57,-77.75"/>
<polygon fill="#63b8ff" stroke="#63b8ff" points="124.57,-81.11 133.13,-74.86 122.54,-74.41 124.57,-81.11"/>
</g>
<!-- Node9 -->
<g id="node9" class="node">
<title>Node9</title>
<g id="a_node9"><a xlink:href="token_8h.html" target="_top" xlink:title=" ">
<polygon fill="white" stroke="#666666" points="298.5,-184 227.5,-184 227.5,-165 298.5,-165 298.5,-184"/>
<text text-anchor="middle" x="263" y="-172" font-family="Helvetica,sans-Serif" font-size="10.00">core/token.h</text>
</a>
</g>
</g>
<!-- Node1&#45;&gt;Node9 -->
<g id="edge9" class="edge">
<title>Node1&#45;&gt;Node9</title>
<path fill="none" stroke="#63b8ff" d="M236.98,-285.84C243.24,-276.2 250.89,-262.89 255,-250 260.68,-232.18 262.51,-210.89 263.01,-195.63"/>
<polygon fill="#63b8ff" stroke="#63b8ff" points="266.51,-196.02 263.16,-185.97 259.51,-195.91 266.51,-196.02"/>
</g>
<!-- Node15 -->
<g id="node15" class="node">
<title>Node15</title>
<g id="a_node15"><a xlink:href="position_8h.html" target="_top" xlink:title=" ">
<polygon fill="white" stroke="#666666" points="699.5,-129 640.5,-129 640.5,-110 699.5,-110 699.5,-129"/>
<text text-anchor="middle" x="670" y="-117" font-family="Helvetica,sans-Serif" font-size="10.00">position.h</text>
</a>
</g>
</g>
<!-- Node1&#45;&gt;Node15 -->
<g id="edge29" class="edge">
<title>Node1&#45;&gt;Node15</title>
<path fill="none" stroke="#63b8ff" d="M262.5,-285.61C346.43,-251.61 556.09,-166.65 637.22,-133.78"/>
<polygon fill="#63b8ff" stroke="#63b8ff" points="638.43,-137.07 646.39,-130.07 635.8,-130.58 638.43,-137.07"/>
</g>
<!-- Node16 -->
<g id="node16" class="node">
<title>Node16</title>
<g id="a_node16"><a xlink:title=" ">
<polygon fill="#e0e0e0" stroke="#999999" points="369,-184 317,-184 317,-165 369,-165 369,-184"/>
<text text-anchor="middle" x="343" y="-172" font-family="Helvetica,sans-Serif" font-size="10.00">memory</text>
</a>
</g>
</g>
<!-- Node1&#45;&gt;Node16 -->
<g id="edge23" class="edge">
<title>Node1&#45;&gt;Node16</title>
<path fill="none" stroke="#63b8ff" d="M240.31,-285.72C261.73,-262.72 303.8,-217.57 326.89,-192.79"/>
<polygon fill="#63b8ff" stroke="#63b8ff" points="329.44,-195.19 333.69,-185.49 324.32,-190.42 329.44,-195.19"/>
</g>
<!-- Node17 -->
<g id="node17" class="node">
<title>Node17</title>
<g id="a_node17"><a xlink:href="operation_8h.html" target="_top" xlink:title=" ">
<polygon fill="white" stroke="#666666" points="245.5,-250 114.5,-250 114.5,-220 245.5,-220 245.5,-250"/>
<text text-anchor="start" x="122.5" y="-238" font-family="Helvetica,sans-Serif" font-size="10.00">core/evaluation/operations</text>
<text text-anchor="middle" x="180" y="-227" font-family="Helvetica,sans-Serif" font-size="10.00">/operation.h</text>
</a>
</g>
</g>
<!-- Node1&#45;&gt;Node17 -->
<g id="edge24" class="edge">
<title>Node1&#45;&gt;Node17</title>
<path fill="none" stroke="#63b8ff" d="M216.57,-285.8C210.85,-278.01 203.61,-268.16 197.09,-259.28"/>
<polygon fill="#63b8ff" stroke="#63b8ff" points="200.04,-257.37 191.3,-251.38 194.4,-261.52 200.04,-257.37"/>
</g>
<!-- Node4&#45;&gt;Node5 -->
<g id="edge4" class="edge">
<title>Node4&#45;&gt;Node5</title>
<path fill="none" stroke="#63b8ff" d="M111.54,-109.51C121.46,-101.77 136.01,-90.43 147.86,-81.2"/>
<polygon fill="#63b8ff" stroke="#63b8ff" points="149.71,-84.2 155.44,-75.29 145.4,-78.68 149.71,-84.2"/>
</g>
<!-- Node8 -->
<g id="node8" class="node">
<title>Node8</title>
<g id="a_node8"><a xlink:title=" ">
<polygon fill="#e0e0e0" stroke="#999999" points="116,-74 70,-74 70,-55 116,-55 116,-74"/>
<text text-anchor="middle" x="93" y="-62" font-family="Helvetica,sans-Serif" font-size="10.00">variant</text>
</a>
</g>
</g>
<!-- Node4&#45;&gt;Node8 -->
<g id="edge8" class="edge">
<title>Node4&#45;&gt;Node8</title>
<path fill="none" stroke="#63b8ff" d="M98.84,-109.75C97.98,-103.19 96.76,-93.95 95.66,-85.6"/>
<polygon fill="#63b8ff" stroke="#63b8ff" points="99.16,-85.4 94.38,-75.94 92.22,-86.31 99.16,-85.4"/>
</g>
<!-- Node5&#45;&gt;Node2 -->
<g id="edge6" class="edge">
<title>Node5&#45;&gt;Node2</title>
<path fill="none" stroke="#63b8ff" d="M168,-54.75C168,-48.27 168,-39.16 168,-30.9"/>
<polygon fill="#63b8ff" stroke="#63b8ff" points="171.5,-30.96 168,-20.96 164.5,-30.96 171.5,-30.96"/>
</g>
<!-- Node6 -->
<g id="node6" class="node">
<title>Node6</title>
<g id="a_node6"><a xlink:title=" ">
<polygon fill="#e0e0e0" stroke="#999999" points="129,-19 85,-19 85,0 129,0 129,-19"/>
<text text-anchor="middle" x="107" y="-7" font-family="Helvetica,sans-Serif" font-size="10.00">vector</text>
</a>
</g>
</g>
<!-- Node5&#45;&gt;Node6 -->
<g id="edge5" class="edge">
<title>Node5&#45;&gt;Node6</title>
<path fill="none" stroke="#63b8ff" d="M157.65,-54.51C148.92,-46.93 136.21,-35.88 125.7,-26.75"/>
<polygon fill="#63b8ff" stroke="#63b8ff" points="128.18,-24.27 118.34,-20.35 123.59,-29.55 128.18,-24.27"/>
</g>
<!-- Node7 -->
<g id="node7" class="node">
<title>Node7</title>
<g id="a_node7"><a xlink:title=" ">
<polygon fill="#e0e0e0" stroke="#999999" points="259.5,-19 206.5,-19 206.5,0 259.5,0 259.5,-19"/>
<text text-anchor="middle" x="233" y="-7" font-family="Helvetica,sans-Serif" font-size="10.00">complex</text>
</a>
</g>
</g>
<!-- Node5&#45;&gt;Node7 -->
<g id="edge7" class="edge">
<title>Node5&#45;&gt;Node7</title>
<path fill="none" stroke="#63b8ff" d="M179.03,-54.51C188.42,-46.85 202.15,-35.66 213.41,-26.47"/>
<polygon fill="#63b8ff" stroke="#63b8ff" points="215.43,-29.35 220.96,-20.31 211,-23.92 215.43,-29.35"/>
</g>
<!-- Node9&#45;&gt;Node4 -->
<g id="edge14" class="edge">
<title>Node9&#45;&gt;Node4</title>
<path fill="none" stroke="#63b8ff" d="M235.35,-164.51C208.69,-155.84 168.12,-142.65 138.34,-132.97"/>
<polygon fill="#63b8ff" stroke="#63b8ff" points="139.55,-129.68 128.95,-129.91 137.38,-136.33 139.55,-129.68"/>
</g>
<!-- Node9&#45;&gt;Node5 -->
<g id="edge12" class="edge">
<title>Node9&#45;&gt;Node5</title>
<path fill="none" stroke="#63b8ff" d="M253.62,-164.56C244.51,-155.76 230.42,-141.81 219,-129 205.65,-114.03 191.44,-96.15 181.42,-83.19"/>
<polygon fill="#63b8ff" stroke="#63b8ff" points="184.43,-81.37 175.57,-75.56 178.88,-85.63 184.43,-81.37"/>
</g>
<!-- Node10 -->
<g id="node10" class="node">
<title>Node10</title>
<g id="a_node10"><a xlink:href="token__type_8h.html" target="_top" xlink:title=" ">
<polygon fill="white" stroke="#666666" points="488.5,-74 415.5,-74 415.5,-55 488.5,-55 488.5,-74"/>
<text text-anchor="middle" x="452" y="-62" font-family="Helvetica,sans-Serif" font-size="10.00">token_type.h</text>
</a>
</g>
</g>
<!-- Node9&#45;&gt;Node10 -->
<g id="edge10" class="edge">
<title>Node9&#45;&gt;Node10</title>
<path fill="none" stroke="#63b8ff" d="M298.8,-166.08C345.74,-156.06 423.29,-138.38 433,-129 444.66,-117.74 449.24,-99.64 451,-85.64"/>
<polygon fill="#63b8ff" stroke="#63b8ff" points="454.48,-86.02 451.83,-75.76 447.51,-85.44 454.48,-86.02"/>
</g>
<!-- Node11 -->
<g id="node11" class="node">
<title>Node11</title>
<g id="a_node11"><a xlink:title=" ">
<polygon fill="#e0e0e0" stroke="#999999" points="563.5,-129 480.5,-129 480.5,-110 563.5,-110 563.5,-129"/>
<text text-anchor="middle" x="522" y="-117" font-family="Helvetica,sans-Serif" font-size="10.00">uni_algo/conv.h</text>
</a>
</g>
</g>
<!-- Node9&#45;&gt;Node11 -->
<g id="edge13" class="edge">
<title>Node9&#45;&gt;Node11</title>
<path fill="none" stroke="#63b8ff" d="M298.74,-166.19C342.86,-157.16 418.28,-141.72 469.11,-131.32"/>
<polygon fill="#63b8ff" stroke="#63b8ff" points="469.62,-134.79 478.72,-129.36 468.22,-127.93 469.62,-134.79"/>
</g>
<!-- Node12 -->
<g id="node12" class="node">
<title>Node12</title>
<g id="a_node12"><a xlink:href="conversion_8h.html" target="_top" xlink:title=" ">
<polygon fill="white" stroke="#666666" points="424,-129 296,-129 296,-110 424,-110 424,-129"/>
<text text-anchor="middle" x="360" y="-117" font-family="Helvetica,sans-Serif" font-size="10.00">core/helpers/conversion.h</text>
</a>
</g>
</g>
<!-- Node9&#45;&gt;Node12 -->
<g id="edge15" class="edge">
<title>Node9&#45;&gt;Node12</title>
<path fill="none" stroke="#63b8ff" d="M279.45,-164.51C294.32,-156.39 316.44,-144.3 333.75,-134.85"/>
<polygon fill="#63b8ff" stroke="#63b8ff" points="335.36,-137.95 342.46,-130.08 332.01,-131.81 335.36,-137.95"/>
</g>
<!-- Node13 -->
<g id="node13" class="node">
<title>Node13</title>
<g id="a_node13"><a xlink:title=" ">
<polygon fill="#e0e0e0" stroke="#999999" points="622,-129 582,-129 582,-110 622,-110 622,-129"/>
<text text-anchor="middle" x="602" y="-117" font-family="Helvetica,sans-Serif" font-size="10.00">utility</text>
</a>
</g>
</g>
<!-- Node9&#45;&gt;Node13 -->
<g id="edge19" class="edge">
<title>Node9&#45;&gt;Node13</title>
<path fill="none" stroke="#63b8ff" d="M298.83,-166.56C301.93,-166.01 305.02,-165.48 308,-165 421.77,-146.54 454.77,-153.34 570.42,-129.27"/>
<polygon fill="#63b8ff" stroke="#63b8ff" points="570.96,-132.73 580.02,-127.24 569.51,-125.88 570.96,-132.73"/>
</g>
<!-- Node14 -->
<g id="node14" class="node">
<title>Node14</title>
<g id="a_node14"><a xlink:title=" ">
<polygon fill="#e0e0e0" stroke="#999999" points="278,-129 228,-129 228,-110 278,-110 278,-129"/>
<text text-anchor="middle" x="253" y="-117" font-family="Helvetica,sans-Serif" font-size="10.00">optional</text>
</a>
</g>
</g>
<!-- Node9&#45;&gt;Node14 -->
<g id="edge20" class="edge">
<title>Node9&#45;&gt;Node14</title>
<path fill="none" stroke="#63b8ff" d="M261.35,-164.75C260.11,-158.19 258.37,-148.95 256.79,-140.6"/>
<polygon fill="#63b8ff" stroke="#63b8ff" points="260.26,-140.11 254.97,-130.93 253.38,-141.4 260.26,-140.11"/>
</g>
<!-- Node9&#45;&gt;Node15 -->
<g id="edge21" class="edge">
<title>Node9&#45;&gt;Node15</title>
<path fill="none" stroke="#63b8ff" d="M298.82,-166.48C301.92,-165.95 305.01,-165.45 308,-165 447.22,-144.12 486.49,-151.98 628.91,-129.16"/>
<polygon fill="#63b8ff" stroke="#63b8ff" points="629.45,-132.62 638.76,-127.56 628.32,-125.71 629.45,-132.62"/>
</g>
<!-- Node10&#45;&gt;Node3 -->
<g id="edge11" class="edge">
<title>Node10&#45;&gt;Node3</title>
<path fill="none" stroke="#63b8ff" d="M475.41,-54.51C497.65,-45.97 531.33,-33.03 556.42,-23.4"/>
<polygon fill="#63b8ff" stroke="#63b8ff" points="557.44,-26.75 565.52,-19.9 554.93,-20.22 557.44,-26.75"/>
</g>
<!-- Node12&#45;&gt;Node2 -->
<g id="edge16" class="edge">
<title>Node12&#45;&gt;Node2</title>
<path fill="none" stroke="#63b8ff" d="M344.29,-109.66C311.24,-91.07 234.25,-47.77 193.83,-25.03"/>
<polygon fill="#63b8ff" stroke="#63b8ff" points="195.68,-22.05 185.25,-20.2 192.25,-28.16 195.68,-22.05"/>
</g>
<!-- Node12&#45;&gt;Node5 -->
<g id="edge17" class="edge">
<title>Node12&#45;&gt;Node5</title>
<path fill="none" stroke="#63b8ff" d="M327.43,-109.51C295.47,-100.69 246.55,-87.18 211.32,-77.46"/>
<polygon fill="#63b8ff" stroke="#63b8ff" points="212.44,-74.14 201.87,-74.85 210.58,-80.88 212.44,-74.14"/>
</g>
<!-- Node12&#45;&gt;Node10 -->
<g id="edge18" class="edge">
<title>Node12&#45;&gt;Node10</title>
<path fill="none" stroke="#63b8ff" d="M375.61,-109.51C389.7,-101.39 410.69,-89.3 427.1,-79.85"/>
<polygon fill="#63b8ff" stroke="#63b8ff" points="428.39,-83.14 435.31,-75.11 424.9,-77.07 428.39,-83.14"/>
</g>
<!-- Node17&#45;&gt;Node4 -->
<g id="edge26" class="edge">
<title>Node17&#45;&gt;Node4</title>
<path fill="none" stroke="#63b8ff" d="M169.87,-219.63C155.35,-199.03 128.63,-161.12 112.78,-138.63"/>
<polygon fill="#63b8ff" stroke="#63b8ff" points="115.65,-136.62 107.02,-130.47 109.93,-140.66 115.65,-136.62"/>
</g>
<!-- Node17&#45;&gt;Node5 -->
<g id="edge25" class="edge">
<title>Node17&#45;&gt;Node5</title>
<path fill="none" stroke="#63b8ff" d="M178.98,-219.63C176.84,-189.57 171.88,-119.97 169.43,-85.54"/>
<polygon fill="#63b8ff" stroke="#63b8ff" points="172.93,-85.45 168.73,-75.73 165.95,-85.95 172.93,-85.45"/>
</g>
<!-- Node17&#45;&gt;Node9 -->
<g id="edge27" class="edge">
<title>Node17&#45;&gt;Node9</title>
<path fill="none" stroke="#63b8ff" d="M200.52,-219.54C212.94,-210.78 228.77,-199.63 241.39,-190.73"/>
<polygon fill="#63b8ff" stroke="#63b8ff" points="243.3,-193.67 249.45,-185.05 239.26,-187.95 243.3,-193.67"/>
</g>
<!-- Node17&#45;&gt;Node16 -->
<g id="edge28" class="edge">
<title>Node17&#45;&gt;Node16</title>
<path fill="none" stroke="#63b8ff" d="M220.29,-219.54C247.06,-209.93 281.89,-197.43 307.59,-188.21"/>
<polygon fill="#63b8ff" stroke="#63b8ff" points="308.7,-191.53 316.93,-184.86 306.33,-184.94 308.7,-191.53"/>
</g>
</g>
</svg>
