<?xml version="1.0" encoding="UTF-8" standalone="no"?>
<!DOCTYPE svg PUBLIC "-//W3C//DTD SVG 1.1//EN"
 "http://www.w3.org/Graphics/SVG/1.1/DTD/svg11.dtd">
<!-- Generated by graphviz version 7.1.0 (20230121.1956)
 -->
<!-- Title: src/core/evaluation/ast.h Pages: 1 -->
<!--zoomable 390 -->
<svg id="main" version="1.1" xmlns="http://www.w3.org/2000/svg" xmlns:xlink="http://www.w3.org/1999/xlink" xml:space="preserve" onload="init(evt)">
<style type="text/css"><![CDATA[
.edge:hover path { stroke: red; }
.edge:hover polygon { stroke: red; fill: red; }
]]></style>
<script type="text/javascript"><![CDATA[
var edges = document.getElementsByTagName('g');
if (edges && edges.length) {
  for (var i=0;i<edges.length;i++) {
    if (edges[i].id.substr(0,4)=='edge') {
      edges[i].setAttribute('class','edge');
    }
  }
}
]]></script>
        <defs>
                <circle id="rim" cx="0" cy="0" r="7"/>
                <circle id="rim2" cx="0" cy="0" r="3.5"/>
                <g id="zoomPlus">
                        <use xlink:href="#rim" fill="#404040">
                                <set attributeName="fill" to="#808080" begin="zoomplus.mouseover" end="zoomplus.mouseout"/>
                        </use>
                        <path d="M-4,0h8M0,-4v8" fill="none" stroke="white" stroke-width="1.5" pointer-events="none"/>
                </g>
                <g id="zoomMin">
                        <use xlink:href="#rim" fill="#404040">
                                <set attributeName="fill" to="#808080" begin="zoomminus.mouseover" end="zoomminus.mouseout"/>
                        </use>
                        <path d="M-4,0h8" fill="none" stroke="white" stroke-width="1.5" pointer-events="none"/>
                </g>
                <g id="dirArrow">
                        <path fill="none" stroke="white" stroke-width="1.5" d="M0,-3.0v7 M-2.5,-0.5L0,-3.0L2.5,-0.5"/>
                </g>
               <g id="resetDef">
                       <use xlink:href="#rim2" fill="#404040">
                               <set attributeName="fill" to="#808080" begin="reset.mouseover" end="reset.mouseout"/>
                       </use>
               </g>
        </defs>

<script type="text/javascript">
var viewWidth = 1503;
var viewHeight = 390;
var sectionId = 'dynsection-1';
</script>
<script xlink:href="svgpan.js"/>
<svg id="graph" class="graph">
<g id="viewport">
<title>src/core/evaluation/ast.h</title>
<!-- Node1 -->
<g id="node1" class="node">
<title>Node1</title>
<g id="a_node1"><a xlink:title=" ">
<polygon fill="#999999" stroke="#666666" points="1017,-382 918,-382 918,-352 1017,-352 1017,-382"/>
<text text-anchor="start" x="926" y="-370" font-family="Helvetica,sans-Serif" font-size="10.00">src/core/evaluation</text>
<text text-anchor="middle" x="967.5" y="-359" font-family="Helvetica,sans-Serif" font-size="10.00">/ast.h</text>
</a>
</g>
</g>
<!-- Node2 -->
<g id="node2" class="node">
<title>Node2</title>
<g id="a_node2"><a xlink:href="ast_8cpp.html" target="_top" xlink:title=" ">
<polygon fill="white" stroke="#666666" points="99,-156.5 0,-156.5 0,-126.5 99,-126.5 99,-156.5"/>
<text text-anchor="start" x="8" y="-144.5" font-family="Helvetica,sans-Serif" font-size="10.00">src/core/evaluation</text>
<text text-anchor="middle" x="49.5" y="-133.5" font-family="Helvetica,sans-Serif" font-size="10.00">/ast.cpp</text>
</a>
</g>
</g>
<!-- Node1&#45;&gt;Node2 -->
<g id="edge1" class="edge">
<title>Node1&#45;&gt;Node2</title>
<path fill="none" stroke="#63b8ff" d="M906.52,-355.82C850.87,-346.31 766.44,-331.31 693.5,-316 548.65,-285.59 512.42,-277.5 369.5,-239 270.61,-212.36 155.97,-176.59 94.3,-156.93"/>
<polygon fill="#63b8ff" stroke="#63b8ff" points="905.66,-359.23 916.11,-357.45 906.83,-352.33 905.66,-359.23"/>
</g>
<!-- Node3 -->
<g id="node3" class="node">
<title>Node3</title>
<g id="a_node3"><a xlink:href="node__visitor_8h.html" target="_top" xlink:title=" ">
<polygon fill="white" stroke="#666666" points="939,-310.5 840,-310.5 840,-280.5 939,-280.5 939,-310.5"/>
<text text-anchor="start" x="848" y="-298.5" font-family="Helvetica,sans-Serif" font-size="10.00">src/core/evaluation</text>
<text text-anchor="middle" x="889.5" y="-287.5" font-family="Helvetica,sans-Serif" font-size="10.00">/node_visitor.h</text>
</a>
</g>
</g>
<!-- Node1&#45;&gt;Node3 -->
<g id="edge2" class="edge">
<title>Node1&#45;&gt;Node3</title>
<path fill="none" stroke="#63b8ff" d="M942.94,-344.12C930.77,-333.27 916.41,-320.48 905.64,-310.88"/>
<polygon fill="#63b8ff" stroke="#63b8ff" points="940.41,-346.55 950.21,-350.59 945.07,-341.33 940.41,-346.55"/>
</g>
<!-- Node8 -->
<g id="node8" class="node">
<title>Node8</title>
<g id="a_node8"><a xlink:href="defined__function_8h.html" target="_top" xlink:title=" ">
<polygon fill="white" stroke="#666666" points="1055,-239 956,-239 956,-198 1055,-198 1055,-239"/>
<text text-anchor="start" x="964" y="-227" font-family="Helvetica,sans-Serif" font-size="10.00">src/core/evaluation</text>
<text text-anchor="start" x="964" y="-216" font-family="Helvetica,sans-Serif" font-size="10.00">/operations/defined</text>
<text text-anchor="middle" x="1005.5" y="-205" font-family="Helvetica,sans-Serif" font-size="10.00">_function.h</text>
</a>
</g>
</g>
<!-- Node1&#45;&gt;Node8 -->
<g id="edge8" class="edge">
<title>Node1&#45;&gt;Node8</title>
<path fill="none" stroke="#63b8ff" d="M974.71,-340.79C976.94,-332.87 979.36,-324.08 981.5,-316 988.51,-289.46 996.07,-258.66 1000.8,-239.13"/>
<polygon fill="#63b8ff" stroke="#63b8ff" points="971.43,-339.56 972.07,-350.13 978.16,-341.47 971.43,-339.56"/>
</g>
<!-- Node9 -->
<g id="node9" class="node">
<title>Node9</title>
<g id="a_node9"><a xlink:href="dyadic__operators_8h.html" target="_top" xlink:title=" ">
<polygon fill="white" stroke="#666666" points="1197.5,-310.5 1047.5,-310.5 1047.5,-280.5 1197.5,-280.5 1197.5,-310.5"/>
<text text-anchor="start" x="1055.5" y="-298.5" font-family="Helvetica,sans-Serif" font-size="10.00">src/core/evaluation</text>
<text text-anchor="middle" x="1122.5" y="-287.5" font-family="Helvetica,sans-Serif" font-size="10.00">/operations/dyadic_operators.h</text>
</a>
</g>
</g>
<!-- Node1&#45;&gt;Node9 -->
<g id="edge11" class="edge">
<title>Node1&#45;&gt;Node9</title>
<path fill="none" stroke="#63b8ff" d="M1010.07,-346.91C1035.45,-335.53 1067.16,-321.31 1090.43,-310.88"/>
<polygon fill="#63b8ff" stroke="#63b8ff" points="1008.69,-343.7 1001,-350.98 1011.55,-350.08 1008.69,-343.7"/>
</g>
<!-- Node11 -->
<g id="node11" class="node">
<title>Node11</title>
<g id="a_node11"><a xlink:href="monadic__operators_8h.html" target="_top" xlink:title=" ">
<polygon fill="white" stroke="#666666" points="1321.5,-316 1217.5,-316 1217.5,-275 1321.5,-275 1321.5,-316"/>
<text text-anchor="start" x="1225.5" y="-304" font-family="Helvetica,sans-Serif" font-size="10.00">src/core/evaluation</text>
<text text-anchor="start" x="1225.5" y="-293" font-family="Helvetica,sans-Serif" font-size="10.00">/operations/monadic</text>
<text text-anchor="middle" x="1269.5" y="-282" font-family="Helvetica,sans-Serif" font-size="10.00">_operators.h</text>
</a>
</g>
</g>
<!-- Node1&#45;&gt;Node11 -->
<g id="edge14" class="edge">
<title>Node1&#45;&gt;Node11</title>
<path fill="none" stroke="#63b8ff" d="M1028.5,-354.88C1077.01,-345.64 1146.47,-331.53 1206.5,-316 1209.94,-315.11 1213.46,-314.15 1217.01,-313.15"/>
<polygon fill="#63b8ff" stroke="#63b8ff" points="1027.91,-351.43 1018.74,-356.72 1029.21,-358.3 1027.91,-351.43"/>
</g>
<!-- Node13 -->
<g id="node13" class="node">
<title>Node13</title>
<g id="a_node13"><a xlink:href="parser_8h.html" target="_top" xlink:title=" ">
<polygon fill="white" stroke="#666666" points="938,-233.5 839,-233.5 839,-203.5 938,-203.5 938,-233.5"/>
<text text-anchor="start" x="847" y="-221.5" font-family="Helvetica,sans-Serif" font-size="10.00">src/core/evaluation</text>
<text text-anchor="middle" x="888.5" y="-210.5" font-family="Helvetica,sans-Serif" font-size="10.00">/parser/parser.h</text>
</a>
</g>
</g>
<!-- Node1&#45;&gt;Node13 -->
<g id="edge18" class="edge">
<title>Node1&#45;&gt;Node13</title>
<path fill="none" stroke="#63b8ff" d="M965.91,-340.11C963.8,-321.06 958.89,-295.08 947.5,-275 938.13,-258.49 922.24,-243.96 909.3,-233.91"/>
<polygon fill="#63b8ff" stroke="#63b8ff" points="962.42,-340.35 966.8,-350 969.39,-339.73 962.42,-340.35"/>
</g>
<!-- Node17 -->
<g id="node17" class="node">
<title>Node17</title>
<g id="a_node17"><a xlink:href="symbol_8h.html" target="_top" xlink:title=" ">
<polygon fill="white" stroke="#666666" points="821,-305 726,-305 726,-286 821,-286 821,-305"/>
<text text-anchor="middle" x="773.5" y="-293" font-family="Helvetica,sans-Serif" font-size="10.00">src/core/symbol.h</text>
</a>
</g>
</g>
<!-- Node1&#45;&gt;Node17 -->
<g id="edge24" class="edge">
<title>Node1&#45;&gt;Node17</title>
<path fill="none" stroke="#63b8ff" d="M916.93,-347.88C878.89,-334.26 828.38,-316.16 798.56,-305.48"/>
<polygon fill="#63b8ff" stroke="#63b8ff" points="915.28,-351.01 925.88,-351.09 917.64,-344.42 915.28,-351.01"/>
</g>
<!-- Node18 -->
<g id="node18" class="node">
<title>Node18</title>
<g id="a_node18"><a xlink:href="symbol__table_8h.html" target="_top" xlink:title=" ">
<polygon fill="white" stroke="#666666" points="756,-228 635,-228 635,-209 756,-209 756,-228"/>
<text text-anchor="middle" x="695.5" y="-216" font-family="Helvetica,sans-Serif" font-size="10.00">src/core/symbol_table.h</text>
</a>
</g>
</g>
<!-- Node1&#45;&gt;Node18 -->
<g id="edge46" class="edge">
<title>Node1&#45;&gt;Node18</title>
<path fill="none" stroke="#63b8ff" d="M906.31,-361.42C840.85,-355.24 742.85,-341.89 716.5,-316 692.28,-292.21 692.96,-247.49 694.52,-228.45"/>
<polygon fill="#63b8ff" stroke="#63b8ff" points="905.95,-364.9 916.22,-362.32 906.58,-357.93 905.95,-364.9"/>
</g>
<!-- Node30 -->
<g id="node30" class="node">
<title>Node30</title>
<g id="a_node30"><a xlink:href="matcher_8h.html" target="_top" xlink:title=" ">
<polygon fill="white" stroke="#666666" points="838.5,-79.5 730.5,-79.5 730.5,-60.5 838.5,-60.5 838.5,-79.5"/>
<text text-anchor="middle" x="784.5" y="-67.5" font-family="Helvetica,sans-Serif" font-size="10.00">src/testing/matcher.h</text>
</a>
</g>
</g>
<!-- Node1&#45;&gt;Node30 -->
<g id="edge47" class="edge">
<title>Node1&#45;&gt;Node30</title>
<path fill="none" stroke="#63b8ff" d="M1028.66,-363.74C1101.91,-359.65 1227.62,-348.15 1330.5,-316 1412.13,-290.49 1533.02,-267.01 1482.5,-198 1406.47,-94.15 989.35,-75.22 838.75,-71.77"/>
<polygon fill="#63b8ff" stroke="#63b8ff" points="1028.68,-360.24 1018.87,-364.26 1029.04,-367.23 1028.68,-360.24"/>
</g>
<!-- Node3&#45;&gt;Node2 -->
<g id="edge3" class="edge">
<title>Node3&#45;&gt;Node2</title>
<path fill="none" stroke="#63b8ff" d="M836.87,-276.9C834.39,-276.22 831.92,-275.59 829.5,-275 753.46,-256.58 211.28,-177.03 134.5,-162 123.06,-159.76 110.81,-157.1 99.28,-154.48"/>
<polygon fill="#63b8ff" stroke="#63b8ff" points="835.74,-280.21 846.32,-279.62 837.68,-273.49 835.74,-280.21"/>
</g>
<!-- Node4 -->
<g id="node4" class="node">
<title>Node4</title>
<g id="a_node4"><a xlink:href="interpreter_8h.html" target="_top" xlink:title=" ">
<polygon fill="white" stroke="#666666" points="1172,-233.5 1073,-233.5 1073,-203.5 1172,-203.5 1172,-233.5"/>
<text text-anchor="start" x="1081" y="-221.5" font-family="Helvetica,sans-Serif" font-size="10.00">src/core/evaluation</text>
<text text-anchor="middle" x="1122.5" y="-210.5" font-family="Helvetica,sans-Serif" font-size="10.00">/interpreter.h</text>
</a>
</g>
</g>
<!-- Node3&#45;&gt;Node4 -->
<g id="edge4" class="edge">
<title>Node3&#45;&gt;Node4</title>
<path fill="none" stroke="#63b8ff" d="M946.02,-276.64C980.08,-265.83 1024.31,-251.72 1063.5,-239 1068.53,-237.37 1073.79,-235.65 1079.02,-233.93"/>
<polygon fill="#63b8ff" stroke="#63b8ff" points="945.25,-273.21 936.78,-279.57 947.37,-279.88 945.25,-273.21"/>
</g>
<!-- Node5 -->
<g id="node5" class="node">
<title>Node5</title>
<g id="a_node5"><a xlink:href="interpreter_8cpp.html" target="_top" xlink:title=" ">
<polygon fill="white" stroke="#666666" points="1095,-156.5 996,-156.5 996,-126.5 1095,-126.5 1095,-156.5"/>
<text text-anchor="start" x="1004" y="-144.5" font-family="Helvetica,sans-Serif" font-size="10.00">src/core/evaluation</text>
<text text-anchor="middle" x="1045.5" y="-133.5" font-family="Helvetica,sans-Serif" font-size="10.00">/interpreter.cpp</text>
</a>
</g>
</g>
<!-- Node4&#45;&gt;Node5 -->
<g id="edge5" class="edge">
<title>Node4&#45;&gt;Node5</title>
<path fill="none" stroke="#63b8ff" d="M1099.75,-195.34C1087.01,-182.93 1071.47,-167.8 1060.3,-156.92"/>
<polygon fill="#63b8ff" stroke="#63b8ff" points="1096.96,-197.51 1106.57,-201.98 1101.85,-192.5 1096.96,-197.51"/>
</g>
<!-- Node6 -->
<g id="node6" class="node">
<title>Node6</title>
<g id="a_node6"><a xlink:href="defined__function_8cpp.html" target="_top" xlink:title=" ">
<polygon fill="white" stroke="#666666" points="1212,-162 1113,-162 1113,-121 1212,-121 1212,-162"/>
<text text-anchor="start" x="1121" y="-150" font-family="Helvetica,sans-Serif" font-size="10.00">src/core/evaluation</text>
<text text-anchor="start" x="1121" y="-139" font-family="Helvetica,sans-Serif" font-size="10.00">/operations/defined</text>
<text text-anchor="middle" x="1162.5" y="-128" font-family="Helvetica,sans-Serif" font-size="10.00">_function.cpp</text>
</a>
</g>
</g>
<!-- Node4&#45;&gt;Node6 -->
<g id="edge6" class="edge">
<title>Node4&#45;&gt;Node6</title>
<path fill="none" stroke="#63b8ff" d="M1135.59,-192.96C1140.89,-183.02 1146.93,-171.7 1151.94,-162.3"/>
<polygon fill="#63b8ff" stroke="#63b8ff" points="1132.54,-191.23 1130.92,-201.7 1138.72,-194.53 1132.54,-191.23"/>
</g>
<!-- Node7 -->
<g id="node7" class="node">
<title>Node7</title>
<g id="a_node7"><a xlink:href="execution_8cpp.html" target="_top" xlink:title=" ">
<polygon fill="white" stroke="#666666" points="712.5,-79.5 596.5,-79.5 596.5,-60.5 712.5,-60.5 712.5,-79.5"/>
<text text-anchor="middle" x="654.5" y="-67.5" font-family="Helvetica,sans-Serif" font-size="10.00">src/core/execution.cpp</text>
</a>
</g>
</g>
<!-- Node4&#45;&gt;Node7 -->
<g id="edge7" class="edge">
<title>Node4&#45;&gt;Node7</title>
<path fill="none" stroke="#63b8ff" d="M1179.02,-198.25C1195.3,-189.78 1211.16,-178.02 1220.5,-162 1229.68,-146.26 1232.91,-134.34 1220.5,-121 1182.63,-80.3 776.55,-92.7 721.5,-85 712.2,-83.7 702.26,-81.87 692.96,-79.96"/>
<polygon fill="#63b8ff" stroke="#63b8ff" points="1177.76,-194.97 1170.25,-202.45 1180.79,-201.29 1177.76,-194.97"/>
</g>
<!-- Node8&#45;&gt;Node5 -->
<g id="edge9" class="edge">
<title>Node8&#45;&gt;Node5</title>
<path fill="none" stroke="#63b8ff" d="M1021.26,-187.94C1026.96,-177.25 1033.15,-165.66 1037.84,-156.86"/>
<polygon fill="#63b8ff" stroke="#63b8ff" points="1018.34,-185.99 1016.72,-196.46 1024.52,-189.28 1018.34,-185.99"/>
</g>
<!-- Node8&#45;&gt;Node6 -->
<g id="edge10" class="edge">
<title>Node8&#45;&gt;Node6</title>
<path fill="none" stroke="#63b8ff" d="M1057.31,-192.75C1077.86,-182.93 1101.19,-171.79 1120.64,-162.49"/>
<polygon fill="#63b8ff" stroke="#63b8ff" points="1056.04,-189.48 1048.53,-196.95 1059.06,-195.79 1056.04,-189.48"/>
</g>
<!-- Node9&#45;&gt;Node4 -->
<g id="edge12" class="edge">
<title>Node9&#45;&gt;Node4</title>
<path fill="none" stroke="#63b8ff" d="M1122.5,-268.73C1122.5,-257.08 1122.5,-243.76 1122.5,-233.92"/>
<polygon fill="#63b8ff" stroke="#63b8ff" points="1119,-268.53 1122.5,-278.53 1126,-268.53 1119,-268.53"/>
</g>
<!-- Node10 -->
<g id="node10" class="node">
<title>Node10</title>
<g id="a_node10"><a xlink:href="dyadic__operators_8cpp.html" target="_top" xlink:title=" ">
<polygon fill="white" stroke="#666666" points="1351,-233.5 1190,-233.5 1190,-203.5 1351,-203.5 1351,-233.5"/>
<text text-anchor="start" x="1198" y="-221.5" font-family="Helvetica,sans-Serif" font-size="10.00">src/core/evaluation</text>
<text text-anchor="middle" x="1270.5" y="-210.5" font-family="Helvetica,sans-Serif" font-size="10.00">/operations/dyadic_operators.cpp</text>
</a>
</g>
</g>
<!-- Node9&#45;&gt;Node10 -->
<g id="edge13" class="edge">
<title>Node9&#45;&gt;Node10</title>
<path fill="none" stroke="#63b8ff" d="M1161.06,-274.96C1186.42,-262.11 1219.04,-245.58 1242.05,-233.92"/>
<polygon fill="#63b8ff" stroke="#63b8ff" points="1159.72,-271.71 1152.39,-279.36 1162.89,-277.96 1159.72,-271.71"/>
</g>
<!-- Node11&#45;&gt;Node4 -->
<g id="edge15" class="edge">
<title>Node11&#45;&gt;Node4</title>
<path fill="none" stroke="#63b8ff" d="M1220.44,-269.47C1197.18,-257.6 1170.24,-243.85 1150.5,-233.79"/>
<polygon fill="#63b8ff" stroke="#63b8ff" points="1218.65,-272.48 1229.14,-273.91 1221.83,-266.25 1218.65,-272.48"/>
</g>
<!-- Node11&#45;&gt;Node10 -->
<g id="edge16" class="edge">
<title>Node11&#45;&gt;Node10</title>
<path fill="none" stroke="#63b8ff" d="M1269.92,-263.28C1270.05,-253.07 1270.2,-242.21 1270.31,-233.86"/>
<polygon fill="#63b8ff" stroke="#63b8ff" points="1266.42,-263.24 1269.78,-273.28 1273.42,-263.33 1266.42,-263.24"/>
</g>
<!-- Node12 -->
<g id="node12" class="node">
<title>Node12</title>
<g id="a_node12"><a xlink:href="monadic__operators_8cpp.html" target="_top" xlink:title=" ">
<polygon fill="white" stroke="#666666" points="1473.5,-239 1369.5,-239 1369.5,-198 1473.5,-198 1473.5,-239"/>
<text text-anchor="start" x="1377.5" y="-227" font-family="Helvetica,sans-Serif" font-size="10.00">src/core/evaluation</text>
<text text-anchor="start" x="1377.5" y="-216" font-family="Helvetica,sans-Serif" font-size="10.00">/operations/monadic</text>
<text text-anchor="middle" x="1421.5" y="-205" font-family="Helvetica,sans-Serif" font-size="10.00">_operators.cpp</text>
</a>
</g>
</g>
<!-- Node11&#45;&gt;Node12 -->
<g id="edge17" class="edge">
<title>Node11&#45;&gt;Node12</title>
<path fill="none" stroke="#63b8ff" d="M1319.93,-269.62C1339.77,-259.83 1362.23,-248.75 1380.98,-239.49"/>
<polygon fill="#63b8ff" stroke="#63b8ff" points="1318.61,-266.36 1311.19,-273.93 1321.71,-272.64 1318.61,-266.36"/>
</g>
<!-- Node13&#45;&gt;Node5 -->
<g id="edge19" class="edge">
<title>Node13&#45;&gt;Node5</title>
<path fill="none" stroke="#63b8ff" d="M929.05,-198.13C956,-185.26 990.8,-168.63 1015.32,-156.92"/>
<polygon fill="#63b8ff" stroke="#63b8ff" points="927.65,-194.92 920.14,-202.39 930.67,-201.23 927.65,-194.92"/>
</g>
<!-- Node13&#45;&gt;Node7 -->
<g id="edge21" class="edge">
<title>Node13&#45;&gt;Node7</title>
<path fill="none" stroke="#63b8ff" d="M920.34,-196C931.05,-186.91 941.75,-175.31 947.5,-162 954.73,-145.27 959.33,-134.86 947.5,-121 914.49,-82.31 771.52,-94.2 721.5,-85 713.2,-83.47 704.35,-81.72 695.9,-79.97"/>
<polygon fill="#63b8ff" stroke="#63b8ff" points="918.29,-193.16 912.62,-202.1 922.64,-198.65 918.29,-193.16"/>
</g>
<!-- Node14 -->
<g id="node14" class="node">
<title>Node14</title>
<g id="a_node14"><a xlink:href="parser_8cpp.html" target="_top" xlink:title=" ">
<polygon fill="white" stroke="#666666" points="939,-156.5 840,-156.5 840,-126.5 939,-126.5 939,-156.5"/>
<text text-anchor="start" x="848" y="-144.5" font-family="Helvetica,sans-Serif" font-size="10.00">src/core/evaluation</text>
<text text-anchor="middle" x="889.5" y="-133.5" font-family="Helvetica,sans-Serif" font-size="10.00">/parser/parser.cpp</text>
</a>
</g>
</g>
<!-- Node13&#45;&gt;Node14 -->
<g id="edge20" class="edge">
<title>Node13&#45;&gt;Node14</title>
<path fill="none" stroke="#63b8ff" d="M888.84,-191.73C889,-180.08 889.18,-166.76 889.31,-156.92"/>
<polygon fill="#63b8ff" stroke="#63b8ff" points="885.35,-191.48 888.71,-201.53 892.35,-191.57 885.35,-191.48"/>
</g>
<!-- Node15 -->
<g id="node15" class="node">
<title>Node15</title>
<g id="a_node15"><a xlink:href="parser__fixture_8h.html" target="_top" xlink:title=" ">
<polygon fill="white" stroke="#666666" points="821.5,-156.5 723.5,-156.5 723.5,-126.5 821.5,-126.5 821.5,-156.5"/>
<text text-anchor="start" x="731.5" y="-144.5" font-family="Helvetica,sans-Serif" font-size="10.00">src/testing/fixtures</text>
<text text-anchor="middle" x="772.5" y="-133.5" font-family="Helvetica,sans-Serif" font-size="10.00">/parser_fixture.h</text>
</a>
</g>
</g>
<!-- Node13&#45;&gt;Node15 -->
<g id="edge22" class="edge">
<title>Node13&#45;&gt;Node15</title>
<path fill="none" stroke="#63b8ff" d="M856.68,-196.92C837.05,-184.23 812.35,-168.27 794.8,-156.92"/>
<polygon fill="#63b8ff" stroke="#63b8ff" points="854.57,-199.73 864.86,-202.22 858.37,-193.85 854.57,-199.73"/>
</g>
<!-- Node16 -->
<g id="node16" class="node">
<title>Node16</title>
<g id="a_node16"><a xlink:href="test__parser_8cpp.html" target="_top" xlink:title=" ">
<polygon fill="white" stroke="#666666" points="997.5,-19 865.5,-19 865.5,0 997.5,0 997.5,-19"/>
<text text-anchor="middle" x="931.5" y="-7" font-family="Helvetica,sans-Serif" font-size="10.00">src/testing/test_parser.cpp</text>
</a>
</g>
</g>
<!-- Node15&#45;&gt;Node16 -->
<g id="edge23" class="edge">
<title>Node15&#45;&gt;Node16</title>
<path fill="none" stroke="#63b8ff" d="M802.1,-119.53C816.08,-109.38 832.88,-96.85 847.5,-85 875.66,-62.17 907.24,-33.18 922.41,-19.04"/>
<polygon fill="#63b8ff" stroke="#63b8ff" points="800.22,-116.56 794.15,-125.25 804.31,-122.24 800.22,-116.56"/>
</g>
<!-- Node17&#45;&gt;Node18 -->
<g id="edge25" class="edge">
<title>Node17&#45;&gt;Node18</title>
<path fill="none" stroke="#63b8ff" d="M756.26,-277.92C740.37,-262.65 717.4,-240.56 704.74,-228.39"/>
<polygon fill="#63b8ff" stroke="#63b8ff" points="753.52,-280.14 763.16,-284.55 758.37,-275.1 753.52,-280.14"/>
</g>
<!-- Node18&#45;&gt;Node2 -->
<g id="edge27" class="edge">
<title>Node18&#45;&gt;Node2</title>
<path fill="none" stroke="#63b8ff" d="M623.38,-210.63C467.75,-195.82 114.28,-162.15 113.5,-162 106.66,-160.65 99.52,-158.86 92.58,-156.91"/>
<polygon fill="#63b8ff" stroke="#63b8ff" points="622.89,-214.1 633.18,-211.57 623.56,-207.13 622.89,-214.1"/>
</g>
<!-- Node18&#45;&gt;Node5 -->
<g id="edge28" class="edge">
<title>Node18&#45;&gt;Node5</title>
<path fill="none" stroke="#63b8ff" d="M748.51,-206.14C815.57,-191.77 930.19,-167.21 995.69,-153.17"/>
<polygon fill="#63b8ff" stroke="#63b8ff" points="747.9,-202.69 738.85,-208.21 749.36,-209.54 747.9,-202.69"/>
</g>
<!-- Node18&#45;&gt;Node6 -->
<g id="edge29" class="edge">
<title>Node18&#45;&gt;Node6</title>
<path fill="none" stroke="#63b8ff" d="M767.16,-206.89C787.31,-203.95 809.26,-200.8 829.5,-198 951.16,-181.16 983.77,-189.39 1103.5,-162 1106.55,-161.3 1109.67,-160.51 1112.79,-159.66"/>
<polygon fill="#63b8ff" stroke="#63b8ff" points="766.73,-203.41 757.34,-208.32 767.74,-210.34 766.73,-203.41"/>
</g>
<!-- Node18&#45;&gt;Node7 -->
<g id="edge32" class="edge">
<title>Node18&#45;&gt;Node7</title>
<path fill="none" stroke="#63b8ff" d="M692.49,-197.37C689.28,-177.65 683.53,-146.87 675.5,-121 670.87,-106.07 663.41,-89.48 658.74,-79.66"/>
<polygon fill="#63b8ff" stroke="#63b8ff" points="689.01,-197.74 694.01,-207.08 695.93,-196.66 689.01,-197.74"/>
</g>
<!-- Node18&#45;&gt;Node14 -->
<g id="edge31" class="edge">
<title>Node18&#45;&gt;Node14</title>
<path fill="none" stroke="#63b8ff" d="M728.95,-204.57C763.28,-191.3 816.58,-170.69 852.24,-156.9"/>
<polygon fill="#63b8ff" stroke="#63b8ff" points="727.99,-201.19 719.93,-208.06 730.52,-207.71 727.99,-201.19"/>
</g>
<!-- Node18&#45;&gt;Node15 -->
<g id="edge45" class="edge">
<title>Node18&#45;&gt;Node15</title>
<path fill="none" stroke="#63b8ff" d="M712.7,-200.75C726.27,-187.53 744.99,-169.29 757.85,-156.77"/>
<polygon fill="#63b8ff" stroke="#63b8ff" points="710.44,-198.06 705.72,-207.55 715.33,-203.08 710.44,-198.06"/>
</g>
<!-- Node19 -->
<g id="node19" class="node">
<title>Node19</title>
<g id="a_node19"><a xlink:href="array_8cpp.html" target="_top" xlink:title=" ">
<polygon fill="white" stroke="#666666" points="373.5,-151 279.5,-151 279.5,-132 373.5,-132 373.5,-151"/>
<text text-anchor="middle" x="326.5" y="-139" font-family="Helvetica,sans-Serif" font-size="10.00">src/core/array.cpp</text>
</a>
</g>
</g>
<!-- Node18&#45;&gt;Node19 -->
<g id="edge26" class="edge">
<title>Node18&#45;&gt;Node19</title>
<path fill="none" stroke="#63b8ff" d="M623.43,-208.06C559.53,-198.9 463.98,-183.27 382.5,-162 371.44,-159.11 359.45,-155.07 349.4,-151.4"/>
<polygon fill="#63b8ff" stroke="#63b8ff" points="622.69,-211.49 633.09,-209.43 623.68,-204.56 622.69,-211.49"/>
</g>
<!-- Node20 -->
<g id="node20" class="node">
<title>Node20</title>
<g id="a_node20"><a xlink:href="functions_8cpp.html" target="_top" xlink:title=" ">
<polygon fill="white" stroke="#666666" points="517.5,-156.5 391.5,-156.5 391.5,-126.5 517.5,-126.5 517.5,-156.5"/>
<text text-anchor="start" x="399.5" y="-144.5" font-family="Helvetica,sans-Serif" font-size="10.00">src/core/evaluation</text>
<text text-anchor="middle" x="454.5" y="-133.5" font-family="Helvetica,sans-Serif" font-size="10.00">/operations/functions.cpp</text>
</a>
</g>
</g>
<!-- Node18&#45;&gt;Node20 -->
<g id="edge30" class="edge">
<title>Node18&#45;&gt;Node20</title>
<path fill="none" stroke="#63b8ff" d="M656.14,-205.25C613.6,-192.01 545.85,-170.93 500.79,-156.9"/>
<polygon fill="#63b8ff" stroke="#63b8ff" points="654.87,-208.52 665.46,-208.15 656.95,-201.84 654.87,-208.52"/>
</g>
<!-- Node21 -->
<g id="node21" class="node">
<title>Node21</title>
<g id="a_node21"><a xlink:href="execution_8h.html" target="_top" xlink:title=" ">
<polygon fill="white" stroke="#666666" points="261,-151 156,-151 156,-132 261,-132 261,-151"/>
<text text-anchor="middle" x="208.5" y="-139" font-family="Helvetica,sans-Serif" font-size="10.00">src/core/execution.h</text>
</a>
</g>
</g>
<!-- Node18&#45;&gt;Node21 -->
<g id="edge33" class="edge">
<title>Node18&#45;&gt;Node21</title>
<path fill="none" stroke="#63b8ff" d="M623.49,-209.64C520.43,-198.13 336.07,-176.48 270.5,-162 258.16,-159.28 244.75,-155.2 233.57,-151.48"/>
<polygon fill="#63b8ff" stroke="#63b8ff" points="622.9,-213.1 633.22,-210.72 623.67,-206.14 622.9,-213.1"/>
</g>
<!-- Node25 -->
<g id="node25" class="node">
<title>Node25</title>
<g id="a_node25"><a xlink:href="fixture_8h.html" target="_top" xlink:title=" ">
<polygon fill="white" stroke="#666666" points="298.5,-85 200.5,-85 200.5,-55 298.5,-55 298.5,-85"/>
<text text-anchor="start" x="208.5" y="-73" font-family="Helvetica,sans-Serif" font-size="10.00">src/testing/fixtures</text>
<text text-anchor="middle" x="249.5" y="-62" font-family="Helvetica,sans-Serif" font-size="10.00">/fixture.h</text>
</a>
</g>
</g>
<!-- Node18&#45;&gt;Node25 -->
<g id="edge44" class="edge">
<title>Node18&#45;&gt;Node25</title>
<path fill="none" stroke="#63b8ff" d="M623.41,-210.52C474.9,-196.11 148.48,-164.2 146.5,-162 134.28,-148.48 136.83,-136.44 146.5,-121 158.42,-101.96 179.89,-89.99 200.15,-82.55"/>
<polygon fill="#63b8ff" stroke="#63b8ff" points="622.85,-213.98 633.14,-211.47 623.53,-207.02 622.85,-213.98"/>
</g>
<!-- Node29 -->
<g id="node29" class="node">
<title>Node29</title>
<g id="a_node29"><a xlink:href="symbol__table_8cpp.html" target="_top" xlink:title=" ">
<polygon fill="white" stroke="#666666" points="667,-151 536,-151 536,-132 667,-132 667,-151"/>
<text text-anchor="middle" x="601.5" y="-139" font-family="Helvetica,sans-Serif" font-size="10.00">src/core/symbol_table.cpp</text>
</a>
</g>
</g>
<!-- Node18&#45;&gt;Node29 -->
<g id="edge43" class="edge">
<title>Node18&#45;&gt;Node29</title>
<path fill="none" stroke="#63b8ff" d="M675.52,-201.56C656.35,-186.26 628.11,-163.73 612.64,-151.39"/>
<polygon fill="#63b8ff" stroke="#63b8ff" points="673.17,-204.16 683.16,-207.66 677.53,-198.69 673.17,-204.16"/>
</g>
<!-- Node21&#45;&gt;Node7 -->
<g id="edge34" class="edge">
<title>Node21&#45;&gt;Node7</title>
<path fill="none" stroke="#63b8ff" d="M244.32,-128.06C252.82,-125.44 261.92,-122.89 270.5,-121 384.41,-95.88 520.3,-81.84 596.05,-75.4"/>
<polygon fill="#63b8ff" stroke="#63b8ff" points="243.46,-124.66 235.01,-131.05 245.6,-131.33 243.46,-124.66"/>
</g>
<!-- Node22 -->
<g id="node22" class="node">
<title>Node22</title>
<g id="a_node22"><a xlink:href="main_8cpp.html" target="_top" xlink:title=" ">
<polygon fill="white" stroke="#666666" points="390,-79.5 317,-79.5 317,-60.5 390,-60.5 390,-79.5"/>
<text text-anchor="middle" x="353.5" y="-67.5" font-family="Helvetica,sans-Serif" font-size="10.00">src/main.cpp</text>
</a>
</g>
</g>
<!-- Node21&#45;&gt;Node22 -->
<g id="edge35" class="edge">
<title>Node21&#45;&gt;Node22</title>
<path fill="none" stroke="#63b8ff" d="M237.48,-126.61C266.5,-112.7 310.26,-91.72 334.91,-79.91"/>
<polygon fill="#63b8ff" stroke="#63b8ff" points="236.03,-123.42 228.52,-130.9 239.05,-129.74 236.03,-123.42"/>
</g>
<!-- Node23 -->
<g id="node23" class="node">
<title>Node23</title>
<g id="a_node23"><a xlink:href="file__fixture_8h.html" target="_top" xlink:title=" ">
<polygon fill="white" stroke="#666666" points="182.5,-85 84.5,-85 84.5,-55 182.5,-55 182.5,-85"/>
<text text-anchor="start" x="92.5" y="-73" font-family="Helvetica,sans-Serif" font-size="10.00">src/testing/fixtures</text>
<text text-anchor="middle" x="133.5" y="-62" font-family="Helvetica,sans-Serif" font-size="10.00">/file_fixture.h</text>
</a>
</g>
</g>
<!-- Node21&#45;&gt;Node23 -->
<g id="edge36" class="edge">
<title>Node21&#45;&gt;Node23</title>
<path fill="none" stroke="#63b8ff" d="M190.61,-123.93C177.91,-112.15 161.02,-96.5 148.9,-85.27"/>
<polygon fill="#63b8ff" stroke="#63b8ff" points="188.18,-126.44 197.89,-130.67 192.94,-121.3 188.18,-126.44"/>
</g>
<!-- Node21&#45;&gt;Node25 -->
<g id="edge38" class="edge">
<title>Node21&#45;&gt;Node25</title>
<path fill="none" stroke="#63b8ff" d="M219.51,-121.83C226.29,-110.34 234.84,-95.84 241.08,-85.27"/>
<polygon fill="#63b8ff" stroke="#63b8ff" points="216.53,-120 214.46,-130.39 222.56,-123.56 216.53,-120"/>
</g>
<!-- Node24 -->
<g id="node24" class="node">
<title>Node24</title>
<g id="a_node24"><a xlink:href="test__examples_8cpp.html" target="_top" xlink:title=" ">
<polygon fill="white" stroke="#666666" points="207.5,-19 59.5,-19 59.5,0 207.5,0 207.5,-19"/>
<text text-anchor="middle" x="133.5" y="-7" font-family="Helvetica,sans-Serif" font-size="10.00">src/testing/test_examples.cpp</text>
</a>
</g>
</g>
<!-- Node23&#45;&gt;Node24 -->
<g id="edge37" class="edge">
<title>Node23&#45;&gt;Node24</title>
<path fill="none" stroke="#63b8ff" d="M133.5,-43.3C133.5,-34.65 133.5,-25.58 133.5,-19.18"/>
<polygon fill="#63b8ff" stroke="#63b8ff" points="130,-43.03 133.5,-53.03 137,-43.03 130,-43.03"/>
</g>
<!-- Node25&#45;&gt;Node24 -->
<g id="edge40" class="edge">
<title>Node25&#45;&gt;Node24</title>
<path fill="none" stroke="#63b8ff" d="M210.65,-49.41C190.46,-39.23 166.79,-27.29 151.04,-19.35"/>
<polygon fill="#63b8ff" stroke="#63b8ff" points="208.97,-52.48 219.47,-53.86 212.12,-46.23 208.97,-52.48"/>
</g>
<!-- Node26 -->
<g id="node26" class="node">
<title>Node26</title>
<g id="a_node26"><a xlink:href="test__datatypes_8cpp.html" target="_top" xlink:title=" ">
<polygon fill="white" stroke="#666666" points="703,-19 554,-19 554,0 703,0 703,-19"/>
<text text-anchor="middle" x="628.5" y="-7" font-family="Helvetica,sans-Serif" font-size="10.00">src/testing/test_datatypes.cpp</text>
</a>
</g>
</g>
<!-- Node25&#45;&gt;Node26 -->
<g id="edge39" class="edge">
<title>Node25&#45;&gt;Node26</title>
<path fill="none" stroke="#63b8ff" d="M309.91,-54.66C398.97,-38.12 490.91,-26.15 553.57,-18.76"/>
<polygon fill="#63b8ff" stroke="#63b8ff" points="309.46,-51.18 300.28,-56.47 310.75,-58.06 309.46,-51.18"/>
</g>
<!-- Node27 -->
<g id="node27" class="node">
<title>Node27</title>
<g id="a_node27"><a xlink:href="test__functions_8cpp.html" target="_top" xlink:title=" ">
<polygon fill="white" stroke="#666666" points="371.5,-19 225.5,-19 225.5,0 371.5,0 371.5,-19"/>
<text text-anchor="middle" x="298.5" y="-7" font-family="Helvetica,sans-Serif" font-size="10.00">src/testing/test_functions.cpp</text>
</a>
</g>
</g>
<!-- Node25&#45;&gt;Node27 -->
<g id="edge41" class="edge">
<title>Node25&#45;&gt;Node27</title>
<path fill="none" stroke="#63b8ff" d="M268.82,-45.93C276.7,-36.53 285.32,-26.23 291.23,-19.18"/>
<polygon fill="#63b8ff" stroke="#63b8ff" points="266.32,-43.47 262.58,-53.38 271.69,-47.96 266.32,-43.47"/>
</g>
<!-- Node28 -->
<g id="node28" class="node">
<title>Node28</title>
<g id="a_node28"><a xlink:href="test__operators_8cpp.html" target="_top" xlink:title=" ">
<polygon fill="white" stroke="#666666" points="535.5,-19 389.5,-19 389.5,0 535.5,0 535.5,-19"/>
<text text-anchor="middle" x="462.5" y="-7" font-family="Helvetica,sans-Serif" font-size="10.00">src/testing/test_operators.cpp</text>
</a>
</g>
</g>
<!-- Node25&#45;&gt;Node28 -->
<g id="edge42" class="edge">
<title>Node25&#45;&gt;Node28</title>
<path fill="none" stroke="#63b8ff" d="M309.86,-52.42C348.86,-41.71 398.08,-28.19 429.92,-19.45"/>
<polygon fill="#63b8ff" stroke="#63b8ff" points="309.08,-49.01 300.36,-55.03 310.93,-55.76 309.08,-49.01"/>
</g>
<!-- Node30&#45;&gt;Node16 -->
<g id="edge53" class="edge">
<title>Node30&#45;&gt;Node16</title>
<path fill="none" stroke="#63b8ff" d="M817.27,-55.96C845.16,-44.86 884.49,-29.21 908.96,-19.47"/>
<polygon fill="#63b8ff" stroke="#63b8ff" points="816.23,-52.61 808.23,-59.56 818.82,-59.11 816.23,-52.61"/>
</g>
<!-- Node30&#45;&gt;Node24 -->
<g id="edge49" class="edge">
<title>Node30&#45;&gt;Node24</title>
<path fill="none" stroke="#63b8ff" d="M737.48,-57.76C732.11,-56.71 726.7,-55.76 721.5,-55 498.84,-22.51 440.67,-38.46 216.5,-19 213.61,-18.75 210.67,-18.49 207.7,-18.21"/>
<polygon fill="#63b8ff" stroke="#63b8ff" points="736.37,-61.1 746.87,-59.7 737.79,-54.25 736.37,-61.1"/>
</g>
<!-- Node30&#45;&gt;Node26 -->
<g id="edge48" class="edge">
<title>Node30&#45;&gt;Node26</title>
<path fill="none" stroke="#63b8ff" d="M750.12,-56.11C720.5,-45 678.51,-29.25 652.42,-19.47"/>
<polygon fill="#63b8ff" stroke="#63b8ff" points="748.8,-59.35 759.39,-59.58 751.26,-52.8 748.8,-59.35"/>
</g>
<!-- Node30&#45;&gt;Node27 -->
<g id="edge50" class="edge">
<title>Node30&#45;&gt;Node27</title>
<path fill="none" stroke="#63b8ff" d="M736.43,-57.73C731.41,-56.73 726.36,-55.79 721.5,-55 712.97,-53.61 490.61,-30.44 371.79,-18.1"/>
<polygon fill="#63b8ff" stroke="#63b8ff" points="735.34,-61.07 745.84,-59.69 736.77,-54.22 735.34,-61.07"/>
</g>
<!-- Node30&#45;&gt;Node28 -->
<g id="edge52" class="edge">
<title>Node30&#45;&gt;Node28</title>
<path fill="none" stroke="#63b8ff" d="M734.62,-57.68C730.19,-56.75 725.77,-55.84 721.5,-55 652.23,-41.36 572.06,-27.95 519.49,-19.48"/>
<polygon fill="#63b8ff" stroke="#63b8ff" points="733.59,-61.04 744.1,-59.72 735.06,-54.2 733.59,-61.04"/>
</g>
<!-- Node31 -->
<g id="node31" class="node">
<title>Node31</title>
<g id="a_node31"><a xlink:href="test__lexer_8cpp.html" target="_top" xlink:title=" ">
<polygon fill="white" stroke="#666666" points="847.5,-19 721.5,-19 721.5,0 847.5,0 847.5,-19"/>
<text text-anchor="middle" x="784.5" y="-7" font-family="Helvetica,sans-Serif" font-size="10.00">src/testing/test_lexer.cpp</text>
</a>
</g>
</g>
<!-- Node30&#45;&gt;Node31 -->
<g id="edge51" class="edge">
<title>Node30&#45;&gt;Node31</title>
<path fill="none" stroke="#63b8ff" d="M784.5,-49.16C784.5,-38.95 784.5,-27.04 784.5,-19.17"/>
<polygon fill="#63b8ff" stroke="#63b8ff" points="781,-48.85 784.5,-58.85 788,-48.85 781,-48.85"/>
</g>
</g>
</svg>
        <g id="navigator" transform="translate(0 0)" fill="#404254">
                <rect fill="#f2f5e9" fill-opacity="0.5" stroke="#606060" stroke-width=".5" x="0" y="0" width="60" height="60"/>
                <use id="zoomplus" xlink:href="#zoomPlus" x="17" y="9" onmousedown="handleZoom(evt,'in')"/>
                <use id="zoomminus" xlink:href="#zoomMin" x="42" y="9" onmousedown="handleZoom(evt,'out')"/>
                <use id="reset" xlink:href="#resetDef" x="30" y="36" onmousedown="handleReset()"/>
                <g id="arrowUp" xlink:href="#dirArrow" transform="translate(30 24)" onmousedown="handlePan(0,-1)">
                  <use xlink:href="#rim" fill="#404040">
                        <set attributeName="fill" to="#808080" begin="arrowUp.mouseover" end="arrowUp.mouseout"/>
                  </use>
                  <path fill="none" stroke="white" stroke-width="1.5" d="M0,-3.0v7 M-2.5,-0.5L0,-3.0L2.5,-0.5"/>
                </g>
                <g id="arrowRight" xlink:href="#dirArrow" transform="rotate(90) translate(36 -43)" onmousedown="handlePan(1,0)">
                  <use xlink:href="#rim" fill="#404040">
                        <set attributeName="fill" to="#808080" begin="arrowRight.mouseover" end="arrowRight.mouseout"/>
                  </use>
                  <path fill="none" stroke="white" stroke-width="1.5" d="M0,-3.0v7 M-2.5,-0.5L0,-3.0L2.5,-0.5"/>
                </g>
                <g id="arrowDown" xlink:href="#dirArrow" transform="rotate(180) translate(-30 -48)" onmousedown="handlePan(0,1)">
                  <use xlink:href="#rim" fill="#404040">
                        <set attributeName="fill" to="#808080" begin="arrowDown.mouseover" end="arrowDown.mouseout"/>
                  </use>
                  <path fill="none" stroke="white" stroke-width="1.5" d="M0,-3.0v7 M-2.5,-0.5L0,-3.0L2.5,-0.5"/>
                </g>
                <g id="arrowLeft" xlink:href="#dirArrow" transform="rotate(270) translate(-36 17)" onmousedown="handlePan(-1,0)">
                  <use xlink:href="#rim" fill="#404040">
                        <set attributeName="fill" to="#808080" begin="arrowLeft.mouseover" end="arrowLeft.mouseout"/>
                  </use>
                  <path fill="none" stroke="white" stroke-width="1.5" d="M0,-3.0v7 M-2.5,-0.5L0,-3.0L2.5,-0.5"/>
                </g>
        </g>
        <svg viewBox="0 0 15 15" width="100%" height="30px" preserveAspectRatio="xMaxYMin meet">
         <g id="arrow_out" transform="scale(0.3 0.3)">
          <a xlink:href="ast_8h__dep__incl_org.svg" target="_base">
           <rect id="button" ry="5" rx="5" y="6" x="6" height="38" width="38"
                fill="#f2f5e9" fill-opacity="0.5" stroke="#606060" stroke-width="1.0"/>
           <path id="arrow"
             d="M 11.500037,31.436501 C 11.940474,20.09759 22.043105,11.32322 32.158766,21.979434 L 37.068811,17.246167 C 37.068811,17.246167 37.088388,32 37.088388,32 L 22.160133,31.978069 C 22.160133,31.978069 26.997745,27.140456 26.997745,27.140456 C 18.528582,18.264221 13.291696,25.230495 11.500037,31.436501 z"
             style="fill:#404040;"/>
          </a>
         </g>
        </svg>
</svg>
