<?xml version="1.0" encoding="UTF-8" standalone="no"?>
<!DOCTYPE svg PUBLIC "-//W3C//DTD SVG 1.1//EN"
 "http://www.w3.org/Graphics/SVG/1.1/DTD/svg11.dtd">
<!-- Generated by graphviz version 7.1.0 (20230121.1956)
 -->
<!-- Title: /Users/nikolajbankejensen/Desktop/Kepler/src/core/evaluation/ast.h Pages: 1 -->
<svg width="722pt" height="335pt"
 viewBox="0.00 0.00 722.00 335.00" xmlns="http://www.w3.org/2000/svg" xmlns:xlink="http://www.w3.org/1999/xlink">
<g id="graph0" class="graph" transform="scale(1 1) rotate(0) translate(4 331)">
<title>/Users/nikolajbankejensen/Desktop/Kepler/src/core/evaluation/ast.h</title>
<!-- Node1 -->
<g id="node1" class="node">
<title>Node1</title>
<g id="a_node1"><a xlink:title=" ">
<polygon fill="#999999" stroke="#666666" points="292.5,-327 161.5,-327 161.5,-286 292.5,-286 292.5,-327"/>
<text text-anchor="start" x="169.5" y="-315" font-family="Helvetica,sans-Serif" font-size="10.00">/Users/nikolajbankejensen</text>
<text text-anchor="start" x="169.5" y="-304" font-family="Helvetica,sans-Serif" font-size="10.00">/Desktop/Kepler/src/core</text>
<text text-anchor="middle" x="227" y="-293" font-family="Helvetica,sans-Serif" font-size="10.00">/evaluation/ast.h</text>
</a>
</g>
</g>
<!-- Node2 -->
<g id="node2" class="node">
<title>Node2</title>
<g id="a_node2"><a xlink:title=" ">
<polygon fill="#e0e0e0" stroke="#999999" points="188.5,-19 147.5,-19 147.5,0 188.5,0 188.5,-19"/>
<text text-anchor="middle" x="168" y="-7" font-family="Helvetica,sans-Serif" font-size="10.00">string</text>
</a>
</g>
</g>
<!-- Node1&#45;&gt;Node2 -->
<g id="edge1" class="edge">
<title>Node1&#45;&gt;Node2</title>
<path fill="none" stroke="#63b8ff" d="M161.04,-296.24C94.01,-282.68 0,-250.32 0,-175.5 0,-175.5 0,-175.5 0,-118.5 0,-79.37 28.7,-77.09 61,-55 84.19,-39.14 113.92,-27.34 136.16,-19.89"/>
<polygon fill="#63b8ff" stroke="#63b8ff" points="137.14,-23.25 145.59,-16.86 135,-16.59 137.14,-23.25"/>
</g>
<!-- Node3 -->
<g id="node3" class="node">
<title>Node3</title>
<g id="a_node3"><a xlink:title=" ">
<polygon fill="#e0e0e0" stroke="#999999" points="603,-19 549,-19 549,0 603,0 603,-19"/>
<text text-anchor="middle" x="576" y="-7" font-family="Helvetica,sans-Serif" font-size="10.00">iostream</text>
</a>
</g>
</g>
<!-- Node1&#45;&gt;Node3 -->
<g id="edge2" class="edge">
<title>Node1&#45;&gt;Node3</title>
<path fill="none" stroke="#63b8ff" d="M292.93,-301.68C425.98,-292.18 714,-261.64 714,-175.5 714,-175.5 714,-175.5 714,-118.5 714,-67.5 654.83,-36.98 613.98,-21.99"/>
<polygon fill="#63b8ff" stroke="#63b8ff" points="615.29,-18.74 604.69,-18.75 612.98,-25.35 615.29,-18.74"/>
</g>
<!-- Node4 -->
<g id="node4" class="node">
<title>Node4</title>
<g id="a_node4"><a xlink:href="array_8h.html" target="_top" xlink:title=" ">
<polygon fill="white" stroke="#666666" points="133.5,-129 66.5,-129 66.5,-110 133.5,-110 133.5,-129"/>
<text text-anchor="middle" x="100" y="-117" font-family="Helvetica,sans-Serif" font-size="10.00">core/array.h</text>
</a>
</g>
</g>
<!-- Node1&#45;&gt;Node4 -->
<g id="edge3" class="edge">
<title>Node1&#45;&gt;Node4</title>
<path fill="none" stroke="#63b8ff" d="M161.07,-290.44C139.64,-282.14 118.03,-269.42 105,-250 82.81,-216.94 88.91,-167.7 94.79,-140.45"/>
<polygon fill="#63b8ff" stroke="#63b8ff" points="98.18,-141.32 97.1,-130.78 91.37,-139.69 98.18,-141.32"/>
</g>
<!-- Node5 -->
<g id="node5" class="node">
<title>Node5</title>
<g id="a_node5"><a xlink:href="datatypes_8h.html" target="_top" xlink:title=" ">
<polygon fill="white" stroke="#666666" points="202,-74 134,-74 134,-55 202,-55 202,-74"/>
<text text-anchor="middle" x="168" y="-62" font-family="Helvetica,sans-Serif" font-size="10.00">datatypes.h</text>
</a>
</g>
</g>
<!-- Node1&#45;&gt;Node5 -->
<g id="edge22" class="edge">
<title>Node1&#45;&gt;Node5</title>
<path fill="none" stroke="#63b8ff" d="M161.18,-292.49C135.42,-284.29 107.63,-271.1 89,-250 52.18,-208.31 64.17,-184.16 57,-129 55.91,-120.63 52.27,-116.99 57,-110 64.97,-98.21 96.25,-86.29 123.57,-77.75"/>
<polygon fill="#63b8ff" stroke="#63b8ff" points="124.57,-81.11 133.13,-74.86 122.54,-74.41 124.57,-81.11"/>
</g>
<!-- Node9 -->
<g id="node9" class="node">
<title>Node9</title>
<g id="a_node9"><a xlink:href="token_8h.html" target="_top" xlink:title=" ">
<polygon fill="white" stroke="#666666" points="298.5,-184 227.5,-184 227.5,-165 298.5,-165 298.5,-184"/>
<text text-anchor="middle" x="263" y="-172" font-family="Helvetica,sans-Serif" font-size="10.00">core/token.h</text>
</a>
</g>
</g>
<!-- Node1&#45;&gt;Node9 -->
<g id="edge9" class="edge">
<title>Node1&#45;&gt;Node9</title>
<path fill="none" stroke="#63b8ff" d="M239.21,-285.67C244.95,-275.39 251.33,-262.42 255,-250 260.3,-232.07 262.17,-210.78 262.79,-195.57"/>
<polygon fill="#63b8ff" stroke="#63b8ff" points="266.28,-196.01 263.03,-185.93 259.28,-195.84 266.28,-196.01"/>
</g>
<!-- Node15 -->
<g id="node15" class="node">
<title>Node15</title>
<g id="a_node15"><a xlink:href="position_8h.html" target="_top" xlink:title=" ">
<polygon fill="white" stroke="#666666" points="685.5,-129 626.5,-129 626.5,-110 685.5,-110 685.5,-129"/>
<text text-anchor="middle" x="656" y="-117" font-family="Helvetica,sans-Serif" font-size="10.00">position.h</text>
</a>
</g>
</g>
<!-- Node1&#45;&gt;Node15 -->
<g id="edge29" class="edge">
<title>Node1&#45;&gt;Node15</title>
<path fill="none" stroke="#63b8ff" d="M273.32,-285.53C361.31,-247.58 550.51,-165.99 624.98,-133.88"/>
<polygon fill="#63b8ff" stroke="#63b8ff" points="626.32,-137.11 634.12,-129.94 623.55,-130.68 626.32,-137.11"/>
</g>
<!-- Node16 -->
<g id="node16" class="node">
<title>Node16</title>
<g id="a_node16"><a xlink:title=" ">
<polygon fill="#e0e0e0" stroke="#999999" points="369,-184 317,-184 317,-165 369,-165 369,-184"/>
<text text-anchor="middle" x="343" y="-172" font-family="Helvetica,sans-Serif" font-size="10.00">memory</text>
</a>
</g>
</g>
<!-- Node1&#45;&gt;Node16 -->
<g id="edge23" class="edge">
<title>Node1&#45;&gt;Node16</title>
<path fill="none" stroke="#63b8ff" d="M244.62,-285.76C267.22,-260.42 306.07,-216.88 327.57,-192.79"/>
<polygon fill="#63b8ff" stroke="#63b8ff" points="330.08,-195.24 334.12,-185.45 324.86,-190.58 330.08,-195.24"/>
</g>
<!-- Node17 -->
<g id="node17" class="node">
<title>Node17</title>
<g id="a_node17"><a xlink:href="operation_8h.html" target="_top" xlink:title=" ">
<polygon fill="white" stroke="#666666" points="245.5,-250 114.5,-250 114.5,-220 245.5,-220 245.5,-250"/>
<text text-anchor="start" x="122.5" y="-238" font-family="Helvetica,sans-Serif" font-size="10.00">core/evaluation/operations</text>
<text text-anchor="middle" x="180" y="-227" font-family="Helvetica,sans-Serif" font-size="10.00">/operation.h</text>
</a>
</g>
</g>
<!-- Node1&#45;&gt;Node17 -->
<g id="edge24" class="edge">
<title>Node1&#45;&gt;Node17</title>
<path fill="none" stroke="#63b8ff" d="M213.66,-285.77C208.2,-277.69 201.83,-268.28 196.11,-259.82"/>
<polygon fill="#63b8ff" stroke="#63b8ff" points="199.14,-258.05 190.64,-251.73 193.34,-261.97 199.14,-258.05"/>
</g>
<!-- Node4&#45;&gt;Node5 -->
<g id="edge4" class="edge">
<title>Node4&#45;&gt;Node5</title>
<path fill="none" stroke="#63b8ff" d="M111.54,-109.51C121.46,-101.77 136.01,-90.43 147.86,-81.2"/>
<polygon fill="#63b8ff" stroke="#63b8ff" points="149.71,-84.2 155.44,-75.29 145.4,-78.68 149.71,-84.2"/>
</g>
<!-- Node8 -->
<g id="node8" class="node">
<title>Node8</title>
<g id="a_node8"><a xlink:title=" ">
<polygon fill="#e0e0e0" stroke="#999999" points="116,-74 70,-74 70,-55 116,-55 116,-74"/>
<text text-anchor="middle" x="93" y="-62" font-family="Helvetica,sans-Serif" font-size="10.00">variant</text>
</a>
</g>
</g>
<!-- Node4&#45;&gt;Node8 -->
<g id="edge8" class="edge">
<title>Node4&#45;&gt;Node8</title>
<path fill="none" stroke="#63b8ff" d="M98.84,-109.75C97.98,-103.19 96.76,-93.95 95.66,-85.6"/>
<polygon fill="#63b8ff" stroke="#63b8ff" points="99.16,-85.4 94.38,-75.94 92.22,-86.31 99.16,-85.4"/>
</g>
<!-- Node5&#45;&gt;Node2 -->
<g id="edge6" class="edge">
<title>Node5&#45;&gt;Node2</title>
<path fill="none" stroke="#63b8ff" d="M168,-54.75C168,-48.27 168,-39.16 168,-30.9"/>
<polygon fill="#63b8ff" stroke="#63b8ff" points="171.5,-30.96 168,-20.96 164.5,-30.96 171.5,-30.96"/>
</g>
<!-- Node6 -->
<g id="node6" class="node">
<title>Node6</title>
<g id="a_node6"><a xlink:title=" ">
<polygon fill="#e0e0e0" stroke="#999999" points="129,-19 85,-19 85,0 129,0 129,-19"/>
<text text-anchor="middle" x="107" y="-7" font-family="Helvetica,sans-Serif" font-size="10.00">vector</text>
</a>
</g>
</g>
<!-- Node5&#45;&gt;Node6 -->
<g id="edge5" class="edge">
<title>Node5&#45;&gt;Node6</title>
<path fill="none" stroke="#63b8ff" d="M157.65,-54.51C148.92,-46.93 136.21,-35.88 125.7,-26.75"/>
<polygon fill="#63b8ff" stroke="#63b8ff" points="128.18,-24.27 118.34,-20.35 123.59,-29.55 128.18,-24.27"/>
</g>
<!-- Node7 -->
<g id="node7" class="node">
<title>Node7</title>
<g id="a_node7"><a xlink:title=" ">
<polygon fill="#e0e0e0" stroke="#999999" points="259.5,-19 206.5,-19 206.5,0 259.5,0 259.5,-19"/>
<text text-anchor="middle" x="233" y="-7" font-family="Helvetica,sans-Serif" font-size="10.00">complex</text>
</a>
</g>
</g>
<!-- Node5&#45;&gt;Node7 -->
<g id="edge7" class="edge">
<title>Node5&#45;&gt;Node7</title>
<path fill="none" stroke="#63b8ff" d="M179.03,-54.51C188.42,-46.85 202.15,-35.66 213.41,-26.47"/>
<polygon fill="#63b8ff" stroke="#63b8ff" points="215.43,-29.35 220.96,-20.31 211,-23.92 215.43,-29.35"/>
</g>
<!-- Node9&#45;&gt;Node4 -->
<g id="edge14" class="edge">
<title>Node9&#45;&gt;Node4</title>
<path fill="none" stroke="#63b8ff" d="M235.35,-164.51C208.69,-155.84 168.12,-142.65 138.34,-132.97"/>
<polygon fill="#63b8ff" stroke="#63b8ff" points="139.55,-129.68 128.95,-129.91 137.38,-136.33 139.55,-129.68"/>
</g>
<!-- Node9&#45;&gt;Node5 -->
<g id="edge12" class="edge">
<title>Node9&#45;&gt;Node5</title>
<path fill="none" stroke="#63b8ff" d="M253.62,-164.56C244.51,-155.76 230.42,-141.81 219,-129 205.65,-114.03 191.44,-96.15 181.42,-83.19"/>
<polygon fill="#63b8ff" stroke="#63b8ff" points="184.43,-81.37 175.57,-75.56 178.88,-85.63 184.43,-81.37"/>
</g>
<!-- Node10 -->
<g id="node10" class="node">
<title>Node10</title>
<g id="a_node10"><a xlink:href="token__type_8h.html" target="_top" xlink:title=" ">
<polygon fill="white" stroke="#666666" points="474.5,-74 401.5,-74 401.5,-55 474.5,-55 474.5,-74"/>
<text text-anchor="middle" x="438" y="-62" font-family="Helvetica,sans-Serif" font-size="10.00">token_type.h</text>
</a>
</g>
</g>
<!-- Node9&#45;&gt;Node10 -->
<g id="edge10" class="edge">
<title>Node9&#45;&gt;Node10</title>
<path fill="none" stroke="#63b8ff" d="M298.83,-165.2C342.14,-154.87 410.33,-137.56 419,-129 430.54,-117.61 435.13,-99.53 436.93,-85.57"/>
<polygon fill="#63b8ff" stroke="#63b8ff" points="440.4,-85.99 437.78,-75.72 433.43,-85.38 440.4,-85.99"/>
</g>
<!-- Node11 -->
<g id="node11" class="node">
<title>Node11</title>
<g id="a_node11"><a xlink:title=" ">
<polygon fill="#e0e0e0" stroke="#999999" points="549.5,-129 466.5,-129 466.5,-110 549.5,-110 549.5,-129"/>
<text text-anchor="middle" x="508" y="-117" font-family="Helvetica,sans-Serif" font-size="10.00">uni_algo/conv.h</text>
</a>
</g>
</g>
<!-- Node9&#45;&gt;Node11 -->
<g id="edge13" class="edge">
<title>Node9&#45;&gt;Node11</title>
<path fill="none" stroke="#63b8ff" d="M298.89,-165.74C340.14,-156.81 408.24,-142.08 455.46,-131.87"/>
<polygon fill="#63b8ff" stroke="#63b8ff" points="456.18,-135.29 465.21,-129.76 454.7,-128.45 456.18,-135.29"/>
</g>
<!-- Node12 -->
<g id="node12" class="node">
<title>Node12</title>
<g id="a_node12"><a xlink:href="conversion_8h.html" target="_top" xlink:title=" ">
<polygon fill="white" stroke="#666666" points="409.5,-129 296.5,-129 296.5,-110 409.5,-110 409.5,-129"/>
<text text-anchor="middle" x="353" y="-117" font-family="Helvetica,sans-Serif" font-size="10.00">interface/conversion.h</text>
</a>
</g>
</g>
<!-- Node9&#45;&gt;Node12 -->
<g id="edge15" class="edge">
<title>Node9&#45;&gt;Node12</title>
<path fill="none" stroke="#63b8ff" d="M278.27,-164.51C291.93,-156.47 312.2,-144.53 328.18,-135.11"/>
<polygon fill="#63b8ff" stroke="#63b8ff" points="329.81,-138.22 336.65,-130.13 326.26,-132.18 329.81,-138.22"/>
</g>
<!-- Node13 -->
<g id="node13" class="node">
<title>Node13</title>
<g id="a_node13"><a xlink:title=" ">
<polygon fill="#e0e0e0" stroke="#999999" points="608,-129 568,-129 568,-110 608,-110 608,-129"/>
<text text-anchor="middle" x="588" y="-117" font-family="Helvetica,sans-Serif" font-size="10.00">utility</text>
</a>
</g>
</g>
<!-- Node9&#45;&gt;Node13 -->
<g id="edge19" class="edge">
<title>Node9&#45;&gt;Node13</title>
<path fill="none" stroke="#63b8ff" d="M298.84,-166.58C301.93,-166.03 305.02,-165.49 308,-165 415.59,-147.13 446.87,-152.53 556.59,-129.24"/>
<polygon fill="#63b8ff" stroke="#63b8ff" points="557.3,-132.67 566.33,-127.14 555.82,-125.82 557.3,-132.67"/>
</g>
<!-- Node14 -->
<g id="node14" class="node">
<title>Node14</title>
<g id="a_node14"><a xlink:title=" ">
<polygon fill="#e0e0e0" stroke="#999999" points="278,-129 228,-129 228,-110 278,-110 278,-129"/>
<text text-anchor="middle" x="253" y="-117" font-family="Helvetica,sans-Serif" font-size="10.00">optional</text>
</a>
</g>
</g>
<!-- Node9&#45;&gt;Node14 -->
<g id="edge20" class="edge">
<title>Node9&#45;&gt;Node14</title>
<path fill="none" stroke="#63b8ff" d="M261.35,-164.75C260.11,-158.19 258.37,-148.95 256.79,-140.6"/>
<polygon fill="#63b8ff" stroke="#63b8ff" points="260.26,-140.11 254.97,-130.93 253.38,-141.4 260.26,-140.11"/>
</g>
<!-- Node9&#45;&gt;Node15 -->
<g id="edge21" class="edge">
<title>Node9&#45;&gt;Node15</title>
<path fill="none" stroke="#63b8ff" d="M298.82,-166.5C301.92,-165.96 305.01,-165.46 308,-165 441.08,-144.71 478.66,-151.37 614.95,-129.17"/>
<polygon fill="#63b8ff" stroke="#63b8ff" points="615.46,-132.63 624.75,-127.55 614.32,-125.73 615.46,-132.63"/>
</g>
<!-- Node10&#45;&gt;Node3 -->
<g id="edge11" class="edge">
<title>Node10&#45;&gt;Node3</title>
<path fill="none" stroke="#63b8ff" d="M461.41,-54.51C483.65,-45.97 517.33,-33.03 542.42,-23.4"/>
<polygon fill="#63b8ff" stroke="#63b8ff" points="543.44,-26.75 551.52,-19.9 540.93,-20.22 543.44,-26.75"/>
</g>
<!-- Node12&#45;&gt;Node2 -->
<g id="edge16" class="edge">
<title>Node12&#45;&gt;Node2</title>
<path fill="none" stroke="#63b8ff" d="M337.86,-109.66C306.02,-91.07 231.84,-47.77 192.89,-25.03"/>
<polygon fill="#63b8ff" stroke="#63b8ff" points="195.06,-22.24 184.66,-20.22 191.53,-28.29 195.06,-22.24"/>
</g>
<!-- Node12&#45;&gt;Node5 -->
<g id="edge17" class="edge">
<title>Node12&#45;&gt;Node5</title>
<path fill="none" stroke="#63b8ff" d="M321.62,-109.51C290.96,-100.73 244.09,-87.3 210.19,-77.59"/>
<polygon fill="#63b8ff" stroke="#63b8ff" points="211.26,-74.25 200.68,-74.86 209.33,-80.98 211.26,-74.25"/>
</g>
<!-- Node12&#45;&gt;Node10 -->
<g id="edge18" class="edge">
<title>Node12&#45;&gt;Node10</title>
<path fill="none" stroke="#63b8ff" d="M367.42,-109.51C380.2,-101.54 399.1,-89.75 414.13,-80.38"/>
<polygon fill="#63b8ff" stroke="#63b8ff" points="415.88,-83.42 422.51,-75.16 412.17,-77.48 415.88,-83.42"/>
</g>
<!-- Node17&#45;&gt;Node4 -->
<g id="edge26" class="edge">
<title>Node17&#45;&gt;Node4</title>
<path fill="none" stroke="#63b8ff" d="M169.87,-219.63C155.35,-199.03 128.63,-161.12 112.78,-138.63"/>
<polygon fill="#63b8ff" stroke="#63b8ff" points="115.65,-136.62 107.02,-130.47 109.93,-140.66 115.65,-136.62"/>
</g>
<!-- Node17&#45;&gt;Node5 -->
<g id="edge25" class="edge">
<title>Node17&#45;&gt;Node5</title>
<path fill="none" stroke="#63b8ff" d="M178.98,-219.63C176.84,-189.57 171.88,-119.97 169.43,-85.54"/>
<polygon fill="#63b8ff" stroke="#63b8ff" points="172.93,-85.45 168.73,-75.73 165.95,-85.95 172.93,-85.45"/>
</g>
<!-- Node17&#45;&gt;Node9 -->
<g id="edge27" class="edge">
<title>Node17&#45;&gt;Node9</title>
<path fill="none" stroke="#63b8ff" d="M200.52,-219.54C212.94,-210.78 228.77,-199.63 241.39,-190.73"/>
<polygon fill="#63b8ff" stroke="#63b8ff" points="243.3,-193.67 249.45,-185.05 239.26,-187.95 243.3,-193.67"/>
</g>
<!-- Node17&#45;&gt;Node16 -->
<g id="edge28" class="edge">
<title>Node17&#45;&gt;Node16</title>
<path fill="none" stroke="#63b8ff" d="M220.29,-219.54C247.06,-209.93 281.89,-197.43 307.59,-188.21"/>
<polygon fill="#63b8ff" stroke="#63b8ff" points="308.7,-191.53 316.93,-184.86 306.33,-184.94 308.7,-191.53"/>
</g>
</g>
</svg>
