<?xml version="1.0" encoding="UTF-8" standalone="no"?>
<!DOCTYPE svg PUBLIC "-//W3C//DTD SVG 1.1//EN"
 "http://www.w3.org/Graphics/SVG/1.1/DTD/svg11.dtd">
<!-- Generated by graphviz version 7.1.0 (20230121.1956)
 -->
<!-- Title: src/core/evaluation/ast.cpp Pages: 1 -->
<!--zoomable 500 -->
<svg id="main" version="1.1" xmlns="http://www.w3.org/2000/svg" xmlns:xlink="http://www.w3.org/1999/xlink" xml:space="preserve" onload="init(evt)">
<style type="text/css"><![CDATA[
.edge:hover path { stroke: red; }
.edge:hover polygon { stroke: red; fill: red; }
]]></style>
<script type="text/javascript"><![CDATA[
var edges = document.getElementsByTagName('g');
if (edges && edges.length) {
  for (var i=0;i<edges.length;i++) {
    if (edges[i].id.substr(0,4)=='edge') {
      edges[i].setAttribute('class','edge');
    }
  }
}
]]></script>
        <defs>
                <circle id="rim" cx="0" cy="0" r="7"/>
                <circle id="rim2" cx="0" cy="0" r="3.5"/>
                <g id="zoomPlus">
                        <use xlink:href="#rim" fill="#404040">
                                <set attributeName="fill" to="#808080" begin="zoomplus.mouseover" end="zoomplus.mouseout"/>
                        </use>
                        <path d="M-4,0h8M0,-4v8" fill="none" stroke="white" stroke-width="1.5" pointer-events="none"/>
                </g>
                <g id="zoomMin">
                        <use xlink:href="#rim" fill="#404040">
                                <set attributeName="fill" to="#808080" begin="zoomminus.mouseover" end="zoomminus.mouseout"/>
                        </use>
                        <path d="M-4,0h8" fill="none" stroke="white" stroke-width="1.5" pointer-events="none"/>
                </g>
                <g id="dirArrow">
                        <path fill="none" stroke="white" stroke-width="1.5" d="M0,-3.0v7 M-2.5,-0.5L0,-3.0L2.5,-0.5"/>
                </g>
               <g id="resetDef">
                       <use xlink:href="#rim2" fill="#404040">
                               <set attributeName="fill" to="#808080" begin="reset.mouseover" end="reset.mouseout"/>
                       </use>
               </g>
        </defs>

<script type="text/javascript">
var viewWidth = 1176;
var viewHeight = 500;
var sectionId = 'dynsection-0';
</script>
<script xlink:href="svgpan.js"/>
<svg id="graph" class="graph">
<g id="viewport">
<title>src/core/evaluation/ast.cpp</title>
<!-- Node1 -->
<g id="node1" class="node">
<title>Node1</title>
<g id="a_node1"><a xlink:title=" ">
<polygon fill="#999999" stroke="#666666" points="481,-492 382,-492 382,-462 481,-462 481,-492"/>
<text text-anchor="start" x="390" y="-480" font-family="Helvetica,sans-Serif" font-size="10.00">src/core/evaluation</text>
<text text-anchor="middle" x="431.5" y="-469" font-family="Helvetica,sans-Serif" font-size="10.00">/ast.cpp</text>
</a>
</g>
</g>
<!-- Node2 -->
<g id="node2" class="node">
<title>Node2</title>
<g id="a_node2"><a xlink:href="ast_8h.html" target="_top" xlink:title=" ">
<polygon fill="white" stroke="#666666" points="450.5,-305 412.5,-305 412.5,-286 450.5,-286 450.5,-305"/>
<text text-anchor="middle" x="431.5" y="-293" font-family="Helvetica,sans-Serif" font-size="10.00">ast.h</text>
</a>
</g>
</g>
<!-- Node1&#45;&gt;Node2 -->
<g id="edge1" class="edge">
<title>Node1&#45;&gt;Node2</title>
<path fill="none" stroke="#63b8ff" d="M431.5,-461.61C431.5,-429.76 431.5,-353.22 431.5,-316.64"/>
<polygon fill="#63b8ff" stroke="#63b8ff" points="435,-317.01 431.5,-307.01 428,-317.01 435,-317.01"/>
</g>
<!-- Node19 -->
<g id="node19" class="node">
<title>Node19</title>
<g id="a_node19"><a xlink:href="node__visitor_8h.html" target="_top" xlink:title=" ">
<polygon fill="white" stroke="#666666" points="107,-371 0,-371 0,-341 107,-341 107,-371"/>
<text text-anchor="start" x="8" y="-359" font-family="Helvetica,sans-Serif" font-size="10.00">core/evaluation/node</text>
<text text-anchor="middle" x="53.5" y="-348" font-family="Helvetica,sans-Serif" font-size="10.00">_visitor.h</text>
</a>
</g>
</g>
<!-- Node1&#45;&gt;Node19 -->
<g id="edge31" class="edge">
<title>Node1&#45;&gt;Node19</title>
<path fill="none" stroke="#63b8ff" d="M385.53,-461.53C316.24,-439.71 185.17,-398.45 110.1,-374.82"/>
<polygon fill="#63b8ff" stroke="#63b8ff" points="111.48,-371.58 100.89,-371.92 109.38,-378.26 111.48,-371.58"/>
</g>
<!-- Node20 -->
<g id="node20" class="node">
<title>Node20</title>
<g id="a_node20"><a xlink:href="symbol__table_8h.html" target="_top" xlink:title=" ">
<polygon fill="white" stroke="#666666" points="595.5,-426 491.5,-426 491.5,-407 595.5,-407 595.5,-426"/>
<text text-anchor="middle" x="543.5" y="-414" font-family="Helvetica,sans-Serif" font-size="10.00">core/symbol_table.h</text>
</a>
</g>
</g>
<!-- Node1&#45;&gt;Node20 -->
<g id="edge35" class="edge">
<title>Node1&#45;&gt;Node20</title>
<path fill="none" stroke="#63b8ff" d="M459.19,-461.54C476.67,-452.4 499.16,-440.66 516.51,-431.6"/>
<polygon fill="#63b8ff" stroke="#63b8ff" points="517.98,-434.78 525.22,-427.05 514.74,-428.57 517.98,-434.78"/>
</g>
<!-- Node3 -->
<g id="node3" class="node">
<title>Node3</title>
<g id="a_node3"><a xlink:title=" ">
<polygon fill="#e0e0e0" stroke="#999999" points="1066,-19 1025,-19 1025,0 1066,0 1066,-19"/>
<text text-anchor="middle" x="1045.5" y="-7" font-family="Helvetica,sans-Serif" font-size="10.00">string</text>
</a>
</g>
</g>
<!-- Node2&#45;&gt;Node3 -->
<g id="edge2" class="edge">
<title>Node2&#45;&gt;Node3</title>
<path fill="none" stroke="#63b8ff" d="M450.8,-293.35C525.72,-288.4 803.47,-265.21 1014.5,-184 1060.39,-166.34 1085.84,-171.54 1110.5,-129 1131.45,-92.86 1091.83,-49.68 1065.75,-26.73"/>
<polygon fill="#63b8ff" stroke="#63b8ff" points="1068.26,-24.27 1058.37,-20.48 1063.74,-29.61 1068.26,-24.27"/>
</g>
<!-- Node4 -->
<g id="node4" class="node">
<title>Node4</title>
<g id="a_node4"><a xlink:title=" ">
<polygon fill="#e0e0e0" stroke="#999999" points="934.5,-19 880.5,-19 880.5,0 934.5,0 934.5,-19"/>
<text text-anchor="middle" x="907.5" y="-7" font-family="Helvetica,sans-Serif" font-size="10.00">iostream</text>
</a>
</g>
</g>
<!-- Node2&#45;&gt;Node4 -->
<g id="edge3" class="edge">
<title>Node2&#45;&gt;Node4</title>
<path fill="none" stroke="#63b8ff" d="M450.83,-291.1C534.93,-275.87 867.4,-211.08 926.5,-129 937.68,-113.47 923.03,-59.22 913.87,-29.8"/>
<polygon fill="#63b8ff" stroke="#63b8ff" points="917.32,-29.12 910.94,-20.67 910.66,-31.26 917.32,-29.12"/>
</g>
<!-- Node5 -->
<g id="node5" class="node">
<title>Node5</title>
<g id="a_node5"><a xlink:href="array_8h.html" target="_top" xlink:title=" ">
<polygon fill="white" stroke="#666666" points="201,-129 134,-129 134,-110 201,-110 201,-129"/>
<text text-anchor="middle" x="167.5" y="-117" font-family="Helvetica,sans-Serif" font-size="10.00">core/array.h</text>
</a>
</g>
</g>
<!-- Node2&#45;&gt;Node5 -->
<g id="edge4" class="edge">
<title>Node2&#45;&gt;Node5</title>
<path fill="none" stroke="#63b8ff" d="M412.3,-293.02C364.33,-288.96 240.91,-276.16 210.5,-250 178.26,-222.27 170.09,-169.76 168.09,-140.85"/>
<polygon fill="#63b8ff" stroke="#63b8ff" points="171.59,-140.73 167.61,-130.91 164.59,-141.07 171.59,-140.73"/>
</g>
<!-- Node6 -->
<g id="node6" class="node">
<title>Node6</title>
<g id="a_node6"><a xlink:href="datatypes_8h.html" target="_top" xlink:title=" ">
<polygon fill="white" stroke="#666666" points="491.5,-74 423.5,-74 423.5,-55 491.5,-55 491.5,-74"/>
<text text-anchor="middle" x="457.5" y="-62" font-family="Helvetica,sans-Serif" font-size="10.00">datatypes.h</text>
</a>
</g>
</g>
<!-- Node2&#45;&gt;Node6 -->
<g id="edge23" class="edge">
<title>Node2&#45;&gt;Node6</title>
<path fill="none" stroke="#63b8ff" d="M426,-285.59C406.29,-253.13 341.4,-141.47 361.5,-110 372.82,-92.27 393.23,-81.5 412.32,-75.01"/>
<polygon fill="#63b8ff" stroke="#63b8ff" points="413.34,-78.36 421.89,-72.1 411.3,-71.66 413.34,-78.36"/>
</g>
<!-- Node10 -->
<g id="node10" class="node">
<title>Node10</title>
<g id="a_node10"><a xlink:href="token_8h.html" target="_top" xlink:title=" ">
<polygon fill="white" stroke="#666666" points="531,-184 460,-184 460,-165 531,-165 531,-184"/>
<text text-anchor="middle" x="495.5" y="-172" font-family="Helvetica,sans-Serif" font-size="10.00">core/token.h</text>
</a>
</g>
</g>
<!-- Node2&#45;&gt;Node10 -->
<g id="edge10" class="edge">
<title>Node2&#45;&gt;Node10</title>
<path fill="none" stroke="#63b8ff" d="M436.31,-285.56C446.69,-266.25 471.39,-220.33 485.38,-194.31"/>
<polygon fill="#63b8ff" stroke="#63b8ff" points="488.44,-196.02 490.09,-185.56 482.27,-192.71 488.44,-196.02"/>
</g>
<!-- Node16 -->
<g id="node16" class="node">
<title>Node16</title>
<g id="a_node16"><a xlink:href="position_8h.html" target="_top" xlink:title=" ">
<polygon fill="white" stroke="#666666" points="429,-129 370,-129 370,-110 429,-110 429,-129"/>
<text text-anchor="middle" x="399.5" y="-117" font-family="Helvetica,sans-Serif" font-size="10.00">position.h</text>
</a>
</g>
</g>
<!-- Node2&#45;&gt;Node16 -->
<g id="edge30" class="edge">
<title>Node2&#45;&gt;Node16</title>
<path fill="none" stroke="#63b8ff" d="M429.87,-285.63C424.93,-258.75 410.03,-177.73 403.1,-140.1"/>
<polygon fill="#63b8ff" stroke="#63b8ff" points="406.61,-139.83 401.36,-130.63 399.73,-141.1 406.61,-139.83"/>
</g>
<!-- Node17 -->
<g id="node17" class="node">
<title>Node17</title>
<g id="a_node17"><a xlink:title=" ">
<polygon fill="#e0e0e0" stroke="#999999" points="247.5,-184 195.5,-184 195.5,-165 247.5,-165 247.5,-184"/>
<text text-anchor="middle" x="221.5" y="-172" font-family="Helvetica,sans-Serif" font-size="10.00">memory</text>
</a>
</g>
</g>
<!-- Node2&#45;&gt;Node17 -->
<g id="edge24" class="edge">
<title>Node2&#45;&gt;Node17</title>
<path fill="none" stroke="#63b8ff" d="M412.11,-293.23C365.58,-289.74 249.65,-278.33 225.5,-250 212.78,-235.07 213.71,-211.74 216.59,-195.17"/>
<polygon fill="#63b8ff" stroke="#63b8ff" points="219.98,-196.06 218.66,-185.55 213.13,-194.59 219.98,-196.06"/>
</g>
<!-- Node18 -->
<g id="node18" class="node">
<title>Node18</title>
<g id="a_node18"><a xlink:href="operation_8h.html" target="_top" xlink:title=" ">
<polygon fill="white" stroke="#666666" points="365,-250 234,-250 234,-220 365,-220 365,-250"/>
<text text-anchor="start" x="242" y="-238" font-family="Helvetica,sans-Serif" font-size="10.00">core/evaluation/operations</text>
<text text-anchor="middle" x="299.5" y="-227" font-family="Helvetica,sans-Serif" font-size="10.00">/operation.h</text>
</a>
</g>
</g>
<!-- Node2&#45;&gt;Node18 -->
<g id="edge25" class="edge">
<title>Node2&#45;&gt;Node18</title>
<path fill="none" stroke="#63b8ff" d="M412.02,-285.87C393.8,-277.79 365.95,-265.45 342.52,-255.07"/>
<polygon fill="#63b8ff" stroke="#63b8ff" points="344.06,-251.92 333.5,-251.07 341.22,-258.32 344.06,-251.92"/>
</g>
<!-- Node5&#45;&gt;Node6 -->
<g id="edge5" class="edge">
<title>Node5&#45;&gt;Node6</title>
<path fill="none" stroke="#63b8ff" d="M201.33,-112.32C253.58,-102.77 353.95,-84.42 412.34,-73.75"/>
<polygon fill="#63b8ff" stroke="#63b8ff" points="412.74,-77.24 421.94,-72 411.48,-70.35 412.74,-77.24"/>
</g>
<!-- Node9 -->
<g id="node9" class="node">
<title>Node9</title>
<g id="a_node9"><a xlink:title=" ">
<polygon fill="#e0e0e0" stroke="#999999" points="190.5,-74 144.5,-74 144.5,-55 190.5,-55 190.5,-74"/>
<text text-anchor="middle" x="167.5" y="-62" font-family="Helvetica,sans-Serif" font-size="10.00">variant</text>
</a>
</g>
</g>
<!-- Node5&#45;&gt;Node9 -->
<g id="edge9" class="edge">
<title>Node5&#45;&gt;Node9</title>
<path fill="none" stroke="#63b8ff" d="M167.5,-109.75C167.5,-103.27 167.5,-94.16 167.5,-85.9"/>
<polygon fill="#63b8ff" stroke="#63b8ff" points="171,-85.96 167.5,-75.96 164,-85.96 171,-85.96"/>
</g>
<!-- Node6&#45;&gt;Node3 -->
<g id="edge7" class="edge">
<title>Node6&#45;&gt;Node3</title>
<path fill="none" stroke="#63b8ff" d="M491.65,-60.42C596.23,-51 911.11,-22.61 1013.18,-13.41"/>
<polygon fill="#63b8ff" stroke="#63b8ff" points="1013.39,-16.91 1023.04,-12.52 1012.76,-9.94 1013.39,-16.91"/>
</g>
<!-- Node7 -->
<g id="node7" class="node">
<title>Node7</title>
<g id="a_node7"><a xlink:title=" ">
<polygon fill="#e0e0e0" stroke="#999999" points="512.5,-19 468.5,-19 468.5,0 512.5,0 512.5,-19"/>
<text text-anchor="middle" x="490.5" y="-7" font-family="Helvetica,sans-Serif" font-size="10.00">vector</text>
</a>
</g>
</g>
<!-- Node6&#45;&gt;Node7 -->
<g id="edge6" class="edge">
<title>Node6&#45;&gt;Node7</title>
<path fill="none" stroke="#63b8ff" d="M462.95,-54.75C467.27,-47.81 473.46,-37.86 478.88,-29.16"/>
<polygon fill="#63b8ff" stroke="#63b8ff" points="481.82,-31.07 484.13,-20.73 475.88,-27.37 481.82,-31.07"/>
</g>
<!-- Node8 -->
<g id="node8" class="node">
<title>Node8</title>
<g id="a_node8"><a xlink:title=" ">
<polygon fill="#e0e0e0" stroke="#999999" points="450,-19 397,-19 397,0 450,0 450,-19"/>
<text text-anchor="middle" x="423.5" y="-7" font-family="Helvetica,sans-Serif" font-size="10.00">complex</text>
</a>
</g>
</g>
<!-- Node6&#45;&gt;Node8 -->
<g id="edge8" class="edge">
<title>Node6&#45;&gt;Node8</title>
<path fill="none" stroke="#63b8ff" d="M451.89,-54.75C447.38,-47.73 440.91,-37.64 435.29,-28.87"/>
<polygon fill="#63b8ff" stroke="#63b8ff" points="438.4,-27.24 430.05,-20.72 432.51,-31.02 438.4,-27.24"/>
</g>
<!-- Node10&#45;&gt;Node5 -->
<g id="edge15" class="edge">
<title>Node10&#45;&gt;Node5</title>
<path fill="none" stroke="#63b8ff" d="M459.77,-167.73C399.63,-158.01 278.28,-138.4 212.45,-127.76"/>
<polygon fill="#63b8ff" stroke="#63b8ff" points="213.14,-124.33 202.71,-126.19 212.02,-131.24 213.14,-124.33"/>
</g>
<!-- Node10&#45;&gt;Node6 -->
<g id="edge13" class="edge">
<title>Node10&#45;&gt;Node6</title>
<path fill="none" stroke="#63b8ff" d="M492.39,-164.66C486.32,-147.42 472.77,-108.9 464.46,-85.27"/>
<polygon fill="#63b8ff" stroke="#63b8ff" points="467.78,-84.16 461.16,-75.89 461.17,-86.48 467.78,-84.16"/>
</g>
<!-- Node11 -->
<g id="node11" class="node">
<title>Node11</title>
<g id="a_node11"><a xlink:href="token__type_8h.html" target="_top" xlink:title=" ">
<polygon fill="white" stroke="#666666" points="879,-74 806,-74 806,-55 879,-55 879,-74"/>
<text text-anchor="middle" x="842.5" y="-62" font-family="Helvetica,sans-Serif" font-size="10.00">token_type.h</text>
</a>
</g>
</g>
<!-- Node10&#45;&gt;Node11 -->
<g id="edge11" class="edge">
<title>Node10&#45;&gt;Node11</title>
<path fill="none" stroke="#63b8ff" d="M495.34,-164.52C495.63,-150.54 498.41,-123.76 514.5,-110 555.61,-74.85 713.61,-67.33 794.37,-65.81"/>
<polygon fill="#63b8ff" stroke="#63b8ff" points="794.25,-69.32 804.19,-65.66 794.13,-62.32 794.25,-69.32"/>
</g>
<!-- Node12 -->
<g id="node12" class="node">
<title>Node12</title>
<g id="a_node12"><a xlink:title=" ">
<polygon fill="#e0e0e0" stroke="#999999" points="733,-129 650,-129 650,-110 733,-110 733,-129"/>
<text text-anchor="middle" x="691.5" y="-117" font-family="Helvetica,sans-Serif" font-size="10.00">uni_algo/conv.h</text>
</a>
</g>
</g>
<!-- Node10&#45;&gt;Node12 -->
<g id="edge14" class="edge">
<title>Node10&#45;&gt;Node12</title>
<path fill="none" stroke="#63b8ff" d="M528.75,-164.51C561.51,-155.65 611.75,-142.07 647.74,-132.33"/>
<polygon fill="#63b8ff" stroke="#63b8ff" points="648.22,-135.83 656.95,-129.84 646.39,-129.07 648.22,-135.83"/>
</g>
<!-- Node13 -->
<g id="node13" class="node">
<title>Node13</title>
<g id="a_node13"><a xlink:href="conversion_8h.html" target="_top" xlink:title=" ">
<polygon fill="white" stroke="#666666" points="917.5,-129 789.5,-129 789.5,-110 917.5,-110 917.5,-129"/>
<text text-anchor="middle" x="853.5" y="-117" font-family="Helvetica,sans-Serif" font-size="10.00">core/helpers/conversion.h</text>
</a>
</g>
</g>
<!-- Node10&#45;&gt;Node13 -->
<g id="edge16" class="edge">
<title>Node10&#45;&gt;Node13</title>
<path fill="none" stroke="#63b8ff" d="M531.47,-168.18C589.74,-159.55 705.87,-142.36 781.59,-131.15"/>
<polygon fill="#63b8ff" stroke="#63b8ff" points="782.04,-134.62 791.42,-129.69 781.02,-127.69 782.04,-134.62"/>
</g>
<!-- Node14 -->
<g id="node14" class="node">
<title>Node14</title>
<g id="a_node14"><a xlink:title=" ">
<polygon fill="#e0e0e0" stroke="#999999" points="631.5,-129 591.5,-129 591.5,-110 631.5,-110 631.5,-129"/>
<text text-anchor="middle" x="611.5" y="-117" font-family="Helvetica,sans-Serif" font-size="10.00">utility</text>
</a>
</g>
</g>
<!-- Node10&#45;&gt;Node14 -->
<g id="edge20" class="edge">
<title>Node10&#45;&gt;Node14</title>
<path fill="none" stroke="#63b8ff" d="M515.18,-164.51C533.45,-156.16 560.91,-143.61 581.85,-134.05"/>
<polygon fill="#63b8ff" stroke="#63b8ff" points="583.1,-137.33 590.74,-129.99 580.19,-130.96 583.1,-137.33"/>
</g>
<!-- Node15 -->
<g id="node15" class="node">
<title>Node15</title>
<g id="a_node15"><a xlink:title=" ">
<polygon fill="#e0e0e0" stroke="#999999" points="573.5,-129 523.5,-129 523.5,-110 573.5,-110 573.5,-129"/>
<text text-anchor="middle" x="548.5" y="-117" font-family="Helvetica,sans-Serif" font-size="10.00">optional</text>
</a>
</g>
</g>
<!-- Node10&#45;&gt;Node15 -->
<g id="edge21" class="edge">
<title>Node10&#45;&gt;Node15</title>
<path fill="none" stroke="#63b8ff" d="M504.25,-164.75C511.65,-157.35 522.46,-146.54 531.55,-137.45"/>
<polygon fill="#63b8ff" stroke="#63b8ff" points="533.89,-140.06 538.49,-130.51 528.94,-135.11 533.89,-140.06"/>
</g>
<!-- Node10&#45;&gt;Node16 -->
<g id="edge22" class="edge">
<title>Node10&#45;&gt;Node16</title>
<path fill="none" stroke="#63b8ff" d="M479.21,-164.51C464.51,-156.39 442.61,-144.3 425.48,-134.85"/>
<polygon fill="#63b8ff" stroke="#63b8ff" points="427.32,-131.86 416.87,-130.09 423.93,-137.99 427.32,-131.86"/>
</g>
<!-- Node11&#45;&gt;Node4 -->
<g id="edge12" class="edge">
<title>Node11&#45;&gt;Node4</title>
<path fill="none" stroke="#63b8ff" d="M853.53,-54.51C862.92,-46.85 876.65,-35.66 887.91,-26.47"/>
<polygon fill="#63b8ff" stroke="#63b8ff" points="889.93,-29.35 895.46,-20.31 885.5,-23.92 889.93,-29.35"/>
</g>
<!-- Node13&#45;&gt;Node3 -->
<g id="edge17" class="edge">
<title>Node13&#45;&gt;Node3</title>
<path fill="none" stroke="#63b8ff" d="M869.21,-109.66C902.26,-91.07 979.25,-47.77 1019.67,-25.03"/>
<polygon fill="#63b8ff" stroke="#63b8ff" points="1021.25,-28.16 1028.25,-20.2 1017.82,-22.05 1021.25,-28.16"/>
</g>
<!-- Node13&#45;&gt;Node6 -->
<g id="edge18" class="edge">
<title>Node13&#45;&gt;Node6</title>
<path fill="none" stroke="#63b8ff" d="M789.44,-109.93C709.09,-99.17 573.34,-81 502.92,-71.58"/>
<polygon fill="#63b8ff" stroke="#63b8ff" points="503.67,-68.15 493.29,-70.29 502.74,-75.09 503.67,-68.15"/>
</g>
<!-- Node13&#45;&gt;Node11 -->
<g id="edge19" class="edge">
<title>Node13&#45;&gt;Node11</title>
<path fill="none" stroke="#63b8ff" d="M851.68,-109.75C850.32,-103.19 848.4,-93.95 846.67,-85.6"/>
<polygon fill="#63b8ff" stroke="#63b8ff" points="850.12,-85 844.66,-75.92 843.27,-86.43 850.12,-85"/>
</g>
<!-- Node18&#45;&gt;Node5 -->
<g id="edge27" class="edge">
<title>Node18&#45;&gt;Node5</title>
<path fill="none" stroke="#63b8ff" d="M293.46,-219.71C286.45,-204.52 273.62,-180.58 256.5,-165 241.58,-151.42 221.76,-140.97 204.61,-133.62"/>
<polygon fill="#63b8ff" stroke="#63b8ff" points="206.32,-130.54 195.74,-130.01 203.69,-137.02 206.32,-130.54"/>
</g>
<!-- Node18&#45;&gt;Node6 -->
<g id="edge26" class="edge">
<title>Node18&#45;&gt;Node6</title>
<path fill="none" stroke="#63b8ff" d="M298.54,-219.75C297.63,-194.39 299.49,-141.2 327.5,-110 348.93,-86.13 383.72,-75.06 411.91,-69.93"/>
<polygon fill="#63b8ff" stroke="#63b8ff" points="412.33,-73.4 421.65,-68.36 411.22,-66.49 412.33,-73.4"/>
</g>
<!-- Node18&#45;&gt;Node10 -->
<g id="edge28" class="edge">
<title>Node18&#45;&gt;Node10</title>
<path fill="none" stroke="#63b8ff" d="M347.95,-219.54C380.76,-209.75 423.63,-196.95 454.7,-187.68"/>
<polygon fill="#63b8ff" stroke="#63b8ff" points="455.54,-191.08 464.12,-184.87 453.54,-184.37 455.54,-191.08"/>
</g>
<!-- Node18&#45;&gt;Node17 -->
<g id="edge29" class="edge">
<title>Node18&#45;&gt;Node17</title>
<path fill="none" stroke="#63b8ff" d="M280.22,-219.54C268.66,-210.87 253.96,-199.85 242.16,-191"/>
<polygon fill="#63b8ff" stroke="#63b8ff" points="244.38,-188.28 234.28,-185.08 240.18,-193.88 244.38,-188.28"/>
</g>
<!-- Node19&#45;&gt;Node2 -->
<g id="edge34" class="edge">
<title>Node19&#45;&gt;Node2</title>
<path fill="none" stroke="#63b8ff" d="M107.26,-346.68C187.68,-334.23 336.71,-311.17 400.85,-301.24"/>
<polygon fill="#63b8ff" stroke="#63b8ff" points="401.3,-304.71 410.65,-299.73 400.23,-297.8 401.3,-304.71"/>
</g>
<!-- Node19&#45;&gt;Node5 -->
<g id="edge32" class="edge">
<title>Node19&#45;&gt;Node5</title>
<path fill="none" stroke="#63b8ff" d="M51.05,-340.51C46.13,-306.38 38.55,-219.71 77.5,-165 88.47,-149.59 106.3,-139.25 123.21,-132.45"/>
<polygon fill="#63b8ff" stroke="#63b8ff" points="123.95,-135.91 132.13,-129.18 121.54,-129.34 123.95,-135.91"/>
</g>
<!-- Node19&#45;&gt;Node18 -->
<g id="edge33" class="edge">
<title>Node19&#45;&gt;Node18</title>
<path fill="none" stroke="#63b8ff" d="M83.17,-340.65C127.22,-319.34 210.01,-279.29 259.41,-255.39"/>
<polygon fill="#63b8ff" stroke="#63b8ff" points="260.88,-258.57 268.36,-251.06 257.83,-252.27 260.88,-258.57"/>
</g>
<!-- Node20&#45;&gt;Node2 -->
<g id="edge39" class="edge">
<title>Node20&#45;&gt;Node2</title>
<path fill="none" stroke="#63b8ff" d="M535.08,-406.56C516.51,-386.82 471.74,-339.25 447.59,-313.6"/>
<polygon fill="#63b8ff" stroke="#63b8ff" points="450.15,-311.21 440.75,-306.33 445.05,-316.01 450.15,-311.21"/>
</g>
<!-- Node20&#45;&gt;Node3 -->
<g id="edge37" class="edge">
<title>Node20&#45;&gt;Node3</title>
<path fill="none" stroke="#63b8ff" d="M595.9,-411.03C746.1,-397.54 1167.5,-354.5 1167.5,-296.5 1167.5,-296.5 1167.5,-296.5 1167.5,-118.5 1167.5,-70.18 1113.18,-38.25 1077.03,-22.36"/>
<polygon fill="#63b8ff" stroke="#63b8ff" points="1078.44,-19.16 1067.87,-18.53 1075.74,-25.62 1078.44,-19.16"/>
</g>
<!-- Node20&#45;&gt;Node5 -->
<g id="edge38" class="edge">
<title>Node20&#45;&gt;Node5</title>
<path fill="none" stroke="#63b8ff" d="M503.21,-406.51C440.98,-391.54 318.99,-357.82 226.5,-305 193.64,-286.23 178.96,-283.57 161.5,-250 143.21,-214.84 152.92,-166.77 160.77,-140.19"/>
<polygon fill="#63b8ff" stroke="#63b8ff" points="164.07,-141.35 163.78,-130.76 157.4,-139.22 164.07,-141.35"/>
</g>
<!-- Node21 -->
<g id="node21" class="node">
<title>Node21</title>
<g id="a_node21"><a xlink:title=" ">
<polygon fill="#e0e0e0" stroke="#999999" points="623,-305 588,-305 588,-286 623,-286 623,-305"/>
<text text-anchor="middle" x="605.5" y="-293" font-family="Helvetica,sans-Serif" font-size="10.00">map</text>
</a>
</g>
</g>
<!-- Node20&#45;&gt;Node21 -->
<g id="edge36" class="edge">
<title>Node20&#45;&gt;Node21</title>
<path fill="none" stroke="#63b8ff" d="M552.53,-406.7C560.8,-398.22 572.87,-384.69 580.5,-371 590.25,-353.51 597.04,-331.59 601.06,-316.07"/>
<polygon fill="#63b8ff" stroke="#63b8ff" points="604.38,-317.21 603.33,-306.66 597.58,-315.56 604.38,-317.21"/>
</g>
<!-- Node22 -->
<g id="node22" class="node">
<title>Node22</title>
<g id="a_node22"><a xlink:href="error_8h.html" target="_top" xlink:title=" ">
<polygon fill="white" stroke="#666666" points="1005.5,-184 961.5,-184 961.5,-165 1005.5,-165 1005.5,-184"/>
<text text-anchor="middle" x="983.5" y="-172" font-family="Helvetica,sans-Serif" font-size="10.00">error.h</text>
</a>
</g>
</g>
<!-- Node20&#45;&gt;Node22 -->
<g id="edge40" class="edge">
<title>Node20&#45;&gt;Node22</title>
<path fill="none" stroke="#63b8ff" d="M559.95,-406.53C626.39,-370.29 875.35,-234.49 957.22,-189.83"/>
<polygon fill="#63b8ff" stroke="#63b8ff" points="958.77,-192.97 965.88,-185.11 955.42,-186.83 958.77,-192.97"/>
</g>
<!-- Node25 -->
<g id="node25" class="node">
<title>Node25</title>
<g id="a_node25"><a xlink:href="symbol_8h.html" target="_top" xlink:title=" ">
<polygon fill="white" stroke="#666666" points="571.5,-365.5 515.5,-365.5 515.5,-346.5 571.5,-346.5 571.5,-365.5"/>
<text text-anchor="middle" x="543.5" y="-353.5" font-family="Helvetica,sans-Serif" font-size="10.00">symbol.h</text>
</a>
</g>
</g>
<!-- Node20&#45;&gt;Node25 -->
<g id="edge48" class="edge">
<title>Node20&#45;&gt;Node25</title>
<path fill="none" stroke="#63b8ff" d="M543.5,-406.87C543.5,-399 543.5,-387.1 543.5,-376.89"/>
<polygon fill="#63b8ff" stroke="#63b8ff" points="547,-377.18 543.5,-367.18 540,-377.18 547,-377.18"/>
</g>
<!-- Node22&#45;&gt;Node4 -->
<g id="edge41" class="edge">
<title>Node22&#45;&gt;Node4</title>
<path fill="none" stroke="#63b8ff" d="M980.56,-164.74C976.33,-152.36 968.08,-129.14 959.5,-110 946.58,-81.17 929.17,-48.96 918.14,-29.21"/>
<polygon fill="#63b8ff" stroke="#63b8ff" points="921.3,-27.69 913.34,-20.69 915.2,-31.12 921.3,-27.69"/>
</g>
<!-- Node22&#45;&gt;Node6 -->
<g id="edge46" class="edge">
<title>Node22&#45;&gt;Node6</title>
<path fill="none" stroke="#63b8ff" d="M961.07,-170.44C923.11,-164.86 844.11,-151.48 780.5,-129 762.7,-122.71 760.49,-115.75 742.5,-110 660.38,-83.76 559.84,-72.69 502.78,-68.25"/>
<polygon fill="#63b8ff" stroke="#63b8ff" points="503.36,-64.78 493.13,-67.54 502.85,-71.77 503.36,-64.78"/>
</g>
<!-- Node22&#45;&gt;Node12 -->
<g id="edge47" class="edge">
<title>Node22&#45;&gt;Node12</title>
<path fill="none" stroke="#63b8ff" d="M961.07,-169.43C915.09,-161.08 809.03,-141.83 744.5,-130.12"/>
<polygon fill="#63b8ff" stroke="#63b8ff" points="745.3,-126.71 734.84,-128.37 744.05,-133.6 745.3,-126.71"/>
</g>
<!-- Node22&#45;&gt;Node14 -->
<g id="edge43" class="edge">
<title>Node22&#45;&gt;Node14</title>
<path fill="none" stroke="#63b8ff" d="M961.31,-171.75C908.11,-167.31 769.03,-154.3 642.74,-128.92"/>
<polygon fill="#63b8ff" stroke="#63b8ff" points="643.72,-125.55 633.22,-126.97 642.31,-132.4 643.72,-125.55"/>
</g>
<!-- Node23 -->
<g id="node23" class="node">
<title>Node23</title>
<g id="a_node23"><a xlink:title=" ">
<polygon fill="#e0e0e0" stroke="#999999" points="1101.5,-129 1049.5,-129 1049.5,-110 1101.5,-110 1101.5,-129"/>
<text text-anchor="middle" x="1075.5" y="-117" font-family="Helvetica,sans-Serif" font-size="10.00">sstream</text>
</a>
</g>
</g>
<!-- Node22&#45;&gt;Node23 -->
<g id="edge42" class="edge">
<title>Node22&#45;&gt;Node23</title>
<path fill="none" stroke="#63b8ff" d="M999.11,-164.51C1013.2,-156.39 1034.19,-144.3 1050.6,-134.85"/>
<polygon fill="#63b8ff" stroke="#63b8ff" points="1051.89,-138.14 1058.81,-130.11 1048.4,-132.07 1051.89,-138.14"/>
</g>
<!-- Node24 -->
<g id="node24" class="node">
<title>Node24</title>
<g id="a_node24"><a xlink:href="error__type_8h.html" target="_top" xlink:title=" ">
<polygon fill="white" stroke="#666666" points="1079.5,-74 1011.5,-74 1011.5,-55 1079.5,-55 1079.5,-74"/>
<text text-anchor="middle" x="1045.5" y="-62" font-family="Helvetica,sans-Serif" font-size="10.00">error_type.h</text>
</a>
</g>
</g>
<!-- Node22&#45;&gt;Node24 -->
<g id="edge44" class="edge">
<title>Node22&#45;&gt;Node24</title>
<path fill="none" stroke="#63b8ff" d="M988.57,-164.66C998.61,-147.18 1021.19,-107.84 1034.71,-84.3"/>
<polygon fill="#63b8ff" stroke="#63b8ff" points="1037.66,-86.19 1039.6,-75.77 1031.59,-82.7 1037.66,-86.19"/>
</g>
<!-- Node24&#45;&gt;Node3 -->
<g id="edge45" class="edge">
<title>Node24&#45;&gt;Node3</title>
<path fill="none" stroke="#63b8ff" d="M1045.5,-54.75C1045.5,-48.27 1045.5,-39.16 1045.5,-30.9"/>
<polygon fill="#63b8ff" stroke="#63b8ff" points="1049,-30.96 1045.5,-20.96 1042,-30.96 1049,-30.96"/>
</g>
<!-- Node25&#45;&gt;Node2 -->
<g id="edge52" class="edge">
<title>Node25&#45;&gt;Node2</title>
<path fill="none" stroke="#63b8ff" d="M526.49,-346.12C508.48,-336.71 479.79,-321.72 458.65,-310.68"/>
<polygon fill="#63b8ff" stroke="#63b8ff" points="460.5,-307.7 450.01,-306.17 457.26,-313.9 460.5,-307.7"/>
</g>
<!-- Node25&#45;&gt;Node5 -->
<g id="edge51" class="edge">
<title>Node25&#45;&gt;Node5</title>
<path fill="none" stroke="#63b8ff" d="M515.17,-355.57C447.52,-355.3 275.35,-344.8 183.5,-250 155.2,-220.79 158.72,-168.87 163.35,-140.45"/>
<polygon fill="#63b8ff" stroke="#63b8ff" points="166.78,-141.18 165.17,-130.7 159.9,-139.89 166.78,-141.18"/>
</g>
<!-- Node25&#45;&gt;Node15 -->
<g id="edge50" class="edge">
<title>Node25&#45;&gt;Node15</title>
<path fill="none" stroke="#63b8ff" d="M543.69,-346.09C544.42,-312.07 547.02,-189.75 548.07,-140.88"/>
<polygon fill="#63b8ff" stroke="#63b8ff" points="551.56,-141 548.28,-130.93 544.57,-140.85 551.56,-141"/>
</g>
<!-- Node25&#45;&gt;Node21 -->
<g id="edge49" class="edge">
<title>Node25&#45;&gt;Node21</title>
<path fill="none" stroke="#63b8ff" d="M552.92,-346.12C562.11,-337.44 576.34,-324.02 587.67,-313.32"/>
<polygon fill="#63b8ff" stroke="#63b8ff" points="590.02,-315.92 594.89,-306.51 585.22,-310.82 590.02,-315.92"/>
</g>
</g>
</svg>
        <g id="navigator" transform="translate(0 0)" fill="#404254">
                <rect fill="#f2f5e9" fill-opacity="0.5" stroke="#606060" stroke-width=".5" x="0" y="0" width="60" height="60"/>
                <use id="zoomplus" xlink:href="#zoomPlus" x="17" y="9" onmousedown="handleZoom(evt,'in')"/>
                <use id="zoomminus" xlink:href="#zoomMin" x="42" y="9" onmousedown="handleZoom(evt,'out')"/>
                <use id="reset" xlink:href="#resetDef" x="30" y="36" onmousedown="handleReset()"/>
                <g id="arrowUp" xlink:href="#dirArrow" transform="translate(30 24)" onmousedown="handlePan(0,-1)">
                  <use xlink:href="#rim" fill="#404040">
                        <set attributeName="fill" to="#808080" begin="arrowUp.mouseover" end="arrowUp.mouseout"/>
                  </use>
                  <path fill="none" stroke="white" stroke-width="1.5" d="M0,-3.0v7 M-2.5,-0.5L0,-3.0L2.5,-0.5"/>
                </g>
                <g id="arrowRight" xlink:href="#dirArrow" transform="rotate(90) translate(36 -43)" onmousedown="handlePan(1,0)">
                  <use xlink:href="#rim" fill="#404040">
                        <set attributeName="fill" to="#808080" begin="arrowRight.mouseover" end="arrowRight.mouseout"/>
                  </use>
                  <path fill="none" stroke="white" stroke-width="1.5" d="M0,-3.0v7 M-2.5,-0.5L0,-3.0L2.5,-0.5"/>
                </g>
                <g id="arrowDown" xlink:href="#dirArrow" transform="rotate(180) translate(-30 -48)" onmousedown="handlePan(0,1)">
                  <use xlink:href="#rim" fill="#404040">
                        <set attributeName="fill" to="#808080" begin="arrowDown.mouseover" end="arrowDown.mouseout"/>
                  </use>
                  <path fill="none" stroke="white" stroke-width="1.5" d="M0,-3.0v7 M-2.5,-0.5L0,-3.0L2.5,-0.5"/>
                </g>
                <g id="arrowLeft" xlink:href="#dirArrow" transform="rotate(270) translate(-36 17)" onmousedown="handlePan(-1,0)">
                  <use xlink:href="#rim" fill="#404040">
                        <set attributeName="fill" to="#808080" begin="arrowLeft.mouseover" end="arrowLeft.mouseout"/>
                  </use>
                  <path fill="none" stroke="white" stroke-width="1.5" d="M0,-3.0v7 M-2.5,-0.5L0,-3.0L2.5,-0.5"/>
                </g>
        </g>
        <svg viewBox="0 0 15 15" width="100%" height="30px" preserveAspectRatio="xMaxYMin meet">
         <g id="arrow_out" transform="scale(0.3 0.3)">
          <a xlink:href="ast_8cpp__incl_org.svg" target="_base">
           <rect id="button" ry="5" rx="5" y="6" x="6" height="38" width="38"
                fill="#f2f5e9" fill-opacity="0.5" stroke="#606060" stroke-width="1.0"/>
           <path id="arrow"
             d="M 11.500037,31.436501 C 11.940474,20.09759 22.043105,11.32322 32.158766,21.979434 L 37.068811,17.246167 C 37.068811,17.246167 37.088388,32 37.088388,32 L 22.160133,31.978069 C 22.160133,31.978069 26.997745,27.140456 26.997745,27.140456 C 18.528582,18.264221 13.291696,25.230495 11.500037,31.436501 z"
             style="fill:#404040;"/>
          </a>
         </g>
        </svg>
</svg>
