<?xml version="1.0" encoding="UTF-8" standalone="no"?>
<!DOCTYPE svg PUBLIC "-//W3C//DTD SVG 1.1//EN"
 "http://www.w3.org/Graphics/SVG/1.1/DTD/svg11.dtd">
<!-- Generated by graphviz version 7.1.0 (20230121.1956)
 -->
<!-- Title: kepler::SymbolTable::set Pages: 1 -->
<svg width="435pt" height="79pt"
 viewBox="0.00 0.00 435.00 78.50" xmlns="http://www.w3.org/2000/svg" xmlns:xlink="http://www.w3.org/1999/xlink">
<g id="graph0" class="graph" transform="scale(1 1) rotate(0) translate(4 74.5)">
<title>kepler::SymbolTable::set</title>
<!-- Node1 -->
<g id="node1" class="node">
<title>Node1</title>
<g id="a_node1"><a xlink:title=" ">
<polygon fill="#999999" stroke="#666666" points="125,-47 0,-47 0,-28 125,-28 125,-47"/>
<text text-anchor="middle" x="62.5" y="-35" font-family="Helvetica,sans-Serif" font-size="10.00">kepler::SymbolTable::set</text>
</a>
</g>
</g>
<!-- Node2 -->
<g id="node2" class="node">
<title>Node2</title>
<g id="a_node2"><a xlink:href="classkepler_1_1_symbol_table.html#a57403652693faf5adf05509f540520e9" target="_top" xlink:title=" ">
<polygon fill="white" stroke="#666666" points="427,-52.5 322,-52.5 322,-22.5 427,-22.5 427,-52.5"/>
<text text-anchor="start" x="330" y="-40.5" font-family="Helvetica,sans-Serif" font-size="10.00">kepler::SymbolTable</text>
<text text-anchor="middle" x="374.5" y="-29.5" font-family="Helvetica,sans-Serif" font-size="10.00">::contains</text>
</a>
</g>
</g>
<!-- Node1&#45;&gt;Node2 -->
<g id="edge1" class="edge">
<title>Node1&#45;&gt;Node2</title>
<path fill="none" stroke="#63b8ff" d="M125.33,-44.07C137.16,-45.08 149.45,-45.97 161,-46.5 216.5,-49.06 230.52,-49.35 286,-46.5 293.88,-46.1 302.14,-45.49 310.31,-44.78"/>
<polygon fill="#63b8ff" stroke="#63b8ff" points="310.61,-48.26 320.24,-43.85 309.96,-41.29 310.61,-48.26"/>
</g>
<!-- Node3 -->
<g id="node3" class="node">
<title>Node3</title>
<g id="a_node3"><a xlink:href="classkepler_1_1_symbol_table.html#a928b41896a0c0f1b5eef23ae3f35c3b3" target="_top" xlink:title=" ">
<polygon fill="white" stroke="#666666" points="286,-19 161,-19 161,0 286,0 286,-19"/>
<text text-anchor="middle" x="223.5" y="-7" font-family="Helvetica,sans-Serif" font-size="10.00">kepler::SymbolTable::set</text>
</a>
</g>
</g>
<!-- Node1&#45;&gt;Node3 -->
<g id="edge3" class="edge">
<title>Node1&#45;&gt;Node3</title>
<path fill="none" stroke="#63b8ff" d="M120.01,-27.55C131.3,-25.56 143.28,-23.45 154.9,-21.4"/>
<polygon fill="#63b8ff" stroke="#63b8ff" points="155.18,-24.91 164.42,-19.73 153.96,-18.02 155.18,-24.91"/>
</g>
<!-- Node2&#45;&gt;Node2 -->
<g id="edge2" class="edge">
<title>Node2&#45;&gt;Node2</title>
<path fill="none" stroke="#63b8ff" d="M347.96,-52.78C342.06,-61.91 350.91,-70.5 374.5,-70.5 387.4,-70.5 395.9,-67.93 399.98,-64.11"/>
<polygon fill="#63b8ff" stroke="#63b8ff" points="403.45,-64.57 400.9,-54.28 396.48,-63.91 403.45,-64.57"/>
</g>
<!-- Node3&#45;&gt;Node2 -->
<g id="edge4" class="edge">
<title>Node3&#45;&gt;Node2</title>
<path fill="none" stroke="#63b8ff" d="M277.45,-19.45C288.13,-21.46 299.45,-23.59 310.44,-25.65"/>
<polygon fill="#63b8ff" stroke="#63b8ff" points="309.76,-29.08 320.23,-27.49 311.05,-22.2 309.76,-29.08"/>
</g>
<!-- Node3&#45;&gt;Node3 -->
<g id="edge5" class="edge">
<title>Node3&#45;&gt;Node3</title>
<path fill="none" stroke="#63b8ff" d="M199.86,-19.37C189.08,-27.94 196.96,-37 223.5,-37 238.02,-37 246.95,-34.29 250.3,-30.43"/>
<polygon fill="#63b8ff" stroke="#63b8ff" points="253.67,-29.48 247.56,-20.82 246.94,-31.4 253.67,-29.48"/>
</g>
</g>
</svg>
