<?xml version="1.0" encoding="UTF-8" standalone="no"?>
<!DOCTYPE svg PUBLIC "-//W3C//DTD SVG 1.1//EN"
 "http://www.w3.org/Graphics/SVG/1.1/DTD/svg11.dtd">
<!-- Generated by graphviz version 7.1.0 (20230121.1956)
 -->
<!-- Title: kepler::SymbolTable::set Pages: 1 -->
<svg width="274pt" height="56pt"
 viewBox="0.00 0.00 274.00 56.00" xmlns="http://www.w3.org/2000/svg" xmlns:xlink="http://www.w3.org/1999/xlink">
<g id="graph0" class="graph" transform="scale(1 1) rotate(0) translate(4 52)">
<title>kepler::SymbolTable::set</title>
<!-- Node1 -->
<g id="node1" class="node">
<title>Node1</title>
<g id="a_node1"><a xlink:title=" ">
<polygon fill="#999999" stroke="#666666" points="125,-24.5 0,-24.5 0,-5.5 125,-5.5 125,-24.5"/>
<text text-anchor="middle" x="62.5" y="-12.5" font-family="Helvetica,sans-Serif" font-size="10.00">kepler::SymbolTable::set</text>
</a>
</g>
</g>
<!-- Node1&#45;&gt;Node1 -->
<g id="edge3" class="edge">
<title>Node1&#45;&gt;Node1</title>
<path fill="none" stroke="#63b8ff" d="M38.86,-24.87C28.08,-33.44 35.96,-42.5 62.5,-42.5 77.02,-42.5 85.95,-39.79 89.3,-35.93"/>
<polygon fill="#63b8ff" stroke="#63b8ff" points="92.67,-34.98 86.56,-26.32 85.94,-36.9 92.67,-34.98"/>
</g>
<!-- Node2 -->
<g id="node2" class="node">
<title>Node2</title>
<g id="a_node2"><a xlink:href="classkepler_1_1_symbol_table.html#a57403652693faf5adf05509f540520e9" target="_top" xlink:title=" ">
<polygon fill="white" stroke="#666666" points="266,-30 161,-30 161,0 266,0 266,-30"/>
<text text-anchor="start" x="169" y="-18" font-family="Helvetica,sans-Serif" font-size="10.00">kepler::SymbolTable</text>
<text text-anchor="middle" x="213.5" y="-7" font-family="Helvetica,sans-Serif" font-size="10.00">::contains</text>
</a>
</g>
</g>
<!-- Node1&#45;&gt;Node2 -->
<g id="edge1" class="edge">
<title>Node1&#45;&gt;Node2</title>
<path fill="none" stroke="#63b8ff" d="M125.39,-15C133.35,-15 141.49,-15 149.46,-15"/>
<polygon fill="#63b8ff" stroke="#63b8ff" points="149.45,-18.5 159.45,-15 149.45,-11.5 149.45,-18.5"/>
</g>
<!-- Node2&#45;&gt;Node2 -->
<g id="edge2" class="edge">
<title>Node2&#45;&gt;Node2</title>
<path fill="none" stroke="#63b8ff" d="M186.96,-30.28C181.06,-39.41 189.91,-48 213.5,-48 226.4,-48 234.9,-45.43 238.98,-41.61"/>
<polygon fill="#63b8ff" stroke="#63b8ff" points="242.45,-42.07 239.9,-31.78 235.48,-41.41 242.45,-42.07"/>
</g>
</g>
</svg>
