<?xml version="1.0" encoding="UTF-8" standalone="no"?>
<!DOCTYPE svg PUBLIC "-//W3C//DTD SVG 1.1//EN"
 "http://www.w3.org/Graphics/SVG/1.1/DTD/svg11.dtd">
<!-- Generated by graphviz version 7.1.0 (20230121.1956)
 -->
<!-- Title: parser_fixture::run Pages: 1 -->
<!--zoomable 209 -->
<svg id="main" version="1.1" xmlns="http://www.w3.org/2000/svg" xmlns:xlink="http://www.w3.org/1999/xlink" xml:space="preserve" onload="init(evt)">
<style type="text/css"><![CDATA[
.edge:hover path { stroke: red; }
.edge:hover polygon { stroke: red; fill: red; }
]]></style>
<script type="text/javascript"><![CDATA[
var edges = document.getElementsByTagName('g');
if (edges && edges.length) {
  for (var i=0;i<edges.length;i++) {
    if (edges[i].id.substr(0,4)=='edge') {
      edges[i].setAttribute('class','edge');
    }
  }
}
]]></script>
        <defs>
                <circle id="rim" cx="0" cy="0" r="7"/>
                <circle id="rim2" cx="0" cy="0" r="3.5"/>
                <g id="zoomPlus">
                        <use xlink:href="#rim" fill="#404040">
                                <set attributeName="fill" to="#808080" begin="zoomplus.mouseover" end="zoomplus.mouseout"/>
                        </use>
                        <path d="M-4,0h8M0,-4v8" fill="none" stroke="white" stroke-width="1.5" pointer-events="none"/>
                </g>
                <g id="zoomMin">
                        <use xlink:href="#rim" fill="#404040">
                                <set attributeName="fill" to="#808080" begin="zoomminus.mouseover" end="zoomminus.mouseout"/>
                        </use>
                        <path d="M-4,0h8" fill="none" stroke="white" stroke-width="1.5" pointer-events="none"/>
                </g>
                <g id="dirArrow">
                        <path fill="none" stroke="white" stroke-width="1.5" d="M0,-3.0v7 M-2.5,-0.5L0,-3.0L2.5,-0.5"/>
                </g>
               <g id="resetDef">
                       <use xlink:href="#rim2" fill="#404040">
                               <set attributeName="fill" to="#808080" begin="reset.mouseover" end="reset.mouseout"/>
                       </use>
               </g>
        </defs>

<script type="text/javascript">
var viewWidth = 510;
var viewHeight = 209;
var sectionId = 'dynsection-3';
</script>
<script xlink:href="svgpan.js"/>
<svg id="graph" class="graph">
<g id="viewport">
<title>parser_fixture::run</title>
<!-- Node1 -->
<g id="node1" class="node">
<title>Node1</title>
<g id="a_node1"><a xlink:title=" ">
<polygon fill="#999999" stroke="#666666" points="95,-120.5 0,-120.5 0,-101.5 95,-101.5 95,-120.5"/>
<text text-anchor="middle" x="47.5" y="-108.5" font-family="Helvetica,sans-Serif" font-size="10.00">parser_fixture::run</text>
</a>
</g>
</g>
<!-- Node2 -->
<g id="node2" class="node">
<title>Node2</title>
<g id="a_node2"><a xlink:href="classkepler_1_1_parser.html#a95c4ec7bfd2c105b1cd43f0906641f3f" target="_top" xlink:title=" ">
<polygon fill="white" stroke="#666666" points="240.5,-200.5 133.5,-200.5 133.5,-181.5 240.5,-181.5 240.5,-200.5"/>
<text text-anchor="middle" x="187" y="-188.5" font-family="Helvetica,sans-Serif" font-size="10.00">kepler::Parser::parse</text>
</a>
</g>
</g>
<!-- Node1&#45;&gt;Node2 -->
<g id="edge1" class="edge">
<title>Node1&#45;&gt;Node2</title>
<path fill="none" stroke="#63b8ff" d="M58.93,-120.66C73.88,-134.04 102.72,-158.26 131,-173 133.66,-174.39 136.46,-175.7 139.31,-176.93"/>
<polygon fill="#63b8ff" stroke="#63b8ff" points="137.8,-180.1 148.39,-180.48 140.36,-173.58 137.8,-180.1"/>
</g>
<!-- Node3 -->
<g id="node3" class="node">
<title>Node3</title>
<g id="a_node3"><a xlink:href="classkepler_1_1error.html#a9d1264b80888d725ef312a662ee4e5be" target="_top" xlink:title=" ">
<polygon fill="white" stroke="#666666" points="243,-163.5 131,-163.5 131,-144.5 243,-144.5 243,-163.5"/>
<text text-anchor="middle" x="187" y="-151.5" font-family="Helvetica,sans-Serif" font-size="10.00">kepler::error::to_string</text>
</a>
</g>
</g>
<!-- Node1&#45;&gt;Node3 -->
<g id="edge2" class="edge">
<title>Node1&#45;&gt;Node3</title>
<path fill="none" stroke="#63b8ff" d="M80.39,-120.97C99.13,-126.83 123.07,-134.32 143.41,-140.68"/>
<polygon fill="#63b8ff" stroke="#63b8ff" points="142.25,-143.98 152.84,-143.63 144.34,-137.3 142.25,-143.98"/>
</g>
<!-- Node8 -->
<g id="node8" class="node">
<title>Node8</title>
<g id="a_node8"><a xlink:href="structkepler_1_1_statements.html#a5f8b0f5c5da61b9663c7eadefa0ba61a" target="_top" xlink:title=" ">
<polygon fill="white" stroke="#666666" points="236.5,-126 137.5,-126 137.5,-96 236.5,-96 236.5,-126"/>
<text text-anchor="start" x="145.5" y="-114" font-family="Helvetica,sans-Serif" font-size="10.00">kepler::Statements</text>
<text text-anchor="middle" x="187" y="-103" font-family="Helvetica,sans-Serif" font-size="10.00">::to_string</text>
</a>
</g>
</g>
<!-- Node1&#45;&gt;Node8 -->
<g id="edge7" class="edge">
<title>Node1&#45;&gt;Node8</title>
<path fill="none" stroke="#63b8ff" d="M95.44,-111C105.27,-111 115.77,-111 126.01,-111"/>
<polygon fill="#63b8ff" stroke="#63b8ff" points="125.89,-114.5 135.89,-111 125.89,-107.5 125.89,-114.5"/>
</g>
<!-- Node9 -->
<g id="node9" class="node">
<title>Node9</title>
<g id="a_node9"><a xlink:href="classkepler_1_1_tokenizer.html#a218312e24753d8d2e66d499bdbcce55c" target="_top" xlink:title=" ">
<polygon fill="white" stroke="#666666" points="235.5,-78 138.5,-78 138.5,-48 235.5,-48 235.5,-78"/>
<text text-anchor="start" x="146.5" y="-66" font-family="Helvetica,sans-Serif" font-size="10.00">kepler::Tokenizer::</text>
<text text-anchor="middle" x="187" y="-55" font-family="Helvetica,sans-Serif" font-size="10.00">tokenize</text>
</a>
</g>
</g>
<!-- Node1&#45;&gt;Node9 -->
<g id="edge8" class="edge">
<title>Node1&#45;&gt;Node9</title>
<path fill="none" stroke="#63b8ff" d="M76.99,-101.05C92.64,-95.59 112.59,-88.63 131.13,-82.15"/>
<polygon fill="#63b8ff" stroke="#63b8ff" points="132.12,-85.51 140.41,-78.91 129.82,-78.91 132.12,-85.51"/>
</g>
<!-- Node10 -->
<g id="node10" class="node">
<title>Node10</title>
<g id="a_node10"><a xlink:href="classkepler_1_1_parser.html#a8bae598977617c13f71ce43cadd806b4" target="_top" xlink:title=" ">
<polygon fill="white" stroke="#666666" points="236.5,-30 137.5,-30 137.5,0 236.5,0 236.5,-30"/>
<text text-anchor="start" x="145.5" y="-18" font-family="Helvetica,sans-Serif" font-size="10.00">kepler::Parser::use</text>
<text text-anchor="middle" x="187" y="-7" font-family="Helvetica,sans-Serif" font-size="10.00">_table</text>
</a>
</g>
</g>
<!-- Node1&#45;&gt;Node10 -->
<g id="edge9" class="edge">
<title>Node1&#45;&gt;Node10</title>
<path fill="none" stroke="#63b8ff" d="M57.87,-101.07C72.4,-86.09 101.77,-57.51 131,-39 132.82,-37.85 134.7,-36.73 136.62,-35.64"/>
<polygon fill="#63b8ff" stroke="#63b8ff" points="137.9,-38.92 145.14,-31.18 134.65,-32.72 137.9,-38.92"/>
</g>
<!-- Node4 -->
<g id="node4" class="node">
<title>Node4</title>
<g id="a_node4"><a xlink:href="classkepler_1_1error.html#a7694165073a5e4844154e625f5fddf6c" target="_top" xlink:title=" ">
<polygon fill="white" stroke="#666666" points="376,-200.5 283,-200.5 283,-181.5 376,-181.5 376,-200.5"/>
<text text-anchor="middle" x="329.5" y="-188.5" font-family="Helvetica,sans-Serif" font-size="10.00">kepler::error::type</text>
</a>
</g>
</g>
<!-- Node3&#45;&gt;Node4 -->
<g id="edge3" class="edge">
<title>Node3&#45;&gt;Node4</title>
<path fill="none" stroke="#63b8ff" d="M225.65,-163.92C242.27,-168.29 262.01,-173.49 279.73,-178.16"/>
<polygon fill="#63b8ff" stroke="#63b8ff" points="278.72,-181.51 289.28,-180.67 280.5,-174.74 278.72,-181.51"/>
</g>
<!-- Node6 -->
<g id="node6" class="node">
<title>Node6</title>
<g id="a_node6"><a xlink:href="classkepler_1_1error.html#a4e6ac4013bc23fa893866d2bb0f5d6b8" target="_top" xlink:title=" ">
<polygon fill="white" stroke="#666666" points="380,-163.5 279,-163.5 279,-144.5 380,-144.5 380,-163.5"/>
<text text-anchor="middle" x="329.5" y="-151.5" font-family="Helvetica,sans-Serif" font-size="10.00">kepler::error::where</text>
</a>
</g>
</g>
<!-- Node3&#45;&gt;Node6 -->
<g id="edge5" class="edge">
<title>Node3&#45;&gt;Node6</title>
<path fill="none" stroke="#63b8ff" d="M243.13,-154C250.98,-154 259.09,-154 267.06,-154"/>
<polygon fill="#63b8ff" stroke="#63b8ff" points="267.05,-157.5 277.05,-154 267.05,-150.5 267.05,-157.5"/>
</g>
<!-- Node7 -->
<g id="node7" class="node">
<title>Node7</title>
<g id="a_node7"><a xlink:href="classkepler_1_1error.html#af431dcb57cb6e62850a8bb2d6258c5e7" target="_top" xlink:title=" ">
<polygon fill="white" stroke="#666666" points="375.5,-126.5 283.5,-126.5 283.5,-107.5 375.5,-107.5 375.5,-126.5"/>
<text text-anchor="middle" x="329.5" y="-114.5" font-family="Helvetica,sans-Serif" font-size="10.00">kepler::error::why</text>
</a>
</g>
</g>
<!-- Node3&#45;&gt;Node7 -->
<g id="edge6" class="edge">
<title>Node3&#45;&gt;Node7</title>
<path fill="none" stroke="#63b8ff" d="M225.65,-144.08C242.27,-139.71 262.01,-134.51 279.73,-129.84"/>
<polygon fill="#63b8ff" stroke="#63b8ff" points="280.5,-133.26 289.28,-127.33 278.72,-126.49 280.5,-133.26"/>
</g>
<!-- Node5 -->
<g id="node5" class="node">
<title>Node5</title>
<g id="a_node5"><a xlink:href="namespacekepler.html#a76d95d0e078e053088ec440c6e878ab3" target="_top" xlink:title=" ">
<polygon fill="white" stroke="#666666" points="502,-200.5 416,-200.5 416,-181.5 502,-181.5 502,-200.5"/>
<text text-anchor="middle" x="459" y="-188.5" font-family="Helvetica,sans-Serif" font-size="10.00">kepler::to_string</text>
</a>
</g>
</g>
<!-- Node4&#45;&gt;Node5 -->
<g id="edge4" class="edge">
<title>Node4&#45;&gt;Node5</title>
<path fill="none" stroke="#63b8ff" d="M376.17,-191C385.31,-191 395,-191 404.38,-191"/>
<polygon fill="#63b8ff" stroke="#63b8ff" points="404.11,-194.5 414.11,-191 404.11,-187.5 404.11,-194.5"/>
</g>
</g>
</svg>
        <g id="navigator" transform="translate(0 0)" fill="#404254">
                <rect fill="#f2f5e9" fill-opacity="0.5" stroke="#606060" stroke-width=".5" x="0" y="0" width="60" height="60"/>
                <use id="zoomplus" xlink:href="#zoomPlus" x="17" y="9" onmousedown="handleZoom(evt,'in')"/>
                <use id="zoomminus" xlink:href="#zoomMin" x="42" y="9" onmousedown="handleZoom(evt,'out')"/>
                <use id="reset" xlink:href="#resetDef" x="30" y="36" onmousedown="handleReset()"/>
                <g id="arrowUp" xlink:href="#dirArrow" transform="translate(30 24)" onmousedown="handlePan(0,-1)">
                  <use xlink:href="#rim" fill="#404040">
                        <set attributeName="fill" to="#808080" begin="arrowUp.mouseover" end="arrowUp.mouseout"/>
                  </use>
                  <path fill="none" stroke="white" stroke-width="1.5" d="M0,-3.0v7 M-2.5,-0.5L0,-3.0L2.5,-0.5"/>
                </g>
                <g id="arrowRight" xlink:href="#dirArrow" transform="rotate(90) translate(36 -43)" onmousedown="handlePan(1,0)">
                  <use xlink:href="#rim" fill="#404040">
                        <set attributeName="fill" to="#808080" begin="arrowRight.mouseover" end="arrowRight.mouseout"/>
                  </use>
                  <path fill="none" stroke="white" stroke-width="1.5" d="M0,-3.0v7 M-2.5,-0.5L0,-3.0L2.5,-0.5"/>
                </g>
                <g id="arrowDown" xlink:href="#dirArrow" transform="rotate(180) translate(-30 -48)" onmousedown="handlePan(0,1)">
                  <use xlink:href="#rim" fill="#404040">
                        <set attributeName="fill" to="#808080" begin="arrowDown.mouseover" end="arrowDown.mouseout"/>
                  </use>
                  <path fill="none" stroke="white" stroke-width="1.5" d="M0,-3.0v7 M-2.5,-0.5L0,-3.0L2.5,-0.5"/>
                </g>
                <g id="arrowLeft" xlink:href="#dirArrow" transform="rotate(270) translate(-36 17)" onmousedown="handlePan(-1,0)">
                  <use xlink:href="#rim" fill="#404040">
                        <set attributeName="fill" to="#808080" begin="arrowLeft.mouseover" end="arrowLeft.mouseout"/>
                  </use>
                  <path fill="none" stroke="white" stroke-width="1.5" d="M0,-3.0v7 M-2.5,-0.5L0,-3.0L2.5,-0.5"/>
                </g>
        </g>
        <svg viewBox="0 0 15 15" width="100%" height="30px" preserveAspectRatio="xMaxYMin meet">
         <g id="arrow_out" transform="scale(0.3 0.3)">
          <a xlink:href="classparser__fixture_ab428671a0de24667af59c29d33cc5506_cgraph_org.svg" target="_base">
           <rect id="button" ry="5" rx="5" y="6" x="6" height="38" width="38"
                fill="#f2f5e9" fill-opacity="0.5" stroke="#606060" stroke-width="1.0"/>
           <path id="arrow"
             d="M 11.500037,31.436501 C 11.940474,20.09759 22.043105,11.32322 32.158766,21.979434 L 37.068811,17.246167 C 37.068811,17.246167 37.088388,32 37.088388,32 L 22.160133,31.978069 C 22.160133,31.978069 26.997745,27.140456 26.997745,27.140456 C 18.528582,18.264221 13.291696,25.230495 11.500037,31.436501 z"
             style="fill:#404040;"/>
          </a>
         </g>
        </svg>
</svg>
