<?xml version="1.0" encoding="UTF-8" standalone="no"?>
<!DOCTYPE svg PUBLIC "-//W3C//DTD SVG 1.1//EN"
 "http://www.w3.org/Graphics/SVG/1.1/DTD/svg11.dtd">
<!-- Generated by graphviz version 7.1.0 (20230121.1956)
 -->
<!-- Title: kepler::SymbolTable::get Pages: 1 -->
<svg width="806pt" height="150pt"
 viewBox="0.00 0.00 806.00 149.50" xmlns="http://www.w3.org/2000/svg" xmlns:xlink="http://www.w3.org/1999/xlink">
<g id="graph0" class="graph" transform="scale(1 1) rotate(0) translate(4 145.5)">
<title>kepler::SymbolTable::get</title>
<!-- Node1 -->
<g id="node1" class="node">
<title>Node1</title>
<g id="a_node1"><a xlink:title=" ">
<polygon fill="#999999" stroke="#666666" points="798,-85.5 673,-85.5 673,-66.5 798,-66.5 798,-85.5"/>
<text text-anchor="middle" x="735.5" y="-73.5" font-family="Helvetica,sans-Serif" font-size="10.00">kepler::SymbolTable::get</text>
</a>
</g>
</g>
<!-- Node2 -->
<g id="node2" class="node">
<title>Node2</title>
<g id="a_node2"><a xlink:href="structkepler_1_1_iota.html#aff3ed08535aa814e0f19c68e8e397e40" target="_top" xlink:title=" ">
<polygon fill="white" stroke="#666666" points="635.5,-141.5 522.5,-141.5 522.5,-122.5 635.5,-122.5 635.5,-141.5"/>
<text text-anchor="middle" x="579" y="-129.5" font-family="Helvetica,sans-Serif" font-size="10.00">kepler::Iota::operator()</text>
</a>
</g>
</g>
<!-- Node1&#45;&gt;Node2 -->
<g id="edge1" class="edge">
<title>Node1&#45;&gt;Node2</title>
<path fill="none" stroke="#63b8ff" d="M699.65,-90.22C681.14,-97.61 657.96,-106.62 637,-114 629.17,-116.76 620.67,-119.55 612.68,-122.09"/>
<polygon fill="#63b8ff" stroke="#63b8ff" points="700.85,-93.52 708.82,-86.54 698.24,-87.02 700.85,-93.52"/>
</g>
<!-- Node3 -->
<g id="node3" class="node">
<title>Node3</title>
<g id="a_node3"><a xlink:href="structkepler_1_1_roll.html#ae0763f65f987420f9452446721ec1f36" target="_top" xlink:title=" ">
<polygon fill="white" stroke="#666666" points="635.5,-104.5 522.5,-104.5 522.5,-85.5 635.5,-85.5 635.5,-104.5"/>
<text text-anchor="middle" x="579" y="-92.5" font-family="Helvetica,sans-Serif" font-size="10.00">kepler::Roll::operator()</text>
</a>
</g>
</g>
<!-- Node1&#45;&gt;Node3 -->
<g id="edge2" class="edge">
<title>Node1&#45;&gt;Node3</title>
<path fill="none" stroke="#63b8ff" d="M661.39,-84.99C652.84,-86.04 644.23,-87.1 635.97,-88.12"/>
<polygon fill="#63b8ff" stroke="#63b8ff" points="661.55,-88.5 671.05,-83.8 660.69,-81.55 661.55,-88.5"/>
</g>
<!-- Node4 -->
<g id="node4" class="node">
<title>Node4</title>
<g id="a_node4"><a xlink:href="structkepler_1_1_array.html#afccb5c77a5934c2bcdfed7032b381ced" target="_top" xlink:title=" ">
<polygon fill="white" stroke="#666666" points="637,-67.5 521,-67.5 521,-48.5 637,-48.5 637,-67.5"/>
<text text-anchor="middle" x="579" y="-55.5" font-family="Helvetica,sans-Serif" font-size="10.00">kepler::Array::to_string</text>
</a>
</g>
</g>
<!-- Node1&#45;&gt;Node4 -->
<g id="edge3" class="edge">
<title>Node1&#45;&gt;Node4</title>
<path fill="none" stroke="#63b8ff" d="M661.31,-67.47C653.3,-66.54 645.24,-65.6 637.46,-64.69"/>
<polygon fill="#63b8ff" stroke="#63b8ff" points="660.71,-70.93 671.05,-68.61 661.52,-63.97 660.71,-70.93"/>
</g>
<!-- Node13 -->
<g id="node13" class="node">
<title>Node13</title>
<g id="a_node13"><a xlink:href="structkepler_1_1_interpreter.html#af05169728eb16ec693b97816640c3eaf" target="_top" xlink:title=" ">
<polygon fill="white" stroke="#666666" points="625.5,-30 532.5,-30 532.5,0 625.5,0 625.5,-30"/>
<text text-anchor="start" x="540.5" y="-18" font-family="Helvetica,sans-Serif" font-size="10.00">kepler::Interpreter</text>
<text text-anchor="middle" x="579" y="-7" font-family="Helvetica,sans-Serif" font-size="10.00">::visit</text>
</a>
</g>
</g>
<!-- Node1&#45;&gt;Node13 -->
<g id="edge13" class="edge">
<title>Node1&#45;&gt;Node13</title>
<path fill="none" stroke="#63b8ff" d="M698.63,-61.84C674.8,-52.43 643.52,-40.08 619.06,-30.42"/>
<polygon fill="#63b8ff" stroke="#63b8ff" points="697.34,-65.09 707.93,-65.51 699.91,-58.58 697.34,-65.09"/>
</g>
<!-- Node5 -->
<g id="node5" class="node">
<title>Node5</title>
<g id="a_node5"><a xlink:href="namespacekepler.html#a914686a7f5a60684440d93ed33a3a959" target="_top" xlink:title=" ">
<polygon fill="white" stroke="#666666" points="485,-89.5 344,-89.5 344,-70.5 485,-70.5 485,-89.5"/>
<text text-anchor="middle" x="414.5" y="-77.5" font-family="Helvetica,sans-Serif" font-size="10.00">kepler::immediate_execution</text>
</a>
</g>
</g>
<!-- Node4&#45;&gt;Node5 -->
<g id="edge4" class="edge">
<title>Node4&#45;&gt;Node5</title>
<path fill="none" stroke="#63b8ff" d="M509.55,-67.27C501.56,-68.35 493.39,-69.45 485.38,-70.54"/>
<polygon fill="#63b8ff" stroke="#63b8ff" points="509.77,-70.77 519.21,-65.96 508.83,-63.83 509.77,-70.77"/>
</g>
<!-- Node12 -->
<g id="node12" class="node">
<title>Node12</title>
<g id="a_node12"><a xlink:href="structkepler_1_1_interpreter.html#a0a7e662ee6f13a895e37906f91f3daf0" target="_top" xlink:title=" ">
<polygon fill="white" stroke="#666666" points="461,-52 368,-52 368,-22 461,-22 461,-52"/>
<text text-anchor="start" x="376" y="-40" font-family="Helvetica,sans-Serif" font-size="10.00">kepler::Interpreter</text>
<text text-anchor="middle" x="414.5" y="-29" font-family="Helvetica,sans-Serif" font-size="10.00">::visit</text>
</a>
</g>
</g>
<!-- Node4&#45;&gt;Node12 -->
<g id="edge12" class="edge">
<title>Node4&#45;&gt;Node12</title>
<path fill="none" stroke="#63b8ff" d="M509.58,-49.16C493.3,-47.05 476.31,-44.86 461.32,-42.92"/>
<polygon fill="#63b8ff" stroke="#63b8ff" points="508.84,-52.59 519.21,-50.4 509.74,-45.65 508.84,-52.59"/>
</g>
<!-- Node6 -->
<g id="node6" class="node">
<title>Node6</title>
<g id="a_node6"><a xlink:href="namespacekepler.html#ae45e010aed51dc28b896694f75dc2ca7" target="_top" xlink:title=" ">
<polygon fill="white" stroke="#666666" points="290.5,-107.5 210.5,-107.5 210.5,-88.5 290.5,-88.5 290.5,-107.5"/>
<text text-anchor="middle" x="250.5" y="-95.5" font-family="Helvetica,sans-Serif" font-size="10.00">kepler::run_file</text>
</a>
</g>
</g>
<!-- Node5&#45;&gt;Node6 -->
<g id="edge5" class="edge">
<title>Node5&#45;&gt;Node6</title>
<path fill="none" stroke="#63b8ff" d="M332.71,-88.98C318.1,-90.6 303.47,-92.23 290.74,-93.64"/>
<polygon fill="#63b8ff" stroke="#63b8ff" points="332.8,-92.49 342.35,-87.91 332.03,-85.53 332.8,-92.49"/>
</g>
<!-- Node9 -->
<g id="node9" class="node">
<title>Node9</title>
<g id="a_node9"><a xlink:href="namespacekepler.html#a49b7372a95bc6035f77f37023923e171" target="_top" xlink:title=" ">
<polygon fill="white" stroke="#666666" points="308,-70.5 193,-70.5 193,-51.5 308,-51.5 308,-70.5"/>
<text text-anchor="middle" x="250.5" y="-58.5" font-family="Helvetica,sans-Serif" font-size="10.00">kepler::safe_execution</text>
</a>
</g>
</g>
<!-- Node5&#45;&gt;Node9 -->
<g id="edge8" class="edge">
<title>Node5&#45;&gt;Node9</title>
<path fill="none" stroke="#63b8ff" d="M332.7,-70.52C324.49,-69.56 316.28,-68.6 308.4,-67.67"/>
<polygon fill="#63b8ff" stroke="#63b8ff" points="332.01,-73.97 342.35,-71.66 332.83,-67.01 332.01,-73.97"/>
</g>
<!-- Node7 -->
<g id="node7" class="node">
<title>Node7</title>
<g id="a_node7"><a xlink:href="main_8cpp.html#a0ddf1224851353fc92bfbff6f499fa97" target="_top" xlink:title=" ">
<polygon fill="white" stroke="#666666" points="38,-89.5 0,-89.5 0,-70.5 38,-70.5 38,-89.5"/>
<text text-anchor="middle" x="19" y="-77.5" font-family="Helvetica,sans-Serif" font-size="10.00">main</text>
</a>
</g>
</g>
<!-- Node6&#45;&gt;Node7 -->
<g id="edge6" class="edge">
<title>Node6&#45;&gt;Node7</title>
<path fill="none" stroke="#63b8ff" d="M210.12,-111.15C173.97,-121.16 119.3,-131.03 74,-117 56.85,-111.69 40.3,-98.84 30.14,-89.78"/>
<polygon fill="#63b8ff" stroke="#63b8ff" points="211.1,-114.51 219.72,-108.35 209.14,-107.79 211.1,-114.51"/>
</g>
<!-- Node8 -->
<g id="node8" class="node">
<title>Node8</title>
<g id="a_node8"><a xlink:href="classfile__fixture.html#ae49241f7811560799cd0e8f5935de2d5" target="_top" xlink:title=" ">
<polygon fill="white" stroke="#666666" points="156,-107.5 75,-107.5 75,-88.5 156,-88.5 156,-107.5"/>
<text text-anchor="middle" x="115.5" y="-95.5" font-family="Helvetica,sans-Serif" font-size="10.00">file_fixture::run</text>
</a>
</g>
</g>
<!-- Node6&#45;&gt;Node8 -->
<g id="edge7" class="edge">
<title>Node6&#45;&gt;Node8</title>
<path fill="none" stroke="#63b8ff" d="M199.22,-98C185.04,-98 169.8,-98 156.33,-98"/>
<polygon fill="#63b8ff" stroke="#63b8ff" points="198.8,-101.5 208.8,-98 198.8,-94.5 198.8,-101.5"/>
</g>
<!-- Node10 -->
<g id="node10" class="node">
<title>Node10</title>
<g id="a_node10"><a xlink:href="classfixture.html#a42d66ba224463d10f2fe70e0b60c63e6" target="_top" xlink:title=" ">
<polygon fill="white" stroke="#666666" points="147,-70.5 84,-70.5 84,-51.5 147,-51.5 147,-70.5"/>
<text text-anchor="middle" x="115.5" y="-58.5" font-family="Helvetica,sans-Serif" font-size="10.00">fixture::run</text>
</a>
</g>
</g>
<!-- Node9&#45;&gt;Node10 -->
<g id="edge9" class="edge">
<title>Node9&#45;&gt;Node10</title>
<path fill="none" stroke="#63b8ff" d="M181.35,-61C169.47,-61 157.66,-61 147.43,-61"/>
<polygon fill="#63b8ff" stroke="#63b8ff" points="181.2,-64.5 191.2,-61 181.2,-57.5 181.2,-64.5"/>
</g>
<!-- Node11 -->
<g id="node11" class="node">
<title>Node11</title>
<g id="a_node11"><a xlink:href="namespacekepler.html#a2eea97746f0ae5fd054d304271c171f5" target="_top" xlink:title=" ">
<polygon fill="white" stroke="#666666" points="157,-33.5 74,-33.5 74,-14.5 157,-14.5 157,-33.5"/>
<text text-anchor="middle" x="115.5" y="-21.5" font-family="Helvetica,sans-Serif" font-size="10.00">kepler::run_repl</text>
</a>
</g>
</g>
<!-- Node9&#45;&gt;Node11 -->
<g id="edge10" class="edge">
<title>Node9&#45;&gt;Node11</title>
<path fill="none" stroke="#63b8ff" d="M203.2,-48.12C186.49,-43.47 167.91,-38.3 152.24,-33.94"/>
<polygon fill="#63b8ff" stroke="#63b8ff" points="201.83,-51.37 212.4,-50.68 203.7,-44.63 201.83,-51.37"/>
</g>
<!-- Node11&#45;&gt;Node7 -->
<g id="edge11" class="edge">
<title>Node11&#45;&gt;Node7</title>
<path fill="none" stroke="#63b8ff" d="M79.91,-38.82C77.89,-39.85 75.91,-40.92 74,-42 59.04,-50.48 43.07,-62.07 32.41,-70.21"/>
<polygon fill="#63b8ff" stroke="#63b8ff" points="81.27,-42.05 88.77,-34.56 78.24,-35.74 81.27,-42.05"/>
</g>
</g>
</svg>
