<?xml version="1.0" encoding="UTF-8" standalone="no"?>
<!DOCTYPE svg PUBLIC "-//W3C//DTD SVG 1.1//EN"
 "http://www.w3.org/Graphics/SVG/1.1/DTD/svg11.dtd">
<!-- Generated by graphviz version 7.1.0 (20230121.1956)
 -->
<!-- Title: kepler::SymbolTable::contains Pages: 1 -->
<svg width="710pt" height="193pt"
 viewBox="0.00 0.00 710.00 192.50" xmlns="http://www.w3.org/2000/svg" xmlns:xlink="http://www.w3.org/1999/xlink">
<g id="graph0" class="graph" transform="scale(1 1) rotate(0) translate(4 188.5)">
<title>kepler::SymbolTable::contains</title>
<!-- Node1 -->
<g id="node1" class="node">
<title>Node1</title>
<g id="a_node1"><a xlink:title=" ">
<polygon fill="#999999" stroke="#666666" points="702,-78 597,-78 597,-48 702,-48 702,-78"/>
<text text-anchor="start" x="605" y="-66" font-family="Helvetica,sans-Serif" font-size="10.00">kepler::SymbolTable</text>
<text text-anchor="middle" x="649.5" y="-55" font-family="Helvetica,sans-Serif" font-size="10.00">::contains</text>
</a>
</g>
</g>
<!-- Node1&#45;&gt;Node1 -->
<g id="edge1" class="edge">
<title>Node1&#45;&gt;Node1</title>
<path fill="none" stroke="#63b8ff" d="M674.98,-89.61C670.9,-93.43 662.4,-96 649.5,-96 625.91,-96 617.06,-87.41 622.96,-78.28"/>
<polygon fill="#63b8ff" stroke="#63b8ff" points="678.45,-90.07 675.9,-79.78 671.48,-89.41 678.45,-90.07"/>
</g>
<!-- Node2 -->
<g id="node2" class="node">
<title>Node2</title>
<g id="a_node2"><a xlink:href="classkepler_1_1_symbol_table.html#a13e9ae16127176c1400b9e16b98ccd72" target="_top" xlink:title=" ">
<polygon fill="white" stroke="#666666" points="551,-139 446,-139 446,-109 551,-109 551,-139"/>
<text text-anchor="start" x="454" y="-127" font-family="Helvetica,sans-Serif" font-size="10.00">kepler::SymbolTable</text>
<text text-anchor="middle" x="498.5" y="-116" font-family="Helvetica,sans-Serif" font-size="10.00">::remove</text>
</a>
</g>
</g>
<!-- Node1&#45;&gt;Node2 -->
<g id="edge2" class="edge">
<title>Node1&#45;&gt;Node2</title>
<path fill="none" stroke="#63b8ff" d="M602.45,-82.76C589.11,-88.4 574.5,-94.51 561,-100 554.1,-102.81 546.74,-105.73 539.59,-108.54"/>
<polygon fill="#63b8ff" stroke="#63b8ff" points="603.6,-86.07 611.44,-78.94 600.87,-79.63 603.6,-86.07"/>
</g>
<!-- Node3 -->
<g id="node3" class="node">
<title>Node3</title>
<g id="a_node3"><a xlink:href="classkepler_1_1_symbol_table.html#a928b41896a0c0f1b5eef23ae3f35c3b3" target="_top" xlink:title=" ">
<polygon fill="white" stroke="#666666" points="561,-72.5 436,-72.5 436,-53.5 561,-53.5 561,-72.5"/>
<text text-anchor="middle" x="498.5" y="-60.5" font-family="Helvetica,sans-Serif" font-size="10.00">kepler::SymbolTable::set</text>
</a>
</g>
</g>
<!-- Node1&#45;&gt;Node3 -->
<g id="edge4" class="edge">
<title>Node1&#45;&gt;Node3</title>
<path fill="none" stroke="#63b8ff" d="M585.34,-63C577.4,-63 569.28,-63 561.36,-63"/>
<polygon fill="#63b8ff" stroke="#63b8ff" points="585.29,-66.5 595.29,-63 585.29,-59.5 585.29,-66.5"/>
</g>
<!-- Node13 -->
<g id="node13" class="node">
<title>Node13</title>
<g id="a_node13"><a xlink:href="structkepler_1_1_interpreter.html#a0a7e662ee6f13a895e37906f91f3daf0" target="_top" xlink:title=" ">
<polygon fill="white" stroke="#666666" points="545,-35 452,-35 452,-5 545,-5 545,-35"/>
<text text-anchor="start" x="460" y="-23" font-family="Helvetica,sans-Serif" font-size="10.00">kepler::Interpreter</text>
<text text-anchor="middle" x="498.5" y="-12" font-family="Helvetica,sans-Serif" font-size="10.00">::visit</text>
</a>
</g>
</g>
<!-- Node1&#45;&gt;Node13 -->
<g id="edge16" class="edge">
<title>Node1&#45;&gt;Node13</title>
<path fill="none" stroke="#63b8ff" d="M585.98,-44.96C572.28,-41 558.02,-36.89 545.14,-33.17"/>
<polygon fill="#63b8ff" stroke="#63b8ff" points="584.77,-48.25 595.35,-47.66 586.71,-41.53 584.77,-48.25"/>
</g>
<!-- Node2&#45;&gt;Node2 -->
<g id="edge3" class="edge">
<title>Node2&#45;&gt;Node2</title>
<path fill="none" stroke="#63b8ff" d="M523.98,-150.61C519.9,-154.43 511.4,-157 498.5,-157 474.91,-157 466.06,-148.41 471.96,-139.28"/>
<polygon fill="#63b8ff" stroke="#63b8ff" points="527.45,-151.07 524.9,-140.78 520.48,-150.41 527.45,-151.07"/>
</g>
<!-- Node3&#45;&gt;Node3 -->
<g id="edge14" class="edge">
<title>Node3&#45;&gt;Node3</title>
<path fill="none" stroke="#63b8ff" d="M525.3,-83.93C521.95,-87.79 513.02,-90.5 498.5,-90.5 471.96,-90.5 464.08,-81.44 474.86,-72.87"/>
<polygon fill="#63b8ff" stroke="#63b8ff" points="528.67,-82.98 522.56,-74.32 521.94,-84.9 528.67,-82.98"/>
</g>
<!-- Node4 -->
<g id="node4" class="node">
<title>Node4</title>
<g id="a_node4"><a xlink:href="classkepler_1_1_symbol_table.html#a581a7fca6bcd04dcb26c385818693b8b" target="_top" xlink:title=" ">
<polygon fill="white" stroke="#666666" points="400,-126 262,-126 262,-96 400,-96 400,-126"/>
<text text-anchor="start" x="270" y="-114" font-family="Helvetica,sans-Serif" font-size="10.00">kepler::SymbolTable</text>
<text text-anchor="middle" x="331" y="-103" font-family="Helvetica,sans-Serif" font-size="10.00">::insert_system_parameters</text>
</a>
</g>
</g>
<!-- Node3&#45;&gt;Node4 -->
<g id="edge5" class="edge">
<title>Node3&#45;&gt;Node4</title>
<path fill="none" stroke="#63b8ff" d="M452.44,-76.07C431.65,-82.1 406.84,-89.29 385.15,-95.58"/>
<polygon fill="#63b8ff" stroke="#63b8ff" points="453.13,-79.51 461.75,-73.37 451.18,-72.79 453.13,-79.51"/>
</g>
<!-- Node11 -->
<g id="node11" class="node">
<title>Node11</title>
<g id="a_node11"><a xlink:href="structkepler_1_1_defined_function.html#a5b6f49592631a604f7babee3804eddeb" target="_top" xlink:title=" ">
<polygon fill="white" stroke="#666666" points="391,-78 271,-78 271,-48 391,-48 391,-78"/>
<text text-anchor="start" x="279" y="-66" font-family="Helvetica,sans-Serif" font-size="10.00">kepler::DefinedFunction</text>
<text text-anchor="middle" x="331" y="-55" font-family="Helvetica,sans-Serif" font-size="10.00">::operator()</text>
</a>
</g>
</g>
<!-- Node3&#45;&gt;Node11 -->
<g id="edge13" class="edge">
<title>Node3&#45;&gt;Node11</title>
<path fill="none" stroke="#63b8ff" d="M424.49,-63C413.45,-63 402.18,-63 391.48,-63"/>
<polygon fill="#63b8ff" stroke="#63b8ff" points="424.36,-66.5 434.36,-63 424.36,-59.5 424.36,-66.5"/>
</g>
<!-- Node12 -->
<g id="node12" class="node">
<title>Node12</title>
<g id="a_node12"><a xlink:href="structkepler_1_1_interpreter.html#a18d7e15ca11bbb7810b4e6b68288f5f0" target="_top" xlink:title=" ">
<polygon fill="white" stroke="#666666" points="377.5,-30 284.5,-30 284.5,0 377.5,0 377.5,-30"/>
<text text-anchor="start" x="292.5" y="-18" font-family="Helvetica,sans-Serif" font-size="10.00">kepler::Interpreter</text>
<text text-anchor="middle" x="331" y="-7" font-family="Helvetica,sans-Serif" font-size="10.00">::visit</text>
</a>
</g>
</g>
<!-- Node3&#45;&gt;Node12 -->
<g id="edge15" class="edge">
<title>Node3&#45;&gt;Node12</title>
<path fill="none" stroke="#63b8ff" d="M452.3,-49.89C429.17,-43.18 401.08,-35.04 377.87,-28.3"/>
<polygon fill="#63b8ff" stroke="#63b8ff" points="451.18,-53.21 461.75,-52.63 453.13,-46.49 451.18,-53.21"/>
</g>
<!-- Node5 -->
<g id="node5" class="node">
<title>Node5</title>
<g id="a_node5"><a xlink:href="classfixture.html#a2795a43194cf7837d758d0be009fb1ef" target="_top" xlink:title=" ">
<polygon fill="white" stroke="#666666" points="210,-184.5 133,-184.5 133,-165.5 210,-165.5 210,-184.5"/>
<text text-anchor="middle" x="171.5" y="-172.5" font-family="Helvetica,sans-Serif" font-size="10.00">fixture::fixture</text>
</a>
</g>
</g>
<!-- Node4&#45;&gt;Node5 -->
<g id="edge6" class="edge">
<title>Node4&#45;&gt;Node5</title>
<path fill="none" stroke="#63b8ff" d="M285.65,-130.97C267.31,-139.03 245.74,-148.23 226,-156 218.11,-159.1 209.49,-162.27 201.51,-165.1"/>
<polygon fill="#63b8ff" stroke="#63b8ff" points="286.93,-134.23 294.66,-126.99 284.1,-127.83 286.93,-134.23"/>
</g>
<!-- Node6 -->
<g id="node6" class="node">
<title>Node6</title>
<g id="a_node6"><a xlink:href="classparser__fixture.html#af2f94b67e2a1dbb7edf1959149e50a01" target="_top" xlink:title=" ">
<polygon fill="white" stroke="#666666" points="226,-147 117,-147 117,-117 226,-117 226,-147"/>
<text text-anchor="start" x="125" y="-135" font-family="Helvetica,sans-Serif" font-size="10.00">parser_fixture::parser</text>
<text text-anchor="middle" x="171.5" y="-124" font-family="Helvetica,sans-Serif" font-size="10.00">_fixture</text>
</a>
</g>
</g>
<!-- Node4&#45;&gt;Node6 -->
<g id="edge7" class="edge">
<title>Node4&#45;&gt;Node6</title>
<path fill="none" stroke="#63b8ff" d="M250.55,-121.59C242.25,-122.7 233.96,-123.8 226.06,-124.86"/>
<polygon fill="#63b8ff" stroke="#63b8ff" points="250.88,-125.08 260.33,-120.29 249.96,-118.14 250.88,-125.08"/>
</g>
<!-- Node7 -->
<g id="node7" class="node">
<title>Node7</title>
<g id="a_node7"><a xlink:href="namespacekepler.html#ae45e010aed51dc28b896694f75dc2ca7" target="_top" xlink:title=" ">
<polygon fill="white" stroke="#666666" points="211.5,-61.5 131.5,-61.5 131.5,-42.5 211.5,-42.5 211.5,-61.5"/>
<text text-anchor="middle" x="171.5" y="-49.5" font-family="Helvetica,sans-Serif" font-size="10.00">kepler::run_file</text>
</a>
</g>
</g>
<!-- Node4&#45;&gt;Node7 -->
<g id="edge8" class="edge">
<title>Node4&#45;&gt;Node7</title>
<path fill="none" stroke="#63b8ff" d="M274.37,-91.77C270.17,-90.2 266.01,-88.59 262,-87 245.73,-80.53 242.26,-77.49 226,-71 218.22,-67.89 209.71,-64.76 201.81,-61.95"/>
<polygon fill="#63b8ff" stroke="#63b8ff" points="272.81,-94.93 283.4,-95.1 275.23,-88.36 272.81,-94.93"/>
</g>
<!-- Node10 -->
<g id="node10" class="node">
<title>Node10</title>
<g id="a_node10"><a xlink:href="namespacekepler.html#a2eea97746f0ae5fd054d304271c171f5" target="_top" xlink:title=" ">
<polygon fill="white" stroke="#666666" points="213,-98.5 130,-98.5 130,-79.5 213,-79.5 213,-98.5"/>
<text text-anchor="middle" x="171.5" y="-86.5" font-family="Helvetica,sans-Serif" font-size="10.00">kepler::run_repl</text>
</a>
</g>
</g>
<!-- Node4&#45;&gt;Node10 -->
<g id="edge11" class="edge">
<title>Node4&#45;&gt;Node10</title>
<path fill="none" stroke="#63b8ff" d="M250.47,-99.89C237.51,-98.08 224.57,-96.27 213.07,-94.67"/>
<polygon fill="#63b8ff" stroke="#63b8ff" points="249.95,-103.35 260.34,-101.27 250.92,-96.42 249.95,-103.35"/>
</g>
<!-- Node8 -->
<g id="node8" class="node">
<title>Node8</title>
<g id="a_node8"><a xlink:href="main_8cpp.html#a0ddf1224851353fc92bfbff6f499fa97" target="_top" xlink:title=" ">
<polygon fill="white" stroke="#666666" points="59.5,-98.5 21.5,-98.5 21.5,-79.5 59.5,-79.5 59.5,-98.5"/>
<text text-anchor="middle" x="40.5" y="-86.5" font-family="Helvetica,sans-Serif" font-size="10.00">main</text>
</a>
</g>
</g>
<!-- Node7&#45;&gt;Node8 -->
<g id="edge9" class="edge">
<title>Node7&#45;&gt;Node8</title>
<path fill="none" stroke="#63b8ff" d="M124.91,-65.08C102.49,-71.51 76.73,-78.9 59.84,-83.74"/>
<polygon fill="#63b8ff" stroke="#63b8ff" points="125.83,-68.45 134.48,-62.33 123.9,-61.73 125.83,-68.45"/>
</g>
<!-- Node9 -->
<g id="node9" class="node">
<title>Node9</title>
<g id="a_node9"><a xlink:href="classfile__fixture.html#ae49241f7811560799cd0e8f5935de2d5" target="_top" xlink:title=" ">
<polygon fill="white" stroke="#666666" points="81,-61.5 0,-61.5 0,-42.5 81,-42.5 81,-61.5"/>
<text text-anchor="middle" x="40.5" y="-49.5" font-family="Helvetica,sans-Serif" font-size="10.00">file_fixture::run</text>
</a>
</g>
</g>
<!-- Node7&#45;&gt;Node9 -->
<g id="edge10" class="edge">
<title>Node7&#45;&gt;Node9</title>
<path fill="none" stroke="#63b8ff" d="M119.61,-52C106.81,-52 93.26,-52 81.11,-52"/>
<polygon fill="#63b8ff" stroke="#63b8ff" points="119.58,-55.5 129.58,-52 119.58,-48.5 119.58,-55.5"/>
</g>
<!-- Node10&#45;&gt;Node8 -->
<g id="edge12" class="edge">
<title>Node10&#45;&gt;Node8</title>
<path fill="none" stroke="#63b8ff" d="M118.38,-89C97.61,-89 75.05,-89 59.78,-89"/>
<polygon fill="#63b8ff" stroke="#63b8ff" points="118.17,-92.5 128.17,-89 118.17,-85.5 118.17,-92.5"/>
</g>
</g>
</svg>
