<?xml version="1.0" encoding="UTF-8" standalone="no"?>
<!DOCTYPE svg PUBLIC "-//W3C//DTD SVG 1.1//EN"
 "http://www.w3.org/Graphics/SVG/1.1/DTD/svg11.dtd">
<!-- Generated by graphviz version 7.1.0 (20230121.1956)
 -->
<!-- Title: parser_fixture::parser_fixture Pages: 1 -->
<svg width="593pt" height="56pt"
 viewBox="0.00 0.00 593.00 56.00" xmlns="http://www.w3.org/2000/svg" xmlns:xlink="http://www.w3.org/1999/xlink">
<g id="graph0" class="graph" transform="scale(1 1) rotate(0) translate(4 52)">
<title>parser_fixture::parser_fixture</title>
<!-- Node1 -->
<g id="node1" class="node">
<title>Node1</title>
<g id="a_node1"><a xlink:title=" ">
<polygon fill="#999999" stroke="#666666" points="109,-30 0,-30 0,0 109,0 109,-30"/>
<text text-anchor="start" x="8" y="-18" font-family="Helvetica,sans-Serif" font-size="10.00">parser_fixture::parser</text>
<text text-anchor="middle" x="54.5" y="-7" font-family="Helvetica,sans-Serif" font-size="10.00">_fixture</text>
</a>
</g>
</g>
<!-- Node2 -->
<g id="node2" class="node">
<title>Node2</title>
<g id="a_node2"><a xlink:href="classkepler_1_1_symbol_table.html#a581a7fca6bcd04dcb26c385818693b8b" target="_top" xlink:title=" ">
<polygon fill="white" stroke="#666666" points="283,-30 145,-30 145,0 283,0 283,-30"/>
<text text-anchor="start" x="153" y="-18" font-family="Helvetica,sans-Serif" font-size="10.00">kepler::SymbolTable</text>
<text text-anchor="middle" x="214" y="-7" font-family="Helvetica,sans-Serif" font-size="10.00">::insert_system_parameters</text>
</a>
</g>
</g>
<!-- Node1&#45;&gt;Node2 -->
<g id="edge1" class="edge">
<title>Node1&#45;&gt;Node2</title>
<path fill="none" stroke="#63b8ff" d="M109.26,-15C117.01,-15 125.13,-15 133.26,-15"/>
<polygon fill="#63b8ff" stroke="#63b8ff" points="133.21,-18.5 143.21,-15 133.21,-11.5 133.21,-18.5"/>
</g>
<!-- Node3 -->
<g id="node3" class="node">
<title>Node3</title>
<g id="a_node3"><a xlink:href="classkepler_1_1_symbol_table.html#a928b41896a0c0f1b5eef23ae3f35c3b3" target="_top" xlink:title=" ">
<polygon fill="white" stroke="#666666" points="444,-24.5 319,-24.5 319,-5.5 444,-5.5 444,-24.5"/>
<text text-anchor="middle" x="381.5" y="-12.5" font-family="Helvetica,sans-Serif" font-size="10.00">kepler::SymbolTable::set</text>
</a>
</g>
</g>
<!-- Node2&#45;&gt;Node3 -->
<g id="edge2" class="edge">
<title>Node2&#45;&gt;Node3</title>
<path fill="none" stroke="#63b8ff" d="M283.27,-15C291.26,-15 299.43,-15 307.48,-15"/>
<polygon fill="#63b8ff" stroke="#63b8ff" points="307.24,-18.5 317.24,-15 307.24,-11.5 307.24,-18.5"/>
</g>
<!-- Node3&#45;&gt;Node3 -->
<g id="edge5" class="edge">
<title>Node3&#45;&gt;Node3</title>
<path fill="none" stroke="#63b8ff" d="M357.86,-24.87C347.08,-33.44 354.96,-42.5 381.5,-42.5 396.02,-42.5 404.95,-39.79 408.3,-35.93"/>
<polygon fill="#63b8ff" stroke="#63b8ff" points="411.67,-34.98 405.56,-26.32 404.94,-36.9 411.67,-34.98"/>
</g>
<!-- Node4 -->
<g id="node4" class="node">
<title>Node4</title>
<g id="a_node4"><a xlink:href="classkepler_1_1_symbol_table.html#a57403652693faf5adf05509f540520e9" target="_top" xlink:title=" ">
<polygon fill="white" stroke="#666666" points="585,-30 480,-30 480,0 585,0 585,-30"/>
<text text-anchor="start" x="488" y="-18" font-family="Helvetica,sans-Serif" font-size="10.00">kepler::SymbolTable</text>
<text text-anchor="middle" x="532.5" y="-7" font-family="Helvetica,sans-Serif" font-size="10.00">::contains</text>
</a>
</g>
</g>
<!-- Node3&#45;&gt;Node4 -->
<g id="edge3" class="edge">
<title>Node3&#45;&gt;Node4</title>
<path fill="none" stroke="#63b8ff" d="M444.39,-15C452.35,-15 460.49,-15 468.46,-15"/>
<polygon fill="#63b8ff" stroke="#63b8ff" points="468.45,-18.5 478.45,-15 468.45,-11.5 468.45,-18.5"/>
</g>
<!-- Node4&#45;&gt;Node4 -->
<g id="edge4" class="edge">
<title>Node4&#45;&gt;Node4</title>
<path fill="none" stroke="#63b8ff" d="M505.96,-30.28C500.06,-39.41 508.91,-48 532.5,-48 545.4,-48 553.9,-45.43 557.98,-41.61"/>
<polygon fill="#63b8ff" stroke="#63b8ff" points="561.45,-42.07 558.9,-31.78 554.48,-41.41 561.45,-42.07"/>
</g>
</g>
</svg>
