<?xml version="1.0" encoding="UTF-8" standalone="no"?>
<!DOCTYPE svg PUBLIC "-//W3C//DTD SVG 1.1//EN"
 "http://www.w3.org/Graphics/SVG/1.1/DTD/svg11.dtd">
<!-- Generated by graphviz version 7.1.0 (20230121.1956)
 -->
<!-- Title: kepler::SymbolTable::clear Pages: 1 -->
<svg width="381pt" height="131pt"
 viewBox="0.00 0.00 381.00 130.50" xmlns="http://www.w3.org/2000/svg" xmlns:xlink="http://www.w3.org/1999/xlink">
<g id="graph0" class="graph" transform="scale(1 1) rotate(0) translate(4 126.5)">
<title>kepler::SymbolTable::clear</title>
<!-- Node1 -->
<g id="node1" class="node">
<title>Node1</title>
<g id="a_node1"><a xlink:title=" ">
<polygon fill="#999999" stroke="#666666" points="373,-73 268,-73 268,-43 373,-43 373,-73"/>
<text text-anchor="start" x="276" y="-61" font-family="Helvetica,sans-Serif" font-size="10.00">kepler::SymbolTable</text>
<text text-anchor="middle" x="320.5" y="-50" font-family="Helvetica,sans-Serif" font-size="10.00">::clear</text>
</a>
</g>
</g>
<!-- Node2 -->
<g id="node2" class="node">
<title>Node2</title>
<g id="a_node2"><a xlink:href="namespacekepler.html#ae45e010aed51dc28b896694f75dc2ca7" target="_top" xlink:title=" ">
<polygon fill="white" stroke="#666666" points="214.5,-104.5 134.5,-104.5 134.5,-85.5 214.5,-85.5 214.5,-104.5"/>
<text text-anchor="middle" x="174.5" y="-92.5" font-family="Helvetica,sans-Serif" font-size="10.00">kepler::run_file</text>
</a>
</g>
</g>
<!-- Node1&#45;&gt;Node2 -->
<g id="edge1" class="edge">
<title>Node1&#45;&gt;Node2</title>
<path fill="none" stroke="#63b8ff" d="M256.64,-74.15C242.24,-77.85 227.34,-81.68 214.3,-85.03"/>
<polygon fill="#63b8ff" stroke="#63b8ff" points="257.23,-77.61 266.05,-71.73 255.49,-70.83 257.23,-77.61"/>
</g>
<!-- Node5 -->
<g id="node5" class="node">
<title>Node5</title>
<g id="a_node5"><a xlink:href="classfixture.html#a62e423bc81fb340459077aae39176f5b" target="_top" xlink:title=" ">
<polygon fill="white" stroke="#666666" points="216,-67.5 133,-67.5 133,-48.5 216,-48.5 216,-67.5"/>
<text text-anchor="middle" x="174.5" y="-55.5" font-family="Helvetica,sans-Serif" font-size="10.00">fixture::~fixture</text>
</a>
</g>
</g>
<!-- Node1&#45;&gt;Node5 -->
<g id="edge4" class="edge">
<title>Node1&#45;&gt;Node5</title>
<path fill="none" stroke="#63b8ff" d="M256.22,-58C242.62,-58 228.58,-58 216.12,-58"/>
<polygon fill="#63b8ff" stroke="#63b8ff" points="256,-61.5 266,-58 256,-54.5 256,-61.5"/>
</g>
<!-- Node6 -->
<g id="node6" class="node">
<title>Node6</title>
<g id="a_node6"><a xlink:href="classparser__fixture.html#a8922bbeea9419e31c87b3a3b91db46da" target="_top" xlink:title=" ">
<polygon fill="white" stroke="#666666" points="232,-30 117,-30 117,0 232,0 232,-30"/>
<text text-anchor="start" x="125" y="-18" font-family="Helvetica,sans-Serif" font-size="10.00">parser_fixture::~parser</text>
<text text-anchor="middle" x="174.5" y="-7" font-family="Helvetica,sans-Serif" font-size="10.00">_fixture</text>
</a>
</g>
</g>
<!-- Node1&#45;&gt;Node6 -->
<g id="edge5" class="edge">
<title>Node1&#45;&gt;Node6</title>
<path fill="none" stroke="#63b8ff" d="M257.2,-39.4C247.19,-36.41 236.93,-33.34 227.2,-30.44"/>
<polygon fill="#63b8ff" stroke="#63b8ff" points="255.89,-42.66 266.47,-42.16 257.89,-35.95 255.89,-42.66"/>
</g>
<!-- Node3 -->
<g id="node3" class="node">
<title>Node3</title>
<g id="a_node3"><a xlink:href="main_8cpp.html#a0ddf1224851353fc92bfbff6f499fa97" target="_top" xlink:title=" ">
<polygon fill="white" stroke="#666666" points="59.5,-122.5 21.5,-122.5 21.5,-103.5 59.5,-103.5 59.5,-122.5"/>
<text text-anchor="middle" x="40.5" y="-110.5" font-family="Helvetica,sans-Serif" font-size="10.00">main</text>
</a>
</g>
</g>
<!-- Node2&#45;&gt;Node3 -->
<g id="edge2" class="edge">
<title>Node2&#45;&gt;Node3</title>
<path fill="none" stroke="#63b8ff" d="M122.95,-101.89C100.8,-104.91 76.18,-108.27 59.87,-110.49"/>
<polygon fill="#63b8ff" stroke="#63b8ff" points="123.32,-105.38 132.75,-100.56 122.37,-98.44 123.32,-105.38"/>
</g>
<!-- Node4 -->
<g id="node4" class="node">
<title>Node4</title>
<g id="a_node4"><a xlink:href="classfile__fixture.html#ae49241f7811560799cd0e8f5935de2d5" target="_top" xlink:title=" ">
<polygon fill="white" stroke="#666666" points="81,-85.5 0,-85.5 0,-66.5 81,-66.5 81,-85.5"/>
<text text-anchor="middle" x="40.5" y="-73.5" font-family="Helvetica,sans-Serif" font-size="10.00">file_fixture::run</text>
</a>
</g>
</g>
<!-- Node2&#45;&gt;Node4 -->
<g id="edge3" class="edge">
<title>Node2&#45;&gt;Node4</title>
<path fill="none" stroke="#63b8ff" d="M122.94,-87.72C109.14,-85.74 94.39,-83.61 81.28,-81.73"/>
<polygon fill="#63b8ff" stroke="#63b8ff" points="122.36,-91.17 132.75,-89.14 123.36,-84.25 122.36,-91.17"/>
</g>
</g>
</svg>
