<?xml version="1.0" encoding="UTF-8" standalone="no"?>
<!DOCTYPE svg PUBLIC "-//W3C//DTD SVG 1.1//EN"
 "http://www.w3.org/Graphics/SVG/1.1/DTD/svg11.dtd">
<!-- Generated by graphviz version 7.1.0 (20230121.1956)
 -->
<!-- Title: file_fixture::run Pages: 1 -->
<svg width="706pt" height="433pt"
 viewBox="0.00 0.00 706.00 432.50" xmlns="http://www.w3.org/2000/svg" xmlns:xlink="http://www.w3.org/1999/xlink">
<g id="graph0" class="graph" transform="scale(1 1) rotate(0) translate(4 428.5)">
<title>file_fixture::run</title>
<!-- Node1 -->
<g id="node1" class="node">
<title>Node1</title>
<g id="a_node1"><a xlink:title=" ">
<polygon fill="#999999" stroke="#666666" points="81,-237 0,-237 0,-218 81,-218 81,-237"/>
<text text-anchor="middle" x="40.5" y="-225" font-family="Helvetica,sans-Serif" font-size="10.00">file_fixture::run</text>
</a>
</g>
</g>
<!-- Node2 -->
<g id="node2" class="node">
<title>Node2</title>
<g id="a_node2"><a xlink:href="namespacekepler.html#ae45e010aed51dc28b896694f75dc2ca7" target="_top" xlink:title=" ">
<polygon fill="white" stroke="#666666" points="197,-237 117,-237 117,-218 197,-218 197,-237"/>
<text text-anchor="middle" x="157" y="-225" font-family="Helvetica,sans-Serif" font-size="10.00">kepler::run_file</text>
</a>
</g>
</g>
<!-- Node1&#45;&gt;Node2 -->
<g id="edge1" class="edge">
<title>Node1&#45;&gt;Node2</title>
<path fill="none" stroke="#63b8ff" d="M81.23,-227.5C89.04,-227.5 97.34,-227.5 105.45,-227.5"/>
<polygon fill="#63b8ff" stroke="#63b8ff" points="105.22,-231 115.22,-227.5 105.22,-224 105.22,-231"/>
</g>
<!-- Node3 -->
<g id="node3" class="node">
<title>Node3</title>
<g id="a_node3"><a xlink:href="classkepler_1_1_symbol_table.html#a95e2ea1cc4b5a2a669c3b65ef4d545cc" target="_top" xlink:title=" ">
<polygon fill="white" stroke="#666666" points="356,-424.5 251,-424.5 251,-394.5 356,-394.5 356,-424.5"/>
<text text-anchor="start" x="259" y="-412.5" font-family="Helvetica,sans-Serif" font-size="10.00">kepler::SymbolTable</text>
<text text-anchor="middle" x="303.5" y="-401.5" font-family="Helvetica,sans-Serif" font-size="10.00">::clear</text>
</a>
</g>
</g>
<!-- Node2&#45;&gt;Node3 -->
<g id="edge2" class="edge">
<title>Node2&#45;&gt;Node3</title>
<path fill="none" stroke="#63b8ff" d="M159.87,-237.24C165.65,-264.65 185.71,-343.18 233,-385.5 235.41,-387.65 238.02,-389.62 240.77,-391.41"/>
<polygon fill="#63b8ff" stroke="#63b8ff" points="238.8,-394.32 249.24,-396.11 242.19,-388.2 238.8,-394.32"/>
</g>
<!-- Node4 -->
<g id="node4" class="node">
<title>Node4</title>
<g id="a_node4"><a xlink:href="execution_8cpp.html#aa688fb368d750916706ef22d45dcab1f" target="_top" xlink:title=" ">
<polygon fill="white" stroke="#666666" points="339,-376 268,-376 268,-357 339,-357 339,-376"/>
<text text-anchor="middle" x="303.5" y="-364" font-family="Helvetica,sans-Serif" font-size="10.00">concat_lines</text>
</a>
</g>
</g>
<!-- Node2&#45;&gt;Node4 -->
<g id="edge3" class="edge">
<title>Node2&#45;&gt;Node4</title>
<path fill="none" stroke="#63b8ff" d="M161.24,-237.43C169.34,-260.68 192.8,-318.9 233,-348.5 239.98,-353.64 248.29,-357.31 256.7,-359.94"/>
<polygon fill="#63b8ff" stroke="#63b8ff" points="255.69,-363.29 266.25,-362.44 257.46,-356.52 255.69,-363.29"/>
</g>
<!-- Node5 -->
<g id="node5" class="node">
<title>Node5</title>
<g id="a_node5"><a xlink:href="execution_8cpp.html#a3e0030c2b63e5204d11acccc92bdecde" target="_top" xlink:title=" ">
<polygon fill="white" stroke="#666666" points="330,-339 277,-339 277,-320 330,-320 330,-339"/>
<text text-anchor="middle" x="303.5" y="-327" font-family="Helvetica,sans-Serif" font-size="10.00">find_line</text>
</a>
</g>
</g>
<!-- Node2&#45;&gt;Node5 -->
<g id="edge4" class="edge">
<title>Node2&#45;&gt;Node5</title>
<path fill="none" stroke="#63b8ff" d="M163.88,-237.24C175.06,-254.87 201.12,-292.06 233,-311.5 242.79,-317.47 254.53,-321.48 265.54,-324.16"/>
<polygon fill="#63b8ff" stroke="#63b8ff" points="264.66,-327.55 275.16,-326.19 266.1,-320.7 264.66,-327.55"/>
</g>
<!-- Node6 -->
<g id="node6" class="node">
<title>Node6</title>
<g id="a_node6"><a xlink:href="namespacekepler.html#a914686a7f5a60684440d93ed33a3a959" target="_top" xlink:title=" ">
<polygon fill="white" stroke="#666666" points="374,-302 233,-302 233,-283 374,-283 374,-302"/>
<text text-anchor="middle" x="303.5" y="-290" font-family="Helvetica,sans-Serif" font-size="10.00">kepler::immediate_execution</text>
</a>
</g>
</g>
<!-- Node2&#45;&gt;Node6 -->
<g id="edge5" class="edge">
<title>Node2&#45;&gt;Node6</title>
<path fill="none" stroke="#63b8ff" d="M171.46,-237.39C185.99,-247.66 210.15,-263.61 233,-273.5 237.84,-275.59 242.97,-277.51 248.16,-279.26"/>
<polygon fill="#63b8ff" stroke="#63b8ff" points="246.81,-282.5 257.4,-282.15 248.9,-275.82 246.81,-282.5"/>
</g>
<!-- Node14 -->
<g id="node14" class="node">
<title>Node14</title>
<g id="a_node14"><a xlink:href="classkepler_1_1_symbol_table.html#a581a7fca6bcd04dcb26c385818693b8b" target="_top" xlink:title=" ">
<polygon fill="white" stroke="#666666" points="372.5,-264.5 234.5,-264.5 234.5,-234.5 372.5,-234.5 372.5,-264.5"/>
<text text-anchor="start" x="242.5" y="-252.5" font-family="Helvetica,sans-Serif" font-size="10.00">kepler::SymbolTable</text>
<text text-anchor="middle" x="303.5" y="-241.5" font-family="Helvetica,sans-Serif" font-size="10.00">::insert_system_parameters</text>
</a>
</g>
</g>
<!-- Node2&#45;&gt;Node14 -->
<g id="edge13" class="edge">
<title>Node2&#45;&gt;Node14</title>
<path fill="none" stroke="#63b8ff" d="M197.49,-233.51C205.48,-234.73 214.14,-236.05 222.96,-237.39"/>
<polygon fill="#63b8ff" stroke="#63b8ff" points="222.25,-240.82 232.67,-238.87 223.31,-233.9 222.25,-240.82"/>
</g>
<!-- Node17 -->
<g id="node17" class="node">
<title>Node17</title>
<g id="a_node17"><a xlink:href="namespacekepler.html#a9b4442cb52b01b9205ef895e825044fe" target="_top" xlink:title=" ">
<polygon fill="white" stroke="#666666" points="346.5,-216 260.5,-216 260.5,-197 346.5,-197 346.5,-216"/>
<text text-anchor="middle" x="303.5" y="-204" font-family="Helvetica,sans-Serif" font-size="10.00">kepler::read_file</text>
</a>
</g>
</g>
<!-- Node2&#45;&gt;Node17 -->
<g id="edge18" class="edge">
<title>Node2&#45;&gt;Node17</title>
<path fill="none" stroke="#63b8ff" d="M197.49,-221.76C213.39,-219.45 231.98,-216.75 249.06,-214.27"/>
<polygon fill="#63b8ff" stroke="#63b8ff" points="249.13,-217.79 258.53,-212.89 248.13,-210.87 249.13,-217.79"/>
</g>
<!-- Node18 -->
<g id="node18" class="node">
<title>Node18</title>
<g id="a_node18"><a xlink:href="classkepler_1_1error.html#aec3e310a53eebc02228954bab4a13b53" target="_top" xlink:title=" ">
<polygon fill="white" stroke="#666666" points="356.5,-179 250.5,-179 250.5,-160 356.5,-160 356.5,-179"/>
<text text-anchor="middle" x="303.5" y="-167" font-family="Helvetica,sans-Serif" font-size="10.00">kepler::error::set_file</text>
</a>
</g>
</g>
<!-- Node2&#45;&gt;Node18 -->
<g id="edge19" class="edge">
<title>Node2&#45;&gt;Node18</title>
<path fill="none" stroke="#63b8ff" d="M174.5,-217.62C189.39,-209.02 212.09,-196.69 233,-188.5 238.32,-186.42 243.96,-184.47 249.63,-182.68"/>
<polygon fill="#63b8ff" stroke="#63b8ff" points="250.47,-186.08 259.05,-179.87 248.47,-179.37 250.47,-186.08"/>
</g>
<!-- Node19 -->
<g id="node19" class="node">
<title>Node19</title>
<g id="a_node19"><a xlink:href="classkepler_1_1error.html#aac71db552cb0211798d24627817abccf" target="_top" xlink:title=" ">
<polygon fill="white" stroke="#666666" points="347.5,-141.5 259.5,-141.5 259.5,-111.5 347.5,-111.5 347.5,-141.5"/>
<text text-anchor="start" x="267.5" y="-129.5" font-family="Helvetica,sans-Serif" font-size="10.00">kepler::error::set</text>
<text text-anchor="middle" x="303.5" y="-118.5" font-family="Helvetica,sans-Serif" font-size="10.00">_input</text>
</a>
</g>
</g>
<!-- Node2&#45;&gt;Node19 -->
<g id="edge20" class="edge">
<title>Node2&#45;&gt;Node19</title>
<path fill="none" stroke="#63b8ff" d="M165.24,-217.73C177.52,-201.77 203.95,-170.07 233,-151.5 237.87,-148.39 243.18,-145.59 248.63,-143.11"/>
<polygon fill="#63b8ff" stroke="#63b8ff" points="249.92,-146.36 257.79,-139.28 247.22,-139.9 249.92,-146.36"/>
</g>
<!-- Node20 -->
<g id="node20" class="node">
<title>Node20</title>
<g id="a_node20"><a xlink:href="classkepler_1_1error.html#a055901085cd5171f7a6afa76b9fb526c" target="_top" xlink:title=" ">
<polygon fill="white" stroke="#666666" points="357.5,-93 249.5,-93 249.5,-74 357.5,-74 357.5,-93"/>
<text text-anchor="middle" x="303.5" y="-81" font-family="Helvetica,sans-Serif" font-size="10.00">kepler::error::set_line</text>
</a>
</g>
</g>
<!-- Node2&#45;&gt;Node20 -->
<g id="edge21" class="edge">
<title>Node2&#45;&gt;Node20</title>
<path fill="none" stroke="#63b8ff" d="M161.05,-217.64C168.89,-193.95 192.06,-133.54 233,-102.5 234.91,-101.05 236.92,-99.72 239.01,-98.48"/>
<polygon fill="#63b8ff" stroke="#63b8ff" points="240.48,-101.66 247.89,-94.09 237.37,-95.39 240.48,-101.66"/>
</g>
<!-- Node21 -->
<g id="node21" class="node">
<title>Node21</title>
<g id="a_node21"><a xlink:href="classkepler_1_1error.html#a9d1264b80888d725ef312a662ee4e5be" target="_top" xlink:title=" ">
<polygon fill="white" stroke="#666666" points="359.5,-56 247.5,-56 247.5,-37 359.5,-37 359.5,-56"/>
<text text-anchor="middle" x="303.5" y="-44" font-family="Helvetica,sans-Serif" font-size="10.00">kepler::error::to_string</text>
</a>
</g>
</g>
<!-- Node2&#45;&gt;Node21 -->
<g id="edge22" class="edge">
<title>Node2&#45;&gt;Node21</title>
<path fill="none" stroke="#63b8ff" d="M159.58,-217.76C164.67,-189.62 183.31,-107.53 233,-65.5 234.51,-64.22 236.1,-63.03 237.75,-61.92"/>
<polygon fill="#63b8ff" stroke="#63b8ff" points="239.4,-65 246.47,-57.11 236.02,-58.87 239.4,-65"/>
</g>
<!-- Node7 -->
<g id="node7" class="node">
<title>Node7</title>
<g id="a_node7"><a xlink:href="structkepler_1_1_interpreter.html#a2ec19db70151e2f0eb937421a8618935" target="_top" xlink:title=" ">
<polygon fill="white" stroke="#666666" points="519,-408.5 426,-408.5 426,-378.5 519,-378.5 519,-408.5"/>
<text text-anchor="start" x="434" y="-396.5" font-family="Helvetica,sans-Serif" font-size="10.00">kepler::Interpreter</text>
<text text-anchor="middle" x="472.5" y="-385.5" font-family="Helvetica,sans-Serif" font-size="10.00">::interpret</text>
</a>
</g>
</g>
<!-- Node6&#45;&gt;Node7 -->
<g id="edge6" class="edge">
<title>Node6&#45;&gt;Node7</title>
<path fill="none" stroke="#63b8ff" d="M357.7,-302.49C363.51,-304.88 369.09,-307.83 374,-311.5 398.32,-329.65 386.67,-350.1 410,-369.5 411.9,-371.08 413.91,-372.56 416.01,-373.95"/>
<polygon fill="#63b8ff" stroke="#63b8ff" points="413.9,-376.78 424.32,-378.73 417.39,-370.71 413.9,-376.78"/>
</g>
<!-- Node9 -->
<g id="node9" class="node">
<title>Node9</title>
<g id="a_node9"><a xlink:href="classkepler_1_1_parser.html#a95c4ec7bfd2c105b1cd43f0906641f3f" target="_top" xlink:title=" ">
<polygon fill="white" stroke="#666666" points="526,-360 419,-360 419,-341 526,-341 526,-360"/>
<text text-anchor="middle" x="472.5" y="-348" font-family="Helvetica,sans-Serif" font-size="10.00">kepler::Parser::parse</text>
</a>
</g>
</g>
<!-- Node6&#45;&gt;Node9 -->
<g id="edge8" class="edge">
<title>Node6&#45;&gt;Node9</title>
<path fill="none" stroke="#63b8ff" d="M347.73,-302.43C356.57,-304.99 365.7,-308.01 374,-311.5 391.08,-318.67 392.99,-325.18 410,-332.5 413.75,-334.11 417.68,-335.63 421.67,-337.05"/>
<polygon fill="#63b8ff" stroke="#63b8ff" points="420.25,-340.27 430.85,-340.1 422.46,-333.63 420.25,-340.27"/>
</g>
<!-- Node10 -->
<g id="node10" class="node">
<title>Node10</title>
<g id="a_node10"><a xlink:href="structkepler_1_1_array.html#afccb5c77a5934c2bcdfed7032b381ced" target="_top" xlink:title=" ">
<polygon fill="white" stroke="#666666" points="530.5,-323 414.5,-323 414.5,-304 530.5,-304 530.5,-323"/>
<text text-anchor="middle" x="472.5" y="-311" font-family="Helvetica,sans-Serif" font-size="10.00">kepler::Array::to_string</text>
</a>
</g>
</g>
<!-- Node6&#45;&gt;Node10 -->
<g id="edge9" class="edge">
<title>Node6&#45;&gt;Node10</title>
<path fill="none" stroke="#63b8ff" d="M374.36,-301.28C383.76,-302.47 393.4,-303.68 402.79,-304.86"/>
<polygon fill="#63b8ff" stroke="#63b8ff" points="402.21,-308.31 412.57,-306.09 403.09,-301.37 402.21,-308.31"/>
</g>
<!-- Node12 -->
<g id="node12" class="node">
<title>Node12</title>
<g id="a_node12"><a xlink:href="classkepler_1_1_tokenizer.html#a218312e24753d8d2e66d499bdbcce55c" target="_top" xlink:title=" ">
<polygon fill="white" stroke="#666666" points="521,-285.5 424,-285.5 424,-255.5 521,-255.5 521,-285.5"/>
<text text-anchor="start" x="432" y="-273.5" font-family="Helvetica,sans-Serif" font-size="10.00">kepler::Tokenizer::</text>
<text text-anchor="middle" x="472.5" y="-262.5" font-family="Helvetica,sans-Serif" font-size="10.00">tokenize</text>
</a>
</g>
</g>
<!-- Node6&#45;&gt;Node12 -->
<g id="edge11" class="edge">
<title>Node6&#45;&gt;Node12</title>
<path fill="none" stroke="#63b8ff" d="M374.36,-283.3C387.08,-281.62 400.25,-279.89 412.62,-278.26"/>
<polygon fill="#63b8ff" stroke="#63b8ff" points="412.76,-281.77 422.22,-276.99 411.85,-274.83 412.76,-281.77"/>
</g>
<!-- Node13 -->
<g id="node13" class="node">
<title>Node13</title>
<g id="a_node13"><a xlink:href="classkepler_1_1_parser.html#a8bae598977617c13f71ce43cadd806b4" target="_top" xlink:title=" ">
<polygon fill="white" stroke="#666666" points="522,-237.5 423,-237.5 423,-207.5 522,-207.5 522,-237.5"/>
<text text-anchor="start" x="431" y="-225.5" font-family="Helvetica,sans-Serif" font-size="10.00">kepler::Parser::use</text>
<text text-anchor="middle" x="472.5" y="-214.5" font-family="Helvetica,sans-Serif" font-size="10.00">_table</text>
</a>
</g>
</g>
<!-- Node6&#45;&gt;Node13 -->
<g id="edge12" class="edge">
<title>Node6&#45;&gt;Node13</title>
<path fill="none" stroke="#63b8ff" d="M350.64,-282.52C358.62,-280.06 366.7,-277.07 374,-273.5 391.96,-264.71 392.52,-256.22 410,-246.5 412.32,-245.21 414.73,-243.95 417.19,-242.74"/>
<polygon fill="#63b8ff" stroke="#63b8ff" points="418.5,-245.99 426.11,-238.62 415.56,-239.63 418.5,-245.99"/>
</g>
<!-- Node8 -->
<g id="node8" class="node">
<title>Node8</title>
<g id="a_node8"><a xlink:href="structkepler_1_1_a_s_t_node.html#a05bfe92973fce5532d1bdc50fc9b56eb" target="_top" xlink:title=" ">
<polygon fill="white" stroke="#666666" points="698,-403 571,-403 571,-384 698,-384 698,-403"/>
<text text-anchor="middle" x="634.5" y="-391" font-family="Helvetica,sans-Serif" font-size="10.00">kepler::ASTNode::accept</text>
</a>
</g>
</g>
<!-- Node7&#45;&gt;Node8 -->
<g id="edge7" class="edge">
<title>Node7&#45;&gt;Node8</title>
<path fill="none" stroke="#63b8ff" d="M519.35,-393.5C531.83,-393.5 545.68,-393.5 559.3,-393.5"/>
<polygon fill="#63b8ff" stroke="#63b8ff" points="559.14,-397 569.14,-393.5 559.14,-390 559.14,-397"/>
</g>
<!-- Node11 -->
<g id="node11" class="node">
<title>Node11</title>
<g id="a_node11"><a xlink:href="classkepler_1_1_symbol_table.html#a1d080f6571e21935f800524195b5e5a7" target="_top" xlink:title=" ">
<polygon fill="white" stroke="#666666" points="697,-323 572,-323 572,-304 697,-304 697,-323"/>
<text text-anchor="middle" x="634.5" y="-311" font-family="Helvetica,sans-Serif" font-size="10.00">kepler::SymbolTable::get</text>
</a>
</g>
</g>
<!-- Node10&#45;&gt;Node11 -->
<g id="edge10" class="edge">
<title>Node10&#45;&gt;Node11</title>
<path fill="none" stroke="#63b8ff" d="M530.81,-313.5C540.35,-313.5 550.36,-313.5 560.23,-313.5"/>
<polygon fill="#63b8ff" stroke="#63b8ff" points="560.2,-317 570.2,-313.5 560.2,-310 560.2,-317"/>
</g>
<!-- Node15 -->
<g id="node15" class="node">
<title>Node15</title>
<g id="a_node15"><a xlink:href="classkepler_1_1_symbol_table.html#a928b41896a0c0f1b5eef23ae3f35c3b3" target="_top" xlink:title=" ">
<polygon fill="white" stroke="#666666" points="535,-171 410,-171 410,-152 535,-152 535,-171"/>
<text text-anchor="middle" x="472.5" y="-159" font-family="Helvetica,sans-Serif" font-size="10.00">kepler::SymbolTable::set</text>
</a>
</g>
</g>
<!-- Node14&#45;&gt;Node15 -->
<g id="edge14" class="edge">
<title>Node14&#45;&gt;Node15</title>
<path fill="none" stroke="#63b8ff" d="M355.02,-234.14C361.54,-231.56 368.02,-228.67 374,-225.5 391.67,-216.12 393.41,-209.67 410,-198.5 420.97,-191.12 433.41,-183.5 444.21,-177.11"/>
<polygon fill="#63b8ff" stroke="#63b8ff" points="445.8,-180.24 452.67,-172.17 442.27,-174.19 445.8,-180.24"/>
</g>
<!-- Node15&#45;&gt;Node15 -->
<g id="edge17" class="edge">
<title>Node15&#45;&gt;Node15</title>
<path fill="none" stroke="#63b8ff" d="M447.14,-171.37C435.57,-179.94 444.02,-189 472.5,-189 488.52,-189 498.2,-186.13 501.55,-182.1"/>
<polygon fill="#63b8ff" stroke="#63b8ff" points="504.91,-181.12 498.35,-172.8 498.29,-183.39 504.91,-181.12"/>
</g>
<!-- Node16 -->
<g id="node16" class="node">
<title>Node16</title>
<g id="a_node16"><a xlink:href="classkepler_1_1_symbol_table.html#a57403652693faf5adf05509f540520e9" target="_top" xlink:title=" ">
<polygon fill="white" stroke="#666666" points="687,-176.5 582,-176.5 582,-146.5 687,-146.5 687,-176.5"/>
<text text-anchor="start" x="590" y="-164.5" font-family="Helvetica,sans-Serif" font-size="10.00">kepler::SymbolTable</text>
<text text-anchor="middle" x="634.5" y="-153.5" font-family="Helvetica,sans-Serif" font-size="10.00">::contains</text>
</a>
</g>
</g>
<!-- Node15&#45;&gt;Node16 -->
<g id="edge15" class="edge">
<title>Node15&#45;&gt;Node16</title>
<path fill="none" stroke="#63b8ff" d="M535.36,-161.5C546.84,-161.5 558.84,-161.5 570.35,-161.5"/>
<polygon fill="#63b8ff" stroke="#63b8ff" points="570.15,-165 580.15,-161.5 570.15,-158 570.15,-165"/>
</g>
<!-- Node16&#45;&gt;Node16 -->
<g id="edge16" class="edge">
<title>Node16&#45;&gt;Node16</title>
<path fill="none" stroke="#63b8ff" d="M606.02,-176.78C599.7,-185.91 609.19,-194.5 634.5,-194.5 648.34,-194.5 657.45,-191.93 661.83,-188.11"/>
<polygon fill="#63b8ff" stroke="#63b8ff" points="665.3,-188.58 662.82,-178.28 658.34,-187.88 665.3,-188.58"/>
</g>
<!-- Node22 -->
<g id="node22" class="node">
<title>Node22</title>
<g id="a_node22"><a xlink:href="classkepler_1_1error.html#a7694165073a5e4844154e625f5fddf6c" target="_top" xlink:title=" ">
<polygon fill="white" stroke="#666666" points="519,-93 426,-93 426,-74 519,-74 519,-93"/>
<text text-anchor="middle" x="472.5" y="-81" font-family="Helvetica,sans-Serif" font-size="10.00">kepler::error::type</text>
</a>
</g>
</g>
<!-- Node21&#45;&gt;Node22 -->
<g id="edge23" class="edge">
<title>Node21&#45;&gt;Node22</title>
<path fill="none" stroke="#63b8ff" d="M349.25,-56.42C369.66,-60.94 394.03,-66.34 415.62,-71.12"/>
<polygon fill="#63b8ff" stroke="#63b8ff" points="414.63,-74.48 425.15,-73.23 416.14,-67.65 414.63,-74.48"/>
</g>
<!-- Node24 -->
<g id="node24" class="node">
<title>Node24</title>
<g id="a_node24"><a xlink:href="classkepler_1_1error.html#a4e6ac4013bc23fa893866d2bb0f5d6b8" target="_top" xlink:title=" ">
<polygon fill="white" stroke="#666666" points="523,-56 422,-56 422,-37 523,-37 523,-56"/>
<text text-anchor="middle" x="472.5" y="-44" font-family="Helvetica,sans-Serif" font-size="10.00">kepler::error::where</text>
</a>
</g>
</g>
<!-- Node21&#45;&gt;Node24 -->
<g id="edge25" class="edge">
<title>Node21&#45;&gt;Node24</title>
<path fill="none" stroke="#63b8ff" d="M359.64,-46.5C375.93,-46.5 393.85,-46.5 410.49,-46.5"/>
<polygon fill="#63b8ff" stroke="#63b8ff" points="410.25,-50 420.25,-46.5 410.25,-43 410.25,-50"/>
</g>
<!-- Node25 -->
<g id="node25" class="node">
<title>Node25</title>
<g id="a_node25"><a xlink:href="classkepler_1_1error.html#af431dcb57cb6e62850a8bb2d6258c5e7" target="_top" xlink:title=" ">
<polygon fill="white" stroke="#666666" points="518.5,-19 426.5,-19 426.5,0 518.5,0 518.5,-19"/>
<text text-anchor="middle" x="472.5" y="-7" font-family="Helvetica,sans-Serif" font-size="10.00">kepler::error::why</text>
</a>
</g>
</g>
<!-- Node21&#45;&gt;Node25 -->
<g id="edge26" class="edge">
<title>Node21&#45;&gt;Node25</title>
<path fill="none" stroke="#63b8ff" d="M349.25,-36.58C369.66,-32.06 394.03,-26.66 415.62,-21.88"/>
<polygon fill="#63b8ff" stroke="#63b8ff" points="416.14,-25.35 425.15,-19.77 414.63,-18.52 416.14,-25.35"/>
</g>
<!-- Node23 -->
<g id="node23" class="node">
<title>Node23</title>
<g id="a_node23"><a xlink:href="namespacekepler.html#a76d95d0e078e053088ec440c6e878ab3" target="_top" xlink:title=" ">
<polygon fill="white" stroke="#666666" points="677.5,-93 591.5,-93 591.5,-74 677.5,-74 677.5,-93"/>
<text text-anchor="middle" x="634.5" y="-81" font-family="Helvetica,sans-Serif" font-size="10.00">kepler::to_string</text>
</a>
</g>
</g>
<!-- Node22&#45;&gt;Node23 -->
<g id="edge24" class="edge">
<title>Node22&#45;&gt;Node23</title>
<path fill="none" stroke="#63b8ff" d="M519.35,-83.5C538.26,-83.5 560.31,-83.5 579.96,-83.5"/>
<polygon fill="#63b8ff" stroke="#63b8ff" points="579.69,-87 589.69,-83.5 579.69,-80 579.69,-87"/>
</g>
</g>
</svg>
