<?xml version="1.0" encoding="UTF-8" standalone="no"?>
<!DOCTYPE svg PUBLIC "-//W3C//DTD SVG 1.1//EN"
 "http://www.w3.org/Graphics/SVG/1.1/DTD/svg11.dtd">
<!-- Generated by graphviz version 7.1.0 (20230121.1956)
 -->
<!-- Title: src/core/helpers/classifiers.h Pages: 1 -->
<svg width="592pt" height="247pt"
 viewBox="0.00 0.00 592.00 247.00" xmlns="http://www.w3.org/2000/svg" xmlns:xlink="http://www.w3.org/1999/xlink">
<g id="graph0" class="graph" transform="scale(1 1) rotate(0) translate(4 243)">
<title>src/core/helpers/classifiers.h</title>
<!-- Node1 -->
<g id="node1" class="node">
<title>Node1</title>
<g id="a_node1"><a xlink:title=" ">
<polygon fill="#999999" stroke="#666666" points="368.5,-239 226.5,-239 226.5,-220 368.5,-220 368.5,-239"/>
<text text-anchor="middle" x="297.5" y="-227" font-family="Helvetica,sans-Serif" font-size="10.00">src/core/helpers/classifiers.h</text>
</a>
</g>
</g>
<!-- Node2 -->
<g id="node2" class="node">
<title>Node2</title>
<g id="a_node2"><a xlink:href="token_8h.html" target="_top" xlink:title=" ">
<polygon fill="white" stroke="#666666" points="333,-184 262,-184 262,-165 333,-165 333,-184"/>
<text text-anchor="middle" x="297.5" y="-172" font-family="Helvetica,sans-Serif" font-size="10.00">core/token.h</text>
</a>
</g>
</g>
<!-- Node1&#45;&gt;Node2 -->
<g id="edge1" class="edge">
<title>Node1&#45;&gt;Node2</title>
<path fill="none" stroke="#63b8ff" d="M297.5,-219.75C297.5,-213.27 297.5,-204.16 297.5,-195.9"/>
<polygon fill="#63b8ff" stroke="#63b8ff" points="301,-195.96 297.5,-185.96 294,-195.96 301,-195.96"/>
</g>
<!-- Node3 -->
<g id="node3" class="node">
<title>Node3</title>
<g id="a_node3"><a xlink:href="token__type_8h.html" target="_top" xlink:title=" ">
<polygon fill="white" stroke="#666666" points="73,-74 0,-74 0,-55 73,-55 73,-74"/>
<text text-anchor="middle" x="36.5" y="-62" font-family="Helvetica,sans-Serif" font-size="10.00">token_type.h</text>
</a>
</g>
</g>
<!-- Node2&#45;&gt;Node3 -->
<g id="edge2" class="edge">
<title>Node2&#45;&gt;Node3</title>
<path fill="none" stroke="#63b8ff" d="M261.54,-172.57C197.89,-170.1 69.34,-161.15 40.5,-129 30.11,-117.42 29.94,-99.35 31.9,-85.45"/>
<polygon fill="#63b8ff" stroke="#63b8ff" points="35.33,-86.12 33.77,-75.64 28.45,-84.81 35.33,-86.12"/>
</g>
<!-- Node5 -->
<g id="node5" class="node">
<title>Node5</title>
<g id="a_node5"><a xlink:href="datatypes_8h.html" target="_top" xlink:title=" ">
<polygon fill="white" stroke="#666666" points="213.5,-74 145.5,-74 145.5,-55 213.5,-55 213.5,-74"/>
<text text-anchor="middle" x="179.5" y="-62" font-family="Helvetica,sans-Serif" font-size="10.00">datatypes.h</text>
</a>
</g>
</g>
<!-- Node2&#45;&gt;Node5 -->
<g id="edge4" class="edge">
<title>Node2&#45;&gt;Node5</title>
<path fill="none" stroke="#63b8ff" d="M278.99,-164.65C263.59,-156.7 241.65,-144 225.5,-129 211.18,-115.69 198.45,-97.33 190.03,-83.78"/>
<polygon fill="#63b8ff" stroke="#63b8ff" points="193.17,-82.21 185.04,-75.42 187.17,-85.8 193.17,-82.21"/>
</g>
<!-- Node9 -->
<g id="node9" class="node">
<title>Node9</title>
<g id="a_node9"><a xlink:title=" ">
<polygon fill="#e0e0e0" stroke="#999999" points="380,-129 297,-129 297,-110 380,-110 380,-129"/>
<text text-anchor="middle" x="338.5" y="-117" font-family="Helvetica,sans-Serif" font-size="10.00">uni_algo/conv.h</text>
</a>
</g>
</g>
<!-- Node2&#45;&gt;Node9 -->
<g id="edge8" class="edge">
<title>Node2&#45;&gt;Node9</title>
<path fill="none" stroke="#63b8ff" d="M304.27,-164.75C309.82,-157.58 317.84,-147.2 324.73,-138.3"/>
<polygon fill="#63b8ff" stroke="#63b8ff" points="327.31,-140.69 330.66,-130.64 321.77,-136.41 327.31,-140.69"/>
</g>
<!-- Node10 -->
<g id="node10" class="node">
<title>Node10</title>
<g id="a_node10"><a xlink:href="array_8h.html" target="_top" xlink:title=" ">
<polygon fill="white" stroke="#666666" points="279,-129 234,-129 234,-110 279,-110 279,-129"/>
<text text-anchor="middle" x="256.5" y="-117" font-family="Helvetica,sans-Serif" font-size="10.00">array.h</text>
</a>
</g>
</g>
<!-- Node2&#45;&gt;Node10 -->
<g id="edge9" class="edge">
<title>Node2&#45;&gt;Node10</title>
<path fill="none" stroke="#63b8ff" d="M290.73,-164.75C285.18,-157.58 277.16,-147.2 270.27,-138.3"/>
<polygon fill="#63b8ff" stroke="#63b8ff" points="273.23,-136.41 264.34,-130.64 267.69,-140.69 273.23,-136.41"/>
</g>
<!-- Node12 -->
<g id="node12" class="node">
<title>Node12</title>
<g id="a_node12"><a xlink:href="conversion_8h.html" target="_top" xlink:title=" ">
<polygon fill="white" stroke="#666666" points="177.5,-129 49.5,-129 49.5,-110 177.5,-110 177.5,-129"/>
<text text-anchor="middle" x="113.5" y="-117" font-family="Helvetica,sans-Serif" font-size="10.00">core/helpers/conversion.h</text>
</a>
</g>
</g>
<!-- Node2&#45;&gt;Node12 -->
<g id="edge12" class="edge">
<title>Node2&#45;&gt;Node12</title>
<path fill="none" stroke="#63b8ff" d="M266.29,-164.51C235.8,-155.73 189.18,-142.3 155.46,-132.59"/>
<polygon fill="#63b8ff" stroke="#63b8ff" points="156.59,-129.27 146.01,-129.87 154.65,-136 156.59,-129.27"/>
</g>
<!-- Node13 -->
<g id="node13" class="node">
<title>Node13</title>
<g id="a_node13"><a xlink:title=" ">
<polygon fill="#e0e0e0" stroke="#999999" points="438.5,-129 398.5,-129 398.5,-110 438.5,-110 438.5,-129"/>
<text text-anchor="middle" x="418.5" y="-117" font-family="Helvetica,sans-Serif" font-size="10.00">utility</text>
</a>
</g>
</g>
<!-- Node2&#45;&gt;Node13 -->
<g id="edge16" class="edge">
<title>Node2&#45;&gt;Node13</title>
<path fill="none" stroke="#63b8ff" d="M318.03,-164.51C337.18,-156.12 366,-143.5 387.87,-133.92"/>
<polygon fill="#63b8ff" stroke="#63b8ff" points="389.14,-137.18 396.89,-129.97 386.33,-130.77 389.14,-137.18"/>
</g>
<!-- Node14 -->
<g id="node14" class="node">
<title>Node14</title>
<g id="a_node14"><a xlink:title=" ">
<polygon fill="#e0e0e0" stroke="#999999" points="506.5,-129 456.5,-129 456.5,-110 506.5,-110 506.5,-129"/>
<text text-anchor="middle" x="481.5" y="-117" font-family="Helvetica,sans-Serif" font-size="10.00">optional</text>
</a>
</g>
</g>
<!-- Node2&#45;&gt;Node14 -->
<g id="edge17" class="edge">
<title>Node2&#45;&gt;Node14</title>
<path fill="none" stroke="#63b8ff" d="M328.71,-164.51C360.95,-155.22 411.22,-140.74 445.22,-130.95"/>
<polygon fill="#63b8ff" stroke="#63b8ff" points="445.97,-134.38 454.62,-128.24 444.04,-127.65 445.97,-134.38"/>
</g>
<!-- Node15 -->
<g id="node15" class="node">
<title>Node15</title>
<g id="a_node15"><a xlink:href="position_8h.html" target="_top" xlink:title=" ">
<polygon fill="white" stroke="#666666" points="584,-129 525,-129 525,-110 584,-110 584,-129"/>
<text text-anchor="middle" x="554.5" y="-117" font-family="Helvetica,sans-Serif" font-size="10.00">position.h</text>
</a>
</g>
</g>
<!-- Node2&#45;&gt;Node15 -->
<g id="edge18" class="edge">
<title>Node2&#45;&gt;Node15</title>
<path fill="none" stroke="#63b8ff" d="M333.41,-166.32C374.44,-158.08 443.92,-144.04 513.53,-129.39"/>
<polygon fill="#63b8ff" stroke="#63b8ff" points="514.15,-132.84 523.22,-127.35 512.71,-125.99 514.15,-132.84"/>
</g>
<!-- Node4 -->
<g id="node4" class="node">
<title>Node4</title>
<g id="a_node4"><a xlink:title=" ">
<polygon fill="#e0e0e0" stroke="#999999" points="63.5,-19 9.5,-19 9.5,0 63.5,0 63.5,-19"/>
<text text-anchor="middle" x="36.5" y="-7" font-family="Helvetica,sans-Serif" font-size="10.00">iostream</text>
</a>
</g>
</g>
<!-- Node3&#45;&gt;Node4 -->
<g id="edge3" class="edge">
<title>Node3&#45;&gt;Node4</title>
<path fill="none" stroke="#63b8ff" d="M36.5,-54.75C36.5,-48.27 36.5,-39.16 36.5,-30.9"/>
<polygon fill="#63b8ff" stroke="#63b8ff" points="40,-30.96 36.5,-20.96 33,-30.96 40,-30.96"/>
</g>
<!-- Node6 -->
<g id="node6" class="node">
<title>Node6</title>
<g id="a_node6"><a xlink:title=" ">
<polygon fill="#e0e0e0" stroke="#999999" points="201.5,-19 157.5,-19 157.5,0 201.5,0 201.5,-19"/>
<text text-anchor="middle" x="179.5" y="-7" font-family="Helvetica,sans-Serif" font-size="10.00">vector</text>
</a>
</g>
</g>
<!-- Node5&#45;&gt;Node6 -->
<g id="edge5" class="edge">
<title>Node5&#45;&gt;Node6</title>
<path fill="none" stroke="#63b8ff" d="M179.5,-54.75C179.5,-48.27 179.5,-39.16 179.5,-30.9"/>
<polygon fill="#63b8ff" stroke="#63b8ff" points="183,-30.96 179.5,-20.96 176,-30.96 183,-30.96"/>
</g>
<!-- Node7 -->
<g id="node7" class="node">
<title>Node7</title>
<g id="a_node7"><a xlink:title=" ">
<polygon fill="#e0e0e0" stroke="#999999" points="136,-19 95,-19 95,0 136,0 136,-19"/>
<text text-anchor="middle" x="115.5" y="-7" font-family="Helvetica,sans-Serif" font-size="10.00">string</text>
</a>
</g>
</g>
<!-- Node5&#45;&gt;Node7 -->
<g id="edge6" class="edge">
<title>Node5&#45;&gt;Node7</title>
<path fill="none" stroke="#63b8ff" d="M168.64,-54.51C159.39,-46.85 145.88,-35.66 134.79,-26.47"/>
<polygon fill="#63b8ff" stroke="#63b8ff" points="137.3,-24.01 127.36,-20.32 132.83,-29.4 137.3,-24.01"/>
</g>
<!-- Node8 -->
<g id="node8" class="node">
<title>Node8</title>
<g id="a_node8"><a xlink:title=" ">
<polygon fill="#e0e0e0" stroke="#999999" points="273,-19 220,-19 220,0 273,0 273,-19"/>
<text text-anchor="middle" x="246.5" y="-7" font-family="Helvetica,sans-Serif" font-size="10.00">complex</text>
</a>
</g>
</g>
<!-- Node5&#45;&gt;Node8 -->
<g id="edge7" class="edge">
<title>Node5&#45;&gt;Node8</title>
<path fill="none" stroke="#63b8ff" d="M190.87,-54.51C200.55,-46.85 214.7,-35.66 226.31,-26.47"/>
<polygon fill="#63b8ff" stroke="#63b8ff" points="228.44,-29.25 234.12,-20.3 224.1,-23.76 228.44,-29.25"/>
</g>
<!-- Node10&#45;&gt;Node5 -->
<g id="edge10" class="edge">
<title>Node10&#45;&gt;Node5</title>
<path fill="none" stroke="#63b8ff" d="M243.44,-109.51C231.98,-101.62 215.07,-89.98 201.52,-80.65"/>
<polygon fill="#63b8ff" stroke="#63b8ff" points="203.84,-78 193.62,-75.22 199.87,-83.77 203.84,-78"/>
</g>
<!-- Node11 -->
<g id="node11" class="node">
<title>Node11</title>
<g id="a_node11"><a xlink:title=" ">
<polygon fill="#e0e0e0" stroke="#999999" points="279.5,-74 233.5,-74 233.5,-55 279.5,-55 279.5,-74"/>
<text text-anchor="middle" x="256.5" y="-62" font-family="Helvetica,sans-Serif" font-size="10.00">variant</text>
</a>
</g>
</g>
<!-- Node10&#45;&gt;Node11 -->
<g id="edge11" class="edge">
<title>Node10&#45;&gt;Node11</title>
<path fill="none" stroke="#63b8ff" d="M256.5,-109.75C256.5,-103.27 256.5,-94.16 256.5,-85.9"/>
<polygon fill="#63b8ff" stroke="#63b8ff" points="260,-85.96 256.5,-75.96 253,-85.96 260,-85.96"/>
</g>
<!-- Node12&#45;&gt;Node3 -->
<g id="edge15" class="edge">
<title>Node12&#45;&gt;Node3</title>
<path fill="none" stroke="#63b8ff" d="M100.44,-109.51C88.98,-101.62 72.07,-89.98 58.52,-80.65"/>
<polygon fill="#63b8ff" stroke="#63b8ff" points="60.84,-78 50.62,-75.22 56.87,-83.77 60.84,-78"/>
</g>
<!-- Node12&#45;&gt;Node5 -->
<g id="edge14" class="edge">
<title>Node12&#45;&gt;Node5</title>
<path fill="none" stroke="#63b8ff" d="M124.7,-109.51C134.24,-101.85 148.17,-90.66 159.61,-81.47"/>
<polygon fill="#63b8ff" stroke="#63b8ff" points="161.68,-84.3 167.29,-75.31 157.3,-78.84 161.68,-84.3"/>
</g>
<!-- Node12&#45;&gt;Node7 -->
<g id="edge13" class="edge">
<title>Node12&#45;&gt;Node7</title>
<path fill="none" stroke="#63b8ff" d="M113.66,-109.66C113.98,-92.57 114.68,-54.61 115.12,-30.92"/>
<polygon fill="#63b8ff" stroke="#63b8ff" points="118.62,-31.04 115.31,-20.97 111.62,-30.91 118.62,-31.04"/>
</g>
</g>
</svg>
