<?xml version="1.0" encoding="UTF-8" standalone="no"?>
<!DOCTYPE svg PUBLIC "-//W3C//DTD SVG 1.1//EN"
 "http://www.w3.org/Graphics/SVG/1.1/DTD/svg11.dtd">
<!-- Generated by graphviz version 7.1.0 (20230121.1956)
 -->
<!-- Title: kepler::SymbolTable::insert_system_parameters Pages: 1 -->
<svg width="450pt" height="175pt"
 viewBox="0.00 0.00 450.00 175.00" xmlns="http://www.w3.org/2000/svg" xmlns:xlink="http://www.w3.org/1999/xlink">
<g id="graph0" class="graph" transform="scale(1 1) rotate(0) translate(4 171)">
<title>kepler::SymbolTable::insert_system_parameters</title>
<!-- Node1 -->
<g id="node1" class="node">
<title>Node1</title>
<g id="a_node1"><a xlink:title=" ">
<polygon fill="#999999" stroke="#666666" points="442,-98.5 304,-98.5 304,-68.5 442,-68.5 442,-98.5"/>
<text text-anchor="start" x="312" y="-86.5" font-family="Helvetica,sans-Serif" font-size="10.00">kepler::SymbolTable</text>
<text text-anchor="middle" x="373" y="-75.5" font-family="Helvetica,sans-Serif" font-size="10.00">::insert_system_parameters</text>
</a>
</g>
</g>
<!-- Node2 -->
<g id="node2" class="node">
<title>Node2</title>
<g id="a_node2"><a xlink:href="class_general_fixture.html#ad7dec8c174d985b2fdc5dab4eb7e6ebb" target="_top" xlink:title=" ">
<polygon fill="white" stroke="#666666" points="268,-167 118,-167 118,-148 268,-148 268,-167"/>
<text text-anchor="middle" x="193" y="-155" font-family="Helvetica,sans-Serif" font-size="10.00">GeneralFixture::GeneralFixture</text>
</a>
</g>
</g>
<!-- Node1&#45;&gt;Node2 -->
<g id="edge1" class="edge">
<title>Node1&#45;&gt;Node2</title>
<path fill="none" stroke="#63b8ff" d="M337.86,-104.76C318.05,-116.34 292.29,-130.18 268,-139.5 259.98,-142.58 251.26,-145.25 242.71,-147.53"/>
<polygon fill="#63b8ff" stroke="#63b8ff" points="339.53,-107.83 346.33,-99.71 335.95,-101.82 339.53,-107.83"/>
</g>
<!-- Node3 -->
<g id="node3" class="node">
<title>Node3</title>
<g id="a_node3"><a xlink:href="class_parser_fixture.html#ac2175ebf91af86c00caf2541fc367334" target="_top" xlink:title=" ">
<polygon fill="white" stroke="#666666" points="263,-130 123,-130 123,-111 263,-111 263,-130"/>
<text text-anchor="middle" x="193" y="-118" font-family="Helvetica,sans-Serif" font-size="10.00">ParserFixture::ParserFixture</text>
</a>
</g>
</g>
<!-- Node1&#45;&gt;Node3 -->
<g id="edge2" class="edge">
<title>Node1&#45;&gt;Node3</title>
<path fill="none" stroke="#63b8ff" d="M292.47,-100.03C275.24,-103.61 257.54,-107.29 241.98,-110.53"/>
<polygon fill="#63b8ff" stroke="#63b8ff" points="293.13,-103.47 302.21,-98.01 291.7,-96.62 293.13,-103.47"/>
</g>
<!-- Node4 -->
<g id="node4" class="node">
<title>Node4</title>
<g id="a_node4"><a xlink:href="namespacekepler.html#ae45e010aed51dc28b896694f75dc2ca7" target="_top" xlink:title=" ">
<polygon fill="white" stroke="#666666" points="233,-56 153,-56 153,-37 233,-37 233,-56"/>
<text text-anchor="middle" x="193" y="-44" font-family="Helvetica,sans-Serif" font-size="10.00">kepler::run_file</text>
</a>
</g>
</g>
<!-- Node1&#45;&gt;Node4 -->
<g id="edge3" class="edge">
<title>Node1&#45;&gt;Node4</title>
<path fill="none" stroke="#63b8ff" d="M292.68,-67.01C272.09,-62.73 250.8,-58.31 233.29,-54.67"/>
<polygon fill="#63b8ff" stroke="#63b8ff" points="291.7,-70.38 302.21,-68.99 293.13,-63.53 291.7,-70.38"/>
</g>
<!-- Node7 -->
<g id="node7" class="node">
<title>Node7</title>
<g id="a_node7"><a xlink:href="namespacekepler.html#a2eea97746f0ae5fd054d304271c171f5" target="_top" xlink:title=" ">
<polygon fill="white" stroke="#666666" points="234.5,-93 151.5,-93 151.5,-74 234.5,-74 234.5,-93"/>
<text text-anchor="middle" x="193" y="-81" font-family="Helvetica,sans-Serif" font-size="10.00">kepler::run_repl</text>
</a>
</g>
</g>
<!-- Node1&#45;&gt;Node7 -->
<g id="edge6" class="edge">
<title>Node1&#45;&gt;Node7</title>
<path fill="none" stroke="#63b8ff" d="M292.4,-83.5C272.5,-83.5 251.96,-83.5 234.83,-83.5"/>
<polygon fill="#63b8ff" stroke="#63b8ff" points="292.18,-87 302.18,-83.5 292.18,-80 292.18,-87"/>
</g>
<!-- Node8 -->
<g id="node8" class="node">
<title>Node8</title>
<g id="a_node8"><a xlink:href="class_kepler_fixture.html#a9f53d30ae2f6e1331bd7a1659404df53" target="_top" xlink:title=" ">
<polygon fill="white" stroke="#666666" points="247,-19 139,-19 139,0 247,0 247,-19"/>
<text text-anchor="middle" x="193" y="-7" font-family="Helvetica,sans-Serif" font-size="10.00">KeplerFixture::SetUp</text>
</a>
</g>
</g>
<!-- Node1&#45;&gt;Node8 -->
<g id="edge8" class="edge">
<title>Node1&#45;&gt;Node8</title>
<path fill="none" stroke="#63b8ff" d="M337.86,-62.24C318.05,-50.66 292.29,-36.82 268,-27.5 259.98,-24.42 251.26,-21.75 242.71,-19.47"/>
<polygon fill="#63b8ff" stroke="#63b8ff" points="335.95,-65.18 346.33,-67.29 339.53,-59.17 335.95,-65.18"/>
</g>
<!-- Node5 -->
<g id="node5" class="node">
<title>Node5</title>
<g id="a_node5"><a xlink:href="main_8cpp.html#a0ddf1224851353fc92bfbff6f499fa97" target="_top" xlink:title=" ">
<polygon fill="white" stroke="#666666" points="60,-93 22,-93 22,-74 60,-74 60,-93"/>
<text text-anchor="middle" x="41" y="-81" font-family="Helvetica,sans-Serif" font-size="10.00">main</text>
</a>
</g>
</g>
<!-- Node4&#45;&gt;Node5 -->
<g id="edge4" class="edge">
<title>Node4&#45;&gt;Node5</title>
<path fill="none" stroke="#63b8ff" d="M141.73,-58.9C113.67,-65.82 80.4,-74.03 60.26,-79"/>
<polygon fill="#63b8ff" stroke="#63b8ff" points="142.25,-62.38 151.12,-56.58 140.57,-55.58 142.25,-62.38"/>
</g>
<!-- Node6 -->
<g id="node6" class="node">
<title>Node6</title>
<g id="a_node6"><a xlink:href="class_file_fixture.html#aed1771b5e05cdce7af6d69a50a7e4f6c" target="_top" xlink:title=" ">
<polygon fill="white" stroke="#666666" points="82,-56 0,-56 0,-37 82,-37 82,-56"/>
<text text-anchor="middle" x="41" y="-44" font-family="Helvetica,sans-Serif" font-size="10.00">FileFixture::run</text>
</a>
</g>
</g>
<!-- Node4&#45;&gt;Node6 -->
<g id="edge5" class="edge">
<title>Node4&#45;&gt;Node6</title>
<path fill="none" stroke="#63b8ff" d="M141.31,-46.5C122.13,-46.5 100.57,-46.5 82.45,-46.5"/>
<polygon fill="#63b8ff" stroke="#63b8ff" points="141.08,-50 151.08,-46.5 141.08,-43 141.08,-50"/>
</g>
<!-- Node7&#45;&gt;Node5 -->
<g id="edge7" class="edge">
<title>Node7&#45;&gt;Node5</title>
<path fill="none" stroke="#63b8ff" d="M139.51,-83.5C111.93,-83.5 79.87,-83.5 60.26,-83.5"/>
<polygon fill="#63b8ff" stroke="#63b8ff" points="139.5,-87 149.5,-83.5 139.5,-80 139.5,-87"/>
</g>
</g>
</svg>
