<?xml version="1.0" encoding="UTF-8" standalone="no"?>
<!DOCTYPE svg PUBLIC "-//W3C//DTD SVG 1.1//EN"
 "http://www.w3.org/Graphics/SVG/1.1/DTD/svg11.dtd">
<!-- Generated by graphviz version 7.1.0 (20230121.1956)
 -->
<!-- Title: BASE Pages: 1 -->
<svg width="3486pt" height="614pt"
 viewBox="0.00 0.00 3486.00 614.00" xmlns="http://www.w3.org/2000/svg" xmlns:xlink="http://www.w3.org/1999/xlink">
<g id="graph0" class="graph" transform="scale(1 1) rotate(0) translate(4 610)">
<title>BASE</title>
<!-- Node1 -->
<g id="node1" class="node">
<title>Node1</title>
<g id="a_node1"><a xlink:title=" ">
<polygon fill="#999999" stroke="#666666" points="1717,-548.5 1717,-605.5 1761,-605.5 1761,-548.5 1717,-548.5"/>
<text text-anchor="middle" x="1739" y="-593.5" font-family="Helvetica,sans-Serif" font-size="10.00">BASE</text>
<polyline fill="none" stroke="#666666" points="1717,-586.5 1761,-586.5"/>
<text text-anchor="middle" x="1739" y="-574.5" font-family="Helvetica,sans-Serif" font-size="10.00"> </text>
<polyline fill="none" stroke="#666666" points="1717,-567.5 1761,-567.5"/>
<text text-anchor="middle" x="1739" y="-555.5" font-family="Helvetica,sans-Serif" font-size="10.00"> </text>
</a>
</g>
</g>
<!-- Node2 -->
<g id="node2" class="node">
<title>Node2</title>
<g id="a_node2"><a xlink:href="structkepler_1_1_pervade_mixin.html" target="_top" xlink:title=" ">
<polygon fill="white" stroke="#666666" points="1680.5,-365.5 1680.5,-510.5 1797.5,-510.5 1797.5,-365.5 1680.5,-365.5"/>
<text text-anchor="start" x="1688.5" y="-498.5" font-family="Helvetica,sans-Serif" font-size="10.00">kepler::PervadeMixin</text>
<text text-anchor="middle" x="1739" y="-487.5" font-family="Helvetica,sans-Serif" font-size="10.00">&lt; BASE &gt;</text>
<polyline fill="none" stroke="#666666" points="1680.5,-480.5 1797.5,-480.5"/>
<text text-anchor="middle" x="1739" y="-468.5" font-family="Helvetica,sans-Serif" font-size="10.00"> </text>
<polyline fill="none" stroke="#666666" points="1680.5,-461.5 1797.5,-461.5"/>
<text text-anchor="start" x="1688.5" y="-449.5" font-family="Helvetica,sans-Serif" font-size="10.00">+ virtual Array operator</text>
<text text-anchor="start" x="1688.5" y="-438.5" font-family="Helvetica,sans-Serif" font-size="10.00">()(const Array &amp;omega)</text>
<text text-anchor="start" x="1688.5" y="-427.5" font-family="Helvetica,sans-Serif" font-size="10.00">+ virtual Array operator</text>
<text text-anchor="start" x="1688.5" y="-416.5" font-family="Helvetica,sans-Serif" font-size="10.00">()(const Array &amp;alpha,</text>
<text text-anchor="start" x="1688.5" y="-405.5" font-family="Helvetica,sans-Serif" font-size="10.00"> const Array &amp;omega)</text>
<text text-anchor="start" x="1688.5" y="-394.5" font-family="Helvetica,sans-Serif" font-size="10.00">+ virtual Array operator</text>
<text text-anchor="start" x="1688.5" y="-383.5" font-family="Helvetica,sans-Serif" font-size="10.00">()(const String &amp;alpha,</text>
<text text-anchor="start" x="1688.5" y="-372.5" font-family="Helvetica,sans-Serif" font-size="10.00"> const String &amp;omega)</text>
</a>
</g>
</g>
<!-- Node1&#45;&gt;Node2 -->
<g id="edge1" class="edge">
<title>Node1&#45;&gt;Node2</title>
<path fill="none" stroke="#63b8ff" d="M1739,-537.23C1739,-528.79 1739,-519.59 1739,-510.33"/>
<polygon fill="none" stroke="#63b8ff" points="1735.5,-537.09 1739,-547.09 1742.5,-537.09 1735.5,-537.09"/>
</g>
<!-- Node3 -->
<g id="node3" class="node">
<title>Node3</title>
<g id="a_node3"><a xlink:href="structkepler_1_1_pervade_mixin.html" target="_top" xlink:title=" ">
<polygon fill="white" stroke="#666666" points="1680.5,-172.5 1680.5,-317.5 1797.5,-317.5 1797.5,-172.5 1680.5,-172.5"/>
<text text-anchor="start" x="1688.5" y="-305.5" font-family="Helvetica,sans-Serif" font-size="10.00">kepler::PervadeMixin</text>
<text text-anchor="middle" x="1739" y="-294.5" font-family="Helvetica,sans-Serif" font-size="10.00">&lt; Operation &gt;</text>
<polyline fill="none" stroke="#666666" points="1680.5,-287.5 1797.5,-287.5"/>
<text text-anchor="middle" x="1739" y="-275.5" font-family="Helvetica,sans-Serif" font-size="10.00"> </text>
<polyline fill="none" stroke="#666666" points="1680.5,-268.5 1797.5,-268.5"/>
<text text-anchor="start" x="1688.5" y="-256.5" font-family="Helvetica,sans-Serif" font-size="10.00">+ virtual Array operator</text>
<text text-anchor="start" x="1688.5" y="-245.5" font-family="Helvetica,sans-Serif" font-size="10.00">()(const Array &amp;omega)</text>
<text text-anchor="start" x="1688.5" y="-234.5" font-family="Helvetica,sans-Serif" font-size="10.00">+ virtual Array operator</text>
<text text-anchor="start" x="1688.5" y="-223.5" font-family="Helvetica,sans-Serif" font-size="10.00">()(const Array &amp;alpha,</text>
<text text-anchor="start" x="1688.5" y="-212.5" font-family="Helvetica,sans-Serif" font-size="10.00"> const Array &amp;omega)</text>
<text text-anchor="start" x="1688.5" y="-201.5" font-family="Helvetica,sans-Serif" font-size="10.00">+ virtual Array operator</text>
<text text-anchor="start" x="1688.5" y="-190.5" font-family="Helvetica,sans-Serif" font-size="10.00">()(const String &amp;alpha,</text>
<text text-anchor="start" x="1688.5" y="-179.5" font-family="Helvetica,sans-Serif" font-size="10.00"> const String &amp;omega)</text>
</a>
</g>
</g>
<!-- Node2&#45;&gt;Node3 -->
<g id="edge2" class="edge">
<title>Node2&#45;&gt;Node3</title>
<path fill="none" stroke="orange" d="M1739,-354.38C1739,-342.03 1739,-329.39 1739,-317.31"/>
<polygon fill="orange" stroke="orange" points="1735.5,-354.09 1739,-364.09 1742.5,-354.09 1735.5,-354.09"/>
<text text-anchor="middle" x="1771" y="-339" font-family="Helvetica,sans-Serif" font-size="10.00"> &lt; Operation &gt;</text>
</g>
<!-- Node4 -->
<g id="node4" class="node">
<title>Node4</title>
<g id="a_node4"><a xlink:href="structkepler_1_1_and.html" target="_top" xlink:title=" ">
<polygon fill="white" stroke="#666666" points="0,-0.5 0,-134.5 134,-134.5 134,-0.5 0,-0.5"/>
<text text-anchor="middle" x="67" y="-122.5" font-family="Helvetica,sans-Serif" font-size="10.00">kepler::And</text>
<polyline fill="none" stroke="#666666" points="0,-115.5 134,-115.5"/>
<text text-anchor="middle" x="67" y="-103.5" font-family="Helvetica,sans-Serif" font-size="10.00"> </text>
<polyline fill="none" stroke="#666666" points="0,-96.5 134,-96.5"/>
<text text-anchor="start" x="8" y="-84.5" font-family="Helvetica,sans-Serif" font-size="10.00">+ Array operator()(const</text>
<text text-anchor="start" x="8" y="-73.5" font-family="Helvetica,sans-Serif" font-size="10.00"> Number &amp;alpha, const</text>
<text text-anchor="start" x="8" y="-62.5" font-family="Helvetica,sans-Serif" font-size="10.00"> Number &amp;omega) override</text>
<text text-anchor="start" x="8" y="-51.5" font-family="Helvetica,sans-Serif" font-size="10.00">+ Array operator()(const</text>
<text text-anchor="start" x="8" y="-40.5" font-family="Helvetica,sans-Serif" font-size="10.00"> String &amp;alpha, const</text>
<text text-anchor="start" x="8" y="-29.5" font-family="Helvetica,sans-Serif" font-size="10.00"> String &amp;omega) override</text>
<text text-anchor="start" x="8" y="-18.5" font-family="Helvetica,sans-Serif" font-size="10.00">+ Array operator()(const</text>
<text text-anchor="start" x="8" y="-7.5" font-family="Helvetica,sans-Serif" font-size="10.00"> Number &amp;omega) override</text>
</a>
</g>
</g>
<!-- Node3&#45;&gt;Node4 -->
<g id="edge3" class="edge">
<title>Node3&#45;&gt;Node4</title>
<path fill="none" stroke="#63b8ff" d="M1669.21,-240.08C1466.14,-228.55 858.02,-193.06 354,-154 260.12,-146.72 229.57,-172.04 143,-135 139.94,-133.69 136.91,-132.21 133.93,-130.59"/>
<polygon fill="none" stroke="#63b8ff" points="1668.88,-243.57 1679.06,-240.64 1669.28,-236.58 1668.88,-243.57"/>
</g>
<!-- Node5 -->
<g id="node5" class="node">
<title>Node5</title>
<g id="a_node5"><a xlink:href="structkepler_1_1_bar.html" target="_top" xlink:title=" ">
<polygon fill="white" stroke="#666666" points="152,-17 152,-118 286,-118 286,-17 152,-17"/>
<text text-anchor="middle" x="219" y="-106" font-family="Helvetica,sans-Serif" font-size="10.00">kepler::Bar</text>
<polyline fill="none" stroke="#666666" points="152,-99 286,-99"/>
<text text-anchor="middle" x="219" y="-87" font-family="Helvetica,sans-Serif" font-size="10.00"> </text>
<polyline fill="none" stroke="#666666" points="152,-80 286,-80"/>
<text text-anchor="start" x="160" y="-68" font-family="Helvetica,sans-Serif" font-size="10.00">+ Array operator()(const</text>
<text text-anchor="start" x="160" y="-57" font-family="Helvetica,sans-Serif" font-size="10.00"> Number &amp;omega) override</text>
<text text-anchor="start" x="160" y="-46" font-family="Helvetica,sans-Serif" font-size="10.00">+ Array operator()(const</text>
<text text-anchor="start" x="160" y="-35" font-family="Helvetica,sans-Serif" font-size="10.00"> Number &amp;alpha, const</text>
<text text-anchor="start" x="160" y="-24" font-family="Helvetica,sans-Serif" font-size="10.00"> Number &amp;omega) override</text>
</a>
</g>
</g>
<!-- Node3&#45;&gt;Node5 -->
<g id="edge4" class="edge">
<title>Node3&#45;&gt;Node5</title>
<path fill="none" stroke="#63b8ff" d="M1669.28,-239.31C1481.47,-226.59 949.29,-189.97 507,-154 412.71,-146.33 381.98,-172.2 295,-135 285.01,-130.73 275.39,-124.62 266.57,-117.82"/>
<polygon fill="none" stroke="#63b8ff" points="1668.89,-242.79 1679.11,-239.98 1669.37,-235.81 1668.89,-242.79"/>
</g>
<!-- Node6 -->
<g id="node6" class="node">
<title>Node6</title>
<g id="a_node6"><a xlink:href="structkepler_1_1_ceiling.html" target="_top" xlink:title=" ">
<polygon fill="white" stroke="#666666" points="304,-17 304,-118 438,-118 438,-17 304,-17"/>
<text text-anchor="middle" x="371" y="-106" font-family="Helvetica,sans-Serif" font-size="10.00">kepler::Ceiling</text>
<polyline fill="none" stroke="#666666" points="304,-99 438,-99"/>
<text text-anchor="middle" x="371" y="-87" font-family="Helvetica,sans-Serif" font-size="10.00"> </text>
<polyline fill="none" stroke="#666666" points="304,-80 438,-80"/>
<text text-anchor="start" x="312" y="-68" font-family="Helvetica,sans-Serif" font-size="10.00">+ Array operator()(const</text>
<text text-anchor="start" x="312" y="-57" font-family="Helvetica,sans-Serif" font-size="10.00"> Number &amp;alpha, const</text>
<text text-anchor="start" x="312" y="-46" font-family="Helvetica,sans-Serif" font-size="10.00"> Number &amp;omega) override</text>
<text text-anchor="start" x="312" y="-35" font-family="Helvetica,sans-Serif" font-size="10.00">+ Array operator()(const</text>
<text text-anchor="start" x="312" y="-24" font-family="Helvetica,sans-Serif" font-size="10.00"> Number &amp;omega) override</text>
</a>
</g>
</g>
<!-- Node3&#45;&gt;Node6 -->
<g id="edge5" class="edge">
<title>Node3&#45;&gt;Node6</title>
<path fill="none" stroke="#63b8ff" d="M1669.34,-238.53C1496.53,-224.88 1034.28,-188.02 649,-154 559.18,-146.07 529.83,-170.64 447,-135 437.01,-130.7 427.41,-124.59 418.58,-117.79"/>
<polygon fill="none" stroke="#63b8ff" points="1669.03,-242.01 1679.28,-239.31 1669.58,-235.03 1669.03,-242.01"/>
</g>
<!-- Node7 -->
<g id="node7" class="node">
<title>Node7</title>
<g id="a_node7"><a xlink:href="structkepler_1_1_circle.html" target="_top" xlink:title=" ">
<polygon fill="white" stroke="#666666" points="456,-17 456,-118 590,-118 590,-17 456,-17"/>
<text text-anchor="middle" x="523" y="-106" font-family="Helvetica,sans-Serif" font-size="10.00">kepler::Circle</text>
<polyline fill="none" stroke="#666666" points="456,-99 590,-99"/>
<text text-anchor="middle" x="523" y="-87" font-family="Helvetica,sans-Serif" font-size="10.00"> </text>
<polyline fill="none" stroke="#666666" points="456,-80 590,-80"/>
<text text-anchor="start" x="464" y="-68" font-family="Helvetica,sans-Serif" font-size="10.00">+ Array operator()(const</text>
<text text-anchor="start" x="464" y="-57" font-family="Helvetica,sans-Serif" font-size="10.00"> Number &amp;omega) override</text>
<text text-anchor="start" x="464" y="-46" font-family="Helvetica,sans-Serif" font-size="10.00">+ Array operator()(const</text>
<text text-anchor="start" x="464" y="-35" font-family="Helvetica,sans-Serif" font-size="10.00"> Number &amp;alpha, const</text>
<text text-anchor="start" x="464" y="-24" font-family="Helvetica,sans-Serif" font-size="10.00"> Number &amp;omega) override</text>
</a>
</g>
</g>
<!-- Node3&#45;&gt;Node7 -->
<g id="edge6" class="edge">
<title>Node3&#45;&gt;Node7</title>
<path fill="none" stroke="#63b8ff" d="M1669.27,-242.89C1452.49,-238.59 793.29,-218.77 599,-135 589.02,-130.7 579.41,-124.58 570.59,-117.77"/>
<polygon fill="none" stroke="#63b8ff" points="1669.2,-246.39 1679.26,-243.09 1669.33,-239.39 1669.2,-246.39"/>
</g>
<!-- Node8 -->
<g id="node8" class="node">
<title>Node8</title>
<g id="a_node8"><a xlink:href="structkepler_1_1_divide.html" target="_top" xlink:title=" ">
<polygon fill="white" stroke="#666666" points="608,-17 608,-118 742,-118 742,-17 608,-17"/>
<text text-anchor="middle" x="675" y="-106" font-family="Helvetica,sans-Serif" font-size="10.00">kepler::Divide</text>
<polyline fill="none" stroke="#666666" points="608,-99 742,-99"/>
<text text-anchor="middle" x="675" y="-87" font-family="Helvetica,sans-Serif" font-size="10.00"> </text>
<polyline fill="none" stroke="#666666" points="608,-80 742,-80"/>
<text text-anchor="start" x="616" y="-68" font-family="Helvetica,sans-Serif" font-size="10.00">+ Array operator()(const</text>
<text text-anchor="start" x="616" y="-57" font-family="Helvetica,sans-Serif" font-size="10.00"> Number &amp;alpha, const</text>
<text text-anchor="start" x="616" y="-46" font-family="Helvetica,sans-Serif" font-size="10.00"> Number &amp;omega) override</text>
<text text-anchor="start" x="616" y="-35" font-family="Helvetica,sans-Serif" font-size="10.00">+ Array operator()(const</text>
<text text-anchor="start" x="616" y="-24" font-family="Helvetica,sans-Serif" font-size="10.00"> Number &amp;omega) override</text>
</a>
</g>
</g>
<!-- Node3&#45;&gt;Node8 -->
<g id="edge7" class="edge">
<title>Node3&#45;&gt;Node8</title>
<path fill="none" stroke="#63b8ff" d="M1669.29,-241.72C1472.54,-234.42 916.43,-207.76 751,-135 741.21,-130.69 731.77,-124.66 723.07,-117.98"/>
<polygon fill="none" stroke="#63b8ff" points="1668.99,-245.21 1679.11,-242.07 1669.24,-238.21 1668.99,-245.21"/>
</g>
<!-- Node9 -->
<g id="node9" class="node">
<title>Node9</title>
<g id="a_node9"><a xlink:href="structkepler_1_1_eq.html" target="_top" xlink:title=" ">
<polygon fill="white" stroke="#666666" points="760,-11.5 760,-123.5 894,-123.5 894,-11.5 760,-11.5"/>
<text text-anchor="middle" x="827" y="-111.5" font-family="Helvetica,sans-Serif" font-size="10.00">kepler::Eq</text>
<polyline fill="none" stroke="#666666" points="760,-104.5 894,-104.5"/>
<text text-anchor="middle" x="827" y="-92.5" font-family="Helvetica,sans-Serif" font-size="10.00"> </text>
<polyline fill="none" stroke="#666666" points="760,-85.5 894,-85.5"/>
<text text-anchor="start" x="768" y="-73.5" font-family="Helvetica,sans-Serif" font-size="10.00">+ Array operator()(const</text>
<text text-anchor="start" x="768" y="-62.5" font-family="Helvetica,sans-Serif" font-size="10.00"> Number &amp;alpha, const</text>
<text text-anchor="start" x="768" y="-51.5" font-family="Helvetica,sans-Serif" font-size="10.00"> Number &amp;omega) override</text>
<text text-anchor="start" x="768" y="-40.5" font-family="Helvetica,sans-Serif" font-size="10.00">+ Array operator()(const</text>
<text text-anchor="start" x="768" y="-29.5" font-family="Helvetica,sans-Serif" font-size="10.00"> Char &amp;alpha, const Char</text>
<text text-anchor="start" x="768" y="-18.5" font-family="Helvetica,sans-Serif" font-size="10.00"> &amp;omega) override</text>
</a>
</g>
</g>
<!-- Node3&#45;&gt;Node9 -->
<g id="edge8" class="edge">
<title>Node3&#45;&gt;Node9</title>
<path fill="none" stroke="#63b8ff" d="M1669.32,-240.12C1494.19,-229.55 1039.82,-196.8 903,-135 895.97,-131.82 889.11,-127.78 882.57,-123.25"/>
<polygon fill="none" stroke="#63b8ff" points="1669,-243.61 1679.19,-240.71 1669.41,-236.62 1669,-243.61"/>
</g>
<!-- Node10 -->
<g id="node10" class="node">
<title>Node10</title>
<g id="a_node10"><a xlink:href="structkepler_1_1_exclamation_mark.html" target="_top" xlink:title=" ">
<polygon fill="white" stroke="#666666" points="912,-17 912,-118 1046,-118 1046,-17 912,-17"/>
<text text-anchor="middle" x="979" y="-106" font-family="Helvetica,sans-Serif" font-size="10.00">kepler::ExclamationMark</text>
<polyline fill="none" stroke="#666666" points="912,-99 1046,-99"/>
<text text-anchor="middle" x="979" y="-87" font-family="Helvetica,sans-Serif" font-size="10.00"> </text>
<polyline fill="none" stroke="#666666" points="912,-80 1046,-80"/>
<text text-anchor="start" x="920" y="-68" font-family="Helvetica,sans-Serif" font-size="10.00">+ Array operator()(const</text>
<text text-anchor="start" x="920" y="-57" font-family="Helvetica,sans-Serif" font-size="10.00"> Number &amp;omega) override</text>
<text text-anchor="start" x="920" y="-46" font-family="Helvetica,sans-Serif" font-size="10.00">+ Array operator()(const</text>
<text text-anchor="start" x="920" y="-35" font-family="Helvetica,sans-Serif" font-size="10.00"> Number &amp;alpha, const</text>
<text text-anchor="start" x="920" y="-24" font-family="Helvetica,sans-Serif" font-size="10.00"> Number &amp;omega) override</text>
</a>
</g>
</g>
<!-- Node3&#45;&gt;Node10 -->
<g id="edge9" class="edge">
<title>Node3&#45;&gt;Node10</title>
<path fill="none" stroke="#63b8ff" d="M1669.19,-237.82C1517.65,-223.6 1163.5,-185.87 1055,-135 1045.48,-130.53 1036.24,-124.51 1027.68,-117.9"/>
<polygon fill="none" stroke="#63b8ff" points="1668.82,-241.3 1679.1,-238.74 1669.47,-234.33 1668.82,-241.3"/>
</g>
<!-- Node11 -->
<g id="node11" class="node">
<title>Node11</title>
<g id="a_node11"><a xlink:href="structkepler_1_1_floor.html" target="_top" xlink:title=" ">
<polygon fill="white" stroke="#666666" points="1064,-17 1064,-118 1198,-118 1198,-17 1064,-17"/>
<text text-anchor="middle" x="1131" y="-106" font-family="Helvetica,sans-Serif" font-size="10.00">kepler::Floor</text>
<polyline fill="none" stroke="#666666" points="1064,-99 1198,-99"/>
<text text-anchor="middle" x="1131" y="-87" font-family="Helvetica,sans-Serif" font-size="10.00"> </text>
<polyline fill="none" stroke="#666666" points="1064,-80 1198,-80"/>
<text text-anchor="start" x="1072" y="-68" font-family="Helvetica,sans-Serif" font-size="10.00">+ Array operator()(const</text>
<text text-anchor="start" x="1072" y="-57" font-family="Helvetica,sans-Serif" font-size="10.00"> Number &amp;alpha, const</text>
<text text-anchor="start" x="1072" y="-46" font-family="Helvetica,sans-Serif" font-size="10.00"> Number &amp;omega) override</text>
<text text-anchor="start" x="1072" y="-35" font-family="Helvetica,sans-Serif" font-size="10.00">+ Array operator()(const</text>
<text text-anchor="start" x="1072" y="-24" font-family="Helvetica,sans-Serif" font-size="10.00"> Number &amp;omega) override</text>
</a>
</g>
</g>
<!-- Node3&#45;&gt;Node11 -->
<g id="edge10" class="edge">
<title>Node3&#45;&gt;Node11</title>
<path fill="none" stroke="#63b8ff" d="M1669.33,-241.02C1564.06,-234.09 1360.46,-211.12 1207,-135 1197.73,-130.4 1188.7,-124.39 1180.29,-117.87"/>
<polygon fill="none" stroke="#63b8ff" points="1669.04,-244.51 1679.24,-241.64 1669.48,-237.52 1669.04,-244.51"/>
</g>
<!-- Node12 -->
<g id="node12" class="node">
<title>Node12</title>
<g id="a_node12"><a xlink:href="structkepler_1_1_greater.html" target="_top" xlink:title=" ">
<polygon fill="white" stroke="#666666" points="1216,-28 1216,-107 1350,-107 1350,-28 1216,-28"/>
<text text-anchor="middle" x="1283" y="-95" font-family="Helvetica,sans-Serif" font-size="10.00">kepler::Greater</text>
<polyline fill="none" stroke="#666666" points="1216,-88 1350,-88"/>
<text text-anchor="middle" x="1283" y="-76" font-family="Helvetica,sans-Serif" font-size="10.00"> </text>
<polyline fill="none" stroke="#666666" points="1216,-69 1350,-69"/>
<text text-anchor="start" x="1224" y="-57" font-family="Helvetica,sans-Serif" font-size="10.00">+ Array operator()(const</text>
<text text-anchor="start" x="1224" y="-46" font-family="Helvetica,sans-Serif" font-size="10.00"> Number &amp;alpha, const</text>
<text text-anchor="start" x="1224" y="-35" font-family="Helvetica,sans-Serif" font-size="10.00"> Number &amp;omega) override</text>
</a>
</g>
</g>
<!-- Node3&#45;&gt;Node12 -->
<g id="edge11" class="edge">
<title>Node3&#45;&gt;Node12</title>
<path fill="none" stroke="#63b8ff" d="M1669.35,-233.48C1590.36,-219.46 1459.51,-189.79 1359,-135 1345.3,-127.53 1331.94,-117.22 1320.34,-106.94"/>
<polygon fill="none" stroke="#63b8ff" points="1668.68,-236.91 1679.13,-235.17 1669.87,-230.02 1668.68,-236.91"/>
</g>
<!-- Node13 -->
<g id="node13" class="node">
<title>Node13</title>
<g id="a_node13"><a xlink:href="structkepler_1_1_greater_eq.html" target="_top" xlink:title=" ">
<polygon fill="white" stroke="#666666" points="1368,-28 1368,-107 1502,-107 1502,-28 1368,-28"/>
<text text-anchor="middle" x="1435" y="-95" font-family="Helvetica,sans-Serif" font-size="10.00">kepler::GreaterEq</text>
<polyline fill="none" stroke="#666666" points="1368,-88 1502,-88"/>
<text text-anchor="middle" x="1435" y="-76" font-family="Helvetica,sans-Serif" font-size="10.00"> </text>
<polyline fill="none" stroke="#666666" points="1368,-69 1502,-69"/>
<text text-anchor="start" x="1376" y="-57" font-family="Helvetica,sans-Serif" font-size="10.00">+ Array operator()(const</text>
<text text-anchor="start" x="1376" y="-46" font-family="Helvetica,sans-Serif" font-size="10.00"> Number &amp;alpha, const</text>
<text text-anchor="start" x="1376" y="-35" font-family="Helvetica,sans-Serif" font-size="10.00"> Number &amp;omega) override</text>
</a>
</g>
</g>
<!-- Node3&#45;&gt;Node13 -->
<g id="edge12" class="edge">
<title>Node3&#45;&gt;Node13</title>
<path fill="none" stroke="#63b8ff" d="M1670.33,-217C1623.66,-197.28 1561.48,-168.25 1511,-135 1498.55,-126.8 1485.99,-116.72 1474.77,-106.9"/>
<polygon fill="none" stroke="#63b8ff" points="1668.96,-220.22 1679.54,-220.85 1671.67,-213.77 1668.96,-220.22"/>
</g>
<!-- Node14 -->
<g id="node14" class="node">
<title>Node14</title>
<g id="a_node14"><a xlink:href="structkepler_1_1_less.html" target="_top" xlink:title=" ">
<polygon fill="white" stroke="#666666" points="1520,-28 1520,-107 1654,-107 1654,-28 1520,-28"/>
<text text-anchor="middle" x="1587" y="-95" font-family="Helvetica,sans-Serif" font-size="10.00">kepler::Less</text>
<polyline fill="none" stroke="#666666" points="1520,-88 1654,-88"/>
<text text-anchor="middle" x="1587" y="-76" font-family="Helvetica,sans-Serif" font-size="10.00"> </text>
<polyline fill="none" stroke="#666666" points="1520,-69 1654,-69"/>
<text text-anchor="start" x="1528" y="-57" font-family="Helvetica,sans-Serif" font-size="10.00">+ Array operator()(const</text>
<text text-anchor="start" x="1528" y="-46" font-family="Helvetica,sans-Serif" font-size="10.00"> Number &amp;alpha, const</text>
<text text-anchor="start" x="1528" y="-35" font-family="Helvetica,sans-Serif" font-size="10.00"> Number &amp;omega) override</text>
</a>
</g>
</g>
<!-- Node3&#45;&gt;Node14 -->
<g id="edge13" class="edge">
<title>Node3&#45;&gt;Node14</title>
<path fill="none" stroke="#63b8ff" d="M1673.18,-168C1654.92,-146.92 1635.87,-124.92 1620.33,-106.99"/>
<polygon fill="none" stroke="#63b8ff" points="1670.48,-170.24 1679.68,-175.5 1675.78,-165.65 1670.48,-170.24"/>
</g>
<!-- Node15 -->
<g id="node15" class="node">
<title>Node15</title>
<g id="a_node15"><a xlink:href="structkepler_1_1_less_eq.html" target="_top" xlink:title=" ">
<polygon fill="white" stroke="#666666" points="1672,-28 1672,-107 1806,-107 1806,-28 1672,-28"/>
<text text-anchor="middle" x="1739" y="-95" font-family="Helvetica,sans-Serif" font-size="10.00">kepler::LessEq</text>
<polyline fill="none" stroke="#666666" points="1672,-88 1806,-88"/>
<text text-anchor="middle" x="1739" y="-76" font-family="Helvetica,sans-Serif" font-size="10.00"> </text>
<polyline fill="none" stroke="#666666" points="1672,-69 1806,-69"/>
<text text-anchor="start" x="1680" y="-57" font-family="Helvetica,sans-Serif" font-size="10.00">+ Array operator()(const</text>
<text text-anchor="start" x="1680" y="-46" font-family="Helvetica,sans-Serif" font-size="10.00"> Number &amp;alpha, const</text>
<text text-anchor="start" x="1680" y="-35" font-family="Helvetica,sans-Serif" font-size="10.00"> Number &amp;omega) override</text>
</a>
</g>
</g>
<!-- Node3&#45;&gt;Node15 -->
<g id="edge14" class="edge">
<title>Node3&#45;&gt;Node15</title>
<path fill="none" stroke="#63b8ff" d="M1739,-161.14C1739,-142.07 1739,-122.7 1739,-106.63"/>
<polygon fill="none" stroke="#63b8ff" points="1735.5,-161.1 1739,-171.1 1742.5,-161.1 1735.5,-161.1"/>
</g>
<!-- Node16 -->
<g id="node16" class="node">
<title>Node16</title>
<g id="a_node16"><a xlink:href="structkepler_1_1_log.html" target="_top" xlink:title=" ">
<polygon fill="white" stroke="#666666" points="1824,-17 1824,-118 1958,-118 1958,-17 1824,-17"/>
<text text-anchor="middle" x="1891" y="-106" font-family="Helvetica,sans-Serif" font-size="10.00">kepler::Log</text>
<polyline fill="none" stroke="#666666" points="1824,-99 1958,-99"/>
<text text-anchor="middle" x="1891" y="-87" font-family="Helvetica,sans-Serif" font-size="10.00"> </text>
<polyline fill="none" stroke="#666666" points="1824,-80 1958,-80"/>
<text text-anchor="start" x="1832" y="-68" font-family="Helvetica,sans-Serif" font-size="10.00">+ Array operator()(const</text>
<text text-anchor="start" x="1832" y="-57" font-family="Helvetica,sans-Serif" font-size="10.00"> Number &amp;omega) override</text>
<text text-anchor="start" x="1832" y="-46" font-family="Helvetica,sans-Serif" font-size="10.00">+ Array operator()(const</text>
<text text-anchor="start" x="1832" y="-35" font-family="Helvetica,sans-Serif" font-size="10.00"> Number &amp;alpha, const</text>
<text text-anchor="start" x="1832" y="-24" font-family="Helvetica,sans-Serif" font-size="10.00"> Number &amp;omega) override</text>
</a>
</g>
</g>
<!-- Node3&#45;&gt;Node16 -->
<g id="edge15" class="edge">
<title>Node3&#45;&gt;Node16</title>
<path fill="none" stroke="#63b8ff" d="M1804.53,-168.34C1819.3,-151.28 1834.61,-133.61 1848.17,-117.96"/>
<polygon fill="none" stroke="#63b8ff" points="1802.22,-165.65 1798.32,-175.5 1807.52,-170.24 1802.22,-165.65"/>
</g>
<!-- Node17 -->
<g id="node17" class="node">
<title>Node17</title>
<g id="a_node17"><a xlink:href="structkepler_1_1_minus.html" target="_top" xlink:title=" ">
<polygon fill="white" stroke="#666666" points="1976,-17 1976,-118 2110,-118 2110,-17 1976,-17"/>
<text text-anchor="middle" x="2043" y="-106" font-family="Helvetica,sans-Serif" font-size="10.00">kepler::Minus</text>
<polyline fill="none" stroke="#666666" points="1976,-99 2110,-99"/>
<text text-anchor="middle" x="2043" y="-87" font-family="Helvetica,sans-Serif" font-size="10.00"> </text>
<polyline fill="none" stroke="#666666" points="1976,-80 2110,-80"/>
<text text-anchor="start" x="1984" y="-68" font-family="Helvetica,sans-Serif" font-size="10.00">+ Array operator()(const</text>
<text text-anchor="start" x="1984" y="-57" font-family="Helvetica,sans-Serif" font-size="10.00"> Number &amp;alpha, const</text>
<text text-anchor="start" x="1984" y="-46" font-family="Helvetica,sans-Serif" font-size="10.00"> Number &amp;omega) override</text>
<text text-anchor="start" x="1984" y="-35" font-family="Helvetica,sans-Serif" font-size="10.00">+ Array operator()(const</text>
<text text-anchor="start" x="1984" y="-24" font-family="Helvetica,sans-Serif" font-size="10.00"> Number &amp;omega) override</text>
</a>
</g>
</g>
<!-- Node3&#45;&gt;Node17 -->
<g id="edge16" class="edge">
<title>Node3&#45;&gt;Node17</title>
<path fill="none" stroke="#63b8ff" d="M1807.67,-217C1854.34,-197.28 1916.52,-168.25 1967,-135 1974.76,-129.89 1982.56,-124.04 1990.06,-117.99"/>
<polygon fill="none" stroke="#63b8ff" points="1806.33,-213.77 1798.46,-220.85 1809.04,-220.22 1806.33,-213.77"/>
</g>
<!-- Node18 -->
<g id="node18" class="node">
<title>Node18</title>
<g id="a_node18"><a xlink:href="structkepler_1_1_nand.html" target="_top" xlink:title=" ">
<polygon fill="white" stroke="#666666" points="2128,-0.5 2128,-134.5 2262,-134.5 2262,-0.5 2128,-0.5"/>
<text text-anchor="middle" x="2195" y="-122.5" font-family="Helvetica,sans-Serif" font-size="10.00">kepler::Nand</text>
<polyline fill="none" stroke="#666666" points="2128,-115.5 2262,-115.5"/>
<text text-anchor="middle" x="2195" y="-103.5" font-family="Helvetica,sans-Serif" font-size="10.00"> </text>
<polyline fill="none" stroke="#666666" points="2128,-96.5 2262,-96.5"/>
<text text-anchor="start" x="2136" y="-84.5" font-family="Helvetica,sans-Serif" font-size="10.00">+ Array operator()(const</text>
<text text-anchor="start" x="2136" y="-73.5" font-family="Helvetica,sans-Serif" font-size="10.00"> Number &amp;alpha, const</text>
<text text-anchor="start" x="2136" y="-62.5" font-family="Helvetica,sans-Serif" font-size="10.00"> Number &amp;omega) override</text>
<text text-anchor="start" x="2136" y="-51.5" font-family="Helvetica,sans-Serif" font-size="10.00">+ Array operator()(const</text>
<text text-anchor="start" x="2136" y="-40.5" font-family="Helvetica,sans-Serif" font-size="10.00"> String &amp;alpha, const</text>
<text text-anchor="start" x="2136" y="-29.5" font-family="Helvetica,sans-Serif" font-size="10.00"> String &amp;omega) override</text>
<text text-anchor="start" x="2136" y="-18.5" font-family="Helvetica,sans-Serif" font-size="10.00">+ Array operator()(const</text>
<text text-anchor="start" x="2136" y="-7.5" font-family="Helvetica,sans-Serif" font-size="10.00"> Number &amp;omega) override</text>
</a>
</g>
</g>
<!-- Node3&#45;&gt;Node18 -->
<g id="edge17" class="edge">
<title>Node3&#45;&gt;Node18</title>
<path fill="none" stroke="#63b8ff" d="M1808.65,-233.48C1887.64,-219.46 2018.49,-189.79 2119,-135 2122.08,-133.32 2125.14,-131.5 2128.17,-129.57"/>
<polygon fill="none" stroke="#63b8ff" points="1808.13,-230.02 1798.87,-235.17 1809.32,-236.91 1808.13,-230.02"/>
</g>
<!-- Node19 -->
<g id="node19" class="node">
<title>Node19</title>
<g id="a_node19"><a xlink:href="structkepler_1_1_neq.html" target="_top" xlink:title=" ">
<polygon fill="white" stroke="#666666" points="2280,-0.5 2280,-134.5 2414,-134.5 2414,-0.5 2280,-0.5"/>
<text text-anchor="middle" x="2347" y="-122.5" font-family="Helvetica,sans-Serif" font-size="10.00">kepler::Neq</text>
<polyline fill="none" stroke="#666666" points="2280,-115.5 2414,-115.5"/>
<text text-anchor="middle" x="2347" y="-103.5" font-family="Helvetica,sans-Serif" font-size="10.00"> </text>
<polyline fill="none" stroke="#666666" points="2280,-96.5 2414,-96.5"/>
<text text-anchor="start" x="2288" y="-84.5" font-family="Helvetica,sans-Serif" font-size="10.00">+ Array operator()(const</text>
<text text-anchor="start" x="2288" y="-73.5" font-family="Helvetica,sans-Serif" font-size="10.00"> Number &amp;alpha, const</text>
<text text-anchor="start" x="2288" y="-62.5" font-family="Helvetica,sans-Serif" font-size="10.00"> Number &amp;omega) override</text>
<text text-anchor="start" x="2288" y="-51.5" font-family="Helvetica,sans-Serif" font-size="10.00">+ Array operator()(const</text>
<text text-anchor="start" x="2288" y="-40.5" font-family="Helvetica,sans-Serif" font-size="10.00"> Char &amp;alpha, const Char</text>
<text text-anchor="start" x="2288" y="-29.5" font-family="Helvetica,sans-Serif" font-size="10.00"> &amp;omega) override</text>
<text text-anchor="start" x="2288" y="-18.5" font-family="Helvetica,sans-Serif" font-size="10.00">+ Array operator()(const</text>
<text text-anchor="start" x="2288" y="-7.5" font-family="Helvetica,sans-Serif" font-size="10.00"> Array &amp;omega) override</text>
</a>
</g>
</g>
<!-- Node3&#45;&gt;Node19 -->
<g id="edge18" class="edge">
<title>Node3&#45;&gt;Node19</title>
<path fill="none" stroke="#63b8ff" d="M1808.67,-241.02C1913.94,-234.09 2117.54,-211.12 2271,-135 2274.14,-133.44 2277.26,-131.72 2280.33,-129.87"/>
<polygon fill="none" stroke="#63b8ff" points="1808.52,-237.52 1798.76,-241.64 1808.96,-244.51 1808.52,-237.52"/>
</g>
<!-- Node20 -->
<g id="node20" class="node">
<title>Node20</title>
<g id="a_node20"><a xlink:href="structkepler_1_1_nor.html" target="_top" xlink:title=" ">
<polygon fill="white" stroke="#666666" points="2432,-0.5 2432,-134.5 2566,-134.5 2566,-0.5 2432,-0.5"/>
<text text-anchor="middle" x="2499" y="-122.5" font-family="Helvetica,sans-Serif" font-size="10.00">kepler::Nor</text>
<polyline fill="none" stroke="#666666" points="2432,-115.5 2566,-115.5"/>
<text text-anchor="middle" x="2499" y="-103.5" font-family="Helvetica,sans-Serif" font-size="10.00"> </text>
<polyline fill="none" stroke="#666666" points="2432,-96.5 2566,-96.5"/>
<text text-anchor="start" x="2440" y="-84.5" font-family="Helvetica,sans-Serif" font-size="10.00">+ Array operator()(const</text>
<text text-anchor="start" x="2440" y="-73.5" font-family="Helvetica,sans-Serif" font-size="10.00"> Number &amp;alpha, const</text>
<text text-anchor="start" x="2440" y="-62.5" font-family="Helvetica,sans-Serif" font-size="10.00"> Number &amp;omega) override</text>
<text text-anchor="start" x="2440" y="-51.5" font-family="Helvetica,sans-Serif" font-size="10.00">+ Array operator()(const</text>
<text text-anchor="start" x="2440" y="-40.5" font-family="Helvetica,sans-Serif" font-size="10.00"> String &amp;alpha, const</text>
<text text-anchor="start" x="2440" y="-29.5" font-family="Helvetica,sans-Serif" font-size="10.00"> String &amp;omega) override</text>
<text text-anchor="start" x="2440" y="-18.5" font-family="Helvetica,sans-Serif" font-size="10.00">+ Array operator()(const</text>
<text text-anchor="start" x="2440" y="-7.5" font-family="Helvetica,sans-Serif" font-size="10.00"> Number &amp;omega) override</text>
</a>
</g>
</g>
<!-- Node3&#45;&gt;Node20 -->
<g id="edge19" class="edge">
<title>Node3&#45;&gt;Node20</title>
<path fill="none" stroke="#63b8ff" d="M1808.81,-237.82C1960.35,-223.6 2314.5,-185.87 2423,-135 2426.17,-133.51 2429.32,-131.85 2432.41,-130.05"/>
<polygon fill="none" stroke="#63b8ff" points="1808.53,-234.33 1798.9,-238.74 1809.18,-241.3 1808.53,-234.33"/>
</g>
<!-- Node21 -->
<g id="node21" class="node">
<title>Node21</title>
<g id="a_node21"><a xlink:href="structkepler_1_1_not.html" target="_top" xlink:title=" ">
<polygon fill="white" stroke="#666666" points="2584,-0.5 2584,-134.5 2718,-134.5 2718,-0.5 2584,-0.5"/>
<text text-anchor="middle" x="2651" y="-122.5" font-family="Helvetica,sans-Serif" font-size="10.00">kepler::Not</text>
<polyline fill="none" stroke="#666666" points="2584,-115.5 2718,-115.5"/>
<text text-anchor="middle" x="2651" y="-103.5" font-family="Helvetica,sans-Serif" font-size="10.00"> </text>
<polyline fill="none" stroke="#666666" points="2584,-96.5 2718,-96.5"/>
<text text-anchor="start" x="2592" y="-84.5" font-family="Helvetica,sans-Serif" font-size="10.00">+ Array operator()(const</text>
<text text-anchor="start" x="2592" y="-73.5" font-family="Helvetica,sans-Serif" font-size="10.00"> Number &amp;omega) override</text>
<text text-anchor="start" x="2592" y="-62.5" font-family="Helvetica,sans-Serif" font-size="10.00">+ Array operator()(const</text>
<text text-anchor="start" x="2592" y="-51.5" font-family="Helvetica,sans-Serif" font-size="10.00"> Array &amp;alpha, const Array</text>
<text text-anchor="start" x="2592" y="-40.5" font-family="Helvetica,sans-Serif" font-size="10.00"> &amp;omega) override</text>
<text text-anchor="start" x="2592" y="-29.5" font-family="Helvetica,sans-Serif" font-size="10.00">+ Array operator()(const</text>
<text text-anchor="start" x="2592" y="-18.5" font-family="Helvetica,sans-Serif" font-size="10.00"> String &amp;alpha, const</text>
<text text-anchor="start" x="2592" y="-7.5" font-family="Helvetica,sans-Serif" font-size="10.00"> String &amp;omega) override</text>
</a>
</g>
</g>
<!-- Node3&#45;&gt;Node21 -->
<g id="edge20" class="edge">
<title>Node3&#45;&gt;Node21</title>
<path fill="none" stroke="#63b8ff" d="M1808.68,-240.12C1983.81,-229.55 2438.18,-196.8 2575,-135 2578.2,-133.56 2581.36,-131.93 2584.47,-130.17"/>
<polygon fill="none" stroke="#63b8ff" points="1808.59,-236.62 1798.81,-240.71 1809,-243.61 1808.59,-236.62"/>
</g>
<!-- Node22 -->
<g id="node22" class="node">
<title>Node22</title>
<g id="a_node22"><a xlink:href="structkepler_1_1_or.html" target="_top" xlink:title=" ">
<polygon fill="white" stroke="#666666" points="2736,-0.5 2736,-134.5 2870,-134.5 2870,-0.5 2736,-0.5"/>
<text text-anchor="middle" x="2803" y="-122.5" font-family="Helvetica,sans-Serif" font-size="10.00">kepler::Or</text>
<polyline fill="none" stroke="#666666" points="2736,-115.5 2870,-115.5"/>
<text text-anchor="middle" x="2803" y="-103.5" font-family="Helvetica,sans-Serif" font-size="10.00"> </text>
<polyline fill="none" stroke="#666666" points="2736,-96.5 2870,-96.5"/>
<text text-anchor="start" x="2744" y="-84.5" font-family="Helvetica,sans-Serif" font-size="10.00">+ Array operator()(const</text>
<text text-anchor="start" x="2744" y="-73.5" font-family="Helvetica,sans-Serif" font-size="10.00"> Number &amp;alpha, const</text>
<text text-anchor="start" x="2744" y="-62.5" font-family="Helvetica,sans-Serif" font-size="10.00"> Number &amp;omega) override</text>
<text text-anchor="start" x="2744" y="-51.5" font-family="Helvetica,sans-Serif" font-size="10.00">+ Array operator()(const</text>
<text text-anchor="start" x="2744" y="-40.5" font-family="Helvetica,sans-Serif" font-size="10.00"> String &amp;alpha, const</text>
<text text-anchor="start" x="2744" y="-29.5" font-family="Helvetica,sans-Serif" font-size="10.00"> String &amp;omega) override</text>
<text text-anchor="start" x="2744" y="-18.5" font-family="Helvetica,sans-Serif" font-size="10.00">+ Array operator()(const</text>
<text text-anchor="start" x="2744" y="-7.5" font-family="Helvetica,sans-Serif" font-size="10.00"> Number &amp;omega) override</text>
</a>
</g>
</g>
<!-- Node3&#45;&gt;Node22 -->
<g id="edge21" class="edge">
<title>Node3&#45;&gt;Node22</title>
<path fill="none" stroke="#63b8ff" d="M1808.71,-241.72C2005.46,-234.42 2561.57,-207.76 2727,-135 2730.05,-133.66 2733.06,-132.15 2736.03,-130.51"/>
<polygon fill="none" stroke="#63b8ff" points="1808.76,-238.21 1798.89,-242.07 1809.01,-245.21 1808.76,-238.21"/>
</g>
<!-- Node23 -->
<g id="node23" class="node">
<title>Node23</title>
<g id="a_node23"><a xlink:href="structkepler_1_1_plus.html" target="_top" xlink:title=" ">
<polygon fill="white" stroke="#666666" points="2888,-17 2888,-118 3022,-118 3022,-17 2888,-17"/>
<text text-anchor="middle" x="2955" y="-106" font-family="Helvetica,sans-Serif" font-size="10.00">kepler::Plus</text>
<polyline fill="none" stroke="#666666" points="2888,-99 3022,-99"/>
<text text-anchor="middle" x="2955" y="-87" font-family="Helvetica,sans-Serif" font-size="10.00"> </text>
<polyline fill="none" stroke="#666666" points="2888,-80 3022,-80"/>
<text text-anchor="start" x="2896" y="-68" font-family="Helvetica,sans-Serif" font-size="10.00">+ Array operator()(const</text>
<text text-anchor="start" x="2896" y="-57" font-family="Helvetica,sans-Serif" font-size="10.00"> Number &amp;alpha, const</text>
<text text-anchor="start" x="2896" y="-46" font-family="Helvetica,sans-Serif" font-size="10.00"> Number &amp;omega) override</text>
<text text-anchor="start" x="2896" y="-35" font-family="Helvetica,sans-Serif" font-size="10.00">+ Array operator()(const</text>
<text text-anchor="start" x="2896" y="-24" font-family="Helvetica,sans-Serif" font-size="10.00"> Number &amp;omega) override</text>
</a>
</g>
</g>
<!-- Node3&#45;&gt;Node23 -->
<g id="edge22" class="edge">
<title>Node3&#45;&gt;Node23</title>
<path fill="none" stroke="#63b8ff" d="M1808.58,-237.49C1965.38,-222.8 2358.31,-185.87 2687,-154 2772.35,-145.73 2800.31,-169.08 2879,-135 2888.97,-130.68 2898.58,-124.55 2907.4,-117.74"/>
<polygon fill="none" stroke="#63b8ff" points="1808.4,-233.99 1798.77,-238.41 1809.05,-240.96 1808.4,-233.99"/>
</g>
<!-- Node24 -->
<g id="node24" class="node">
<title>Node24</title>
<g id="a_node24"><a xlink:href="structkepler_1_1_roll.html" target="_top" xlink:title=" ">
<polygon fill="white" stroke="#666666" points="3040,-33.5 3040,-101.5 3174,-101.5 3174,-33.5 3040,-33.5"/>
<text text-anchor="middle" x="3107" y="-89.5" font-family="Helvetica,sans-Serif" font-size="10.00">kepler::Roll</text>
<polyline fill="none" stroke="#666666" points="3040,-82.5 3174,-82.5"/>
<text text-anchor="middle" x="3107" y="-70.5" font-family="Helvetica,sans-Serif" font-size="10.00"> </text>
<polyline fill="none" stroke="#666666" points="3040,-63.5 3174,-63.5"/>
<text text-anchor="start" x="3048" y="-51.5" font-family="Helvetica,sans-Serif" font-size="10.00">+ Array operator()(const</text>
<text text-anchor="start" x="3048" y="-40.5" font-family="Helvetica,sans-Serif" font-size="10.00"> Number &amp;omega) override</text>
</a>
</g>
</g>
<!-- Node3&#45;&gt;Node24 -->
<g id="edge23" class="edge">
<title>Node3&#45;&gt;Node24</title>
<path fill="none" stroke="#63b8ff" d="M1808.65,-243.8C2044.04,-242.24 2807.63,-229.84 3031,-135 3048.75,-127.46 3065.28,-114.13 3078.36,-101.36"/>
<polygon fill="none" stroke="#63b8ff" points="1808.68,-240.3 1798.7,-243.86 1808.72,-247.3 1808.68,-240.3"/>
</g>
<!-- Node25 -->
<g id="node25" class="node">
<title>Node25</title>
<g id="a_node25"><a xlink:href="structkepler_1_1_star.html" target="_top" xlink:title=" ">
<polygon fill="white" stroke="#666666" points="3192,-17 3192,-118 3326,-118 3326,-17 3192,-17"/>
<text text-anchor="middle" x="3259" y="-106" font-family="Helvetica,sans-Serif" font-size="10.00">kepler::Star</text>
<polyline fill="none" stroke="#666666" points="3192,-99 3326,-99"/>
<text text-anchor="middle" x="3259" y="-87" font-family="Helvetica,sans-Serif" font-size="10.00"> </text>
<polyline fill="none" stroke="#666666" points="3192,-80 3326,-80"/>
<text text-anchor="start" x="3200" y="-68" font-family="Helvetica,sans-Serif" font-size="10.00">+ Array operator()(const</text>
<text text-anchor="start" x="3200" y="-57" font-family="Helvetica,sans-Serif" font-size="10.00"> Number &amp;omega) override</text>
<text text-anchor="start" x="3200" y="-46" font-family="Helvetica,sans-Serif" font-size="10.00">+ Array operator()(const</text>
<text text-anchor="start" x="3200" y="-35" font-family="Helvetica,sans-Serif" font-size="10.00"> Number &amp;alpha, const</text>
<text text-anchor="start" x="3200" y="-24" font-family="Helvetica,sans-Serif" font-size="10.00"> Number &amp;omega) override</text>
</a>
</g>
</g>
<!-- Node3&#45;&gt;Node25 -->
<g id="edge24" class="edge">
<title>Node3&#45;&gt;Node25</title>
<path fill="none" stroke="#63b8ff" d="M1808.92,-239.65C1999.07,-227.69 2541.57,-192.57 2992,-154 3077,-146.72 3104.73,-168.93 3183,-135 3192.97,-130.68 3202.57,-124.55 3211.4,-117.74"/>
<polygon fill="none" stroke="#63b8ff" points="1808.71,-236.16 1798.95,-240.28 1809.15,-243.15 1808.71,-236.16"/>
</g>
<!-- Node26 -->
<g id="node26" class="node">
<title>Node26</title>
<g id="a_node26"><a xlink:href="structkepler_1_1_times.html" target="_top" xlink:title=" ">
<polygon fill="white" stroke="#666666" points="3344,-17 3344,-118 3478,-118 3478,-17 3344,-17"/>
<text text-anchor="middle" x="3411" y="-106" font-family="Helvetica,sans-Serif" font-size="10.00">kepler::Times</text>
<polyline fill="none" stroke="#666666" points="3344,-99 3478,-99"/>
<text text-anchor="middle" x="3411" y="-87" font-family="Helvetica,sans-Serif" font-size="10.00"> </text>
<polyline fill="none" stroke="#666666" points="3344,-80 3478,-80"/>
<text text-anchor="start" x="3352" y="-68" font-family="Helvetica,sans-Serif" font-size="10.00">+ Array operator()(const</text>
<text text-anchor="start" x="3352" y="-57" font-family="Helvetica,sans-Serif" font-size="10.00"> Number &amp;alpha, const</text>
<text text-anchor="start" x="3352" y="-46" font-family="Helvetica,sans-Serif" font-size="10.00"> Number &amp;omega) override</text>
<text text-anchor="start" x="3352" y="-35" font-family="Helvetica,sans-Serif" font-size="10.00">+ Array operator()(const</text>
<text text-anchor="start" x="3352" y="-24" font-family="Helvetica,sans-Serif" font-size="10.00"> Number &amp;omega) override</text>
</a>
</g>
</g>
<!-- Node3&#45;&gt;Node26 -->
<g id="edge25" class="edge">
<title>Node3&#45;&gt;Node26</title>
<path fill="none" stroke="#63b8ff" d="M1808.69,-239.38C2006.24,-226.25 2586.84,-187.53 3069,-154 3187.24,-145.78 3225.61,-180.62 3335,-135 3345.03,-130.82 3354.66,-124.76 3363.5,-117.98"/>
<polygon fill="none" stroke="#63b8ff" points="1808.6,-235.87 1798.85,-240.03 1809.06,-242.86 1808.6,-235.87"/>
</g>
</g>
</svg>
