<?xml version="1.0" encoding="UTF-8" standalone="no"?>
<!DOCTYPE svg PUBLIC "-//W3C//DTD SVG 1.1//EN"
 "http://www.w3.org/Graphics/SVG/1.1/DTD/svg11.dtd">
<!-- Generated by graphviz version 7.1.0 (20230121.1956)
 -->
<!-- Title: kepler::SymbolTable::set Pages: 1 -->
<svg width="435pt" height="56pt"
 viewBox="0.00 0.00 435.00 56.00" xmlns="http://www.w3.org/2000/svg" xmlns:xlink="http://www.w3.org/1999/xlink">
<g id="graph0" class="graph" transform="scale(1 1) rotate(0) translate(4 52)">
<title>kepler::SymbolTable::set</title>
<!-- Node1 -->
<g id="node1" class="node">
<title>Node1</title>
<g id="a_node1"><a xlink:title=" ">
<polygon fill="#999999" stroke="#666666" points="125,-24.5 0,-24.5 0,-5.5 125,-5.5 125,-24.5"/>
<text text-anchor="middle" x="62.5" y="-12.5" font-family="Helvetica,sans-Serif" font-size="10.00">kepler::SymbolTable::set</text>
</a>
</g>
</g>
<!-- Node2 -->
<g id="node2" class="node">
<title>Node2</title>
<g id="a_node2"><a xlink:href="classkepler_1_1_symbol_table.html#a928b41896a0c0f1b5eef23ae3f35c3b3" target="_top" xlink:title=" ">
<polygon fill="white" stroke="#666666" points="286,-24.5 161,-24.5 161,-5.5 286,-5.5 286,-24.5"/>
<text text-anchor="middle" x="223.5" y="-12.5" font-family="Helvetica,sans-Serif" font-size="10.00">kepler::SymbolTable::set</text>
</a>
</g>
</g>
<!-- Node1&#45;&gt;Node2 -->
<g id="edge1" class="edge">
<title>Node1&#45;&gt;Node2</title>
<path fill="none" stroke="#63b8ff" d="M125.43,-15C133.31,-15 141.44,-15 149.47,-15"/>
<polygon fill="#63b8ff" stroke="#63b8ff" points="149.23,-18.5 159.23,-15 149.23,-11.5 149.23,-18.5"/>
</g>
<!-- Node2&#45;&gt;Node2 -->
<g id="edge4" class="edge">
<title>Node2&#45;&gt;Node2</title>
<path fill="none" stroke="#63b8ff" d="M199.86,-24.87C189.08,-33.44 196.96,-42.5 223.5,-42.5 238.02,-42.5 246.95,-39.79 250.3,-35.93"/>
<polygon fill="#63b8ff" stroke="#63b8ff" points="253.67,-34.98 247.56,-26.32 246.94,-36.9 253.67,-34.98"/>
</g>
<!-- Node3 -->
<g id="node3" class="node">
<title>Node3</title>
<g id="a_node3"><a xlink:href="classkepler_1_1_symbol_table.html#a57403652693faf5adf05509f540520e9" target="_top" xlink:title=" ">
<polygon fill="white" stroke="#666666" points="427,-30 322,-30 322,0 427,0 427,-30"/>
<text text-anchor="start" x="330" y="-18" font-family="Helvetica,sans-Serif" font-size="10.00">kepler::SymbolTable</text>
<text text-anchor="middle" x="374.5" y="-7" font-family="Helvetica,sans-Serif" font-size="10.00">::contains</text>
</a>
</g>
</g>
<!-- Node2&#45;&gt;Node3 -->
<g id="edge2" class="edge">
<title>Node2&#45;&gt;Node3</title>
<path fill="none" stroke="#63b8ff" d="M286.39,-15C294.35,-15 302.49,-15 310.46,-15"/>
<polygon fill="#63b8ff" stroke="#63b8ff" points="310.45,-18.5 320.45,-15 310.45,-11.5 310.45,-18.5"/>
</g>
<!-- Node3&#45;&gt;Node3 -->
<g id="edge3" class="edge">
<title>Node3&#45;&gt;Node3</title>
<path fill="none" stroke="#63b8ff" d="M347.96,-30.28C342.06,-39.41 350.91,-48 374.5,-48 387.4,-48 395.9,-45.43 399.98,-41.61"/>
<polygon fill="#63b8ff" stroke="#63b8ff" points="403.45,-42.07 400.9,-31.78 396.48,-41.41 403.45,-42.07"/>
</g>
</g>
</svg>
