<?xml version="1.0" encoding="UTF-8" standalone="no"?>
<!DOCTYPE svg PUBLIC "-//W3C//DTD SVG 1.1//EN"
 "http://www.w3.org/Graphics/SVG/1.1/DTD/svg11.dtd">
<!-- Generated by graphviz version 7.1.0 (20230121.1956)
 -->
<!-- Title: kepler::SymbolTable::clear Pages: 1 -->
<svg width="413pt" height="168pt"
 viewBox="0.00 0.00 413.00 168.00" xmlns="http://www.w3.org/2000/svg" xmlns:xlink="http://www.w3.org/1999/xlink">
<g id="graph0" class="graph" transform="scale(1 1) rotate(0) translate(4 164)">
<title>kepler::SymbolTable::clear</title>
<!-- Node1 -->
<g id="node1" class="node">
<title>Node1</title>
<g id="a_node1"><a xlink:title=" ">
<polygon fill="#999999" stroke="#666666" points="405,-88.5 300,-88.5 300,-58.5 405,-58.5 405,-88.5"/>
<text text-anchor="start" x="308" y="-76.5" font-family="Helvetica,sans-Serif" font-size="10.00">kepler::SymbolTable</text>
<text text-anchor="middle" x="352.5" y="-65.5" font-family="Helvetica,sans-Serif" font-size="10.00">::clear</text>
</a>
</g>
</g>
<!-- Node2 -->
<g id="node2" class="node">
<title>Node2</title>
<g id="a_node2"><a xlink:href="namespacekepler.html#ae45e010aed51dc28b896694f75dc2ca7" target="_top" xlink:title=" ">
<polygon fill="white" stroke="#666666" points="231,-142 151,-142 151,-123 231,-123 231,-142"/>
<text text-anchor="middle" x="191" y="-130" font-family="Helvetica,sans-Serif" font-size="10.00">kepler::run_file</text>
</a>
</g>
</g>
<!-- Node1&#45;&gt;Node2 -->
<g id="edge1" class="edge">
<title>Node1&#45;&gt;Node2</title>
<path fill="none" stroke="#63b8ff" d="M311.05,-93.74C296.45,-100.57 279.69,-107.89 264,-113.5 253.53,-117.24 241.97,-120.62 231.23,-123.44"/>
<polygon fill="#63b8ff" stroke="#63b8ff" points="312.37,-96.99 319.89,-89.53 309.36,-90.67 312.37,-96.99"/>
</g>
<!-- Node5 -->
<g id="node5" class="node">
<title>Node5</title>
<g id="a_node5"><a xlink:href="class_kepler_fixture.html#a4c0ee5c80c5def38dd5130241f4628aa" target="_top" xlink:title=" ">
<polygon fill="white" stroke="#666666" points="253.5,-105 128.5,-105 128.5,-86 253.5,-86 253.5,-105"/>
<text text-anchor="middle" x="191" y="-93" font-family="Helvetica,sans-Serif" font-size="10.00">KeplerFixture::TearDown</text>
</a>
</g>
</g>
<!-- Node1&#45;&gt;Node5 -->
<g id="edge4" class="edge">
<title>Node1&#45;&gt;Node5</title>
<path fill="none" stroke="#63b8ff" d="M288.5,-82.19C277.08,-83.76 265.19,-85.4 253.81,-86.97"/>
<polygon fill="#63b8ff" stroke="#63b8ff" points="288.79,-85.68 298.22,-80.85 287.83,-78.75 288.79,-85.68"/>
</g>
<!-- Node6 -->
<g id="node6" class="node">
<title>Node6</title>
<g id="a_node6"><a xlink:href="class_general_fixture.html#a96e594373782e4be6d19365582adb888" target="_top" xlink:title=" ">
<polygon fill="white" stroke="#666666" points="254,-67.5 128,-67.5 128,-37.5 254,-37.5 254,-67.5"/>
<text text-anchor="start" x="136" y="-55.5" font-family="Helvetica,sans-Serif" font-size="10.00">GeneralFixture::~General</text>
<text text-anchor="middle" x="191" y="-44.5" font-family="Helvetica,sans-Serif" font-size="10.00">Fixture</text>
</a>
</g>
</g>
<!-- Node1&#45;&gt;Node6 -->
<g id="edge5" class="edge">
<title>Node1&#45;&gt;Node6</title>
<path fill="none" stroke="#63b8ff" d="M288.64,-65.22C277.37,-63.74 265.63,-62.19 254.38,-60.71"/>
<polygon fill="#63b8ff" stroke="#63b8ff" points="287.84,-68.65 298.21,-66.48 288.76,-61.71 287.84,-68.65"/>
</g>
<!-- Node7 -->
<g id="node7" class="node">
<title>Node7</title>
<g id="a_node7"><a xlink:href="class_parser_fixture.html#a7c0ea3b7d9db52e4b956845c5fcf30a2" target="_top" xlink:title=" ">
<polygon fill="white" stroke="#666666" points="264,-19 118,-19 118,0 264,0 264,-19"/>
<text text-anchor="middle" x="191" y="-7" font-family="Helvetica,sans-Serif" font-size="10.00">ParserFixture::~ParserFixture</text>
</a>
</g>
</g>
<!-- Node1&#45;&gt;Node7 -->
<g id="edge6" class="edge">
<title>Node1&#45;&gt;Node7</title>
<path fill="none" stroke="#63b8ff" d="M315.67,-52.84C300.14,-44.48 281.53,-35.23 264,-28.5 255.07,-25.07 245.28,-22.04 235.89,-19.46"/>
<polygon fill="#63b8ff" stroke="#63b8ff" points="313.61,-55.7 324.06,-57.44 316.97,-49.56 313.61,-55.7"/>
</g>
<!-- Node3 -->
<g id="node3" class="node">
<title>Node3</title>
<g id="a_node3"><a xlink:href="main_8cpp.html#a0ddf1224851353fc92bfbff6f499fa97" target="_top" xlink:title=" ">
<polygon fill="white" stroke="#666666" points="60,-160 22,-160 22,-141 60,-141 60,-160"/>
<text text-anchor="middle" x="41" y="-148" font-family="Helvetica,sans-Serif" font-size="10.00">main</text>
</a>
</g>
</g>
<!-- Node2&#45;&gt;Node3 -->
<g id="edge2" class="edge">
<title>Node2&#45;&gt;Node3</title>
<path fill="none" stroke="#63b8ff" d="M139.35,-138.66C112.02,-141.98 79.96,-145.88 60.31,-148.27"/>
<polygon fill="#63b8ff" stroke="#63b8ff" points="139.72,-142.14 149.22,-137.46 138.88,-135.19 139.72,-142.14"/>
</g>
<!-- Node4 -->
<g id="node4" class="node">
<title>Node4</title>
<g id="a_node4"><a xlink:href="class_file_fixture.html#aed1771b5e05cdce7af6d69a50a7e4f6c" target="_top" xlink:title=" ">
<polygon fill="white" stroke="#666666" points="82,-123 0,-123 0,-104 82,-104 82,-123"/>
<text text-anchor="middle" x="41" y="-111" font-family="Helvetica,sans-Serif" font-size="10.00">FileFixture::run</text>
</a>
</g>
</g>
<!-- Node2&#45;&gt;Node4 -->
<g id="edge3" class="edge">
<title>Node2&#45;&gt;Node4</title>
<path fill="none" stroke="#63b8ff" d="M139.48,-126.01C120.89,-123.63 100.09,-120.96 82.49,-118.7"/>
<polygon fill="#63b8ff" stroke="#63b8ff" points="138.86,-129.46 149.23,-127.27 139.75,-122.52 138.86,-129.46"/>
</g>
</g>
</svg>
