<?xml version="1.0" encoding="UTF-8" standalone="no"?>
<!DOCTYPE svg PUBLIC "-//W3C//DTD SVG 1.1//EN"
 "http://www.w3.org/Graphics/SVG/1.1/DTD/svg11.dtd">
<!-- Generated by graphviz version 7.1.0 (20230121.1956)
 -->
<!-- Title: kepler::SymbolTable::insert_system_parameters Pages: 1 -->
<svg width="408pt" height="150pt"
 viewBox="0.00 0.00 408.00 150.00" xmlns="http://www.w3.org/2000/svg" xmlns:xlink="http://www.w3.org/1999/xlink">
<g id="graph0" class="graph" transform="scale(1 1) rotate(0) translate(4 146)">
<title>kepler::SymbolTable::insert_system_parameters</title>
<!-- Node1 -->
<g id="node1" class="node">
<title>Node1</title>
<g id="a_node1"><a xlink:title=" ">
<polygon fill="#999999" stroke="#666666" points="400,-82.5 262,-82.5 262,-52.5 400,-52.5 400,-82.5"/>
<text text-anchor="start" x="270" y="-70.5" font-family="Helvetica,sans-Serif" font-size="10.00">kepler::SymbolTable</text>
<text text-anchor="middle" x="331" y="-59.5" font-family="Helvetica,sans-Serif" font-size="10.00">::insert_system_parameters</text>
</a>
</g>
</g>
<!-- Node2 -->
<g id="node2" class="node">
<title>Node2</title>
<g id="a_node2"><a xlink:href="classfixture.html#a2795a43194cf7837d758d0be009fb1ef" target="_top" xlink:title=" ">
<polygon fill="white" stroke="#666666" points="210,-142 133,-142 133,-123 210,-123 210,-142"/>
<text text-anchor="middle" x="171.5" y="-130" font-family="Helvetica,sans-Serif" font-size="10.00">fixture::fixture</text>
</a>
</g>
</g>
<!-- Node1&#45;&gt;Node2 -->
<g id="edge1" class="edge">
<title>Node1&#45;&gt;Node2</title>
<path fill="none" stroke="#63b8ff" d="M286.54,-87.59C268.02,-95.93 246.09,-105.5 226,-113.5 218.22,-116.6 209.7,-119.73 201.8,-122.54"/>
<polygon fill="#63b8ff" stroke="#63b8ff" points="287.97,-90.79 295.64,-83.47 285.08,-84.41 287.97,-90.79"/>
</g>
<!-- Node3 -->
<g id="node3" class="node">
<title>Node3</title>
<g id="a_node3"><a xlink:href="classparser__fixture.html#af2f94b67e2a1dbb7edf1959149e50a01" target="_top" xlink:title=" ">
<polygon fill="white" stroke="#666666" points="226,-104.5 117,-104.5 117,-74.5 226,-74.5 226,-104.5"/>
<text text-anchor="start" x="125" y="-92.5" font-family="Helvetica,sans-Serif" font-size="10.00">parser_fixture::parser</text>
<text text-anchor="middle" x="171.5" y="-81.5" font-family="Helvetica,sans-Serif" font-size="10.00">_fixture</text>
</a>
</g>
</g>
<!-- Node1&#45;&gt;Node3 -->
<g id="edge2" class="edge">
<title>Node1&#45;&gt;Node3</title>
<path fill="none" stroke="#63b8ff" d="M250.55,-78.6C242.25,-79.76 233.96,-80.91 226.06,-82.02"/>
<polygon fill="#63b8ff" stroke="#63b8ff" points="250.92,-82.08 260.34,-77.23 249.95,-75.15 250.92,-82.08"/>
</g>
<!-- Node4 -->
<g id="node4" class="node">
<title>Node4</title>
<g id="a_node4"><a xlink:href="namespacekepler.html#ae45e010aed51dc28b896694f75dc2ca7" target="_top" xlink:title=" ">
<polygon fill="white" stroke="#666666" points="211.5,-19 131.5,-19 131.5,0 211.5,0 211.5,-19"/>
<text text-anchor="middle" x="171.5" y="-7" font-family="Helvetica,sans-Serif" font-size="10.00">kepler::run_file</text>
</a>
</g>
</g>
<!-- Node1&#45;&gt;Node4 -->
<g id="edge3" class="edge">
<title>Node1&#45;&gt;Node4</title>
<path fill="none" stroke="#63b8ff" d="M278.84,-48.11C262.03,-41.79 243.24,-34.79 226,-28.5 217.85,-25.53 208.98,-22.35 200.85,-19.47"/>
<polygon fill="#63b8ff" stroke="#63b8ff" points="277.55,-51.37 288.15,-51.61 280.02,-44.82 277.55,-51.37"/>
</g>
<!-- Node7 -->
<g id="node7" class="node">
<title>Node7</title>
<g id="a_node7"><a xlink:href="namespacekepler.html#a2eea97746f0ae5fd054d304271c171f5" target="_top" xlink:title=" ">
<polygon fill="white" stroke="#666666" points="213,-56 130,-56 130,-37 213,-37 213,-56"/>
<text text-anchor="middle" x="171.5" y="-44" font-family="Helvetica,sans-Serif" font-size="10.00">kepler::run_repl</text>
</a>
</g>
</g>
<!-- Node1&#45;&gt;Node7 -->
<g id="edge6" class="edge">
<title>Node1&#45;&gt;Node7</title>
<path fill="none" stroke="#63b8ff" d="M250.47,-56.9C237.51,-55.17 224.57,-53.44 213.07,-51.91"/>
<polygon fill="#63b8ff" stroke="#63b8ff" points="249.96,-60.36 260.33,-58.21 250.88,-53.42 249.96,-60.36"/>
</g>
<!-- Node5 -->
<g id="node5" class="node">
<title>Node5</title>
<g id="a_node5"><a xlink:href="main_8cpp.html#a0ddf1224851353fc92bfbff6f499fa97" target="_top" xlink:title=" ">
<polygon fill="white" stroke="#666666" points="59.5,-56 21.5,-56 21.5,-37 59.5,-37 59.5,-56"/>
<text text-anchor="middle" x="40.5" y="-44" font-family="Helvetica,sans-Serif" font-size="10.00">main</text>
</a>
</g>
</g>
<!-- Node4&#45;&gt;Node5 -->
<g id="edge4" class="edge">
<title>Node4&#45;&gt;Node5</title>
<path fill="none" stroke="#63b8ff" d="M124.91,-22.58C102.49,-29.01 76.73,-36.4 59.84,-41.24"/>
<polygon fill="#63b8ff" stroke="#63b8ff" points="125.83,-25.95 134.48,-19.83 123.9,-19.23 125.83,-25.95"/>
</g>
<!-- Node6 -->
<g id="node6" class="node">
<title>Node6</title>
<g id="a_node6"><a xlink:href="classfile__fixture.html#ae49241f7811560799cd0e8f5935de2d5" target="_top" xlink:title=" ">
<polygon fill="white" stroke="#666666" points="81,-19 0,-19 0,0 81,0 81,-19"/>
<text text-anchor="middle" x="40.5" y="-7" font-family="Helvetica,sans-Serif" font-size="10.00">file_fixture::run</text>
</a>
</g>
</g>
<!-- Node4&#45;&gt;Node6 -->
<g id="edge5" class="edge">
<title>Node4&#45;&gt;Node6</title>
<path fill="none" stroke="#63b8ff" d="M119.61,-9.5C106.81,-9.5 93.26,-9.5 81.11,-9.5"/>
<polygon fill="#63b8ff" stroke="#63b8ff" points="119.58,-13 129.58,-9.5 119.58,-6 119.58,-13"/>
</g>
<!-- Node7&#45;&gt;Node5 -->
<g id="edge7" class="edge">
<title>Node7&#45;&gt;Node5</title>
<path fill="none" stroke="#63b8ff" d="M118.38,-46.5C97.61,-46.5 75.05,-46.5 59.78,-46.5"/>
<polygon fill="#63b8ff" stroke="#63b8ff" points="118.17,-50 128.17,-46.5 118.17,-43 118.17,-50"/>
</g>
</g>
</svg>
