<?xml version="1.0" encoding="UTF-8" standalone="no"?>
<!DOCTYPE svg PUBLIC "-//W3C//DTD SVG 1.1//EN"
 "http://www.w3.org/Graphics/SVG/1.1/DTD/svg11.dtd">
<!-- Generated by graphviz version 7.1.0 (20230121.1956)
 -->
<!-- Title: kepler::Tokenizer::tokenize Pages: 1 -->
<svg width="626pt" height="136pt"
 viewBox="0.00 0.00 626.00 135.80" xmlns="http://www.w3.org/2000/svg" xmlns:xlink="http://www.w3.org/1999/xlink">
<g id="graph0" class="graph" transform="scale(1 1) rotate(0) translate(4 131.8)">
<title>kepler::Tokenizer::tokenize</title>
<!-- Node1 -->
<g id="node1" class="node">
<title>Node1</title>
<g id="a_node1"><a xlink:title=" ">
<polygon fill="#999999" stroke="#666666" points="618,-61.5 521,-61.5 521,-31.5 618,-31.5 618,-61.5"/>
<text text-anchor="start" x="529" y="-49.5" font-family="Helvetica,sans-Serif" font-size="10.00">kepler::Tokenizer::</text>
<text text-anchor="middle" x="569.5" y="-38.5" font-family="Helvetica,sans-Serif" font-size="10.00">tokenize</text>
</a>
</g>
</g>
<!-- Node2 -->
<g id="node2" class="node">
<title>Node2</title>
<g id="a_node2"><a xlink:href="namespacekepler.html#a914686a7f5a60684440d93ed33a3a959" target="_top" xlink:title=" ">
<polygon fill="white" stroke="#666666" points="485,-93 344,-93 344,-74 485,-74 485,-93"/>
<text text-anchor="middle" x="414.5" y="-81" font-family="Helvetica,sans-Serif" font-size="10.00">kepler::immediate_execution</text>
</a>
</g>
</g>
<!-- Node1&#45;&gt;Node2 -->
<g id="edge1" class="edge">
<title>Node1&#45;&gt;Node2</title>
<path fill="none" stroke="#63b8ff" d="M509.44,-60.78C491.8,-65.05 472.85,-69.63 456.62,-73.56"/>
<polygon fill="#63b8ff" stroke="#63b8ff" points="510.14,-64.21 519.04,-58.46 508.5,-57.41 510.14,-64.21"/>
</g>
<!-- Node9 -->
<g id="node9" class="node">
<title>Node9</title>
<g id="a_node9"><a xlink:href="classparser__fixture.html#ab428671a0de24667af59c29d33cc5506" target="_top" xlink:title=" ">
<polygon fill="white" stroke="#666666" points="462,-56 367,-56 367,-37 462,-37 462,-56"/>
<text text-anchor="middle" x="414.5" y="-44" font-family="Helvetica,sans-Serif" font-size="10.00">parser_fixture::run</text>
</a>
</g>
</g>
<!-- Node1&#45;&gt;Node9 -->
<g id="edge9" class="edge">
<title>Node1&#45;&gt;Node9</title>
<path fill="none" stroke="#63b8ff" d="M509.36,-46.5C493.75,-46.5 477.13,-46.5 462.27,-46.5"/>
<polygon fill="#63b8ff" stroke="#63b8ff" points="509,-50 519,-46.5 509,-43 509,-50"/>
</g>
<!-- Node10 -->
<g id="node10" class="node">
<title>Node10</title>
<g id="a_node10"><a xlink:href="classlexer__fixture.html#a29bc508009cfb14ba948625a8ade2f0c" target="_top" xlink:title=" ">
<polygon fill="white" stroke="#666666" points="459,-19 370,-19 370,0 459,0 459,-19"/>
<text text-anchor="middle" x="414.5" y="-7" font-family="Helvetica,sans-Serif" font-size="10.00">lexer_fixture::run</text>
</a>
</g>
</g>
<!-- Node1&#45;&gt;Node10 -->
<g id="edge10" class="edge">
<title>Node1&#45;&gt;Node10</title>
<path fill="none" stroke="#63b8ff" d="M509.44,-32.22C491.8,-27.95 472.85,-23.37 456.62,-19.44"/>
<polygon fill="#63b8ff" stroke="#63b8ff" points="508.5,-35.59 519.04,-34.54 510.14,-28.79 508.5,-35.59"/>
</g>
<!-- Node3 -->
<g id="node3" class="node">
<title>Node3</title>
<g id="a_node3"><a xlink:href="namespacekepler.html#ae45e010aed51dc28b896694f75dc2ca7" target="_top" xlink:title=" ">
<polygon fill="white" stroke="#666666" points="290.5,-111 210.5,-111 210.5,-92 290.5,-92 290.5,-111"/>
<text text-anchor="middle" x="250.5" y="-99" font-family="Helvetica,sans-Serif" font-size="10.00">kepler::run_file</text>
</a>
</g>
</g>
<!-- Node2&#45;&gt;Node3 -->
<g id="edge2" class="edge">
<title>Node2&#45;&gt;Node3</title>
<path fill="none" stroke="#63b8ff" d="M332.71,-92.48C318.1,-94.1 303.47,-95.73 290.74,-97.14"/>
<polygon fill="#63b8ff" stroke="#63b8ff" points="332.8,-95.99 342.35,-91.41 332.03,-89.03 332.8,-95.99"/>
</g>
<!-- Node6 -->
<g id="node6" class="node">
<title>Node6</title>
<g id="a_node6"><a xlink:href="namespacekepler.html#a49b7372a95bc6035f77f37023923e171" target="_top" xlink:title=" ">
<polygon fill="white" stroke="#666666" points="308,-74 193,-74 193,-55 308,-55 308,-74"/>
<text text-anchor="middle" x="250.5" y="-62" font-family="Helvetica,sans-Serif" font-size="10.00">kepler::safe_execution</text>
</a>
</g>
</g>
<!-- Node2&#45;&gt;Node6 -->
<g id="edge5" class="edge">
<title>Node2&#45;&gt;Node6</title>
<path fill="none" stroke="#63b8ff" d="M332.7,-74.02C324.49,-73.06 316.28,-72.1 308.4,-71.17"/>
<polygon fill="#63b8ff" stroke="#63b8ff" points="332.01,-77.47 342.35,-75.16 332.83,-70.51 332.01,-77.47"/>
</g>
<!-- Node4 -->
<g id="node4" class="node">
<title>Node4</title>
<g id="a_node4"><a xlink:href="main_8cpp.html#a0ddf1224851353fc92bfbff6f499fa97" target="_top" xlink:title=" ">
<polygon fill="white" stroke="#666666" points="38,-93 0,-93 0,-74 38,-74 38,-93"/>
<text text-anchor="middle" x="19" y="-81" font-family="Helvetica,sans-Serif" font-size="10.00">main</text>
</a>
</g>
</g>
<!-- Node3&#45;&gt;Node4 -->
<g id="edge3" class="edge">
<title>Node3&#45;&gt;Node4</title>
<path fill="none" stroke="#63b8ff" d="M210.12,-114.65C173.97,-124.66 119.3,-134.53 74,-120.5 56.85,-115.19 40.3,-102.34 30.14,-93.28"/>
<polygon fill="#63b8ff" stroke="#63b8ff" points="211.1,-118.01 219.72,-111.85 209.14,-111.29 211.1,-118.01"/>
</g>
<!-- Node5 -->
<g id="node5" class="node">
<title>Node5</title>
<g id="a_node5"><a xlink:href="classfile__fixture.html#ae49241f7811560799cd0e8f5935de2d5" target="_top" xlink:title=" ">
<polygon fill="white" stroke="#666666" points="156,-111 75,-111 75,-92 156,-92 156,-111"/>
<text text-anchor="middle" x="115.5" y="-99" font-family="Helvetica,sans-Serif" font-size="10.00">file_fixture::run</text>
</a>
</g>
</g>
<!-- Node3&#45;&gt;Node5 -->
<g id="edge4" class="edge">
<title>Node3&#45;&gt;Node5</title>
<path fill="none" stroke="#63b8ff" d="M199.22,-101.5C185.04,-101.5 169.8,-101.5 156.33,-101.5"/>
<polygon fill="#63b8ff" stroke="#63b8ff" points="198.8,-105 208.8,-101.5 198.8,-98 198.8,-105"/>
</g>
<!-- Node7 -->
<g id="node7" class="node">
<title>Node7</title>
<g id="a_node7"><a xlink:href="classfixture.html#a42d66ba224463d10f2fe70e0b60c63e6" target="_top" xlink:title=" ">
<polygon fill="white" stroke="#666666" points="147,-74 84,-74 84,-55 147,-55 147,-74"/>
<text text-anchor="middle" x="115.5" y="-62" font-family="Helvetica,sans-Serif" font-size="10.00">fixture::run</text>
</a>
</g>
</g>
<!-- Node6&#45;&gt;Node7 -->
<g id="edge6" class="edge">
<title>Node6&#45;&gt;Node7</title>
<path fill="none" stroke="#63b8ff" d="M181.35,-64.5C169.47,-64.5 157.66,-64.5 147.43,-64.5"/>
<polygon fill="#63b8ff" stroke="#63b8ff" points="181.2,-68 191.2,-64.5 181.2,-61 181.2,-68"/>
</g>
<!-- Node8 -->
<g id="node8" class="node">
<title>Node8</title>
<g id="a_node8"><a xlink:href="namespacekepler.html#a2eea97746f0ae5fd054d304271c171f5" target="_top" xlink:title=" ">
<polygon fill="white" stroke="#666666" points="157,-37 74,-37 74,-18 157,-18 157,-37"/>
<text text-anchor="middle" x="115.5" y="-25" font-family="Helvetica,sans-Serif" font-size="10.00">kepler::run_repl</text>
</a>
</g>
</g>
<!-- Node6&#45;&gt;Node8 -->
<g id="edge7" class="edge">
<title>Node6&#45;&gt;Node8</title>
<path fill="none" stroke="#63b8ff" d="M203.2,-51.62C186.49,-46.97 167.91,-41.8 152.24,-37.44"/>
<polygon fill="#63b8ff" stroke="#63b8ff" points="201.83,-54.87 212.4,-54.18 203.7,-48.13 201.83,-54.87"/>
</g>
<!-- Node8&#45;&gt;Node4 -->
<g id="edge8" class="edge">
<title>Node8&#45;&gt;Node4</title>
<path fill="none" stroke="#63b8ff" d="M79.91,-42.32C77.89,-43.35 75.91,-44.42 74,-45.5 59.04,-53.98 43.07,-65.57 32.41,-73.71"/>
<polygon fill="#63b8ff" stroke="#63b8ff" points="81.27,-45.55 88.77,-38.06 78.24,-39.24 81.27,-45.55"/>
</g>
</g>
</svg>
