<?xml version="1.0" encoding="UTF-8" standalone="no"?>
<!DOCTYPE svg PUBLIC "-//W3C//DTD SVG 1.1//EN"
 "http://www.w3.org/Graphics/SVG/1.1/DTD/svg11.dtd">
<!-- Generated by graphviz version 7.1.0 (20230121.1956)
 -->
<!-- Title: kepler::error Pages: 1 -->
<svg width="444pt" height="446pt"
 viewBox="0.00 0.00 443.50 446.00" xmlns="http://www.w3.org/2000/svg" xmlns:xlink="http://www.w3.org/1999/xlink">
<g id="graph0" class="graph" transform="scale(1 1) rotate(0) translate(4 442)">
<title>kepler::error</title>
<!-- Node1 -->
<g id="node1" class="node">
<title>Node1</title>
<g id="a_node1"><a xlink:title=" ">
<polygon fill="#999999" stroke="#666666" points="156,-0.5 156,-321.5 316,-321.5 316,-0.5 156,-0.5"/>
<text text-anchor="middle" x="236" y="-309.5" font-family="Helvetica,sans-Serif" font-size="10.00">kepler::error</text>
<polyline fill="none" stroke="#666666" points="156,-302.5 316,-302.5"/>
<text text-anchor="middle" x="236" y="-290.5" font-family="Helvetica,sans-Serif" font-size="10.00"> </text>
<polyline fill="none" stroke="#666666" points="156,-283.5 316,-283.5"/>
<text text-anchor="start" x="164" y="-271.5" font-family="Helvetica,sans-Serif" font-size="10.00">+ error(ErrorType error</text>
<text text-anchor="start" x="164" y="-260.5" font-family="Helvetica,sans-Serif" font-size="10.00">_type_, std::string message_=&quot;&quot;)</text>
<text text-anchor="start" x="164" y="-249.5" font-family="Helvetica,sans-Serif" font-size="10.00">+ error(ErrorType error</text>
<text text-anchor="start" x="164" y="-238.5" font-family="Helvetica,sans-Serif" font-size="10.00">_type_, std::string message</text>
<text text-anchor="start" x="164" y="-227.5" font-family="Helvetica,sans-Serif" font-size="10.00">_, long position_)</text>
<text text-anchor="start" x="164" y="-216.5" font-family="Helvetica,sans-Serif" font-size="10.00">+ error(ErrorType error</text>
<text text-anchor="start" x="164" y="-205.5" font-family="Helvetica,sans-Serif" font-size="10.00">_type_, long position_)</text>
<text text-anchor="start" x="164" y="-194.5" font-family="Helvetica,sans-Serif" font-size="10.00">+ error(ErrorType error</text>
<text text-anchor="start" x="164" y="-183.5" font-family="Helvetica,sans-Serif" font-size="10.00">_type_, std::string message</text>
<text text-anchor="start" x="164" y="-172.5" font-family="Helvetica,sans-Serif" font-size="10.00">_, long position_, const std</text>
<text text-anchor="start" x="164" y="-161.5" font-family="Helvetica,sans-Serif" font-size="10.00">::vector&lt; Char &gt; *input_)</text>
<text text-anchor="start" x="164" y="-150.5" font-family="Helvetica,sans-Serif" font-size="10.00">+ std::string type()</text>
<text text-anchor="start" x="164" y="-139.5" font-family="Helvetica,sans-Serif" font-size="10.00"> const</text>
<text text-anchor="start" x="164" y="-128.5" font-family="Helvetica,sans-Serif" font-size="10.00">+ std::string why() const</text>
<text text-anchor="start" x="164" y="-117.5" font-family="Helvetica,sans-Serif" font-size="10.00">+ std::string to_string</text>
<text text-anchor="start" x="164" y="-106.5" font-family="Helvetica,sans-Serif" font-size="10.00">() const</text>
<text text-anchor="start" x="164" y="-95.5" font-family="Helvetica,sans-Serif" font-size="10.00">+ void set_input(const</text>
<text text-anchor="start" x="164" y="-84.5" font-family="Helvetica,sans-Serif" font-size="10.00"> std::vector&lt; Char &gt;</text>
<text text-anchor="start" x="164" y="-73.5" font-family="Helvetica,sans-Serif" font-size="10.00"> *input_)</text>
<text text-anchor="start" x="164" y="-62.5" font-family="Helvetica,sans-Serif" font-size="10.00">+ void set_file(const</text>
<text text-anchor="start" x="164" y="-51.5" font-family="Helvetica,sans-Serif" font-size="10.00"> std::string &amp;new_file)</text>
<text text-anchor="start" x="164" y="-40.5" font-family="Helvetica,sans-Serif" font-size="10.00">+ void set_line(int new</text>
<text text-anchor="start" x="164" y="-29.5" font-family="Helvetica,sans-Serif" font-size="10.00">_line)</text>
<text text-anchor="start" x="164" y="-18.5" font-family="Helvetica,sans-Serif" font-size="10.00">+ std::string where()</text>
<text text-anchor="start" x="164" y="-7.5" font-family="Helvetica,sans-Serif" font-size="10.00"> const</text>
</a>
</g>
</g>
<!-- Node2 -->
<g id="node2" class="node">
<title>Node2</title>
<g id="a_node2"><a xlink:title=" ">
<polygon fill="white" stroke="#666666" points="0,-380.5 0,-437.5 78,-437.5 78,-380.5 0,-380.5"/>
<text text-anchor="middle" x="39" y="-425.5" font-family="Helvetica,sans-Serif" font-size="10.00">std::exception</text>
<polyline fill="none" stroke="#666666" points="0,-418.5 78,-418.5"/>
<text text-anchor="middle" x="39" y="-406.5" font-family="Helvetica,sans-Serif" font-size="10.00"> </text>
<polyline fill="none" stroke="#666666" points="0,-399.5 78,-399.5"/>
<text text-anchor="middle" x="39" y="-387.5" font-family="Helvetica,sans-Serif" font-size="10.00"> </text>
</a>
</g>
</g>
<!-- Node2&#45;&gt;Node1 -->
<g id="edge1" class="edge">
<title>Node2&#45;&gt;Node1</title>
<path fill="none" stroke="#63b8ff" d="M67.99,-371.8C91.21,-342.81 124.94,-300.69 156.09,-261.79"/>
<polygon fill="none" stroke="#63b8ff" points="65.3,-369.56 61.78,-379.55 70.76,-373.93 65.3,-369.56"/>
</g>
<!-- Node3 -->
<g id="node3" class="node">
<title>Node3</title>
<g id="a_node3"><a xlink:title=" ">
<polygon fill="white" stroke="#666666" points="96.5,-380.5 96.5,-437.5 155.5,-437.5 155.5,-380.5 96.5,-380.5"/>
<text text-anchor="middle" x="126" y="-425.5" font-family="Helvetica,sans-Serif" font-size="10.00">ErrorType</text>
<polyline fill="none" stroke="#666666" points="96.5,-418.5 155.5,-418.5"/>
<text text-anchor="middle" x="126" y="-406.5" font-family="Helvetica,sans-Serif" font-size="10.00"> </text>
<polyline fill="none" stroke="#666666" points="96.5,-399.5 155.5,-399.5"/>
<text text-anchor="middle" x="126" y="-387.5" font-family="Helvetica,sans-Serif" font-size="10.00"> </text>
</a>
</g>
</g>
<!-- Node3&#45;&gt;Node1 -->
<g id="edge2" class="edge">
<title>Node3&#45;&gt;Node1</title>
<path fill="none" stroke="#404040" d="M133.37,-380.51C137.02,-367.99 141.75,-353.07 147,-340 148.36,-336.62 149.75,-333.21 151.18,-329.79"/>
<polygon fill="none" stroke="#404040" points="151.1,-329.98 149.78,-322.89 155.81,-318.94 157.14,-326.03 151.1,-329.98"/>
<text text-anchor="middle" x="173.5" y="-348.5" font-family="Helvetica,sans-Serif" font-size="10.00"> +error_type</text>
</g>
<!-- Node4 -->
<g id="node4" class="node">
<title>Node4</title>
<g id="a_node4"><a xlink:title=" ">
<polygon fill="white" stroke="#666666" points="181.5,-380.5 181.5,-437.5 222.5,-437.5 222.5,-380.5 181.5,-380.5"/>
<text text-anchor="middle" x="202" y="-425.5" font-family="Helvetica,sans-Serif" font-size="10.00">string</text>
<polyline fill="none" stroke="#666666" points="181.5,-418.5 222.5,-418.5"/>
<text text-anchor="middle" x="202" y="-406.5" font-family="Helvetica,sans-Serif" font-size="10.00"> </text>
<polyline fill="none" stroke="#666666" points="181.5,-399.5 222.5,-399.5"/>
<text text-anchor="middle" x="202" y="-387.5" font-family="Helvetica,sans-Serif" font-size="10.00"> </text>
</a>
</g>
</g>
<!-- Node4&#45;&gt;Node1 -->
<g id="edge3" class="edge">
<title>Node4&#45;&gt;Node1</title>
<path fill="none" stroke="#404040" d="M202.93,-380.81C203.52,-368.35 204.48,-353.4 206,-340 206.23,-337.96 206.47,-335.9 206.72,-333.83"/>
<polygon fill="none" stroke="#404040" points="206.72,-333.83 203.49,-327.38 208.21,-321.93 211.43,-328.38 206.72,-333.83"/>
<text text-anchor="middle" x="229" y="-354" font-family="Helvetica,sans-Serif" font-size="10.00"> +file</text>
<text text-anchor="middle" x="229" y="-343" font-family="Helvetica,sans-Serif" font-size="10.00">+message</text>
</g>
<!-- Node5 -->
<g id="node5" class="node">
<title>Node5</title>
<g id="a_node5"><a xlink:title=" ">
<polygon fill="white" stroke="#666666" points="246.5,-380.5 246.5,-437.5 281.5,-437.5 281.5,-380.5 246.5,-380.5"/>
<text text-anchor="middle" x="264" y="-425.5" font-family="Helvetica,sans-Serif" font-size="10.00">long</text>
<polyline fill="none" stroke="#666666" points="246.5,-418.5 281.5,-418.5"/>
<text text-anchor="middle" x="264" y="-406.5" font-family="Helvetica,sans-Serif" font-size="10.00"> </text>
<polyline fill="none" stroke="#666666" points="246.5,-399.5 281.5,-399.5"/>
<text text-anchor="middle" x="264" y="-387.5" font-family="Helvetica,sans-Serif" font-size="10.00"> </text>
</a>
</g>
</g>
<!-- Node5&#45;&gt;Node1 -->
<g id="edge4" class="edge">
<title>Node5&#45;&gt;Node1</title>
<path fill="none" stroke="#404040" d="M260.9,-380.73C259.46,-368.14 257.63,-352.04 255.61,-334.31"/>
<polygon fill="none" stroke="#404040" points="255.61,-334.28 250.96,-328.77 254.25,-322.36 258.9,-327.86 255.61,-334.28"/>
<text text-anchor="middle" x="279.5" y="-348.5" font-family="Helvetica,sans-Serif" font-size="10.00"> +position</text>
</g>
<!-- Node6 -->
<g id="node6" class="node">
<title>Node6</title>
<g id="a_node6"><a xlink:title=" ">
<polygon fill="white" stroke="#666666" points="299.5,-380.5 299.5,-437.5 388.5,-437.5 388.5,-380.5 299.5,-380.5"/>
<text text-anchor="middle" x="344" y="-425.5" font-family="Helvetica,sans-Serif" font-size="10.00">vector&lt; Char &gt; *</text>
<polyline fill="none" stroke="#666666" points="299.5,-418.5 388.5,-418.5"/>
<text text-anchor="middle" x="344" y="-406.5" font-family="Helvetica,sans-Serif" font-size="10.00"> </text>
<polyline fill="none" stroke="#666666" points="299.5,-399.5 388.5,-399.5"/>
<text text-anchor="middle" x="344" y="-387.5" font-family="Helvetica,sans-Serif" font-size="10.00"> </text>
</a>
</g>
</g>
<!-- Node6&#45;&gt;Node1 -->
<g id="edge5" class="edge">
<title>Node6&#45;&gt;Node1</title>
<path fill="none" stroke="#404040" d="M332.03,-380.73C326.39,-367.9 319.16,-351.42 311.19,-333.28"/>
<polygon fill="none" stroke="#404040" points="311.19,-333.27 305.12,-329.39 306.37,-322.29 312.44,-326.17 311.19,-333.27"/>
<text text-anchor="middle" x="338.5" y="-348.5" font-family="Helvetica,sans-Serif" font-size="10.00"> +input</text>
</g>
<!-- Node7 -->
<g id="node7" class="node">
<title>Node7</title>
<g id="a_node7"><a xlink:title=" ">
<polygon fill="white" stroke="#666666" points="406.5,-380.5 406.5,-437.5 435.5,-437.5 435.5,-380.5 406.5,-380.5"/>
<text text-anchor="middle" x="421" y="-425.5" font-family="Helvetica,sans-Serif" font-size="10.00">int</text>
<polyline fill="none" stroke="#666666" points="406.5,-418.5 435.5,-418.5"/>
<text text-anchor="middle" x="421" y="-406.5" font-family="Helvetica,sans-Serif" font-size="10.00"> </text>
<polyline fill="none" stroke="#666666" points="406.5,-399.5 435.5,-399.5"/>
<text text-anchor="middle" x="421" y="-387.5" font-family="Helvetica,sans-Serif" font-size="10.00"> </text>
</a>
</g>
</g>
<!-- Node7&#45;&gt;Node1 -->
<g id="edge6" class="edge">
<title>Node7&#45;&gt;Node1</title>
<path fill="none" stroke="#404040" d="M406.79,-389.11C388.66,-364.99 355.78,-321.27 323.68,-278.59"/>
<polygon fill="none" stroke="#404040" points="323.73,-278.66 316.93,-276.27 316.52,-269.07 323.32,-271.46 323.73,-278.66"/>
<text text-anchor="middle" x="397.5" y="-348.5" font-family="Helvetica,sans-Serif" font-size="10.00"> +line</text>
</g>
</g>
</svg>
