<?xml version="1.0" encoding="UTF-8" standalone="no"?>
<!DOCTYPE svg PUBLIC "-//W3C//DTD SVG 1.1//EN"
 "http://www.w3.org/Graphics/SVG/1.1/DTD/svg11.dtd">
<!-- Generated by graphviz version 7.1.0 (20230121.1956)
 -->
<!-- Title: fixture::run Pages: 1 -->
<svg width="714pt" height="321pt"
 viewBox="0.00 0.00 714.00 320.50" xmlns="http://www.w3.org/2000/svg" xmlns:xlink="http://www.w3.org/1999/xlink">
<g id="graph0" class="graph" transform="scale(1 1) rotate(0) translate(4 316.5)">
<title>fixture::run</title>
<!-- Node1 -->
<g id="node1" class="node">
<title>Node1</title>
<g id="a_node1"><a xlink:title=" ">
<polygon fill="#999999" stroke="#666666" points="63,-129 0,-129 0,-110 63,-110 63,-129"/>
<text text-anchor="middle" x="31.5" y="-117" font-family="Helvetica,sans-Serif" font-size="10.00">fixture::run</text>
</a>
</g>
</g>
<!-- Node2 -->
<g id="node2" class="node">
<title>Node2</title>
<g id="a_node2"><a xlink:href="namespacekepler.html#a49b7372a95bc6035f77f37023923e171" target="_top" xlink:title=" ">
<polygon fill="white" stroke="#666666" points="214,-129 99,-129 99,-110 214,-110 214,-129"/>
<text text-anchor="middle" x="156.5" y="-117" font-family="Helvetica,sans-Serif" font-size="10.00">kepler::safe_execution</text>
</a>
</g>
</g>
<!-- Node1&#45;&gt;Node2 -->
<g id="edge1" class="edge">
<title>Node1&#45;&gt;Node2</title>
<path fill="none" stroke="#63b8ff" d="M63.22,-119.5C70.74,-119.5 79.09,-119.5 87.6,-119.5"/>
<polygon fill="#63b8ff" stroke="#63b8ff" points="87.32,-123 97.32,-119.5 87.32,-116 87.32,-123"/>
</g>
<!-- Node3 -->
<g id="node3" class="node">
<title>Node3</title>
<g id="a_node3"><a xlink:href="namespacekepler.html#a914686a7f5a60684440d93ed33a3a959" target="_top" xlink:title=" ">
<polygon fill="white" stroke="#666666" points="391,-205 250,-205 250,-186 391,-186 391,-205"/>
<text text-anchor="middle" x="320.5" y="-193" font-family="Helvetica,sans-Serif" font-size="10.00">kepler::immediate_execution</text>
</a>
</g>
</g>
<!-- Node2&#45;&gt;Node3 -->
<g id="edge2" class="edge">
<title>Node2&#45;&gt;Node3</title>
<path fill="none" stroke="#63b8ff" d="M178.68,-129.44C206.57,-142.52 255.85,-165.64 288.09,-180.77"/>
<polygon fill="#63b8ff" stroke="#63b8ff" points="286.41,-183.84 296.95,-184.92 289.38,-177.5 286.41,-183.84"/>
</g>
<!-- Node11 -->
<g id="node11" class="node">
<title>Node11</title>
<g id="a_node11"><a xlink:href="classkepler_1_1error.html#aac71db552cb0211798d24627817abccf" target="_top" xlink:title=" ">
<polygon fill="white" stroke="#666666" points="364.5,-134.5 276.5,-134.5 276.5,-104.5 364.5,-104.5 364.5,-134.5"/>
<text text-anchor="start" x="284.5" y="-122.5" font-family="Helvetica,sans-Serif" font-size="10.00">kepler::error::set</text>
<text text-anchor="middle" x="320.5" y="-111.5" font-family="Helvetica,sans-Serif" font-size="10.00">_input</text>
</a>
</g>
</g>
<!-- Node2&#45;&gt;Node11 -->
<g id="edge10" class="edge">
<title>Node2&#45;&gt;Node11</title>
<path fill="none" stroke="#63b8ff" d="M214.16,-119.5C230.69,-119.5 248.71,-119.5 265.1,-119.5"/>
<polygon fill="#63b8ff" stroke="#63b8ff" points="264.64,-123 274.64,-119.5 264.64,-116 264.64,-123"/>
</g>
<!-- Node12 -->
<g id="node12" class="node">
<title>Node12</title>
<g id="a_node12"><a xlink:href="classkepler_1_1error.html#a9d1264b80888d725ef312a662ee4e5be" target="_top" xlink:title=" ">
<polygon fill="white" stroke="#666666" points="376.5,-75 264.5,-75 264.5,-56 376.5,-56 376.5,-75"/>
<text text-anchor="middle" x="320.5" y="-63" font-family="Helvetica,sans-Serif" font-size="10.00">kepler::error::to_string</text>
</a>
</g>
</g>
<!-- Node2&#45;&gt;Node12 -->
<g id="edge11" class="edge">
<title>Node2&#45;&gt;Node12</title>
<path fill="none" stroke="#63b8ff" d="M187.21,-109.6C212.94,-101.02 250.38,-88.54 278.88,-79.04"/>
<polygon fill="#63b8ff" stroke="#63b8ff" points="279.89,-82.39 288.27,-75.91 277.67,-75.75 279.89,-82.39"/>
</g>
<!-- Node4 -->
<g id="node4" class="node">
<title>Node4</title>
<g id="a_node4"><a xlink:href="structkepler_1_1_interpreter.html#a2ec19db70151e2f0eb937421a8618935" target="_top" xlink:title=" ">
<polygon fill="white" stroke="#666666" points="531.5,-312.5 438.5,-312.5 438.5,-282.5 531.5,-282.5 531.5,-312.5"/>
<text text-anchor="start" x="446.5" y="-300.5" font-family="Helvetica,sans-Serif" font-size="10.00">kepler::Interpreter</text>
<text text-anchor="middle" x="485" y="-289.5" font-family="Helvetica,sans-Serif" font-size="10.00">::interpret</text>
</a>
</g>
</g>
<!-- Node3&#45;&gt;Node4 -->
<g id="edge3" class="edge">
<title>Node3&#45;&gt;Node4</title>
<path fill="none" stroke="#63b8ff" d="M332.89,-205.36C351.59,-221.2 390.38,-252.65 427,-273.5 429.16,-274.73 431.4,-275.93 433.68,-277.11"/>
<polygon fill="#63b8ff" stroke="#63b8ff" points="431.97,-280.17 442.5,-281.37 435.02,-273.87 431.97,-280.17"/>
</g>
<!-- Node6 -->
<g id="node6" class="node">
<title>Node6</title>
<g id="a_node6"><a xlink:href="classkepler_1_1_parser.html#a95c4ec7bfd2c105b1cd43f0906641f3f" target="_top" xlink:title=" ">
<polygon fill="white" stroke="#666666" points="538.5,-264 431.5,-264 431.5,-245 538.5,-245 538.5,-264"/>
<text text-anchor="middle" x="485" y="-252" font-family="Helvetica,sans-Serif" font-size="10.00">kepler::Parser::parse</text>
</a>
</g>
</g>
<!-- Node3&#45;&gt;Node6 -->
<g id="edge5" class="edge">
<title>Node3&#45;&gt;Node6</title>
<path fill="none" stroke="#63b8ff" d="M345.64,-205.39C366.91,-213.99 398.82,-226.59 427,-236.5 431.41,-238.05 436.02,-239.61 440.64,-241.13"/>
<polygon fill="#63b8ff" stroke="#63b8ff" points="439.29,-244.37 449.88,-244.12 441.44,-237.71 439.29,-244.37"/>
</g>
<!-- Node7 -->
<g id="node7" class="node">
<title>Node7</title>
<g id="a_node7"><a xlink:href="structkepler_1_1_array.html#afccb5c77a5934c2bcdfed7032b381ced" target="_top" xlink:title=" ">
<polygon fill="white" stroke="#666666" points="543,-227 427,-227 427,-208 543,-208 543,-227"/>
<text text-anchor="middle" x="485" y="-215" font-family="Helvetica,sans-Serif" font-size="10.00">kepler::Array::to_string</text>
</a>
</g>
</g>
<!-- Node3&#45;&gt;Node7 -->
<g id="edge6" class="edge">
<title>Node3&#45;&gt;Node7</title>
<path fill="none" stroke="#63b8ff" d="M391.36,-204.96C399.43,-206.05 407.65,-207.16 415.7,-208.25"/>
<polygon fill="#63b8ff" stroke="#63b8ff" points="415.04,-211.7 425.42,-209.57 415.98,-204.76 415.04,-211.7"/>
</g>
<!-- Node9 -->
<g id="node9" class="node">
<title>Node9</title>
<g id="a_node9"><a xlink:href="classkepler_1_1_tokenizer.html#a218312e24753d8d2e66d499bdbcce55c" target="_top" xlink:title=" ">
<polygon fill="white" stroke="#666666" points="533.5,-189.5 436.5,-189.5 436.5,-159.5 533.5,-159.5 533.5,-189.5"/>
<text text-anchor="start" x="444.5" y="-177.5" font-family="Helvetica,sans-Serif" font-size="10.00">kepler::Tokenizer::</text>
<text text-anchor="middle" x="485" y="-166.5" font-family="Helvetica,sans-Serif" font-size="10.00">tokenize</text>
</a>
</g>
</g>
<!-- Node3&#45;&gt;Node9 -->
<g id="edge8" class="edge">
<title>Node3&#45;&gt;Node9</title>
<path fill="none" stroke="#63b8ff" d="M391.36,-186.47C402.59,-185.02 414.13,-183.53 425.07,-182.12"/>
<polygon fill="#63b8ff" stroke="#63b8ff" points="425.26,-185.62 434.73,-180.87 424.37,-178.68 425.26,-185.62"/>
</g>
<!-- Node10 -->
<g id="node10" class="node">
<title>Node10</title>
<g id="a_node10"><a xlink:href="classkepler_1_1_parser.html#a8bae598977617c13f71ce43cadd806b4" target="_top" xlink:title=" ">
<polygon fill="white" stroke="#666666" points="534.5,-141.5 435.5,-141.5 435.5,-111.5 534.5,-111.5 534.5,-141.5"/>
<text text-anchor="start" x="443.5" y="-129.5" font-family="Helvetica,sans-Serif" font-size="10.00">kepler::Parser::use</text>
<text text-anchor="middle" x="485" y="-118.5" font-family="Helvetica,sans-Serif" font-size="10.00">_table</text>
</a>
</g>
</g>
<!-- Node3&#45;&gt;Node10 -->
<g id="edge9" class="edge">
<title>Node3&#45;&gt;Node10</title>
<path fill="none" stroke="#63b8ff" d="M344.54,-185.64C365.9,-176.5 398.58,-162.54 427,-150.5 430.16,-149.16 433.42,-147.78 436.71,-146.39"/>
<polygon fill="#63b8ff" stroke="#63b8ff" points="437.95,-149.67 445.8,-142.56 435.23,-143.22 437.95,-149.67"/>
</g>
<!-- Node5 -->
<g id="node5" class="node">
<title>Node5</title>
<g id="a_node5"><a xlink:href="structkepler_1_1_a_s_t_node.html#a05bfe92973fce5532d1bdc50fc9b56eb" target="_top" xlink:title=" ">
<polygon fill="white" stroke="#666666" points="706,-307 579,-307 579,-288 706,-288 706,-307"/>
<text text-anchor="middle" x="642.5" y="-295" font-family="Helvetica,sans-Serif" font-size="10.00">kepler::ASTNode::accept</text>
</a>
</g>
</g>
<!-- Node4&#45;&gt;Node5 -->
<g id="edge4" class="edge">
<title>Node4&#45;&gt;Node5</title>
<path fill="none" stroke="#63b8ff" d="M531.81,-297.5C542.95,-297.5 555.14,-297.5 567.22,-297.5"/>
<polygon fill="#63b8ff" stroke="#63b8ff" points="567.21,-301 577.21,-297.5 567.21,-294 567.21,-301"/>
</g>
<!-- Node8 -->
<g id="node8" class="node">
<title>Node8</title>
<g id="a_node8"><a xlink:href="classkepler_1_1_symbol_table.html#a1d080f6571e21935f800524195b5e5a7" target="_top" xlink:title=" ">
<polygon fill="white" stroke="#666666" points="705,-227 580,-227 580,-208 705,-208 705,-227"/>
<text text-anchor="middle" x="642.5" y="-215" font-family="Helvetica,sans-Serif" font-size="10.00">kepler::SymbolTable::get</text>
</a>
</g>
</g>
<!-- Node7&#45;&gt;Node8 -->
<g id="edge7" class="edge">
<title>Node7&#45;&gt;Node8</title>
<path fill="none" stroke="#63b8ff" d="M543.46,-217.5C551.55,-217.5 559.95,-217.5 568.29,-217.5"/>
<polygon fill="#63b8ff" stroke="#63b8ff" points="568.06,-221 578.06,-217.5 568.06,-214 568.06,-221"/>
</g>
<!-- Node13 -->
<g id="node13" class="node">
<title>Node13</title>
<g id="a_node13"><a xlink:href="classkepler_1_1error.html#a7694165073a5e4844154e625f5fddf6c" target="_top" xlink:title=" ">
<polygon fill="white" stroke="#666666" points="531.5,-93 438.5,-93 438.5,-74 531.5,-74 531.5,-93"/>
<text text-anchor="middle" x="485" y="-81" font-family="Helvetica,sans-Serif" font-size="10.00">kepler::error::type</text>
</a>
</g>
</g>
<!-- Node12&#45;&gt;Node13 -->
<g id="edge12" class="edge">
<title>Node12&#45;&gt;Node13</title>
<path fill="none" stroke="#63b8ff" d="M376.97,-71.64C393.18,-73.44 410.92,-75.4 427.21,-77.21"/>
<polygon fill="#63b8ff" stroke="#63b8ff" points="426.39,-80.64 436.72,-78.26 427.16,-73.68 426.39,-80.64"/>
</g>
<!-- Node15 -->
<g id="node15" class="node">
<title>Node15</title>
<g id="a_node15"><a xlink:href="classkepler_1_1error.html#a4e6ac4013bc23fa893866d2bb0f5d6b8" target="_top" xlink:title=" ">
<polygon fill="white" stroke="#666666" points="535.5,-56 434.5,-56 434.5,-37 535.5,-37 535.5,-56"/>
<text text-anchor="middle" x="485" y="-44" font-family="Helvetica,sans-Serif" font-size="10.00">kepler::error::where</text>
</a>
</g>
</g>
<!-- Node12&#45;&gt;Node15 -->
<g id="edge14" class="edge">
<title>Node12&#45;&gt;Node15</title>
<path fill="none" stroke="#63b8ff" d="M376.97,-59.01C391.77,-57.28 407.84,-55.4 422.92,-53.64"/>
<polygon fill="#63b8ff" stroke="#63b8ff" points="423.2,-57.13 432.73,-52.5 422.39,-50.18 423.2,-57.13"/>
</g>
<!-- Node16 -->
<g id="node16" class="node">
<title>Node16</title>
<g id="a_node16"><a xlink:href="classkepler_1_1error.html#af431dcb57cb6e62850a8bb2d6258c5e7" target="_top" xlink:title=" ">
<polygon fill="white" stroke="#666666" points="531,-19 439,-19 439,0 531,0 531,-19"/>
<text text-anchor="middle" x="485" y="-7" font-family="Helvetica,sans-Serif" font-size="10.00">kepler::error::why</text>
</a>
</g>
</g>
<!-- Node12&#45;&gt;Node16 -->
<g id="edge15" class="edge">
<title>Node12&#45;&gt;Node16</title>
<path fill="none" stroke="#63b8ff" d="M349.23,-55.64C370.48,-48.12 400.55,-37.54 427,-28.5 432.16,-26.74 437.58,-24.9 442.95,-23.1"/>
<polygon fill="#63b8ff" stroke="#63b8ff" points="443.99,-26.44 452.36,-19.95 441.77,-19.8 443.99,-26.44"/>
</g>
<!-- Node14 -->
<g id="node14" class="node">
<title>Node14</title>
<g id="a_node14"><a xlink:href="namespacekepler.html#a76d95d0e078e053088ec440c6e878ab3" target="_top" xlink:title=" ">
<polygon fill="white" stroke="#666666" points="685.5,-93 599.5,-93 599.5,-74 685.5,-74 685.5,-93"/>
<text text-anchor="middle" x="642.5" y="-81" font-family="Helvetica,sans-Serif" font-size="10.00">kepler::to_string</text>
</a>
</g>
</g>
<!-- Node13&#45;&gt;Node14 -->
<g id="edge13" class="edge">
<title>Node13&#45;&gt;Node14</title>
<path fill="none" stroke="#63b8ff" d="M531.81,-83.5C549.39,-83.5 569.6,-83.5 587.84,-83.5"/>
<polygon fill="#63b8ff" stroke="#63b8ff" points="587.69,-87 597.69,-83.5 587.69,-80 587.69,-87"/>
</g>
</g>
</svg>
