<?xml version="1.0" encoding="UTF-8" standalone="no"?>
<!DOCTYPE svg PUBLIC "-//W3C//DTD SVG 1.1//EN"
 "http://www.w3.org/Graphics/SVG/1.1/DTD/svg11.dtd">
<!-- Generated by graphviz version 7.1.0 (20230121.1956)
 -->
<!-- Title: kepler::error::why Pages: 1 -->
<svg width="592pt" height="138pt"
 viewBox="0.00 0.00 592.00 138.00" xmlns="http://www.w3.org/2000/svg" xmlns:xlink="http://www.w3.org/1999/xlink">
<g id="graph0" class="graph" transform="scale(1 1) rotate(0) translate(4 134)">
<title>kepler::error::why</title>
<!-- Node1 -->
<g id="node1" class="node">
<title>Node1</title>
<g id="a_node1"><a xlink:title=" ">
<polygon fill="#999999" stroke="#666666" points="584,-93 492,-93 492,-74 584,-74 584,-93"/>
<text text-anchor="middle" x="538" y="-81" font-family="Helvetica,sans-Serif" font-size="10.00">kepler::error::why</text>
</a>
</g>
</g>
<!-- Node2 -->
<g id="node2" class="node">
<title>Node2</title>
<g id="a_node2"><a xlink:href="classkepler_1_1error.html#a9d1264b80888d725ef312a662ee4e5be" target="_top" xlink:title=" ">
<polygon fill="white" stroke="#666666" points="456,-93 344,-93 344,-74 456,-74 456,-93"/>
<text text-anchor="middle" x="400" y="-81" font-family="Helvetica,sans-Serif" font-size="10.00">kepler::error::to_string</text>
</a>
</g>
</g>
<!-- Node1&#45;&gt;Node2 -->
<g id="edge1" class="edge">
<title>Node1&#45;&gt;Node2</title>
<path fill="none" stroke="#63b8ff" d="M480.36,-83.5C472.47,-83.5 464.37,-83.5 456.5,-83.5"/>
<polygon fill="#63b8ff" stroke="#63b8ff" points="480.2,-87 490.2,-83.5 480.2,-80 480.2,-87"/>
</g>
<!-- Node3 -->
<g id="node3" class="node">
<title>Node3</title>
<g id="a_node3"><a xlink:href="classparser__fixture.html#ab428671a0de24667af59c29d33cc5506" target="_top" xlink:title=" ">
<polygon fill="white" stroke="#666666" points="298,-130 203,-130 203,-111 298,-111 298,-130"/>
<text text-anchor="middle" x="250.5" y="-118" font-family="Helvetica,sans-Serif" font-size="10.00">parser_fixture::run</text>
</a>
</g>
</g>
<!-- Node2&#45;&gt;Node3 -->
<g id="edge2" class="edge">
<title>Node2&#45;&gt;Node3</title>
<path fill="none" stroke="#63b8ff" d="M348.45,-96.18C329.71,-100.88 308.76,-106.14 291.14,-110.56"/>
<polygon fill="#63b8ff" stroke="#63b8ff" points="349.16,-99.61 358,-93.78 347.45,-92.82 349.16,-99.61"/>
</g>
<!-- Node4 -->
<g id="node4" class="node">
<title>Node4</title>
<g id="a_node4"><a xlink:href="namespacekepler.html#ae45e010aed51dc28b896694f75dc2ca7" target="_top" xlink:title=" ">
<polygon fill="white" stroke="#666666" points="290.5,-93 210.5,-93 210.5,-74 290.5,-74 290.5,-93"/>
<text text-anchor="middle" x="250.5" y="-81" font-family="Helvetica,sans-Serif" font-size="10.00">kepler::run_file</text>
</a>
</g>
</g>
<!-- Node2&#45;&gt;Node4 -->
<g id="edge3" class="edge">
<title>Node2&#45;&gt;Node4</title>
<path fill="none" stroke="#63b8ff" d="M332.32,-83.5C318.05,-83.5 303.41,-83.5 290.59,-83.5"/>
<polygon fill="#63b8ff" stroke="#63b8ff" points="332.14,-87 342.14,-83.5 332.14,-80 332.14,-87"/>
</g>
<!-- Node7 -->
<g id="node7" class="node">
<title>Node7</title>
<g id="a_node7"><a xlink:href="namespacekepler.html#a49b7372a95bc6035f77f37023923e171" target="_top" xlink:title=" ">
<polygon fill="white" stroke="#666666" points="308,-56 193,-56 193,-37 308,-37 308,-56"/>
<text text-anchor="middle" x="250.5" y="-44" font-family="Helvetica,sans-Serif" font-size="10.00">kepler::safe_execution</text>
</a>
</g>
</g>
<!-- Node2&#45;&gt;Node7 -->
<g id="edge6" class="edge">
<title>Node2&#45;&gt;Node7</title>
<path fill="none" stroke="#63b8ff" d="M348.45,-70.82C329.71,-66.12 308.76,-60.86 291.14,-56.44"/>
<polygon fill="#63b8ff" stroke="#63b8ff" points="347.45,-74.18 358,-73.22 349.16,-67.39 347.45,-74.18"/>
</g>
<!-- Node5 -->
<g id="node5" class="node">
<title>Node5</title>
<g id="a_node5"><a xlink:href="main_8cpp.html#a0ddf1224851353fc92bfbff6f499fa97" target="_top" xlink:title=" ">
<polygon fill="white" stroke="#666666" points="38,-75 0,-75 0,-56 38,-56 38,-75"/>
<text text-anchor="middle" x="19" y="-63" font-family="Helvetica,sans-Serif" font-size="10.00">main</text>
</a>
</g>
</g>
<!-- Node4&#45;&gt;Node5 -->
<g id="edge4" class="edge">
<title>Node4&#45;&gt;Node5</title>
<path fill="none" stroke="#63b8ff" d="M210.12,-96.65C173.97,-106.66 119.3,-116.53 74,-102.5 56.85,-97.19 40.3,-84.34 30.14,-75.28"/>
<polygon fill="#63b8ff" stroke="#63b8ff" points="211.1,-100.01 219.72,-93.85 209.14,-93.29 211.1,-100.01"/>
</g>
<!-- Node6 -->
<g id="node6" class="node">
<title>Node6</title>
<g id="a_node6"><a xlink:href="classfile__fixture.html#ae49241f7811560799cd0e8f5935de2d5" target="_top" xlink:title=" ">
<polygon fill="white" stroke="#666666" points="156,-93 75,-93 75,-74 156,-74 156,-93"/>
<text text-anchor="middle" x="115.5" y="-81" font-family="Helvetica,sans-Serif" font-size="10.00">file_fixture::run</text>
</a>
</g>
</g>
<!-- Node4&#45;&gt;Node6 -->
<g id="edge5" class="edge">
<title>Node4&#45;&gt;Node6</title>
<path fill="none" stroke="#63b8ff" d="M199.22,-83.5C185.04,-83.5 169.8,-83.5 156.33,-83.5"/>
<polygon fill="#63b8ff" stroke="#63b8ff" points="198.8,-87 208.8,-83.5 198.8,-80 198.8,-87"/>
</g>
<!-- Node8 -->
<g id="node8" class="node">
<title>Node8</title>
<g id="a_node8"><a xlink:href="classfixture.html#a42d66ba224463d10f2fe70e0b60c63e6" target="_top" xlink:title=" ">
<polygon fill="white" stroke="#666666" points="147,-56 84,-56 84,-37 147,-37 147,-56"/>
<text text-anchor="middle" x="115.5" y="-44" font-family="Helvetica,sans-Serif" font-size="10.00">fixture::run</text>
</a>
</g>
</g>
<!-- Node7&#45;&gt;Node8 -->
<g id="edge7" class="edge">
<title>Node7&#45;&gt;Node8</title>
<path fill="none" stroke="#63b8ff" d="M181.35,-46.5C169.47,-46.5 157.66,-46.5 147.43,-46.5"/>
<polygon fill="#63b8ff" stroke="#63b8ff" points="181.2,-50 191.2,-46.5 181.2,-43 181.2,-50"/>
</g>
<!-- Node9 -->
<g id="node9" class="node">
<title>Node9</title>
<g id="a_node9"><a xlink:href="namespacekepler.html#a2eea97746f0ae5fd054d304271c171f5" target="_top" xlink:title=" ">
<polygon fill="white" stroke="#666666" points="157,-19 74,-19 74,0 157,0 157,-19"/>
<text text-anchor="middle" x="115.5" y="-7" font-family="Helvetica,sans-Serif" font-size="10.00">kepler::run_repl</text>
</a>
</g>
</g>
<!-- Node7&#45;&gt;Node9 -->
<g id="edge8" class="edge">
<title>Node7&#45;&gt;Node9</title>
<path fill="none" stroke="#63b8ff" d="M203.2,-33.62C186.49,-28.97 167.91,-23.8 152.24,-19.44"/>
<polygon fill="#63b8ff" stroke="#63b8ff" points="201.83,-36.87 212.4,-36.18 203.7,-30.13 201.83,-36.87"/>
</g>
<!-- Node9&#45;&gt;Node5 -->
<g id="edge9" class="edge">
<title>Node9&#45;&gt;Node5</title>
<path fill="none" stroke="#63b8ff" d="M79.91,-24.32C77.89,-25.35 75.91,-26.42 74,-27.5 59.04,-35.98 43.07,-47.57 32.41,-55.71"/>
<polygon fill="#63b8ff" stroke="#63b8ff" points="81.27,-27.55 88.77,-20.06 78.24,-21.24 81.27,-27.55"/>
</g>
</g>
</svg>
