<?xml version="1.0" encoding="UTF-8" standalone="no"?>
<!DOCTYPE svg PUBLIC "-//W3C//DTD SVG 1.1//EN"
 "http://www.w3.org/Graphics/SVG/1.1/DTD/svg11.dtd">
<!-- Generated by graphviz version 7.1.0 (20230121.1956)
 -->
<!-- Title: src/core/constants/config.cpp Pages: 1 -->
<svg width="918pt" height="313pt"
 viewBox="0.00 0.00 918.43 313.00" xmlns="http://www.w3.org/2000/svg" xmlns:xlink="http://www.w3.org/1999/xlink">
<g id="graph0" class="graph" transform="scale(1 1) rotate(0) translate(4 309)">
<title>src/core/constants/config.cpp</title>
<!-- Node1 -->
<g id="node1" class="node">
<title>Node1</title>
<g id="a_node1"><a xlink:title=" ">
<polygon fill="#999999" stroke="#666666" points="540,-305 442,-305 442,-275 540,-275 540,-305"/>
<text text-anchor="start" x="450" y="-293" font-family="Helvetica,sans-Serif" font-size="10.00">src/core/constants</text>
<text text-anchor="middle" x="491" y="-282" font-family="Helvetica,sans-Serif" font-size="10.00">/config.cpp</text>
</a>
</g>
</g>
<!-- Node2 -->
<g id="node2" class="node">
<title>Node2</title>
<g id="a_node2"><a xlink:href="config_8h.html" target="_top" xlink:title=" ">
<polygon fill="white" stroke="#666666" points="318.5,-239 267.5,-239 267.5,-220 318.5,-220 318.5,-239"/>
<text text-anchor="middle" x="293" y="-227" font-family="Helvetica,sans-Serif" font-size="10.00">config.h</text>
</a>
</g>
</g>
<!-- Node1&#45;&gt;Node2 -->
<g id="edge1" class="edge">
<title>Node1&#45;&gt;Node2</title>
<path fill="none" stroke="#63b8ff" d="M442.06,-274.54C407.38,-264.29 361.58,-250.76 329.95,-241.42"/>
<polygon fill="#63b8ff" stroke="#63b8ff" points="331.01,-238.08 320.43,-238.6 329.03,-244.79 331.01,-238.08"/>
</g>
<!-- Node11 -->
<g id="node11" class="node">
<title>Node11</title>
<g id="a_node11"><a xlink:href="array_8h.html" target="_top" xlink:title=" ">
<polygon fill="white" stroke="#666666" points="45.5,-129 0.5,-129 0.5,-110 45.5,-110 45.5,-129"/>
<text text-anchor="middle" x="23" y="-117" font-family="Helvetica,sans-Serif" font-size="10.00">array.h</text>
</a>
</g>
</g>
<!-- Node1&#45;&gt;Node11 -->
<g id="edge25" class="edge">
<title>Node1&#45;&gt;Node11</title>
<path fill="none" stroke="#63b8ff" d="M441.69,-281.09C394.07,-272.83 320.22,-258.37 258,-239 196.92,-219.99 181.9,-213.22 125,-184 96.43,-169.33 65.32,-149.33 45.07,-135.72"/>
<polygon fill="#63b8ff" stroke="#63b8ff" points="47.29,-133 37.05,-130.28 43.36,-138.79 47.29,-133"/>
</g>
<!-- Node17 -->
<g id="node17" class="node">
<title>Node17</title>
<g id="a_node17"><a xlink:href="literals_8h.html" target="_top" xlink:title=" ">
<polygon fill="white" stroke="#666666" points="897.5,-129 776.5,-129 776.5,-110 897.5,-110 897.5,-129"/>
<text text-anchor="middle" x="837" y="-117" font-family="Helvetica,sans-Serif" font-size="10.00">core/constants/literals.h</text>
</a>
</g>
</g>
<!-- Node1&#45;&gt;Node17 -->
<g id="edge21" class="edge">
<title>Node1&#45;&gt;Node17</title>
<path fill="none" stroke="#63b8ff" d="M520.5,-274.63C586.16,-242.66 743.65,-165.96 808.43,-134.41"/>
<polygon fill="#63b8ff" stroke="#63b8ff" points="809.89,-137.6 817.35,-130.07 806.82,-131.3 809.89,-137.6"/>
</g>
<!-- Node19 -->
<g id="node19" class="node">
<title>Node19</title>
<g id="a_node19"><a xlink:href="error_8h.html" target="_top" xlink:title=" ">
<polygon fill="white" stroke="#666666" points="672.5,-184 607.5,-184 607.5,-165 672.5,-165 672.5,-184"/>
<text text-anchor="middle" x="640" y="-172" font-family="Helvetica,sans-Serif" font-size="10.00">core/error.h</text>
</a>
</g>
</g>
<!-- Node1&#45;&gt;Node19 -->
<g id="edge26" class="edge">
<title>Node1&#45;&gt;Node19</title>
<path fill="none" stroke="#63b8ff" d="M509.87,-274.63C538.01,-253.19 590.76,-213.01 619.71,-190.96"/>
<polygon fill="#63b8ff" stroke="#63b8ff" points="621.5,-193.99 627.34,-185.15 617.26,-188.42 621.5,-193.99"/>
</g>
<!-- Node3 -->
<g id="node3" class="node">
<title>Node3</title>
<g id="a_node3"><a xlink:href="datatypes_8h.html" target="_top" xlink:title=" ">
<polygon fill="white" stroke="#666666" points="367.5,-74 278.5,-74 278.5,-55 367.5,-55 367.5,-74"/>
<text text-anchor="middle" x="323" y="-62" font-family="Helvetica,sans-Serif" font-size="10.00">core/datatypes.h</text>
</a>
</g>
</g>
<!-- Node2&#45;&gt;Node3 -->
<g id="edge2" class="edge">
<title>Node2&#45;&gt;Node3</title>
<path fill="none" stroke="#63b8ff" d="M267,-222.55C208.27,-207.95 73.9,-167.3 120,-110 138.12,-87.48 213.09,-75.71 266.65,-70.07"/>
<polygon fill="#63b8ff" stroke="#63b8ff" points="266.95,-73.55 276.55,-69.07 266.25,-66.59 266.95,-73.55"/>
</g>
<!-- Node7 -->
<g id="node7" class="node">
<title>Node7</title>
<g id="a_node7"><a xlink:href="token_8h.html" target="_top" xlink:title=" ">
<polygon fill="white" stroke="#666666" points="328.5,-184 257.5,-184 257.5,-165 328.5,-165 328.5,-184"/>
<text text-anchor="middle" x="293" y="-172" font-family="Helvetica,sans-Serif" font-size="10.00">core/token.h</text>
</a>
</g>
</g>
<!-- Node2&#45;&gt;Node7 -->
<g id="edge6" class="edge">
<title>Node2&#45;&gt;Node7</title>
<path fill="none" stroke="#63b8ff" d="M293,-219.75C293,-213.27 293,-204.16 293,-195.9"/>
<polygon fill="#63b8ff" stroke="#63b8ff" points="296.5,-195.96 293,-185.96 289.5,-195.96 296.5,-195.96"/>
</g>
<!-- Node4 -->
<g id="node4" class="node">
<title>Node4</title>
<g id="a_node4"><a xlink:title=" ">
<polygon fill="#e0e0e0" stroke="#999999" points="282,-19 238,-19 238,0 282,0 282,-19"/>
<text text-anchor="middle" x="260" y="-7" font-family="Helvetica,sans-Serif" font-size="10.00">vector</text>
</a>
</g>
</g>
<!-- Node3&#45;&gt;Node4 -->
<g id="edge3" class="edge">
<title>Node3&#45;&gt;Node4</title>
<path fill="none" stroke="#63b8ff" d="M312.31,-54.51C303.3,-46.93 290.17,-35.88 279.32,-26.75"/>
<polygon fill="#63b8ff" stroke="#63b8ff" points="281.59,-24.09 271.69,-20.33 277.09,-29.45 281.59,-24.09"/>
</g>
<!-- Node5 -->
<g id="node5" class="node">
<title>Node5</title>
<g id="a_node5"><a xlink:title=" ">
<polygon fill="#e0e0e0" stroke="#999999" points="416.5,-19 375.5,-19 375.5,0 416.5,0 416.5,-19"/>
<text text-anchor="middle" x="396" y="-7" font-family="Helvetica,sans-Serif" font-size="10.00">string</text>
</a>
</g>
</g>
<!-- Node3&#45;&gt;Node5 -->
<g id="edge4" class="edge">
<title>Node3&#45;&gt;Node5</title>
<path fill="none" stroke="#63b8ff" d="M335.38,-54.51C346.15,-46.7 361.97,-35.21 374.75,-25.93"/>
<polygon fill="#63b8ff" stroke="#63b8ff" points="376.54,-28.95 382.57,-20.25 372.43,-23.29 376.54,-28.95"/>
</g>
<!-- Node6 -->
<g id="node6" class="node">
<title>Node6</title>
<g id="a_node6"><a xlink:title=" ">
<polygon fill="#e0e0e0" stroke="#999999" points="353.5,-19 300.5,-19 300.5,0 353.5,0 353.5,-19"/>
<text text-anchor="middle" x="327" y="-7" font-family="Helvetica,sans-Serif" font-size="10.00">complex</text>
</a>
</g>
</g>
<!-- Node3&#45;&gt;Node6 -->
<g id="edge5" class="edge">
<title>Node3&#45;&gt;Node6</title>
<path fill="none" stroke="#63b8ff" d="M323.66,-54.75C324.15,-48.27 324.84,-39.16 325.46,-30.9"/>
<polygon fill="#63b8ff" stroke="#63b8ff" points="328.95,-31.19 326.21,-20.95 321.97,-30.66 328.95,-31.19"/>
</g>
<!-- Node7&#45;&gt;Node3 -->
<g id="edge9" class="edge">
<title>Node7&#45;&gt;Node3</title>
<path fill="none" stroke="#63b8ff" d="M257.3,-171.85C199.6,-167.87 95.67,-154.46 131,-110 147.74,-88.94 216.36,-76.96 266.81,-70.85"/>
<polygon fill="#63b8ff" stroke="#63b8ff" points="267.2,-74.33 276.73,-69.71 266.39,-67.38 267.2,-74.33"/>
</g>
<!-- Node8 -->
<g id="node8" class="node">
<title>Node8</title>
<g id="a_node8"><a xlink:href="token__type_8h.html" target="_top" xlink:title=" ">
<polygon fill="white" stroke="#666666" points="504.5,-74 431.5,-74 431.5,-55 504.5,-55 504.5,-74"/>
<text text-anchor="middle" x="468" y="-62" font-family="Helvetica,sans-Serif" font-size="10.00">token_type.h</text>
</a>
</g>
</g>
<!-- Node7&#45;&gt;Node8 -->
<g id="edge7" class="edge">
<title>Node7&#45;&gt;Node8</title>
<path fill="none" stroke="#63b8ff" d="M328.93,-167.46C356.75,-161.4 395.11,-149.86 423,-129 438.71,-117.25 451.08,-98.41 458.84,-84.29"/>
<polygon fill="#63b8ff" stroke="#63b8ff" points="461.87,-86.05 463.35,-75.55 455.65,-82.83 461.87,-86.05"/>
</g>
<!-- Node10 -->
<g id="node10" class="node">
<title>Node10</title>
<g id="a_node10"><a xlink:title=" ">
<polygon fill="#e0e0e0" stroke="#999999" points="553.5,-129 470.5,-129 470.5,-110 553.5,-110 553.5,-129"/>
<text text-anchor="middle" x="512" y="-117" font-family="Helvetica,sans-Serif" font-size="10.00">uni_algo/conv.h</text>
</a>
</g>
</g>
<!-- Node7&#45;&gt;Node10 -->
<g id="edge10" class="edge">
<title>Node7&#45;&gt;Node10</title>
<path fill="none" stroke="#63b8ff" d="M328.67,-164.87C365.46,-155.97 423.04,-142.03 463.84,-132.15"/>
<polygon fill="#63b8ff" stroke="#63b8ff" points="464.51,-135.59 473.41,-129.84 462.86,-128.79 464.51,-135.59"/>
</g>
<!-- Node7&#45;&gt;Node11 -->
<g id="edge11" class="edge">
<title>Node7&#45;&gt;Node11</title>
<path fill="none" stroke="#63b8ff" d="M257.15,-166.46C204.85,-156.2 108.3,-137.24 57.04,-127.18"/>
<polygon fill="#63b8ff" stroke="#63b8ff" points="57.9,-123.78 47.42,-125.29 56.55,-130.65 57.9,-123.78"/>
</g>
<!-- Node13 -->
<g id="node13" class="node">
<title>Node13</title>
<g id="a_node13"><a xlink:href="conversion_8h.html" target="_top" xlink:title=" ">
<polygon fill="white" stroke="#666666" points="414,-129 286,-129 286,-110 414,-110 414,-129"/>
<text text-anchor="middle" x="350" y="-117" font-family="Helvetica,sans-Serif" font-size="10.00">core/helpers/conversion.h</text>
</a>
</g>
</g>
<!-- Node7&#45;&gt;Node13 -->
<g id="edge14" class="edge">
<title>Node7&#45;&gt;Node13</title>
<path fill="none" stroke="#63b8ff" d="M302.67,-164.51C310.74,-157 322.47,-146.1 332.22,-137.03"/>
<polygon fill="#63b8ff" stroke="#63b8ff" points="334.43,-139.76 339.37,-130.39 329.66,-134.63 334.43,-139.76"/>
</g>
<!-- Node14 -->
<g id="node14" class="node">
<title>Node14</title>
<g id="a_node14"><a xlink:title=" ">
<polygon fill="#e0e0e0" stroke="#999999" points="612,-129 572,-129 572,-110 612,-110 612,-129"/>
<text text-anchor="middle" x="592" y="-117" font-family="Helvetica,sans-Serif" font-size="10.00">utility</text>
</a>
</g>
</g>
<!-- Node7&#45;&gt;Node14 -->
<g id="edge18" class="edge">
<title>Node7&#45;&gt;Node14</title>
<path fill="none" stroke="#63b8ff" d="M328.93,-168.86C378.67,-162.16 471.49,-148.63 560.62,-129.05"/>
<polygon fill="#63b8ff" stroke="#63b8ff" points="561.27,-132.49 570.27,-126.9 559.75,-125.66 561.27,-132.49"/>
</g>
<!-- Node15 -->
<g id="node15" class="node">
<title>Node15</title>
<g id="a_node15"><a xlink:title=" ">
<polygon fill="#e0e0e0" stroke="#999999" points="268,-129 218,-129 218,-110 268,-110 268,-129"/>
<text text-anchor="middle" x="243" y="-117" font-family="Helvetica,sans-Serif" font-size="10.00">optional</text>
</a>
</g>
</g>
<!-- Node7&#45;&gt;Node15 -->
<g id="edge19" class="edge">
<title>Node7&#45;&gt;Node15</title>
<path fill="none" stroke="#63b8ff" d="M284.74,-164.75C277.84,-157.43 267.78,-146.76 259.26,-137.74"/>
<polygon fill="#63b8ff" stroke="#63b8ff" points="261.88,-135.42 252.47,-130.54 256.79,-140.22 261.88,-135.42"/>
</g>
<!-- Node16 -->
<g id="node16" class="node">
<title>Node16</title>
<g id="a_node16"><a xlink:href="position_8h.html" target="_top" xlink:title=" ">
<polygon fill="white" stroke="#666666" points="199.5,-129 140.5,-129 140.5,-110 199.5,-110 199.5,-129"/>
<text text-anchor="middle" x="170" y="-117" font-family="Helvetica,sans-Serif" font-size="10.00">position.h</text>
</a>
</g>
</g>
<!-- Node7&#45;&gt;Node16 -->
<g id="edge20" class="edge">
<title>Node7&#45;&gt;Node16</title>
<path fill="none" stroke="#63b8ff" d="M272.13,-164.51C252.58,-156.08 223.1,-143.38 200.83,-133.79"/>
<polygon fill="#63b8ff" stroke="#63b8ff" points="202.52,-130.7 191.95,-129.96 199.75,-137.13 202.52,-130.7"/>
</g>
<!-- Node9 -->
<g id="node9" class="node">
<title>Node9</title>
<g id="a_node9"><a xlink:title=" ">
<polygon fill="#e0e0e0" stroke="#999999" points="502,-19 448,-19 448,0 502,0 502,-19"/>
<text text-anchor="middle" x="475" y="-7" font-family="Helvetica,sans-Serif" font-size="10.00">iostream</text>
</a>
</g>
</g>
<!-- Node8&#45;&gt;Node9 -->
<g id="edge8" class="edge">
<title>Node8&#45;&gt;Node9</title>
<path fill="none" stroke="#63b8ff" d="M469.16,-54.75C470.02,-48.19 471.24,-38.95 472.34,-30.6"/>
<polygon fill="#63b8ff" stroke="#63b8ff" points="475.78,-31.31 473.62,-20.94 468.84,-30.4 475.78,-31.31"/>
</g>
<!-- Node11&#45;&gt;Node3 -->
<g id="edge12" class="edge">
<title>Node11&#45;&gt;Node3</title>
<path fill="none" stroke="#63b8ff" d="M45.65,-113.08C50.38,-112.01 55.35,-110.93 60,-110 131.08,-95.83 213.56,-82.36 266.92,-74.02"/>
<polygon fill="#63b8ff" stroke="#63b8ff" points="267.34,-77.5 276.69,-72.5 266.27,-70.58 267.34,-77.5"/>
</g>
<!-- Node12 -->
<g id="node12" class="node">
<title>Node12</title>
<g id="a_node12"><a xlink:title=" ">
<polygon fill="#e0e0e0" stroke="#999999" points="46,-74 0,-74 0,-55 46,-55 46,-74"/>
<text text-anchor="middle" x="23" y="-62" font-family="Helvetica,sans-Serif" font-size="10.00">variant</text>
</a>
</g>
</g>
<!-- Node11&#45;&gt;Node12 -->
<g id="edge13" class="edge">
<title>Node11&#45;&gt;Node12</title>
<path fill="none" stroke="#63b8ff" d="M23,-109.75C23,-103.27 23,-94.16 23,-85.9"/>
<polygon fill="#63b8ff" stroke="#63b8ff" points="26.5,-85.96 23,-75.96 19.5,-85.96 26.5,-85.96"/>
</g>
<!-- Node13&#45;&gt;Node3 -->
<g id="edge16" class="edge">
<title>Node13&#45;&gt;Node3</title>
<path fill="none" stroke="#63b8ff" d="M345.54,-109.75C342.05,-102.88 337.05,-93.08 332.65,-84.45"/>
<polygon fill="#63b8ff" stroke="#63b8ff" points="335.9,-83.11 328.24,-75.79 329.66,-86.29 335.9,-83.11"/>
</g>
<!-- Node13&#45;&gt;Node5 -->
<g id="edge15" class="edge">
<title>Node13&#45;&gt;Node5</title>
<path fill="none" stroke="#63b8ff" d="M356,-109.61C361.71,-100.85 370.27,-86.93 376,-74 382.31,-59.74 387.53,-42.88 391.05,-30.12"/>
<polygon fill="#63b8ff" stroke="#63b8ff" points="394.33,-31.38 393.5,-20.82 387.56,-29.6 394.33,-31.38"/>
</g>
<!-- Node13&#45;&gt;Node8 -->
<g id="edge17" class="edge">
<title>Node13&#45;&gt;Node8</title>
<path fill="none" stroke="#63b8ff" d="M370.02,-109.51C388.61,-101.16 416.54,-88.61 437.83,-79.05"/>
<polygon fill="#63b8ff" stroke="#63b8ff" points="439.21,-82.27 446.9,-74.98 436.34,-75.88 439.21,-82.27"/>
</g>
<!-- Node17&#45;&gt;Node3 -->
<g id="edge22" class="edge">
<title>Node17&#45;&gt;Node3</title>
<path fill="none" stroke="#63b8ff" d="M776.3,-111.05C773.16,-110.69 770.04,-110.34 767,-110 627.64,-94.56 463.41,-78.71 379.13,-70.75"/>
<polygon fill="#63b8ff" stroke="#63b8ff" points="379.57,-67.27 369.28,-69.82 378.91,-74.24 379.57,-67.27"/>
</g>
<!-- Node17&#45;&gt;Node8 -->
<g id="edge23" class="edge">
<title>Node17&#45;&gt;Node8</title>
<path fill="none" stroke="#63b8ff" d="M776.07,-109.75C703.12,-99.27 582.46,-81.94 515.86,-72.37"/>
<polygon fill="#63b8ff" stroke="#63b8ff" points="516.76,-68.97 506.36,-71.01 515.76,-75.9 516.76,-68.97"/>
</g>
<!-- Node18 -->
<g id="node18" class="node">
<title>Node18</title>
<g id="a_node18"><a xlink:title=" ">
<polygon fill="#e0e0e0" stroke="#999999" points="854.5,-74 819.5,-74 819.5,-55 854.5,-55 854.5,-74"/>
<text text-anchor="middle" x="837" y="-62" font-family="Helvetica,sans-Serif" font-size="10.00">map</text>
</a>
</g>
</g>
<!-- Node17&#45;&gt;Node18 -->
<g id="edge24" class="edge">
<title>Node17&#45;&gt;Node18</title>
<path fill="none" stroke="#63b8ff" d="M837,-109.75C837,-103.27 837,-94.16 837,-85.9"/>
<polygon fill="#63b8ff" stroke="#63b8ff" points="840.5,-85.96 837,-75.96 833.5,-85.96 840.5,-85.96"/>
</g>
<!-- Node19&#45;&gt;Node3 -->
<g id="edge32" class="edge">
<title>Node19&#45;&gt;Node3</title>
<path fill="none" stroke="#63b8ff" d="M640.13,-164.55C639.82,-150.6 637,-123.87 621,-110 603.02,-94.42 460.07,-78.51 378.87,-70.61"/>
<polygon fill="#63b8ff" stroke="#63b8ff" points="379.64,-67.16 369.35,-69.69 378.97,-74.13 379.64,-67.16"/>
</g>
<!-- Node19&#45;&gt;Node9 -->
<g id="edge27" class="edge">
<title>Node19&#45;&gt;Node9</title>
<path fill="none" stroke="#63b8ff" d="M672.71,-173.09C737.25,-171.52 877.31,-164.05 907,-129 912.46,-122.56 909.8,-117.97 907,-110 896.64,-80.46 890.39,-70.15 863,-55 803.57,-22.14 599.56,-13.46 513.64,-11.24"/>
<polygon fill="#63b8ff" stroke="#63b8ff" points="513.92,-7.74 503.84,-11 513.75,-14.74 513.92,-7.74"/>
</g>
<!-- Node19&#45;&gt;Node10 -->
<g id="edge33" class="edge">
<title>Node19&#45;&gt;Node10</title>
<path fill="none" stroke="#63b8ff" d="M618.29,-164.51C597.84,-156.04 566.98,-143.27 543.77,-133.66"/>
<polygon fill="#63b8ff" stroke="#63b8ff" points="545.37,-130.53 534.79,-129.94 542.69,-137 545.37,-130.53"/>
</g>
<!-- Node19&#45;&gt;Node14 -->
<g id="edge29" class="edge">
<title>Node19&#45;&gt;Node14</title>
<path fill="none" stroke="#63b8ff" d="M632.07,-164.75C625.44,-157.43 615.78,-146.76 607.61,-137.74"/>
<polygon fill="#63b8ff" stroke="#63b8ff" points="610.42,-135.63 601.11,-130.56 605.23,-140.33 610.42,-135.63"/>
</g>
<!-- Node20 -->
<g id="node20" class="node">
<title>Node20</title>
<g id="a_node20"><a xlink:title=" ">
<polygon fill="#e0e0e0" stroke="#999999" points="758,-129 706,-129 706,-110 758,-110 758,-129"/>
<text text-anchor="middle" x="732" y="-117" font-family="Helvetica,sans-Serif" font-size="10.00">sstream</text>
</a>
</g>
</g>
<!-- Node19&#45;&gt;Node20 -->
<g id="edge28" class="edge">
<title>Node19&#45;&gt;Node20</title>
<path fill="none" stroke="#63b8ff" d="M655.61,-164.51C669.7,-156.39 690.69,-144.3 707.1,-134.85"/>
<polygon fill="#63b8ff" stroke="#63b8ff" points="708.39,-138.14 715.31,-130.11 704.9,-132.07 708.39,-138.14"/>
</g>
<!-- Node21 -->
<g id="node21" class="node">
<title>Node21</title>
<g id="a_node21"><a xlink:href="error__type_8h.html" target="_top" xlink:title=" ">
<polygon fill="white" stroke="#666666" points="639,-74 571,-74 571,-55 639,-55 639,-74"/>
<text text-anchor="middle" x="605" y="-62" font-family="Helvetica,sans-Serif" font-size="10.00">error_type.h</text>
</a>
</g>
</g>
<!-- Node19&#45;&gt;Node21 -->
<g id="edge30" class="edge">
<title>Node19&#45;&gt;Node21</title>
<path fill="none" stroke="#63b8ff" d="M645.37,-164.52C652.19,-151.9 662.13,-128.37 654,-110 648.84,-98.34 638.94,-88.42 629.38,-80.93"/>
<polygon fill="#63b8ff" stroke="#63b8ff" points="631.52,-78.16 621.36,-75.16 627.43,-83.84 631.52,-78.16"/>
</g>
<!-- Node21&#45;&gt;Node5 -->
<g id="edge31" class="edge">
<title>Node21&#45;&gt;Node5</title>
<path fill="none" stroke="#63b8ff" d="M570.96,-54.87C531.44,-44.85 466.75,-28.44 428.09,-18.64"/>
<polygon fill="#63b8ff" stroke="#63b8ff" points="429,-15.26 418.45,-16.19 427.28,-22.04 429,-15.26"/>
</g>
</g>
</svg>
