<?xml version="1.0" encoding="UTF-8" standalone="no"?>
<!DOCTYPE svg PUBLIC "-//W3C//DTD SVG 1.1//EN"
 "http://www.w3.org/Graphics/SVG/1.1/DTD/svg11.dtd">
<!-- Generated by graphviz version 7.1.0 (20230121.1956)
 -->
<!-- Title: src/core/constants/config.h Pages: 1 -->
<svg width="589pt" height="258pt"
 viewBox="0.00 0.00 589.42 258.00" xmlns="http://www.w3.org/2000/svg" xmlns:xlink="http://www.w3.org/1999/xlink">
<g id="graph0" class="graph" transform="scale(1 1) rotate(0) translate(4 254)">
<title>src/core/constants/config.h</title>
<!-- Node1 -->
<g id="node1" class="node">
<title>Node1</title>
<g id="a_node1"><a xlink:title=" ">
<polygon fill="#999999" stroke="#666666" points="177.92,-250 79.92,-250 79.92,-220 177.92,-220 177.92,-250"/>
<text text-anchor="start" x="87.92" y="-238" font-family="Helvetica,sans-Serif" font-size="10.00">src/core/constants</text>
<text text-anchor="middle" x="128.92" y="-227" font-family="Helvetica,sans-Serif" font-size="10.00">/config.h</text>
</a>
</g>
</g>
<!-- Node2 -->
<g id="node2" class="node">
<title>Node2</title>
<g id="a_node2"><a xlink:href="datatypes_8h.html" target="_top" xlink:title=" ">
<polygon fill="white" stroke="#666666" points="442.42,-74 353.42,-74 353.42,-55 442.42,-55 442.42,-74"/>
<text text-anchor="middle" x="397.92" y="-62" font-family="Helvetica,sans-Serif" font-size="10.00">core/datatypes.h</text>
</a>
</g>
</g>
<!-- Node1&#45;&gt;Node2 -->
<g id="edge1" class="edge">
<title>Node1&#45;&gt;Node2</title>
<path fill="none" stroke="#63b8ff" d="M96.93,-219.63C50.43,-196.86 -26.52,-150.86 9.92,-110 31.63,-85.67 239.74,-72.78 341.9,-67.87"/>
<polygon fill="#63b8ff" stroke="#63b8ff" points="341.89,-71.38 351.71,-67.41 341.56,-64.39 341.89,-71.38"/>
</g>
<!-- Node6 -->
<g id="node6" class="node">
<title>Node6</title>
<g id="a_node6"><a xlink:href="token_8h.html" target="_top" xlink:title=" ">
<polygon fill="white" stroke="#666666" points="302.42,-184 231.42,-184 231.42,-165 302.42,-165 302.42,-184"/>
<text text-anchor="middle" x="266.92" y="-172" font-family="Helvetica,sans-Serif" font-size="10.00">core/token.h</text>
</a>
</g>
</g>
<!-- Node1&#45;&gt;Node6 -->
<g id="edge5" class="edge">
<title>Node1&#45;&gt;Node6</title>
<path fill="none" stroke="#63b8ff" d="M163.04,-219.54C185.19,-210.15 213.87,-197.99 235.47,-188.83"/>
<polygon fill="#63b8ff" stroke="#63b8ff" points="236.82,-192.06 244.66,-184.94 234.09,-185.62 236.82,-192.06"/>
</g>
<!-- Node3 -->
<g id="node3" class="node">
<title>Node3</title>
<g id="a_node3"><a xlink:title=" ">
<polygon fill="#e0e0e0" stroke="#999999" points="424.92,-19 380.92,-19 380.92,0 424.92,0 424.92,-19"/>
<text text-anchor="middle" x="402.92" y="-7" font-family="Helvetica,sans-Serif" font-size="10.00">vector</text>
</a>
</g>
</g>
<!-- Node2&#45;&gt;Node3 -->
<g id="edge2" class="edge">
<title>Node2&#45;&gt;Node3</title>
<path fill="none" stroke="#63b8ff" d="M398.75,-54.75C399.36,-48.27 400.22,-39.16 401,-30.9"/>
<polygon fill="#63b8ff" stroke="#63b8ff" points="404.48,-31.23 401.94,-20.95 397.52,-30.58 404.48,-31.23"/>
</g>
<!-- Node4 -->
<g id="node4" class="node">
<title>Node4</title>
<g id="a_node4"><a xlink:title=" ">
<polygon fill="#e0e0e0" stroke="#999999" points="489.42,-19 448.42,-19 448.42,0 489.42,0 489.42,-19"/>
<text text-anchor="middle" x="468.92" y="-7" font-family="Helvetica,sans-Serif" font-size="10.00">string</text>
</a>
</g>
</g>
<!-- Node2&#45;&gt;Node4 -->
<g id="edge3" class="edge">
<title>Node2&#45;&gt;Node4</title>
<path fill="none" stroke="#63b8ff" d="M409.97,-54.51C420.33,-46.77 435.53,-35.43 447.89,-26.2"/>
<polygon fill="#63b8ff" stroke="#63b8ff" points="449.93,-29.05 455.85,-20.26 445.74,-23.44 449.93,-29.05"/>
</g>
<!-- Node5 -->
<g id="node5" class="node">
<title>Node5</title>
<g id="a_node5"><a xlink:title=" ">
<polygon fill="#e0e0e0" stroke="#999999" points="362.42,-19 309.42,-19 309.42,0 362.42,0 362.42,-19"/>
<text text-anchor="middle" x="335.92" y="-7" font-family="Helvetica,sans-Serif" font-size="10.00">complex</text>
</a>
</g>
</g>
<!-- Node2&#45;&gt;Node5 -->
<g id="edge4" class="edge">
<title>Node2&#45;&gt;Node5</title>
<path fill="none" stroke="#63b8ff" d="M387.41,-54.51C378.54,-46.93 365.61,-35.88 354.94,-26.75"/>
<polygon fill="#63b8ff" stroke="#63b8ff" points="357.31,-24.18 347.44,-20.34 352.76,-29.5 357.31,-24.18"/>
</g>
<!-- Node6&#45;&gt;Node2 -->
<g id="edge8" class="edge">
<title>Node6&#45;&gt;Node2</title>
<path fill="none" stroke="#63b8ff" d="M302.88,-167.67C327.5,-161.88 359.14,-150.6 378.92,-129 389.76,-117.18 394.43,-99.41 396.43,-85.68"/>
<polygon fill="#63b8ff" stroke="#63b8ff" points="399.89,-86.3 397.47,-75.98 392.92,-85.56 399.89,-86.3"/>
</g>
<!-- Node7 -->
<g id="node7" class="node">
<title>Node7</title>
<g id="a_node7"><a xlink:href="token__type_8h.html" target="_top" xlink:title=" ">
<polygon fill="white" stroke="#666666" points="581.42,-74 508.42,-74 508.42,-55 581.42,-55 581.42,-74"/>
<text text-anchor="middle" x="544.92" y="-62" font-family="Helvetica,sans-Serif" font-size="10.00">token_type.h</text>
</a>
</g>
</g>
<!-- Node6&#45;&gt;Node7 -->
<g id="edge6" class="edge">
<title>Node6&#45;&gt;Node7</title>
<path fill="none" stroke="#63b8ff" d="M302.88,-173.67C374.24,-173.16 529.74,-167.55 562.92,-129 573.77,-116.41 566.55,-97.7 558.25,-83.85"/>
<polygon fill="#63b8ff" stroke="#63b8ff" points="561.26,-82.05 552.81,-75.65 555.42,-85.92 561.26,-82.05"/>
</g>
<!-- Node9 -->
<g id="node9" class="node">
<title>Node9</title>
<g id="a_node9"><a xlink:title=" ">
<polygon fill="#e0e0e0" stroke="#999999" points="165.42,-129 82.42,-129 82.42,-110 165.42,-110 165.42,-129"/>
<text text-anchor="middle" x="123.92" y="-117" font-family="Helvetica,sans-Serif" font-size="10.00">uni_algo/conv.h</text>
</a>
</g>
</g>
<!-- Node6&#45;&gt;Node9 -->
<g id="edge9" class="edge">
<title>Node6&#45;&gt;Node9</title>
<path fill="none" stroke="#63b8ff" d="M242.67,-164.51C219.52,-155.93 184.41,-142.92 158.37,-133.27"/>
<polygon fill="#63b8ff" stroke="#63b8ff" points="159.84,-130.08 149.24,-129.88 157.4,-136.64 159.84,-130.08"/>
</g>
<!-- Node10 -->
<g id="node10" class="node">
<title>Node10</title>
<g id="a_node10"><a xlink:href="array_8h.html" target="_top" xlink:title=" ">
<polygon fill="white" stroke="#666666" points="64.42,-129 19.42,-129 19.42,-110 64.42,-110 64.42,-129"/>
<text text-anchor="middle" x="41.92" y="-117" font-family="Helvetica,sans-Serif" font-size="10.00">array.h</text>
</a>
</g>
</g>
<!-- Node6&#45;&gt;Node10 -->
<g id="edge10" class="edge">
<title>Node6&#45;&gt;Node10</title>
<path fill="none" stroke="#63b8ff" d="M231.27,-165.65C194.67,-157.51 135.81,-144.19 75.5,-129.32"/>
<polygon fill="#63b8ff" stroke="#63b8ff" points="76.64,-126 66.1,-126.99 74.96,-132.8 76.64,-126"/>
</g>
<!-- Node12 -->
<g id="node12" class="node">
<title>Node12</title>
<g id="a_node12"><a xlink:href="conversion_8h.html" target="_top" xlink:title=" ">
<polygon fill="white" stroke="#666666" points="553.92,-129 425.92,-129 425.92,-110 553.92,-110 553.92,-129"/>
<text text-anchor="middle" x="489.92" y="-117" font-family="Helvetica,sans-Serif" font-size="10.00">core/helpers/conversion.h</text>
</a>
</g>
</g>
<!-- Node6&#45;&gt;Node12 -->
<g id="edge13" class="edge">
<title>Node6&#45;&gt;Node12</title>
<path fill="none" stroke="#63b8ff" d="M302.75,-164.98C340.31,-156.06 399.55,-141.98 441.31,-132.05"/>
<polygon fill="#63b8ff" stroke="#63b8ff" points="441.93,-135.5 450.85,-129.79 440.31,-128.69 441.93,-135.5"/>
</g>
<!-- Node13 -->
<g id="node13" class="node">
<title>Node13</title>
<g id="a_node13"><a xlink:title=" ">
<polygon fill="#e0e0e0" stroke="#999999" points="223.92,-129 183.92,-129 183.92,-110 223.92,-110 223.92,-129"/>
<text text-anchor="middle" x="203.92" y="-117" font-family="Helvetica,sans-Serif" font-size="10.00">utility</text>
</a>
</g>
</g>
<!-- Node6&#45;&gt;Node13 -->
<g id="edge17" class="edge">
<title>Node6&#45;&gt;Node13</title>
<path fill="none" stroke="#63b8ff" d="M256.24,-164.51C247.22,-156.93 234.09,-145.88 223.24,-136.75"/>
<polygon fill="#63b8ff" stroke="#63b8ff" points="225.52,-134.09 215.61,-130.33 221.01,-139.45 225.52,-134.09"/>
</g>
<!-- Node14 -->
<g id="node14" class="node">
<title>Node14</title>
<g id="a_node14"><a xlink:title=" ">
<polygon fill="#e0e0e0" stroke="#999999" points="291.92,-129 241.92,-129 241.92,-110 291.92,-110 291.92,-129"/>
<text text-anchor="middle" x="266.92" y="-117" font-family="Helvetica,sans-Serif" font-size="10.00">optional</text>
</a>
</g>
</g>
<!-- Node6&#45;&gt;Node14 -->
<g id="edge18" class="edge">
<title>Node6&#45;&gt;Node14</title>
<path fill="none" stroke="#63b8ff" d="M266.92,-164.75C266.92,-158.27 266.92,-149.16 266.92,-140.9"/>
<polygon fill="#63b8ff" stroke="#63b8ff" points="270.43,-140.96 266.92,-130.96 263.43,-140.96 270.43,-140.96"/>
</g>
<!-- Node15 -->
<g id="node15" class="node">
<title>Node15</title>
<g id="a_node15"><a xlink:href="position_8h.html" target="_top" xlink:title=" ">
<polygon fill="white" stroke="#666666" points="369.42,-129 310.42,-129 310.42,-110 369.42,-110 369.42,-129"/>
<text text-anchor="middle" x="339.92" y="-117" font-family="Helvetica,sans-Serif" font-size="10.00">position.h</text>
</a>
</g>
</g>
<!-- Node6&#45;&gt;Node15 -->
<g id="edge19" class="edge">
<title>Node6&#45;&gt;Node15</title>
<path fill="none" stroke="#63b8ff" d="M279.31,-164.51C290.07,-156.7 305.9,-145.21 318.68,-135.93"/>
<polygon fill="#63b8ff" stroke="#63b8ff" points="320.46,-138.95 326.5,-130.25 316.35,-133.29 320.46,-138.95"/>
</g>
<!-- Node8 -->
<g id="node8" class="node">
<title>Node8</title>
<g id="a_node8"><a xlink:title=" ">
<polygon fill="#e0e0e0" stroke="#999999" points="571.92,-19 517.92,-19 517.92,0 571.92,0 571.92,-19"/>
<text text-anchor="middle" x="544.92" y="-7" font-family="Helvetica,sans-Serif" font-size="10.00">iostream</text>
</a>
</g>
</g>
<!-- Node7&#45;&gt;Node8 -->
<g id="edge7" class="edge">
<title>Node7&#45;&gt;Node8</title>
<path fill="none" stroke="#63b8ff" d="M544.92,-54.75C544.92,-48.27 544.92,-39.16 544.92,-30.9"/>
<polygon fill="#63b8ff" stroke="#63b8ff" points="548.43,-30.96 544.92,-20.96 541.43,-30.96 548.43,-30.96"/>
</g>
<!-- Node10&#45;&gt;Node2 -->
<g id="edge11" class="edge">
<title>Node10&#45;&gt;Node2</title>
<path fill="none" stroke="#63b8ff" d="M64.92,-112.03C67.93,-111.29 70.99,-110.59 73.92,-110 167.14,-91.29 277.03,-78.02 341.9,-71.07"/>
<polygon fill="#63b8ff" stroke="#63b8ff" points="342,-74.58 351.58,-70.05 341.27,-67.62 342,-74.58"/>
</g>
<!-- Node11 -->
<g id="node11" class="node">
<title>Node11</title>
<g id="a_node11"><a xlink:title=" ">
<polygon fill="#e0e0e0" stroke="#999999" points="64.92,-74 18.92,-74 18.92,-55 64.92,-55 64.92,-74"/>
<text text-anchor="middle" x="41.92" y="-62" font-family="Helvetica,sans-Serif" font-size="10.00">variant</text>
</a>
</g>
</g>
<!-- Node10&#45;&gt;Node11 -->
<g id="edge12" class="edge">
<title>Node10&#45;&gt;Node11</title>
<path fill="none" stroke="#63b8ff" d="M41.92,-109.75C41.92,-103.27 41.92,-94.16 41.92,-85.9"/>
<polygon fill="#63b8ff" stroke="#63b8ff" points="45.43,-85.96 41.92,-75.96 38.43,-85.96 45.43,-85.96"/>
</g>
<!-- Node12&#45;&gt;Node2 -->
<g id="edge15" class="edge">
<title>Node12&#45;&gt;Node2</title>
<path fill="none" stroke="#63b8ff" d="M474.32,-109.51C460.22,-101.39 439.24,-89.3 422.83,-79.85"/>
<polygon fill="#63b8ff" stroke="#63b8ff" points="425.02,-77.07 414.61,-75.11 421.53,-83.14 425.02,-77.07"/>
</g>
<!-- Node12&#45;&gt;Node4 -->
<g id="edge14" class="edge">
<title>Node12&#45;&gt;Node4</title>
<path fill="none" stroke="#63b8ff" d="M488.21,-109.66C484.87,-92.5 477.43,-54.26 472.83,-30.6"/>
<polygon fill="#63b8ff" stroke="#63b8ff" points="476.3,-30.09 470.96,-20.95 469.43,-31.43 476.3,-30.09"/>
</g>
<!-- Node12&#45;&gt;Node7 -->
<g id="edge16" class="edge">
<title>Node12&#45;&gt;Node7</title>
<path fill="none" stroke="#63b8ff" d="M499.01,-109.75C506.76,-102.27 518.13,-91.32 527.62,-82.17"/>
<polygon fill="#63b8ff" stroke="#63b8ff" points="529.78,-84.95 534.56,-75.49 524.93,-79.91 529.78,-84.95"/>
</g>
</g>
</svg>
