<?xml version="1.0" encoding="UTF-8" standalone="no"?>
<!DOCTYPE svg PUBLIC "-//W3C//DTD SVG 1.1//EN"
 "http://www.w3.org/Graphics/SVG/1.1/DTD/svg11.dtd">
<!-- Generated by graphviz version 7.1.0 (20230121.1956)
 -->
<!-- Title: src/core/constants/config.h Pages: 1 -->
<svg width="881pt" height="115pt"
 viewBox="0.00 0.00 880.50 115.00" xmlns="http://www.w3.org/2000/svg" xmlns:xlink="http://www.w3.org/1999/xlink">
<g id="graph0" class="graph" transform="scale(1 1) rotate(0) translate(4 111)">
<title>src/core/constants/config.h</title>
<!-- Node1 -->
<g id="node1" class="node">
<title>Node1</title>
<g id="a_node1"><a xlink:title=" ">
<polygon fill="#999999" stroke="#666666" points="444,-107 346,-107 346,-77 444,-77 444,-107"/>
<text text-anchor="start" x="354" y="-95" font-family="Helvetica,sans-Serif" font-size="10.00">src/core/constants</text>
<text text-anchor="middle" x="395" y="-84" font-family="Helvetica,sans-Serif" font-size="10.00">/config.h</text>
</a>
</g>
</g>
<!-- Node2 -->
<g id="node2" class="node">
<title>Node2</title>
<g id="a_node2"><a xlink:href="array_8cpp.html" target="_top" xlink:title=" ">
<polygon fill="white" stroke="#666666" points="94,-30 0,-30 0,-11 94,-11 94,-30"/>
<text text-anchor="middle" x="47" y="-18" font-family="Helvetica,sans-Serif" font-size="10.00">src/core/array.cpp</text>
</a>
</g>
</g>
<!-- Node1&#45;&gt;Node2 -->
<g id="edge1" class="edge">
<title>Node1&#45;&gt;Node2</title>
<path fill="none" stroke="#63b8ff" d="M334.58,-83.63C275.1,-75.68 181.95,-61.36 103,-41 91.93,-38.15 79.94,-34.1 69.9,-30.44"/>
<polygon fill="#63b8ff" stroke="#63b8ff" points="333.78,-87.05 344.15,-84.89 334.69,-80.11 333.78,-87.05"/>
</g>
<!-- Node3 -->
<g id="node3" class="node">
<title>Node3</title>
<g id="a_node3"><a xlink:href="config_8cpp.html" target="_top" xlink:title=" ">
<polygon fill="white" stroke="#666666" points="210,-35.5 112,-35.5 112,-5.5 210,-5.5 210,-35.5"/>
<text text-anchor="start" x="120" y="-23.5" font-family="Helvetica,sans-Serif" font-size="10.00">src/core/constants</text>
<text text-anchor="middle" x="161" y="-12.5" font-family="Helvetica,sans-Serif" font-size="10.00">/config.cpp</text>
</a>
</g>
</g>
<!-- Node1&#45;&gt;Node3 -->
<g id="edge2" class="edge">
<title>Node1&#45;&gt;Node3</title>
<path fill="none" stroke="#63b8ff" d="M334.78,-74.65C300.69,-65.21 257.33,-52.88 219,-41 213.83,-39.4 208.41,-37.66 203.06,-35.9"/>
<polygon fill="#63b8ff" stroke="#63b8ff" points="333.47,-77.93 344.04,-77.21 335.34,-71.18 333.47,-77.93"/>
</g>
<!-- Node4 -->
<g id="node4" class="node">
<title>Node4</title>
<g id="a_node4"><a xlink:href="interpreter_8cpp.html" target="_top" xlink:title=" ">
<polygon fill="white" stroke="#666666" points="327.5,-35.5 228.5,-35.5 228.5,-5.5 327.5,-5.5 327.5,-35.5"/>
<text text-anchor="start" x="236.5" y="-23.5" font-family="Helvetica,sans-Serif" font-size="10.00">src/core/evaluation</text>
<text text-anchor="middle" x="278" y="-12.5" font-family="Helvetica,sans-Serif" font-size="10.00">/interpreter.cpp</text>
</a>
</g>
</g>
<!-- Node1&#45;&gt;Node4 -->
<g id="edge3" class="edge">
<title>Node1&#45;&gt;Node4</title>
<path fill="none" stroke="#63b8ff" d="M361.06,-70.84C342.22,-59.65 319.23,-45.99 302.21,-35.88"/>
<polygon fill="#63b8ff" stroke="#63b8ff" points="359.07,-73.73 369.46,-75.83 362.65,-67.71 359.07,-73.73"/>
</g>
<!-- Node5 -->
<g id="node5" class="node">
<title>Node5</title>
<g id="a_node5"><a xlink:href="defined__function_8cpp.html" target="_top" xlink:title=" ">
<polygon fill="white" stroke="#666666" points="444.5,-41 345.5,-41 345.5,0 444.5,0 444.5,-41"/>
<text text-anchor="start" x="353.5" y="-29" font-family="Helvetica,sans-Serif" font-size="10.00">src/core/evaluation</text>
<text text-anchor="start" x="353.5" y="-18" font-family="Helvetica,sans-Serif" font-size="10.00">/operations/defined</text>
<text text-anchor="middle" x="395" y="-7" font-family="Helvetica,sans-Serif" font-size="10.00">_function.cpp</text>
</a>
</g>
</g>
<!-- Node1&#45;&gt;Node5 -->
<g id="edge4" class="edge">
<title>Node1&#45;&gt;Node5</title>
<path fill="none" stroke="#63b8ff" d="M395,-65.36C395,-57.45 395,-48.87 395,-41.42"/>
<polygon fill="#63b8ff" stroke="#63b8ff" points="391.5,-65.09 395,-75.09 398.5,-65.09 391.5,-65.09"/>
</g>
<!-- Node6 -->
<g id="node6" class="node">
<title>Node6</title>
<g id="a_node6"><a xlink:href="functions_8cpp.html" target="_top" xlink:title=" ">
<polygon fill="white" stroke="#666666" points="589,-35.5 463,-35.5 463,-5.5 589,-5.5 589,-35.5"/>
<text text-anchor="start" x="471" y="-23.5" font-family="Helvetica,sans-Serif" font-size="10.00">src/core/evaluation</text>
<text text-anchor="middle" x="526" y="-12.5" font-family="Helvetica,sans-Serif" font-size="10.00">/operations/functions.cpp</text>
</a>
</g>
</g>
<!-- Node1&#45;&gt;Node6 -->
<g id="edge5" class="edge">
<title>Node1&#45;&gt;Node6</title>
<path fill="none" stroke="#63b8ff" d="M432.13,-71.3C453.38,-60.03 479.58,-46.13 498.89,-35.88"/>
<polygon fill="#63b8ff" stroke="#63b8ff" points="430.67,-68.11 423.48,-75.89 433.95,-74.3 430.67,-68.11"/>
</g>
<!-- Node7 -->
<g id="node7" class="node">
<title>Node7</title>
<g id="a_node7"><a xlink:href="execution_8cpp.html" target="_top" xlink:title=" ">
<polygon fill="white" stroke="#666666" points="723,-30 607,-30 607,-11 723,-11 723,-30"/>
<text text-anchor="middle" x="665" y="-18" font-family="Helvetica,sans-Serif" font-size="10.00">src/core/execution.cpp</text>
</a>
</g>
</g>
<!-- Node1&#45;&gt;Node7 -->
<g id="edge6" class="edge">
<title>Node1&#45;&gt;Node7</title>
<path fill="none" stroke="#63b8ff" d="M455.4,-76.82C495.86,-67.15 550.26,-53.82 598,-41 610.29,-37.7 623.76,-33.83 635.39,-30.41"/>
<polygon fill="#63b8ff" stroke="#63b8ff" points="454.76,-73.38 445.84,-79.1 456.38,-80.18 454.76,-73.38"/>
</g>
<!-- Node8 -->
<g id="node8" class="node">
<title>Node8</title>
<g id="a_node8"><a xlink:href="symbol__table_8cpp.html" target="_top" xlink:title=" ">
<polygon fill="white" stroke="#666666" points="872.5,-30 741.5,-30 741.5,-11 872.5,-11 872.5,-30"/>
<text text-anchor="middle" x="807" y="-18" font-family="Helvetica,sans-Serif" font-size="10.00">src/core/symbol_table.cpp</text>
</a>
</g>
</g>
<!-- Node1&#45;&gt;Node8 -->
<g id="edge7" class="edge">
<title>Node1&#45;&gt;Node8</title>
<path fill="none" stroke="#63b8ff" d="M455.69,-83.98C523.43,-75.69 636.12,-60.52 732,-41 746.5,-38.05 762.39,-34.03 775.79,-30.41"/>
<polygon fill="#63b8ff" stroke="#63b8ff" points="455.41,-80.49 445.9,-85.17 456.25,-87.44 455.41,-80.49"/>
</g>
</g>
</svg>
