<?xml version="1.0" encoding="UTF-8" standalone="no"?>
<!DOCTYPE svg PUBLIC "-//W3C//DTD SVG 1.1//EN"
 "http://www.w3.org/Graphics/SVG/1.1/DTD/svg11.dtd">
<!-- Generated by graphviz version 7.1.0 (20230121.1956)
 -->
<!-- Title: /Users/nikolajbankejensen/Desktop/Kepler/src/interface/conversion.h Pages: 1 -->
<svg width="267pt" height="159pt"
 viewBox="0.00 0.00 267.00 159.00" xmlns="http://www.w3.org/2000/svg" xmlns:xlink="http://www.w3.org/1999/xlink">
<g id="graph0" class="graph" transform="scale(1 1) rotate(0) translate(4 155)">
<title>/Users/nikolajbankejensen/Desktop/Kepler/src/interface/conversion.h</title>
<!-- Node1 -->
<g id="node1" class="node">
<title>Node1</title>
<g id="a_node1"><a xlink:title=" ">
<polygon fill="#999999" stroke="#666666" points="165.5,-151 21.5,-151 21.5,-110 165.5,-110 165.5,-151"/>
<text text-anchor="start" x="29.5" y="-139" font-family="Helvetica,sans-Serif" font-size="10.00">/Users/nikolajbankejensen</text>
<text text-anchor="start" x="29.5" y="-128" font-family="Helvetica,sans-Serif" font-size="10.00">/Desktop/Kepler/src/interface</text>
<text text-anchor="middle" x="93.5" y="-117" font-family="Helvetica,sans-Serif" font-size="10.00">/conversion.h</text>
</a>
</g>
</g>
<!-- Node2 -->
<g id="node2" class="node">
<title>Node2</title>
<g id="a_node2"><a xlink:title=" ">
<polygon fill="#e0e0e0" stroke="#999999" points="41,-19 0,-19 0,0 41,0 41,-19"/>
<text text-anchor="middle" x="20.5" y="-7" font-family="Helvetica,sans-Serif" font-size="10.00">string</text>
</a>
</g>
</g>
<!-- Node1&#45;&gt;Node2 -->
<g id="edge1" class="edge">
<title>Node1&#45;&gt;Node2</title>
<path fill="none" stroke="#63b8ff" d="M69.53,-109.67C59.02,-99.88 47.33,-87.33 39.5,-74 31.55,-60.47 26.68,-43.33 23.86,-30.27"/>
<polygon fill="#63b8ff" stroke="#63b8ff" points="27.35,-29.9 22.04,-20.73 20.48,-31.21 27.35,-29.9"/>
</g>
<!-- Node3 -->
<g id="node3" class="node">
<title>Node3</title>
<g id="a_node3"><a xlink:href="datatypes_8h.html" target="_top" xlink:title=" ">
<polygon fill="white" stroke="#666666" points="138,-74 49,-74 49,-55 138,-55 138,-74"/>
<text text-anchor="middle" x="93.5" y="-62" font-family="Helvetica,sans-Serif" font-size="10.00">core/datatypes.h</text>
</a>
</g>
</g>
<!-- Node1&#45;&gt;Node3 -->
<g id="edge2" class="edge">
<title>Node1&#45;&gt;Node3</title>
<path fill="none" stroke="#63b8ff" d="M93.5,-109.6C93.5,-101.98 93.5,-93.3 93.5,-85.66"/>
<polygon fill="#63b8ff" stroke="#63b8ff" points="97,-85.68 93.5,-75.68 90,-85.68 97,-85.68"/>
</g>
<!-- Node6 -->
<g id="node6" class="node">
<title>Node6</title>
<g id="a_node6"><a xlink:href="token__type_8h.html" target="_top" xlink:title=" ">
<polygon fill="white" stroke="#666666" points="259,-74 164,-74 164,-55 259,-55 259,-74"/>
<text text-anchor="middle" x="211.5" y="-62" font-family="Helvetica,sans-Serif" font-size="10.00">core/token_type.h</text>
</a>
</g>
</g>
<!-- Node1&#45;&gt;Node6 -->
<g id="edge6" class="edge">
<title>Node1&#45;&gt;Node6</title>
<path fill="none" stroke="#63b8ff" d="M130.19,-109.6C148.06,-99.91 169.13,-88.48 185.35,-79.68"/>
<polygon fill="#63b8ff" stroke="#63b8ff" points="186.77,-82.9 193.89,-75.05 183.43,-76.74 186.77,-82.9"/>
</g>
<!-- Node3&#45;&gt;Node2 -->
<g id="edge4" class="edge">
<title>Node3&#45;&gt;Node2</title>
<path fill="none" stroke="#63b8ff" d="M81.12,-54.51C70.35,-46.7 54.53,-35.21 41.75,-25.93"/>
<polygon fill="#63b8ff" stroke="#63b8ff" points="44.07,-23.29 33.93,-20.25 39.96,-28.95 44.07,-23.29"/>
</g>
<!-- Node4 -->
<g id="node4" class="node">
<title>Node4</title>
<g id="a_node4"><a xlink:title=" ">
<polygon fill="#e0e0e0" stroke="#999999" points="103.5,-19 59.5,-19 59.5,0 103.5,0 103.5,-19"/>
<text text-anchor="middle" x="81.5" y="-7" font-family="Helvetica,sans-Serif" font-size="10.00">vector</text>
</a>
</g>
</g>
<!-- Node3&#45;&gt;Node4 -->
<g id="edge3" class="edge">
<title>Node3&#45;&gt;Node4</title>
<path fill="none" stroke="#63b8ff" d="M91.52,-54.75C90.03,-48.19 87.94,-38.95 86.05,-30.6"/>
<polygon fill="#63b8ff" stroke="#63b8ff" points="89.48,-29.9 83.86,-20.92 82.65,-31.44 89.48,-29.9"/>
</g>
<!-- Node5 -->
<g id="node5" class="node">
<title>Node5</title>
<g id="a_node5"><a xlink:title=" ">
<polygon fill="#e0e0e0" stroke="#999999" points="175,-19 122,-19 122,0 175,0 175,-19"/>
<text text-anchor="middle" x="148.5" y="-7" font-family="Helvetica,sans-Serif" font-size="10.00">complex</text>
</a>
</g>
</g>
<!-- Node3&#45;&gt;Node5 -->
<g id="edge5" class="edge">
<title>Node3&#45;&gt;Node5</title>
<path fill="none" stroke="#63b8ff" d="M102.58,-54.75C110.34,-47.27 121.71,-36.32 131.2,-27.17"/>
<polygon fill="#63b8ff" stroke="#63b8ff" points="133.36,-29.95 138.13,-20.49 128.5,-24.91 133.36,-29.95"/>
</g>
<!-- Node7 -->
<g id="node7" class="node">
<title>Node7</title>
<g id="a_node7"><a xlink:title=" ">
<polygon fill="#e0e0e0" stroke="#999999" points="247.5,-19 193.5,-19 193.5,0 247.5,0 247.5,-19"/>
<text text-anchor="middle" x="220.5" y="-7" font-family="Helvetica,sans-Serif" font-size="10.00">iostream</text>
</a>
</g>
</g>
<!-- Node6&#45;&gt;Node7 -->
<g id="edge7" class="edge">
<title>Node6&#45;&gt;Node7</title>
<path fill="none" stroke="#63b8ff" d="M212.99,-54.75C214.1,-48.19 215.67,-38.95 217.09,-30.6"/>
<polygon fill="#63b8ff" stroke="#63b8ff" points="220.5,-31.38 218.73,-20.93 213.6,-30.21 220.5,-31.38"/>
</g>
</g>
</svg>
