<?xml version="1.0" encoding="UTF-8" standalone="no"?>
<!DOCTYPE svg PUBLIC "-//W3C//DTD SVG 1.1//EN"
 "http://www.w3.org/Graphics/SVG/1.1/DTD/svg11.dtd">
<!-- Generated by graphviz version 7.1.0 (20230121.1956)
 -->
<!-- Title: /Users/nikolajbankejensen/Desktop/Kepler/src/core/evaluation/operations/defined_function.cpp Pages: 1 -->
<svg width="1320pt" height="522pt"
 viewBox="0.00 0.00 1319.50 522.00" xmlns="http://www.w3.org/2000/svg" xmlns:xlink="http://www.w3.org/1999/xlink">
<g id="graph0" class="graph" transform="scale(1 1) rotate(0) translate(4 518)">
<title>/Users/nikolajbankejensen/Desktop/Kepler/src/core/evaluation/operations/defined_function.cpp</title>
<!-- Node1 -->
<g id="node1" class="node">
<title>Node1</title>
<g id="a_node1"><a xlink:title=" ">
<polygon fill="#999999" stroke="#666666" points="794.5,-514 648.5,-514 648.5,-462 794.5,-462 794.5,-514"/>
<text text-anchor="start" x="656.5" y="-502" font-family="Helvetica,sans-Serif" font-size="10.00">/Users/nikolajbankejensen</text>
<text text-anchor="start" x="656.5" y="-491" font-family="Helvetica,sans-Serif" font-size="10.00">/Desktop/Kepler/src/core</text>
<text text-anchor="start" x="656.5" y="-480" font-family="Helvetica,sans-Serif" font-size="10.00">/evaluation/operations/defined</text>
<text text-anchor="middle" x="721.5" y="-469" font-family="Helvetica,sans-Serif" font-size="10.00">_function.cpp</text>
</a>
</g>
</g>
<!-- Node2 -->
<g id="node2" class="node">
<title>Node2</title>
<g id="a_node2"><a xlink:href="defined__function_8h.html" target="_top" xlink:title=" ">
<polygon fill="white" stroke="#666666" points="613.5,-365.5 517.5,-365.5 517.5,-346.5 613.5,-346.5 613.5,-365.5"/>
<text text-anchor="middle" x="565.5" y="-353.5" font-family="Helvetica,sans-Serif" font-size="10.00">defined_function.h</text>
</a>
</g>
</g>
<!-- Node1&#45;&gt;Node2 -->
<g id="edge1" class="edge">
<title>Node1&#45;&gt;Node2</title>
<path fill="none" stroke="#63b8ff" d="M691.05,-461.63C659.62,-435.43 611.53,-395.36 584.92,-373.18"/>
<polygon fill="#63b8ff" stroke="#63b8ff" points="587.24,-370.56 577.32,-366.85 582.76,-375.94 587.24,-370.56"/>
</g>
<!-- Node20 -->
<g id="node20" class="node">
<title>Node20</title>
<g id="a_node20"><a xlink:href="literals_8h.html" target="_top" xlink:title=" ">
<polygon fill="white" stroke="#666666" points="1209,-365.5 1134,-365.5 1134,-346.5 1209,-346.5 1209,-365.5"/>
<text text-anchor="middle" x="1171.5" y="-353.5" font-family="Helvetica,sans-Serif" font-size="10.00">core/literals.h</text>
</a>
</g>
</g>
<!-- Node1&#45;&gt;Node20 -->
<g id="edge33" class="edge">
<title>Node1&#45;&gt;Node20</title>
<path fill="none" stroke="#63b8ff" d="M794.8,-465.82C890.11,-438.29 1053.38,-391.12 1129.78,-369.05"/>
<polygon fill="#63b8ff" stroke="#63b8ff" points="1130.32,-372.54 1138.95,-366.4 1128.38,-365.82 1130.32,-372.54"/>
</g>
<!-- Node23 -->
<g id="node23" class="node">
<title>Node23</title>
<g id="a_node23"><a xlink:href="interpreter_8h.html" target="_top" xlink:title=" ">
<polygon fill="white" stroke="#666666" points="502,-426 365,-426 365,-407 502,-407 502,-426"/>
<text text-anchor="middle" x="433.5" y="-414" font-family="Helvetica,sans-Serif" font-size="10.00">core/evaluation/interpreter.h</text>
</a>
</g>
</g>
<!-- Node1&#45;&gt;Node23 -->
<g id="edge38" class="edge">
<title>Node1&#45;&gt;Node23</title>
<path fill="none" stroke="#63b8ff" d="M648.08,-469.28C595.84,-456.68 527.15,-440.1 481.72,-429.14"/>
<polygon fill="#63b8ff" stroke="#63b8ff" points="482.71,-425.77 472.17,-426.83 481.07,-432.58 482.71,-425.77"/>
</g>
<!-- Node33 -->
<g id="node33" class="node">
<title>Node33</title>
<g id="a_node33"><a xlink:href="symbol__table_8h.html" target="_top" xlink:title=" ">
<polygon fill="white" stroke="#666666" points="825.5,-426 721.5,-426 721.5,-407 825.5,-407 825.5,-426"/>
<text text-anchor="middle" x="773.5" y="-414" font-family="Helvetica,sans-Serif" font-size="10.00">core/symbol_table.h</text>
</a>
</g>
</g>
<!-- Node1&#45;&gt;Node33 -->
<g id="edge65" class="edge">
<title>Node1&#45;&gt;Node33</title>
<path fill="none" stroke="#63b8ff" d="M740.57,-461.52C747.09,-452.8 754.24,-443.24 760.21,-435.27"/>
<polygon fill="#63b8ff" stroke="#63b8ff" points="762.9,-437.51 766.09,-427.41 757.29,-433.32 762.9,-437.51"/>
</g>
<!-- Node3 -->
<g id="node3" class="node">
<title>Node3</title>
<g id="a_node3"><a xlink:href="operation_8h.html" target="_top" xlink:title=" ">
<polygon fill="white" stroke="#666666" points="329,-239 264,-239 264,-220 329,-220 329,-239"/>
<text text-anchor="middle" x="296.5" y="-227" font-family="Helvetica,sans-Serif" font-size="10.00">operation.h</text>
</a>
</g>
</g>
<!-- Node2&#45;&gt;Node3 -->
<g id="edge2" class="edge">
<title>Node2&#45;&gt;Node3</title>
<path fill="none" stroke="#63b8ff" d="M531.08,-346.01C483.96,-333.57 403.78,-311.85 391.5,-305 374.19,-295.34 373.91,-287.47 358.5,-275 345.78,-264.71 330.92,-254 318.93,-245.66"/>
<polygon fill="#63b8ff" stroke="#63b8ff" points="321.12,-242.92 310.89,-240.14 317.15,-248.69 321.12,-242.92"/>
</g>
<!-- Node19 -->
<g id="node19" class="node">
<title>Node19</title>
<g id="a_node19"><a xlink:href="ast_8h.html" target="_top" xlink:title=" ">
<polygon fill="white" stroke="#666666" points="508,-299.5 401,-299.5 401,-280.5 508,-280.5 508,-299.5"/>
<text text-anchor="middle" x="454.5" y="-287.5" font-family="Helvetica,sans-Serif" font-size="10.00">core/evaluation/ast.h</text>
</a>
</g>
</g>
<!-- Node2&#45;&gt;Node19 -->
<g id="edge24" class="edge">
<title>Node2&#45;&gt;Node19</title>
<path fill="none" stroke="#63b8ff" d="M550.07,-346.1C531.84,-335.59 501.27,-317.97 479.62,-305.49"/>
<polygon fill="#63b8ff" stroke="#63b8ff" points="481.53,-302.54 471.11,-300.58 478.03,-308.61 481.53,-302.54"/>
</g>
<!-- Node4 -->
<g id="node4" class="node">
<title>Node4</title>
<g id="a_node4"><a xlink:href="datatypes_8h.html" target="_top" xlink:title=" ">
<polygon fill="white" stroke="#666666" points="397,-74 308,-74 308,-55 397,-55 397,-74"/>
<text text-anchor="middle" x="352.5" y="-62" font-family="Helvetica,sans-Serif" font-size="10.00">core/datatypes.h</text>
</a>
</g>
</g>
<!-- Node3&#45;&gt;Node4 -->
<g id="edge3" class="edge">
<title>Node3&#45;&gt;Node4</title>
<path fill="none" stroke="#63b8ff" d="M282.51,-219.74C252.58,-199.91 187.36,-150.19 216.5,-110 226.36,-96.4 263.74,-84.75 296.83,-76.79"/>
<polygon fill="#63b8ff" stroke="#63b8ff" points="297.41,-80.25 306.36,-74.57 295.83,-73.43 297.41,-80.25"/>
</g>
<!-- Node8 -->
<g id="node8" class="node">
<title>Node8</title>
<g id="a_node8"><a xlink:href="array_8h.html" target="_top" xlink:title=" ">
<polygon fill="white" stroke="#666666" points="293,-129 226,-129 226,-110 293,-110 293,-129"/>
<text text-anchor="middle" x="259.5" y="-117" font-family="Helvetica,sans-Serif" font-size="10.00">core/array.h</text>
</a>
</g>
</g>
<!-- Node3&#45;&gt;Node8 -->
<g id="edge7" class="edge">
<title>Node3&#45;&gt;Node8</title>
<path fill="none" stroke="#63b8ff" d="M293.47,-219.66C287.56,-202.42 274.37,-163.9 266.27,-140.27"/>
<polygon fill="#63b8ff" stroke="#63b8ff" points="269.61,-139.22 263.06,-130.89 262.99,-141.49 269.61,-139.22"/>
</g>
<!-- Node10 -->
<g id="node10" class="node">
<title>Node10</title>
<g id="a_node10"><a xlink:href="token_8h.html" target="_top" xlink:title=" ">
<polygon fill="white" stroke="#666666" points="619,-184 548,-184 548,-165 619,-165 619,-184"/>
<text text-anchor="middle" x="583.5" y="-172" font-family="Helvetica,sans-Serif" font-size="10.00">core/token.h</text>
</a>
</g>
</g>
<!-- Node3&#45;&gt;Node10 -->
<g id="edge10" class="edge">
<title>Node3&#45;&gt;Node10</title>
<path fill="none" stroke="#63b8ff" d="M329.42,-222.42C380.36,-213.01 478.45,-194.9 536.73,-184.14"/>
<polygon fill="#63b8ff" stroke="#63b8ff" points="537.14,-187.62 546.34,-182.36 535.87,-180.74 537.14,-187.62"/>
</g>
<!-- Node18 -->
<g id="node18" class="node">
<title>Node18</title>
<g id="a_node18"><a xlink:title=" ">
<polygon fill="#e0e0e0" stroke="#999999" points="362.5,-184 310.5,-184 310.5,-165 362.5,-165 362.5,-184"/>
<text text-anchor="middle" x="336.5" y="-172" font-family="Helvetica,sans-Serif" font-size="10.00">memory</text>
</a>
</g>
</g>
<!-- Node3&#45;&gt;Node18 -->
<g id="edge23" class="edge">
<title>Node3&#45;&gt;Node18</title>
<path fill="none" stroke="#63b8ff" d="M303.11,-219.75C308.46,-212.66 316.18,-202.42 322.85,-193.59"/>
<polygon fill="#63b8ff" stroke="#63b8ff" points="325.61,-195.74 328.84,-185.65 320.02,-191.52 325.61,-195.74"/>
</g>
<!-- Node5 -->
<g id="node5" class="node">
<title>Node5</title>
<g id="a_node5"><a xlink:title=" ">
<polygon fill="#e0e0e0" stroke="#999999" points="340.5,-19 296.5,-19 296.5,0 340.5,0 340.5,-19"/>
<text text-anchor="middle" x="318.5" y="-7" font-family="Helvetica,sans-Serif" font-size="10.00">vector</text>
</a>
</g>
</g>
<!-- Node4&#45;&gt;Node5 -->
<g id="edge4" class="edge">
<title>Node4&#45;&gt;Node5</title>
<path fill="none" stroke="#63b8ff" d="M346.89,-54.75C342.38,-47.73 335.91,-37.64 330.29,-28.87"/>
<polygon fill="#63b8ff" stroke="#63b8ff" points="333.4,-27.24 325.05,-20.72 327.51,-31.02 333.4,-27.24"/>
</g>
<!-- Node6 -->
<g id="node6" class="node">
<title>Node6</title>
<g id="a_node6"><a xlink:title=" ">
<polygon fill="#e0e0e0" stroke="#999999" points="1092,-19 1051,-19 1051,0 1092,0 1092,-19"/>
<text text-anchor="middle" x="1071.5" y="-7" font-family="Helvetica,sans-Serif" font-size="10.00">string</text>
</a>
</g>
</g>
<!-- Node4&#45;&gt;Node6 -->
<g id="edge5" class="edge">
<title>Node4&#45;&gt;Node6</title>
<path fill="none" stroke="#63b8ff" d="M397.48,-60.18C531.24,-50.32 924.42,-21.34 1039.51,-12.86"/>
<polygon fill="#63b8ff" stroke="#63b8ff" points="1039.43,-16.37 1049.15,-12.15 1038.92,-9.39 1039.43,-16.37"/>
</g>
<!-- Node7 -->
<g id="node7" class="node">
<title>Node7</title>
<g id="a_node7"><a xlink:title=" ">
<polygon fill="#e0e0e0" stroke="#999999" points="412,-19 359,-19 359,0 412,0 412,-19"/>
<text text-anchor="middle" x="385.5" y="-7" font-family="Helvetica,sans-Serif" font-size="10.00">complex</text>
</a>
</g>
</g>
<!-- Node4&#45;&gt;Node7 -->
<g id="edge6" class="edge">
<title>Node4&#45;&gt;Node7</title>
<path fill="none" stroke="#63b8ff" d="M357.95,-54.75C362.27,-47.81 368.46,-37.86 373.88,-29.16"/>
<polygon fill="#63b8ff" stroke="#63b8ff" points="376.82,-31.07 379.13,-20.73 370.88,-27.37 376.82,-31.07"/>
</g>
<!-- Node8&#45;&gt;Node4 -->
<g id="edge8" class="edge">
<title>Node8&#45;&gt;Node4</title>
<path fill="none" stroke="#63b8ff" d="M275.28,-109.51C289.52,-101.39 310.74,-89.3 327.33,-79.85"/>
<polygon fill="#63b8ff" stroke="#63b8ff" points="328.69,-83.1 335.64,-75.11 325.22,-77.02 328.69,-83.1"/>
</g>
<!-- Node9 -->
<g id="node9" class="node">
<title>Node9</title>
<g id="a_node9"><a xlink:title=" ">
<polygon fill="#e0e0e0" stroke="#999999" points="282.5,-74 236.5,-74 236.5,-55 282.5,-55 282.5,-74"/>
<text text-anchor="middle" x="259.5" y="-62" font-family="Helvetica,sans-Serif" font-size="10.00">variant</text>
</a>
</g>
</g>
<!-- Node8&#45;&gt;Node9 -->
<g id="edge9" class="edge">
<title>Node8&#45;&gt;Node9</title>
<path fill="none" stroke="#63b8ff" d="M259.5,-109.75C259.5,-103.27 259.5,-94.16 259.5,-85.9"/>
<polygon fill="#63b8ff" stroke="#63b8ff" points="263,-85.96 259.5,-75.96 256,-85.96 263,-85.96"/>
</g>
<!-- Node10&#45;&gt;Node4 -->
<g id="edge13" class="edge">
<title>Node10&#45;&gt;Node4</title>
<path fill="none" stroke="#63b8ff" d="M547.81,-166.65C490.83,-155.58 385,-134.46 378.5,-129 365.51,-118.1 358.93,-99.7 355.64,-85.5"/>
<polygon fill="#63b8ff" stroke="#63b8ff" points="359.12,-85.06 353.81,-75.89 352.25,-86.37 359.12,-85.06"/>
</g>
<!-- Node10&#45;&gt;Node8 -->
<g id="edge15" class="edge">
<title>Node10&#45;&gt;Node8</title>
<path fill="none" stroke="#63b8ff" d="M547.73,-167.39C542.94,-166.58 538.1,-165.77 533.5,-165 452.89,-151.6 358.86,-136.43 304.55,-127.71"/>
<polygon fill="#63b8ff" stroke="#63b8ff" points="305.18,-124.27 294.75,-126.14 304.07,-131.18 305.18,-124.27"/>
</g>
<!-- Node11 -->
<g id="node11" class="node">
<title>Node11</title>
<g id="a_node11"><a xlink:href="token__type_8h.html" target="_top" xlink:title=" ">
<polygon fill="white" stroke="#666666" points="911,-74 838,-74 838,-55 911,-55 911,-74"/>
<text text-anchor="middle" x="874.5" y="-62" font-family="Helvetica,sans-Serif" font-size="10.00">token_type.h</text>
</a>
</g>
</g>
<!-- Node10&#45;&gt;Node11 -->
<g id="edge11" class="edge">
<title>Node10&#45;&gt;Node11</title>
<path fill="none" stroke="#63b8ff" d="M572.38,-164.52C557.52,-151.46 534.7,-126.96 549.5,-110 584.83,-69.51 744.69,-64.53 826.27,-64.71"/>
<polygon fill="#63b8ff" stroke="#63b8ff" points="826.19,-68.21 836.21,-64.77 826.22,-61.21 826.19,-68.21"/>
</g>
<!-- Node13 -->
<g id="node13" class="node">
<title>Node13</title>
<g id="a_node13"><a xlink:title=" ">
<polygon fill="#e0e0e0" stroke="#999999" points="883,-129 800,-129 800,-110 883,-110 883,-129"/>
<text text-anchor="middle" x="841.5" y="-117" font-family="Helvetica,sans-Serif" font-size="10.00">uni_algo/conv.h</text>
</a>
</g>
</g>
<!-- Node10&#45;&gt;Node13 -->
<g id="edge14" class="edge">
<title>Node10&#45;&gt;Node13</title>
<path fill="none" stroke="#63b8ff" d="M619.37,-166.13C663.27,-157.11 737.97,-141.77 788.49,-131.39"/>
<polygon fill="#63b8ff" stroke="#63b8ff" points="788.94,-134.87 798.04,-129.43 787.54,-128.01 788.94,-134.87"/>
</g>
<!-- Node14 -->
<g id="node14" class="node">
<title>Node14</title>
<g id="a_node14"><a xlink:href="conversion_8h.html" target="_top" xlink:title=" ">
<polygon fill="white" stroke="#666666" points="501,-129 388,-129 388,-110 501,-110 501,-129"/>
<text text-anchor="middle" x="444.5" y="-117" font-family="Helvetica,sans-Serif" font-size="10.00">interface/conversion.h</text>
</a>
</g>
</g>
<!-- Node10&#45;&gt;Node14 -->
<g id="edge16" class="edge">
<title>Node10&#45;&gt;Node14</title>
<path fill="none" stroke="#63b8ff" d="M559.92,-164.51C537.52,-155.97 503.6,-143.03 478.32,-133.4"/>
<polygon fill="#63b8ff" stroke="#63b8ff" points="479.74,-130.19 469.15,-129.9 477.24,-136.73 479.74,-130.19"/>
</g>
<!-- Node15 -->
<g id="node15" class="node">
<title>Node15</title>
<g id="a_node15"><a xlink:title=" ">
<polygon fill="#e0e0e0" stroke="#999999" points="743.5,-129 703.5,-129 703.5,-110 743.5,-110 743.5,-129"/>
<text text-anchor="middle" x="723.5" y="-117" font-family="Helvetica,sans-Serif" font-size="10.00">utility</text>
</a>
</g>
</g>
<!-- Node10&#45;&gt;Node15 -->
<g id="edge20" class="edge">
<title>Node10&#45;&gt;Node15</title>
<path fill="none" stroke="#63b8ff" d="M607.25,-164.51C630.76,-155.61 666.88,-141.94 692.61,-132.19"/>
<polygon fill="#63b8ff" stroke="#63b8ff" points="693.75,-135.51 701.86,-128.69 691.27,-128.96 693.75,-135.51"/>
</g>
<!-- Node16 -->
<g id="node16" class="node">
<title>Node16</title>
<g id="a_node16"><a xlink:title=" ">
<polygon fill="#e0e0e0" stroke="#999999" points="685.5,-129 635.5,-129 635.5,-110 685.5,-110 685.5,-129"/>
<text text-anchor="middle" x="660.5" y="-117" font-family="Helvetica,sans-Serif" font-size="10.00">optional</text>
</a>
</g>
</g>
<!-- Node10&#45;&gt;Node16 -->
<g id="edge21" class="edge">
<title>Node10&#45;&gt;Node16</title>
<path fill="none" stroke="#63b8ff" d="M596.56,-164.51C608.02,-156.62 624.93,-144.98 638.48,-135.65"/>
<polygon fill="#63b8ff" stroke="#63b8ff" points="640.13,-138.77 646.38,-130.22 636.16,-133 640.13,-138.77"/>
</g>
<!-- Node17 -->
<g id="node17" class="node">
<title>Node17</title>
<g id="a_node17"><a xlink:href="position_8h.html" target="_top" xlink:title=" ">
<polygon fill="white" stroke="#666666" points="617,-129 558,-129 558,-110 617,-110 617,-129"/>
<text text-anchor="middle" x="587.5" y="-117" font-family="Helvetica,sans-Serif" font-size="10.00">position.h</text>
</a>
</g>
</g>
<!-- Node10&#45;&gt;Node17 -->
<g id="edge22" class="edge">
<title>Node10&#45;&gt;Node17</title>
<path fill="none" stroke="#63b8ff" d="M584.16,-164.75C584.65,-158.27 585.34,-149.16 585.96,-140.9"/>
<polygon fill="#63b8ff" stroke="#63b8ff" points="589.45,-141.19 586.71,-130.95 582.47,-140.66 589.45,-141.19"/>
</g>
<!-- Node12 -->
<g id="node12" class="node">
<title>Node12</title>
<g id="a_node12"><a xlink:title=" ">
<polygon fill="#e0e0e0" stroke="#999999" points="901.5,-19 847.5,-19 847.5,0 901.5,0 901.5,-19"/>
<text text-anchor="middle" x="874.5" y="-7" font-family="Helvetica,sans-Serif" font-size="10.00">iostream</text>
</a>
</g>
</g>
<!-- Node11&#45;&gt;Node12 -->
<g id="edge12" class="edge">
<title>Node11&#45;&gt;Node12</title>
<path fill="none" stroke="#63b8ff" d="M874.5,-54.75C874.5,-48.27 874.5,-39.16 874.5,-30.9"/>
<polygon fill="#63b8ff" stroke="#63b8ff" points="878,-30.96 874.5,-20.96 871,-30.96 878,-30.96"/>
</g>
<!-- Node14&#45;&gt;Node4 -->
<g id="edge18" class="edge">
<title>Node14&#45;&gt;Node4</title>
<path fill="none" stroke="#63b8ff" d="M428.89,-109.51C414.8,-101.39 393.81,-89.3 377.4,-79.85"/>
<polygon fill="#63b8ff" stroke="#63b8ff" points="379.6,-77.07 369.19,-75.11 376.11,-83.14 379.6,-77.07"/>
</g>
<!-- Node14&#45;&gt;Node6 -->
<g id="edge17" class="edge">
<title>Node14&#45;&gt;Node6</title>
<path fill="none" stroke="#63b8ff" d="M496.61,-109.52C621.99,-87.93 937.62,-33.56 1039.36,-16.04"/>
<polygon fill="#63b8ff" stroke="#63b8ff" points="1039.92,-19.49 1049.18,-14.34 1038.74,-12.59 1039.92,-19.49"/>
</g>
<!-- Node14&#45;&gt;Node11 -->
<g id="edge19" class="edge">
<title>Node14&#45;&gt;Node11</title>
<path fill="none" stroke="#63b8ff" d="M501.16,-111.52C586.47,-101 746.43,-81.29 826.41,-71.43"/>
<polygon fill="#63b8ff" stroke="#63b8ff" points="826.61,-74.93 836.11,-70.23 825.75,-67.98 826.61,-74.93"/>
</g>
<!-- Node19&#45;&gt;Node3 -->
<g id="edge31" class="edge">
<title>Node19&#45;&gt;Node3</title>
<path fill="none" stroke="#63b8ff" d="M430.5,-280.12C404.05,-270.32 361.28,-254.48 331.18,-243.34"/>
<polygon fill="#63b8ff" stroke="#63b8ff" points="332.74,-240.18 322.14,-239.99 330.3,-246.75 332.74,-240.18"/>
</g>
<!-- Node19&#45;&gt;Node4 -->
<g id="edge29" class="edge">
<title>Node19&#45;&gt;Node4</title>
<path fill="none" stroke="#63b8ff" d="M453.87,-280.09C452.63,-266.52 449.09,-240.14 439.5,-220 426.04,-191.74 416.04,-188.62 395.5,-165 381.06,-148.39 371.05,-148.83 361.5,-129 354.98,-115.46 352.83,-98.54 352.26,-85.57"/>
<polygon fill="#63b8ff" stroke="#63b8ff" points="355.76,-85.66 352.13,-75.71 348.76,-85.75 355.76,-85.66"/>
</g>
<!-- Node19&#45;&gt;Node6 -->
<g id="edge25" class="edge">
<title>Node19&#45;&gt;Node6</title>
<path fill="none" stroke="#63b8ff" d="M508.14,-288.55C613.39,-285.7 852.16,-269.48 1029.5,-184 1085.16,-157.17 1102.82,-134.67 1114.5,-74 1116.1,-65.71 1117.66,-62.83 1114.5,-55 1110.07,-44.03 1101.49,-34.26 1093.15,-26.69"/>
<polygon fill="#63b8ff" stroke="#63b8ff" points="1095.49,-24.08 1085.57,-20.36 1091,-29.45 1095.49,-24.08"/>
</g>
<!-- Node19&#45;&gt;Node8 -->
<g id="edge27" class="edge">
<title>Node19&#45;&gt;Node8</title>
<path fill="none" stroke="#63b8ff" d="M450.85,-280.17C441.18,-257.81 412.81,-198.37 371.5,-165 351.94,-149.2 326.06,-138.42 304.1,-131.44"/>
<polygon fill="#63b8ff" stroke="#63b8ff" points="305.39,-128.17 294.81,-128.65 303.38,-134.88 305.39,-128.17"/>
</g>
<!-- Node19&#45;&gt;Node10 -->
<g id="edge28" class="edge">
<title>Node19&#45;&gt;Node10</title>
<path fill="none" stroke="#63b8ff" d="M464.62,-280.09C486.29,-261.03 537.42,-216.04 565.04,-191.74"/>
<polygon fill="#63b8ff" stroke="#63b8ff" points="567.09,-194.6 572.29,-185.36 562.47,-189.34 567.09,-194.6"/>
</g>
<!-- Node19&#45;&gt;Node12 -->
<g id="edge26" class="edge">
<title>Node19&#45;&gt;Node12</title>
<path fill="none" stroke="#63b8ff" d="M508.27,-281.1C598.72,-266.28 771.5,-230.74 771.5,-175.5 771.5,-175.5 771.5,-175.5 771.5,-118.5 771.5,-75.2 815.39,-42.41 845.87,-24.86"/>
<polygon fill="#63b8ff" stroke="#63b8ff" points="847.21,-28.12 854.28,-20.23 843.83,-21.98 847.21,-28.12"/>
</g>
<!-- Node19&#45;&gt;Node17 -->
<g id="edge32" class="edge">
<title>Node19&#45;&gt;Node17</title>
<path fill="none" stroke="#63b8ff" d="M487.34,-280.04C528.79,-266.76 598.34,-237.47 628.5,-184 637.9,-167.34 623.3,-149.07 608.99,-136.42"/>
<polygon fill="#63b8ff" stroke="#63b8ff" points="611.46,-133.92 601.5,-130.29 607.03,-139.33 611.46,-133.92"/>
</g>
<!-- Node19&#45;&gt;Node18 -->
<g id="edge30" class="edge">
<title>Node19&#45;&gt;Node18</title>
<path fill="none" stroke="#63b8ff" d="M438.2,-280.11C422.55,-271.08 398.8,-256.02 381.5,-239 367.82,-225.54 355.47,-207.47 347.18,-194.05"/>
<polygon fill="#63b8ff" stroke="#63b8ff" points="350.37,-192.55 342.24,-185.76 344.35,-196.14 350.37,-192.55"/>
</g>
<!-- Node20&#45;&gt;Node4 -->
<g id="edge34" class="edge">
<title>Node20&#45;&gt;Node4</title>
<path fill="none" stroke="#63b8ff" d="M1171.5,-346.25C1171.5,-325.92 1171.5,-273.95 1171.5,-230.5 1171.5,-230.5 1171.5,-230.5 1171.5,-173.5 1171.5,-122.71 1124.62,-126.23 1076.5,-110 953.06,-68.37 556.25,-64.96 408.57,-65.19"/>
<polygon fill="#63b8ff" stroke="#63b8ff" points="408.63,-61.69 398.64,-65.21 408.65,-68.69 408.63,-61.69"/>
</g>
<!-- Node20&#45;&gt;Node11 -->
<g id="edge35" class="edge">
<title>Node20&#45;&gt;Node11</title>
<path fill="none" stroke="#63b8ff" d="M1176.16,-346.22C1186.31,-326.26 1209.5,-275.7 1209.5,-230.5 1209.5,-230.5 1209.5,-230.5 1209.5,-173.5 1209.5,-143.33 1209.04,-128.87 1185.5,-110 1165.35,-93.85 1004.8,-77.24 922.62,-69.69"/>
<polygon fill="#63b8ff" stroke="#63b8ff" points="923.11,-66.22 912.83,-68.8 922.47,-73.19 923.11,-66.22"/>
</g>
<!-- Node21 -->
<g id="node21" class="node">
<title>Node21</title>
<g id="a_node21"><a xlink:title=" ">
<polygon fill="#e0e0e0" stroke="#999999" points="1061,-299.5 1026,-299.5 1026,-280.5 1061,-280.5 1061,-299.5"/>
<text text-anchor="middle" x="1043.5" y="-287.5" font-family="Helvetica,sans-Serif" font-size="10.00">map</text>
</a>
</g>
</g>
<!-- Node20&#45;&gt;Node21 -->
<g id="edge36" class="edge">
<title>Node20&#45;&gt;Node21</title>
<path fill="none" stroke="#63b8ff" d="M1153.7,-346.1C1132.3,-335.4 1096.15,-317.33 1071.12,-304.81"/>
<polygon fill="#63b8ff" stroke="#63b8ff" points="1073.01,-301.84 1062.5,-300.5 1069.88,-308.1 1073.01,-301.84"/>
</g>
<!-- Node22 -->
<g id="node22" class="node">
<title>Node22</title>
<g id="a_node22"><a xlink:title=" ">
<polygon fill="#e0e0e0" stroke="#999999" points="1283.5,-299.5 1237.5,-299.5 1237.5,-280.5 1283.5,-280.5 1283.5,-299.5"/>
<text text-anchor="middle" x="1260.5" y="-287.5" font-family="Helvetica,sans-Serif" font-size="10.00">ranges</text>
</a>
</g>
</g>
<!-- Node20&#45;&gt;Node22 -->
<g id="edge37" class="edge">
<title>Node20&#45;&gt;Node22</title>
<path fill="none" stroke="#63b8ff" d="M1183.88,-346.1C1198.09,-335.88 1221.67,-318.93 1238.92,-306.52"/>
<polygon fill="#63b8ff" stroke="#63b8ff" points="1240.93,-309.39 1247,-300.71 1236.84,-303.7 1240.93,-309.39"/>
</g>
<!-- Node23&#45;&gt;Node11 -->
<g id="edge43" class="edge">
<title>Node23&#45;&gt;Node11</title>
<path fill="none" stroke="#63b8ff" d="M502.42,-407.71C539.57,-401.47 585.29,-390.42 622.5,-371 765.36,-296.44 826.79,-276.14 892.5,-129 899,-114.45 893.12,-96.97 886.4,-84.04"/>
<polygon fill="#63b8ff" stroke="#63b8ff" points="889.62,-82.61 881.57,-75.71 883.57,-86.12 889.62,-82.61"/>
</g>
<!-- Node24 -->
<g id="node24" class="node">
<title>Node24</title>
<g id="a_node24"><a xlink:href="node__visitor_8h.html" target="_top" xlink:title=" ">
<polygon fill="white" stroke="#666666" points="350,-371 243,-371 243,-341 350,-341 350,-371"/>
<text text-anchor="start" x="251" y="-359" font-family="Helvetica,sans-Serif" font-size="10.00">core/evaluation/node</text>
<text text-anchor="middle" x="296.5" y="-348" font-family="Helvetica,sans-Serif" font-size="10.00">_visitor.h</text>
</a>
</g>
</g>
<!-- Node23&#45;&gt;Node24 -->
<g id="edge39" class="edge">
<title>Node23&#45;&gt;Node24</title>
<path fill="none" stroke="#63b8ff" d="M412.69,-406.62C393.65,-398.48 364.85,-386.19 340.69,-375.87"/>
<polygon fill="#63b8ff" stroke="#63b8ff" points="342.28,-372.74 331.71,-372.03 339.53,-379.18 342.28,-372.74"/>
</g>
<!-- Node25 -->
<g id="node25" class="node">
<title>Node25</title>
<g id="a_node25"><a xlink:href="functions_8h.html" target="_top" xlink:title=" ">
<polygon fill="white" stroke="#666666" points="131,-305 0,-305 0,-275 131,-275 131,-305"/>
<text text-anchor="start" x="8" y="-293" font-family="Helvetica,sans-Serif" font-size="10.00">core/evaluation/operations</text>
<text text-anchor="middle" x="65.5" y="-282" font-family="Helvetica,sans-Serif" font-size="10.00">/functions.h</text>
</a>
</g>
</g>
<!-- Node23&#45;&gt;Node25 -->
<g id="edge44" class="edge">
<title>Node23&#45;&gt;Node25</title>
<path fill="none" stroke="#63b8ff" d="M364.65,-415.71C274.87,-414.51 124.53,-406.98 84.5,-371 69.49,-357.51 65.26,-334.52 64.49,-316.64"/>
<polygon fill="#63b8ff" stroke="#63b8ff" points="67.99,-316.74 64.42,-306.77 60.99,-316.79 67.99,-316.74"/>
</g>
<!-- Node28 -->
<g id="node28" class="node">
<title>Node28</title>
<g id="a_node28"><a xlink:href="monadic__operators_8h.html" target="_top" xlink:title=" ">
<polygon fill="white" stroke="#666666" points="225,-371 94,-371 94,-341 225,-341 225,-371"/>
<text text-anchor="start" x="102" y="-359" font-family="Helvetica,sans-Serif" font-size="10.00">core/evaluation/operations</text>
<text text-anchor="middle" x="159.5" y="-348" font-family="Helvetica,sans-Serif" font-size="10.00">/monadic_operators.h</text>
</a>
</g>
</g>
<!-- Node23&#45;&gt;Node28 -->
<g id="edge50" class="edge">
<title>Node23&#45;&gt;Node28</title>
<path fill="none" stroke="#63b8ff" d="M391.59,-406.55C350.47,-397.77 286.81,-384.18 236.56,-373.45"/>
<polygon fill="#63b8ff" stroke="#63b8ff" points="237.39,-370.05 226.88,-371.39 235.93,-376.9 237.39,-370.05"/>
</g>
<!-- Node29 -->
<g id="node29" class="node">
<title>Node29</title>
<g id="a_node29"><a xlink:href="dyadic__operators_8h.html" target="_top" xlink:title=" ">
<polygon fill="white" stroke="#666666" points="499,-371 368,-371 368,-341 499,-341 499,-371"/>
<text text-anchor="start" x="376" y="-359" font-family="Helvetica,sans-Serif" font-size="10.00">core/evaluation/operations</text>
<text text-anchor="middle" x="433.5" y="-348" font-family="Helvetica,sans-Serif" font-size="10.00">/dyadic_operators.h</text>
</a>
</g>
</g>
<!-- Node23&#45;&gt;Node29 -->
<g id="edge54" class="edge">
<title>Node23&#45;&gt;Node29</title>
<path fill="none" stroke="#63b8ff" d="M433.5,-406.87C433.5,-400.4 433.5,-391.2 433.5,-382.45"/>
<polygon fill="#63b8ff" stroke="#63b8ff" points="437,-382.63 433.5,-372.63 430,-382.63 437,-382.63"/>
</g>
<!-- Node30 -->
<g id="node30" class="node">
<title>Node30</title>
<g id="a_node30"><a xlink:href="error_8h.html" target="_top" xlink:title=" ">
<polygon fill="white" stroke="#666666" points="1020,-184 955,-184 955,-165 1020,-165 1020,-184"/>
<text text-anchor="middle" x="987.5" y="-172" font-family="Helvetica,sans-Serif" font-size="10.00">core/error.h</text>
</a>
</g>
</g>
<!-- Node23&#45;&gt;Node30 -->
<g id="edge57" class="edge">
<title>Node23&#45;&gt;Node30</title>
<path fill="none" stroke="#63b8ff" d="M502.26,-413.13C596.01,-408.93 758.3,-397.93 810.5,-371 891.58,-329.17 953.68,-234.01 977.22,-193.89"/>
<polygon fill="#63b8ff" stroke="#63b8ff" points="980.13,-195.85 982.07,-185.43 974.06,-192.37 980.13,-195.85"/>
</g>
<!-- Node24&#45;&gt;Node3 -->
<g id="edge41" class="edge">
<title>Node24&#45;&gt;Node3</title>
<path fill="none" stroke="#63b8ff" d="M296.5,-340.72C296.5,-318.64 296.5,-276.12 296.5,-250.83"/>
<polygon fill="#63b8ff" stroke="#63b8ff" points="300,-250.9 296.5,-240.9 293,-250.9 300,-250.9"/>
</g>
<!-- Node24&#45;&gt;Node8 -->
<g id="edge40" class="edge">
<title>Node24&#45;&gt;Node8</title>
<path fill="none" stroke="#63b8ff" d="M289.52,-340.8C279.42,-319.36 261.2,-277.18 254.5,-239 248.49,-204.78 252.58,-164.18 256.06,-140.49"/>
<polygon fill="#63b8ff" stroke="#63b8ff" points="259.5,-141.13 257.63,-130.7 252.59,-140.02 259.5,-141.13"/>
</g>
<!-- Node24&#45;&gt;Node19 -->
<g id="edge42" class="edge">
<title>Node24&#45;&gt;Node19</title>
<path fill="none" stroke="#63b8ff" d="M331.96,-340.64C358.87,-329.74 395.58,-314.87 421.79,-304.25"/>
<polygon fill="#63b8ff" stroke="#63b8ff" points="422.96,-307.55 430.91,-300.55 420.33,-301.06 422.96,-307.55"/>
</g>
<!-- Node25&#45;&gt;Node3 -->
<g id="edge49" class="edge">
<title>Node25&#45;&gt;Node3</title>
<path fill="none" stroke="#63b8ff" d="M122.6,-274.54C162.8,-264.36 215.81,-250.94 252.68,-241.6"/>
<polygon fill="#63b8ff" stroke="#63b8ff" points="253.28,-245.06 262.11,-239.21 251.56,-238.27 253.28,-245.06"/>
</g>
<!-- Node26 -->
<g id="node26" class="node">
<title>Node26</title>
<g id="a_node26"><a xlink:href="pervade_8h.html" target="_top" xlink:title=" ">
<polygon fill="white" stroke="#666666" points="122,-184 63,-184 63,-165 122,-165 122,-184"/>
<text text-anchor="middle" x="92.5" y="-172" font-family="Helvetica,sans-Serif" font-size="10.00">pervade.h</text>
</a>
</g>
</g>
<!-- Node25&#45;&gt;Node26 -->
<g id="edge45" class="edge">
<title>Node25&#45;&gt;Node26</title>
<path fill="none" stroke="#63b8ff" d="M68.92,-274.63C73.71,-254.49 82.43,-217.83 87.82,-195.18"/>
<polygon fill="#63b8ff" stroke="#63b8ff" points="91.16,-196.24 90.07,-185.7 84.35,-194.62 91.16,-196.24"/>
</g>
<!-- Node26&#45;&gt;Node4 -->
<g id="edge47" class="edge">
<title>Node26&#45;&gt;Node4</title>
<path fill="none" stroke="#63b8ff" d="M97.09,-164.95C105.02,-151.07 122.64,-123.81 145.5,-110 170.49,-94.9 244.16,-81.41 296.48,-73.34"/>
<polygon fill="#63b8ff" stroke="#63b8ff" points="296.77,-76.84 306.13,-71.88 295.72,-69.92 296.77,-76.84"/>
</g>
<!-- Node26&#45;&gt;Node8 -->
<g id="edge46" class="edge">
<title>Node26&#45;&gt;Node8</title>
<path fill="none" stroke="#63b8ff" d="M120.83,-164.51C148.26,-155.8 190.08,-142.53 220.62,-132.84"/>
<polygon fill="#63b8ff" stroke="#63b8ff" points="221.4,-136.27 229.87,-129.9 219.28,-129.59 221.4,-136.27"/>
</g>
<!-- Node27 -->
<g id="node27" class="node">
<title>Node27</title>
<g id="a_node27"><a xlink:title=" ">
<polygon fill="#e0e0e0" stroke="#999999" points="93.5,-129 25.5,-129 25.5,-110 93.5,-110 93.5,-129"/>
<text text-anchor="middle" x="59.5" y="-117" font-family="Helvetica,sans-Serif" font-size="10.00">pervade.tpp</text>
</a>
</g>
</g>
<!-- Node26&#45;&gt;Node27 -->
<g id="edge48" class="edge">
<title>Node26&#45;&gt;Node27</title>
<path fill="none" stroke="#63b8ff" d="M87.05,-164.75C82.73,-157.81 76.54,-147.86 71.12,-139.16"/>
<polygon fill="#63b8ff" stroke="#63b8ff" points="74.12,-137.37 65.87,-130.73 68.18,-141.07 74.12,-137.37"/>
</g>
<!-- Node28&#45;&gt;Node3 -->
<g id="edge51" class="edge">
<title>Node28&#45;&gt;Node3</title>
<path fill="none" stroke="#63b8ff" d="M175.22,-340.72C200.85,-317.42 251.52,-271.38 278.54,-246.82"/>
<polygon fill="#63b8ff" stroke="#63b8ff" points="280.56,-249.72 285.61,-240.4 275.85,-244.54 280.56,-249.72"/>
</g>
<!-- Node28&#45;&gt;Node4 -->
<g id="edge52" class="edge">
<title>Node28&#45;&gt;Node4</title>
<path fill="none" stroke="#63b8ff" d="M159.5,-340.81C159.5,-317.7 159.5,-270.49 159.5,-230.5 159.5,-230.5 159.5,-230.5 159.5,-173.5 159.5,-138.65 177.11,-130.22 205.5,-110 232.25,-90.95 267.28,-79.93 296.43,-73.62"/>
<polygon fill="#63b8ff" stroke="#63b8ff" points="297.11,-77.06 306.22,-71.65 295.72,-70.2 297.11,-77.06"/>
</g>
<!-- Node28&#45;&gt;Node19 -->
<g id="edge53" class="edge">
<title>Node28&#45;&gt;Node19</title>
<path fill="none" stroke="#63b8ff" d="M225.34,-340.72C278.74,-329.13 353.01,-313.02 402.35,-302.31"/>
<polygon fill="#63b8ff" stroke="#63b8ff" points="402.9,-305.78 411.93,-300.24 401.41,-298.94 402.9,-305.78"/>
</g>
<!-- Node29&#45;&gt;Node3 -->
<g id="edge55" class="edge">
<title>Node29&#45;&gt;Node3</title>
<path fill="none" stroke="#63b8ff" d="M408.22,-340.68C393.03,-331.48 373.74,-318.71 358.5,-305 339.41,-287.83 321.05,-264.67 309.33,-248.75"/>
<polygon fill="#63b8ff" stroke="#63b8ff" points="312.22,-246.77 303.54,-240.7 306.54,-250.86 312.22,-246.77"/>
</g>
<!-- Node29&#45;&gt;Node19 -->
<g id="edge56" class="edge">
<title>Node29&#45;&gt;Node19</title>
<path fill="none" stroke="#63b8ff" d="M438.16,-340.8C441.08,-331.89 444.89,-320.3 448.09,-310.54"/>
<polygon fill="#63b8ff" stroke="#63b8ff" points="451.33,-311.88 451.13,-301.28 444.68,-309.69 451.33,-311.88"/>
</g>
<!-- Node30&#45;&gt;Node4 -->
<g id="edge63" class="edge">
<title>Node30&#45;&gt;Node4</title>
<path fill="none" stroke="#63b8ff" d="M977.89,-164.58C961.7,-150.17 927.34,-122.16 892.5,-110 804.4,-79.26 528.53,-69.44 408.84,-66.58"/>
<polygon fill="#63b8ff" stroke="#63b8ff" points="409.01,-63.08 398.93,-66.35 408.85,-70.08 409.01,-63.08"/>
</g>
<!-- Node30&#45;&gt;Node12 -->
<g id="edge58" class="edge">
<title>Node30&#45;&gt;Node12</title>
<path fill="none" stroke="#63b8ff" d="M983.58,-164.64C974.29,-144.2 949.56,-92.58 920.5,-55 912.63,-44.82 902.47,-34.75 893.7,-26.77"/>
<polygon fill="#63b8ff" stroke="#63b8ff" points="896.17,-24.28 886.35,-20.29 891.54,-29.53 896.17,-24.28"/>
</g>
<!-- Node30&#45;&gt;Node13 -->
<g id="edge64" class="edge">
<title>Node30&#45;&gt;Node13</title>
<path fill="none" stroke="#63b8ff" d="M962.73,-164.51C939.1,-155.93 903.26,-142.92 876.67,-133.27"/>
<polygon fill="#63b8ff" stroke="#63b8ff" points="877.92,-130 867.32,-129.87 875.53,-136.58 877.92,-130"/>
</g>
<!-- Node30&#45;&gt;Node15 -->
<g id="edge60" class="edge">
<title>Node30&#45;&gt;Node15</title>
<path fill="none" stroke="#63b8ff" d="M954.6,-166.89C903.41,-156.62 805.38,-136.94 755.04,-126.83"/>
<polygon fill="#63b8ff" stroke="#63b8ff" points="755.88,-123.43 745.38,-124.89 754.5,-130.29 755.88,-123.43"/>
</g>
<!-- Node31 -->
<g id="node31" class="node">
<title>Node31</title>
<g id="a_node31"><a xlink:title=" ">
<polygon fill="#e0e0e0" stroke="#999999" points="1067.5,-129 1015.5,-129 1015.5,-110 1067.5,-110 1067.5,-129"/>
<text text-anchor="middle" x="1041.5" y="-117" font-family="Helvetica,sans-Serif" font-size="10.00">sstream</text>
</a>
</g>
</g>
<!-- Node30&#45;&gt;Node31 -->
<g id="edge59" class="edge">
<title>Node30&#45;&gt;Node31</title>
<path fill="none" stroke="#63b8ff" d="M996.42,-164.75C1003.95,-157.35 1014.97,-146.54 1024.23,-137.45"/>
<polygon fill="#63b8ff" stroke="#63b8ff" points="1026.62,-140 1031.31,-130.5 1021.72,-135.01 1026.62,-140"/>
</g>
<!-- Node32 -->
<g id="node32" class="node">
<title>Node32</title>
<g id="a_node32"><a xlink:href="error__type_8h.html" target="_top" xlink:title=" ">
<polygon fill="white" stroke="#666666" points="1105.5,-74 1037.5,-74 1037.5,-55 1105.5,-55 1105.5,-74"/>
<text text-anchor="middle" x="1071.5" y="-62" font-family="Helvetica,sans-Serif" font-size="10.00">error_type.h</text>
</a>
</g>
</g>
<!-- Node30&#45;&gt;Node32 -->
<g id="edge61" class="edge">
<title>Node30&#45;&gt;Node32</title>
<path fill="none" stroke="#63b8ff" d="M1020.14,-166.37C1040.16,-160.13 1064.24,-148.84 1076.5,-129 1084.51,-116.04 1082.45,-98.63 1078.84,-85.32"/>
<polygon fill="#63b8ff" stroke="#63b8ff" points="1082.21,-84.36 1075.79,-75.93 1075.55,-86.52 1082.21,-84.36"/>
</g>
<!-- Node32&#45;&gt;Node6 -->
<g id="edge62" class="edge">
<title>Node32&#45;&gt;Node6</title>
<path fill="none" stroke="#63b8ff" d="M1071.5,-54.75C1071.5,-48.27 1071.5,-39.16 1071.5,-30.9"/>
<polygon fill="#63b8ff" stroke="#63b8ff" points="1075,-30.96 1071.5,-20.96 1068,-30.96 1075,-30.96"/>
</g>
<!-- Node33&#45;&gt;Node6 -->
<g id="edge67" class="edge">
<title>Node33&#45;&gt;Node6</title>
<path fill="none" stroke="#63b8ff" d="M825.8,-414.19C927.72,-411.01 1149.01,-400.79 1218.5,-371 1268.61,-349.52 1311.5,-345.52 1311.5,-291 1311.5,-291 1311.5,-291 1311.5,-118.5 1311.5,-28.39 1169.05,-13.02 1103.64,-10.71"/>
<polygon fill="#63b8ff" stroke="#63b8ff" points="1103.98,-7.22 1093.89,-10.46 1103.8,-14.22 1103.98,-7.22"/>
</g>
<!-- Node33&#45;&gt;Node8 -->
<g id="edge68" class="edge">
<title>Node33&#45;&gt;Node8</title>
<path fill="none" stroke="#63b8ff" d="M762.75,-406.7C719.38,-371.58 552.17,-239.77 395.5,-165 366.27,-151.05 331.54,-139.77 304.49,-132.05"/>
<polygon fill="#63b8ff" stroke="#63b8ff" points="305.44,-128.68 294.87,-129.37 303.56,-135.43 305.44,-128.68"/>
</g>
<!-- Node33&#45;&gt;Node19 -->
<g id="edge69" class="edge">
<title>Node33&#45;&gt;Node19</title>
<path fill="none" stroke="#63b8ff" d="M757.6,-406.53C730.5,-391.51 673.39,-360.96 622.5,-341 582.79,-325.43 536.21,-311.92 502.18,-302.88"/>
<polygon fill="#63b8ff" stroke="#63b8ff" points="503.17,-299.52 492.61,-300.38 501.4,-306.3 503.17,-299.52"/>
</g>
<!-- Node33&#45;&gt;Node21 -->
<g id="edge66" class="edge">
<title>Node33&#45;&gt;Node21</title>
<path fill="none" stroke="#63b8ff" d="M825.87,-411.56C887.15,-405.97 983.77,-393.78 1011.5,-371 1029.63,-356.11 1037.55,-329.45 1040.97,-311.02"/>
<polygon fill="#63b8ff" stroke="#63b8ff" points="1044.41,-311.73 1042.46,-301.32 1037.49,-310.67 1044.41,-311.73"/>
</g>
<!-- Node33&#45;&gt;Node30 -->
<g id="edge70" class="edge">
<title>Node33&#45;&gt;Node30</title>
<path fill="none" stroke="#63b8ff" d="M825.53,-410.89C878.19,-405.07 954.51,-393.02 973.5,-371 1016.72,-320.88 1002.35,-234.08 992.95,-195.26"/>
<polygon fill="#63b8ff" stroke="#63b8ff" points="996.37,-194.52 990.48,-185.72 989.6,-196.27 996.37,-194.52"/>
</g>
<!-- Node34 -->
<g id="node34" class="node">
<title>Node34</title>
<g id="a_node34"><a xlink:href="symbol_8h.html" target="_top" xlink:title=" ">
<polygon fill="white" stroke="#666666" points="801.5,-365.5 745.5,-365.5 745.5,-346.5 801.5,-346.5 801.5,-365.5"/>
<text text-anchor="middle" x="773.5" y="-353.5" font-family="Helvetica,sans-Serif" font-size="10.00">symbol.h</text>
</a>
</g>
</g>
<!-- Node33&#45;&gt;Node34 -->
<g id="edge71" class="edge">
<title>Node33&#45;&gt;Node34</title>
<path fill="none" stroke="#63b8ff" d="M773.5,-406.87C773.5,-399 773.5,-387.1 773.5,-376.89"/>
<polygon fill="#63b8ff" stroke="#63b8ff" points="777,-377.18 773.5,-367.18 770,-377.18 777,-377.18"/>
</g>
<!-- Node34&#45;&gt;Node8 -->
<g id="edge74" class="edge">
<title>Node34&#45;&gt;Node8</title>
<path fill="none" stroke="#63b8ff" d="M761.36,-346.19C719.6,-316.28 577.2,-217.59 445.5,-165 399.11,-146.48 343.01,-134.36 304.63,-127.51"/>
<polygon fill="#63b8ff" stroke="#63b8ff" points="305.26,-124.07 294.81,-125.81 304.07,-130.96 305.26,-124.07"/>
</g>
<!-- Node34&#45;&gt;Node16 -->
<g id="edge73" class="edge">
<title>Node34&#45;&gt;Node16</title>
<path fill="none" stroke="#63b8ff" d="M769.21,-346.09C752.67,-311.78 692.86,-187.66 669.73,-139.65"/>
<polygon fill="#63b8ff" stroke="#63b8ff" points="672.95,-138.27 665.45,-130.78 666.64,-141.31 672.95,-138.27"/>
</g>
<!-- Node34&#45;&gt;Node19 -->
<g id="edge75" class="edge">
<title>Node34&#45;&gt;Node19</title>
<path fill="none" stroke="#63b8ff" d="M745.19,-349.32C692.54,-338.76 578.7,-315.92 510.15,-302.16"/>
<polygon fill="#63b8ff" stroke="#63b8ff" points="511.11,-298.79 500.62,-300.25 509.74,-305.65 511.11,-298.79"/>
</g>
<!-- Node34&#45;&gt;Node21 -->
<g id="edge72" class="edge">
<title>Node34&#45;&gt;Node21</title>
<path fill="none" stroke="#63b8ff" d="M801.88,-348.27C853.64,-336 962.77,-310.13 1014.78,-297.81"/>
<polygon fill="#63b8ff" stroke="#63b8ff" points="1015.44,-301.25 1024.36,-295.54 1013.82,-294.44 1015.44,-301.25"/>
</g>
</g>
</svg>
