<?xml version="1.0" encoding="UTF-8" standalone="no"?>
<!DOCTYPE svg PUBLIC "-//W3C//DTD SVG 1.1//EN"
 "http://www.w3.org/Graphics/SVG/1.1/DTD/svg11.dtd">
<!-- Generated by graphviz version 7.1.0 (20230121.1956)
 -->
<!-- Title: /Users/nikolajbankejensen/Desktop/Kepler/src/core/evaluation/operations/defined_function.h Pages: 1 -->
<!--zoomable 390 -->
<svg id="main" version="1.1" xmlns="http://www.w3.org/2000/svg" xmlns:xlink="http://www.w3.org/1999/xlink" xml:space="preserve" onload="init(evt)">
<style type="text/css"><![CDATA[
.edge:hover path { stroke: red; }
.edge:hover polygon { stroke: red; fill: red; }
]]></style>
<script type="text/javascript"><![CDATA[
var edges = document.getElementsByTagName('g');
if (edges && edges.length) {
  for (var i=0;i<edges.length;i++) {
    if (edges[i].id.substr(0,4)=='edge') {
      edges[i].setAttribute('class','edge');
    }
  }
}
]]></script>
        <defs>
                <circle id="rim" cx="0" cy="0" r="7"/>
                <circle id="rim2" cx="0" cy="0" r="3.5"/>
                <g id="zoomPlus">
                        <use xlink:href="#rim" fill="#404040">
                                <set attributeName="fill" to="#808080" begin="zoomplus.mouseover" end="zoomplus.mouseout"/>
                        </use>
                        <path d="M-4,0h8M0,-4v8" fill="none" stroke="white" stroke-width="1.5" pointer-events="none"/>
                </g>
                <g id="zoomMin">
                        <use xlink:href="#rim" fill="#404040">
                                <set attributeName="fill" to="#808080" begin="zoomminus.mouseover" end="zoomminus.mouseout"/>
                        </use>
                        <path d="M-4,0h8" fill="none" stroke="white" stroke-width="1.5" pointer-events="none"/>
                </g>
                <g id="dirArrow">
                        <path fill="none" stroke="white" stroke-width="1.5" d="M0,-3.0v7 M-2.5,-0.5L0,-3.0L2.5,-0.5"/>
                </g>
               <g id="resetDef">
                       <use xlink:href="#rim2" fill="#404040">
                               <set attributeName="fill" to="#808080" begin="reset.mouseover" end="reset.mouseout"/>
                       </use>
               </g>
        </defs>

<script type="text/javascript">
var viewWidth = 712;
var viewHeight = 390;
var sectionId = 'dynsection-0';
</script>
<script xlink:href="svgpan.js"/>
<svg id="graph" class="graph">
<g id="viewport">
<title>/Users/nikolajbankejensen/Desktop/Kepler/src/core/evaluation/operations/defined_function.h</title>
<!-- Node1 -->
<g id="node1" class="node">
<title>Node1</title>
<g id="a_node1"><a xlink:title=" ">
<polygon fill="#999999" stroke="#666666" points="190.58,-382 44.58,-382 44.58,-330 190.58,-330 190.58,-382"/>
<text text-anchor="start" x="52.58" y="-370" font-family="Helvetica,sans-Serif" font-size="10.00">/Users/nikolajbankejensen</text>
<text text-anchor="start" x="52.58" y="-359" font-family="Helvetica,sans-Serif" font-size="10.00">/Desktop/Kepler/src/core</text>
<text text-anchor="start" x="52.58" y="-348" font-family="Helvetica,sans-Serif" font-size="10.00">/evaluation/operations/defined</text>
<text text-anchor="middle" x="117.58" y="-337" font-family="Helvetica,sans-Serif" font-size="10.00">_function.h</text>
</a>
</g>
</g>
<!-- Node2 -->
<g id="node2" class="node">
<title>Node2</title>
<g id="a_node2"><a xlink:href="operation_8h.html" target="_top" xlink:title=" ">
<polygon fill="white" stroke="#666666" points="81.08,-239 16.08,-239 16.08,-220 81.08,-220 81.08,-239"/>
<text text-anchor="middle" x="48.58" y="-227" font-family="Helvetica,sans-Serif" font-size="10.00">operation.h</text>
</a>
</g>
</g>
<!-- Node1&#45;&gt;Node2 -->
<g id="edge1" class="edge">
<title>Node1&#45;&gt;Node2</title>
<path fill="none" stroke="#63b8ff" d="M103.45,-329.51C90.22,-305.64 70.77,-270.54 58.93,-249.17"/>
<polygon fill="#63b8ff" stroke="#63b8ff" points="62.15,-247.76 54.24,-240.71 56.03,-251.15 62.15,-247.76"/>
</g>
<!-- Node18 -->
<g id="node18" class="node">
<title>Node18</title>
<g id="a_node18"><a xlink:href="ast_8h.html" target="_top" xlink:title=" ">
<polygon fill="white" stroke="#666666" points="239.08,-294 132.08,-294 132.08,-275 239.08,-275 239.08,-294"/>
<text text-anchor="middle" x="185.58" y="-282" font-family="Helvetica,sans-Serif" font-size="10.00">core/evaluation/ast.h</text>
</a>
</g>
</g>
<!-- Node1&#45;&gt;Node18 -->
<g id="edge23" class="edge">
<title>Node1&#45;&gt;Node18</title>
<path fill="none" stroke="#63b8ff" d="M142.52,-329.52C151.42,-320.41 161.23,-310.39 169.23,-302.22"/>
<polygon fill="#63b8ff" stroke="#63b8ff" points="171.52,-304.87 176.01,-295.28 166.52,-299.98 171.52,-304.87"/>
</g>
<!-- Node3 -->
<g id="node3" class="node">
<title>Node3</title>
<g id="a_node3"><a xlink:href="datatypes_8h.html" target="_top" xlink:title=" ">
<polygon fill="white" stroke="#666666" points="189.08,-74 100.08,-74 100.08,-55 189.08,-55 189.08,-74"/>
<text text-anchor="middle" x="144.58" y="-62" font-family="Helvetica,sans-Serif" font-size="10.00">core/datatypes.h</text>
</a>
</g>
</g>
<!-- Node2&#45;&gt;Node3 -->
<g id="edge2" class="edge">
<title>Node2&#45;&gt;Node3</title>
<path fill="none" stroke="#63b8ff" d="M40.56,-219.65C22.63,-198.76 -17.16,-145.51 8.58,-110 18.44,-96.4 55.82,-84.75 88.91,-76.79"/>
<polygon fill="#63b8ff" stroke="#63b8ff" points="89.49,-80.25 98.44,-74.57 87.91,-73.43 89.49,-80.25"/>
</g>
<!-- Node7 -->
<g id="node7" class="node">
<title>Node7</title>
<g id="a_node7"><a xlink:href="array_8h.html" target="_top" xlink:title=" ">
<polygon fill="white" stroke="#666666" points="85.08,-129 18.08,-129 18.08,-110 85.08,-110 85.08,-129"/>
<text text-anchor="middle" x="51.58" y="-117" font-family="Helvetica,sans-Serif" font-size="10.00">core/array.h</text>
</a>
</g>
</g>
<!-- Node2&#45;&gt;Node7 -->
<g id="edge6" class="edge">
<title>Node2&#45;&gt;Node7</title>
<path fill="none" stroke="#63b8ff" d="M48.83,-219.66C49.3,-202.57 50.36,-164.61 51.01,-140.92"/>
<polygon fill="#63b8ff" stroke="#63b8ff" points="54.51,-141.07 51.29,-130.97 47.51,-140.87 54.51,-141.07"/>
</g>
<!-- Node9 -->
<g id="node9" class="node">
<title>Node9</title>
<g id="a_node9"><a xlink:href="token_8h.html" target="_top" xlink:title=" ">
<polygon fill="white" stroke="#666666" points="305.08,-184 234.08,-184 234.08,-165 305.08,-165 305.08,-184"/>
<text text-anchor="middle" x="269.58" y="-172" font-family="Helvetica,sans-Serif" font-size="10.00">core/token.h</text>
</a>
</g>
</g>
<!-- Node2&#45;&gt;Node9 -->
<g id="edge9" class="edge">
<title>Node2&#45;&gt;Node9</title>
<path fill="none" stroke="#63b8ff" d="M81.19,-220.68C118.59,-211.71 180.19,-196.94 222.72,-186.74"/>
<polygon fill="#63b8ff" stroke="#63b8ff" points="223.53,-190.14 232.43,-184.41 221.89,-183.34 223.53,-190.14"/>
</g>
<!-- Node17 -->
<g id="node17" class="node">
<title>Node17</title>
<g id="a_node17"><a xlink:title=" ">
<polygon fill="#e0e0e0" stroke="#999999" points="119.58,-184 67.58,-184 67.58,-165 119.58,-165 119.58,-184"/>
<text text-anchor="middle" x="93.58" y="-172" font-family="Helvetica,sans-Serif" font-size="10.00">memory</text>
</a>
</g>
</g>
<!-- Node2&#45;&gt;Node17 -->
<g id="edge22" class="edge">
<title>Node2&#45;&gt;Node17</title>
<path fill="none" stroke="#63b8ff" d="M56.01,-219.75C62.16,-212.5 71.1,-201.98 78.71,-193.02"/>
<polygon fill="#63b8ff" stroke="#63b8ff" points="81.21,-195.48 85.01,-185.6 75.87,-190.95 81.21,-195.48"/>
</g>
<!-- Node4 -->
<g id="node4" class="node">
<title>Node4</title>
<g id="a_node4"><a xlink:title=" ">
<polygon fill="#e0e0e0" stroke="#999999" points="199.58,-19 155.58,-19 155.58,0 199.58,0 199.58,-19"/>
<text text-anchor="middle" x="177.58" y="-7" font-family="Helvetica,sans-Serif" font-size="10.00">vector</text>
</a>
</g>
</g>
<!-- Node3&#45;&gt;Node4 -->
<g id="edge3" class="edge">
<title>Node3&#45;&gt;Node4</title>
<path fill="none" stroke="#63b8ff" d="M150.03,-54.75C154.35,-47.81 160.54,-37.86 165.96,-29.16"/>
<polygon fill="#63b8ff" stroke="#63b8ff" points="168.9,-31.07 171.21,-20.73 162.96,-27.37 168.9,-31.07"/>
</g>
<!-- Node5 -->
<g id="node5" class="node">
<title>Node5</title>
<g id="a_node5"><a xlink:title=" ">
<polygon fill="#e0e0e0" stroke="#999999" points="485.08,-19 444.08,-19 444.08,0 485.08,0 485.08,-19"/>
<text text-anchor="middle" x="464.58" y="-7" font-family="Helvetica,sans-Serif" font-size="10.00">string</text>
</a>
</g>
</g>
<!-- Node3&#45;&gt;Node5 -->
<g id="edge4" class="edge">
<title>Node3&#45;&gt;Node5</title>
<path fill="none" stroke="#63b8ff" d="M189.41,-56.07C254.93,-45.22 375.26,-25.29 432.59,-15.8"/>
<polygon fill="#63b8ff" stroke="#63b8ff" points="433.03,-19.27 442.33,-14.19 431.89,-12.37 433.03,-19.27"/>
</g>
<!-- Node6 -->
<g id="node6" class="node">
<title>Node6</title>
<g id="a_node6"><a xlink:title=" ">
<polygon fill="#e0e0e0" stroke="#999999" points="137.08,-19 84.08,-19 84.08,0 137.08,0 137.08,-19"/>
<text text-anchor="middle" x="110.58" y="-7" font-family="Helvetica,sans-Serif" font-size="10.00">complex</text>
</a>
</g>
</g>
<!-- Node3&#45;&gt;Node6 -->
<g id="edge5" class="edge">
<title>Node3&#45;&gt;Node6</title>
<path fill="none" stroke="#63b8ff" d="M138.97,-54.75C134.47,-47.73 127.99,-37.64 122.37,-28.87"/>
<polygon fill="#63b8ff" stroke="#63b8ff" points="125.48,-27.24 117.13,-20.72 119.59,-31.02 125.48,-27.24"/>
</g>
<!-- Node7&#45;&gt;Node3 -->
<g id="edge7" class="edge">
<title>Node7&#45;&gt;Node3</title>
<path fill="none" stroke="#63b8ff" d="M67.36,-109.51C81.61,-101.39 102.82,-89.3 119.41,-79.85"/>
<polygon fill="#63b8ff" stroke="#63b8ff" points="120.77,-83.1 127.72,-75.11 117.3,-77.02 120.77,-83.1"/>
</g>
<!-- Node8 -->
<g id="node8" class="node">
<title>Node8</title>
<g id="a_node8"><a xlink:title=" ">
<polygon fill="#e0e0e0" stroke="#999999" points="74.58,-74 28.58,-74 28.58,-55 74.58,-55 74.58,-74"/>
<text text-anchor="middle" x="51.58" y="-62" font-family="Helvetica,sans-Serif" font-size="10.00">variant</text>
</a>
</g>
</g>
<!-- Node7&#45;&gt;Node8 -->
<g id="edge8" class="edge">
<title>Node7&#45;&gt;Node8</title>
<path fill="none" stroke="#63b8ff" d="M51.58,-109.75C51.58,-103.27 51.58,-94.16 51.58,-85.9"/>
<polygon fill="#63b8ff" stroke="#63b8ff" points="55.08,-85.96 51.58,-75.96 48.08,-85.96 55.08,-85.96"/>
</g>
<!-- Node9&#45;&gt;Node3 -->
<g id="edge12" class="edge">
<title>Node9&#45;&gt;Node3</title>
<path fill="none" stroke="#63b8ff" d="M233.62,-164.57C212.87,-157.81 187.61,-146.61 170.58,-129 159.04,-117.07 152.36,-99.31 148.67,-85.61"/>
<polygon fill="#63b8ff" stroke="#63b8ff" points="152.09,-84.86 146.41,-75.92 145.27,-86.45 152.09,-84.86"/>
</g>
<!-- Node9&#45;&gt;Node7 -->
<g id="edge14" class="edge">
<title>Node9&#45;&gt;Node7</title>
<path fill="none" stroke="#63b8ff" d="M233.58,-164.75C196.08,-155.63 137.24,-141.32 96.66,-131.46"/>
<polygon fill="#63b8ff" stroke="#63b8ff" points="97.49,-128.06 86.95,-129.1 95.84,-134.86 97.49,-128.06"/>
</g>
<!-- Node10 -->
<g id="node10" class="node">
<title>Node10</title>
<g id="a_node10"><a xlink:href="token__type_8h.html" target="_top" xlink:title=" ">
<polygon fill="white" stroke="#666666" points="586.08,-74 513.08,-74 513.08,-55 586.08,-55 586.08,-74"/>
<text text-anchor="middle" x="549.58" y="-62" font-family="Helvetica,sans-Serif" font-size="10.00">token_type.h</text>
</a>
</g>
</g>
<!-- Node9&#45;&gt;Node10 -->
<g id="edge10" class="edge">
<title>Node9&#45;&gt;Node10</title>
<path fill="none" stroke="#63b8ff" d="M305.16,-171.98C368.6,-168.54 497.71,-158.09 530.58,-129 542.84,-118.15 547.35,-99.74 548.92,-85.53"/>
<polygon fill="#63b8ff" stroke="#63b8ff" points="552.39,-86.14 549.58,-75.92 545.41,-85.66 552.39,-86.14"/>
</g>
<!-- Node12 -->
<g id="node12" class="node">
<title>Node12</title>
<g id="a_node12"><a xlink:title=" ">
<polygon fill="#e0e0e0" stroke="#999999" points="331.08,-129 248.08,-129 248.08,-110 331.08,-110 331.08,-129"/>
<text text-anchor="middle" x="289.58" y="-117" font-family="Helvetica,sans-Serif" font-size="10.00">uni_algo/conv.h</text>
</a>
</g>
</g>
<!-- Node9&#45;&gt;Node12 -->
<g id="edge13" class="edge">
<title>Node9&#45;&gt;Node12</title>
<path fill="none" stroke="#63b8ff" d="M272.88,-164.75C275.42,-158.04 279.01,-148.52 282.21,-140.02"/>
<polygon fill="#63b8ff" stroke="#63b8ff" points="285.42,-141.45 285.67,-130.86 278.87,-138.98 285.42,-141.45"/>
</g>
<!-- Node13 -->
<g id="node13" class="node">
<title>Node13</title>
<g id="a_node13"><a xlink:href="conversion_8h.html" target="_top" xlink:title=" ">
<polygon fill="white" stroke="#666666" points="521.08,-129 408.08,-129 408.08,-110 521.08,-110 521.08,-129"/>
<text text-anchor="middle" x="464.58" y="-117" font-family="Helvetica,sans-Serif" font-size="10.00">interface/conversion.h</text>
</a>
</g>
</g>
<!-- Node9&#45;&gt;Node13 -->
<g id="edge15" class="edge">
<title>Node9&#45;&gt;Node13</title>
<path fill="none" stroke="#63b8ff" d="M302.66,-164.51C335.11,-155.69 384.81,-142.18 420.58,-132.46"/>
<polygon fill="#63b8ff" stroke="#63b8ff" points="421.47,-135.84 430.21,-129.84 419.64,-129.09 421.47,-135.84"/>
</g>
<!-- Node14 -->
<g id="node14" class="node">
<title>Node14</title>
<g id="a_node14"><a xlink:title=" ">
<polygon fill="#e0e0e0" stroke="#999999" points="389.58,-129 349.58,-129 349.58,-110 389.58,-110 389.58,-129"/>
<text text-anchor="middle" x="369.58" y="-117" font-family="Helvetica,sans-Serif" font-size="10.00">utility</text>
</a>
</g>
</g>
<!-- Node9&#45;&gt;Node14 -->
<g id="edge19" class="edge">
<title>Node9&#45;&gt;Node14</title>
<path fill="none" stroke="#63b8ff" d="M286.54,-164.51C301.94,-156.35 324.89,-144.19 342.77,-134.71"/>
<polygon fill="#63b8ff" stroke="#63b8ff" points="344.33,-137.84 351.53,-130.07 341.06,-131.66 344.33,-137.84"/>
</g>
<!-- Node15 -->
<g id="node15" class="node">
<title>Node15</title>
<g id="a_node15"><a xlink:title=" ">
<polygon fill="#e0e0e0" stroke="#999999" points="229.58,-129 179.58,-129 179.58,-110 229.58,-110 229.58,-129"/>
<text text-anchor="middle" x="204.58" y="-117" font-family="Helvetica,sans-Serif" font-size="10.00">optional</text>
</a>
</g>
</g>
<!-- Node9&#45;&gt;Node15 -->
<g id="edge20" class="edge">
<title>Node9&#45;&gt;Node15</title>
<path fill="none" stroke="#63b8ff" d="M258.55,-164.51C249.16,-156.85 235.43,-145.66 224.17,-136.47"/>
<polygon fill="#63b8ff" stroke="#63b8ff" points="226.58,-133.92 216.62,-130.31 222.16,-139.35 226.58,-133.92"/>
</g>
<!-- Node16 -->
<g id="node16" class="node">
<title>Node16</title>
<g id="a_node16"><a xlink:href="position_8h.html" target="_top" xlink:title=" ">
<polygon fill="white" stroke="#666666" points="637.08,-129 578.08,-129 578.08,-110 637.08,-110 637.08,-129"/>
<text text-anchor="middle" x="607.58" y="-117" font-family="Helvetica,sans-Serif" font-size="10.00">position.h</text>
</a>
</g>
</g>
<!-- Node9&#45;&gt;Node16 -->
<g id="edge21" class="edge">
<title>Node9&#45;&gt;Node16</title>
<path fill="none" stroke="#63b8ff" d="M305.41,-168.56C360.85,-160.8 470.74,-144.99 563.58,-129 564.59,-128.83 565.61,-128.65 566.63,-128.47"/>
<polygon fill="#63b8ff" stroke="#63b8ff" points="567.09,-131.94 576.3,-126.7 565.83,-125.06 567.09,-131.94"/>
</g>
<!-- Node11 -->
<g id="node11" class="node">
<title>Node11</title>
<g id="a_node11"><a xlink:title=" ">
<polygon fill="#e0e0e0" stroke="#999999" points="653.58,-19 599.58,-19 599.58,0 653.58,0 653.58,-19"/>
<text text-anchor="middle" x="626.58" y="-7" font-family="Helvetica,sans-Serif" font-size="10.00">iostream</text>
</a>
</g>
</g>
<!-- Node10&#45;&gt;Node11 -->
<g id="edge11" class="edge">
<title>Node10&#45;&gt;Node11</title>
<path fill="none" stroke="#63b8ff" d="M562.64,-54.51C574.11,-46.62 591.01,-34.98 604.56,-25.65"/>
<polygon fill="#63b8ff" stroke="#63b8ff" points="606.21,-28.77 612.47,-20.22 602.24,-23 606.21,-28.77"/>
</g>
<!-- Node13&#45;&gt;Node3 -->
<g id="edge17" class="edge">
<title>Node13&#45;&gt;Node3</title>
<path fill="none" stroke="#63b8ff" d="M410.3,-109.51C351.96,-99.85 259.67,-84.56 200.65,-74.79"/>
<polygon fill="#63b8ff" stroke="#63b8ff" points="201.24,-71.34 190.8,-73.15 200.09,-78.24 201.24,-71.34"/>
</g>
<!-- Node13&#45;&gt;Node5 -->
<g id="edge16" class="edge">
<title>Node13&#45;&gt;Node5</title>
<path fill="none" stroke="#63b8ff" d="M464.58,-109.66C464.58,-92.57 464.58,-54.61 464.58,-30.92"/>
<polygon fill="#63b8ff" stroke="#63b8ff" points="468.08,-30.97 464.58,-20.97 461.08,-30.97 468.08,-30.97"/>
</g>
<!-- Node13&#45;&gt;Node10 -->
<g id="edge18" class="edge">
<title>Node13&#45;&gt;Node10</title>
<path fill="none" stroke="#63b8ff" d="M479,-109.51C491.78,-101.54 510.68,-89.75 525.71,-80.38"/>
<polygon fill="#63b8ff" stroke="#63b8ff" points="527.46,-83.42 534.09,-75.16 523.75,-77.48 527.46,-83.42"/>
</g>
<!-- Node18&#45;&gt;Node2 -->
<g id="edge30" class="edge">
<title>Node18&#45;&gt;Node2</title>
<path fill="none" stroke="#63b8ff" d="M162.34,-274.51C140.26,-265.97 106.83,-253.03 81.92,-243.4"/>
<polygon fill="#63b8ff" stroke="#63b8ff" points="83.48,-240.25 72.89,-239.9 80.95,-246.78 83.48,-240.25"/>
</g>
<!-- Node18&#45;&gt;Node3 -->
<g id="edge28" class="edge">
<title>Node18&#45;&gt;Node3</title>
<path fill="none" stroke="#63b8ff" d="M183.71,-274.81C178.67,-251.36 164.56,-184.74 154.58,-129 151.98,-114.49 149.4,-98.04 147.52,-85.52"/>
<polygon fill="#63b8ff" stroke="#63b8ff" points="150.98,-85.02 146.05,-75.64 144.06,-86.05 150.98,-85.02"/>
</g>
<!-- Node18&#45;&gt;Node5 -->
<g id="edge24" class="edge">
<title>Node18&#45;&gt;Node5</title>
<path fill="none" stroke="#63b8ff" d="M239.25,-282.67C364.5,-279.27 665.58,-262.09 665.58,-175.5 665.58,-175.5 665.58,-175.5 665.58,-118.5 665.58,-42.68 553.24,-19.87 496.53,-13.18"/>
<polygon fill="#63b8ff" stroke="#63b8ff" points="497.15,-9.72 486.84,-12.14 496.41,-16.68 497.15,-9.72"/>
</g>
<!-- Node18&#45;&gt;Node7 -->
<g id="edge26" class="edge">
<title>Node18&#45;&gt;Node7</title>
<path fill="none" stroke="#63b8ff" d="M183.31,-274.74C177.47,-253.59 160.09,-198.99 128.58,-165 116.5,-151.97 99.73,-141.66 84.91,-134.26"/>
<polygon fill="#63b8ff" stroke="#63b8ff" points="86.48,-131.13 75.94,-130.04 83.5,-137.46 86.48,-131.13"/>
</g>
<!-- Node18&#45;&gt;Node9 -->
<g id="edge27" class="edge">
<title>Node18&#45;&gt;Node9</title>
<path fill="none" stroke="#63b8ff" d="M192.46,-274.66C206.24,-256.94 237.49,-216.77 255.7,-193.35"/>
<polygon fill="#63b8ff" stroke="#63b8ff" points="258.31,-195.7 261.68,-185.65 252.78,-191.4 258.31,-195.7"/>
</g>
<!-- Node18&#45;&gt;Node11 -->
<g id="edge25" class="edge">
<title>Node18&#45;&gt;Node11</title>
<path fill="none" stroke="#63b8ff" d="M239.55,-283.56C372.22,-282.24 703.58,-269.55 703.58,-175.5 703.58,-175.5 703.58,-175.5 703.58,-118.5 703.58,-79.84 670.47,-45.44 647.67,-26.34"/>
<polygon fill="#63b8ff" stroke="#63b8ff" points="650.12,-23.82 640.13,-20.29 645.74,-29.28 650.12,-23.82"/>
</g>
<!-- Node18&#45;&gt;Node16 -->
<g id="edge31" class="edge">
<title>Node18&#45;&gt;Node16</title>
<path fill="none" stroke="#63b8ff" d="M208.87,-274.5C279.41,-247.26 490.94,-165.55 573.78,-133.56"/>
<polygon fill="#63b8ff" stroke="#63b8ff" points="574.88,-136.88 582.95,-130.01 572.36,-130.35 574.88,-136.88"/>
</g>
<!-- Node18&#45;&gt;Node17 -->
<g id="edge29" class="edge">
<title>Node18&#45;&gt;Node17</title>
<path fill="none" stroke="#63b8ff" d="M173.09,-274.53C161.93,-266.14 145.54,-252.85 133.58,-239 121.6,-225.14 110.71,-207.34 103.33,-194.12"/>
<polygon fill="#63b8ff" stroke="#63b8ff" points="106.56,-192.74 98.73,-185.61 100.41,-196.07 106.56,-192.74"/>
</g>
</g>
</svg>
        <g id="navigator" transform="translate(0 0)" fill="#404254">
                <rect fill="#f2f5e9" fill-opacity="0.5" stroke="#606060" stroke-width=".5" x="0" y="0" width="60" height="60"/>
                <use id="zoomplus" xlink:href="#zoomPlus" x="17" y="9" onmousedown="handleZoom(evt,'in')"/>
                <use id="zoomminus" xlink:href="#zoomMin" x="42" y="9" onmousedown="handleZoom(evt,'out')"/>
                <use id="reset" xlink:href="#resetDef" x="30" y="36" onmousedown="handleReset()"/>
                <g id="arrowUp" xlink:href="#dirArrow" transform="translate(30 24)" onmousedown="handlePan(0,-1)">
                  <use xlink:href="#rim" fill="#404040">
                        <set attributeName="fill" to="#808080" begin="arrowUp.mouseover" end="arrowUp.mouseout"/>
                  </use>
                  <path fill="none" stroke="white" stroke-width="1.5" d="M0,-3.0v7 M-2.5,-0.5L0,-3.0L2.5,-0.5"/>
                </g>
                <g id="arrowRight" xlink:href="#dirArrow" transform="rotate(90) translate(36 -43)" onmousedown="handlePan(1,0)">
                  <use xlink:href="#rim" fill="#404040">
                        <set attributeName="fill" to="#808080" begin="arrowRight.mouseover" end="arrowRight.mouseout"/>
                  </use>
                  <path fill="none" stroke="white" stroke-width="1.5" d="M0,-3.0v7 M-2.5,-0.5L0,-3.0L2.5,-0.5"/>
                </g>
                <g id="arrowDown" xlink:href="#dirArrow" transform="rotate(180) translate(-30 -48)" onmousedown="handlePan(0,1)">
                  <use xlink:href="#rim" fill="#404040">
                        <set attributeName="fill" to="#808080" begin="arrowDown.mouseover" end="arrowDown.mouseout"/>
                  </use>
                  <path fill="none" stroke="white" stroke-width="1.5" d="M0,-3.0v7 M-2.5,-0.5L0,-3.0L2.5,-0.5"/>
                </g>
                <g id="arrowLeft" xlink:href="#dirArrow" transform="rotate(270) translate(-36 17)" onmousedown="handlePan(-1,0)">
                  <use xlink:href="#rim" fill="#404040">
                        <set attributeName="fill" to="#808080" begin="arrowLeft.mouseover" end="arrowLeft.mouseout"/>
                  </use>
                  <path fill="none" stroke="white" stroke-width="1.5" d="M0,-3.0v7 M-2.5,-0.5L0,-3.0L2.5,-0.5"/>
                </g>
        </g>
        <svg viewBox="0 0 15 15" width="100%" height="30px" preserveAspectRatio="xMaxYMin meet">
         <g id="arrow_out" transform="scale(0.3 0.3)">
          <a xlink:href="defined__function_8h__incl_org.svg" target="_base">
           <rect id="button" ry="5" rx="5" y="6" x="6" height="38" width="38"
                fill="#f2f5e9" fill-opacity="0.5" stroke="#606060" stroke-width="1.0"/>
           <path id="arrow"
             d="M 11.500037,31.436501 C 11.940474,20.09759 22.043105,11.32322 32.158766,21.979434 L 37.068811,17.246167 C 37.068811,17.246167 37.088388,32 37.088388,32 L 22.160133,31.978069 C 22.160133,31.978069 26.997745,27.140456 26.997745,27.140456 C 18.528582,18.264221 13.291696,25.230495 11.500037,31.436501 z"
             style="fill:#404040;"/>
          </a>
         </g>
        </svg>
</svg>
