<?xml version="1.0" encoding="UTF-8" standalone="no"?>
<!DOCTYPE svg PUBLIC "-//W3C//DTD SVG 1.1//EN"
 "http://www.w3.org/Graphics/SVG/1.1/DTD/svg11.dtd">
<!-- Generated by graphviz version 7.1.0 (20230121.1956)
 -->
<!-- Title: src/core/evaluation/operations/defined_function.cpp Pages: 1 -->
<!--zoomable 511 -->
<svg id="main" version="1.1" xmlns="http://www.w3.org/2000/svg" xmlns:xlink="http://www.w3.org/1999/xlink" xml:space="preserve" onload="init(evt)">
<style type="text/css"><![CDATA[
.edge:hover path { stroke: red; }
.edge:hover polygon { stroke: red; fill: red; }
]]></style>
<script type="text/javascript"><![CDATA[
var edges = document.getElementsByTagName('g');
if (edges && edges.length) {
  for (var i=0;i<edges.length;i++) {
    if (edges[i].id.substr(0,4)=='edge') {
      edges[i].setAttribute('class','edge');
    }
  }
}
]]></script>
        <defs>
                <circle id="rim" cx="0" cy="0" r="7"/>
                <circle id="rim2" cx="0" cy="0" r="3.5"/>
                <g id="zoomPlus">
                        <use xlink:href="#rim" fill="#404040">
                                <set attributeName="fill" to="#808080" begin="zoomplus.mouseover" end="zoomplus.mouseout"/>
                        </use>
                        <path d="M-4,0h8M0,-4v8" fill="none" stroke="white" stroke-width="1.5" pointer-events="none"/>
                </g>
                <g id="zoomMin">
                        <use xlink:href="#rim" fill="#404040">
                                <set attributeName="fill" to="#808080" begin="zoomminus.mouseover" end="zoomminus.mouseout"/>
                        </use>
                        <path d="M-4,0h8" fill="none" stroke="white" stroke-width="1.5" pointer-events="none"/>
                </g>
                <g id="dirArrow">
                        <path fill="none" stroke="white" stroke-width="1.5" d="M0,-3.0v7 M-2.5,-0.5L0,-3.0L2.5,-0.5"/>
                </g>
               <g id="resetDef">
                       <use xlink:href="#rim2" fill="#404040">
                               <set attributeName="fill" to="#808080" begin="reset.mouseover" end="reset.mouseout"/>
                       </use>
               </g>
        </defs>

<script type="text/javascript">
var viewWidth = 1346;
var viewHeight = 511;
var sectionId = 'dynsection-0';
</script>
<script xlink:href="svgpan.js"/>
<svg id="graph" class="graph">
<g id="viewport">
<title>src/core/evaluation/operations/defined_function.cpp</title>
<!-- Node1 -->
<g id="node1" class="node">
<title>Node1</title>
<g id="a_node1"><a xlink:title=" ">
<polygon fill="#999999" stroke="#666666" points="902,-503 803,-503 803,-462 902,-462 902,-503"/>
<text text-anchor="start" x="811" y="-491" font-family="Helvetica,sans-Serif" font-size="10.00">src/core/evaluation</text>
<text text-anchor="start" x="811" y="-480" font-family="Helvetica,sans-Serif" font-size="10.00">/operations/defined</text>
<text text-anchor="middle" x="852.5" y="-469" font-family="Helvetica,sans-Serif" font-size="10.00">_function.cpp</text>
</a>
</g>
</g>
<!-- Node2 -->
<g id="node2" class="node">
<title>Node2</title>
<g id="a_node2"><a xlink:href="defined__function_8h.html" target="_top" xlink:title=" ">
<polygon fill="white" stroke="#666666" points="672.5,-365.5 576.5,-365.5 576.5,-346.5 672.5,-346.5 672.5,-365.5"/>
<text text-anchor="middle" x="624.5" y="-353.5" font-family="Helvetica,sans-Serif" font-size="10.00">defined_function.h</text>
</a>
</g>
</g>
<!-- Node1&#45;&gt;Node2 -->
<g id="edge1" class="edge">
<title>Node1&#45;&gt;Node2</title>
<path fill="none" stroke="#63b8ff" d="M816.12,-461.63C769.96,-436.43 691.45,-393.56 650.74,-371.33"/>
<polygon fill="#63b8ff" stroke="#63b8ff" points="652.56,-368.33 642.11,-366.61 649.2,-374.48 652.56,-368.33"/>
</g>
<!-- Node20 -->
<g id="node20" class="node">
<title>Node20</title>
<g id="a_node20"><a xlink:href="literals_8h.html" target="_top" xlink:title=" ">
<polygon fill="white" stroke="#666666" points="1227,-365.5 1106,-365.5 1106,-346.5 1227,-346.5 1227,-365.5"/>
<text text-anchor="middle" x="1166.5" y="-353.5" font-family="Helvetica,sans-Serif" font-size="10.00">core/constants/literals.h</text>
</a>
</g>
</g>
<!-- Node1&#45;&gt;Node20 -->
<g id="edge33" class="edge">
<title>Node1&#45;&gt;Node20</title>
<path fill="none" stroke="#63b8ff" d="M902.15,-466.2C934.93,-455.73 978.66,-441.06 1016.5,-426 1059.91,-408.73 1108.84,-385.48 1138.67,-370.87"/>
<polygon fill="#63b8ff" stroke="#63b8ff" points="1139.97,-374.13 1147.4,-366.57 1136.88,-367.85 1139.97,-374.13"/>
</g>
<!-- Node22 -->
<g id="node22" class="node">
<title>Node22</title>
<g id="a_node22"><a xlink:href="interpreter_8h.html" target="_top" xlink:title=" ">
<polygon fill="white" stroke="#666666" points="436,-426 299,-426 299,-407 436,-407 436,-426"/>
<text text-anchor="middle" x="367.5" y="-414" font-family="Helvetica,sans-Serif" font-size="10.00">core/evaluation/interpreter.h</text>
</a>
</g>
</g>
<!-- Node1&#45;&gt;Node22 -->
<g id="edge37" class="edge">
<title>Node1&#45;&gt;Node22</title>
<path fill="none" stroke="#63b8ff" d="M802.88,-474.95C718.84,-463.86 547.84,-441.3 446.96,-427.99"/>
<polygon fill="#63b8ff" stroke="#63b8ff" points="447.49,-424.52 437.12,-426.69 446.57,-431.46 447.49,-424.52"/>
</g>
<!-- Node32 -->
<g id="node32" class="node">
<title>Node32</title>
<g id="a_node32"><a xlink:href="config_8h.html" target="_top" xlink:title=" ">
<polygon fill="white" stroke="#666666" points="834,-239 715,-239 715,-220 834,-220 834,-239"/>
<text text-anchor="middle" x="774.5" y="-227" font-family="Helvetica,sans-Serif" font-size="10.00">core/constants/config.h</text>
</a>
</g>
</g>
<!-- Node1&#45;&gt;Node32 -->
<g id="edge64" class="edge">
<title>Node1&#45;&gt;Node32</title>
<path fill="none" stroke="#63b8ff" d="M846.38,-461.8C831.81,-414.91 795.19,-297.08 780.62,-250.19"/>
<polygon fill="#63b8ff" stroke="#63b8ff" points="784.03,-249.38 777.72,-240.87 777.35,-251.46 784.03,-249.38"/>
</g>
<!-- Node33 -->
<g id="node33" class="node">
<title>Node33</title>
<g id="a_node33"><a xlink:href="symbol__table_8h.html" target="_top" xlink:title=" ">
<polygon fill="white" stroke="#666666" points="1007.5,-426 903.5,-426 903.5,-407 1007.5,-407 1007.5,-426"/>
<text text-anchor="middle" x="955.5" y="-414" font-family="Helvetica,sans-Serif" font-size="10.00">core/symbol_table.h</text>
</a>
</g>
</g>
<!-- Node1&#45;&gt;Node33 -->
<g id="edge67" class="edge">
<title>Node1&#45;&gt;Node33</title>
<path fill="none" stroke="#63b8ff" d="M884.53,-461.6C899.83,-452.09 917.82,-440.91 931.86,-432.19"/>
<polygon fill="#63b8ff" stroke="#63b8ff" points="933.36,-435.38 940,-427.13 929.66,-429.43 933.36,-435.38"/>
</g>
<!-- Node3 -->
<g id="node3" class="node">
<title>Node3</title>
<g id="a_node3"><a xlink:href="operation_8h.html" target="_top" xlink:title=" ">
<polygon fill="white" stroke="#666666" points="347,-239 282,-239 282,-220 347,-220 347,-239"/>
<text text-anchor="middle" x="314.5" y="-227" font-family="Helvetica,sans-Serif" font-size="10.00">operation.h</text>
</a>
</g>
</g>
<!-- Node2&#45;&gt;Node3 -->
<g id="edge2" class="edge">
<title>Node2&#45;&gt;Node3</title>
<path fill="none" stroke="#63b8ff" d="M599.88,-346.07C573.1,-336.28 529.08,-319.97 491.5,-305 440.07,-284.52 380.9,-259.27 345.66,-244.05"/>
<polygon fill="#63b8ff" stroke="#63b8ff" points="347.06,-240.84 336.49,-240.08 344.28,-247.26 347.06,-240.84"/>
</g>
<!-- Node19 -->
<g id="node19" class="node">
<title>Node19</title>
<g id="a_node19"><a xlink:href="ast_8h.html" target="_top" xlink:title=" ">
<polygon fill="white" stroke="#666666" points="607,-299.5 500,-299.5 500,-280.5 607,-280.5 607,-299.5"/>
<text text-anchor="middle" x="553.5" y="-287.5" font-family="Helvetica,sans-Serif" font-size="10.00">core/evaluation/ast.h</text>
</a>
</g>
</g>
<!-- Node2&#45;&gt;Node19 -->
<g id="edge24" class="edge">
<title>Node2&#45;&gt;Node19</title>
<path fill="none" stroke="#63b8ff" d="M614.63,-346.1C603.5,-336.07 585.18,-319.56 571.49,-307.22"/>
<polygon fill="#63b8ff" stroke="#63b8ff" points="574.18,-304.93 564.41,-300.84 569.5,-310.13 574.18,-304.93"/>
</g>
<!-- Node4 -->
<g id="node4" class="node">
<title>Node4</title>
<g id="a_node4"><a xlink:href="datatypes_8h.html" target="_top" xlink:title=" ">
<polygon fill="white" stroke="#666666" points="480,-74 391,-74 391,-55 480,-55 480,-74"/>
<text text-anchor="middle" x="435.5" y="-62" font-family="Helvetica,sans-Serif" font-size="10.00">core/datatypes.h</text>
</a>
</g>
</g>
<!-- Node3&#45;&gt;Node4 -->
<g id="edge3" class="edge">
<title>Node3&#45;&gt;Node4</title>
<path fill="none" stroke="#63b8ff" d="M306.83,-219.7C299.98,-211.21 290.45,-197.68 286.5,-184 280.87,-164.49 287.48,-117.19 293.5,-110 304.91,-96.37 345.08,-84.53 379.8,-76.5"/>
<polygon fill="#63b8ff" stroke="#63b8ff" points="380.36,-79.96 389.36,-74.36 378.84,-73.13 380.36,-79.96"/>
</g>
<!-- Node8 -->
<g id="node8" class="node">
<title>Node8</title>
<g id="a_node8"><a xlink:href="array_8h.html" target="_top" xlink:title=" ">
<polygon fill="white" stroke="#666666" points="369,-129 302,-129 302,-110 369,-110 369,-129"/>
<text text-anchor="middle" x="335.5" y="-117" font-family="Helvetica,sans-Serif" font-size="10.00">core/array.h</text>
</a>
</g>
</g>
<!-- Node3&#45;&gt;Node8 -->
<g id="edge7" class="edge">
<title>Node3&#45;&gt;Node8</title>
<path fill="none" stroke="#63b8ff" d="M307.71,-219.76C299,-207.4 285.87,-184.21 293.5,-165 297.82,-154.12 306.2,-144.37 314.35,-136.78"/>
<polygon fill="#63b8ff" stroke="#63b8ff" points="316.43,-139.61 321.74,-130.44 311.87,-134.3 316.43,-139.61"/>
</g>
<!-- Node10 -->
<g id="node10" class="node">
<title>Node10</title>
<g id="a_node10"><a xlink:href="token_8h.html" target="_top" xlink:title=" ">
<polygon fill="white" stroke="#666666" points="710,-184 639,-184 639,-165 710,-165 710,-184"/>
<text text-anchor="middle" x="674.5" y="-172" font-family="Helvetica,sans-Serif" font-size="10.00">core/token.h</text>
</a>
</g>
</g>
<!-- Node3&#45;&gt;Node10 -->
<g id="edge10" class="edge">
<title>Node3&#45;&gt;Node10</title>
<path fill="none" stroke="#63b8ff" d="M347.4,-223.66C411.49,-214.22 553.27,-193.35 627.34,-182.44"/>
<polygon fill="#63b8ff" stroke="#63b8ff" points="627.75,-185.92 637.13,-181 626.73,-179 627.75,-185.92"/>
</g>
<!-- Node18 -->
<g id="node18" class="node">
<title>Node18</title>
<g id="a_node18"><a xlink:title=" ">
<polygon fill="#e0e0e0" stroke="#999999" points="354.5,-184 302.5,-184 302.5,-165 354.5,-165 354.5,-184"/>
<text text-anchor="middle" x="328.5" y="-172" font-family="Helvetica,sans-Serif" font-size="10.00">memory</text>
</a>
</g>
</g>
<!-- Node3&#45;&gt;Node18 -->
<g id="edge23" class="edge">
<title>Node3&#45;&gt;Node18</title>
<path fill="none" stroke="#63b8ff" d="M316.81,-219.75C318.56,-213.11 321.04,-203.73 323.27,-195.31"/>
<polygon fill="#63b8ff" stroke="#63b8ff" points="326.58,-196.47 325.75,-185.91 319.81,-194.68 326.58,-196.47"/>
</g>
<!-- Node5 -->
<g id="node5" class="node">
<title>Node5</title>
<g id="a_node5"><a xlink:title=" ">
<polygon fill="#e0e0e0" stroke="#999999" points="423.5,-19 379.5,-19 379.5,0 423.5,0 423.5,-19"/>
<text text-anchor="middle" x="401.5" y="-7" font-family="Helvetica,sans-Serif" font-size="10.00">vector</text>
</a>
</g>
</g>
<!-- Node4&#45;&gt;Node5 -->
<g id="edge4" class="edge">
<title>Node4&#45;&gt;Node5</title>
<path fill="none" stroke="#63b8ff" d="M429.89,-54.75C425.38,-47.73 418.91,-37.64 413.29,-28.87"/>
<polygon fill="#63b8ff" stroke="#63b8ff" points="416.4,-27.24 408.05,-20.72 410.51,-31.02 416.4,-27.24"/>
</g>
<!-- Node6 -->
<g id="node6" class="node">
<title>Node6</title>
<g id="a_node6"><a xlink:title=" ">
<polygon fill="#e0e0e0" stroke="#999999" points="1074,-19 1033,-19 1033,0 1074,0 1074,-19"/>
<text text-anchor="middle" x="1053.5" y="-7" font-family="Helvetica,sans-Serif" font-size="10.00">string</text>
</a>
</g>
</g>
<!-- Node4&#45;&gt;Node6 -->
<g id="edge5" class="edge">
<title>Node4&#45;&gt;Node6</title>
<path fill="none" stroke="#63b8ff" d="M480.41,-61.27C595.41,-55.38 899.37,-38.63 1021.41,-18.9"/>
<polygon fill="#63b8ff" stroke="#63b8ff" points="1021.88,-22.37 1031.15,-17.24 1020.71,-15.47 1021.88,-22.37"/>
</g>
<!-- Node7 -->
<g id="node7" class="node">
<title>Node7</title>
<g id="a_node7"><a xlink:title=" ">
<polygon fill="#e0e0e0" stroke="#999999" points="495,-19 442,-19 442,0 495,0 495,-19"/>
<text text-anchor="middle" x="468.5" y="-7" font-family="Helvetica,sans-Serif" font-size="10.00">complex</text>
</a>
</g>
</g>
<!-- Node4&#45;&gt;Node7 -->
<g id="edge6" class="edge">
<title>Node4&#45;&gt;Node7</title>
<path fill="none" stroke="#63b8ff" d="M440.95,-54.75C445.27,-47.81 451.46,-37.86 456.88,-29.16"/>
<polygon fill="#63b8ff" stroke="#63b8ff" points="459.82,-31.07 462.13,-20.73 453.88,-27.37 459.82,-31.07"/>
</g>
<!-- Node8&#45;&gt;Node4 -->
<g id="edge8" class="edge">
<title>Node8&#45;&gt;Node4</title>
<path fill="none" stroke="#63b8ff" d="M352.46,-109.51C367.86,-101.35 390.81,-89.19 408.69,-79.71"/>
<polygon fill="#63b8ff" stroke="#63b8ff" points="410.25,-82.84 417.45,-75.07 406.97,-76.66 410.25,-82.84"/>
</g>
<!-- Node9 -->
<g id="node9" class="node">
<title>Node9</title>
<g id="a_node9"><a xlink:title=" ">
<polygon fill="#e0e0e0" stroke="#999999" points="358.5,-74 312.5,-74 312.5,-55 358.5,-55 358.5,-74"/>
<text text-anchor="middle" x="335.5" y="-62" font-family="Helvetica,sans-Serif" font-size="10.00">variant</text>
</a>
</g>
</g>
<!-- Node8&#45;&gt;Node9 -->
<g id="edge9" class="edge">
<title>Node8&#45;&gt;Node9</title>
<path fill="none" stroke="#63b8ff" d="M335.5,-109.75C335.5,-103.27 335.5,-94.16 335.5,-85.9"/>
<polygon fill="#63b8ff" stroke="#63b8ff" points="339,-85.96 335.5,-75.96 332,-85.96 339,-85.96"/>
</g>
<!-- Node10&#45;&gt;Node4 -->
<g id="edge13" class="edge">
<title>Node10&#45;&gt;Node4</title>
<path fill="none" stroke="#63b8ff" d="M652.82,-164.67C631.67,-155.94 598.65,-142.05 570.5,-129 553.37,-121.06 549.53,-118.16 532.5,-110 510.19,-99.31 484.76,-87.66 465.54,-78.97"/>
<polygon fill="#63b8ff" stroke="#63b8ff" points="467.22,-75.88 456.66,-74.96 464.34,-82.27 467.22,-75.88"/>
</g>
<!-- Node10&#45;&gt;Node8 -->
<g id="edge15" class="edge">
<title>Node10&#45;&gt;Node8</title>
<path fill="none" stroke="#63b8ff" d="M638.54,-167.88C576.2,-158.13 448.23,-138.12 380.25,-127.5"/>
<polygon fill="#63b8ff" stroke="#63b8ff" points="380.99,-124.07 370.57,-125.98 379.91,-130.99 380.99,-124.07"/>
</g>
<!-- Node11 -->
<g id="node11" class="node">
<title>Node11</title>
<g id="a_node11"><a xlink:href="token__type_8h.html" target="_top" xlink:title=" ">
<polygon fill="white" stroke="#666666" points="772,-74 699,-74 699,-55 772,-55 772,-74"/>
<text text-anchor="middle" x="735.5" y="-62" font-family="Helvetica,sans-Serif" font-size="10.00">token_type.h</text>
</a>
</g>
</g>
<!-- Node10&#45;&gt;Node11 -->
<g id="edge11" class="edge">
<title>Node10&#45;&gt;Node11</title>
<path fill="none" stroke="#63b8ff" d="M685.29,-164.68C694.78,-156.39 708.32,-143.17 716.5,-129 724.35,-115.41 729.23,-98.27 732.07,-85.23"/>
<polygon fill="#63b8ff" stroke="#63b8ff" points="735.45,-86.19 733.92,-75.71 728.58,-84.86 735.45,-86.19"/>
</g>
<!-- Node13 -->
<g id="node13" class="node">
<title>Node13</title>
<g id="a_node13"><a xlink:title=" ">
<polygon fill="#e0e0e0" stroke="#999999" points="915,-129 832,-129 832,-110 915,-110 915,-129"/>
<text text-anchor="middle" x="873.5" y="-117" font-family="Helvetica,sans-Serif" font-size="10.00">uni_algo/conv.h</text>
</a>
</g>
</g>
<!-- Node10&#45;&gt;Node13 -->
<g id="edge14" class="edge">
<title>Node10&#45;&gt;Node13</title>
<path fill="none" stroke="#63b8ff" d="M708.26,-164.51C741.52,-155.65 792.53,-142.07 829.07,-132.33"/>
<polygon fill="#63b8ff" stroke="#63b8ff" points="829.68,-135.79 838.45,-129.84 827.88,-129.03 829.68,-135.79"/>
</g>
<!-- Node14 -->
<g id="node14" class="node">
<title>Node14</title>
<g id="a_node14"><a xlink:href="conversion_8h.html" target="_top" xlink:title=" ">
<polygon fill="white" stroke="#666666" points="707.5,-129 579.5,-129 579.5,-110 707.5,-110 707.5,-129"/>
<text text-anchor="middle" x="643.5" y="-117" font-family="Helvetica,sans-Serif" font-size="10.00">core/helpers/conversion.h</text>
</a>
</g>
</g>
<!-- Node10&#45;&gt;Node14 -->
<g id="edge16" class="edge">
<title>Node10&#45;&gt;Node14</title>
<path fill="none" stroke="#63b8ff" d="M669.38,-164.75C665.32,-157.81 659.51,-147.86 654.41,-139.16"/>
<polygon fill="#63b8ff" stroke="#63b8ff" points="657.56,-137.61 649.49,-130.75 651.52,-141.15 657.56,-137.61"/>
</g>
<!-- Node15 -->
<g id="node15" class="node">
<title>Node15</title>
<g id="a_node15"><a xlink:title=" ">
<polygon fill="#e0e0e0" stroke="#999999" points="973.5,-129 933.5,-129 933.5,-110 973.5,-110 973.5,-129"/>
<text text-anchor="middle" x="953.5" y="-117" font-family="Helvetica,sans-Serif" font-size="10.00">utility</text>
</a>
</g>
</g>
<!-- Node10&#45;&gt;Node15 -->
<g id="edge20" class="edge">
<title>Node10&#45;&gt;Node15</title>
<path fill="none" stroke="#63b8ff" d="M710.35,-168.38C757.03,-161.43 841.32,-147.96 922.4,-129.28"/>
<polygon fill="#63b8ff" stroke="#63b8ff" points="922.88,-132.76 931.82,-127.07 921.29,-125.94 922.88,-132.76"/>
</g>
<!-- Node16 -->
<g id="node16" class="node">
<title>Node16</title>
<g id="a_node16"><a xlink:title=" ">
<polygon fill="#e0e0e0" stroke="#999999" points="813.5,-129 763.5,-129 763.5,-110 813.5,-110 813.5,-129"/>
<text text-anchor="middle" x="788.5" y="-117" font-family="Helvetica,sans-Serif" font-size="10.00">optional</text>
</a>
</g>
</g>
<!-- Node10&#45;&gt;Node16 -->
<g id="edge21" class="edge">
<title>Node10&#45;&gt;Node16</title>
<path fill="none" stroke="#63b8ff" d="M693.84,-164.51C711.72,-156.2 738.54,-143.73 759.07,-134.18"/>
<polygon fill="#63b8ff" stroke="#63b8ff" points="760.48,-137.39 768.07,-130 757.53,-131.04 760.48,-137.39"/>
</g>
<!-- Node17 -->
<g id="node17" class="node">
<title>Node17</title>
<g id="a_node17"><a xlink:href="position_8h.html" target="_top" xlink:title=" ">
<polygon fill="white" stroke="#666666" points="523,-129 464,-129 464,-110 523,-110 523,-129"/>
<text text-anchor="middle" x="493.5" y="-117" font-family="Helvetica,sans-Serif" font-size="10.00">position.h</text>
</a>
</g>
</g>
<!-- Node10&#45;&gt;Node17 -->
<g id="edge22" class="edge">
<title>Node10&#45;&gt;Node17</title>
<path fill="none" stroke="#63b8ff" d="M643.8,-164.51C613.62,-155.67 567.39,-142.14 534.17,-132.41"/>
<polygon fill="#63b8ff" stroke="#63b8ff" points="535.48,-129.15 524.9,-129.7 533.52,-135.86 535.48,-129.15"/>
</g>
<!-- Node12 -->
<g id="node12" class="node">
<title>Node12</title>
<g id="a_node12"><a xlink:title=" ">
<polygon fill="#e0e0e0" stroke="#999999" points="1014.5,-19 960.5,-19 960.5,0 1014.5,0 1014.5,-19"/>
<text text-anchor="middle" x="987.5" y="-7" font-family="Helvetica,sans-Serif" font-size="10.00">iostream</text>
</a>
</g>
</g>
<!-- Node11&#45;&gt;Node12 -->
<g id="edge12" class="edge">
<title>Node11&#45;&gt;Node12</title>
<path fill="none" stroke="#63b8ff" d="M772.41,-55.74C819.65,-45.8 901.08,-28.68 949.05,-18.59"/>
<polygon fill="#63b8ff" stroke="#63b8ff" points="949.64,-22.04 958.71,-16.56 948.2,-15.19 949.64,-22.04"/>
</g>
<!-- Node14&#45;&gt;Node4 -->
<g id="edge18" class="edge">
<title>Node14&#45;&gt;Node4</title>
<path fill="none" stroke="#63b8ff" d="M608.22,-109.51C573.3,-100.61 519.67,-86.95 481.45,-77.21"/>
<polygon fill="#63b8ff" stroke="#63b8ff" points="482.63,-73.9 472.08,-74.82 480.9,-80.68 482.63,-73.9"/>
</g>
<!-- Node14&#45;&gt;Node6 -->
<g id="edge17" class="edge">
<title>Node14&#45;&gt;Node6</title>
<path fill="none" stroke="#63b8ff" d="M647.16,-109.7C653.59,-95.46 668.37,-67.69 690.5,-55 752.29,-19.57 933.89,-31.98 1021.42,-18.83"/>
<polygon fill="#63b8ff" stroke="#63b8ff" points="1021.88,-22.31 1031.14,-17.16 1020.69,-15.41 1021.88,-22.31"/>
</g>
<!-- Node14&#45;&gt;Node11 -->
<g id="edge19" class="edge">
<title>Node14&#45;&gt;Node11</title>
<path fill="none" stroke="#63b8ff" d="M659.11,-109.51C673.2,-101.39 694.19,-89.3 710.6,-79.85"/>
<polygon fill="#63b8ff" stroke="#63b8ff" points="711.89,-83.14 718.81,-75.11 708.4,-77.07 711.89,-83.14"/>
</g>
<!-- Node19&#45;&gt;Node3 -->
<g id="edge31" class="edge">
<title>Node19&#45;&gt;Node3</title>
<path fill="none" stroke="#63b8ff" d="M516.94,-280.05C474.27,-269.61 403.75,-252.35 358.22,-241.2"/>
<polygon fill="#63b8ff" stroke="#63b8ff" points="359.23,-237.84 348.68,-238.87 357.56,-244.64 359.23,-237.84"/>
</g>
<!-- Node19&#45;&gt;Node4 -->
<g id="edge29" class="edge">
<title>Node19&#45;&gt;Node4</title>
<path fill="none" stroke="#63b8ff" d="M546.29,-280.27C523.17,-252.09 451.7,-163.39 439.5,-129 434.57,-115.1 433.69,-98.43 433.98,-85.66"/>
<polygon fill="#63b8ff" stroke="#63b8ff" points="437.46,-86.11 434.48,-75.94 430.47,-85.75 437.46,-86.11"/>
</g>
<!-- Node19&#45;&gt;Node6 -->
<g id="edge25" class="edge">
<title>Node19&#45;&gt;Node6</title>
<path fill="none" stroke="#63b8ff" d="M607.34,-287.31C673.02,-283.76 786.54,-272.81 877.5,-239 920.73,-222.93 932.97,-216.69 965.5,-184 985.77,-163.63 985.96,-154.35 999.5,-129 1017.73,-94.88 1035.71,-53.44 1045.63,-29.7"/>
<polygon fill="#63b8ff" stroke="#63b8ff" points="1048.77,-31.28 1049.36,-20.7 1042.3,-28.6 1048.77,-31.28"/>
</g>
<!-- Node19&#45;&gt;Node8 -->
<g id="edge27" class="edge">
<title>Node19&#45;&gt;Node8</title>
<path fill="none" stroke="#63b8ff" d="M542.57,-280.13C517.18,-259.58 452.1,-207.22 396.5,-165 383.45,-155.09 368.6,-144.25 356.82,-135.75"/>
<polygon fill="#63b8ff" stroke="#63b8ff" points="359.14,-133.11 348.98,-130.11 355.06,-138.79 359.14,-133.11"/>
</g>
<!-- Node19&#45;&gt;Node10 -->
<g id="edge28" class="edge">
<title>Node19&#45;&gt;Node10</title>
<path fill="none" stroke="#63b8ff" d="M562.99,-280.09C583.23,-261.11 630.86,-216.43 656.84,-192.06"/>
<polygon fill="#63b8ff" stroke="#63b8ff" points="659.05,-194.79 663.95,-185.4 654.26,-189.69 659.05,-194.79"/>
</g>
<!-- Node19&#45;&gt;Node12 -->
<g id="edge26" class="edge">
<title>Node19&#45;&gt;Node12</title>
<path fill="none" stroke="#63b8ff" d="M607.39,-287.62C667.41,-284.31 766.18,-273.54 843.5,-239 915.43,-206.87 946.7,-199.18 982.5,-129 998.52,-97.6 995.35,-55.22 991.49,-30.57"/>
<polygon fill="#63b8ff" stroke="#63b8ff" points="994.98,-30.17 989.78,-20.94 988.09,-31.4 994.98,-30.17"/>
</g>
<!-- Node19&#45;&gt;Node17 -->
<g id="edge32" class="edge">
<title>Node19&#45;&gt;Node17</title>
<path fill="none" stroke="#63b8ff" d="M555.47,-280.28C559.77,-259.15 568.13,-204.08 548.5,-165 542.38,-152.81 531.23,-142.83 520.55,-135.43"/>
<polygon fill="#63b8ff" stroke="#63b8ff" points="522.64,-132.6 512.32,-130.18 518.87,-138.51 522.64,-132.6"/>
</g>
<!-- Node19&#45;&gt;Node18 -->
<g id="edge30" class="edge">
<title>Node19&#45;&gt;Node18</title>
<path fill="none" stroke="#63b8ff" d="M532.8,-280.03C510.72,-270.34 474.83,-254.23 444.5,-239 412.83,-223.09 377.18,-203.28 353.86,-190.06"/>
<polygon fill="#63b8ff" stroke="#63b8ff" points="355.81,-187.14 345.39,-185.23 352.35,-193.22 355.81,-187.14"/>
</g>
<!-- Node20&#45;&gt;Node4 -->
<g id="edge34" class="edge">
<title>Node20&#45;&gt;Node4</title>
<path fill="none" stroke="#63b8ff" d="M1168.83,-346.01C1173.9,-325.62 1185.5,-274.23 1185.5,-230.5 1185.5,-230.5 1185.5,-230.5 1185.5,-173.5 1185.5,-144.04 1189.58,-128.3 1166.5,-110 1140.17,-89.12 658.73,-72.38 491.87,-67.18"/>
<polygon fill="#63b8ff" stroke="#63b8ff" points="492.03,-63.68 481.93,-66.87 491.81,-70.68 492.03,-63.68"/>
</g>
<!-- Node20&#45;&gt;Node11 -->
<g id="edge35" class="edge">
<title>Node20&#45;&gt;Node11</title>
<path fill="none" stroke="#63b8ff" d="M1189.36,-346.03C1227.39,-329.44 1299.5,-290.12 1299.5,-230.5 1299.5,-230.5 1299.5,-230.5 1299.5,-173.5 1299.5,-120.85 1249.3,-127.09 1199.5,-110 1123.5,-83.91 886.17,-71.52 783.56,-67.27"/>
<polygon fill="#63b8ff" stroke="#63b8ff" points="783.96,-63.79 773.83,-66.88 783.68,-70.78 783.96,-63.79"/>
</g>
<!-- Node21 -->
<g id="node21" class="node">
<title>Node21</title>
<g id="a_node21"><a xlink:title=" ">
<polygon fill="#e0e0e0" stroke="#999999" points="1079,-299.5 1044,-299.5 1044,-280.5 1079,-280.5 1079,-299.5"/>
<text text-anchor="middle" x="1061.5" y="-287.5" font-family="Helvetica,sans-Serif" font-size="10.00">map</text>
</a>
</g>
</g>
<!-- Node20&#45;&gt;Node21 -->
<g id="edge36" class="edge">
<title>Node20&#45;&gt;Node21</title>
<path fill="none" stroke="#63b8ff" d="M1151.9,-346.1C1134.74,-335.64 1106.01,-318.13 1085.54,-305.66"/>
<polygon fill="#63b8ff" stroke="#63b8ff" points="1087.63,-302.83 1077.27,-300.61 1083.99,-308.8 1087.63,-302.83"/>
</g>
<!-- Node22&#45;&gt;Node11 -->
<g id="edge42" class="edge">
<title>Node22&#45;&gt;Node11</title>
<path fill="none" stroke="#63b8ff" d="M298.67,-411.2C240.25,-405.94 162.9,-394.64 143.5,-371 124.16,-347.44 167.76,-186.68 293.5,-110 326.54,-89.85 579.5,-73.94 687.2,-68.01"/>
<polygon fill="#63b8ff" stroke="#63b8ff" points="687.38,-71.51 697.17,-67.47 687,-64.52 687.38,-71.51"/>
</g>
<!-- Node23 -->
<g id="node23" class="node">
<title>Node23</title>
<g id="a_node23"><a xlink:href="node__visitor_8h.html" target="_top" xlink:title=" ">
<polygon fill="white" stroke="#666666" points="558,-371 451,-371 451,-341 558,-341 558,-371"/>
<text text-anchor="start" x="459" y="-359" font-family="Helvetica,sans-Serif" font-size="10.00">core/evaluation/node</text>
<text text-anchor="middle" x="504.5" y="-348" font-family="Helvetica,sans-Serif" font-size="10.00">_visitor.h</text>
</a>
</g>
</g>
<!-- Node22&#45;&gt;Node23 -->
<g id="edge38" class="edge">
<title>Node22&#45;&gt;Node23</title>
<path fill="none" stroke="#63b8ff" d="M388.31,-406.62C407.35,-398.48 436.15,-386.19 460.31,-375.87"/>
<polygon fill="#63b8ff" stroke="#63b8ff" points="461.47,-379.18 469.29,-372.03 458.72,-372.74 461.47,-379.18"/>
</g>
<!-- Node24 -->
<g id="node24" class="node">
<title>Node24</title>
<g id="a_node24"><a xlink:href="functions_8h.html" target="_top" xlink:title=" ">
<polygon fill="white" stroke="#666666" points="131,-305 0,-305 0,-275 131,-275 131,-305"/>
<text text-anchor="start" x="8" y="-293" font-family="Helvetica,sans-Serif" font-size="10.00">core/evaluation/operations</text>
<text text-anchor="middle" x="65.5" y="-282" font-family="Helvetica,sans-Serif" font-size="10.00">/functions.h</text>
</a>
</g>
</g>
<!-- Node22&#45;&gt;Node24 -->
<g id="edge43" class="edge">
<title>Node22&#45;&gt;Node24</title>
<path fill="none" stroke="#63b8ff" d="M298.67,-410.24C233.08,-404.06 140.09,-391.9 110.5,-371 91.83,-357.82 79.96,-334.3 73.12,-316.16"/>
<polygon fill="#63b8ff" stroke="#63b8ff" points="76.49,-315.18 69.92,-306.87 69.87,-317.47 76.49,-315.18"/>
</g>
<!-- Node27 -->
<g id="node27" class="node">
<title>Node27</title>
<g id="a_node27"><a xlink:href="monadic__operators_8h.html" target="_top" xlink:title=" ">
<polygon fill="white" stroke="#666666" points="284,-371 153,-371 153,-341 284,-341 284,-371"/>
<text text-anchor="start" x="161" y="-359" font-family="Helvetica,sans-Serif" font-size="10.00">core/evaluation/operations</text>
<text text-anchor="middle" x="218.5" y="-348" font-family="Helvetica,sans-Serif" font-size="10.00">/monadic_operators.h</text>
</a>
</g>
</g>
<!-- Node22&#45;&gt;Node27 -->
<g id="edge49" class="edge">
<title>Node22&#45;&gt;Node27</title>
<path fill="none" stroke="#63b8ff" d="M344.87,-406.62C323.98,-398.41 292.28,-385.97 265.86,-375.59"/>
<polygon fill="#63b8ff" stroke="#63b8ff" points="267.27,-372.39 256.69,-371.99 264.72,-378.91 267.27,-372.39"/>
</g>
<!-- Node28 -->
<g id="node28" class="node">
<title>Node28</title>
<g id="a_node28"><a xlink:href="dyadic__operators_8h.html" target="_top" xlink:title=" ">
<polygon fill="white" stroke="#666666" points="433,-371 302,-371 302,-341 433,-341 433,-371"/>
<text text-anchor="start" x="310" y="-359" font-family="Helvetica,sans-Serif" font-size="10.00">core/evaluation/operations</text>
<text text-anchor="middle" x="367.5" y="-348" font-family="Helvetica,sans-Serif" font-size="10.00">/dyadic_operators.h</text>
</a>
</g>
</g>
<!-- Node22&#45;&gt;Node28 -->
<g id="edge53" class="edge">
<title>Node22&#45;&gt;Node28</title>
<path fill="none" stroke="#63b8ff" d="M367.5,-406.87C367.5,-400.4 367.5,-391.2 367.5,-382.45"/>
<polygon fill="#63b8ff" stroke="#63b8ff" points="371,-382.63 367.5,-372.63 364,-382.63 371,-382.63"/>
</g>
<!-- Node29 -->
<g id="node29" class="node">
<title>Node29</title>
<g id="a_node29"><a xlink:href="error_8h.html" target="_top" xlink:title=" ">
<polygon fill="white" stroke="#666666" points="1110,-184 1045,-184 1045,-165 1110,-165 1110,-184"/>
<text text-anchor="middle" x="1077.5" y="-172" font-family="Helvetica,sans-Serif" font-size="10.00">core/error.h</text>
</a>
</g>
</g>
<!-- Node22&#45;&gt;Node29 -->
<g id="edge56" class="edge">
<title>Node22&#45;&gt;Node29</title>
<path fill="none" stroke="#63b8ff" d="M436.24,-412.04C500.79,-407.33 599.44,-396.36 681.5,-371 831.46,-324.66 994.8,-227.42 1054.24,-190.32"/>
<polygon fill="#63b8ff" stroke="#63b8ff" points="1055.91,-193.4 1062.52,-185.12 1052.19,-187.48 1055.91,-193.4"/>
</g>
<!-- Node23&#45;&gt;Node3 -->
<g id="edge40" class="edge">
<title>Node23&#45;&gt;Node3</title>
<path fill="none" stroke="#63b8ff" d="M450.51,-343.09C423.96,-335.34 392.57,-323.22 368.5,-305 348.65,-289.97 332.95,-265.63 323.71,-248.88"/>
<polygon fill="#63b8ff" stroke="#63b8ff" points="327.05,-247.71 319.3,-240.49 320.85,-250.97 327.05,-247.71"/>
</g>
<!-- Node23&#45;&gt;Node8 -->
<g id="edge39" class="edge">
<title>Node23&#45;&gt;Node8</title>
<path fill="none" stroke="#63b8ff" d="M494.18,-340.68C464.8,-299.91 380.7,-183.21 348.37,-138.36"/>
<polygon fill="#63b8ff" stroke="#63b8ff" points="351.38,-136.55 342.7,-130.48 345.7,-140.64 351.38,-136.55"/>
</g>
<!-- Node23&#45;&gt;Node19 -->
<g id="edge41" class="edge">
<title>Node23&#45;&gt;Node19</title>
<path fill="none" stroke="#63b8ff" d="M515.37,-340.8C522.56,-331.41 532.05,-319.02 539.76,-308.95"/>
<polygon fill="#63b8ff" stroke="#63b8ff" points="542.51,-311.11 545.81,-301.05 536.95,-306.86 542.51,-311.11"/>
</g>
<!-- Node24&#45;&gt;Node3 -->
<g id="edge48" class="edge">
<title>Node24&#45;&gt;Node3</title>
<path fill="none" stroke="#63b8ff" d="M127.05,-274.54C171.62,-264.07 230.79,-250.17 270.63,-240.81"/>
<polygon fill="#63b8ff" stroke="#63b8ff" points="271.42,-244.22 280.35,-238.52 269.82,-237.4 271.42,-244.22"/>
</g>
<!-- Node25 -->
<g id="node25" class="node">
<title>Node25</title>
<g id="a_node25"><a xlink:href="pervade_8h.html" target="_top" xlink:title=" ">
<polygon fill="white" stroke="#666666" points="117,-184 58,-184 58,-165 117,-165 117,-184"/>
<text text-anchor="middle" x="87.5" y="-172" font-family="Helvetica,sans-Serif" font-size="10.00">pervade.h</text>
</a>
</g>
</g>
<!-- Node24&#45;&gt;Node25 -->
<g id="edge44" class="edge">
<title>Node24&#45;&gt;Node25</title>
<path fill="none" stroke="#63b8ff" d="M68.29,-274.63C72.17,-254.59 79.23,-218.17 83.62,-195.49"/>
<polygon fill="#63b8ff" stroke="#63b8ff" points="87.05,-196.2 85.52,-185.72 80.18,-194.87 87.05,-196.2"/>
</g>
<!-- Node25&#45;&gt;Node4 -->
<g id="edge46" class="edge">
<title>Node25&#45;&gt;Node4</title>
<path fill="none" stroke="#63b8ff" d="M85.14,-164.76C82.03,-151.1 78.48,-124.75 92.5,-110 93.73,-108.71 282.12,-84.81 379.14,-72.59"/>
<polygon fill="#63b8ff" stroke="#63b8ff" points="379.52,-76.07 389,-71.34 378.64,-69.12 379.52,-76.07"/>
</g>
<!-- Node25&#45;&gt;Node8 -->
<g id="edge45" class="edge">
<title>Node25&#45;&gt;Node8</title>
<path fill="none" stroke="#63b8ff" d="M117.41,-167.11C160.44,-157.91 240.13,-140.88 290.35,-130.15"/>
<polygon fill="#63b8ff" stroke="#63b8ff" points="290.98,-133.59 300.03,-128.08 289.52,-126.75 290.98,-133.59"/>
</g>
<!-- Node26 -->
<g id="node26" class="node">
<title>Node26</title>
<g id="a_node26"><a xlink:title=" ">
<polygon fill="#e0e0e0" stroke="#999999" points="169.5,-129 101.5,-129 101.5,-110 169.5,-110 169.5,-129"/>
<text text-anchor="middle" x="135.5" y="-117" font-family="Helvetica,sans-Serif" font-size="10.00">pervade.tpp</text>
</a>
</g>
</g>
<!-- Node25&#45;&gt;Node26 -->
<g id="edge47" class="edge">
<title>Node25&#45;&gt;Node26</title>
<path fill="none" stroke="#63b8ff" d="M95.43,-164.75C102.06,-157.43 111.72,-146.76 119.89,-137.74"/>
<polygon fill="#63b8ff" stroke="#63b8ff" points="122.27,-140.33 126.39,-130.56 117.08,-135.63 122.27,-140.33"/>
</g>
<!-- Node27&#45;&gt;Node3 -->
<g id="edge50" class="edge">
<title>Node27&#45;&gt;Node3</title>
<path fill="none" stroke="#63b8ff" d="M229.51,-340.72C247.09,-317.93 281.45,-273.37 300.66,-248.45"/>
<polygon fill="#63b8ff" stroke="#63b8ff" points="303.39,-250.64 306.73,-240.58 297.85,-246.36 303.39,-250.64"/>
</g>
<!-- Node27&#45;&gt;Node4 -->
<g id="edge51" class="edge">
<title>Node27&#45;&gt;Node4</title>
<path fill="none" stroke="#63b8ff" d="M214.45,-340.57C208.35,-317.5 197.5,-270.83 197.5,-230.5 197.5,-230.5 197.5,-230.5 197.5,-173.5 197.5,-132.37 316.87,-95.33 386.53,-77.21"/>
<polygon fill="#63b8ff" stroke="#63b8ff" points="386.97,-80.71 395.79,-74.85 385.24,-73.93 386.97,-80.71"/>
</g>
<!-- Node27&#45;&gt;Node19 -->
<g id="edge52" class="edge">
<title>Node27&#45;&gt;Node19</title>
<path fill="none" stroke="#63b8ff" d="M284.29,-342.43C345.78,-330.68 436.7,-313.31 495.53,-302.08"/>
<polygon fill="#63b8ff" stroke="#63b8ff" points="495.83,-305.58 505,-300.27 494.52,-298.7 495.83,-305.58"/>
</g>
<!-- Node28&#45;&gt;Node3 -->
<g id="edge54" class="edge">
<title>Node28&#45;&gt;Node3</title>
<path fill="none" stroke="#63b8ff" d="M354.36,-340.74C346.32,-331.27 336.46,-318.19 330.5,-305 322.59,-287.48 318.5,-265.85 316.45,-250.41"/>
<polygon fill="#63b8ff" stroke="#63b8ff" points="319.94,-250.18 315.33,-240.64 312.99,-250.97 319.94,-250.18"/>
</g>
<!-- Node28&#45;&gt;Node19 -->
<g id="edge55" class="edge">
<title>Node28&#45;&gt;Node19</title>
<path fill="none" stroke="#63b8ff" d="M409.24,-340.64C441.48,-329.54 485.68,-314.34 516.63,-303.69"/>
<polygon fill="#63b8ff" stroke="#63b8ff" points="517.64,-307.04 525.95,-300.48 515.36,-300.42 517.64,-307.04"/>
</g>
<!-- Node29&#45;&gt;Node4 -->
<g id="edge62" class="edge">
<title>Node29&#45;&gt;Node4</title>
<path fill="none" stroke="#63b8ff" d="M1067.89,-164.58C1051.71,-150.16 1017.35,-122.14 982.5,-110 892.94,-78.8 611.88,-69.22 491.32,-66.49"/>
<polygon fill="#63b8ff" stroke="#63b8ff" points="491.75,-63 481.68,-66.29 491.6,-70 491.75,-63"/>
</g>
<!-- Node29&#45;&gt;Node12 -->
<g id="edge57" class="edge">
<title>Node29&#45;&gt;Node12</title>
<path fill="none" stroke="#63b8ff" d="M1110.41,-165.01C1141.82,-155.12 1182.19,-136.67 1166.5,-110 1136.22,-58.52 1068.6,-31.76 1025.69,-19.44"/>
<polygon fill="#63b8ff" stroke="#63b8ff" points="1026.85,-16.13 1016.28,-16.88 1025,-22.88 1026.85,-16.13"/>
</g>
<!-- Node29&#45;&gt;Node13 -->
<g id="edge63" class="edge">
<title>Node29&#45;&gt;Node13</title>
<path fill="none" stroke="#63b8ff" d="M1044.72,-164.98C1010.59,-156.12 956.87,-142.16 918.71,-132.25"/>
<polygon fill="#63b8ff" stroke="#63b8ff" points="919.92,-128.94 909.36,-129.82 918.16,-135.72 919.92,-128.94"/>
</g>
<!-- Node29&#45;&gt;Node15 -->
<g id="edge59" class="edge">
<title>Node29&#45;&gt;Node15</title>
<path fill="none" stroke="#63b8ff" d="M1056.47,-164.51C1036.63,-156.03 1006.68,-143.23 984.18,-133.61"/>
<polygon fill="#63b8ff" stroke="#63b8ff" points="985.78,-130.49 975.21,-129.78 983.02,-136.93 985.78,-130.49"/>
</g>
<!-- Node30 -->
<g id="node30" class="node">
<title>Node30</title>
<g id="a_node30"><a xlink:title=" ">
<polygon fill="#e0e0e0" stroke="#999999" points="1157.5,-129 1105.5,-129 1105.5,-110 1157.5,-110 1157.5,-129"/>
<text text-anchor="middle" x="1131.5" y="-117" font-family="Helvetica,sans-Serif" font-size="10.00">sstream</text>
</a>
</g>
</g>
<!-- Node29&#45;&gt;Node30 -->
<g id="edge58" class="edge">
<title>Node29&#45;&gt;Node30</title>
<path fill="none" stroke="#63b8ff" d="M1086.42,-164.75C1093.95,-157.35 1104.97,-146.54 1114.23,-137.45"/>
<polygon fill="#63b8ff" stroke="#63b8ff" points="1116.62,-140 1121.31,-130.5 1111.72,-135.01 1116.62,-140"/>
</g>
<!-- Node31 -->
<g id="node31" class="node">
<title>Node31</title>
<g id="a_node31"><a xlink:href="error__type_8h.html" target="_top" xlink:title=" ">
<polygon fill="white" stroke="#666666" points="1309.5,-74 1241.5,-74 1241.5,-55 1309.5,-55 1309.5,-74"/>
<text text-anchor="middle" x="1275.5" y="-62" font-family="Helvetica,sans-Serif" font-size="10.00">error_type.h</text>
</a>
</g>
</g>
<!-- Node29&#45;&gt;Node31 -->
<g id="edge60" class="edge">
<title>Node29&#45;&gt;Node31</title>
<path fill="none" stroke="#63b8ff" d="M1110.39,-171.46C1145.14,-167.81 1200.01,-157.58 1237.5,-129 1252.19,-117.8 1262.36,-99.16 1268.46,-84.96"/>
<polygon fill="#63b8ff" stroke="#63b8ff" points="1271.68,-86.34 1272.08,-75.75 1265.16,-83.78 1271.68,-86.34"/>
</g>
<!-- Node31&#45;&gt;Node6 -->
<g id="edge61" class="edge">
<title>Node31&#45;&gt;Node6</title>
<path fill="none" stroke="#63b8ff" d="M1241.3,-55.33C1198.81,-45.19 1126.87,-28.02 1085.46,-18.13"/>
<polygon fill="#63b8ff" stroke="#63b8ff" points="1086.4,-14.76 1075.86,-15.84 1084.77,-21.56 1086.4,-14.76"/>
</g>
<!-- Node32&#45;&gt;Node4 -->
<g id="edge65" class="edge">
<title>Node32&#45;&gt;Node4</title>
<path fill="none" stroke="#63b8ff" d="M743.1,-219.56C664.73,-197.13 466.03,-139.52 455.5,-129 443.98,-117.49 439.08,-99.42 437.01,-85.49"/>
<polygon fill="#63b8ff" stroke="#63b8ff" points="440.5,-85.25 435.95,-75.68 433.54,-86 440.5,-85.25"/>
</g>
<!-- Node32&#45;&gt;Node10 -->
<g id="edge66" class="edge">
<title>Node32&#45;&gt;Node10</title>
<path fill="none" stroke="#63b8ff" d="M757.54,-219.51C742.14,-211.35 719.19,-199.19 701.31,-189.71"/>
<polygon fill="#63b8ff" stroke="#63b8ff" points="703.03,-186.66 692.55,-185.07 699.75,-192.84 703.03,-186.66"/>
</g>
<!-- Node33&#45;&gt;Node6 -->
<g id="edge69" class="edge">
<title>Node33&#45;&gt;Node6</title>
<path fill="none" stroke="#63b8ff" d="M1007.96,-415.06C1066.13,-412.82 1161.64,-403.84 1236.5,-371 1288.94,-347.99 1337.5,-348.26 1337.5,-291 1337.5,-291 1337.5,-291 1337.5,-118.5 1337.5,-89.04 1340.58,-74.5 1318.5,-55 1284.33,-24.84 1147.93,-14.79 1085.27,-11.73"/>
<polygon fill="#63b8ff" stroke="#63b8ff" points="1085.78,-8.25 1075.63,-11.29 1085.46,-15.24 1085.78,-8.25"/>
</g>
<!-- Node33&#45;&gt;Node8 -->
<g id="edge70" class="edge">
<title>Node33&#45;&gt;Node8</title>
<path fill="none" stroke="#63b8ff" d="M936.61,-406.51C847.82,-364.27 471.91,-185.4 364.36,-134.23"/>
<polygon fill="#63b8ff" stroke="#63b8ff" points="366.15,-131.21 355.61,-130.07 363.14,-137.53 366.15,-131.21"/>
</g>
<!-- Node33&#45;&gt;Node19 -->
<g id="edge71" class="edge">
<title>Node33&#45;&gt;Node19</title>
<path fill="none" stroke="#63b8ff" d="M926.59,-406.55C855.84,-384.63 673.87,-328.28 593.12,-303.27"/>
<polygon fill="#63b8ff" stroke="#63b8ff" points="594.45,-300.02 583.86,-300.4 592.38,-306.71 594.45,-300.02"/>
</g>
<!-- Node33&#45;&gt;Node21 -->
<g id="edge68" class="edge">
<title>Node33&#45;&gt;Node21</title>
<path fill="none" stroke="#63b8ff" d="M978.25,-406.53C994.45,-399.13 1015.71,-387.21 1029.5,-371 1044.32,-353.58 1052.85,-328.43 1057.32,-311"/>
<polygon fill="#63b8ff" stroke="#63b8ff" points="1060.71,-311.9 1059.55,-301.37 1053.89,-310.32 1060.71,-311.9"/>
</g>
<!-- Node33&#45;&gt;Node29 -->
<g id="edge72" class="edge">
<title>Node33&#45;&gt;Node29</title>
<path fill="none" stroke="#63b8ff" d="M964.26,-406.54C972.34,-397.95 984.28,-384.35 992.5,-371 997.46,-362.94 1048.81,-242.82 1069.21,-194.96"/>
<polygon fill="#63b8ff" stroke="#63b8ff" points="1072.39,-196.43 1073.09,-185.86 1065.95,-193.69 1072.39,-196.43"/>
</g>
<!-- Node34 -->
<g id="node34" class="node">
<title>Node34</title>
<g id="a_node34"><a xlink:href="symbol_8h.html" target="_top" xlink:title=" ">
<polygon fill="white" stroke="#666666" points="983.5,-365.5 927.5,-365.5 927.5,-346.5 983.5,-346.5 983.5,-365.5"/>
<text text-anchor="middle" x="955.5" y="-353.5" font-family="Helvetica,sans-Serif" font-size="10.00">symbol.h</text>
</a>
</g>
</g>
<!-- Node33&#45;&gt;Node34 -->
<g id="edge73" class="edge">
<title>Node33&#45;&gt;Node34</title>
<path fill="none" stroke="#63b8ff" d="M955.5,-406.87C955.5,-399 955.5,-387.1 955.5,-376.89"/>
<polygon fill="#63b8ff" stroke="#63b8ff" points="959,-377.18 955.5,-367.18 952,-377.18 959,-377.18"/>
</g>
<!-- Node34&#45;&gt;Node8 -->
<g id="edge76" class="edge">
<title>Node34&#45;&gt;Node8</title>
<path fill="none" stroke="#63b8ff" d="M937.8,-346.08C907.74,-331.01 844.66,-299.72 790.5,-275 753.55,-258.14 743.81,-255.05 706.5,-239 686.93,-230.58 682.5,-227.33 662.5,-220 563.17,-183.57 443.58,-149.62 380.14,-132.37"/>
<polygon fill="#63b8ff" stroke="#63b8ff" points="381.36,-129.07 370.79,-129.84 379.53,-135.83 381.36,-129.07"/>
</g>
<!-- Node34&#45;&gt;Node16 -->
<g id="edge75" class="edge">
<title>Node34&#45;&gt;Node16</title>
<path fill="none" stroke="#63b8ff" d="M949.16,-346.09C924.56,-311.56 835.2,-186.08 801.49,-138.74"/>
<polygon fill="#63b8ff" stroke="#63b8ff" points="804.38,-136.76 795.73,-130.65 798.68,-140.82 804.38,-136.76"/>
</g>
<!-- Node34&#45;&gt;Node19 -->
<g id="edge77" class="edge">
<title>Node34&#45;&gt;Node19</title>
<path fill="none" stroke="#63b8ff" d="M927.23,-350.5C863.63,-340.37 707.86,-315.58 618.8,-301.4"/>
<polygon fill="#63b8ff" stroke="#63b8ff" points="619.41,-297.95 608.98,-299.83 618.3,-304.86 619.41,-297.95"/>
</g>
<!-- Node34&#45;&gt;Node21 -->
<g id="edge74" class="edge">
<title>Node34&#45;&gt;Node21</title>
<path fill="none" stroke="#63b8ff" d="M970.24,-346.1C987.56,-335.64 1016.57,-318.13 1037.23,-305.66"/>
<polygon fill="#63b8ff" stroke="#63b8ff" points="1038.84,-308.77 1045.59,-300.61 1035.22,-302.78 1038.84,-308.77"/>
</g>
</g>
</svg>
        <g id="navigator" transform="translate(0 0)" fill="#404254">
                <rect fill="#f2f5e9" fill-opacity="0.5" stroke="#606060" stroke-width=".5" x="0" y="0" width="60" height="60"/>
                <use id="zoomplus" xlink:href="#zoomPlus" x="17" y="9" onmousedown="handleZoom(evt,'in')"/>
                <use id="zoomminus" xlink:href="#zoomMin" x="42" y="9" onmousedown="handleZoom(evt,'out')"/>
                <use id="reset" xlink:href="#resetDef" x="30" y="36" onmousedown="handleReset()"/>
                <g id="arrowUp" xlink:href="#dirArrow" transform="translate(30 24)" onmousedown="handlePan(0,-1)">
                  <use xlink:href="#rim" fill="#404040">
                        <set attributeName="fill" to="#808080" begin="arrowUp.mouseover" end="arrowUp.mouseout"/>
                  </use>
                  <path fill="none" stroke="white" stroke-width="1.5" d="M0,-3.0v7 M-2.5,-0.5L0,-3.0L2.5,-0.5"/>
                </g>
                <g id="arrowRight" xlink:href="#dirArrow" transform="rotate(90) translate(36 -43)" onmousedown="handlePan(1,0)">
                  <use xlink:href="#rim" fill="#404040">
                        <set attributeName="fill" to="#808080" begin="arrowRight.mouseover" end="arrowRight.mouseout"/>
                  </use>
                  <path fill="none" stroke="white" stroke-width="1.5" d="M0,-3.0v7 M-2.5,-0.5L0,-3.0L2.5,-0.5"/>
                </g>
                <g id="arrowDown" xlink:href="#dirArrow" transform="rotate(180) translate(-30 -48)" onmousedown="handlePan(0,1)">
                  <use xlink:href="#rim" fill="#404040">
                        <set attributeName="fill" to="#808080" begin="arrowDown.mouseover" end="arrowDown.mouseout"/>
                  </use>
                  <path fill="none" stroke="white" stroke-width="1.5" d="M0,-3.0v7 M-2.5,-0.5L0,-3.0L2.5,-0.5"/>
                </g>
                <g id="arrowLeft" xlink:href="#dirArrow" transform="rotate(270) translate(-36 17)" onmousedown="handlePan(-1,0)">
                  <use xlink:href="#rim" fill="#404040">
                        <set attributeName="fill" to="#808080" begin="arrowLeft.mouseover" end="arrowLeft.mouseout"/>
                  </use>
                  <path fill="none" stroke="white" stroke-width="1.5" d="M0,-3.0v7 M-2.5,-0.5L0,-3.0L2.5,-0.5"/>
                </g>
        </g>
        <svg viewBox="0 0 15 15" width="100%" height="30px" preserveAspectRatio="xMaxYMin meet">
         <g id="arrow_out" transform="scale(0.3 0.3)">
          <a xlink:href="defined__function_8cpp__incl_org.svg" target="_base">
           <rect id="button" ry="5" rx="5" y="6" x="6" height="38" width="38"
                fill="#f2f5e9" fill-opacity="0.5" stroke="#606060" stroke-width="1.0"/>
           <path id="arrow"
             d="M 11.500037,31.436501 C 11.940474,20.09759 22.043105,11.32322 32.158766,21.979434 L 37.068811,17.246167 C 37.068811,17.246167 37.088388,32 37.088388,32 L 22.160133,31.978069 C 22.160133,31.978069 26.997745,27.140456 26.997745,27.140456 C 18.528582,18.264221 13.291696,25.230495 11.500037,31.436501 z"
             style="fill:#404040;"/>
          </a>
         </g>
        </svg>
</svg>
