<?xml version="1.0" encoding="UTF-8" standalone="no"?>
<!DOCTYPE svg PUBLIC "-//W3C//DTD SVG 1.1//EN"
 "http://www.w3.org/Graphics/SVG/1.1/DTD/svg11.dtd">
<!-- Generated by graphviz version 7.1.0 (20230121.1956)
 -->
<!-- Title: /Users/nikolajbankejensen/Desktop/Kepler/src Pages: 1 -->
<svg width="280pt" height="303pt"
 viewBox="0.00 0.00 280.00 303.00" xmlns="http://www.w3.org/2000/svg" xmlns:xlink="http://www.w3.org/1999/xlink">
<g id="graph0" class="graph" transform="scale(1 1) rotate(0) translate(4 299)">
<title>/Users/nikolajbankejensen/Desktop/Kepler/src</title>
<g id="clust1" class="cluster">
<title>clusterdir_68267d1309a1af8e8297ef4c3efbcdba</title>
<g id="a_clust1"><a xlink:href="dir_68267d1309a1af8e8297ef4c3efbcdba.html" target="_top">
<polygon fill="#edf0f7" stroke="#404040" stroke-width="2" points="8,-8 8,-287 264,-287 264,-8 8,-8"/>
</a>
</g>
</g>
<g id="clust2" class="cluster">
<title>clusterdir_7e61adcdd6240c13719e26939644c501</title>
<g id="a_clust2"><a xlink:href="dir_7e61adcdd6240c13719e26939644c501.html" target="_top">
<polygon fill="#eaeef6" stroke="#404040" points="162,-189 162,-279 256,-279 256,-189 162,-189"/>
</a>
</g>
</g>
<g id="clust3" class="cluster">
<title>clusterdir_aebb8dcc11953d78e620bbef0b9e2183</title>
<g id="a_clust3"><a xlink:href="dir_aebb8dcc11953d78e620bbef0b9e2183.html" target="_top">
<polygon fill="#eaeef6" stroke="#404040" points="40,-16 40,-169 134,-169 134,-16 40,-16"/>
</a>
</g>
</g>
<g id="clust4" class="cluster">
<title>clusterdir_3bc91e90964984b674db4c7fbeec786e</title>
<g id="a_clust4"><a xlink:href="dir_3bc91e90964984b674db4c7fbeec786e.html" target="_top">
<polygon fill="#e7ebf4" stroke="#404040" points="48,-24 48,-114 126,-114 126,-24 48,-24"/>
</a>
</g>
</g>
<g id="clust5" class="cluster">
<title>clusterdir_3513c77e68d0de165c8b48f945306dcb</title>
<g id="a_clust5"><a xlink:href="dir_3513c77e68d0de165c8b48f945306dcb.html" target="_top">
<polygon fill="#eaeef6" stroke="#404040" points="76,-189 76,-279 142,-279 142,-189 76,-189"/>
</a>
</g>
</g>
<!-- dir_68267d1309a1af8e8297ef4c3efbcdba -->
<g id="node1" class="node">
<title>dir_68267d1309a1af8e8297ef4c3efbcdba</title>
<text text-anchor="middle" x="51" y="-204" font-family="Helvetica,sans-Serif" font-size="10.00">src</text>
</g>
<!-- dir_aebb8dcc11953d78e620bbef0b9e2183 -->
<g id="node4" class="node">
<title>dir_aebb8dcc11953d78e620bbef0b9e2183</title>
<text text-anchor="middle" x="108" y="-149" font-family="Helvetica,sans-Serif" font-size="10.00">core</text>
</g>
<!-- dir_68267d1309a1af8e8297ef4c3efbcdba&#45;&gt;dir_aebb8dcc11953d78e620bbef0b9e2183 -->
<g id="edge2" class="edge">
<title>dir_68267d1309a1af8e8297ef4c3efbcdba&#45;&gt;dir_aebb8dcc11953d78e620bbef0b9e2183</title>
<path fill="none" stroke="#63b8ff" d="M59.91,-197.22C68.14,-189.56 80.6,-177.97 90.78,-168.51"/>
<polygon fill="#63b8ff" stroke="#63b8ff" points="92.92,-171.3 97.86,-161.93 88.15,-166.17 92.92,-171.3"/>
<g id="a_edge2&#45;headlabel"><a xlink:href="dir_000006_000001.html" target="_top" xlink:title="37">
<text text-anchor="middle" x="93.33" y="-172.3" font-family="Helvetica,sans-Serif" font-size="10.00" fill="#63b8ff">37</text>
</a>
</g>
</g>
<!-- dir_3bc91e90964984b674db4c7fbeec786e -->
<g id="node5" class="node">
<title>dir_3bc91e90964984b674db4c7fbeec786e</title>
<text text-anchor="middle" x="87" y="-94" font-family="Helvetica,sans-Serif" font-size="10.00">evaluation</text>
</g>
<!-- dir_68267d1309a1af8e8297ef4c3efbcdba&#45;&gt;dir_3bc91e90964984b674db4c7fbeec786e -->
<g id="edge1" class="edge">
<title>dir_68267d1309a1af8e8297ef4c3efbcdba&#45;&gt;dir_3bc91e90964984b674db4c7fbeec786e</title>
<path fill="none" stroke="#63b8ff" d="M52.83,-197.17C55.61,-184.92 61.29,-161.42 68,-142 70.98,-133.36 74.87,-124.02 78.34,-116.14"/>
<polygon fill="#63b8ff" stroke="#63b8ff" points="81.42,-117.82 82.37,-107.27 75.05,-114.93 81.42,-117.82"/>
<g id="a_edge1&#45;headlabel"><a xlink:href="dir_000006_000002.html" target="_top" xlink:title="15">
<text text-anchor="middle" x="83.15" y="-118.39" font-family="Helvetica,sans-Serif" font-size="10.00" fill="#63b8ff">15</text>
</a>
</g>
</g>
<!-- dir_7e61adcdd6240c13719e26939644c501 -->
<g id="node2" class="node">
<title>dir_7e61adcdd6240c13719e26939644c501</title>
<text text-anchor="middle" x="209" y="-259" font-family="Helvetica,sans-Serif" font-size="10.00">benchmarking</text>
</g>
<!-- dir_9c034957077503f6a9505f3d48171abe -->
<g id="node3" class="node">
<title>dir_9c034957077503f6a9505f3d48171abe</title>
<g id="a_node3"><a xlink:href="dir_9c034957077503f6a9505f3d48171abe.html" target="_top" xlink:title="suite">
<polygon fill="#e7ebf4" stroke="#404040" points="228,-216 190,-216 190,-197 228,-197 228,-216"/>
<text text-anchor="middle" x="209" y="-204" font-family="Helvetica,sans-Serif" font-size="10.00">suite</text>
</a>
</g>
</g>
<!-- dir_7e61adcdd6240c13719e26939644c501&#45;&gt;dir_9c034957077503f6a9505f3d48171abe -->
<g id="edge3" class="edge">
<title>dir_7e61adcdd6240c13719e26939644c501&#45;&gt;dir_9c034957077503f6a9505f3d48171abe</title>
<path fill="none" stroke="#63b8ff" d="M209,-252.22C209,-245.65 209,-236.18 209,-227.64"/>
<polygon fill="#63b8ff" stroke="#63b8ff" points="212.5,-227.77 209,-217.77 205.5,-227.77 212.5,-227.77"/>
<g id="a_edge3&#45;headlabel"><a xlink:href="dir_000000_000007.html" target="_top" xlink:title="2">
<text text-anchor="middle" x="215.34" y="-227.35" font-family="Helvetica,sans-Serif" font-size="10.00" fill="#63b8ff">2</text>
</a>
</g>
</g>
<!-- dir_aebb8dcc11953d78e620bbef0b9e2183&#45;&gt;dir_3bc91e90964984b674db4c7fbeec786e -->
<g id="edge4" class="edge">
<title>dir_aebb8dcc11953d78e620bbef0b9e2183&#45;&gt;dir_3bc91e90964984b674db4c7fbeec786e</title>
<path fill="none" stroke="#63b8ff" d="M104.72,-142.22C101.99,-135.34 98.01,-125.28 94.5,-116.44"/>
<polygon fill="#63b8ff" stroke="#63b8ff" points="97.82,-115.31 90.89,-107.31 91.31,-117.89 97.82,-115.31"/>
<g id="a_edge4&#45;headlabel"><a xlink:href="dir_000001_000002.html" target="_top" xlink:title="8">
<text text-anchor="middle" x="101.23" y="-113.7" font-family="Helvetica,sans-Serif" font-size="10.00" fill="#63b8ff">8</text>
</a>
</g>
</g>
<!-- dir_650ee533936399e683a30afb9473a469 -->
<g id="node7" class="node">
<title>dir_650ee533936399e683a30afb9473a469</title>
<g id="a_node7"><a xlink:href="dir_650ee533936399e683a30afb9473a469.html" target="_top" xlink:title="interface">
<polygon fill="#eaeef6" stroke="#404040" points="196,-106 142,-106 142,-87 196,-87 196,-106"/>
<text text-anchor="middle" x="169" y="-94" font-family="Helvetica,sans-Serif" font-size="10.00">interface</text>
</a>
</g>
</g>
<!-- dir_aebb8dcc11953d78e620bbef0b9e2183&#45;&gt;dir_650ee533936399e683a30afb9473a469 -->
<g id="edge5" class="edge">
<title>dir_aebb8dcc11953d78e620bbef0b9e2183&#45;&gt;dir_650ee533936399e683a30afb9473a469</title>
<path fill="none" stroke="#63b8ff" d="M112.47,-142.22C119.68,-134.42 132.96,-122.55 144.96,-113"/>
<polygon fill="#63b8ff" stroke="#63b8ff" points="146.75,-116.03 152.56,-107.17 142.49,-110.48 146.75,-116.03"/>
<g id="a_edge5&#45;headlabel"><a xlink:href="dir_000001_000004.html" target="_top" xlink:title="4">
<text text-anchor="middle" x="146.83" y="-117.05" font-family="Helvetica,sans-Serif" font-size="10.00" fill="#63b8ff">4</text>
</a>
</g>
</g>
<!-- dir_26d2dfe29c440647954c024effa8e236 -->
<g id="node6" class="node">
<title>dir_26d2dfe29c440647954c024effa8e236</title>
<g id="a_node6"><a xlink:href="dir_26d2dfe29c440647954c024effa8e236.html" target="_top" xlink:title="operations">
<polygon fill="#e5e9f3" stroke="#404040" points="118,-51 56,-51 56,-32 118,-32 118,-51"/>
<text text-anchor="middle" x="87" y="-39" font-family="Helvetica,sans-Serif" font-size="10.00">operations</text>
</a>
</g>
</g>
<!-- dir_3bc91e90964984b674db4c7fbeec786e&#45;&gt;dir_26d2dfe29c440647954c024effa8e236 -->
<g id="edge6" class="edge">
<title>dir_3bc91e90964984b674db4c7fbeec786e&#45;&gt;dir_26d2dfe29c440647954c024effa8e236</title>
<path fill="none" stroke="#63b8ff" d="M87,-87.22C87,-80.65 87,-71.18 87,-62.64"/>
<polygon fill="#63b8ff" stroke="#63b8ff" points="90.5,-62.77 87,-52.77 83.5,-62.77 90.5,-62.77"/>
<g id="a_edge6&#45;headlabel"><a xlink:href="dir_000002_000005.html" target="_top" xlink:title="6">
<text text-anchor="middle" x="93.34" y="-62.35" font-family="Helvetica,sans-Serif" font-size="10.00" fill="#63b8ff">6</text>
</a>
</g>
</g>
<!-- dir_3bc91e90964984b674db4c7fbeec786e&#45;&gt;dir_650ee533936399e683a30afb9473a469 -->
<g id="edge7" class="edge">
<title>dir_3bc91e90964984b674db4c7fbeec786e&#45;&gt;dir_650ee533936399e683a30afb9473a469</title>
<path fill="none" stroke="#63b8ff" d="M117.43,-96.5C121.71,-96.5 125.99,-96.5 130.27,-96.5"/>
<polygon fill="#63b8ff" stroke="#63b8ff" points="130.09,-100 140.09,-96.5 130.09,-93 130.09,-100"/>
<g id="a_edge7&#45;headlabel"><a xlink:href="dir_000002_000004.html" target="_top" xlink:title="2">
<text text-anchor="middle" x="128.01" y="-100.34" font-family="Helvetica,sans-Serif" font-size="10.00" fill="#63b8ff">2</text>
</a>
</g>
</g>
<!-- dir_650ee533936399e683a30afb9473a469&#45;&gt;dir_aebb8dcc11953d78e620bbef0b9e2183 -->
<g id="edge8" class="edge">
<title>dir_650ee533936399e683a30afb9473a469&#45;&gt;dir_aebb8dcc11953d78e620bbef0b9e2183</title>
<path fill="none" stroke="#63b8ff" d="M164.09,-106.25C156.72,-114.13 143.53,-125.88 131.68,-135.29"/>
<polygon fill="#63b8ff" stroke="#63b8ff" points="129.63,-132.45 123.8,-141.3 133.87,-138.02 129.63,-132.45"/>
<g id="a_edge8&#45;headlabel"><a xlink:href="dir_000004_000001.html" target="_top" xlink:title="7">
<text text-anchor="middle" x="129.56" y="-126.43" font-family="Helvetica,sans-Serif" font-size="10.00" fill="#63b8ff">7</text>
</a>
</g>
</g>
<!-- dir_3513c77e68d0de165c8b48f945306dcb -->
<g id="node8" class="node">
<title>dir_3513c77e68d0de165c8b48f945306dcb</title>
<text text-anchor="middle" x="109" y="-259" font-family="Helvetica,sans-Serif" font-size="10.00">testing</text>
</g>
<!-- dir_3513c77e68d0de165c8b48f945306dcb&#45;&gt;dir_aebb8dcc11953d78e620bbef0b9e2183 -->
<g id="edge11" class="edge">
<title>dir_3513c77e68d0de165c8b48f945306dcb&#45;&gt;dir_aebb8dcc11953d78e620bbef0b9e2183</title>
<path fill="none" stroke="#63b8ff" d="M118.29,-252.01C126.58,-243.75 138.14,-230.37 143,-216 146.85,-204.63 147.48,-200.13 143,-189 139.88,-181.23 134.22,-174.18 128.35,-168.39"/>
<polygon fill="#63b8ff" stroke="#63b8ff" points="130.81,-165.9 121.01,-161.89 126.17,-171.14 130.81,-165.9"/>
<g id="a_edge11&#45;headlabel"><a xlink:href="dir_000008_000001.html" target="_top" xlink:title="20">
<text text-anchor="middle" x="134.25" y="-162.65" font-family="Helvetica,sans-Serif" font-size="10.00" fill="#63b8ff">20</text>
</a>
</g>
</g>
<!-- dir_3513c77e68d0de165c8b48f945306dcb&#45;&gt;dir_3bc91e90964984b674db4c7fbeec786e -->
<g id="edge9" class="edge">
<title>dir_3513c77e68d0de165c8b48f945306dcb&#45;&gt;dir_3bc91e90964984b674db4c7fbeec786e</title>
<path fill="none" stroke="#63b8ff" d="M86.27,-255.88C65.47,-250.31 35.9,-238.72 22,-216 4.84,-187.94 6.66,-171.09 22,-142 29.15,-128.45 42.49,-118.23 55.24,-111.03"/>
<polygon fill="#63b8ff" stroke="#63b8ff" points="56.57,-114.28 63.85,-106.59 53.36,-108.06 56.57,-114.28"/>
<g id="a_edge9&#45;headlabel"><a xlink:href="dir_000008_000002.html" target="_top" xlink:title="6">
<text text-anchor="middle" x="56.02" y="-115.26" font-family="Helvetica,sans-Serif" font-size="10.00" fill="#63b8ff">6</text>
</a>
</g>
</g>
<!-- dir_548531dae210d533c3bbafc5da448d42 -->
<g id="node9" class="node">
<title>dir_548531dae210d533c3bbafc5da448d42</title>
<g id="a_node9"><a xlink:href="dir_548531dae210d533c3bbafc5da448d42.html" target="_top" xlink:title="fixtures">
<polygon fill="#e7ebf4" stroke="#404040" points="133.5,-216 84.5,-216 84.5,-197 133.5,-197 133.5,-216"/>
<text text-anchor="middle" x="109" y="-204" font-family="Helvetica,sans-Serif" font-size="10.00">fixtures</text>
</a>
</g>
</g>
<!-- dir_3513c77e68d0de165c8b48f945306dcb&#45;&gt;dir_548531dae210d533c3bbafc5da448d42 -->
<g id="edge10" class="edge">
<title>dir_3513c77e68d0de165c8b48f945306dcb&#45;&gt;dir_548531dae210d533c3bbafc5da448d42</title>
<path fill="none" stroke="#63b8ff" d="M109,-252.22C109,-245.65 109,-236.18 109,-227.64"/>
<polygon fill="#63b8ff" stroke="#63b8ff" points="112.5,-227.77 109,-217.77 105.5,-227.77 112.5,-227.77"/>
<g id="a_edge10&#45;headlabel"><a xlink:href="dir_000008_000003.html" target="_top" xlink:title="7">
<text text-anchor="middle" x="115.34" y="-227.35" font-family="Helvetica,sans-Serif" font-size="10.00" fill="#63b8ff">7</text>
</a>
</g>
</g>
<!-- dir_548531dae210d533c3bbafc5da448d42&#45;&gt;dir_aebb8dcc11953d78e620bbef0b9e2183 -->
<g id="edge13" class="edge">
<title>dir_548531dae210d533c3bbafc5da448d42&#45;&gt;dir_aebb8dcc11953d78e620bbef0b9e2183</title>
<path fill="none" stroke="#63b8ff" d="M108.83,-196.75C108.71,-190.03 108.53,-180.5 108.37,-172"/>
<polygon fill="#63b8ff" stroke="#63b8ff" points="111.87,-172.19 108.18,-162.25 104.87,-172.32 111.87,-172.19"/>
<g id="a_edge13&#45;headlabel"><a xlink:href="dir_000003_000001.html" target="_top" xlink:title="10">
<text text-anchor="middle" x="114.75" y="-171.71" font-family="Helvetica,sans-Serif" font-size="10.00" fill="#63b8ff">10</text>
</a>
</g>
</g>
<!-- dir_548531dae210d533c3bbafc5da448d42&#45;&gt;dir_3bc91e90964984b674db4c7fbeec786e -->
<g id="edge12" class="edge">
<title>dir_548531dae210d533c3bbafc5da448d42&#45;&gt;dir_3bc91e90964984b674db4c7fbeec786e</title>
<path fill="none" stroke="#63b8ff" d="M97.46,-196.68C89.76,-190.03 80.3,-180.16 76,-169 69.38,-151.8 73.96,-130.82 79.08,-116.05"/>
<polygon fill="#63b8ff" stroke="#63b8ff" points="82.19,-117.72 82.55,-107.13 75.66,-115.19 82.19,-117.72"/>
<g id="a_edge12&#45;headlabel"><a xlink:href="dir_000003_000002.html" target="_top" xlink:title="5">
<text text-anchor="middle" x="84.08" y="-118.19" font-family="Helvetica,sans-Serif" font-size="10.00" fill="#63b8ff">5</text>
</a>
</g>
</g>
</g>
</svg>
