<?xml version="1.0" encoding="UTF-8" standalone="no"?>
<!DOCTYPE svg PUBLIC "-//W3C//DTD SVG 1.1//EN"
 "http://www.w3.org/Graphics/SVG/1.1/DTD/svg11.dtd">
<!-- Generated by graphviz version 7.1.0 (20230121.1956)
 -->
<!-- Title: src/core/evaluation Pages: 1 -->
<svg width="212pt" height="196pt"
 viewBox="0.00 0.00 212.00 196.00" xmlns="http://www.w3.org/2000/svg" xmlns:xlink="http://www.w3.org/1999/xlink">
<g id="graph0" class="graph" transform="scale(1 1) rotate(0) translate(4 192)">
<title>src/core/evaluation</title>
<g id="clust1" class="cluster">
<title>clusterdir_aebb8dcc11953d78e620bbef0b9e2183</title>
<g id="a_clust1"><a xlink:href="dir_aebb8dcc11953d78e620bbef0b9e2183.html" target="_top" xlink:title="core">
<polygon fill="#edf0f7" stroke="#7f7f7f" stroke-dasharray="5,2" points="8,-8 8,-180 196,-180 196,-8 8,-8"/>
<text text-anchor="middle" x="102" y="-168" font-family="Helvetica,sans-Serif" font-size="10.00">core</text>
</a>
</g>
</g>
<g id="clust2" class="cluster">
<title>clusterdir_3bc91e90964984b674db4c7fbeec786e</title>
<g id="a_clust2"><a xlink:href="dir_3bc91e90964984b674db4c7fbeec786e.html" target="_top">
<polygon fill="#edf0f7" stroke="#404040" stroke-width="2" points="16,-63 16,-153 168,-153 168,-63 16,-63"/>
</a>
</g>
</g>
<!-- dir_80404500aec6e02024659a58ab29e487 -->
<g id="node1" class="node">
<title>dir_80404500aec6e02024659a58ab29e487</title>
<g id="a_node1"><a xlink:href="dir_80404500aec6e02024659a58ab29e487.html" target="_top" xlink:title="constants">
<polygon fill="#eaeef6" stroke="#404040" points="167.5,-35 108.5,-35 108.5,-16 167.5,-16 167.5,-35"/>
<text text-anchor="middle" x="138" y="-23" font-family="Helvetica,sans-Serif" font-size="10.00">constants</text>
</a>
</g>
</g>
<!-- dir_707aa52d67938117542c6646238d6f70 -->
<g id="node2" class="node">
<title>dir_707aa52d67938117542c6646238d6f70</title>
<g id="a_node2"><a xlink:href="dir_707aa52d67938117542c6646238d6f70.html" target="_top" xlink:title="helpers">
<polygon fill="#eaeef6" stroke="#404040" points="70,-35 22,-35 22,-16 70,-16 70,-35"/>
<text text-anchor="middle" x="46" y="-23" font-family="Helvetica,sans-Serif" font-size="10.00">helpers</text>
</a>
</g>
</g>
<!-- dir_3bc91e90964984b674db4c7fbeec786e -->
<g id="node3" class="node">
<title>dir_3bc91e90964984b674db4c7fbeec786e</title>
<text text-anchor="middle" x="55" y="-133" font-family="Helvetica,sans-Serif" font-size="10.00">evaluation</text>
</g>
<!-- dir_3bc91e90964984b674db4c7fbeec786e&#45;&gt;dir_80404500aec6e02024659a58ab29e487 -->
<g id="edge2" class="edge">
<title>dir_3bc91e90964984b674db4c7fbeec786e&#45;&gt;dir_80404500aec6e02024659a58ab29e487</title>
<path fill="none" stroke="#63b8ff" d="M83.19,-126.04C110.33,-117.26 148.48,-103.01 157,-90 165.95,-76.33 159.12,-58.28 151.27,-44.92"/>
<polygon fill="#63b8ff" stroke="#63b8ff" points="154.26,-43.1 145.86,-36.65 148.4,-46.94 154.26,-43.1"/>
<g id="a_edge2&#45;headlabel"><a xlink:href="dir_000002_000000.html" target="_top" xlink:title="6">
<text text-anchor="middle" x="157.78" y="-40.79" font-family="Helvetica,sans-Serif" font-size="10.00" fill="#63b8ff">6</text>
</a>
</g>
</g>
<!-- dir_26d2dfe29c440647954c024effa8e236 -->
<g id="node4" class="node">
<title>dir_26d2dfe29c440647954c024effa8e236</title>
<g id="a_node4"><a xlink:href="dir_26d2dfe29c440647954c024effa8e236.html" target="_top" xlink:title="operations">
<polygon fill="#eaeef6" stroke="#404040" points="148,-90 86,-90 86,-71 148,-71 148,-90"/>
<text text-anchor="middle" x="117" y="-78" font-family="Helvetica,sans-Serif" font-size="10.00">operations</text>
</a>
</g>
</g>
<!-- dir_3bc91e90964984b674db4c7fbeec786e&#45;&gt;dir_26d2dfe29c440647954c024effa8e236 -->
<g id="edge1" class="edge">
<title>dir_3bc91e90964984b674db4c7fbeec786e&#45;&gt;dir_26d2dfe29c440647954c024effa8e236</title>
<path fill="none" stroke="#63b8ff" d="M64.69,-126.22C73.63,-118.58 87.15,-107.02 98.21,-97.56"/>
<polygon fill="#63b8ff" stroke="#63b8ff" points="100.28,-100.39 105.61,-91.24 95.74,-95.07 100.28,-100.39"/>
<g id="a_edge1&#45;headlabel"><a xlink:href="dir_000002_000005.html" target="_top" xlink:title="6">
<text text-anchor="middle" x="100.55" y="-101.4" font-family="Helvetica,sans-Serif" font-size="10.00" fill="#63b8ff">6</text>
</a>
</g>
</g>
<!-- dir_a340f5148a613b30c2ceb6bdd7928667 -->
<g id="node5" class="node">
<title>dir_a340f5148a613b30c2ceb6bdd7928667</title>
<g id="a_node5"><a xlink:href="dir_a340f5148a613b30c2ceb6bdd7928667.html" target="_top" xlink:title="parser">
<polygon fill="#eaeef6" stroke="#404040" points="68,-90 24,-90 24,-71 68,-71 68,-90"/>
<text text-anchor="middle" x="46" y="-78" font-family="Helvetica,sans-Serif" font-size="10.00">parser</text>
</a>
</g>
</g>
<!-- dir_3bc91e90964984b674db4c7fbeec786e&#45;&gt;dir_a340f5148a613b30c2ceb6bdd7928667 -->
<g id="edge3" class="edge">
<title>dir_3bc91e90964984b674db4c7fbeec786e&#45;&gt;dir_a340f5148a613b30c2ceb6bdd7928667</title>
<path fill="none" stroke="#63b8ff" d="M53.59,-126.22C52.46,-119.57 50.83,-109.96 49.37,-101.34"/>
<polygon fill="#63b8ff" stroke="#63b8ff" points="52.86,-101.02 47.74,-91.74 45.96,-102.19 52.86,-101.02"/>
<g id="a_edge3&#45;headlabel"><a xlink:href="dir_000002_000006.html" target="_top" xlink:title="1">
<text text-anchor="middle" x="56.01" y="-100.09" font-family="Helvetica,sans-Serif" font-size="10.00" fill="#63b8ff">1</text>
</a>
</g>
</g>
<!-- dir_26d2dfe29c440647954c024effa8e236&#45;&gt;dir_80404500aec6e02024659a58ab29e487 -->
<g id="edge4" class="edge">
<title>dir_26d2dfe29c440647954c024effa8e236&#45;&gt;dir_80404500aec6e02024659a58ab29e487</title>
<path fill="none" stroke="#63b8ff" d="M120.47,-70.75C123.13,-64.04 126.9,-54.52 130.26,-46.02"/>
<polygon fill="#63b8ff" stroke="#63b8ff" points="133.47,-47.44 133.9,-36.85 126.96,-44.86 133.47,-47.44"/>
<g id="a_edge4&#45;headlabel"><a xlink:href="dir_000005_000000.html" target="_top" xlink:title="3">
<text text-anchor="middle" x="135.34" y="-47.92" font-family="Helvetica,sans-Serif" font-size="10.00" fill="#63b8ff">3</text>
</a>
</g>
</g>
<!-- dir_a340f5148a613b30c2ceb6bdd7928667&#45;&gt;dir_80404500aec6e02024659a58ab29e487 -->
<g id="edge6" class="edge">
<title>dir_a340f5148a613b30c2ceb6bdd7928667&#45;&gt;dir_80404500aec6e02024659a58ab29e487</title>
<path fill="none" stroke="#63b8ff" d="M61.61,-70.51C75.7,-62.39 96.69,-50.3 113.1,-40.85"/>
<polygon fill="#63b8ff" stroke="#63b8ff" points="114.39,-44.14 121.31,-36.11 110.9,-38.07 114.39,-44.14"/>
<g id="a_edge6&#45;headlabel"><a xlink:href="dir_000006_000000.html" target="_top" xlink:title="1">
<text text-anchor="middle" x="114.01" y="-45.14" font-family="Helvetica,sans-Serif" font-size="10.00" fill="#63b8ff">1</text>
</a>
</g>
</g>
<!-- dir_a340f5148a613b30c2ceb6bdd7928667&#45;&gt;dir_707aa52d67938117542c6646238d6f70 -->
<g id="edge5" class="edge">
<title>dir_a340f5148a613b30c2ceb6bdd7928667&#45;&gt;dir_707aa52d67938117542c6646238d6f70</title>
<path fill="none" stroke="#63b8ff" d="M46,-70.75C46,-64.27 46,-55.16 46,-46.9"/>
<polygon fill="#63b8ff" stroke="#63b8ff" points="49.5,-46.96 46,-36.96 42.5,-46.96 49.5,-46.96"/>
<g id="a_edge5&#45;headlabel"><a xlink:href="dir_000006_000004.html" target="_top" xlink:title="2">
<text text-anchor="middle" x="52.34" y="-46.54" font-family="Helvetica,sans-Serif" font-size="10.00" fill="#63b8ff">2</text>
</a>
</g>
</g>
<!-- dir_f88ce63d4c239b9fed0a8e5d303df39c -->
<g id="node6" class="node">
<title>dir_f88ce63d4c239b9fed0a8e5d303df39c</title>
<g id="a_node6"><a xlink:href="dir_f88ce63d4c239b9fed0a8e5d303df39c.html" target="_top" xlink:title="tokenizer">
<polygon fill="#eaeef6" stroke="#404040" points="160,-145 104,-145 104,-126 160,-126 160,-145"/>
<text text-anchor="middle" x="132" y="-133" font-family="Helvetica,sans-Serif" font-size="10.00">tokenizer</text>
</a>
</g>
</g>
<!-- dir_f88ce63d4c239b9fed0a8e5d303df39c&#45;&gt;dir_80404500aec6e02024659a58ab29e487 -->
<g id="edge7" class="edge">
<title>dir_f88ce63d4c239b9fed0a8e5d303df39c&#45;&gt;dir_80404500aec6e02024659a58ab29e487</title>
<path fill="none" stroke="#63b8ff" d="M143.64,-125.73C153.31,-117.67 166.35,-104.74 172,-90 176.3,-78.8 176.4,-74.17 172,-63 169.02,-55.42 163.64,-48.48 158.02,-42.74"/>
<polygon fill="#63b8ff" stroke="#63b8ff" points="160.72,-40.47 150.99,-36.27 155.98,-45.62 160.72,-40.47"/>
<g id="a_edge7&#45;headlabel"><a xlink:href="dir_000009_000000.html" target="_top" xlink:title="1">
<text text-anchor="middle" x="164.18" y="-37.29" font-family="Helvetica,sans-Serif" font-size="10.00" fill="#63b8ff">1</text>
</a>
</g>
</g>
</g>
</svg>
