<?xml version="1.0" encoding="UTF-8" standalone="no"?>
<!DOCTYPE svg PUBLIC "-//W3C//DTD SVG 1.1//EN"
 "http://www.w3.org/Graphics/SVG/1.1/DTD/svg11.dtd">
<!-- Generated by graphviz version 7.1.0 (20230121.1956)
 -->
<!-- Title: src/core Pages: 1 -->
<svg width="260pt" height="259pt"
 viewBox="0.00 0.00 260.00 259.00" xmlns="http://www.w3.org/2000/svg" xmlns:xlink="http://www.w3.org/1999/xlink">
<g id="graph0" class="graph" transform="scale(1 1) rotate(0) translate(4 255)">
<title>src/core</title>
<g id="clust1" class="cluster">
<title>clusterdir_68267d1309a1af8e8297ef4c3efbcdba</title>
<g id="a_clust1"><a xlink:href="dir_68267d1309a1af8e8297ef4c3efbcdba.html" target="_top" xlink:title="src">
<polygon fill="#edf0f7" stroke="#404040" stroke-dasharray="5,2" points="8,-8 8,-243 244,-243 244,-8 8,-8"/>
<text text-anchor="middle" x="126" y="-231" font-family="Helvetica,sans-Serif" font-size="10.00">src</text>
</a>
</g>
</g>
<g id="clust2" class="cluster">
<title>clusterdir_aebb8dcc11953d78e620bbef0b9e2183</title>
<g id="a_clust2"><a xlink:href="dir_aebb8dcc11953d78e620bbef0b9e2183.html" target="_top">
<polygon fill="#edf0f7" stroke="#404040" stroke-width="2" points="16,-16 16,-216 236,-216 236,-16 16,-16"/>
</a>
</g>
</g>
<g id="clust3" class="cluster">
<title>clusterdir_3bc91e90964984b674db4c7fbeec786e</title>
<g id="a_clust3"><a xlink:href="dir_3bc91e90964984b674db4c7fbeec786e.html" target="_top">
<polygon fill="#eaeef6" stroke="#404040" points="44,-71 44,-161 216,-161 216,-71 44,-71"/>
</a>
</g>
</g>
<!-- dir_aebb8dcc11953d78e620bbef0b9e2183 -->
<g id="node1" class="node">
<title>dir_aebb8dcc11953d78e620bbef0b9e2183</title>
<text text-anchor="middle" x="157" y="-196" font-family="Helvetica,sans-Serif" font-size="10.00">core</text>
</g>
<!-- dir_80404500aec6e02024659a58ab29e487 -->
<g id="node2" class="node">
<title>dir_80404500aec6e02024659a58ab29e487</title>
<g id="a_node2"><a xlink:href="dir_80404500aec6e02024659a58ab29e487.html" target="_top" xlink:title="constants">
<polygon fill="#eaeef6" stroke="#404040" points="94.5,-43 35.5,-43 35.5,-24 94.5,-24 94.5,-43"/>
<text text-anchor="middle" x="65" y="-31" font-family="Helvetica,sans-Serif" font-size="10.00">constants</text>
</a>
</g>
</g>
<!-- dir_aebb8dcc11953d78e620bbef0b9e2183&#45;&gt;dir_80404500aec6e02024659a58ab29e487 -->
<g id="edge3" class="edge">
<title>dir_aebb8dcc11953d78e620bbef0b9e2183&#45;&gt;dir_80404500aec6e02024659a58ab29e487</title>
<path fill="none" stroke="#63b8ff" d="M139.51,-197.94C112.95,-197.54 63.07,-192.37 40,-161 16.3,-128.78 28.17,-109.21 40,-71 42.04,-64.4 45.74,-57.93 49.68,-52.31"/>
<polygon fill="#63b8ff" stroke="#63b8ff" points="52.4,-54.51 55.78,-44.47 46.87,-50.21 52.4,-54.51"/>
<g id="a_edge3&#45;headlabel"><a xlink:href="dir_000001_000000.html" target="_top" xlink:title="13">
<text text-anchor="middle" x="53.36" y="-55.4" font-family="Helvetica,sans-Serif" font-size="10.00" fill="#63b8ff">13</text>
</a>
</g>
</g>
<!-- dir_3bc91e90964984b674db4c7fbeec786e -->
<g id="node3" class="node">
<title>dir_3bc91e90964984b674db4c7fbeec786e</title>
<text text-anchor="middle" x="157" y="-141" font-family="Helvetica,sans-Serif" font-size="10.00">evaluation</text>
</g>
<!-- dir_aebb8dcc11953d78e620bbef0b9e2183&#45;&gt;dir_3bc91e90964984b674db4c7fbeec786e -->
<g id="edge1" class="edge">
<title>dir_aebb8dcc11953d78e620bbef0b9e2183&#45;&gt;dir_3bc91e90964984b674db4c7fbeec786e</title>
<path fill="none" stroke="#63b8ff" d="M157,-189.22C157,-182.57 157,-172.95 157,-164.34"/>
<polygon fill="#63b8ff" stroke="#63b8ff" points="160.5,-164.41 157,-154.41 153.5,-164.41 160.5,-164.41"/>
<g id="a_edge1&#45;headlabel"><a xlink:href="dir_000001_000002.html" target="_top" xlink:title="12">
<text text-anchor="middle" x="163.34" y="-163.99" font-family="Helvetica,sans-Serif" font-size="10.00" fill="#63b8ff">12</text>
</a>
</g>
</g>
<!-- dir_a340f5148a613b30c2ceb6bdd7928667 -->
<g id="node5" class="node">
<title>dir_a340f5148a613b30c2ceb6bdd7928667</title>
<g id="a_node5"><a xlink:href="dir_a340f5148a613b30c2ceb6bdd7928667.html" target="_top" xlink:title="parser">
<polygon fill="#e7ebf4" stroke="#404040" points="208,-98 164,-98 164,-79 208,-79 208,-98"/>
<text text-anchor="middle" x="186" y="-86" font-family="Helvetica,sans-Serif" font-size="10.00">parser</text>
</a>
</g>
</g>
<!-- dir_aebb8dcc11953d78e620bbef0b9e2183&#45;&gt;dir_a340f5148a613b30c2ceb6bdd7928667 -->
<g id="edge4" class="edge">
<title>dir_aebb8dcc11953d78e620bbef0b9e2183&#45;&gt;dir_a340f5148a613b30c2ceb6bdd7928667</title>
<path fill="none" stroke="#63b8ff" d="M170.92,-189.23C180.22,-182.83 191.69,-173.04 197,-161 204.36,-144.32 199.83,-123.56 194.54,-108.72"/>
<polygon fill="#63b8ff" stroke="#63b8ff" points="197.88,-107.64 190.9,-99.67 191.38,-110.26 197.88,-107.64"/>
<g id="a_edge4&#45;headlabel"><a xlink:href="dir_000001_000006.html" target="_top" xlink:title="2">
<text text-anchor="middle" x="201.29" y="-106.02" font-family="Helvetica,sans-Serif" font-size="10.00" fill="#63b8ff">2</text>
</a>
</g>
</g>
<!-- dir_f88ce63d4c239b9fed0a8e5d303df39c -->
<g id="node6" class="node">
<title>dir_f88ce63d4c239b9fed0a8e5d303df39c</title>
<g id="a_node6"><a xlink:href="dir_f88ce63d4c239b9fed0a8e5d303df39c.html" target="_top" xlink:title="tokenizer">
<polygon fill="#e7ebf4" stroke="#404040" points="108,-153 52,-153 52,-134 108,-134 108,-153"/>
<text text-anchor="middle" x="80" y="-141" font-family="Helvetica,sans-Serif" font-size="10.00">tokenizer</text>
</a>
</g>
</g>
<!-- dir_aebb8dcc11953d78e620bbef0b9e2183&#45;&gt;dir_f88ce63d4c239b9fed0a8e5d303df39c -->
<g id="edge5" class="edge">
<title>dir_aebb8dcc11953d78e620bbef0b9e2183&#45;&gt;dir_f88ce63d4c239b9fed0a8e5d303df39c</title>
<path fill="none" stroke="#63b8ff" d="M144.97,-189.22C133.6,-181.39 116.27,-169.46 102.36,-159.89"/>
<polygon fill="#63b8ff" stroke="#63b8ff" points="104.44,-157.08 94.22,-154.29 100.47,-162.84 104.44,-157.08"/>
<g id="a_edge5&#45;headlabel"><a xlink:href="dir_000001_000009.html" target="_top" xlink:title="1">
<text text-anchor="middle" x="107.77" y="-153.42" font-family="Helvetica,sans-Serif" font-size="10.00" fill="#63b8ff">1</text>
</a>
</g>
</g>
<!-- dir_707aa52d67938117542c6646238d6f70 -->
<g id="node7" class="node">
<title>dir_707aa52d67938117542c6646238d6f70</title>
<g id="a_node7"><a xlink:href="dir_707aa52d67938117542c6646238d6f70.html" target="_top" xlink:title="helpers">
<polygon fill="#eaeef6" stroke="#404040" points="219,-43 171,-43 171,-24 219,-24 219,-43"/>
<text text-anchor="middle" x="195" y="-31" font-family="Helvetica,sans-Serif" font-size="10.00">helpers</text>
</a>
</g>
</g>
<!-- dir_aebb8dcc11953d78e620bbef0b9e2183&#45;&gt;dir_707aa52d67938117542c6646238d6f70 -->
<g id="edge2" class="edge">
<title>dir_aebb8dcc11953d78e620bbef0b9e2183&#45;&gt;dir_707aa52d67938117542c6646238d6f70</title>
<path fill="none" stroke="#63b8ff" d="M174.4,-192.77C189.46,-187.65 210.28,-177.87 220,-161 239.97,-126.34 231.83,-109.21 220,-71 217.96,-64.4 214.26,-57.93 210.32,-52.31"/>
<polygon fill="#63b8ff" stroke="#63b8ff" points="213.13,-50.21 204.22,-44.47 207.6,-54.51 213.13,-50.21"/>
<g id="a_edge2&#45;headlabel"><a xlink:href="dir_000001_000004.html" target="_top" xlink:title="6">
<text text-anchor="middle" x="216.65" y="-47.61" font-family="Helvetica,sans-Serif" font-size="10.00" fill="#63b8ff">6</text>
</a>
</g>
</g>
<!-- dir_3bc91e90964984b674db4c7fbeec786e&#45;&gt;dir_80404500aec6e02024659a58ab29e487 -->
<g id="edge7" class="edge">
<title>dir_3bc91e90964984b674db4c7fbeec786e&#45;&gt;dir_80404500aec6e02024659a58ab29e487</title>
<path fill="none" stroke="#63b8ff" d="M127.81,-134.04C109.73,-127.26 87.61,-115.86 75,-98 66.12,-85.43 63.91,-67.97 63.75,-54.54"/>
<polygon fill="#63b8ff" stroke="#63b8ff" points="67.25,-54.8 64.04,-44.7 60.25,-54.6 67.25,-54.8"/>
<g id="a_edge7&#45;headlabel"><a xlink:href="dir_000002_000000.html" target="_top" xlink:title="6">
<text text-anchor="middle" x="70.02" y="-54.47" font-family="Helvetica,sans-Serif" font-size="10.00" fill="#63b8ff">6</text>
</a>
</g>
</g>
<!-- dir_26d2dfe29c440647954c024effa8e236 -->
<g id="node4" class="node">
<title>dir_26d2dfe29c440647954c024effa8e236</title>
<g id="a_node4"><a xlink:href="dir_26d2dfe29c440647954c024effa8e236.html" target="_top" xlink:title="operations">
<polygon fill="#e7ebf4" stroke="#404040" points="146,-98 84,-98 84,-79 146,-79 146,-98"/>
<text text-anchor="middle" x="115" y="-86" font-family="Helvetica,sans-Serif" font-size="10.00">operations</text>
</a>
</g>
</g>
<!-- dir_3bc91e90964984b674db4c7fbeec786e&#45;&gt;dir_26d2dfe29c440647954c024effa8e236 -->
<g id="edge6" class="edge">
<title>dir_3bc91e90964984b674db4c7fbeec786e&#45;&gt;dir_26d2dfe29c440647954c024effa8e236</title>
<path fill="none" stroke="#63b8ff" d="M150.44,-134.22C144.68,-126.96 136.13,-116.16 128.87,-107"/>
<polygon fill="#63b8ff" stroke="#63b8ff" points="131.83,-105.1 122.88,-99.44 126.34,-109.45 131.83,-105.1"/>
<g id="a_edge6&#45;headlabel"><a xlink:href="dir_000002_000005.html" target="_top" xlink:title="6">
<text text-anchor="middle" x="135.35" y="-102.47" font-family="Helvetica,sans-Serif" font-size="10.00" fill="#63b8ff">6</text>
</a>
</g>
</g>
<!-- dir_3bc91e90964984b674db4c7fbeec786e&#45;&gt;dir_a340f5148a613b30c2ceb6bdd7928667 -->
<g id="edge8" class="edge">
<title>dir_3bc91e90964984b674db4c7fbeec786e&#45;&gt;dir_a340f5148a613b30c2ceb6bdd7928667</title>
<path fill="none" stroke="#63b8ff" d="M161.53,-134.22C165.34,-127.26 170.92,-117.06 175.79,-108.16"/>
<polygon fill="#63b8ff" stroke="#63b8ff" points="178.75,-110.03 180.48,-99.58 172.61,-106.67 178.75,-110.03"/>
<g id="a_edge8&#45;headlabel"><a xlink:href="dir_000002_000006.html" target="_top" xlink:title="1">
<text text-anchor="middle" x="180.25" y="-110.72" font-family="Helvetica,sans-Serif" font-size="10.00" fill="#63b8ff">1</text>
</a>
</g>
</g>
<!-- dir_26d2dfe29c440647954c024effa8e236&#45;&gt;dir_80404500aec6e02024659a58ab29e487 -->
<g id="edge9" class="edge">
<title>dir_26d2dfe29c440647954c024effa8e236&#45;&gt;dir_80404500aec6e02024659a58ab29e487</title>
<path fill="none" stroke="#63b8ff" d="M106.74,-78.75C99.84,-71.43 89.78,-60.76 81.26,-51.74"/>
<polygon fill="#63b8ff" stroke="#63b8ff" points="83.88,-49.42 74.47,-44.54 78.79,-54.22 83.88,-49.42"/>
<g id="a_edge9&#45;headlabel"><a xlink:href="dir_000005_000000.html" target="_top" xlink:title="3">
<text text-anchor="middle" x="87.38" y="-46.48" font-family="Helvetica,sans-Serif" font-size="10.00" fill="#63b8ff">3</text>
</a>
</g>
</g>
<!-- dir_a340f5148a613b30c2ceb6bdd7928667&#45;&gt;dir_80404500aec6e02024659a58ab29e487 -->
<g id="edge11" class="edge">
<title>dir_a340f5148a613b30c2ceb6bdd7928667&#45;&gt;dir_80404500aec6e02024659a58ab29e487</title>
<path fill="none" stroke="#63b8ff" d="M170.07,-78.61C165.28,-76.05 159.97,-73.32 155,-71 136.96,-62.57 116.4,-54.14 99.5,-47.52"/>
<polygon fill="#63b8ff" stroke="#63b8ff" points="100.98,-44.34 90.39,-43.99 98.45,-50.87 100.98,-44.34"/>
<g id="a_edge11&#45;headlabel"><a xlink:href="dir_000006_000000.html" target="_top" xlink:title="1">
<text text-anchor="middle" x="103.94" y="-39.94" font-family="Helvetica,sans-Serif" font-size="10.00" fill="#63b8ff">1</text>
</a>
</g>
</g>
<!-- dir_a340f5148a613b30c2ceb6bdd7928667&#45;&gt;dir_707aa52d67938117542c6646238d6f70 -->
<g id="edge10" class="edge">
<title>dir_a340f5148a613b30c2ceb6bdd7928667&#45;&gt;dir_707aa52d67938117542c6646238d6f70</title>
<path fill="none" stroke="#63b8ff" d="M187.49,-78.75C188.6,-72.19 190.17,-62.95 191.59,-54.6"/>
<polygon fill="#63b8ff" stroke="#63b8ff" points="195,-55.38 193.23,-44.93 188.1,-54.21 195,-55.38"/>
<g id="a_edge10&#45;headlabel"><a xlink:href="dir_000006_000004.html" target="_top" xlink:title="2">
<text text-anchor="middle" x="197.46" y="-55.41" font-family="Helvetica,sans-Serif" font-size="10.00" fill="#63b8ff">2</text>
</a>
</g>
</g>
<!-- dir_f88ce63d4c239b9fed0a8e5d303df39c&#45;&gt;dir_80404500aec6e02024659a58ab29e487 -->
<g id="edge12" class="edge">
<title>dir_f88ce63d4c239b9fed0a8e5d303df39c&#45;&gt;dir_80404500aec6e02024659a58ab29e487</title>
<path fill="none" stroke="#63b8ff" d="M74.68,-133.68C69.77,-124.97 62.81,-111.09 60,-98 56.91,-83.57 58.4,-66.92 60.54,-54.29"/>
<polygon fill="#63b8ff" stroke="#63b8ff" points="63.92,-55.21 62.44,-44.72 57.06,-53.84 63.92,-55.21"/>
<g id="a_edge12&#45;headlabel"><a xlink:href="dir_000009_000000.html" target="_top" xlink:title="1">
<text text-anchor="middle" x="66.3" y="-55.3" font-family="Helvetica,sans-Serif" font-size="10.00" fill="#63b8ff">1</text>
</a>
</g>
</g>
</g>
</svg>
