<?xml version="1.0" encoding="UTF-8" standalone="no"?>
<!DOCTYPE svg PUBLIC "-//W3C//DTD SVG 1.1//EN"
 "http://www.w3.org/Graphics/SVG/1.1/DTD/svg11.dtd">
<!-- Generated by graphviz version 7.1.0 (20230121.1956)
 -->
<!-- Title: src/testing Pages: 1 -->
<svg width="118pt" height="196pt"
 viewBox="0.00 0.00 118.00 196.00" xmlns="http://www.w3.org/2000/svg" xmlns:xlink="http://www.w3.org/1999/xlink">
<g id="graph0" class="graph" transform="scale(1 1) rotate(0) translate(4 192)">
<title>src/testing</title>
<g id="clust1" class="cluster">
<title>clusterdir_68267d1309a1af8e8297ef4c3efbcdba</title>
<g id="a_clust1"><a xlink:href="dir_68267d1309a1af8e8297ef4c3efbcdba.html" target="_top" xlink:title="src">
<polygon fill="#edf0f7" stroke="#404040" stroke-dasharray="5,2" points="8,-8 8,-180 102,-180 102,-8 8,-8"/>
<text text-anchor="middle" x="55" y="-168" font-family="Helvetica,sans-Serif" font-size="10.00">src</text>
</a>
</g>
</g>
<g id="clust2" class="cluster">
<title>clusterdir_3513c77e68d0de165c8b48f945306dcb</title>
<g id="a_clust2"><a xlink:href="dir_3513c77e68d0de165c8b48f945306dcb.html" target="_top">
<polygon fill="#edf0f7" stroke="#404040" stroke-width="2" points="16,-63 16,-153 82,-153 82,-63 16,-63"/>
</a>
</g>
</g>
<!-- dir_aebb8dcc11953d78e620bbef0b9e2183 -->
<g id="node1" class="node">
<title>dir_aebb8dcc11953d78e620bbef0b9e2183</title>
<g id="a_node1"><a xlink:href="dir_aebb8dcc11953d78e620bbef0b9e2183.html" target="_top" xlink:title="core">
<polygon fill="#eaeef6" stroke="red" points="79.5,-35 44.5,-35 44.5,-16 79.5,-16 79.5,-35"/>
<text text-anchor="middle" x="62" y="-23" font-family="Helvetica,sans-Serif" font-size="10.00">core</text>
</a>
</g>
</g>
<!-- dir_3513c77e68d0de165c8b48f945306dcb -->
<g id="node2" class="node">
<title>dir_3513c77e68d0de165c8b48f945306dcb</title>
<text text-anchor="middle" x="50" y="-133" font-family="Helvetica,sans-Serif" font-size="10.00">testing</text>
</g>
<!-- dir_3513c77e68d0de165c8b48f945306dcb&#45;&gt;dir_aebb8dcc11953d78e620bbef0b9e2183 -->
<g id="edge2" class="edge">
<title>dir_3513c77e68d0de165c8b48f945306dcb&#45;&gt;dir_aebb8dcc11953d78e620bbef0b9e2183</title>
<path fill="none" stroke="#63b8ff" d="M58.71,-126.27C66.78,-118 78.23,-104.43 83,-90 86.76,-78.61 86.1,-74.59 83,-63 81.32,-56.72 78.27,-50.39 75.01,-44.81"/>
<polygon fill="#63b8ff" stroke="#63b8ff" points="77.98,-42.96 69.6,-36.48 72.11,-46.78 77.98,-42.96"/>
<g id="a_edge2&#45;headlabel"><a xlink:href="dir_000008_000001.html" target="_top" xlink:title="20">
<text text-anchor="middle" x="81.5" y="-40.66" font-family="Helvetica,sans-Serif" font-size="10.00" fill="#63b8ff">20</text>
</a>
</g>
</g>
<!-- dir_548531dae210d533c3bbafc5da448d42 -->
<g id="node3" class="node">
<title>dir_548531dae210d533c3bbafc5da448d42</title>
<g id="a_node3"><a xlink:href="dir_548531dae210d533c3bbafc5da448d42.html" target="_top" xlink:title="fixtures">
<polygon fill="#eaeef6" stroke="#404040" points="73.5,-90 24.5,-90 24.5,-71 73.5,-71 73.5,-90"/>
<text text-anchor="middle" x="49" y="-78" font-family="Helvetica,sans-Serif" font-size="10.00">fixtures</text>
</a>
</g>
</g>
<!-- dir_3513c77e68d0de165c8b48f945306dcb&#45;&gt;dir_548531dae210d533c3bbafc5da448d42 -->
<g id="edge1" class="edge">
<title>dir_3513c77e68d0de165c8b48f945306dcb&#45;&gt;dir_548531dae210d533c3bbafc5da448d42</title>
<path fill="none" stroke="#63b8ff" d="M49.84,-126.22C49.72,-119.65 49.54,-110.18 49.38,-101.64"/>
<polygon fill="#63b8ff" stroke="#63b8ff" points="52.88,-101.7 49.19,-91.77 45.88,-101.83 52.88,-101.7"/>
<g id="a_edge1&#45;headlabel"><a xlink:href="dir_000008_000003.html" target="_top" xlink:title="7">
<text text-anchor="middle" x="55.76" y="-101.22" font-family="Helvetica,sans-Serif" font-size="10.00" fill="#63b8ff">7</text>
</a>
</g>
</g>
<!-- dir_548531dae210d533c3bbafc5da448d42&#45;&gt;dir_aebb8dcc11953d78e620bbef0b9e2183 -->
<g id="edge3" class="edge">
<title>dir_548531dae210d533c3bbafc5da448d42&#45;&gt;dir_aebb8dcc11953d78e620bbef0b9e2183</title>
<path fill="none" stroke="#63b8ff" d="M51.15,-70.75C52.76,-64.19 55.02,-54.95 57.07,-46.6"/>
<polygon fill="#63b8ff" stroke="#63b8ff" points="60.46,-47.46 59.45,-36.91 53.66,-45.79 60.46,-47.46"/>
<g id="a_edge3&#45;headlabel"><a xlink:href="dir_000003_000001.html" target="_top" xlink:title="10">
<text text-anchor="middle" x="62.72" y="-47.66" font-family="Helvetica,sans-Serif" font-size="10.00" fill="#63b8ff">10</text>
</a>
</g>
</g>
</g>
</svg>
