<?xml version="1.0" encoding="UTF-8" standalone="no"?>
<!DOCTYPE svg PUBLIC "-//W3C//DTD SVG 1.1//EN"
 "http://www.w3.org/Graphics/SVG/1.1/DTD/svg11.dtd">
<!-- Generated by graphviz version 7.1.0 (20230121.1956)
 -->
<!-- Title: /Users/nikolajbankejensen/Desktop/Kepler/src/core Pages: 1 -->
<svg width="196pt" height="212pt"
 viewBox="0.00 0.00 196.00 212.00" xmlns="http://www.w3.org/2000/svg" xmlns:xlink="http://www.w3.org/1999/xlink">
<g id="graph0" class="graph" transform="scale(1 1) rotate(0) translate(4 208)">
<title>/Users/nikolajbankejensen/Desktop/Kepler/src/core</title>
<g id="clust1" class="cluster">
<title>clusterdir_68267d1309a1af8e8297ef4c3efbcdba</title>
<g id="a_clust1"><a xlink:href="dir_68267d1309a1af8e8297ef4c3efbcdba.html" target="_top" xlink:title="src">
<polygon fill="#edf0f7" stroke="#404040" stroke-dasharray="5,2" points="8,-8 8,-196 180,-196 180,-8 8,-8"/>
<text text-anchor="middle" x="94" y="-184" font-family="Helvetica,sans-Serif" font-size="10.00">src</text>
</a>
</g>
</g>
<g id="clust2" class="cluster">
<title>clusterdir_aebb8dcc11953d78e620bbef0b9e2183</title>
<g id="a_clust2"><a xlink:href="dir_aebb8dcc11953d78e620bbef0b9e2183.html" target="_top">
<polygon fill="#edf0f7" stroke="#404040" stroke-width="2" points="16,-16 16,-169 110,-169 110,-16 16,-16"/>
</a>
</g>
</g>
<g id="clust3" class="cluster">
<title>clusterdir_3bc91e90964984b674db4c7fbeec786e</title>
<g id="a_clust3"><a xlink:href="dir_3bc91e90964984b674db4c7fbeec786e.html" target="_top">
<polygon fill="#eaeef6" stroke="#404040" points="24,-24 24,-114 102,-114 102,-24 24,-24"/>
</a>
</g>
</g>
<!-- dir_650ee533936399e683a30afb9473a469 -->
<g id="node1" class="node">
<title>dir_650ee533936399e683a30afb9473a469</title>
<g id="a_node1"><a xlink:href="dir_650ee533936399e683a30afb9473a469.html" target="_top" xlink:title="interface">
<polygon fill="#eaeef6" stroke="#404040" points="172,-51 118,-51 118,-32 172,-32 172,-51"/>
<text text-anchor="middle" x="145" y="-39" font-family="Helvetica,sans-Serif" font-size="10.00">interface</text>
</a>
</g>
</g>
<!-- dir_aebb8dcc11953d78e620bbef0b9e2183 -->
<g id="node2" class="node">
<title>dir_aebb8dcc11953d78e620bbef0b9e2183</title>
<text text-anchor="middle" x="73" y="-149" font-family="Helvetica,sans-Serif" font-size="10.00">core</text>
</g>
<!-- dir_aebb8dcc11953d78e620bbef0b9e2183&#45;&gt;dir_650ee533936399e683a30afb9473a469 -->
<g id="edge2" class="edge">
<title>dir_aebb8dcc11953d78e620bbef0b9e2183&#45;&gt;dir_650ee533936399e683a30afb9473a469</title>
<path fill="none" stroke="#63b8ff" d="M81.47,-142.28C88.53,-135.19 98.58,-124.45 106,-114 118,-97.09 129.05,-76.1 136.3,-61.24"/>
<polygon fill="#63b8ff" stroke="#63b8ff" points="139.27,-63.15 140.4,-52.62 132.94,-60.14 139.27,-63.15"/>
<g id="a_edge2&#45;headlabel"><a xlink:href="dir_000001_000004.html" target="_top" xlink:title="4">
<text text-anchor="middle" x="140.93" y="-63.75" font-family="Helvetica,sans-Serif" font-size="10.00" fill="#63b8ff">4</text>
</a>
</g>
</g>
<!-- dir_3bc91e90964984b674db4c7fbeec786e -->
<g id="node3" class="node">
<title>dir_3bc91e90964984b674db4c7fbeec786e</title>
<text text-anchor="middle" x="63" y="-94" font-family="Helvetica,sans-Serif" font-size="10.00">evaluation</text>
</g>
<!-- dir_aebb8dcc11953d78e620bbef0b9e2183&#45;&gt;dir_3bc91e90964984b674db4c7fbeec786e -->
<g id="edge1" class="edge">
<title>dir_aebb8dcc11953d78e620bbef0b9e2183&#45;&gt;dir_3bc91e90964984b674db4c7fbeec786e</title>
<path fill="none" stroke="#63b8ff" d="M71.44,-142.22C70.17,-135.49 68.33,-125.73 66.69,-117.04"/>
<polygon fill="#63b8ff" stroke="#63b8ff" points="70.16,-116.56 64.87,-107.39 63.28,-117.86 70.16,-116.56"/>
<g id="a_edge1&#45;headlabel"><a xlink:href="dir_000001_000002.html" target="_top" xlink:title="8">
<text text-anchor="middle" x="73.33" y="-115.58" font-family="Helvetica,sans-Serif" font-size="10.00" fill="#63b8ff">8</text>
</a>
</g>
</g>
<!-- dir_3bc91e90964984b674db4c7fbeec786e&#45;&gt;dir_650ee533936399e683a30afb9473a469 -->
<g id="edge4" class="edge">
<title>dir_3bc91e90964984b674db4c7fbeec786e&#45;&gt;dir_650ee533936399e683a30afb9473a469</title>
<path fill="none" stroke="#63b8ff" d="M75.81,-87.22C88.04,-79.32 106.74,-67.23 121.62,-57.61"/>
<polygon fill="#63b8ff" stroke="#63b8ff" points="123.41,-60.62 129.91,-52.25 119.61,-54.74 123.41,-60.62"/>
<g id="a_edge4&#45;headlabel"><a xlink:href="dir_000002_000004.html" target="_top" xlink:title="2">
<text text-anchor="middle" x="123.21" y="-61.63" font-family="Helvetica,sans-Serif" font-size="10.00" fill="#63b8ff">2</text>
</a>
</g>
</g>
<!-- dir_26d2dfe29c440647954c024effa8e236 -->
<g id="node4" class="node">
<title>dir_26d2dfe29c440647954c024effa8e236</title>
<g id="a_node4"><a xlink:href="dir_26d2dfe29c440647954c024effa8e236.html" target="_top" xlink:title="operations">
<polygon fill="#e7ebf4" stroke="#404040" points="94,-51 32,-51 32,-32 94,-32 94,-51"/>
<text text-anchor="middle" x="63" y="-39" font-family="Helvetica,sans-Serif" font-size="10.00">operations</text>
</a>
</g>
</g>
<!-- dir_3bc91e90964984b674db4c7fbeec786e&#45;&gt;dir_26d2dfe29c440647954c024effa8e236 -->
<g id="edge3" class="edge">
<title>dir_3bc91e90964984b674db4c7fbeec786e&#45;&gt;dir_26d2dfe29c440647954c024effa8e236</title>
<path fill="none" stroke="#63b8ff" d="M63,-87.22C63,-80.65 63,-71.18 63,-62.64"/>
<polygon fill="#63b8ff" stroke="#63b8ff" points="66.5,-62.77 63,-52.77 59.5,-62.77 66.5,-62.77"/>
<g id="a_edge3&#45;headlabel"><a xlink:href="dir_000002_000005.html" target="_top" xlink:title="6">
<text text-anchor="middle" x="69.34" y="-62.35" font-family="Helvetica,sans-Serif" font-size="10.00" fill="#63b8ff">6</text>
</a>
</g>
</g>
</g>
</svg>
