<?xml version="1.0" encoding="UTF-8" standalone="no"?>
<!DOCTYPE svg PUBLIC "-//W3C//DTD SVG 1.1//EN"
 "http://www.w3.org/Graphics/SVG/1.1/DTD/svg11.dtd">
<!-- Generated by graphviz version 7.1.0 (20230121.1956)
 -->
<!-- Title: src/core/evaluation/operations/dyadic_operators.cpp Pages: 1 -->
<svg width="1003pt" height="423pt"
 viewBox="0.00 0.00 1003.00 423.00" xmlns="http://www.w3.org/2000/svg" xmlns:xlink="http://www.w3.org/1999/xlink">
<g id="graph0" class="graph" transform="scale(1 1) rotate(0) translate(4 419)">
<title>src/core/evaluation/operations/dyadic_operators.cpp</title>
<!-- Node1 -->
<g id="node1" class="node">
<title>Node1</title>
<g id="a_node1"><a xlink:title=" ">
<polygon fill="#999999" stroke="#666666" points="336.5,-415 175.5,-415 175.5,-385 336.5,-385 336.5,-415"/>
<text text-anchor="start" x="183.5" y="-403" font-family="Helvetica,sans-Serif" font-size="10.00">src/core/evaluation</text>
<text text-anchor="middle" x="256" y="-392" font-family="Helvetica,sans-Serif" font-size="10.00">/operations/dyadic_operators.cpp</text>
</a>
</g>
</g>
<!-- Node2 -->
<g id="node2" class="node">
<title>Node2</title>
<g id="a_node2"><a xlink:href="dyadic__operators_8h.html" target="_top" xlink:title=" ">
<polygon fill="white" stroke="#666666" points="305.5,-349 206.5,-349 206.5,-330 305.5,-330 305.5,-349"/>
<text text-anchor="middle" x="256" y="-337" font-family="Helvetica,sans-Serif" font-size="10.00">dyadic_operators.h</text>
</a>
</g>
</g>
<!-- Node1&#45;&gt;Node2 -->
<g id="edge1" class="edge">
<title>Node1&#45;&gt;Node2</title>
<path fill="none" stroke="#63b8ff" d="M256,-384.54C256,-377.34 256,-368.53 256,-360.68"/>
<polygon fill="#63b8ff" stroke="#63b8ff" points="259.5,-360.69 256,-350.69 252.5,-360.69 259.5,-360.69"/>
</g>
<!-- Node20 -->
<g id="node20" class="node">
<title>Node20</title>
<g id="a_node20"><a xlink:href="monadic__operators_8h.html" target="_top" xlink:title=" ">
<polygon fill="white" stroke="#666666" points="188.5,-349 81.5,-349 81.5,-330 188.5,-330 188.5,-349"/>
<text text-anchor="middle" x="135" y="-337" font-family="Helvetica,sans-Serif" font-size="10.00">monadic_operators.h</text>
</a>
</g>
</g>
<!-- Node1&#45;&gt;Node20 -->
<g id="edge33" class="edge">
<title>Node1&#45;&gt;Node20</title>
<path fill="none" stroke="#63b8ff" d="M226.09,-384.54C207.02,-375.32 182.44,-363.44 163.63,-354.34"/>
<polygon fill="#63b8ff" stroke="#63b8ff" points="165.19,-351.21 154.66,-350 162.14,-357.51 165.19,-351.21"/>
</g>
<!-- Node21 -->
<g id="node21" class="node">
<title>Node21</title>
<g id="a_node21"><a xlink:href="error_8h.html" target="_top" xlink:title=" ">
<polygon fill="white" stroke="#666666" points="904.5,-184 839.5,-184 839.5,-165 904.5,-165 904.5,-184"/>
<text text-anchor="middle" x="872" y="-172" font-family="Helvetica,sans-Serif" font-size="10.00">core/error.h</text>
</a>
</g>
</g>
<!-- Node1&#45;&gt;Node21 -->
<g id="edge37" class="edge">
<title>Node1&#45;&gt;Node21</title>
<path fill="none" stroke="#63b8ff" d="M336.96,-392.75C454.03,-380.27 673.17,-343.74 825,-239 841.55,-227.58 854.56,-208.41 862.66,-194.12"/>
<polygon fill="#63b8ff" stroke="#63b8ff" points="865.54,-196.15 867.16,-185.68 859.36,-192.86 865.54,-196.15"/>
</g>
<!-- Node3 -->
<g id="node3" class="node">
<title>Node3</title>
<g id="a_node3"><a xlink:href="operation_8h.html" target="_top" xlink:title=" ">
<polygon fill="white" stroke="#666666" points="178.5,-239 113.5,-239 113.5,-220 178.5,-220 178.5,-239"/>
<text text-anchor="middle" x="146" y="-227" font-family="Helvetica,sans-Serif" font-size="10.00">operation.h</text>
</a>
</g>
</g>
<!-- Node2&#45;&gt;Node3 -->
<g id="edge2" class="edge">
<title>Node2&#45;&gt;Node3</title>
<path fill="none" stroke="#63b8ff" d="M241.01,-329.56C227.82,-321.29 208.51,-308.16 194,-294 179.95,-280.29 166.72,-262.25 157.72,-248.9"/>
<polygon fill="#63b8ff" stroke="#63b8ff" points="160.71,-247.08 152.3,-240.64 154.86,-250.92 160.71,-247.08"/>
</g>
<!-- Node19 -->
<g id="node19" class="node">
<title>Node19</title>
<g id="a_node19"><a xlink:href="ast_8h.html" target="_top" xlink:title=" ">
<polygon fill="white" stroke="#666666" points="309.5,-294 202.5,-294 202.5,-275 309.5,-275 309.5,-294"/>
<text text-anchor="middle" x="256" y="-282" font-family="Helvetica,sans-Serif" font-size="10.00">core/evaluation/ast.h</text>
</a>
</g>
</g>
<!-- Node2&#45;&gt;Node19 -->
<g id="edge24" class="edge">
<title>Node2&#45;&gt;Node19</title>
<path fill="none" stroke="#63b8ff" d="M256,-329.75C256,-323.27 256,-314.16 256,-305.9"/>
<polygon fill="#63b8ff" stroke="#63b8ff" points="259.5,-305.96 256,-295.96 252.5,-305.96 259.5,-305.96"/>
</g>
<!-- Node4 -->
<g id="node4" class="node">
<title>Node4</title>
<g id="a_node4"><a xlink:href="datatypes_8h.html" target="_top" xlink:title=" ">
<polygon fill="white" stroke="#666666" points="355.5,-74 266.5,-74 266.5,-55 355.5,-55 355.5,-74"/>
<text text-anchor="middle" x="311" y="-62" font-family="Helvetica,sans-Serif" font-size="10.00">core/datatypes.h</text>
</a>
</g>
</g>
<!-- Node3&#45;&gt;Node4 -->
<g id="edge3" class="edge">
<title>Node3&#45;&gt;Node4</title>
<path fill="none" stroke="#63b8ff" d="M137.64,-219.81C118.47,-198.82 75.06,-144.55 103,-110 121.81,-86.74 200.09,-75.1 255.05,-69.69"/>
<polygon fill="#63b8ff" stroke="#63b8ff" points="255.26,-73.18 264.89,-68.77 254.6,-66.21 255.26,-73.18"/>
</g>
<!-- Node8 -->
<g id="node8" class="node">
<title>Node8</title>
<g id="a_node8"><a xlink:href="array_8h.html" target="_top" xlink:title=" ">
<polygon fill="white" stroke="#666666" points="178.5,-129 111.5,-129 111.5,-110 178.5,-110 178.5,-129"/>
<text text-anchor="middle" x="145" y="-117" font-family="Helvetica,sans-Serif" font-size="10.00">core/array.h</text>
</a>
</g>
</g>
<!-- Node3&#45;&gt;Node8 -->
<g id="edge7" class="edge">
<title>Node3&#45;&gt;Node8</title>
<path fill="none" stroke="#63b8ff" d="M145.92,-219.66C145.76,-202.57 145.41,-164.61 145.19,-140.92"/>
<polygon fill="#63b8ff" stroke="#63b8ff" points="148.69,-140.94 145.1,-130.97 141.69,-141.01 148.69,-140.94"/>
</g>
<!-- Node10 -->
<g id="node10" class="node">
<title>Node10</title>
<g id="a_node10"><a xlink:href="token_8h.html" target="_top" xlink:title=" ">
<polygon fill="white" stroke="#666666" points="404.5,-184 333.5,-184 333.5,-165 404.5,-165 404.5,-184"/>
<text text-anchor="middle" x="369" y="-172" font-family="Helvetica,sans-Serif" font-size="10.00">core/token.h</text>
</a>
</g>
</g>
<!-- Node3&#45;&gt;Node10 -->
<g id="edge10" class="edge">
<title>Node3&#45;&gt;Node10</title>
<path fill="none" stroke="#63b8ff" d="M178.9,-220.68C216.72,-211.69 279.07,-196.87 321.99,-186.67"/>
<polygon fill="#63b8ff" stroke="#63b8ff" points="322.61,-190.12 331.53,-184.41 320.99,-183.31 322.61,-190.12"/>
</g>
<!-- Node18 -->
<g id="node18" class="node">
<title>Node18</title>
<g id="a_node18"><a xlink:title=" ">
<polygon fill="#e0e0e0" stroke="#999999" points="80,-184 28,-184 28,-165 80,-165 80,-184"/>
<text text-anchor="middle" x="54" y="-172" font-family="Helvetica,sans-Serif" font-size="10.00">memory</text>
</a>
</g>
</g>
<!-- Node3&#45;&gt;Node18 -->
<g id="edge23" class="edge">
<title>Node3&#45;&gt;Node18</title>
<path fill="none" stroke="#63b8ff" d="M130.39,-219.51C116.3,-211.39 95.31,-199.3 78.9,-189.85"/>
<polygon fill="#63b8ff" stroke="#63b8ff" points="81.1,-187.07 70.69,-185.11 77.61,-193.14 81.1,-187.07"/>
</g>
<!-- Node5 -->
<g id="node5" class="node">
<title>Node5</title>
<g id="a_node5"><a xlink:title=" ">
<polygon fill="#e0e0e0" stroke="#999999" points="366,-19 322,-19 322,0 366,0 366,-19"/>
<text text-anchor="middle" x="344" y="-7" font-family="Helvetica,sans-Serif" font-size="10.00">vector</text>
</a>
</g>
</g>
<!-- Node4&#45;&gt;Node5 -->
<g id="edge4" class="edge">
<title>Node4&#45;&gt;Node5</title>
<path fill="none" stroke="#63b8ff" d="M316.45,-54.75C320.77,-47.81 326.96,-37.86 332.38,-29.16"/>
<polygon fill="#63b8ff" stroke="#63b8ff" points="335.32,-31.07 337.63,-20.73 329.38,-27.37 335.32,-31.07"/>
</g>
<!-- Node6 -->
<g id="node6" class="node">
<title>Node6</title>
<g id="a_node6"><a xlink:title=" ">
<polygon fill="#e0e0e0" stroke="#999999" points="675.5,-19 634.5,-19 634.5,0 675.5,0 675.5,-19"/>
<text text-anchor="middle" x="655" y="-7" font-family="Helvetica,sans-Serif" font-size="10.00">string</text>
</a>
</g>
</g>
<!-- Node4&#45;&gt;Node6 -->
<g id="edge5" class="edge">
<title>Node4&#45;&gt;Node6</title>
<path fill="none" stroke="#63b8ff" d="M355.97,-56.57C426.49,-45.71 561.36,-24.93 622.92,-15.44"/>
<polygon fill="#63b8ff" stroke="#63b8ff" points="623.37,-18.91 632.72,-13.93 622.31,-12 623.37,-18.91"/>
</g>
<!-- Node7 -->
<g id="node7" class="node">
<title>Node7</title>
<g id="a_node7"><a xlink:title=" ">
<polygon fill="#e0e0e0" stroke="#999999" points="303.5,-19 250.5,-19 250.5,0 303.5,0 303.5,-19"/>
<text text-anchor="middle" x="277" y="-7" font-family="Helvetica,sans-Serif" font-size="10.00">complex</text>
</a>
</g>
</g>
<!-- Node4&#45;&gt;Node7 -->
<g id="edge6" class="edge">
<title>Node4&#45;&gt;Node7</title>
<path fill="none" stroke="#63b8ff" d="M305.39,-54.75C300.88,-47.73 294.41,-37.64 288.79,-28.87"/>
<polygon fill="#63b8ff" stroke="#63b8ff" points="291.9,-27.24 283.55,-20.72 286.01,-31.02 291.9,-27.24"/>
</g>
<!-- Node8&#45;&gt;Node4 -->
<g id="edge8" class="edge">
<title>Node8&#45;&gt;Node4</title>
<path fill="none" stroke="#63b8ff" d="M173.16,-109.51C200.43,-100.8 241.99,-87.53 272.35,-77.84"/>
<polygon fill="#63b8ff" stroke="#63b8ff" points="273.08,-81.28 281.54,-74.91 270.95,-74.61 273.08,-81.28"/>
</g>
<!-- Node9 -->
<g id="node9" class="node">
<title>Node9</title>
<g id="a_node9"><a xlink:title=" ">
<polygon fill="#e0e0e0" stroke="#999999" points="168,-74 122,-74 122,-55 168,-55 168,-74"/>
<text text-anchor="middle" x="145" y="-62" font-family="Helvetica,sans-Serif" font-size="10.00">variant</text>
</a>
</g>
</g>
<!-- Node8&#45;&gt;Node9 -->
<g id="edge9" class="edge">
<title>Node8&#45;&gt;Node9</title>
<path fill="none" stroke="#63b8ff" d="M145,-109.75C145,-103.27 145,-94.16 145,-85.9"/>
<polygon fill="#63b8ff" stroke="#63b8ff" points="148.5,-85.96 145,-75.96 141.5,-85.96 148.5,-85.96"/>
</g>
<!-- Node10&#45;&gt;Node4 -->
<g id="edge13" class="edge">
<title>Node10&#45;&gt;Node4</title>
<path fill="none" stroke="#63b8ff" d="M372.02,-164.72C375.86,-151.91 381,-127.71 372,-110 365.52,-97.26 353.49,-87.29 341.82,-80.06"/>
<polygon fill="#63b8ff" stroke="#63b8ff" points="343.55,-77.01 333.12,-75.14 340.1,-83.11 343.55,-77.01"/>
</g>
<!-- Node10&#45;&gt;Node8 -->
<g id="edge15" class="edge">
<title>Node10&#45;&gt;Node8</title>
<path fill="none" stroke="#63b8ff" d="M333.01,-164.98C294.04,-155.76 231.82,-141.04 189.74,-131.09"/>
<polygon fill="#63b8ff" stroke="#63b8ff" points="190.71,-127.72 180.17,-128.82 189.1,-134.53 190.71,-127.72"/>
</g>
<!-- Node11 -->
<g id="node11" class="node">
<title>Node11</title>
<g id="a_node11"><a xlink:href="token__type_8h.html" target="_top" xlink:title=" ">
<polygon fill="white" stroke="#666666" points="649.5,-74 576.5,-74 576.5,-55 649.5,-55 649.5,-74"/>
<text text-anchor="middle" x="613" y="-62" font-family="Helvetica,sans-Serif" font-size="10.00">token_type.h</text>
</a>
</g>
</g>
<!-- Node10&#45;&gt;Node11 -->
<g id="edge11" class="edge">
<title>Node10&#45;&gt;Node11</title>
<path fill="none" stroke="#63b8ff" d="M404.58,-170.89C460.81,-166.05 566.67,-153.84 594,-129 606.12,-117.99 610.64,-99.59 612.26,-85.43"/>
<polygon fill="#63b8ff" stroke="#63b8ff" points="615.72,-86.1 612.95,-75.87 608.74,-85.6 615.72,-86.1"/>
</g>
<!-- Node13 -->
<g id="node13" class="node">
<title>Node13</title>
<g id="a_node13"><a xlink:title=" ">
<polygon fill="#e0e0e0" stroke="#999999" points="782.5,-129 699.5,-129 699.5,-110 782.5,-110 782.5,-129"/>
<text text-anchor="middle" x="741" y="-117" font-family="Helvetica,sans-Serif" font-size="10.00">uni_algo/conv.h</text>
</a>
</g>
</g>
<!-- Node10&#45;&gt;Node13 -->
<g id="edge14" class="edge">
<title>Node10&#45;&gt;Node13</title>
<path fill="none" stroke="#63b8ff" d="M404.67,-168.88C462,-161.38 578.48,-145.86 688.01,-129.26"/>
<polygon fill="#63b8ff" stroke="#63b8ff" points="688.41,-132.74 697.77,-127.78 687.36,-125.82 688.41,-132.74"/>
</g>
<!-- Node14 -->
<g id="node14" class="node">
<title>Node14</title>
<g id="a_node14"><a xlink:href="conversion_8h.html" target="_top" xlink:title=" ">
<polygon fill="white" stroke="#666666" points="585,-129 457,-129 457,-110 585,-110 585,-129"/>
<text text-anchor="middle" x="521" y="-117" font-family="Helvetica,sans-Serif" font-size="10.00">core/helpers/conversion.h</text>
</a>
</g>
</g>
<!-- Node10&#45;&gt;Node14 -->
<g id="edge16" class="edge">
<title>Node10&#45;&gt;Node14</title>
<path fill="none" stroke="#63b8ff" d="M394.78,-164.51C419.43,-155.92 456.81,-142.88 484.51,-133.22"/>
<polygon fill="#63b8ff" stroke="#63b8ff" points="485.62,-136.54 493.91,-129.94 483.32,-129.93 485.62,-136.54"/>
</g>
<!-- Node15 -->
<g id="node15" class="node">
<title>Node15</title>
<g id="a_node15"><a xlink:title=" ">
<polygon fill="#e0e0e0" stroke="#999999" points="681,-129 641,-129 641,-110 681,-110 681,-129"/>
<text text-anchor="middle" x="661" y="-117" font-family="Helvetica,sans-Serif" font-size="10.00">utility</text>
</a>
</g>
</g>
<!-- Node10&#45;&gt;Node15 -->
<g id="edge20" class="edge">
<title>Node10&#45;&gt;Node15</title>
<path fill="none" stroke="#63b8ff" d="M404.63,-168.21C454.55,-160.61 548.06,-145.65 627,-129 627.83,-128.83 628.66,-128.65 629.51,-128.46"/>
<polygon fill="#63b8ff" stroke="#63b8ff" points="630.15,-131.9 639.09,-126.22 628.55,-125.09 630.15,-131.9"/>
</g>
<!-- Node16 -->
<g id="node16" class="node">
<title>Node16</title>
<g id="a_node16"><a xlink:title=" ">
<polygon fill="#e0e0e0" stroke="#999999" points="363,-129 313,-129 313,-110 363,-110 363,-129"/>
<text text-anchor="middle" x="338" y="-117" font-family="Helvetica,sans-Serif" font-size="10.00">optional</text>
</a>
</g>
</g>
<!-- Node10&#45;&gt;Node16 -->
<g id="edge21" class="edge">
<title>Node10&#45;&gt;Node16</title>
<path fill="none" stroke="#63b8ff" d="M363.88,-164.75C359.82,-157.81 354.01,-147.86 348.91,-139.16"/>
<polygon fill="#63b8ff" stroke="#63b8ff" points="352.06,-137.61 343.99,-130.75 346.02,-141.15 352.06,-137.61"/>
</g>
<!-- Node17 -->
<g id="node17" class="node">
<title>Node17</title>
<g id="a_node17"><a xlink:href="position_8h.html" target="_top" xlink:title=" ">
<polygon fill="white" stroke="#666666" points="294.5,-129 235.5,-129 235.5,-110 294.5,-110 294.5,-129"/>
<text text-anchor="middle" x="265" y="-117" font-family="Helvetica,sans-Serif" font-size="10.00">position.h</text>
</a>
</g>
</g>
<!-- Node10&#45;&gt;Node17 -->
<g id="edge22" class="edge">
<title>Node10&#45;&gt;Node17</title>
<path fill="none" stroke="#63b8ff" d="M351.36,-164.51C335.27,-156.31 311.25,-144.07 292.63,-134.58"/>
<polygon fill="#63b8ff" stroke="#63b8ff" points="294.23,-131.47 283.73,-130.05 291.05,-137.7 294.23,-131.47"/>
</g>
<!-- Node12 -->
<g id="node12" class="node">
<title>Node12</title>
<g id="a_node12"><a xlink:title=" ">
<polygon fill="#e0e0e0" stroke="#999999" points="914,-19 860,-19 860,0 914,0 914,-19"/>
<text text-anchor="middle" x="887" y="-7" font-family="Helvetica,sans-Serif" font-size="10.00">iostream</text>
</a>
</g>
</g>
<!-- Node11&#45;&gt;Node12 -->
<g id="edge12" class="edge">
<title>Node11&#45;&gt;Node12</title>
<path fill="none" stroke="#63b8ff" d="M649.95,-56.35C701.83,-46.32 795.79,-28.14 848.49,-17.95"/>
<polygon fill="#63b8ff" stroke="#63b8ff" points="849.07,-21.4 858.22,-16.07 847.74,-14.53 849.07,-21.4"/>
</g>
<!-- Node14&#45;&gt;Node4 -->
<g id="edge18" class="edge">
<title>Node14&#45;&gt;Node4</title>
<path fill="none" stroke="#63b8ff" d="M485.38,-109.51C450.12,-100.61 395.98,-86.95 357.39,-77.21"/>
<polygon fill="#63b8ff" stroke="#63b8ff" points="358.47,-73.87 347.91,-74.82 356.75,-80.66 358.47,-73.87"/>
</g>
<!-- Node14&#45;&gt;Node6 -->
<g id="edge17" class="edge">
<title>Node14&#45;&gt;Node6</title>
<path fill="none" stroke="#63b8ff" d="M525.74,-109.7C533.24,-96.43 548.96,-71.14 568,-55 584.5,-41.01 606.15,-29.91 623.73,-22.3"/>
<polygon fill="#63b8ff" stroke="#63b8ff" points="624.77,-25.66 632.66,-18.6 622.09,-19.19 624.77,-25.66"/>
</g>
<!-- Node14&#45;&gt;Node11 -->
<g id="edge19" class="edge">
<title>Node14&#45;&gt;Node11</title>
<path fill="none" stroke="#63b8ff" d="M536.61,-109.51C550.7,-101.39 571.69,-89.3 588.1,-79.85"/>
<polygon fill="#63b8ff" stroke="#63b8ff" points="589.39,-83.14 596.31,-75.11 585.9,-77.07 589.39,-83.14"/>
</g>
<!-- Node19&#45;&gt;Node3 -->
<g id="edge31" class="edge">
<title>Node19&#45;&gt;Node3</title>
<path fill="none" stroke="#63b8ff" d="M237.34,-274.51C220.17,-266.24 194.45,-253.84 174.67,-244.31"/>
<polygon fill="#63b8ff" stroke="#63b8ff" points="176.28,-241.2 165.75,-240.01 173.24,-247.51 176.28,-241.2"/>
</g>
<!-- Node19&#45;&gt;Node4 -->
<g id="edge29" class="edge">
<title>Node19&#45;&gt;Node4</title>
<path fill="none" stroke="#63b8ff" d="M250.77,-274.8C235.41,-248.05 193.61,-165.47 227,-110 235.71,-95.52 250.89,-85.51 265.97,-78.7"/>
<polygon fill="#63b8ff" stroke="#63b8ff" points="266.97,-82.08 274.91,-75.06 264.33,-75.59 266.97,-82.08"/>
</g>
<!-- Node19&#45;&gt;Node6 -->
<g id="edge25" class="edge">
<title>Node19&#45;&gt;Node6</title>
<path fill="none" stroke="#63b8ff" d="M309.64,-276.21C433.46,-258.17 733.19,-207.16 792,-129 797.08,-122.25 795.83,-117.52 792,-110 769.99,-66.82 719.51,-37.99 686.36,-22.94"/>
<polygon fill="#63b8ff" stroke="#63b8ff" points="687.8,-19.75 677.23,-18.96 685.01,-26.16 687.8,-19.75"/>
</g>
<!-- Node19&#45;&gt;Node8 -->
<g id="edge27" class="edge">
<title>Node19&#45;&gt;Node8</title>
<path fill="none" stroke="#63b8ff" d="M250.03,-274.74C232.57,-249.09 181.28,-173.78 157.45,-138.78"/>
<polygon fill="#63b8ff" stroke="#63b8ff" points="160.37,-136.85 151.85,-130.56 154.59,-140.79 160.37,-136.85"/>
</g>
<!-- Node19&#45;&gt;Node10 -->
<g id="edge28" class="edge">
<title>Node19&#45;&gt;Node10</title>
<path fill="none" stroke="#63b8ff" d="M265.25,-274.66C284.12,-256.62 327.33,-215.32 351.62,-192.12"/>
<polygon fill="#63b8ff" stroke="#63b8ff" points="353.72,-194.95 358.53,-185.51 348.88,-189.89 353.72,-194.95"/>
</g>
<!-- Node19&#45;&gt;Node12 -->
<g id="edge26" class="edge">
<title>Node19&#45;&gt;Node12</title>
<path fill="none" stroke="#63b8ff" d="M309.74,-281.31C479.8,-273.66 995,-244.79 995,-175.5 995,-175.5 995,-175.5 995,-118.5 995,-74.43 949.47,-42.06 917.54,-24.77"/>
<polygon fill="#63b8ff" stroke="#63b8ff" points="919.15,-21.67 908.66,-20.19 915.94,-27.89 919.15,-21.67"/>
</g>
<!-- Node19&#45;&gt;Node17 -->
<g id="edge32" class="edge">
<title>Node19&#45;&gt;Node17</title>
<path fill="none" stroke="#63b8ff" d="M256.64,-274.64C257.28,-265.66 258.27,-251.37 259,-239 261.04,-204.47 262.98,-164.26 264.08,-140.67"/>
<polygon fill="#63b8ff" stroke="#63b8ff" points="267.57,-141.08 264.53,-130.93 260.57,-140.76 267.57,-141.08"/>
</g>
<!-- Node19&#45;&gt;Node18 -->
<g id="edge30" class="edge">
<title>Node19&#45;&gt;Node18</title>
<path fill="none" stroke="#63b8ff" d="M202.3,-275.86C171.81,-269.6 134.06,-258.47 105,-239 87.78,-227.46 73.55,-208.31 64.54,-194.05"/>
<polygon fill="#63b8ff" stroke="#63b8ff" points="67.62,-192.38 59.48,-185.6 61.62,-195.98 67.62,-192.38"/>
</g>
<!-- Node20&#45;&gt;Node3 -->
<g id="edge34" class="edge">
<title>Node20&#45;&gt;Node3</title>
<path fill="none" stroke="#63b8ff" d="M135.9,-329.66C137.65,-312.5 141.54,-274.26 143.95,-250.6"/>
<polygon fill="#63b8ff" stroke="#63b8ff" points="147.4,-251.27 144.93,-240.97 140.44,-250.56 147.4,-251.27"/>
</g>
<!-- Node20&#45;&gt;Node4 -->
<g id="edge35" class="edge">
<title>Node20&#45;&gt;Node4</title>
<path fill="none" stroke="#63b8ff" d="M105.37,-329.53C65.63,-315.45 0,-284.08 0,-230.5 0,-230.5 0,-230.5 0,-173.5 0,-120.18 165.19,-87.22 254.78,-73.26"/>
<polygon fill="#63b8ff" stroke="#63b8ff" points="255.26,-76.73 264.61,-71.76 254.2,-69.81 255.26,-76.73"/>
</g>
<!-- Node20&#45;&gt;Node19 -->
<g id="edge36" class="edge">
<title>Node20&#45;&gt;Node19</title>
<path fill="none" stroke="#63b8ff" d="M155.53,-329.51C174.68,-321.12 203.5,-308.5 225.37,-298.92"/>
<polygon fill="#63b8ff" stroke="#63b8ff" points="226.64,-302.18 234.39,-294.97 223.83,-295.77 226.64,-302.18"/>
</g>
<!-- Node21&#45;&gt;Node4 -->
<g id="edge43" class="edge">
<title>Node21&#45;&gt;Node4</title>
<path fill="none" stroke="#63b8ff" d="M839.14,-173.69C766.99,-173.33 589.8,-168.14 448,-129 406.73,-117.61 362.36,-94.91 335.64,-79.96"/>
<polygon fill="#63b8ff" stroke="#63b8ff" points="337.72,-77.12 327.3,-75.21 334.26,-83.2 337.72,-77.12"/>
</g>
<!-- Node21&#45;&gt;Node12 -->
<g id="edge38" class="edge">
<title>Node21&#45;&gt;Node12</title>
<path fill="none" stroke="#63b8ff" d="M872.81,-164.74C875.13,-139.53 881.86,-66.36 885.15,-30.62"/>
<polygon fill="#63b8ff" stroke="#63b8ff" points="888.62,-31.09 886.05,-20.81 881.65,-30.45 888.62,-31.09"/>
</g>
<!-- Node21&#45;&gt;Node13 -->
<g id="edge44" class="edge">
<title>Node21&#45;&gt;Node13</title>
<path fill="none" stroke="#63b8ff" d="M849.78,-164.51C828.86,-156.04 797.27,-143.27 773.52,-133.66"/>
<polygon fill="#63b8ff" stroke="#63b8ff" points="774.88,-130.43 764.3,-129.93 772.25,-136.92 774.88,-130.43"/>
</g>
<!-- Node21&#45;&gt;Node15 -->
<g id="edge40" class="edge">
<title>Node21&#45;&gt;Node15</title>
<path fill="none" stroke="#63b8ff" d="M839.21,-165.8C805.09,-157.71 749.83,-144.39 692.43,-129.3"/>
<polygon fill="#63b8ff" stroke="#63b8ff" points="693.33,-125.92 682.77,-126.74 691.54,-132.68 693.33,-125.92"/>
</g>
<!-- Node22 -->
<g id="node22" class="node">
<title>Node22</title>
<g id="a_node22"><a xlink:title=" ">
<polygon fill="#e0e0e0" stroke="#999999" points="967,-129 915,-129 915,-110 967,-110 967,-129"/>
<text text-anchor="middle" x="941" y="-117" font-family="Helvetica,sans-Serif" font-size="10.00">sstream</text>
</a>
</g>
</g>
<!-- Node21&#45;&gt;Node22 -->
<g id="edge39" class="edge">
<title>Node21&#45;&gt;Node22</title>
<path fill="none" stroke="#63b8ff" d="M883.7,-164.51C893.78,-156.77 908.54,-145.43 920.56,-136.2"/>
<polygon fill="#63b8ff" stroke="#63b8ff" points="922.47,-139.15 928.27,-130.28 918.21,-133.6 922.47,-139.15"/>
</g>
<!-- Node23 -->
<g id="node23" class="node">
<title>Node23</title>
<g id="a_node23"><a xlink:href="error__type_8h.html" target="_top" xlink:title=" ">
<polygon fill="white" stroke="#666666" points="859,-74 791,-74 791,-55 859,-55 859,-74"/>
<text text-anchor="middle" x="825" y="-62" font-family="Helvetica,sans-Serif" font-size="10.00">error_type.h</text>
</a>
</g>
</g>
<!-- Node21&#45;&gt;Node23 -->
<g id="edge41" class="edge">
<title>Node21&#45;&gt;Node23</title>
<path fill="none" stroke="#63b8ff" d="M868.15,-164.66C860.61,-147.34 843.73,-108.55 833.46,-84.95"/>
<polygon fill="#63b8ff" stroke="#63b8ff" points="836.7,-83.62 829.5,-75.85 830.28,-86.41 836.7,-83.62"/>
</g>
<!-- Node23&#45;&gt;Node6 -->
<g id="edge42" class="edge">
<title>Node23&#45;&gt;Node6</title>
<path fill="none" stroke="#63b8ff" d="M796.16,-54.51C765.79,-45.04 718.1,-30.17 686.69,-20.38"/>
<polygon fill="#63b8ff" stroke="#63b8ff" points="687.95,-17.11 677.36,-17.47 685.87,-23.79 687.95,-17.11"/>
</g>
</g>
</svg>
