<?xml version="1.0" encoding="UTF-8" standalone="no"?>
<!DOCTYPE svg PUBLIC "-//W3C//DTD SVG 1.1//EN"
 "http://www.w3.org/Graphics/SVG/1.1/DTD/svg11.dtd">
<!-- Generated by graphviz version 7.1.0 (20230121.1956)
 -->
<!-- Title: src/core/evaluation/operations/dyadic_operators.h Pages: 1 -->
<!--zoomable 368 -->
<svg id="main" version="1.1" xmlns="http://www.w3.org/2000/svg" xmlns:xlink="http://www.w3.org/1999/xlink" xml:space="preserve" onload="init(evt)">
<style type="text/css"><![CDATA[
.edge:hover path { stroke: red; }
.edge:hover polygon { stroke: red; fill: red; }
]]></style>
<script type="text/javascript"><![CDATA[
var edges = document.getElementsByTagName('g');
if (edges && edges.length) {
  for (var i=0;i<edges.length;i++) {
    if (edges[i].id.substr(0,4)=='edge') {
      edges[i].setAttribute('class','edge');
    }
  }
}
]]></script>
        <defs>
                <circle id="rim" cx="0" cy="0" r="7"/>
                <circle id="rim2" cx="0" cy="0" r="3.5"/>
                <g id="zoomPlus">
                        <use xlink:href="#rim" fill="#404040">
                                <set attributeName="fill" to="#808080" begin="zoomplus.mouseover" end="zoomplus.mouseout"/>
                        </use>
                        <path d="M-4,0h8M0,-4v8" fill="none" stroke="white" stroke-width="1.5" pointer-events="none"/>
                </g>
                <g id="zoomMin">
                        <use xlink:href="#rim" fill="#404040">
                                <set attributeName="fill" to="#808080" begin="zoomminus.mouseover" end="zoomminus.mouseout"/>
                        </use>
                        <path d="M-4,0h8" fill="none" stroke="white" stroke-width="1.5" pointer-events="none"/>
                </g>
                <g id="dirArrow">
                        <path fill="none" stroke="white" stroke-width="1.5" d="M0,-3.0v7 M-2.5,-0.5L0,-3.0L2.5,-0.5"/>
                </g>
               <g id="resetDef">
                       <use xlink:href="#rim2" fill="#404040">
                               <set attributeName="fill" to="#808080" begin="reset.mouseover" end="reset.mouseout"/>
                       </use>
               </g>
        </defs>

<script type="text/javascript">
var viewWidth = 726;
var viewHeight = 368;
var sectionId = 'dynsection-0';
</script>
<script xlink:href="svgpan.js"/>
<svg id="graph" class="graph">
<g id="viewport">
<title>src/core/evaluation/operations/dyadic_operators.h</title>
<!-- Node1 -->
<g id="node1" class="node">
<title>Node1</title>
<g id="a_node1"><a xlink:title=" ">
<polygon fill="#999999" stroke="#666666" points="192.58,-360 42.58,-360 42.58,-330 192.58,-330 192.58,-360"/>
<text text-anchor="start" x="50.58" y="-348" font-family="Helvetica,sans-Serif" font-size="10.00">src/core/evaluation</text>
<text text-anchor="middle" x="117.58" y="-337" font-family="Helvetica,sans-Serif" font-size="10.00">/operations/dyadic_operators.h</text>
</a>
</g>
</g>
<!-- Node2 -->
<g id="node2" class="node">
<title>Node2</title>
<g id="a_node2"><a xlink:href="operation_8h.html" target="_top" xlink:title=" ">
<polygon fill="white" stroke="#666666" points="81.08,-239 16.08,-239 16.08,-220 81.08,-220 81.08,-239"/>
<text text-anchor="middle" x="48.58" y="-227" font-family="Helvetica,sans-Serif" font-size="10.00">operation.h</text>
</a>
</g>
</g>
<!-- Node1&#45;&gt;Node2 -->
<g id="edge1" class="edge">
<title>Node1&#45;&gt;Node2</title>
<path fill="none" stroke="#63b8ff" d="M108.84,-329.63C96.38,-309.12 73.49,-271.47 59.79,-248.93"/>
<polygon fill="#63b8ff" stroke="#63b8ff" points="62.86,-247.25 54.67,-240.52 56.88,-250.89 62.86,-247.25"/>
</g>
<!-- Node18 -->
<g id="node18" class="node">
<title>Node18</title>
<g id="a_node18"><a xlink:href="ast_8h.html" target="_top" xlink:title=" ">
<polygon fill="white" stroke="#666666" points="239.08,-294 132.08,-294 132.08,-275 239.08,-275 239.08,-294"/>
<text text-anchor="middle" x="185.58" y="-282" font-family="Helvetica,sans-Serif" font-size="10.00">core/evaluation/ast.h</text>
</a>
</g>
</g>
<!-- Node1&#45;&gt;Node18 -->
<g id="edge23" class="edge">
<title>Node1&#45;&gt;Node18</title>
<path fill="none" stroke="#63b8ff" d="M134.39,-329.54C144.27,-321.04 156.77,-310.29 166.95,-301.53"/>
<polygon fill="#63b8ff" stroke="#63b8ff" points="169.05,-304.34 174.35,-295.16 164.49,-299.03 169.05,-304.34"/>
</g>
<!-- Node3 -->
<g id="node3" class="node">
<title>Node3</title>
<g id="a_node3"><a xlink:href="datatypes_8h.html" target="_top" xlink:title=" ">
<polygon fill="white" stroke="#666666" points="189.08,-74 100.08,-74 100.08,-55 189.08,-55 189.08,-74"/>
<text text-anchor="middle" x="144.58" y="-62" font-family="Helvetica,sans-Serif" font-size="10.00">core/datatypes.h</text>
</a>
</g>
</g>
<!-- Node2&#45;&gt;Node3 -->
<g id="edge2" class="edge">
<title>Node2&#45;&gt;Node3</title>
<path fill="none" stroke="#63b8ff" d="M40.56,-219.65C22.63,-198.76 -17.16,-145.51 8.58,-110 18.44,-96.4 55.82,-84.75 88.91,-76.79"/>
<polygon fill="#63b8ff" stroke="#63b8ff" points="89.49,-80.25 98.44,-74.57 87.91,-73.43 89.49,-80.25"/>
</g>
<!-- Node7 -->
<g id="node7" class="node">
<title>Node7</title>
<g id="a_node7"><a xlink:href="array_8h.html" target="_top" xlink:title=" ">
<polygon fill="white" stroke="#666666" points="85.08,-129 18.08,-129 18.08,-110 85.08,-110 85.08,-129"/>
<text text-anchor="middle" x="51.58" y="-117" font-family="Helvetica,sans-Serif" font-size="10.00">core/array.h</text>
</a>
</g>
</g>
<!-- Node2&#45;&gt;Node7 -->
<g id="edge6" class="edge">
<title>Node2&#45;&gt;Node7</title>
<path fill="none" stroke="#63b8ff" d="M48.83,-219.66C49.3,-202.57 50.36,-164.61 51.01,-140.92"/>
<polygon fill="#63b8ff" stroke="#63b8ff" points="54.51,-141.07 51.29,-130.97 47.51,-140.87 54.51,-141.07"/>
</g>
<!-- Node9 -->
<g id="node9" class="node">
<title>Node9</title>
<g id="a_node9"><a xlink:href="token_8h.html" target="_top" xlink:title=" ">
<polygon fill="white" stroke="#666666" points="305.08,-184 234.08,-184 234.08,-165 305.08,-165 305.08,-184"/>
<text text-anchor="middle" x="269.58" y="-172" font-family="Helvetica,sans-Serif" font-size="10.00">core/token.h</text>
</a>
</g>
</g>
<!-- Node2&#45;&gt;Node9 -->
<g id="edge9" class="edge">
<title>Node2&#45;&gt;Node9</title>
<path fill="none" stroke="#63b8ff" d="M81.19,-220.68C118.59,-211.71 180.19,-196.94 222.72,-186.74"/>
<polygon fill="#63b8ff" stroke="#63b8ff" points="223.53,-190.14 232.43,-184.41 221.89,-183.34 223.53,-190.14"/>
</g>
<!-- Node17 -->
<g id="node17" class="node">
<title>Node17</title>
<g id="a_node17"><a xlink:title=" ">
<polygon fill="#e0e0e0" stroke="#999999" points="119.58,-184 67.58,-184 67.58,-165 119.58,-165 119.58,-184"/>
<text text-anchor="middle" x="93.58" y="-172" font-family="Helvetica,sans-Serif" font-size="10.00">memory</text>
</a>
</g>
</g>
<!-- Node2&#45;&gt;Node17 -->
<g id="edge22" class="edge">
<title>Node2&#45;&gt;Node17</title>
<path fill="none" stroke="#63b8ff" d="M56.01,-219.75C62.16,-212.5 71.1,-201.98 78.71,-193.02"/>
<polygon fill="#63b8ff" stroke="#63b8ff" points="81.21,-195.48 85.01,-185.6 75.87,-190.95 81.21,-195.48"/>
</g>
<!-- Node4 -->
<g id="node4" class="node">
<title>Node4</title>
<g id="a_node4"><a xlink:title=" ">
<polygon fill="#e0e0e0" stroke="#999999" points="199.58,-19 155.58,-19 155.58,0 199.58,0 199.58,-19"/>
<text text-anchor="middle" x="177.58" y="-7" font-family="Helvetica,sans-Serif" font-size="10.00">vector</text>
</a>
</g>
</g>
<!-- Node3&#45;&gt;Node4 -->
<g id="edge3" class="edge">
<title>Node3&#45;&gt;Node4</title>
<path fill="none" stroke="#63b8ff" d="M150.03,-54.75C154.35,-47.81 160.54,-37.86 165.96,-29.16"/>
<polygon fill="#63b8ff" stroke="#63b8ff" points="168.9,-31.07 171.21,-20.73 162.96,-27.37 168.9,-31.07"/>
</g>
<!-- Node5 -->
<g id="node5" class="node">
<title>Node5</title>
<g id="a_node5"><a xlink:title=" ">
<polygon fill="#e0e0e0" stroke="#999999" points="492.08,-19 451.08,-19 451.08,0 492.08,0 492.08,-19"/>
<text text-anchor="middle" x="471.58" y="-7" font-family="Helvetica,sans-Serif" font-size="10.00">string</text>
</a>
</g>
</g>
<!-- Node3&#45;&gt;Node5 -->
<g id="edge4" class="edge">
<title>Node3&#45;&gt;Node5</title>
<path fill="none" stroke="#63b8ff" d="M189.36,-56.24C256.29,-45.39 380.81,-25.21 439.46,-15.71"/>
<polygon fill="#63b8ff" stroke="#63b8ff" points="439.79,-19.2 449.1,-14.14 438.67,-12.29 439.79,-19.2"/>
</g>
<!-- Node6 -->
<g id="node6" class="node">
<title>Node6</title>
<g id="a_node6"><a xlink:title=" ">
<polygon fill="#e0e0e0" stroke="#999999" points="137.08,-19 84.08,-19 84.08,0 137.08,0 137.08,-19"/>
<text text-anchor="middle" x="110.58" y="-7" font-family="Helvetica,sans-Serif" font-size="10.00">complex</text>
</a>
</g>
</g>
<!-- Node3&#45;&gt;Node6 -->
<g id="edge5" class="edge">
<title>Node3&#45;&gt;Node6</title>
<path fill="none" stroke="#63b8ff" d="M138.97,-54.75C134.47,-47.73 127.99,-37.64 122.37,-28.87"/>
<polygon fill="#63b8ff" stroke="#63b8ff" points="125.48,-27.24 117.13,-20.72 119.59,-31.02 125.48,-27.24"/>
</g>
<!-- Node7&#45;&gt;Node3 -->
<g id="edge7" class="edge">
<title>Node7&#45;&gt;Node3</title>
<path fill="none" stroke="#63b8ff" d="M67.36,-109.51C81.61,-101.39 102.82,-89.3 119.41,-79.85"/>
<polygon fill="#63b8ff" stroke="#63b8ff" points="120.77,-83.1 127.72,-75.11 117.3,-77.02 120.77,-83.1"/>
</g>
<!-- Node8 -->
<g id="node8" class="node">
<title>Node8</title>
<g id="a_node8"><a xlink:title=" ">
<polygon fill="#e0e0e0" stroke="#999999" points="74.58,-74 28.58,-74 28.58,-55 74.58,-55 74.58,-74"/>
<text text-anchor="middle" x="51.58" y="-62" font-family="Helvetica,sans-Serif" font-size="10.00">variant</text>
</a>
</g>
</g>
<!-- Node7&#45;&gt;Node8 -->
<g id="edge8" class="edge">
<title>Node7&#45;&gt;Node8</title>
<path fill="none" stroke="#63b8ff" d="M51.58,-109.75C51.58,-103.27 51.58,-94.16 51.58,-85.9"/>
<polygon fill="#63b8ff" stroke="#63b8ff" points="55.08,-85.96 51.58,-75.96 48.08,-85.96 55.08,-85.96"/>
</g>
<!-- Node9&#45;&gt;Node3 -->
<g id="edge12" class="edge">
<title>Node9&#45;&gt;Node3</title>
<path fill="none" stroke="#63b8ff" d="M233.62,-164.57C212.87,-157.81 187.61,-146.61 170.58,-129 159.04,-117.07 152.36,-99.31 148.67,-85.61"/>
<polygon fill="#63b8ff" stroke="#63b8ff" points="152.09,-84.86 146.41,-75.92 145.27,-86.45 152.09,-84.86"/>
</g>
<!-- Node9&#45;&gt;Node7 -->
<g id="edge14" class="edge">
<title>Node9&#45;&gt;Node7</title>
<path fill="none" stroke="#63b8ff" d="M233.58,-164.75C196.08,-155.63 137.24,-141.32 96.66,-131.46"/>
<polygon fill="#63b8ff" stroke="#63b8ff" points="97.49,-128.06 86.95,-129.1 95.84,-134.86 97.49,-128.06"/>
</g>
<!-- Node10 -->
<g id="node10" class="node">
<title>Node10</title>
<g id="a_node10"><a xlink:href="token__type_8h.html" target="_top" xlink:title=" ">
<polygon fill="white" stroke="#666666" points="600.08,-74 527.08,-74 527.08,-55 600.08,-55 600.08,-74"/>
<text text-anchor="middle" x="563.58" y="-62" font-family="Helvetica,sans-Serif" font-size="10.00">token_type.h</text>
</a>
</g>
</g>
<!-- Node9&#45;&gt;Node10 -->
<g id="edge10" class="edge">
<title>Node9&#45;&gt;Node10</title>
<path fill="none" stroke="#63b8ff" d="M305.49,-172.31C371.73,-169.39 509.59,-159.7 544.58,-129 556.89,-118.2 561.39,-99.78 562.95,-85.56"/>
<polygon fill="#63b8ff" stroke="#63b8ff" points="566.42,-86.15 563.59,-75.94 559.43,-85.68 566.42,-86.15"/>
</g>
<!-- Node12 -->
<g id="node12" class="node">
<title>Node12</title>
<g id="a_node12"><a xlink:title=" ">
<polygon fill="#e0e0e0" stroke="#999999" points="331.08,-129 248.08,-129 248.08,-110 331.08,-110 331.08,-129"/>
<text text-anchor="middle" x="289.58" y="-117" font-family="Helvetica,sans-Serif" font-size="10.00">uni_algo/conv.h</text>
</a>
</g>
</g>
<!-- Node9&#45;&gt;Node12 -->
<g id="edge13" class="edge">
<title>Node9&#45;&gt;Node12</title>
<path fill="none" stroke="#63b8ff" d="M272.88,-164.75C275.42,-158.04 279.01,-148.52 282.21,-140.02"/>
<polygon fill="#63b8ff" stroke="#63b8ff" points="285.42,-141.45 285.67,-130.86 278.87,-138.98 285.42,-141.45"/>
</g>
<!-- Node13 -->
<g id="node13" class="node">
<title>Node13</title>
<g id="a_node13"><a xlink:href="conversion_8h.html" target="_top" xlink:title=" ">
<polygon fill="white" stroke="#666666" points="535.58,-129 407.58,-129 407.58,-110 535.58,-110 535.58,-129"/>
<text text-anchor="middle" x="471.58" y="-117" font-family="Helvetica,sans-Serif" font-size="10.00">core/helpers/conversion.h</text>
</a>
</g>
</g>
<!-- Node9&#45;&gt;Node13 -->
<g id="edge15" class="edge">
<title>Node9&#45;&gt;Node13</title>
<path fill="none" stroke="#63b8ff" d="M303.85,-164.51C337.61,-155.65 389.39,-142.07 426.48,-132.33"/>
<polygon fill="#63b8ff" stroke="#63b8ff" points="427.24,-135.75 436.02,-129.83 425.46,-128.98 427.24,-135.75"/>
</g>
<!-- Node14 -->
<g id="node14" class="node">
<title>Node14</title>
<g id="a_node14"><a xlink:title=" ">
<polygon fill="#e0e0e0" stroke="#999999" points="389.58,-129 349.58,-129 349.58,-110 389.58,-110 389.58,-129"/>
<text text-anchor="middle" x="369.58" y="-117" font-family="Helvetica,sans-Serif" font-size="10.00">utility</text>
</a>
</g>
</g>
<!-- Node9&#45;&gt;Node14 -->
<g id="edge19" class="edge">
<title>Node9&#45;&gt;Node14</title>
<path fill="none" stroke="#63b8ff" d="M286.54,-164.51C301.94,-156.35 324.89,-144.19 342.77,-134.71"/>
<polygon fill="#63b8ff" stroke="#63b8ff" points="344.33,-137.84 351.53,-130.07 341.06,-131.66 344.33,-137.84"/>
</g>
<!-- Node15 -->
<g id="node15" class="node">
<title>Node15</title>
<g id="a_node15"><a xlink:title=" ">
<polygon fill="#e0e0e0" stroke="#999999" points="229.58,-129 179.58,-129 179.58,-110 229.58,-110 229.58,-129"/>
<text text-anchor="middle" x="204.58" y="-117" font-family="Helvetica,sans-Serif" font-size="10.00">optional</text>
</a>
</g>
</g>
<!-- Node9&#45;&gt;Node15 -->
<g id="edge20" class="edge">
<title>Node9&#45;&gt;Node15</title>
<path fill="none" stroke="#63b8ff" d="M258.55,-164.51C249.16,-156.85 235.43,-145.66 224.17,-136.47"/>
<polygon fill="#63b8ff" stroke="#63b8ff" points="226.58,-133.92 216.62,-130.31 222.16,-139.35 226.58,-133.92"/>
</g>
<!-- Node16 -->
<g id="node16" class="node">
<title>Node16</title>
<g id="a_node16"><a xlink:href="position_8h.html" target="_top" xlink:title=" ">
<polygon fill="white" stroke="#666666" points="651.08,-129 592.08,-129 592.08,-110 651.08,-110 651.08,-129"/>
<text text-anchor="middle" x="621.58" y="-117" font-family="Helvetica,sans-Serif" font-size="10.00">position.h</text>
</a>
</g>
</g>
<!-- Node9&#45;&gt;Node16 -->
<g id="edge21" class="edge">
<title>Node9&#45;&gt;Node16</title>
<path fill="none" stroke="#63b8ff" d="M305.24,-168.91C362.7,-161.38 479.29,-145.59 577.58,-129 578.59,-128.83 579.61,-128.66 580.64,-128.48"/>
<polygon fill="#63b8ff" stroke="#63b8ff" points="581.09,-131.95 590.3,-126.72 579.84,-125.06 581.09,-131.95"/>
</g>
<!-- Node11 -->
<g id="node11" class="node">
<title>Node11</title>
<g id="a_node11"><a xlink:title=" ">
<polygon fill="#e0e0e0" stroke="#999999" points="667.58,-19 613.58,-19 613.58,0 667.58,0 667.58,-19"/>
<text text-anchor="middle" x="640.58" y="-7" font-family="Helvetica,sans-Serif" font-size="10.00">iostream</text>
</a>
</g>
</g>
<!-- Node10&#45;&gt;Node11 -->
<g id="edge11" class="edge">
<title>Node10&#45;&gt;Node11</title>
<path fill="none" stroke="#63b8ff" d="M576.64,-54.51C588.11,-46.62 605.01,-34.98 618.56,-25.65"/>
<polygon fill="#63b8ff" stroke="#63b8ff" points="620.21,-28.77 626.47,-20.22 616.24,-23 620.21,-28.77"/>
</g>
<!-- Node13&#45;&gt;Node3 -->
<g id="edge17" class="edge">
<title>Node13&#45;&gt;Node3</title>
<path fill="none" stroke="#63b8ff" d="M416.11,-109.51C356.11,-99.78 260.98,-84.37 200.72,-74.6"/>
<polygon fill="#63b8ff" stroke="#63b8ff" points="201.45,-71.17 191.02,-73.03 200.33,-78.08 201.45,-71.17"/>
</g>
<!-- Node13&#45;&gt;Node5 -->
<g id="edge16" class="edge">
<title>Node13&#45;&gt;Node5</title>
<path fill="none" stroke="#63b8ff" d="M471.58,-109.66C471.58,-92.57 471.58,-54.61 471.58,-30.92"/>
<polygon fill="#63b8ff" stroke="#63b8ff" points="475.08,-30.97 471.58,-20.97 468.08,-30.97 475.08,-30.97"/>
</g>
<!-- Node13&#45;&gt;Node10 -->
<g id="edge18" class="edge">
<title>Node13&#45;&gt;Node10</title>
<path fill="none" stroke="#63b8ff" d="M487.19,-109.51C501.28,-101.39 522.27,-89.3 538.68,-79.85"/>
<polygon fill="#63b8ff" stroke="#63b8ff" points="539.98,-83.14 546.89,-75.11 536.48,-77.07 539.98,-83.14"/>
</g>
<!-- Node18&#45;&gt;Node2 -->
<g id="edge30" class="edge">
<title>Node18&#45;&gt;Node2</title>
<path fill="none" stroke="#63b8ff" d="M162.34,-274.51C140.26,-265.97 106.83,-253.03 81.92,-243.4"/>
<polygon fill="#63b8ff" stroke="#63b8ff" points="83.48,-240.25 72.89,-239.9 80.95,-246.78 83.48,-240.25"/>
</g>
<!-- Node18&#45;&gt;Node3 -->
<g id="edge28" class="edge">
<title>Node18&#45;&gt;Node3</title>
<path fill="none" stroke="#63b8ff" d="M183.71,-274.81C178.67,-251.36 164.56,-184.74 154.58,-129 151.98,-114.49 149.4,-98.04 147.52,-85.52"/>
<polygon fill="#63b8ff" stroke="#63b8ff" points="150.98,-85.02 146.05,-75.64 144.06,-86.05 150.98,-85.02"/>
</g>
<!-- Node18&#45;&gt;Node5 -->
<g id="edge24" class="edge">
<title>Node18&#45;&gt;Node5</title>
<path fill="none" stroke="#63b8ff" d="M239.39,-283.01C367.42,-280.38 679.58,-264.83 679.58,-175.5 679.58,-175.5 679.58,-175.5 679.58,-118.5 679.58,-40.08 561.7,-18.53 503.42,-12.66"/>
<polygon fill="#63b8ff" stroke="#63b8ff" points="504.07,-9.2 493.79,-11.79 503.44,-16.18 504.07,-9.2"/>
</g>
<!-- Node18&#45;&gt;Node7 -->
<g id="edge26" class="edge">
<title>Node18&#45;&gt;Node7</title>
<path fill="none" stroke="#63b8ff" d="M183.31,-274.74C177.47,-253.59 160.09,-198.99 128.58,-165 116.5,-151.97 99.73,-141.66 84.91,-134.26"/>
<polygon fill="#63b8ff" stroke="#63b8ff" points="86.48,-131.13 75.94,-130.04 83.5,-137.46 86.48,-131.13"/>
</g>
<!-- Node18&#45;&gt;Node9 -->
<g id="edge27" class="edge">
<title>Node18&#45;&gt;Node9</title>
<path fill="none" stroke="#63b8ff" d="M192.46,-274.66C206.24,-256.94 237.49,-216.77 255.7,-193.35"/>
<polygon fill="#63b8ff" stroke="#63b8ff" points="258.31,-195.7 261.68,-185.65 252.78,-191.4 258.31,-195.7"/>
</g>
<!-- Node18&#45;&gt;Node11 -->
<g id="edge25" class="edge">
<title>Node18&#45;&gt;Node11</title>
<path fill="none" stroke="#63b8ff" d="M239.52,-283.85C374.77,-283.3 717.58,-272.34 717.58,-175.5 717.58,-175.5 717.58,-175.5 717.58,-118.5 717.58,-79.84 684.47,-45.44 661.67,-26.34"/>
<polygon fill="#63b8ff" stroke="#63b8ff" points="664.12,-23.82 654.13,-20.29 659.74,-29.28 664.12,-23.82"/>
</g>
<!-- Node18&#45;&gt;Node16 -->
<g id="edge31" class="edge">
<title>Node18&#45;&gt;Node16</title>
<path fill="none" stroke="#63b8ff" d="M209.64,-274.5C282.6,-247.23 501.52,-165.39 586.92,-133.46"/>
<polygon fill="#63b8ff" stroke="#63b8ff" points="588.03,-136.78 596.18,-130 585.58,-130.22 588.03,-136.78"/>
</g>
<!-- Node18&#45;&gt;Node17 -->
<g id="edge29" class="edge">
<title>Node18&#45;&gt;Node17</title>
<path fill="none" stroke="#63b8ff" d="M173.09,-274.53C161.93,-266.14 145.54,-252.85 133.58,-239 121.6,-225.14 110.71,-207.34 103.33,-194.12"/>
<polygon fill="#63b8ff" stroke="#63b8ff" points="106.56,-192.74 98.73,-185.61 100.41,-196.07 106.56,-192.74"/>
</g>
</g>
</svg>
        <g id="navigator" transform="translate(0 0)" fill="#404254">
                <rect fill="#f2f5e9" fill-opacity="0.5" stroke="#606060" stroke-width=".5" x="0" y="0" width="60" height="60"/>
                <use id="zoomplus" xlink:href="#zoomPlus" x="17" y="9" onmousedown="handleZoom(evt,'in')"/>
                <use id="zoomminus" xlink:href="#zoomMin" x="42" y="9" onmousedown="handleZoom(evt,'out')"/>
                <use id="reset" xlink:href="#resetDef" x="30" y="36" onmousedown="handleReset()"/>
                <g id="arrowUp" xlink:href="#dirArrow" transform="translate(30 24)" onmousedown="handlePan(0,-1)">
                  <use xlink:href="#rim" fill="#404040">
                        <set attributeName="fill" to="#808080" begin="arrowUp.mouseover" end="arrowUp.mouseout"/>
                  </use>
                  <path fill="none" stroke="white" stroke-width="1.5" d="M0,-3.0v7 M-2.5,-0.5L0,-3.0L2.5,-0.5"/>
                </g>
                <g id="arrowRight" xlink:href="#dirArrow" transform="rotate(90) translate(36 -43)" onmousedown="handlePan(1,0)">
                  <use xlink:href="#rim" fill="#404040">
                        <set attributeName="fill" to="#808080" begin="arrowRight.mouseover" end="arrowRight.mouseout"/>
                  </use>
                  <path fill="none" stroke="white" stroke-width="1.5" d="M0,-3.0v7 M-2.5,-0.5L0,-3.0L2.5,-0.5"/>
                </g>
                <g id="arrowDown" xlink:href="#dirArrow" transform="rotate(180) translate(-30 -48)" onmousedown="handlePan(0,1)">
                  <use xlink:href="#rim" fill="#404040">
                        <set attributeName="fill" to="#808080" begin="arrowDown.mouseover" end="arrowDown.mouseout"/>
                  </use>
                  <path fill="none" stroke="white" stroke-width="1.5" d="M0,-3.0v7 M-2.5,-0.5L0,-3.0L2.5,-0.5"/>
                </g>
                <g id="arrowLeft" xlink:href="#dirArrow" transform="rotate(270) translate(-36 17)" onmousedown="handlePan(-1,0)">
                  <use xlink:href="#rim" fill="#404040">
                        <set attributeName="fill" to="#808080" begin="arrowLeft.mouseover" end="arrowLeft.mouseout"/>
                  </use>
                  <path fill="none" stroke="white" stroke-width="1.5" d="M0,-3.0v7 M-2.5,-0.5L0,-3.0L2.5,-0.5"/>
                </g>
        </g>
        <svg viewBox="0 0 15 15" width="100%" height="30px" preserveAspectRatio="xMaxYMin meet">
         <g id="arrow_out" transform="scale(0.3 0.3)">
          <a xlink:href="dyadic__operators_8h__incl_org.svg" target="_base">
           <rect id="button" ry="5" rx="5" y="6" x="6" height="38" width="38"
                fill="#f2f5e9" fill-opacity="0.5" stroke="#606060" stroke-width="1.0"/>
           <path id="arrow"
             d="M 11.500037,31.436501 C 11.940474,20.09759 22.043105,11.32322 32.158766,21.979434 L 37.068811,17.246167 C 37.068811,17.246167 37.088388,32 37.088388,32 L 22.160133,31.978069 C 22.160133,31.978069 26.997745,27.140456 26.997745,27.140456 C 18.528582,18.264221 13.291696,25.230495 11.500037,31.436501 z"
             style="fill:#404040;"/>
          </a>
         </g>
        </svg>
</svg>
