<?xml version="1.0" encoding="UTF-8" standalone="no"?>
<!DOCTYPE svg PUBLIC "-//W3C//DTD SVG 1.1//EN"
 "http://www.w3.org/Graphics/SVG/1.1/DTD/svg11.dtd">
<!-- Generated by graphviz version 7.1.0 (20230121.1956)
 -->
<!-- Title: /Users/nikolajbankejensen/Desktop/Kepler/src/core/error_type.h Pages: 1 -->
<!--zoomable 456 -->
<svg id="main" version="1.1" xmlns="http://www.w3.org/2000/svg" xmlns:xlink="http://www.w3.org/1999/xlink" xml:space="preserve" onload="init(evt)">
<style type="text/css"><![CDATA[
.edge:hover path { stroke: red; }
.edge:hover polygon { stroke: red; fill: red; }
]]></style>
<script type="text/javascript"><![CDATA[
var edges = document.getElementsByTagName('g');
if (edges && edges.length) {
  for (var i=0;i<edges.length;i++) {
    if (edges[i].id.substr(0,4)=='edge') {
      edges[i].setAttribute('class','edge');
    }
  }
}
]]></script>
        <defs>
                <circle id="rim" cx="0" cy="0" r="7"/>
                <circle id="rim2" cx="0" cy="0" r="3.5"/>
                <g id="zoomPlus">
                        <use xlink:href="#rim" fill="#404040">
                                <set attributeName="fill" to="#808080" begin="zoomplus.mouseover" end="zoomplus.mouseout"/>
                        </use>
                        <path d="M-4,0h8M0,-4v8" fill="none" stroke="white" stroke-width="1.5" pointer-events="none"/>
                </g>
                <g id="zoomMin">
                        <use xlink:href="#rim" fill="#404040">
                                <set attributeName="fill" to="#808080" begin="zoomminus.mouseover" end="zoomminus.mouseout"/>
                        </use>
                        <path d="M-4,0h8" fill="none" stroke="white" stroke-width="1.5" pointer-events="none"/>
                </g>
                <g id="dirArrow">
                        <path fill="none" stroke="white" stroke-width="1.5" d="M0,-3.0v7 M-2.5,-0.5L0,-3.0L2.5,-0.5"/>
                </g>
               <g id="resetDef">
                       <use xlink:href="#rim2" fill="#404040">
                               <set attributeName="fill" to="#808080" begin="reset.mouseover" end="reset.mouseout"/>
                       </use>
               </g>
        </defs>

<script type="text/javascript">
var viewWidth = 2031;
var viewHeight = 456;
var sectionId = 'dynsection-1';
</script>
<script xlink:href="svgpan.js"/>
<svg id="graph" class="graph">
<g id="viewport">
<title>/Users/nikolajbankejensen/Desktop/Kepler/src/core/error_type.h</title>
<!-- Node1 -->
<g id="node1" class="node">
<title>Node1</title>
<g id="a_node1"><a xlink:title=" ">
<polygon fill="#999999" stroke="#666666" points="1871.5,-448 1740.5,-448 1740.5,-407 1871.5,-407 1871.5,-448"/>
<text text-anchor="start" x="1748.5" y="-436" font-family="Helvetica,sans-Serif" font-size="10.00">/Users/nikolajbankejensen</text>
<text text-anchor="start" x="1748.5" y="-425" font-family="Helvetica,sans-Serif" font-size="10.00">/Desktop/Kepler/src/core</text>
<text text-anchor="middle" x="1806" y="-414" font-family="Helvetica,sans-Serif" font-size="10.00">/error_type.h</text>
</a>
</g>
</g>
<!-- Node2 -->
<g id="node2" class="node">
<title>Node2</title>
<g id="a_node2"><a xlink:href="error_8h.html" target="_top" xlink:title=" ">
<polygon fill="white" stroke="#666666" points="980.5,-371 849.5,-371 849.5,-330 980.5,-330 980.5,-371"/>
<text text-anchor="start" x="857.5" y="-359" font-family="Helvetica,sans-Serif" font-size="10.00">/Users/nikolajbankejensen</text>
<text text-anchor="start" x="857.5" y="-348" font-family="Helvetica,sans-Serif" font-size="10.00">/Desktop/Kepler/src/core</text>
<text text-anchor="middle" x="915" y="-337" font-family="Helvetica,sans-Serif" font-size="10.00">/error.h</text>
</a>
</g>
</g>
<!-- Node1&#45;&gt;Node2 -->
<g id="edge1" class="edge">
<title>Node1&#45;&gt;Node2</title>
<path fill="none" stroke="#63b8ff" d="M1728.87,-420.01C1556.42,-405.49 1142.14,-370.62 980.84,-357.04"/>
<polygon fill="#63b8ff" stroke="#63b8ff" points="1728.35,-423.48 1738.61,-420.83 1728.94,-416.5 1728.35,-423.48"/>
</g>
<!-- Node22 -->
<g id="node22" class="node">
<title>Node22</title>
<g id="a_node22"><a xlink:href="test__examples_8cpp.html" target="_top" xlink:title=" ">
<polygon fill="white" stroke="#666666" points="1108,-41 972,-41 972,0 1108,0 1108,-41"/>
<text text-anchor="start" x="980" y="-29" font-family="Helvetica,sans-Serif" font-size="10.00">/Users/nikolajbankejensen</text>
<text text-anchor="start" x="980" y="-18" font-family="Helvetica,sans-Serif" font-size="10.00">/Desktop/Kepler/src/testing</text>
<text text-anchor="middle" x="1040" y="-7" font-family="Helvetica,sans-Serif" font-size="10.00">/test_examples.cpp</text>
</a>
</g>
</g>
<!-- Node1&#45;&gt;Node22 -->
<g id="edge47" class="edge">
<title>Node1&#45;&gt;Node22</title>
<path fill="none" stroke="#63b8ff" d="M1728.66,-423.01C1564.72,-415.39 1170.23,-395.96 840,-371 652.5,-356.83 0,-457.04 0,-269 0,-269 0,-269 0,-179 0,-80.39 740.39,-36.06 971.76,-24.61"/>
<polygon fill="#63b8ff" stroke="#63b8ff" points="1728.4,-426.5 1738.55,-423.46 1728.72,-419.51 1728.4,-426.5"/>
</g>
<!-- Node24 -->
<g id="node24" class="node">
<title>Node24</title>
<g id="a_node24"><a xlink:href="test__datatypes_8cpp.html" target="_top" xlink:title=" ">
<polygon fill="white" stroke="#666666" points="1599,-41 1463,-41 1463,0 1599,0 1599,-41"/>
<text text-anchor="start" x="1471" y="-29" font-family="Helvetica,sans-Serif" font-size="10.00">/Users/nikolajbankejensen</text>
<text text-anchor="start" x="1471" y="-18" font-family="Helvetica,sans-Serif" font-size="10.00">/Desktop/Kepler/src/testing</text>
<text text-anchor="middle" x="1531" y="-7" font-family="Helvetica,sans-Serif" font-size="10.00">/test_datatypes.cpp</text>
</a>
</g>
</g>
<!-- Node1&#45;&gt;Node24 -->
<g id="edge46" class="edge">
<title>Node1&#45;&gt;Node24</title>
<path fill="none" stroke="#63b8ff" d="M1811.96,-395.55C1817.53,-363.89 1825,-313.2 1825,-269 1825,-269 1825,-269 1825,-179 1825,-132.43 1834.69,-109.15 1801,-77 1737.88,-16.76 1693.23,-59.72 1608,-41 1605.17,-40.38 1602.29,-39.73 1599.38,-39.06"/>
<polygon fill="#63b8ff" stroke="#63b8ff" points="1808.55,-394.75 1810.21,-405.21 1815.44,-396 1808.55,-394.75"/>
</g>
<!-- Node25 -->
<g id="node25" class="node">
<title>Node25</title>
<g id="a_node25"><a xlink:href="test__functions_8cpp.html" target="_top" xlink:title=" ">
<polygon fill="white" stroke="#666666" points="1907,-41 1771,-41 1771,0 1907,0 1907,-41"/>
<text text-anchor="start" x="1779" y="-29" font-family="Helvetica,sans-Serif" font-size="10.00">/Users/nikolajbankejensen</text>
<text text-anchor="start" x="1779" y="-18" font-family="Helvetica,sans-Serif" font-size="10.00">/Desktop/Kepler/src/testing</text>
<text text-anchor="middle" x="1839" y="-7" font-family="Helvetica,sans-Serif" font-size="10.00">/test_functions.cpp</text>
</a>
</g>
</g>
<!-- Node1&#45;&gt;Node25 -->
<g id="edge48" class="edge">
<title>Node1&#45;&gt;Node25</title>
<path fill="none" stroke="#63b8ff" d="M1825.83,-396.94C1830.67,-388.79 1835.46,-379.77 1839,-371 1856.44,-327.82 1863,-315.57 1863,-269 1863,-269 1863,-269 1863,-179 1863,-128.94 1851,-70.93 1843.97,-41.24"/>
<polygon fill="#63b8ff" stroke="#63b8ff" points="1822.87,-395.08 1820.58,-405.43 1828.82,-398.77 1822.87,-395.08"/>
</g>
<!-- Node26 -->
<g id="node26" class="node">
<title>Node26</title>
<g id="a_node26"><a xlink:href="test__operators_8cpp.html" target="_top" xlink:title=" ">
<polygon fill="white" stroke="#666666" points="1445,-41 1309,-41 1309,0 1445,0 1445,-41"/>
<text text-anchor="start" x="1317" y="-29" font-family="Helvetica,sans-Serif" font-size="10.00">/Users/nikolajbankejensen</text>
<text text-anchor="start" x="1317" y="-18" font-family="Helvetica,sans-Serif" font-size="10.00">/Desktop/Kepler/src/testing</text>
<text text-anchor="middle" x="1377" y="-7" font-family="Helvetica,sans-Serif" font-size="10.00">/test_operators.cpp</text>
</a>
</g>
</g>
<!-- Node1&#45;&gt;Node26 -->
<g id="edge49" class="edge">
<title>Node1&#45;&gt;Node26</title>
<path fill="none" stroke="#63b8ff" d="M1800.04,-395.55C1794.47,-363.89 1787,-313.2 1787,-269 1787,-269 1787,-269 1787,-179 1787,-127.91 1775.88,-106.26 1734,-77 1682.57,-41.08 1515.63,-52.72 1454,-41 1451.16,-40.46 1448.26,-39.88 1445.34,-39.26"/>
<polygon fill="#63b8ff" stroke="#63b8ff" points="1796.56,-396 1801.79,-405.21 1803.45,-394.75 1796.56,-396"/>
</g>
<!-- Node32 -->
<g id="node32" class="node">
<title>Node32</title>
<g id="a_node32"><a xlink:href="error__type_8cpp.html" target="_top" xlink:title=" ">
<polygon fill="white" stroke="#666666" points="2022.5,-371 1891.5,-371 1891.5,-330 2022.5,-330 2022.5,-371"/>
<text text-anchor="start" x="1899.5" y="-359" font-family="Helvetica,sans-Serif" font-size="10.00">/Users/nikolajbankejensen</text>
<text text-anchor="start" x="1899.5" y="-348" font-family="Helvetica,sans-Serif" font-size="10.00">/Desktop/Kepler/src/core</text>
<text text-anchor="middle" x="1957" y="-337" font-family="Helvetica,sans-Serif" font-size="10.00">/error_type.cpp</text>
</a>
</g>
</g>
<!-- Node1&#45;&gt;Node32 -->
<g id="edge45" class="edge">
<title>Node1&#45;&gt;Node32</title>
<path fill="none" stroke="#63b8ff" d="M1856.37,-401.48C1876.01,-391.73 1898.2,-380.7 1916.74,-371.49"/>
<polygon fill="#63b8ff" stroke="#63b8ff" points="1854.82,-398.34 1847.42,-405.92 1857.94,-404.61 1854.82,-398.34"/>
</g>
<!-- Node3 -->
<g id="node3" class="node">
<title>Node3</title>
<g id="a_node3"><a xlink:href="algorithms_8cpp.html" target="_top" xlink:title=" ">
<polygon fill="white" stroke="#666666" points="1058.5,-288.5 927.5,-288.5 927.5,-247.5 1058.5,-247.5 1058.5,-288.5"/>
<text text-anchor="start" x="935.5" y="-276.5" font-family="Helvetica,sans-Serif" font-size="10.00">/Users/nikolajbankejensen</text>
<text text-anchor="start" x="935.5" y="-265.5" font-family="Helvetica,sans-Serif" font-size="10.00">/Desktop/Kepler/src/core</text>
<text text-anchor="middle" x="993" y="-254.5" font-family="Helvetica,sans-Serif" font-size="10.00">/evaluation/algorithms.cpp</text>
</a>
</g>
</g>
<!-- Node2&#45;&gt;Node3 -->
<g id="edge2" class="edge">
<title>Node2&#45;&gt;Node3</title>
<path fill="none" stroke="#63b8ff" d="M942.26,-321.36C952.62,-310.67 964.19,-298.73 973.67,-288.95"/>
<polygon fill="#63b8ff" stroke="#63b8ff" points="939.78,-318.9 935.33,-328.51 944.81,-323.77 939.78,-318.9"/>
</g>
<!-- Node4 -->
<g id="node4" class="node">
<title>Node4</title>
<g id="a_node4"><a xlink:href="interpreter_8h.html" target="_top" xlink:title=" ">
<polygon fill="white" stroke="#666666" points="1517.5,-288.5 1386.5,-288.5 1386.5,-247.5 1517.5,-247.5 1517.5,-288.5"/>
<text text-anchor="start" x="1394.5" y="-276.5" font-family="Helvetica,sans-Serif" font-size="10.00">/Users/nikolajbankejensen</text>
<text text-anchor="start" x="1394.5" y="-265.5" font-family="Helvetica,sans-Serif" font-size="10.00">/Desktop/Kepler/src/core</text>
<text text-anchor="middle" x="1452" y="-254.5" font-family="Helvetica,sans-Serif" font-size="10.00">/evaluation/interpreter.h</text>
</a>
</g>
</g>
<!-- Node2&#45;&gt;Node4 -->
<g id="edge3" class="edge">
<title>Node2&#45;&gt;Node4</title>
<path fill="none" stroke="#63b8ff" d="M992.22,-345.01C1084.62,-338.54 1243.58,-323.93 1377,-294 1383.29,-292.59 1389.81,-290.85 1396.24,-288.96"/>
<polygon fill="#63b8ff" stroke="#63b8ff" points="991.99,-341.52 982.25,-345.69 992.47,-348.5 991.99,-341.52"/>
</g>
<!-- Node8 -->
<g id="node8" class="node">
<title>Node8</title>
<g id="a_node8"><a xlink:href="dyadic__operators_8cpp.html" target="_top" xlink:title=" ">
<polygon fill="white" stroke="#666666" points="1368.5,-294 1225.5,-294 1225.5,-242 1368.5,-242 1368.5,-294"/>
<text text-anchor="start" x="1233.5" y="-282" font-family="Helvetica,sans-Serif" font-size="10.00">/Users/nikolajbankejensen</text>
<text text-anchor="start" x="1233.5" y="-271" font-family="Helvetica,sans-Serif" font-size="10.00">/Desktop/Kepler/src/core</text>
<text text-anchor="start" x="1233.5" y="-260" font-family="Helvetica,sans-Serif" font-size="10.00">/evaluation/operations/dyadic</text>
<text text-anchor="middle" x="1297" y="-249" font-family="Helvetica,sans-Serif" font-size="10.00">_operators.cpp</text>
</a>
</g>
</g>
<!-- Node2&#45;&gt;Node8 -->
<g id="edge7" class="edge">
<title>Node2&#45;&gt;Node8</title>
<path fill="none" stroke="#63b8ff" d="M992.04,-337.85C1053.17,-327.99 1140.58,-312.52 1216,-294 1219,-293.26 1222.06,-292.48 1225.13,-291.66"/>
<polygon fill="#63b8ff" stroke="#63b8ff" points="991.76,-334.35 982.43,-339.38 992.86,-341.26 991.76,-334.35"/>
</g>
<!-- Node9 -->
<g id="node9" class="node">
<title>Node9</title>
<g id="a_node9"><a xlink:href="functions_8cpp.html" target="_top" xlink:title=" ">
<polygon fill="white" stroke="#666666" points="1720.5,-200.5 1547.5,-200.5 1547.5,-159.5 1720.5,-159.5 1720.5,-200.5"/>
<text text-anchor="start" x="1555.5" y="-188.5" font-family="Helvetica,sans-Serif" font-size="10.00">/Users/nikolajbankejensen</text>
<text text-anchor="start" x="1555.5" y="-177.5" font-family="Helvetica,sans-Serif" font-size="10.00">/Desktop/Kepler/src/core</text>
<text text-anchor="middle" x="1634" y="-166.5" font-family="Helvetica,sans-Serif" font-size="10.00">/evaluation/operations/functions.cpp</text>
</a>
</g>
</g>
<!-- Node2&#45;&gt;Node9 -->
<g id="edge8" class="edge">
<title>Node2&#45;&gt;Node9</title>
<path fill="none" stroke="#63b8ff" d="M992,-349.17C1134.6,-347.47 1433.64,-338.54 1526,-294 1569.27,-273.14 1604.33,-227.11 1621.85,-200.68"/>
<polygon fill="#63b8ff" stroke="#63b8ff" points="992.25,-345.67 982.29,-349.28 992.32,-352.67 992.25,-345.67"/>
</g>
<!-- Node10 -->
<g id="node10" class="node">
<title>Node10</title>
<g id="a_node10"><a xlink:href="monadic__operators_8cpp.html" target="_top" xlink:title=" ">
<polygon fill="white" stroke="#666666" points="180,-294 28,-294 28,-242 180,-242 180,-294"/>
<text text-anchor="start" x="36" y="-282" font-family="Helvetica,sans-Serif" font-size="10.00">/Users/nikolajbankejensen</text>
<text text-anchor="start" x="36" y="-271" font-family="Helvetica,sans-Serif" font-size="10.00">/Desktop/Kepler/src/core</text>
<text text-anchor="start" x="36" y="-260" font-family="Helvetica,sans-Serif" font-size="10.00">/evaluation/operations/monadic</text>
<text text-anchor="middle" x="104" y="-249" font-family="Helvetica,sans-Serif" font-size="10.00">_operators.cpp</text>
</a>
</g>
</g>
<!-- Node2&#45;&gt;Node10 -->
<g id="edge9" class="edge">
<title>Node2&#45;&gt;Node10</title>
<path fill="none" stroke="#63b8ff" d="M838.06,-348.9C704.78,-346.68 422.78,-336.83 189,-294 186.13,-293.47 183.21,-292.89 180.27,-292.25"/>
<polygon fill="#63b8ff" stroke="#63b8ff" points="837.77,-352.39 847.82,-349.05 837.88,-345.39 837.77,-352.39"/>
</g>
<!-- Node11 -->
<g id="node11" class="node">
<title>Node11</title>
<g id="a_node11"><a xlink:href="operation_8cpp.html" target="_top" xlink:title=" ">
<polygon fill="white" stroke="#666666" points="371.5,-288.5 198.5,-288.5 198.5,-247.5 371.5,-247.5 371.5,-288.5"/>
<text text-anchor="start" x="206.5" y="-276.5" font-family="Helvetica,sans-Serif" font-size="10.00">/Users/nikolajbankejensen</text>
<text text-anchor="start" x="206.5" y="-265.5" font-family="Helvetica,sans-Serif" font-size="10.00">/Desktop/Kepler/src/core</text>
<text text-anchor="middle" x="285" y="-254.5" font-family="Helvetica,sans-Serif" font-size="10.00">/evaluation/operations/operation.cpp</text>
</a>
</g>
</g>
<!-- Node2&#45;&gt;Node11 -->
<g id="edge10" class="edge">
<title>Node2&#45;&gt;Node11</title>
<path fill="none" stroke="#63b8ff" d="M837.76,-344.75C734.32,-337.63 545.34,-321.94 386,-294 377.82,-292.56 369.31,-290.84 360.87,-288.97"/>
<polygon fill="#63b8ff" stroke="#63b8ff" points="837.31,-348.23 847.52,-345.42 837.78,-341.25 837.31,-348.23"/>
</g>
<!-- Node12 -->
<g id="node12" class="node">
<title>Node12</title>
<g id="a_node12"><a xlink:href="parser_8cpp.html" target="_top" xlink:title=" ">
<polygon fill="white" stroke="#666666" points="465.5,-200.5 334.5,-200.5 334.5,-159.5 465.5,-159.5 465.5,-200.5"/>
<text text-anchor="start" x="342.5" y="-188.5" font-family="Helvetica,sans-Serif" font-size="10.00">/Users/nikolajbankejensen</text>
<text text-anchor="start" x="342.5" y="-177.5" font-family="Helvetica,sans-Serif" font-size="10.00">/Desktop/Kepler/src/core</text>
<text text-anchor="middle" x="400" y="-166.5" font-family="Helvetica,sans-Serif" font-size="10.00">/evaluation/parser.cpp</text>
</a>
</g>
</g>
<!-- Node2&#45;&gt;Node12 -->
<g id="edge11" class="edge">
<title>Node2&#45;&gt;Node12</title>
<path fill="none" stroke="#63b8ff" d="M837.97,-345.92C706.21,-339.07 448.81,-322.21 419,-294 393.71,-270.07 394.12,-226.05 396.91,-200.59"/>
<polygon fill="#63b8ff" stroke="#63b8ff" points="837.48,-349.4 847.65,-346.42 837.84,-342.41 837.48,-349.4"/>
</g>
<!-- Node13 -->
<g id="node13" class="node">
<title>Node13</title>
<g id="a_node13"><a xlink:href="tokenizer_8cpp.html" target="_top" xlink:title=" ">
<polygon fill="white" stroke="#666666" points="559.5,-288.5 428.5,-288.5 428.5,-247.5 559.5,-247.5 559.5,-288.5"/>
<text text-anchor="start" x="436.5" y="-276.5" font-family="Helvetica,sans-Serif" font-size="10.00">/Users/nikolajbankejensen</text>
<text text-anchor="start" x="436.5" y="-265.5" font-family="Helvetica,sans-Serif" font-size="10.00">/Desktop/Kepler/src/core</text>
<text text-anchor="middle" x="494" y="-254.5" font-family="Helvetica,sans-Serif" font-size="10.00">/evaluation/tokenizer.cpp</text>
</a>
</g>
</g>
<!-- Node2&#45;&gt;Node13 -->
<g id="edge12" class="edge">
<title>Node2&#45;&gt;Node13</title>
<path fill="none" stroke="#63b8ff" d="M838.07,-340.94C767.26,-332.19 659.64,-316.64 568,-294 562.08,-292.54 555.95,-290.81 549.87,-288.97"/>
<polygon fill="#63b8ff" stroke="#63b8ff" points="837.26,-344.37 847.61,-342.11 838.11,-337.42 837.26,-344.37"/>
</g>
<!-- Node14 -->
<g id="node14" class="node">
<title>Node14</title>
<g id="a_node14"><a xlink:href="helpers_8cpp.html" target="_top" xlink:title=" ">
<polygon fill="white" stroke="#666666" points="708.5,-288.5 577.5,-288.5 577.5,-247.5 708.5,-247.5 708.5,-288.5"/>
<text text-anchor="start" x="585.5" y="-276.5" font-family="Helvetica,sans-Serif" font-size="10.00">/Users/nikolajbankejensen</text>
<text text-anchor="start" x="585.5" y="-265.5" font-family="Helvetica,sans-Serif" font-size="10.00">/Desktop/Kepler/src/core</text>
<text text-anchor="middle" x="643" y="-254.5" font-family="Helvetica,sans-Serif" font-size="10.00">/helpers.cpp</text>
</a>
</g>
</g>
<!-- Node2&#45;&gt;Node14 -->
<g id="edge13" class="edge">
<title>Node2&#45;&gt;Node14</title>
<path fill="none" stroke="#63b8ff" d="M838.45,-327.78C803.24,-317.68 760.94,-305.41 723,-294 717.57,-292.37 711.93,-290.65 706.28,-288.91"/>
<polygon fill="#63b8ff" stroke="#63b8ff" points="837.11,-331.04 847.68,-330.42 839.03,-324.31 837.11,-331.04"/>
</g>
<!-- Node15 -->
<g id="node15" class="node">
<title>Node15</title>
<g id="a_node15"><a xlink:href="symbol__table_8cpp.html" target="_top" xlink:title=" ">
<polygon fill="white" stroke="#666666" points="614.5,-200.5 483.5,-200.5 483.5,-159.5 614.5,-159.5 614.5,-200.5"/>
<text text-anchor="start" x="491.5" y="-188.5" font-family="Helvetica,sans-Serif" font-size="10.00">/Users/nikolajbankejensen</text>
<text text-anchor="start" x="491.5" y="-177.5" font-family="Helvetica,sans-Serif" font-size="10.00">/Desktop/Kepler/src/core</text>
<text text-anchor="middle" x="549" y="-166.5" font-family="Helvetica,sans-Serif" font-size="10.00">/symbol_table.cpp</text>
</a>
</g>
</g>
<!-- Node2&#45;&gt;Node15 -->
<g id="edge14" class="edge">
<title>Node2&#45;&gt;Node15</title>
<path fill="none" stroke="#63b8ff" d="M838.43,-332.74C810.7,-324.2 780.27,-311.75 756,-294 732.68,-276.94 740.21,-259.2 717,-242 712.23,-238.47 653.15,-217.37 606.39,-200.96"/>
<polygon fill="#63b8ff" stroke="#63b8ff" points="837.27,-336.05 847.85,-335.51 839.25,-329.33 837.27,-336.05"/>
</g>
<!-- Node16 -->
<g id="node16" class="node">
<title>Node16</title>
<g id="a_node16"><a xlink:href="symbol__table_8h.html" target="_top" xlink:title=" ">
<polygon fill="white" stroke="#666666" points="1207.5,-288.5 1076.5,-288.5 1076.5,-247.5 1207.5,-247.5 1207.5,-288.5"/>
<text text-anchor="start" x="1084.5" y="-276.5" font-family="Helvetica,sans-Serif" font-size="10.00">/Users/nikolajbankejensen</text>
<text text-anchor="start" x="1084.5" y="-265.5" font-family="Helvetica,sans-Serif" font-size="10.00">/Desktop/Kepler/src/core</text>
<text text-anchor="middle" x="1142" y="-254.5" font-family="Helvetica,sans-Serif" font-size="10.00">/symbol_table.h</text>
</a>
</g>
</g>
<!-- Node2&#45;&gt;Node16 -->
<g id="edge15" class="edge">
<title>Node2&#45;&gt;Node16</title>
<path fill="none" stroke="#63b8ff" d="M981.61,-325.88C1014.68,-314.15 1054.21,-300.13 1085.75,-288.95"/>
<polygon fill="#63b8ff" stroke="#63b8ff" points="980.79,-322.45 972.54,-329.1 983.13,-329.05 980.79,-322.45"/>
</g>
<!-- Node29 -->
<g id="node29" class="node">
<title>Node29</title>
<g id="a_node29"><a xlink:href="file__reader_8cpp.html" target="_top" xlink:title=" ">
<polygon fill="white" stroke="#666666" points="909,-288.5 765,-288.5 765,-247.5 909,-247.5 909,-288.5"/>
<text text-anchor="start" x="773" y="-276.5" font-family="Helvetica,sans-Serif" font-size="10.00">/Users/nikolajbankejensen</text>
<text text-anchor="start" x="773" y="-265.5" font-family="Helvetica,sans-Serif" font-size="10.00">/Desktop/Kepler/src/interface</text>
<text text-anchor="middle" x="837" y="-254.5" font-family="Helvetica,sans-Serif" font-size="10.00">/file_reader.cpp</text>
</a>
</g>
</g>
<!-- Node2&#45;&gt;Node29 -->
<g id="edge37" class="edge">
<title>Node2&#45;&gt;Node29</title>
<path fill="none" stroke="#63b8ff" d="M887.74,-321.36C877.38,-310.67 865.81,-298.73 856.33,-288.95"/>
<polygon fill="#63b8ff" stroke="#63b8ff" points="885.19,-323.77 894.67,-328.51 890.22,-318.9 885.19,-323.77"/>
</g>
<!-- Node30 -->
<g id="node30" class="node">
<title>Node30</title>
<g id="a_node30"><a xlink:href="matcher_8h.html" target="_top" xlink:title=" ">
<polygon fill="white" stroke="#666666" points="1725,-118 1589,-118 1589,-77 1725,-77 1725,-118"/>
<text text-anchor="start" x="1597" y="-106" font-family="Helvetica,sans-Serif" font-size="10.00">/Users/nikolajbankejensen</text>
<text text-anchor="start" x="1597" y="-95" font-family="Helvetica,sans-Serif" font-size="10.00">/Desktop/Kepler/src/testing</text>
<text text-anchor="middle" x="1657" y="-84" font-family="Helvetica,sans-Serif" font-size="10.00">/matcher.h</text>
</a>
</g>
</g>
<!-- Node2&#45;&gt;Node30 -->
<g id="edge38" class="edge">
<title>Node2&#45;&gt;Node30</title>
<path fill="none" stroke="#63b8ff" d="M992.26,-347.08C1141.83,-341.71 1465.61,-326.63 1572,-294 1648.48,-270.55 1688.56,-275.02 1729,-206 1740.68,-186.06 1739.2,-174.74 1729,-154 1721.76,-139.27 1708.52,-127.35 1695.35,-118.39"/>
<polygon fill="#63b8ff" stroke="#63b8ff" points="992.31,-343.57 982.44,-347.42 992.56,-350.57 992.31,-343.57"/>
</g>
<!-- Node5 -->
<g id="node5" class="node">
<title>Node5</title>
<g id="a_node5"><a xlink:href="execution_8cpp.html" target="_top" xlink:title=" ">
<polygon fill="white" stroke="#666666" points="1570.5,-118 1439.5,-118 1439.5,-77 1570.5,-77 1570.5,-118"/>
<text text-anchor="start" x="1447.5" y="-106" font-family="Helvetica,sans-Serif" font-size="10.00">/Users/nikolajbankejensen</text>
<text text-anchor="start" x="1447.5" y="-95" font-family="Helvetica,sans-Serif" font-size="10.00">/Desktop/Kepler/src/core</text>
<text text-anchor="middle" x="1505" y="-84" font-family="Helvetica,sans-Serif" font-size="10.00">/evaluation/execution.cpp</text>
</a>
</g>
</g>
<!-- Node4&#45;&gt;Node5 -->
<g id="edge4" class="edge">
<title>Node4&#45;&gt;Node5</title>
<path fill="none" stroke="#63b8ff" d="M1479.57,-238.54C1487.24,-228.94 1494.66,-217.68 1499,-206 1509.82,-176.92 1509.13,-140.35 1507.31,-118.23"/>
<polygon fill="#63b8ff" stroke="#63b8ff" points="1477.01,-236.15 1473.21,-246.04 1482.35,-240.68 1477.01,-236.15"/>
</g>
<!-- Node6 -->
<g id="node6" class="node">
<title>Node6</title>
<g id="a_node6"><a xlink:href="interpreter_8cpp.html" target="_top" xlink:title=" ">
<polygon fill="white" stroke="#666666" points="1490.5,-200.5 1359.5,-200.5 1359.5,-159.5 1490.5,-159.5 1490.5,-200.5"/>
<text text-anchor="start" x="1367.5" y="-188.5" font-family="Helvetica,sans-Serif" font-size="10.00">/Users/nikolajbankejensen</text>
<text text-anchor="start" x="1367.5" y="-177.5" font-family="Helvetica,sans-Serif" font-size="10.00">/Desktop/Kepler/src/core</text>
<text text-anchor="middle" x="1425" y="-166.5" font-family="Helvetica,sans-Serif" font-size="10.00">/evaluation/interpreter.cpp</text>
</a>
</g>
</g>
<!-- Node4&#45;&gt;Node6 -->
<g id="edge5" class="edge">
<title>Node4&#45;&gt;Node6</title>
<path fill="none" stroke="#63b8ff" d="M1442.36,-236.29C1438.65,-224.49 1434.53,-211.35 1431.23,-200.84"/>
<polygon fill="#63b8ff" stroke="#63b8ff" points="1438.95,-237.12 1445.28,-245.61 1445.63,-235.02 1438.95,-237.12"/>
</g>
<!-- Node7 -->
<g id="node7" class="node">
<title>Node7</title>
<g id="a_node7"><a xlink:href="defined__function_8cpp.html" target="_top" xlink:title=" ">
<polygon fill="white" stroke="#666666" points="1341,-206 1195,-206 1195,-154 1341,-154 1341,-206"/>
<text text-anchor="start" x="1203" y="-194" font-family="Helvetica,sans-Serif" font-size="10.00">/Users/nikolajbankejensen</text>
<text text-anchor="start" x="1203" y="-183" font-family="Helvetica,sans-Serif" font-size="10.00">/Desktop/Kepler/src/core</text>
<text text-anchor="start" x="1203" y="-172" font-family="Helvetica,sans-Serif" font-size="10.00">/evaluation/operations/defined</text>
<text text-anchor="middle" x="1268" y="-161" font-family="Helvetica,sans-Serif" font-size="10.00">_function.cpp</text>
</a>
</g>
</g>
<!-- Node4&#45;&gt;Node7 -->
<g id="edge6" class="edge">
<title>Node4&#45;&gt;Node7</title>
<path fill="none" stroke="#63b8ff" d="M1398.97,-242.21C1374.92,-230.98 1346.53,-217.7 1322.34,-206.4"/>
<polygon fill="#63b8ff" stroke="#63b8ff" points="1397.41,-245.35 1407.95,-246.41 1400.38,-239.01 1397.41,-245.35"/>
</g>
<!-- Node16&#45;&gt;Node5 -->
<g id="edge18" class="edge">
<title>Node16&#45;&gt;Node5</title>
<path fill="none" stroke="#63b8ff" d="M1145.52,-235.96C1150.19,-209.93 1161.02,-173.91 1186,-154 1271.72,-85.67 1322.58,-139.82 1430,-118 1433.03,-117.38 1436.13,-116.72 1439.24,-116.03"/>
<polygon fill="#63b8ff" stroke="#63b8ff" points="1142.09,-235.2 1144.01,-245.62 1149.01,-236.28 1142.09,-235.2"/>
</g>
<!-- Node16&#45;&gt;Node6 -->
<g id="edge29" class="edge">
<title>Node16&#45;&gt;Node6</title>
<path fill="none" stroke="#63b8ff" d="M1210.45,-243.7C1212.32,-243.12 1214.17,-242.55 1216,-242 1275.02,-224.12 1290.94,-223.76 1350,-206 1355.26,-204.42 1360.7,-202.72 1366.15,-200.98"/>
<polygon fill="#63b8ff" stroke="#63b8ff" points="1209.57,-240.31 1201.1,-246.67 1211.69,-246.98 1209.57,-240.31"/>
</g>
<!-- Node16&#45;&gt;Node7 -->
<g id="edge30" class="edge">
<title>Node16&#45;&gt;Node7</title>
<path fill="none" stroke="#63b8ff" d="M1180.32,-240.84C1196.34,-229.91 1214.89,-217.25 1230.79,-206.4"/>
<polygon fill="#63b8ff" stroke="#63b8ff" points="1178.76,-237.67 1172.47,-246.2 1182.71,-243.45 1178.76,-237.67"/>
</g>
<!-- Node16&#45;&gt;Node9 -->
<g id="edge31" class="edge">
<title>Node16&#45;&gt;Node9</title>
<path fill="none" stroke="#63b8ff" d="M1208.05,-243.97C1210.72,-243.26 1213.38,-242.6 1216,-242 1339.56,-213.57 1373.73,-225.55 1499,-206 1514.66,-203.56 1531.3,-200.69 1547.34,-197.8"/>
<polygon fill="#63b8ff" stroke="#63b8ff" points="1207.15,-240.58 1198.47,-246.67 1209.04,-247.32 1207.15,-240.58"/>
</g>
<!-- Node16&#45;&gt;Node12 -->
<g id="edge32" class="edge">
<title>Node16&#45;&gt;Node12</title>
<path fill="none" stroke="#63b8ff" d="M1076.59,-244.1C1073.37,-243.32 1070.16,-242.61 1067,-242 807.77,-191.82 733.13,-256.7 474,-206 467.35,-204.7 460.47,-202.95 453.71,-200.98"/>
<polygon fill="#63b8ff" stroke="#63b8ff" points="1075.53,-247.44 1086.09,-246.63 1077.33,-240.68 1075.53,-247.44"/>
</g>
<!-- Node16&#45;&gt;Node15 -->
<g id="edge33" class="edge">
<title>Node16&#45;&gt;Node15</title>
<path fill="none" stroke="#63b8ff" d="M1076.07,-244.06C1073.02,-243.3 1069.99,-242.61 1067,-242 873.02,-202.41 816.9,-245.98 623,-206 616.49,-204.66 609.76,-202.91 603.14,-200.97"/>
<polygon fill="#63b8ff" stroke="#63b8ff" points="1075.09,-247.42 1085.66,-246.64 1076.91,-240.66 1075.09,-247.42"/>
</g>
<!-- Node17 -->
<g id="node17" class="node">
<title>Node17</title>
<g id="a_node17"><a xlink:href="array_8cpp.html" target="_top" xlink:title=" ">
<polygon fill="white" stroke="#666666" points="763.5,-200.5 632.5,-200.5 632.5,-159.5 763.5,-159.5 763.5,-200.5"/>
<text text-anchor="start" x="640.5" y="-188.5" font-family="Helvetica,sans-Serif" font-size="10.00">/Users/nikolajbankejensen</text>
<text text-anchor="start" x="640.5" y="-177.5" font-family="Helvetica,sans-Serif" font-size="10.00">/Desktop/Kepler/src/core</text>
<text text-anchor="middle" x="698" y="-166.5" font-family="Helvetica,sans-Serif" font-size="10.00">/array.cpp</text>
</a>
</g>
</g>
<!-- Node16&#45;&gt;Node17 -->
<g id="edge16" class="edge">
<title>Node16&#45;&gt;Node17</title>
<path fill="none" stroke="#63b8ff" d="M1075.36,-244.03C1072.55,-243.3 1069.75,-242.62 1067,-242 938.15,-212.97 900.8,-235.29 772,-206 765.79,-204.59 759.36,-202.85 753.01,-200.96"/>
<polygon fill="#63b8ff" stroke="#63b8ff" points="1074.21,-247.34 1084.78,-246.65 1076.08,-240.6 1074.21,-247.34"/>
</g>
<!-- Node18 -->
<g id="node18" class="node">
<title>Node18</title>
<g id="a_node18"><a xlink:href="ast_8cpp.html" target="_top" xlink:title=" ">
<polygon fill="white" stroke="#666666" points="912.5,-200.5 781.5,-200.5 781.5,-159.5 912.5,-159.5 912.5,-200.5"/>
<text text-anchor="start" x="789.5" y="-188.5" font-family="Helvetica,sans-Serif" font-size="10.00">/Users/nikolajbankejensen</text>
<text text-anchor="start" x="789.5" y="-177.5" font-family="Helvetica,sans-Serif" font-size="10.00">/Desktop/Kepler/src/core</text>
<text text-anchor="middle" x="847" y="-166.5" font-family="Helvetica,sans-Serif" font-size="10.00">/evaluation/ast.cpp</text>
</a>
</g>
</g>
<!-- Node16&#45;&gt;Node18 -->
<g id="edge17" class="edge">
<title>Node16&#45;&gt;Node18</title>
<path fill="none" stroke="#63b8ff" d="M1072.63,-243.68C1070.73,-243.11 1068.86,-242.55 1067,-242 1005.38,-223.83 988.79,-223.59 927,-206 921.4,-204.41 915.6,-202.7 909.79,-200.96"/>
<polygon fill="#63b8ff" stroke="#63b8ff" points="1071.54,-247.01 1082.13,-246.64 1073.62,-240.33 1071.54,-247.01"/>
</g>
<!-- Node19 -->
<g id="node19" class="node">
<title>Node19</title>
<g id="a_node19"><a xlink:href="execution_8h.html" target="_top" xlink:title=" ">
<polygon fill="white" stroke="#666666" points="1100.5,-200.5 969.5,-200.5 969.5,-159.5 1100.5,-159.5 1100.5,-200.5"/>
<text text-anchor="start" x="977.5" y="-188.5" font-family="Helvetica,sans-Serif" font-size="10.00">/Users/nikolajbankejensen</text>
<text text-anchor="start" x="977.5" y="-177.5" font-family="Helvetica,sans-Serif" font-size="10.00">/Desktop/Kepler/src/core</text>
<text text-anchor="middle" x="1035" y="-166.5" font-family="Helvetica,sans-Serif" font-size="10.00">/evaluation/execution.h</text>
</a>
</g>
</g>
<!-- Node16&#45;&gt;Node19 -->
<g id="edge19" class="edge">
<title>Node16&#45;&gt;Node19</title>
<path fill="none" stroke="#63b8ff" d="M1108.27,-239.89C1092.52,-227.23 1074.11,-212.43 1059.68,-200.84"/>
<polygon fill="#63b8ff" stroke="#63b8ff" points="1106.02,-242.57 1116,-246.11 1110.4,-237.11 1106.02,-242.57"/>
</g>
<!-- Node23 -->
<g id="node23" class="node">
<title>Node23</title>
<g id="a_node23"><a xlink:href="general__fixture_8h.html" target="_top" xlink:title=" ">
<polygon fill="white" stroke="#666666" points="1421,-118 1285,-118 1285,-77 1421,-77 1421,-118"/>
<text text-anchor="start" x="1293" y="-106" font-family="Helvetica,sans-Serif" font-size="10.00">/Users/nikolajbankejensen</text>
<text text-anchor="start" x="1293" y="-95" font-family="Helvetica,sans-Serif" font-size="10.00">/Desktop/Kepler/src/testing</text>
<text text-anchor="middle" x="1353" y="-84" font-family="Helvetica,sans-Serif" font-size="10.00">/fixtures/general_fixture.h</text>
</a>
</g>
</g>
<!-- Node16&#45;&gt;Node23 -->
<g id="edge34" class="edge">
<title>Node16&#45;&gt;Node23</title>
<path fill="none" stroke="#63b8ff" d="M1136.24,-235.9C1133.49,-210.93 1134.15,-176.44 1153,-154 1155.24,-151.34 1227.62,-131.67 1284.67,-116.5"/>
<polygon fill="#63b8ff" stroke="#63b8ff" points="1132.77,-236.37 1137.6,-245.8 1139.71,-235.42 1132.77,-236.37"/>
</g>
<!-- Node27 -->
<g id="node27" class="node">
<title>Node27</title>
<g id="a_node27"><a xlink:href="parser__fixture_8h.html" target="_top" xlink:title=" ">
<polygon fill="white" stroke="#666666" points="949,-118 813,-118 813,-77 949,-77 949,-118"/>
<text text-anchor="start" x="821" y="-106" font-family="Helvetica,sans-Serif" font-size="10.00">/Users/nikolajbankejensen</text>
<text text-anchor="start" x="821" y="-95" font-family="Helvetica,sans-Serif" font-size="10.00">/Desktop/Kepler/src/testing</text>
<text text-anchor="middle" x="881" y="-84" font-family="Helvetica,sans-Serif" font-size="10.00">/fixtures/parser_fixture.h</text>
</a>
</g>
</g>
<!-- Node16&#45;&gt;Node27 -->
<g id="edge35" class="edge">
<title>Node16&#45;&gt;Node27</title>
<path fill="none" stroke="#63b8ff" d="M1071.49,-243.5C1020.57,-226.51 960.62,-206.45 960,-206 957.84,-204.42 917.54,-148.98 895.36,-118.36"/>
<polygon fill="#63b8ff" stroke="#63b8ff" points="1070.17,-246.75 1080.76,-246.59 1072.38,-240.11 1070.17,-246.75"/>
</g>
<!-- Node19&#45;&gt;Node5 -->
<g id="edge20" class="edge">
<title>Node19&#45;&gt;Node5</title>
<path fill="none" stroke="#63b8ff" d="M1112.23,-161.72C1125.78,-158.95 1139.78,-156.26 1153,-154 1275.38,-133.12 1308.13,-141.67 1430,-118 1433.04,-117.41 1436.13,-116.77 1439.26,-116.09"/>
<polygon fill="#63b8ff" stroke="#63b8ff" points="1111.54,-158.29 1102.46,-163.75 1112.96,-165.14 1111.54,-158.29"/>
</g>
<!-- Node20 -->
<g id="node20" class="node">
<title>Node20</title>
<g id="a_node20"><a xlink:href="main_8cpp.html" target="_top" xlink:title=" ">
<polygon fill="white" stroke="#666666" points="1267,-112.5 1121,-112.5 1121,-82.5 1267,-82.5 1267,-112.5"/>
<text text-anchor="start" x="1129" y="-100.5" font-family="Helvetica,sans-Serif" font-size="10.00">/Users/nikolajbankejensen</text>
<text text-anchor="middle" x="1194" y="-89.5" font-family="Helvetica,sans-Serif" font-size="10.00">/Desktop/Kepler/src/main.cpp</text>
</a>
</g>
</g>
<!-- Node19&#45;&gt;Node20 -->
<g id="edge21" class="edge">
<title>Node19&#45;&gt;Node20</title>
<path fill="none" stroke="#63b8ff" d="M1084.25,-154.06C1110.98,-140.53 1143.07,-124.28 1165.63,-112.87"/>
<polygon fill="#63b8ff" stroke="#63b8ff" points="1082.99,-150.78 1075.65,-158.42 1086.16,-157.02 1082.99,-150.78"/>
</g>
<!-- Node21 -->
<g id="node21" class="node">
<title>Node21</title>
<g id="a_node21"><a xlink:href="file__fixture_8h.html" target="_top" xlink:title=" ">
<polygon fill="white" stroke="#666666" points="1103,-118 967,-118 967,-77 1103,-77 1103,-118"/>
<text text-anchor="start" x="975" y="-106" font-family="Helvetica,sans-Serif" font-size="10.00">/Users/nikolajbankejensen</text>
<text text-anchor="start" x="975" y="-95" font-family="Helvetica,sans-Serif" font-size="10.00">/Desktop/Kepler/src/testing</text>
<text text-anchor="middle" x="1035" y="-84" font-family="Helvetica,sans-Serif" font-size="10.00">/fixtures/file_fixture.h</text>
</a>
</g>
</g>
<!-- Node19&#45;&gt;Node21 -->
<g id="edge22" class="edge">
<title>Node19&#45;&gt;Node21</title>
<path fill="none" stroke="#63b8ff" d="M1035,-147.66C1035,-137.83 1035,-127.26 1035,-118.45"/>
<polygon fill="#63b8ff" stroke="#63b8ff" points="1031.5,-147.59 1035,-157.59 1038.5,-147.59 1031.5,-147.59"/>
</g>
<!-- Node19&#45;&gt;Node23 -->
<g id="edge24" class="edge">
<title>Node19&#45;&gt;Node23</title>
<path fill="none" stroke="#63b8ff" d="M1107.71,-156C1110.17,-155.31 1112.6,-154.64 1115,-154 1185.83,-135.05 1204.68,-135 1276,-118 1278.82,-117.33 1281.69,-116.64 1284.59,-115.93"/>
<polygon fill="#63b8ff" stroke="#63b8ff" points="1106.97,-152.57 1098.32,-158.69 1108.9,-159.3 1106.97,-152.57"/>
</g>
<!-- Node21&#45;&gt;Node22 -->
<g id="edge23" class="edge">
<title>Node21&#45;&gt;Node22</title>
<path fill="none" stroke="#63b8ff" d="M1037.08,-65.36C1037.62,-57.24 1038.19,-48.7 1038.68,-41.33"/>
<polygon fill="#63b8ff" stroke="#63b8ff" points="1033.59,-65.07 1036.41,-75.28 1040.57,-65.54 1033.59,-65.07"/>
</g>
<!-- Node23&#45;&gt;Node22 -->
<g id="edge26" class="edge">
<title>Node23&#45;&gt;Node22</title>
<path fill="none" stroke="#63b8ff" d="M1273.56,-76.42C1212.48,-61.56 1152.97,-47.6 1108.49,-37.28"/>
<polygon fill="#63b8ff" stroke="#63b8ff" points="1272.57,-79.78 1283.11,-78.75 1274.22,-72.98 1272.57,-79.78"/>
</g>
<!-- Node23&#45;&gt;Node24 -->
<g id="edge25" class="edge">
<title>Node23&#45;&gt;Node24</title>
<path fill="none" stroke="#63b8ff" d="M1410.78,-72.15C1434.32,-62.24 1461.19,-50.92 1483.55,-41.49"/>
<polygon fill="#63b8ff" stroke="#63b8ff" points="1409.48,-68.9 1401.63,-76.01 1412.2,-75.35 1409.48,-68.9"/>
</g>
<!-- Node23&#45;&gt;Node25 -->
<g id="edge27" class="edge">
<title>Node23&#45;&gt;Node25</title>
<path fill="none" stroke="#63b8ff" d="M1432.46,-76.7C1578.08,-51.5 1619.49,-66.64 1762,-41 1764.85,-40.49 1767.75,-39.93 1770.67,-39.33"/>
<polygon fill="#63b8ff" stroke="#63b8ff" points="1432.05,-73.22 1422.82,-78.4 1433.27,-80.11 1432.05,-73.22"/>
</g>
<!-- Node23&#45;&gt;Node26 -->
<g id="edge28" class="edge">
<title>Node23&#45;&gt;Node26</title>
<path fill="none" stroke="#63b8ff" d="M1362.78,-65.93C1365.44,-57.63 1368.24,-48.87 1370.65,-41.33"/>
<polygon fill="#63b8ff" stroke="#63b8ff" points="1359.48,-64.76 1359.77,-75.35 1366.15,-66.9 1359.48,-64.76"/>
</g>
<!-- Node28 -->
<g id="node28" class="node">
<title>Node28</title>
<g id="a_node28"><a xlink:href="test__parser_8cpp.html" target="_top" xlink:title=" ">
<polygon fill="white" stroke="#666666" points="1289,-41 1153,-41 1153,0 1289,0 1289,-41"/>
<text text-anchor="start" x="1161" y="-29" font-family="Helvetica,sans-Serif" font-size="10.00">/Users/nikolajbankejensen</text>
<text text-anchor="start" x="1161" y="-18" font-family="Helvetica,sans-Serif" font-size="10.00">/Desktop/Kepler/src/testing</text>
<text text-anchor="middle" x="1221" y="-7" font-family="Helvetica,sans-Serif" font-size="10.00">/test_parser.cpp</text>
</a>
</g>
</g>
<!-- Node27&#45;&gt;Node28 -->
<g id="edge36" class="edge">
<title>Node27&#45;&gt;Node28</title>
<path fill="none" stroke="#63b8ff" d="M960.32,-76.5C1031.24,-60.18 1102.13,-45.4 1152.72,-35.13"/>
<polygon fill="#63b8ff" stroke="#63b8ff" points="959.83,-73.02 950.87,-78.69 961.41,-79.84 959.83,-73.02"/>
</g>
<!-- Node30&#45;&gt;Node22 -->
<g id="edge40" class="edge">
<title>Node30&#45;&gt;Node22</title>
<path fill="none" stroke="#63b8ff" d="M1577.32,-76.9C1385.59,-46.17 1332.6,-66.42 1144,-41 1132.44,-39.44 1120.22,-37.46 1108.37,-35.35"/>
<polygon fill="#63b8ff" stroke="#63b8ff" points="1576.72,-80.35 1587.15,-78.5 1577.85,-73.44 1576.72,-80.35"/>
</g>
<!-- Node30&#45;&gt;Node24 -->
<g id="edge39" class="edge">
<title>Node30&#45;&gt;Node24</title>
<path fill="none" stroke="#63b8ff" d="M1613.83,-70.8C1597.73,-61.22 1579.71,-50.49 1564.59,-41.49"/>
<polygon fill="#63b8ff" stroke="#63b8ff" points="1611.88,-73.72 1622.26,-75.82 1615.46,-67.7 1611.88,-73.72"/>
</g>
<!-- Node30&#45;&gt;Node25 -->
<g id="edge41" class="edge">
<title>Node30&#45;&gt;Node25</title>
<path fill="none" stroke="#63b8ff" d="M1715.76,-72.29C1739.9,-62.34 1767.52,-50.96 1790.48,-41.49"/>
<polygon fill="#63b8ff" stroke="#63b8ff" points="1714.61,-68.98 1706.69,-76.02 1717.27,-75.45 1714.61,-68.98"/>
</g>
<!-- Node30&#45;&gt;Node26 -->
<g id="edge43" class="edge">
<title>Node30&#45;&gt;Node26</title>
<path fill="none" stroke="#63b8ff" d="M1577.55,-75.22C1535.82,-64.04 1485.21,-50.49 1445.27,-39.79"/>
<polygon fill="#63b8ff" stroke="#63b8ff" points="1576.48,-78.55 1587.04,-77.76 1578.29,-71.79 1576.48,-78.55"/>
</g>
<!-- Node30&#45;&gt;Node28 -->
<g id="edge44" class="edge">
<title>Node30&#45;&gt;Node28</title>
<path fill="none" stroke="#63b8ff" d="M1577.6,-76.87C1454.19,-54.35 1419.41,-63.37 1300,-41 1296.53,-40.35 1292.98,-39.64 1289.41,-38.89"/>
<polygon fill="#63b8ff" stroke="#63b8ff" points="1576.66,-80.26 1587.13,-78.65 1577.94,-73.38 1576.66,-80.26"/>
</g>
<!-- Node31 -->
<g id="node31" class="node">
<title>Node31</title>
<g id="a_node31"><a xlink:href="test__lexer_8cpp.html" target="_top" xlink:title=" ">
<polygon fill="white" stroke="#666666" points="1753,-41 1617,-41 1617,0 1753,0 1753,-41"/>
<text text-anchor="start" x="1625" y="-29" font-family="Helvetica,sans-Serif" font-size="10.00">/Users/nikolajbankejensen</text>
<text text-anchor="start" x="1625" y="-18" font-family="Helvetica,sans-Serif" font-size="10.00">/Desktop/Kepler/src/testing</text>
<text text-anchor="middle" x="1685" y="-7" font-family="Helvetica,sans-Serif" font-size="10.00">/test_lexer.cpp</text>
</a>
</g>
</g>
<!-- Node30&#45;&gt;Node31 -->
<g id="edge42" class="edge">
<title>Node30&#45;&gt;Node31</title>
<path fill="none" stroke="#63b8ff" d="M1668.31,-66.21C1671.44,-57.83 1674.75,-48.95 1677.6,-41.33"/>
<polygon fill="#63b8ff" stroke="#63b8ff" points="1665.1,-64.78 1664.89,-75.38 1671.66,-67.23 1665.1,-64.78"/>
</g>
</g>
</svg>
        <g id="navigator" transform="translate(0 0)" fill="#404254">
                <rect fill="#f2f5e9" fill-opacity="0.5" stroke="#606060" stroke-width=".5" x="0" y="0" width="60" height="60"/>
                <use id="zoomplus" xlink:href="#zoomPlus" x="17" y="9" onmousedown="handleZoom(evt,'in')"/>
                <use id="zoomminus" xlink:href="#zoomMin" x="42" y="9" onmousedown="handleZoom(evt,'out')"/>
                <use id="reset" xlink:href="#resetDef" x="30" y="36" onmousedown="handleReset()"/>
                <g id="arrowUp" xlink:href="#dirArrow" transform="translate(30 24)" onmousedown="handlePan(0,-1)">
                  <use xlink:href="#rim" fill="#404040">
                        <set attributeName="fill" to="#808080" begin="arrowUp.mouseover" end="arrowUp.mouseout"/>
                  </use>
                  <path fill="none" stroke="white" stroke-width="1.5" d="M0,-3.0v7 M-2.5,-0.5L0,-3.0L2.5,-0.5"/>
                </g>
                <g id="arrowRight" xlink:href="#dirArrow" transform="rotate(90) translate(36 -43)" onmousedown="handlePan(1,0)">
                  <use xlink:href="#rim" fill="#404040">
                        <set attributeName="fill" to="#808080" begin="arrowRight.mouseover" end="arrowRight.mouseout"/>
                  </use>
                  <path fill="none" stroke="white" stroke-width="1.5" d="M0,-3.0v7 M-2.5,-0.5L0,-3.0L2.5,-0.5"/>
                </g>
                <g id="arrowDown" xlink:href="#dirArrow" transform="rotate(180) translate(-30 -48)" onmousedown="handlePan(0,1)">
                  <use xlink:href="#rim" fill="#404040">
                        <set attributeName="fill" to="#808080" begin="arrowDown.mouseover" end="arrowDown.mouseout"/>
                  </use>
                  <path fill="none" stroke="white" stroke-width="1.5" d="M0,-3.0v7 M-2.5,-0.5L0,-3.0L2.5,-0.5"/>
                </g>
                <g id="arrowLeft" xlink:href="#dirArrow" transform="rotate(270) translate(-36 17)" onmousedown="handlePan(-1,0)">
                  <use xlink:href="#rim" fill="#404040">
                        <set attributeName="fill" to="#808080" begin="arrowLeft.mouseover" end="arrowLeft.mouseout"/>
                  </use>
                  <path fill="none" stroke="white" stroke-width="1.5" d="M0,-3.0v7 M-2.5,-0.5L0,-3.0L2.5,-0.5"/>
                </g>
        </g>
        <svg viewBox="0 0 15 15" width="100%" height="30px" preserveAspectRatio="xMaxYMin meet">
         <g id="arrow_out" transform="scale(0.3 0.3)">
          <a xlink:href="error__type_8h__dep__incl_org.svg" target="_base">
           <rect id="button" ry="5" rx="5" y="6" x="6" height="38" width="38"
                fill="#f2f5e9" fill-opacity="0.5" stroke="#606060" stroke-width="1.0"/>
           <path id="arrow"
             d="M 11.500037,31.436501 C 11.940474,20.09759 22.043105,11.32322 32.158766,21.979434 L 37.068811,17.246167 C 37.068811,17.246167 37.088388,32 37.088388,32 L 22.160133,31.978069 C 22.160133,31.978069 26.997745,27.140456 26.997745,27.140456 C 18.528582,18.264221 13.291696,25.230495 11.500037,31.436501 z"
             style="fill:#404040;"/>
          </a>
         </g>
        </svg>
</svg>
