<?xml version="1.0" encoding="UTF-8" standalone="no"?>
<!DOCTYPE svg PUBLIC "-//W3C//DTD SVG 1.1//EN"
 "http://www.w3.org/Graphics/SVG/1.1/DTD/svg11.dtd">
<!-- Generated by graphviz version 7.1.0 (20230121.1956)
 -->
<!-- Title: /Users/nikolajbankejensen/Desktop/Kepler/src/core/error.h Pages: 1 -->
<svg width="2277pt" height="379pt"
 viewBox="0.00 0.00 2277.21 379.00" xmlns="http://www.w3.org/2000/svg" xmlns:xlink="http://www.w3.org/1999/xlink">
<g id="graph0" class="graph" transform="scale(1 1) rotate(0) translate(4 375)">
<title>/Users/nikolajbankejensen/Desktop/Kepler/src/core/error.h</title>
<!-- Node1 -->
<g id="node1" class="node">
<title>Node1</title>
<g id="a_node1"><a xlink:title=" ">
<polygon fill="#999999" stroke="#666666" points="1340.71,-371 1209.71,-371 1209.71,-330 1340.71,-330 1340.71,-371"/>
<text text-anchor="start" x="1217.71" y="-359" font-family="Helvetica,sans-Serif" font-size="10.00">/Users/nikolajbankejensen</text>
<text text-anchor="start" x="1217.71" y="-348" font-family="Helvetica,sans-Serif" font-size="10.00">/Desktop/Kepler/src/core</text>
<text text-anchor="middle" x="1275.21" y="-337" font-family="Helvetica,sans-Serif" font-size="10.00">/error.h</text>
</a>
</g>
</g>
<!-- Node2 -->
<g id="node2" class="node">
<title>Node2</title>
<g id="a_node2"><a xlink:href="algorithms_8cpp.html" target="_top" xlink:title=" ">
<polygon fill="white" stroke="#666666" points="159.71,-288.5 28.71,-288.5 28.71,-247.5 159.71,-247.5 159.71,-288.5"/>
<text text-anchor="start" x="36.71" y="-276.5" font-family="Helvetica,sans-Serif" font-size="10.00">/Users/nikolajbankejensen</text>
<text text-anchor="start" x="36.71" y="-265.5" font-family="Helvetica,sans-Serif" font-size="10.00">/Desktop/Kepler/src/core</text>
<text text-anchor="middle" x="94.21" y="-254.5" font-family="Helvetica,sans-Serif" font-size="10.00">/evaluation/algorithms.cpp</text>
</a>
</g>
</g>
<!-- Node1&#45;&gt;Node2 -->
<g id="edge1" class="edge">
<title>Node1&#45;&gt;Node2</title>
<path fill="none" stroke="#63b8ff" d="M1198.13,-348.39C980.81,-344.84 366.11,-331.64 168.21,-294 161.42,-292.71 154.39,-290.94 147.5,-288.93"/>
<polygon fill="#63b8ff" stroke="#63b8ff" points="1197.84,-351.89 1207.9,-348.55 1197.95,-344.89 1197.84,-351.89"/>
</g>
<!-- Node3 -->
<g id="node3" class="node">
<title>Node3</title>
<g id="a_node3"><a xlink:href="interpreter_8h.html" target="_top" xlink:title=" ">
<polygon fill="white" stroke="#666666" points="308.71,-288.5 177.71,-288.5 177.71,-247.5 308.71,-247.5 308.71,-288.5"/>
<text text-anchor="start" x="185.71" y="-276.5" font-family="Helvetica,sans-Serif" font-size="10.00">/Users/nikolajbankejensen</text>
<text text-anchor="start" x="185.71" y="-265.5" font-family="Helvetica,sans-Serif" font-size="10.00">/Desktop/Kepler/src/core</text>
<text text-anchor="middle" x="243.21" y="-254.5" font-family="Helvetica,sans-Serif" font-size="10.00">/evaluation/interpreter.h</text>
</a>
</g>
</g>
<!-- Node1&#45;&gt;Node3 -->
<g id="edge2" class="edge">
<title>Node1&#45;&gt;Node3</title>
<path fill="none" stroke="#63b8ff" d="M1198.2,-343.49C1003.06,-328.27 491.77,-288.39 309.19,-274.15"/>
<polygon fill="#63b8ff" stroke="#63b8ff" points="1197.73,-346.97 1207.97,-344.25 1198.27,-339.99 1197.73,-346.97"/>
</g>
<!-- Node7 -->
<g id="node7" class="node">
<title>Node7</title>
<g id="a_node7"><a xlink:href="dyadic__operators_8cpp.html" target="_top" xlink:title=" ">
<polygon fill="white" stroke="#666666" points="1446.71,-294 1303.71,-294 1303.71,-242 1446.71,-242 1446.71,-294"/>
<text text-anchor="start" x="1311.71" y="-282" font-family="Helvetica,sans-Serif" font-size="10.00">/Users/nikolajbankejensen</text>
<text text-anchor="start" x="1311.71" y="-271" font-family="Helvetica,sans-Serif" font-size="10.00">/Desktop/Kepler/src/core</text>
<text text-anchor="start" x="1311.71" y="-260" font-family="Helvetica,sans-Serif" font-size="10.00">/evaluation/operations/dyadic</text>
<text text-anchor="middle" x="1375.21" y="-249" font-family="Helvetica,sans-Serif" font-size="10.00">_operators.cpp</text>
</a>
</g>
</g>
<!-- Node1&#45;&gt;Node7 -->
<g id="edge6" class="edge">
<title>Node1&#45;&gt;Node7</title>
<path fill="none" stroke="#63b8ff" d="M1308.65,-322.58C1319.92,-313.51 1332.46,-303.41 1343.59,-294.45"/>
<polygon fill="#63b8ff" stroke="#63b8ff" points="1306.7,-319.65 1301.11,-328.65 1311.09,-325.11 1306.7,-319.65"/>
</g>
<!-- Node8 -->
<g id="node8" class="node">
<title>Node8</title>
<g id="a_node8"><a xlink:href="functions_8cpp.html" target="_top" xlink:title=" ">
<polygon fill="white" stroke="#666666" points="507.71,-200.5 334.71,-200.5 334.71,-159.5 507.71,-159.5 507.71,-200.5"/>
<text text-anchor="start" x="342.71" y="-188.5" font-family="Helvetica,sans-Serif" font-size="10.00">/Users/nikolajbankejensen</text>
<text text-anchor="start" x="342.71" y="-177.5" font-family="Helvetica,sans-Serif" font-size="10.00">/Desktop/Kepler/src/core</text>
<text text-anchor="middle" x="421.21" y="-166.5" font-family="Helvetica,sans-Serif" font-size="10.00">/evaluation/operations/functions.cpp</text>
</a>
</g>
</g>
<!-- Node1&#45;&gt;Node8 -->
<g id="edge7" class="edge">
<title>Node1&#45;&gt;Node8</title>
<path fill="none" stroke="#63b8ff" d="M1198.12,-345.57C1099.78,-339.49 924.86,-325.09 778.21,-294 667.23,-270.48 541.67,-226.52 472.98,-200.91"/>
<polygon fill="#63b8ff" stroke="#63b8ff" points="1197.73,-349.05 1207.92,-346.16 1198.15,-342.06 1197.73,-349.05"/>
</g>
<!-- Node9 -->
<g id="node9" class="node">
<title>Node9</title>
<g id="a_node9"><a xlink:href="monadic__operators_8cpp.html" target="_top" xlink:title=" ">
<polygon fill="white" stroke="#666666" points="1617.21,-294 1465.21,-294 1465.21,-242 1617.21,-242 1617.21,-294"/>
<text text-anchor="start" x="1473.21" y="-282" font-family="Helvetica,sans-Serif" font-size="10.00">/Users/nikolajbankejensen</text>
<text text-anchor="start" x="1473.21" y="-271" font-family="Helvetica,sans-Serif" font-size="10.00">/Desktop/Kepler/src/core</text>
<text text-anchor="start" x="1473.21" y="-260" font-family="Helvetica,sans-Serif" font-size="10.00">/evaluation/operations/monadic</text>
<text text-anchor="middle" x="1541.21" y="-249" font-family="Helvetica,sans-Serif" font-size="10.00">_operators.cpp</text>
</a>
</g>
</g>
<!-- Node1&#45;&gt;Node9 -->
<g id="edge8" class="edge">
<title>Node1&#45;&gt;Node9</title>
<path fill="none" stroke="#63b8ff" d="M1351.76,-326.33C1387.29,-315.58 1429.41,-302.83 1464.91,-292.09"/>
<polygon fill="#63b8ff" stroke="#63b8ff" points="1350.97,-322.92 1342.41,-329.16 1353,-329.62 1350.97,-322.92"/>
</g>
<!-- Node10 -->
<g id="node10" class="node">
<title>Node10</title>
<g id="a_node10"><a xlink:href="operation_8cpp.html" target="_top" xlink:title=" ">
<polygon fill="white" stroke="#666666" points="1808.71,-288.5 1635.71,-288.5 1635.71,-247.5 1808.71,-247.5 1808.71,-288.5"/>
<text text-anchor="start" x="1643.71" y="-276.5" font-family="Helvetica,sans-Serif" font-size="10.00">/Users/nikolajbankejensen</text>
<text text-anchor="start" x="1643.71" y="-265.5" font-family="Helvetica,sans-Serif" font-size="10.00">/Desktop/Kepler/src/core</text>
<text text-anchor="middle" x="1722.21" y="-254.5" font-family="Helvetica,sans-Serif" font-size="10.00">/evaluation/operations/operation.cpp</text>
</a>
</g>
</g>
<!-- Node1&#45;&gt;Node10 -->
<g id="edge9" class="edge">
<title>Node1&#45;&gt;Node10</title>
<path fill="none" stroke="#63b8ff" d="M1352.02,-339.56C1423.4,-329.81 1532.48,-313.57 1626.21,-294 1633.46,-292.49 1640.98,-290.78 1648.48,-288.98"/>
<polygon fill="#63b8ff" stroke="#63b8ff" points="1351.83,-336.05 1342.4,-340.87 1352.78,-342.99 1351.83,-336.05"/>
</g>
<!-- Node11 -->
<g id="node11" class="node">
<title>Node11</title>
<g id="a_node11"><a xlink:href="parser_8cpp.html" target="_top" xlink:title=" ">
<polygon fill="white" stroke="#666666" points="1181.71,-200.5 1050.71,-200.5 1050.71,-159.5 1181.71,-159.5 1181.71,-200.5"/>
<text text-anchor="start" x="1058.71" y="-188.5" font-family="Helvetica,sans-Serif" font-size="10.00">/Users/nikolajbankejensen</text>
<text text-anchor="start" x="1058.71" y="-177.5" font-family="Helvetica,sans-Serif" font-size="10.00">/Desktop/Kepler/src/core</text>
<text text-anchor="middle" x="1116.21" y="-166.5" font-family="Helvetica,sans-Serif" font-size="10.00">/evaluation/parser.cpp</text>
</a>
</g>
</g>
<!-- Node1&#45;&gt;Node11 -->
<g id="edge10" class="edge">
<title>Node1&#45;&gt;Node11</title>
<path fill="none" stroke="#63b8ff" d="M1248.66,-321.37C1216.53,-287.32 1163.24,-230.85 1135.05,-200.96"/>
<polygon fill="#63b8ff" stroke="#63b8ff" points="1245.9,-323.54 1255.31,-328.41 1250.99,-318.73 1245.9,-323.54"/>
</g>
<!-- Node12 -->
<g id="node12" class="node">
<title>Node12</title>
<g id="a_node12"><a xlink:href="tokenizer_8cpp.html" target="_top" xlink:title=" ">
<polygon fill="white" stroke="#666666" points="1957.71,-288.5 1826.71,-288.5 1826.71,-247.5 1957.71,-247.5 1957.71,-288.5"/>
<text text-anchor="start" x="1834.71" y="-276.5" font-family="Helvetica,sans-Serif" font-size="10.00">/Users/nikolajbankejensen</text>
<text text-anchor="start" x="1834.71" y="-265.5" font-family="Helvetica,sans-Serif" font-size="10.00">/Desktop/Kepler/src/core</text>
<text text-anchor="middle" x="1892.21" y="-254.5" font-family="Helvetica,sans-Serif" font-size="10.00">/evaluation/tokenizer.cpp</text>
</a>
</g>
</g>
<!-- Node1&#45;&gt;Node12 -->
<g id="edge11" class="edge">
<title>Node1&#45;&gt;Node12</title>
<path fill="none" stroke="#63b8ff" d="M1352.38,-347.04C1458.43,-342.44 1654.7,-329.51 1818.21,-294 1824.57,-292.62 1831.15,-290.88 1837.64,-288.96"/>
<polygon fill="#63b8ff" stroke="#63b8ff" points="1352.51,-343.53 1342.66,-347.45 1352.8,-350.53 1352.51,-343.53"/>
</g>
<!-- Node13 -->
<g id="node13" class="node">
<title>Node13</title>
<g id="a_node13"><a xlink:href="helpers_8cpp.html" target="_top" xlink:title=" ">
<polygon fill="white" stroke="#666666" points="2106.71,-288.5 1975.71,-288.5 1975.71,-247.5 2106.71,-247.5 2106.71,-288.5"/>
<text text-anchor="start" x="1983.71" y="-276.5" font-family="Helvetica,sans-Serif" font-size="10.00">/Users/nikolajbankejensen</text>
<text text-anchor="start" x="1983.71" y="-265.5" font-family="Helvetica,sans-Serif" font-size="10.00">/Desktop/Kepler/src/core</text>
<text text-anchor="middle" x="2041.21" y="-254.5" font-family="Helvetica,sans-Serif" font-size="10.00">/helpers.cpp</text>
</a>
</g>
</g>
<!-- Node1&#45;&gt;Node13 -->
<g id="edge12" class="edge">
<title>Node1&#45;&gt;Node13</title>
<path fill="none" stroke="#63b8ff" d="M1352.1,-349.46C1480.75,-348.04 1747.19,-339.27 1967.21,-294 1973.72,-292.66 1980.45,-290.92 1987.07,-288.98"/>
<polygon fill="#63b8ff" stroke="#63b8ff" points="1352.32,-345.96 1342.35,-349.56 1352.38,-352.96 1352.32,-345.96"/>
</g>
<!-- Node14 -->
<g id="node14" class="node">
<title>Node14</title>
<g id="a_node14"><a xlink:href="symbol__table_8cpp.html" target="_top" xlink:title=" ">
<polygon fill="white" stroke="#666666" points="1330.71,-200.5 1199.71,-200.5 1199.71,-159.5 1330.71,-159.5 1330.71,-200.5"/>
<text text-anchor="start" x="1207.71" y="-188.5" font-family="Helvetica,sans-Serif" font-size="10.00">/Users/nikolajbankejensen</text>
<text text-anchor="start" x="1207.71" y="-177.5" font-family="Helvetica,sans-Serif" font-size="10.00">/Desktop/Kepler/src/core</text>
<text text-anchor="middle" x="1265.21" y="-166.5" font-family="Helvetica,sans-Serif" font-size="10.00">/symbol_table.cpp</text>
</a>
</g>
</g>
<!-- Node1&#45;&gt;Node14 -->
<g id="edge13" class="edge">
<title>Node1&#45;&gt;Node14</title>
<path fill="none" stroke="#63b8ff" d="M1265.99,-318.63C1264.01,-310.68 1262.21,-302.08 1261.21,-294 1257.17,-261.47 1260.1,-223.29 1262.63,-200.68"/>
<polygon fill="#63b8ff" stroke="#63b8ff" points="1262.59,-319.47 1268.55,-328.23 1269.35,-317.66 1262.59,-319.47"/>
</g>
<!-- Node15 -->
<g id="node15" class="node">
<title>Node15</title>
<g id="a_node15"><a xlink:href="symbol__table_8h.html" target="_top" xlink:title=" ">
<polygon fill="white" stroke="#666666" points="918.71,-288.5 787.71,-288.5 787.71,-247.5 918.71,-247.5 918.71,-288.5"/>
<text text-anchor="start" x="795.71" y="-276.5" font-family="Helvetica,sans-Serif" font-size="10.00">/Users/nikolajbankejensen</text>
<text text-anchor="start" x="795.71" y="-265.5" font-family="Helvetica,sans-Serif" font-size="10.00">/Desktop/Kepler/src/core</text>
<text text-anchor="middle" x="853.21" y="-254.5" font-family="Helvetica,sans-Serif" font-size="10.00">/symbol_table.h</text>
</a>
</g>
</g>
<!-- Node1&#45;&gt;Node15 -->
<g id="edge14" class="edge">
<title>Node1&#45;&gt;Node15</title>
<path fill="none" stroke="#63b8ff" d="M1198.29,-334.83C1118.36,-319.58 994.59,-295.97 919.03,-281.56"/>
<polygon fill="#63b8ff" stroke="#63b8ff" points="1197.31,-338.2 1207.79,-336.64 1198.62,-331.33 1197.31,-338.2"/>
</g>
<!-- Node28 -->
<g id="node28" class="node">
<title>Node28</title>
<g id="a_node28"><a xlink:href="file__reader_8cpp.html" target="_top" xlink:title=" ">
<polygon fill="white" stroke="#666666" points="2269.21,-288.5 2125.21,-288.5 2125.21,-247.5 2269.21,-247.5 2269.21,-288.5"/>
<text text-anchor="start" x="2133.21" y="-276.5" font-family="Helvetica,sans-Serif" font-size="10.00">/Users/nikolajbankejensen</text>
<text text-anchor="start" x="2133.21" y="-265.5" font-family="Helvetica,sans-Serif" font-size="10.00">/Desktop/Kepler/src/interface</text>
<text text-anchor="middle" x="2197.21" y="-254.5" font-family="Helvetica,sans-Serif" font-size="10.00">/file_reader.cpp</text>
</a>
</g>
</g>
<!-- Node1&#45;&gt;Node28 -->
<g id="edge36" class="edge">
<title>Node1&#45;&gt;Node28</title>
<path fill="none" stroke="#63b8ff" d="M1352.26,-350.39C1501.19,-350.79 1838.36,-345.32 2116.21,-294 2123.45,-292.66 2130.95,-290.9 2138.33,-288.92"/>
<polygon fill="#63b8ff" stroke="#63b8ff" points="1352.54,-346.89 1342.53,-350.35 1352.51,-353.89 1352.54,-346.89"/>
</g>
<!-- Node29 -->
<g id="node29" class="node">
<title>Node29</title>
<g id="a_node29"><a xlink:href="matcher_8h.html" target="_top" xlink:title=" ">
<polygon fill="white" stroke="#666666" points="1319.21,-118 1183.21,-118 1183.21,-77 1319.21,-77 1319.21,-118"/>
<text text-anchor="start" x="1191.21" y="-106" font-family="Helvetica,sans-Serif" font-size="10.00">/Users/nikolajbankejensen</text>
<text text-anchor="start" x="1191.21" y="-95" font-family="Helvetica,sans-Serif" font-size="10.00">/Desktop/Kepler/src/testing</text>
<text text-anchor="middle" x="1251.21" y="-84" font-family="Helvetica,sans-Serif" font-size="10.00">/matcher.h</text>
</a>
</g>
</g>
<!-- Node1&#45;&gt;Node29 -->
<g id="edge37" class="edge">
<title>Node1&#45;&gt;Node29</title>
<path fill="none" stroke="#63b8ff" d="M1275.32,-318.48C1276.69,-295.84 1281.31,-265.19 1295.21,-242 1308.38,-220.03 1329.11,-229.08 1340.21,-206 1350.22,-185.17 1351.42,-174.21 1340.21,-154 1331.64,-138.56 1316.79,-126.85 1301.64,-118.26"/>
<polygon fill="#63b8ff" stroke="#63b8ff" points="1271.83,-318.18 1274.92,-328.31 1278.82,-318.46 1271.83,-318.18"/>
</g>
<!-- Node4 -->
<g id="node4" class="node">
<title>Node4</title>
<g id="a_node4"><a xlink:href="execution_8cpp.html" target="_top" xlink:title=" ">
<polygon fill="white" stroke="#666666" points="538.71,-118 407.71,-118 407.71,-77 538.71,-77 538.71,-118"/>
<text text-anchor="start" x="415.71" y="-106" font-family="Helvetica,sans-Serif" font-size="10.00">/Users/nikolajbankejensen</text>
<text text-anchor="start" x="415.71" y="-95" font-family="Helvetica,sans-Serif" font-size="10.00">/Desktop/Kepler/src/core</text>
<text text-anchor="middle" x="473.21" y="-84" font-family="Helvetica,sans-Serif" font-size="10.00">/evaluation/execution.cpp</text>
</a>
</g>
</g>
<!-- Node3&#45;&gt;Node4 -->
<g id="edge3" class="edge">
<title>Node3&#45;&gt;Node4</title>
<path fill="none" stroke="#63b8ff" d="M174.26,-243.74C172.22,-243.14 170.2,-242.56 168.21,-242 99.28,-222.66 55.82,-261.99 11.21,-206 -3.19,-187.92 -4.13,-171.29 11.21,-154 37.04,-124.88 285.88,-108.15 407.27,-101.66"/>
<polygon fill="#63b8ff" stroke="#63b8ff" points="173.21,-247.07 183.79,-246.62 175.23,-240.38 173.21,-247.07"/>
</g>
<!-- Node5 -->
<g id="node5" class="node">
<title>Node5</title>
<g id="a_node5"><a xlink:href="interpreter_8cpp.html" target="_top" xlink:title=" ">
<polygon fill="white" stroke="#666666" points="151.71,-200.5 20.71,-200.5 20.71,-159.5 151.71,-159.5 151.71,-200.5"/>
<text text-anchor="start" x="28.71" y="-188.5" font-family="Helvetica,sans-Serif" font-size="10.00">/Users/nikolajbankejensen</text>
<text text-anchor="start" x="28.71" y="-177.5" font-family="Helvetica,sans-Serif" font-size="10.00">/Desktop/Kepler/src/core</text>
<text text-anchor="middle" x="86.21" y="-166.5" font-family="Helvetica,sans-Serif" font-size="10.00">/evaluation/interpreter.cpp</text>
</a>
</g>
</g>
<!-- Node3&#45;&gt;Node5 -->
<g id="edge4" class="edge">
<title>Node3&#45;&gt;Node5</title>
<path fill="none" stroke="#63b8ff" d="M196.96,-241.67C173.27,-228.69 144.83,-213.11 122.7,-200.99"/>
<polygon fill="#63b8ff" stroke="#63b8ff" points="195.02,-244.59 205.47,-246.33 198.38,-238.45 195.02,-244.59"/>
</g>
<!-- Node6 -->
<g id="node6" class="node">
<title>Node6</title>
<g id="a_node6"><a xlink:href="defined__function_8cpp.html" target="_top" xlink:title=" ">
<polygon fill="white" stroke="#666666" points="316.21,-206 170.21,-206 170.21,-154 316.21,-154 316.21,-206"/>
<text text-anchor="start" x="178.21" y="-194" font-family="Helvetica,sans-Serif" font-size="10.00">/Users/nikolajbankejensen</text>
<text text-anchor="start" x="178.21" y="-183" font-family="Helvetica,sans-Serif" font-size="10.00">/Desktop/Kepler/src/core</text>
<text text-anchor="start" x="178.21" y="-172" font-family="Helvetica,sans-Serif" font-size="10.00">/evaluation/operations/defined</text>
<text text-anchor="middle" x="243.21" y="-161" font-family="Helvetica,sans-Serif" font-size="10.00">_function.cpp</text>
</a>
</g>
</g>
<!-- Node3&#45;&gt;Node6 -->
<g id="edge5" class="edge">
<title>Node3&#45;&gt;Node6</title>
<path fill="none" stroke="#63b8ff" d="M243.21,-235.83C243.21,-226.16 243.21,-215.62 243.21,-206.4"/>
<polygon fill="#63b8ff" stroke="#63b8ff" points="239.71,-235.54 243.21,-245.54 246.71,-235.54 239.71,-235.54"/>
</g>
<!-- Node15&#45;&gt;Node4 -->
<g id="edge17" class="edge">
<title>Node15&#45;&gt;Node4</title>
<path fill="none" stroke="#63b8ff" d="M776.04,-257.52C700.35,-247.11 591.23,-228.81 555.21,-206 530.8,-190.54 533.72,-176.97 516.21,-154 507.19,-142.17 497.01,-129.01 488.81,-118.48"/>
<polygon fill="#63b8ff" stroke="#63b8ff" points="775.54,-260.98 785.92,-258.86 776.48,-254.05 775.54,-260.98"/>
</g>
<!-- Node15&#45;&gt;Node5 -->
<g id="edge28" class="edge">
<title>Node15&#45;&gt;Node5</title>
<path fill="none" stroke="#63b8ff" d="M776.33,-266.06C647.7,-263.2 381.29,-251.72 161.21,-206 154.63,-204.63 147.81,-202.87 141.1,-200.92"/>
<polygon fill="#63b8ff" stroke="#63b8ff" points="776.01,-269.56 786.08,-266.27 776.16,-262.56 776.01,-269.56"/>
</g>
<!-- Node15&#45;&gt;Node6 -->
<g id="edge29" class="edge">
<title>Node15&#45;&gt;Node6</title>
<path fill="none" stroke="#63b8ff" d="M776.31,-262.49C672.9,-255.43 483.68,-239.03 325.21,-206 322.3,-205.39 319.34,-204.73 316.36,-204.02"/>
<polygon fill="#63b8ff" stroke="#63b8ff" points="775.85,-265.97 786.06,-263.14 776.32,-258.98 775.85,-265.97"/>
</g>
<!-- Node15&#45;&gt;Node8 -->
<g id="edge30" class="edge">
<title>Node15&#45;&gt;Node8</title>
<path fill="none" stroke="#63b8ff" d="M776.02,-254.13C708.76,-242.6 608.74,-224.66 522.21,-206 514.97,-204.44 507.46,-202.74 499.95,-200.98"/>
<polygon fill="#63b8ff" stroke="#63b8ff" points="775.41,-257.58 785.86,-255.81 776.59,-250.68 775.41,-257.58"/>
</g>
<!-- Node15&#45;&gt;Node11 -->
<g id="edge31" class="edge">
<title>Node15&#45;&gt;Node11</title>
<path fill="none" stroke="#63b8ff" d="M924.89,-243.56C965.67,-230.23 1016.2,-213.7 1055.09,-200.99"/>
<polygon fill="#63b8ff" stroke="#63b8ff" points="924.06,-240.15 915.65,-246.58 926.24,-246.8 924.06,-240.15"/>
</g>
<!-- Node15&#45;&gt;Node14 -->
<g id="edge32" class="edge">
<title>Node15&#45;&gt;Node14</title>
<path fill="none" stroke="#63b8ff" d="M930.13,-256.42C999.09,-246.16 1102.74,-228.8 1191.21,-206 1196.99,-204.51 1202.97,-202.8 1208.9,-200.98"/>
<polygon fill="#63b8ff" stroke="#63b8ff" points="929.82,-252.93 920.44,-257.85 930.84,-259.85 929.82,-252.93"/>
</g>
<!-- Node16 -->
<g id="node16" class="node">
<title>Node16</title>
<g id="a_node16"><a xlink:href="array_8cpp.html" target="_top" xlink:title=" ">
<polygon fill="white" stroke="#666666" points="844.71,-200.5 713.71,-200.5 713.71,-159.5 844.71,-159.5 844.71,-200.5"/>
<text text-anchor="start" x="721.71" y="-188.5" font-family="Helvetica,sans-Serif" font-size="10.00">/Users/nikolajbankejensen</text>
<text text-anchor="start" x="721.71" y="-177.5" font-family="Helvetica,sans-Serif" font-size="10.00">/Desktop/Kepler/src/core</text>
<text text-anchor="middle" x="779.21" y="-166.5" font-family="Helvetica,sans-Serif" font-size="10.00">/array.cpp</text>
</a>
</g>
</g>
<!-- Node15&#45;&gt;Node16 -->
<g id="edge15" class="edge">
<title>Node15&#45;&gt;Node16</title>
<path fill="none" stroke="#63b8ff" d="M828.65,-238.46C818.04,-226.13 805.88,-212 796.28,-200.84"/>
<polygon fill="#63b8ff" stroke="#63b8ff" points="825.88,-240.61 835.06,-245.91 831.19,-236.04 825.88,-240.61"/>
</g>
<!-- Node17 -->
<g id="node17" class="node">
<title>Node17</title>
<g id="a_node17"><a xlink:href="ast_8cpp.html" target="_top" xlink:title=" ">
<polygon fill="white" stroke="#666666" points="993.71,-200.5 862.71,-200.5 862.71,-159.5 993.71,-159.5 993.71,-200.5"/>
<text text-anchor="start" x="870.71" y="-188.5" font-family="Helvetica,sans-Serif" font-size="10.00">/Users/nikolajbankejensen</text>
<text text-anchor="start" x="870.71" y="-177.5" font-family="Helvetica,sans-Serif" font-size="10.00">/Desktop/Kepler/src/core</text>
<text text-anchor="middle" x="928.21" y="-166.5" font-family="Helvetica,sans-Serif" font-size="10.00">/evaluation/ast.cpp</text>
</a>
</g>
</g>
<!-- Node15&#45;&gt;Node17 -->
<g id="edge16" class="edge">
<title>Node15&#45;&gt;Node17</title>
<path fill="none" stroke="#63b8ff" d="M878.1,-238.46C888.85,-226.13 901.18,-212 910.91,-200.84"/>
<polygon fill="#63b8ff" stroke="#63b8ff" points="875.53,-236.08 871.6,-245.91 880.81,-240.68 875.53,-236.08"/>
</g>
<!-- Node18 -->
<g id="node18" class="node">
<title>Node18</title>
<g id="a_node18"><a xlink:href="execution_8h.html" target="_top" xlink:title=" ">
<polygon fill="white" stroke="#666666" points="695.71,-200.5 564.71,-200.5 564.71,-159.5 695.71,-159.5 695.71,-200.5"/>
<text text-anchor="start" x="572.71" y="-188.5" font-family="Helvetica,sans-Serif" font-size="10.00">/Users/nikolajbankejensen</text>
<text text-anchor="start" x="572.71" y="-177.5" font-family="Helvetica,sans-Serif" font-size="10.00">/Desktop/Kepler/src/core</text>
<text text-anchor="middle" x="630.21" y="-166.5" font-family="Helvetica,sans-Serif" font-size="10.00">/evaluation/execution.h</text>
</a>
</g>
</g>
<!-- Node15&#45;&gt;Node18 -->
<g id="edge18" class="edge">
<title>Node15&#45;&gt;Node18</title>
<path fill="none" stroke="#63b8ff" d="M791.1,-243.05C756.76,-229.81 714.59,-213.54 682.04,-200.99"/>
<polygon fill="#63b8ff" stroke="#63b8ff" points="789.49,-246.18 800.08,-246.51 792.01,-239.65 789.49,-246.18"/>
</g>
<!-- Node22 -->
<g id="node22" class="node">
<title>Node22</title>
<g id="a_node22"><a xlink:href="general__fixture_8h.html" target="_top" xlink:title=" ">
<polygon fill="white" stroke="#666666" points="1050.21,-118 914.21,-118 914.21,-77 1050.21,-77 1050.21,-118"/>
<text text-anchor="start" x="922.21" y="-106" font-family="Helvetica,sans-Serif" font-size="10.00">/Users/nikolajbankejensen</text>
<text text-anchor="start" x="922.21" y="-95" font-family="Helvetica,sans-Serif" font-size="10.00">/Desktop/Kepler/src/testing</text>
<text text-anchor="middle" x="982.21" y="-84" font-family="Helvetica,sans-Serif" font-size="10.00">/fixtures/general_fixture.h</text>
</a>
</g>
</g>
<!-- Node15&#45;&gt;Node22 -->
<g id="edge33" class="edge">
<title>Node15&#45;&gt;Node22</title>
<path fill="none" stroke="#63b8ff" d="M929.92,-254.27C957.79,-245.54 986.51,-230.81 1003.21,-206 1021.04,-179.49 1006.43,-141.48 994.27,-118.48"/>
<polygon fill="#63b8ff" stroke="#63b8ff" points="929,-250.9 920.35,-257.03 930.93,-257.62 929,-250.9"/>
</g>
<!-- Node26 -->
<g id="node26" class="node">
<title>Node26</title>
<g id="a_node26"><a xlink:href="parser__fixture_8h.html" target="_top" xlink:title=" ">
<polygon fill="white" stroke="#666666" points="1550.21,-118 1414.21,-118 1414.21,-77 1550.21,-77 1550.21,-118"/>
<text text-anchor="start" x="1422.21" y="-106" font-family="Helvetica,sans-Serif" font-size="10.00">/Users/nikolajbankejensen</text>
<text text-anchor="start" x="1422.21" y="-95" font-family="Helvetica,sans-Serif" font-size="10.00">/Desktop/Kepler/src/testing</text>
<text text-anchor="middle" x="1482.21" y="-84" font-family="Helvetica,sans-Serif" font-size="10.00">/fixtures/parser_fixture.h</text>
</a>
</g>
</g>
<!-- Node15&#45;&gt;Node26 -->
<g id="edge34" class="edge">
<title>Node15&#45;&gt;Node26</title>
<path fill="none" stroke="#63b8ff" d="M930.58,-262.2C1048.65,-254.05 1267.74,-235.48 1340.21,-206 1390.05,-185.73 1437.74,-143.35 1463.18,-118.28"/>
<polygon fill="#63b8ff" stroke="#63b8ff" points="930.38,-258.7 920.64,-262.88 930.85,-265.69 930.38,-258.7"/>
</g>
<!-- Node18&#45;&gt;Node4 -->
<g id="edge19" class="edge">
<title>Node18&#45;&gt;Node4</title>
<path fill="none" stroke="#63b8ff" d="M581.45,-154C559.14,-142.56 533.08,-129.2 512.12,-118.45"/>
<polygon fill="#63b8ff" stroke="#63b8ff" points="579.56,-156.96 590.05,-158.41 582.75,-150.73 579.56,-156.96"/>
</g>
<!-- Node19 -->
<g id="node19" class="node">
<title>Node19</title>
<g id="a_node19"><a xlink:href="main_8cpp.html" target="_top" xlink:title=" ">
<polygon fill="white" stroke="#666666" points="703.21,-112.5 557.21,-112.5 557.21,-82.5 703.21,-82.5 703.21,-112.5"/>
<text text-anchor="start" x="565.21" y="-100.5" font-family="Helvetica,sans-Serif" font-size="10.00">/Users/nikolajbankejensen</text>
<text text-anchor="middle" x="630.21" y="-89.5" font-family="Helvetica,sans-Serif" font-size="10.00">/Desktop/Kepler/src/main.cpp</text>
</a>
</g>
</g>
<!-- Node18&#45;&gt;Node19 -->
<g id="edge20" class="edge">
<title>Node18&#45;&gt;Node19</title>
<path fill="none" stroke="#63b8ff" d="M630.21,-147.64C630.21,-135.64 630.21,-122.52 630.21,-112.87"/>
<polygon fill="#63b8ff" stroke="#63b8ff" points="626.71,-147.59 630.21,-157.59 633.71,-147.59 626.71,-147.59"/>
</g>
<!-- Node20 -->
<g id="node20" class="node">
<title>Node20</title>
<g id="a_node20"><a xlink:href="file__fixture_8h.html" target="_top" xlink:title=" ">
<polygon fill="white" stroke="#666666" points="857.21,-118 721.21,-118 721.21,-77 857.21,-77 857.21,-118"/>
<text text-anchor="start" x="729.21" y="-106" font-family="Helvetica,sans-Serif" font-size="10.00">/Users/nikolajbankejensen</text>
<text text-anchor="start" x="729.21" y="-95" font-family="Helvetica,sans-Serif" font-size="10.00">/Desktop/Kepler/src/testing</text>
<text text-anchor="middle" x="789.21" y="-84" font-family="Helvetica,sans-Serif" font-size="10.00">/fixtures/file_fixture.h</text>
</a>
</g>
</g>
<!-- Node18&#45;&gt;Node20 -->
<g id="edge21" class="edge">
<title>Node18&#45;&gt;Node20</title>
<path fill="none" stroke="#63b8ff" d="M679.59,-154C702.18,-142.56 728.58,-129.2 749.81,-118.45"/>
<polygon fill="#63b8ff" stroke="#63b8ff" points="678.2,-150.78 670.86,-158.42 681.37,-157.02 678.2,-150.78"/>
</g>
<!-- Node18&#45;&gt;Node22 -->
<g id="edge23" class="edge">
<title>Node18&#45;&gt;Node22</title>
<path fill="none" stroke="#63b8ff" d="M697.8,-155.77C699.96,-155.16 702.1,-154.57 704.21,-154 774.93,-135.08 857.33,-119.41 913.95,-109.6"/>
<polygon fill="#63b8ff" stroke="#63b8ff" points="696.98,-152.37 688.4,-158.58 698.98,-159.07 696.98,-152.37"/>
</g>
<!-- Node21 -->
<g id="node21" class="node">
<title>Node21</title>
<g id="a_node21"><a xlink:href="test__examples_8cpp.html" target="_top" xlink:title=" ">
<polygon fill="white" stroke="#666666" points="857.21,-41 721.21,-41 721.21,0 857.21,0 857.21,-41"/>
<text text-anchor="start" x="729.21" y="-29" font-family="Helvetica,sans-Serif" font-size="10.00">/Users/nikolajbankejensen</text>
<text text-anchor="start" x="729.21" y="-18" font-family="Helvetica,sans-Serif" font-size="10.00">/Desktop/Kepler/src/testing</text>
<text text-anchor="middle" x="789.21" y="-7" font-family="Helvetica,sans-Serif" font-size="10.00">/test_examples.cpp</text>
</a>
</g>
</g>
<!-- Node20&#45;&gt;Node21 -->
<g id="edge22" class="edge">
<title>Node20&#45;&gt;Node21</title>
<path fill="none" stroke="#63b8ff" d="M789.21,-65.36C789.21,-57.24 789.21,-48.7 789.21,-41.33"/>
<polygon fill="#63b8ff" stroke="#63b8ff" points="785.71,-65.28 789.21,-75.28 792.71,-65.28 785.71,-65.28"/>
</g>
<!-- Node22&#45;&gt;Node21 -->
<g id="edge25" class="edge">
<title>Node22&#45;&gt;Node21</title>
<path fill="none" stroke="#63b8ff" d="M920.59,-72.55C894.83,-62.54 865.23,-51.04 840.66,-41.49"/>
<polygon fill="#63b8ff" stroke="#63b8ff" points="919,-75.69 929.59,-76.05 921.53,-69.17 919,-75.69"/>
</g>
<!-- Node23 -->
<g id="node23" class="node">
<title>Node23</title>
<g id="a_node23"><a xlink:href="test__datatypes_8cpp.html" target="_top" xlink:title=" ">
<polygon fill="white" stroke="#666666" points="1011.21,-41 875.21,-41 875.21,0 1011.21,0 1011.21,-41"/>
<text text-anchor="start" x="883.21" y="-29" font-family="Helvetica,sans-Serif" font-size="10.00">/Users/nikolajbankejensen</text>
<text text-anchor="start" x="883.21" y="-18" font-family="Helvetica,sans-Serif" font-size="10.00">/Desktop/Kepler/src/testing</text>
<text text-anchor="middle" x="943.21" y="-7" font-family="Helvetica,sans-Serif" font-size="10.00">/test_datatypes.cpp</text>
</a>
</g>
</g>
<!-- Node22&#45;&gt;Node23 -->
<g id="edge24" class="edge">
<title>Node22&#45;&gt;Node23</title>
<path fill="none" stroke="#63b8ff" d="M966.75,-66.78C962.31,-58.23 957.57,-49.12 953.52,-41.33"/>
<polygon fill="#63b8ff" stroke="#63b8ff" points="963.55,-68.19 971.26,-75.45 969.76,-64.96 963.55,-68.19"/>
</g>
<!-- Node24 -->
<g id="node24" class="node">
<title>Node24</title>
<g id="a_node24"><a xlink:href="test__functions_8cpp.html" target="_top" xlink:title=" ">
<polygon fill="white" stroke="#666666" points="1165.21,-41 1029.21,-41 1029.21,0 1165.21,0 1165.21,-41"/>
<text text-anchor="start" x="1037.21" y="-29" font-family="Helvetica,sans-Serif" font-size="10.00">/Users/nikolajbankejensen</text>
<text text-anchor="start" x="1037.21" y="-18" font-family="Helvetica,sans-Serif" font-size="10.00">/Desktop/Kepler/src/testing</text>
<text text-anchor="middle" x="1097.21" y="-7" font-family="Helvetica,sans-Serif" font-size="10.00">/test_functions.cpp</text>
</a>
</g>
</g>
<!-- Node22&#45;&gt;Node24 -->
<g id="edge26" class="edge">
<title>Node22&#45;&gt;Node24</title>
<path fill="none" stroke="#63b8ff" d="M1022.03,-70.53C1036.61,-61.02 1052.89,-50.41 1066.55,-41.49"/>
<polygon fill="#63b8ff" stroke="#63b8ff" points="1020.46,-67.38 1013.99,-75.77 1024.28,-73.24 1020.46,-67.38"/>
</g>
<!-- Node25 -->
<g id="node25" class="node">
<title>Node25</title>
<g id="a_node25"><a xlink:href="test__operators_8cpp.html" target="_top" xlink:title=" ">
<polygon fill="white" stroke="#666666" points="1319.21,-41 1183.21,-41 1183.21,0 1319.21,0 1319.21,-41"/>
<text text-anchor="start" x="1191.21" y="-29" font-family="Helvetica,sans-Serif" font-size="10.00">/Users/nikolajbankejensen</text>
<text text-anchor="start" x="1191.21" y="-18" font-family="Helvetica,sans-Serif" font-size="10.00">/Desktop/Kepler/src/testing</text>
<text text-anchor="middle" x="1251.21" y="-7" font-family="Helvetica,sans-Serif" font-size="10.00">/test_operators.cpp</text>
</a>
</g>
</g>
<!-- Node22&#45;&gt;Node25 -->
<g id="edge27" class="edge">
<title>Node22&#45;&gt;Node25</title>
<path fill="none" stroke="#63b8ff" d="M1061.14,-74.49C1099.81,-63.71 1145.93,-50.85 1183.05,-40.5"/>
<polygon fill="#63b8ff" stroke="#63b8ff" points="1060.59,-71.01 1051.9,-77.07 1062.47,-77.76 1060.59,-71.01"/>
</g>
<!-- Node27 -->
<g id="node27" class="node">
<title>Node27</title>
<g id="a_node27"><a xlink:href="test__parser_8cpp.html" target="_top" xlink:title=" ">
<polygon fill="white" stroke="#666666" points="1627.21,-41 1491.21,-41 1491.21,0 1627.21,0 1627.21,-41"/>
<text text-anchor="start" x="1499.21" y="-29" font-family="Helvetica,sans-Serif" font-size="10.00">/Users/nikolajbankejensen</text>
<text text-anchor="start" x="1499.21" y="-18" font-family="Helvetica,sans-Serif" font-size="10.00">/Desktop/Kepler/src/testing</text>
<text text-anchor="middle" x="1559.21" y="-7" font-family="Helvetica,sans-Serif" font-size="10.00">/test_parser.cpp</text>
</a>
</g>
</g>
<!-- Node26&#45;&gt;Node27 -->
<g id="edge35" class="edge">
<title>Node26&#45;&gt;Node27</title>
<path fill="none" stroke="#63b8ff" d="M1510.43,-69.02C1519.84,-59.84 1530.15,-49.81 1538.85,-41.33"/>
<polygon fill="#63b8ff" stroke="#63b8ff" points="1508.25,-66.25 1503.52,-75.74 1513.13,-71.27 1508.25,-66.25"/>
</g>
<!-- Node29&#45;&gt;Node21 -->
<g id="edge39" class="edge">
<title>Node29&#45;&gt;Node21</title>
<path fill="none" stroke="#63b8ff" d="M1171.84,-87.53C1093.7,-78.11 971.18,-61.8 866.21,-41 863.37,-40.44 860.48,-39.84 857.56,-39.21"/>
<polygon fill="#63b8ff" stroke="#63b8ff" points="1171.19,-90.97 1181.53,-88.68 1172.02,-84.02 1171.19,-90.97"/>
</g>
<!-- Node29&#45;&gt;Node23 -->
<g id="edge38" class="edge">
<title>Node29&#45;&gt;Node23</title>
<path fill="none" stroke="#63b8ff" d="M1171.86,-77.69C1127.27,-67.05 1070.6,-53.43 1020.21,-41 1017.4,-40.31 1014.53,-39.6 1011.63,-38.87"/>
<polygon fill="#63b8ff" stroke="#63b8ff" points="1170.92,-81.06 1181.46,-79.98 1172.54,-74.25 1170.92,-81.06"/>
</g>
<!-- Node29&#45;&gt;Node24 -->
<g id="edge40" class="edge">
<title>Node29&#45;&gt;Node24</title>
<path fill="none" stroke="#63b8ff" d="M1200.11,-71.62C1180.02,-61.83 1157.26,-50.75 1138.27,-41.49"/>
<polygon fill="#63b8ff" stroke="#63b8ff" points="1198.46,-74.7 1208.98,-75.94 1201.53,-68.41 1198.46,-74.7"/>
</g>
<!-- Node29&#45;&gt;Node25 -->
<g id="edge42" class="edge">
<title>Node29&#45;&gt;Node25</title>
<path fill="none" stroke="#63b8ff" d="M1251.21,-65.36C1251.21,-57.24 1251.21,-48.7 1251.21,-41.33"/>
<polygon fill="#63b8ff" stroke="#63b8ff" points="1247.71,-65.28 1251.21,-75.28 1254.71,-65.28 1247.71,-65.28"/>
</g>
<!-- Node29&#45;&gt;Node27 -->
<g id="edge43" class="edge">
<title>Node29&#45;&gt;Node27</title>
<path fill="none" stroke="#63b8ff" d="M1330.56,-77.69C1375.15,-67.05 1431.82,-53.43 1482.21,-41 1485.02,-40.31 1487.89,-39.6 1490.79,-38.87"/>
<polygon fill="#63b8ff" stroke="#63b8ff" points="1329.88,-74.25 1320.96,-79.98 1331.5,-81.06 1329.88,-74.25"/>
</g>
<!-- Node30 -->
<g id="node30" class="node">
<title>Node30</title>
<g id="a_node30"><a xlink:href="test__lexer_8cpp.html" target="_top" xlink:title=" ">
<polygon fill="white" stroke="#666666" points="1473.21,-41 1337.21,-41 1337.21,0 1473.21,0 1473.21,-41"/>
<text text-anchor="start" x="1345.21" y="-29" font-family="Helvetica,sans-Serif" font-size="10.00">/Users/nikolajbankejensen</text>
<text text-anchor="start" x="1345.21" y="-18" font-family="Helvetica,sans-Serif" font-size="10.00">/Desktop/Kepler/src/testing</text>
<text text-anchor="middle" x="1405.21" y="-7" font-family="Helvetica,sans-Serif" font-size="10.00">/test_lexer.cpp</text>
</a>
</g>
</g>
<!-- Node29&#45;&gt;Node30 -->
<g id="edge41" class="edge">
<title>Node29&#45;&gt;Node30</title>
<path fill="none" stroke="#63b8ff" d="M1302.31,-71.62C1322.4,-61.83 1345.16,-50.75 1364.15,-41.49"/>
<polygon fill="#63b8ff" stroke="#63b8ff" points="1300.89,-68.41 1293.44,-75.94 1303.96,-74.7 1300.89,-68.41"/>
</g>
</g>
</svg>
