<?xml version="1.0" encoding="UTF-8" standalone="no"?>
<!DOCTYPE svg PUBLIC "-//W3C//DTD SVG 1.1//EN"
 "http://www.w3.org/Graphics/SVG/1.1/DTD/svg11.dtd">
<!-- Generated by graphviz version 7.1.0 (20230121.1956)
 -->
<!-- Title: src/core/error.h Pages: 1 -->
<!--zoomable 302 -->
<svg id="main" version="1.1" xmlns="http://www.w3.org/2000/svg" xmlns:xlink="http://www.w3.org/1999/xlink" xml:space="preserve" onload="init(evt)">
<style type="text/css"><![CDATA[
.edge:hover path { stroke: red; }
.edge:hover polygon { stroke: red; fill: red; }
]]></style>
<script type="text/javascript"><![CDATA[
var edges = document.getElementsByTagName('g');
if (edges && edges.length) {
  for (var i=0;i<edges.length;i++) {
    if (edges[i].id.substr(0,4)=='edge') {
      edges[i].setAttribute('class','edge');
    }
  }
}
]]></script>
        <defs>
                <circle id="rim" cx="0" cy="0" r="7"/>
                <circle id="rim2" cx="0" cy="0" r="3.5"/>
                <g id="zoomPlus">
                        <use xlink:href="#rim" fill="#404040">
                                <set attributeName="fill" to="#808080" begin="zoomplus.mouseover" end="zoomplus.mouseout"/>
                        </use>
                        <path d="M-4,0h8M0,-4v8" fill="none" stroke="white" stroke-width="1.5" pointer-events="none"/>
                </g>
                <g id="zoomMin">
                        <use xlink:href="#rim" fill="#404040">
                                <set attributeName="fill" to="#808080" begin="zoomminus.mouseover" end="zoomminus.mouseout"/>
                        </use>
                        <path d="M-4,0h8" fill="none" stroke="white" stroke-width="1.5" pointer-events="none"/>
                </g>
                <g id="dirArrow">
                        <path fill="none" stroke="white" stroke-width="1.5" d="M0,-3.0v7 M-2.5,-0.5L0,-3.0L2.5,-0.5"/>
                </g>
               <g id="resetDef">
                       <use xlink:href="#rim2" fill="#404040">
                               <set attributeName="fill" to="#808080" begin="reset.mouseover" end="reset.mouseout"/>
                       </use>
               </g>
        </defs>

<script type="text/javascript">
var viewWidth = 2152;
var viewHeight = 302;
var sectionId = 'dynsection-1';
</script>
<script xlink:href="svgpan.js"/>
<svg id="graph" class="graph">
<g id="viewport">
<title>src/core/error.h</title>
<!-- Node1 -->
<g id="node1" class="node">
<title>Node1</title>
<g id="a_node1"><a xlink:title=" ">
<polygon fill="#999999" stroke="#666666" points="1181.34,-294 1099.34,-294 1099.34,-275 1181.34,-275 1181.34,-294"/>
<text text-anchor="middle" x="1140.34" y="-282" font-family="Helvetica,sans-Serif" font-size="10.00">src/core/error.h</text>
</a>
</g>
</g>
<!-- Node2 -->
<g id="node2" class="node">
<title>Node2</title>
<g id="a_node2"><a xlink:href="array_8cpp.html" target="_top" xlink:title=" ">
<polygon fill="white" stroke="#666666" points="114.34,-151 20.34,-151 20.34,-132 114.34,-132 114.34,-151"/>
<text text-anchor="middle" x="67.34" y="-139" font-family="Helvetica,sans-Serif" font-size="10.00">src/core/array.cpp</text>
</a>
</g>
</g>
<!-- Node1&#45;&gt;Node2 -->
<g id="edge1" class="edge">
<title>Node1&#45;&gt;Node2</title>
<path fill="none" stroke="#63b8ff" d="M1087.7,-283.03C899.36,-281.1 265.72,-272.16 181.34,-239 132.83,-219.94 90.22,-171.32 74.15,-151.31"/>
<polygon fill="#63b8ff" stroke="#63b8ff" points="1087.38,-286.53 1097.42,-283.13 1087.46,-279.53 1087.38,-286.53"/>
</g>
<!-- Node3 -->
<g id="node3" class="node">
<title>Node3</title>
<g id="a_node3"><a xlink:href="config_8cpp.html" target="_top" xlink:title=" ">
<polygon fill="white" stroke="#666666" points="1189.34,-233.5 1091.34,-233.5 1091.34,-203.5 1189.34,-203.5 1189.34,-233.5"/>
<text text-anchor="start" x="1099.34" y="-221.5" font-family="Helvetica,sans-Serif" font-size="10.00">src/core/constants</text>
<text text-anchor="middle" x="1140.34" y="-210.5" font-family="Helvetica,sans-Serif" font-size="10.00">/config.cpp</text>
</a>
</g>
</g>
<!-- Node1&#45;&gt;Node3 -->
<g id="edge2" class="edge">
<title>Node1&#45;&gt;Node3</title>
<path fill="none" stroke="#63b8ff" d="M1140.34,-263.28C1140.34,-253.67 1140.34,-242.42 1140.34,-233.73"/>
<polygon fill="#63b8ff" stroke="#63b8ff" points="1136.84,-263.09 1140.34,-273.09 1143.84,-263.09 1136.84,-263.09"/>
</g>
<!-- Node4 -->
<g id="node4" class="node">
<title>Node4</title>
<g id="a_node4"><a xlink:href="datatypes_8cpp.html" target="_top" xlink:title=" ">
<polygon fill="white" stroke="#666666" points="1323.34,-228 1207.34,-228 1207.34,-209 1323.34,-209 1323.34,-228"/>
<text text-anchor="middle" x="1265.34" y="-216" font-family="Helvetica,sans-Serif" font-size="10.00">src/core/datatypes.cpp</text>
</a>
</g>
</g>
<!-- Node1&#45;&gt;Node4 -->
<g id="edge3" class="edge">
<title>Node1&#45;&gt;Node4</title>
<path fill="none" stroke="#63b8ff" d="M1167.81,-269.43C1192.3,-256.9 1227.37,-238.94 1248.11,-228.32"/>
<polygon fill="#63b8ff" stroke="#63b8ff" points="1166.37,-266.24 1159.07,-273.91 1169.56,-272.47 1166.37,-266.24"/>
</g>
<!-- Node5 -->
<g id="node5" class="node">
<title>Node5</title>
<g id="a_node5"><a xlink:href="algorithms_8cpp.html" target="_top" xlink:title=" ">
<polygon fill="white" stroke="#666666" points="1440.84,-233.5 1341.84,-233.5 1341.84,-203.5 1440.84,-203.5 1440.84,-233.5"/>
<text text-anchor="start" x="1349.84" y="-221.5" font-family="Helvetica,sans-Serif" font-size="10.00">src/core/evaluation</text>
<text text-anchor="middle" x="1391.34" y="-210.5" font-family="Helvetica,sans-Serif" font-size="10.00">/algorithms.cpp</text>
</a>
</g>
</g>
<!-- Node1&#45;&gt;Node5 -->
<g id="edge4" class="edge">
<title>Node1&#45;&gt;Node5</title>
<path fill="none" stroke="#63b8ff" d="M1192.83,-272.69C1231.61,-264.38 1285.56,-252.12 1332.34,-239 1337.84,-237.46 1343.6,-235.72 1349.26,-233.93"/>
<polygon fill="#63b8ff" stroke="#63b8ff" points="1192.35,-269.21 1183.3,-274.72 1193.8,-276.06 1192.35,-269.21"/>
</g>
<!-- Node6 -->
<g id="node6" class="node">
<title>Node6</title>
<g id="a_node6"><a xlink:href="interpreter_8h.html" target="_top" xlink:title=" ">
<polygon fill="white" stroke="#666666" points="289.84,-233.5 190.84,-233.5 190.84,-203.5 289.84,-203.5 289.84,-233.5"/>
<text text-anchor="start" x="198.84" y="-221.5" font-family="Helvetica,sans-Serif" font-size="10.00">src/core/evaluation</text>
<text text-anchor="middle" x="240.34" y="-210.5" font-family="Helvetica,sans-Serif" font-size="10.00">/interpreter.h</text>
</a>
</g>
</g>
<!-- Node1&#45;&gt;Node6 -->
<g id="edge5" class="edge">
<title>Node1&#45;&gt;Node6</title>
<path fill="none" stroke="#63b8ff" d="M1087.6,-279.75C927.21,-268.34 446.65,-234.17 290.18,-223.04"/>
<polygon fill="#63b8ff" stroke="#63b8ff" points="1087.3,-283.24 1097.52,-280.46 1087.8,-276.25 1087.3,-283.24"/>
</g>
<!-- Node10 -->
<g id="node10" class="node">
<title>Node10</title>
<g id="a_node10"><a xlink:href="dyadic__operators_8cpp.html" target="_top" xlink:title=" ">
<polygon fill="white" stroke="#666666" points="1619.84,-233.5 1458.84,-233.5 1458.84,-203.5 1619.84,-203.5 1619.84,-233.5"/>
<text text-anchor="start" x="1466.84" y="-221.5" font-family="Helvetica,sans-Serif" font-size="10.00">src/core/evaluation</text>
<text text-anchor="middle" x="1539.34" y="-210.5" font-family="Helvetica,sans-Serif" font-size="10.00">/operations/dyadic_operators.cpp</text>
</a>
</g>
</g>
<!-- Node1&#45;&gt;Node10 -->
<g id="edge9" class="edge">
<title>Node1&#45;&gt;Node10</title>
<path fill="none" stroke="#63b8ff" d="M1193.01,-277.13C1254.84,-269.38 1360.37,-255.29 1450.34,-239 1458.74,-237.48 1467.56,-235.73 1476.25,-233.92"/>
<polygon fill="#63b8ff" stroke="#63b8ff" points="1192.61,-273.65 1183.11,-278.36 1193.47,-280.6 1192.61,-273.65"/>
</g>
<!-- Node11 -->
<g id="node11" class="node">
<title>Node11</title>
<g id="a_node11"><a xlink:href="functions_8cpp.html" target="_top" xlink:title=" ">
<polygon fill="white" stroke="#666666" points="848.34,-156.5 722.34,-156.5 722.34,-126.5 848.34,-126.5 848.34,-156.5"/>
<text text-anchor="start" x="730.34" y="-144.5" font-family="Helvetica,sans-Serif" font-size="10.00">src/core/evaluation</text>
<text text-anchor="middle" x="785.34" y="-133.5" font-family="Helvetica,sans-Serif" font-size="10.00">/operations/functions.cpp</text>
</a>
</g>
</g>
<!-- Node1&#45;&gt;Node11 -->
<g id="edge10" class="edge">
<title>Node1&#45;&gt;Node11</title>
<path fill="none" stroke="#63b8ff" d="M1088.06,-272.18C1055.41,-264.41 1012.8,-252.99 976.34,-239 914.25,-215.18 845.61,-177.49 809.93,-156.97"/>
<polygon fill="#63b8ff" stroke="#63b8ff" points="1087.16,-275.56 1097.69,-274.43 1088.75,-268.75 1087.16,-275.56"/>
</g>
<!-- Node12 -->
<g id="node12" class="node">
<title>Node12</title>
<g id="a_node12"><a xlink:href="monadic__operators_8cpp.html" target="_top" xlink:title=" ">
<polygon fill="white" stroke="#666666" points="1742.34,-239 1638.34,-239 1638.34,-198 1742.34,-198 1742.34,-239"/>
<text text-anchor="start" x="1646.34" y="-227" font-family="Helvetica,sans-Serif" font-size="10.00">src/core/evaluation</text>
<text text-anchor="start" x="1646.34" y="-216" font-family="Helvetica,sans-Serif" font-size="10.00">/operations/monadic</text>
<text text-anchor="middle" x="1690.34" y="-205" font-family="Helvetica,sans-Serif" font-size="10.00">_operators.cpp</text>
</a>
</g>
</g>
<!-- Node1&#45;&gt;Node12 -->
<g id="edge11" class="edge">
<title>Node1&#45;&gt;Node12</title>
<path fill="none" stroke="#63b8ff" d="M1192.95,-282.47C1283.13,-279.87 1472.67,-270.77 1629.34,-239 1632.17,-238.43 1635.06,-237.77 1637.96,-237.05"/>
<polygon fill="#63b8ff" stroke="#63b8ff" points="1193.09,-278.97 1183.18,-282.74 1193.28,-285.96 1193.09,-278.97"/>
</g>
<!-- Node13 -->
<g id="node13" class="node">
<title>Node13</title>
<g id="a_node13"><a xlink:href="operation_8cpp.html" target="_top" xlink:title=" ">
<polygon fill="white" stroke="#666666" points="1886.34,-233.5 1760.34,-233.5 1760.34,-203.5 1886.34,-203.5 1886.34,-233.5"/>
<text text-anchor="start" x="1768.34" y="-221.5" font-family="Helvetica,sans-Serif" font-size="10.00">src/core/evaluation</text>
<text text-anchor="middle" x="1823.34" y="-210.5" font-family="Helvetica,sans-Serif" font-size="10.00">/operations/operation.cpp</text>
</a>
</g>
</g>
<!-- Node1&#45;&gt;Node13 -->
<g id="edge12" class="edge">
<title>Node1&#45;&gt;Node13</title>
<path fill="none" stroke="#63b8ff" d="M1193.15,-283.05C1299.54,-281.4 1546.94,-273.79 1751.34,-239 1759,-237.7 1767.02,-235.93 1774.82,-234"/>
<polygon fill="#63b8ff" stroke="#63b8ff" points="1193.25,-279.55 1183.3,-283.19 1193.35,-286.55 1193.25,-279.55"/>
</g>
<!-- Node14 -->
<g id="node14" class="node">
<title>Node14</title>
<g id="a_node14"><a xlink:href="parser_8cpp.html" target="_top" xlink:title=" ">
<polygon fill="white" stroke="#666666" points="965.84,-156.5 866.84,-156.5 866.84,-126.5 965.84,-126.5 965.84,-156.5"/>
<text text-anchor="start" x="874.84" y="-144.5" font-family="Helvetica,sans-Serif" font-size="10.00">src/core/evaluation</text>
<text text-anchor="middle" x="916.34" y="-133.5" font-family="Helvetica,sans-Serif" font-size="10.00">/parser/parser.cpp</text>
</a>
</g>
</g>
<!-- Node1&#45;&gt;Node14 -->
<g id="edge13" class="edge">
<title>Node1&#45;&gt;Node14</title>
<path fill="none" stroke="#63b8ff" d="M1102.5,-270.65C1081.68,-262.85 1055.8,-251.91 1034.34,-239 993.74,-214.58 952.23,-177.13 930.93,-156.81"/>
<polygon fill="#63b8ff" stroke="#63b8ff" points="1101.16,-273.89 1111.75,-274.03 1103.56,-267.32 1101.16,-273.89"/>
</g>
<!-- Node15 -->
<g id="node15" class="node">
<title>Node15</title>
<g id="a_node15"><a xlink:href="tokenizer_8cpp.html" target="_top" xlink:title=" ">
<polygon fill="white" stroke="#666666" points="2024.34,-233.5 1904.34,-233.5 1904.34,-203.5 2024.34,-203.5 2024.34,-233.5"/>
<text text-anchor="start" x="1912.34" y="-221.5" font-family="Helvetica,sans-Serif" font-size="10.00">src/core/evaluation</text>
<text text-anchor="middle" x="1964.34" y="-210.5" font-family="Helvetica,sans-Serif" font-size="10.00">/tokenizer/tokenizer.cpp</text>
</a>
</g>
</g>
<!-- Node1&#45;&gt;Node15 -->
<g id="edge14" class="edge">
<title>Node1&#45;&gt;Node15</title>
<path fill="none" stroke="#63b8ff" d="M1192.95,-284.29C1316.5,-285.31 1634.45,-283.02 1895.34,-239 1902.95,-237.72 1910.92,-235.91 1918.63,-233.91"/>
<polygon fill="#63b8ff" stroke="#63b8ff" points="1193.16,-280.8 1183.12,-284.2 1193.09,-287.79 1193.16,-280.8"/>
</g>
<!-- Node16 -->
<g id="node16" class="node">
<title>Node16</title>
<g id="a_node16"><a xlink:href="file__reader_8cpp.html" target="_top" xlink:title=" ">
<polygon fill="white" stroke="#666666" points="2144.34,-233.5 2042.34,-233.5 2042.34,-203.5 2144.34,-203.5 2144.34,-233.5"/>
<text text-anchor="start" x="2050.34" y="-221.5" font-family="Helvetica,sans-Serif" font-size="10.00">src/core/helpers/file</text>
<text text-anchor="middle" x="2093.34" y="-210.5" font-family="Helvetica,sans-Serif" font-size="10.00">_reader.cpp</text>
</a>
</g>
</g>
<!-- Node1&#45;&gt;Node16 -->
<g id="edge15" class="edge">
<title>Node1&#45;&gt;Node16</title>
<path fill="none" stroke="#63b8ff" d="M1193.1,-282.7C1359.29,-279.89 1870.56,-268.96 2033.34,-239 2040.13,-237.75 2047.21,-235.94 2054.02,-233.91"/>
<polygon fill="#63b8ff" stroke="#63b8ff" points="1193.19,-279.2 1183.25,-282.86 1193.31,-286.2 1193.19,-279.2"/>
</g>
<!-- Node17 -->
<g id="node17" class="node">
<title>Node17</title>
<g id="a_node17"><a xlink:href="symbol__table_8cpp.html" target="_top" xlink:title=" ">
<polygon fill="white" stroke="#666666" points="1114.84,-151 983.84,-151 983.84,-132 1114.84,-132 1114.84,-151"/>
<text text-anchor="middle" x="1049.34" y="-139" font-family="Helvetica,sans-Serif" font-size="10.00">src/core/symbol_table.cpp</text>
</a>
</g>
</g>
<!-- Node1&#45;&gt;Node17 -->
<g id="edge16" class="edge">
<title>Node1&#45;&gt;Node17</title>
<path fill="none" stroke="#63b8ff" d="M1090.56,-270.7C1074.6,-263.99 1058.66,-253.93 1049.34,-239 1031.95,-211.14 1041.19,-169.38 1046.47,-151.33"/>
<polygon fill="#63b8ff" stroke="#63b8ff" points="1088.97,-273.84 1099.56,-274.11 1091.45,-267.3 1088.97,-273.84"/>
</g>
<!-- Node18 -->
<g id="node18" class="node">
<title>Node18</title>
<g id="a_node18"><a xlink:href="symbol__table_8h.html" target="_top" xlink:title=" ">
<polygon fill="white" stroke="#666666" points="675.84,-228 554.84,-228 554.84,-209 675.84,-209 675.84,-228"/>
<text text-anchor="middle" x="615.34" y="-216" font-family="Helvetica,sans-Serif" font-size="10.00">src/core/symbol_table.h</text>
</a>
</g>
</g>
<!-- Node1&#45;&gt;Node18 -->
<g id="edge17" class="edge">
<title>Node1&#45;&gt;Node18</title>
<path fill="none" stroke="#63b8ff" d="M1087.77,-277.09C989.8,-265.15 779.89,-239.56 676.06,-226.9"/>
<polygon fill="#63b8ff" stroke="#63b8ff" points="1087.29,-280.56 1097.64,-278.29 1088.14,-273.61 1087.29,-280.56"/>
</g>
<!-- Node30 -->
<g id="node30" class="node">
<title>Node30</title>
<g id="a_node30"><a xlink:href="matcher_8h.html" target="_top" xlink:title=" ">
<polygon fill="white" stroke="#666666" points="1020.34,-79.5 912.34,-79.5 912.34,-60.5 1020.34,-60.5 1020.34,-79.5"/>
<text text-anchor="middle" x="966.34" y="-67.5" font-family="Helvetica,sans-Serif" font-size="10.00">src/testing/matcher.h</text>
</a>
</g>
</g>
<!-- Node1&#45;&gt;Node30 -->
<g id="edge39" class="edge">
<title>Node1&#45;&gt;Node30</title>
<path fill="none" stroke="#63b8ff" d="M1111.24,-268.77C1100.06,-261.47 1088.5,-251.5 1082.34,-239 1074.28,-222.66 1074.73,-214.56 1082.34,-198 1092.61,-175.66 1114.07,-184.34 1124.34,-162 1131.95,-145.44 1135.11,-135.7 1124.34,-121 1100.79,-88.85 1056.48,-76.85 1020.76,-72.61"/>
<polygon fill="#63b8ff" stroke="#63b8ff" points="1109.14,-271.6 1119.52,-273.72 1112.73,-265.59 1109.14,-271.6"/>
</g>
<!-- Node7 -->
<g id="node7" class="node">
<title>Node7</title>
<g id="a_node7"><a xlink:href="interpreter_8cpp.html" target="_top" xlink:title=" ">
<polygon fill="white" stroke="#666666" points="231.84,-156.5 132.84,-156.5 132.84,-126.5 231.84,-126.5 231.84,-156.5"/>
<text text-anchor="start" x="140.84" y="-144.5" font-family="Helvetica,sans-Serif" font-size="10.00">src/core/evaluation</text>
<text text-anchor="middle" x="182.34" y="-133.5" font-family="Helvetica,sans-Serif" font-size="10.00">/interpreter.cpp</text>
</a>
</g>
</g>
<!-- Node6&#45;&gt;Node7 -->
<g id="edge6" class="edge">
<title>Node6&#45;&gt;Node7</title>
<path fill="none" stroke="#63b8ff" d="M222.38,-194.27C212.94,-182.07 201.66,-167.49 193.49,-156.92"/>
<polygon fill="#63b8ff" stroke="#63b8ff" points="219.34,-196.07 228.23,-201.84 224.88,-191.79 219.34,-196.07"/>
</g>
<!-- Node8 -->
<g id="node8" class="node">
<title>Node8</title>
<g id="a_node8"><a xlink:href="defined__function_8cpp.html" target="_top" xlink:title=" ">
<polygon fill="white" stroke="#666666" points="348.84,-162 249.84,-162 249.84,-121 348.84,-121 348.84,-162"/>
<text text-anchor="start" x="257.84" y="-150" font-family="Helvetica,sans-Serif" font-size="10.00">src/core/evaluation</text>
<text text-anchor="start" x="257.84" y="-139" font-family="Helvetica,sans-Serif" font-size="10.00">/operations/defined</text>
<text text-anchor="middle" x="299.34" y="-128" font-family="Helvetica,sans-Serif" font-size="10.00">_function.cpp</text>
</a>
</g>
</g>
<!-- Node6&#45;&gt;Node8 -->
<g id="edge7" class="edge">
<title>Node6&#45;&gt;Node8</title>
<path fill="none" stroke="#63b8ff" d="M258.65,-194.22C266.7,-183.99 276.05,-172.1 283.76,-162.3"/>
<polygon fill="#63b8ff" stroke="#63b8ff" points="256.08,-191.83 252.65,-201.85 261.58,-196.15 256.08,-191.83"/>
</g>
<!-- Node9 -->
<g id="node9" class="node">
<title>Node9</title>
<g id="a_node9"><a xlink:href="execution_8cpp.html" target="_top" xlink:title=" ">
<polygon fill="white" stroke="#666666" points="404.34,-79.5 288.34,-79.5 288.34,-60.5 404.34,-60.5 404.34,-79.5"/>
<text text-anchor="middle" x="346.34" y="-67.5" font-family="Helvetica,sans-Serif" font-size="10.00">src/core/execution.cpp</text>
</a>
</g>
</g>
<!-- Node6&#45;&gt;Node9 -->
<g id="edge8" class="edge">
<title>Node6&#45;&gt;Node9</title>
<path fill="none" stroke="#63b8ff" d="M179.34,-212.69C95.49,-203.82 -39.55,-180.05 11.34,-121 46.37,-80.35 201.71,-72.25 288.02,-70.95"/>
<polygon fill="#63b8ff" stroke="#63b8ff" points="178.75,-216.15 189.05,-213.67 179.45,-209.18 178.75,-216.15"/>
</g>
<!-- Node18&#45;&gt;Node2 -->
<g id="edge18" class="edge">
<title>Node18&#45;&gt;Node2</title>
<path fill="none" stroke="#63b8ff" d="M543.01,-214.38C446.33,-209.07 270.13,-195.4 123.34,-162 111.9,-159.4 99.54,-155.24 89.35,-151.44"/>
<polygon fill="#63b8ff" stroke="#63b8ff" points="542.72,-217.87 552.89,-214.91 543.09,-210.88 542.72,-217.87"/>
</g>
<!-- Node18&#45;&gt;Node7 -->
<g id="edge20" class="edge">
<title>Node18&#45;&gt;Node7</title>
<path fill="none" stroke="#63b8ff" d="M543.3,-210.68C467.27,-202.58 344.27,-186.95 240.34,-162 234.45,-160.59 228.31,-158.84 222.32,-156.97"/>
<polygon fill="#63b8ff" stroke="#63b8ff" points="542.82,-214.14 553.13,-211.71 543.55,-207.18 542.82,-214.14"/>
</g>
<!-- Node18&#45;&gt;Node8 -->
<g id="edge21" class="edge">
<title>Node18&#45;&gt;Node8</title>
<path fill="none" stroke="#63b8ff" d="M558.38,-206.29C507.11,-195.89 429.82,-179.42 363.34,-162 358.73,-160.79 353.96,-159.47 349.19,-158.11"/>
<polygon fill="#63b8ff" stroke="#63b8ff" points="557.58,-209.7 568.07,-208.25 558.96,-202.84 557.58,-209.7"/>
</g>
<!-- Node18&#45;&gt;Node9 -->
<g id="edge24" class="edge">
<title>Node18&#45;&gt;Node9</title>
<path fill="none" stroke="#63b8ff" d="M542.94,-213.74C496.88,-208.07 438.24,-194.41 396.34,-162 368.25,-140.28 353.78,-98.1 348.61,-79.81"/>
<polygon fill="#63b8ff" stroke="#63b8ff" points="542.53,-217.22 552.86,-214.85 543.31,-210.26 542.53,-217.22"/>
</g>
<!-- Node18&#45;&gt;Node11 -->
<g id="edge22" class="edge">
<title>Node18&#45;&gt;Node11</title>
<path fill="none" stroke="#63b8ff" d="M645.83,-204.05C675.95,-190.76 721.85,-170.51 752.69,-156.9"/>
<polygon fill="#63b8ff" stroke="#63b8ff" points="644.63,-200.75 636.89,-207.99 647.45,-207.16 644.63,-200.75"/>
</g>
<!-- Node18&#45;&gt;Node14 -->
<g id="edge23" class="edge">
<title>Node18&#45;&gt;Node14</title>
<path fill="none" stroke="#63b8ff" d="M671.32,-206.22C720.61,-195.92 794.17,-179.64 857.34,-162 862.85,-160.46 868.6,-158.73 874.27,-156.94"/>
<polygon fill="#63b8ff" stroke="#63b8ff" points="670.82,-202.75 661.74,-208.21 672.24,-209.6 670.82,-202.75"/>
</g>
<!-- Node18&#45;&gt;Node17 -->
<g id="edge35" class="edge">
<title>Node18&#45;&gt;Node17</title>
<path fill="none" stroke="#63b8ff" d="M687.64,-208.51C760.42,-198.94 875.7,-182.39 974.34,-162 988.7,-159.03 1004.43,-155.06 1017.76,-151.47"/>
<polygon fill="#63b8ff" stroke="#63b8ff" points="687.3,-205.02 677.84,-209.78 688.21,-211.96 687.3,-205.02"/>
</g>
<!-- Node19 -->
<g id="node19" class="node">
<title>Node19</title>
<g id="a_node19"><a xlink:href="ast_8cpp.html" target="_top" xlink:title=" ">
<polygon fill="white" stroke="#666666" points="504.84,-156.5 405.84,-156.5 405.84,-126.5 504.84,-126.5 504.84,-156.5"/>
<text text-anchor="start" x="413.84" y="-144.5" font-family="Helvetica,sans-Serif" font-size="10.00">src/core/evaluation</text>
<text text-anchor="middle" x="455.34" y="-133.5" font-family="Helvetica,sans-Serif" font-size="10.00">/ast.cpp</text>
</a>
</g>
</g>
<!-- Node18&#45;&gt;Node19 -->
<g id="edge19" class="edge">
<title>Node18&#45;&gt;Node19</title>
<path fill="none" stroke="#63b8ff" d="M586.27,-203.87C557.92,-190.58 514.97,-170.45 486.07,-156.9"/>
<polygon fill="#63b8ff" stroke="#63b8ff" points="584.45,-206.88 594.99,-207.96 587.42,-200.55 584.45,-206.88"/>
</g>
<!-- Node20 -->
<g id="node20" class="node">
<title>Node20</title>
<g id="a_node20"><a xlink:href="execution_8h.html" target="_top" xlink:title=" ">
<polygon fill="white" stroke="#666666" points="627.84,-151 522.84,-151 522.84,-132 627.84,-132 627.84,-151"/>
<text text-anchor="middle" x="575.34" y="-139" font-family="Helvetica,sans-Serif" font-size="10.00">src/core/execution.h</text>
</a>
</g>
</g>
<!-- Node18&#45;&gt;Node20 -->
<g id="edge25" class="edge">
<title>Node18&#45;&gt;Node20</title>
<path fill="none" stroke="#63b8ff" d="M605.34,-198.76C597.27,-183.62 586.27,-163 580.08,-151.39"/>
<polygon fill="#63b8ff" stroke="#63b8ff" points="602.09,-200.09 609.88,-207.27 608.26,-196.8 602.09,-200.09"/>
</g>
<!-- Node24 -->
<g id="node24" class="node">
<title>Node24</title>
<g id="a_node24"><a xlink:href="fixture_8h.html" target="_top" xlink:title=" ">
<polygon fill="white" stroke="#666666" points="728.34,-85 630.34,-85 630.34,-55 728.34,-55 728.34,-85"/>
<text text-anchor="start" x="638.34" y="-73" font-family="Helvetica,sans-Serif" font-size="10.00">src/testing/fixtures</text>
<text text-anchor="middle" x="679.34" y="-62" font-family="Helvetica,sans-Serif" font-size="10.00">/fixture.h</text>
</a>
</g>
</g>
<!-- Node18&#45;&gt;Node24 -->
<g id="edge36" class="edge">
<title>Node18&#45;&gt;Node24</title>
<path fill="none" stroke="#63b8ff" d="M623.64,-198.49C636.65,-168.73 661.52,-111.78 673.11,-85.26"/>
<polygon fill="#63b8ff" stroke="#63b8ff" points="620.55,-196.82 619.76,-207.39 626.97,-199.62 620.55,-196.82"/>
</g>
<!-- Node28 -->
<g id="node28" class="node">
<title>Node28</title>
<g id="a_node28"><a xlink:href="parser__fixture_8h.html" target="_top" xlink:title=" ">
<polygon fill="white" stroke="#666666" points="1227.34,-85 1129.34,-85 1129.34,-55 1227.34,-55 1227.34,-85"/>
<text text-anchor="start" x="1137.34" y="-73" font-family="Helvetica,sans-Serif" font-size="10.00">src/testing/fixtures</text>
<text text-anchor="middle" x="1178.34" y="-62" font-family="Helvetica,sans-Serif" font-size="10.00">/parser_fixture.h</text>
</a>
</g>
</g>
<!-- Node18&#45;&gt;Node28 -->
<g id="edge37" class="edge">
<title>Node18&#45;&gt;Node28</title>
<path fill="none" stroke="#63b8ff" d="M630.33,-200.21C652.56,-175.04 693.73,-130.29 713.34,-121 722.67,-116.58 1011,-87.59 1128.87,-75.89"/>
<polygon fill="#63b8ff" stroke="#63b8ff" points="627.78,-197.82 623.82,-207.65 633.04,-202.43 627.78,-197.82"/>
</g>
<!-- Node20&#45;&gt;Node9 -->
<g id="edge26" class="edge">
<title>Node20&#45;&gt;Node9</title>
<path fill="none" stroke="#63b8ff" d="M536.41,-128.16C528.76,-125.77 520.8,-123.29 513.34,-121 465.75,-106.39 410.36,-89.91 376.85,-80"/>
<polygon fill="#63b8ff" stroke="#63b8ff" points="535.25,-131.47 545.83,-131.13 537.35,-124.79 535.25,-131.47"/>
</g>
<!-- Node21 -->
<g id="node21" class="node">
<title>Node21</title>
<g id="a_node21"><a xlink:href="main_8cpp.html" target="_top" xlink:title=" ">
<polygon fill="white" stroke="#666666" points="611.84,-79.5 538.84,-79.5 538.84,-60.5 611.84,-60.5 611.84,-79.5"/>
<text text-anchor="middle" x="575.34" y="-67.5" font-family="Helvetica,sans-Serif" font-size="10.00">src/main.cpp</text>
</a>
</g>
</g>
<!-- Node20&#45;&gt;Node21 -->
<g id="edge27" class="edge">
<title>Node20&#45;&gt;Node21</title>
<path fill="none" stroke="#63b8ff" d="M575.34,-120.3C575.34,-106.94 575.34,-90.09 575.34,-79.95"/>
<polygon fill="#63b8ff" stroke="#63b8ff" points="571.84,-120.18 575.34,-130.18 578.84,-120.18 571.84,-120.18"/>
</g>
<!-- Node22 -->
<g id="node22" class="node">
<title>Node22</title>
<g id="a_node22"><a xlink:href="file__fixture_8h.html" target="_top" xlink:title=" ">
<polygon fill="white" stroke="#666666" points="520.34,-85 422.34,-85 422.34,-55 520.34,-55 520.34,-85"/>
<text text-anchor="start" x="430.34" y="-73" font-family="Helvetica,sans-Serif" font-size="10.00">src/testing/fixtures</text>
<text text-anchor="middle" x="471.34" y="-62" font-family="Helvetica,sans-Serif" font-size="10.00">/file_fixture.h</text>
</a>
</g>
</g>
<!-- Node20&#45;&gt;Node22 -->
<g id="edge28" class="edge">
<title>Node20&#45;&gt;Node22</title>
<path fill="none" stroke="#63b8ff" d="M552.81,-125.45C534.98,-113.53 510.23,-96.99 492.7,-85.27"/>
<polygon fill="#63b8ff" stroke="#63b8ff" points="550.65,-128.21 560.91,-130.86 554.54,-122.39 550.65,-128.21"/>
</g>
<!-- Node20&#45;&gt;Node24 -->
<g id="edge30" class="edge">
<title>Node20&#45;&gt;Node24</title>
<path fill="none" stroke="#63b8ff" d="M597.86,-125.45C615.7,-113.53 640.45,-96.99 657.98,-85.27"/>
<polygon fill="#63b8ff" stroke="#63b8ff" points="596.14,-122.39 589.77,-130.86 600.03,-128.21 596.14,-122.39"/>
</g>
<!-- Node23 -->
<g id="node23" class="node">
<title>Node23</title>
<g id="a_node23"><a xlink:href="test__examples_8cpp.html" target="_top" xlink:title=" ">
<polygon fill="white" stroke="#666666" points="545.34,-19 397.34,-19 397.34,0 545.34,0 545.34,-19"/>
<text text-anchor="middle" x="471.34" y="-7" font-family="Helvetica,sans-Serif" font-size="10.00">src/testing/test_examples.cpp</text>
</a>
</g>
</g>
<!-- Node22&#45;&gt;Node23 -->
<g id="edge29" class="edge">
<title>Node22&#45;&gt;Node23</title>
<path fill="none" stroke="#63b8ff" d="M471.34,-43.3C471.34,-34.65 471.34,-25.58 471.34,-19.18"/>
<polygon fill="#63b8ff" stroke="#63b8ff" points="467.84,-43.03 471.34,-53.03 474.84,-43.03 467.84,-43.03"/>
</g>
<!-- Node24&#45;&gt;Node23 -->
<g id="edge32" class="edge">
<title>Node24&#45;&gt;Node23</title>
<path fill="none" stroke="#63b8ff" d="M619.13,-52.07C581.25,-41.41 533.89,-28.09 503.14,-19.44"/>
<polygon fill="#63b8ff" stroke="#63b8ff" points="618.02,-55.39 628.59,-54.73 619.91,-48.65 618.02,-55.39"/>
</g>
<!-- Node25 -->
<g id="node25" class="node">
<title>Node25</title>
<g id="a_node25"><a xlink:href="test__datatypes_8cpp.html" target="_top" xlink:title=" ">
<polygon fill="white" stroke="#666666" points="1040.84,-19 891.84,-19 891.84,0 1040.84,0 1040.84,-19"/>
<text text-anchor="middle" x="966.34" y="-7" font-family="Helvetica,sans-Serif" font-size="10.00">src/testing/test_datatypes.cpp</text>
</a>
</g>
</g>
<!-- Node24&#45;&gt;Node25 -->
<g id="edge31" class="edge">
<title>Node24&#45;&gt;Node25</title>
<path fill="none" stroke="#63b8ff" d="M739.94,-56.65C794.56,-45.51 873.56,-29.41 922.34,-19.47"/>
<polygon fill="#63b8ff" stroke="#63b8ff" points="739.26,-53.21 730.16,-58.64 740.66,-60.07 739.26,-53.21"/>
</g>
<!-- Node26 -->
<g id="node26" class="node">
<title>Node26</title>
<g id="a_node26"><a xlink:href="test__functions_8cpp.html" target="_top" xlink:title=" ">
<polygon fill="white" stroke="#666666" points="709.34,-19 563.34,-19 563.34,0 709.34,0 709.34,-19"/>
<text text-anchor="middle" x="636.34" y="-7" font-family="Helvetica,sans-Serif" font-size="10.00">src/testing/test_functions.cpp</text>
</a>
</g>
</g>
<!-- Node24&#45;&gt;Node26 -->
<g id="edge33" class="edge">
<title>Node24&#45;&gt;Node26</title>
<path fill="none" stroke="#63b8ff" d="M661.96,-45.35C655.16,-36.11 647.8,-26.09 642.72,-19.18"/>
<polygon fill="#63b8ff" stroke="#63b8ff" points="659.07,-47.34 667.81,-53.32 664.71,-43.19 659.07,-47.34"/>
</g>
<!-- Node27 -->
<g id="node27" class="node">
<title>Node27</title>
<g id="a_node27"><a xlink:href="test__operators_8cpp.html" target="_top" xlink:title=" ">
<polygon fill="white" stroke="#666666" points="873.34,-19 727.34,-19 727.34,0 873.34,0 873.34,-19"/>
<text text-anchor="middle" x="800.34" y="-7" font-family="Helvetica,sans-Serif" font-size="10.00">src/testing/test_operators.cpp</text>
</a>
</g>
</g>
<!-- Node24&#45;&gt;Node27 -->
<g id="edge34" class="edge">
<title>Node24&#45;&gt;Node27</title>
<path fill="none" stroke="#63b8ff" d="M719.58,-49.55C740.7,-39.34 765.54,-27.32 782.04,-19.35"/>
<polygon fill="#63b8ff" stroke="#63b8ff" points="718.09,-46.38 710.61,-53.88 721.14,-52.68 718.09,-46.38"/>
</g>
<!-- Node29 -->
<g id="node29" class="node">
<title>Node29</title>
<g id="a_node29"><a xlink:href="test__parser_8cpp.html" target="_top" xlink:title=" ">
<polygon fill="white" stroke="#666666" points="1335.34,-19 1203.34,-19 1203.34,0 1335.34,0 1335.34,-19"/>
<text text-anchor="middle" x="1269.34" y="-7" font-family="Helvetica,sans-Serif" font-size="10.00">src/testing/test_parser.cpp</text>
</a>
</g>
</g>
<!-- Node28&#45;&gt;Node29 -->
<g id="edge38" class="edge">
<title>Node28&#45;&gt;Node29</title>
<path fill="none" stroke="#63b8ff" d="M1210.13,-48.56C1225.67,-38.57 1243.57,-27.07 1255.58,-19.35"/>
<polygon fill="#63b8ff" stroke="#63b8ff" points="1208.63,-45.37 1202.11,-53.72 1212.41,-51.26 1208.63,-45.37"/>
</g>
<!-- Node30&#45;&gt;Node23 -->
<g id="edge41" class="edge">
<title>Node30&#45;&gt;Node23</title>
<path fill="none" stroke="#63b8ff" d="M900.56,-61.23C808.53,-50.35 641.83,-30.65 545.5,-19.26"/>
<polygon fill="#63b8ff" stroke="#63b8ff" points="900.1,-64.7 910.45,-62.39 900.93,-57.74 900.1,-64.7"/>
</g>
<!-- Node30&#45;&gt;Node25 -->
<g id="edge40" class="edge">
<title>Node30&#45;&gt;Node25</title>
<path fill="none" stroke="#63b8ff" d="M966.34,-49.16C966.34,-38.95 966.34,-27.04 966.34,-19.17"/>
<polygon fill="#63b8ff" stroke="#63b8ff" points="962.84,-48.85 966.34,-58.85 969.84,-48.85 962.84,-48.85"/>
</g>
<!-- Node30&#45;&gt;Node26 -->
<g id="edge42" class="edge">
<title>Node30&#45;&gt;Node26</title>
<path fill="none" stroke="#63b8ff" d="M904.54,-58.04C841.73,-46.91 745.58,-29.87 687.08,-19.5"/>
<polygon fill="#63b8ff" stroke="#63b8ff" points="903.91,-61.49 914.37,-59.79 905.13,-54.6 903.91,-61.49"/>
</g>
<!-- Node30&#45;&gt;Node27 -->
<g id="edge44" class="edge">
<title>Node30&#45;&gt;Node27</title>
<path fill="none" stroke="#63b8ff" d="M930.58,-56.4C899.02,-45.28 853.8,-29.34 825.79,-19.47"/>
<polygon fill="#63b8ff" stroke="#63b8ff" points="929.11,-59.59 939.7,-59.61 931.43,-52.99 929.11,-59.59"/>
</g>
<!-- Node30&#45;&gt;Node29 -->
<g id="edge45" class="edge">
<title>Node30&#45;&gt;Node29</title>
<path fill="none" stroke="#63b8ff" d="M1023.8,-57.91C1081.49,-46.77 1169.26,-29.82 1222.75,-19.5"/>
<polygon fill="#63b8ff" stroke="#63b8ff" points="1023.33,-54.43 1014.17,-59.76 1024.66,-61.31 1023.33,-54.43"/>
</g>
<!-- Node31 -->
<g id="node31" class="node">
<title>Node31</title>
<g id="a_node31"><a xlink:href="test__lexer_8cpp.html" target="_top" xlink:title=" ">
<polygon fill="white" stroke="#666666" points="1185.34,-19 1059.34,-19 1059.34,0 1185.34,0 1185.34,-19"/>
<text text-anchor="middle" x="1122.34" y="-7" font-family="Helvetica,sans-Serif" font-size="10.00">src/testing/test_lexer.cpp</text>
</a>
</g>
</g>
<!-- Node30&#45;&gt;Node31 -->
<g id="edge43" class="edge">
<title>Node30&#45;&gt;Node31</title>
<path fill="none" stroke="#63b8ff" d="M1000.72,-56.11C1030.34,-45 1072.33,-29.25 1098.42,-19.47"/>
<polygon fill="#63b8ff" stroke="#63b8ff" points="999.58,-52.8 991.45,-59.58 1002.04,-59.35 999.58,-52.8"/>
</g>
</g>
</svg>
        <g id="navigator" transform="translate(0 0)" fill="#404254">
                <rect fill="#f2f5e9" fill-opacity="0.5" stroke="#606060" stroke-width=".5" x="0" y="0" width="60" height="60"/>
                <use id="zoomplus" xlink:href="#zoomPlus" x="17" y="9" onmousedown="handleZoom(evt,'in')"/>
                <use id="zoomminus" xlink:href="#zoomMin" x="42" y="9" onmousedown="handleZoom(evt,'out')"/>
                <use id="reset" xlink:href="#resetDef" x="30" y="36" onmousedown="handleReset()"/>
                <g id="arrowUp" xlink:href="#dirArrow" transform="translate(30 24)" onmousedown="handlePan(0,-1)">
                  <use xlink:href="#rim" fill="#404040">
                        <set attributeName="fill" to="#808080" begin="arrowUp.mouseover" end="arrowUp.mouseout"/>
                  </use>
                  <path fill="none" stroke="white" stroke-width="1.5" d="M0,-3.0v7 M-2.5,-0.5L0,-3.0L2.5,-0.5"/>
                </g>
                <g id="arrowRight" xlink:href="#dirArrow" transform="rotate(90) translate(36 -43)" onmousedown="handlePan(1,0)">
                  <use xlink:href="#rim" fill="#404040">
                        <set attributeName="fill" to="#808080" begin="arrowRight.mouseover" end="arrowRight.mouseout"/>
                  </use>
                  <path fill="none" stroke="white" stroke-width="1.5" d="M0,-3.0v7 M-2.5,-0.5L0,-3.0L2.5,-0.5"/>
                </g>
                <g id="arrowDown" xlink:href="#dirArrow" transform="rotate(180) translate(-30 -48)" onmousedown="handlePan(0,1)">
                  <use xlink:href="#rim" fill="#404040">
                        <set attributeName="fill" to="#808080" begin="arrowDown.mouseover" end="arrowDown.mouseout"/>
                  </use>
                  <path fill="none" stroke="white" stroke-width="1.5" d="M0,-3.0v7 M-2.5,-0.5L0,-3.0L2.5,-0.5"/>
                </g>
                <g id="arrowLeft" xlink:href="#dirArrow" transform="rotate(270) translate(-36 17)" onmousedown="handlePan(-1,0)">
                  <use xlink:href="#rim" fill="#404040">
                        <set attributeName="fill" to="#808080" begin="arrowLeft.mouseover" end="arrowLeft.mouseout"/>
                  </use>
                  <path fill="none" stroke="white" stroke-width="1.5" d="M0,-3.0v7 M-2.5,-0.5L0,-3.0L2.5,-0.5"/>
                </g>
        </g>
        <svg viewBox="0 0 15 15" width="100%" height="30px" preserveAspectRatio="xMaxYMin meet">
         <g id="arrow_out" transform="scale(0.3 0.3)">
          <a xlink:href="error_8h__dep__incl_org.svg" target="_base">
           <rect id="button" ry="5" rx="5" y="6" x="6" height="38" width="38"
                fill="#f2f5e9" fill-opacity="0.5" stroke="#606060" stroke-width="1.0"/>
           <path id="arrow"
             d="M 11.500037,31.436501 C 11.940474,20.09759 22.043105,11.32322 32.158766,21.979434 L 37.068811,17.246167 C 37.068811,17.246167 37.088388,32 37.088388,32 L 22.160133,31.978069 C 22.160133,31.978069 26.997745,27.140456 26.997745,27.140456 C 18.528582,18.264221 13.291696,25.230495 11.500037,31.436501 z"
             style="fill:#404040;"/>
          </a>
         </g>
        </svg>
</svg>
