<?xml version="1.0" encoding="UTF-8" standalone="no"?>
<!DOCTYPE svg PUBLIC "-//W3C//DTD SVG 1.1//EN"
 "http://www.w3.org/Graphics/SVG/1.1/DTD/svg11.dtd">
<!-- Generated by graphviz version 7.1.0 (20230121.1956)
 -->
<!-- Title: src/core/error_type.h Pages: 1 -->
<svg width="1787pt" height="357pt"
 viewBox="0.00 0.00 1786.50 357.00" xmlns="http://www.w3.org/2000/svg" xmlns:xlink="http://www.w3.org/1999/xlink">
<g id="graph0" class="graph" transform="scale(1 1) rotate(0) translate(4 353)">
<title>src/core/error_type.h</title>
<!-- Node1 -->
<g id="node1" class="node">
<title>Node1</title>
<g id="a_node1"><a xlink:title=" ">
<polygon fill="#999999" stroke="#666666" points="1351.5,-349 1244.5,-349 1244.5,-330 1351.5,-330 1351.5,-349"/>
<text text-anchor="middle" x="1298" y="-337" font-family="Helvetica,sans-Serif" font-size="10.00">src/core/error_type.h</text>
</a>
</g>
</g>
<!-- Node2 -->
<g id="node2" class="node">
<title>Node2</title>
<g id="a_node2"><a xlink:href="error_8h.html" target="_top" xlink:title=" ">
<polygon fill="white" stroke="#666666" points="982,-294 900,-294 900,-275 982,-275 982,-294"/>
<text text-anchor="middle" x="941" y="-282" font-family="Helvetica,sans-Serif" font-size="10.00">src/core/error.h</text>
</a>
</g>
</g>
<!-- Node1&#45;&gt;Node2 -->
<g id="edge1" class="edge">
<title>Node1&#45;&gt;Node2</title>
<path fill="none" stroke="#63b8ff" d="M1232.85,-328.83C1159.92,-318 1043.94,-300.78 982.44,-291.65"/>
<polygon fill="#63b8ff" stroke="#63b8ff" points="1232.26,-332.28 1242.67,-330.29 1233.29,-325.36 1232.26,-332.28"/>
</g>
<!-- Node24 -->
<g id="node24" class="node">
<title>Node24</title>
<g id="a_node24"><a xlink:href="test__examples_8cpp.html" target="_top" xlink:title=" ">
<polygon fill="white" stroke="#666666" points="657,-19 509,-19 509,0 657,0 657,-19"/>
<text text-anchor="middle" x="583" y="-7" font-family="Helvetica,sans-Serif" font-size="10.00">src/testing/test_examples.cpp</text>
</a>
</g>
</g>
<!-- Node1&#45;&gt;Node24 -->
<g id="edge49" class="edge">
<title>Node1&#45;&gt;Node24</title>
<path fill="none" stroke="#63b8ff" d="M1232.75,-337.09C1039.17,-332.67 470.15,-317.97 286,-294 155.75,-277.05 0,-350.85 0,-219.5 0,-219.5 0,-219.5 0,-140.5 0,-97.35 9.9,-78.65 46,-55 83.78,-30.25 370.17,-17.52 508.57,-12.76"/>
<polygon fill="#63b8ff" stroke="#63b8ff" points="1232.55,-340.59 1242.62,-337.31 1232.71,-333.59 1232.55,-340.59"/>
</g>
<!-- Node26 -->
<g id="node26" class="node">
<title>Node26</title>
<g id="a_node26"><a xlink:href="test__datatypes_8cpp.html" target="_top" xlink:title=" ">
<polygon fill="white" stroke="#666666" points="824.5,-19 675.5,-19 675.5,0 824.5,0 824.5,-19"/>
<text text-anchor="middle" x="750" y="-7" font-family="Helvetica,sans-Serif" font-size="10.00">src/testing/test_datatypes.cpp</text>
</a>
</g>
</g>
<!-- Node1&#45;&gt;Node26 -->
<g id="edge48" class="edge">
<title>Node1&#45;&gt;Node26</title>
<path fill="none" stroke="#63b8ff" d="M1232.94,-335.96C992.71,-326.21 163.89,-289.21 57,-239 46.05,-233.85 38,-231.6 38,-219.5 38,-219.5 38,-219.5 38,-140.5 38,28.71 242.47,-84.98 409,-55 500.08,-38.6 605.87,-25.75 675.18,-18.16"/>
<polygon fill="#63b8ff" stroke="#63b8ff" points="1232.62,-339.45 1242.76,-336.35 1232.91,-332.45 1232.62,-339.45"/>
</g>
<!-- Node27 -->
<g id="node27" class="node">
<title>Node27</title>
<g id="a_node27"><a xlink:href="test__functions_8cpp.html" target="_top" xlink:title=" ">
<polygon fill="white" stroke="#666666" points="1139,-19 993,-19 993,0 1139,0 1139,-19"/>
<text text-anchor="middle" x="1066" y="-7" font-family="Helvetica,sans-Serif" font-size="10.00">src/testing/test_functions.cpp</text>
</a>
</g>
</g>
<!-- Node1&#45;&gt;Node27 -->
<g id="edge50" class="edge">
<title>Node1&#45;&gt;Node27</title>
<path fill="none" stroke="#63b8ff" d="M1357.65,-327.18C1444.37,-309 1595,-270.14 1595,-219.5 1595,-219.5 1595,-219.5 1595,-140.5 1595,-93.1 1270.51,-40.2 1129.81,-19.5"/>
<polygon fill="#63b8ff" stroke="#63b8ff" points="1356.95,-323.76 1347.86,-329.2 1358.36,-330.61 1356.95,-323.76"/>
</g>
<!-- Node28 -->
<g id="node28" class="node">
<title>Node28</title>
<g id="a_node28"><a xlink:href="test__operators_8cpp.html" target="_top" xlink:title=" ">
<polygon fill="white" stroke="#666666" points="1447,-19 1301,-19 1301,0 1447,0 1447,-19"/>
<text text-anchor="middle" x="1374" y="-7" font-family="Helvetica,sans-Serif" font-size="10.00">src/testing/test_operators.cpp</text>
</a>
</g>
</g>
<!-- Node1&#45;&gt;Node28 -->
<g id="edge51" class="edge">
<title>Node1&#45;&gt;Node28</title>
<path fill="none" stroke="#63b8ff" d="M1363.18,-337.1C1443.24,-334.07 1572.89,-324.46 1609,-294 1635.59,-271.57 1633,-254.29 1633,-219.5 1633,-219.5 1633,-219.5 1633,-140.5 1633,-101.03 1638.09,-81.68 1609,-55 1585.74,-33.67 1507.26,-21.98 1447.32,-16.01"/>
<polygon fill="#63b8ff" stroke="#63b8ff" points="1363.13,-333.6 1353.26,-337.45 1363.38,-340.6 1363.13,-333.6"/>
</g>
<!-- Node33 -->
<g id="node33" class="node">
<title>Node33</title>
<g id="a_node33"><a xlink:href="error__type_8cpp.html" target="_top" xlink:title=" ">
<polygon fill="white" stroke="#666666" points="1778.5,-294 1661.5,-294 1661.5,-275 1778.5,-275 1778.5,-294"/>
<text text-anchor="middle" x="1720" y="-282" font-family="Helvetica,sans-Serif" font-size="10.00">src/core/error_type.cpp</text>
</a>
</g>
</g>
<!-- Node1&#45;&gt;Node33 -->
<g id="edge47" class="edge">
<title>Node1&#45;&gt;Node33</title>
<path fill="none" stroke="#63b8ff" d="M1362.97,-330.34C1444.34,-320.12 1582.57,-302.76 1661.02,-292.91"/>
<polygon fill="#63b8ff" stroke="#63b8ff" points="1362.86,-326.83 1353.38,-331.55 1363.74,-333.77 1362.86,-326.83"/>
</g>
<!-- Node3 -->
<g id="node3" class="node">
<title>Node3</title>
<g id="a_node3"><a xlink:href="array_8cpp.html" target="_top" xlink:title=" ">
<polygon fill="white" stroke="#666666" points="460,-151 366,-151 366,-132 460,-132 460,-151"/>
<text text-anchor="middle" x="413" y="-139" font-family="Helvetica,sans-Serif" font-size="10.00">src/core/array.cpp</text>
</a>
</g>
</g>
<!-- Node2&#45;&gt;Node3 -->
<g id="edge2" class="edge">
<title>Node2&#45;&gt;Node3</title>
<path fill="none" stroke="#63b8ff" d="M888.27,-282.83C786.6,-280.79 567.64,-272.52 501,-239 490.52,-233.73 439.45,-173.89 420.29,-151.17"/>
<polygon fill="#63b8ff" stroke="#63b8ff" points="888.2,-286.33 898.26,-283.02 888.33,-279.33 888.2,-286.33"/>
</g>
<!-- Node4 -->
<g id="node4" class="node">
<title>Node4</title>
<g id="a_node4"><a xlink:href="config_8cpp.html" target="_top" xlink:title=" ">
<polygon fill="white" stroke="#666666" points="164,-233.5 66,-233.5 66,-203.5 164,-203.5 164,-233.5"/>
<text text-anchor="start" x="74" y="-221.5" font-family="Helvetica,sans-Serif" font-size="10.00">src/core/constants</text>
<text text-anchor="middle" x="115" y="-210.5" font-family="Helvetica,sans-Serif" font-size="10.00">/config.cpp</text>
</a>
</g>
</g>
<!-- Node2&#45;&gt;Node4 -->
<g id="edge3" class="edge">
<title>Node2&#45;&gt;Node4</title>
<path fill="none" stroke="#63b8ff" d="M888.4,-282.27C738.4,-278.49 310.54,-265.61 173,-239 166.53,-237.75 159.8,-235.96 153.3,-233.97"/>
<polygon fill="#63b8ff" stroke="#63b8ff" points="887.95,-285.76 898.03,-282.51 888.12,-278.77 887.95,-285.76"/>
</g>
<!-- Node5 -->
<g id="node5" class="node">
<title>Node5</title>
<g id="a_node5"><a xlink:href="datatypes_8cpp.html" target="_top" xlink:title=" ">
<polygon fill="white" stroke="#666666" points="298,-228 182,-228 182,-209 298,-209 298,-228"/>
<text text-anchor="middle" x="240" y="-216" font-family="Helvetica,sans-Serif" font-size="10.00">src/core/datatypes.cpp</text>
</a>
</g>
</g>
<!-- Node2&#45;&gt;Node5 -->
<g id="edge4" class="edge">
<title>Node2&#45;&gt;Node5</title>
<path fill="none" stroke="#63b8ff" d="M888.51,-283.58C779.35,-282.92 520.28,-277.07 307,-239 293.17,-236.53 278.11,-232.3 265.78,-228.4"/>
<polygon fill="#63b8ff" stroke="#63b8ff" points="888.3,-287.08 898.32,-283.62 888.34,-280.08 888.3,-287.08"/>
</g>
<!-- Node6 -->
<g id="node6" class="node">
<title>Node6</title>
<g id="a_node6"><a xlink:href="algorithms_8cpp.html" target="_top" xlink:title=" ">
<polygon fill="white" stroke="#666666" points="415.5,-233.5 316.5,-233.5 316.5,-203.5 415.5,-203.5 415.5,-233.5"/>
<text text-anchor="start" x="324.5" y="-221.5" font-family="Helvetica,sans-Serif" font-size="10.00">src/core/evaluation</text>
<text text-anchor="middle" x="366" y="-210.5" font-family="Helvetica,sans-Serif" font-size="10.00">/algorithms.cpp</text>
</a>
</g>
</g>
<!-- Node2&#45;&gt;Node6 -->
<g id="edge5" class="edge">
<title>Node2&#45;&gt;Node6</title>
<path fill="none" stroke="#63b8ff" d="M888.15,-282.52C794.85,-280 595.17,-270.99 430,-239 423.16,-237.67 416.01,-235.9 409.07,-233.96"/>
<polygon fill="#63b8ff" stroke="#63b8ff" points="887.93,-286.02 898.02,-282.78 888.11,-279.02 887.93,-286.02"/>
</g>
<!-- Node7 -->
<g id="node7" class="node">
<title>Node7</title>
<g id="a_node7"><a xlink:href="interpreter_8h.html" target="_top" xlink:title=" ">
<polygon fill="white" stroke="#666666" points="1050.5,-233.5 951.5,-233.5 951.5,-203.5 1050.5,-203.5 1050.5,-233.5"/>
<text text-anchor="start" x="959.5" y="-221.5" font-family="Helvetica,sans-Serif" font-size="10.00">src/core/evaluation</text>
<text text-anchor="middle" x="1001" y="-210.5" font-family="Helvetica,sans-Serif" font-size="10.00">/interpreter.h</text>
</a>
</g>
</g>
<!-- Node2&#45;&gt;Node7 -->
<g id="edge6" class="edge">
<title>Node2&#45;&gt;Node7</title>
<path fill="none" stroke="#63b8ff" d="M956.99,-266.45C966.56,-256.23 978.59,-243.4 987.66,-233.73"/>
<polygon fill="#63b8ff" stroke="#63b8ff" points="954.66,-263.81 950.38,-273.5 959.77,-268.6 954.66,-263.81"/>
</g>
<!-- Node11 -->
<g id="node11" class="node">
<title>Node11</title>
<g id="a_node11"><a xlink:href="dyadic__operators_8cpp.html" target="_top" xlink:title=" ">
<polygon fill="white" stroke="#666666" points="671.5,-233.5 510.5,-233.5 510.5,-203.5 671.5,-203.5 671.5,-233.5"/>
<text text-anchor="start" x="518.5" y="-221.5" font-family="Helvetica,sans-Serif" font-size="10.00">src/core/evaluation</text>
<text text-anchor="middle" x="591" y="-210.5" font-family="Helvetica,sans-Serif" font-size="10.00">/operations/dyadic_operators.cpp</text>
</a>
</g>
</g>
<!-- Node2&#45;&gt;Node11 -->
<g id="edge10" class="edge">
<title>Node2&#45;&gt;Node11</title>
<path fill="none" stroke="#63b8ff" d="M888.65,-275.31C835.86,-266.89 752.09,-253.04 680,-239 671.93,-237.43 663.46,-235.69 655.09,-233.92"/>
<polygon fill="#63b8ff" stroke="#63b8ff" points="887.83,-278.73 898.26,-276.84 888.93,-271.81 887.83,-278.73"/>
</g>
<!-- Node12 -->
<g id="node12" class="node">
<title>Node12</title>
<g id="a_node12"><a xlink:href="functions_8cpp.html" target="_top" xlink:title=" ">
<polygon fill="white" stroke="#666666" points="1233,-156.5 1107,-156.5 1107,-126.5 1233,-126.5 1233,-156.5"/>
<text text-anchor="start" x="1115" y="-144.5" font-family="Helvetica,sans-Serif" font-size="10.00">src/core/evaluation</text>
<text text-anchor="middle" x="1170" y="-133.5" font-family="Helvetica,sans-Serif" font-size="10.00">/operations/functions.cpp</text>
</a>
</g>
</g>
<!-- Node2&#45;&gt;Node12 -->
<g id="edge11" class="edge">
<title>Node2&#45;&gt;Node12</title>
<path fill="none" stroke="#63b8ff" d="M987.54,-271.28C1010.25,-264.03 1037.28,-253.4 1059,-239 1079.96,-225.1 1079.32,-214.84 1098,-198 1114.65,-183 1134.98,-167.56 1149.79,-156.79"/>
<polygon fill="#63b8ff" stroke="#63b8ff" points="986.77,-267.86 978.23,-274.13 988.82,-274.55 986.77,-267.86"/>
</g>
<!-- Node13 -->
<g id="node13" class="node">
<title>Node13</title>
<g id="a_node13"><a xlink:href="monadic__operators_8cpp.html" target="_top" xlink:title=" ">
<polygon fill="white" stroke="#666666" points="933,-239 829,-239 829,-198 933,-198 933,-239"/>
<text text-anchor="start" x="837" y="-227" font-family="Helvetica,sans-Serif" font-size="10.00">src/core/evaluation</text>
<text text-anchor="start" x="837" y="-216" font-family="Helvetica,sans-Serif" font-size="10.00">/operations/monadic</text>
<text text-anchor="middle" x="881" y="-205" font-family="Helvetica,sans-Serif" font-size="10.00">_operators.cpp</text>
</a>
</g>
</g>
<!-- Node2&#45;&gt;Node13 -->
<g id="edge12" class="edge">
<title>Node2&#45;&gt;Node13</title>
<path fill="none" stroke="#63b8ff" d="M924.97,-266.4C917.17,-258.08 907.75,-248.04 899.63,-239.38"/>
<polygon fill="#63b8ff" stroke="#63b8ff" points="922.23,-268.6 931.62,-273.5 927.34,-263.81 922.23,-268.6"/>
</g>
<!-- Node14 -->
<g id="node14" class="node">
<title>Node14</title>
<g id="a_node14"><a xlink:href="operation_8cpp.html" target="_top" xlink:title=" ">
<polygon fill="white" stroke="#666666" points="1233,-233.5 1107,-233.5 1107,-203.5 1233,-203.5 1233,-233.5"/>
<text text-anchor="start" x="1115" y="-221.5" font-family="Helvetica,sans-Serif" font-size="10.00">src/core/evaluation</text>
<text text-anchor="middle" x="1170" y="-210.5" font-family="Helvetica,sans-Serif" font-size="10.00">/operations/operation.cpp</text>
</a>
</g>
</g>
<!-- Node2&#45;&gt;Node14 -->
<g id="edge13" class="edge">
<title>Node2&#45;&gt;Node14</title>
<path fill="none" stroke="#63b8ff" d="M983.56,-271.6C1021.63,-260.96 1077.54,-245.34 1118.2,-233.98"/>
<polygon fill="#63b8ff" stroke="#63b8ff" points="982.99,-268.13 974.3,-274.19 984.87,-274.87 982.99,-268.13"/>
</g>
<!-- Node15 -->
<g id="node15" class="node">
<title>Node15</title>
<g id="a_node15"><a xlink:href="parser_8cpp.html" target="_top" xlink:title=" ">
<polygon fill="white" stroke="#666666" points="1350.5,-156.5 1251.5,-156.5 1251.5,-126.5 1350.5,-126.5 1350.5,-156.5"/>
<text text-anchor="start" x="1259.5" y="-144.5" font-family="Helvetica,sans-Serif" font-size="10.00">src/core/evaluation</text>
<text text-anchor="middle" x="1301" y="-133.5" font-family="Helvetica,sans-Serif" font-size="10.00">/parser/parser.cpp</text>
</a>
</g>
</g>
<!-- Node2&#45;&gt;Node15 -->
<g id="edge14" class="edge">
<title>Node2&#45;&gt;Node15</title>
<path fill="none" stroke="#63b8ff" d="M993.45,-281.05C1068.58,-276.66 1202.19,-265.33 1242,-239 1271.97,-219.17 1289.24,-178.38 1296.65,-156.73"/>
<polygon fill="#63b8ff" stroke="#63b8ff" points="993.66,-277.53 983.87,-281.59 994.05,-284.52 993.66,-277.53"/>
</g>
<!-- Node16 -->
<g id="node16" class="node">
<title>Node16</title>
<g id="a_node16"><a xlink:href="tokenizer_8cpp.html" target="_top" xlink:title=" ">
<polygon fill="white" stroke="#666666" points="1409,-233.5 1289,-233.5 1289,-203.5 1409,-203.5 1409,-233.5"/>
<text text-anchor="start" x="1297" y="-221.5" font-family="Helvetica,sans-Serif" font-size="10.00">src/core/evaluation</text>
<text text-anchor="middle" x="1349" y="-210.5" font-family="Helvetica,sans-Serif" font-size="10.00">/tokenizer/tokenizer.cpp</text>
</a>
</g>
</g>
<!-- Node2&#45;&gt;Node16 -->
<g id="edge15" class="edge">
<title>Node2&#45;&gt;Node16</title>
<path fill="none" stroke="#63b8ff" d="M993.76,-278.53C1059.87,-271.84 1176.47,-258.47 1275,-239 1282.3,-237.56 1289.95,-235.81 1297.44,-233.97"/>
<polygon fill="#63b8ff" stroke="#63b8ff" points="993.52,-275.04 983.91,-279.52 994.21,-282.01 993.52,-275.04"/>
</g>
<!-- Node17 -->
<g id="node17" class="node">
<title>Node17</title>
<g id="a_node17"><a xlink:href="file__reader_8cpp.html" target="_top" xlink:title=" ">
<polygon fill="white" stroke="#666666" points="1529,-233.5 1427,-233.5 1427,-203.5 1529,-203.5 1529,-233.5"/>
<text text-anchor="start" x="1435" y="-221.5" font-family="Helvetica,sans-Serif" font-size="10.00">src/core/helpers/file</text>
<text text-anchor="middle" x="1478" y="-210.5" font-family="Helvetica,sans-Serif" font-size="10.00">_reader.cpp</text>
</a>
</g>
</g>
<!-- Node2&#45;&gt;Node17 -->
<g id="edge16" class="edge">
<title>Node2&#45;&gt;Node17</title>
<path fill="none" stroke="#63b8ff" d="M993.62,-282.38C1082.12,-279.66 1265.99,-270.39 1418,-239 1424.44,-237.67 1431.15,-235.89 1437.66,-233.95"/>
<polygon fill="#63b8ff" stroke="#63b8ff" points="993.69,-278.88 983.8,-282.67 993.9,-285.88 993.69,-278.88"/>
</g>
<!-- Node18 -->
<g id="node18" class="node">
<title>Node18</title>
<g id="a_node18"><a xlink:href="symbol__table_8cpp.html" target="_top" xlink:title=" ">
<polygon fill="white" stroke="#666666" points="347.5,-151 216.5,-151 216.5,-132 347.5,-132 347.5,-151"/>
<text text-anchor="middle" x="282" y="-139" font-family="Helvetica,sans-Serif" font-size="10.00">src/core/symbol_table.cpp</text>
</a>
</g>
</g>
<!-- Node2&#45;&gt;Node18 -->
<g id="edge17" class="edge">
<title>Node2&#45;&gt;Node18</title>
<path fill="none" stroke="#63b8ff" d="M888.47,-283.67C779.22,-283.21 531.58,-277.79 458,-239 437.06,-227.96 443.19,-211.86 424,-198 392.14,-174.99 349.46,-160 319.23,-151.47"/>
<polygon fill="#63b8ff" stroke="#63b8ff" points="888.32,-287.17 898.33,-283.69 888.34,-280.17 888.32,-287.17"/>
</g>
<!-- Node19 -->
<g id="node19" class="node">
<title>Node19</title>
<g id="a_node19"><a xlink:href="symbol__table_8h.html" target="_top" xlink:title=" ">
<polygon fill="white" stroke="#666666" points="810.5,-228 689.5,-228 689.5,-209 810.5,-209 810.5,-228"/>
<text text-anchor="middle" x="750" y="-216" font-family="Helvetica,sans-Serif" font-size="10.00">src/core/symbol_table.h</text>
</a>
</g>
</g>
<!-- Node2&#45;&gt;Node19 -->
<g id="edge18" class="edge">
<title>Node2&#45;&gt;Node19</title>
<path fill="none" stroke="#63b8ff" d="M903.98,-271.1C866.61,-258.57 809.8,-239.54 776.64,-228.43"/>
<polygon fill="#63b8ff" stroke="#63b8ff" points="902.41,-274.26 913.01,-274.12 904.64,-267.62 902.41,-274.26"/>
</g>
<!-- Node31 -->
<g id="node31" class="node">
<title>Node31</title>
<g id="a_node31"><a xlink:href="matcher_8h.html" target="_top" xlink:title=" ">
<polygon fill="white" stroke="#666666" points="1120,-79.5 1012,-79.5 1012,-60.5 1120,-60.5 1120,-79.5"/>
<text text-anchor="middle" x="1066" y="-67.5" font-family="Helvetica,sans-Serif" font-size="10.00">src/testing/matcher.h</text>
</a>
</g>
</g>
<!-- Node2&#45;&gt;Node31 -->
<g id="edge40" class="edge">
<title>Node2&#45;&gt;Node31</title>
<path fill="none" stroke="#63b8ff" d="M993.38,-283.57C1132.17,-283.2 1501.33,-278.5 1538,-239 1661.67,-105.76 1268.81,-78.1 1120.39,-72.44"/>
<polygon fill="#63b8ff" stroke="#63b8ff" points="993.74,-280.07 983.74,-283.59 993.75,-287.07 993.74,-280.07"/>
</g>
<!-- Node8 -->
<g id="node8" class="node">
<title>Node8</title>
<g id="a_node8"><a xlink:href="interpreter_8cpp.html" target="_top" xlink:title=" ">
<polygon fill="white" stroke="#666666" points="1050.5,-156.5 951.5,-156.5 951.5,-126.5 1050.5,-126.5 1050.5,-156.5"/>
<text text-anchor="start" x="959.5" y="-144.5" font-family="Helvetica,sans-Serif" font-size="10.00">src/core/evaluation</text>
<text text-anchor="middle" x="1001" y="-133.5" font-family="Helvetica,sans-Serif" font-size="10.00">/interpreter.cpp</text>
</a>
</g>
</g>
<!-- Node7&#45;&gt;Node8 -->
<g id="edge7" class="edge">
<title>Node7&#45;&gt;Node8</title>
<path fill="none" stroke="#63b8ff" d="M1001,-191.73C1001,-180.08 1001,-166.76 1001,-156.92"/>
<polygon fill="#63b8ff" stroke="#63b8ff" points="997.5,-191.53 1001,-201.53 1004.5,-191.53 997.5,-191.53"/>
</g>
<!-- Node9 -->
<g id="node9" class="node">
<title>Node9</title>
<g id="a_node9"><a xlink:href="defined__function_8cpp.html" target="_top" xlink:title=" ">
<polygon fill="white" stroke="#666666" points="933.5,-162 834.5,-162 834.5,-121 933.5,-121 933.5,-162"/>
<text text-anchor="start" x="842.5" y="-150" font-family="Helvetica,sans-Serif" font-size="10.00">src/core/evaluation</text>
<text text-anchor="start" x="842.5" y="-139" font-family="Helvetica,sans-Serif" font-size="10.00">/operations/defined</text>
<text text-anchor="middle" x="884" y="-128" font-family="Helvetica,sans-Serif" font-size="10.00">_function.cpp</text>
</a>
</g>
</g>
<!-- Node7&#45;&gt;Node9 -->
<g id="edge8" class="edge">
<title>Node7&#45;&gt;Node9</title>
<path fill="none" stroke="#63b8ff" d="M969.01,-196.99C952.15,-186.19 931.58,-173 914.89,-162.3"/>
<polygon fill="#63b8ff" stroke="#63b8ff" points="966.86,-199.77 977.17,-202.22 970.64,-193.88 966.86,-199.77"/>
</g>
<!-- Node10 -->
<g id="node10" class="node">
<title>Node10</title>
<g id="a_node10"><a xlink:href="execution_8cpp.html" target="_top" xlink:title=" ">
<polygon fill="white" stroke="#666666" points="974,-79.5 858,-79.5 858,-60.5 974,-60.5 974,-79.5"/>
<text text-anchor="middle" x="916" y="-67.5" font-family="Helvetica,sans-Serif" font-size="10.00">src/core/execution.cpp</text>
</a>
</g>
</g>
<!-- Node7&#45;&gt;Node10 -->
<g id="edge9" class="edge">
<title>Node7&#45;&gt;Node10</title>
<path fill="none" stroke="#63b8ff" d="M1032.07,-196.11C1042.69,-186.97 1053.31,-175.32 1059,-162 1066.16,-145.24 1069.55,-135.86 1059,-121 1046.97,-104.06 995.32,-88.98 957.54,-79.92"/>
<polygon fill="#63b8ff" stroke="#63b8ff" points="1030.05,-193.24 1024.44,-202.23 1034.43,-198.7 1030.05,-193.24"/>
</g>
<!-- Node19&#45;&gt;Node3 -->
<g id="edge19" class="edge">
<title>Node19&#45;&gt;Node3</title>
<path fill="none" stroke="#63b8ff" d="M709.59,-205.48C699.94,-202.82 689.64,-200.16 680,-198 587.17,-177.21 561.13,-185.72 469,-162 457.93,-159.15 445.94,-155.11 435.89,-151.44"/>
<polygon fill="#63b8ff" stroke="#63b8ff" points="708.51,-208.81 719.08,-208.16 710.41,-202.08 708.51,-208.81"/>
</g>
<!-- Node19&#45;&gt;Node8 -->
<g id="edge21" class="edge">
<title>Node19&#45;&gt;Node8</title>
<path fill="none" stroke="#63b8ff" d="M793.33,-205.48C832.33,-194.54 891.17,-177.74 942,-162 947.15,-160.4 952.54,-158.69 957.88,-156.96"/>
<polygon fill="#63b8ff" stroke="#63b8ff" points="792.53,-202.07 783.84,-208.13 794.41,-208.81 792.53,-202.07"/>
</g>
<!-- Node19&#45;&gt;Node9 -->
<g id="edge22" class="edge">
<title>Node19&#45;&gt;Node9</title>
<path fill="none" stroke="#63b8ff" d="M775.85,-203.03C796.51,-191.47 825.69,-175.14 848.54,-162.35"/>
<polygon fill="#63b8ff" stroke="#63b8ff" points="774.24,-199.92 767.22,-207.86 777.65,-206.03 774.24,-199.92"/>
</g>
<!-- Node19&#45;&gt;Node10 -->
<g id="edge25" class="edge">
<title>Node19&#45;&gt;Node10</title>
<path fill="none" stroke="#63b8ff" d="M761.14,-198.92C774.37,-178.02 798.06,-143.98 825,-121 846.12,-102.98 874.76,-88.55 894.23,-79.91"/>
<polygon fill="#63b8ff" stroke="#63b8ff" points="758.28,-196.89 756.01,-207.24 764.24,-200.57 758.28,-196.89"/>
</g>
<!-- Node19&#45;&gt;Node12 -->
<g id="edge23" class="edge">
<title>Node19&#45;&gt;Node12</title>
<path fill="none" stroke="#63b8ff" d="M790.12,-205.42C799.84,-202.74 810.25,-200.08 820,-198 925.05,-175.54 952.98,-179.29 1059,-162 1074.45,-159.48 1091.08,-156.63 1106.65,-153.9"/>
<polygon fill="#63b8ff" stroke="#63b8ff" points="789.22,-202.04 780.55,-208.13 791.12,-208.77 789.22,-202.04"/>
</g>
<!-- Node19&#45;&gt;Node15 -->
<g id="edge24" class="edge">
<title>Node19&#45;&gt;Node15</title>
<path fill="none" stroke="#63b8ff" d="M788.64,-205.35C798.76,-202.55 809.72,-199.85 820,-198 1005.25,-164.6 1057.6,-199.79 1242,-162 1248.45,-160.68 1255.17,-158.88 1261.67,-156.91"/>
<polygon fill="#63b8ff" stroke="#63b8ff" points="787.75,-201.96 779.11,-208.09 789.69,-208.69 787.75,-201.96"/>
</g>
<!-- Node19&#45;&gt;Node18 -->
<g id="edge36" class="edge">
<title>Node19&#45;&gt;Node18</title>
<path fill="none" stroke="#63b8ff" d="M711.06,-205.46C701.01,-202.68 690.17,-199.97 680,-198 538.19,-170.53 499.04,-188.24 357,-162 342.18,-159.26 325.97,-155.19 312.43,-151.47"/>
<polygon fill="#63b8ff" stroke="#63b8ff" points="709.94,-208.78 720.52,-208.17 711.87,-202.05 709.94,-208.78"/>
</g>
<!-- Node20 -->
<g id="node20" class="node">
<title>Node20</title>
<g id="a_node20"><a xlink:href="ast_8cpp.html" target="_top" xlink:title=" ">
<polygon fill="white" stroke="#666666" points="577.5,-156.5 478.5,-156.5 478.5,-126.5 577.5,-126.5 577.5,-156.5"/>
<text text-anchor="start" x="486.5" y="-144.5" font-family="Helvetica,sans-Serif" font-size="10.00">src/core/evaluation</text>
<text text-anchor="middle" x="528" y="-133.5" font-family="Helvetica,sans-Serif" font-size="10.00">/ast.cpp</text>
</a>
</g>
</g>
<!-- Node19&#45;&gt;Node20 -->
<g id="edge20" class="edge">
<title>Node19&#45;&gt;Node20</title>
<path fill="none" stroke="#63b8ff" d="M712.99,-205C673.76,-191.74 611.89,-170.84 570.64,-156.9"/>
<polygon fill="#63b8ff" stroke="#63b8ff" points="711.63,-208.23 722.23,-208.12 713.87,-201.6 711.63,-208.23"/>
</g>
<!-- Node21 -->
<g id="node21" class="node">
<title>Node21</title>
<g id="a_node21"><a xlink:href="execution_8h.html" target="_top" xlink:title=" ">
<polygon fill="white" stroke="#666666" points="739.5,-151 634.5,-151 634.5,-132 739.5,-132 739.5,-151"/>
<text text-anchor="middle" x="687" y="-139" font-family="Helvetica,sans-Serif" font-size="10.00">src/core/execution.h</text>
</a>
</g>
</g>
<!-- Node19&#45;&gt;Node21 -->
<g id="edge26" class="edge">
<title>Node19&#45;&gt;Node21</title>
<path fill="none" stroke="#63b8ff" d="M735.36,-200.07C722.56,-184.83 704.5,-163.33 694.46,-151.39"/>
<polygon fill="#63b8ff" stroke="#63b8ff" points="732.44,-202.04 741.55,-207.44 737.8,-197.53 732.44,-202.04"/>
</g>
<!-- Node25 -->
<g id="node25" class="node">
<title>Node25</title>
<g id="a_node25"><a xlink:href="fixture_8h.html" target="_top" xlink:title=" ">
<polygon fill="white" stroke="#666666" points="840,-85 742,-85 742,-55 840,-55 840,-85"/>
<text text-anchor="start" x="750" y="-73" font-family="Helvetica,sans-Serif" font-size="10.00">src/testing/fixtures</text>
<text text-anchor="middle" x="791" y="-62" font-family="Helvetica,sans-Serif" font-size="10.00">/fixture.h</text>
</a>
</g>
</g>
<!-- Node19&#45;&gt;Node25 -->
<g id="edge37" class="edge">
<title>Node19&#45;&gt;Node25</title>
<path fill="none" stroke="#63b8ff" d="M755.54,-197.7C763.93,-167.72 779.65,-111.55 787.01,-85.26"/>
<polygon fill="#63b8ff" stroke="#63b8ff" points="752.17,-196.74 752.85,-207.32 758.92,-198.63 752.17,-196.74"/>
</g>
<!-- Node29 -->
<g id="node29" class="node">
<title>Node29</title>
<g id="a_node29"><a xlink:href="parser__fixture_8h.html" target="_top" xlink:title=" ">
<polygon fill="white" stroke="#666666" points="516,-85 418,-85 418,-55 516,-55 516,-85"/>
<text text-anchor="start" x="426" y="-73" font-family="Helvetica,sans-Serif" font-size="10.00">src/testing/fixtures</text>
<text text-anchor="middle" x="467" y="-62" font-family="Helvetica,sans-Serif" font-size="10.00">/parser_fixture.h</text>
</a>
</g>
</g>
<!-- Node19&#45;&gt;Node29 -->
<g id="edge38" class="edge">
<title>Node19&#45;&gt;Node29</title>
<path fill="none" stroke="#63b8ff" d="M711.28,-204.81C685.48,-195.31 651.57,-180.74 625,-162 604.45,-147.51 606.7,-135.29 586,-121 563.87,-105.73 536.34,-93.78 513.33,-85.41"/>
<polygon fill="#63b8ff" stroke="#63b8ff" points="709.77,-207.99 720.37,-208.06 712.13,-201.4 709.77,-207.99"/>
</g>
<!-- Node21&#45;&gt;Node10 -->
<g id="edge27" class="edge">
<title>Node21&#45;&gt;Node10</title>
<path fill="none" stroke="#63b8ff" d="M727.44,-128.23C773.06,-114.38 846.17,-92.19 886.64,-79.91"/>
<polygon fill="#63b8ff" stroke="#63b8ff" points="726.47,-124.86 717.92,-131.12 728.5,-131.56 726.47,-124.86"/>
</g>
<!-- Node22 -->
<g id="node22" class="node">
<title>Node22</title>
<g id="a_node22"><a xlink:href="main_8cpp.html" target="_top" xlink:title=" ">
<polygon fill="white" stroke="#666666" points="723.5,-79.5 650.5,-79.5 650.5,-60.5 723.5,-60.5 723.5,-79.5"/>
<text text-anchor="middle" x="687" y="-67.5" font-family="Helvetica,sans-Serif" font-size="10.00">src/main.cpp</text>
</a>
</g>
</g>
<!-- Node21&#45;&gt;Node22 -->
<g id="edge28" class="edge">
<title>Node21&#45;&gt;Node22</title>
<path fill="none" stroke="#63b8ff" d="M687,-120.3C687,-106.94 687,-90.09 687,-79.95"/>
<polygon fill="#63b8ff" stroke="#63b8ff" points="683.5,-120.18 687,-130.18 690.5,-120.18 683.5,-120.18"/>
</g>
<!-- Node23 -->
<g id="node23" class="node">
<title>Node23</title>
<g id="a_node23"><a xlink:href="file__fixture_8h.html" target="_top" xlink:title=" ">
<polygon fill="white" stroke="#666666" points="632,-85 534,-85 534,-55 632,-55 632,-85"/>
<text text-anchor="start" x="542" y="-73" font-family="Helvetica,sans-Serif" font-size="10.00">src/testing/fixtures</text>
<text text-anchor="middle" x="583" y="-62" font-family="Helvetica,sans-Serif" font-size="10.00">/file_fixture.h</text>
</a>
</g>
</g>
<!-- Node21&#45;&gt;Node23 -->
<g id="edge29" class="edge">
<title>Node21&#45;&gt;Node23</title>
<path fill="none" stroke="#63b8ff" d="M664.47,-125.45C646.64,-113.53 621.89,-96.99 604.36,-85.27"/>
<polygon fill="#63b8ff" stroke="#63b8ff" points="662.31,-128.21 672.57,-130.86 666.2,-122.39 662.31,-128.21"/>
</g>
<!-- Node21&#45;&gt;Node25 -->
<g id="edge31" class="edge">
<title>Node21&#45;&gt;Node25</title>
<path fill="none" stroke="#63b8ff" d="M709.53,-125.45C727.36,-113.53 752.11,-96.99 769.64,-85.27"/>
<polygon fill="#63b8ff" stroke="#63b8ff" points="707.8,-122.39 701.43,-130.86 711.69,-128.21 707.8,-122.39"/>
</g>
<!-- Node23&#45;&gt;Node24 -->
<g id="edge30" class="edge">
<title>Node23&#45;&gt;Node24</title>
<path fill="none" stroke="#63b8ff" d="M583,-43.3C583,-34.65 583,-25.58 583,-19.18"/>
<polygon fill="#63b8ff" stroke="#63b8ff" points="579.5,-43.03 583,-53.03 586.5,-43.03 579.5,-43.03"/>
</g>
<!-- Node25&#45;&gt;Node24 -->
<g id="edge33" class="edge">
<title>Node25&#45;&gt;Node24</title>
<path fill="none" stroke="#63b8ff" d="M730.79,-52.07C692.91,-41.41 645.55,-28.09 614.8,-19.44"/>
<polygon fill="#63b8ff" stroke="#63b8ff" points="729.68,-55.39 740.25,-54.73 731.57,-48.65 729.68,-55.39"/>
</g>
<!-- Node25&#45;&gt;Node26 -->
<g id="edge32" class="edge">
<title>Node25&#45;&gt;Node26</title>
<path fill="none" stroke="#63b8ff" d="M774.42,-45.35C767.95,-36.11 760.92,-26.09 756.08,-19.18"/>
<polygon fill="#63b8ff" stroke="#63b8ff" points="771.39,-47.12 780,-53.3 777.12,-43.1 771.39,-47.12"/>
</g>
<!-- Node25&#45;&gt;Node27 -->
<g id="edge34" class="edge">
<title>Node25&#45;&gt;Node27</title>
<path fill="none" stroke="#63b8ff" d="M851.43,-54.5C915.32,-40.36 978.6,-27.62 1020.18,-19.42"/>
<polygon fill="#63b8ff" stroke="#63b8ff" points="850.81,-51.05 841.81,-56.64 852.33,-57.89 850.81,-51.05"/>
</g>
<!-- Node25&#45;&gt;Node28 -->
<g id="edge35" class="edge">
<title>Node25&#45;&gt;Node28</title>
<path fill="none" stroke="#63b8ff" d="M851.44,-54.78C1046,-24.22 1098.95,-36.85 1292,-19 1294.85,-18.74 1297.76,-18.46 1300.69,-18.18"/>
<polygon fill="#63b8ff" stroke="#63b8ff" points="851.08,-51.29 841.75,-56.32 852.18,-58.21 851.08,-51.29"/>
</g>
<!-- Node30 -->
<g id="node30" class="node">
<title>Node30</title>
<g id="a_node30"><a xlink:href="test__parser_8cpp.html" target="_top" xlink:title=" ">
<polygon fill="white" stroke="#666666" points="975,-19 843,-19 843,0 975,0 975,-19"/>
<text text-anchor="middle" x="909" y="-7" font-family="Helvetica,sans-Serif" font-size="10.00">src/testing/test_parser.cpp</text>
</a>
</g>
</g>
<!-- Node29&#45;&gt;Node30 -->
<g id="edge39" class="edge">
<title>Node29&#45;&gt;Node30</title>
<path fill="none" stroke="#63b8ff" d="M527.4,-54.98C576.5,-48.16 747.08,-28.77 842.87,-17.95"/>
<polygon fill="#63b8ff" stroke="#63b8ff" points="527.13,-51.48 517.77,-56.45 528.18,-58.4 527.13,-51.48"/>
</g>
<!-- Node31&#45;&gt;Node24 -->
<g id="edge42" class="edge">
<title>Node31&#45;&gt;Node24</title>
<path fill="none" stroke="#63b8ff" d="M1004.38,-58.21C997.18,-57.07 989.93,-55.97 983,-55 921.93,-46.46 754.93,-28.54 657.1,-18.24"/>
<polygon fill="#63b8ff" stroke="#63b8ff" points="1003.67,-61.64 1014.1,-59.79 1004.79,-54.73 1003.67,-61.64"/>
</g>
<!-- Node31&#45;&gt;Node26 -->
<g id="edge41" class="edge">
<title>Node31&#45;&gt;Node26</title>
<path fill="none" stroke="#63b8ff" d="M1006.44,-57.97C946.29,-46.84 854.49,-29.84 798.59,-19.5"/>
<polygon fill="#63b8ff" stroke="#63b8ff" points="1005.7,-61.4 1016.17,-59.78 1006.98,-54.51 1005.7,-61.4"/>
</g>
<!-- Node31&#45;&gt;Node27 -->
<g id="edge43" class="edge">
<title>Node31&#45;&gt;Node27</title>
<path fill="none" stroke="#63b8ff" d="M1066,-49.16C1066,-38.95 1066,-27.04 1066,-19.17"/>
<polygon fill="#63b8ff" stroke="#63b8ff" points="1062.5,-48.85 1066,-58.85 1069.5,-48.85 1062.5,-48.85"/>
</g>
<!-- Node31&#45;&gt;Node28 -->
<g id="edge45" class="edge">
<title>Node31&#45;&gt;Node28</title>
<path fill="none" stroke="#63b8ff" d="M1124.41,-57.91C1183.05,-46.77 1272.26,-29.82 1326.64,-19.5"/>
<polygon fill="#63b8ff" stroke="#63b8ff" points="1123.77,-54.46 1114.6,-59.77 1125.08,-61.34 1123.77,-54.46"/>
</g>
<!-- Node31&#45;&gt;Node30 -->
<g id="edge46" class="edge">
<title>Node31&#45;&gt;Node30</title>
<path fill="none" stroke="#63b8ff" d="M1031.4,-56.11C1001.59,-45 959.33,-29.25 933.07,-19.47"/>
<polygon fill="#63b8ff" stroke="#63b8ff" points="1030.14,-59.37 1040.74,-59.59 1032.59,-52.82 1030.14,-59.37"/>
</g>
<!-- Node32 -->
<g id="node32" class="node">
<title>Node32</title>
<g id="a_node32"><a xlink:href="test__lexer_8cpp.html" target="_top" xlink:title=" ">
<polygon fill="white" stroke="#666666" points="1283,-19 1157,-19 1157,0 1283,0 1283,-19"/>
<text text-anchor="middle" x="1220" y="-7" font-family="Helvetica,sans-Serif" font-size="10.00">src/testing/test_lexer.cpp</text>
</a>
</g>
</g>
<!-- Node31&#45;&gt;Node32 -->
<g id="edge44" class="edge">
<title>Node31&#45;&gt;Node32</title>
<path fill="none" stroke="#63b8ff" d="M1099.94,-56.11C1129.18,-45 1170.63,-29.25 1196.39,-19.47"/>
<polygon fill="#63b8ff" stroke="#63b8ff" points="1098.91,-52.75 1090.8,-59.58 1101.4,-59.3 1098.91,-52.75"/>
</g>
</g>
</svg>
