<?xml version="1.0" encoding="UTF-8" standalone="no"?>
<!DOCTYPE svg PUBLIC "-//W3C//DTD SVG 1.1//EN"
 "http://www.w3.org/Graphics/SVG/1.1/DTD/svg11.dtd">
<!-- Generated by graphviz version 7.1.0 (20230121.1956)
 -->
<!-- Title: src/core/execution.h Pages: 1 -->
<svg width="827pt" height="148pt"
 viewBox="0.00 0.00 827.00 148.00" xmlns="http://www.w3.org/2000/svg" xmlns:xlink="http://www.w3.org/1999/xlink">
<g id="graph0" class="graph" transform="scale(1 1) rotate(0) translate(4 144)">
<title>src/core/execution.h</title>
<!-- Node1 -->
<g id="node1" class="node">
<title>Node1</title>
<g id="a_node1"><a xlink:title=" ">
<polygon fill="#999999" stroke="#666666" points="275.5,-140 170.5,-140 170.5,-121 275.5,-121 275.5,-140"/>
<text text-anchor="middle" x="223" y="-128" font-family="Helvetica,sans-Serif" font-size="10.00">src/core/execution.h</text>
</a>
</g>
</g>
<!-- Node2 -->
<g id="node2" class="node">
<title>Node2</title>
<g id="a_node2"><a xlink:href="execution_8cpp.html" target="_top" xlink:title=" ">
<polygon fill="white" stroke="#666666" points="116,-79.5 0,-79.5 0,-60.5 116,-60.5 116,-79.5"/>
<text text-anchor="middle" x="58" y="-67.5" font-family="Helvetica,sans-Serif" font-size="10.00">src/core/execution.cpp</text>
</a>
</g>
</g>
<!-- Node1&#45;&gt;Node2 -->
<g id="edge1" class="edge">
<title>Node1&#45;&gt;Node2</title>
<path fill="none" stroke="#63b8ff" d="M187.46,-116.9C156.09,-105.78 111.13,-89.84 83.3,-79.97"/>
<polygon fill="#63b8ff" stroke="#63b8ff" points="185.92,-120.07 196.51,-120.11 188.26,-113.47 185.92,-120.07"/>
</g>
<!-- Node3 -->
<g id="node3" class="node">
<title>Node3</title>
<g id="a_node3"><a xlink:href="main_8cpp.html" target="_top" xlink:title=" ">
<polygon fill="white" stroke="#666666" points="207.5,-79.5 134.5,-79.5 134.5,-60.5 207.5,-60.5 207.5,-79.5"/>
<text text-anchor="middle" x="171" y="-67.5" font-family="Helvetica,sans-Serif" font-size="10.00">src/main.cpp</text>
</a>
</g>
</g>
<!-- Node1&#45;&gt;Node3 -->
<g id="edge2" class="edge">
<title>Node1&#45;&gt;Node3</title>
<path fill="none" stroke="#63b8ff" d="M207.71,-112.3C198.18,-101.58 186.32,-88.23 178.7,-79.67"/>
<polygon fill="#63b8ff" stroke="#63b8ff" points="205.06,-114.59 214.32,-119.74 210.29,-109.94 205.06,-114.59"/>
</g>
<!-- Node4 -->
<g id="node4" class="node">
<title>Node4</title>
<g id="a_node4"><a xlink:href="file__fixture_8h.html" target="_top" xlink:title=" ">
<polygon fill="white" stroke="#666666" points="324,-85 226,-85 226,-55 324,-55 324,-85"/>
<text text-anchor="start" x="234" y="-73" font-family="Helvetica,sans-Serif" font-size="10.00">src/testing/fixtures</text>
<text text-anchor="middle" x="275" y="-62" font-family="Helvetica,sans-Serif" font-size="10.00">/file_fixture.h</text>
</a>
</g>
</g>
<!-- Node1&#45;&gt;Node4 -->
<g id="edge3" class="edge">
<title>Node1&#45;&gt;Node4</title>
<path fill="none" stroke="#63b8ff" d="M238.26,-112.33C245.96,-103.67 255.18,-93.3 262.45,-85.11"/>
<polygon fill="#63b8ff" stroke="#63b8ff" points="235.71,-109.94 231.68,-119.74 240.94,-114.59 235.71,-109.94"/>
</g>
<!-- Node6 -->
<g id="node6" class="node">
<title>Node6</title>
<g id="a_node6"><a xlink:href="fixture_8h.html" target="_top" xlink:title=" ">
<polygon fill="white" stroke="#666666" points="465,-85 367,-85 367,-55 465,-55 465,-85"/>
<text text-anchor="start" x="375" y="-73" font-family="Helvetica,sans-Serif" font-size="10.00">src/testing/fixtures</text>
<text text-anchor="middle" x="416" y="-62" font-family="Helvetica,sans-Serif" font-size="10.00">/fixture.h</text>
</a>
</g>
</g>
<!-- Node1&#45;&gt;Node6 -->
<g id="edge5" class="edge">
<title>Node1&#45;&gt;Node6</title>
<path fill="none" stroke="#63b8ff" d="M263.03,-117.37C293.65,-108.08 335.99,-95.25 368.36,-85.44"/>
<polygon fill="#63b8ff" stroke="#63b8ff" points="262.32,-113.93 253.76,-120.18 264.35,-120.62 262.32,-113.93"/>
</g>
<!-- Node5 -->
<g id="node5" class="node">
<title>Node5</title>
<g id="a_node5"><a xlink:href="test__examples_8cpp.html" target="_top" xlink:title=" ">
<polygon fill="white" stroke="#666666" points="323,-19 175,-19 175,0 323,0 323,-19"/>
<text text-anchor="middle" x="249" y="-7" font-family="Helvetica,sans-Serif" font-size="10.00">src/testing/test_examples.cpp</text>
</a>
</g>
</g>
<!-- Node4&#45;&gt;Node5 -->
<g id="edge4" class="edge">
<title>Node4&#45;&gt;Node5</title>
<path fill="none" stroke="#63b8ff" d="M263.97,-44.18C260.01,-35.27 255.8,-25.8 252.86,-19.18"/>
<polygon fill="#63b8ff" stroke="#63b8ff" points="260.7,-45.44 267.96,-53.16 267.1,-42.6 260.7,-45.44"/>
</g>
<!-- Node6&#45;&gt;Node5 -->
<g id="edge7" class="edge">
<title>Node6&#45;&gt;Node5</title>
<path fill="none" stroke="#63b8ff" d="M364.03,-50.8C334.15,-40.33 297.96,-27.65 274.25,-19.35"/>
<polygon fill="#63b8ff" stroke="#63b8ff" points="362.7,-54.04 373.29,-54.04 365.01,-47.43 362.7,-54.04"/>
</g>
<!-- Node7 -->
<g id="node7" class="node">
<title>Node7</title>
<g id="a_node7"><a xlink:href="test__datatypes_8cpp.html" target="_top" xlink:title=" ">
<polygon fill="white" stroke="#666666" points="490.5,-19 341.5,-19 341.5,0 490.5,0 490.5,-19"/>
<text text-anchor="middle" x="416" y="-7" font-family="Helvetica,sans-Serif" font-size="10.00">src/testing/test_datatypes.cpp</text>
</a>
</g>
</g>
<!-- Node6&#45;&gt;Node7 -->
<g id="edge6" class="edge">
<title>Node6&#45;&gt;Node7</title>
<path fill="none" stroke="#63b8ff" d="M416,-43.3C416,-34.65 416,-25.58 416,-19.18"/>
<polygon fill="#63b8ff" stroke="#63b8ff" points="412.5,-43.03 416,-53.03 419.5,-43.03 412.5,-43.03"/>
</g>
<!-- Node8 -->
<g id="node8" class="node">
<title>Node8</title>
<g id="a_node8"><a xlink:href="test__functions_8cpp.html" target="_top" xlink:title=" ">
<polygon fill="white" stroke="#666666" points="655,-19 509,-19 509,0 655,0 655,-19"/>
<text text-anchor="middle" x="582" y="-7" font-family="Helvetica,sans-Serif" font-size="10.00">src/testing/test_functions.cpp</text>
</a>
</g>
</g>
<!-- Node6&#45;&gt;Node8 -->
<g id="edge8" class="edge">
<title>Node6&#45;&gt;Node8</title>
<path fill="none" stroke="#63b8ff" d="M467.66,-50.8C497.36,-40.33 533.33,-27.65 556.9,-19.35"/>
<polygon fill="#63b8ff" stroke="#63b8ff" points="466.73,-47.41 458.46,-54.04 469.06,-54.01 466.73,-47.41"/>
</g>
<!-- Node9 -->
<g id="node9" class="node">
<title>Node9</title>
<g id="a_node9"><a xlink:href="test__operators_8cpp.html" target="_top" xlink:title=" ">
<polygon fill="white" stroke="#666666" points="819,-19 673,-19 673,0 819,0 819,-19"/>
<text text-anchor="middle" x="746" y="-7" font-family="Helvetica,sans-Serif" font-size="10.00">src/testing/test_operators.cpp</text>
</a>
</g>
</g>
<!-- Node6&#45;&gt;Node9 -->
<g id="edge9" class="edge">
<title>Node6&#45;&gt;Node9</title>
<path fill="none" stroke="#63b8ff" d="M476.72,-58.24C539.58,-47.09 636.63,-29.89 695.44,-19.46"/>
<polygon fill="#63b8ff" stroke="#63b8ff" points="476.13,-54.79 466.89,-59.98 477.35,-61.68 476.13,-54.79"/>
</g>
</g>
</svg>
