<?xml version="1.0" encoding="UTF-8" standalone="no"?>
<!DOCTYPE svg PUBLIC "-//W3C//DTD SVG 1.1//EN"
 "http://www.w3.org/Graphics/SVG/1.1/DTD/svg11.dtd">
<!-- Generated by graphviz version 7.1.0 (20230121.1956)
 -->
<!-- Title: find_line Pages: 1 -->
<svg width="295pt" height="64pt"
 viewBox="0.00 0.00 295.00 64.00" xmlns="http://www.w3.org/2000/svg" xmlns:xlink="http://www.w3.org/1999/xlink">
<g id="graph0" class="graph" transform="scale(1 1) rotate(0) translate(4 60)">
<title>find_line</title>
<!-- Node1 -->
<g id="node1" class="node">
<title>Node1</title>
<g id="a_node1"><a xlink:title=" ">
<polygon fill="#999999" stroke="#666666" points="287,-37 234,-37 234,-18 287,-18 287,-37"/>
<text text-anchor="middle" x="260.5" y="-25" font-family="Helvetica,sans-Serif" font-size="10.00">find_line</text>
</a>
</g>
</g>
<!-- Node2 -->
<g id="node2" class="node">
<title>Node2</title>
<g id="a_node2"><a xlink:href="namespacekepler.html#ae45e010aed51dc28b896694f75dc2ca7" target="_top" xlink:title=" ">
<polygon fill="white" stroke="#666666" points="198,-37 118,-37 118,-18 198,-18 198,-37"/>
<text text-anchor="middle" x="158" y="-25" font-family="Helvetica,sans-Serif" font-size="10.00">kepler::run_file</text>
</a>
</g>
</g>
<!-- Node1&#45;&gt;Node2 -->
<g id="edge1" class="edge">
<title>Node1&#45;&gt;Node2</title>
<path fill="none" stroke="#63b8ff" d="M222.28,-27.5C214.51,-27.5 206.3,-27.5 198.46,-27.5"/>
<polygon fill="#63b8ff" stroke="#63b8ff" points="222.11,-31 232.11,-27.5 222.11,-24 222.11,-31"/>
</g>
<!-- Node3 -->
<g id="node3" class="node">
<title>Node3</title>
<g id="a_node3"><a xlink:href="main_8cpp.html#a0ddf1224851353fc92bfbff6f499fa97" target="_top" xlink:title=" ">
<polygon fill="white" stroke="#666666" points="60,-56 22,-56 22,-37 60,-37 60,-56"/>
<text text-anchor="middle" x="41" y="-44" font-family="Helvetica,sans-Serif" font-size="10.00">main</text>
</a>
</g>
</g>
<!-- Node2&#45;&gt;Node3 -->
<g id="edge2" class="edge">
<title>Node2&#45;&gt;Node3</title>
<path fill="none" stroke="#63b8ff" d="M106.58,-35.83C90.17,-38.54 72.99,-41.38 60.47,-43.45"/>
<polygon fill="#63b8ff" stroke="#63b8ff" points="106.96,-39.32 116.25,-34.23 105.82,-32.41 106.96,-39.32"/>
</g>
<!-- Node4 -->
<g id="node4" class="node">
<title>Node4</title>
<g id="a_node4"><a xlink:href="class_file_fixture.html#aed1771b5e05cdce7af6d69a50a7e4f6c" target="_top" xlink:title=" ">
<polygon fill="white" stroke="#666666" points="82,-19 0,-19 0,0 82,0 82,-19"/>
<text text-anchor="middle" x="41" y="-7" font-family="Helvetica,sans-Serif" font-size="10.00">FileFixture::run</text>
</a>
</g>
</g>
<!-- Node2&#45;&gt;Node4 -->
<g id="edge3" class="edge">
<title>Node2&#45;&gt;Node4</title>
<path fill="none" stroke="#63b8ff" d="M106.48,-19.59C98.37,-18.32 90.08,-17.03 82.25,-15.8"/>
<polygon fill="#63b8ff" stroke="#63b8ff" points="105.83,-23.03 116.25,-21.12 106.91,-16.12 105.83,-23.03"/>
</g>
</g>
</svg>
