<?xml version="1.0" encoding="UTF-8" standalone="no"?>
<!DOCTYPE svg PUBLIC "-//W3C//DTD SVG 1.1//EN"
 "http://www.w3.org/Graphics/SVG/1.1/DTD/svg11.dtd">
<!-- Generated by graphviz version 7.1.0 (20230121.1956)
 -->
<!-- Title: /Users/nikolajbankejensen/Desktop/Kepler/src/core/evaluation/execution.h Pages: 1 -->
<svg width="1029pt" height="500pt"
 viewBox="0.00 0.00 1028.50 500.00" xmlns="http://www.w3.org/2000/svg" xmlns:xlink="http://www.w3.org/1999/xlink">
<g id="graph0" class="graph" transform="scale(1 1) rotate(0) translate(4 496)">
<title>/Users/nikolajbankejensen/Desktop/Kepler/src/core/evaluation/execution.h</title>
<!-- Node1 -->
<g id="node1" class="node">
<title>Node1</title>
<g id="a_node1"><a xlink:title=" ">
<polygon fill="#999999" stroke="#666666" points="179.5,-492 48.5,-492 48.5,-451 179.5,-451 179.5,-492"/>
<text text-anchor="start" x="56.5" y="-480" font-family="Helvetica,sans-Serif" font-size="10.00">/Users/nikolajbankejensen</text>
<text text-anchor="start" x="56.5" y="-469" font-family="Helvetica,sans-Serif" font-size="10.00">/Desktop/Kepler/src/core</text>
<text text-anchor="middle" x="114" y="-458" font-family="Helvetica,sans-Serif" font-size="10.00">/evaluation/execution.h</text>
</a>
</g>
</g>
<!-- Node2 -->
<g id="node2" class="node">
<title>Node2</title>
<g id="a_node2"><a xlink:title=" ">
<polygon fill="#e0e0e0" stroke="#999999" points="142.5,-19 101.5,-19 101.5,0 142.5,0 142.5,-19"/>
<text text-anchor="middle" x="122" y="-7" font-family="Helvetica,sans-Serif" font-size="10.00">string</text>
</a>
</g>
</g>
<!-- Node1&#45;&gt;Node2 -->
<g id="edge1" class="edge">
<title>Node1&#45;&gt;Node2</title>
<path fill="none" stroke="#63b8ff" d="M75.4,-450.64C42.33,-430.56 0,-396.13 0,-351.5 0,-351.5 0,-351.5 0,-118.5 0,-70.18 54.32,-38.25 90.47,-22.36"/>
<polygon fill="#63b8ff" stroke="#63b8ff" points="91.76,-25.62 99.63,-18.53 89.06,-19.16 91.76,-25.62"/>
</g>
<!-- Node3 -->
<g id="node3" class="node">
<title>Node3</title>
<g id="a_node3"><a xlink:href="datatypes_8h.html" target="_top" xlink:title=" ">
<polygon fill="white" stroke="#666666" points="501.5,-74 412.5,-74 412.5,-55 501.5,-55 501.5,-74"/>
<text text-anchor="middle" x="457" y="-62" font-family="Helvetica,sans-Serif" font-size="10.00">core/datatypes.h</text>
</a>
</g>
</g>
<!-- Node1&#45;&gt;Node3 -->
<g id="edge2" class="edge">
<title>Node1&#45;&gt;Node3</title>
<path fill="none" stroke="#63b8ff" d="M114,-450.71C114,-427.09 114,-386.41 114,-351.5 114,-351.5 114,-351.5 114,-173.5 114,-144.04 110.63,-129.16 133,-110 172.19,-76.43 319.05,-68.1 400.94,-66.09"/>
<polygon fill="#63b8ff" stroke="#63b8ff" points="400.86,-69.59 410.78,-65.87 400.7,-62.59 400.86,-69.59"/>
</g>
<!-- Node6 -->
<g id="node6" class="node">
<title>Node6</title>
<g id="a_node6"><a xlink:href="symbol__table_8h.html" target="_top" xlink:title=" ">
<polygon fill="white" stroke="#666666" points="735,-415 631,-415 631,-396 735,-396 735,-415"/>
<text text-anchor="middle" x="683" y="-403" font-family="Helvetica,sans-Serif" font-size="10.00">core/symbol_table.h</text>
</a>
</g>
</g>
<!-- Node1&#45;&gt;Node6 -->
<g id="edge6" class="edge">
<title>Node1&#45;&gt;Node6</title>
<path fill="none" stroke="#63b8ff" d="M179.83,-463.1C290.05,-450.7 510.53,-425.9 619.31,-413.66"/>
<polygon fill="#63b8ff" stroke="#63b8ff" points="619.69,-417.14 629.24,-412.55 618.91,-410.19 619.69,-417.14"/>
</g>
<!-- Node3&#45;&gt;Node2 -->
<g id="edge4" class="edge">
<title>Node3&#45;&gt;Node2</title>
<path fill="none" stroke="#63b8ff" d="M412.17,-56.41C343.47,-45.54 213.83,-25.03 153.89,-15.54"/>
<polygon fill="#63b8ff" stroke="#63b8ff" points="154.78,-12.14 144.36,-14.04 153.69,-19.06 154.78,-12.14"/>
</g>
<!-- Node4 -->
<g id="node4" class="node">
<title>Node4</title>
<g id="a_node4"><a xlink:title=" ">
<polygon fill="#e0e0e0" stroke="#999999" points="445,-19 401,-19 401,0 445,0 445,-19"/>
<text text-anchor="middle" x="423" y="-7" font-family="Helvetica,sans-Serif" font-size="10.00">vector</text>
</a>
</g>
</g>
<!-- Node3&#45;&gt;Node4 -->
<g id="edge3" class="edge">
<title>Node3&#45;&gt;Node4</title>
<path fill="none" stroke="#63b8ff" d="M451.39,-54.75C446.88,-47.73 440.41,-37.64 434.79,-28.87"/>
<polygon fill="#63b8ff" stroke="#63b8ff" points="437.9,-27.24 429.55,-20.72 432.01,-31.02 437.9,-27.24"/>
</g>
<!-- Node5 -->
<g id="node5" class="node">
<title>Node5</title>
<g id="a_node5"><a xlink:title=" ">
<polygon fill="#e0e0e0" stroke="#999999" points="516.5,-19 463.5,-19 463.5,0 516.5,0 516.5,-19"/>
<text text-anchor="middle" x="490" y="-7" font-family="Helvetica,sans-Serif" font-size="10.00">complex</text>
</a>
</g>
</g>
<!-- Node3&#45;&gt;Node5 -->
<g id="edge5" class="edge">
<title>Node3&#45;&gt;Node5</title>
<path fill="none" stroke="#63b8ff" d="M462.45,-54.75C466.77,-47.81 472.96,-37.86 478.38,-29.16"/>
<polygon fill="#63b8ff" stroke="#63b8ff" points="481.32,-31.07 483.63,-20.73 475.38,-27.37 481.32,-31.07"/>
</g>
<!-- Node6&#45;&gt;Node2 -->
<g id="edge8" class="edge">
<title>Node6&#45;&gt;Node2</title>
<path fill="none" stroke="#63b8ff" d="M630.76,-401.25C477.21,-391.01 38,-356.46 38,-296.5 38,-296.5 38,-296.5 38,-118.5 38,-78.66 74.06,-44.66 98.93,-25.95"/>
<polygon fill="#63b8ff" stroke="#63b8ff" points="100.83,-28.9 106.9,-20.22 96.74,-23.22 100.83,-28.9"/>
</g>
<!-- Node7 -->
<g id="node7" class="node">
<title>Node7</title>
<g id="a_node7"><a xlink:title=" ">
<polygon fill="#e0e0e0" stroke="#999999" points="1020.5,-305 985.5,-305 985.5,-286 1020.5,-286 1020.5,-305"/>
<text text-anchor="middle" x="1003" y="-293" font-family="Helvetica,sans-Serif" font-size="10.00">map</text>
</a>
</g>
</g>
<!-- Node6&#45;&gt;Node7 -->
<g id="edge7" class="edge">
<title>Node6&#45;&gt;Node7</title>
<path fill="none" stroke="#63b8ff" d="M735.46,-400.65C804.09,-394.82 919.87,-382.03 956,-360 973.36,-349.42 986.37,-329.8 994.25,-315.16"/>
<polygon fill="#63b8ff" stroke="#63b8ff" points="997.23,-317.03 998.59,-306.52 990.97,-313.89 997.23,-317.03"/>
</g>
<!-- Node8 -->
<g id="node8" class="node">
<title>Node8</title>
<g id="a_node8"><a xlink:href="array_8h.html" target="_top" xlink:title=" ">
<polygon fill="white" stroke="#666666" points="914.5,-129 847.5,-129 847.5,-110 914.5,-110 914.5,-129"/>
<text text-anchor="middle" x="881" y="-117" font-family="Helvetica,sans-Serif" font-size="10.00">core/array.h</text>
</a>
</g>
</g>
<!-- Node6&#45;&gt;Node8 -->
<g id="edge9" class="edge">
<title>Node6&#45;&gt;Node8</title>
<path fill="none" stroke="#63b8ff" d="M722.37,-395.55C768.58,-382.43 839,-353.16 839,-296.5 839,-296.5 839,-296.5 839,-234 839,-198.77 857.02,-161 869.45,-139.13"/>
<polygon fill="#63b8ff" stroke="#63b8ff" points="872.3,-141.18 874.39,-130.8 866.28,-137.62 872.3,-141.18"/>
</g>
<!-- Node10 -->
<g id="node10" class="node">
<title>Node10</title>
<g id="a_node10"><a xlink:href="ast_8h.html" target="_top" xlink:title=" ">
<polygon fill="white" stroke="#666666" points="736.5,-305 629.5,-305 629.5,-286 736.5,-286 736.5,-305"/>
<text text-anchor="middle" x="683" y="-293" font-family="Helvetica,sans-Serif" font-size="10.00">core/evaluation/ast.h</text>
</a>
</g>
</g>
<!-- Node6&#45;&gt;Node10 -->
<g id="edge12" class="edge">
<title>Node6&#45;&gt;Node10</title>
<path fill="none" stroke="#63b8ff" d="M683,-395.66C683,-378.57 683,-340.61 683,-316.92"/>
<polygon fill="#63b8ff" stroke="#63b8ff" points="686.5,-316.97 683,-306.97 679.5,-316.97 686.5,-316.97"/>
</g>
<!-- Node21 -->
<g id="node21" class="node">
<title>Node21</title>
<g id="a_node21"><a xlink:href="error_8h.html" target="_top" xlink:title=" ">
<polygon fill="white" stroke="#666666" points="282,-184 238,-184 238,-165 282,-165 282,-184"/>
<text text-anchor="middle" x="260" y="-172" font-family="Helvetica,sans-Serif" font-size="10.00">error.h</text>
</a>
</g>
</g>
<!-- Node6&#45;&gt;Node21 -->
<g id="edge37" class="edge">
<title>Node6&#45;&gt;Node21</title>
<path fill="none" stroke="#63b8ff" d="M666.42,-395.52C601.66,-360.46 365.48,-232.6 286.17,-189.67"/>
<polygon fill="#63b8ff" stroke="#63b8ff" points="288.26,-186.82 277.8,-185.14 284.93,-192.97 288.26,-186.82"/>
</g>
<!-- Node24 -->
<g id="node24" class="node">
<title>Node24</title>
<g id="a_node24"><a xlink:href="symbol_8h.html" target="_top" xlink:title=" ">
<polygon fill="white" stroke="#666666" points="947,-360 891,-360 891,-341 947,-341 947,-360"/>
<text text-anchor="middle" x="919" y="-348" font-family="Helvetica,sans-Serif" font-size="10.00">symbol.h</text>
</a>
</g>
</g>
<!-- Node6&#45;&gt;Node24 -->
<g id="edge45" class="edge">
<title>Node6&#45;&gt;Node24</title>
<path fill="none" stroke="#63b8ff" d="M723.03,-395.51C766.73,-385.7 836.26,-370.08 879.68,-360.33"/>
<polygon fill="#63b8ff" stroke="#63b8ff" points="880.19,-363.8 889.18,-358.2 878.65,-356.97 880.19,-363.8"/>
</g>
<!-- Node8&#45;&gt;Node3 -->
<g id="edge10" class="edge">
<title>Node8&#45;&gt;Node3</title>
<path fill="none" stroke="#63b8ff" d="M847.12,-111.39C844.38,-110.89 841.64,-110.42 839,-110 723.84,-91.67 588,-77.64 513.31,-70.57"/>
<polygon fill="#63b8ff" stroke="#63b8ff" points="513.65,-67.09 503.37,-69.64 513,-74.06 513.65,-67.09"/>
</g>
<!-- Node9 -->
<g id="node9" class="node">
<title>Node9</title>
<g id="a_node9"><a xlink:title=" ">
<polygon fill="#e0e0e0" stroke="#999999" points="904,-74 858,-74 858,-55 904,-55 904,-74"/>
<text text-anchor="middle" x="881" y="-62" font-family="Helvetica,sans-Serif" font-size="10.00">variant</text>
</a>
</g>
</g>
<!-- Node8&#45;&gt;Node9 -->
<g id="edge11" class="edge">
<title>Node8&#45;&gt;Node9</title>
<path fill="none" stroke="#63b8ff" d="M881,-109.75C881,-103.27 881,-94.16 881,-85.9"/>
<polygon fill="#63b8ff" stroke="#63b8ff" points="884.5,-85.96 881,-75.96 877.5,-85.96 884.5,-85.96"/>
</g>
<!-- Node10&#45;&gt;Node2 -->
<g id="edge13" class="edge">
<title>Node10&#45;&gt;Node2</title>
<path fill="none" stroke="#63b8ff" d="M629.21,-287.02C542.42,-273.72 367.28,-241.8 229,-184 183.63,-165.04 160.66,-169.65 133,-129 112.91,-99.48 114.93,-55.82 118.37,-30.56"/>
<polygon fill="#63b8ff" stroke="#63b8ff" points="121.77,-31.41 119.89,-20.98 114.86,-30.31 121.77,-31.41"/>
</g>
<!-- Node10&#45;&gt;Node3 -->
<g id="edge29" class="edge">
<title>Node10&#45;&gt;Node3</title>
<path fill="none" stroke="#63b8ff" d="M629.24,-293.24C588.49,-289.78 533.04,-279.41 494,-250 443.25,-211.77 448.25,-125.14 453.59,-85.72"/>
<polygon fill="#63b8ff" stroke="#63b8ff" points="457.03,-86.41 455.07,-75.99 450.11,-85.35 457.03,-86.41"/>
</g>
<!-- Node10&#45;&gt;Node8 -->
<g id="edge15" class="edge">
<title>Node10&#45;&gt;Node8</title>
<path fill="none" stroke="#63b8ff" d="M694.63,-285.6C705.95,-276.83 723.5,-262.9 738,-250 778.39,-214.07 784.45,-200.75 825,-165 836.27,-155.07 849.39,-144.58 860.1,-136.29"/>
<polygon fill="#63b8ff" stroke="#63b8ff" points="862.12,-139.15 867.93,-130.29 857.87,-133.59 862.12,-139.15"/>
</g>
<!-- Node11 -->
<g id="node11" class="node">
<title>Node11</title>
<g id="a_node11"><a xlink:title=" ">
<polygon fill="#e0e0e0" stroke="#999999" points="726,-19 672,-19 672,0 726,0 726,-19"/>
<text text-anchor="middle" x="699" y="-7" font-family="Helvetica,sans-Serif" font-size="10.00">iostream</text>
</a>
</g>
</g>
<!-- Node10&#45;&gt;Node11 -->
<g id="edge14" class="edge">
<title>Node10&#45;&gt;Node11</title>
<path fill="none" stroke="#63b8ff" d="M728.39,-285.55C799.38,-268.83 934.49,-225.43 992,-129 1049.28,-32.95 829.63,-14.73 737.7,-11.29"/>
<polygon fill="#63b8ff" stroke="#63b8ff" points="738.01,-7.8 727.9,-10.97 737.78,-14.8 738.01,-7.8"/>
</g>
<!-- Node12 -->
<g id="node12" class="node">
<title>Node12</title>
<g id="a_node12"><a xlink:href="token_8h.html" target="_top" xlink:title=" ">
<polygon fill="white" stroke="#666666" points="692.5,-184 621.5,-184 621.5,-165 692.5,-165 692.5,-184"/>
<text text-anchor="middle" x="657" y="-172" font-family="Helvetica,sans-Serif" font-size="10.00">core/token.h</text>
</a>
</g>
</g>
<!-- Node10&#45;&gt;Node12 -->
<g id="edge16" class="edge">
<title>Node10&#45;&gt;Node12</title>
<path fill="none" stroke="#63b8ff" d="M681.05,-285.56C676.88,-266.51 667.06,-221.56 661.34,-195.37"/>
<polygon fill="#63b8ff" stroke="#63b8ff" points="664.78,-194.73 659.23,-185.7 657.94,-196.22 664.78,-194.73"/>
</g>
<!-- Node18 -->
<g id="node18" class="node">
<title>Node18</title>
<g id="a_node18"><a xlink:href="position_8h.html" target="_top" xlink:title=" ">
<polygon fill="white" stroke="#666666" points="829.5,-129 770.5,-129 770.5,-110 829.5,-110 829.5,-129"/>
<text text-anchor="middle" x="800" y="-117" font-family="Helvetica,sans-Serif" font-size="10.00">position.h</text>
</a>
</g>
</g>
<!-- Node10&#45;&gt;Node18 -->
<g id="edge36" class="edge">
<title>Node10&#45;&gt;Node18</title>
<path fill="none" stroke="#63b8ff" d="M688.96,-285.63C707.27,-258.4 762.94,-175.61 787.79,-138.65"/>
<polygon fill="#63b8ff" stroke="#63b8ff" points="790.67,-140.65 793.34,-130.4 784.86,-136.74 790.67,-140.65"/>
</g>
<!-- Node19 -->
<g id="node19" class="node">
<title>Node19</title>
<g id="a_node19"><a xlink:title=" ">
<polygon fill="#e0e0e0" stroke="#999999" points="518,-184 466,-184 466,-165 518,-165 518,-184"/>
<text text-anchor="middle" x="492" y="-172" font-family="Helvetica,sans-Serif" font-size="10.00">memory</text>
</a>
</g>
</g>
<!-- Node10&#45;&gt;Node19 -->
<g id="edge30" class="edge">
<title>Node10&#45;&gt;Node19</title>
<path fill="none" stroke="#63b8ff" d="M629.12,-293.59C592.16,-290.12 544.48,-279.59 514,-250 499.35,-235.78 494.33,-212.32 492.68,-195.52"/>
<polygon fill="#63b8ff" stroke="#63b8ff" points="496.19,-195.51 492.06,-185.75 489.2,-195.95 496.19,-195.51"/>
</g>
<!-- Node20 -->
<g id="node20" class="node">
<title>Node20</title>
<g id="a_node20"><a xlink:href="operation_8h.html" target="_top" xlink:title=" ">
<polygon fill="white" stroke="#666666" points="654.5,-250 523.5,-250 523.5,-220 654.5,-220 654.5,-250"/>
<text text-anchor="start" x="531.5" y="-238" font-family="Helvetica,sans-Serif" font-size="10.00">core/evaluation/operations</text>
<text text-anchor="middle" x="589" y="-227" font-family="Helvetica,sans-Serif" font-size="10.00">/operation.h</text>
</a>
</g>
</g>
<!-- Node10&#45;&gt;Node20 -->
<g id="edge31" class="edge">
<title>Node10&#45;&gt;Node20</title>
<path fill="none" stroke="#63b8ff" d="M668.72,-285.62C656.3,-277.89 637.83,-266.39 621.8,-256.41"/>
<polygon fill="#63b8ff" stroke="#63b8ff" points="623.83,-253.55 613.49,-251.24 620.13,-259.49 623.83,-253.55"/>
</g>
<!-- Node12&#45;&gt;Node3 -->
<g id="edge19" class="edge">
<title>Node12&#45;&gt;Node3</title>
<path fill="none" stroke="#63b8ff" d="M643.5,-164.57C623.93,-151.79 586.39,-127.86 553,-110 531.88,-98.7 507.36,-87.37 488.39,-78.96"/>
<polygon fill="#63b8ff" stroke="#63b8ff" points="489.88,-75.8 479.32,-74.99 487.07,-82.21 489.88,-75.8"/>
</g>
<!-- Node12&#45;&gt;Node8 -->
<g id="edge21" class="edge">
<title>Node12&#45;&gt;Node8</title>
<path fill="none" stroke="#63b8ff" d="M692.99,-164.98C731.96,-155.76 794.18,-141.04 836.26,-131.09"/>
<polygon fill="#63b8ff" stroke="#63b8ff" points="836.9,-134.53 845.83,-128.82 835.29,-127.72 836.9,-134.53"/>
</g>
<!-- Node13 -->
<g id="node13" class="node">
<title>Node13</title>
<g id="a_node13"><a xlink:href="token__type_8h.html" target="_top" xlink:title=" ">
<polygon fill="white" stroke="#666666" points="735.5,-74 662.5,-74 662.5,-55 735.5,-55 735.5,-74"/>
<text text-anchor="middle" x="699" y="-62" font-family="Helvetica,sans-Serif" font-size="10.00">token_type.h</text>
</a>
</g>
</g>
<!-- Node12&#45;&gt;Node13 -->
<g id="edge17" class="edge">
<title>Node12&#45;&gt;Node13</title>
<path fill="none" stroke="#63b8ff" d="M679.76,-164.65C694.73,-157.49 713.13,-145.82 722,-129 729.68,-114.43 722.01,-96.74 713.52,-83.73"/>
<polygon fill="#63b8ff" stroke="#63b8ff" points="716.4,-81.73 707.7,-75.68 710.72,-85.83 716.4,-81.73"/>
</g>
<!-- Node14 -->
<g id="node14" class="node">
<title>Node14</title>
<g id="a_node14"><a xlink:title=" ">
<polygon fill="#e0e0e0" stroke="#999999" points="409.5,-129 326.5,-129 326.5,-110 409.5,-110 409.5,-129"/>
<text text-anchor="middle" x="368" y="-117" font-family="Helvetica,sans-Serif" font-size="10.00">uni_algo/conv.h</text>
</a>
</g>
</g>
<!-- Node12&#45;&gt;Node14 -->
<g id="edge20" class="edge">
<title>Node12&#45;&gt;Node14</title>
<path fill="none" stroke="#63b8ff" d="M621.27,-166.95C571.01,-157.73 479.08,-140.87 420.88,-130.2"/>
<polygon fill="#63b8ff" stroke="#63b8ff" points="421.67,-126.78 411.2,-128.42 420.41,-133.67 421.67,-126.78"/>
</g>
<!-- Node15 -->
<g id="node15" class="node">
<title>Node15</title>
<g id="a_node15"><a xlink:href="conversion_8h.html" target="_top" xlink:title=" ">
<polygon fill="white" stroke="#666666" points="713.5,-129 600.5,-129 600.5,-110 713.5,-110 713.5,-129"/>
<text text-anchor="middle" x="657" y="-117" font-family="Helvetica,sans-Serif" font-size="10.00">interface/conversion.h</text>
</a>
</g>
</g>
<!-- Node12&#45;&gt;Node15 -->
<g id="edge22" class="edge">
<title>Node12&#45;&gt;Node15</title>
<path fill="none" stroke="#63b8ff" d="M657,-164.75C657,-158.27 657,-149.16 657,-140.9"/>
<polygon fill="#63b8ff" stroke="#63b8ff" points="660.5,-140.96 657,-130.96 653.5,-140.96 660.5,-140.96"/>
</g>
<!-- Node16 -->
<g id="node16" class="node">
<title>Node16</title>
<g id="a_node16"><a xlink:title=" ">
<polygon fill="#e0e0e0" stroke="#999999" points="544,-129 504,-129 504,-110 544,-110 544,-129"/>
<text text-anchor="middle" x="524" y="-117" font-family="Helvetica,sans-Serif" font-size="10.00">utility</text>
</a>
</g>
</g>
<!-- Node12&#45;&gt;Node16 -->
<g id="edge26" class="edge">
<title>Node12&#45;&gt;Node16</title>
<path fill="none" stroke="#63b8ff" d="M634.44,-164.51C612.59,-155.8 579.28,-142.53 554.96,-132.84"/>
<polygon fill="#63b8ff" stroke="#63b8ff" points="556.48,-129.67 545.89,-129.22 553.89,-136.18 556.48,-129.67"/>
</g>
<!-- Node17 -->
<g id="node17" class="node">
<title>Node17</title>
<g id="a_node17"><a xlink:title=" ">
<polygon fill="#e0e0e0" stroke="#999999" points="983,-129 933,-129 933,-110 983,-110 983,-129"/>
<text text-anchor="middle" x="958" y="-117" font-family="Helvetica,sans-Serif" font-size="10.00">optional</text>
</a>
</g>
</g>
<!-- Node12&#45;&gt;Node17 -->
<g id="edge27" class="edge">
<title>Node12&#45;&gt;Node17</title>
<path fill="none" stroke="#63b8ff" d="M692.58,-168.49C741.81,-161.37 833.71,-147.34 921.55,-129.37"/>
<polygon fill="#63b8ff" stroke="#63b8ff" points="922.24,-132.8 931.32,-127.34 920.82,-125.94 922.24,-132.8"/>
</g>
<!-- Node12&#45;&gt;Node18 -->
<g id="edge28" class="edge">
<title>Node12&#45;&gt;Node18</title>
<path fill="none" stroke="#63b8ff" d="M681.26,-164.51C704.41,-155.93 739.51,-142.92 765.56,-133.27"/>
<polygon fill="#63b8ff" stroke="#63b8ff" points="766.52,-136.64 774.68,-129.88 764.09,-130.08 766.52,-136.64"/>
</g>
<!-- Node13&#45;&gt;Node11 -->
<g id="edge18" class="edge">
<title>Node13&#45;&gt;Node11</title>
<path fill="none" stroke="#63b8ff" d="M699,-54.75C699,-48.27 699,-39.16 699,-30.9"/>
<polygon fill="#63b8ff" stroke="#63b8ff" points="702.5,-30.96 699,-20.96 695.5,-30.96 702.5,-30.96"/>
</g>
<!-- Node15&#45;&gt;Node2 -->
<g id="edge23" class="edge">
<title>Node15&#45;&gt;Node2</title>
<path fill="none" stroke="#63b8ff" d="M640.82,-109.62C614.33,-95.52 559.69,-68.27 510,-55 381.11,-20.58 221.15,-12.78 154.02,-11.02"/>
<polygon fill="#63b8ff" stroke="#63b8ff" points="154.18,-7.52 144.1,-10.79 154.02,-14.52 154.18,-7.52"/>
</g>
<!-- Node15&#45;&gt;Node3 -->
<g id="edge24" class="edge">
<title>Node15&#45;&gt;Node3</title>
<path fill="none" stroke="#63b8ff" d="M623.07,-109.51C589.64,-100.65 538.38,-87.07 501.65,-77.33"/>
<polygon fill="#63b8ff" stroke="#63b8ff" points="502.79,-74.01 492.22,-74.83 500.99,-80.78 502.79,-74.01"/>
</g>
<!-- Node15&#45;&gt;Node13 -->
<g id="edge25" class="edge">
<title>Node15&#45;&gt;Node13</title>
<path fill="none" stroke="#63b8ff" d="M663.94,-109.75C669.62,-102.58 677.84,-92.2 684.89,-83.3"/>
<polygon fill="#63b8ff" stroke="#63b8ff" points="687.51,-85.64 690.97,-75.63 682.02,-81.29 687.51,-85.64"/>
</g>
<!-- Node20&#45;&gt;Node3 -->
<g id="edge32" class="edge">
<title>Node20&#45;&gt;Node3</title>
<path fill="none" stroke="#63b8ff" d="M576.22,-219.8C550.93,-191.68 496.78,-131.41 495,-129 484.51,-114.76 474.31,-97.47 467.13,-84.53"/>
<polygon fill="#63b8ff" stroke="#63b8ff" points="470.23,-82.91 462.38,-75.79 464.08,-86.25 470.23,-82.91"/>
</g>
<!-- Node20&#45;&gt;Node8 -->
<g id="edge33" class="edge">
<title>Node20&#45;&gt;Node8</title>
<path fill="none" stroke="#63b8ff" d="M626.28,-219.51C683.67,-197.2 792.77,-154.79 847.68,-133.45"/>
<polygon fill="#63b8ff" stroke="#63b8ff" points="848.76,-136.79 856.81,-129.9 846.22,-130.26 848.76,-136.79"/>
</g>
<!-- Node20&#45;&gt;Node12 -->
<g id="edge34" class="edge">
<title>Node20&#45;&gt;Node12</title>
<path fill="none" stroke="#63b8ff" d="M605.81,-219.54C615.69,-211.04 628.19,-200.29 638.37,-191.53"/>
<polygon fill="#63b8ff" stroke="#63b8ff" points="640.47,-194.34 645.77,-185.16 635.91,-189.03 640.47,-194.34"/>
</g>
<!-- Node20&#45;&gt;Node19 -->
<g id="edge35" class="edge">
<title>Node20&#45;&gt;Node19</title>
<path fill="none" stroke="#63b8ff" d="M565.02,-219.54C550.16,-210.58 531.13,-199.1 516.23,-190.11"/>
<polygon fill="#63b8ff" stroke="#63b8ff" points="518.33,-187.3 507.96,-185.13 514.72,-193.29 518.33,-187.3"/>
</g>
<!-- Node21&#45;&gt;Node3 -->
<g id="edge43" class="edge">
<title>Node21&#45;&gt;Node3</title>
<path fill="none" stroke="#63b8ff" d="M265.56,-164.77C274.67,-151.12 294.1,-124.79 317,-110 342.31,-93.65 374.07,-82.92 400.94,-76.1"/>
<polygon fill="#63b8ff" stroke="#63b8ff" points="401.74,-79.5 410.65,-73.76 400.11,-72.7 401.74,-79.5"/>
</g>
<!-- Node21&#45;&gt;Node11 -->
<g id="edge38" class="edge">
<title>Node21&#45;&gt;Node11</title>
<path fill="none" stroke="#63b8ff" d="M262.48,-164.62C266.61,-151.25 276.06,-125.83 292,-110 331.06,-71.2 350.48,-71.51 403,-55 492.56,-26.84 603.12,-16.27 660.44,-12.48"/>
<polygon fill="#63b8ff" stroke="#63b8ff" points="660.56,-15.98 670.33,-11.86 660.13,-8.99 660.56,-15.98"/>
</g>
<!-- Node21&#45;&gt;Node14 -->
<g id="edge44" class="edge">
<title>Node21&#45;&gt;Node14</title>
<path fill="none" stroke="#63b8ff" d="M278.32,-164.51C295.18,-156.24 320.43,-143.84 339.85,-134.31"/>
<polygon fill="#63b8ff" stroke="#63b8ff" points="341.16,-137.57 348.59,-130.02 338.07,-131.29 341.16,-137.57"/>
</g>
<!-- Node21&#45;&gt;Node16 -->
<g id="edge40" class="edge">
<title>Node21&#45;&gt;Node16</title>
<path fill="none" stroke="#63b8ff" d="M282.05,-169.07C328.93,-159.66 438.59,-137.65 492.69,-126.79"/>
<polygon fill="#63b8ff" stroke="#63b8ff" points="493.05,-130.28 502.17,-124.88 491.68,-123.42 493.05,-130.28"/>
</g>
<!-- Node22 -->
<g id="node22" class="node">
<title>Node22</title>
<g id="a_node22"><a xlink:title=" ">
<polygon fill="#e0e0e0" stroke="#999999" points="194,-129 142,-129 142,-110 194,-110 194,-129"/>
<text text-anchor="middle" x="168" y="-117" font-family="Helvetica,sans-Serif" font-size="10.00">sstream</text>
</a>
</g>
</g>
<!-- Node21&#45;&gt;Node22 -->
<g id="edge39" class="edge">
<title>Node21&#45;&gt;Node22</title>
<path fill="none" stroke="#63b8ff" d="M244.39,-164.51C230.3,-156.39 209.31,-144.3 192.9,-134.85"/>
<polygon fill="#63b8ff" stroke="#63b8ff" points="195.1,-132.07 184.69,-130.11 191.61,-138.14 195.1,-132.07"/>
</g>
<!-- Node23 -->
<g id="node23" class="node">
<title>Node23</title>
<g id="a_node23"><a xlink:href="error__type_8h.html" target="_top" xlink:title=" ">
<polygon fill="white" stroke="#666666" points="202,-74 134,-74 134,-55 202,-55 202,-74"/>
<text text-anchor="middle" x="168" y="-62" font-family="Helvetica,sans-Serif" font-size="10.00">error_type.h</text>
</a>
</g>
</g>
<!-- Node21&#45;&gt;Node23 -->
<g id="edge41" class="edge">
<title>Node21&#45;&gt;Node23</title>
<path fill="none" stroke="#63b8ff" d="M252.47,-164.66C237.31,-146.86 202.85,-106.41 182.94,-83.04"/>
<polygon fill="#63b8ff" stroke="#63b8ff" points="185.76,-80.96 176.61,-75.61 180.43,-85.49 185.76,-80.96"/>
</g>
<!-- Node23&#45;&gt;Node2 -->
<g id="edge42" class="edge">
<title>Node23&#45;&gt;Node2</title>
<path fill="none" stroke="#63b8ff" d="M160.4,-54.75C154.12,-47.5 144.99,-36.98 137.2,-28.02"/>
<polygon fill="#63b8ff" stroke="#63b8ff" points="139.95,-25.84 130.75,-20.59 134.66,-30.43 139.95,-25.84"/>
</g>
<!-- Node24&#45;&gt;Node7 -->
<g id="edge46" class="edge">
<title>Node24&#45;&gt;Node7</title>
<path fill="none" stroke="#63b8ff" d="M933.25,-340.51C945.88,-332.54 964.56,-320.75 979.41,-311.38"/>
<polygon fill="#63b8ff" stroke="#63b8ff" points="981.09,-314.46 987.68,-306.17 977.36,-308.54 981.09,-314.46"/>
</g>
<!-- Node24&#45;&gt;Node8 -->
<g id="edge48" class="edge">
<title>Node24&#45;&gt;Node8</title>
<path fill="none" stroke="#63b8ff" d="M917.51,-340.52C911.93,-306.89 892.18,-187.86 884.29,-140.32"/>
<polygon fill="#63b8ff" stroke="#63b8ff" points="887.78,-139.95 882.69,-130.66 880.87,-141.1 887.78,-139.95"/>
</g>
<!-- Node24&#45;&gt;Node10 -->
<g id="edge49" class="edge">
<title>Node24&#45;&gt;Node10</title>
<path fill="none" stroke="#63b8ff" d="M890.53,-343.11C851.83,-334.42 781.96,-318.72 734.06,-307.97"/>
<polygon fill="#63b8ff" stroke="#63b8ff" points="735,-304.59 724.47,-305.81 733.46,-311.42 735,-304.59"/>
</g>
<!-- Node24&#45;&gt;Node17 -->
<g id="edge47" class="edge">
<title>Node24&#45;&gt;Node17</title>
<path fill="none" stroke="#63b8ff" d="M920.53,-340.52C926.26,-306.89 946.53,-187.86 954.62,-140.32"/>
<polygon fill="#63b8ff" stroke="#63b8ff" points="958.04,-141.11 956.27,-130.66 951.14,-139.93 958.04,-141.11"/>
</g>
</g>
</svg>
