<?xml version="1.0" encoding="UTF-8" standalone="no"?>
<!DOCTYPE svg PUBLIC "-//W3C//DTD SVG 1.1//EN"
 "http://www.w3.org/Graphics/SVG/1.1/DTD/svg11.dtd">
<!-- Generated by graphviz version 7.1.0 (20230121.1956)
 -->
<!-- Title: /Users/nikolajbankejensen/Desktop/Kepler/src/core/evaluation/execution.h Pages: 1 -->
<svg width="920pt" height="203pt"
 viewBox="0.00 0.00 919.50 203.00" xmlns="http://www.w3.org/2000/svg" xmlns:xlink="http://www.w3.org/1999/xlink">
<g id="graph0" class="graph" transform="scale(1 1) rotate(0) translate(4 199)">
<title>/Users/nikolajbankejensen/Desktop/Kepler/src/core/evaluation/execution.h</title>
<!-- Node1 -->
<g id="node1" class="node">
<title>Node1</title>
<g id="a_node1"><a xlink:title=" ">
<polygon fill="#999999" stroke="#666666" points="367,-195 236,-195 236,-154 367,-154 367,-195"/>
<text text-anchor="start" x="244" y="-183" font-family="Helvetica,sans-Serif" font-size="10.00">/Users/nikolajbankejensen</text>
<text text-anchor="start" x="244" y="-172" font-family="Helvetica,sans-Serif" font-size="10.00">/Desktop/Kepler/src/core</text>
<text text-anchor="middle" x="301.5" y="-161" font-family="Helvetica,sans-Serif" font-size="10.00">/evaluation/execution.h</text>
</a>
</g>
</g>
<!-- Node2 -->
<g id="node2" class="node">
<title>Node2</title>
<g id="a_node2"><a xlink:href="execution_8cpp.html" target="_top" xlink:title=" ">
<polygon fill="white" stroke="#666666" points="131,-118 0,-118 0,-77 131,-77 131,-118"/>
<text text-anchor="start" x="8" y="-106" font-family="Helvetica,sans-Serif" font-size="10.00">/Users/nikolajbankejensen</text>
<text text-anchor="start" x="8" y="-95" font-family="Helvetica,sans-Serif" font-size="10.00">/Desktop/Kepler/src/core</text>
<text text-anchor="middle" x="65.5" y="-84" font-family="Helvetica,sans-Serif" font-size="10.00">/evaluation/execution.cpp</text>
</a>
</g>
</g>
<!-- Node1&#45;&gt;Node2 -->
<g id="edge1" class="edge">
<title>Node1&#45;&gt;Node2</title>
<path fill="none" stroke="#63b8ff" d="M228.24,-150.22C196.26,-140.06 159.13,-128.26 128.42,-118.49"/>
<polygon fill="#63b8ff" stroke="#63b8ff" points="226.84,-153.45 237.43,-153.14 228.96,-146.78 226.84,-153.45"/>
</g>
<!-- Node3 -->
<g id="node3" class="node">
<title>Node3</title>
<g id="a_node3"><a xlink:href="main_8cpp.html" target="_top" xlink:title=" ">
<polygon fill="white" stroke="#666666" points="295.5,-112.5 149.5,-112.5 149.5,-82.5 295.5,-82.5 295.5,-112.5"/>
<text text-anchor="start" x="157.5" y="-100.5" font-family="Helvetica,sans-Serif" font-size="10.00">/Users/nikolajbankejensen</text>
<text text-anchor="middle" x="222.5" y="-89.5" font-family="Helvetica,sans-Serif" font-size="10.00">/Desktop/Kepler/src/main.cpp</text>
</a>
</g>
</g>
<!-- Node1&#45;&gt;Node3 -->
<g id="edge2" class="edge">
<title>Node1&#45;&gt;Node3</title>
<path fill="none" stroke="#63b8ff" d="M272.44,-145.92C260.63,-134.7 247.47,-122.21 237.63,-112.86"/>
<polygon fill="#63b8ff" stroke="#63b8ff" points="269.98,-148.41 279.65,-152.75 274.8,-143.33 269.98,-148.41"/>
</g>
<!-- Node4 -->
<g id="node4" class="node">
<title>Node4</title>
<g id="a_node4"><a xlink:href="file__fixture_8h.html" target="_top" xlink:title=" ">
<polygon fill="white" stroke="#666666" points="449.5,-118 313.5,-118 313.5,-77 449.5,-77 449.5,-118"/>
<text text-anchor="start" x="321.5" y="-106" font-family="Helvetica,sans-Serif" font-size="10.00">/Users/nikolajbankejensen</text>
<text text-anchor="start" x="321.5" y="-95" font-family="Helvetica,sans-Serif" font-size="10.00">/Desktop/Kepler/src/testing</text>
<text text-anchor="middle" x="381.5" y="-84" font-family="Helvetica,sans-Serif" font-size="10.00">/fixtures/file_fixture.h</text>
</a>
</g>
</g>
<!-- Node1&#45;&gt;Node4 -->
<g id="edge3" class="edge">
<title>Node1&#45;&gt;Node4</title>
<path fill="none" stroke="#63b8ff" d="M330.82,-146.02C340.6,-136.84 351.3,-126.81 360.34,-118.33"/>
<polygon fill="#63b8ff" stroke="#63b8ff" points="328.52,-143.37 323.62,-152.76 333.31,-148.47 328.52,-143.37"/>
</g>
<!-- Node6 -->
<g id="node6" class="node">
<title>Node6</title>
<g id="a_node6"><a xlink:href="general__fixture_8h.html" target="_top" xlink:title=" ">
<polygon fill="white" stroke="#666666" points="603.5,-118 467.5,-118 467.5,-77 603.5,-77 603.5,-118"/>
<text text-anchor="start" x="475.5" y="-106" font-family="Helvetica,sans-Serif" font-size="10.00">/Users/nikolajbankejensen</text>
<text text-anchor="start" x="475.5" y="-95" font-family="Helvetica,sans-Serif" font-size="10.00">/Desktop/Kepler/src/testing</text>
<text text-anchor="middle" x="535.5" y="-84" font-family="Helvetica,sans-Serif" font-size="10.00">/fixtures/general_fixture.h</text>
</a>
</g>
</g>
<!-- Node1&#45;&gt;Node6 -->
<g id="edge5" class="edge">
<title>Node1&#45;&gt;Node6</title>
<path fill="none" stroke="#63b8ff" d="M374.55,-150.09C406.17,-139.95 442.8,-128.21 473.12,-118.49"/>
<polygon fill="#63b8ff" stroke="#63b8ff" points="373.49,-146.75 365.03,-153.14 375.63,-153.42 373.49,-146.75"/>
</g>
<!-- Node5 -->
<g id="node5" class="node">
<title>Node5</title>
<g id="a_node5"><a xlink:href="test__examples_8cpp.html" target="_top" xlink:title=" ">
<polygon fill="white" stroke="#666666" points="449.5,-41 313.5,-41 313.5,0 449.5,0 449.5,-41"/>
<text text-anchor="start" x="321.5" y="-29" font-family="Helvetica,sans-Serif" font-size="10.00">/Users/nikolajbankejensen</text>
<text text-anchor="start" x="321.5" y="-18" font-family="Helvetica,sans-Serif" font-size="10.00">/Desktop/Kepler/src/testing</text>
<text text-anchor="middle" x="381.5" y="-7" font-family="Helvetica,sans-Serif" font-size="10.00">/test_examples.cpp</text>
</a>
</g>
</g>
<!-- Node4&#45;&gt;Node5 -->
<g id="edge4" class="edge">
<title>Node4&#45;&gt;Node5</title>
<path fill="none" stroke="#63b8ff" d="M381.5,-65.36C381.5,-57.24 381.5,-48.7 381.5,-41.33"/>
<polygon fill="#63b8ff" stroke="#63b8ff" points="378,-65.28 381.5,-75.28 385,-65.28 378,-65.28"/>
</g>
<!-- Node6&#45;&gt;Node5 -->
<g id="edge7" class="edge">
<title>Node6&#45;&gt;Node5</title>
<path fill="none" stroke="#63b8ff" d="M484.4,-71.62C464.31,-61.83 441.55,-50.75 422.56,-41.49"/>
<polygon fill="#63b8ff" stroke="#63b8ff" points="482.75,-74.7 493.27,-75.94 485.82,-68.41 482.75,-74.7"/>
</g>
<!-- Node7 -->
<g id="node7" class="node">
<title>Node7</title>
<g id="a_node7"><a xlink:href="test__datatypes_8cpp.html" target="_top" xlink:title=" ">
<polygon fill="white" stroke="#666666" points="603.5,-41 467.5,-41 467.5,0 603.5,0 603.5,-41"/>
<text text-anchor="start" x="475.5" y="-29" font-family="Helvetica,sans-Serif" font-size="10.00">/Users/nikolajbankejensen</text>
<text text-anchor="start" x="475.5" y="-18" font-family="Helvetica,sans-Serif" font-size="10.00">/Desktop/Kepler/src/testing</text>
<text text-anchor="middle" x="535.5" y="-7" font-family="Helvetica,sans-Serif" font-size="10.00">/test_datatypes.cpp</text>
</a>
</g>
</g>
<!-- Node6&#45;&gt;Node7 -->
<g id="edge6" class="edge">
<title>Node6&#45;&gt;Node7</title>
<path fill="none" stroke="#63b8ff" d="M535.5,-65.36C535.5,-57.24 535.5,-48.7 535.5,-41.33"/>
<polygon fill="#63b8ff" stroke="#63b8ff" points="532,-65.28 535.5,-75.28 539,-65.28 532,-65.28"/>
</g>
<!-- Node8 -->
<g id="node8" class="node">
<title>Node8</title>
<g id="a_node8"><a xlink:href="test__functions_8cpp.html" target="_top" xlink:title=" ">
<polygon fill="white" stroke="#666666" points="757.5,-41 621.5,-41 621.5,0 757.5,0 757.5,-41"/>
<text text-anchor="start" x="629.5" y="-29" font-family="Helvetica,sans-Serif" font-size="10.00">/Users/nikolajbankejensen</text>
<text text-anchor="start" x="629.5" y="-18" font-family="Helvetica,sans-Serif" font-size="10.00">/Desktop/Kepler/src/testing</text>
<text text-anchor="middle" x="689.5" y="-7" font-family="Helvetica,sans-Serif" font-size="10.00">/test_functions.cpp</text>
</a>
</g>
</g>
<!-- Node6&#45;&gt;Node8 -->
<g id="edge8" class="edge">
<title>Node6&#45;&gt;Node8</title>
<path fill="none" stroke="#63b8ff" d="M586.6,-71.62C606.69,-61.83 629.45,-50.75 648.44,-41.49"/>
<polygon fill="#63b8ff" stroke="#63b8ff" points="585.18,-68.41 577.73,-75.94 588.25,-74.7 585.18,-68.41"/>
</g>
<!-- Node9 -->
<g id="node9" class="node">
<title>Node9</title>
<g id="a_node9"><a xlink:href="test__operators_8cpp.html" target="_top" xlink:title=" ">
<polygon fill="white" stroke="#666666" points="911.5,-41 775.5,-41 775.5,0 911.5,0 911.5,-41"/>
<text text-anchor="start" x="783.5" y="-29" font-family="Helvetica,sans-Serif" font-size="10.00">/Users/nikolajbankejensen</text>
<text text-anchor="start" x="783.5" y="-18" font-family="Helvetica,sans-Serif" font-size="10.00">/Desktop/Kepler/src/testing</text>
<text text-anchor="middle" x="843.5" y="-7" font-family="Helvetica,sans-Serif" font-size="10.00">/test_operators.cpp</text>
</a>
</g>
</g>
<!-- Node6&#45;&gt;Node9 -->
<g id="edge9" class="edge">
<title>Node6&#45;&gt;Node9</title>
<path fill="none" stroke="#63b8ff" d="M614.85,-77.69C659.44,-67.05 716.11,-53.43 766.5,-41 769.31,-40.31 772.18,-39.6 775.08,-38.87"/>
<polygon fill="#63b8ff" stroke="#63b8ff" points="614.17,-74.25 605.25,-79.98 615.79,-81.06 614.17,-74.25"/>
</g>
</g>
</svg>
