<?xml version="1.0" encoding="UTF-8" standalone="no"?>
<!DOCTYPE svg PUBLIC "-//W3C//DTD SVG 1.1//EN"
 "http://www.w3.org/Graphics/SVG/1.1/DTD/svg11.dtd">
<!-- Generated by graphviz version 7.1.0 (20230121.1956)
 -->
<!-- Title: src/core/execution.cpp Pages: 1 -->
<svg width="1676pt" height="555pt"
 viewBox="0.00 0.00 1675.50 555.00" xmlns="http://www.w3.org/2000/svg" xmlns:xlink="http://www.w3.org/1999/xlink">
<g id="graph0" class="graph" transform="scale(1 1) rotate(0) translate(4 551)">
<title>src/core/execution.cpp</title>
<!-- Node1 -->
<g id="node1" class="node">
<title>Node1</title>
<g id="a_node1"><a xlink:title=" ">
<polygon fill="#999999" stroke="#666666" points="1232,-547 1116,-547 1116,-528 1232,-528 1232,-547"/>
<text text-anchor="middle" x="1174" y="-535" font-family="Helvetica,sans-Serif" font-size="10.00">src/core/execution.cpp</text>
</a>
</g>
</g>
<!-- Node2 -->
<g id="node2" class="node">
<title>Node2</title>
<g id="a_node2"><a xlink:href="execution_8h.html" target="_top" xlink:title=" ">
<polygon fill="white" stroke="#666666" points="350.5,-492 283.5,-492 283.5,-473 350.5,-473 350.5,-492"/>
<text text-anchor="middle" x="317" y="-480" font-family="Helvetica,sans-Serif" font-size="10.00">execution.h</text>
</a>
</g>
</g>
<!-- Node1&#45;&gt;Node2 -->
<g id="edge1" class="edge">
<title>Node1&#45;&gt;Node2</title>
<path fill="none" stroke="#63b8ff" d="M1115.89,-533.8C988.03,-527.7 672.67,-511.84 409,-492 393.58,-490.84 376.72,-489.35 361.7,-487.94"/>
<polygon fill="#63b8ff" stroke="#63b8ff" points="362.42,-484.49 352.13,-487.03 361.75,-491.46 362.42,-484.49"/>
</g>
<!-- Node7 -->
<g id="node7" class="node">
<title>Node7</title>
<g id="a_node7"><a xlink:href="symbol__table_8h.html" target="_top" xlink:title=" ">
<polygon fill="white" stroke="#666666" points="411.5,-437 328.5,-437 328.5,-418 411.5,-418 411.5,-437"/>
<text text-anchor="middle" x="370" y="-425" font-family="Helvetica,sans-Serif" font-size="10.00">symbol_table.h</text>
</a>
</g>
</g>
<!-- Node1&#45;&gt;Node7 -->
<g id="edge94" class="edge">
<title>Node1&#45;&gt;Node7</title>
<path fill="none" stroke="#63b8ff" d="M1115.53,-528.65C965.12,-508.44 566.56,-454.9 422.71,-435.58"/>
<polygon fill="#63b8ff" stroke="#63b8ff" points="423.47,-432.15 413.09,-434.29 422.54,-439.09 423.47,-432.15"/>
</g>
<!-- Node26 -->
<g id="node26" class="node">
<title>Node26</title>
<g id="a_node26"><a xlink:title=" ">
<polygon fill="#e0e0e0" stroke="#999999" points="1667.5,-492 1616.5,-492 1616.5,-473 1667.5,-473 1667.5,-492"/>
<text text-anchor="middle" x="1642" y="-480" font-family="Helvetica,sans-Serif" font-size="10.00">numeric</text>
</a>
</g>
</g>
<!-- Node1&#45;&gt;Node26 -->
<g id="edge51" class="edge">
<title>Node1&#45;&gt;Node26</title>
<path fill="none" stroke="#63b8ff" d="M1232.41,-532.4C1315.04,-526.14 1470.65,-512.73 1602,-492 1603.01,-491.84 1604.04,-491.67 1605.07,-491.5"/>
<polygon fill="#63b8ff" stroke="#63b8ff" points="1605.59,-494.96 1614.77,-489.67 1604.29,-488.08 1605.59,-494.96"/>
</g>
<!-- Node27 -->
<g id="node27" class="node">
<title>Node27</title>
<g id="a_node27"><a xlink:href="literals_8h.html" target="_top" xlink:title=" ">
<polygon fill="white" stroke="#666666" points="187.5,-376.5 66.5,-376.5 66.5,-357.5 187.5,-357.5 187.5,-376.5"/>
<text text-anchor="middle" x="127" y="-364.5" font-family="Helvetica,sans-Serif" font-size="10.00">core/constants/literals.h</text>
</a>
</g>
</g>
<!-- Node1&#45;&gt;Node27 -->
<g id="edge52" class="edge">
<title>Node1&#45;&gt;Node27</title>
<path fill="none" stroke="#63b8ff" d="M1115.62,-535.62C928.7,-532.54 352.6,-520.77 274,-492 215.66,-470.65 164.47,-414.83 140.86,-385.93"/>
<polygon fill="#63b8ff" stroke="#63b8ff" points="143.6,-383.75 134.63,-378.11 138.12,-388.11 143.6,-383.75"/>
</g>
<!-- Node28 -->
<g id="node28" class="node">
<title>Node28</title>
<g id="a_node28"><a xlink:href="config_8h.html" target="_top" xlink:title=" ">
<polygon fill="white" stroke="#666666" points="1378.5,-244.5 1259.5,-244.5 1259.5,-225.5 1378.5,-225.5 1378.5,-244.5"/>
<text text-anchor="middle" x="1319" y="-232.5" font-family="Helvetica,sans-Serif" font-size="10.00">core/constants/config.h</text>
</a>
</g>
</g>
<!-- Node1&#45;&gt;Node28 -->
<g id="edge56" class="edge">
<title>Node1&#45;&gt;Node28</title>
<path fill="none" stroke="#63b8ff" d="M1232.22,-535.52C1305.25,-530.86 1421,-510.52 1421,-428.5 1421,-428.5 1421,-428.5 1421,-366 1421,-315.48 1372.74,-272.95 1342.61,-251.32"/>
<polygon fill="#63b8ff" stroke="#63b8ff" points="1344.64,-248.48 1334.43,-245.67 1340.66,-254.24 1344.64,-248.48"/>
</g>
<!-- Node29 -->
<g id="node29" class="node">
<title>Node29</title>
<g id="a_node29"><a xlink:href="file__reader_8h.html" target="_top" xlink:title=" ">
<polygon fill="white" stroke="#666666" points="1568.5,-129 1443.5,-129 1443.5,-110 1568.5,-110 1568.5,-129"/>
<text text-anchor="middle" x="1506" y="-117" font-family="Helvetica,sans-Serif" font-size="10.00">core/helpers/file_reader.h</text>
</a>
</g>
</g>
<!-- Node1&#45;&gt;Node29 -->
<g id="edge59" class="edge">
<title>Node1&#45;&gt;Node29</title>
<path fill="none" stroke="#63b8ff" d="M1232.44,-533.42C1346.56,-525.8 1588,-501.11 1588,-428.5 1588,-428.5 1588,-428.5 1588,-300 1588,-235.67 1543.88,-169.14 1520.37,-138.24"/>
<polygon fill="#63b8ff" stroke="#63b8ff" points="1523.13,-136.1 1514.21,-130.38 1517.62,-140.41 1523.13,-136.1"/>
</g>
<!-- Node30 -->
<g id="node30" class="node">
<title>Node30</title>
<g id="a_node30"><a xlink:href="tokenizer_8h.html" target="_top" xlink:title=" ">
<polygon fill="white" stroke="#666666" points="1521.5,-250 1396.5,-250 1396.5,-220 1521.5,-220 1521.5,-250"/>
<text text-anchor="start" x="1404.5" y="-238" font-family="Helvetica,sans-Serif" font-size="10.00">core/evaluation/tokenizer</text>
<text text-anchor="middle" x="1459" y="-227" font-family="Helvetica,sans-Serif" font-size="10.00">/tokenizer.h</text>
</a>
</g>
</g>
<!-- Node1&#45;&gt;Node30 -->
<g id="edge63" class="edge">
<title>Node1&#45;&gt;Node30</title>
<path fill="none" stroke="#63b8ff" d="M1232.24,-530.43C1292.49,-523.3 1381.77,-510.1 1411,-492 1441.08,-473.37 1459,-463.88 1459,-428.5 1459,-428.5 1459,-428.5 1459,-366 1459,-329.76 1459,-287.84 1459,-261.62"/>
<polygon fill="#63b8ff" stroke="#63b8ff" points="1462.5,-261.94 1459,-251.94 1455.5,-261.94 1462.5,-261.94"/>
</g>
<!-- Node31 -->
<g id="node31" class="node">
<title>Node31</title>
<g id="a_node31"><a xlink:href="parser_8h.html" target="_top" xlink:title=" ">
<polygon fill="white" stroke="#666666" points="1230.5,-382 1117.5,-382 1117.5,-352 1230.5,-352 1230.5,-382"/>
<text text-anchor="start" x="1125.5" y="-370" font-family="Helvetica,sans-Serif" font-size="10.00">core/evaluation/parser</text>
<text text-anchor="middle" x="1174" y="-359" font-family="Helvetica,sans-Serif" font-size="10.00">/parser.h</text>
</a>
</g>
</g>
<!-- Node1&#45;&gt;Node31 -->
<g id="edge66" class="edge">
<title>Node1&#45;&gt;Node31</title>
<path fill="none" stroke="#63b8ff" d="M1174,-527.91C1174,-503.4 1174,-432.41 1174,-393.78"/>
<polygon fill="#63b8ff" stroke="#63b8ff" points="1177.5,-393.99 1174,-383.99 1170.5,-393.99 1177.5,-393.99"/>
</g>
<!-- Node33 -->
<g id="node33" class="node">
<title>Node33</title>
<g id="a_node33"><a xlink:href="interpreter_8h.html" target="_top" xlink:title=" ">
<polygon fill="white" stroke="#666666" points="853.5,-437 716.5,-437 716.5,-418 853.5,-418 853.5,-437"/>
<text text-anchor="middle" x="785" y="-425" font-family="Helvetica,sans-Serif" font-size="10.00">core/evaluation/interpreter.h</text>
</a>
</g>
</g>
<!-- Node1&#45;&gt;Node33 -->
<g id="edge74" class="edge">
<title>Node1&#45;&gt;Node33</title>
<path fill="none" stroke="#63b8ff" d="M1141.84,-527.57C1072.09,-508.21 906.89,-462.34 828.17,-440.49"/>
<polygon fill="#63b8ff" stroke="#63b8ff" points="829.23,-437.15 818.66,-437.85 827.36,-443.89 829.23,-437.15"/>
</g>
<!-- Node3 -->
<g id="node3" class="node">
<title>Node3</title>
<g id="a_node3"><a xlink:title=" ">
<polygon fill="#e0e0e0" stroke="#999999" points="158.5,-19 117.5,-19 117.5,0 158.5,0 158.5,-19"/>
<text text-anchor="middle" x="138" y="-7" font-family="Helvetica,sans-Serif" font-size="10.00">string</text>
</a>
</g>
</g>
<!-- Node2&#45;&gt;Node3 -->
<g id="edge2" class="edge">
<title>Node2&#45;&gt;Node3</title>
<path fill="none" stroke="#63b8ff" d="M283.08,-476.73C201.3,-464.3 0,-427.63 0,-368 0,-368 0,-368 0,-118.5 0,-64.83 65.53,-33.84 106.28,-19.76"/>
<polygon fill="#63b8ff" stroke="#63b8ff" points="107.19,-23.15 115.6,-16.71 105.01,-16.5 107.19,-23.15"/>
</g>
<!-- Node4 -->
<g id="node4" class="node">
<title>Node4</title>
<g id="a_node4"><a xlink:href="datatypes_8h.html" target="_top" xlink:title=" ">
<polygon fill="white" stroke="#666666" points="1027,-74 959,-74 959,-55 1027,-55 1027,-74"/>
<text text-anchor="middle" x="993" y="-62" font-family="Helvetica,sans-Serif" font-size="10.00">datatypes.h</text>
</a>
</g>
</g>
<!-- Node2&#45;&gt;Node4 -->
<g id="edge3" class="edge">
<title>Node2&#45;&gt;Node4</title>
<path fill="none" stroke="#63b8ff" d="M309.52,-472.58C290.25,-448.96 239.25,-382.03 222,-316 198.01,-224.14 302.02,-123 323,-110 380.05,-74.65 859.17,-80.23 926,-74 932.89,-73.36 940.16,-72.56 947.28,-71.71"/>
<polygon fill="#63b8ff" stroke="#63b8ff" points="947.62,-75.2 957.12,-70.49 946.76,-68.25 947.62,-75.2"/>
</g>
<!-- Node2&#45;&gt;Node7 -->
<g id="edge7" class="edge">
<title>Node2&#45;&gt;Node7</title>
<path fill="none" stroke="#63b8ff" d="M325.75,-472.75C333.15,-465.35 343.96,-454.54 353.05,-445.45"/>
<polygon fill="#63b8ff" stroke="#63b8ff" points="355.39,-448.06 359.99,-438.51 350.44,-443.11 355.39,-448.06"/>
</g>
<!-- Node4&#45;&gt;Node3 -->
<g id="edge5" class="edge">
<title>Node4&#45;&gt;Node3</title>
<path fill="none" stroke="#63b8ff" d="M958.62,-58.67C948.16,-57.33 936.63,-55.97 926,-55 633,-28.17 277.14,-15.04 170,-11.51"/>
<polygon fill="#63b8ff" stroke="#63b8ff" points="170.36,-8.02 160.25,-11.19 170.13,-15.01 170.36,-8.02"/>
</g>
<!-- Node5 -->
<g id="node5" class="node">
<title>Node5</title>
<g id="a_node5"><a xlink:title=" ">
<polygon fill="#e0e0e0" stroke="#999999" points="1528,-19 1484,-19 1484,0 1528,0 1528,-19"/>
<text text-anchor="middle" x="1506" y="-7" font-family="Helvetica,sans-Serif" font-size="10.00">vector</text>
</a>
</g>
</g>
<!-- Node4&#45;&gt;Node5 -->
<g id="edge4" class="edge">
<title>Node4&#45;&gt;Node5</title>
<path fill="none" stroke="#63b8ff" d="M1027.46,-59.94C1121.18,-50.26 1379.92,-23.53 1472.51,-13.96"/>
<polygon fill="#63b8ff" stroke="#63b8ff" points="1472.6,-17.47 1482.19,-12.96 1471.88,-10.51 1472.6,-17.47"/>
</g>
<!-- Node6 -->
<g id="node6" class="node">
<title>Node6</title>
<g id="a_node6"><a xlink:title=" ">
<polygon fill="#e0e0e0" stroke="#999999" points="1019.5,-19 966.5,-19 966.5,0 1019.5,0 1019.5,-19"/>
<text text-anchor="middle" x="993" y="-7" font-family="Helvetica,sans-Serif" font-size="10.00">complex</text>
</a>
</g>
</g>
<!-- Node4&#45;&gt;Node6 -->
<g id="edge6" class="edge">
<title>Node4&#45;&gt;Node6</title>
<path fill="none" stroke="#63b8ff" d="M993,-54.75C993,-48.27 993,-39.16 993,-30.9"/>
<polygon fill="#63b8ff" stroke="#63b8ff" points="996.5,-30.96 993,-20.96 989.5,-30.96 996.5,-30.96"/>
</g>
<!-- Node7&#45;&gt;Node3 -->
<g id="edge9" class="edge">
<title>Node7&#45;&gt;Node3</title>
<path fill="none" stroke="#63b8ff" d="M328.1,-426.2C252.12,-424.77 95.88,-417.46 57,-382 30,-357.37 38,-338.54 38,-302 38,-302 38,-302 38,-118.5 38,-75.76 80.7,-42.76 110.29,-25.02"/>
<polygon fill="#63b8ff" stroke="#63b8ff" points="111.87,-28.15 118.81,-20.15 108.39,-22.08 111.87,-28.15"/>
</g>
<!-- Node8 -->
<g id="node8" class="node">
<title>Node8</title>
<g id="a_node8"><a xlink:title=" ">
<polygon fill="#e0e0e0" stroke="#999999" points="266.5,-310.5 231.5,-310.5 231.5,-291.5 266.5,-291.5 266.5,-310.5"/>
<text text-anchor="middle" x="249" y="-298.5" font-family="Helvetica,sans-Serif" font-size="10.00">map</text>
</a>
</g>
</g>
<!-- Node7&#45;&gt;Node8 -->
<g id="edge8" class="edge">
<title>Node7&#45;&gt;Node8</title>
<path fill="none" stroke="#63b8ff" d="M339.73,-417.58C320.68,-410.6 296.79,-399.16 281,-382 265.43,-365.08 257.02,-339.64 252.79,-322.01"/>
<polygon fill="#63b8ff" stroke="#63b8ff" points="256.22,-321.32 250.71,-312.27 249.37,-322.78 256.22,-321.32"/>
</g>
<!-- Node9 -->
<g id="node9" class="node">
<title>Node9</title>
<g id="a_node9"><a xlink:href="array_8h.html" target="_top" xlink:title=" ">
<polygon fill="white" stroke="#666666" points="811.5,-129 744.5,-129 744.5,-110 811.5,-110 811.5,-129"/>
<text text-anchor="middle" x="778" y="-117" font-family="Helvetica,sans-Serif" font-size="10.00">core/array.h</text>
</a>
</g>
</g>
<!-- Node7&#45;&gt;Node9 -->
<g id="edge10" class="edge">
<title>Node7&#45;&gt;Node9</title>
<path fill="none" stroke="#63b8ff" d="M384.25,-417.65C397.02,-409.34 415.86,-396.1 430,-382 515.24,-297.03 491.47,-231.18 592,-165 603.8,-157.24 682.06,-140.14 733.24,-129.54"/>
<polygon fill="#63b8ff" stroke="#63b8ff" points="733.78,-133 742.87,-127.56 732.36,-126.15 733.78,-133"/>
</g>
<!-- Node11 -->
<g id="node11" class="node">
<title>Node11</title>
<g id="a_node11"><a xlink:href="ast_8h.html" target="_top" xlink:title=" ">
<polygon fill="white" stroke="#666666" points="690.5,-310.5 583.5,-310.5 583.5,-291.5 690.5,-291.5 690.5,-310.5"/>
<text text-anchor="middle" x="637" y="-298.5" font-family="Helvetica,sans-Serif" font-size="10.00">core/evaluation/ast.h</text>
</a>
</g>
</g>
<!-- Node7&#45;&gt;Node11 -->
<g id="edge13" class="edge">
<title>Node7&#45;&gt;Node11</title>
<path fill="none" stroke="#63b8ff" d="M412,-417.9C443.05,-410.66 485.85,-398.77 521,-382 557.74,-364.47 595.72,-335.94 617.81,-318.1"/>
<polygon fill="#63b8ff" stroke="#63b8ff" points="619.84,-320.97 625.35,-311.92 615.4,-315.56 619.84,-320.97"/>
</g>
<!-- Node22 -->
<g id="node22" class="node">
<title>Node22</title>
<g id="a_node22"><a xlink:href="error_8h.html" target="_top" xlink:title=" ">
<polygon fill="white" stroke="#666666" points="391,-184 347,-184 347,-165 391,-165 391,-184"/>
<text text-anchor="middle" x="369" y="-172" font-family="Helvetica,sans-Serif" font-size="10.00">error.h</text>
</a>
</g>
</g>
<!-- Node7&#45;&gt;Node22 -->
<g id="edge38" class="edge">
<title>Node7&#45;&gt;Node22</title>
<path fill="none" stroke="#63b8ff" d="M366.18,-417.66C354.22,-388.73 319.53,-294.44 341,-220 343.74,-210.49 349.19,-201.05 354.55,-193.32"/>
<polygon fill="#63b8ff" stroke="#63b8ff" points="357.21,-195.61 360.42,-185.51 351.62,-191.41 357.21,-195.61"/>
</g>
<!-- Node25 -->
<g id="node25" class="node">
<title>Node25</title>
<g id="a_node25"><a xlink:href="symbol_8h.html" target="_top" xlink:title=" ">
<polygon fill="white" stroke="#666666" points="421,-376.5 365,-376.5 365,-357.5 421,-357.5 421,-376.5"/>
<text text-anchor="middle" x="393" y="-364.5" font-family="Helvetica,sans-Serif" font-size="10.00">symbol.h</text>
</a>
</g>
</g>
<!-- Node7&#45;&gt;Node25 -->
<g id="edge46" class="edge">
<title>Node7&#45;&gt;Node25</title>
<path fill="none" stroke="#63b8ff" d="M373.39,-417.87C376.55,-409.83 381.37,-397.57 385.44,-387.22"/>
<polygon fill="#63b8ff" stroke="#63b8ff" points="388.64,-388.66 389.04,-378.08 382.12,-386.1 388.64,-388.66"/>
</g>
<!-- Node9&#45;&gt;Node4 -->
<g id="edge11" class="edge">
<title>Node9&#45;&gt;Node4</title>
<path fill="none" stroke="#63b8ff" d="M811.59,-110.22C848.19,-101.2 906.93,-86.72 947.61,-76.69"/>
<polygon fill="#63b8ff" stroke="#63b8ff" points="948.23,-80.14 957.11,-74.35 946.56,-73.34 948.23,-80.14"/>
</g>
<!-- Node10 -->
<g id="node10" class="node">
<title>Node10</title>
<g id="a_node10"><a xlink:title=" ">
<polygon fill="#e0e0e0" stroke="#999999" points="801,-74 755,-74 755,-55 801,-55 801,-74"/>
<text text-anchor="middle" x="778" y="-62" font-family="Helvetica,sans-Serif" font-size="10.00">variant</text>
</a>
</g>
</g>
<!-- Node9&#45;&gt;Node10 -->
<g id="edge12" class="edge">
<title>Node9&#45;&gt;Node10</title>
<path fill="none" stroke="#63b8ff" d="M778,-109.75C778,-103.27 778,-94.16 778,-85.9"/>
<polygon fill="#63b8ff" stroke="#63b8ff" points="781.5,-85.96 778,-75.96 774.5,-85.96 781.5,-85.96"/>
</g>
<!-- Node11&#45;&gt;Node3 -->
<g id="edge14" class="edge">
<title>Node11&#45;&gt;Node3</title>
<path fill="none" stroke="#63b8ff" d="M583.08,-295.38C529.55,-289.46 445.9,-276.61 378,-250 240.1,-195.95 166.95,-203.47 95,-74 85.63,-57.13 100.65,-39.01 115.45,-26.46"/>
<polygon fill="#63b8ff" stroke="#63b8ff" points="117.51,-29.29 123.22,-20.37 113.19,-23.78 117.51,-29.29"/>
</g>
<!-- Node11&#45;&gt;Node4 -->
<g id="edge30" class="edge">
<title>Node11&#45;&gt;Node4</title>
<path fill="none" stroke="#63b8ff" d="M622.44,-291.02C578.02,-262.55 450.58,-172.57 508,-110 539.52,-75.65 879.65,-78.93 926,-74 932.88,-73.27 940.15,-72.42 947.26,-71.55"/>
<polygon fill="#63b8ff" stroke="#63b8ff" points="947.61,-75.04 957.1,-70.32 946.74,-68.09 947.61,-75.04"/>
</g>
<!-- Node11&#45;&gt;Node9 -->
<g id="edge16" class="edge">
<title>Node11&#45;&gt;Node9</title>
<path fill="none" stroke="#63b8ff" d="M629.61,-291.12C622.23,-281.63 611.38,-265.8 607,-250 596.92,-213.59 583.89,-194.89 607,-165 610.95,-159.89 683.68,-142.25 733.01,-130.77"/>
<polygon fill="#63b8ff" stroke="#63b8ff" points="733.64,-134.22 742.59,-128.56 732.06,-127.4 733.64,-134.22"/>
</g>
<!-- Node12 -->
<g id="node12" class="node">
<title>Node12</title>
<g id="a_node12"><a xlink:title=" ">
<polygon fill="#e0e0e0" stroke="#999999" points="439,-19 385,-19 385,0 439,0 439,-19"/>
<text text-anchor="middle" x="412" y="-7" font-family="Helvetica,sans-Serif" font-size="10.00">iostream</text>
</a>
</g>
</g>
<!-- Node11&#45;&gt;Node12 -->
<g id="edge15" class="edge">
<title>Node11&#45;&gt;Node12</title>
<path fill="none" stroke="#63b8ff" d="M583.13,-293.85C516.03,-283.29 402.39,-255.45 338,-184 315.53,-159.07 311.03,-141.35 323,-110 336.47,-74.73 368.83,-44.06 390.59,-26.42"/>
<polygon fill="#63b8ff" stroke="#63b8ff" points="392.56,-29.32 398.27,-20.4 388.24,-23.81 392.56,-29.32"/>
</g>
<!-- Node13 -->
<g id="node13" class="node">
<title>Node13</title>
<g id="a_node13"><a xlink:href="token_8h.html" target="_top" xlink:title=" ">
<polygon fill="white" stroke="#666666" points="964.5,-184 893.5,-184 893.5,-165 964.5,-165 964.5,-184"/>
<text text-anchor="middle" x="929" y="-172" font-family="Helvetica,sans-Serif" font-size="10.00">core/token.h</text>
</a>
</g>
</g>
<!-- Node11&#45;&gt;Node13 -->
<g id="edge17" class="edge">
<title>Node11&#45;&gt;Node13</title>
<path fill="none" stroke="#63b8ff" d="M645.29,-291.16C663.95,-271.34 708.32,-224.7 717,-220 768.92,-191.9 836.87,-181.53 881.68,-177.71"/>
<polygon fill="#63b8ff" stroke="#63b8ff" points="881.9,-181.2 891.6,-176.95 881.36,-174.22 881.9,-181.2"/>
</g>
<!-- Node19 -->
<g id="node19" class="node">
<title>Node19</title>
<g id="a_node19"><a xlink:href="position_8h.html" target="_top" xlink:title=" ">
<polygon fill="white" stroke="#666666" points="888.5,-129 829.5,-129 829.5,-110 888.5,-110 888.5,-129"/>
<text text-anchor="middle" x="859" y="-117" font-family="Helvetica,sans-Serif" font-size="10.00">position.h</text>
</a>
</g>
</g>
<!-- Node11&#45;&gt;Node19 -->
<g id="edge37" class="edge">
<title>Node11&#45;&gt;Node19</title>
<path fill="none" stroke="#63b8ff" d="M636.36,-291.26C635.13,-267.36 635.2,-200.29 671,-165 672.33,-163.69 763.02,-142.61 817.94,-129.94"/>
<polygon fill="#63b8ff" stroke="#63b8ff" points="818.64,-133.37 827.6,-127.72 817.06,-126.55 818.64,-133.37"/>
</g>
<!-- Node20 -->
<g id="node20" class="node">
<title>Node20</title>
<g id="a_node20"><a xlink:title=" ">
<polygon fill="#e0e0e0" stroke="#999999" points="732,-184 680,-184 680,-165 732,-165 732,-184"/>
<text text-anchor="middle" x="706" y="-172" font-family="Helvetica,sans-Serif" font-size="10.00">memory</text>
</a>
</g>
</g>
<!-- Node11&#45;&gt;Node20 -->
<g id="edge31" class="edge">
<title>Node11&#45;&gt;Node20</title>
<path fill="none" stroke="#63b8ff" d="M641.96,-291.05C653.15,-270.86 680.55,-221.43 695.63,-194.22"/>
<polygon fill="#63b8ff" stroke="#63b8ff" points="698.56,-196.14 700.35,-185.7 692.44,-192.75 698.56,-196.14"/>
</g>
<!-- Node21 -->
<g id="node21" class="node">
<title>Node21</title>
<g id="a_node21"><a xlink:href="operation_8h.html" target="_top" xlink:title=" ">
<polygon fill="white" stroke="#666666" points="856.5,-250 725.5,-250 725.5,-220 856.5,-220 856.5,-250"/>
<text text-anchor="start" x="733.5" y="-238" font-family="Helvetica,sans-Serif" font-size="10.00">core/evaluation/operations</text>
<text text-anchor="middle" x="791" y="-227" font-family="Helvetica,sans-Serif" font-size="10.00">/operation.h</text>
</a>
</g>
</g>
<!-- Node11&#45;&gt;Node21 -->
<g id="edge32" class="edge">
<title>Node11&#45;&gt;Node21</title>
<path fill="none" stroke="#63b8ff" d="M658.41,-291.1C680.94,-281.74 717.05,-266.73 745.9,-254.74"/>
<polygon fill="#63b8ff" stroke="#63b8ff" points="746.87,-258.13 754.77,-251.06 744.19,-251.66 746.87,-258.13"/>
</g>
<!-- Node13&#45;&gt;Node4 -->
<g id="edge20" class="edge">
<title>Node13&#45;&gt;Node4</title>
<path fill="none" stroke="#63b8ff" d="M934.24,-164.66C944.6,-147.18 967.91,-107.84 981.86,-84.3"/>
<polygon fill="#63b8ff" stroke="#63b8ff" points="984.83,-86.15 986.92,-75.76 978.81,-82.58 984.83,-86.15"/>
</g>
<!-- Node13&#45;&gt;Node9 -->
<g id="edge22" class="edge">
<title>Node13&#45;&gt;Node9</title>
<path fill="none" stroke="#63b8ff" d="M903.38,-164.51C878.91,-155.92 841.76,-142.88 814.25,-133.22"/>
<polygon fill="#63b8ff" stroke="#63b8ff" points="815.51,-129.96 804.92,-129.95 813.19,-136.56 815.51,-129.96"/>
</g>
<!-- Node14 -->
<g id="node14" class="node">
<title>Node14</title>
<g id="a_node14"><a xlink:href="token__type_8h.html" target="_top" xlink:title=" ">
<polygon fill="white" stroke="#666666" points="916.5,-74 843.5,-74 843.5,-55 916.5,-55 916.5,-74"/>
<text text-anchor="middle" x="880" y="-62" font-family="Helvetica,sans-Serif" font-size="10.00">token_type.h</text>
</a>
</g>
</g>
<!-- Node13&#45;&gt;Node14 -->
<g id="edge18" class="edge">
<title>Node13&#45;&gt;Node14</title>
<path fill="none" stroke="#63b8ff" d="M924.99,-164.66C917.09,-147.26 899.37,-108.19 888.68,-84.62"/>
<polygon fill="#63b8ff" stroke="#63b8ff" points="892.01,-83.5 884.69,-75.84 885.64,-86.39 892.01,-83.5"/>
</g>
<!-- Node15 -->
<g id="node15" class="node">
<title>Node15</title>
<g id="a_node15"><a xlink:title=" ">
<polygon fill="#e0e0e0" stroke="#999999" points="599.5,-129 516.5,-129 516.5,-110 599.5,-110 599.5,-129"/>
<text text-anchor="middle" x="558" y="-117" font-family="Helvetica,sans-Serif" font-size="10.00">uni_algo/conv.h</text>
</a>
</g>
</g>
<!-- Node13&#45;&gt;Node15 -->
<g id="edge21" class="edge">
<title>Node13&#45;&gt;Node15</title>
<path fill="none" stroke="#63b8ff" d="M893.44,-168.87C836.29,-161.37 720.18,-145.84 610.96,-129.26"/>
<polygon fill="#63b8ff" stroke="#63b8ff" points="611.64,-125.83 601.23,-127.78 610.59,-132.75 611.64,-125.83"/>
</g>
<!-- Node16 -->
<g id="node16" class="node">
<title>Node16</title>
<g id="a_node16"><a xlink:href="conversion_8h.html" target="_top" xlink:title=" ">
<polygon fill="white" stroke="#666666" points="1349,-129 1221,-129 1221,-110 1349,-110 1349,-129"/>
<text text-anchor="middle" x="1285" y="-117" font-family="Helvetica,sans-Serif" font-size="10.00">core/helpers/conversion.h</text>
</a>
</g>
</g>
<!-- Node13&#45;&gt;Node16 -->
<g id="edge23" class="edge">
<title>Node13&#45;&gt;Node16</title>
<path fill="none" stroke="#63b8ff" d="M964.76,-168.18C1022.71,-159.55 1138.2,-142.36 1213.49,-131.15"/>
<polygon fill="#63b8ff" stroke="#63b8ff" points="1213.88,-134.63 1223.26,-129.69 1212.85,-127.7 1213.88,-134.63"/>
</g>
<!-- Node17 -->
<g id="node17" class="node">
<title>Node17</title>
<g id="a_node17"><a xlink:title=" ">
<polygon fill="#e0e0e0" stroke="#999999" points="658,-129 618,-129 618,-110 658,-110 658,-129"/>
<text text-anchor="middle" x="638" y="-117" font-family="Helvetica,sans-Serif" font-size="10.00">utility</text>
</a>
</g>
</g>
<!-- Node13&#45;&gt;Node17 -->
<g id="edge27" class="edge">
<title>Node13&#45;&gt;Node17</title>
<path fill="none" stroke="#63b8ff" d="M893.14,-168.76C844.56,-162.06 754.96,-148.65 669.42,-129.32"/>
<polygon fill="#63b8ff" stroke="#63b8ff" points="670.21,-125.91 659.68,-127.09 668.64,-132.74 670.21,-125.91"/>
</g>
<!-- Node18 -->
<g id="node18" class="node">
<title>Node18</title>
<g id="a_node18"><a xlink:title=" ">
<polygon fill="#e0e0e0" stroke="#999999" points="726,-129 676,-129 676,-110 726,-110 726,-129"/>
<text text-anchor="middle" x="701" y="-117" font-family="Helvetica,sans-Serif" font-size="10.00">optional</text>
</a>
</g>
</g>
<!-- Node13&#45;&gt;Node18 -->
<g id="edge28" class="edge">
<title>Node13&#45;&gt;Node18</title>
<path fill="none" stroke="#63b8ff" d="M893.04,-165.34C856.46,-157.01 797.83,-143.58 737.17,-129.25"/>
<polygon fill="#63b8ff" stroke="#63b8ff" points="738.24,-125.91 727.7,-127.01 736.62,-132.72 738.24,-125.91"/>
</g>
<!-- Node13&#45;&gt;Node19 -->
<g id="edge29" class="edge">
<title>Node13&#45;&gt;Node19</title>
<path fill="none" stroke="#63b8ff" d="M917.13,-164.51C906.91,-156.77 891.93,-145.43 879.74,-136.2"/>
<polygon fill="#63b8ff" stroke="#63b8ff" points="881.99,-133.52 871.91,-130.27 877.77,-139.1 881.99,-133.52"/>
</g>
<!-- Node14&#45;&gt;Node12 -->
<g id="edge19" class="edge">
<title>Node14&#45;&gt;Node12</title>
<path fill="none" stroke="#63b8ff" d="M843.31,-58.98C832.58,-57.67 820.82,-56.26 810,-55 677.86,-39.59 520.9,-22.35 450.05,-14.63"/>
<polygon fill="#63b8ff" stroke="#63b8ff" points="450.86,-11.2 440.54,-13.6 450.1,-18.16 450.86,-11.2"/>
</g>
<!-- Node16&#45;&gt;Node3 -->
<g id="edge24" class="edge">
<title>Node16&#45;&gt;Node3</title>
<path fill="none" stroke="#63b8ff" d="M1257.37,-109.51C1211.81,-95.13 1117.83,-67.33 1036,-55 949.03,-41.89 319.08,-17.37 169.7,-11.69"/>
<polygon fill="#63b8ff" stroke="#63b8ff" points="170.28,-8.21 160.16,-11.33 170.02,-15.21 170.28,-8.21"/>
</g>
<!-- Node16&#45;&gt;Node4 -->
<g id="edge25" class="edge">
<title>Node16&#45;&gt;Node4</title>
<path fill="none" stroke="#63b8ff" d="M1235.47,-109.51C1180.29,-99.49 1091.83,-83.44 1038.39,-73.74"/>
<polygon fill="#63b8ff" stroke="#63b8ff" points="1039.17,-70.32 1028.71,-71.98 1037.92,-77.21 1039.17,-70.32"/>
</g>
<!-- Node16&#45;&gt;Node14 -->
<g id="edge26" class="edge">
<title>Node16&#45;&gt;Node14</title>
<path fill="none" stroke="#63b8ff" d="M1220.83,-110.1C1139.42,-99.45 1000.89,-81.32 928.03,-71.79"/>
<polygon fill="#63b8ff" stroke="#63b8ff" points="928.8,-68.36 918.43,-70.53 927.89,-75.3 928.8,-68.36"/>
</g>
<!-- Node21&#45;&gt;Node4 -->
<g id="edge33" class="edge">
<title>Node21&#45;&gt;Node4</title>
<path fill="none" stroke="#63b8ff" d="M856.82,-223.71C902.62,-215.17 958.21,-201.59 974,-184 998.29,-156.94 998.29,-111.71 995.83,-85.65"/>
<polygon fill="#63b8ff" stroke="#63b8ff" points="999.31,-85.29 994.66,-75.77 992.36,-86.11 999.31,-85.29"/>
</g>
<!-- Node21&#45;&gt;Node9 -->
<g id="edge34" class="edge">
<title>Node21&#45;&gt;Node9</title>
<path fill="none" stroke="#63b8ff" d="M789.35,-219.63C787.06,-199.59 782.89,-163.17 780.29,-140.49"/>
<polygon fill="#63b8ff" stroke="#63b8ff" points="783.79,-140.27 779.17,-130.73 776.83,-141.07 783.79,-140.27"/>
</g>
<!-- Node21&#45;&gt;Node13 -->
<g id="edge35" class="edge">
<title>Node21&#45;&gt;Node13</title>
<path fill="none" stroke="#63b8ff" d="M825.11,-219.54C847.27,-210.15 875.94,-197.99 897.55,-188.83"/>
<polygon fill="#63b8ff" stroke="#63b8ff" points="898.9,-192.06 906.74,-184.94 896.17,-185.62 898.9,-192.06"/>
</g>
<!-- Node21&#45;&gt;Node20 -->
<g id="edge36" class="edge">
<title>Node21&#45;&gt;Node20</title>
<path fill="none" stroke="#63b8ff" d="M769.99,-219.54C757.14,-210.7 740.73,-199.4 727.75,-190.47"/>
<polygon fill="#63b8ff" stroke="#63b8ff" points="730.07,-187.82 719.85,-185.03 726.11,-193.59 730.07,-187.82"/>
</g>
<!-- Node22&#45;&gt;Node4 -->
<g id="edge44" class="edge">
<title>Node22&#45;&gt;Node4</title>
<path fill="none" stroke="#63b8ff" d="M379.8,-164.58C397.95,-150.17 436.28,-122.15 474,-110 665.81,-48.2 725.54,-94.69 926,-74 932.88,-73.29 940.15,-72.46 947.26,-71.59"/>
<polygon fill="#63b8ff" stroke="#63b8ff" points="947.61,-75.08 957.1,-70.36 946.75,-68.13 947.61,-75.08"/>
</g>
<!-- Node22&#45;&gt;Node12 -->
<g id="edge39" class="edge">
<title>Node22&#45;&gt;Node12</title>
<path fill="none" stroke="#63b8ff" d="M374.9,-164.7C380.45,-156.01 388.55,-142.13 393,-129 404.29,-95.7 408.95,-54.81 410.82,-30.81"/>
<polygon fill="#63b8ff" stroke="#63b8ff" points="414.31,-31.09 411.49,-20.88 407.32,-30.62 414.31,-31.09"/>
</g>
<!-- Node22&#45;&gt;Node15 -->
<g id="edge45" class="edge">
<title>Node22&#45;&gt;Node15</title>
<path fill="none" stroke="#63b8ff" d="M391.42,-167.21C421.86,-158.68 476.86,-143.25 515.3,-132.47"/>
<polygon fill="#63b8ff" stroke="#63b8ff" points="516.02,-135.91 524.71,-129.84 514.13,-129.17 516.02,-135.91"/>
</g>
<!-- Node22&#45;&gt;Node17 -->
<g id="edge41" class="edge">
<title>Node22&#45;&gt;Node17</title>
<path fill="none" stroke="#63b8ff" d="M391.27,-169.51C441.49,-160.48 562.16,-138.69 606.6,-129.22"/>
<polygon fill="#63b8ff" stroke="#63b8ff" points="607.32,-132.65 616.31,-127.04 605.79,-125.82 607.32,-132.65"/>
</g>
<!-- Node23 -->
<g id="node23" class="node">
<title>Node23</title>
<g id="a_node23"><a xlink:title=" ">
<polygon fill="#e0e0e0" stroke="#999999" points="384,-129 332,-129 332,-110 384,-110 384,-129"/>
<text text-anchor="middle" x="358" y="-117" font-family="Helvetica,sans-Serif" font-size="10.00">sstream</text>
</a>
</g>
</g>
<!-- Node22&#45;&gt;Node23 -->
<g id="edge40" class="edge">
<title>Node22&#45;&gt;Node23</title>
<path fill="none" stroke="#63b8ff" d="M367.18,-164.75C365.82,-158.19 363.9,-148.95 362.17,-140.6"/>
<polygon fill="#63b8ff" stroke="#63b8ff" points="365.62,-140 360.16,-130.92 358.77,-141.43 365.62,-140"/>
</g>
<!-- Node24 -->
<g id="node24" class="node">
<title>Node24</title>
<g id="a_node24"><a xlink:href="error__type_8h.html" target="_top" xlink:title=" ">
<polygon fill="white" stroke="#666666" points="172,-74 104,-74 104,-55 172,-55 172,-74"/>
<text text-anchor="middle" x="138" y="-62" font-family="Helvetica,sans-Serif" font-size="10.00">error_type.h</text>
</a>
</g>
</g>
<!-- Node22&#45;&gt;Node24 -->
<g id="edge42" class="edge">
<title>Node22&#45;&gt;Node24</title>
<path fill="none" stroke="#63b8ff" d="M350.1,-164.66C309.91,-145.87 215.73,-101.84 167.54,-79.31"/>
<polygon fill="#63b8ff" stroke="#63b8ff" points="169.08,-76.17 158.54,-75.1 166.11,-82.51 169.08,-76.17"/>
</g>
<!-- Node24&#45;&gt;Node3 -->
<g id="edge43" class="edge">
<title>Node24&#45;&gt;Node3</title>
<path fill="none" stroke="#63b8ff" d="M138,-54.75C138,-48.27 138,-39.16 138,-30.9"/>
<polygon fill="#63b8ff" stroke="#63b8ff" points="141.5,-30.96 138,-20.96 134.5,-30.96 141.5,-30.96"/>
</g>
<!-- Node25&#45;&gt;Node8 -->
<g id="edge47" class="edge">
<title>Node25&#45;&gt;Node8</title>
<path fill="none" stroke="#63b8ff" d="M372.98,-357.1C348.01,-346 305.18,-326.97 276.98,-314.43"/>
<polygon fill="#63b8ff" stroke="#63b8ff" points="278.54,-311.3 267.98,-310.43 275.69,-317.69 278.54,-311.3"/>
</g>
<!-- Node25&#45;&gt;Node9 -->
<g id="edge49" class="edge">
<title>Node25&#45;&gt;Node9</title>
<path fill="none" stroke="#63b8ff" d="M396.09,-357.32C407.87,-325.55 453.33,-214.83 531,-165 605.54,-117.18 641.7,-143.71 733.09,-129.17"/>
<polygon fill="#63b8ff" stroke="#63b8ff" points="733.46,-132.66 742.72,-127.51 732.27,-125.76 733.46,-132.66"/>
</g>
<!-- Node25&#45;&gt;Node11 -->
<g id="edge50" class="edge">
<title>Node25&#45;&gt;Node11</title>
<path fill="none" stroke="#63b8ff" d="M421.47,-358.53C463.34,-347.55 541.94,-326.93 591.76,-313.87"/>
<polygon fill="#63b8ff" stroke="#63b8ff" points="592.6,-317.26 601.39,-311.34 590.83,-310.49 592.6,-317.26"/>
</g>
<!-- Node25&#45;&gt;Node18 -->
<g id="edge48" class="edge">
<title>Node25&#45;&gt;Node18</title>
<path fill="none" stroke="#63b8ff" d="M392.72,-357.05C392.26,-325.3 395.29,-217.09 455,-165 524.34,-104.5 569.98,-145.31 664.63,-129.16"/>
<polygon fill="#63b8ff" stroke="#63b8ff" points="665.14,-132.62 674.31,-127.31 663.83,-125.75 665.14,-132.62"/>
</g>
<!-- Node27&#45;&gt;Node4 -->
<g id="edge53" class="edge">
<title>Node27&#45;&gt;Node4</title>
<path fill="none" stroke="#63b8ff" d="M129.07,-357.11C138.74,-317.92 183.57,-160.4 290,-110 417.94,-49.41 785.03,-86.92 926,-74 932.89,-73.37 940.16,-72.58 947.28,-71.73"/>
<polygon fill="#63b8ff" stroke="#63b8ff" points="947.62,-75.22 957.12,-70.51 946.76,-68.27 947.62,-75.22"/>
</g>
<!-- Node27&#45;&gt;Node8 -->
<g id="edge55" class="edge">
<title>Node27&#45;&gt;Node8</title>
<path fill="none" stroke="#63b8ff" d="M143.96,-357.1C164.18,-346.5 198.2,-328.65 222.03,-316.15"/>
<polygon fill="#63b8ff" stroke="#63b8ff" points="223.61,-319.27 230.84,-311.53 220.36,-313.07 223.61,-319.27"/>
</g>
<!-- Node27&#45;&gt;Node14 -->
<g id="edge54" class="edge">
<title>Node27&#45;&gt;Node14</title>
<path fill="none" stroke="#63b8ff" d="M124.99,-357.26C118.71,-327.9 102.01,-230.96 138,-165 157.97,-128.4 174.74,-124.04 214,-110 338.94,-65.33 677.86,-86 810,-74 817.12,-73.35 824.64,-72.56 832,-71.72"/>
<polygon fill="#63b8ff" stroke="#63b8ff" points="832.33,-75.2 841.85,-70.55 831.51,-68.25 832.33,-75.2"/>
</g>
<!-- Node28&#45;&gt;Node4 -->
<g id="edge57" class="edge">
<title>Node28&#45;&gt;Node4</title>
<path fill="none" stroke="#63b8ff" d="M1326.68,-225.32C1345.21,-203.32 1388.67,-144.64 1358,-110 1347.51,-98.16 1134.41,-77.97 1038.77,-69.47"/>
<polygon fill="#63b8ff" stroke="#63b8ff" points="1039.21,-65.99 1028.94,-68.6 1038.6,-72.96 1039.21,-65.99"/>
</g>
<!-- Node28&#45;&gt;Node13 -->
<g id="edge58" class="edge">
<title>Node28&#45;&gt;Node13</title>
<path fill="none" stroke="#63b8ff" d="M1259.34,-225.05C1181.62,-213.39 1047.31,-193.25 976.25,-182.59"/>
<polygon fill="#63b8ff" stroke="#63b8ff" points="976.9,-179.15 966.49,-181.12 975.86,-186.07 976.9,-179.15"/>
</g>
<!-- Node29&#45;&gt;Node3 -->
<g id="edge61" class="edge">
<title>Node29&#45;&gt;Node3</title>
<path fill="none" stroke="#63b8ff" d="M1458.63,-109.52C1382.21,-95.41 1226.86,-68.29 1094,-55 1000.44,-45.64 324.94,-18.04 169.73,-11.78"/>
<polygon fill="#63b8ff" stroke="#63b8ff" points="170.32,-8.3 160.19,-11.39 170.04,-15.29 170.32,-8.3"/>
</g>
<!-- Node29&#45;&gt;Node4 -->
<g id="edge62" class="edge">
<title>Node29&#45;&gt;Node4</title>
<path fill="none" stroke="#63b8ff" d="M1443.39,-111.54C1438.52,-111.02 1433.68,-110.5 1429,-110 1286.57,-94.87 1117.86,-77.93 1038.53,-70.02"/>
<polygon fill="#63b8ff" stroke="#63b8ff" points="1039.29,-66.58 1028.99,-69.07 1038.6,-73.55 1039.29,-66.58"/>
</g>
<!-- Node29&#45;&gt;Node5 -->
<g id="edge60" class="edge">
<title>Node29&#45;&gt;Node5</title>
<path fill="none" stroke="#63b8ff" d="M1506,-109.66C1506,-92.57 1506,-54.61 1506,-30.92"/>
<polygon fill="#63b8ff" stroke="#63b8ff" points="1509.5,-30.97 1506,-20.97 1502.5,-30.97 1509.5,-30.97"/>
</g>
<!-- Node30&#45;&gt;Node4 -->
<g id="edge65" class="edge">
<title>Node30&#45;&gt;Node4</title>
<path fill="none" stroke="#63b8ff" d="M1454.15,-219.9C1444.18,-193.31 1418.67,-136.06 1376,-110 1361.76,-101.3 1137.35,-79.16 1038.81,-69.79"/>
<polygon fill="#63b8ff" stroke="#63b8ff" points="1039.23,-66.31 1028.94,-68.85 1038.57,-73.28 1039.23,-66.31"/>
</g>
<!-- Node30&#45;&gt;Node13 -->
<g id="edge64" class="edge">
<title>Node30&#45;&gt;Node13</title>
<path fill="none" stroke="#63b8ff" d="M1396.34,-221.3C1393.52,-220.84 1390.73,-220.4 1388,-220 1238.36,-198.05 1059.62,-184.26 976.21,-178.54"/>
<polygon fill="#63b8ff" stroke="#63b8ff" points="976.58,-175.06 966.36,-177.88 976.1,-182.04 976.58,-175.06"/>
</g>
<!-- Node31&#45;&gt;Node5 -->
<g id="edge68" class="edge">
<title>Node31&#45;&gt;Node5</title>
<path fill="none" stroke="#63b8ff" d="M1230.73,-362.35C1308.21,-354.43 1447.05,-329.35 1531,-250 1578.7,-204.91 1598.22,-172.44 1578,-110 1567.27,-76.88 1540.94,-45.53 1523.27,-27.17"/>
<polygon fill="#63b8ff" stroke="#63b8ff" points="1526,-24.95 1516.47,-20.32 1521.03,-29.88 1526,-24.95"/>
</g>
<!-- Node31&#45;&gt;Node11 -->
<g id="edge70" class="edge">
<title>Node31&#45;&gt;Node11</title>
<path fill="none" stroke="#63b8ff" d="M1117.04,-359.21C1016.51,-347.23 808.24,-322.41 702.16,-309.77"/>
<polygon fill="#63b8ff" stroke="#63b8ff" points="702.82,-306.32 692.48,-308.61 702,-313.27 702.82,-306.32"/>
</g>
<!-- Node31&#45;&gt;Node13 -->
<g id="edge67" class="edge">
<title>Node31&#45;&gt;Node13</title>
<path fill="none" stroke="#63b8ff" d="M1161.51,-351.8C1143.71,-331.76 1111.7,-296.46 1098,-286 1071.13,-265.49 1059.61,-268.01 1031,-250 1001.34,-231.32 968.95,-206.92 948.81,-191.23"/>
<polygon fill="#63b8ff" stroke="#63b8ff" points="951.18,-188.65 941.16,-185.22 946.86,-194.15 951.18,-188.65"/>
</g>
<!-- Node31&#45;&gt;Node14 -->
<g id="edge69" class="edge">
<title>Node31&#45;&gt;Node14</title>
<path fill="none" stroke="#63b8ff" d="M1177.48,-351.67C1182.97,-327.83 1193,-278.43 1193,-236 1193,-236 1193,-236 1193,-173.5 1193,-135.58 1169.18,-128.37 1136,-110 1118.1,-100.09 997.03,-81.88 927.99,-72.11"/>
<polygon fill="#63b8ff" stroke="#63b8ff" points="928.85,-68.7 918.46,-70.77 927.88,-75.63 928.85,-68.7"/>
</g>
<!-- Node31&#45;&gt;Node16 -->
<g id="edge71" class="edge">
<title>Node31&#45;&gt;Node16</title>
<path fill="none" stroke="#63b8ff" d="M1184.64,-351.6C1191.55,-341.86 1200.45,-328.54 1207,-316 1239.24,-254.29 1266.7,-176.14 1278.63,-140.21"/>
<polygon fill="#63b8ff" stroke="#63b8ff" points="1281.93,-141.39 1281.72,-130.79 1275.28,-139.21 1281.93,-141.39"/>
</g>
<!-- Node32 -->
<g id="node32" class="node">
<title>Node32</title>
<g id="a_node32"><a xlink:href="classifiers_8h.html" target="_top" xlink:title=" ">
<polygon fill="white" stroke="#666666" points="1164.5,-244.5 1039.5,-244.5 1039.5,-225.5 1164.5,-225.5 1164.5,-244.5"/>
<text text-anchor="middle" x="1102" y="-232.5" font-family="Helvetica,sans-Serif" font-size="10.00">core/helpers/classifiers.h</text>
</a>
</g>
</g>
<!-- Node31&#45;&gt;Node32 -->
<g id="edge72" class="edge">
<title>Node31&#45;&gt;Node32</title>
<path fill="none" stroke="#63b8ff" d="M1166.53,-351.76C1158.06,-335.71 1143.76,-308.85 1131,-286 1125.16,-275.55 1118.47,-263.98 1112.98,-254.6"/>
<polygon fill="#63b8ff" stroke="#63b8ff" points="1116.07,-252.95 1107.99,-246.11 1110.04,-256.5 1116.07,-252.95"/>
</g>
<!-- Node32&#45;&gt;Node13 -->
<g id="edge73" class="edge">
<title>Node32&#45;&gt;Node13</title>
<path fill="none" stroke="#63b8ff" d="M1075.73,-225.12C1046.51,-215.24 999.1,-199.21 966.11,-188.05"/>
<polygon fill="#63b8ff" stroke="#63b8ff" points="967.55,-184.84 956.96,-184.95 965.31,-191.47 967.55,-184.84"/>
</g>
<!-- Node33&#45;&gt;Node14 -->
<g id="edge79" class="edge">
<title>Node33&#45;&gt;Node14</title>
<path fill="none" stroke="#63b8ff" d="M716.07,-423.97C601.34,-419.08 381.24,-406.59 356,-382 268.77,-297.03 240.13,-199.23 323,-110 359.93,-70.24 756,-79.27 810,-74 817.12,-73.31 824.63,-72.49 831.99,-71.63"/>
<polygon fill="#63b8ff" stroke="#63b8ff" points="832.32,-75.12 841.84,-70.46 831.5,-68.17 832.32,-75.12"/>
</g>
<!-- Node33&#45;&gt;Node22 -->
<g id="edge93" class="edge">
<title>Node33&#45;&gt;Node22</title>
<path fill="none" stroke="#63b8ff" d="M716.45,-422.1C673.39,-416.97 617.9,-405.89 574,-382 485.02,-333.57 409.65,-234.29 381.17,-193.56"/>
<polygon fill="#63b8ff" stroke="#63b8ff" points="384.22,-191.82 375.67,-185.57 378.45,-195.79 384.22,-191.82"/>
</g>
<!-- Node34 -->
<g id="node34" class="node">
<title>Node34</title>
<g id="a_node34"><a xlink:href="node__visitor_8h.html" target="_top" xlink:title=" ">
<polygon fill="white" stroke="#666666" points="838.5,-382 731.5,-382 731.5,-352 838.5,-352 838.5,-382"/>
<text text-anchor="start" x="739.5" y="-370" font-family="Helvetica,sans-Serif" font-size="10.00">core/evaluation/node</text>
<text text-anchor="middle" x="785" y="-359" font-family="Helvetica,sans-Serif" font-size="10.00">_visitor.h</text>
</a>
</g>
</g>
<!-- Node33&#45;&gt;Node34 -->
<g id="edge75" class="edge">
<title>Node33&#45;&gt;Node34</title>
<path fill="none" stroke="#63b8ff" d="M785,-417.87C785,-411.4 785,-402.2 785,-393.45"/>
<polygon fill="#63b8ff" stroke="#63b8ff" points="788.5,-393.63 785,-383.63 781.5,-393.63 788.5,-393.63"/>
</g>
<!-- Node35 -->
<g id="node35" class="node">
<title>Node35</title>
<g id="a_node35"><a xlink:href="functions_8h.html" target="_top" xlink:title=" ">
<polygon fill="white" stroke="#666666" points="1088.5,-316 957.5,-316 957.5,-286 1088.5,-286 1088.5,-316"/>
<text text-anchor="start" x="965.5" y="-304" font-family="Helvetica,sans-Serif" font-size="10.00">core/evaluation/operations</text>
<text text-anchor="middle" x="1023" y="-293" font-family="Helvetica,sans-Serif" font-size="10.00">/functions.h</text>
</a>
</g>
</g>
<!-- Node33&#45;&gt;Node35 -->
<g id="edge80" class="edge">
<title>Node33&#45;&gt;Node35</title>
<path fill="none" stroke="#63b8ff" d="M853.95,-419.52C907.53,-412.76 976.12,-400.75 997,-382 1012.27,-368.28 1018.61,-345.51 1021.22,-327.76"/>
<polygon fill="#63b8ff" stroke="#63b8ff" points="1024.69,-328.29 1022.33,-317.96 1017.73,-327.5 1024.69,-328.29"/>
</g>
<!-- Node38 -->
<g id="node38" class="node">
<title>Node38</title>
<g id="a_node38"><a xlink:href="monadic__operators_8h.html" target="_top" xlink:title=" ">
<polygon fill="white" stroke="#666666" points="987.5,-382 856.5,-382 856.5,-352 987.5,-352 987.5,-382"/>
<text text-anchor="start" x="864.5" y="-370" font-family="Helvetica,sans-Serif" font-size="10.00">core/evaluation/operations</text>
<text text-anchor="middle" x="922" y="-359" font-family="Helvetica,sans-Serif" font-size="10.00">/monadic_operators.h</text>
</a>
</g>
</g>
<!-- Node33&#45;&gt;Node38 -->
<g id="edge86" class="edge">
<title>Node33&#45;&gt;Node38</title>
<path fill="none" stroke="#63b8ff" d="M805.81,-417.62C824.85,-409.48 853.65,-397.19 877.81,-386.87"/>
<polygon fill="#63b8ff" stroke="#63b8ff" points="878.97,-390.18 886.79,-383.03 876.22,-383.74 878.97,-390.18"/>
</g>
<!-- Node39 -->
<g id="node39" class="node">
<title>Node39</title>
<g id="a_node39"><a xlink:href="dyadic__operators_8h.html" target="_top" xlink:title=" ">
<polygon fill="white" stroke="#666666" points="713.5,-382 582.5,-382 582.5,-352 713.5,-352 713.5,-382"/>
<text text-anchor="start" x="590.5" y="-370" font-family="Helvetica,sans-Serif" font-size="10.00">core/evaluation/operations</text>
<text text-anchor="middle" x="648" y="-359" font-family="Helvetica,sans-Serif" font-size="10.00">/dyadic_operators.h</text>
</a>
</g>
</g>
<!-- Node33&#45;&gt;Node39 -->
<g id="edge90" class="edge">
<title>Node33&#45;&gt;Node39</title>
<path fill="none" stroke="#63b8ff" d="M764.19,-417.62C745.15,-409.48 716.35,-397.19 692.19,-386.87"/>
<polygon fill="#63b8ff" stroke="#63b8ff" points="693.78,-383.74 683.21,-383.03 691.03,-390.18 693.78,-383.74"/>
</g>
<!-- Node34&#45;&gt;Node9 -->
<g id="edge76" class="edge">
<title>Node34&#45;&gt;Node9</title>
<path fill="none" stroke="#63b8ff" d="M802.73,-351.76C832.01,-326.4 885.41,-271.23 866,-220 852.69,-184.87 820.69,-154.16 799.17,-136.47"/>
<polygon fill="#63b8ff" stroke="#63b8ff" points="801.59,-133.92 791.59,-130.44 797.24,-139.4 801.59,-133.92"/>
</g>
<!-- Node34&#45;&gt;Node11 -->
<g id="edge78" class="edge">
<title>Node34&#45;&gt;Node11</title>
<path fill="none" stroke="#63b8ff" d="M751.79,-351.64C726.81,-340.83 692.81,-326.13 668.3,-315.54"/>
<polygon fill="#63b8ff" stroke="#63b8ff" points="669.74,-312.34 659.17,-311.59 666.96,-318.77 669.74,-312.34"/>
</g>
<!-- Node34&#45;&gt;Node21 -->
<g id="edge77" class="edge">
<title>Node34&#45;&gt;Node21</title>
<path fill="none" stroke="#63b8ff" d="M785.67,-351.59C786.67,-329.92 788.57,-288.62 789.81,-261.7"/>
<polygon fill="#63b8ff" stroke="#63b8ff" points="793.3,-262.14 790.26,-251.99 786.3,-261.81 793.3,-262.14"/>
</g>
<!-- Node35&#45;&gt;Node21 -->
<g id="edge85" class="edge">
<title>Node35&#45;&gt;Node21</title>
<path fill="none" stroke="#63b8ff" d="M970.65,-285.56C936.13,-276.04 890.72,-263.51 854.19,-253.43"/>
<polygon fill="#63b8ff" stroke="#63b8ff" points="855.19,-250.08 844.62,-250.79 853.33,-256.83 855.19,-250.08"/>
</g>
<!-- Node36 -->
<g id="node36" class="node">
<title>Node36</title>
<g id="a_node36"><a xlink:href="pervade_8h.html" target="_top" xlink:title=" ">
<polygon fill="white" stroke="#666666" points="1120.5,-184 1061.5,-184 1061.5,-165 1120.5,-165 1120.5,-184"/>
<text text-anchor="middle" x="1091" y="-172" font-family="Helvetica,sans-Serif" font-size="10.00">pervade.h</text>
</a>
</g>
</g>
<!-- Node35&#45;&gt;Node36 -->
<g id="edge81" class="edge">
<title>Node35&#45;&gt;Node36</title>
<path fill="none" stroke="#63b8ff" d="M1021.11,-285.67C1019.6,-268.81 1019.36,-240.52 1031,-220 1038.08,-207.52 1050.24,-197.52 1061.77,-190.19"/>
<polygon fill="#63b8ff" stroke="#63b8ff" points="1063.43,-193.27 1070.29,-185.19 1059.9,-187.23 1063.43,-193.27"/>
</g>
<!-- Node36&#45;&gt;Node4 -->
<g id="edge83" class="edge">
<title>Node36&#45;&gt;Node4</title>
<path fill="none" stroke="#63b8ff" d="M1105.26,-164.59C1123.24,-152.24 1150.18,-129.26 1136,-110 1113.8,-79.84 1071.32,-69.53 1038.41,-66.28"/>
<polygon fill="#63b8ff" stroke="#63b8ff" points="1038.96,-62.82 1028.72,-65.53 1038.42,-69.8 1038.96,-62.82"/>
</g>
<!-- Node36&#45;&gt;Node9 -->
<g id="edge82" class="edge">
<title>Node36&#45;&gt;Node9</title>
<path fill="none" stroke="#63b8ff" d="M1061.38,-168.93C1013.58,-161.5 916.18,-146.06 823.11,-129.33"/>
<polygon fill="#63b8ff" stroke="#63b8ff" points="823.73,-125.89 813.27,-127.55 822.49,-132.78 823.73,-125.89"/>
</g>
<!-- Node37 -->
<g id="node37" class="node">
<title>Node37</title>
<g id="a_node37"><a xlink:title=" ">
<polygon fill="#e0e0e0" stroke="#999999" points="1127,-129 1059,-129 1059,-110 1127,-110 1127,-129"/>
<text text-anchor="middle" x="1093" y="-117" font-family="Helvetica,sans-Serif" font-size="10.00">pervade.tpp</text>
</a>
</g>
</g>
<!-- Node36&#45;&gt;Node37 -->
<g id="edge84" class="edge">
<title>Node36&#45;&gt;Node37</title>
<path fill="none" stroke="#63b8ff" d="M1091.33,-164.75C1091.57,-158.27 1091.92,-149.16 1092.23,-140.9"/>
<polygon fill="#63b8ff" stroke="#63b8ff" points="1095.73,-141.08 1092.61,-130.95 1088.73,-140.82 1095.73,-141.08"/>
</g>
<!-- Node38&#45;&gt;Node4 -->
<g id="edge88" class="edge">
<title>Node38&#45;&gt;Node4</title>
<path fill="none" stroke="#63b8ff" d="M926.43,-351.71C931.52,-335.61 940.28,-308.72 949,-286 975.82,-216.11 998.82,-203.02 1010,-129 1011.26,-120.65 1011.53,-118.3 1010,-110 1008.43,-101.47 1005.29,-92.45 1002.13,-84.79"/>
<polygon fill="#63b8ff" stroke="#63b8ff" points="1005.4,-83.52 998.14,-75.8 999,-86.36 1005.4,-83.52"/>
</g>
<!-- Node38&#45;&gt;Node11 -->
<g id="edge89" class="edge">
<title>Node38&#45;&gt;Node11</title>
<path fill="none" stroke="#63b8ff" d="M857.69,-351.56C806.31,-340.02 735.3,-324.08 687.85,-313.42"/>
<polygon fill="#63b8ff" stroke="#63b8ff" points="688.91,-310.07 678.39,-311.29 687.38,-316.9 688.91,-310.07"/>
</g>
<!-- Node38&#45;&gt;Node21 -->
<g id="edge87" class="edge">
<title>Node38&#45;&gt;Node21</title>
<path fill="none" stroke="#63b8ff" d="M907.48,-351.59C884.76,-329.04 840.62,-285.24 813.68,-258.5"/>
<polygon fill="#63b8ff" stroke="#63b8ff" points="816.22,-256.1 806.66,-251.54 811.29,-261.07 816.22,-256.1"/>
</g>
<!-- Node39&#45;&gt;Node11 -->
<g id="edge92" class="edge">
<title>Node39&#45;&gt;Node11</title>
<path fill="none" stroke="#63b8ff" d="M645.56,-351.8C644.06,-343.09 642.12,-331.81 640.47,-322.18"/>
<polygon fill="#63b8ff" stroke="#63b8ff" points="643.92,-321.6 638.78,-312.34 637.02,-322.78 643.92,-321.6"/>
</g>
<!-- Node39&#45;&gt;Node21 -->
<g id="edge91" class="edge">
<title>Node39&#45;&gt;Node21</title>
<path fill="none" stroke="#63b8ff" d="M663.85,-351.59C688.76,-328.95 737.26,-284.86 766.63,-258.16"/>
<polygon fill="#63b8ff" stroke="#63b8ff" points="768.91,-260.81 773.96,-251.49 764.21,-255.63 768.91,-260.81"/>
</g>
</g>
</svg>
