<?xml version="1.0" encoding="UTF-8" standalone="no"?>
<!DOCTYPE svg PUBLIC "-//W3C//DTD SVG 1.1//EN"
 "http://www.w3.org/Graphics/SVG/1.1/DTD/svg11.dtd">
<!-- Generated by graphviz version 7.1.0 (20230121.1956)
 -->
<!-- Title: src/core/helpers/file_reader.h Pages: 1 -->
<svg width="244pt" height="104pt"
 viewBox="0.00 0.00 244.00 104.00" xmlns="http://www.w3.org/2000/svg" xmlns:xlink="http://www.w3.org/1999/xlink">
<g id="graph0" class="graph" transform="scale(1 1) rotate(0) translate(4 100)">
<title>src/core/helpers/file_reader.h</title>
<!-- Node1 -->
<g id="node1" class="node">
<title>Node1</title>
<g id="a_node1"><a xlink:title=" ">
<polygon fill="#999999" stroke="#666666" points="172,-96 70,-96 70,-66 172,-66 172,-96"/>
<text text-anchor="start" x="78" y="-84" font-family="Helvetica,sans-Serif" font-size="10.00">src/core/helpers/file</text>
<text text-anchor="middle" x="121" y="-73" font-family="Helvetica,sans-Serif" font-size="10.00">_reader.h</text>
</a>
</g>
</g>
<!-- Node2 -->
<g id="node2" class="node">
<title>Node2</title>
<g id="a_node2"><a xlink:href="execution_8cpp.html" target="_top" xlink:title=" ">
<polygon fill="white" stroke="#666666" points="116,-24.5 0,-24.5 0,-5.5 116,-5.5 116,-24.5"/>
<text text-anchor="middle" x="58" y="-12.5" font-family="Helvetica,sans-Serif" font-size="10.00">src/core/execution.cpp</text>
</a>
</g>
</g>
<!-- Node1&#45;&gt;Node2 -->
<g id="edge1" class="edge">
<title>Node1&#45;&gt;Node2</title>
<path fill="none" stroke="#63b8ff" d="M98.96,-57.61C87.85,-46.32 75.01,-33.28 66.71,-24.84"/>
<polygon fill="#63b8ff" stroke="#63b8ff" points="96.45,-60.05 105.96,-64.72 101.44,-55.14 96.45,-60.05"/>
</g>
<!-- Node3 -->
<g id="node3" class="node">
<title>Node3</title>
<g id="a_node3"><a xlink:href="file__reader_8cpp.html" target="_top" xlink:title=" ">
<polygon fill="white" stroke="#666666" points="236,-30 134,-30 134,0 236,0 236,-30"/>
<text text-anchor="start" x="142" y="-18" font-family="Helvetica,sans-Serif" font-size="10.00">src/core/helpers/file</text>
<text text-anchor="middle" x="185" y="-7" font-family="Helvetica,sans-Serif" font-size="10.00">_reader.cpp</text>
</a>
</g>
</g>
<!-- Node1&#45;&gt;Node3 -->
<g id="edge2" class="edge">
<title>Node1&#45;&gt;Node3</title>
<path fill="none" stroke="#63b8ff" d="M143.19,-57.81C152.36,-48.64 162.72,-38.28 170.84,-30.16"/>
<polygon fill="#63b8ff" stroke="#63b8ff" points="140.87,-55.18 136.27,-64.73 145.82,-60.13 140.87,-55.18"/>
</g>
</g>
</svg>
