<?xml version="1.0" encoding="UTF-8" standalone="no"?>
<!DOCTYPE svg PUBLIC "-//W3C//DTD SVG 1.1//EN"
 "http://www.w3.org/Graphics/SVG/1.1/DTD/svg11.dtd">
<!-- Generated by graphviz version 7.1.0 (20230121.1956)
 -->
<!-- Title: /Users/nikolajbankejensen/Desktop/Kepler/src/interface/file_reader.cpp Pages: 1 -->
<svg width="571pt" height="214pt"
 viewBox="0.00 0.00 570.50 214.00" xmlns="http://www.w3.org/2000/svg" xmlns:xlink="http://www.w3.org/1999/xlink">
<g id="graph0" class="graph" transform="scale(1 1) rotate(0) translate(4 210)">
<title>/Users/nikolajbankejensen/Desktop/Kepler/src/interface/file_reader.cpp</title>
<!-- Node1 -->
<g id="node1" class="node">
<title>Node1</title>
<g id="a_node1"><a xlink:title=" ">
<polygon fill="#999999" stroke="#666666" points="443,-206 299,-206 299,-165 443,-165 443,-206"/>
<text text-anchor="start" x="307" y="-194" font-family="Helvetica,sans-Serif" font-size="10.00">/Users/nikolajbankejensen</text>
<text text-anchor="start" x="307" y="-183" font-family="Helvetica,sans-Serif" font-size="10.00">/Desktop/Kepler/src/interface</text>
<text text-anchor="middle" x="371" y="-172" font-family="Helvetica,sans-Serif" font-size="10.00">/file_reader.cpp</text>
</a>
</g>
</g>
<!-- Node2 -->
<g id="node2" class="node">
<title>Node2</title>
<g id="a_node2"><a xlink:href="file__reader_8h.html" target="_top" xlink:title=" ">
<polygon fill="white" stroke="#666666" points="163.5,-129 94.5,-129 94.5,-110 163.5,-110 163.5,-129"/>
<text text-anchor="middle" x="129" y="-117" font-family="Helvetica,sans-Serif" font-size="10.00">file_reader.h</text>
</a>
</g>
</g>
<!-- Node1&#45;&gt;Node2 -->
<g id="edge1" class="edge">
<title>Node1&#45;&gt;Node2</title>
<path fill="none" stroke="#63b8ff" d="M298.72,-165.38C258.13,-154.65 208.75,-141.59 173.75,-132.33"/>
<polygon fill="#63b8ff" stroke="#63b8ff" points="174.94,-129.03 164.38,-129.86 173.15,-135.8 174.94,-129.03"/>
</g>
<!-- Node7 -->
<g id="node7" class="node">
<title>Node7</title>
<g id="a_node7"><a xlink:href="error_8h.html" target="_top" xlink:title=" ">
<polygon fill="white" stroke="#666666" points="373.5,-129 308.5,-129 308.5,-110 373.5,-110 373.5,-129"/>
<text text-anchor="middle" x="341" y="-117" font-family="Helvetica,sans-Serif" font-size="10.00">core/error.h</text>
</a>
</g>
</g>
<!-- Node1&#45;&gt;Node7 -->
<g id="edge8" class="edge">
<title>Node1&#45;&gt;Node7</title>
<path fill="none" stroke="#63b8ff" d="M361.67,-164.6C357.93,-156.61 353.63,-147.45 349.93,-139.55"/>
<polygon fill="#63b8ff" stroke="#63b8ff" points="353.12,-138.1 345.7,-130.53 346.78,-141.07 353.12,-138.1"/>
</g>
<!-- Node12 -->
<g id="node12" class="node">
<title>Node12</title>
<g id="a_node12"><a xlink:title=" ">
<polygon fill="#e0e0e0" stroke="#999999" points="562.5,-74 479.5,-74 479.5,-55 562.5,-55 562.5,-74"/>
<text text-anchor="middle" x="521" y="-62" font-family="Helvetica,sans-Serif" font-size="10.00">uni_algo/conv.h</text>
</a>
</g>
</g>
<!-- Node1&#45;&gt;Node12 -->
<g id="edge17" class="edge">
<title>Node1&#45;&gt;Node12</title>
<path fill="none" stroke="#63b8ff" d="M380.25,-164.82C388.84,-148.34 403,-125.14 421,-110 437.78,-95.89 459.74,-85.46 478.81,-78.26"/>
<polygon fill="#63b8ff" stroke="#63b8ff" points="479.98,-81.56 488.21,-74.9 477.62,-74.97 479.98,-81.56"/>
</g>
<!-- Node13 -->
<g id="node13" class="node">
<title>Node13</title>
<g id="a_node13"><a xlink:title=" ">
<polygon fill="#e0e0e0" stroke="#999999" points="480,-129 430,-129 430,-110 480,-110 480,-129"/>
<text text-anchor="middle" x="455" y="-117" font-family="Helvetica,sans-Serif" font-size="10.00">fstream</text>
</a>
</g>
</g>
<!-- Node1&#45;&gt;Node13 -->
<g id="edge16" class="edge">
<title>Node1&#45;&gt;Node13</title>
<path fill="none" stroke="#63b8ff" d="M397.12,-164.6C409.19,-155.41 423.31,-144.65 434.58,-136.06"/>
<polygon fill="#63b8ff" stroke="#63b8ff" points="436.59,-138.92 442.43,-130.08 432.35,-133.36 436.59,-138.92"/>
</g>
<!-- Node3 -->
<g id="node3" class="node">
<title>Node3</title>
<g id="a_node3"><a xlink:title=" ">
<polygon fill="#e0e0e0" stroke="#999999" points="44,-19 0,-19 0,0 44,0 44,-19"/>
<text text-anchor="middle" x="22" y="-7" font-family="Helvetica,sans-Serif" font-size="10.00">vector</text>
</a>
</g>
</g>
<!-- Node2&#45;&gt;Node3 -->
<g id="edge2" class="edge">
<title>Node2&#45;&gt;Node3</title>
<path fill="none" stroke="#63b8ff" d="M94.58,-109.52C75.29,-102.78 52.29,-91.62 38,-74 28.12,-61.82 24.24,-44.33 22.77,-30.79"/>
<polygon fill="#63b8ff" stroke="#63b8ff" points="26.26,-30.56 22.08,-20.83 19.28,-31.05 26.26,-30.56"/>
</g>
<!-- Node4 -->
<g id="node4" class="node">
<title>Node4</title>
<g id="a_node4"><a xlink:title=" ">
<polygon fill="#e0e0e0" stroke="#999999" points="185.5,-19 144.5,-19 144.5,0 185.5,0 185.5,-19"/>
<text text-anchor="middle" x="165" y="-7" font-family="Helvetica,sans-Serif" font-size="10.00">string</text>
</a>
</g>
</g>
<!-- Node2&#45;&gt;Node4 -->
<g id="edge3" class="edge">
<title>Node2&#45;&gt;Node4</title>
<path fill="none" stroke="#63b8ff" d="M132.29,-109.67C135.6,-100.72 140.8,-86.45 145,-74 149.93,-59.38 155.16,-42.74 159.03,-30.16"/>
<polygon fill="#63b8ff" stroke="#63b8ff" points="162.37,-31.2 161.95,-20.61 155.68,-29.15 162.37,-31.2"/>
</g>
<!-- Node5 -->
<g id="node5" class="node">
<title>Node5</title>
<g id="a_node5"><a xlink:href="datatypes_8h.html" target="_top" xlink:title=" ">
<polygon fill="white" stroke="#666666" points="136.5,-74 47.5,-74 47.5,-55 136.5,-55 136.5,-74"/>
<text text-anchor="middle" x="92" y="-62" font-family="Helvetica,sans-Serif" font-size="10.00">core/datatypes.h</text>
</a>
</g>
</g>
<!-- Node2&#45;&gt;Node5 -->
<g id="edge4" class="edge">
<title>Node2&#45;&gt;Node5</title>
<path fill="none" stroke="#63b8ff" d="M122.89,-109.75C117.99,-102.73 110.95,-92.64 104.83,-83.87"/>
<polygon fill="#63b8ff" stroke="#63b8ff" points="107.7,-81.88 99.11,-75.68 101.96,-85.89 107.7,-81.88"/>
</g>
<!-- Node5&#45;&gt;Node3 -->
<g id="edge5" class="edge">
<title>Node5&#45;&gt;Node3</title>
<path fill="none" stroke="#63b8ff" d="M80.13,-54.51C69.91,-46.77 54.93,-35.43 42.74,-26.2"/>
<polygon fill="#63b8ff" stroke="#63b8ff" points="44.99,-23.52 34.91,-20.27 40.77,-29.1 44.99,-23.52"/>
</g>
<!-- Node5&#45;&gt;Node4 -->
<g id="edge6" class="edge">
<title>Node5&#45;&gt;Node4</title>
<path fill="none" stroke="#63b8ff" d="M104.38,-54.51C115.15,-46.7 130.97,-35.21 143.75,-25.93"/>
<polygon fill="#63b8ff" stroke="#63b8ff" points="145.54,-28.95 151.57,-20.25 141.43,-23.29 145.54,-28.95"/>
</g>
<!-- Node6 -->
<g id="node6" class="node">
<title>Node6</title>
<g id="a_node6"><a xlink:title=" ">
<polygon fill="#e0e0e0" stroke="#999999" points="118.5,-19 65.5,-19 65.5,0 118.5,0 118.5,-19"/>
<text text-anchor="middle" x="92" y="-7" font-family="Helvetica,sans-Serif" font-size="10.00">complex</text>
</a>
</g>
</g>
<!-- Node5&#45;&gt;Node6 -->
<g id="edge7" class="edge">
<title>Node5&#45;&gt;Node6</title>
<path fill="none" stroke="#63b8ff" d="M92,-54.75C92,-48.27 92,-39.16 92,-30.9"/>
<polygon fill="#63b8ff" stroke="#63b8ff" points="95.5,-30.96 92,-20.96 88.5,-30.96 95.5,-30.96"/>
</g>
<!-- Node7&#45;&gt;Node5 -->
<g id="edge14" class="edge">
<title>Node7&#45;&gt;Node5</title>
<path fill="none" stroke="#63b8ff" d="M308.19,-111.52C266.66,-102.68 194.58,-87.33 145.15,-76.81"/>
<polygon fill="#63b8ff" stroke="#63b8ff" points="146.02,-73.42 135.51,-74.76 144.57,-80.27 146.02,-73.42"/>
</g>
<!-- Node8 -->
<g id="node8" class="node">
<title>Node8</title>
<g id="a_node8"><a xlink:title=" ">
<polygon fill="#e0e0e0" stroke="#999999" points="333,-74 279,-74 279,-55 333,-55 333,-74"/>
<text text-anchor="middle" x="306" y="-62" font-family="Helvetica,sans-Serif" font-size="10.00">iostream</text>
</a>
</g>
</g>
<!-- Node7&#45;&gt;Node8 -->
<g id="edge9" class="edge">
<title>Node7&#45;&gt;Node8</title>
<path fill="none" stroke="#63b8ff" d="M335.22,-109.75C330.59,-102.73 323.93,-92.64 318.13,-83.87"/>
<polygon fill="#63b8ff" stroke="#63b8ff" points="321.17,-82.12 312.74,-75.71 315.33,-85.98 321.17,-82.12"/>
</g>
<!-- Node9 -->
<g id="node9" class="node">
<title>Node9</title>
<g id="a_node9"><a xlink:title=" ">
<polygon fill="#e0e0e0" stroke="#999999" points="403,-74 351,-74 351,-55 403,-55 403,-74"/>
<text text-anchor="middle" x="377" y="-62" font-family="Helvetica,sans-Serif" font-size="10.00">sstream</text>
</a>
</g>
</g>
<!-- Node7&#45;&gt;Node9 -->
<g id="edge10" class="edge">
<title>Node7&#45;&gt;Node9</title>
<path fill="none" stroke="#63b8ff" d="M346.94,-109.75C351.71,-102.73 358.56,-92.64 364.52,-83.87"/>
<polygon fill="#63b8ff" stroke="#63b8ff" points="367.35,-85.93 370.08,-75.69 361.56,-82 367.35,-85.93"/>
</g>
<!-- Node10 -->
<g id="node10" class="node">
<title>Node10</title>
<g id="a_node10"><a xlink:title=" ">
<polygon fill="#e0e0e0" stroke="#999999" points="461,-74 421,-74 421,-55 461,-55 461,-74"/>
<text text-anchor="middle" x="441" y="-62" font-family="Helvetica,sans-Serif" font-size="10.00">utility</text>
</a>
</g>
</g>
<!-- Node7&#45;&gt;Node10 -->
<g id="edge11" class="edge">
<title>Node7&#45;&gt;Node10</title>
<path fill="none" stroke="#63b8ff" d="M357.96,-109.51C373.36,-101.35 396.31,-89.19 414.19,-79.71"/>
<polygon fill="#63b8ff" stroke="#63b8ff" points="415.75,-82.84 422.95,-75.07 412.47,-76.66 415.75,-82.84"/>
</g>
<!-- Node11 -->
<g id="node11" class="node">
<title>Node11</title>
<g id="a_node11"><a xlink:href="error__type_8h.html" target="_top" xlink:title=" ">
<polygon fill="white" stroke="#666666" points="261,-74 193,-74 193,-55 261,-55 261,-74"/>
<text text-anchor="middle" x="227" y="-62" font-family="Helvetica,sans-Serif" font-size="10.00">error_type.h</text>
</a>
</g>
</g>
<!-- Node7&#45;&gt;Node11 -->
<g id="edge12" class="edge">
<title>Node7&#45;&gt;Node11</title>
<path fill="none" stroke="#63b8ff" d="M321.66,-109.51C303.78,-101.2 276.96,-88.73 256.43,-79.18"/>
<polygon fill="#63b8ff" stroke="#63b8ff" points="257.97,-76.04 247.43,-75 255.02,-82.39 257.97,-76.04"/>
</g>
<!-- Node7&#45;&gt;Node12 -->
<g id="edge15" class="edge">
<title>Node7&#45;&gt;Node12</title>
<path fill="none" stroke="#63b8ff" d="M371.53,-109.51C401.36,-100.73 446.96,-87.3 479.95,-77.59"/>
<polygon fill="#63b8ff" stroke="#63b8ff" points="480.56,-81.06 489.16,-74.87 478.58,-74.34 480.56,-81.06"/>
</g>
<!-- Node11&#45;&gt;Node4 -->
<g id="edge13" class="edge">
<title>Node11&#45;&gt;Node4</title>
<path fill="none" stroke="#63b8ff" d="M216.48,-54.51C207.61,-46.93 194.69,-35.88 184.01,-26.75"/>
<polygon fill="#63b8ff" stroke="#63b8ff" points="186.39,-24.18 176.51,-20.34 181.84,-29.5 186.39,-24.18"/>
</g>
</g>
</svg>
