<?xml version="1.0" encoding="UTF-8" standalone="no"?>
<!DOCTYPE svg PUBLIC "-//W3C//DTD SVG 1.1//EN"
 "http://www.w3.org/Graphics/SVG/1.1/DTD/svg11.dtd">
<!-- Generated by graphviz version 7.1.0 (20230121.1956)
 -->
<!-- Title: src/core/helpers/file_reader.h Pages: 1 -->
<svg width="190pt" height="148pt"
 viewBox="0.00 0.00 189.50 148.00" xmlns="http://www.w3.org/2000/svg" xmlns:xlink="http://www.w3.org/1999/xlink">
<g id="graph0" class="graph" transform="scale(1 1) rotate(0) translate(4 144)">
<title>src/core/helpers/file_reader.h</title>
<!-- Node1 -->
<g id="node1" class="node">
<title>Node1</title>
<g id="a_node1"><a xlink:title=" ">
<polygon fill="#999999" stroke="#666666" points="143,-140 41,-140 41,-110 143,-110 143,-140"/>
<text text-anchor="start" x="49" y="-128" font-family="Helvetica,sans-Serif" font-size="10.00">src/core/helpers/file</text>
<text text-anchor="middle" x="92" y="-117" font-family="Helvetica,sans-Serif" font-size="10.00">_reader.h</text>
</a>
</g>
</g>
<!-- Node2 -->
<g id="node2" class="node">
<title>Node2</title>
<g id="a_node2"><a xlink:title=" ">
<polygon fill="#e0e0e0" stroke="#999999" points="44,-19 0,-19 0,0 44,0 44,-19"/>
<text text-anchor="middle" x="22" y="-7" font-family="Helvetica,sans-Serif" font-size="10.00">vector</text>
</a>
</g>
</g>
<!-- Node1&#45;&gt;Node2 -->
<g id="edge1" class="edge">
<title>Node1&#45;&gt;Node2</title>
<path fill="none" stroke="#63b8ff" d="M71.26,-109.55C59.84,-100.57 46.34,-88.07 38,-74 30.09,-60.66 26.07,-43.51 24.03,-30.39"/>
<polygon fill="#63b8ff" stroke="#63b8ff" points="27.55,-30.3 22.82,-20.81 20.6,-31.17 27.55,-30.3"/>
</g>
<!-- Node3 -->
<g id="node3" class="node">
<title>Node3</title>
<g id="a_node3"><a xlink:title=" ">
<polygon fill="#e0e0e0" stroke="#999999" points="181.5,-19 140.5,-19 140.5,0 181.5,0 181.5,-19"/>
<text text-anchor="middle" x="161" y="-7" font-family="Helvetica,sans-Serif" font-size="10.00">string</text>
</a>
</g>
</g>
<!-- Node1&#45;&gt;Node3 -->
<g id="edge2" class="edge">
<title>Node1&#45;&gt;Node3</title>
<path fill="none" stroke="#63b8ff" d="M112.82,-109.6C124.26,-100.63 137.76,-88.13 146,-74 153.78,-60.65 157.53,-43.5 159.33,-30.39"/>
<polygon fill="#63b8ff" stroke="#63b8ff" points="162.77,-31.13 160.37,-20.81 155.81,-30.38 162.77,-31.13"/>
</g>
<!-- Node4 -->
<g id="node4" class="node">
<title>Node4</title>
<g id="a_node4"><a xlink:href="datatypes_8h.html" target="_top" xlink:title=" ">
<polygon fill="white" stroke="#666666" points="136.5,-74 47.5,-74 47.5,-55 136.5,-55 136.5,-74"/>
<text text-anchor="middle" x="92" y="-62" font-family="Helvetica,sans-Serif" font-size="10.00">core/datatypes.h</text>
</a>
</g>
</g>
<!-- Node1&#45;&gt;Node4 -->
<g id="edge3" class="edge">
<title>Node1&#45;&gt;Node4</title>
<path fill="none" stroke="#63b8ff" d="M92,-109.54C92,-102.34 92,-93.53 92,-85.68"/>
<polygon fill="#63b8ff" stroke="#63b8ff" points="95.5,-85.69 92,-75.69 88.5,-85.69 95.5,-85.69"/>
</g>
<!-- Node4&#45;&gt;Node2 -->
<g id="edge4" class="edge">
<title>Node4&#45;&gt;Node2</title>
<path fill="none" stroke="#63b8ff" d="M80.13,-54.51C69.91,-46.77 54.93,-35.43 42.74,-26.2"/>
<polygon fill="#63b8ff" stroke="#63b8ff" points="44.99,-23.52 34.91,-20.27 40.77,-29.1 44.99,-23.52"/>
</g>
<!-- Node4&#45;&gt;Node3 -->
<g id="edge5" class="edge">
<title>Node4&#45;&gt;Node3</title>
<path fill="none" stroke="#63b8ff" d="M103.7,-54.51C113.78,-46.77 128.54,-35.43 140.56,-26.2"/>
<polygon fill="#63b8ff" stroke="#63b8ff" points="142.47,-29.15 148.27,-20.28 138.21,-23.6 142.47,-29.15"/>
</g>
<!-- Node5 -->
<g id="node5" class="node">
<title>Node5</title>
<g id="a_node5"><a xlink:title=" ">
<polygon fill="#e0e0e0" stroke="#999999" points="118.5,-19 65.5,-19 65.5,0 118.5,0 118.5,-19"/>
<text text-anchor="middle" x="92" y="-7" font-family="Helvetica,sans-Serif" font-size="10.00">complex</text>
</a>
</g>
</g>
<!-- Node4&#45;&gt;Node5 -->
<g id="edge6" class="edge">
<title>Node4&#45;&gt;Node5</title>
<path fill="none" stroke="#63b8ff" d="M92,-54.75C92,-48.27 92,-39.16 92,-30.9"/>
<polygon fill="#63b8ff" stroke="#63b8ff" points="95.5,-30.96 92,-20.96 88.5,-30.96 95.5,-30.96"/>
</g>
</g>
</svg>
