<?xml version="1.0" encoding="UTF-8" standalone="no"?>
<!DOCTYPE svg PUBLIC "-//W3C//DTD SVG 1.1//EN"
 "http://www.w3.org/Graphics/SVG/1.1/DTD/svg11.dtd">
<!-- Generated by graphviz version 7.1.0 (20230121.1956)
 -->
<!-- Title: src/testing/fixtures/file_fixture.h Pages: 1 -->
<!--zoomable 544 -->
<svg id="main" version="1.1" xmlns="http://www.w3.org/2000/svg" xmlns:xlink="http://www.w3.org/1999/xlink" xml:space="preserve" onload="init(evt)">
<style type="text/css"><![CDATA[
.edge:hover path { stroke: red; }
.edge:hover polygon { stroke: red; fill: red; }
]]></style>
<script type="text/javascript"><![CDATA[
var edges = document.getElementsByTagName('g');
if (edges && edges.length) {
  for (var i=0;i<edges.length;i++) {
    if (edges[i].id.substr(0,4)=='edge') {
      edges[i].setAttribute('class','edge');
    }
  }
}
]]></script>
        <defs>
                <circle id="rim" cx="0" cy="0" r="7"/>
                <circle id="rim2" cx="0" cy="0" r="3.5"/>
                <g id="zoomPlus">
                        <use xlink:href="#rim" fill="#404040">
                                <set attributeName="fill" to="#808080" begin="zoomplus.mouseover" end="zoomplus.mouseout"/>
                        </use>
                        <path d="M-4,0h8M0,-4v8" fill="none" stroke="white" stroke-width="1.5" pointer-events="none"/>
                </g>
                <g id="zoomMin">
                        <use xlink:href="#rim" fill="#404040">
                                <set attributeName="fill" to="#808080" begin="zoomminus.mouseover" end="zoomminus.mouseout"/>
                        </use>
                        <path d="M-4,0h8" fill="none" stroke="white" stroke-width="1.5" pointer-events="none"/>
                </g>
                <g id="dirArrow">
                        <path fill="none" stroke="white" stroke-width="1.5" d="M0,-3.0v7 M-2.5,-0.5L0,-3.0L2.5,-0.5"/>
                </g>
               <g id="resetDef">
                       <use xlink:href="#rim2" fill="#404040">
                               <set attributeName="fill" to="#808080" begin="reset.mouseover" end="reset.mouseout"/>
                       </use>
               </g>
        </defs>

<script type="text/javascript">
var viewWidth = 1101;
var viewHeight = 544;
var sectionId = 'dynsection-0';
</script>
<script xlink:href="svgpan.js"/>
<svg id="graph" class="graph">
<g id="viewport">
<title>src/testing/fixtures/file_fixture.h</title>
<!-- Node1 -->
<g id="node1" class="node">
<title>Node1</title>
<g id="a_node1"><a xlink:title=" ">
<polygon fill="#999999" stroke="#666666" points="98,-536 0,-536 0,-506 98,-506 98,-536"/>
<text text-anchor="start" x="8" y="-524" font-family="Helvetica,sans-Serif" font-size="10.00">src/testing/fixtures</text>
<text text-anchor="middle" x="49" y="-513" font-family="Helvetica,sans-Serif" font-size="10.00">/file_fixture.h</text>
</a>
</g>
</g>
<!-- Node2 -->
<g id="node2" class="node">
<title>Node2</title>
<g id="a_node2"><a xlink:title=" ">
<polygon fill="#e0e0e0" stroke="#999999" points="147.5,-19 106.5,-19 106.5,0 147.5,0 147.5,-19"/>
<text text-anchor="middle" x="127" y="-7" font-family="Helvetica,sans-Serif" font-size="10.00">string</text>
</a>
</g>
</g>
<!-- Node1&#45;&gt;Node2 -->
<g id="edge1" class="edge">
<title>Node1&#45;&gt;Node2</title>
<path fill="none" stroke="#63b8ff" d="M41.37,-505.77C30.8,-484.71 13,-443.71 13,-406.5 13,-406.5 13,-406.5 13,-118.5 13,-72.74 62,-40.56 95.75,-23.82"/>
<polygon fill="#63b8ff" stroke="#63b8ff" points="97.18,-27.02 104.72,-19.58 94.19,-20.69 97.18,-27.02"/>
</g>
<!-- Node3 -->
<g id="node3" class="node">
<title>Node3</title>
<g id="a_node3"><a xlink:href="execution_8h.html" target="_top" xlink:title=" ">
<polygon fill="white" stroke="#666666" points="131.5,-470 42.5,-470 42.5,-451 131.5,-451 131.5,-470"/>
<text text-anchor="middle" x="87" y="-458" font-family="Helvetica,sans-Serif" font-size="10.00">core/execution.h</text>
</a>
</g>
</g>
<!-- Node1&#45;&gt;Node3 -->
<g id="edge2" class="edge">
<title>Node1&#45;&gt;Node3</title>
<path fill="none" stroke="#63b8ff" d="M58.39,-505.54C63.46,-497.74 69.77,-488.03 75.17,-479.71"/>
<polygon fill="#63b8ff" stroke="#63b8ff" points="78.03,-481.74 80.54,-471.44 72.16,-477.92 78.03,-481.74"/>
</g>
<!-- Node3&#45;&gt;Node2 -->
<g id="edge3" class="edge">
<title>Node3&#45;&gt;Node2</title>
<path fill="none" stroke="#63b8ff" d="M81.84,-450.59C71.89,-432.53 51,-390.04 51,-351.5 51,-351.5 51,-351.5 51,-118.5 51,-80.18 83.39,-45.87 105.88,-26.66"/>
<polygon fill="#63b8ff" stroke="#63b8ff" points="108.09,-29.38 113.62,-20.34 103.66,-23.95 108.09,-29.38"/>
</g>
<!-- Node4 -->
<g id="node4" class="node">
<title>Node4</title>
<g id="a_node4"><a xlink:href="datatypes_8h.html" target="_top" xlink:title=" ">
<polygon fill="white" stroke="#666666" points="345,-74 277,-74 277,-55 345,-55 345,-74"/>
<text text-anchor="middle" x="311" y="-62" font-family="Helvetica,sans-Serif" font-size="10.00">datatypes.h</text>
</a>
</g>
</g>
<!-- Node3&#45;&gt;Node4 -->
<g id="edge4" class="edge">
<title>Node3&#45;&gt;Node4</title>
<path fill="none" stroke="#63b8ff" d="M87.28,-450.54C87.83,-432.04 89,-388.26 89,-351.5 89,-351.5 89,-351.5 89,-234 89,-145.95 201.17,-97.94 266.05,-77.53"/>
<polygon fill="#63b8ff" stroke="#63b8ff" points="266.8,-80.96 275.35,-74.71 264.77,-74.26 266.8,-80.96"/>
</g>
<!-- Node7 -->
<g id="node7" class="node">
<title>Node7</title>
<g id="a_node7"><a xlink:href="symbol__table_8h.html" target="_top" xlink:title=" ">
<polygon fill="white" stroke="#666666" points="796.5,-415 713.5,-415 713.5,-396 796.5,-396 796.5,-415"/>
<text text-anchor="middle" x="755" y="-403" font-family="Helvetica,sans-Serif" font-size="10.00">symbol_table.h</text>
</a>
</g>
</g>
<!-- Node3&#45;&gt;Node7 -->
<g id="edge8" class="edge">
<title>Node3&#45;&gt;Node7</title>
<path fill="none" stroke="#63b8ff" d="M131.87,-455.94C250.87,-446.5 574.14,-420.85 701.96,-410.71"/>
<polygon fill="#63b8ff" stroke="#63b8ff" points="702.15,-414.2 711.84,-409.92 701.59,-407.23 702.15,-414.2"/>
</g>
<!-- Node4&#45;&gt;Node2 -->
<g id="edge6" class="edge">
<title>Node4&#45;&gt;Node2</title>
<path fill="none" stroke="#63b8ff" d="M279.79,-54.51C245.98,-44.77 192.35,-29.32 158.45,-19.56"/>
<polygon fill="#63b8ff" stroke="#63b8ff" points="159.8,-16.31 149.22,-16.9 157.86,-23.03 159.8,-16.31"/>
</g>
<!-- Node5 -->
<g id="node5" class="node">
<title>Node5</title>
<g id="a_node5"><a xlink:title=" ">
<polygon fill="#e0e0e0" stroke="#999999" points="299,-19 255,-19 255,0 299,0 299,-19"/>
<text text-anchor="middle" x="277" y="-7" font-family="Helvetica,sans-Serif" font-size="10.00">vector</text>
</a>
</g>
</g>
<!-- Node4&#45;&gt;Node5 -->
<g id="edge5" class="edge">
<title>Node4&#45;&gt;Node5</title>
<path fill="none" stroke="#63b8ff" d="M305.39,-54.75C300.88,-47.73 294.41,-37.64 288.79,-28.87"/>
<polygon fill="#63b8ff" stroke="#63b8ff" points="291.9,-27.24 283.55,-20.72 286.01,-31.02 291.9,-27.24"/>
</g>
<!-- Node6 -->
<g id="node6" class="node">
<title>Node6</title>
<g id="a_node6"><a xlink:title=" ">
<polygon fill="#e0e0e0" stroke="#999999" points="370.5,-19 317.5,-19 317.5,0 370.5,0 370.5,-19"/>
<text text-anchor="middle" x="344" y="-7" font-family="Helvetica,sans-Serif" font-size="10.00">complex</text>
</a>
</g>
</g>
<!-- Node4&#45;&gt;Node6 -->
<g id="edge7" class="edge">
<title>Node4&#45;&gt;Node6</title>
<path fill="none" stroke="#63b8ff" d="M316.45,-54.75C320.77,-47.81 326.96,-37.86 332.38,-29.16"/>
<polygon fill="#63b8ff" stroke="#63b8ff" points="335.32,-31.07 337.63,-20.73 329.38,-27.37 335.32,-31.07"/>
</g>
<!-- Node7&#45;&gt;Node2 -->
<g id="edge10" class="edge">
<title>Node7&#45;&gt;Node2</title>
<path fill="none" stroke="#63b8ff" d="M713.31,-401.76C573.05,-391.97 127,-356.17 127,-296.5 127,-296.5 127,-296.5 127,-234 127,-159.05 127,-69.96 127,-30.74"/>
<polygon fill="#63b8ff" stroke="#63b8ff" points="130.5,-30.96 127,-20.96 123.5,-30.96 130.5,-30.96"/>
</g>
<!-- Node8 -->
<g id="node8" class="node">
<title>Node8</title>
<g id="a_node8"><a xlink:title=" ">
<polygon fill="#e0e0e0" stroke="#999999" points="1092.5,-305 1057.5,-305 1057.5,-286 1092.5,-286 1092.5,-305"/>
<text text-anchor="middle" x="1075" y="-293" font-family="Helvetica,sans-Serif" font-size="10.00">map</text>
</a>
</g>
</g>
<!-- Node7&#45;&gt;Node8 -->
<g id="edge9" class="edge">
<title>Node7&#45;&gt;Node8</title>
<path fill="none" stroke="#63b8ff" d="M796.79,-401.53C863.37,-396.17 989.92,-383.22 1028,-360 1045.36,-349.42 1058.37,-329.8 1066.25,-315.16"/>
<polygon fill="#63b8ff" stroke="#63b8ff" points="1069.23,-317.03 1070.59,-306.52 1062.97,-313.89 1069.23,-317.03"/>
</g>
<!-- Node9 -->
<g id="node9" class="node">
<title>Node9</title>
<g id="a_node9"><a xlink:href="array_8h.html" target="_top" xlink:title=" ">
<polygon fill="white" stroke="#666666" points="979.5,-129 912.5,-129 912.5,-110 979.5,-110 979.5,-129"/>
<text text-anchor="middle" x="946" y="-117" font-family="Helvetica,sans-Serif" font-size="10.00">core/array.h</text>
</a>
</g>
</g>
<!-- Node7&#45;&gt;Node9 -->
<g id="edge11" class="edge">
<title>Node7&#45;&gt;Node9</title>
<path fill="none" stroke="#63b8ff" d="M760.93,-395.69C787.55,-356.1 896.41,-194.23 933.53,-139.04"/>
<polygon fill="#63b8ff" stroke="#63b8ff" points="936.43,-141 939.11,-130.75 930.62,-137.09 936.43,-141"/>
</g>
<!-- Node11 -->
<g id="node11" class="node">
<title>Node11</title>
<g id="a_node11"><a xlink:href="ast_8h.html" target="_top" xlink:title=" ">
<polygon fill="white" stroke="#666666" points="808.5,-305 701.5,-305 701.5,-286 808.5,-286 808.5,-305"/>
<text text-anchor="middle" x="755" y="-293" font-family="Helvetica,sans-Serif" font-size="10.00">core/evaluation/ast.h</text>
</a>
</g>
</g>
<!-- Node7&#45;&gt;Node11 -->
<g id="edge14" class="edge">
<title>Node7&#45;&gt;Node11</title>
<path fill="none" stroke="#63b8ff" d="M755,-395.66C755,-378.57 755,-340.61 755,-316.92"/>
<polygon fill="#63b8ff" stroke="#63b8ff" points="758.5,-316.97 755,-306.97 751.5,-316.97 758.5,-316.97"/>
</g>
<!-- Node22 -->
<g id="node22" class="node">
<title>Node22</title>
<g id="a_node22"><a xlink:href="error_8h.html" target="_top" xlink:title=" ">
<polygon fill="white" stroke="#666666" points="321,-184 277,-184 277,-165 321,-165 321,-184"/>
<text text-anchor="middle" x="299" y="-172" font-family="Helvetica,sans-Serif" font-size="10.00">error.h</text>
</a>
</g>
</g>
<!-- Node7&#45;&gt;Node22 -->
<g id="edge39" class="edge">
<title>Node7&#45;&gt;Node22</title>
<path fill="none" stroke="#63b8ff" d="M737.12,-395.52C667.24,-360.43 412.19,-232.34 326.95,-189.54"/>
<polygon fill="#63b8ff" stroke="#63b8ff" points="328.61,-186.45 318.1,-185.09 325.47,-192.71 328.61,-186.45"/>
</g>
<!-- Node25 -->
<g id="node25" class="node">
<title>Node25</title>
<g id="a_node25"><a xlink:href="symbol_8h.html" target="_top" xlink:title=" ">
<polygon fill="white" stroke="#666666" points="1019,-360 963,-360 963,-341 1019,-341 1019,-360"/>
<text text-anchor="middle" x="991" y="-348" font-family="Helvetica,sans-Serif" font-size="10.00">symbol.h</text>
</a>
</g>
</g>
<!-- Node7&#45;&gt;Node25 -->
<g id="edge47" class="edge">
<title>Node7&#45;&gt;Node25</title>
<path fill="none" stroke="#63b8ff" d="M795.03,-395.51C838.73,-385.7 908.26,-370.08 951.68,-360.33"/>
<polygon fill="#63b8ff" stroke="#63b8ff" points="952.19,-363.8 961.18,-358.2 950.65,-356.97 952.19,-363.8"/>
</g>
<!-- Node9&#45;&gt;Node4 -->
<g id="edge12" class="edge">
<title>Node9&#45;&gt;Node4</title>
<path fill="none" stroke="#63b8ff" d="M912.14,-111.27C909.39,-110.8 906.65,-110.37 904,-110 701.06,-81.96 456.44,-70.65 356.69,-66.99"/>
<polygon fill="#63b8ff" stroke="#63b8ff" points="356.88,-63.49 346.76,-66.63 356.63,-70.49 356.88,-63.49"/>
</g>
<!-- Node10 -->
<g id="node10" class="node">
<title>Node10</title>
<g id="a_node10"><a xlink:title=" ">
<polygon fill="#e0e0e0" stroke="#999999" points="969,-74 923,-74 923,-55 969,-55 969,-74"/>
<text text-anchor="middle" x="946" y="-62" font-family="Helvetica,sans-Serif" font-size="10.00">variant</text>
</a>
</g>
</g>
<!-- Node9&#45;&gt;Node10 -->
<g id="edge13" class="edge">
<title>Node9&#45;&gt;Node10</title>
<path fill="none" stroke="#63b8ff" d="M946,-109.75C946,-103.27 946,-94.16 946,-85.9"/>
<polygon fill="#63b8ff" stroke="#63b8ff" points="949.5,-85.96 946,-75.96 942.5,-85.96 949.5,-85.96"/>
</g>
<!-- Node11&#45;&gt;Node2 -->
<g id="edge15" class="edge">
<title>Node11&#45;&gt;Node2</title>
<path fill="none" stroke="#63b8ff" d="M701.15,-291.92C607.57,-285.42 411.22,-262.71 268,-184 206.02,-149.93 191.63,-133.25 153,-74 144.03,-60.25 137.19,-42.9 132.77,-29.81"/>
<polygon fill="#63b8ff" stroke="#63b8ff" points="136.23,-29.14 129.87,-20.66 129.56,-31.25 136.23,-29.14"/>
</g>
<!-- Node11&#45;&gt;Node4 -->
<g id="edge31" class="edge">
<title>Node11&#45;&gt;Node4</title>
<path fill="none" stroke="#63b8ff" d="M701.36,-289C659.67,-283.24 601.19,-271.85 554,-250 458.33,-205.7 364.53,-118.75 327.53,-82.26"/>
<polygon fill="#63b8ff" stroke="#63b8ff" points="330.37,-80.15 320.82,-75.57 325.43,-85.11 330.37,-80.15"/>
</g>
<!-- Node11&#45;&gt;Node9 -->
<g id="edge17" class="edge">
<title>Node11&#45;&gt;Node9</title>
<path fill="none" stroke="#63b8ff" d="M765.24,-285.72C775.59,-276.81 792.01,-262.57 806,-250 850.5,-210.02 901.93,-161.96 928.34,-137.14"/>
<polygon fill="#63b8ff" stroke="#63b8ff" points="930.59,-139.83 935.48,-130.43 925.8,-134.73 930.59,-139.83"/>
</g>
<!-- Node12 -->
<g id="node12" class="node">
<title>Node12</title>
<g id="a_node12"><a xlink:title=" ">
<polygon fill="#e0e0e0" stroke="#999999" points="788,-19 734,-19 734,0 788,0 788,-19"/>
<text text-anchor="middle" x="761" y="-7" font-family="Helvetica,sans-Serif" font-size="10.00">iostream</text>
</a>
</g>
</g>
<!-- Node11&#45;&gt;Node12 -->
<g id="edge16" class="edge">
<title>Node11&#45;&gt;Node12</title>
<path fill="none" stroke="#63b8ff" d="M808.88,-285.94C909.77,-267.26 1112.25,-215.79 1057,-110 1037.19,-72.08 1017.32,-71.87 978,-55 918.79,-29.6 844.14,-18.39 799.62,-13.67"/>
<polygon fill="#63b8ff" stroke="#63b8ff" points="800.24,-10.22 789.95,-12.71 799.55,-17.18 800.24,-10.22"/>
</g>
<!-- Node13 -->
<g id="node13" class="node">
<title>Node13</title>
<g id="a_node13"><a xlink:href="token_8h.html" target="_top" xlink:title=" ">
<polygon fill="white" stroke="#666666" points="744.5,-184 673.5,-184 673.5,-165 744.5,-165 744.5,-184"/>
<text text-anchor="middle" x="709" y="-172" font-family="Helvetica,sans-Serif" font-size="10.00">core/token.h</text>
</a>
</g>
</g>
<!-- Node11&#45;&gt;Node13 -->
<g id="edge18" class="edge">
<title>Node11&#45;&gt;Node13</title>
<path fill="none" stroke="#63b8ff" d="M753.4,-285.53C750.67,-271.28 744.49,-242.74 735,-220 731.26,-211.03 726.01,-201.66 721.21,-193.85"/>
<polygon fill="#63b8ff" stroke="#63b8ff" points="724.27,-192.15 715.93,-185.61 718.38,-195.92 724.27,-192.15"/>
</g>
<!-- Node19 -->
<g id="node19" class="node">
<title>Node19</title>
<g id="a_node19"><a xlink:href="position_8h.html" target="_top" xlink:title=" ">
<polygon fill="white" stroke="#666666" points="894.5,-129 835.5,-129 835.5,-110 894.5,-110 894.5,-129"/>
<text text-anchor="middle" x="865" y="-117" font-family="Helvetica,sans-Serif" font-size="10.00">position.h</text>
</a>
</g>
</g>
<!-- Node11&#45;&gt;Node19 -->
<g id="edge38" class="edge">
<title>Node11&#45;&gt;Node19</title>
<path fill="none" stroke="#63b8ff" d="M760.31,-285.63C772.98,-264.55 806.05,-209.85 835,-165 840.62,-156.29 847.02,-146.75 852.46,-138.74"/>
<polygon fill="#63b8ff" stroke="#63b8ff" points="855.31,-140.78 858.06,-130.55 849.53,-136.83 855.31,-140.78"/>
</g>
<!-- Node20 -->
<g id="node20" class="node">
<title>Node20</title>
<g id="a_node20"><a xlink:title=" ">
<polygon fill="#e0e0e0" stroke="#999999" points="557,-184 505,-184 505,-165 557,-165 557,-184"/>
<text text-anchor="middle" x="531" y="-172" font-family="Helvetica,sans-Serif" font-size="10.00">memory</text>
</a>
</g>
</g>
<!-- Node11&#45;&gt;Node20 -->
<g id="edge32" class="edge">
<title>Node11&#45;&gt;Node20</title>
<path fill="none" stroke="#63b8ff" d="M701.31,-289.66C666.04,-284.36 620.27,-273.25 586,-250 565.27,-235.93 549.39,-211.38 540.15,-194.32"/>
<polygon fill="#63b8ff" stroke="#63b8ff" points="543.41,-193.03 535.73,-185.73 537.19,-196.22 543.41,-193.03"/>
</g>
<!-- Node21 -->
<g id="node21" class="node">
<title>Node21</title>
<g id="a_node21"><a xlink:href="operation_8h.html" target="_top" xlink:title=" ">
<polygon fill="white" stroke="#666666" points="726.5,-250 595.5,-250 595.5,-220 726.5,-220 726.5,-250"/>
<text text-anchor="start" x="603.5" y="-238" font-family="Helvetica,sans-Serif" font-size="10.00">core/evaluation/operations</text>
<text text-anchor="middle" x="661" y="-227" font-family="Helvetica,sans-Serif" font-size="10.00">/operation.h</text>
</a>
</g>
</g>
<!-- Node11&#45;&gt;Node21 -->
<g id="edge33" class="edge">
<title>Node11&#45;&gt;Node21</title>
<path fill="none" stroke="#63b8ff" d="M740.72,-285.62C728.3,-277.89 709.83,-266.39 693.8,-256.41"/>
<polygon fill="#63b8ff" stroke="#63b8ff" points="695.83,-253.55 685.49,-251.24 692.13,-259.49 695.83,-253.55"/>
</g>
<!-- Node13&#45;&gt;Node4 -->
<g id="edge21" class="edge">
<title>Node13&#45;&gt;Node4</title>
<path fill="none" stroke="#63b8ff" d="M697.2,-164.66C677.81,-150.63 637.51,-123.46 599,-110 497.18,-74.42 465.45,-91.41 359,-74 358.17,-73.86 357.33,-73.73 356.49,-73.59"/>
<polygon fill="#63b8ff" stroke="#63b8ff" points="357.27,-70.17 346.82,-71.95 356.09,-77.07 357.27,-70.17"/>
</g>
<!-- Node13&#45;&gt;Node9 -->
<g id="edge23" class="edge">
<title>Node13&#45;&gt;Node9</title>
<path fill="none" stroke="#63b8ff" d="M745,-165.45C786.9,-156.08 856.12,-140.6 901.39,-130.48"/>
<polygon fill="#63b8ff" stroke="#63b8ff" points="901.88,-133.95 910.88,-128.35 900.36,-127.12 901.88,-133.95"/>
</g>
<!-- Node14 -->
<g id="node14" class="node">
<title>Node14</title>
<g id="a_node14"><a xlink:href="token__type_8h.html" target="_top" xlink:title=" ">
<polygon fill="white" stroke="#666666" points="797.5,-74 724.5,-74 724.5,-55 797.5,-55 797.5,-74"/>
<text text-anchor="middle" x="761" y="-62" font-family="Helvetica,sans-Serif" font-size="10.00">token_type.h</text>
</a>
</g>
</g>
<!-- Node13&#45;&gt;Node14 -->
<g id="edge19" class="edge">
<title>Node13&#45;&gt;Node14</title>
<path fill="none" stroke="#63b8ff" d="M740.07,-164.61C757.46,-157.87 777.67,-146.67 788,-129 796.66,-114.19 787.18,-96.07 777.14,-82.99"/>
<polygon fill="#63b8ff" stroke="#63b8ff" points="780.07,-81.03 770.96,-75.62 774.71,-85.53 780.07,-81.03"/>
</g>
<!-- Node15 -->
<g id="node15" class="node">
<title>Node15</title>
<g id="a_node15"><a xlink:title=" ">
<polygon fill="#e0e0e0" stroke="#999999" points="556.5,-129 473.5,-129 473.5,-110 556.5,-110 556.5,-129"/>
<text text-anchor="middle" x="515" y="-117" font-family="Helvetica,sans-Serif" font-size="10.00">uni_algo/conv.h</text>
</a>
</g>
</g>
<!-- Node13&#45;&gt;Node15 -->
<g id="edge22" class="edge">
<title>Node13&#45;&gt;Node15</title>
<path fill="none" stroke="#63b8ff" d="M676.09,-164.51C643.8,-155.69 594.37,-142.18 558.78,-132.46"/>
<polygon fill="#63b8ff" stroke="#63b8ff" points="559.78,-129.1 549.21,-129.85 557.93,-135.86 559.78,-129.1"/>
</g>
<!-- Node16 -->
<g id="node16" class="node">
<title>Node16</title>
<g id="a_node16"><a xlink:href="conversion_8h.html" target="_top" xlink:title=" ">
<polygon fill="white" stroke="#666666" points="779,-129 651,-129 651,-110 779,-110 779,-129"/>
<text text-anchor="middle" x="715" y="-117" font-family="Helvetica,sans-Serif" font-size="10.00">core/helpers/conversion.h</text>
</a>
</g>
</g>
<!-- Node13&#45;&gt;Node16 -->
<g id="edge24" class="edge">
<title>Node13&#45;&gt;Node16</title>
<path fill="none" stroke="#63b8ff" d="M709.99,-164.75C710.73,-158.19 711.78,-148.95 712.72,-140.6"/>
<polygon fill="#63b8ff" stroke="#63b8ff" points="716.17,-141.28 713.82,-130.95 709.21,-140.49 716.17,-141.28"/>
</g>
<!-- Node17 -->
<g id="node17" class="node">
<title>Node17</title>
<g id="a_node17"><a xlink:title=" ">
<polygon fill="#e0e0e0" stroke="#999999" points="455,-129 415,-129 415,-110 455,-110 455,-129"/>
<text text-anchor="middle" x="435" y="-117" font-family="Helvetica,sans-Serif" font-size="10.00">utility</text>
</a>
</g>
</g>
<!-- Node13&#45;&gt;Node17 -->
<g id="edge28" class="edge">
<title>Node13&#45;&gt;Node17</title>
<path fill="none" stroke="#63b8ff" d="M673.05,-168.19C627.23,-161.15 545.4,-147.7 466.34,-129.34"/>
<polygon fill="#63b8ff" stroke="#63b8ff" points="467.22,-125.95 456.68,-127.07 465.61,-132.77 467.22,-125.95"/>
</g>
<!-- Node18 -->
<g id="node18" class="node">
<title>Node18</title>
<g id="a_node18"><a xlink:title=" ">
<polygon fill="#e0e0e0" stroke="#999999" points="1048,-129 998,-129 998,-110 1048,-110 1048,-129"/>
<text text-anchor="middle" x="1023" y="-117" font-family="Helvetica,sans-Serif" font-size="10.00">optional</text>
</a>
</g>
</g>
<!-- Node13&#45;&gt;Node18 -->
<g id="edge29" class="edge">
<title>Node13&#45;&gt;Node18</title>
<path fill="none" stroke="#63b8ff" d="M744.98,-168.81C796.37,-161.88 893.94,-147.91 986.54,-129.35"/>
<polygon fill="#63b8ff" stroke="#63b8ff" points="987.22,-132.78 996.32,-127.36 985.83,-125.92 987.22,-132.78"/>
</g>
<!-- Node13&#45;&gt;Node19 -->
<g id="edge30" class="edge">
<title>Node13&#45;&gt;Node19</title>
<path fill="none" stroke="#63b8ff" d="M735.46,-164.51C760.86,-155.88 799.47,-142.76 827.92,-133.1"/>
<polygon fill="#63b8ff" stroke="#63b8ff" points="828.89,-136.46 837.23,-129.93 826.64,-129.84 828.89,-136.46"/>
</g>
<!-- Node14&#45;&gt;Node12 -->
<g id="edge20" class="edge">
<title>Node14&#45;&gt;Node12</title>
<path fill="none" stroke="#63b8ff" d="M761,-54.75C761,-48.27 761,-39.16 761,-30.9"/>
<polygon fill="#63b8ff" stroke="#63b8ff" points="764.5,-30.96 761,-20.96 757.5,-30.96 764.5,-30.96"/>
</g>
<!-- Node16&#45;&gt;Node2 -->
<g id="edge25" class="edge">
<title>Node16&#45;&gt;Node2</title>
<path fill="none" stroke="#63b8ff" d="M666.13,-109.52C549.33,-88.07 256.48,-34.28 159.07,-16.39"/>
<polygon fill="#63b8ff" stroke="#63b8ff" points="159.89,-12.98 149.42,-14.62 158.62,-19.87 159.89,-12.98"/>
</g>
<!-- Node16&#45;&gt;Node4 -->
<g id="edge26" class="edge">
<title>Node16&#45;&gt;Node4</title>
<path fill="none" stroke="#63b8ff" d="M650.55,-111.44C579.14,-103.39 460.62,-89.34 359,-74 358.17,-73.87 357.33,-73.75 356.48,-73.61"/>
<polygon fill="#63b8ff" stroke="#63b8ff" points="357.24,-70.19 346.81,-72.04 356.11,-77.1 357.24,-70.19"/>
</g>
<!-- Node16&#45;&gt;Node14 -->
<g id="edge27" class="edge">
<title>Node16&#45;&gt;Node14</title>
<path fill="none" stroke="#63b8ff" d="M722.6,-109.75C728.88,-102.5 738.01,-91.98 745.8,-83.02"/>
<polygon fill="#63b8ff" stroke="#63b8ff" points="748.34,-85.43 752.25,-75.59 743.05,-80.84 748.34,-85.43"/>
</g>
<!-- Node21&#45;&gt;Node4 -->
<g id="edge34" class="edge">
<title>Node21&#45;&gt;Node4</title>
<path fill="none" stroke="#63b8ff" d="M654.39,-219.69C641.38,-193.25 609.76,-137 565,-110 547.45,-99.41 425,-81.2 356.73,-71.69"/>
<polygon fill="#63b8ff" stroke="#63b8ff" points="357.34,-68.24 346.96,-70.33 356.38,-75.17 357.34,-68.24"/>
</g>
<!-- Node21&#45;&gt;Node9 -->
<g id="edge35" class="edge">
<title>Node21&#45;&gt;Node9</title>
<path fill="none" stroke="#63b8ff" d="M697.38,-219.51C753.28,-197.25 859.44,-154.97 913.14,-133.59"/>
<polygon fill="#63b8ff" stroke="#63b8ff" points="914.36,-136.87 922.36,-129.92 911.77,-130.36 914.36,-136.87"/>
</g>
<!-- Node21&#45;&gt;Node13 -->
<g id="edge36" class="edge">
<title>Node21&#45;&gt;Node13</title>
<path fill="none" stroke="#63b8ff" d="M672.87,-219.54C679.48,-211.48 687.77,-201.38 694.73,-192.89"/>
<polygon fill="#63b8ff" stroke="#63b8ff" points="697.28,-195.3 700.92,-185.35 691.87,-190.86 697.28,-195.3"/>
</g>
<!-- Node21&#45;&gt;Node20 -->
<g id="edge37" class="edge">
<title>Node21&#45;&gt;Node20</title>
<path fill="none" stroke="#63b8ff" d="M628.87,-219.54C608.09,-210.19 581.23,-198.1 560.91,-188.96"/>
<polygon fill="#63b8ff" stroke="#63b8ff" points="562.59,-185.88 552.04,-184.97 559.72,-192.26 562.59,-185.88"/>
</g>
<!-- Node22&#45;&gt;Node4 -->
<g id="edge45" class="edge">
<title>Node22&#45;&gt;Node4</title>
<path fill="none" stroke="#63b8ff" d="M299.98,-164.66C301.89,-147.5 306.14,-109.26 308.77,-85.6"/>
<polygon fill="#63b8ff" stroke="#63b8ff" points="312.21,-86.29 309.84,-75.96 305.25,-85.52 312.21,-86.29"/>
</g>
<!-- Node22&#45;&gt;Node12 -->
<g id="edge40" class="edge">
<title>Node22&#45;&gt;Node12</title>
<path fill="none" stroke="#63b8ff" d="M311.59,-164.53C331.02,-151.04 369.86,-125.47 406,-110 516.74,-62.6 656.52,-31.12 722.79,-17.77"/>
<polygon fill="#63b8ff" stroke="#63b8ff" points="723.3,-21.23 732.43,-15.85 721.94,-14.37 723.3,-21.23"/>
</g>
<!-- Node22&#45;&gt;Node15 -->
<g id="edge46" class="edge">
<title>Node22&#45;&gt;Node15</title>
<path fill="none" stroke="#63b8ff" d="M321.3,-168.03C355.58,-159.62 422.02,-143.32 467.43,-132.17"/>
<polygon fill="#63b8ff" stroke="#63b8ff" points="468.14,-135.6 477.02,-129.82 466.47,-128.8 468.14,-135.6"/>
</g>
<!-- Node22&#45;&gt;Node17 -->
<g id="edge42" class="edge">
<title>Node22&#45;&gt;Node17</title>
<path fill="none" stroke="#63b8ff" d="M321.46,-164.75C344.07,-155.94 379.1,-142.28 404.28,-132.47"/>
<polygon fill="#63b8ff" stroke="#63b8ff" points="405.27,-135.84 413.32,-128.95 402.73,-129.32 405.27,-135.84"/>
</g>
<!-- Node23 -->
<g id="node23" class="node">
<title>Node23</title>
<g id="a_node23"><a xlink:title=" ">
<polygon fill="#e0e0e0" stroke="#999999" points="283,-129 231,-129 231,-110 283,-110 283,-129"/>
<text text-anchor="middle" x="257" y="-117" font-family="Helvetica,sans-Serif" font-size="10.00">sstream</text>
</a>
</g>
</g>
<!-- Node22&#45;&gt;Node23 -->
<g id="edge41" class="edge">
<title>Node22&#45;&gt;Node23</title>
<path fill="none" stroke="#63b8ff" d="M292.06,-164.75C286.38,-157.58 278.16,-147.2 271.11,-138.3"/>
<polygon fill="#63b8ff" stroke="#63b8ff" points="273.98,-136.29 265.03,-130.63 268.49,-140.64 273.98,-136.29"/>
</g>
<!-- Node24 -->
<g id="node24" class="node">
<title>Node24</title>
<g id="a_node24"><a xlink:href="error__type_8h.html" target="_top" xlink:title=" ">
<polygon fill="white" stroke="#666666" points="230,-74 162,-74 162,-55 230,-55 230,-74"/>
<text text-anchor="middle" x="196" y="-62" font-family="Helvetica,sans-Serif" font-size="10.00">error_type.h</text>
</a>
</g>
</g>
<!-- Node22&#45;&gt;Node24 -->
<g id="edge43" class="edge">
<title>Node22&#45;&gt;Node24</title>
<path fill="none" stroke="#63b8ff" d="M276.78,-165.32C259.78,-158.07 236.82,-145.98 222,-129 211.08,-116.5 204.35,-98.79 200.48,-85.25"/>
<polygon fill="#63b8ff" stroke="#63b8ff" points="203.91,-84.56 198.06,-75.72 197.13,-86.28 203.91,-84.56"/>
</g>
<!-- Node24&#45;&gt;Node2 -->
<g id="edge44" class="edge">
<title>Node24&#45;&gt;Node2</title>
<path fill="none" stroke="#63b8ff" d="M184.3,-54.51C174.22,-46.77 159.46,-35.43 147.44,-26.2"/>
<polygon fill="#63b8ff" stroke="#63b8ff" points="149.79,-23.6 139.73,-20.28 145.53,-29.15 149.79,-23.6"/>
</g>
<!-- Node25&#45;&gt;Node8 -->
<g id="edge48" class="edge">
<title>Node25&#45;&gt;Node8</title>
<path fill="none" stroke="#63b8ff" d="M1005.25,-340.51C1017.88,-332.54 1036.56,-320.75 1051.41,-311.38"/>
<polygon fill="#63b8ff" stroke="#63b8ff" points="1053.09,-314.46 1059.68,-306.17 1049.36,-308.54 1053.09,-314.46"/>
</g>
<!-- Node25&#45;&gt;Node9 -->
<g id="edge50" class="edge">
<title>Node25&#45;&gt;Node9</title>
<path fill="none" stroke="#63b8ff" d="M989.24,-340.52C982.63,-306.89 959.24,-187.86 949.89,-140.32"/>
<polygon fill="#63b8ff" stroke="#63b8ff" points="953.36,-139.79 948,-130.65 946.49,-141.14 953.36,-139.79"/>
</g>
<!-- Node25&#45;&gt;Node11 -->
<g id="edge51" class="edge">
<title>Node25&#45;&gt;Node11</title>
<path fill="none" stroke="#63b8ff" d="M962.53,-343.11C923.83,-334.42 853.96,-318.72 806.06,-307.97"/>
<polygon fill="#63b8ff" stroke="#63b8ff" points="807,-304.59 796.47,-305.81 805.46,-311.42 807,-304.59"/>
</g>
<!-- Node25&#45;&gt;Node18 -->
<g id="edge49" class="edge">
<title>Node25&#45;&gt;Node18</title>
<path fill="none" stroke="#63b8ff" d="M994.34,-340.78C997.59,-331.91 1002.41,-317.7 1005,-305 1017.02,-246 1021.09,-174.69 1022.4,-140.58"/>
<polygon fill="#63b8ff" stroke="#63b8ff" points="1025.89,-141.06 1022.73,-130.94 1018.89,-140.82 1025.89,-141.06"/>
</g>
</g>
</svg>
        <g id="navigator" transform="translate(0 0)" fill="#404254">
                <rect fill="#f2f5e9" fill-opacity="0.5" stroke="#606060" stroke-width=".5" x="0" y="0" width="60" height="60"/>
                <use id="zoomplus" xlink:href="#zoomPlus" x="17" y="9" onmousedown="handleZoom(evt,'in')"/>
                <use id="zoomminus" xlink:href="#zoomMin" x="42" y="9" onmousedown="handleZoom(evt,'out')"/>
                <use id="reset" xlink:href="#resetDef" x="30" y="36" onmousedown="handleReset()"/>
                <g id="arrowUp" xlink:href="#dirArrow" transform="translate(30 24)" onmousedown="handlePan(0,-1)">
                  <use xlink:href="#rim" fill="#404040">
                        <set attributeName="fill" to="#808080" begin="arrowUp.mouseover" end="arrowUp.mouseout"/>
                  </use>
                  <path fill="none" stroke="white" stroke-width="1.5" d="M0,-3.0v7 M-2.5,-0.5L0,-3.0L2.5,-0.5"/>
                </g>
                <g id="arrowRight" xlink:href="#dirArrow" transform="rotate(90) translate(36 -43)" onmousedown="handlePan(1,0)">
                  <use xlink:href="#rim" fill="#404040">
                        <set attributeName="fill" to="#808080" begin="arrowRight.mouseover" end="arrowRight.mouseout"/>
                  </use>
                  <path fill="none" stroke="white" stroke-width="1.5" d="M0,-3.0v7 M-2.5,-0.5L0,-3.0L2.5,-0.5"/>
                </g>
                <g id="arrowDown" xlink:href="#dirArrow" transform="rotate(180) translate(-30 -48)" onmousedown="handlePan(0,1)">
                  <use xlink:href="#rim" fill="#404040">
                        <set attributeName="fill" to="#808080" begin="arrowDown.mouseover" end="arrowDown.mouseout"/>
                  </use>
                  <path fill="none" stroke="white" stroke-width="1.5" d="M0,-3.0v7 M-2.5,-0.5L0,-3.0L2.5,-0.5"/>
                </g>
                <g id="arrowLeft" xlink:href="#dirArrow" transform="rotate(270) translate(-36 17)" onmousedown="handlePan(-1,0)">
                  <use xlink:href="#rim" fill="#404040">
                        <set attributeName="fill" to="#808080" begin="arrowLeft.mouseover" end="arrowLeft.mouseout"/>
                  </use>
                  <path fill="none" stroke="white" stroke-width="1.5" d="M0,-3.0v7 M-2.5,-0.5L0,-3.0L2.5,-0.5"/>
                </g>
        </g>
        <svg viewBox="0 0 15 15" width="100%" height="30px" preserveAspectRatio="xMaxYMin meet">
         <g id="arrow_out" transform="scale(0.3 0.3)">
          <a xlink:href="file__fixture_8h__incl_org.svg" target="_base">
           <rect id="button" ry="5" rx="5" y="6" x="6" height="38" width="38"
                fill="#f2f5e9" fill-opacity="0.5" stroke="#606060" stroke-width="1.0"/>
           <path id="arrow"
             d="M 11.500037,31.436501 C 11.940474,20.09759 22.043105,11.32322 32.158766,21.979434 L 37.068811,17.246167 C 37.068811,17.246167 37.088388,32 37.088388,32 L 22.160133,31.978069 C 22.160133,31.978069 26.997745,27.140456 26.997745,27.140456 C 18.528582,18.264221 13.291696,25.230495 11.500037,31.436501 z"
             style="fill:#404040;"/>
          </a>
         </g>
        </svg>
</svg>
