<?xml version="1.0" encoding="UTF-8" standalone="no"?>
<!DOCTYPE svg PUBLIC "-//W3C//DTD SVG 1.1//EN"
 "http://www.w3.org/Graphics/SVG/1.1/DTD/svg11.dtd">
<!-- Generated by graphviz version 7.1.0 (20230121.1956)
 -->
<!-- Title: src/core/evaluation/operations/functions.cpp Pages: 1 -->
<svg width="1338pt" height="478pt"
 viewBox="0.00 0.00 1338.00 478.00" xmlns="http://www.w3.org/2000/svg" xmlns:xlink="http://www.w3.org/1999/xlink">
<g id="graph0" class="graph" transform="scale(1 1) rotate(0) translate(4 474)">
<title>src/core/evaluation/operations/functions.cpp</title>
<!-- Node1 -->
<g id="node1" class="node">
<title>Node1</title>
<g id="a_node1"><a xlink:title=" ">
<polygon fill="#999999" stroke="#666666" points="434,-470 308,-470 308,-440 434,-440 434,-470"/>
<text text-anchor="start" x="316" y="-458" font-family="Helvetica,sans-Serif" font-size="10.00">src/core/evaluation</text>
<text text-anchor="middle" x="371" y="-447" font-family="Helvetica,sans-Serif" font-size="10.00">/operations/functions.cpp</text>
</a>
</g>
</g>
<!-- Node2 -->
<g id="node2" class="node">
<title>Node2</title>
<g id="a_node2"><a xlink:href="functions_8h.html" target="_top" xlink:title=" ">
<polygon fill="white" stroke="#666666" points="182.5,-294 117.5,-294 117.5,-275 182.5,-275 182.5,-294"/>
<text text-anchor="middle" x="150" y="-282" font-family="Helvetica,sans-Serif" font-size="10.00">functions.h</text>
</a>
</g>
</g>
<!-- Node1&#45;&gt;Node2 -->
<g id="edge1" class="edge">
<title>Node1&#45;&gt;Node2</title>
<path fill="none" stroke="#63b8ff" d="M307.78,-452.67C267.06,-448.47 215.79,-436.41 183,-404 156.37,-377.68 150.74,-331.84 149.83,-305.55"/>
<polygon fill="#63b8ff" stroke="#63b8ff" points="153.34,-305.86 149.71,-295.9 146.34,-305.95 153.34,-305.86"/>
</g>
<!-- Node4 -->
<g id="node4" class="node">
<title>Node4</title>
<g id="a_node4"><a xlink:href="array_8h.html" target="_top" xlink:title=" ">
<polygon fill="white" stroke="#666666" points="358.5,-129 291.5,-129 291.5,-110 358.5,-110 358.5,-129"/>
<text text-anchor="middle" x="325" y="-117" font-family="Helvetica,sans-Serif" font-size="10.00">core/array.h</text>
</a>
</g>
</g>
<!-- Node1&#45;&gt;Node4 -->
<g id="edge66" class="edge">
<title>Node1&#45;&gt;Node4</title>
<path fill="none" stroke="#63b8ff" d="M307.88,-452.14C263.75,-447.87 205.68,-435.92 165,-404 121.68,-370.01 121.04,-347.5 108,-294 106,-285.8 104.13,-282.51 108,-275 113.4,-264.53 247.81,-172.76 302.33,-135.81"/>
<polygon fill="#63b8ff" stroke="#63b8ff" points="304.25,-138.74 310.57,-130.24 300.33,-132.94 304.25,-138.74"/>
</g>
<!-- Node21 -->
<g id="node21" class="node">
<title>Node21</title>
<g id="a_node21"><a xlink:href="error_8h.html" target="_top" xlink:title=" ">
<polygon fill="white" stroke="#666666" points="1258.5,-184 1193.5,-184 1193.5,-165 1258.5,-165 1258.5,-184"/>
<text text-anchor="middle" x="1226" y="-172" font-family="Helvetica,sans-Serif" font-size="10.00">core/error.h</text>
</a>
</g>
</g>
<!-- Node1&#45;&gt;Node21 -->
<g id="edge28" class="edge">
<title>Node1&#45;&gt;Node21</title>
<path fill="none" stroke="#63b8ff" d="M434.29,-452.68C639.15,-447.57 1271,-424.95 1271,-340.5 1271,-340.5 1271,-340.5 1271,-283.5 1271,-249.77 1252.07,-214.36 1238.76,-193.64"/>
<polygon fill="#63b8ff" stroke="#63b8ff" points="1241.77,-191.84 1233.29,-185.48 1235.96,-195.74 1241.77,-191.84"/>
</g>
<!-- Node24 -->
<g id="node24" class="node">
<title>Node24</title>
<g id="a_node24"><a xlink:title=" ">
<polygon fill="#e0e0e0" stroke="#999999" points="276.5,-404 225.5,-404 225.5,-385 276.5,-385 276.5,-404"/>
<text text-anchor="middle" x="251" y="-392" font-family="Helvetica,sans-Serif" font-size="10.00">numeric</text>
</a>
</g>
</g>
<!-- Node1&#45;&gt;Node24 -->
<g id="edge36" class="edge">
<title>Node1&#45;&gt;Node24</title>
<path fill="none" stroke="#63b8ff" d="M341.34,-439.54C322.42,-430.32 298.05,-418.44 279.39,-409.34"/>
<polygon fill="#63b8ff" stroke="#63b8ff" points="281.03,-406.25 270.51,-405.01 277.96,-412.54 281.03,-406.25"/>
</g>
<!-- Node25 -->
<g id="node25" class="node">
<title>Node25</title>
<g id="a_node25"><a xlink:title=" ">
<polygon fill="#e0e0e0" stroke="#999999" points="325,-404 295,-404 295,-385 325,-385 325,-404"/>
<text text-anchor="middle" x="310" y="-392" font-family="Helvetica,sans-Serif" font-size="10.00">set</text>
</a>
</g>
</g>
<!-- Node1&#45;&gt;Node25 -->
<g id="edge37" class="edge">
<title>Node1&#45;&gt;Node25</title>
<path fill="none" stroke="#63b8ff" d="M355.92,-439.54C347.24,-431.22 336.3,-420.72 327.28,-412.07"/>
<polygon fill="#63b8ff" stroke="#63b8ff" points="329.78,-409.62 320.14,-405.22 324.93,-414.67 329.78,-409.62"/>
</g>
<!-- Node26 -->
<g id="node26" class="node">
<title>Node26</title>
<g id="a_node26"><a xlink:title=" ">
<polygon fill="#e0e0e0" stroke="#999999" points="399,-404 343,-404 343,-385 399,-385 399,-404"/>
<text text-anchor="middle" x="371" y="-392" font-family="Helvetica,sans-Serif" font-size="10.00">algorithm</text>
</a>
</g>
</g>
<!-- Node1&#45;&gt;Node26 -->
<g id="edge38" class="edge">
<title>Node1&#45;&gt;Node26</title>
<path fill="none" stroke="#63b8ff" d="M371,-439.54C371,-432.34 371,-423.53 371,-415.68"/>
<polygon fill="#63b8ff" stroke="#63b8ff" points="374.5,-415.69 371,-405.69 367.5,-415.69 374.5,-415.69"/>
</g>
<!-- Node27 -->
<g id="node27" class="node">
<title>Node27</title>
<g id="a_node27"><a xlink:title=" ">
<polygon fill="#e0e0e0" stroke="#999999" points="466.5,-404 417.5,-404 417.5,-385 466.5,-385 466.5,-404"/>
<text text-anchor="middle" x="442" y="-392" font-family="Helvetica,sans-Serif" font-size="10.00">random</text>
</a>
</g>
</g>
<!-- Node1&#45;&gt;Node27 -->
<g id="edge39" class="edge">
<title>Node1&#45;&gt;Node27</title>
<path fill="none" stroke="#63b8ff" d="M388.55,-439.54C398.97,-430.96 412.18,-420.07 422.87,-411.26"/>
<polygon fill="#63b8ff" stroke="#63b8ff" points="424.81,-414.2 430.3,-405.14 420.36,-408.8 424.81,-414.2"/>
</g>
<!-- Node28 -->
<g id="node28" class="node">
<title>Node28</title>
<g id="a_node28"><a xlink:title=" ">
<polygon fill="#e0e0e0" stroke="#999999" points="529,-404 485,-404 485,-385 529,-385 529,-404"/>
<text text-anchor="middle" x="507" y="-392" font-family="Helvetica,sans-Serif" font-size="10.00">cmath</text>
</a>
</g>
</g>
<!-- Node1&#45;&gt;Node28 -->
<g id="edge40" class="edge">
<title>Node1&#45;&gt;Node28</title>
<path fill="none" stroke="#63b8ff" d="M404.62,-439.54C426.45,-430.15 454.71,-417.99 476,-408.83"/>
<polygon fill="#63b8ff" stroke="#63b8ff" points="477.24,-412.11 485.04,-404.94 474.47,-405.68 477.24,-412.11"/>
</g>
<!-- Node29 -->
<g id="node29" class="node">
<title>Node29</title>
<g id="a_node29"><a xlink:href="config_8h.html" target="_top" xlink:title=" ">
<polygon fill="white" stroke="#666666" points="632.5,-239 513.5,-239 513.5,-220 632.5,-220 632.5,-239"/>
<text text-anchor="middle" x="573" y="-227" font-family="Helvetica,sans-Serif" font-size="10.00">core/constants/config.h</text>
</a>
</g>
</g>
<!-- Node1&#45;&gt;Node29 -->
<g id="edge41" class="edge">
<title>Node1&#45;&gt;Node29</title>
<path fill="none" stroke="#63b8ff" d="M434.1,-450.59C469.49,-445.32 511.69,-432.84 538,-404 577.28,-360.93 577.57,-286.42 575.08,-250.72"/>
<polygon fill="#63b8ff" stroke="#63b8ff" points="578.58,-250.62 574.23,-240.96 571.61,-251.22 578.58,-250.62"/>
</g>
<!-- Node30 -->
<g id="node30" class="node">
<title>Node30</title>
<g id="a_node30"><a xlink:href="symbol__table_8h.html" target="_top" xlink:title=" ">
<polygon fill="white" stroke="#666666" points="854,-404 750,-404 750,-385 854,-385 854,-404"/>
<text text-anchor="middle" x="802" y="-392" font-family="Helvetica,sans-Serif" font-size="10.00">core/symbol_table.h</text>
</a>
</g>
</g>
<!-- Node1&#45;&gt;Node30 -->
<g id="edge44" class="edge">
<title>Node1&#45;&gt;Node30</title>
<path fill="none" stroke="#63b8ff" d="M434.13,-445.43C515.56,-434.38 656.4,-415.26 738.17,-404.16"/>
<polygon fill="#63b8ff" stroke="#63b8ff" points="738.61,-407.64 748.05,-402.82 737.67,-400.7 738.61,-407.64"/>
</g>
<!-- Node34 -->
<g id="node34" class="node">
<title>Node34</title>
<g id="a_node34"><a xlink:href="algorithms_8h.html" target="_top" xlink:title=" ">
<polygon fill="white" stroke="#666666" points="220.5,-184 81.5,-184 81.5,-165 220.5,-165 220.5,-184"/>
<text text-anchor="middle" x="151" y="-172" font-family="Helvetica,sans-Serif" font-size="10.00">core/evaluation/algorithms.h</text>
</a>
</g>
</g>
<!-- Node1&#45;&gt;Node34 -->
<g id="edge63" class="edge">
<title>Node1&#45;&gt;Node34</title>
<path fill="none" stroke="#63b8ff" d="M307.64,-448.61C275.75,-442.59 239.07,-430.03 216,-404 177.27,-360.29 207.52,-331.01 191,-275 182.54,-246.32 168.96,-214.47 160,-194.71"/>
<polygon fill="#63b8ff" stroke="#63b8ff" points="163.23,-193.34 155.86,-185.72 156.87,-196.27 163.23,-193.34"/>
</g>
<!-- Node3 -->
<g id="node3" class="node">
<title>Node3</title>
<g id="a_node3"><a xlink:href="pervade_8h.html" target="_top" xlink:title=" ">
<polygon fill="white" stroke="#666666" points="63.5,-184 4.5,-184 4.5,-165 63.5,-165 63.5,-184"/>
<text text-anchor="middle" x="34" y="-172" font-family="Helvetica,sans-Serif" font-size="10.00">pervade.h</text>
</a>
</g>
</g>
<!-- Node2&#45;&gt;Node3 -->
<g id="edge2" class="edge">
<title>Node2&#45;&gt;Node3</title>
<path fill="none" stroke="#63b8ff" d="M140.51,-274.66C121.13,-256.62 76.77,-215.32 51.85,-192.12"/>
<polygon fill="#63b8ff" stroke="#63b8ff" points="54.44,-189.74 44.73,-185.49 49.67,-194.87 54.44,-189.74"/>
</g>
<!-- Node11 -->
<g id="node11" class="node">
<title>Node11</title>
<g id="a_node11"><a xlink:href="operation_8h.html" target="_top" xlink:title=" ">
<polygon fill="white" stroke="#666666" points="456.5,-239 391.5,-239 391.5,-220 456.5,-220 456.5,-239"/>
<text text-anchor="middle" x="424" y="-227" font-family="Helvetica,sans-Serif" font-size="10.00">operation.h</text>
</a>
</g>
</g>
<!-- Node2&#45;&gt;Node11 -->
<g id="edge11" class="edge">
<title>Node2&#45;&gt;Node11</title>
<path fill="none" stroke="#63b8ff" d="M182.78,-277.16C231.98,-267.64 325,-249.65 380.04,-239"/>
<polygon fill="#63b8ff" stroke="#63b8ff" points="380.54,-242.47 389.7,-237.14 379.21,-235.6 380.54,-242.47"/>
</g>
<!-- Node3&#45;&gt;Node4 -->
<g id="edge3" class="edge">
<title>Node3&#45;&gt;Node4</title>
<path fill="none" stroke="#63b8ff" d="M63.84,-166.69C66.6,-166.1 69.35,-165.53 72,-165 144.63,-150.5 229.49,-136.09 280.16,-127.75"/>
<polygon fill="#63b8ff" stroke="#63b8ff" points="280.55,-131.23 289.86,-126.16 279.42,-124.32 280.55,-131.23"/>
</g>
<!-- Node5 -->
<g id="node5" class="node">
<title>Node5</title>
<g id="a_node5"><a xlink:href="datatypes_8h.html" target="_top" xlink:title=" ">
<polygon fill="white" stroke="#666666" points="530,-74 462,-74 462,-55 530,-55 530,-74"/>
<text text-anchor="middle" x="496" y="-62" font-family="Helvetica,sans-Serif" font-size="10.00">datatypes.h</text>
</a>
</g>
</g>
<!-- Node3&#45;&gt;Node5 -->
<g id="edge9" class="edge">
<title>Node3&#45;&gt;Node5</title>
<path fill="none" stroke="#63b8ff" d="M58.32,-164.57C95.66,-151.13 169.56,-125.62 234,-110 309.03,-91.81 397.93,-78.39 450.49,-71.27"/>
<polygon fill="#63b8ff" stroke="#63b8ff" points="450.83,-74.76 460.28,-69.96 449.9,-67.82 450.83,-74.76"/>
</g>
<!-- Node10 -->
<g id="node10" class="node">
<title>Node10</title>
<g id="a_node10"><a xlink:title=" ">
<polygon fill="#e0e0e0" stroke="#999999" points="68,-129 0,-129 0,-110 68,-110 68,-129"/>
<text text-anchor="middle" x="34" y="-117" font-family="Helvetica,sans-Serif" font-size="10.00">pervade.tpp</text>
</a>
</g>
</g>
<!-- Node3&#45;&gt;Node10 -->
<g id="edge10" class="edge">
<title>Node3&#45;&gt;Node10</title>
<path fill="none" stroke="#63b8ff" d="M34,-164.75C34,-158.27 34,-149.16 34,-140.9"/>
<polygon fill="#63b8ff" stroke="#63b8ff" points="37.5,-140.96 34,-130.96 30.5,-140.96 37.5,-140.96"/>
</g>
<!-- Node4&#45;&gt;Node5 -->
<g id="edge4" class="edge">
<title>Node4&#45;&gt;Node5</title>
<path fill="none" stroke="#63b8ff" d="M354.01,-109.51C382.1,-100.8 424.91,-87.53 456.19,-77.84"/>
<polygon fill="#63b8ff" stroke="#63b8ff" points="457.17,-81.2 465.69,-74.89 455.1,-74.51 457.17,-81.2"/>
</g>
<!-- Node9 -->
<g id="node9" class="node">
<title>Node9</title>
<g id="a_node9"><a xlink:title=" ">
<polygon fill="#e0e0e0" stroke="#999999" points="348,-74 302,-74 302,-55 348,-55 348,-74"/>
<text text-anchor="middle" x="325" y="-62" font-family="Helvetica,sans-Serif" font-size="10.00">variant</text>
</a>
</g>
</g>
<!-- Node4&#45;&gt;Node9 -->
<g id="edge8" class="edge">
<title>Node4&#45;&gt;Node9</title>
<path fill="none" stroke="#63b8ff" d="M325,-109.75C325,-103.27 325,-94.16 325,-85.9"/>
<polygon fill="#63b8ff" stroke="#63b8ff" points="328.5,-85.96 325,-75.96 321.5,-85.96 328.5,-85.96"/>
</g>
<!-- Node6 -->
<g id="node6" class="node">
<title>Node6</title>
<g id="a_node6"><a xlink:title=" ">
<polygon fill="#e0e0e0" stroke="#999999" points="484,-19 440,-19 440,0 484,0 484,-19"/>
<text text-anchor="middle" x="462" y="-7" font-family="Helvetica,sans-Serif" font-size="10.00">vector</text>
</a>
</g>
</g>
<!-- Node5&#45;&gt;Node6 -->
<g id="edge5" class="edge">
<title>Node5&#45;&gt;Node6</title>
<path fill="none" stroke="#63b8ff" d="M490.39,-54.75C485.88,-47.73 479.41,-37.64 473.79,-28.87"/>
<polygon fill="#63b8ff" stroke="#63b8ff" points="476.9,-27.24 468.55,-20.72 471.01,-31.02 476.9,-27.24"/>
</g>
<!-- Node7 -->
<g id="node7" class="node">
<title>Node7</title>
<g id="a_node7"><a xlink:title=" ">
<polygon fill="#e0e0e0" stroke="#999999" points="979.5,-19 938.5,-19 938.5,0 979.5,0 979.5,-19"/>
<text text-anchor="middle" x="959" y="-7" font-family="Helvetica,sans-Serif" font-size="10.00">string</text>
</a>
</g>
</g>
<!-- Node5&#45;&gt;Node7 -->
<g id="edge6" class="edge">
<title>Node5&#45;&gt;Node7</title>
<path fill="none" stroke="#63b8ff" d="M530.42,-59.56C616.91,-49.66 842.43,-23.84 926.65,-14.2"/>
<polygon fill="#63b8ff" stroke="#63b8ff" points="926.98,-17.69 936.52,-13.07 926.18,-10.73 926.98,-17.69"/>
</g>
<!-- Node8 -->
<g id="node8" class="node">
<title>Node8</title>
<g id="a_node8"><a xlink:title=" ">
<polygon fill="#e0e0e0" stroke="#999999" points="555.5,-19 502.5,-19 502.5,0 555.5,0 555.5,-19"/>
<text text-anchor="middle" x="529" y="-7" font-family="Helvetica,sans-Serif" font-size="10.00">complex</text>
</a>
</g>
</g>
<!-- Node5&#45;&gt;Node8 -->
<g id="edge7" class="edge">
<title>Node5&#45;&gt;Node8</title>
<path fill="none" stroke="#63b8ff" d="M501.45,-54.75C505.77,-47.81 511.96,-37.86 517.38,-29.16"/>
<polygon fill="#63b8ff" stroke="#63b8ff" points="520.32,-31.07 522.63,-20.73 514.38,-27.37 520.32,-31.07"/>
</g>
<!-- Node11&#45;&gt;Node4 -->
<g id="edge13" class="edge">
<title>Node11&#45;&gt;Node4</title>
<path fill="none" stroke="#63b8ff" d="M418.48,-219.81C410.23,-207.12 393.83,-183.06 377,-165 367.42,-154.72 355.6,-144.45 345.65,-136.36"/>
<polygon fill="#63b8ff" stroke="#63b8ff" points="348.02,-133.77 338.01,-130.3 343.67,-139.26 348.02,-133.77"/>
</g>
<!-- Node11&#45;&gt;Node5 -->
<g id="edge12" class="edge">
<title>Node11&#45;&gt;Node5</title>
<path fill="none" stroke="#63b8ff" d="M425.85,-219.79C430.35,-199.66 442.97,-148.65 463,-110 467.85,-100.63 474.61,-91.12 480.74,-83.31"/>
<polygon fill="#63b8ff" stroke="#63b8ff" points="483.4,-85.59 487.03,-75.64 477.98,-81.15 483.4,-85.59"/>
</g>
<!-- Node12 -->
<g id="node12" class="node">
<title>Node12</title>
<g id="a_node12"><a xlink:href="token_8h.html" target="_top" xlink:title=" ">
<polygon fill="white" stroke="#666666" points="772.5,-184 701.5,-184 701.5,-165 772.5,-165 772.5,-184"/>
<text text-anchor="middle" x="737" y="-172" font-family="Helvetica,sans-Serif" font-size="10.00">core/token.h</text>
</a>
</g>
</g>
<!-- Node11&#45;&gt;Node12 -->
<g id="edge14" class="edge">
<title>Node11&#45;&gt;Node12</title>
<path fill="none" stroke="#63b8ff" d="M456.9,-222.93C512.73,-213.48 626.14,-194.27 690.21,-183.42"/>
<polygon fill="#63b8ff" stroke="#63b8ff" points="690.42,-186.94 699.7,-181.82 689.26,-180.03 690.42,-186.94"/>
</g>
<!-- Node20 -->
<g id="node20" class="node">
<title>Node20</title>
<g id="a_node20"><a xlink:title=" ">
<polygon fill="#e0e0e0" stroke="#999999" points="519,-184 467,-184 467,-165 519,-165 519,-184"/>
<text text-anchor="middle" x="493" y="-172" font-family="Helvetica,sans-Serif" font-size="10.00">memory</text>
</a>
</g>
</g>
<!-- Node11&#45;&gt;Node20 -->
<g id="edge27" class="edge">
<title>Node11&#45;&gt;Node20</title>
<path fill="none" stroke="#63b8ff" d="M435.7,-219.51C445.78,-211.77 460.54,-200.43 472.56,-191.2"/>
<polygon fill="#63b8ff" stroke="#63b8ff" points="474.47,-194.15 480.27,-185.28 470.21,-188.6 474.47,-194.15"/>
</g>
<!-- Node12&#45;&gt;Node4 -->
<g id="edge19" class="edge">
<title>Node12&#45;&gt;Node4</title>
<path fill="none" stroke="#63b8ff" d="M701.16,-168.89C626.07,-159.23 452.39,-136.89 369.97,-126.28"/>
<polygon fill="#63b8ff" stroke="#63b8ff" points="370.6,-122.84 360.23,-125.03 369.7,-129.78 370.6,-122.84"/>
</g>
<!-- Node12&#45;&gt;Node5 -->
<g id="edge17" class="edge">
<title>Node12&#45;&gt;Node5</title>
<path fill="none" stroke="#63b8ff" d="M719.5,-164.55C686.4,-147.63 617.39,-112.4 612,-110 585.74,-98.33 555.41,-86.76 532.34,-78.34"/>
<polygon fill="#63b8ff" stroke="#63b8ff" points="533.67,-75.1 523.08,-74.99 531.29,-81.68 533.67,-75.1"/>
</g>
<!-- Node13 -->
<g id="node13" class="node">
<title>Node13</title>
<g id="a_node13"><a xlink:href="token__type_8h.html" target="_top" xlink:title=" ">
<polygon fill="white" stroke="#666666" points="930.5,-74 857.5,-74 857.5,-55 930.5,-55 930.5,-74"/>
<text text-anchor="middle" x="894" y="-62" font-family="Helvetica,sans-Serif" font-size="10.00">token_type.h</text>
</a>
</g>
</g>
<!-- Node12&#45;&gt;Node13 -->
<g id="edge15" class="edge">
<title>Node12&#45;&gt;Node13</title>
<path fill="none" stroke="#63b8ff" d="M772.94,-166.22C819.05,-156.51 894.06,-139.36 902,-129 911.61,-116.46 908.07,-98.26 903.03,-84.56"/>
<polygon fill="#63b8ff" stroke="#63b8ff" points="906.41,-83.56 899.29,-75.72 899.97,-86.29 906.41,-83.56"/>
</g>
<!-- Node15 -->
<g id="node15" class="node">
<title>Node15</title>
<g id="a_node15"><a xlink:title=" ">
<polygon fill="#e0e0e0" stroke="#999999" points="1128.5,-129 1045.5,-129 1045.5,-110 1128.5,-110 1128.5,-129"/>
<text text-anchor="middle" x="1087" y="-117" font-family="Helvetica,sans-Serif" font-size="10.00">uni_algo/conv.h</text>
</a>
</g>
</g>
<!-- Node12&#45;&gt;Node15 -->
<g id="edge18" class="edge">
<title>Node12&#45;&gt;Node15</title>
<path fill="none" stroke="#63b8ff" d="M772.93,-168.36C827.08,-160.57 933.11,-145.13 1033.95,-129.3"/>
<polygon fill="#63b8ff" stroke="#63b8ff" points="1034.43,-132.77 1043.77,-127.75 1033.34,-125.85 1034.43,-132.77"/>
</g>
<!-- Node16 -->
<g id="node16" class="node">
<title>Node16</title>
<g id="a_node16"><a xlink:href="conversion_8h.html" target="_top" xlink:title=" ">
<polygon fill="white" stroke="#666666" points="893,-129 765,-129 765,-110 893,-110 893,-129"/>
<text text-anchor="middle" x="829" y="-117" font-family="Helvetica,sans-Serif" font-size="10.00">core/helpers/conversion.h</text>
</a>
</g>
</g>
<!-- Node12&#45;&gt;Node16 -->
<g id="edge20" class="edge">
<title>Node12&#45;&gt;Node16</title>
<path fill="none" stroke="#63b8ff" d="M752.61,-164.51C766.7,-156.39 787.69,-144.3 804.1,-134.85"/>
<polygon fill="#63b8ff" stroke="#63b8ff" points="805.39,-138.14 812.31,-130.11 801.9,-132.07 805.39,-138.14"/>
</g>
<!-- Node17 -->
<g id="node17" class="node">
<title>Node17</title>
<g id="a_node17"><a xlink:title=" ">
<polygon fill="#e0e0e0" stroke="#999999" points="1027,-129 987,-129 987,-110 1027,-110 1027,-129"/>
<text text-anchor="middle" x="1007" y="-117" font-family="Helvetica,sans-Serif" font-size="10.00">utility</text>
</a>
</g>
</g>
<!-- Node12&#45;&gt;Node17 -->
<g id="edge24" class="edge">
<title>Node12&#45;&gt;Node17</title>
<path fill="none" stroke="#63b8ff" d="M772.85,-166.46C825.97,-156.03 924.74,-136.65 975.33,-126.72"/>
<polygon fill="#63b8ff" stroke="#63b8ff" points="975.9,-130.17 985.04,-124.81 974.55,-123.3 975.9,-130.17"/>
</g>
<!-- Node18 -->
<g id="node18" class="node">
<title>Node18</title>
<g id="a_node18"><a xlink:title=" ">
<polygon fill="#e0e0e0" stroke="#999999" points="709,-129 659,-129 659,-110 709,-110 709,-129"/>
<text text-anchor="middle" x="684" y="-117" font-family="Helvetica,sans-Serif" font-size="10.00">optional</text>
</a>
</g>
</g>
<!-- Node12&#45;&gt;Node18 -->
<g id="edge25" class="edge">
<title>Node12&#45;&gt;Node18</title>
<path fill="none" stroke="#63b8ff" d="M728.25,-164.75C720.85,-157.35 710.04,-146.54 700.95,-137.45"/>
<polygon fill="#63b8ff" stroke="#63b8ff" points="703.56,-135.11 694.01,-130.51 698.61,-140.06 703.56,-135.11"/>
</g>
<!-- Node19 -->
<g id="node19" class="node">
<title>Node19</title>
<g id="a_node19"><a xlink:href="position_8h.html" target="_top" xlink:title=" ">
<polygon fill="white" stroke="#666666" points="602.5,-129 543.5,-129 543.5,-110 602.5,-110 602.5,-129"/>
<text text-anchor="middle" x="573" y="-117" font-family="Helvetica,sans-Serif" font-size="10.00">position.h</text>
</a>
</g>
</g>
<!-- Node12&#45;&gt;Node19 -->
<g id="edge26" class="edge">
<title>Node12&#45;&gt;Node19</title>
<path fill="none" stroke="#63b8ff" d="M709.18,-164.51C682.36,-155.84 641.54,-142.65 611.58,-132.97"/>
<polygon fill="#63b8ff" stroke="#63b8ff" points="612.71,-129.66 602.12,-129.91 610.56,-136.32 612.71,-129.66"/>
</g>
<!-- Node14 -->
<g id="node14" class="node">
<title>Node14</title>
<g id="a_node14"><a xlink:title=" ">
<polygon fill="#e0e0e0" stroke="#999999" points="1330,-19 1276,-19 1276,0 1330,0 1330,-19"/>
<text text-anchor="middle" x="1303" y="-7" font-family="Helvetica,sans-Serif" font-size="10.00">iostream</text>
</a>
</g>
</g>
<!-- Node13&#45;&gt;Node14 -->
<g id="edge16" class="edge">
<title>Node13&#45;&gt;Node14</title>
<path fill="none" stroke="#63b8ff" d="M930.66,-58.75C1007.68,-48.77 1185.7,-25.7 1264.4,-15.5"/>
<polygon fill="#63b8ff" stroke="#63b8ff" points="1264.73,-18.99 1274.2,-14.23 1263.84,-12.05 1264.73,-18.99"/>
</g>
<!-- Node16&#45;&gt;Node5 -->
<g id="edge22" class="edge">
<title>Node16&#45;&gt;Node5</title>
<path fill="none" stroke="#63b8ff" d="M772.51,-109.51C707.31,-99.13 601.38,-82.27 541.33,-72.71"/>
<polygon fill="#63b8ff" stroke="#63b8ff" points="542.23,-69.31 531.8,-71.2 541.13,-76.23 542.23,-69.31"/>
</g>
<!-- Node16&#45;&gt;Node7 -->
<g id="edge21" class="edge">
<title>Node16&#45;&gt;Node7</title>
<path fill="none" stroke="#63b8ff" d="M829.47,-109.52C830.64,-96.03 834.73,-70.45 849,-55 869.42,-32.89 902.36,-21.52 926.88,-15.84"/>
<polygon fill="#63b8ff" stroke="#63b8ff" points="927.59,-19.27 936.66,-13.79 926.16,-12.41 927.59,-19.27"/>
</g>
<!-- Node16&#45;&gt;Node13 -->
<g id="edge23" class="edge">
<title>Node16&#45;&gt;Node13</title>
<path fill="none" stroke="#63b8ff" d="M840.03,-109.51C849.42,-101.85 863.15,-90.66 874.41,-81.47"/>
<polygon fill="#63b8ff" stroke="#63b8ff" points="876.43,-84.35 881.96,-75.31 872,-78.92 876.43,-84.35"/>
</g>
<!-- Node21&#45;&gt;Node5 -->
<g id="edge34" class="edge">
<title>Node21&#45;&gt;Node5</title>
<path fill="none" stroke="#63b8ff" d="M1193.28,-171.97C1100.75,-167.39 838.53,-152.65 756,-129 737.85,-123.8 735.86,-116.13 718,-110 658.66,-89.63 587.02,-77.36 541.48,-71.01"/>
<polygon fill="#63b8ff" stroke="#63b8ff" points="542.09,-67.56 531.71,-69.69 541.15,-74.5 542.09,-67.56"/>
</g>
<!-- Node21&#45;&gt;Node14 -->
<g id="edge29" class="edge">
<title>Node21&#45;&gt;Node14</title>
<path fill="none" stroke="#63b8ff" d="M1243.94,-164.57C1257.22,-156.98 1274.58,-144.81 1284,-129 1302.36,-98.22 1304.62,-55.3 1304.13,-30.45"/>
<polygon fill="#63b8ff" stroke="#63b8ff" points="1307.64,-30.64 1303.76,-20.78 1300.65,-30.91 1307.64,-30.64"/>
</g>
<!-- Node21&#45;&gt;Node15 -->
<g id="edge35" class="edge">
<title>Node21&#45;&gt;Node15</title>
<path fill="none" stroke="#63b8ff" d="M1202.42,-164.51C1180.02,-155.97 1146.1,-143.03 1120.82,-133.4"/>
<polygon fill="#63b8ff" stroke="#63b8ff" points="1122.24,-130.19 1111.65,-129.9 1119.74,-136.73 1122.24,-130.19"/>
</g>
<!-- Node21&#45;&gt;Node17 -->
<g id="edge31" class="edge">
<title>Node21&#45;&gt;Node17</title>
<path fill="none" stroke="#63b8ff" d="M1193.11,-166.23C1157.46,-158.24 1098.64,-144.77 1038.2,-129.21"/>
<polygon fill="#63b8ff" stroke="#63b8ff" points="1039.32,-125.88 1028.76,-126.76 1037.57,-132.66 1039.32,-125.88"/>
</g>
<!-- Node22 -->
<g id="node22" class="node">
<title>Node22</title>
<g id="a_node22"><a xlink:title=" ">
<polygon fill="#e0e0e0" stroke="#999999" points="1275,-129 1223,-129 1223,-110 1275,-110 1275,-129"/>
<text text-anchor="middle" x="1249" y="-117" font-family="Helvetica,sans-Serif" font-size="10.00">sstream</text>
</a>
</g>
</g>
<!-- Node21&#45;&gt;Node22 -->
<g id="edge30" class="edge">
<title>Node21&#45;&gt;Node22</title>
<path fill="none" stroke="#63b8ff" d="M1229.8,-164.75C1232.74,-157.96 1236.94,-148.3 1240.65,-139.73"/>
<polygon fill="#63b8ff" stroke="#63b8ff" points="1243.75,-141.4 1244.52,-130.83 1237.33,-138.61 1243.75,-141.4"/>
</g>
<!-- Node23 -->
<g id="node23" class="node">
<title>Node23</title>
<g id="a_node23"><a xlink:href="error__type_8h.html" target="_top" xlink:title=" ">
<polygon fill="white" stroke="#666666" points="1253,-74 1185,-74 1185,-55 1253,-55 1253,-74"/>
<text text-anchor="middle" x="1219" y="-62" font-family="Helvetica,sans-Serif" font-size="10.00">error_type.h</text>
</a>
</g>
</g>
<!-- Node21&#45;&gt;Node23 -->
<g id="edge32" class="edge">
<title>Node21&#45;&gt;Node23</title>
<path fill="none" stroke="#63b8ff" d="M1222.91,-164.77C1219.95,-155.9 1215.68,-141.69 1214,-129 1212.06,-114.36 1213.5,-97.73 1215.33,-85.15"/>
<polygon fill="#63b8ff" stroke="#63b8ff" points="1218.72,-86.09 1216.92,-75.65 1211.82,-84.94 1218.72,-86.09"/>
</g>
<!-- Node23&#45;&gt;Node7 -->
<g id="edge33" class="edge">
<title>Node23&#45;&gt;Node7</title>
<path fill="none" stroke="#63b8ff" d="M1184.74,-56.52C1134.17,-46.21 1040.22,-27.06 990.98,-17.02"/>
<polygon fill="#63b8ff" stroke="#63b8ff" points="991.75,-13.6 981.25,-15.04 990.35,-20.46 991.75,-13.6"/>
</g>
<!-- Node29&#45;&gt;Node5 -->
<g id="edge42" class="edge">
<title>Node29&#45;&gt;Node5</title>
<path fill="none" stroke="#63b8ff" d="M566.96,-219.82C558.39,-207.54 542.17,-184.43 528,-165 516.22,-148.84 508.06,-147.71 501,-129 495.79,-115.19 494.65,-98.51 494.76,-85.72"/>
<polygon fill="#63b8ff" stroke="#63b8ff" points="498.24,-86.1 495.12,-75.98 491.25,-85.84 498.24,-86.1"/>
</g>
<!-- Node29&#45;&gt;Node12 -->
<g id="edge43" class="edge">
<title>Node29&#45;&gt;Node12</title>
<path fill="none" stroke="#63b8ff" d="M600.82,-219.51C627.64,-210.84 668.46,-197.65 698.42,-187.97"/>
<polygon fill="#63b8ff" stroke="#63b8ff" points="699.44,-191.32 707.88,-184.91 697.29,-184.66 699.44,-191.32"/>
</g>
<!-- Node30&#45;&gt;Node4 -->
<g id="edge47" class="edge">
<title>Node30&#45;&gt;Node4</title>
<path fill="none" stroke="#63b8ff" d="M749.59,-392.67C652.67,-388.08 445.96,-363.34 343,-239 319.95,-211.17 319.89,-166.56 322.24,-140.75"/>
<polygon fill="#63b8ff" stroke="#63b8ff" points="325.7,-141.29 323.36,-130.95 318.74,-140.49 325.7,-141.29"/>
</g>
<!-- Node30&#45;&gt;Node7 -->
<g id="edge46" class="edge">
<title>Node30&#45;&gt;Node7</title>
<path fill="none" stroke="#63b8ff" d="M854.38,-388.56C953.13,-377.79 1157,-347.99 1157,-285.5 1157,-285.5 1157,-285.5 1157,-118.5 1157,-43.9 1047.33,-20.52 991.23,-13.44"/>
<polygon fill="#63b8ff" stroke="#63b8ff" points="991.65,-9.97 981.32,-12.3 990.86,-16.92 991.65,-9.97"/>
</g>
<!-- Node30&#45;&gt;Node21 -->
<g id="edge57" class="edge">
<title>Node30&#45;&gt;Node21</title>
<path fill="none" stroke="#63b8ff" d="M854.23,-393.95C944.35,-393.65 1123.92,-388.01 1171,-349 1217.58,-310.41 1225.25,-232.52 1226.16,-195.68"/>
<polygon fill="#63b8ff" stroke="#63b8ff" points="1229.65,-196.04 1226.24,-186.01 1222.66,-195.98 1229.65,-196.04"/>
</g>
<!-- Node31 -->
<g id="node31" class="node">
<title>Node31</title>
<g id="a_node31"><a xlink:title=" ">
<polygon fill="#e0e0e0" stroke="#999999" points="902.5,-294 867.5,-294 867.5,-275 902.5,-275 902.5,-294"/>
<text text-anchor="middle" x="885" y="-282" font-family="Helvetica,sans-Serif" font-size="10.00">map</text>
</a>
</g>
</g>
<!-- Node30&#45;&gt;Node31 -->
<g id="edge45" class="edge">
<title>Node30&#45;&gt;Node31</title>
<path fill="none" stroke="#63b8ff" d="M809.55,-384.78C817.15,-375.91 829.14,-361.7 839,-349 850.73,-333.9 863.43,-316.25 872.51,-303.4"/>
<polygon fill="#63b8ff" stroke="#63b8ff" points="875.18,-305.7 878.06,-295.5 869.45,-301.67 875.18,-305.7"/>
</g>
<!-- Node32 -->
<g id="node32" class="node">
<title>Node32</title>
<g id="a_node32"><a xlink:href="ast_8h.html" target="_top" xlink:title=" ">
<polygon fill="white" stroke="#666666" points="771.5,-294 664.5,-294 664.5,-275 771.5,-275 771.5,-294"/>
<text text-anchor="middle" x="718" y="-282" font-family="Helvetica,sans-Serif" font-size="10.00">core/evaluation/ast.h</text>
</a>
</g>
</g>
<!-- Node30&#45;&gt;Node32 -->
<g id="edge48" class="edge">
<title>Node30&#45;&gt;Node32</title>
<path fill="none" stroke="#63b8ff" d="M794.48,-384.76C786.9,-375.87 774.92,-361.65 765,-349 753.11,-333.85 740.12,-316.21 730.81,-303.37"/>
<polygon fill="#63b8ff" stroke="#63b8ff" points="733.81,-301.54 725.12,-295.47 728.13,-305.63 733.81,-301.54"/>
</g>
<!-- Node33 -->
<g id="node33" class="node">
<title>Node33</title>
<g id="a_node33"><a xlink:href="symbol_8h.html" target="_top" xlink:title=" ">
<polygon fill="white" stroke="#666666" points="830,-349 774,-349 774,-330 830,-330 830,-349"/>
<text text-anchor="middle" x="802" y="-337" font-family="Helvetica,sans-Serif" font-size="10.00">symbol.h</text>
</a>
</g>
</g>
<!-- Node30&#45;&gt;Node33 -->
<g id="edge58" class="edge">
<title>Node30&#45;&gt;Node33</title>
<path fill="none" stroke="#63b8ff" d="M802,-384.75C802,-378.27 802,-369.16 802,-360.9"/>
<polygon fill="#63b8ff" stroke="#63b8ff" points="805.5,-360.96 802,-350.96 798.5,-360.96 805.5,-360.96"/>
</g>
<!-- Node32&#45;&gt;Node4 -->
<g id="edge51" class="edge">
<title>Node32&#45;&gt;Node4</title>
<path fill="none" stroke="#63b8ff" d="M664.14,-282.41C581.12,-279.75 426.87,-270.57 383,-239 365.77,-226.6 343.08,-170.01 331.87,-139.74"/>
<polygon fill="#63b8ff" stroke="#63b8ff" points="335.28,-138.87 328.57,-130.66 328.7,-141.26 335.28,-138.87"/>
</g>
<!-- Node32&#45;&gt;Node5 -->
<g id="edge53" class="edge">
<title>Node32&#45;&gt;Node5</title>
<path fill="none" stroke="#63b8ff" d="M707.34,-274.58C668.8,-242.31 538.69,-133.3 535,-129 523.14,-115.21 512.54,-97.4 505.4,-84.16"/>
<polygon fill="#63b8ff" stroke="#63b8ff" points="508.68,-82.89 500.96,-75.64 502.47,-86.13 508.68,-82.89"/>
</g>
<!-- Node32&#45;&gt;Node7 -->
<g id="edge49" class="edge">
<title>Node32&#45;&gt;Node7</title>
<path fill="none" stroke="#63b8ff" d="M735.39,-274.54C773.78,-253.91 866.56,-199.42 919,-129 941.31,-99.04 951.7,-55.84 956.11,-30.72"/>
<polygon fill="#63b8ff" stroke="#63b8ff" points="959.56,-31.32 957.67,-20.89 952.65,-30.22 959.56,-31.32"/>
</g>
<!-- Node32&#45;&gt;Node11 -->
<g id="edge55" class="edge">
<title>Node32&#45;&gt;Node11</title>
<path fill="none" stroke="#63b8ff" d="M668.32,-274.56C618.44,-265.58 539.39,-251.35 471,-239 470,-238.82 468.99,-238.64 467.97,-238.45"/>
<polygon fill="#63b8ff" stroke="#63b8ff" points="468.82,-235.05 458.36,-236.72 467.58,-241.94 468.82,-235.05"/>
</g>
<!-- Node32&#45;&gt;Node12 -->
<g id="edge52" class="edge">
<title>Node32&#45;&gt;Node12</title>
<path fill="none" stroke="#63b8ff" d="M719.55,-274.66C722.57,-257.5 729.3,-219.26 733.46,-195.6"/>
<polygon fill="#63b8ff" stroke="#63b8ff" points="736.88,-196.41 735.16,-185.95 729.98,-195.19 736.88,-196.41"/>
</g>
<!-- Node32&#45;&gt;Node14 -->
<g id="edge50" class="edge">
<title>Node32&#45;&gt;Node14</title>
<path fill="none" stroke="#63b8ff" d="M771.64,-279.34C893.58,-269.01 1187.3,-238.98 1268,-184 1312.08,-153.97 1309.37,-126.93 1316,-74 1317.05,-65.62 1317.2,-63.36 1316,-55 1314.8,-46.63 1312.4,-37.64 1309.98,-29.95"/>
<polygon fill="#63b8ff" stroke="#63b8ff" points="1313.35,-28.98 1306.83,-20.64 1306.72,-31.23 1313.35,-28.98"/>
</g>
<!-- Node32&#45;&gt;Node19 -->
<g id="edge56" class="edge">
<title>Node32&#45;&gt;Node19</title>
<path fill="none" stroke="#63b8ff" d="M712.56,-274.57C704.77,-262.01 689.74,-238.55 675,-220 654.26,-193.9 647.93,-188.21 624,-165 613.9,-155.2 602.09,-144.84 592.38,-136.57"/>
<polygon fill="#63b8ff" stroke="#63b8ff" points="594.9,-134.12 585,-130.36 590.4,-139.48 594.9,-134.12"/>
</g>
<!-- Node32&#45;&gt;Node20 -->
<g id="edge54" class="edge">
<title>Node32&#45;&gt;Node20</title>
<path fill="none" stroke="#63b8ff" d="M664.16,-279.01C608.5,-273.23 526.76,-261.18 505,-239 493.93,-227.72 491.41,-209.62 491.38,-195.63"/>
<polygon fill="#63b8ff" stroke="#63b8ff" points="494.87,-195.9 491.82,-185.76 487.88,-195.59 494.87,-195.9"/>
</g>
<!-- Node33&#45;&gt;Node4 -->
<g id="edge61" class="edge">
<title>Node33&#45;&gt;Node4</title>
<path fill="none" stroke="#63b8ff" d="M773.52,-335.41C686.62,-325.47 426.9,-291.86 363,-239 333.67,-214.74 326.71,-167.75 325.23,-140.8"/>
<polygon fill="#63b8ff" stroke="#63b8ff" points="328.73,-140.77 324.91,-130.89 321.73,-140.99 328.73,-140.77"/>
</g>
<!-- Node33&#45;&gt;Node18 -->
<g id="edge60" class="edge">
<title>Node33&#45;&gt;Node18</title>
<path fill="none" stroke="#63b8ff" d="M803.72,-329.88C808.62,-302.65 820.03,-217.2 782,-165 774.14,-154.21 744.53,-141.61 719.9,-132.57"/>
<polygon fill="#63b8ff" stroke="#63b8ff" points="721.4,-129.39 710.8,-129.32 719.04,-135.98 721.4,-129.39"/>
</g>
<!-- Node33&#45;&gt;Node31 -->
<g id="edge59" class="edge">
<title>Node33&#45;&gt;Node31</title>
<path fill="none" stroke="#63b8ff" d="M816.08,-329.51C828.56,-321.54 847.02,-309.75 861.69,-300.38"/>
<polygon fill="#63b8ff" stroke="#63b8ff" points="863.31,-303.5 869.85,-295.17 859.54,-297.6 863.31,-303.5"/>
</g>
<!-- Node33&#45;&gt;Node32 -->
<g id="edge62" class="edge">
<title>Node33&#45;&gt;Node32</title>
<path fill="none" stroke="#63b8ff" d="M787.75,-329.51C775.12,-321.54 756.44,-309.75 741.59,-300.38"/>
<polygon fill="#63b8ff" stroke="#63b8ff" points="743.64,-297.54 733.32,-295.17 739.91,-303.46 743.64,-297.54"/>
</g>
<!-- Node34&#45;&gt;Node4 -->
<g id="edge65" class="edge">
<title>Node34&#45;&gt;Node4</title>
<path fill="none" stroke="#63b8ff" d="M180.52,-164.51C209.23,-155.76 253.05,-142.42 284.91,-132.71"/>
<polygon fill="#63b8ff" stroke="#63b8ff" points="285.64,-136.15 294.18,-129.89 283.6,-129.45 285.64,-136.15"/>
</g>
<!-- Node34&#45;&gt;Node5 -->
<g id="edge64" class="edge">
<title>Node34&#45;&gt;Node5</title>
<path fill="none" stroke="#63b8ff" d="M166.33,-164.6C190.41,-150.98 238.93,-124.96 283,-110 339.32,-90.89 406.92,-78.45 450.63,-71.71"/>
<polygon fill="#63b8ff" stroke="#63b8ff" points="450.89,-75.21 460.26,-70.26 449.85,-68.29 450.89,-75.21"/>
</g>
</g>
</svg>
