<?xml version="1.0" encoding="UTF-8" standalone="no"?>
<!DOCTYPE svg PUBLIC "-//W3C//DTD SVG 1.1//EN"
 "http://www.w3.org/Graphics/SVG/1.1/DTD/svg11.dtd">
<!-- Generated by graphviz version 7.1.0 (20230121.1956)
 -->
<!-- Title: /Users/nikolajbankejensen/Desktop/Kepler/src/core/evaluation/operations/functions.h Pages: 1 -->
<!--zoomable 324 -->
<svg id="main" version="1.1" xmlns="http://www.w3.org/2000/svg" xmlns:xlink="http://www.w3.org/1999/xlink" xml:space="preserve" onload="init(evt)">
<style type="text/css"><![CDATA[
.edge:hover path { stroke: red; }
.edge:hover polygon { stroke: red; fill: red; }
]]></style>
<script type="text/javascript"><![CDATA[
var edges = document.getElementsByTagName('g');
if (edges && edges.length) {
  for (var i=0;i<edges.length;i++) {
    if (edges[i].id.substr(0,4)=='edge') {
      edges[i].setAttribute('class','edge');
    }
  }
}
]]></script>
        <defs>
                <circle id="rim" cx="0" cy="0" r="7"/>
                <circle id="rim2" cx="0" cy="0" r="3.5"/>
                <g id="zoomPlus">
                        <use xlink:href="#rim" fill="#404040">
                                <set attributeName="fill" to="#808080" begin="zoomplus.mouseover" end="zoomplus.mouseout"/>
                        </use>
                        <path d="M-4,0h8M0,-4v8" fill="none" stroke="white" stroke-width="1.5" pointer-events="none"/>
                </g>
                <g id="zoomMin">
                        <use xlink:href="#rim" fill="#404040">
                                <set attributeName="fill" to="#808080" begin="zoomminus.mouseover" end="zoomminus.mouseout"/>
                        </use>
                        <path d="M-4,0h8" fill="none" stroke="white" stroke-width="1.5" pointer-events="none"/>
                </g>
                <g id="dirArrow">
                        <path fill="none" stroke="white" stroke-width="1.5" d="M0,-3.0v7 M-2.5,-0.5L0,-3.0L2.5,-0.5"/>
                </g>
               <g id="resetDef">
                       <use xlink:href="#rim2" fill="#404040">
                               <set attributeName="fill" to="#808080" begin="reset.mouseover" end="reset.mouseout"/>
                       </use>
               </g>
        </defs>

<script type="text/javascript">
var viewWidth = 727;
var viewHeight = 324;
var sectionId = 'dynsection-0';
</script>
<script xlink:href="svgpan.js"/>
<svg id="graph" class="graph">
<g id="viewport">
<title>/Users/nikolajbankejensen/Desktop/Kepler/src/core/evaluation/operations/functions.h</title>
<!-- Node1 -->
<g id="node1" class="node">
<title>Node1</title>
<g id="a_node1"><a xlink:title=" ">
<polygon fill="#999999" stroke="#666666" points="229.06,-316 66.06,-316 66.06,-275 229.06,-275 229.06,-316"/>
<text text-anchor="start" x="74.06" y="-304" font-family="Helvetica,sans-Serif" font-size="10.00">/Users/nikolajbankejensen</text>
<text text-anchor="start" x="74.06" y="-293" font-family="Helvetica,sans-Serif" font-size="10.00">/Desktop/Kepler/src/core</text>
<text text-anchor="middle" x="147.56" y="-282" font-family="Helvetica,sans-Serif" font-size="10.00">/evaluation/operations/functions.h</text>
</a>
</g>
</g>
<!-- Node2 -->
<g id="node2" class="node">
<title>Node2</title>
<g id="a_node2"><a xlink:href="pervade_8h.html" target="_top" xlink:title=" ">
<polygon fill="white" stroke="#666666" points="91.06,-184 32.06,-184 32.06,-165 91.06,-165 91.06,-184"/>
<text text-anchor="middle" x="61.56" y="-172" font-family="Helvetica,sans-Serif" font-size="10.00">pervade.h</text>
</a>
</g>
</g>
<!-- Node1&#45;&gt;Node2 -->
<g id="edge1" class="edge">
<title>Node1&#45;&gt;Node2</title>
<path fill="none" stroke="#63b8ff" d="M133.17,-274.58C116.82,-251.96 90.38,-215.38 74.62,-193.56"/>
<polygon fill="#63b8ff" stroke="#63b8ff" points="77.59,-191.7 68.9,-185.65 71.92,-195.8 77.59,-191.7"/>
</g>
<!-- Node10 -->
<g id="node10" class="node">
<title>Node10</title>
<g id="a_node10"><a xlink:href="operation_8h.html" target="_top" xlink:title=" ">
<polygon fill="white" stroke="#666666" points="228.06,-239 163.06,-239 163.06,-220 228.06,-220 228.06,-239"/>
<text text-anchor="middle" x="195.56" y="-227" font-family="Helvetica,sans-Serif" font-size="10.00">operation.h</text>
</a>
</g>
</g>
<!-- Node1&#45;&gt;Node10 -->
<g id="edge10" class="edge">
<title>Node1&#45;&gt;Node10</title>
<path fill="none" stroke="#63b8ff" d="M162.49,-274.6C168.83,-266.15 176.16,-256.38 182.3,-248.18"/>
<polygon fill="#63b8ff" stroke="#63b8ff" points="184.96,-250.47 188.16,-240.37 179.36,-246.27 184.96,-250.47"/>
</g>
<!-- Node3 -->
<g id="node3" class="node">
<title>Node3</title>
<g id="a_node3"><a xlink:href="array_8h.html" target="_top" xlink:title=" ">
<polygon fill="white" stroke="#666666" points="167.06,-129 100.06,-129 100.06,-110 167.06,-110 167.06,-129"/>
<text text-anchor="middle" x="133.56" y="-117" font-family="Helvetica,sans-Serif" font-size="10.00">core/array.h</text>
</a>
</g>
</g>
<!-- Node2&#45;&gt;Node3 -->
<g id="edge2" class="edge">
<title>Node2&#45;&gt;Node3</title>
<path fill="none" stroke="#63b8ff" d="M73.78,-164.51C84.39,-156.7 100,-145.21 112.61,-135.93"/>
<polygon fill="#63b8ff" stroke="#63b8ff" points="114.33,-139 120.31,-130.26 110.18,-133.36 114.33,-139"/>
</g>
<!-- Node4 -->
<g id="node4" class="node">
<title>Node4</title>
<g id="a_node4"><a xlink:href="datatypes_8h.html" target="_top" xlink:title=" ">
<polygon fill="white" stroke="#666666" points="247.56,-74 179.56,-74 179.56,-55 247.56,-55 247.56,-74"/>
<text text-anchor="middle" x="213.56" y="-62" font-family="Helvetica,sans-Serif" font-size="10.00">datatypes.h</text>
</a>
</g>
</g>
<!-- Node2&#45;&gt;Node4 -->
<g id="edge8" class="edge">
<title>Node2&#45;&gt;Node4</title>
<path fill="none" stroke="#63b8ff" d="M43.16,-164.5C20.88,-152.42 -11.75,-130.15 4.56,-110 9.74,-103.6 108.28,-84.67 168.18,-73.67"/>
<polygon fill="#63b8ff" stroke="#63b8ff" points="168.55,-77.16 177.75,-71.92 167.29,-70.28 168.55,-77.16"/>
</g>
<!-- Node9 -->
<g id="node9" class="node">
<title>Node9</title>
<g id="a_node9"><a xlink:title=" ">
<polygon fill="#e0e0e0" stroke="#999999" points="81.56,-129 13.56,-129 13.56,-110 81.56,-110 81.56,-129"/>
<text text-anchor="middle" x="47.56" y="-117" font-family="Helvetica,sans-Serif" font-size="10.00">pervade.tpp</text>
</a>
</g>
</g>
<!-- Node2&#45;&gt;Node9 -->
<g id="edge9" class="edge">
<title>Node2&#45;&gt;Node9</title>
<path fill="none" stroke="#63b8ff" d="M59.25,-164.75C57.5,-158.11 55.02,-148.73 52.8,-140.31"/>
<polygon fill="#63b8ff" stroke="#63b8ff" points="56.25,-139.68 50.31,-130.91 49.48,-141.47 56.25,-139.68"/>
</g>
<!-- Node3&#45;&gt;Node4 -->
<g id="edge3" class="edge">
<title>Node3&#45;&gt;Node4</title>
<path fill="none" stroke="#63b8ff" d="M147.14,-109.51C159.04,-101.62 176.61,-89.98 190.69,-80.65"/>
<polygon fill="#63b8ff" stroke="#63b8ff" points="192.53,-83.63 198.93,-75.19 188.66,-77.8 192.53,-83.63"/>
</g>
<!-- Node8 -->
<g id="node8" class="node">
<title>Node8</title>
<g id="a_node8"><a xlink:title=" ">
<polygon fill="#e0e0e0" stroke="#999999" points="156.56,-74 110.56,-74 110.56,-55 156.56,-55 156.56,-74"/>
<text text-anchor="middle" x="133.56" y="-62" font-family="Helvetica,sans-Serif" font-size="10.00">variant</text>
</a>
</g>
</g>
<!-- Node3&#45;&gt;Node8 -->
<g id="edge7" class="edge">
<title>Node3&#45;&gt;Node8</title>
<path fill="none" stroke="#63b8ff" d="M133.56,-109.75C133.56,-103.27 133.56,-94.16 133.56,-85.9"/>
<polygon fill="#63b8ff" stroke="#63b8ff" points="137.06,-85.96 133.56,-75.96 130.06,-85.96 137.06,-85.96"/>
</g>
<!-- Node5 -->
<g id="node5" class="node">
<title>Node5</title>
<g id="a_node5"><a xlink:title=" ">
<polygon fill="#e0e0e0" stroke="#999999" points="174.56,-19 130.56,-19 130.56,0 174.56,0 174.56,-19"/>
<text text-anchor="middle" x="152.56" y="-7" font-family="Helvetica,sans-Serif" font-size="10.00">vector</text>
</a>
</g>
</g>
<!-- Node4&#45;&gt;Node5 -->
<g id="edge4" class="edge">
<title>Node4&#45;&gt;Node5</title>
<path fill="none" stroke="#63b8ff" d="M203.22,-54.51C194.49,-46.93 181.77,-35.88 171.27,-26.75"/>
<polygon fill="#63b8ff" stroke="#63b8ff" points="173.75,-24.27 163.9,-20.35 169.15,-29.55 173.75,-24.27"/>
</g>
<!-- Node6 -->
<g id="node6" class="node">
<title>Node6</title>
<g id="a_node6"><a xlink:title=" ">
<polygon fill="#e0e0e0" stroke="#999999" points="327.06,-19 286.06,-19 286.06,0 327.06,0 327.06,-19"/>
<text text-anchor="middle" x="306.56" y="-7" font-family="Helvetica,sans-Serif" font-size="10.00">string</text>
</a>
</g>
</g>
<!-- Node4&#45;&gt;Node6 -->
<g id="edge5" class="edge">
<title>Node4&#45;&gt;Node6</title>
<path fill="none" stroke="#63b8ff" d="M229.34,-54.51C243.59,-46.39 264.8,-34.3 281.39,-24.85"/>
<polygon fill="#63b8ff" stroke="#63b8ff" points="282.75,-28.1 289.71,-20.11 279.28,-22.02 282.75,-28.1"/>
</g>
<!-- Node7 -->
<g id="node7" class="node">
<title>Node7</title>
<g id="a_node7"><a xlink:title=" ">
<polygon fill="#e0e0e0" stroke="#999999" points="246.06,-19 193.06,-19 193.06,0 246.06,0 246.06,-19"/>
<text text-anchor="middle" x="219.56" y="-7" font-family="Helvetica,sans-Serif" font-size="10.00">complex</text>
</a>
</g>
</g>
<!-- Node4&#45;&gt;Node7 -->
<g id="edge6" class="edge">
<title>Node4&#45;&gt;Node7</title>
<path fill="none" stroke="#63b8ff" d="M214.55,-54.75C215.3,-48.19 216.34,-38.95 217.29,-30.6"/>
<polygon fill="#63b8ff" stroke="#63b8ff" points="220.73,-31.28 218.38,-20.95 213.78,-30.49 220.73,-31.28"/>
</g>
<!-- Node10&#45;&gt;Node3 -->
<g id="edge12" class="edge">
<title>Node10&#45;&gt;Node3</title>
<path fill="none" stroke="#63b8ff" d="M190.49,-219.66C180.45,-202.18 157.87,-162.84 144.36,-139.3"/>
<polygon fill="#63b8ff" stroke="#63b8ff" points="147.48,-137.7 139.46,-130.77 141.4,-141.19 147.48,-137.7"/>
</g>
<!-- Node10&#45;&gt;Node4 -->
<g id="edge11" class="edge">
<title>Node10&#45;&gt;Node4</title>
<path fill="none" stroke="#63b8ff" d="M196.53,-219.74C199.32,-194.53 207.4,-121.36 211.34,-85.62"/>
<polygon fill="#63b8ff" stroke="#63b8ff" points="214.81,-86.14 212.43,-75.81 207.85,-85.37 214.81,-86.14"/>
</g>
<!-- Node11 -->
<g id="node11" class="node">
<title>Node11</title>
<g id="a_node11"><a xlink:href="token_8h.html" target="_top" xlink:title=" ">
<polygon fill="white" stroke="#666666" points="396.06,-184 325.06,-184 325.06,-165 396.06,-165 396.06,-184"/>
<text text-anchor="middle" x="360.56" y="-172" font-family="Helvetica,sans-Serif" font-size="10.00">core/token.h</text>
</a>
</g>
</g>
<!-- Node10&#45;&gt;Node11 -->
<g id="edge13" class="edge">
<title>Node10&#45;&gt;Node11</title>
<path fill="none" stroke="#63b8ff" d="M223.55,-219.51C250.66,-210.8 291.97,-197.53 322.15,-187.84"/>
<polygon fill="#63b8ff" stroke="#63b8ff" points="322.82,-191.3 331.27,-184.91 320.68,-184.64 322.82,-191.3"/>
</g>
<!-- Node19 -->
<g id="node19" class="node">
<title>Node19</title>
<g id="a_node19"><a xlink:title=" ">
<polygon fill="#e0e0e0" stroke="#999999" points="466.56,-184 414.56,-184 414.56,-165 466.56,-165 466.56,-184"/>
<text text-anchor="middle" x="440.56" y="-172" font-family="Helvetica,sans-Serif" font-size="10.00">memory</text>
</a>
</g>
</g>
<!-- Node10&#45;&gt;Node19 -->
<g id="edge26" class="edge">
<title>Node10&#45;&gt;Node19</title>
<path fill="none" stroke="#63b8ff" d="M228.37,-221.86C267.65,-213.84 335.69,-199.74 403.36,-184.45"/>
<polygon fill="#63b8ff" stroke="#63b8ff" points="403.76,-187.95 412.73,-182.32 402.21,-181.12 403.76,-187.95"/>
</g>
<!-- Node11&#45;&gt;Node3 -->
<g id="edge18" class="edge">
<title>Node11&#45;&gt;Node3</title>
<path fill="none" stroke="#63b8ff" d="M324.6,-165.1C285,-155.86 221.3,-140.98 178.46,-130.98"/>
<polygon fill="#63b8ff" stroke="#63b8ff" points="179.52,-127.64 168.98,-128.77 177.93,-134.45 179.52,-127.64"/>
</g>
<!-- Node11&#45;&gt;Node4 -->
<g id="edge16" class="edge">
<title>Node11&#45;&gt;Node4</title>
<path fill="none" stroke="#63b8ff" d="M324.61,-164.59C302.3,-157.69 274.08,-146.33 253.56,-129 239.26,-116.91 228.4,-98.38 221.64,-84.45"/>
<polygon fill="#63b8ff" stroke="#63b8ff" points="224.88,-83.11 217.56,-75.45 218.5,-86 224.88,-83.11"/>
</g>
<!-- Node12 -->
<g id="node12" class="node">
<title>Node12</title>
<g id="a_node12"><a xlink:href="token__type_8h.html" target="_top" xlink:title=" ">
<polygon fill="white" stroke="#666666" points="420.06,-74 347.06,-74 347.06,-55 420.06,-55 420.06,-74"/>
<text text-anchor="middle" x="383.56" y="-62" font-family="Helvetica,sans-Serif" font-size="10.00">token_type.h</text>
</a>
</g>
</g>
<!-- Node11&#45;&gt;Node12 -->
<g id="edge14" class="edge">
<title>Node11&#45;&gt;Node12</title>
<path fill="none" stroke="#63b8ff" d="M367.16,-164.51C373.03,-155.9 381.21,-142.28 384.56,-129 388.17,-114.73 387.74,-98.07 386.51,-85.4"/>
<polygon fill="#63b8ff" stroke="#63b8ff" points="390.02,-85.29 385.31,-75.8 383.07,-86.15 390.02,-85.29"/>
</g>
<!-- Node14 -->
<g id="node14" class="node">
<title>Node14</title>
<g id="a_node14"><a xlink:title=" ">
<polygon fill="#e0e0e0" stroke="#999999" points="515.06,-129 432.06,-129 432.06,-110 515.06,-110 515.06,-129"/>
<text text-anchor="middle" x="473.56" y="-117" font-family="Helvetica,sans-Serif" font-size="10.00">uni_algo/conv.h</text>
</a>
</g>
</g>
<!-- Node11&#45;&gt;Node14 -->
<g id="edge17" class="edge">
<title>Node11&#45;&gt;Node14</title>
<path fill="none" stroke="#63b8ff" d="M379.73,-164.51C397.45,-156.2 424.04,-143.73 444.4,-134.18"/>
<polygon fill="#63b8ff" stroke="#63b8ff" points="445.74,-137.42 453.31,-130 442.77,-131.08 445.74,-137.42"/>
</g>
<!-- Node15 -->
<g id="node15" class="node">
<title>Node15</title>
<g id="a_node15"><a xlink:href="conversion_8h.html" target="_top" xlink:title=" ">
<polygon fill="white" stroke="#666666" points="375.06,-129 262.06,-129 262.06,-110 375.06,-110 375.06,-129"/>
<text text-anchor="middle" x="318.56" y="-117" font-family="Helvetica,sans-Serif" font-size="10.00">interface/conversion.h</text>
</a>
</g>
</g>
<!-- Node11&#45;&gt;Node15 -->
<g id="edge19" class="edge">
<title>Node11&#45;&gt;Node15</title>
<path fill="none" stroke="#63b8ff" d="M353.63,-164.75C347.95,-157.58 339.73,-147.2 332.67,-138.3"/>
<polygon fill="#63b8ff" stroke="#63b8ff" points="335.54,-136.29 326.59,-130.63 330.06,-140.64 335.54,-136.29"/>
</g>
<!-- Node16 -->
<g id="node16" class="node">
<title>Node16</title>
<g id="a_node16"><a xlink:title=" ">
<polygon fill="#e0e0e0" stroke="#999999" points="573.56,-129 533.56,-129 533.56,-110 573.56,-110 573.56,-129"/>
<text text-anchor="middle" x="553.56" y="-117" font-family="Helvetica,sans-Serif" font-size="10.00">utility</text>
</a>
</g>
</g>
<!-- Node11&#45;&gt;Node16 -->
<g id="edge23" class="edge">
<title>Node11&#45;&gt;Node16</title>
<path fill="none" stroke="#63b8ff" d="M394.23,-164.58C425.15,-156.34 472.52,-143.59 522.31,-129.6"/>
<polygon fill="#63b8ff" stroke="#63b8ff" points="523.17,-132.99 531.84,-126.91 521.27,-126.25 523.17,-132.99"/>
</g>
<!-- Node17 -->
<g id="node17" class="node">
<title>Node17</title>
<g id="a_node17"><a xlink:title=" ">
<polygon fill="#e0e0e0" stroke="#999999" points="641.56,-129 591.56,-129 591.56,-110 641.56,-110 641.56,-129"/>
<text text-anchor="middle" x="616.56" y="-117" font-family="Helvetica,sans-Serif" font-size="10.00">optional</text>
</a>
</g>
</g>
<!-- Node11&#45;&gt;Node17 -->
<g id="edge24" class="edge">
<title>Node11&#45;&gt;Node17</title>
<path fill="none" stroke="#63b8ff" d="M396.3,-166.55C445.48,-156.95 532.54,-139.83 580.14,-129.44"/>
<polygon fill="#63b8ff" stroke="#63b8ff" points="580.86,-132.86 589.87,-127.27 579.35,-126.03 580.86,-132.86"/>
</g>
<!-- Node18 -->
<g id="node18" class="node">
<title>Node18</title>
<g id="a_node18"><a xlink:href="position_8h.html" target="_top" xlink:title=" ">
<polygon fill="white" stroke="#666666" points="719.06,-129 660.06,-129 660.06,-110 719.06,-110 719.06,-129"/>
<text text-anchor="middle" x="689.56" y="-117" font-family="Helvetica,sans-Serif" font-size="10.00">position.h</text>
</a>
</g>
</g>
<!-- Node11&#45;&gt;Node18 -->
<g id="edge25" class="edge">
<title>Node11&#45;&gt;Node18</title>
<path fill="none" stroke="#63b8ff" d="M396.4,-166.59C399.5,-166.04 402.58,-165.5 405.56,-165 510.61,-147.37 540.39,-148.63 648.71,-129.22"/>
<polygon fill="#63b8ff" stroke="#63b8ff" points="649.09,-132.71 658.31,-127.48 647.84,-125.82 649.09,-132.71"/>
</g>
<!-- Node13 -->
<g id="node13" class="node">
<title>Node13</title>
<g id="a_node13"><a xlink:title=" ">
<polygon fill="#e0e0e0" stroke="#999999" points="410.56,-19 356.56,-19 356.56,0 410.56,0 410.56,-19"/>
<text text-anchor="middle" x="383.56" y="-7" font-family="Helvetica,sans-Serif" font-size="10.00">iostream</text>
</a>
</g>
</g>
<!-- Node12&#45;&gt;Node13 -->
<g id="edge15" class="edge">
<title>Node12&#45;&gt;Node13</title>
<path fill="none" stroke="#63b8ff" d="M383.56,-54.75C383.56,-48.27 383.56,-39.16 383.56,-30.9"/>
<polygon fill="#63b8ff" stroke="#63b8ff" points="387.06,-30.96 383.56,-20.96 380.06,-30.96 387.06,-30.96"/>
</g>
<!-- Node15&#45;&gt;Node4 -->
<g id="edge21" class="edge">
<title>Node15&#45;&gt;Node4</title>
<path fill="none" stroke="#63b8ff" d="M300.75,-109.51C284.44,-101.27 260.04,-88.96 241.19,-79.45"/>
<polygon fill="#63b8ff" stroke="#63b8ff" points="242.97,-76.42 232.46,-75.04 239.81,-82.67 242.97,-76.42"/>
</g>
<!-- Node15&#45;&gt;Node6 -->
<g id="edge20" class="edge">
<title>Node15&#45;&gt;Node6</title>
<path fill="none" stroke="#63b8ff" d="M317.58,-109.66C315.67,-92.5 311.43,-54.26 308.8,-30.6"/>
<polygon fill="#63b8ff" stroke="#63b8ff" points="312.31,-30.52 307.73,-20.96 305.35,-31.29 312.31,-30.52"/>
</g>
<!-- Node15&#45;&gt;Node12 -->
<g id="edge22" class="edge">
<title>Node15&#45;&gt;Node12</title>
<path fill="none" stroke="#63b8ff" d="M329.59,-109.51C338.99,-101.85 352.71,-90.66 363.97,-81.47"/>
<polygon fill="#63b8ff" stroke="#63b8ff" points="365.99,-84.35 371.53,-75.31 361.57,-78.92 365.99,-84.35"/>
</g>
</g>
</svg>
        <g id="navigator" transform="translate(0 0)" fill="#404254">
                <rect fill="#f2f5e9" fill-opacity="0.5" stroke="#606060" stroke-width=".5" x="0" y="0" width="60" height="60"/>
                <use id="zoomplus" xlink:href="#zoomPlus" x="17" y="9" onmousedown="handleZoom(evt,'in')"/>
                <use id="zoomminus" xlink:href="#zoomMin" x="42" y="9" onmousedown="handleZoom(evt,'out')"/>
                <use id="reset" xlink:href="#resetDef" x="30" y="36" onmousedown="handleReset()"/>
                <g id="arrowUp" xlink:href="#dirArrow" transform="translate(30 24)" onmousedown="handlePan(0,-1)">
                  <use xlink:href="#rim" fill="#404040">
                        <set attributeName="fill" to="#808080" begin="arrowUp.mouseover" end="arrowUp.mouseout"/>
                  </use>
                  <path fill="none" stroke="white" stroke-width="1.5" d="M0,-3.0v7 M-2.5,-0.5L0,-3.0L2.5,-0.5"/>
                </g>
                <g id="arrowRight" xlink:href="#dirArrow" transform="rotate(90) translate(36 -43)" onmousedown="handlePan(1,0)">
                  <use xlink:href="#rim" fill="#404040">
                        <set attributeName="fill" to="#808080" begin="arrowRight.mouseover" end="arrowRight.mouseout"/>
                  </use>
                  <path fill="none" stroke="white" stroke-width="1.5" d="M0,-3.0v7 M-2.5,-0.5L0,-3.0L2.5,-0.5"/>
                </g>
                <g id="arrowDown" xlink:href="#dirArrow" transform="rotate(180) translate(-30 -48)" onmousedown="handlePan(0,1)">
                  <use xlink:href="#rim" fill="#404040">
                        <set attributeName="fill" to="#808080" begin="arrowDown.mouseover" end="arrowDown.mouseout"/>
                  </use>
                  <path fill="none" stroke="white" stroke-width="1.5" d="M0,-3.0v7 M-2.5,-0.5L0,-3.0L2.5,-0.5"/>
                </g>
                <g id="arrowLeft" xlink:href="#dirArrow" transform="rotate(270) translate(-36 17)" onmousedown="handlePan(-1,0)">
                  <use xlink:href="#rim" fill="#404040">
                        <set attributeName="fill" to="#808080" begin="arrowLeft.mouseover" end="arrowLeft.mouseout"/>
                  </use>
                  <path fill="none" stroke="white" stroke-width="1.5" d="M0,-3.0v7 M-2.5,-0.5L0,-3.0L2.5,-0.5"/>
                </g>
        </g>
        <svg viewBox="0 0 15 15" width="100%" height="30px" preserveAspectRatio="xMaxYMin meet">
         <g id="arrow_out" transform="scale(0.3 0.3)">
          <a xlink:href="functions_8h__incl_org.svg" target="_base">
           <rect id="button" ry="5" rx="5" y="6" x="6" height="38" width="38"
                fill="#f2f5e9" fill-opacity="0.5" stroke="#606060" stroke-width="1.0"/>
           <path id="arrow"
             d="M 11.500037,31.436501 C 11.940474,20.09759 22.043105,11.32322 32.158766,21.979434 L 37.068811,17.246167 C 37.068811,17.246167 37.088388,32 37.088388,32 L 22.160133,31.978069 C 22.160133,31.978069 26.997745,27.140456 26.997745,27.140456 C 18.528582,18.264221 13.291696,25.230495 11.500037,31.436501 z"
             style="fill:#404040;"/>
          </a>
         </g>
        </svg>
</svg>
