<?xml version="1.0" encoding="UTF-8" standalone="no"?>
<!DOCTYPE svg PUBLIC "-//W3C//DTD SVG 1.1//EN"
 "http://www.w3.org/Graphics/SVG/1.1/DTD/svg11.dtd">
<!-- Generated by graphviz version 7.1.0 (20230121.1956)
 -->
<!-- Title: /Users/nikolajbankejensen/Desktop/Kepler/src/core/evaluation/operations/functions.cpp Pages: 1 -->
<!--zoomable 489 -->
<svg id="main" version="1.1" xmlns="http://www.w3.org/2000/svg" xmlns:xlink="http://www.w3.org/1999/xlink" xml:space="preserve" onload="init(evt)">
<style type="text/css"><![CDATA[
.edge:hover path { stroke: red; }
.edge:hover polygon { stroke: red; fill: red; }
]]></style>
<script type="text/javascript"><![CDATA[
var edges = document.getElementsByTagName('g');
if (edges && edges.length) {
  for (var i=0;i<edges.length;i++) {
    if (edges[i].id.substr(0,4)=='edge') {
      edges[i].setAttribute('class','edge');
    }
  }
}
]]></script>
        <defs>
                <circle id="rim" cx="0" cy="0" r="7"/>
                <circle id="rim2" cx="0" cy="0" r="3.5"/>
                <g id="zoomPlus">
                        <use xlink:href="#rim" fill="#404040">
                                <set attributeName="fill" to="#808080" begin="zoomplus.mouseover" end="zoomplus.mouseout"/>
                        </use>
                        <path d="M-4,0h8M0,-4v8" fill="none" stroke="white" stroke-width="1.5" pointer-events="none"/>
                </g>
                <g id="zoomMin">
                        <use xlink:href="#rim" fill="#404040">
                                <set attributeName="fill" to="#808080" begin="zoomminus.mouseover" end="zoomminus.mouseout"/>
                        </use>
                        <path d="M-4,0h8" fill="none" stroke="white" stroke-width="1.5" pointer-events="none"/>
                </g>
                <g id="dirArrow">
                        <path fill="none" stroke="white" stroke-width="1.5" d="M0,-3.0v7 M-2.5,-0.5L0,-3.0L2.5,-0.5"/>
                </g>
               <g id="resetDef">
                       <use xlink:href="#rim2" fill="#404040">
                               <set attributeName="fill" to="#808080" begin="reset.mouseover" end="reset.mouseout"/>
                       </use>
               </g>
        </defs>

<script type="text/javascript">
var viewWidth = 1357;
var viewHeight = 489;
var sectionId = 'dynsection-0';
</script>
<script xlink:href="svgpan.js"/>
<svg id="graph" class="graph">
<g id="viewport">
<title>/Users/nikolajbankejensen/Desktop/Kepler/src/core/evaluation/operations/functions.cpp</title>
<!-- Node1 -->
<g id="node1" class="node">
<title>Node1</title>
<g id="a_node1"><a xlink:title=" ">
<polygon fill="#999999" stroke="#666666" points="1019.5,-481 846.5,-481 846.5,-440 1019.5,-440 1019.5,-481"/>
<text text-anchor="start" x="854.5" y="-469" font-family="Helvetica,sans-Serif" font-size="10.00">/Users/nikolajbankejensen</text>
<text text-anchor="start" x="854.5" y="-458" font-family="Helvetica,sans-Serif" font-size="10.00">/Desktop/Kepler/src/core</text>
<text text-anchor="middle" x="933" y="-447" font-family="Helvetica,sans-Serif" font-size="10.00">/evaluation/operations/functions.cpp</text>
</a>
</g>
</g>
<!-- Node2 -->
<g id="node2" class="node">
<title>Node2</title>
<g id="a_node2"><a xlink:href="functions_8h.html" target="_top" xlink:title=" ">
<polygon fill="white" stroke="#666666" points="244.5,-294 179.5,-294 179.5,-275 244.5,-275 244.5,-294"/>
<text text-anchor="middle" x="212" y="-282" font-family="Helvetica,sans-Serif" font-size="10.00">functions.h</text>
</a>
</g>
</g>
<!-- Node1&#45;&gt;Node2 -->
<g id="edge1" class="edge">
<title>Node1&#45;&gt;Node2</title>
<path fill="none" stroke="#63b8ff" d="M846.24,-457.41C674.81,-452.55 305.17,-438.21 259,-404 227.38,-380.57 217.01,-332.51 213.62,-305.34"/>
<polygon fill="#63b8ff" stroke="#63b8ff" points="217.14,-305.29 212.64,-295.69 210.17,-306 217.14,-305.29"/>
</g>
<!-- Node4 -->
<g id="node4" class="node">
<title>Node4</title>
<g id="a_node4"><a xlink:href="array_8h.html" target="_top" xlink:title=" ">
<polygon fill="white" stroke="#666666" points="382.5,-129 315.5,-129 315.5,-110 382.5,-110 382.5,-129"/>
<text text-anchor="middle" x="349" y="-117" font-family="Helvetica,sans-Serif" font-size="10.00">core/array.h</text>
</a>
</g>
</g>
<!-- Node1&#45;&gt;Node4 -->
<g id="edge63" class="edge">
<title>Node1&#45;&gt;Node4</title>
<path fill="none" stroke="#63b8ff" d="M846.04,-456.92C671.07,-451.11 288.74,-435 238,-404 182.69,-370.21 143.02,-333.93 170,-275 186.73,-238.47 282.53,-167.47 326.7,-136.07"/>
<polygon fill="#63b8ff" stroke="#63b8ff" points="328.64,-138.99 334.79,-130.37 324.6,-133.27 328.64,-138.99"/>
</g>
<!-- Node21 -->
<g id="node21" class="node">
<title>Node21</title>
<g id="a_node21"><a xlink:href="error_8h.html" target="_top" xlink:title=" ">
<polygon fill="white" stroke="#666666" points="1099.5,-184 1034.5,-184 1034.5,-165 1099.5,-165 1099.5,-184"/>
<text text-anchor="middle" x="1067" y="-172" font-family="Helvetica,sans-Serif" font-size="10.00">core/error.h</text>
</a>
</g>
</g>
<!-- Node1&#45;&gt;Node21 -->
<g id="edge28" class="edge">
<title>Node1&#45;&gt;Node21</title>
<path fill="none" stroke="#63b8ff" d="M927.91,-439.86C922.28,-416.39 914,-375.86 914,-340.5 914,-340.5 914,-340.5 914,-283.5 914,-229.7 977.93,-200.33 1023.14,-186.28"/>
<polygon fill="#63b8ff" stroke="#63b8ff" points="1024.12,-189.64 1032.73,-183.46 1022.14,-182.92 1024.12,-189.64"/>
</g>
<!-- Node24 -->
<g id="node24" class="node">
<title>Node24</title>
<g id="a_node24"><a xlink:title=" ">
<polygon fill="#e0e0e0" stroke="#999999" points="1031.5,-404 980.5,-404 980.5,-385 1031.5,-385 1031.5,-404"/>
<text text-anchor="middle" x="1006" y="-392" font-family="Helvetica,sans-Serif" font-size="10.00">numeric</text>
</a>
</g>
</g>
<!-- Node1&#45;&gt;Node24 -->
<g id="edge36" class="edge">
<title>Node1&#45;&gt;Node24</title>
<path fill="none" stroke="#63b8ff" d="M955.7,-439.6C965.97,-430.59 977.96,-420.08 987.66,-411.58"/>
<polygon fill="#63b8ff" stroke="#63b8ff" points="989.77,-414.38 994.98,-405.16 985.15,-409.12 989.77,-414.38"/>
</g>
<!-- Node25 -->
<g id="node25" class="node">
<title>Node25</title>
<g id="a_node25"><a xlink:title=" ">
<polygon fill="#e0e0e0" stroke="#999999" points="1080,-404 1050,-404 1050,-385 1080,-385 1080,-404"/>
<text text-anchor="middle" x="1065" y="-392" font-family="Helvetica,sans-Serif" font-size="10.00">set</text>
</a>
</g>
</g>
<!-- Node1&#45;&gt;Node25 -->
<g id="edge37" class="edge">
<title>Node1&#45;&gt;Node25</title>
<path fill="none" stroke="#63b8ff" d="M974.04,-439.6C995.45,-429.22 1020.97,-416.85 1039.52,-407.85"/>
<polygon fill="#63b8ff" stroke="#63b8ff" points="1040.98,-411.04 1048.45,-403.52 1037.93,-404.74 1040.98,-411.04"/>
</g>
<!-- Node26 -->
<g id="node26" class="node">
<title>Node26</title>
<g id="a_node26"><a xlink:title=" ">
<polygon fill="#e0e0e0" stroke="#999999" points="1154,-404 1098,-404 1098,-385 1154,-385 1154,-404"/>
<text text-anchor="middle" x="1126" y="-392" font-family="Helvetica,sans-Serif" font-size="10.00">algorithm</text>
</a>
</g>
</g>
<!-- Node1&#45;&gt;Node26 -->
<g id="edge38" class="edge">
<title>Node1&#45;&gt;Node26</title>
<path fill="none" stroke="#63b8ff" d="M993.27,-439.51C1024.24,-429.24 1061.03,-417.04 1088.02,-408.1"/>
<polygon fill="#63b8ff" stroke="#63b8ff" points="1089.11,-411.42 1097.5,-404.95 1086.91,-404.78 1089.11,-411.42"/>
</g>
<!-- Node27 -->
<g id="node27" class="node">
<title>Node27</title>
<g id="a_node27"><a xlink:title=" ">
<polygon fill="#e0e0e0" stroke="#999999" points="1221.5,-404 1172.5,-404 1172.5,-385 1221.5,-385 1221.5,-404"/>
<text text-anchor="middle" x="1197" y="-392" font-family="Helvetica,sans-Serif" font-size="10.00">random</text>
</a>
</g>
</g>
<!-- Node1&#45;&gt;Node27 -->
<g id="edge39" class="edge">
<title>Node1&#45;&gt;Node27</title>
<path fill="none" stroke="#63b8ff" d="M1016.35,-439.56C1057.22,-429.74 1107.47,-417.61 1161.01,-404.47"/>
<polygon fill="#63b8ff" stroke="#63b8ff" points="1161.78,-407.89 1170.65,-402.11 1160.11,-401.09 1161.78,-407.89"/>
</g>
<!-- Node28 -->
<g id="node28" class="node">
<title>Node28</title>
<g id="a_node28"><a xlink:title=" ">
<polygon fill="#e0e0e0" stroke="#999999" points="1284,-404 1240,-404 1240,-385 1284,-385 1284,-404"/>
<text text-anchor="middle" x="1262" y="-392" font-family="Helvetica,sans-Serif" font-size="10.00">cmath</text>
</a>
</g>
</g>
<!-- Node1&#45;&gt;Node28 -->
<g id="edge40" class="edge">
<title>Node1&#45;&gt;Node28</title>
<path fill="none" stroke="#63b8ff" d="M1019.79,-445.31C1076.65,-435.55 1152.81,-421.62 1228.54,-404.41"/>
<polygon fill="#63b8ff" stroke="#63b8ff" points="1229.27,-407.84 1238.23,-402.19 1227.7,-401.02 1229.27,-407.84"/>
</g>
<!-- Node29 -->
<g id="node29" class="node">
<title>Node29</title>
<g id="a_node29"><a xlink:href="symbol__table_8h.html" target="_top" xlink:title=" ">
<polygon fill="white" stroke="#666666" points="643,-404 539,-404 539,-385 643,-385 643,-404"/>
<text text-anchor="middle" x="591" y="-392" font-family="Helvetica,sans-Serif" font-size="10.00">core/symbol_table.h</text>
</a>
</g>
</g>
<!-- Node1&#45;&gt;Node29 -->
<g id="edge41" class="edge">
<title>Node1&#45;&gt;Node29</title>
<path fill="none" stroke="#63b8ff" d="M846.26,-443.27C784.73,-431.75 703.81,-416.61 649.73,-406.49"/>
<polygon fill="#63b8ff" stroke="#63b8ff" points="650.58,-403.09 640.11,-404.69 649.29,-409.97 650.58,-403.09"/>
</g>
<!-- Node33 -->
<g id="node33" class="node">
<title>Node33</title>
<g id="a_node33"><a xlink:href="algorithms_8h.html" target="_top" xlink:title=" ">
<polygon fill="white" stroke="#666666" points="244.5,-184 105.5,-184 105.5,-165 244.5,-165 244.5,-184"/>
<text text-anchor="middle" x="175" y="-172" font-family="Helvetica,sans-Serif" font-size="10.00">core/evaluation/algorithms.h</text>
</a>
</g>
</g>
<!-- Node1&#45;&gt;Node33 -->
<g id="edge60" class="edge">
<title>Node1&#45;&gt;Node33</title>
<path fill="none" stroke="#63b8ff" d="M846.19,-451.71C764.07,-443.36 637.72,-427.98 530,-404 449.59,-386.1 423.78,-391.14 353,-349 280.77,-306.01 215.41,-228 188.28,-193.15"/>
<polygon fill="#63b8ff" stroke="#63b8ff" points="191.18,-191.17 182.31,-185.36 185.62,-195.43 191.18,-191.17"/>
</g>
<!-- Node34 -->
<g id="node34" class="node">
<title>Node34</title>
<g id="a_node34"><a xlink:href="literals_8h.html" target="_top" xlink:title=" ">
<polygon fill="white" stroke="#666666" points="1274.5,-349 1199.5,-349 1199.5,-330 1274.5,-330 1274.5,-349"/>
<text text-anchor="middle" x="1237" y="-337" font-family="Helvetica,sans-Serif" font-size="10.00">core/literals.h</text>
</a>
</g>
</g>
<!-- Node1&#45;&gt;Node34 -->
<g id="edge64" class="edge">
<title>Node1&#45;&gt;Node34</title>
<path fill="none" stroke="#63b8ff" d="M937.97,-439.73C943.38,-422.48 953.8,-398.2 972,-385 1005.69,-360.57 1121.15,-348.57 1188.03,-343.55"/>
<polygon fill="#63b8ff" stroke="#63b8ff" points="1187.89,-347.07 1197.62,-342.86 1187.39,-340.09 1187.89,-347.07"/>
</g>
<!-- Node36 -->
<g id="node36" class="node">
<title>Node36</title>
<g id="a_node36"><a xlink:href="helpers_8h.html" target="_top" xlink:title=" ">
<polygon fill="white" stroke="#666666" points="829,-239 751,-239 751,-220 829,-220 829,-239"/>
<text text-anchor="middle" x="790" y="-227" font-family="Helvetica,sans-Serif" font-size="10.00">core/helpers.h</text>
</a>
</g>
</g>
<!-- Node1&#45;&gt;Node36 -->
<g id="edge69" class="edge">
<title>Node1&#45;&gt;Node36</title>
<path fill="none" stroke="#63b8ff" d="M920.56,-439.58C893.18,-395.73 828.04,-291.41 801.52,-248.95"/>
<polygon fill="#63b8ff" stroke="#63b8ff" points="804.6,-247.27 796.33,-240.64 798.66,-250.97 804.6,-247.27"/>
</g>
<!-- Node3 -->
<g id="node3" class="node">
<title>Node3</title>
<g id="a_node3"><a xlink:href="pervade_8h.html" target="_top" xlink:title=" ">
<polygon fill="white" stroke="#666666" points="87.5,-184 28.5,-184 28.5,-165 87.5,-165 87.5,-184"/>
<text text-anchor="middle" x="58" y="-172" font-family="Helvetica,sans-Serif" font-size="10.00">pervade.h</text>
</a>
</g>
</g>
<!-- Node2&#45;&gt;Node3 -->
<g id="edge2" class="edge">
<title>Node2&#45;&gt;Node3</title>
<path fill="none" stroke="#63b8ff" d="M199.4,-274.66C173.23,-256.31 112.71,-213.87 79.98,-190.91"/>
<polygon fill="#63b8ff" stroke="#63b8ff" points="82.21,-188.21 72.02,-185.33 78.19,-193.94 82.21,-188.21"/>
</g>
<!-- Node11 -->
<g id="node11" class="node">
<title>Node11</title>
<g id="a_node11"><a xlink:href="operation_8h.html" target="_top" xlink:title=" ">
<polygon fill="white" stroke="#666666" points="610.5,-239 545.5,-239 545.5,-220 610.5,-220 610.5,-239"/>
<text text-anchor="middle" x="578" y="-227" font-family="Helvetica,sans-Serif" font-size="10.00">operation.h</text>
</a>
</g>
</g>
<!-- Node2&#45;&gt;Node11 -->
<g id="edge11" class="edge">
<title>Node2&#45;&gt;Node11</title>
<path fill="none" stroke="#63b8ff" d="M244.8,-278.75C310.76,-269.2 459.46,-247.67 533.86,-236.89"/>
<polygon fill="#63b8ff" stroke="#63b8ff" points="534.25,-240.37 543.64,-235.48 533.24,-233.44 534.25,-240.37"/>
</g>
<!-- Node3&#45;&gt;Node4 -->
<g id="edge3" class="edge">
<title>Node3&#45;&gt;Node4</title>
<path fill="none" stroke="#63b8ff" d="M87.84,-166.69C90.6,-166.1 93.35,-165.53 96,-165 168.63,-150.5 253.49,-136.09 304.16,-127.75"/>
<polygon fill="#63b8ff" stroke="#63b8ff" points="304.55,-131.23 313.86,-126.16 303.42,-124.32 304.55,-131.23"/>
</g>
<!-- Node5 -->
<g id="node5" class="node">
<title>Node5</title>
<g id="a_node5"><a xlink:href="datatypes_8h.html" target="_top" xlink:title=" ">
<polygon fill="white" stroke="#666666" points="641,-74 573,-74 573,-55 641,-55 641,-74"/>
<text text-anchor="middle" x="607" y="-62" font-family="Helvetica,sans-Serif" font-size="10.00">datatypes.h</text>
</a>
</g>
</g>
<!-- Node3&#45;&gt;Node5 -->
<g id="edge9" class="edge">
<title>Node3&#45;&gt;Node5</title>
<path fill="none" stroke="#63b8ff" d="M80.84,-164.54C117.01,-150.72 189.94,-124.28 254,-110 362.86,-85.73 493.76,-73.56 561.46,-68.49"/>
<polygon fill="#63b8ff" stroke="#63b8ff" points="561.33,-72.01 571.05,-67.79 560.82,-65.03 561.33,-72.01"/>
</g>
<!-- Node10 -->
<g id="node10" class="node">
<title>Node10</title>
<g id="a_node10"><a xlink:title=" ">
<polygon fill="#e0e0e0" stroke="#999999" points="96,-129 28,-129 28,-110 96,-110 96,-129"/>
<text text-anchor="middle" x="62" y="-117" font-family="Helvetica,sans-Serif" font-size="10.00">pervade.tpp</text>
</a>
</g>
</g>
<!-- Node3&#45;&gt;Node10 -->
<g id="edge10" class="edge">
<title>Node3&#45;&gt;Node10</title>
<path fill="none" stroke="#63b8ff" d="M58.66,-164.75C59.15,-158.27 59.84,-149.16 60.46,-140.9"/>
<polygon fill="#63b8ff" stroke="#63b8ff" points="63.95,-141.19 61.21,-130.95 56.97,-140.66 63.95,-141.19"/>
</g>
<!-- Node4&#45;&gt;Node5 -->
<g id="edge4" class="edge">
<title>Node4&#45;&gt;Node5</title>
<path fill="none" stroke="#63b8ff" d="M382.99,-111.52C428.79,-102.11 510.43,-85.34 561.49,-74.85"/>
<polygon fill="#63b8ff" stroke="#63b8ff" points="561.94,-78.33 571.04,-72.89 560.54,-71.47 561.94,-78.33"/>
</g>
<!-- Node9 -->
<g id="node9" class="node">
<title>Node9</title>
<g id="a_node9"><a xlink:title=" ">
<polygon fill="#e0e0e0" stroke="#999999" points="372,-74 326,-74 326,-55 372,-55 372,-74"/>
<text text-anchor="middle" x="349" y="-62" font-family="Helvetica,sans-Serif" font-size="10.00">variant</text>
</a>
</g>
</g>
<!-- Node4&#45;&gt;Node9 -->
<g id="edge8" class="edge">
<title>Node4&#45;&gt;Node9</title>
<path fill="none" stroke="#63b8ff" d="M349,-109.75C349,-103.27 349,-94.16 349,-85.9"/>
<polygon fill="#63b8ff" stroke="#63b8ff" points="352.5,-85.96 349,-75.96 345.5,-85.96 352.5,-85.96"/>
</g>
<!-- Node6 -->
<g id="node6" class="node">
<title>Node6</title>
<g id="a_node6"><a xlink:title=" ">
<polygon fill="#e0e0e0" stroke="#999999" points="696,-19 652,-19 652,0 696,0 696,-19"/>
<text text-anchor="middle" x="674" y="-7" font-family="Helvetica,sans-Serif" font-size="10.00">vector</text>
</a>
</g>
</g>
<!-- Node5&#45;&gt;Node6 -->
<g id="edge5" class="edge">
<title>Node5&#45;&gt;Node6</title>
<path fill="none" stroke="#63b8ff" d="M618.37,-54.51C628.05,-46.85 642.2,-35.66 653.81,-26.47"/>
<polygon fill="#63b8ff" stroke="#63b8ff" points="655.94,-29.25 661.62,-20.3 651.6,-23.76 655.94,-29.25"/>
</g>
<!-- Node7 -->
<g id="node7" class="node">
<title>Node7</title>
<g id="a_node7"><a xlink:title=" ">
<polygon fill="#e0e0e0" stroke="#999999" points="562.5,-19 521.5,-19 521.5,0 562.5,0 562.5,-19"/>
<text text-anchor="middle" x="542" y="-7" font-family="Helvetica,sans-Serif" font-size="10.00">string</text>
</a>
</g>
</g>
<!-- Node5&#45;&gt;Node7 -->
<g id="edge6" class="edge">
<title>Node5&#45;&gt;Node7</title>
<path fill="none" stroke="#63b8ff" d="M595.97,-54.51C586.58,-46.85 572.85,-35.66 561.59,-26.47"/>
<polygon fill="#63b8ff" stroke="#63b8ff" points="564,-23.92 554.04,-20.31 559.57,-29.35 564,-23.92"/>
</g>
<!-- Node8 -->
<g id="node8" class="node">
<title>Node8</title>
<g id="a_node8"><a xlink:title=" ">
<polygon fill="#e0e0e0" stroke="#999999" points="633.5,-19 580.5,-19 580.5,0 633.5,0 633.5,-19"/>
<text text-anchor="middle" x="607" y="-7" font-family="Helvetica,sans-Serif" font-size="10.00">complex</text>
</a>
</g>
</g>
<!-- Node5&#45;&gt;Node8 -->
<g id="edge7" class="edge">
<title>Node5&#45;&gt;Node8</title>
<path fill="none" stroke="#63b8ff" d="M607,-54.75C607,-48.27 607,-39.16 607,-30.9"/>
<polygon fill="#63b8ff" stroke="#63b8ff" points="610.5,-30.96 607,-20.96 603.5,-30.96 610.5,-30.96"/>
</g>
<!-- Node11&#45;&gt;Node4 -->
<g id="edge13" class="edge">
<title>Node11&#45;&gt;Node4</title>
<path fill="none" stroke="#63b8ff" d="M576.97,-219.6C574.87,-205.74 568.78,-179.1 552,-165 528.51,-145.25 446.58,-132.1 394.27,-125.5"/>
<polygon fill="#63b8ff" stroke="#63b8ff" points="394.79,-122.03 384.44,-124.29 393.94,-128.98 394.79,-122.03"/>
</g>
<!-- Node11&#45;&gt;Node5 -->
<g id="edge12" class="edge">
<title>Node11&#45;&gt;Node5</title>
<path fill="none" stroke="#63b8ff" d="M578.57,-219.79C579.97,-200.05 584.14,-150.52 593,-110 594.82,-101.69 597.5,-92.71 600.03,-85.01"/>
<polygon fill="#63b8ff" stroke="#63b8ff" points="603.3,-86.27 603.25,-75.67 596.68,-83.99 603.3,-86.27"/>
</g>
<!-- Node12 -->
<g id="node12" class="node">
<title>Node12</title>
<g id="a_node12"><a xlink:href="token_8h.html" target="_top" xlink:title=" ">
<polygon fill="white" stroke="#666666" points="784.5,-184 713.5,-184 713.5,-165 784.5,-165 784.5,-184"/>
<text text-anchor="middle" x="749" y="-172" font-family="Helvetica,sans-Serif" font-size="10.00">core/token.h</text>
</a>
</g>
</g>
<!-- Node11&#45;&gt;Node12 -->
<g id="edge14" class="edge">
<title>Node11&#45;&gt;Node12</title>
<path fill="none" stroke="#63b8ff" d="M607.01,-219.51C635.1,-210.8 677.91,-197.53 709.19,-187.84"/>
<polygon fill="#63b8ff" stroke="#63b8ff" points="710.17,-191.2 718.69,-184.89 708.1,-184.51 710.17,-191.2"/>
</g>
<!-- Node20 -->
<g id="node20" class="node">
<title>Node20</title>
<g id="a_node20"><a xlink:title=" ">
<polygon fill="#e0e0e0" stroke="#999999" points="543,-184 491,-184 491,-165 543,-165 543,-184"/>
<text text-anchor="middle" x="517" y="-172" font-family="Helvetica,sans-Serif" font-size="10.00">memory</text>
</a>
</g>
</g>
<!-- Node11&#45;&gt;Node20 -->
<g id="edge27" class="edge">
<title>Node11&#45;&gt;Node20</title>
<path fill="none" stroke="#63b8ff" d="M567.65,-219.51C558.92,-211.93 546.21,-200.88 535.7,-191.75"/>
<polygon fill="#63b8ff" stroke="#63b8ff" points="538.18,-189.27 528.34,-185.35 533.59,-194.55 538.18,-189.27"/>
</g>
<!-- Node12&#45;&gt;Node4 -->
<g id="edge19" class="edge">
<title>Node12&#45;&gt;Node4</title>
<path fill="none" stroke="#63b8ff" d="M713.15,-168.75C640.13,-159.08 474.32,-137.1 394.11,-126.48"/>
<polygon fill="#63b8ff" stroke="#63b8ff" points="394.8,-123.04 384.42,-125.19 393.88,-129.98 394.8,-123.04"/>
</g>
<!-- Node12&#45;&gt;Node5 -->
<g id="edge17" class="edge">
<title>Node12&#45;&gt;Node5</title>
<path fill="none" stroke="#63b8ff" d="M744.64,-164.58C737.69,-151.17 722.93,-125.7 704,-110 687.31,-96.16 665.6,-85.68 646.96,-78.37"/>
<polygon fill="#63b8ff" stroke="#63b8ff" points="648.41,-75.17 637.82,-74.96 645.97,-81.73 648.41,-75.17"/>
</g>
<!-- Node13 -->
<g id="node13" class="node">
<title>Node13</title>
<g id="a_node13"><a xlink:href="token__type_8h.html" target="_top" xlink:title=" ">
<polygon fill="white" stroke="#666666" points="966.5,-74 893.5,-74 893.5,-55 966.5,-55 966.5,-74"/>
<text text-anchor="middle" x="930" y="-62" font-family="Helvetica,sans-Serif" font-size="10.00">token_type.h</text>
</a>
</g>
</g>
<!-- Node12&#45;&gt;Node13 -->
<g id="edge15" class="edge">
<title>Node12&#45;&gt;Node13</title>
<path fill="none" stroke="#63b8ff" d="M784.9,-165.87C811.16,-159.1 846.82,-147.4 874,-129 892.02,-116.8 907.93,-97.47 918.14,-83.34"/>
<polygon fill="#63b8ff" stroke="#63b8ff" points="920.83,-85.6 923.66,-75.39 915.08,-81.61 920.83,-85.6"/>
</g>
<!-- Node15 -->
<g id="node15" class="node">
<title>Node15</title>
<g id="a_node15"><a xlink:title=" ">
<polygon fill="#e0e0e0" stroke="#999999" points="1004.5,-129 921.5,-129 921.5,-110 1004.5,-110 1004.5,-129"/>
<text text-anchor="middle" x="963" y="-117" font-family="Helvetica,sans-Serif" font-size="10.00">uni_algo/conv.h</text>
</a>
</g>
</g>
<!-- Node12&#45;&gt;Node15 -->
<g id="edge18" class="edge">
<title>Node12&#45;&gt;Node15</title>
<path fill="none" stroke="#63b8ff" d="M784.82,-164.63C820.74,-155.73 876.25,-141.98 915.76,-132.2"/>
<polygon fill="#63b8ff" stroke="#63b8ff" points="916.37,-135.65 925.24,-129.85 914.69,-128.86 916.37,-135.65"/>
</g>
<!-- Node16 -->
<g id="node16" class="node">
<title>Node16</title>
<g id="a_node16"><a xlink:href="conversion_8h.html" target="_top" xlink:title=" ">
<polygon fill="white" stroke="#666666" points="864.5,-129 751.5,-129 751.5,-110 864.5,-110 864.5,-129"/>
<text text-anchor="middle" x="808" y="-117" font-family="Helvetica,sans-Serif" font-size="10.00">interface/conversion.h</text>
</a>
</g>
</g>
<!-- Node12&#45;&gt;Node16 -->
<g id="edge20" class="edge">
<title>Node12&#45;&gt;Node16</title>
<path fill="none" stroke="#63b8ff" d="M759.01,-164.51C767.37,-157 779.5,-146.1 789.6,-137.03"/>
<polygon fill="#63b8ff" stroke="#63b8ff" points="791.91,-139.66 797.01,-130.37 787.24,-134.45 791.91,-139.66"/>
</g>
<!-- Node17 -->
<g id="node17" class="node">
<title>Node17</title>
<g id="a_node17"><a xlink:title=" ">
<polygon fill="#e0e0e0" stroke="#999999" points="1063,-129 1023,-129 1023,-110 1063,-110 1063,-129"/>
<text text-anchor="middle" x="1043" y="-117" font-family="Helvetica,sans-Serif" font-size="10.00">utility</text>
</a>
</g>
</g>
<!-- Node12&#45;&gt;Node17 -->
<g id="edge24" class="edge">
<title>Node12&#45;&gt;Node17</title>
<path fill="none" stroke="#63b8ff" d="M784.84,-168.86C833.92,-162.2 924.98,-148.8 1011.7,-129.29"/>
<polygon fill="#63b8ff" stroke="#63b8ff" points="1012.35,-132.73 1021.32,-127.09 1010.8,-125.91 1012.35,-132.73"/>
</g>
<!-- Node18 -->
<g id="node18" class="node">
<title>Node18</title>
<g id="a_node18"><a xlink:title=" ">
<polygon fill="#e0e0e0" stroke="#999999" points="541,-129 491,-129 491,-110 541,-110 541,-129"/>
<text text-anchor="middle" x="516" y="-117" font-family="Helvetica,sans-Serif" font-size="10.00">optional</text>
</a>
</g>
</g>
<!-- Node12&#45;&gt;Node18 -->
<g id="edge25" class="edge">
<title>Node12&#45;&gt;Node18</title>
<path fill="none" stroke="#63b8ff" d="M713.1,-165.33C669.4,-155.39 596,-138.7 552.17,-128.73"/>
<polygon fill="#63b8ff" stroke="#63b8ff" points="553.17,-125.37 542.64,-126.56 551.62,-132.19 553.17,-125.37"/>
</g>
<!-- Node19 -->
<g id="node19" class="node">
<title>Node19</title>
<g id="a_node19"><a xlink:href="position_8h.html" target="_top" xlink:title=" ">
<polygon fill="white" stroke="#666666" points="694.5,-129 635.5,-129 635.5,-110 694.5,-110 694.5,-129"/>
<text text-anchor="middle" x="665" y="-117" font-family="Helvetica,sans-Serif" font-size="10.00">position.h</text>
</a>
</g>
</g>
<!-- Node12&#45;&gt;Node19 -->
<g id="edge26" class="edge">
<title>Node12&#45;&gt;Node19</title>
<path fill="none" stroke="#63b8ff" d="M734.75,-164.51C722.12,-156.54 703.44,-144.75 688.59,-135.38"/>
<polygon fill="#63b8ff" stroke="#63b8ff" points="690.64,-132.54 680.32,-130.17 686.91,-138.46 690.64,-132.54"/>
</g>
<!-- Node14 -->
<g id="node14" class="node">
<title>Node14</title>
<g id="a_node14"><a xlink:title=" ">
<polygon fill="#e0e0e0" stroke="#999999" points="1340,-19 1286,-19 1286,0 1340,0 1340,-19"/>
<text text-anchor="middle" x="1313" y="-7" font-family="Helvetica,sans-Serif" font-size="10.00">iostream</text>
</a>
</g>
</g>
<!-- Node13&#45;&gt;Node14 -->
<g id="edge16" class="edge">
<title>Node13&#45;&gt;Node14</title>
<path fill="none" stroke="#63b8ff" d="M966.72,-58.42C1039.41,-48.36 1200.96,-26 1274.82,-15.78"/>
<polygon fill="#63b8ff" stroke="#63b8ff" points="1274.97,-19.3 1284.39,-14.46 1274.01,-12.36 1274.97,-19.3"/>
</g>
<!-- Node16&#45;&gt;Node5 -->
<g id="edge22" class="edge">
<title>Node16&#45;&gt;Node5</title>
<path fill="none" stroke="#63b8ff" d="M773.9,-109.51C740.31,-100.65 688.79,-87.07 651.88,-77.33"/>
<polygon fill="#63b8ff" stroke="#63b8ff" points="652.95,-74 642.39,-74.83 651.17,-80.77 652.95,-74"/>
</g>
<!-- Node16&#45;&gt;Node7 -->
<g id="edge21" class="edge">
<title>Node16&#45;&gt;Node7</title>
<path fill="none" stroke="#63b8ff" d="M786.23,-109.66C739.22,-90.57 628.04,-45.43 573.4,-23.25"/>
<polygon fill="#63b8ff" stroke="#63b8ff" points="574.94,-20.1 564.36,-19.58 572.31,-26.58 574.94,-20.1"/>
</g>
<!-- Node16&#45;&gt;Node13 -->
<g id="edge23" class="edge">
<title>Node16&#45;&gt;Node13</title>
<path fill="none" stroke="#63b8ff" d="M828.7,-109.51C848,-101.12 877.06,-88.5 899.11,-78.92"/>
<polygon fill="#63b8ff" stroke="#63b8ff" points="900.44,-82.16 908.22,-74.96 897.66,-75.74 900.44,-82.16"/>
</g>
<!-- Node21&#45;&gt;Node5 -->
<g id="edge34" class="edge">
<title>Node21&#45;&gt;Node5</title>
<path fill="none" stroke="#63b8ff" d="M1071.21,-164.83C1077.12,-151.27 1085.69,-125.06 1072,-110 1044.11,-79.32 764.02,-69.26 652.48,-66.45"/>
<polygon fill="#63b8ff" stroke="#63b8ff" points="652.88,-62.96 642.8,-66.22 652.71,-69.96 652.88,-62.96"/>
</g>
<!-- Node21&#45;&gt;Node14 -->
<g id="edge29" class="edge">
<title>Node21&#45;&gt;Node14</title>
<path fill="none" stroke="#63b8ff" d="M1099.76,-169.65C1132.09,-164.58 1181.8,-153.28 1218,-129 1257.09,-102.78 1287.85,-55.51 1302.9,-29.3"/>
<polygon fill="#63b8ff" stroke="#63b8ff" points="1305.83,-31.24 1307.63,-20.8 1299.71,-27.83 1305.83,-31.24"/>
</g>
<!-- Node21&#45;&gt;Node15 -->
<g id="edge35" class="edge">
<title>Node21&#45;&gt;Node15</title>
<path fill="none" stroke="#63b8ff" d="M1049.36,-164.51C1033.27,-156.31 1009.25,-144.07 990.63,-134.58"/>
<polygon fill="#63b8ff" stroke="#63b8ff" points="992.23,-131.47 981.73,-130.05 989.05,-137.7 992.23,-131.47"/>
</g>
<!-- Node21&#45;&gt;Node17 -->
<g id="edge31" class="edge">
<title>Node21&#45;&gt;Node17</title>
<path fill="none" stroke="#63b8ff" d="M1063.04,-164.75C1059.96,-157.96 1055.59,-148.3 1051.71,-139.73"/>
<polygon fill="#63b8ff" stroke="#63b8ff" points="1054.99,-138.49 1047.67,-130.82 1048.61,-141.37 1054.99,-138.49"/>
</g>
<!-- Node22 -->
<g id="node22" class="node">
<title>Node22</title>
<g id="a_node22"><a xlink:title=" ">
<polygon fill="#e0e0e0" stroke="#999999" points="1209,-129 1157,-129 1157,-110 1209,-110 1209,-129"/>
<text text-anchor="middle" x="1183" y="-117" font-family="Helvetica,sans-Serif" font-size="10.00">sstream</text>
</a>
</g>
</g>
<!-- Node21&#45;&gt;Node22 -->
<g id="edge30" class="edge">
<title>Node21&#45;&gt;Node22</title>
<path fill="none" stroke="#63b8ff" d="M1086.68,-164.51C1104.95,-156.16 1132.41,-143.61 1153.35,-134.05"/>
<polygon fill="#63b8ff" stroke="#63b8ff" points="1154.6,-137.33 1162.24,-129.99 1151.69,-130.96 1154.6,-137.33"/>
</g>
<!-- Node23 -->
<g id="node23" class="node">
<title>Node23</title>
<g id="a_node23"><a xlink:href="error__type_8h.html" target="_top" xlink:title=" ">
<polygon fill="white" stroke="#666666" points="1090,-74 1022,-74 1022,-55 1090,-55 1090,-74"/>
<text text-anchor="middle" x="1056" y="-62" font-family="Helvetica,sans-Serif" font-size="10.00">error_type.h</text>
</a>
</g>
</g>
<!-- Node21&#45;&gt;Node23 -->
<g id="edge32" class="edge">
<title>Node21&#45;&gt;Node23</title>
<path fill="none" stroke="#63b8ff" d="M1078.49,-164.83C1092.76,-152.94 1114.15,-130.68 1105,-110 1099.84,-98.34 1089.94,-88.42 1080.38,-80.93"/>
<polygon fill="#63b8ff" stroke="#63b8ff" points="1082.52,-78.16 1072.36,-75.16 1078.43,-83.84 1082.52,-78.16"/>
</g>
<!-- Node23&#45;&gt;Node7 -->
<g id="edge33" class="edge">
<title>Node23&#45;&gt;Node7</title>
<path fill="none" stroke="#63b8ff" d="M1021.75,-59.73C1007.6,-58.21 991.01,-56.47 976,-55 800.27,-37.84 751.27,-51.14 574.16,-19.03"/>
<polygon fill="#63b8ff" stroke="#63b8ff" points="574.82,-15.59 564.35,-17.22 573.55,-22.48 574.82,-15.59"/>
</g>
<!-- Node29&#45;&gt;Node4 -->
<g id="edge44" class="edge">
<title>Node29&#45;&gt;Node4</title>
<path fill="none" stroke="#63b8ff" d="M539.64,-384.56C458.81,-369.01 311,-333.95 311,-285.5 311,-285.5 311,-285.5 311,-228.5 311,-195.65 326.84,-160.19 338.07,-139.19"/>
<polygon fill="#63b8ff" stroke="#63b8ff" points="341,-141.13 342.82,-130.69 334.88,-137.72 341,-141.13"/>
</g>
<!-- Node29&#45;&gt;Node7 -->
<g id="edge43" class="edge">
<title>Node29&#45;&gt;Node7</title>
<path fill="none" stroke="#63b8ff" d="M538.55,-389.43C393.91,-377.5 0,-340 0,-285.5 0,-285.5 0,-285.5 0,-118.5 0,-13.9 393.16,-9.13 509.77,-10.02"/>
<polygon fill="#63b8ff" stroke="#63b8ff" points="509.54,-13.52 519.57,-10.12 509.61,-6.52 509.54,-13.52"/>
</g>
<!-- Node29&#45;&gt;Node21 -->
<g id="edge54" class="edge">
<title>Node29&#45;&gt;Node21</title>
<path fill="none" stroke="#63b8ff" d="M603.95,-384.64C645.3,-356.68 778.6,-269.34 900,-220 940.46,-203.56 988.89,-191.43 1023.16,-184.02"/>
<polygon fill="#63b8ff" stroke="#63b8ff" points="1023.66,-187.49 1032.72,-182 1022.21,-180.64 1023.66,-187.49"/>
</g>
<!-- Node30 -->
<g id="node30" class="node">
<title>Node30</title>
<g id="a_node30"><a xlink:title=" ">
<polygon fill="#e0e0e0" stroke="#999999" points="684.5,-294 649.5,-294 649.5,-275 684.5,-275 684.5,-294"/>
<text text-anchor="middle" x="667" y="-282" font-family="Helvetica,sans-Serif" font-size="10.00">map</text>
</a>
</g>
</g>
<!-- Node29&#45;&gt;Node30 -->
<g id="edge42" class="edge">
<title>Node29&#45;&gt;Node30</title>
<path fill="none" stroke="#63b8ff" d="M597.22,-384.66C609.63,-367.02 637.71,-327.12 654.21,-303.67"/>
<polygon fill="#63b8ff" stroke="#63b8ff" points="656.93,-305.89 659.82,-295.7 651.21,-301.86 656.93,-305.89"/>
</g>
<!-- Node31 -->
<g id="node31" class="node">
<title>Node31</title>
<g id="a_node31"><a xlink:href="ast_8h.html" target="_top" xlink:title=" ">
<polygon fill="white" stroke="#666666" points="631.5,-294 524.5,-294 524.5,-275 631.5,-275 631.5,-294"/>
<text text-anchor="middle" x="578" y="-282" font-family="Helvetica,sans-Serif" font-size="10.00">core/evaluation/ast.h</text>
</a>
</g>
</g>
<!-- Node29&#45;&gt;Node31 -->
<g id="edge45" class="edge">
<title>Node29&#45;&gt;Node31</title>
<path fill="none" stroke="#63b8ff" d="M589.94,-384.66C587.87,-367.5 583.27,-329.26 580.42,-305.6"/>
<polygon fill="#63b8ff" stroke="#63b8ff" points="583.93,-305.47 579.26,-295.96 576.98,-306.31 583.93,-305.47"/>
</g>
<!-- Node32 -->
<g id="node32" class="node">
<title>Node32</title>
<g id="a_node32"><a xlink:href="symbol_8h.html" target="_top" xlink:title=" ">
<polygon fill="white" stroke="#666666" points="563,-349 507,-349 507,-330 563,-330 563,-349"/>
<text text-anchor="middle" x="535" y="-337" font-family="Helvetica,sans-Serif" font-size="10.00">symbol.h</text>
</a>
</g>
</g>
<!-- Node29&#45;&gt;Node32 -->
<g id="edge55" class="edge">
<title>Node29&#45;&gt;Node32</title>
<path fill="none" stroke="#63b8ff" d="M581.5,-384.51C573.57,-377 562.05,-366.1 552.46,-357.03"/>
<polygon fill="#63b8ff" stroke="#63b8ff" points="555.13,-354.73 545.46,-350.4 550.32,-359.81 555.13,-354.73"/>
</g>
<!-- Node31&#45;&gt;Node4 -->
<g id="edge48" class="edge">
<title>Node31&#45;&gt;Node4</title>
<path fill="none" stroke="#63b8ff" d="M533.77,-274.51C507.52,-267.71 474.5,-256.48 449,-239 409.37,-211.83 376.39,-164.94 360.05,-139.03"/>
<polygon fill="#63b8ff" stroke="#63b8ff" points="363.1,-137.32 354.89,-130.63 357.14,-140.98 363.1,-137.32"/>
</g>
<!-- Node31&#45;&gt;Node5 -->
<g id="edge50" class="edge">
<title>Node31&#45;&gt;Node5</title>
<path fill="none" stroke="#63b8ff" d="M590.61,-274.55C600.71,-266.54 614.12,-253.81 620,-239 640.87,-186.48 624.29,-118.06 613.85,-85.03"/>
<polygon fill="#63b8ff" stroke="#63b8ff" points="617.21,-84.02 610.72,-75.64 610.57,-86.24 617.21,-84.02"/>
</g>
<!-- Node31&#45;&gt;Node7 -->
<g id="edge46" class="edge">
<title>Node31&#45;&gt;Node7</title>
<path fill="none" stroke="#63b8ff" d="M555.55,-274.51C522.09,-259.46 463,-225.76 463,-175.5 463,-175.5 463,-175.5 463,-118.5 463,-79.5 496.97,-45.21 520.36,-26.22"/>
<polygon fill="#63b8ff" stroke="#63b8ff" points="522.36,-29.1 528.11,-20.2 518.07,-23.57 522.36,-29.1"/>
</g>
<!-- Node31&#45;&gt;Node11 -->
<g id="edge52" class="edge">
<title>Node31&#45;&gt;Node11</title>
<path fill="none" stroke="#63b8ff" d="M578,-274.75C578,-268.27 578,-259.16 578,-250.9"/>
<polygon fill="#63b8ff" stroke="#63b8ff" points="581.5,-250.96 578,-240.96 574.5,-250.96 581.5,-250.96"/>
</g>
<!-- Node31&#45;&gt;Node12 -->
<g id="edge49" class="edge">
<title>Node31&#45;&gt;Node12</title>
<path fill="none" stroke="#63b8ff" d="M618.84,-274.51C643.67,-267.65 675.09,-256.36 699,-239 715.65,-226.91 729.63,-207.84 738.53,-193.75"/>
<polygon fill="#63b8ff" stroke="#63b8ff" points="741.38,-195.81 743.54,-185.44 735.38,-192.2 741.38,-195.81"/>
</g>
<!-- Node31&#45;&gt;Node14 -->
<g id="edge47" class="edge">
<title>Node31&#45;&gt;Node14</title>
<path fill="none" stroke="#63b8ff" d="M631.87,-274.78C684.51,-266.13 766.88,-252.3 838,-239 1021.34,-204.71 1089.72,-235.29 1243,-129 1270.39,-110 1277.46,-102.94 1294,-74 1301.79,-60.37 1306.67,-43.24 1309.53,-30.2"/>
<polygon fill="#63b8ff" stroke="#63b8ff" points="1312.91,-31.18 1311.4,-20.7 1306.04,-29.84 1312.91,-31.18"/>
</g>
<!-- Node31&#45;&gt;Node19 -->
<g id="edge53" class="edge">
<title>Node31&#45;&gt;Node19</title>
<path fill="none" stroke="#63b8ff" d="M611.21,-274.58C629.2,-267.9 649.95,-256.77 661,-239 679.78,-208.79 675.03,-165.37 669.96,-140.34"/>
<polygon fill="#63b8ff" stroke="#63b8ff" points="673.43,-139.83 667.81,-130.86 666.61,-141.38 673.43,-139.83"/>
</g>
<!-- Node31&#45;&gt;Node20 -->
<g id="edge51" class="edge">
<title>Node31&#45;&gt;Node20</title>
<path fill="none" stroke="#63b8ff" d="M567.52,-274.6C558.3,-266.26 545.11,-253 537,-239 529.1,-225.36 523.94,-208.22 520.84,-195.19"/>
<polygon fill="#63b8ff" stroke="#63b8ff" points="524.32,-194.73 518.8,-185.69 517.48,-196.2 524.32,-194.73"/>
</g>
<!-- Node32&#45;&gt;Node4 -->
<g id="edge58" class="edge">
<title>Node32&#45;&gt;Node4</title>
<path fill="none" stroke="#63b8ff" d="M527.48,-329.68C499.55,-296.95 401.49,-182.02 363.86,-137.91"/>
<polygon fill="#63b8ff" stroke="#63b8ff" points="366.55,-135.67 357.39,-130.34 361.22,-140.22 366.55,-135.67"/>
</g>
<!-- Node32&#45;&gt;Node18 -->
<g id="edge57" class="edge">
<title>Node32&#45;&gt;Node18</title>
<path fill="none" stroke="#63b8ff" d="M530.72,-329.73C519.73,-306.61 490.72,-241.76 482,-184 480.74,-175.65 479.29,-173 482,-165 485.41,-154.92 492.12,-145.32 498.69,-137.64"/>
<polygon fill="#63b8ff" stroke="#63b8ff" points="501.14,-140.14 505.37,-130.42 496.01,-135.38 501.14,-140.14"/>
</g>
<!-- Node32&#45;&gt;Node30 -->
<g id="edge56" class="edge">
<title>Node32&#45;&gt;Node30</title>
<path fill="none" stroke="#63b8ff" d="M557.39,-329.51C579.84,-320.49 614.48,-306.59 638.8,-296.82"/>
<polygon fill="#63b8ff" stroke="#63b8ff" points="639.78,-300.2 647.76,-293.23 637.17,-293.7 639.78,-300.2"/>
</g>
<!-- Node32&#45;&gt;Node31 -->
<g id="edge59" class="edge">
<title>Node32&#45;&gt;Node31</title>
<path fill="none" stroke="#63b8ff" d="M542.1,-329.75C547.92,-322.58 556.33,-312.2 563.56,-303.3"/>
<polygon fill="#63b8ff" stroke="#63b8ff" points="566.21,-305.59 569.79,-295.62 560.77,-301.18 566.21,-305.59"/>
</g>
<!-- Node33&#45;&gt;Node4 -->
<g id="edge62" class="edge">
<title>Node33&#45;&gt;Node4</title>
<path fill="none" stroke="#63b8ff" d="M204.52,-164.51C233.23,-155.76 277.05,-142.42 308.91,-132.71"/>
<polygon fill="#63b8ff" stroke="#63b8ff" points="309.64,-136.15 318.18,-129.89 307.6,-129.45 309.64,-136.15"/>
</g>
<!-- Node33&#45;&gt;Node5 -->
<g id="edge61" class="edge">
<title>Node33&#45;&gt;Node5</title>
<path fill="none" stroke="#63b8ff" d="M189.84,-164.51C213.65,-150.53 262.27,-123.73 307,-110 394.54,-83.13 501.59,-72.23 561.24,-68"/>
<polygon fill="#63b8ff" stroke="#63b8ff" points="561.27,-71.51 571.01,-67.35 560.8,-64.53 561.27,-71.51"/>
</g>
<!-- Node34&#45;&gt;Node5 -->
<g id="edge65" class="edge">
<title>Node34&#45;&gt;Node5</title>
<path fill="none" stroke="#63b8ff" d="M1237,-329.54C1237,-311.03 1237,-267.25 1237,-230.5 1237,-230.5 1237,-230.5 1237,-173.5 1237,-144.04 1240.97,-128.44 1218,-110 1196.01,-92.35 791.16,-73.41 652.86,-67.42"/>
<polygon fill="#63b8ff" stroke="#63b8ff" points="653.12,-63.93 642.98,-67 652.82,-70.92 653.12,-63.93"/>
</g>
<!-- Node34&#45;&gt;Node13 -->
<g id="edge66" class="edge">
<title>Node34&#45;&gt;Node13</title>
<path fill="none" stroke="#63b8ff" d="M1242.44,-329.63C1252.95,-311.63 1275,-269.26 1275,-230.5 1275,-230.5 1275,-230.5 1275,-173.5 1275,-143.33 1274.58,-128.82 1251,-110 1240.45,-101.58 1065.29,-80.77 978.28,-70.88"/>
<polygon fill="#63b8ff" stroke="#63b8ff" points="978.69,-67.41 968.36,-69.76 977.91,-74.37 978.69,-67.41"/>
</g>
<!-- Node34&#45;&gt;Node30 -->
<g id="edge67" class="edge">
<title>Node34&#45;&gt;Node30</title>
<path fill="none" stroke="#63b8ff" d="M1199.16,-334.98C1092.56,-325.07 791.38,-297.06 696.2,-288.22"/>
<polygon fill="#63b8ff" stroke="#63b8ff" points="696.7,-284.75 686.42,-287.31 696.05,-291.72 696.7,-284.75"/>
</g>
<!-- Node35 -->
<g id="node35" class="node">
<title>Node35</title>
<g id="a_node35"><a xlink:title=" ">
<polygon fill="#e0e0e0" stroke="#999999" points="1349,-294 1303,-294 1303,-275 1349,-275 1349,-294"/>
<text text-anchor="middle" x="1326" y="-282" font-family="Helvetica,sans-Serif" font-size="10.00">ranges</text>
</a>
</g>
</g>
<!-- Node34&#45;&gt;Node35 -->
<g id="edge68" class="edge">
<title>Node34&#45;&gt;Node35</title>
<path fill="none" stroke="#63b8ff" d="M1252.1,-329.51C1265.6,-321.47 1285.65,-309.53 1301.46,-300.11"/>
<polygon fill="#63b8ff" stroke="#63b8ff" points="1303.02,-303.26 1309.82,-295.13 1299.44,-297.24 1303.02,-303.26"/>
</g>
<!-- Node36&#45;&gt;Node12 -->
<g id="edge70" class="edge">
<title>Node36&#45;&gt;Node12</title>
<path fill="none" stroke="#63b8ff" d="M783.23,-219.75C777.68,-212.58 769.66,-202.2 762.77,-193.3"/>
<polygon fill="#63b8ff" stroke="#63b8ff" points="765.73,-191.41 756.84,-185.64 760.19,-195.69 765.73,-191.41"/>
</g>
</g>
</svg>
        <g id="navigator" transform="translate(0 0)" fill="#404254">
                <rect fill="#f2f5e9" fill-opacity="0.5" stroke="#606060" stroke-width=".5" x="0" y="0" width="60" height="60"/>
                <use id="zoomplus" xlink:href="#zoomPlus" x="17" y="9" onmousedown="handleZoom(evt,'in')"/>
                <use id="zoomminus" xlink:href="#zoomMin" x="42" y="9" onmousedown="handleZoom(evt,'out')"/>
                <use id="reset" xlink:href="#resetDef" x="30" y="36" onmousedown="handleReset()"/>
                <g id="arrowUp" xlink:href="#dirArrow" transform="translate(30 24)" onmousedown="handlePan(0,-1)">
                  <use xlink:href="#rim" fill="#404040">
                        <set attributeName="fill" to="#808080" begin="arrowUp.mouseover" end="arrowUp.mouseout"/>
                  </use>
                  <path fill="none" stroke="white" stroke-width="1.5" d="M0,-3.0v7 M-2.5,-0.5L0,-3.0L2.5,-0.5"/>
                </g>
                <g id="arrowRight" xlink:href="#dirArrow" transform="rotate(90) translate(36 -43)" onmousedown="handlePan(1,0)">
                  <use xlink:href="#rim" fill="#404040">
                        <set attributeName="fill" to="#808080" begin="arrowRight.mouseover" end="arrowRight.mouseout"/>
                  </use>
                  <path fill="none" stroke="white" stroke-width="1.5" d="M0,-3.0v7 M-2.5,-0.5L0,-3.0L2.5,-0.5"/>
                </g>
                <g id="arrowDown" xlink:href="#dirArrow" transform="rotate(180) translate(-30 -48)" onmousedown="handlePan(0,1)">
                  <use xlink:href="#rim" fill="#404040">
                        <set attributeName="fill" to="#808080" begin="arrowDown.mouseover" end="arrowDown.mouseout"/>
                  </use>
                  <path fill="none" stroke="white" stroke-width="1.5" d="M0,-3.0v7 M-2.5,-0.5L0,-3.0L2.5,-0.5"/>
                </g>
                <g id="arrowLeft" xlink:href="#dirArrow" transform="rotate(270) translate(-36 17)" onmousedown="handlePan(-1,0)">
                  <use xlink:href="#rim" fill="#404040">
                        <set attributeName="fill" to="#808080" begin="arrowLeft.mouseover" end="arrowLeft.mouseout"/>
                  </use>
                  <path fill="none" stroke="white" stroke-width="1.5" d="M0,-3.0v7 M-2.5,-0.5L0,-3.0L2.5,-0.5"/>
                </g>
        </g>
        <svg viewBox="0 0 15 15" width="100%" height="30px" preserveAspectRatio="xMaxYMin meet">
         <g id="arrow_out" transform="scale(0.3 0.3)">
          <a xlink:href="functions_8cpp__incl_org.svg" target="_base">
           <rect id="button" ry="5" rx="5" y="6" x="6" height="38" width="38"
                fill="#f2f5e9" fill-opacity="0.5" stroke="#606060" stroke-width="1.0"/>
           <path id="arrow"
             d="M 11.500037,31.436501 C 11.940474,20.09759 22.043105,11.32322 32.158766,21.979434 L 37.068811,17.246167 C 37.068811,17.246167 37.088388,32 37.088388,32 L 22.160133,31.978069 C 22.160133,31.978069 26.997745,27.140456 26.997745,27.140456 C 18.528582,18.264221 13.291696,25.230495 11.500037,31.436501 z"
             style="fill:#404040;"/>
          </a>
         </g>
        </svg>
</svg>
