<?xml version="1.0" encoding="UTF-8" standalone="no"?>
<!DOCTYPE svg PUBLIC "-//W3C//DTD SVG 1.1//EN"
 "http://www.w3.org/Graphics/SVG/1.1/DTD/svg11.dtd">
<!-- Generated by graphviz version 7.1.0 (20230121.1956)
 -->
<!-- Title: src/core/evaluation/operations/functions.h Pages: 1 -->
<svg width="741pt" height="313pt"
 viewBox="0.00 0.00 741.07 313.00" xmlns="http://www.w3.org/2000/svg" xmlns:xlink="http://www.w3.org/1999/xlink">
<g id="graph0" class="graph" transform="scale(1 1) rotate(0) translate(4 309)">
<title>src/core/evaluation/operations/functions.h</title>
<!-- Node1 -->
<g id="node1" class="node">
<title>Node1</title>
<g id="a_node1"><a xlink:title=" ">
<polygon fill="#999999" stroke="#666666" points="205.57,-305 89.57,-305 89.57,-275 205.57,-275 205.57,-305"/>
<text text-anchor="start" x="97.57" y="-293" font-family="Helvetica,sans-Serif" font-size="10.00">src/core/evaluation</text>
<text text-anchor="middle" x="147.57" y="-282" font-family="Helvetica,sans-Serif" font-size="10.00">/operations/functions.h</text>
</a>
</g>
</g>
<!-- Node2 -->
<g id="node2" class="node">
<title>Node2</title>
<g id="a_node2"><a xlink:href="pervade_8h.html" target="_top" xlink:title=" ">
<polygon fill="white" stroke="#666666" points="91.07,-184 32.07,-184 32.07,-165 91.07,-165 91.07,-184"/>
<text text-anchor="middle" x="61.57" y="-172" font-family="Helvetica,sans-Serif" font-size="10.00">pervade.h</text>
</a>
</g>
</g>
<!-- Node1&#45;&gt;Node2 -->
<g id="edge1" class="edge">
<title>Node1&#45;&gt;Node2</title>
<path fill="none" stroke="#63b8ff" d="M136.68,-274.63C121,-253.93 92.09,-215.78 75.07,-193.32"/>
<polygon fill="#63b8ff" stroke="#63b8ff" points="77.93,-191.29 69.1,-185.44 72.35,-195.52 77.93,-191.29"/>
</g>
<!-- Node10 -->
<g id="node10" class="node">
<title>Node10</title>
<g id="a_node10"><a xlink:href="operation_8h.html" target="_top" xlink:title=" ">
<polygon fill="white" stroke="#666666" points="228.07,-239 163.07,-239 163.07,-220 228.07,-220 228.07,-239"/>
<text text-anchor="middle" x="195.57" y="-227" font-family="Helvetica,sans-Serif" font-size="10.00">operation.h</text>
</a>
</g>
</g>
<!-- Node1&#45;&gt;Node10 -->
<g id="edge10" class="edge">
<title>Node1&#45;&gt;Node10</title>
<path fill="none" stroke="#63b8ff" d="M159.43,-274.54C166.05,-266.48 174.33,-256.38 181.3,-247.89"/>
<polygon fill="#63b8ff" stroke="#63b8ff" points="183.85,-250.3 187.49,-240.35 178.44,-245.86 183.85,-250.3"/>
</g>
<!-- Node3 -->
<g id="node3" class="node">
<title>Node3</title>
<g id="a_node3"><a xlink:href="array_8h.html" target="_top" xlink:title=" ">
<polygon fill="white" stroke="#666666" points="167.07,-129 100.07,-129 100.07,-110 167.07,-110 167.07,-129"/>
<text text-anchor="middle" x="133.57" y="-117" font-family="Helvetica,sans-Serif" font-size="10.00">core/array.h</text>
</a>
</g>
</g>
<!-- Node2&#45;&gt;Node3 -->
<g id="edge2" class="edge">
<title>Node2&#45;&gt;Node3</title>
<path fill="none" stroke="#63b8ff" d="M73.78,-164.51C84.4,-156.7 100,-145.21 112.61,-135.93"/>
<polygon fill="#63b8ff" stroke="#63b8ff" points="114.34,-139 120.32,-130.26 110.19,-133.36 114.34,-139"/>
</g>
<!-- Node4 -->
<g id="node4" class="node">
<title>Node4</title>
<g id="a_node4"><a xlink:href="datatypes_8h.html" target="_top" xlink:title=" ">
<polygon fill="white" stroke="#666666" points="248.57,-74 180.57,-74 180.57,-55 248.57,-55 248.57,-74"/>
<text text-anchor="middle" x="214.57" y="-62" font-family="Helvetica,sans-Serif" font-size="10.00">datatypes.h</text>
</a>
</g>
</g>
<!-- Node2&#45;&gt;Node4 -->
<g id="edge8" class="edge">
<title>Node2&#45;&gt;Node4</title>
<path fill="none" stroke="#63b8ff" d="M43.16,-164.5C20.88,-152.42 -11.75,-130.14 4.57,-110 9.78,-103.57 108.78,-84.65 168.97,-73.66"/>
<polygon fill="#63b8ff" stroke="#63b8ff" points="169.38,-77.15 178.59,-71.91 168.13,-70.26 169.38,-77.15"/>
</g>
<!-- Node9 -->
<g id="node9" class="node">
<title>Node9</title>
<g id="a_node9"><a xlink:title=" ">
<polygon fill="#e0e0e0" stroke="#999999" points="81.57,-129 13.57,-129 13.57,-110 81.57,-110 81.57,-129"/>
<text text-anchor="middle" x="47.57" y="-117" font-family="Helvetica,sans-Serif" font-size="10.00">pervade.tpp</text>
</a>
</g>
</g>
<!-- Node2&#45;&gt;Node9 -->
<g id="edge9" class="edge">
<title>Node2&#45;&gt;Node9</title>
<path fill="none" stroke="#63b8ff" d="M59.26,-164.75C57.5,-158.11 55.03,-148.73 52.8,-140.31"/>
<polygon fill="#63b8ff" stroke="#63b8ff" points="56.25,-139.68 50.32,-130.91 49.49,-141.47 56.25,-139.68"/>
</g>
<!-- Node3&#45;&gt;Node4 -->
<g id="edge3" class="edge">
<title>Node3&#45;&gt;Node4</title>
<path fill="none" stroke="#63b8ff" d="M147.31,-109.51C159.37,-101.62 177.15,-89.98 191.41,-80.65"/>
<polygon fill="#63b8ff" stroke="#63b8ff" points="193.31,-83.59 199.76,-75.19 189.48,-77.73 193.31,-83.59"/>
</g>
<!-- Node8 -->
<g id="node8" class="node">
<title>Node8</title>
<g id="a_node8"><a xlink:title=" ">
<polygon fill="#e0e0e0" stroke="#999999" points="156.57,-74 110.57,-74 110.57,-55 156.57,-55 156.57,-74"/>
<text text-anchor="middle" x="133.57" y="-62" font-family="Helvetica,sans-Serif" font-size="10.00">variant</text>
</a>
</g>
</g>
<!-- Node3&#45;&gt;Node8 -->
<g id="edge7" class="edge">
<title>Node3&#45;&gt;Node8</title>
<path fill="none" stroke="#63b8ff" d="M133.57,-109.75C133.57,-103.27 133.57,-94.16 133.57,-85.9"/>
<polygon fill="#63b8ff" stroke="#63b8ff" points="137.07,-85.96 133.57,-75.96 130.07,-85.96 137.07,-85.96"/>
</g>
<!-- Node5 -->
<g id="node5" class="node">
<title>Node5</title>
<g id="a_node5"><a xlink:title=" ">
<polygon fill="#e0e0e0" stroke="#999999" points="176.57,-19 132.57,-19 132.57,0 176.57,0 176.57,-19"/>
<text text-anchor="middle" x="154.57" y="-7" font-family="Helvetica,sans-Serif" font-size="10.00">vector</text>
</a>
</g>
</g>
<!-- Node4&#45;&gt;Node5 -->
<g id="edge4" class="edge">
<title>Node4&#45;&gt;Node5</title>
<path fill="none" stroke="#63b8ff" d="M204.39,-54.51C195.8,-46.93 183.3,-35.88 172.97,-26.75"/>
<polygon fill="#63b8ff" stroke="#63b8ff" points="175.54,-24.36 165.73,-20.36 170.91,-29.6 175.54,-24.36"/>
</g>
<!-- Node6 -->
<g id="node6" class="node">
<title>Node6</title>
<g id="a_node6"><a xlink:title=" ">
<polygon fill="#e0e0e0" stroke="#999999" points="332.07,-19 291.07,-19 291.07,0 332.07,0 332.07,-19"/>
<text text-anchor="middle" x="311.57" y="-7" font-family="Helvetica,sans-Serif" font-size="10.00">string</text>
</a>
</g>
</g>
<!-- Node4&#45;&gt;Node6 -->
<g id="edge5" class="edge">
<title>Node4&#45;&gt;Node6</title>
<path fill="none" stroke="#63b8ff" d="M231.02,-54.51C245.88,-46.39 268.01,-34.3 285.31,-24.85"/>
<polygon fill="#63b8ff" stroke="#63b8ff" points="286.93,-27.95 294.03,-20.08 283.57,-21.81 286.93,-27.95"/>
</g>
<!-- Node7 -->
<g id="node7" class="node">
<title>Node7</title>
<g id="a_node7"><a xlink:title=" ">
<polygon fill="#e0e0e0" stroke="#999999" points="248.07,-19 195.07,-19 195.07,0 248.07,0 248.07,-19"/>
<text text-anchor="middle" x="221.57" y="-7" font-family="Helvetica,sans-Serif" font-size="10.00">complex</text>
</a>
</g>
</g>
<!-- Node4&#45;&gt;Node7 -->
<g id="edge6" class="edge">
<title>Node4&#45;&gt;Node7</title>
<path fill="none" stroke="#63b8ff" d="M215.72,-54.75C216.59,-48.19 217.81,-38.95 218.91,-30.6"/>
<polygon fill="#63b8ff" stroke="#63b8ff" points="222.35,-31.31 220.19,-20.94 215.41,-30.4 222.35,-31.31"/>
</g>
<!-- Node10&#45;&gt;Node3 -->
<g id="edge12" class="edge">
<title>Node10&#45;&gt;Node3</title>
<path fill="none" stroke="#63b8ff" d="M190.49,-219.66C180.46,-202.18 157.87,-162.84 144.36,-139.3"/>
<polygon fill="#63b8ff" stroke="#63b8ff" points="147.48,-137.7 139.47,-130.77 141.41,-141.19 147.48,-137.7"/>
</g>
<!-- Node10&#45;&gt;Node4 -->
<g id="edge11" class="edge">
<title>Node10&#45;&gt;Node4</title>
<path fill="none" stroke="#63b8ff" d="M196.59,-219.74C199.53,-194.53 208.06,-121.36 212.22,-85.62"/>
<polygon fill="#63b8ff" stroke="#63b8ff" points="215.68,-86.15 213.37,-75.81 208.73,-85.34 215.68,-86.15"/>
</g>
<!-- Node11 -->
<g id="node11" class="node">
<title>Node11</title>
<g id="a_node11"><a xlink:href="token_8h.html" target="_top" xlink:title=" ">
<polygon fill="white" stroke="#666666" points="407.07,-184 336.07,-184 336.07,-165 407.07,-165 407.07,-184"/>
<text text-anchor="middle" x="371.57" y="-172" font-family="Helvetica,sans-Serif" font-size="10.00">core/token.h</text>
</a>
</g>
</g>
<!-- Node10&#45;&gt;Node11 -->
<g id="edge13" class="edge">
<title>Node10&#45;&gt;Node11</title>
<path fill="none" stroke="#63b8ff" d="M225.42,-219.51C254.46,-210.76 298.79,-197.42 331.01,-187.71"/>
<polygon fill="#63b8ff" stroke="#63b8ff" points="331.84,-191.12 340.41,-184.88 329.83,-184.41 331.84,-191.12"/>
</g>
<!-- Node19 -->
<g id="node19" class="node">
<title>Node19</title>
<g id="a_node19"><a xlink:title=" ">
<polygon fill="#e0e0e0" stroke="#999999" points="477.57,-184 425.57,-184 425.57,-165 477.57,-165 477.57,-184"/>
<text text-anchor="middle" x="451.57" y="-172" font-family="Helvetica,sans-Serif" font-size="10.00">memory</text>
</a>
</g>
</g>
<!-- Node10&#45;&gt;Node19 -->
<g id="edge26" class="edge">
<title>Node10&#45;&gt;Node19</title>
<path fill="none" stroke="#63b8ff" d="M228.23,-222.34C269.32,-214.5 342.32,-200.28 414.17,-184.46"/>
<polygon fill="#63b8ff" stroke="#63b8ff" points="414.74,-187.92 423.74,-182.34 413.22,-181.09 414.74,-187.92"/>
</g>
<!-- Node11&#45;&gt;Node3 -->
<g id="edge18" class="edge">
<title>Node11&#45;&gt;Node3</title>
<path fill="none" stroke="#63b8ff" d="M335.68,-165.51C293.66,-156.15 224.03,-140.64 178.47,-130.5"/>
<polygon fill="#63b8ff" stroke="#63b8ff" points="179.43,-127.13 168.91,-128.37 177.91,-133.96 179.43,-127.13"/>
</g>
<!-- Node11&#45;&gt;Node4 -->
<g id="edge16" class="edge">
<title>Node11&#45;&gt;Node4</title>
<path fill="none" stroke="#63b8ff" d="M335.84,-166.75C310.37,-160.47 276.55,-148.98 252.57,-129 238.38,-117.18 228.14,-98.61 221.9,-84.6"/>
<polygon fill="#63b8ff" stroke="#63b8ff" points="225.21,-83.46 218.16,-75.55 218.74,-86.13 225.21,-83.46"/>
</g>
<!-- Node12 -->
<g id="node12" class="node">
<title>Node12</title>
<g id="a_node12"><a xlink:href="token__type_8h.html" target="_top" xlink:title=" ">
<polygon fill="white" stroke="#666666" points="427.07,-74 354.07,-74 354.07,-55 427.07,-55 427.07,-74"/>
<text text-anchor="middle" x="390.57" y="-62" font-family="Helvetica,sans-Serif" font-size="10.00">token_type.h</text>
</a>
</g>
</g>
<!-- Node11&#45;&gt;Node12 -->
<g id="edge14" class="edge">
<title>Node11&#45;&gt;Node12</title>
<path fill="none" stroke="#63b8ff" d="M378.97,-164.65C385.58,-156.13 394.77,-142.58 398.57,-129 402.6,-114.57 400.17,-97.71 396.96,-85"/>
<polygon fill="#63b8ff" stroke="#63b8ff" points="400.42,-84.36 394.25,-75.74 393.7,-86.32 400.42,-84.36"/>
</g>
<!-- Node14 -->
<g id="node14" class="node">
<title>Node14</title>
<g id="a_node14"><a xlink:title=" ">
<polygon fill="#e0e0e0" stroke="#999999" points="529.07,-129 446.07,-129 446.07,-110 529.07,-110 529.07,-129"/>
<text text-anchor="middle" x="487.57" y="-117" font-family="Helvetica,sans-Serif" font-size="10.00">uni_algo/conv.h</text>
</a>
</g>
</g>
<!-- Node11&#45;&gt;Node14 -->
<g id="edge17" class="edge">
<title>Node11&#45;&gt;Node14</title>
<path fill="none" stroke="#63b8ff" d="M391.25,-164.51C409.52,-156.16 436.98,-143.61 457.91,-134.05"/>
<polygon fill="#63b8ff" stroke="#63b8ff" points="459.16,-137.33 466.8,-129.99 456.25,-130.96 459.16,-137.33"/>
</g>
<!-- Node15 -->
<g id="node15" class="node">
<title>Node15</title>
<g id="a_node15"><a xlink:href="conversion_8h.html" target="_top" xlink:title=" ">
<polygon fill="white" stroke="#666666" points="389.57,-129 261.57,-129 261.57,-110 389.57,-110 389.57,-129"/>
<text text-anchor="middle" x="325.57" y="-117" font-family="Helvetica,sans-Serif" font-size="10.00">core/helpers/conversion.h</text>
</a>
</g>
</g>
<!-- Node11&#45;&gt;Node15 -->
<g id="edge19" class="edge">
<title>Node11&#45;&gt;Node15</title>
<path fill="none" stroke="#63b8ff" d="M363.97,-164.75C357.68,-157.5 348.55,-146.98 340.77,-138.02"/>
<polygon fill="#63b8ff" stroke="#63b8ff" points="343.52,-135.84 334.32,-130.59 338.23,-140.43 343.52,-135.84"/>
</g>
<!-- Node16 -->
<g id="node16" class="node">
<title>Node16</title>
<g id="a_node16"><a xlink:title=" ">
<polygon fill="#e0e0e0" stroke="#999999" points="587.57,-129 547.57,-129 547.57,-110 587.57,-110 587.57,-129"/>
<text text-anchor="middle" x="567.57" y="-117" font-family="Helvetica,sans-Serif" font-size="10.00">utility</text>
</a>
</g>
</g>
<!-- Node11&#45;&gt;Node16 -->
<g id="edge23" class="edge">
<title>Node11&#45;&gt;Node16</title>
<path fill="none" stroke="#63b8ff" d="M406.18,-164.54C437.75,-156.31 485.97,-143.6 536.49,-129.53"/>
<polygon fill="#63b8ff" stroke="#63b8ff" points="537.16,-132.98 545.85,-126.92 535.27,-126.24 537.16,-132.98"/>
</g>
<!-- Node17 -->
<g id="node17" class="node">
<title>Node17</title>
<g id="a_node17"><a xlink:title=" ">
<polygon fill="#e0e0e0" stroke="#999999" points="655.57,-129 605.57,-129 605.57,-110 655.57,-110 655.57,-129"/>
<text text-anchor="middle" x="630.57" y="-117" font-family="Helvetica,sans-Serif" font-size="10.00">optional</text>
</a>
</g>
</g>
<!-- Node11&#45;&gt;Node17 -->
<g id="edge24" class="edge">
<title>Node11&#45;&gt;Node17</title>
<path fill="none" stroke="#63b8ff" d="M407.35,-166.65C457.2,-157.07 546.09,-139.85 594.3,-129.39"/>
<polygon fill="#63b8ff" stroke="#63b8ff" points="594.86,-132.85 603.87,-127.28 593.35,-126.02 594.86,-132.85"/>
</g>
<!-- Node18 -->
<g id="node18" class="node">
<title>Node18</title>
<g id="a_node18"><a xlink:href="position_8h.html" target="_top" xlink:title=" ">
<polygon fill="white" stroke="#666666" points="733.07,-129 674.07,-129 674.07,-110 733.07,-110 733.07,-129"/>
<text text-anchor="middle" x="703.57" y="-117" font-family="Helvetica,sans-Serif" font-size="10.00">position.h</text>
</a>
</g>
</g>
<!-- Node11&#45;&gt;Node18 -->
<g id="edge25" class="edge">
<title>Node11&#45;&gt;Node18</title>
<path fill="none" stroke="#63b8ff" d="M407.4,-166.59C410.5,-166.03 413.59,-165.5 416.57,-165 522.88,-147.25 553.05,-148.75 662.59,-129.23"/>
<polygon fill="#63b8ff" stroke="#63b8ff" points="663.09,-132.7 672.31,-127.48 661.85,-125.81 663.09,-132.7"/>
</g>
<!-- Node13 -->
<g id="node13" class="node">
<title>Node13</title>
<g id="a_node13"><a xlink:title=" ">
<polygon fill="#e0e0e0" stroke="#999999" points="417.57,-19 363.57,-19 363.57,0 417.57,0 417.57,-19"/>
<text text-anchor="middle" x="390.57" y="-7" font-family="Helvetica,sans-Serif" font-size="10.00">iostream</text>
</a>
</g>
</g>
<!-- Node12&#45;&gt;Node13 -->
<g id="edge15" class="edge">
<title>Node12&#45;&gt;Node13</title>
<path fill="none" stroke="#63b8ff" d="M390.57,-54.75C390.57,-48.27 390.57,-39.16 390.57,-30.9"/>
<polygon fill="#63b8ff" stroke="#63b8ff" points="394.07,-30.96 390.57,-20.96 387.07,-30.96 394.07,-30.96"/>
</g>
<!-- Node15&#45;&gt;Node4 -->
<g id="edge21" class="edge">
<title>Node15&#45;&gt;Node4</title>
<path fill="none" stroke="#63b8ff" d="M306.74,-109.51C289.41,-101.24 263.45,-88.84 243.5,-79.31"/>
<polygon fill="#63b8ff" stroke="#63b8ff" points="245.02,-76.16 234.49,-75.01 242,-82.48 245.02,-76.16"/>
</g>
<!-- Node15&#45;&gt;Node6 -->
<g id="edge20" class="edge">
<title>Node15&#45;&gt;Node6</title>
<path fill="none" stroke="#63b8ff" d="M324.42,-109.66C322.2,-92.5 317.24,-54.26 314.17,-30.6"/>
<polygon fill="#63b8ff" stroke="#63b8ff" points="317.68,-30.43 312.92,-20.96 310.74,-31.33 317.68,-30.43"/>
</g>
<!-- Node15&#45;&gt;Node12 -->
<g id="edge22" class="edge">
<title>Node15&#45;&gt;Node12</title>
<path fill="none" stroke="#63b8ff" d="M336.59,-109.51C345.99,-101.85 359.72,-90.66 370.98,-81.47"/>
<polygon fill="#63b8ff" stroke="#63b8ff" points="372.99,-84.35 378.53,-75.31 368.57,-78.92 372.99,-84.35"/>
</g>
</g>
</svg>
