<?xml version="1.0" encoding="UTF-8" standalone="no"?>
<!DOCTYPE svg PUBLIC "-//W3C//DTD SVG 1.1//EN"
 "http://www.w3.org/Graphics/SVG/1.1/DTD/svg11.dtd">
<!-- Generated by graphviz version 7.1.0 (20230121.1956)
 -->
<!-- Title: Graphical Class Hierarchy Pages: 1 -->
<svg width="444pt" height="508pt"
 viewBox="0.00 0.00 444.00 508.00" xmlns="http://www.w3.org/2000/svg" xmlns:xlink="http://www.w3.org/1999/xlink">
<g id="graph0" class="graph" transform="scale(1 1) rotate(0) translate(4 504)">
<title>Graphical Class Hierarchy</title>
<!-- Node0 -->
<g id="node1" class="node">
<title>Node0</title>
<g id="a_node1"><a xlink:href="structkepler_1_1position.html" target="_top" xlink:title=" ">
<polygon fill="white" stroke="#666666" points="83,-142 0,-142 0,-123 83,-123 83,-142"/>
<text text-anchor="middle" x="41.5" y="-130" font-family="Helvetica,sans-Serif" font-size="10.00">kepler::position</text>
</a>
</g>
</g>
<!-- Node1 -->
<g id="node2" class="node">
<title>Node1</title>
<g id="a_node2"><a xlink:href="structkepler_1_1_a_s_t_node.html" target="_top" xlink:title=" ">
<polygon fill="white" stroke="#666666" points="262,-412.5 119,-412.5 119,-382.5 262,-382.5 262,-412.5"/>
<text text-anchor="start" x="127" y="-400.5" font-family="Helvetica,sans-Serif" font-size="10.00">kepler::ASTNode&lt; Operation</text>
<text text-anchor="middle" x="190.5" y="-389.5" font-family="Helvetica,sans-Serif" font-size="10.00">_ptr &gt;</text>
</a>
</g>
</g>
<!-- Node0&#45;&gt;Node1 -->
<g id="edge1" class="edge">
<title>Node0&#45;&gt;Node1</title>
<path fill="none" stroke="#63b8ff" d="M53.44,-152.23C81.52,-202.84 155.64,-336.47 180.92,-382.03"/>
<polygon fill="#63b8ff" stroke="#63b8ff" points="56.55,-150.62 48.64,-143.57 50.43,-154.01 56.55,-150.62"/>
</g>
<!-- Node7 -->
<g id="node8" class="node">
<title>Node7</title>
<g id="a_node8"><a xlink:href="structkepler_1_1_a_s_t_node.html" target="_top" xlink:title=" ">
<polygon fill="white" stroke="#666666" points="256.5,-185 124.5,-185 124.5,-166 256.5,-166 256.5,-185"/>
<text text-anchor="middle" x="190.5" y="-173" font-family="Helvetica,sans-Serif" font-size="10.00">kepler::ASTNode&lt; Array &gt;</text>
</a>
</g>
</g>
<!-- Node0&#45;&gt;Node7 -->
<g id="edge7" class="edge">
<title>Node0&#45;&gt;Node7</title>
<path fill="none" stroke="#63b8ff" d="M84.19,-145.92C95.46,-149.45 107.67,-153.2 119,-156.5 129.47,-159.55 140.86,-162.7 151.37,-165.53"/>
<polygon fill="#63b8ff" stroke="#63b8ff" points="85.34,-142.61 74.75,-142.94 83.23,-149.29 85.34,-142.61"/>
</g>
<!-- Node17 -->
<g id="node18" class="node">
<title>Node17</title>
<g id="a_node18"><a xlink:href="structkepler_1_1_a_s_t_node.html" target="_top" xlink:title=" ">
<polygon fill="white" stroke="#666666" points="254,-147.5 127,-147.5 127,-117.5 254,-117.5 254,-147.5"/>
<text text-anchor="start" x="135" y="-135.5" font-family="Helvetica,sans-Serif" font-size="10.00">kepler::ASTNode&lt; kepler</text>
<text text-anchor="middle" x="190.5" y="-124.5" font-family="Helvetica,sans-Serif" font-size="10.00">::Array &gt;</text>
</a>
</g>
</g>
<!-- Node0&#45;&gt;Node17 -->
<g id="edge17" class="edge">
<title>Node0&#45;&gt;Node17</title>
<path fill="none" stroke="#63b8ff" d="M94.82,-132.5C105.16,-132.5 116.12,-132.5 126.76,-132.5"/>
<polygon fill="#63b8ff" stroke="#63b8ff" points="94.96,-129 84.96,-132.5 94.96,-136 94.96,-129"/>
</g>
<!-- Node18 -->
<g id="node19" class="node">
<title>Node18</title>
<g id="a_node19"><a xlink:href="structkepler_1_1_a_s_t_node.html" target="_top" xlink:title=" ">
<polygon fill="white" stroke="#666666" points="248.5,-99 132.5,-99 132.5,-80 248.5,-80 248.5,-99"/>
<text text-anchor="middle" x="190.5" y="-87" font-family="Helvetica,sans-Serif" font-size="10.00">kepler::ASTNode&lt; T &gt;</text>
</a>
</g>
</g>
<!-- Node0&#45;&gt;Node18 -->
<g id="edge18" class="edge">
<title>Node0&#45;&gt;Node18</title>
<path fill="none" stroke="#63b8ff" d="M84.19,-119.08C95.46,-115.55 107.67,-111.8 119,-108.5 129.47,-105.45 140.86,-102.3 151.37,-99.47"/>
<polygon fill="#63b8ff" stroke="#63b8ff" points="83.23,-115.71 74.75,-122.06 85.34,-122.39 83.23,-115.71"/>
</g>
<!-- Node19 -->
<g id="node20" class="node">
<title>Node19</title>
<g id="a_node20"><a xlink:href="structkepler_1_1_token.html" target="_top" xlink:title=" ">
<polygon fill="white" stroke="#666666" points="228,-62 153,-62 153,-43 228,-43 228,-62"/>
<text text-anchor="middle" x="190.5" y="-50" font-family="Helvetica,sans-Serif" font-size="10.00">kepler::Token</text>
</a>
</g>
</g>
<!-- Node0&#45;&gt;Node19 -->
<g id="edge19" class="edge">
<title>Node0&#45;&gt;Node19</title>
<path fill="none" stroke="#63b8ff" d="M60.06,-114.98C74.68,-101.31 96.66,-82.8 119,-71.5 129.41,-66.24 141.44,-62.3 152.58,-59.42"/>
<polygon fill="#63b8ff" stroke="#63b8ff" points="57.84,-112.26 53.05,-121.71 62.69,-117.31 57.84,-112.26"/>
</g>
<!-- Node2 -->
<g id="node3" class="node">
<title>Node2</title>
<g id="a_node3"><a xlink:href="structkepler_1_1_anonymous_function.html" target="_top" xlink:title=" ">
<polygon fill="white" stroke="#666666" points="436,-500 298,-500 298,-481 436,-481 436,-500"/>
<text text-anchor="middle" x="367" y="-488" font-family="Helvetica,sans-Serif" font-size="10.00">kepler::AnonymousFunction</text>
</a>
</g>
</g>
<!-- Node1&#45;&gt;Node2 -->
<g id="edge2" class="edge">
<title>Node1&#45;&gt;Node2</title>
<path fill="none" stroke="#63b8ff" d="M217.89,-420.12C238.5,-436.75 268.49,-458.75 298,-472.5 304.75,-475.65 312.15,-478.32 319.5,-480.56"/>
<polygon fill="#63b8ff" stroke="#63b8ff" points="220.23,-417.52 210.29,-413.87 215.79,-422.93 220.23,-417.52"/>
</g>
<!-- Node3 -->
<g id="node4" class="node">
<title>Node3</title>
<g id="a_node4"><a xlink:href="structkepler_1_1_dyadic_operator.html" target="_top" xlink:title=" ">
<polygon fill="white" stroke="#666666" points="425.5,-463 308.5,-463 308.5,-444 425.5,-444 425.5,-463"/>
<text text-anchor="middle" x="367" y="-451" font-family="Helvetica,sans-Serif" font-size="10.00">kepler::DyadicOperator</text>
</a>
</g>
</g>
<!-- Node1&#45;&gt;Node3 -->
<g id="edge3" class="edge">
<title>Node1&#45;&gt;Node3</title>
<path fill="none" stroke="#63b8ff" d="M242.73,-416.76C260.16,-423.05 279.83,-429.87 298,-435.5 307.1,-438.32 316.96,-441.1 326.29,-443.59"/>
<polygon fill="#63b8ff" stroke="#63b8ff" points="244.21,-413.58 233.62,-413.44 241.82,-420.15 244.21,-413.58"/>
</g>
<!-- Node4 -->
<g id="node5" class="node">
<title>Node4</title>
<g id="a_node5"><a xlink:href="structkepler_1_1_function.html" target="_top" xlink:title=" ">
<polygon fill="white" stroke="#666666" points="410,-426 324,-426 324,-407 410,-407 410,-426"/>
<text text-anchor="middle" x="367" y="-414" font-family="Helvetica,sans-Serif" font-size="10.00">kepler::Function</text>
</a>
</g>
</g>
<!-- Node1&#45;&gt;Node4 -->
<g id="edge4" class="edge">
<title>Node1&#45;&gt;Node4</title>
<path fill="none" stroke="#63b8ff" d="M273.76,-406.46C291.03,-408.34 308.57,-410.25 323.65,-411.89"/>
<polygon fill="#63b8ff" stroke="#63b8ff" points="274.3,-402.99 263.98,-405.39 273.54,-409.95 274.3,-402.99"/>
</g>
<!-- Node5 -->
<g id="node6" class="node">
<title>Node5</title>
<g id="a_node6"><a xlink:href="structkepler_1_1_function_variable.html" target="_top" xlink:title=" ">
<polygon fill="white" stroke="#666666" points="427.5,-389 306.5,-389 306.5,-370 427.5,-370 427.5,-389"/>
<text text-anchor="middle" x="367" y="-377" font-family="Helvetica,sans-Serif" font-size="10.00">kepler::FunctionVariable</text>
</a>
</g>
</g>
<!-- Node1&#45;&gt;Node5 -->
<g id="edge5" class="edge">
<title>Node1&#45;&gt;Node5</title>
<path fill="none" stroke="#63b8ff" d="M273.81,-389.01C284.75,-387.88 295.79,-386.74 306.25,-385.66"/>
<polygon fill="#63b8ff" stroke="#63b8ff" points="273.57,-385.52 263.98,-390.02 274.29,-392.48 273.57,-385.52"/>
</g>
<!-- Node6 -->
<g id="node7" class="node">
<title>Node6</title>
<g id="a_node7"><a xlink:href="structkepler_1_1_monadic_operator.html" target="_top" xlink:title=" ">
<polygon fill="white" stroke="#666666" points="428.5,-352 305.5,-352 305.5,-333 428.5,-333 428.5,-352"/>
<text text-anchor="middle" x="367" y="-340" font-family="Helvetica,sans-Serif" font-size="10.00">kepler::MonadicOperator</text>
</a>
</g>
</g>
<!-- Node1&#45;&gt;Node6 -->
<g id="edge6" class="edge">
<title>Node1&#45;&gt;Node6</title>
<path fill="none" stroke="#63b8ff" d="M246.01,-378.45C262.64,-372.8 281.02,-366.74 298,-361.5 307.96,-358.43 318.8,-355.3 328.84,-352.5"/>
<polygon fill="#63b8ff" stroke="#63b8ff" points="245.14,-375.05 236.8,-381.59 247.4,-381.67 245.14,-375.05"/>
</g>
<!-- Node8 -->
<g id="node9" class="node">
<title>Node8</title>
<g id="a_node9"><a xlink:href="structkepler_1_1_assignment.html" target="_top" xlink:title=" ">
<polygon fill="white" stroke="#666666" points="417.5,-315 316.5,-315 316.5,-296 417.5,-296 417.5,-315"/>
<text text-anchor="middle" x="367" y="-303" font-family="Helvetica,sans-Serif" font-size="10.00">kepler::Assignment</text>
</a>
</g>
</g>
<!-- Node7&#45;&gt;Node8 -->
<g id="edge8" class="edge">
<title>Node7&#45;&gt;Node8</title>
<path fill="none" stroke="#63b8ff" d="M204.36,-194.52C222.35,-219.63 257.42,-263.47 298,-287.5 303.57,-290.8 309.75,-293.5 316.04,-295.72"/>
<polygon fill="#63b8ff" stroke="#63b8ff" points="207.39,-192.74 198.8,-186.55 201.65,-196.75 207.39,-192.74"/>
</g>
<!-- Node9 -->
<g id="node10" class="node">
<title>Node9</title>
<g id="a_node10"><a xlink:href="structkepler_1_1_conditional.html" target="_top" xlink:title=" ">
<polygon fill="white" stroke="#666666" points="416,-278 318,-278 318,-259 416,-259 416,-278"/>
<text text-anchor="middle" x="367" y="-266" font-family="Helvetica,sans-Serif" font-size="10.00">kepler::Conditional</text>
</a>
</g>
</g>
<!-- Node7&#45;&gt;Node9 -->
<g id="edge9" class="edge">
<title>Node7&#45;&gt;Node9</title>
<path fill="none" stroke="#63b8ff" d="M211.14,-192.6C231.56,-209.56 265.09,-235.16 298,-250.5 304.75,-253.65 312.15,-256.32 319.5,-258.56"/>
<polygon fill="#63b8ff" stroke="#63b8ff" points="213.53,-190.04 203.64,-186.25 209.01,-195.38 213.53,-190.04"/>
</g>
<!-- Node10 -->
<g id="node11" class="node">
<title>Node10</title>
<g id="a_node11"><a xlink:href="structkepler_1_1_dyadic_function.html" target="_top" xlink:title=" ">
<polygon fill="white" stroke="#666666" points="425.5,-241 308.5,-241 308.5,-222 425.5,-222 425.5,-241"/>
<text text-anchor="middle" x="367" y="-229" font-family="Helvetica,sans-Serif" font-size="10.00">kepler::DyadicFunction</text>
</a>
</g>
</g>
<!-- Node7&#45;&gt;Node10 -->
<g id="edge10" class="edge">
<title>Node7&#45;&gt;Node10</title>
<path fill="none" stroke="#63b8ff" d="M228.27,-189.48C248.67,-197.02 274.59,-206.24 298,-213.5 307.1,-216.32 316.96,-219.1 326.29,-221.59"/>
<polygon fill="#63b8ff" stroke="#63b8ff" points="229.57,-186.23 218.97,-186.02 227.12,-192.79 229.57,-186.23"/>
</g>
<!-- Node11 -->
<g id="node12" class="node">
<title>Node11</title>
<g id="a_node12"><a xlink:href="structkepler_1_1_function_assignment.html" target="_top" xlink:title=" ">
<polygon fill="white" stroke="#666666" points="436,-204 298,-204 298,-185 436,-185 436,-204"/>
<text text-anchor="middle" x="367" y="-192" font-family="Helvetica,sans-Serif" font-size="10.00">kepler::FunctionAssignment</text>
</a>
</g>
</g>
<!-- Node7&#45;&gt;Node11 -->
<g id="edge11" class="edge">
<title>Node7&#45;&gt;Node11</title>
<path fill="none" stroke="#63b8ff" d="M268.29,-183.86C278.03,-184.92 287.94,-186 297.54,-187.05"/>
<polygon fill="#63b8ff" stroke="#63b8ff" points="268.8,-180.4 258.48,-182.79 268.04,-187.35 268.8,-180.4"/>
</g>
<!-- Node12 -->
<g id="node13" class="node">
<title>Node12</title>
<g id="a_node13"><a xlink:href="structkepler_1_1_monadic_function.html" target="_top" xlink:title=" ">
<polygon fill="white" stroke="#666666" points="428.5,-167 305.5,-167 305.5,-148 428.5,-148 428.5,-167"/>
<text text-anchor="middle" x="367" y="-155" font-family="Helvetica,sans-Serif" font-size="10.00">kepler::MonadicFunction</text>
</a>
</g>
</g>
<!-- Node7&#45;&gt;Node12 -->
<g id="edge12" class="edge">
<title>Node7&#45;&gt;Node12</title>
<path fill="none" stroke="#63b8ff" d="M268.2,-167.59C280.53,-166.32 293.16,-165.01 305.06,-163.79"/>
<polygon fill="#63b8ff" stroke="#63b8ff" points="268.07,-164.08 258.48,-168.59 268.79,-171.05 268.07,-164.08"/>
</g>
<!-- Node13 -->
<g id="node14" class="node">
<title>Node13</title>
<g id="a_node14"><a xlink:href="structkepler_1_1_scalar.html" target="_top" xlink:title=" ">
<polygon fill="white" stroke="#666666" points="405.5,-130 328.5,-130 328.5,-111 405.5,-111 405.5,-130"/>
<text text-anchor="middle" x="367" y="-118" font-family="Helvetica,sans-Serif" font-size="10.00">kepler::Scalar</text>
</a>
</g>
</g>
<!-- Node7&#45;&gt;Node13 -->
<g id="edge13" class="edge">
<title>Node7&#45;&gt;Node13</title>
<path fill="none" stroke="#63b8ff" d="M244.14,-162.42C250.21,-160.59 256.27,-158.6 262,-156.5 278.61,-150.4 281.42,-145.68 298,-139.5 307.65,-135.9 318.29,-132.62 328.22,-129.83"/>
<polygon fill="#63b8ff" stroke="#63b8ff" points="243.36,-159.01 234.72,-165.14 245.3,-165.73 243.36,-159.01"/>
</g>
<!-- Node14 -->
<g id="node15" class="node">
<title>Node14</title>
<g id="a_node15"><a xlink:href="structkepler_1_1_statements.html" target="_top" xlink:title=" ">
<polygon fill="white" stroke="#666666" points="416.5,-93 317.5,-93 317.5,-74 416.5,-74 416.5,-93"/>
<text text-anchor="middle" x="367" y="-81" font-family="Helvetica,sans-Serif" font-size="10.00">kepler::Statements</text>
</a>
</g>
</g>
<!-- Node7&#45;&gt;Node14 -->
<g id="edge14" class="edge">
<title>Node7&#45;&gt;Node14</title>
<path fill="none" stroke="#63b8ff" d="M255.16,-160.81C257.54,-159.49 259.83,-158.06 262,-156.5 285.43,-139.67 274.65,-119.44 298,-102.5 303.75,-98.33 310.39,-95.07 317.22,-92.52"/>
<polygon fill="#63b8ff" stroke="#63b8ff" points="253.92,-157.52 246.35,-164.93 256.89,-163.86 253.92,-157.52"/>
</g>
<!-- Node15 -->
<g id="node16" class="node">
<title>Node15</title>
<g id="a_node16"><a xlink:href="structkepler_1_1_variable.html" target="_top" xlink:title=" ">
<polygon fill="white" stroke="#666666" points="408.5,-56 325.5,-56 325.5,-37 408.5,-37 408.5,-56"/>
<text text-anchor="middle" x="367" y="-44" font-family="Helvetica,sans-Serif" font-size="10.00">kepler::Variable</text>
</a>
</g>
</g>
<!-- Node7&#45;&gt;Node15 -->
<g id="edge15" class="edge">
<title>Node7&#45;&gt;Node15</title>
<path fill="none" stroke="#63b8ff" d="M257.49,-160.08C259.06,-158.97 260.57,-157.78 262,-156.5 294.45,-127.54 265.68,-94.61 298,-65.5 305.56,-58.69 315.36,-54.3 325.17,-51.47"/>
<polygon fill="#63b8ff" stroke="#63b8ff" points="256.12,-156.83 249.22,-164.87 259.62,-162.89 256.12,-156.83"/>
</g>
<!-- Node16 -->
<g id="node17" class="node">
<title>Node16</title>
<g id="a_node17"><a xlink:href="structkepler_1_1_vector.html" target="_top" xlink:title=" ">
<polygon fill="white" stroke="#666666" points="405.5,-19 328.5,-19 328.5,0 405.5,0 405.5,-19"/>
<text text-anchor="middle" x="367" y="-7" font-family="Helvetica,sans-Serif" font-size="10.00">kepler::Vector</text>
</a>
</g>
</g>
<!-- Node7&#45;&gt;Node16 -->
<g id="edge16" class="edge">
<title>Node7&#45;&gt;Node16</title>
<path fill="none" stroke="#63b8ff" d="M258.74,-159.43C259.87,-158.5 260.96,-157.53 262,-156.5 304.28,-114.6 255.63,-69.31 298,-27.5 306.08,-19.52 317.27,-14.97 328.23,-12.4"/>
<polygon fill="#63b8ff" stroke="#63b8ff" points="257.08,-156.33 250.61,-164.72 260.9,-162.2 257.08,-156.33"/>
</g>
</g>
</svg>
