<?xml version="1.0" encoding="UTF-8" standalone="no"?>
<!DOCTYPE svg PUBLIC "-//W3C//DTD SVG 1.1//EN"
 "http://www.w3.org/Graphics/SVG/1.1/DTD/svg11.dtd">
<!-- Generated by graphviz version 7.1.0 (20230121.1956)
 -->
<!-- Title: Graphical Class Hierarchy Pages: 1 -->
<svg width="416pt" height="1174pt"
 viewBox="0.00 0.00 416.00 1174.00" xmlns="http://www.w3.org/2000/svg" xmlns:xlink="http://www.w3.org/1999/xlink">
<g id="graph0" class="graph" transform="scale(1 1) rotate(0) translate(4 1170)">
<title>Graphical Class Hierarchy</title>
<!-- Node0 -->
<g id="node1" class="node">
<title>Node0</title>
<g id="a_node1"><a xlink:href="structkepler_1_1_operation.html" target="_top" xlink:title=" ">
<polygon fill="white" stroke="#666666" points="91,-259 0,-259 0,-240 91,-240 91,-259"/>
<text text-anchor="middle" x="45.5" y="-247" font-family="Helvetica,sans-Serif" font-size="10.00">kepler::Operation</text>
</a>
</g>
</g>
<!-- Node1 -->
<g id="node2" class="node">
<title>Node1</title>
<g id="a_node2"><a xlink:href="structkepler_1_1_pervade_mixin.html" target="_top" xlink:title=" ">
<polygon fill="white" stroke="#666666" points="241,-745.5 133,-745.5 133,-715.5 241,-715.5 241,-745.5"/>
<text text-anchor="start" x="141" y="-733.5" font-family="Helvetica,sans-Serif" font-size="10.00">kepler::PervadeMixin</text>
<text text-anchor="middle" x="187" y="-722.5" font-family="Helvetica,sans-Serif" font-size="10.00">&lt; Operation &gt;</text>
</a>
</g>
</g>
<!-- Node0&#45;&gt;Node1 -->
<g id="edge1" class="edge">
<title>Node0&#45;&gt;Node1</title>
<path fill="none" stroke="#63b8ff" d="M52.35,-269.69C75.58,-349.77 160.96,-644.16 181.52,-715.06"/>
<polygon fill="#63b8ff" stroke="#63b8ff" points="55.86,-269.19 49.71,-260.56 49.13,-271.14 55.86,-269.19"/>
</g>
<!-- Node25 -->
<g id="node26" class="node">
<title>Node25</title>
<g id="a_node26"><a xlink:href="structkepler_1_1_arrow_up.html" target="_top" xlink:title=" ">
<polygon fill="white" stroke="#666666" points="230.5,-463 143.5,-463 143.5,-444 230.5,-444 230.5,-463"/>
<text text-anchor="middle" x="187" y="-451" font-family="Helvetica,sans-Serif" font-size="10.00">kepler::ArrowUp</text>
</a>
</g>
</g>
<!-- Node0&#45;&gt;Node25 -->
<g id="edge25" class="edge">
<title>Node0&#45;&gt;Node25</title>
<path fill="none" stroke="#63b8ff" d="M49.7,-270.5C56.66,-308.91 76.79,-390.64 127,-435.5 131.63,-439.64 137.19,-442.83 143.03,-445.28"/>
<polygon fill="#63b8ff" stroke="#63b8ff" points="53.17,-270.03 48.07,-260.75 46.27,-271.19 53.17,-270.03"/>
</g>
<!-- Node26 -->
<g id="node27" class="node">
<title>Node26</title>
<g id="a_node27"><a xlink:href="structkepler_1_1_circle_bar.html" target="_top" xlink:title=" ">
<polygon fill="white" stroke="#666666" points="231.5,-426 142.5,-426 142.5,-407 231.5,-407 231.5,-426"/>
<text text-anchor="middle" x="187" y="-414" font-family="Helvetica,sans-Serif" font-size="10.00">kepler::CircleBar</text>
</a>
</g>
</g>
<!-- Node0&#45;&gt;Node26 -->
<g id="edge26" class="edge">
<title>Node0&#45;&gt;Node26</title>
<path fill="none" stroke="#63b8ff" d="M52.02,-269.87C61.75,-301.96 85.03,-364.16 127,-398.5 131.48,-402.16 136.69,-405.08 142.13,-407.41"/>
<polygon fill="#63b8ff" stroke="#63b8ff" points="55.48,-269.26 49.36,-260.62 48.76,-271.2 55.48,-269.26"/>
</g>
<!-- Node27 -->
<g id="node28" class="node">
<title>Node27</title>
<g id="a_node28"><a xlink:href="structkepler_1_1_circle_stile.html" target="_top" xlink:title=" ">
<polygon fill="white" stroke="#666666" points="234,-389 140,-389 140,-370 234,-370 234,-389"/>
<text text-anchor="middle" x="187" y="-377" font-family="Helvetica,sans-Serif" font-size="10.00">kepler::CircleStile</text>
</a>
</g>
</g>
<!-- Node0&#45;&gt;Node27 -->
<g id="edge27" class="edge">
<title>Node0&#45;&gt;Node27</title>
<path fill="none" stroke="#63b8ff" d="M55.68,-269.38C68.28,-294.49 93.24,-337.31 127,-361.5 131.53,-364.74 136.65,-367.41 141.94,-369.61"/>
<polygon fill="#63b8ff" stroke="#63b8ff" points="58.94,-268.08 51.44,-260.59 52.64,-271.12 58.94,-268.08"/>
</g>
<!-- Node28 -->
<g id="node29" class="node">
<title>Node28</title>
<g id="a_node29"><a xlink:href="structkepler_1_1_comma.html" target="_top" xlink:title=" ">
<polygon fill="white" stroke="#666666" points="228.5,-352 145.5,-352 145.5,-333 228.5,-333 228.5,-352"/>
<text text-anchor="middle" x="187" y="-340" font-family="Helvetica,sans-Serif" font-size="10.00">kepler::Comma</text>
</a>
</g>
</g>
<!-- Node0&#45;&gt;Node28 -->
<g id="edge28" class="edge">
<title>Node0&#45;&gt;Node28</title>
<path fill="none" stroke="#63b8ff" d="M61.67,-267.77C76.65,-284.72 101.03,-309.52 127,-324.5 132.66,-327.76 138.97,-330.49 145.3,-332.76"/>
<polygon fill="#63b8ff" stroke="#63b8ff" points="64.52,-265.72 55.35,-260.42 59.21,-270.29 64.52,-265.72"/>
</g>
<!-- Node29 -->
<g id="node30" class="node">
<title>Node29</title>
<g id="a_node30"><a xlink:href="structkepler_1_1_defined_function.html" target="_top" xlink:title=" ">
<polygon fill="white" stroke="#666666" points="247,-315 127,-315 127,-296 247,-296 247,-315"/>
<text text-anchor="middle" x="187" y="-303" font-family="Helvetica,sans-Serif" font-size="10.00">kepler::DefinedFunction</text>
</a>
</g>
</g>
<!-- Node0&#45;&gt;Node29 -->
<g id="edge29" class="edge">
<title>Node0&#45;&gt;Node29</title>
<path fill="none" stroke="#63b8ff" d="M75.61,-264.49C90.71,-271.95 109.6,-280.78 127,-287.5 134.49,-290.39 142.66,-293.14 150.46,-295.57"/>
<polygon fill="#63b8ff" stroke="#63b8ff" points="77.21,-261.38 66.71,-260.03 74.08,-267.64 77.21,-261.38"/>
</g>
<!-- Node30 -->
<g id="node31" class="node">
<title>Node30</title>
<g id="a_node31"><a xlink:href="structkepler_1_1_dyadic_op.html" target="_top" xlink:title=" ">
<polygon fill="white" stroke="#666666" points="233,-278 141,-278 141,-259 233,-259 233,-278"/>
<text text-anchor="middle" x="187" y="-266" font-family="Helvetica,sans-Serif" font-size="10.00">kepler::DyadicOp</text>
</a>
</g>
</g>
<!-- Node0&#45;&gt;Node30 -->
<g id="edge30" class="edge">
<title>Node0&#45;&gt;Node30</title>
<path fill="none" stroke="#63b8ff" d="M102.77,-257.16C115.38,-258.88 128.6,-260.68 140.7,-262.33"/>
<polygon fill="#63b8ff" stroke="#63b8ff" points="103.29,-253.7 92.91,-255.82 102.34,-260.64 103.29,-253.7"/>
</g>
<!-- Node35 -->
<g id="node36" class="node">
<title>Node35</title>
<g id="a_node36"><a xlink:href="structkepler_1_1_iota.html" target="_top" xlink:title=" ">
<polygon fill="white" stroke="#666666" points="219.5,-241 154.5,-241 154.5,-222 219.5,-222 219.5,-241"/>
<text text-anchor="middle" x="187" y="-229" font-family="Helvetica,sans-Serif" font-size="10.00">kepler::Iota</text>
</a>
</g>
</g>
<!-- Node0&#45;&gt;Node35 -->
<g id="edge35" class="edge">
<title>Node0&#45;&gt;Node35</title>
<path fill="none" stroke="#63b8ff" d="M102.75,-242.24C120.36,-239.97 139.16,-237.54 154.43,-235.57"/>
<polygon fill="#63b8ff" stroke="#63b8ff" points="102.38,-238.76 92.91,-243.51 103.27,-245.7 102.38,-238.76"/>
</g>
<!-- Node36 -->
<g id="node37" class="node">
<title>Node36</title>
<g id="a_node37"><a xlink:href="structkepler_1_1_left_shoe.html" target="_top" xlink:title=" ">
<polygon fill="white" stroke="#666666" points="231,-204 143,-204 143,-185 231,-185 231,-204"/>
<text text-anchor="middle" x="187" y="-192" font-family="Helvetica,sans-Serif" font-size="10.00">kepler::LeftShoe</text>
</a>
</g>
</g>
<!-- Node0&#45;&gt;Node36 -->
<g id="edge36" class="edge">
<title>Node0&#45;&gt;Node36</title>
<path fill="none" stroke="#63b8ff" d="M77.26,-234.8C92.12,-227.94 110.32,-219.89 127,-213.5 135.34,-210.3 144.47,-207.18 153.01,-204.42"/>
<polygon fill="#63b8ff" stroke="#63b8ff" points="76.04,-231.5 68.46,-238.91 79,-237.85 76.04,-231.5"/>
</g>
<!-- Node37 -->
<g id="node38" class="node">
<title>Node37</title>
<g id="a_node38"><a xlink:href="structkepler_1_1_left_tack.html" target="_top" xlink:title=" ">
<polygon fill="white" stroke="#666666" points="230,-167 144,-167 144,-148 230,-148 230,-167"/>
<text text-anchor="middle" x="187" y="-155" font-family="Helvetica,sans-Serif" font-size="10.00">kepler::LeftTack</text>
</a>
</g>
</g>
<!-- Node0&#45;&gt;Node37 -->
<g id="edge37" class="edge">
<title>Node0&#45;&gt;Node37</title>
<path fill="none" stroke="#63b8ff" d="M61.96,-231.21C77,-214.5 101.28,-190.22 127,-175.5 132.48,-172.36 138.57,-169.71 144.7,-167.5"/>
<polygon fill="#63b8ff" stroke="#63b8ff" points="59.56,-228.64 55.6,-238.47 64.83,-233.25 59.56,-228.64"/>
</g>
<!-- Node38 -->
<g id="node39" class="node">
<title>Node38</title>
<g id="a_node39"><a xlink:href="structkepler_1_1_monadic_op.html" target="_top" xlink:title=" ">
<polygon fill="white" stroke="#666666" points="236,-130 138,-130 138,-111 236,-111 236,-130"/>
<text text-anchor="middle" x="187" y="-118" font-family="Helvetica,sans-Serif" font-size="10.00">kepler::MonadicOp</text>
</a>
</g>
</g>
<!-- Node0&#45;&gt;Node38 -->
<g id="edge38" class="edge">
<title>Node0&#45;&gt;Node38</title>
<path fill="none" stroke="#63b8ff" d="M55.92,-229.42C68.62,-204.49 93.56,-162.36 127,-138.5 131.53,-135.27 136.66,-132.6 141.95,-130.41"/>
<polygon fill="#63b8ff" stroke="#63b8ff" points="52.89,-227.66 51.63,-238.18 59.17,-230.74 52.89,-227.66"/>
</g>
<!-- Node43 -->
<g id="node44" class="node">
<title>Node43</title>
<g id="a_node44"><a xlink:href="structkepler_1_1_power.html" target="_top" xlink:title=" ">
<polygon fill="white" stroke="#666666" points="225.5,-93 148.5,-93 148.5,-74 225.5,-74 225.5,-93"/>
<text text-anchor="middle" x="187" y="-81" font-family="Helvetica,sans-Serif" font-size="10.00">kepler::Power</text>
</a>
</g>
</g>
<!-- Node0&#45;&gt;Node43 -->
<g id="edge43" class="edge">
<title>Node0&#45;&gt;Node43</title>
<path fill="none" stroke="#63b8ff" d="M52.2,-228.8C62.07,-196.79 85.4,-135.44 127,-101.5 133.14,-96.49 140.66,-92.87 148.25,-90.26"/>
<polygon fill="#63b8ff" stroke="#63b8ff" points="48.94,-227.48 49.49,-238.06 55.66,-229.45 48.94,-227.48"/>
</g>
<!-- Node44 -->
<g id="node45" class="node">
<title>Node44</title>
<g id="a_node45"><a xlink:href="structkepler_1_1_rho.html" target="_top" xlink:title=" ">
<polygon fill="white" stroke="#666666" points="220.5,-56 153.5,-56 153.5,-37 220.5,-37 220.5,-56"/>
<text text-anchor="middle" x="187" y="-44" font-family="Helvetica,sans-Serif" font-size="10.00">kepler::Rho</text>
</a>
</g>
</g>
<!-- Node0&#45;&gt;Node44 -->
<g id="edge44" class="edge">
<title>Node0&#45;&gt;Node44</title>
<path fill="none" stroke="#63b8ff" d="M49.74,-228.61C56.76,-190.4 76.97,-109.11 127,-64.5 134.27,-58.01 143.83,-53.86 153.13,-51.21"/>
<polygon fill="#63b8ff" stroke="#63b8ff" points="46.31,-227.86 48.09,-238.31 53.21,-229.03 46.31,-227.86"/>
</g>
<!-- Node45 -->
<g id="node46" class="node">
<title>Node45</title>
<g id="a_node46"><a xlink:href="structkepler_1_1_right_tack.html" target="_top" xlink:title=" ">
<polygon fill="white" stroke="#666666" points="233.5,-19 140.5,-19 140.5,0 233.5,0 233.5,-19"/>
<text text-anchor="middle" x="187" y="-7" font-family="Helvetica,sans-Serif" font-size="10.00">kepler::RightTack</text>
</a>
</g>
</g>
<!-- Node0&#45;&gt;Node45 -->
<g id="edge45" class="edge">
<title>Node0&#45;&gt;Node45</title>
<path fill="none" stroke="#63b8ff" d="M48.02,-228.48C52.32,-184.68 68.41,-83.14 127,-27.5 130.81,-23.89 135.32,-21 140.12,-18.69"/>
<polygon fill="#63b8ff" stroke="#63b8ff" points="44.54,-228.11 47.17,-238.37 51.51,-228.7 44.54,-228.11"/>
</g>
<!-- Node2 -->
<g id="node3" class="node">
<title>Node2</title>
<g id="a_node3"><a xlink:href="structkepler_1_1_and.html" target="_top" xlink:title=" ">
<polygon fill="white" stroke="#666666" points="378.5,-1166 312.5,-1166 312.5,-1147 378.5,-1147 378.5,-1166"/>
<text text-anchor="middle" x="345.5" y="-1154" font-family="Helvetica,sans-Serif" font-size="10.00">kepler::And</text>
</a>
</g>
</g>
<!-- Node1&#45;&gt;Node2 -->
<g id="edge2" class="edge">
<title>Node1&#45;&gt;Node2</title>
<path fill="none" stroke="#63b8ff" d="M190.71,-757.13C199.54,-838.6 229.94,-1082.39 283,-1138.5 290.57,-1146.5 301.48,-1151.01 312.02,-1153.52"/>
<polygon fill="#63b8ff" stroke="#63b8ff" points="194.2,-756.78 189.66,-747.21 187.24,-757.52 194.2,-756.78"/>
</g>
<!-- Node3 -->
<g id="node4" class="node">
<title>Node3</title>
<g id="a_node4"><a xlink:href="structkepler_1_1_bar.html" target="_top" xlink:title=" ">
<polygon fill="white" stroke="#666666" points="377.5,-1129 313.5,-1129 313.5,-1110 377.5,-1110 377.5,-1129"/>
<text text-anchor="middle" x="345.5" y="-1117" font-family="Helvetica,sans-Serif" font-size="10.00">kepler::Bar</text>
</a>
</g>
</g>
<!-- Node1&#45;&gt;Node3 -->
<g id="edge3" class="edge">
<title>Node1&#45;&gt;Node3</title>
<path fill="none" stroke="#63b8ff" d="M191.36,-756.95C201.55,-833.2 234.42,-1051.23 283,-1101.5 290.89,-1109.66 302.25,-1114.17 313.07,-1116.65"/>
<polygon fill="#63b8ff" stroke="#63b8ff" points="194.83,-756.55 190.06,-747.09 187.89,-757.46 194.83,-756.55"/>
</g>
<!-- Node4 -->
<g id="node5" class="node">
<title>Node4</title>
<g id="a_node5"><a xlink:href="structkepler_1_1_ceiling.html" target="_top" xlink:title=" ">
<polygon fill="white" stroke="#666666" points="385,-1092 306,-1092 306,-1073 385,-1073 385,-1092"/>
<text text-anchor="middle" x="345.5" y="-1080" font-family="Helvetica,sans-Serif" font-size="10.00">kepler::Ceiling</text>
</a>
</g>
</g>
<!-- Node1&#45;&gt;Node4 -->
<g id="edge4" class="edge">
<title>Node1&#45;&gt;Node4</title>
<path fill="none" stroke="#63b8ff" d="M187.45,-756.81C187.62,-819.3 197.01,-977.85 283,-1064.5 289.11,-1070.66 297.21,-1074.74 305.51,-1077.43"/>
<polygon fill="#63b8ff" stroke="#63b8ff" points="190.94,-757.18 187.51,-747.16 183.94,-757.14 190.94,-757.18"/>
</g>
<!-- Node5 -->
<g id="node6" class="node">
<title>Node5</title>
<g id="a_node6"><a xlink:href="structkepler_1_1_circle.html" target="_top" xlink:title=" ">
<polygon fill="white" stroke="#666666" points="382.5,-1055 308.5,-1055 308.5,-1036 382.5,-1036 382.5,-1055"/>
<text text-anchor="middle" x="345.5" y="-1043" font-family="Helvetica,sans-Serif" font-size="10.00">kepler::Circle</text>
</a>
</g>
</g>
<!-- Node1&#45;&gt;Node5 -->
<g id="edge5" class="edge">
<title>Node1&#45;&gt;Node5</title>
<path fill="none" stroke="#63b8ff" d="M188.57,-757.01C191.27,-814.67 205.92,-952.31 283,-1027.5 289.85,-1034.18 299.04,-1038.4 308.22,-1041.07"/>
<polygon fill="#63b8ff" stroke="#63b8ff" points="192.07,-757.04 188.2,-747.18 185.07,-757.3 192.07,-757.04"/>
</g>
<!-- Node6 -->
<g id="node7" class="node">
<title>Node6</title>
<g id="a_node7"><a xlink:href="structkepler_1_1_divide.html" target="_top" xlink:title=" ">
<polygon fill="white" stroke="#666666" points="384,-1018 307,-1018 307,-999 384,-999 384,-1018"/>
<text text-anchor="middle" x="345.5" y="-1006" font-family="Helvetica,sans-Serif" font-size="10.00">kepler::Divide</text>
</a>
</g>
</g>
<!-- Node1&#45;&gt;Node6 -->
<g id="edge6" class="edge">
<title>Node1&#45;&gt;Node6</title>
<path fill="none" stroke="#63b8ff" d="M190.01,-757.31C195.4,-809.82 214.8,-926.64 283,-990.5 289.58,-996.66 298.15,-1000.72 306.8,-1003.4"/>
<polygon fill="#63b8ff" stroke="#63b8ff" points="193.51,-757.13 189.1,-747.49 186.54,-757.77 193.51,-757.13"/>
</g>
<!-- Node7 -->
<g id="node8" class="node">
<title>Node7</title>
<g id="a_node8"><a xlink:href="structkepler_1_1_eq.html" target="_top" xlink:title=" ">
<polygon fill="white" stroke="#666666" points="376,-981 315,-981 315,-962 376,-962 376,-981"/>
<text text-anchor="middle" x="345.5" y="-969" font-family="Helvetica,sans-Serif" font-size="10.00">kepler::Eq</text>
</a>
</g>
</g>
<!-- Node1&#45;&gt;Node7 -->
<g id="edge7" class="edge">
<title>Node1&#45;&gt;Node7</title>
<path fill="none" stroke="#63b8ff" d="M191.82,-757.06C199.96,-803.73 223.37,-900.52 283,-953.5 291.73,-961.26 303.65,-965.68 314.67,-968.2"/>
<polygon fill="#63b8ff" stroke="#63b8ff" points="195.3,-756.62 190.24,-747.31 188.39,-757.74 195.3,-756.62"/>
</g>
<!-- Node8 -->
<g id="node9" class="node">
<title>Node8</title>
<g id="a_node9"><a xlink:href="structkepler_1_1_exclamation_mark.html" target="_top" xlink:title=" ">
<polygon fill="white" stroke="#666666" points="408,-944 283,-944 283,-925 408,-925 408,-944"/>
<text text-anchor="middle" x="345.5" y="-932" font-family="Helvetica,sans-Serif" font-size="10.00">kepler::ExclamationMark</text>
</a>
</g>
</g>
<!-- Node1&#45;&gt;Node8 -->
<g id="edge8" class="edge">
<title>Node1&#45;&gt;Node8</title>
<path fill="none" stroke="#63b8ff" d="M194.3,-756.92C205.31,-797.31 231.89,-874.18 283,-916.5 286.94,-919.76 291.45,-922.44 296.2,-924.62"/>
<polygon fill="#63b8ff" stroke="#63b8ff" points="197.71,-756.13 191.81,-747.33 190.94,-757.89 197.71,-756.13"/>
</g>
<!-- Node9 -->
<g id="node10" class="node">
<title>Node9</title>
<g id="a_node10"><a xlink:href="structkepler_1_1_floor.html" target="_top" xlink:title=" ">
<polygon fill="white" stroke="#666666" points="381,-907 310,-907 310,-888 381,-888 381,-907"/>
<text text-anchor="middle" x="345.5" y="-895" font-family="Helvetica,sans-Serif" font-size="10.00">kepler::Floor</text>
</a>
</g>
</g>
<!-- Node1&#45;&gt;Node9 -->
<g id="edge9" class="edge">
<title>Node1&#45;&gt;Node9</title>
<path fill="none" stroke="#63b8ff" d="M197.57,-756.02C211.37,-789.35 240.02,-847.23 283,-879.5 290.74,-885.31 300.32,-889.25 309.6,-891.92"/>
<polygon fill="#63b8ff" stroke="#63b8ff" points="200.98,-755.12 194.02,-747.14 194.48,-757.72 200.98,-755.12"/>
</g>
<!-- Node10 -->
<g id="node11" class="node">
<title>Node10</title>
<g id="a_node11"><a xlink:href="structkepler_1_1_greater.html" target="_top" xlink:title=" ">
<polygon fill="white" stroke="#666666" points="386,-870 305,-870 305,-851 386,-851 386,-870"/>
<text text-anchor="middle" x="345.5" y="-858" font-family="Helvetica,sans-Serif" font-size="10.00">kepler::Greater</text>
</a>
</g>
</g>
<!-- Node1&#45;&gt;Node10 -->
<g id="edge10" class="edge">
<title>Node1&#45;&gt;Node10</title>
<path fill="none" stroke="#63b8ff" d="M202.83,-755.33C219.31,-780.84 248.23,-819.92 283,-842.5 289.53,-846.74 297.09,-850.01 304.62,-852.52"/>
<polygon fill="#63b8ff" stroke="#63b8ff" points="205.83,-753.53 197.55,-746.92 199.9,-757.25 205.83,-753.53"/>
</g>
<!-- Node11 -->
<g id="node12" class="node">
<title>Node11</title>
<g id="a_node12"><a xlink:href="structkepler_1_1_greater_eq.html" target="_top" xlink:title=" ">
<polygon fill="white" stroke="#666666" points="392,-833 299,-833 299,-814 392,-814 392,-833"/>
<text text-anchor="middle" x="345.5" y="-821" font-family="Helvetica,sans-Serif" font-size="10.00">kepler::GreaterEq</text>
</a>
</g>
</g>
<!-- Node1&#45;&gt;Node11 -->
<g id="edge11" class="edge">
<title>Node1&#45;&gt;Node11</title>
<path fill="none" stroke="#63b8ff" d="M211.71,-753.5C229.91,-770.03 256.36,-791.75 283,-805.5 289.13,-808.66 295.9,-811.35 302.63,-813.61"/>
<polygon fill="#63b8ff" stroke="#63b8ff" points="214.3,-751.12 204.59,-746.89 209.54,-756.26 214.3,-751.12"/>
</g>
<!-- Node12 -->
<g id="node13" class="node">
<title>Node12</title>
<g id="a_node13"><a xlink:href="structkepler_1_1_less.html" target="_top" xlink:title=" ">
<polygon fill="white" stroke="#666666" points="380.5,-796 310.5,-796 310.5,-777 380.5,-777 380.5,-796"/>
<text text-anchor="middle" x="345.5" y="-784" font-family="Helvetica,sans-Serif" font-size="10.00">kepler::Less</text>
</a>
</g>
</g>
<!-- Node1&#45;&gt;Node12 -->
<g id="edge12" class="edge">
<title>Node1&#45;&gt;Node12</title>
<path fill="none" stroke="#63b8ff" d="M234.51,-750.13C249.83,-756.33 267.04,-762.99 283,-768.5 291.73,-771.51 301.26,-774.47 310.16,-777.08"/>
<polygon fill="#63b8ff" stroke="#63b8ff" points="236.22,-747.05 225.63,-746.51 233.57,-753.53 236.22,-747.05"/>
</g>
<!-- Node13 -->
<g id="node14" class="node">
<title>Node13</title>
<g id="a_node14"><a xlink:href="structkepler_1_1_less_eq.html" target="_top" xlink:title=" ">
<polygon fill="white" stroke="#666666" points="386.5,-759 304.5,-759 304.5,-740 386.5,-740 386.5,-759"/>
<text text-anchor="middle" x="345.5" y="-747" font-family="Helvetica,sans-Serif" font-size="10.00">kepler::LessEq</text>
</a>
</g>
</g>
<!-- Node1&#45;&gt;Node13 -->
<g id="edge13" class="edge">
<title>Node1&#45;&gt;Node13</title>
<path fill="none" stroke="#63b8ff" d="M252.7,-738.36C270.13,-740.47 288.49,-742.7 304.17,-744.6"/>
<polygon fill="#63b8ff" stroke="#63b8ff" points="253.27,-734.9 242.92,-737.17 252.43,-741.85 253.27,-734.9"/>
</g>
<!-- Node14 -->
<g id="node15" class="node">
<title>Node14</title>
<g id="a_node15"><a xlink:href="structkepler_1_1_log.html" target="_top" xlink:title=" ">
<polygon fill="white" stroke="#666666" points="378,-722 313,-722 313,-703 378,-703 378,-722"/>
<text text-anchor="middle" x="345.5" y="-710" font-family="Helvetica,sans-Serif" font-size="10.00">kepler::Log</text>
</a>
</g>
</g>
<!-- Node1&#45;&gt;Node14 -->
<g id="edge14" class="edge">
<title>Node1&#45;&gt;Node14</title>
<path fill="none" stroke="#63b8ff" d="M252.76,-723.05C273.47,-720.67 295.48,-718.14 312.75,-716.15"/>
<polygon fill="#63b8ff" stroke="#63b8ff" points="252.46,-719.56 242.92,-724.18 253.26,-726.52 252.46,-719.56"/>
</g>
<!-- Node15 -->
<g id="node16" class="node">
<title>Node15</title>
<g id="a_node16"><a xlink:href="structkepler_1_1_minus.html" target="_top" xlink:title=" ">
<polygon fill="white" stroke="#666666" points="383,-685 308,-685 308,-666 383,-666 383,-685"/>
<text text-anchor="middle" x="345.5" y="-673" font-family="Helvetica,sans-Serif" font-size="10.00">kepler::Minus</text>
</a>
</g>
</g>
<!-- Node1&#45;&gt;Node15 -->
<g id="edge15" class="edge">
<title>Node1&#45;&gt;Node15</title>
<path fill="none" stroke="#63b8ff" d="M237.43,-711.1C252.03,-705.55 268.1,-699.62 283,-694.5 291.98,-691.41 301.78,-688.28 310.86,-685.48"/>
<polygon fill="#63b8ff" stroke="#63b8ff" points="236.59,-707.67 228.5,-714.52 239.09,-714.21 236.59,-707.67"/>
</g>
<!-- Node16 -->
<g id="node17" class="node">
<title>Node16</title>
<g id="a_node17"><a xlink:href="structkepler_1_1_nand.html" target="_top" xlink:title=" ">
<polygon fill="white" stroke="#666666" points="381.5,-648 309.5,-648 309.5,-629 381.5,-629 381.5,-648"/>
<text text-anchor="middle" x="345.5" y="-636" font-family="Helvetica,sans-Serif" font-size="10.00">kepler::Nand</text>
</a>
</g>
</g>
<!-- Node1&#45;&gt;Node16 -->
<g id="edge16" class="edge">
<title>Node1&#45;&gt;Node16</title>
<path fill="none" stroke="#63b8ff" d="M212.54,-707.68C230.8,-691.73 256.96,-670.97 283,-657.5 291.14,-653.29 300.37,-649.83 309.17,-647.07"/>
<polygon fill="#63b8ff" stroke="#63b8ff" points="210.52,-704.79 205.38,-714.06 215.18,-710.02 210.52,-704.79"/>
</g>
<!-- Node17 -->
<g id="node18" class="node">
<title>Node17</title>
<g id="a_node18"><a xlink:href="structkepler_1_1_neq.html" target="_top" xlink:title=" ">
<polygon fill="white" stroke="#666666" points="379,-611 312,-611 312,-592 379,-592 379,-611"/>
<text text-anchor="middle" x="345.5" y="-599" font-family="Helvetica,sans-Serif" font-size="10.00">kepler::Neq</text>
</a>
</g>
</g>
<!-- Node1&#45;&gt;Node17 -->
<g id="edge17" class="edge">
<title>Node1&#45;&gt;Node17</title>
<path fill="none" stroke="#63b8ff" d="M203.27,-705.82C219.93,-680.84 248.84,-642.83 283,-620.5 291.61,-614.87 301.97,-610.84 311.71,-607.98"/>
<polygon fill="#63b8ff" stroke="#63b8ff" points="200.43,-703.76 197.92,-714.05 206.3,-707.57 200.43,-703.76"/>
</g>
<!-- Node18 -->
<g id="node19" class="node">
<title>Node18</title>
<g id="a_node19"><a xlink:href="structkepler_1_1_nor.html" target="_top" xlink:title=" ">
<polygon fill="white" stroke="#666666" points="378,-574 313,-574 313,-555 378,-555 378,-574"/>
<text text-anchor="middle" x="345.5" y="-562" font-family="Helvetica,sans-Serif" font-size="10.00">kepler::Nor</text>
</a>
</g>
</g>
<!-- Node1&#45;&gt;Node18 -->
<g id="edge18" class="edge">
<title>Node1&#45;&gt;Node18</title>
<path fill="none" stroke="#63b8ff" d="M198.14,-704.48C212.27,-671.57 240.97,-615.34 283,-583.5 291.64,-576.95 302.56,-572.64 312.8,-569.81"/>
<polygon fill="#63b8ff" stroke="#63b8ff" points="194.92,-703.1 194.33,-713.68 201.39,-705.78 194.92,-703.1"/>
</g>
<!-- Node19 -->
<g id="node20" class="node">
<title>Node19</title>
<g id="a_node20"><a xlink:href="structkepler_1_1_not.html" target="_top" xlink:title=" ">
<polygon fill="white" stroke="#666666" points="378,-537 313,-537 313,-518 378,-518 378,-537"/>
<text text-anchor="middle" x="345.5" y="-525" font-family="Helvetica,sans-Serif" font-size="10.00">kepler::Not</text>
</a>
</g>
</g>
<!-- Node1&#45;&gt;Node19 -->
<g id="edge19" class="edge">
<title>Node1&#45;&gt;Node19</title>
<path fill="none" stroke="#63b8ff" d="M194.55,-704.15C205.82,-664.23 232.67,-588.62 283,-546.5 291.4,-539.47 302.38,-535.04 312.73,-532.25"/>
<polygon fill="#63b8ff" stroke="#63b8ff" points="191.21,-703.07 191.99,-713.63 197.97,-704.89 191.21,-703.07"/>
</g>
<!-- Node20 -->
<g id="node21" class="node">
<title>Node20</title>
<g id="a_node21"><a xlink:href="structkepler_1_1_or.html" target="_top" xlink:title=" ">
<polygon fill="white" stroke="#666666" points="375,-500 316,-500 316,-481 375,-481 375,-500"/>
<text text-anchor="middle" x="345.5" y="-488" font-family="Helvetica,sans-Serif" font-size="10.00">kepler::Or</text>
</a>
</g>
</g>
<!-- Node1&#45;&gt;Node20 -->
<g id="edge20" class="edge">
<title>Node1&#45;&gt;Node20</title>
<path fill="none" stroke="#63b8ff" d="M192.04,-703.93C200.47,-657.68 224.27,-562.3 283,-509.5 291.98,-501.43 304.32,-496.79 315.6,-494.12"/>
<polygon fill="#63b8ff" stroke="#63b8ff" points="188.62,-703.15 190.39,-713.59 195.52,-704.32 188.62,-703.15"/>
</g>
<!-- Node21 -->
<g id="node22" class="node">
<title>Node21</title>
<g id="a_node22"><a xlink:href="structkepler_1_1_plus.html" target="_top" xlink:title=" ">
<polygon fill="white" stroke="#666666" points="379.5,-463 311.5,-463 311.5,-444 379.5,-444 379.5,-463"/>
<text text-anchor="middle" x="345.5" y="-451" font-family="Helvetica,sans-Serif" font-size="10.00">kepler::Plus</text>
</a>
</g>
</g>
<!-- Node1&#45;&gt;Node21 -->
<g id="edge21" class="edge">
<title>Node1&#45;&gt;Node21</title>
<path fill="none" stroke="#63b8ff" d="M190.16,-703.98C195.81,-652.02 215.66,-536.35 283,-472.5 290.7,-465.2 301.16,-460.7 311.26,-457.92"/>
<polygon fill="#63b8ff" stroke="#63b8ff" points="186.7,-703.38 189.2,-713.68 193.67,-704.07 186.7,-703.38"/>
</g>
<!-- Node22 -->
<g id="node23" class="node">
<title>Node22</title>
<g id="a_node23"><a xlink:href="structkepler_1_1_roll.html" target="_top" xlink:title=" ">
<polygon fill="white" stroke="#666666" points="378.5,-426 312.5,-426 312.5,-407 378.5,-407 378.5,-426"/>
<text text-anchor="middle" x="345.5" y="-414" font-family="Helvetica,sans-Serif" font-size="10.00">kepler::Roll</text>
</a>
</g>
</g>
<!-- Node1&#45;&gt;Node22 -->
<g id="edge22" class="edge">
<title>Node1&#45;&gt;Node22</title>
<path fill="none" stroke="#63b8ff" d="M188.73,-703.85C191.77,-646.5 207.05,-510.55 283,-435.5 290.79,-427.8 301.63,-423.21 312.04,-420.48"/>
<polygon fill="#63b8ff" stroke="#63b8ff" points="185.24,-703.49 188.31,-713.63 192.24,-703.79 185.24,-703.49"/>
</g>
<!-- Node23 -->
<g id="node24" class="node">
<title>Node23</title>
<g id="a_node24"><a xlink:href="structkepler_1_1_star.html" target="_top" xlink:title=" ">
<polygon fill="white" stroke="#666666" points="379,-389 312,-389 312,-370 379,-370 379,-389"/>
<text text-anchor="middle" x="345.5" y="-377" font-family="Helvetica,sans-Serif" font-size="10.00">kepler::Star</text>
</a>
</g>
</g>
<!-- Node1&#45;&gt;Node23 -->
<g id="edge23" class="edge">
<title>Node1&#45;&gt;Node23</title>
<path fill="none" stroke="#63b8ff" d="M194.01,-704.18C211.24,-629.63 261,-420.97 283,-398.5 290.58,-390.76 301.25,-386.15 311.57,-383.42"/>
<polygon fill="#63b8ff" stroke="#63b8ff" points="190.62,-703.32 191.78,-713.85 197.44,-704.89 190.62,-703.32"/>
</g>
<!-- Node24 -->
<g id="node25" class="node">
<title>Node24</title>
<g id="a_node25"><a xlink:href="structkepler_1_1_times.html" target="_top" xlink:title=" ">
<polygon fill="white" stroke="#666666" points="383.5,-352 307.5,-352 307.5,-333 383.5,-333 383.5,-352"/>
<text text-anchor="middle" x="345.5" y="-340" font-family="Helvetica,sans-Serif" font-size="10.00">kepler::Times</text>
</a>
</g>
</g>
<!-- Node1&#45;&gt;Node24 -->
<g id="edge24" class="edge">
<title>Node1&#45;&gt;Node24</title>
<path fill="none" stroke="#63b8ff" d="M194.04,-704.17C213,-621.88 270.83,-374.26 283,-361.5 289.48,-354.71 298.33,-350.33 307.29,-347.5"/>
<polygon fill="#63b8ff" stroke="#63b8ff" points="190.65,-703.27 191.82,-713.8 197.47,-704.84 190.65,-703.27"/>
</g>
<!-- Node31 -->
<g id="node32" class="node">
<title>Node31</title>
<g id="a_node32"><a xlink:href="structkepler_1_1_atop.html" target="_top" xlink:title=" ">
<polygon fill="white" stroke="#666666" points="380,-315 311,-315 311,-296 380,-296 380,-315"/>
<text text-anchor="middle" x="345.5" y="-303" font-family="Helvetica,sans-Serif" font-size="10.00">kepler::Atop</text>
</a>
</g>
</g>
<!-- Node30&#45;&gt;Node31 -->
<g id="edge31" class="edge">
<title>Node30&#45;&gt;Node31</title>
<path fill="none" stroke="#63b8ff" d="M240.94,-281.02C263.97,-286.46 290.28,-292.68 310.61,-297.49"/>
<polygon fill="#63b8ff" stroke="#63b8ff" points="241.95,-277.66 231.41,-278.76 240.34,-284.47 241.95,-277.66"/>
</g>
<!-- Node32 -->
<g id="node33" class="node">
<title>Node32</title>
<g id="a_node33"><a xlink:href="structkepler_1_1_inner_product.html" target="_top" xlink:title=" ">
<polygon fill="white" stroke="#666666" points="397.5,-278 293.5,-278 293.5,-259 397.5,-259 397.5,-278"/>
<text text-anchor="middle" x="345.5" y="-266" font-family="Helvetica,sans-Serif" font-size="10.00">kepler::InnerProduct</text>
</a>
</g>
</g>
<!-- Node30&#45;&gt;Node32 -->
<g id="edge32" class="edge">
<title>Node30&#45;&gt;Node32</title>
<path fill="none" stroke="#63b8ff" d="M244.53,-268.5C260.36,-268.5 277.48,-268.5 293,-268.5"/>
<polygon fill="#63b8ff" stroke="#63b8ff" points="244.78,-265 234.78,-268.5 244.78,-272 244.78,-265"/>
</g>
<!-- Node33 -->
<g id="node34" class="node">
<title>Node33</title>
<g id="a_node34"><a xlink:href="structkepler_1_1_jot.html" target="_top" xlink:title=" ">
<polygon fill="white" stroke="#666666" points="376.5,-241 314.5,-241 314.5,-222 376.5,-222 376.5,-241"/>
<text text-anchor="middle" x="345.5" y="-229" font-family="Helvetica,sans-Serif" font-size="10.00">kepler::Jot</text>
</a>
</g>
</g>
<!-- Node30&#45;&gt;Node33 -->
<g id="edge33" class="edge">
<title>Node30&#45;&gt;Node33</title>
<path fill="none" stroke="#63b8ff" d="M240.89,-256C265.37,-250.21 293.57,-243.54 314.36,-238.63"/>
<polygon fill="#63b8ff" stroke="#63b8ff" points="240.34,-252.53 231.41,-258.24 241.95,-259.34 240.34,-252.53"/>
</g>
<!-- Node34 -->
<g id="node35" class="node">
<title>Node34</title>
<g id="a_node35"><a xlink:href="structkepler_1_1_over.html" target="_top" xlink:title=" ">
<polygon fill="white" stroke="#666666" points="380.5,-204 310.5,-204 310.5,-185 380.5,-185 380.5,-204"/>
<text text-anchor="middle" x="345.5" y="-192" font-family="Helvetica,sans-Serif" font-size="10.00">kepler::Over</text>
</a>
</g>
</g>
<!-- Node30&#45;&gt;Node34 -->
<g id="edge34" class="edge">
<title>Node30&#45;&gt;Node34</title>
<path fill="none" stroke="#63b8ff" d="M240.65,-253.99C242.84,-252.9 244.96,-251.74 247,-250.5 266.59,-238.55 263.43,-225.48 283,-213.5 291.2,-208.48 300.83,-204.69 310,-201.87"/>
<polygon fill="#63b8ff" stroke="#63b8ff" points="239.27,-250.77 231.47,-257.94 242.04,-257.2 239.27,-250.77"/>
</g>
<!-- Node39 -->
<g id="node40" class="node">
<title>Node39</title>
<g id="a_node40"><a xlink:href="structkepler_1_1_commute.html" target="_top" xlink:title=" ">
<polygon fill="white" stroke="#666666" points="391.5,-167 299.5,-167 299.5,-148 391.5,-148 391.5,-167"/>
<text text-anchor="middle" x="345.5" y="-155" font-family="Helvetica,sans-Serif" font-size="10.00">kepler::Commute</text>
</a>
</g>
</g>
<!-- Node38&#45;&gt;Node39 -->
<g id="edge39" class="edge">
<title>Node38&#45;&gt;Node39</title>
<path fill="none" stroke="#63b8ff" d="M241.08,-133.05C261.1,-137.78 283.57,-143.1 302.45,-147.56"/>
<polygon fill="#63b8ff" stroke="#63b8ff" points="241.95,-129.66 231.41,-130.76 240.34,-136.47 241.95,-129.66"/>
</g>
<!-- Node40 -->
<g id="node41" class="node">
<title>Node40</title>
<g id="a_node41"><a xlink:href="structkepler_1_1_diaeresis.html" target="_top" xlink:title=" ">
<polygon fill="white" stroke="#666666" points="390.5,-130 300.5,-130 300.5,-111 390.5,-111 390.5,-130"/>
<text text-anchor="middle" x="345.5" y="-118" font-family="Helvetica,sans-Serif" font-size="10.00">kepler::Diaeresis</text>
</a>
</g>
</g>
<!-- Node38&#45;&gt;Node40 -->
<g id="edge40" class="edge">
<title>Node38&#45;&gt;Node40</title>
<path fill="none" stroke="#63b8ff" d="M247.49,-120.5C264.98,-120.5 283.79,-120.5 300.16,-120.5"/>
<polygon fill="#63b8ff" stroke="#63b8ff" points="247.75,-117 237.75,-120.5 247.75,-124 247.75,-117"/>
</g>
<!-- Node41 -->
<g id="node42" class="node">
<title>Node41</title>
<g id="a_node42"><a xlink:href="structkepler_1_1_outer_product.html" target="_top" xlink:title=" ">
<polygon fill="white" stroke="#666666" points="399,-93 292,-93 292,-74 399,-74 399,-93"/>
<text text-anchor="middle" x="345.5" y="-81" font-family="Helvetica,sans-Serif" font-size="10.00">kepler::OuterProduct</text>
</a>
</g>
</g>
<!-- Node38&#45;&gt;Node41 -->
<g id="edge41" class="edge">
<title>Node38&#45;&gt;Node41</title>
<path fill="none" stroke="#63b8ff" d="M241.08,-107.95C261.1,-103.22 283.57,-97.9 302.45,-93.44"/>
<polygon fill="#63b8ff" stroke="#63b8ff" points="240.34,-104.53 231.41,-110.24 241.95,-111.34 240.34,-104.53"/>
</g>
<!-- Node42 -->
<g id="node43" class="node">
<title>Node42</title>
<g id="a_node43"><a xlink:href="structkepler_1_1_slash.html" target="_top" xlink:title=" ">
<polygon fill="white" stroke="#666666" points="382.5,-56 308.5,-56 308.5,-37 382.5,-37 382.5,-56"/>
<text text-anchor="middle" x="345.5" y="-44" font-family="Helvetica,sans-Serif" font-size="10.00">kepler::Slash</text>
</a>
</g>
</g>
<!-- Node38&#45;&gt;Node42 -->
<g id="edge42" class="edge">
<title>Node38&#45;&gt;Node42</title>
<path fill="none" stroke="#63b8ff" d="M238.35,-106.2C241.35,-104.77 244.26,-103.2 247,-101.5 266.5,-89.4 263.34,-76.33 283,-64.5 290.62,-59.91 299.49,-56.43 308.08,-53.82"/>
<polygon fill="#63b8ff" stroke="#63b8ff" points="237.16,-102.9 229.3,-110.01 239.88,-109.35 237.16,-102.9"/>
</g>
</g>
</svg>
