<?xml version="1.0" encoding="UTF-8" standalone="no"?>
<!DOCTYPE svg PUBLIC "-//W3C//DTD SVG 1.1//EN"
 "http://www.w3.org/Graphics/SVG/1.1/DTD/svg11.dtd">
<!-- Generated by graphviz version 7.1.0 (20230121.1956)
 -->
<!-- Title: Graphical Class Hierarchy Pages: 1 -->
<svg width="226pt" height="101pt"
 viewBox="0.00 0.00 226.00 101.00" xmlns="http://www.w3.org/2000/svg" xmlns:xlink="http://www.w3.org/1999/xlink">
<g id="graph0" class="graph" transform="scale(1 1) rotate(0) translate(4 97)">
<title>Graphical Class Hierarchy</title>
<!-- Node0 -->
<g id="node1" class="node">
<title>Node0</title>
<g id="a_node1"><a xlink:title=" ">
<polygon fill="#e0e0e0" stroke="#999999" points="131,-61.5 0,-61.5 0,-31.5 131,-31.5 131,-61.5"/>
<text text-anchor="start" x="8" y="-49.5" font-family="Helvetica,sans-Serif" font-size="10.00">Catch::Matchers::Matcher</text>
<text text-anchor="middle" x="65.5" y="-38.5" font-family="Helvetica,sans-Serif" font-size="10.00">GenericBase</text>
</a>
</g>
</g>
<!-- Node1 -->
<g id="node2" class="node">
<title>Node1</title>
<g id="a_node2"><a xlink:href="struct_outputs.html" target="_top" xlink:title=" ">
<polygon fill="white" stroke="#666666" points="218,-93 167,-93 167,-74 218,-74 218,-93"/>
<text text-anchor="middle" x="192.5" y="-81" font-family="Helvetica,sans-Serif" font-size="10.00">Outputs</text>
</a>
</g>
</g>
<!-- Node0&#45;&gt;Node1 -->
<g id="edge1" class="edge">
<title>Node0&#45;&gt;Node1</title>
<path fill="none" stroke="#63b8ff" d="M129.77,-65.23C142.88,-69.11 155.96,-72.98 166.67,-76.15"/>
<polygon fill="#63b8ff" stroke="#63b8ff" points="130.82,-61.89 120.24,-62.41 128.83,-68.6 130.82,-61.89"/>
</g>
<!-- Node2 -->
<g id="node3" class="node">
<title>Node2</title>
<g id="a_node3"><a xlink:href="struct_prints.html" target="_top" xlink:title=" ">
<polygon fill="white" stroke="#666666" points="213.5,-56 171.5,-56 171.5,-37 213.5,-37 213.5,-56"/>
<text text-anchor="middle" x="192.5" y="-44" font-family="Helvetica,sans-Serif" font-size="10.00">Prints</text>
</a>
</g>
</g>
<!-- Node0&#45;&gt;Node2 -->
<g id="edge2" class="edge">
<title>Node0&#45;&gt;Node2</title>
<path fill="none" stroke="#63b8ff" d="M142.69,-46.5C153.14,-46.5 163.05,-46.5 171.18,-46.5"/>
<polygon fill="#63b8ff" stroke="#63b8ff" points="142.71,-43 132.71,-46.5 142.71,-50 142.71,-43"/>
</g>
<!-- Node3 -->
<g id="node4" class="node">
<title>Node3</title>
<g id="a_node4"><a xlink:href="struct_throws.html" target="_top" xlink:title=" ">
<polygon fill="white" stroke="#666666" points="217,-19 168,-19 168,0 217,0 217,-19"/>
<text text-anchor="middle" x="192.5" y="-7" font-family="Helvetica,sans-Serif" font-size="10.00">Throws</text>
</a>
</g>
</g>
<!-- Node0&#45;&gt;Node3 -->
<g id="edge3" class="edge">
<title>Node0&#45;&gt;Node3</title>
<path fill="none" stroke="#63b8ff" d="M129.63,-27.81C143.2,-23.8 156.73,-19.79 167.66,-16.56"/>
<polygon fill="#63b8ff" stroke="#63b8ff" points="128.83,-24.4 120.24,-30.59 130.82,-31.11 128.83,-24.4"/>
</g>
</g>
</svg>
