<?xml version="1.0" encoding="UTF-8" standalone="no"?>
<!DOCTYPE svg PUBLIC "-//W3C//DTD SVG 1.1//EN"
 "http://www.w3.org/Graphics/SVG/1.1/DTD/svg11.dtd">
<!-- Generated by graphviz version 7.1.0 (20230121.1956)
 -->
<!-- Title: Graphical Class Hierarchy Pages: 1 -->
<svg width="445pt" height="508pt"
 viewBox="0.00 0.00 445.00 508.00" xmlns="http://www.w3.org/2000/svg" xmlns:xlink="http://www.w3.org/1999/xlink">
<g id="graph0" class="graph" transform="scale(1 1) rotate(0) translate(4 504)">
<title>Graphical Class Hierarchy</title>
<!-- Node0 -->
<g id="node1" class="node">
<title>Node0</title>
<g id="a_node1"><a xlink:href="structkepler_1_1_position.html" target="_top" xlink:title=" ">
<polygon fill="white" stroke="#666666" points="84,-142 0,-142 0,-123 84,-123 84,-142"/>
<text text-anchor="middle" x="42" y="-130" font-family="Helvetica,sans-Serif" font-size="10.00">kepler::Position</text>
</a>
</g>
</g>
<!-- Node1 -->
<g id="node2" class="node">
<title>Node1</title>
<g id="a_node2"><a xlink:href="structkepler_1_1_a_s_t_node.html" target="_top" xlink:title=" ">
<polygon fill="white" stroke="#666666" points="263,-412.5 120,-412.5 120,-382.5 263,-382.5 263,-412.5"/>
<text text-anchor="start" x="128" y="-400.5" font-family="Helvetica,sans-Serif" font-size="10.00">kepler::ASTNode&lt; Operation</text>
<text text-anchor="middle" x="191.5" y="-389.5" font-family="Helvetica,sans-Serif" font-size="10.00">_ptr &gt;</text>
</a>
</g>
</g>
<!-- Node0&#45;&gt;Node1 -->
<g id="edge1" class="edge">
<title>Node0&#45;&gt;Node1</title>
<path fill="none" stroke="#63b8ff" d="M53.98,-152.23C82.15,-202.84 156.53,-336.47 181.89,-382.03"/>
<polygon fill="#63b8ff" stroke="#63b8ff" points="57.08,-150.6 49.16,-143.57 50.97,-154.01 57.08,-150.6"/>
</g>
<!-- Node7 -->
<g id="node8" class="node">
<title>Node7</title>
<g id="a_node8"><a xlink:href="structkepler_1_1_a_s_t_node.html" target="_top" xlink:title=" ">
<polygon fill="white" stroke="#666666" points="257.5,-185 125.5,-185 125.5,-166 257.5,-166 257.5,-185"/>
<text text-anchor="middle" x="191.5" y="-173" font-family="Helvetica,sans-Serif" font-size="10.00">kepler::ASTNode&lt; Array &gt;</text>
</a>
</g>
</g>
<!-- Node0&#45;&gt;Node7 -->
<g id="edge7" class="edge">
<title>Node0&#45;&gt;Node7</title>
<path fill="none" stroke="#63b8ff" d="M84.97,-145.91C96.31,-149.44 108.6,-153.19 120,-156.5 130.47,-159.54 141.86,-162.68 152.37,-165.52"/>
<polygon fill="#63b8ff" stroke="#63b8ff" points="86.05,-142.58 75.46,-142.92 83.95,-149.25 86.05,-142.58"/>
</g>
<!-- Node17 -->
<g id="node18" class="node">
<title>Node17</title>
<g id="a_node18"><a xlink:href="structkepler_1_1_a_s_t_node.html" target="_top" xlink:title=" ">
<polygon fill="white" stroke="#666666" points="255,-147.5 128,-147.5 128,-117.5 255,-117.5 255,-147.5"/>
<text text-anchor="start" x="136" y="-135.5" font-family="Helvetica,sans-Serif" font-size="10.00">kepler::ASTNode&lt; kepler</text>
<text text-anchor="middle" x="191.5" y="-124.5" font-family="Helvetica,sans-Serif" font-size="10.00">::Array &gt;</text>
</a>
</g>
</g>
<!-- Node0&#45;&gt;Node17 -->
<g id="edge17" class="edge">
<title>Node0&#45;&gt;Node17</title>
<path fill="none" stroke="#63b8ff" d="M95.8,-132.5C106.1,-132.5 116.98,-132.5 127.57,-132.5"/>
<polygon fill="#63b8ff" stroke="#63b8ff" points="95.99,-129 85.99,-132.5 95.99,-136 95.99,-129"/>
</g>
<!-- Node18 -->
<g id="node19" class="node">
<title>Node18</title>
<g id="a_node19"><a xlink:href="structkepler_1_1_a_s_t_node.html" target="_top" xlink:title=" ">
<polygon fill="white" stroke="#666666" points="249.5,-99 133.5,-99 133.5,-80 249.5,-80 249.5,-99"/>
<text text-anchor="middle" x="191.5" y="-87" font-family="Helvetica,sans-Serif" font-size="10.00">kepler::ASTNode&lt; T &gt;</text>
</a>
</g>
</g>
<!-- Node0&#45;&gt;Node18 -->
<g id="edge18" class="edge">
<title>Node0&#45;&gt;Node18</title>
<path fill="none" stroke="#63b8ff" d="M84.97,-119.09C96.31,-115.56 108.6,-111.81 120,-108.5 130.47,-105.46 141.86,-102.32 152.37,-99.48"/>
<polygon fill="#63b8ff" stroke="#63b8ff" points="83.95,-115.75 75.46,-122.08 86.05,-122.42 83.95,-115.75"/>
</g>
<!-- Node19 -->
<g id="node20" class="node">
<title>Node19</title>
<g id="a_node20"><a xlink:href="structkepler_1_1_token.html" target="_top" xlink:title=" ">
<polygon fill="white" stroke="#666666" points="229,-62 154,-62 154,-43 229,-43 229,-62"/>
<text text-anchor="middle" x="191.5" y="-50" font-family="Helvetica,sans-Serif" font-size="10.00">kepler::Token</text>
</a>
</g>
</g>
<!-- Node0&#45;&gt;Node19 -->
<g id="edge19" class="edge">
<title>Node0&#45;&gt;Node19</title>
<path fill="none" stroke="#63b8ff" d="M60.69,-114.99C75.42,-101.32 97.55,-82.81 120,-71.5 130.42,-66.25 142.45,-62.32 153.59,-59.44"/>
<polygon fill="#63b8ff" stroke="#63b8ff" points="58.45,-112.29 53.63,-121.72 63.28,-117.35 58.45,-112.29"/>
</g>
<!-- Node2 -->
<g id="node3" class="node">
<title>Node2</title>
<g id="a_node3"><a xlink:href="structkepler_1_1_anonymous_function.html" target="_top" xlink:title=" ">
<polygon fill="white" stroke="#666666" points="437,-500 299,-500 299,-481 437,-481 437,-500"/>
<text text-anchor="middle" x="368" y="-488" font-family="Helvetica,sans-Serif" font-size="10.00">kepler::AnonymousFunction</text>
</a>
</g>
</g>
<!-- Node1&#45;&gt;Node2 -->
<g id="edge2" class="edge">
<title>Node1&#45;&gt;Node2</title>
<path fill="none" stroke="#63b8ff" d="M218.89,-420.12C239.5,-436.75 269.49,-458.75 299,-472.5 305.75,-475.65 313.15,-478.32 320.5,-480.56"/>
<polygon fill="#63b8ff" stroke="#63b8ff" points="221.23,-417.52 211.29,-413.87 216.79,-422.93 221.23,-417.52"/>
</g>
<!-- Node3 -->
<g id="node4" class="node">
<title>Node3</title>
<g id="a_node4"><a xlink:href="structkepler_1_1_dyadic_operator.html" target="_top" xlink:title=" ">
<polygon fill="white" stroke="#666666" points="426.5,-463 309.5,-463 309.5,-444 426.5,-444 426.5,-463"/>
<text text-anchor="middle" x="368" y="-451" font-family="Helvetica,sans-Serif" font-size="10.00">kepler::DyadicOperator</text>
</a>
</g>
</g>
<!-- Node1&#45;&gt;Node3 -->
<g id="edge3" class="edge">
<title>Node1&#45;&gt;Node3</title>
<path fill="none" stroke="#63b8ff" d="M243.73,-416.76C261.16,-423.05 280.83,-429.87 299,-435.5 308.1,-438.32 317.96,-441.1 327.29,-443.59"/>
<polygon fill="#63b8ff" stroke="#63b8ff" points="245.21,-413.58 234.62,-413.44 242.82,-420.15 245.21,-413.58"/>
</g>
<!-- Node4 -->
<g id="node5" class="node">
<title>Node4</title>
<g id="a_node5"><a xlink:href="structkepler_1_1_function.html" target="_top" xlink:title=" ">
<polygon fill="white" stroke="#666666" points="411,-426 325,-426 325,-407 411,-407 411,-426"/>
<text text-anchor="middle" x="368" y="-414" font-family="Helvetica,sans-Serif" font-size="10.00">kepler::Function</text>
</a>
</g>
</g>
<!-- Node1&#45;&gt;Node4 -->
<g id="edge4" class="edge">
<title>Node1&#45;&gt;Node4</title>
<path fill="none" stroke="#63b8ff" d="M274.76,-406.46C292.03,-408.34 309.57,-410.25 324.65,-411.89"/>
<polygon fill="#63b8ff" stroke="#63b8ff" points="275.3,-402.99 264.98,-405.39 274.54,-409.95 275.3,-402.99"/>
</g>
<!-- Node5 -->
<g id="node6" class="node">
<title>Node5</title>
<g id="a_node6"><a xlink:href="structkepler_1_1_function_variable.html" target="_top" xlink:title=" ">
<polygon fill="white" stroke="#666666" points="428.5,-389 307.5,-389 307.5,-370 428.5,-370 428.5,-389"/>
<text text-anchor="middle" x="368" y="-377" font-family="Helvetica,sans-Serif" font-size="10.00">kepler::FunctionVariable</text>
</a>
</g>
</g>
<!-- Node1&#45;&gt;Node5 -->
<g id="edge5" class="edge">
<title>Node1&#45;&gt;Node5</title>
<path fill="none" stroke="#63b8ff" d="M274.81,-389.01C285.75,-387.88 296.79,-386.74 307.25,-385.66"/>
<polygon fill="#63b8ff" stroke="#63b8ff" points="274.57,-385.52 264.98,-390.02 275.29,-392.48 274.57,-385.52"/>
</g>
<!-- Node6 -->
<g id="node7" class="node">
<title>Node6</title>
<g id="a_node7"><a xlink:href="structkepler_1_1_monadic_operator.html" target="_top" xlink:title=" ">
<polygon fill="white" stroke="#666666" points="429.5,-352 306.5,-352 306.5,-333 429.5,-333 429.5,-352"/>
<text text-anchor="middle" x="368" y="-340" font-family="Helvetica,sans-Serif" font-size="10.00">kepler::MonadicOperator</text>
</a>
</g>
</g>
<!-- Node1&#45;&gt;Node6 -->
<g id="edge6" class="edge">
<title>Node1&#45;&gt;Node6</title>
<path fill="none" stroke="#63b8ff" d="M247.01,-378.45C263.64,-372.8 282.02,-366.74 299,-361.5 308.96,-358.43 319.8,-355.3 329.84,-352.5"/>
<polygon fill="#63b8ff" stroke="#63b8ff" points="246.14,-375.05 237.8,-381.59 248.4,-381.67 246.14,-375.05"/>
</g>
<!-- Node8 -->
<g id="node9" class="node">
<title>Node8</title>
<g id="a_node9"><a xlink:href="structkepler_1_1_assignment.html" target="_top" xlink:title=" ">
<polygon fill="white" stroke="#666666" points="418.5,-315 317.5,-315 317.5,-296 418.5,-296 418.5,-315"/>
<text text-anchor="middle" x="368" y="-303" font-family="Helvetica,sans-Serif" font-size="10.00">kepler::Assignment</text>
</a>
</g>
</g>
<!-- Node7&#45;&gt;Node8 -->
<g id="edge8" class="edge">
<title>Node7&#45;&gt;Node8</title>
<path fill="none" stroke="#63b8ff" d="M205.36,-194.52C223.35,-219.63 258.42,-263.47 299,-287.5 304.57,-290.8 310.75,-293.5 317.04,-295.72"/>
<polygon fill="#63b8ff" stroke="#63b8ff" points="208.39,-192.74 199.8,-186.55 202.65,-196.75 208.39,-192.74"/>
</g>
<!-- Node9 -->
<g id="node10" class="node">
<title>Node9</title>
<g id="a_node10"><a xlink:href="structkepler_1_1_conditional.html" target="_top" xlink:title=" ">
<polygon fill="white" stroke="#666666" points="417,-278 319,-278 319,-259 417,-259 417,-278"/>
<text text-anchor="middle" x="368" y="-266" font-family="Helvetica,sans-Serif" font-size="10.00">kepler::Conditional</text>
</a>
</g>
</g>
<!-- Node7&#45;&gt;Node9 -->
<g id="edge9" class="edge">
<title>Node7&#45;&gt;Node9</title>
<path fill="none" stroke="#63b8ff" d="M212.14,-192.6C232.56,-209.56 266.09,-235.16 299,-250.5 305.75,-253.65 313.15,-256.32 320.5,-258.56"/>
<polygon fill="#63b8ff" stroke="#63b8ff" points="214.53,-190.04 204.64,-186.25 210.01,-195.38 214.53,-190.04"/>
</g>
<!-- Node10 -->
<g id="node11" class="node">
<title>Node10</title>
<g id="a_node11"><a xlink:href="structkepler_1_1_dyadic_function.html" target="_top" xlink:title=" ">
<polygon fill="white" stroke="#666666" points="426.5,-241 309.5,-241 309.5,-222 426.5,-222 426.5,-241"/>
<text text-anchor="middle" x="368" y="-229" font-family="Helvetica,sans-Serif" font-size="10.00">kepler::DyadicFunction</text>
</a>
</g>
</g>
<!-- Node7&#45;&gt;Node10 -->
<g id="edge10" class="edge">
<title>Node7&#45;&gt;Node10</title>
<path fill="none" stroke="#63b8ff" d="M229.27,-189.48C249.67,-197.02 275.59,-206.24 299,-213.5 308.1,-216.32 317.96,-219.1 327.29,-221.59"/>
<polygon fill="#63b8ff" stroke="#63b8ff" points="230.57,-186.23 219.97,-186.02 228.12,-192.79 230.57,-186.23"/>
</g>
<!-- Node11 -->
<g id="node12" class="node">
<title>Node11</title>
<g id="a_node12"><a xlink:href="structkepler_1_1_function_assignment.html" target="_top" xlink:title=" ">
<polygon fill="white" stroke="#666666" points="437,-204 299,-204 299,-185 437,-185 437,-204"/>
<text text-anchor="middle" x="368" y="-192" font-family="Helvetica,sans-Serif" font-size="10.00">kepler::FunctionAssignment</text>
</a>
</g>
</g>
<!-- Node7&#45;&gt;Node11 -->
<g id="edge11" class="edge">
<title>Node7&#45;&gt;Node11</title>
<path fill="none" stroke="#63b8ff" d="M269.29,-183.86C279.03,-184.92 288.94,-186 298.54,-187.05"/>
<polygon fill="#63b8ff" stroke="#63b8ff" points="269.8,-180.4 259.48,-182.79 269.04,-187.35 269.8,-180.4"/>
</g>
<!-- Node12 -->
<g id="node13" class="node">
<title>Node12</title>
<g id="a_node13"><a xlink:href="structkepler_1_1_monadic_function.html" target="_top" xlink:title=" ">
<polygon fill="white" stroke="#666666" points="429.5,-167 306.5,-167 306.5,-148 429.5,-148 429.5,-167"/>
<text text-anchor="middle" x="368" y="-155" font-family="Helvetica,sans-Serif" font-size="10.00">kepler::MonadicFunction</text>
</a>
</g>
</g>
<!-- Node7&#45;&gt;Node12 -->
<g id="edge12" class="edge">
<title>Node7&#45;&gt;Node12</title>
<path fill="none" stroke="#63b8ff" d="M269.2,-167.59C281.53,-166.32 294.16,-165.01 306.06,-163.79"/>
<polygon fill="#63b8ff" stroke="#63b8ff" points="269.07,-164.08 259.48,-168.59 269.79,-171.05 269.07,-164.08"/>
</g>
<!-- Node13 -->
<g id="node14" class="node">
<title>Node13</title>
<g id="a_node14"><a xlink:href="structkepler_1_1_scalar.html" target="_top" xlink:title=" ">
<polygon fill="white" stroke="#666666" points="406.5,-130 329.5,-130 329.5,-111 406.5,-111 406.5,-130"/>
<text text-anchor="middle" x="368" y="-118" font-family="Helvetica,sans-Serif" font-size="10.00">kepler::Scalar</text>
</a>
</g>
</g>
<!-- Node7&#45;&gt;Node13 -->
<g id="edge13" class="edge">
<title>Node7&#45;&gt;Node13</title>
<path fill="none" stroke="#63b8ff" d="M245.14,-162.42C251.21,-160.59 257.27,-158.6 263,-156.5 279.61,-150.4 282.42,-145.68 299,-139.5 308.65,-135.9 319.29,-132.62 329.22,-129.83"/>
<polygon fill="#63b8ff" stroke="#63b8ff" points="244.36,-159.01 235.72,-165.14 246.3,-165.73 244.36,-159.01"/>
</g>
<!-- Node14 -->
<g id="node15" class="node">
<title>Node14</title>
<g id="a_node15"><a xlink:href="structkepler_1_1_statements.html" target="_top" xlink:title=" ">
<polygon fill="white" stroke="#666666" points="417.5,-93 318.5,-93 318.5,-74 417.5,-74 417.5,-93"/>
<text text-anchor="middle" x="368" y="-81" font-family="Helvetica,sans-Serif" font-size="10.00">kepler::Statements</text>
</a>
</g>
</g>
<!-- Node7&#45;&gt;Node14 -->
<g id="edge14" class="edge">
<title>Node7&#45;&gt;Node14</title>
<path fill="none" stroke="#63b8ff" d="M256.16,-160.81C258.54,-159.49 260.83,-158.06 263,-156.5 286.43,-139.67 275.65,-119.44 299,-102.5 304.75,-98.33 311.39,-95.07 318.22,-92.52"/>
<polygon fill="#63b8ff" stroke="#63b8ff" points="254.92,-157.52 247.35,-164.93 257.89,-163.86 254.92,-157.52"/>
</g>
<!-- Node15 -->
<g id="node16" class="node">
<title>Node15</title>
<g id="a_node16"><a xlink:href="structkepler_1_1_variable.html" target="_top" xlink:title=" ">
<polygon fill="white" stroke="#666666" points="409.5,-56 326.5,-56 326.5,-37 409.5,-37 409.5,-56"/>
<text text-anchor="middle" x="368" y="-44" font-family="Helvetica,sans-Serif" font-size="10.00">kepler::Variable</text>
</a>
</g>
</g>
<!-- Node7&#45;&gt;Node15 -->
<g id="edge15" class="edge">
<title>Node7&#45;&gt;Node15</title>
<path fill="none" stroke="#63b8ff" d="M258.49,-160.08C260.06,-158.97 261.57,-157.78 263,-156.5 295.45,-127.54 266.68,-94.61 299,-65.5 306.56,-58.69 316.36,-54.3 326.17,-51.47"/>
<polygon fill="#63b8ff" stroke="#63b8ff" points="257.12,-156.83 250.22,-164.87 260.62,-162.89 257.12,-156.83"/>
</g>
<!-- Node16 -->
<g id="node17" class="node">
<title>Node16</title>
<g id="a_node17"><a xlink:href="structkepler_1_1_vector.html" target="_top" xlink:title=" ">
<polygon fill="white" stroke="#666666" points="406.5,-19 329.5,-19 329.5,0 406.5,0 406.5,-19"/>
<text text-anchor="middle" x="368" y="-7" font-family="Helvetica,sans-Serif" font-size="10.00">kepler::Vector</text>
</a>
</g>
</g>
<!-- Node7&#45;&gt;Node16 -->
<g id="edge16" class="edge">
<title>Node7&#45;&gt;Node16</title>
<path fill="none" stroke="#63b8ff" d="M259.74,-159.43C260.87,-158.5 261.96,-157.53 263,-156.5 305.28,-114.6 256.63,-69.31 299,-27.5 307.08,-19.52 318.27,-14.97 329.23,-12.4"/>
<polygon fill="#63b8ff" stroke="#63b8ff" points="258.08,-156.33 251.61,-164.72 261.9,-162.2 258.08,-156.33"/>
</g>
</g>
</svg>
