<?xml version="1.0" encoding="UTF-8" standalone="no"?>
<!DOCTYPE svg PUBLIC "-//W3C//DTD SVG 1.1//EN"
 "http://www.w3.org/Graphics/SVG/1.1/DTD/svg11.dtd">
<!-- Generated by graphviz version 7.1.0 (20230121.1956)
 -->
<!-- Title: src/core/evaluation/interpreter.h Pages: 1 -->
<!--zoomable 456 -->
<svg id="main" version="1.1" xmlns="http://www.w3.org/2000/svg" xmlns:xlink="http://www.w3.org/1999/xlink" xml:space="preserve" onload="init(evt)">
<style type="text/css"><![CDATA[
.edge:hover path { stroke: red; }
.edge:hover polygon { stroke: red; fill: red; }
]]></style>
<script type="text/javascript"><![CDATA[
var edges = document.getElementsByTagName('g');
if (edges && edges.length) {
  for (var i=0;i<edges.length;i++) {
    if (edges[i].id.substr(0,4)=='edge') {
      edges[i].setAttribute('class','edge');
    }
  }
}
]]></script>
        <defs>
                <circle id="rim" cx="0" cy="0" r="7"/>
                <circle id="rim2" cx="0" cy="0" r="3.5"/>
                <g id="zoomPlus">
                        <use xlink:href="#rim" fill="#404040">
                                <set attributeName="fill" to="#808080" begin="zoomplus.mouseover" end="zoomplus.mouseout"/>
                        </use>
                        <path d="M-4,0h8M0,-4v8" fill="none" stroke="white" stroke-width="1.5" pointer-events="none"/>
                </g>
                <g id="zoomMin">
                        <use xlink:href="#rim" fill="#404040">
                                <set attributeName="fill" to="#808080" begin="zoomminus.mouseover" end="zoomminus.mouseout"/>
                        </use>
                        <path d="M-4,0h8" fill="none" stroke="white" stroke-width="1.5" pointer-events="none"/>
                </g>
                <g id="dirArrow">
                        <path fill="none" stroke="white" stroke-width="1.5" d="M0,-3.0v7 M-2.5,-0.5L0,-3.0L2.5,-0.5"/>
                </g>
               <g id="resetDef">
                       <use xlink:href="#rim2" fill="#404040">
                               <set attributeName="fill" to="#808080" begin="reset.mouseover" end="reset.mouseout"/>
                       </use>
               </g>
        </defs>

<script type="text/javascript">
var viewWidth = 1155;
var viewHeight = 456;
var sectionId = 'dynsection-0';
</script>
<script xlink:href="svgpan.js"/>
<svg id="graph" class="graph">
<g id="viewport">
<title>src/core/evaluation/interpreter.h</title>
<!-- Node1 -->
<g id="node1" class="node">
<title>Node1</title>
<g id="a_node1"><a xlink:title=" ">
<polygon fill="#999999" stroke="#666666" points="435,-448 336,-448 336,-418 435,-418 435,-448"/>
<text text-anchor="start" x="344" y="-436" font-family="Helvetica,sans-Serif" font-size="10.00">src/core/evaluation</text>
<text text-anchor="middle" x="385.5" y="-425" font-family="Helvetica,sans-Serif" font-size="10.00">/interpreter.h</text>
</a>
</g>
</g>
<!-- Node2 -->
<g id="node2" class="node">
<title>Node2</title>
<g id="a_node2"><a xlink:href="node__visitor_8h.html" target="_top" xlink:title=" ">
<polygon fill="white" stroke="#666666" points="371,-382 264,-382 264,-352 371,-352 371,-382"/>
<text text-anchor="start" x="272" y="-370" font-family="Helvetica,sans-Serif" font-size="10.00">core/evaluation/node</text>
<text text-anchor="middle" x="317.5" y="-359" font-family="Helvetica,sans-Serif" font-size="10.00">_visitor.h</text>
</a>
</g>
</g>
<!-- Node1&#45;&gt;Node2 -->
<g id="edge1" class="edge">
<title>Node1&#45;&gt;Node2</title>
<path fill="none" stroke="#63b8ff" d="M370.41,-417.8C361.69,-409.59 350.55,-399.1 340.73,-389.87"/>
<polygon fill="#63b8ff" stroke="#63b8ff" points="343.33,-387.51 333.65,-383.2 338.53,-392.6 343.33,-387.51"/>
</g>
<!-- Node11 -->
<g id="node11" class="node">
<title>Node11</title>
<g id="a_node11"><a xlink:href="token__type_8h.html" target="_top" xlink:title=" ">
<polygon fill="white" stroke="#666666" points="755,-74 682,-74 682,-55 755,-55 755,-74"/>
<text text-anchor="middle" x="718.5" y="-62" font-family="Helvetica,sans-Serif" font-size="10.00">token_type.h</text>
</a>
</g>
</g>
<!-- Node1&#45;&gt;Node11 -->
<g id="edge34" class="edge">
<title>Node1&#45;&gt;Node11</title>
<path fill="none" stroke="#63b8ff" d="M435.43,-428.77C604.73,-417.17 1146.5,-374.38 1146.5,-302 1146.5,-302 1146.5,-302 1146.5,-173.5 1146.5,-144.04 1150.14,-128.85 1127.5,-110 1100.21,-87.28 868.57,-73.01 766.49,-67.77"/>
<polygon fill="#63b8ff" stroke="#63b8ff" points="766.96,-64.29 756.79,-67.28 766.61,-71.28 766.96,-64.29"/>
</g>
<!-- Node20 -->
<g id="node20" class="node">
<title>Node20</title>
<g id="a_node20"><a xlink:href="functions_8h.html" target="_top" xlink:title=" ">
<polygon fill="white" stroke="#666666" points="131,-316 0,-316 0,-286 131,-286 131,-316"/>
<text text-anchor="start" x="8" y="-304" font-family="Helvetica,sans-Serif" font-size="10.00">core/evaluation/operations</text>
<text text-anchor="middle" x="65.5" y="-293" font-family="Helvetica,sans-Serif" font-size="10.00">/functions.h</text>
</a>
</g>
</g>
<!-- Node1&#45;&gt;Node20 -->
<g id="edge35" class="edge">
<title>Node1&#45;&gt;Node20</title>
<path fill="none" stroke="#63b8ff" d="M335.53,-428.43C265.06,-422.52 141.1,-408.61 105.5,-382 87.75,-368.73 77.36,-345.39 71.64,-327.33"/>
<polygon fill="#63b8ff" stroke="#63b8ff" points="75.04,-326.5 68.94,-317.84 68.31,-328.42 75.04,-326.5"/>
</g>
<!-- Node23 -->
<g id="node23" class="node">
<title>Node23</title>
<g id="a_node23"><a xlink:href="monadic__operators_8h.html" target="_top" xlink:title=" ">
<polygon fill="white" stroke="#666666" points="246,-382 115,-382 115,-352 246,-352 246,-382"/>
<text text-anchor="start" x="123" y="-370" font-family="Helvetica,sans-Serif" font-size="10.00">core/evaluation/operations</text>
<text text-anchor="middle" x="180.5" y="-359" font-family="Helvetica,sans-Serif" font-size="10.00">/monadic_operators.h</text>
</a>
</g>
</g>
<!-- Node1&#45;&gt;Node23 -->
<g id="edge41" class="edge">
<title>Node1&#45;&gt;Node23</title>
<path fill="none" stroke="#63b8ff" d="M339.24,-417.56C309,-408.12 269.31,-395.72 237.18,-385.69"/>
<polygon fill="#63b8ff" stroke="#63b8ff" points="238.63,-382.48 228.04,-382.84 236.54,-389.16 238.63,-382.48"/>
</g>
<!-- Node24 -->
<g id="node24" class="node">
<title>Node24</title>
<g id="a_node24"><a xlink:href="dyadic__operators_8h.html" target="_top" xlink:title=" ">
<polygon fill="white" stroke="#666666" points="520,-382 389,-382 389,-352 520,-352 520,-382"/>
<text text-anchor="start" x="397" y="-370" font-family="Helvetica,sans-Serif" font-size="10.00">core/evaluation/operations</text>
<text text-anchor="middle" x="454.5" y="-359" font-family="Helvetica,sans-Serif" font-size="10.00">/dyadic_operators.h</text>
</a>
</g>
</g>
<!-- Node1&#45;&gt;Node24 -->
<g id="edge45" class="edge">
<title>Node1&#45;&gt;Node24</title>
<path fill="none" stroke="#63b8ff" d="M400.81,-417.8C409.66,-409.59 420.97,-399.1 430.92,-389.87"/>
<polygon fill="#63b8ff" stroke="#63b8ff" points="433.17,-392.56 438.12,-383.19 428.41,-387.43 433.17,-392.56"/>
</g>
<!-- Node25 -->
<g id="node25" class="node">
<title>Node25</title>
<g id="a_node25"><a xlink:href="error_8h.html" target="_top" xlink:title=" ">
<polygon fill="white" stroke="#666666" points="972,-184 907,-184 907,-165 972,-165 972,-184"/>
<text text-anchor="middle" x="939.5" y="-172" font-family="Helvetica,sans-Serif" font-size="10.00">core/error.h</text>
</a>
</g>
</g>
<!-- Node1&#45;&gt;Node25 -->
<g id="edge48" class="edge">
<title>Node1&#45;&gt;Node25</title>
<path fill="none" stroke="#63b8ff" d="M435.03,-417.58C521.33,-391.33 703.32,-330.89 842.5,-250 871.87,-232.93 902.41,-208.1 921.19,-191.88"/>
<polygon fill="#63b8ff" stroke="#63b8ff" points="923.29,-194.69 928.5,-185.47 918.68,-189.43 923.29,-194.69"/>
</g>
<!-- Node3 -->
<g id="node3" class="node">
<title>Node3</title>
<g id="a_node3"><a xlink:href="array_8h.html" target="_top" xlink:title=" ">
<polygon fill="white" stroke="#666666" points="255,-129 188,-129 188,-110 255,-110 255,-129"/>
<text text-anchor="middle" x="221.5" y="-117" font-family="Helvetica,sans-Serif" font-size="10.00">core/array.h</text>
</a>
</g>
</g>
<!-- Node2&#45;&gt;Node3 -->
<g id="edge2" class="edge">
<title>Node2&#45;&gt;Node3</title>
<path fill="none" stroke="#63b8ff" d="M298.48,-351.65C274.06,-331.9 232.88,-293.76 216.5,-250 202.74,-213.24 210.06,-166.44 216.11,-140.36"/>
<polygon fill="#63b8ff" stroke="#63b8ff" points="219.47,-141.37 218.52,-130.82 212.68,-139.66 219.47,-141.37"/>
</g>
<!-- Node9 -->
<g id="node9" class="node">
<title>Node9</title>
<g id="a_node9"><a xlink:href="operation_8h.html" target="_top" xlink:title=" ">
<polygon fill="white" stroke="#666666" points="357,-250 226,-250 226,-220 357,-220 357,-250"/>
<text text-anchor="start" x="234" y="-238" font-family="Helvetica,sans-Serif" font-size="10.00">core/evaluation/operations</text>
<text text-anchor="middle" x="291.5" y="-227" font-family="Helvetica,sans-Serif" font-size="10.00">/operation.h</text>
</a>
</g>
</g>
<!-- Node2&#45;&gt;Node9 -->
<g id="edge8" class="edge">
<title>Node2&#45;&gt;Node9</title>
<path fill="none" stroke="#63b8ff" d="M314.62,-351.59C310.28,-329.92 302.02,-288.62 296.64,-261.7"/>
<polygon fill="#63b8ff" stroke="#63b8ff" points="300.08,-261.08 294.69,-251.96 293.22,-262.45 300.08,-261.08"/>
</g>
<!-- Node19 -->
<g id="node19" class="node">
<title>Node19</title>
<g id="a_node19"><a xlink:href="ast_8h.html" target="_top" xlink:title=" ">
<polygon fill="white" stroke="#666666" points="508,-310.5 401,-310.5 401,-291.5 508,-291.5 508,-310.5"/>
<text text-anchor="middle" x="454.5" y="-298.5" font-family="Helvetica,sans-Serif" font-size="10.00">core/evaluation/ast.h</text>
</a>
</g>
</g>
<!-- Node2&#45;&gt;Node19 -->
<g id="edge25" class="edge">
<title>Node2&#45;&gt;Node19</title>
<path fill="none" stroke="#63b8ff" d="M348.25,-351.64C371.16,-340.93 402.27,-326.4 424.91,-315.82"/>
<polygon fill="#63b8ff" stroke="#63b8ff" points="426.31,-319.03 433.89,-311.63 423.35,-312.69 426.31,-319.03"/>
</g>
<!-- Node4 -->
<g id="node4" class="node">
<title>Node4</title>
<g id="a_node4"><a xlink:href="datatypes_8h.html" target="_top" xlink:title=" ">
<polygon fill="white" stroke="#666666" points="355.5,-74 287.5,-74 287.5,-55 355.5,-55 355.5,-74"/>
<text text-anchor="middle" x="321.5" y="-62" font-family="Helvetica,sans-Serif" font-size="10.00">datatypes.h</text>
</a>
</g>
</g>
<!-- Node3&#45;&gt;Node4 -->
<g id="edge3" class="edge">
<title>Node3&#45;&gt;Node4</title>
<path fill="none" stroke="#63b8ff" d="M238.46,-109.51C253.86,-101.35 276.81,-89.19 294.69,-79.71"/>
<polygon fill="#63b8ff" stroke="#63b8ff" points="296.25,-82.84 303.45,-75.07 292.97,-76.66 296.25,-82.84"/>
</g>
<!-- Node8 -->
<g id="node8" class="node">
<title>Node8</title>
<g id="a_node8"><a xlink:title=" ">
<polygon fill="#e0e0e0" stroke="#999999" points="244.5,-74 198.5,-74 198.5,-55 244.5,-55 244.5,-74"/>
<text text-anchor="middle" x="221.5" y="-62" font-family="Helvetica,sans-Serif" font-size="10.00">variant</text>
</a>
</g>
</g>
<!-- Node3&#45;&gt;Node8 -->
<g id="edge7" class="edge">
<title>Node3&#45;&gt;Node8</title>
<path fill="none" stroke="#63b8ff" d="M221.5,-109.75C221.5,-103.27 221.5,-94.16 221.5,-85.9"/>
<polygon fill="#63b8ff" stroke="#63b8ff" points="225,-85.96 221.5,-75.96 218,-85.96 225,-85.96"/>
</g>
<!-- Node5 -->
<g id="node5" class="node">
<title>Node5</title>
<g id="a_node5"><a xlink:title=" ">
<polygon fill="#e0e0e0" stroke="#999999" points="310.5,-19 266.5,-19 266.5,0 310.5,0 310.5,-19"/>
<text text-anchor="middle" x="288.5" y="-7" font-family="Helvetica,sans-Serif" font-size="10.00">vector</text>
</a>
</g>
</g>
<!-- Node4&#45;&gt;Node5 -->
<g id="edge4" class="edge">
<title>Node4&#45;&gt;Node5</title>
<path fill="none" stroke="#63b8ff" d="M316.05,-54.75C311.73,-47.81 305.54,-37.86 300.12,-29.16"/>
<polygon fill="#63b8ff" stroke="#63b8ff" points="303.12,-27.37 294.87,-20.73 297.18,-31.07 303.12,-27.37"/>
</g>
<!-- Node6 -->
<g id="node6" class="node">
<title>Node6</title>
<g id="a_node6"><a xlink:title=" ">
<polygon fill="#e0e0e0" stroke="#999999" points="717,-19 676,-19 676,0 717,0 717,-19"/>
<text text-anchor="middle" x="696.5" y="-7" font-family="Helvetica,sans-Serif" font-size="10.00">string</text>
</a>
</g>
</g>
<!-- Node4&#45;&gt;Node6 -->
<g id="edge5" class="edge">
<title>Node4&#45;&gt;Node6</title>
<path fill="none" stroke="#63b8ff" d="M355.77,-58.66C427.9,-48.46 594.48,-24.92 664.54,-15.02"/>
<polygon fill="#63b8ff" stroke="#63b8ff" points="664.78,-18.52 674.19,-13.65 663.8,-11.59 664.78,-18.52"/>
</g>
<!-- Node7 -->
<g id="node7" class="node">
<title>Node7</title>
<g id="a_node7"><a xlink:title=" ">
<polygon fill="#e0e0e0" stroke="#999999" points="382,-19 329,-19 329,0 382,0 382,-19"/>
<text text-anchor="middle" x="355.5" y="-7" font-family="Helvetica,sans-Serif" font-size="10.00">complex</text>
</a>
</g>
</g>
<!-- Node4&#45;&gt;Node7 -->
<g id="edge6" class="edge">
<title>Node4&#45;&gt;Node7</title>
<path fill="none" stroke="#63b8ff" d="M327.11,-54.75C331.62,-47.73 338.09,-37.64 343.71,-28.87"/>
<polygon fill="#63b8ff" stroke="#63b8ff" points="346.49,-31.02 348.95,-20.72 340.6,-27.24 346.49,-31.02"/>
</g>
<!-- Node9&#45;&gt;Node3 -->
<g id="edge10" class="edge">
<title>Node9&#45;&gt;Node3</title>
<path fill="none" stroke="#63b8ff" d="M282.63,-219.63C269.99,-199.12 246.77,-161.47 232.87,-138.93"/>
<polygon fill="#63b8ff" stroke="#63b8ff" points="235.91,-137.19 227.68,-130.52 229.95,-140.87 235.91,-137.19"/>
</g>
<!-- Node9&#45;&gt;Node4 -->
<g id="edge9" class="edge">
<title>Node9&#45;&gt;Node4</title>
<path fill="none" stroke="#63b8ff" d="M292.52,-219.73C294.36,-196.51 298.87,-149.22 307.5,-110 309.33,-101.69 312.01,-92.72 314.54,-85.01"/>
<polygon fill="#63b8ff" stroke="#63b8ff" points="317.81,-86.27 317.75,-75.67 311.19,-83.99 317.81,-86.27"/>
</g>
<!-- Node10 -->
<g id="node10" class="node">
<title>Node10</title>
<g id="a_node10"><a xlink:href="token_8h.html" target="_top" xlink:title=" ">
<polygon fill="white" stroke="#666666" points="561,-184 490,-184 490,-165 561,-165 561,-184"/>
<text text-anchor="middle" x="525.5" y="-172" font-family="Helvetica,sans-Serif" font-size="10.00">core/token.h</text>
</a>
</g>
</g>
<!-- Node9&#45;&gt;Node10 -->
<g id="edge11" class="edge">
<title>Node9&#45;&gt;Node10</title>
<path fill="none" stroke="#63b8ff" d="M349.34,-219.54C389.2,-209.57 441.5,-196.5 478.73,-187.19"/>
<polygon fill="#63b8ff" stroke="#63b8ff" points="479.45,-190.62 488.3,-184.8 477.75,-183.83 479.45,-190.62"/>
</g>
<!-- Node18 -->
<g id="node18" class="node">
<title>Node18</title>
<g id="a_node18"><a xlink:title=" ">
<polygon fill="#e0e0e0" stroke="#999999" points="379.5,-184 327.5,-184 327.5,-165 379.5,-165 379.5,-184"/>
<text text-anchor="middle" x="353.5" y="-172" font-family="Helvetica,sans-Serif" font-size="10.00">memory</text>
</a>
</g>
</g>
<!-- Node9&#45;&gt;Node18 -->
<g id="edge24" class="edge">
<title>Node9&#45;&gt;Node18</title>
<path fill="none" stroke="#63b8ff" d="M306.83,-219.54C315.65,-211.22 326.77,-200.72 335.94,-192.07"/>
<polygon fill="#63b8ff" stroke="#63b8ff" points="338.33,-194.62 343.2,-185.21 333.53,-189.53 338.33,-194.62"/>
</g>
<!-- Node10&#45;&gt;Node3 -->
<g id="edge16" class="edge">
<title>Node10&#45;&gt;Node3</title>
<path fill="none" stroke="#63b8ff" d="M489.73,-167.26C434.14,-157.57 327.11,-138.91 266.4,-128.33"/>
<polygon fill="#63b8ff" stroke="#63b8ff" points="267.21,-124.92 256.76,-126.65 266.01,-131.81 267.21,-124.92"/>
</g>
<!-- Node10&#45;&gt;Node4 -->
<g id="edge14" class="edge">
<title>Node10&#45;&gt;Node4</title>
<path fill="none" stroke="#63b8ff" d="M489.68,-165.02C452.42,-155.79 397,-140.77 378.5,-129 359.99,-117.23 343.83,-97.83 333.48,-83.57"/>
<polygon fill="#63b8ff" stroke="#63b8ff" points="336.47,-81.73 327.9,-75.51 330.72,-85.73 336.47,-81.73"/>
</g>
<!-- Node10&#45;&gt;Node11 -->
<g id="edge12" class="edge">
<title>Node10&#45;&gt;Node11</title>
<path fill="none" stroke="#63b8ff" d="M539.57,-164.53C559.53,-151.9 597.33,-128.38 630.5,-110 649.97,-99.21 672.36,-87.9 689.68,-79.39"/>
<polygon fill="#63b8ff" stroke="#63b8ff" points="690.94,-82.67 698.38,-75.14 687.86,-76.38 690.94,-82.67"/>
</g>
<!-- Node13 -->
<g id="node13" class="node">
<title>Node13</title>
<g id="a_node13"><a xlink:title=" ">
<polygon fill="#e0e0e0" stroke="#999999" points="800,-129 717,-129 717,-110 800,-110 800,-129"/>
<text text-anchor="middle" x="758.5" y="-117" font-family="Helvetica,sans-Serif" font-size="10.00">uni_algo/conv.h</text>
</a>
</g>
</g>
<!-- Node10&#45;&gt;Node13 -->
<g id="edge15" class="edge">
<title>Node10&#45;&gt;Node13</title>
<path fill="none" stroke="#63b8ff" d="M561.4,-165.33C600.62,-156.41 663.75,-142.05 707.97,-131.99"/>
<polygon fill="#63b8ff" stroke="#63b8ff" points="708.6,-135.44 717.58,-129.81 707.05,-128.61 708.6,-135.44"/>
</g>
<!-- Node14 -->
<g id="node14" class="node">
<title>Node14</title>
<g id="a_node14"><a xlink:href="conversion_8h.html" target="_top" xlink:title=" ">
<polygon fill="white" stroke="#666666" points="583.5,-129 455.5,-129 455.5,-110 583.5,-110 583.5,-129"/>
<text text-anchor="middle" x="519.5" y="-117" font-family="Helvetica,sans-Serif" font-size="10.00">core/helpers/conversion.h</text>
</a>
</g>
</g>
<!-- Node10&#45;&gt;Node14 -->
<g id="edge17" class="edge">
<title>Node10&#45;&gt;Node14</title>
<path fill="none" stroke="#63b8ff" d="M524.51,-164.75C523.77,-158.19 522.72,-148.95 521.78,-140.6"/>
<polygon fill="#63b8ff" stroke="#63b8ff" points="525.29,-140.49 520.68,-130.95 518.33,-141.28 525.29,-140.49"/>
</g>
<!-- Node15 -->
<g id="node15" class="node">
<title>Node15</title>
<g id="a_node15"><a xlink:title=" ">
<polygon fill="#e0e0e0" stroke="#999999" points="896.5,-129 856.5,-129 856.5,-110 896.5,-110 896.5,-129"/>
<text text-anchor="middle" x="876.5" y="-117" font-family="Helvetica,sans-Serif" font-size="10.00">utility</text>
</a>
</g>
</g>
<!-- Node10&#45;&gt;Node15 -->
<g id="edge21" class="edge">
<title>Node10&#45;&gt;Node15</title>
<path fill="none" stroke="#63b8ff" d="M561.41,-168.08C630.33,-157.67 780.07,-135.06 845.2,-125.23"/>
<polygon fill="#63b8ff" stroke="#63b8ff" points="845.47,-128.72 854.84,-123.77 844.43,-121.8 845.47,-128.72"/>
</g>
<!-- Node16 -->
<g id="node16" class="node">
<title>Node16</title>
<g id="a_node16"><a xlink:title=" ">
<polygon fill="#e0e0e0" stroke="#999999" points="437.5,-129 387.5,-129 387.5,-110 437.5,-110 437.5,-129"/>
<text text-anchor="middle" x="412.5" y="-117" font-family="Helvetica,sans-Serif" font-size="10.00">optional</text>
</a>
</g>
</g>
<!-- Node10&#45;&gt;Node16 -->
<g id="edge22" class="edge">
<title>Node10&#45;&gt;Node16</title>
<path fill="none" stroke="#63b8ff" d="M506.33,-164.51C488.61,-156.2 462.02,-143.73 441.67,-134.18"/>
<polygon fill="#63b8ff" stroke="#63b8ff" points="443.3,-131.08 432.76,-130 440.32,-137.42 443.3,-131.08"/>
</g>
<!-- Node17 -->
<g id="node17" class="node">
<title>Node17</title>
<g id="a_node17"><a xlink:href="position_8h.html" target="_top" xlink:title=" ">
<polygon fill="white" stroke="#666666" points="699,-129 640,-129 640,-110 699,-110 699,-129"/>
<text text-anchor="middle" x="669.5" y="-117" font-family="Helvetica,sans-Serif" font-size="10.00">position.h</text>
</a>
</g>
</g>
<!-- Node10&#45;&gt;Node17 -->
<g id="edge23" class="edge">
<title>Node10&#45;&gt;Node17</title>
<path fill="none" stroke="#63b8ff" d="M549.93,-164.51C573.24,-155.93 608.59,-142.92 634.81,-133.27"/>
<polygon fill="#63b8ff" stroke="#63b8ff" points="635.84,-136.62 644.01,-129.88 633.42,-130.05 635.84,-136.62"/>
</g>
<!-- Node12 -->
<g id="node12" class="node">
<title>Node12</title>
<g id="a_node12"><a xlink:title=" ">
<polygon fill="#e0e0e0" stroke="#999999" points="1027.5,-19 973.5,-19 973.5,0 1027.5,0 1027.5,-19"/>
<text text-anchor="middle" x="1000.5" y="-7" font-family="Helvetica,sans-Serif" font-size="10.00">iostream</text>
</a>
</g>
</g>
<!-- Node11&#45;&gt;Node12 -->
<g id="edge13" class="edge">
<title>Node11&#45;&gt;Node12</title>
<path fill="none" stroke="#63b8ff" d="M755.37,-56.57C808.92,-46.51 907.74,-27.93 962.13,-17.71"/>
<polygon fill="#63b8ff" stroke="#63b8ff" points="962.68,-21.17 971.86,-15.88 961.38,-14.29 962.68,-21.17"/>
</g>
<!-- Node14&#45;&gt;Node4 -->
<g id="edge19" class="edge">
<title>Node14&#45;&gt;Node4</title>
<path fill="none" stroke="#63b8ff" d="M485.91,-109.51C452.82,-100.65 402.07,-87.07 365.71,-77.33"/>
<polygon fill="#63b8ff" stroke="#63b8ff" points="366.95,-74.04 356.38,-74.84 365.14,-80.8 366.95,-74.04"/>
</g>
<!-- Node14&#45;&gt;Node6 -->
<g id="edge18" class="edge">
<title>Node14&#45;&gt;Node6</title>
<path fill="none" stroke="#63b8ff" d="M533.98,-109.66C564.32,-91.15 634.82,-48.13 672.21,-25.32"/>
<polygon fill="#63b8ff" stroke="#63b8ff" points="673.81,-28.44 680.52,-20.25 670.16,-22.47 673.81,-28.44"/>
</g>
<!-- Node14&#45;&gt;Node11 -->
<g id="edge20" class="edge">
<title>Node14&#45;&gt;Node11</title>
<path fill="none" stroke="#63b8ff" d="M553.26,-109.51C586.52,-100.65 637.53,-87.07 674.07,-77.33"/>
<polygon fill="#63b8ff" stroke="#63b8ff" points="674.68,-80.79 683.45,-74.84 672.88,-74.03 674.68,-80.79"/>
</g>
<!-- Node19&#45;&gt;Node3 -->
<g id="edge28" class="edge">
<title>Node19&#45;&gt;Node3</title>
<path fill="none" stroke="#63b8ff" d="M452.83,-291.18C447.79,-267.05 430.41,-199.47 388.5,-165 354,-136.62 303.14,-126.2 266.62,-122.45"/>
<polygon fill="#63b8ff" stroke="#63b8ff" points="267.09,-118.98 256.82,-121.58 266.47,-125.95 267.09,-118.98"/>
</g>
<!-- Node19&#45;&gt;Node4 -->
<g id="edge30" class="edge">
<title>Node19&#45;&gt;Node4</title>
<path fill="none" stroke="#63b8ff" d="M455.06,-291.32C455.75,-276.33 455.92,-244.82 447.5,-220 438.19,-192.56 433.18,-185.29 412.5,-165 390.58,-143.48 374.32,-151.58 353.5,-129 341.72,-116.22 333.22,-98.3 327.95,-84.75"/>
<polygon fill="#63b8ff" stroke="#63b8ff" points="331.35,-83.86 324.67,-75.63 324.77,-86.23 331.35,-83.86"/>
</g>
<!-- Node19&#45;&gt;Node6 -->
<g id="edge26" class="edge">
<title>Node19&#45;&gt;Node6</title>
<path fill="none" stroke="#63b8ff" d="M508.48,-293.47C612.06,-279.44 828.5,-242.14 828.5,-175.5 828.5,-175.5 828.5,-175.5 828.5,-118.5 828.5,-66.78 767.05,-35.36 728,-20.62"/>
<polygon fill="#63b8ff" stroke="#63b8ff" points="729.43,-17.41 718.84,-17.33 727.07,-24 729.43,-17.41"/>
</g>
<!-- Node19&#45;&gt;Node9 -->
<g id="edge32" class="edge">
<title>Node19&#45;&gt;Node9</title>
<path fill="none" stroke="#63b8ff" d="M431.84,-291.1C407.89,-281.7 369.44,-266.6 338.83,-254.59"/>
<polygon fill="#63b8ff" stroke="#63b8ff" points="340.37,-251.43 329.78,-251.03 337.81,-257.94 340.37,-251.43"/>
</g>
<!-- Node19&#45;&gt;Node10 -->
<g id="edge29" class="edge">
<title>Node19&#45;&gt;Node10</title>
<path fill="none" stroke="#63b8ff" d="M459.61,-291.05C471.12,-270.86 499.31,-221.43 514.82,-194.22"/>
<polygon fill="#63b8ff" stroke="#63b8ff" points="517.78,-196.11 519.69,-185.69 511.7,-192.64 517.78,-196.11"/>
</g>
<!-- Node19&#45;&gt;Node12 -->
<g id="edge27" class="edge">
<title>Node19&#45;&gt;Node12</title>
<path fill="none" stroke="#63b8ff" d="M508.35,-299.08C646.09,-295.28 1000.5,-275.76 1000.5,-175.5 1000.5,-175.5 1000.5,-175.5 1000.5,-118.5 1000.5,-87.92 1000.5,-52.48 1000.5,-30.77"/>
<polygon fill="#63b8ff" stroke="#63b8ff" points="1004,-30.97 1000.5,-20.97 997,-30.97 1004,-30.97"/>
</g>
<!-- Node19&#45;&gt;Node17 -->
<g id="edge33" class="edge">
<title>Node19&#45;&gt;Node17</title>
<path fill="none" stroke="#63b8ff" d="M465.16,-291.1C499.26,-262.63 606.01,-173.5 650.13,-136.67"/>
<polygon fill="#63b8ff" stroke="#63b8ff" points="652.18,-139.52 657.61,-130.43 647.69,-134.15 652.18,-139.52"/>
</g>
<!-- Node19&#45;&gt;Node18 -->
<g id="edge31" class="edge">
<title>Node19&#45;&gt;Node18</title>
<path fill="none" stroke="#63b8ff" d="M446.29,-291.36C437.08,-281.55 421.82,-264.97 409.5,-250 394.13,-231.32 377.61,-209.05 366.53,-193.76"/>
<polygon fill="#63b8ff" stroke="#63b8ff" points="369.37,-191.71 360.69,-185.64 363.69,-195.8 369.37,-191.71"/>
</g>
<!-- Node20&#45;&gt;Node9 -->
<g id="edge40" class="edge">
<title>Node20&#45;&gt;Node9</title>
<path fill="none" stroke="#63b8ff" d="M116.5,-285.56C150.13,-276.04 194.36,-263.51 229.94,-253.43"/>
<polygon fill="#63b8ff" stroke="#63b8ff" points="230.56,-256.89 239.23,-250.8 228.65,-250.16 230.56,-256.89"/>
</g>
<!-- Node21 -->
<g id="node21" class="node">
<title>Node21</title>
<g id="a_node21"><a xlink:href="pervade_8h.html" target="_top" xlink:title=" ">
<polygon fill="white" stroke="#666666" points="122,-184 63,-184 63,-165 122,-165 122,-184"/>
<text text-anchor="middle" x="92.5" y="-172" font-family="Helvetica,sans-Serif" font-size="10.00">pervade.h</text>
</a>
</g>
</g>
<!-- Node20&#45;&gt;Node21 -->
<g id="edge36" class="edge">
<title>Node20&#45;&gt;Node21</title>
<path fill="none" stroke="#63b8ff" d="M68.6,-285.72C73.41,-263.53 82.69,-220.73 88.17,-195.49"/>
<polygon fill="#63b8ff" stroke="#63b8ff" points="91.55,-196.38 90.25,-185.86 84.71,-194.89 91.55,-196.38"/>
</g>
<!-- Node21&#45;&gt;Node3 -->
<g id="edge37" class="edge">
<title>Node21&#45;&gt;Node3</title>
<path fill="none" stroke="#63b8ff" d="M114.38,-164.51C134.99,-156.04 166.09,-143.27 189.48,-133.66"/>
<polygon fill="#63b8ff" stroke="#63b8ff" points="190.62,-136.97 198.54,-129.93 187.96,-130.5 190.62,-136.97"/>
</g>
<!-- Node21&#45;&gt;Node4 -->
<g id="edge38" class="edge">
<title>Node21&#45;&gt;Node4</title>
<path fill="none" stroke="#63b8ff" d="M97.41,-164.59C105.54,-150.72 123.13,-124.07 145.5,-110 167.04,-96.45 231.41,-82.3 276.02,-73.68"/>
<polygon fill="#63b8ff" stroke="#63b8ff" points="276.52,-77.15 285.69,-71.85 275.22,-70.27 276.52,-77.15"/>
</g>
<!-- Node22 -->
<g id="node22" class="node">
<title>Node22</title>
<g id="a_node22"><a xlink:title=" ">
<polygon fill="#e0e0e0" stroke="#999999" points="93.5,-129 25.5,-129 25.5,-110 93.5,-110 93.5,-129"/>
<text text-anchor="middle" x="59.5" y="-117" font-family="Helvetica,sans-Serif" font-size="10.00">pervade.tpp</text>
</a>
</g>
</g>
<!-- Node21&#45;&gt;Node22 -->
<g id="edge39" class="edge">
<title>Node21&#45;&gt;Node22</title>
<path fill="none" stroke="#63b8ff" d="M87.05,-164.75C82.73,-157.81 76.54,-147.86 71.12,-139.16"/>
<polygon fill="#63b8ff" stroke="#63b8ff" points="74.12,-137.37 65.87,-130.73 68.18,-141.07 74.12,-137.37"/>
</g>
<!-- Node23&#45;&gt;Node4 -->
<g id="edge43" class="edge">
<title>Node23&#45;&gt;Node4</title>
<path fill="none" stroke="#63b8ff" d="M176.65,-351.69C170.59,-327.88 159.5,-278.52 159.5,-236 159.5,-236 159.5,-236 159.5,-173.5 159.5,-144.04 157.78,-130.94 178.5,-110 192.34,-96.01 239.79,-83.01 276.28,-74.72"/>
<polygon fill="#63b8ff" stroke="#63b8ff" points="276.72,-78.21 285.72,-72.63 275.2,-71.37 276.72,-78.21"/>
</g>
<!-- Node23&#45;&gt;Node9 -->
<g id="edge42" class="edge">
<title>Node23&#45;&gt;Node9</title>
<path fill="none" stroke="#63b8ff" d="M192.8,-351.59C211.89,-329.24 248.81,-285.99 271.69,-259.2"/>
<polygon fill="#63b8ff" stroke="#63b8ff" points="274.33,-261.5 278.16,-251.62 269,-256.96 274.33,-261.5"/>
</g>
<!-- Node23&#45;&gt;Node19 -->
<g id="edge44" class="edge">
<title>Node23&#45;&gt;Node19</title>
<path fill="none" stroke="#63b8ff" d="M242.33,-351.56C291.51,-340.07 359.41,-324.21 405.03,-313.55"/>
<polygon fill="#63b8ff" stroke="#63b8ff" points="405.71,-316.99 414.65,-311.31 404.12,-310.17 405.71,-316.99"/>
</g>
<!-- Node24&#45;&gt;Node9 -->
<g id="edge46" class="edge">
<title>Node24&#45;&gt;Node9</title>
<path fill="none" stroke="#63b8ff" d="M436.29,-351.58C423.7,-341.6 406.57,-328.01 391.5,-316 366.73,-296.26 338.57,-273.72 318.45,-257.61"/>
<polygon fill="#63b8ff" stroke="#63b8ff" points="320.72,-254.94 310.73,-251.42 316.34,-260.4 320.72,-254.94"/>
</g>
<!-- Node24&#45;&gt;Node19 -->
<g id="edge47" class="edge">
<title>Node24&#45;&gt;Node19</title>
<path fill="none" stroke="#63b8ff" d="M454.5,-351.8C454.5,-343.09 454.5,-331.81 454.5,-322.18"/>
<polygon fill="#63b8ff" stroke="#63b8ff" points="458,-322.36 454.5,-312.36 451,-322.36 458,-322.36"/>
</g>
<!-- Node25&#45;&gt;Node4 -->
<g id="edge54" class="edge">
<title>Node25&#45;&gt;Node4</title>
<path fill="none" stroke="#63b8ff" d="M937.63,-164.7C934.1,-150.47 924.99,-122.7 905.5,-110 860.79,-80.86 496.63,-69.59 367.06,-66.47"/>
<polygon fill="#63b8ff" stroke="#63b8ff" points="367.22,-62.98 357.14,-66.24 367.06,-69.97 367.22,-62.98"/>
</g>
<!-- Node25&#45;&gt;Node12 -->
<g id="edge49" class="edge">
<title>Node25&#45;&gt;Node12</title>
<path fill="none" stroke="#63b8ff" d="M942.78,-164.74C952.3,-139.31 980.08,-65.08 993.32,-29.69"/>
<polygon fill="#63b8ff" stroke="#63b8ff" points="996.45,-31.32 996.67,-20.72 989.89,-28.86 996.45,-31.32"/>
</g>
<!-- Node25&#45;&gt;Node13 -->
<g id="edge55" class="edge">
<title>Node25&#45;&gt;Node13</title>
<path fill="none" stroke="#63b8ff" d="M908.8,-164.51C878.8,-155.73 832.95,-142.3 799.77,-132.59"/>
<polygon fill="#63b8ff" stroke="#63b8ff" points="801.09,-129.32 790.5,-129.87 799.12,-136.04 801.09,-129.32"/>
</g>
<!-- Node25&#45;&gt;Node15 -->
<g id="edge51" class="edge">
<title>Node25&#45;&gt;Node15</title>
<path fill="none" stroke="#63b8ff" d="M928.81,-164.51C919.8,-156.93 906.67,-145.88 895.82,-136.75"/>
<polygon fill="#63b8ff" stroke="#63b8ff" points="898.09,-134.09 888.19,-130.33 893.59,-139.45 898.09,-134.09"/>
</g>
<!-- Node26 -->
<g id="node26" class="node">
<title>Node26</title>
<g id="a_node26"><a xlink:title=" ">
<polygon fill="#e0e0e0" stroke="#999999" points="1118.5,-129 1066.5,-129 1066.5,-110 1118.5,-110 1118.5,-129"/>
<text text-anchor="middle" x="1092.5" y="-117" font-family="Helvetica,sans-Serif" font-size="10.00">sstream</text>
</a>
</g>
</g>
<!-- Node25&#45;&gt;Node26 -->
<g id="edge50" class="edge">
<title>Node25&#45;&gt;Node26</title>
<path fill="none" stroke="#63b8ff" d="M965.45,-164.51C990.37,-155.88 1028.23,-142.76 1056.14,-133.1"/>
<polygon fill="#63b8ff" stroke="#63b8ff" points="1056.94,-136.52 1065.24,-129.94 1054.65,-129.91 1056.94,-136.52"/>
</g>
<!-- Node27 -->
<g id="node27" class="node">
<title>Node27</title>
<g id="a_node27"><a xlink:href="error__type_8h.html" target="_top" xlink:title=" ">
<polygon fill="white" stroke="#666666" points="948.5,-74 880.5,-74 880.5,-55 948.5,-55 948.5,-74"/>
<text text-anchor="middle" x="914.5" y="-62" font-family="Helvetica,sans-Serif" font-size="10.00">error_type.h</text>
</a>
</g>
</g>
<!-- Node25&#45;&gt;Node27 -->
<g id="edge52" class="edge">
<title>Node25&#45;&gt;Node27</title>
<path fill="none" stroke="#63b8ff" d="M940.66,-164.7C942,-152.27 943.45,-128.99 938.5,-110 936.12,-100.88 931.51,-91.58 926.97,-83.86"/>
<polygon fill="#63b8ff" stroke="#63b8ff" points="929.95,-82.02 921.63,-75.45 924.04,-85.77 929.95,-82.02"/>
</g>
<!-- Node27&#45;&gt;Node6 -->
<g id="edge53" class="edge">
<title>Node27&#45;&gt;Node6</title>
<path fill="none" stroke="#63b8ff" d="M880.44,-55.22C838.8,-45.1 768.89,-28.1 728.31,-18.23"/>
<polygon fill="#63b8ff" stroke="#63b8ff" points="729.22,-14.85 718.68,-15.89 727.57,-21.65 729.22,-14.85"/>
</g>
</g>
</svg>
        <g id="navigator" transform="translate(0 0)" fill="#404254">
                <rect fill="#f2f5e9" fill-opacity="0.5" stroke="#606060" stroke-width=".5" x="0" y="0" width="60" height="60"/>
                <use id="zoomplus" xlink:href="#zoomPlus" x="17" y="9" onmousedown="handleZoom(evt,'in')"/>
                <use id="zoomminus" xlink:href="#zoomMin" x="42" y="9" onmousedown="handleZoom(evt,'out')"/>
                <use id="reset" xlink:href="#resetDef" x="30" y="36" onmousedown="handleReset()"/>
                <g id="arrowUp" xlink:href="#dirArrow" transform="translate(30 24)" onmousedown="handlePan(0,-1)">
                  <use xlink:href="#rim" fill="#404040">
                        <set attributeName="fill" to="#808080" begin="arrowUp.mouseover" end="arrowUp.mouseout"/>
                  </use>
                  <path fill="none" stroke="white" stroke-width="1.5" d="M0,-3.0v7 M-2.5,-0.5L0,-3.0L2.5,-0.5"/>
                </g>
                <g id="arrowRight" xlink:href="#dirArrow" transform="rotate(90) translate(36 -43)" onmousedown="handlePan(1,0)">
                  <use xlink:href="#rim" fill="#404040">
                        <set attributeName="fill" to="#808080" begin="arrowRight.mouseover" end="arrowRight.mouseout"/>
                  </use>
                  <path fill="none" stroke="white" stroke-width="1.5" d="M0,-3.0v7 M-2.5,-0.5L0,-3.0L2.5,-0.5"/>
                </g>
                <g id="arrowDown" xlink:href="#dirArrow" transform="rotate(180) translate(-30 -48)" onmousedown="handlePan(0,1)">
                  <use xlink:href="#rim" fill="#404040">
                        <set attributeName="fill" to="#808080" begin="arrowDown.mouseover" end="arrowDown.mouseout"/>
                  </use>
                  <path fill="none" stroke="white" stroke-width="1.5" d="M0,-3.0v7 M-2.5,-0.5L0,-3.0L2.5,-0.5"/>
                </g>
                <g id="arrowLeft" xlink:href="#dirArrow" transform="rotate(270) translate(-36 17)" onmousedown="handlePan(-1,0)">
                  <use xlink:href="#rim" fill="#404040">
                        <set attributeName="fill" to="#808080" begin="arrowLeft.mouseover" end="arrowLeft.mouseout"/>
                  </use>
                  <path fill="none" stroke="white" stroke-width="1.5" d="M0,-3.0v7 M-2.5,-0.5L0,-3.0L2.5,-0.5"/>
                </g>
        </g>
        <svg viewBox="0 0 15 15" width="100%" height="30px" preserveAspectRatio="xMaxYMin meet">
         <g id="arrow_out" transform="scale(0.3 0.3)">
          <a xlink:href="interpreter_8h__incl_org.svg" target="_base">
           <rect id="button" ry="5" rx="5" y="6" x="6" height="38" width="38"
                fill="#f2f5e9" fill-opacity="0.5" stroke="#606060" stroke-width="1.0"/>
           <path id="arrow"
             d="M 11.500037,31.436501 C 11.940474,20.09759 22.043105,11.32322 32.158766,21.979434 L 37.068811,17.246167 C 37.068811,17.246167 37.088388,32 37.088388,32 L 22.160133,31.978069 C 22.160133,31.978069 26.997745,27.140456 26.997745,27.140456 C 18.528582,18.264221 13.291696,25.230495 11.500037,31.436501 z"
             style="fill:#404040;"/>
          </a>
         </g>
        </svg>
</svg>
