<?xml version="1.0" encoding="UTF-8" standalone="no"?>
<!DOCTYPE svg PUBLIC "-//W3C//DTD SVG 1.1//EN"
 "http://www.w3.org/Graphics/SVG/1.1/DTD/svg11.dtd">
<!-- Generated by graphviz version 7.1.0 (20230121.1956)
 -->
<!-- Title: src/core/evaluation/interpreter.cpp Pages: 1 -->
<!--zoomable 511 -->
<svg id="main" version="1.1" xmlns="http://www.w3.org/2000/svg" xmlns:xlink="http://www.w3.org/1999/xlink" xml:space="preserve" onload="init(evt)">
<style type="text/css"><![CDATA[
.edge:hover path { stroke: red; }
.edge:hover polygon { stroke: red; fill: red; }
]]></style>
<script type="text/javascript"><![CDATA[
var edges = document.getElementsByTagName('g');
if (edges && edges.length) {
  for (var i=0;i<edges.length;i++) {
    if (edges[i].id.substr(0,4)=='edge') {
      edges[i].setAttribute('class','edge');
    }
  }
}
]]></script>
        <defs>
                <circle id="rim" cx="0" cy="0" r="7"/>
                <circle id="rim2" cx="0" cy="0" r="3.5"/>
                <g id="zoomPlus">
                        <use xlink:href="#rim" fill="#404040">
                                <set attributeName="fill" to="#808080" begin="zoomplus.mouseover" end="zoomplus.mouseout"/>
                        </use>
                        <path d="M-4,0h8M0,-4v8" fill="none" stroke="white" stroke-width="1.5" pointer-events="none"/>
                </g>
                <g id="zoomMin">
                        <use xlink:href="#rim" fill="#404040">
                                <set attributeName="fill" to="#808080" begin="zoomminus.mouseover" end="zoomminus.mouseout"/>
                        </use>
                        <path d="M-4,0h8" fill="none" stroke="white" stroke-width="1.5" pointer-events="none"/>
                </g>
                <g id="dirArrow">
                        <path fill="none" stroke="white" stroke-width="1.5" d="M0,-3.0v7 M-2.5,-0.5L0,-3.0L2.5,-0.5"/>
                </g>
               <g id="resetDef">
                       <use xlink:href="#rim2" fill="#404040">
                               <set attributeName="fill" to="#808080" begin="reset.mouseover" end="reset.mouseout"/>
                       </use>
               </g>
        </defs>

<script type="text/javascript">
var viewWidth = 1413;
var viewHeight = 511;
var sectionId = 'dynsection-0';
</script>
<script xlink:href="svgpan.js"/>
<svg id="graph" class="graph">
<g id="viewport">
<title>src/core/evaluation/interpreter.cpp</title>
<!-- Node1 -->
<g id="node1" class="node">
<title>Node1</title>
<g id="a_node1"><a xlink:title=" ">
<polygon fill="#999999" stroke="#666666" points="690.5,-503 591.5,-503 591.5,-473 690.5,-473 690.5,-503"/>
<text text-anchor="start" x="599.5" y="-491" font-family="Helvetica,sans-Serif" font-size="10.00">src/core/evaluation</text>
<text text-anchor="middle" x="641" y="-480" font-family="Helvetica,sans-Serif" font-size="10.00">/interpreter.cpp</text>
</a>
</g>
</g>
<!-- Node2 -->
<g id="node2" class="node">
<title>Node2</title>
<g id="a_node2"><a xlink:href="interpreter_8h.html" target="_top" xlink:title=" ">
<polygon fill="white" stroke="#666666" points="316,-437 248,-437 248,-418 316,-418 316,-437"/>
<text text-anchor="middle" x="282" y="-425" font-family="Helvetica,sans-Serif" font-size="10.00">interpreter.h</text>
</a>
</g>
</g>
<!-- Node1&#45;&gt;Node2 -->
<g id="edge1" class="edge">
<title>Node1&#45;&gt;Node2</title>
<path fill="none" stroke="#63b8ff" d="M591.08,-478.87C521.15,-467.47 395.01,-446.92 327.52,-435.92"/>
<polygon fill="#63b8ff" stroke="#63b8ff" points="328.35,-432.51 317.92,-434.35 327.22,-439.42 328.35,-432.51"/>
</g>
<!-- Node19 -->
<g id="node19" class="node">
<title>Node19</title>
<g id="a_node19"><a xlink:title=" ">
<polygon fill="#e0e0e0" stroke="#999999" points="286,-184 234,-184 234,-165 286,-165 286,-184"/>
<text text-anchor="middle" x="260" y="-172" font-family="Helvetica,sans-Serif" font-size="10.00">memory</text>
</a>
</g>
</g>
<!-- Node1&#45;&gt;Node19 -->
<g id="edge57" class="edge">
<title>Node1&#45;&gt;Node19</title>
<path fill="none" stroke="#63b8ff" d="M591.28,-483.91C514.81,-478.46 364.08,-464.98 239,-437 162.33,-419.85 135.4,-427 71,-382 31.23,-354.2 -7.2,-326.84 19,-286 64.25,-215.47 167.02,-189.37 222.62,-180.18"/>
<polygon fill="#63b8ff" stroke="#63b8ff" points="222.88,-183.68 232.23,-178.7 221.81,-176.76 222.88,-183.68"/>
</g>
<!-- Node29 -->
<g id="node29" class="node">
<title>Node29</title>
<g id="a_node29"><a xlink:href="config_8h.html" target="_top" xlink:title=" ">
<polygon fill="white" stroke="#666666" points="917.5,-244.5 798.5,-244.5 798.5,-225.5 917.5,-225.5 917.5,-244.5"/>
<text text-anchor="middle" x="858" y="-232.5" font-family="Helvetica,sans-Serif" font-size="10.00">core/constants/config.h</text>
</a>
</g>
</g>
<!-- Node1&#45;&gt;Node29 -->
<g id="edge58" class="edge">
<title>Node1&#45;&gt;Node29</title>
<path fill="none" stroke="#63b8ff" d="M653.29,-472.79C690.53,-429.71 802.09,-300.68 842.86,-253.51"/>
<polygon fill="#63b8ff" stroke="#63b8ff" points="845.35,-255.98 849.24,-246.13 840.06,-251.4 845.35,-255.98"/>
</g>
<!-- Node30 -->
<g id="node30" class="node">
<title>Node30</title>
<g id="a_node30"><a xlink:href="symbol__table_8h.html" target="_top" xlink:title=" ">
<polygon fill="white" stroke="#666666" points="896,-437 792,-437 792,-418 896,-418 896,-437"/>
<text text-anchor="middle" x="844" y="-425" font-family="Helvetica,sans-Serif" font-size="10.00">core/symbol_table.h</text>
</a>
</g>
</g>
<!-- Node1&#45;&gt;Node30 -->
<g id="edge61" class="edge">
<title>Node1&#45;&gt;Node30</title>
<path fill="none" stroke="#63b8ff" d="M690.92,-472.61C725.05,-462.78 769.78,-449.89 802.06,-440.59"/>
<polygon fill="#63b8ff" stroke="#63b8ff" points="802.83,-444.01 811.47,-437.87 800.89,-437.28 802.83,-444.01"/>
</g>
<!-- Node33 -->
<g id="node33" class="node">
<title>Node33</title>
<g id="a_node33"><a xlink:href="parser_8h.html" target="_top" xlink:title=" ">
<polygon fill="white" stroke="#666666" points="1169.5,-382 1056.5,-382 1056.5,-352 1169.5,-352 1169.5,-382"/>
<text text-anchor="start" x="1064.5" y="-370" font-family="Helvetica,sans-Serif" font-size="10.00">core/evaluation/parser</text>
<text text-anchor="middle" x="1113" y="-359" font-family="Helvetica,sans-Serif" font-size="10.00">/parser.h</text>
</a>
</g>
</g>
<!-- Node1&#45;&gt;Node33 -->
<g id="edge72" class="edge">
<title>Node1&#45;&gt;Node33</title>
<path fill="none" stroke="#63b8ff" d="M690.58,-479.63C743.96,-471.23 831.17,-456.15 905,-437 960.27,-422.67 1022.23,-401.42 1064.04,-386.3"/>
<polygon fill="#63b8ff" stroke="#63b8ff" points="1065.12,-389.63 1073.32,-382.92 1062.72,-383.05 1065.12,-389.63"/>
</g>
<!-- Node35 -->
<g id="node35" class="node">
<title>Node35</title>
<g id="a_node35"><a xlink:href="defined__function_8h.html" target="_top" xlink:title=" ">
<polygon fill="white" stroke="#666666" points="496.5,-382 365.5,-382 365.5,-352 496.5,-352 496.5,-382"/>
<text text-anchor="start" x="373.5" y="-370" font-family="Helvetica,sans-Serif" font-size="10.00">core/evaluation/operations</text>
<text text-anchor="middle" x="431" y="-359" font-family="Helvetica,sans-Serif" font-size="10.00">/defined_function.h</text>
</a>
</g>
</g>
<!-- Node1&#45;&gt;Node35 -->
<g id="edge80" class="edge">
<title>Node1&#45;&gt;Node35</title>
<path fill="none" stroke="#63b8ff" d="M615.67,-472.65C578.38,-451.52 508.57,-411.96 466.29,-388"/>
<polygon fill="#63b8ff" stroke="#63b8ff" points="468.16,-385.04 457.74,-383.15 464.71,-391.13 468.16,-385.04"/>
</g>
<!-- Node3 -->
<g id="node3" class="node">
<title>Node3</title>
<g id="a_node3"><a xlink:href="node__visitor_8h.html" target="_top" xlink:title=" ">
<polygon fill="white" stroke="#666666" points="198.5,-382 91.5,-382 91.5,-352 198.5,-352 198.5,-382"/>
<text text-anchor="start" x="99.5" y="-370" font-family="Helvetica,sans-Serif" font-size="10.00">core/evaluation/node</text>
<text text-anchor="middle" x="145" y="-359" font-family="Helvetica,sans-Serif" font-size="10.00">_visitor.h</text>
</a>
</g>
</g>
<!-- Node2&#45;&gt;Node3 -->
<g id="edge2" class="edge">
<title>Node2&#45;&gt;Node3</title>
<path fill="none" stroke="#63b8ff" d="M261.19,-417.62C242.15,-409.48 213.35,-397.19 189.19,-386.87"/>
<polygon fill="#63b8ff" stroke="#63b8ff" points="190.78,-383.74 180.21,-383.03 188.03,-390.18 190.78,-383.74"/>
</g>
<!-- Node12 -->
<g id="node12" class="node">
<title>Node12</title>
<g id="a_node12"><a xlink:href="token__type_8h.html" target="_top" xlink:title=" ">
<polygon fill="white" stroke="#666666" points="1113.5,-74 1040.5,-74 1040.5,-55 1113.5,-55 1113.5,-74"/>
<text text-anchor="middle" x="1077" y="-62" font-family="Helvetica,sans-Serif" font-size="10.00">token_type.h</text>
</a>
</g>
</g>
<!-- Node2&#45;&gt;Node12 -->
<g id="edge35" class="edge">
<title>Node2&#45;&gt;Node12</title>
<path fill="none" stroke="#63b8ff" d="M247.54,-421.91C195.71,-414.55 100.62,-399.21 71,-382 29.9,-358.12 0,-349.54 0,-302 0,-302 0,-302 0,-173.5 0,-133.74 26.64,-126.09 63,-110 85.33,-100.12 829.6,-73.97 1028.53,-67.15"/>
<polygon fill="#63b8ff" stroke="#63b8ff" points="1028.64,-70.65 1038.51,-66.81 1028.4,-63.65 1028.64,-70.65"/>
</g>
<!-- Node21 -->
<g id="node21" class="node">
<title>Node21</title>
<g id="a_node21"><a xlink:href="functions_8h.html" target="_top" xlink:title=" ">
<polygon fill="white" stroke="#666666" points="159.5,-316 28.5,-316 28.5,-286 159.5,-286 159.5,-316"/>
<text text-anchor="start" x="36.5" y="-304" font-family="Helvetica,sans-Serif" font-size="10.00">core/evaluation/operations</text>
<text text-anchor="middle" x="94" y="-293" font-family="Helvetica,sans-Serif" font-size="10.00">/functions.h</text>
</a>
</g>
</g>
<!-- Node2&#45;&gt;Node21 -->
<g id="edge36" class="edge">
<title>Node2&#45;&gt;Node21</title>
<path fill="none" stroke="#63b8ff" d="M247.88,-423.94C196.32,-419.29 102.42,-407.46 82,-382 69.67,-366.63 74.46,-344.09 81.3,-326.84"/>
<polygon fill="#63b8ff" stroke="#63b8ff" points="84.46,-328.35 85.33,-317.79 78.07,-325.51 84.46,-328.35"/>
</g>
<!-- Node24 -->
<g id="node24" class="node">
<title>Node24</title>
<g id="a_node24"><a xlink:href="monadic__operators_8h.html" target="_top" xlink:title=" ">
<polygon fill="white" stroke="#666666" points="645.5,-382 514.5,-382 514.5,-352 645.5,-352 645.5,-382"/>
<text text-anchor="start" x="522.5" y="-370" font-family="Helvetica,sans-Serif" font-size="10.00">core/evaluation/operations</text>
<text text-anchor="middle" x="580" y="-359" font-family="Helvetica,sans-Serif" font-size="10.00">/monadic_operators.h</text>
</a>
</g>
</g>
<!-- Node2&#45;&gt;Node24 -->
<g id="edge42" class="edge">
<title>Node2&#45;&gt;Node24</title>
<path fill="none" stroke="#63b8ff" d="M316.48,-419.73C361.84,-410.83 442.86,-394.92 503.13,-383.09"/>
<polygon fill="#63b8ff" stroke="#63b8ff" points="503.5,-386.58 512.64,-381.22 502.15,-379.72 503.5,-386.58"/>
</g>
<!-- Node25 -->
<g id="node25" class="node">
<title>Node25</title>
<g id="a_node25"><a xlink:href="dyadic__operators_8h.html" target="_top" xlink:title=" ">
<polygon fill="white" stroke="#666666" points="347.5,-382 216.5,-382 216.5,-352 347.5,-352 347.5,-382"/>
<text text-anchor="start" x="224.5" y="-370" font-family="Helvetica,sans-Serif" font-size="10.00">core/evaluation/operations</text>
<text text-anchor="middle" x="282" y="-359" font-family="Helvetica,sans-Serif" font-size="10.00">/dyadic_operators.h</text>
</a>
</g>
</g>
<!-- Node2&#45;&gt;Node25 -->
<g id="edge46" class="edge">
<title>Node2&#45;&gt;Node25</title>
<path fill="none" stroke="#63b8ff" d="M282,-417.87C282,-411.4 282,-402.2 282,-393.45"/>
<polygon fill="#63b8ff" stroke="#63b8ff" points="285.5,-393.63 282,-383.63 278.5,-393.63 285.5,-393.63"/>
</g>
<!-- Node26 -->
<g id="node26" class="node">
<title>Node26</title>
<g id="a_node26"><a xlink:href="error_8h.html" target="_top" xlink:title=" ">
<polygon fill="white" stroke="#666666" points="758.5,-184 693.5,-184 693.5,-165 758.5,-165 758.5,-184"/>
<text text-anchor="middle" x="726" y="-172" font-family="Helvetica,sans-Serif" font-size="10.00">core/error.h</text>
</a>
</g>
</g>
<!-- Node2&#45;&gt;Node26 -->
<g id="edge49" class="edge">
<title>Node2&#45;&gt;Node26</title>
<path fill="none" stroke="#63b8ff" d="M316.31,-426.89C398.28,-427.12 602.48,-423.42 654,-382 712.33,-335.1 723.52,-237.98 725.58,-195.79"/>
<polygon fill="#63b8ff" stroke="#63b8ff" points="729.08,-196 725.92,-185.88 722.08,-195.76 729.08,-196"/>
</g>
<!-- Node4 -->
<g id="node4" class="node">
<title>Node4</title>
<g id="a_node4"><a xlink:href="array_8h.html" target="_top" xlink:title=" ">
<polygon fill="white" stroke="#666666" points="437.5,-129 370.5,-129 370.5,-110 437.5,-110 437.5,-129"/>
<text text-anchor="middle" x="404" y="-117" font-family="Helvetica,sans-Serif" font-size="10.00">core/array.h</text>
</a>
</g>
</g>
<!-- Node3&#45;&gt;Node4 -->
<g id="edge3" class="edge">
<title>Node3&#45;&gt;Node4</title>
<path fill="none" stroke="#63b8ff" d="M152.57,-351.92C157.57,-342.09 163.94,-328.54 168,-316 190.11,-247.76 166,-205.8 225,-165 264.86,-137.44 320.15,-126.91 358.7,-122.91"/>
<polygon fill="#63b8ff" stroke="#63b8ff" points="358.94,-126.4 368.58,-122.01 358.3,-119.43 358.94,-126.4"/>
</g>
<!-- Node10 -->
<g id="node10" class="node">
<title>Node10</title>
<g id="a_node10"><a xlink:href="operation_8h.html" target="_top" xlink:title=" ">
<polygon fill="white" stroke="#666666" points="327.5,-250 196.5,-250 196.5,-220 327.5,-220 327.5,-250"/>
<text text-anchor="start" x="204.5" y="-238" font-family="Helvetica,sans-Serif" font-size="10.00">core/evaluation/operations</text>
<text text-anchor="middle" x="262" y="-227" font-family="Helvetica,sans-Serif" font-size="10.00">/operation.h</text>
</a>
</g>
</g>
<!-- Node3&#45;&gt;Node10 -->
<g id="edge9" class="edge">
<title>Node3&#45;&gt;Node10</title>
<path fill="none" stroke="#63b8ff" d="M163.33,-351.57C174.96,-342.03 190.01,-328.94 202,-316 218.41,-298.28 234.71,-276.19 246.16,-259.72"/>
<polygon fill="#63b8ff" stroke="#63b8ff" points="249.01,-261.75 251.78,-251.52 243.24,-257.8 249.01,-261.75"/>
</g>
<!-- Node20 -->
<g id="node20" class="node">
<title>Node20</title>
<g id="a_node20"><a xlink:href="ast_8h.html" target="_top" xlink:title=" ">
<polygon fill="white" stroke="#666666" points="551.5,-310.5 444.5,-310.5 444.5,-291.5 551.5,-291.5 551.5,-310.5"/>
<text text-anchor="middle" x="498" y="-298.5" font-family="Helvetica,sans-Serif" font-size="10.00">core/evaluation/ast.h</text>
</a>
</g>
</g>
<!-- Node3&#45;&gt;Node20 -->
<g id="edge26" class="edge">
<title>Node3&#45;&gt;Node20</title>
<path fill="none" stroke="#63b8ff" d="M198.73,-353.69C201.53,-353.1 204.29,-352.54 207,-352 284.46,-336.61 374.09,-321.63 433.18,-312.15"/>
<polygon fill="#63b8ff" stroke="#63b8ff" points="433.4,-315.66 442.72,-310.62 432.29,-308.75 433.4,-315.66"/>
</g>
<!-- Node5 -->
<g id="node5" class="node">
<title>Node5</title>
<g id="a_node5"><a xlink:href="datatypes_8h.html" target="_top" xlink:title=" ">
<polygon fill="white" stroke="#666666" points="652,-74 584,-74 584,-55 652,-55 652,-74"/>
<text text-anchor="middle" x="618" y="-62" font-family="Helvetica,sans-Serif" font-size="10.00">datatypes.h</text>
</a>
</g>
</g>
<!-- Node4&#45;&gt;Node5 -->
<g id="edge4" class="edge">
<title>Node4&#45;&gt;Node5</title>
<path fill="none" stroke="#63b8ff" d="M437.91,-110.1C474.24,-101.1 532.12,-86.77 572.42,-76.79"/>
<polygon fill="#63b8ff" stroke="#63b8ff" points="573.21,-80.2 582.07,-74.4 571.52,-73.4 573.21,-80.2"/>
</g>
<!-- Node9 -->
<g id="node9" class="node">
<title>Node9</title>
<g id="a_node9"><a xlink:title=" ">
<polygon fill="#e0e0e0" stroke="#999999" points="427,-74 381,-74 381,-55 427,-55 427,-74"/>
<text text-anchor="middle" x="404" y="-62" font-family="Helvetica,sans-Serif" font-size="10.00">variant</text>
</a>
</g>
</g>
<!-- Node4&#45;&gt;Node9 -->
<g id="edge8" class="edge">
<title>Node4&#45;&gt;Node9</title>
<path fill="none" stroke="#63b8ff" d="M404,-109.75C404,-103.27 404,-94.16 404,-85.9"/>
<polygon fill="#63b8ff" stroke="#63b8ff" points="407.5,-85.96 404,-75.96 400.5,-85.96 407.5,-85.96"/>
</g>
<!-- Node6 -->
<g id="node6" class="node">
<title>Node6</title>
<g id="a_node6"><a xlink:title=" ">
<polygon fill="#e0e0e0" stroke="#999999" points="1137,-19 1093,-19 1093,0 1137,0 1137,-19"/>
<text text-anchor="middle" x="1115" y="-7" font-family="Helvetica,sans-Serif" font-size="10.00">vector</text>
</a>
</g>
</g>
<!-- Node5&#45;&gt;Node6 -->
<g id="edge5" class="edge">
<title>Node5&#45;&gt;Node6</title>
<path fill="none" stroke="#63b8ff" d="M652.16,-59.86C743.25,-50.14 991.14,-23.71 1081.49,-14.07"/>
<polygon fill="#63b8ff" stroke="#63b8ff" points="1081.6,-17.58 1091.17,-13.04 1080.85,-10.62 1081.6,-17.58"/>
</g>
<!-- Node7 -->
<g id="node7" class="node">
<title>Node7</title>
<g id="a_node7"><a xlink:title=" ">
<polygon fill="#e0e0e0" stroke="#999999" points="784.5,-19 743.5,-19 743.5,0 784.5,0 784.5,-19"/>
<text text-anchor="middle" x="764" y="-7" font-family="Helvetica,sans-Serif" font-size="10.00">string</text>
</a>
</g>
</g>
<!-- Node5&#45;&gt;Node7 -->
<g id="edge6" class="edge">
<title>Node5&#45;&gt;Node7</title>
<path fill="none" stroke="#63b8ff" d="M642.77,-54.51C667.54,-45.52 705.73,-31.65 732.61,-21.9"/>
<polygon fill="#63b8ff" stroke="#63b8ff" points="733.74,-25.21 741.94,-18.51 731.35,-18.63 733.74,-25.21"/>
</g>
<!-- Node8 -->
<g id="node8" class="node">
<title>Node8</title>
<g id="a_node8"><a xlink:title=" ">
<polygon fill="#e0e0e0" stroke="#999999" points="644.5,-19 591.5,-19 591.5,0 644.5,0 644.5,-19"/>
<text text-anchor="middle" x="618" y="-7" font-family="Helvetica,sans-Serif" font-size="10.00">complex</text>
</a>
</g>
</g>
<!-- Node5&#45;&gt;Node8 -->
<g id="edge7" class="edge">
<title>Node5&#45;&gt;Node8</title>
<path fill="none" stroke="#63b8ff" d="M618,-54.75C618,-48.27 618,-39.16 618,-30.9"/>
<polygon fill="#63b8ff" stroke="#63b8ff" points="621.5,-30.96 618,-20.96 614.5,-30.96 621.5,-30.96"/>
</g>
<!-- Node10&#45;&gt;Node4 -->
<g id="edge11" class="edge">
<title>Node10&#45;&gt;Node4</title>
<path fill="none" stroke="#63b8ff" d="M279.98,-219.63C306.69,-198.28 356.64,-158.36 384.3,-136.25"/>
<polygon fill="#63b8ff" stroke="#63b8ff" points="386.27,-139.15 391.9,-130.17 381.9,-133.68 386.27,-139.15"/>
</g>
<!-- Node10&#45;&gt;Node5 -->
<g id="edge10" class="edge">
<title>Node10&#45;&gt;Node5</title>
<path fill="none" stroke="#63b8ff" d="M244.89,-219.51C230.12,-205.2 212.92,-182.92 225,-165 263.91,-107.3 477.21,-79.37 572.26,-69.65"/>
<polygon fill="#63b8ff" stroke="#63b8ff" points="572.41,-73.15 582.01,-68.68 571.71,-66.19 572.41,-73.15"/>
</g>
<!-- Node11 -->
<g id="node11" class="node">
<title>Node11</title>
<g id="a_node11"><a xlink:href="token_8h.html" target="_top" xlink:title=" ">
<polygon fill="white" stroke="#666666" points="955.5,-184 884.5,-184 884.5,-165 955.5,-165 955.5,-184"/>
<text text-anchor="middle" x="920" y="-172" font-family="Helvetica,sans-Serif" font-size="10.00">core/token.h</text>
</a>
</g>
</g>
<!-- Node10&#45;&gt;Node11 -->
<g id="edge12" class="edge">
<title>Node10&#45;&gt;Node11</title>
<path fill="none" stroke="#63b8ff" d="M327.8,-228.15C460.59,-216.34 757.78,-189.92 873.05,-179.67"/>
<polygon fill="#63b8ff" stroke="#63b8ff" points="873.11,-183.18 882.76,-178.81 872.49,-176.21 873.11,-183.18"/>
</g>
<!-- Node10&#45;&gt;Node19 -->
<g id="edge25" class="edge">
<title>Node10&#45;&gt;Node19</title>
<path fill="none" stroke="#63b8ff" d="M261.51,-219.54C261.26,-212.34 260.96,-203.53 260.69,-195.68"/>
<polygon fill="#63b8ff" stroke="#63b8ff" points="264.19,-195.56 260.35,-185.69 257.19,-195.8 264.19,-195.56"/>
</g>
<!-- Node11&#45;&gt;Node4 -->
<g id="edge17" class="edge">
<title>Node11&#45;&gt;Node4</title>
<path fill="none" stroke="#63b8ff" d="M884.13,-169.82C792.56,-160.41 550.31,-135.53 449.27,-125.15"/>
<polygon fill="#63b8ff" stroke="#63b8ff" points="449.76,-121.68 439.45,-124.14 449.04,-128.64 449.76,-121.68"/>
</g>
<!-- Node11&#45;&gt;Node5 -->
<g id="edge15" class="edge">
<title>Node11&#45;&gt;Node5</title>
<path fill="none" stroke="#63b8ff" d="M955.82,-165.02C992.68,-154.69 1041.74,-135.41 1019,-110 1013.11,-103.42 767.51,-79.58 663.64,-69.77"/>
<polygon fill="#63b8ff" stroke="#63b8ff" points="664.07,-66.29 653.79,-68.84 663.41,-73.26 664.07,-66.29"/>
</g>
<!-- Node11&#45;&gt;Node12 -->
<g id="edge13" class="edge">
<title>Node11&#45;&gt;Node12</title>
<path fill="none" stroke="#63b8ff" d="M955.84,-165.2C990.22,-156.6 1038.92,-142.55 1053,-129 1064.96,-117.49 1071.03,-99.42 1074.06,-85.49"/>
<polygon fill="#63b8ff" stroke="#63b8ff" points="1077.51,-86.12 1075.81,-75.67 1070.61,-84.9 1077.51,-86.12"/>
</g>
<!-- Node14 -->
<g id="node14" class="node">
<title>Node14</title>
<g id="a_node14"><a xlink:title=" ">
<polygon fill="#e0e0e0" stroke="#999999" points="933.5,-129 850.5,-129 850.5,-110 933.5,-110 933.5,-129"/>
<text text-anchor="middle" x="892" y="-117" font-family="Helvetica,sans-Serif" font-size="10.00">uni_algo/conv.h</text>
</a>
</g>
</g>
<!-- Node11&#45;&gt;Node14 -->
<g id="edge16" class="edge">
<title>Node11&#45;&gt;Node14</title>
<path fill="none" stroke="#63b8ff" d="M915.38,-164.75C911.75,-157.88 906.57,-148.08 902.01,-139.45"/>
<polygon fill="#63b8ff" stroke="#63b8ff" points="905.2,-137.99 897.43,-130.78 899.01,-141.26 905.2,-137.99"/>
</g>
<!-- Node15 -->
<g id="node15" class="node">
<title>Node15</title>
<g id="a_node15"><a xlink:href="conversion_8h.html" target="_top" xlink:title=" ">
<polygon fill="white" stroke="#666666" points="1301,-129 1173,-129 1173,-110 1301,-110 1301,-129"/>
<text text-anchor="middle" x="1237" y="-117" font-family="Helvetica,sans-Serif" font-size="10.00">core/helpers/conversion.h</text>
</a>
</g>
</g>
<!-- Node11&#45;&gt;Node15 -->
<g id="edge18" class="edge">
<title>Node11&#45;&gt;Node15</title>
<path fill="none" stroke="#63b8ff" d="M955.75,-167.52C1008.17,-158.76 1106.76,-142.27 1172.17,-131.34"/>
<polygon fill="#63b8ff" stroke="#63b8ff" points="1172.39,-134.85 1181.68,-129.75 1171.24,-127.95 1172.39,-134.85"/>
</g>
<!-- Node16 -->
<g id="node16" class="node">
<title>Node16</title>
<g id="a_node16"><a xlink:title=" ">
<polygon fill="#e0e0e0" stroke="#999999" points="832,-129 792,-129 792,-110 832,-110 832,-129"/>
<text text-anchor="middle" x="812" y="-117" font-family="Helvetica,sans-Serif" font-size="10.00">utility</text>
</a>
</g>
</g>
<!-- Node11&#45;&gt;Node16 -->
<g id="edge22" class="edge">
<title>Node11&#45;&gt;Node16</title>
<path fill="none" stroke="#63b8ff" d="M901.68,-164.51C884.82,-156.24 859.57,-143.84 840.15,-134.31"/>
<polygon fill="#63b8ff" stroke="#63b8ff" points="841.93,-131.29 831.41,-130.02 838.84,-137.57 841.93,-131.29"/>
</g>
<!-- Node17 -->
<g id="node17" class="node">
<title>Node17</title>
<g id="a_node17"><a xlink:title=" ">
<polygon fill="#e0e0e0" stroke="#999999" points="1155,-129 1105,-129 1105,-110 1155,-110 1155,-129"/>
<text text-anchor="middle" x="1130" y="-117" font-family="Helvetica,sans-Serif" font-size="10.00">optional</text>
</a>
</g>
</g>
<!-- Node11&#45;&gt;Node17 -->
<g id="edge23" class="edge">
<title>Node11&#45;&gt;Node17</title>
<path fill="none" stroke="#63b8ff" d="M955.62,-164.51C994.18,-154.78 1055.32,-139.35 1094.02,-129.58"/>
<polygon fill="#63b8ff" stroke="#63b8ff" points="1094.47,-133.08 1103.31,-127.24 1092.76,-126.29 1094.47,-133.08"/>
</g>
<!-- Node18 -->
<g id="node18" class="node">
<title>Node18</title>
<g id="a_node18"><a xlink:href="position_8h.html" target="_top" xlink:title=" ">
<polygon fill="white" stroke="#666666" points="1010.5,-129 951.5,-129 951.5,-110 1010.5,-110 1010.5,-129"/>
<text text-anchor="middle" x="981" y="-117" font-family="Helvetica,sans-Serif" font-size="10.00">position.h</text>
</a>
</g>
</g>
<!-- Node11&#45;&gt;Node18 -->
<g id="edge24" class="edge">
<title>Node11&#45;&gt;Node18</title>
<path fill="none" stroke="#63b8ff" d="M930.35,-164.51C939.08,-156.93 951.79,-145.88 962.3,-136.75"/>
<polygon fill="#63b8ff" stroke="#63b8ff" points="964.41,-139.55 969.66,-130.35 959.82,-134.27 964.41,-139.55"/>
</g>
<!-- Node13 -->
<g id="node13" class="node">
<title>Node13</title>
<g id="a_node13"><a xlink:title=" ">
<polygon fill="#e0e0e0" stroke="#999999" points="493,-19 439,-19 439,0 493,0 493,-19"/>
<text text-anchor="middle" x="466" y="-7" font-family="Helvetica,sans-Serif" font-size="10.00">iostream</text>
</a>
</g>
</g>
<!-- Node12&#45;&gt;Node13 -->
<g id="edge14" class="edge">
<title>Node12&#45;&gt;Node13</title>
<path fill="none" stroke="#63b8ff" d="M1040.16,-60.3C931.87,-50.91 615.3,-23.45 504.69,-13.86"/>
<polygon fill="#63b8ff" stroke="#63b8ff" points="505.21,-10.39 494.94,-13.01 504.6,-17.36 505.21,-10.39"/>
</g>
<!-- Node15&#45;&gt;Node5 -->
<g id="edge20" class="edge">
<title>Node15&#45;&gt;Node5</title>
<path fill="none" stroke="#63b8ff" d="M1172.53,-110.87C1169.65,-110.57 1166.79,-110.28 1164,-110 967.42,-90.57 917.88,-90.12 721,-74 702.22,-72.46 681.52,-70.76 663.63,-69.28"/>
<polygon fill="#63b8ff" stroke="#63b8ff" points="664.1,-65.8 653.84,-68.47 663.52,-72.78 664.1,-65.8"/>
</g>
<!-- Node15&#45;&gt;Node7 -->
<g id="edge19" class="edge">
<title>Node15&#45;&gt;Node7</title>
<path fill="none" stroke="#63b8ff" d="M1224.63,-109.56C1204.32,-95.39 1162.13,-68.04 1122,-55 1006.16,-17.37 859.73,-11.23 796.03,-10.45"/>
<polygon fill="#63b8ff" stroke="#63b8ff" points="796.32,-6.96 786.29,-10.38 796.26,-13.96 796.32,-6.96"/>
</g>
<!-- Node15&#45;&gt;Node12 -->
<g id="edge21" class="edge">
<title>Node15&#45;&gt;Node12</title>
<path fill="none" stroke="#63b8ff" d="M1209.86,-109.51C1183.69,-100.84 1143.86,-87.65 1114.64,-77.97"/>
<polygon fill="#63b8ff" stroke="#63b8ff" points="1116.04,-74.74 1105.44,-74.92 1113.84,-81.39 1116.04,-74.74"/>
</g>
<!-- Node20&#45;&gt;Node4 -->
<g id="edge29" class="edge">
<title>Node20&#45;&gt;Node4</title>
<path fill="none" stroke="#63b8ff" d="M489.12,-291.01C471.55,-272.66 432.5,-228.82 414,-184 408.32,-170.23 405.84,-153.55 404.77,-140.74"/>
<polygon fill="#63b8ff" stroke="#63b8ff" points="408.28,-140.77 404.2,-130.99 401.29,-141.18 408.28,-140.77"/>
</g>
<!-- Node20&#45;&gt;Node5 -->
<g id="edge31" class="edge">
<title>Node20&#45;&gt;Node5</title>
<path fill="none" stroke="#63b8ff" d="M501.68,-291.2C505.79,-281.25 512.6,-264.55 518,-250 540.89,-188.33 529.04,-164.41 566,-110 573.59,-98.83 584.69,-88.8 594.69,-81.11"/>
<polygon fill="#63b8ff" stroke="#63b8ff" points="596.54,-84.09 602.56,-75.38 592.42,-78.43 596.54,-84.09"/>
</g>
<!-- Node20&#45;&gt;Node7 -->
<g id="edge27" class="edge">
<title>Node20&#45;&gt;Node7</title>
<path fill="none" stroke="#63b8ff" d="M498.71,-291.25C500.3,-270.94 504,-219 504,-175.5 504,-175.5 504,-175.5 504,-118.5 504,-76.17 537.46,-74.57 575,-55 625.96,-28.44 692.85,-17.52 731.86,-13.19"/>
<polygon fill="#63b8ff" stroke="#63b8ff" points="732.16,-16.68 741.76,-12.18 731.45,-9.71 732.16,-16.68"/>
</g>
<!-- Node20&#45;&gt;Node10 -->
<g id="edge33" class="edge">
<title>Node20&#45;&gt;Node10</title>
<path fill="none" stroke="#63b8ff" d="M464.94,-291.03C429.15,-281.33 371.2,-265.61 326.36,-253.45"/>
<polygon fill="#63b8ff" stroke="#63b8ff" points="327.3,-250.08 316.73,-250.84 325.46,-256.84 327.3,-250.08"/>
</g>
<!-- Node20&#45;&gt;Node11 -->
<g id="edge30" class="edge">
<title>Node20&#45;&gt;Node11</title>
<path fill="none" stroke="#63b8ff" d="M528.35,-291.05C602.7,-269.11 794.03,-212.66 878.67,-187.69"/>
<polygon fill="#63b8ff" stroke="#63b8ff" points="879.59,-191.07 888.19,-184.88 877.61,-184.36 879.59,-191.07"/>
</g>
<!-- Node20&#45;&gt;Node13 -->
<g id="edge28" class="edge">
<title>Node20&#45;&gt;Node13</title>
<path fill="none" stroke="#63b8ff" d="M482.22,-291.06C467.41,-282.09 445.3,-267.18 430,-250 388.83,-203.77 376.86,-188.84 361,-129 355.12,-106.83 370.97,-56.31 372,-55 385.81,-37.31 408.37,-26.31 427.93,-19.67"/>
<polygon fill="#63b8ff" stroke="#63b8ff" points="428.75,-23.08 437.26,-16.78 426.67,-16.4 428.75,-23.08"/>
</g>
<!-- Node20&#45;&gt;Node18 -->
<g id="edge34" class="edge">
<title>Node20&#45;&gt;Node18</title>
<path fill="none" stroke="#63b8ff" d="M515.04,-291.06C545.3,-275.39 610.61,-242.51 668,-220 763.75,-182.44 879.96,-148.41 940.26,-131.59"/>
<polygon fill="#63b8ff" stroke="#63b8ff" points="941.04,-135 949.74,-128.96 939.17,-128.26 941.04,-135"/>
</g>
<!-- Node20&#45;&gt;Node19 -->
<g id="edge32" class="edge">
<title>Node20&#45;&gt;Node19</title>
<path fill="none" stroke="#63b8ff" d="M472.93,-291.03C448.57,-281.94 410.86,-266.84 380,-250 359.22,-238.66 356,-232.65 336,-220 319.57,-209.61 300.72,-198.56 285.9,-190.07"/>
<polygon fill="#63b8ff" stroke="#63b8ff" points="287.65,-187.04 277.23,-185.14 284.19,-193.13 287.65,-187.04"/>
</g>
<!-- Node21&#45;&gt;Node10 -->
<g id="edge41" class="edge">
<title>Node21&#45;&gt;Node10</title>
<path fill="none" stroke="#63b8ff" d="M131.7,-285.64C155.94,-276.41 187.64,-264.33 213.71,-254.39"/>
<polygon fill="#63b8ff" stroke="#63b8ff" points="214.62,-257.8 222.72,-250.96 212.13,-251.25 214.62,-257.8"/>
</g>
<!-- Node22 -->
<g id="node22" class="node">
<title>Node22</title>
<g id="a_node22"><a xlink:href="pervade_8h.html" target="_top" xlink:title=" ">
<polygon fill="white" stroke="#666666" points="137.5,-184 78.5,-184 78.5,-165 137.5,-165 137.5,-184"/>
<text text-anchor="middle" x="108" y="-172" font-family="Helvetica,sans-Serif" font-size="10.00">pervade.h</text>
</a>
</g>
</g>
<!-- Node21&#45;&gt;Node22 -->
<g id="edge37" class="edge">
<title>Node21&#45;&gt;Node22</title>
<path fill="none" stroke="#63b8ff" d="M95.61,-285.72C98.1,-263.53 102.91,-220.73 105.75,-195.49"/>
<polygon fill="#63b8ff" stroke="#63b8ff" points="109.19,-196.21 106.83,-185.89 102.24,-195.43 109.19,-196.21"/>
</g>
<!-- Node22&#45;&gt;Node4 -->
<g id="edge38" class="edge">
<title>Node22&#45;&gt;Node4</title>
<path fill="none" stroke="#63b8ff" d="M137.69,-167.98C143.11,-166.98 148.73,-165.96 154,-165 225.63,-152.01 308.88,-137.26 358.95,-128.43"/>
<polygon fill="#63b8ff" stroke="#63b8ff" points="359.29,-131.92 368.53,-126.74 358.07,-125.03 359.29,-131.92"/>
</g>
<!-- Node22&#45;&gt;Node5 -->
<g id="edge39" class="edge">
<title>Node22&#45;&gt;Node5</title>
<path fill="none" stroke="#63b8ff" d="M116.31,-164.65C130.36,-150.34 160.37,-122.48 192,-110 260.4,-83.02 477.32,-71.17 572.5,-67.17"/>
<polygon fill="#63b8ff" stroke="#63b8ff" points="572.39,-70.68 582.24,-66.78 572.1,-63.69 572.39,-70.68"/>
</g>
<!-- Node23 -->
<g id="node23" class="node">
<title>Node23</title>
<g id="a_node23"><a xlink:title=" ">
<polygon fill="#e0e0e0" stroke="#999999" points="140,-129 72,-129 72,-110 140,-110 140,-129"/>
<text text-anchor="middle" x="106" y="-117" font-family="Helvetica,sans-Serif" font-size="10.00">pervade.tpp</text>
</a>
</g>
</g>
<!-- Node22&#45;&gt;Node23 -->
<g id="edge40" class="edge">
<title>Node22&#45;&gt;Node23</title>
<path fill="none" stroke="#63b8ff" d="M107.67,-164.75C107.43,-158.27 107.08,-149.16 106.77,-140.9"/>
<polygon fill="#63b8ff" stroke="#63b8ff" points="110.27,-140.82 106.39,-130.95 103.27,-141.08 110.27,-140.82"/>
</g>
<!-- Node24&#45;&gt;Node5 -->
<g id="edge44" class="edge">
<title>Node24&#45;&gt;Node5</title>
<path fill="none" stroke="#63b8ff" d="M580,-351.57C580,-327.58 580,-277.98 580,-236 580,-236 580,-236 580,-173.5 580,-140.65 595.84,-105.19 607.07,-84.19"/>
<polygon fill="#63b8ff" stroke="#63b8ff" points="610,-86.13 611.82,-75.69 603.88,-82.72 610,-86.13"/>
</g>
<!-- Node24&#45;&gt;Node10 -->
<g id="edge43" class="edge">
<title>Node24&#45;&gt;Node10</title>
<path fill="none" stroke="#63b8ff" d="M534.17,-351.51C505.42,-342.1 467.73,-329.17 435,-316 388.12,-297.14 335.62,-272.31 300.87,-255.35"/>
<polygon fill="#63b8ff" stroke="#63b8ff" points="302.57,-252.28 292.05,-251.02 299.48,-258.57 302.57,-252.28"/>
</g>
<!-- Node24&#45;&gt;Node20 -->
<g id="edge45" class="edge">
<title>Node24&#45;&gt;Node20</title>
<path fill="none" stroke="#63b8ff" d="M561.8,-351.8C548.89,-341.72 531.56,-328.19 518.22,-317.78"/>
<polygon fill="#63b8ff" stroke="#63b8ff" points="520.56,-315.17 510.52,-311.78 516.25,-320.69 520.56,-315.17"/>
</g>
<!-- Node25&#45;&gt;Node10 -->
<g id="edge47" class="edge">
<title>Node25&#45;&gt;Node10</title>
<path fill="none" stroke="#63b8ff" d="M279.78,-351.59C276.45,-329.92 270.1,-288.62 265.95,-261.7"/>
<polygon fill="#63b8ff" stroke="#63b8ff" points="269.44,-261.32 264.46,-251.97 262.52,-262.39 269.44,-261.32"/>
</g>
<!-- Node25&#45;&gt;Node20 -->
<g id="edge48" class="edge">
<title>Node25&#45;&gt;Node20</title>
<path fill="none" stroke="#63b8ff" d="M330.74,-351.56C368.86,-340.26 421.23,-324.75 457.16,-314.1"/>
<polygon fill="#63b8ff" stroke="#63b8ff" points="457.71,-317.59 466.3,-311.39 455.72,-310.88 457.71,-317.59"/>
</g>
<!-- Node26&#45;&gt;Node5 -->
<g id="edge55" class="edge">
<title>Node26&#45;&gt;Node5</title>
<path fill="none" stroke="#63b8ff" d="M725.53,-164.67C724.39,-151.36 720.47,-126.03 707,-110 694.96,-95.68 677.19,-85.51 660.68,-78.55"/>
<polygon fill="#63b8ff" stroke="#63b8ff" points="662.09,-75.34 651.5,-74.97 659.55,-81.86 662.09,-75.34"/>
</g>
<!-- Node26&#45;&gt;Node13 -->
<g id="edge50" class="edge">
<title>Node26&#45;&gt;Node13</title>
<path fill="none" stroke="#63b8ff" d="M706.13,-164.56C687.8,-156.08 660.04,-142.65 637,-129 580.64,-95.61 518.31,-50.05 486.75,-26.33"/>
<polygon fill="#63b8ff" stroke="#63b8ff" points="488.93,-23.59 478.85,-20.35 484.71,-29.17 488.93,-23.59"/>
</g>
<!-- Node26&#45;&gt;Node14 -->
<g id="edge56" class="edge">
<title>Node26&#45;&gt;Node14</title>
<path fill="none" stroke="#63b8ff" d="M754.16,-164.51C781.43,-155.8 822.99,-142.53 853.35,-132.84"/>
<polygon fill="#63b8ff" stroke="#63b8ff" points="854.08,-136.28 862.54,-129.91 851.95,-129.61 854.08,-136.28"/>
</g>
<!-- Node26&#45;&gt;Node16 -->
<g id="edge52" class="edge">
<title>Node26&#45;&gt;Node16</title>
<path fill="none" stroke="#63b8ff" d="M740.59,-164.51C753.52,-156.54 772.64,-144.75 787.85,-135.38"/>
<polygon fill="#63b8ff" stroke="#63b8ff" points="789.66,-138.38 796.34,-130.15 785.99,-132.42 789.66,-138.38"/>
</g>
<!-- Node27 -->
<g id="node27" class="node">
<title>Node27</title>
<g id="a_node27"><a xlink:title=" ">
<polygon fill="#e0e0e0" stroke="#999999" points="698,-129 646,-129 646,-110 698,-110 698,-129"/>
<text text-anchor="middle" x="672" y="-117" font-family="Helvetica,sans-Serif" font-size="10.00">sstream</text>
</a>
</g>
</g>
<!-- Node26&#45;&gt;Node27 -->
<g id="edge51" class="edge">
<title>Node26&#45;&gt;Node27</title>
<path fill="none" stroke="#63b8ff" d="M717.08,-164.75C709.55,-157.35 698.53,-146.54 689.27,-137.45"/>
<polygon fill="#63b8ff" stroke="#63b8ff" points="691.78,-135.01 682.19,-130.5 686.88,-140 691.78,-135.01"/>
</g>
<!-- Node28 -->
<g id="node28" class="node">
<title>Node28</title>
<g id="a_node28"><a xlink:href="error__type_8h.html" target="_top" xlink:title=" ">
<polygon fill="white" stroke="#666666" points="798,-74 730,-74 730,-55 798,-55 798,-74"/>
<text text-anchor="middle" x="764" y="-62" font-family="Helvetica,sans-Serif" font-size="10.00">error_type.h</text>
</a>
</g>
</g>
<!-- Node26&#45;&gt;Node28 -->
<g id="edge53" class="edge">
<title>Node26&#45;&gt;Node28</title>
<path fill="none" stroke="#63b8ff" d="M729.11,-164.66C735.18,-147.42 748.73,-108.9 757.04,-85.27"/>
<polygon fill="#63b8ff" stroke="#63b8ff" points="760.33,-86.48 760.34,-75.89 753.72,-84.16 760.33,-86.48"/>
</g>
<!-- Node28&#45;&gt;Node7 -->
<g id="edge54" class="edge">
<title>Node28&#45;&gt;Node7</title>
<path fill="none" stroke="#63b8ff" d="M764,-54.75C764,-48.27 764,-39.16 764,-30.9"/>
<polygon fill="#63b8ff" stroke="#63b8ff" points="767.5,-30.96 764,-20.96 760.5,-30.96 767.5,-30.96"/>
</g>
<!-- Node29&#45;&gt;Node5 -->
<g id="edge59" class="edge">
<title>Node29&#45;&gt;Node5</title>
<path fill="none" stroke="#63b8ff" d="M798.01,-225.65C762.69,-218.66 718.36,-206.11 684,-184 656.96,-166.6 652.39,-157.23 637,-129 629.49,-115.22 624.59,-98.09 621.65,-85.1"/>
<polygon fill="#63b8ff" stroke="#63b8ff" points="625.15,-84.74 619.71,-75.64 618.29,-86.14 625.15,-84.74"/>
</g>
<!-- Node29&#45;&gt;Node11 -->
<g id="edge60" class="edge">
<title>Node29&#45;&gt;Node11</title>
<path fill="none" stroke="#63b8ff" d="M867.42,-225.12C876.61,-216.44 890.84,-203.02 902.17,-192.32"/>
<polygon fill="#63b8ff" stroke="#63b8ff" points="904.52,-194.92 909.39,-185.51 899.72,-189.82 904.52,-194.92"/>
</g>
<!-- Node30&#45;&gt;Node4 -->
<g id="edge64" class="edge">
<title>Node30&#45;&gt;Node4</title>
<path fill="none" stroke="#63b8ff" d="M831.31,-417.67C769.96,-375.01 503.96,-190.02 425.72,-135.61"/>
<polygon fill="#63b8ff" stroke="#63b8ff" points="428.2,-133.06 417.99,-130.23 424.2,-138.81 428.2,-133.06"/>
</g>
<!-- Node30&#45;&gt;Node7 -->
<g id="edge63" class="edge">
<title>Node30&#45;&gt;Node7</title>
<path fill="none" stroke="#63b8ff" d="M896.27,-425.94C1035.54,-423.06 1405,-405.63 1405,-302 1405,-302 1405,-302 1405,-234 1405,-170.05 1382.03,-149.84 1332,-110 1247.73,-42.9 903.74,-18.3 796.25,-12.16"/>
<polygon fill="#63b8ff" stroke="#63b8ff" points="796.6,-8.68 786.42,-11.62 796.21,-15.67 796.6,-8.68"/>
</g>
<!-- Node30&#45;&gt;Node20 -->
<g id="edge65" class="edge">
<title>Node30&#45;&gt;Node20</title>
<path fill="none" stroke="#63b8ff" d="M822.51,-417.56C787.48,-403.1 715.75,-373.98 654,-352 615.05,-338.14 570.04,-323.9 538.4,-314.18"/>
<polygon fill="#63b8ff" stroke="#63b8ff" points="539.84,-310.96 529.25,-311.38 537.79,-317.65 539.84,-310.96"/>
</g>
<!-- Node30&#45;&gt;Node26 -->
<g id="edge66" class="edge">
<title>Node30&#45;&gt;Node26</title>
<path fill="none" stroke="#63b8ff" d="M859.73,-417.57C872.41,-409.66 889.9,-397.06 901,-382 944.21,-323.35 971.58,-276.83 926,-220 906.86,-196.14 823.16,-184.25 770.29,-179.02"/>
<polygon fill="#63b8ff" stroke="#63b8ff" points="770.66,-175.54 760.38,-178.09 770,-182.51 770.66,-175.54"/>
</g>
<!-- Node31 -->
<g id="node31" class="node">
<title>Node31</title>
<g id="a_node31"><a xlink:title=" ">
<polygon fill="#e0e0e0" stroke="#999999" points="917.5,-310.5 882.5,-310.5 882.5,-291.5 917.5,-291.5 917.5,-310.5"/>
<text text-anchor="middle" x="900" y="-298.5" font-family="Helvetica,sans-Serif" font-size="10.00">map</text>
</a>
</g>
</g>
<!-- Node30&#45;&gt;Node31 -->
<g id="edge62" class="edge">
<title>Node30&#45;&gt;Node31</title>
<path fill="none" stroke="#63b8ff" d="M853.65,-417.53C862.1,-409.13 874.08,-395.84 881,-382 890.56,-362.87 895.44,-338.73 897.84,-322"/>
<polygon fill="#63b8ff" stroke="#63b8ff" points="901.28,-322.71 899.04,-312.36 894.33,-321.85 901.28,-322.71"/>
</g>
<!-- Node32 -->
<g id="node32" class="node">
<title>Node32</title>
<g id="a_node32"><a xlink:href="symbol_8h.html" target="_top" xlink:title=" ">
<polygon fill="white" stroke="#666666" points="872,-376.5 816,-376.5 816,-357.5 872,-357.5 872,-376.5"/>
<text text-anchor="middle" x="844" y="-364.5" font-family="Helvetica,sans-Serif" font-size="10.00">symbol.h</text>
</a>
</g>
</g>
<!-- Node30&#45;&gt;Node32 -->
<g id="edge67" class="edge">
<title>Node30&#45;&gt;Node32</title>
<path fill="none" stroke="#63b8ff" d="M844,-417.87C844,-410 844,-398.1 844,-387.89"/>
<polygon fill="#63b8ff" stroke="#63b8ff" points="847.5,-388.18 844,-378.18 840.5,-388.18 847.5,-388.18"/>
</g>
<!-- Node32&#45;&gt;Node4 -->
<g id="edge70" class="edge">
<title>Node32&#45;&gt;Node4</title>
<path fill="none" stroke="#63b8ff" d="M835.76,-357.24C812.11,-332.56 741.19,-261.52 670,-220 597.43,-177.67 503.63,-147.61 449.01,-132.24"/>
<polygon fill="#63b8ff" stroke="#63b8ff" points="450,-128.88 439.43,-129.59 448.13,-135.63 450,-128.88"/>
</g>
<!-- Node32&#45;&gt;Node17 -->
<g id="edge69" class="edge">
<title>Node32&#45;&gt;Node17</title>
<path fill="none" stroke="#63b8ff" d="M845.3,-357.17C848,-341.38 855.5,-307.95 873,-286 877.3,-280.61 1044.15,-174.8 1106.67,-135.25"/>
<polygon fill="#63b8ff" stroke="#63b8ff" points="1108.23,-138.4 1114.81,-130.1 1104.49,-132.48 1108.23,-138.4"/>
</g>
<!-- Node32&#45;&gt;Node20 -->
<g id="edge71" class="edge">
<title>Node32&#45;&gt;Node20</title>
<path fill="none" stroke="#63b8ff" d="M815.69,-360.76C759.58,-350.38 633.19,-327.01 557.84,-313.07"/>
<polygon fill="#63b8ff" stroke="#63b8ff" points="558.61,-309.65 548.14,-311.28 557.34,-316.54 558.61,-309.65"/>
</g>
<!-- Node32&#45;&gt;Node31 -->
<g id="edge68" class="edge">
<title>Node32&#45;&gt;Node31</title>
<path fill="none" stroke="#63b8ff" d="M851.79,-357.1C860.31,-347.36 874.19,-331.5 884.87,-319.29"/>
<polygon fill="#63b8ff" stroke="#63b8ff" points="887.33,-321.79 891.28,-311.96 882.06,-317.18 887.33,-321.79"/>
</g>
<!-- Node33&#45;&gt;Node6 -->
<g id="edge74" class="edge">
<title>Node33&#45;&gt;Node6</title>
<path fill="none" stroke="#63b8ff" d="M1169.91,-364.26C1212.91,-360.19 1271.13,-348.46 1311,-316 1336.28,-295.42 1335.7,-281.77 1343,-250 1356.97,-189.17 1370.72,-158.95 1332,-110 1285.57,-51.29 1196.64,-25.89 1148.29,-16.03"/>
<polygon fill="#63b8ff" stroke="#63b8ff" points="1149.18,-12.64 1138.7,-14.18 1147.85,-19.51 1149.18,-12.64"/>
</g>
<!-- Node33&#45;&gt;Node11 -->
<g id="edge73" class="edge">
<title>Node33&#45;&gt;Node11</title>
<path fill="none" stroke="#63b8ff" d="M1098.49,-351.68C1063.43,-317.08 974.24,-229.03 936.87,-192.15"/>
<polygon fill="#63b8ff" stroke="#63b8ff" points="939.59,-189.92 930.01,-185.39 934.67,-194.9 939.59,-189.92"/>
</g>
<!-- Node33&#45;&gt;Node12 -->
<g id="edge75" class="edge">
<title>Node33&#45;&gt;Node12</title>
<path fill="none" stroke="#63b8ff" d="M1169.75,-357.03C1233.75,-343.32 1329,-310.41 1329,-236 1329,-236 1329,-236 1329,-173.5 1329,-144.04 1331.87,-129.74 1310,-110 1283.37,-85.95 1185.02,-74.02 1124.94,-68.86"/>
<polygon fill="#63b8ff" stroke="#63b8ff" points="1125.59,-65.4 1115.34,-68.07 1125.02,-72.38 1125.59,-65.4"/>
</g>
<!-- Node33&#45;&gt;Node15 -->
<g id="edge77" class="edge">
<title>Node33&#45;&gt;Node15</title>
<path fill="none" stroke="#63b8ff" d="M1122.74,-351.78C1137.19,-330.33 1164.69,-288.13 1184,-250 1203.24,-212.02 1220.97,-165.35 1230.25,-139.69"/>
<polygon fill="#63b8ff" stroke="#63b8ff" points="1233.42,-141.22 1233.48,-130.62 1226.83,-138.87 1233.42,-141.22"/>
</g>
<!-- Node33&#45;&gt;Node20 -->
<g id="edge76" class="edge">
<title>Node33&#45;&gt;Node20</title>
<path fill="none" stroke="#63b8ff" d="M1056.24,-360.09C941.88,-348.19 684.34,-321.39 563.25,-308.79"/>
<polygon fill="#63b8ff" stroke="#63b8ff" points="563.78,-305.33 553.48,-307.77 563.06,-312.29 563.78,-305.33"/>
</g>
<!-- Node34 -->
<g id="node34" class="node">
<title>Node34</title>
<g id="a_node34"><a xlink:href="classifiers_8h.html" target="_top" xlink:title=" ">
<polygon fill="white" stroke="#666666" points="1175.5,-244.5 1050.5,-244.5 1050.5,-225.5 1175.5,-225.5 1175.5,-244.5"/>
<text text-anchor="middle" x="1113" y="-232.5" font-family="Helvetica,sans-Serif" font-size="10.00">core/helpers/classifiers.h</text>
</a>
</g>
</g>
<!-- Node33&#45;&gt;Node34 -->
<g id="edge78" class="edge">
<title>Node33&#45;&gt;Node34</title>
<path fill="none" stroke="#63b8ff" d="M1113,-351.59C1113,-328.3 1113,-282.32 1113,-255.91"/>
<polygon fill="#63b8ff" stroke="#63b8ff" points="1116.5,-256.22 1113,-246.22 1109.5,-256.22 1116.5,-256.22"/>
</g>
<!-- Node34&#45;&gt;Node11 -->
<g id="edge79" class="edge">
<title>Node34&#45;&gt;Node11</title>
<path fill="none" stroke="#63b8ff" d="M1083.69,-225.12C1050.81,-215.15 997.29,-198.93 960.44,-187.76"/>
<polygon fill="#63b8ff" stroke="#63b8ff" points="961.62,-184.46 951.04,-184.91 959.59,-191.16 961.62,-184.46"/>
</g>
<!-- Node35&#45;&gt;Node10 -->
<g id="edge81" class="edge">
<title>Node35&#45;&gt;Node10</title>
<path fill="none" stroke="#63b8ff" d="M412.27,-351.59C382.57,-328.75 324.53,-284.1 289.91,-257.47"/>
<polygon fill="#63b8ff" stroke="#63b8ff" points="292.08,-254.72 282.02,-251.4 287.81,-260.27 292.08,-254.72"/>
</g>
<!-- Node35&#45;&gt;Node20 -->
<g id="edge82" class="edge">
<title>Node35&#45;&gt;Node20</title>
<path fill="none" stroke="#63b8ff" d="M445.87,-351.8C456.11,-342.01 469.76,-328.98 480.52,-318.7"/>
<polygon fill="#63b8ff" stroke="#63b8ff" points="482.83,-321.33 487.65,-311.89 478,-316.27 482.83,-321.33"/>
</g>
</g>
</svg>
        <g id="navigator" transform="translate(0 0)" fill="#404254">
                <rect fill="#f2f5e9" fill-opacity="0.5" stroke="#606060" stroke-width=".5" x="0" y="0" width="60" height="60"/>
                <use id="zoomplus" xlink:href="#zoomPlus" x="17" y="9" onmousedown="handleZoom(evt,'in')"/>
                <use id="zoomminus" xlink:href="#zoomMin" x="42" y="9" onmousedown="handleZoom(evt,'out')"/>
                <use id="reset" xlink:href="#resetDef" x="30" y="36" onmousedown="handleReset()"/>
                <g id="arrowUp" xlink:href="#dirArrow" transform="translate(30 24)" onmousedown="handlePan(0,-1)">
                  <use xlink:href="#rim" fill="#404040">
                        <set attributeName="fill" to="#808080" begin="arrowUp.mouseover" end="arrowUp.mouseout"/>
                  </use>
                  <path fill="none" stroke="white" stroke-width="1.5" d="M0,-3.0v7 M-2.5,-0.5L0,-3.0L2.5,-0.5"/>
                </g>
                <g id="arrowRight" xlink:href="#dirArrow" transform="rotate(90) translate(36 -43)" onmousedown="handlePan(1,0)">
                  <use xlink:href="#rim" fill="#404040">
                        <set attributeName="fill" to="#808080" begin="arrowRight.mouseover" end="arrowRight.mouseout"/>
                  </use>
                  <path fill="none" stroke="white" stroke-width="1.5" d="M0,-3.0v7 M-2.5,-0.5L0,-3.0L2.5,-0.5"/>
                </g>
                <g id="arrowDown" xlink:href="#dirArrow" transform="rotate(180) translate(-30 -48)" onmousedown="handlePan(0,1)">
                  <use xlink:href="#rim" fill="#404040">
                        <set attributeName="fill" to="#808080" begin="arrowDown.mouseover" end="arrowDown.mouseout"/>
                  </use>
                  <path fill="none" stroke="white" stroke-width="1.5" d="M0,-3.0v7 M-2.5,-0.5L0,-3.0L2.5,-0.5"/>
                </g>
                <g id="arrowLeft" xlink:href="#dirArrow" transform="rotate(270) translate(-36 17)" onmousedown="handlePan(-1,0)">
                  <use xlink:href="#rim" fill="#404040">
                        <set attributeName="fill" to="#808080" begin="arrowLeft.mouseover" end="arrowLeft.mouseout"/>
                  </use>
                  <path fill="none" stroke="white" stroke-width="1.5" d="M0,-3.0v7 M-2.5,-0.5L0,-3.0L2.5,-0.5"/>
                </g>
        </g>
        <svg viewBox="0 0 15 15" width="100%" height="30px" preserveAspectRatio="xMaxYMin meet">
         <g id="arrow_out" transform="scale(0.3 0.3)">
          <a xlink:href="interpreter_8cpp__incl_org.svg" target="_base">
           <rect id="button" ry="5" rx="5" y="6" x="6" height="38" width="38"
                fill="#f2f5e9" fill-opacity="0.5" stroke="#606060" stroke-width="1.0"/>
           <path id="arrow"
             d="M 11.500037,31.436501 C 11.940474,20.09759 22.043105,11.32322 32.158766,21.979434 L 37.068811,17.246167 C 37.068811,17.246167 37.088388,32 37.088388,32 L 22.160133,31.978069 C 22.160133,31.978069 26.997745,27.140456 26.997745,27.140456 C 18.528582,18.264221 13.291696,25.230495 11.500037,31.436501 z"
             style="fill:#404040;"/>
          </a>
         </g>
        </svg>
</svg>
