<?xml version="1.0" encoding="UTF-8" standalone="no"?>
<!DOCTYPE svg PUBLIC "-//W3C//DTD SVG 1.1//EN"
 "http://www.w3.org/Graphics/SVG/1.1/DTD/svg11.dtd">
<!-- Generated by graphviz version 7.1.0 (20230121.1956)
 -->
<!-- Title: /Users/nikolajbankejensen/Desktop/Kepler/src/core/evaluation/interpreter.h Pages: 1 -->
<svg width="1141pt" height="467pt"
 viewBox="0.00 0.00 1141.41 467.00" xmlns="http://www.w3.org/2000/svg" xmlns:xlink="http://www.w3.org/1999/xlink">
<g id="graph0" class="graph" transform="scale(1 1) rotate(0) translate(4 463)">
<title>/Users/nikolajbankejensen/Desktop/Kepler/src/core/evaluation/interpreter.h</title>
<!-- Node1 -->
<g id="node1" class="node">
<title>Node1</title>
<g id="a_node1"><a xlink:title=" ">
<polygon fill="#999999" stroke="#666666" points="451,-459 320,-459 320,-418 451,-418 451,-459"/>
<text text-anchor="start" x="328" y="-447" font-family="Helvetica,sans-Serif" font-size="10.00">/Users/nikolajbankejensen</text>
<text text-anchor="start" x="328" y="-436" font-family="Helvetica,sans-Serif" font-size="10.00">/Desktop/Kepler/src/core</text>
<text text-anchor="middle" x="385.5" y="-425" font-family="Helvetica,sans-Serif" font-size="10.00">/evaluation/interpreter.h</text>
</a>
</g>
</g>
<!-- Node2 -->
<g id="node2" class="node">
<title>Node2</title>
<g id="a_node2"><a xlink:href="node__visitor_8h.html" target="_top" xlink:title=" ">
<polygon fill="white" stroke="#666666" points="371,-382 264,-382 264,-352 371,-352 371,-382"/>
<text text-anchor="start" x="272" y="-370" font-family="Helvetica,sans-Serif" font-size="10.00">core/evaluation/node</text>
<text text-anchor="middle" x="317.5" y="-359" font-family="Helvetica,sans-Serif" font-size="10.00">_visitor.h</text>
</a>
</g>
</g>
<!-- Node1&#45;&gt;Node2 -->
<g id="edge1" class="edge">
<title>Node1&#45;&gt;Node2</title>
<path fill="none" stroke="#63b8ff" d="M366.2,-417.77C357.86,-409.25 348.07,-399.25 339.47,-390.45"/>
<polygon fill="#63b8ff" stroke="#63b8ff" points="342.22,-388.26 332.72,-383.56 337.21,-393.15 342.22,-388.26"/>
</g>
<!-- Node11 -->
<g id="node11" class="node">
<title>Node11</title>
<g id="a_node11"><a xlink:href="token__type_8h.html" target="_top" xlink:title=" ">
<polygon fill="white" stroke="#666666" points="743,-74 670,-74 670,-55 743,-55 743,-74"/>
<text text-anchor="middle" x="706.5" y="-62" font-family="Helvetica,sans-Serif" font-size="10.00">token_type.h</text>
</a>
</g>
</g>
<!-- Node1&#45;&gt;Node11 -->
<g id="edge34" class="edge">
<title>Node1&#45;&gt;Node11</title>
<path fill="none" stroke="#63b8ff" d="M451.46,-432.47C634.01,-417.66 1132.5,-370.91 1132.5,-302 1132.5,-302 1132.5,-302 1132.5,-173.5 1132.5,-144.04 1136.14,-128.85 1113.5,-110 1099.85,-98.63 859.11,-77.86 754.44,-69.32"/>
<polygon fill="#63b8ff" stroke="#63b8ff" points="755.02,-65.86 744.77,-68.54 754.46,-72.84 755.02,-65.86"/>
</g>
<!-- Node20 -->
<g id="node20" class="node">
<title>Node20</title>
<g id="a_node20"><a xlink:href="functions_8h.html" target="_top" xlink:title=" ">
<polygon fill="white" stroke="#666666" points="131,-316 0,-316 0,-286 131,-286 131,-316"/>
<text text-anchor="start" x="8" y="-304" font-family="Helvetica,sans-Serif" font-size="10.00">core/evaluation/operations</text>
<text text-anchor="middle" x="65.5" y="-293" font-family="Helvetica,sans-Serif" font-size="10.00">/functions.h</text>
</a>
</g>
</g>
<!-- Node1&#45;&gt;Node20 -->
<g id="edge35" class="edge">
<title>Node1&#45;&gt;Node20</title>
<path fill="none" stroke="#63b8ff" d="M319.76,-431.17C247.86,-423.11 138.46,-407.13 105.5,-382 87.87,-368.56 77.47,-345.24 71.71,-327.23"/>
<polygon fill="#63b8ff" stroke="#63b8ff" points="75.12,-326.42 68.99,-317.78 68.39,-328.36 75.12,-326.42"/>
</g>
<!-- Node23 -->
<g id="node23" class="node">
<title>Node23</title>
<g id="a_node23"><a xlink:href="monadic__operators_8h.html" target="_top" xlink:title=" ">
<polygon fill="white" stroke="#666666" points="246,-382 115,-382 115,-352 246,-352 246,-382"/>
<text text-anchor="start" x="123" y="-370" font-family="Helvetica,sans-Serif" font-size="10.00">core/evaluation/operations</text>
<text text-anchor="middle" x="180.5" y="-359" font-family="Helvetica,sans-Serif" font-size="10.00">/monadic_operators.h</text>
</a>
</g>
</g>
<!-- Node1&#45;&gt;Node23 -->
<g id="edge41" class="edge">
<title>Node1&#45;&gt;Node23</title>
<path fill="none" stroke="#63b8ff" d="M326.76,-417.58C297.38,-407.63 262.1,-395.67 233.55,-385.99"/>
<polygon fill="#63b8ff" stroke="#63b8ff" points="235,-382.78 224.4,-382.88 232.75,-389.41 235,-382.78"/>
</g>
<!-- Node24 -->
<g id="node24" class="node">
<title>Node24</title>
<g id="a_node24"><a xlink:href="dyadic__operators_8h.html" target="_top" xlink:title=" ">
<polygon fill="white" stroke="#666666" points="520,-382 389,-382 389,-352 520,-352 520,-382"/>
<text text-anchor="start" x="397" y="-370" font-family="Helvetica,sans-Serif" font-size="10.00">core/evaluation/operations</text>
<text text-anchor="middle" x="454.5" y="-359" font-family="Helvetica,sans-Serif" font-size="10.00">/dyadic_operators.h</text>
</a>
</g>
</g>
<!-- Node1&#45;&gt;Node24 -->
<g id="edge45" class="edge">
<title>Node1&#45;&gt;Node24</title>
<path fill="none" stroke="#63b8ff" d="M405.09,-417.77C413.54,-409.25 423.48,-399.25 432.21,-390.45"/>
<polygon fill="#63b8ff" stroke="#63b8ff" points="434.5,-393.11 439.06,-383.55 429.53,-388.18 434.5,-393.11"/>
</g>
<!-- Node25 -->
<g id="node25" class="node">
<title>Node25</title>
<g id="a_node25"><a xlink:href="error_8h.html" target="_top" xlink:title=" ">
<polygon fill="white" stroke="#666666" points="958,-184 893,-184 893,-165 958,-165 958,-184"/>
<text text-anchor="middle" x="925.5" y="-172" font-family="Helvetica,sans-Serif" font-size="10.00">core/error.h</text>
</a>
</g>
</g>
<!-- Node1&#45;&gt;Node25 -->
<g id="edge48" class="edge">
<title>Node1&#45;&gt;Node25</title>
<path fill="none" stroke="#63b8ff" d="M446.35,-417.62C534.08,-387.67 699.7,-326.29 828.5,-250 857.73,-232.69 888.3,-207.92 907.13,-191.78"/>
<polygon fill="#63b8ff" stroke="#63b8ff" points="909.21,-194.6 914.46,-185.4 904.62,-189.32 909.21,-194.6"/>
</g>
<!-- Node3 -->
<g id="node3" class="node">
<title>Node3</title>
<g id="a_node3"><a xlink:href="array_8h.html" target="_top" xlink:title=" ">
<polygon fill="white" stroke="#666666" points="255,-129 188,-129 188,-110 255,-110 255,-129"/>
<text text-anchor="middle" x="221.5" y="-117" font-family="Helvetica,sans-Serif" font-size="10.00">core/array.h</text>
</a>
</g>
</g>
<!-- Node2&#45;&gt;Node3 -->
<g id="edge2" class="edge">
<title>Node2&#45;&gt;Node3</title>
<path fill="none" stroke="#63b8ff" d="M298.48,-351.65C274.06,-331.9 232.88,-293.76 216.5,-250 202.74,-213.24 210.06,-166.44 216.11,-140.36"/>
<polygon fill="#63b8ff" stroke="#63b8ff" points="219.47,-141.37 218.52,-130.82 212.68,-139.66 219.47,-141.37"/>
</g>
<!-- Node9 -->
<g id="node9" class="node">
<title>Node9</title>
<g id="a_node9"><a xlink:href="operation_8h.html" target="_top" xlink:title=" ">
<polygon fill="white" stroke="#666666" points="357,-250 226,-250 226,-220 357,-220 357,-250"/>
<text text-anchor="start" x="234" y="-238" font-family="Helvetica,sans-Serif" font-size="10.00">core/evaluation/operations</text>
<text text-anchor="middle" x="291.5" y="-227" font-family="Helvetica,sans-Serif" font-size="10.00">/operation.h</text>
</a>
</g>
</g>
<!-- Node2&#45;&gt;Node9 -->
<g id="edge8" class="edge">
<title>Node2&#45;&gt;Node9</title>
<path fill="none" stroke="#63b8ff" d="M314.62,-351.59C310.28,-329.92 302.02,-288.62 296.64,-261.7"/>
<polygon fill="#63b8ff" stroke="#63b8ff" points="300.08,-261.08 294.69,-251.96 293.22,-262.45 300.08,-261.08"/>
</g>
<!-- Node19 -->
<g id="node19" class="node">
<title>Node19</title>
<g id="a_node19"><a xlink:href="ast_8h.html" target="_top" xlink:title=" ">
<polygon fill="white" stroke="#666666" points="508,-310.5 401,-310.5 401,-291.5 508,-291.5 508,-310.5"/>
<text text-anchor="middle" x="454.5" y="-298.5" font-family="Helvetica,sans-Serif" font-size="10.00">core/evaluation/ast.h</text>
</a>
</g>
</g>
<!-- Node2&#45;&gt;Node19 -->
<g id="edge25" class="edge">
<title>Node2&#45;&gt;Node19</title>
<path fill="none" stroke="#63b8ff" d="M348.25,-351.64C371.16,-340.93 402.27,-326.4 424.91,-315.82"/>
<polygon fill="#63b8ff" stroke="#63b8ff" points="426.31,-319.03 433.89,-311.63 423.35,-312.69 426.31,-319.03"/>
</g>
<!-- Node4 -->
<g id="node4" class="node">
<title>Node4</title>
<g id="a_node4"><a xlink:href="datatypes_8h.html" target="_top" xlink:title=" ">
<polygon fill="white" stroke="#666666" points="355.5,-74 287.5,-74 287.5,-55 355.5,-55 355.5,-74"/>
<text text-anchor="middle" x="321.5" y="-62" font-family="Helvetica,sans-Serif" font-size="10.00">datatypes.h</text>
</a>
</g>
</g>
<!-- Node3&#45;&gt;Node4 -->
<g id="edge3" class="edge">
<title>Node3&#45;&gt;Node4</title>
<path fill="none" stroke="#63b8ff" d="M238.46,-109.51C253.86,-101.35 276.81,-89.19 294.69,-79.71"/>
<polygon fill="#63b8ff" stroke="#63b8ff" points="296.25,-82.84 303.45,-75.07 292.97,-76.66 296.25,-82.84"/>
</g>
<!-- Node8 -->
<g id="node8" class="node">
<title>Node8</title>
<g id="a_node8"><a xlink:title=" ">
<polygon fill="#e0e0e0" stroke="#999999" points="244.5,-74 198.5,-74 198.5,-55 244.5,-55 244.5,-74"/>
<text text-anchor="middle" x="221.5" y="-62" font-family="Helvetica,sans-Serif" font-size="10.00">variant</text>
</a>
</g>
</g>
<!-- Node3&#45;&gt;Node8 -->
<g id="edge7" class="edge">
<title>Node3&#45;&gt;Node8</title>
<path fill="none" stroke="#63b8ff" d="M221.5,-109.75C221.5,-103.27 221.5,-94.16 221.5,-85.9"/>
<polygon fill="#63b8ff" stroke="#63b8ff" points="225,-85.96 221.5,-75.96 218,-85.96 225,-85.96"/>
</g>
<!-- Node5 -->
<g id="node5" class="node">
<title>Node5</title>
<g id="a_node5"><a xlink:title=" ">
<polygon fill="#e0e0e0" stroke="#999999" points="310.5,-19 266.5,-19 266.5,0 310.5,0 310.5,-19"/>
<text text-anchor="middle" x="288.5" y="-7" font-family="Helvetica,sans-Serif" font-size="10.00">vector</text>
</a>
</g>
</g>
<!-- Node4&#45;&gt;Node5 -->
<g id="edge4" class="edge">
<title>Node4&#45;&gt;Node5</title>
<path fill="none" stroke="#63b8ff" d="M316.05,-54.75C311.73,-47.81 305.54,-37.86 300.12,-29.16"/>
<polygon fill="#63b8ff" stroke="#63b8ff" points="303.12,-27.37 294.87,-20.73 297.18,-31.07 303.12,-27.37"/>
</g>
<!-- Node6 -->
<g id="node6" class="node">
<title>Node6</title>
<g id="a_node6"><a xlink:title=" ">
<polygon fill="#e0e0e0" stroke="#999999" points="706,-19 665,-19 665,0 706,0 706,-19"/>
<text text-anchor="middle" x="685.5" y="-7" font-family="Helvetica,sans-Serif" font-size="10.00">string</text>
</a>
</g>
</g>
<!-- Node4&#45;&gt;Node6 -->
<g id="edge5" class="edge">
<title>Node4&#45;&gt;Node6</title>
<path fill="none" stroke="#63b8ff" d="M355.74,-58.51C425.86,-48.3 584.93,-25.14 653.29,-15.19"/>
<polygon fill="#63b8ff" stroke="#63b8ff" points="653.7,-18.67 663.09,-13.76 652.69,-11.74 653.7,-18.67"/>
</g>
<!-- Node7 -->
<g id="node7" class="node">
<title>Node7</title>
<g id="a_node7"><a xlink:title=" ">
<polygon fill="#e0e0e0" stroke="#999999" points="382,-19 329,-19 329,0 382,0 382,-19"/>
<text text-anchor="middle" x="355.5" y="-7" font-family="Helvetica,sans-Serif" font-size="10.00">complex</text>
</a>
</g>
</g>
<!-- Node4&#45;&gt;Node7 -->
<g id="edge6" class="edge">
<title>Node4&#45;&gt;Node7</title>
<path fill="none" stroke="#63b8ff" d="M327.11,-54.75C331.62,-47.73 338.09,-37.64 343.71,-28.87"/>
<polygon fill="#63b8ff" stroke="#63b8ff" points="346.49,-31.02 348.95,-20.72 340.6,-27.24 346.49,-31.02"/>
</g>
<!-- Node9&#45;&gt;Node3 -->
<g id="edge10" class="edge">
<title>Node9&#45;&gt;Node3</title>
<path fill="none" stroke="#63b8ff" d="M282.63,-219.63C269.99,-199.12 246.77,-161.47 232.87,-138.93"/>
<polygon fill="#63b8ff" stroke="#63b8ff" points="235.91,-137.19 227.68,-130.52 229.95,-140.87 235.91,-137.19"/>
</g>
<!-- Node9&#45;&gt;Node4 -->
<g id="edge9" class="edge">
<title>Node9&#45;&gt;Node4</title>
<path fill="none" stroke="#63b8ff" d="M292.52,-219.73C294.36,-196.51 298.87,-149.22 307.5,-110 309.33,-101.69 312.01,-92.72 314.54,-85.01"/>
<polygon fill="#63b8ff" stroke="#63b8ff" points="317.81,-86.27 317.75,-75.67 311.19,-83.99 317.81,-86.27"/>
</g>
<!-- Node10 -->
<g id="node10" class="node">
<title>Node10</title>
<g id="a_node10"><a xlink:href="token_8h.html" target="_top" xlink:title=" ">
<polygon fill="white" stroke="#666666" points="561,-184 490,-184 490,-165 561,-165 561,-184"/>
<text text-anchor="middle" x="525.5" y="-172" font-family="Helvetica,sans-Serif" font-size="10.00">core/token.h</text>
</a>
</g>
</g>
<!-- Node9&#45;&gt;Node10 -->
<g id="edge11" class="edge">
<title>Node9&#45;&gt;Node10</title>
<path fill="none" stroke="#63b8ff" d="M349.34,-219.54C389.2,-209.57 441.5,-196.5 478.73,-187.19"/>
<polygon fill="#63b8ff" stroke="#63b8ff" points="479.45,-190.62 488.3,-184.8 477.75,-183.83 479.45,-190.62"/>
</g>
<!-- Node18 -->
<g id="node18" class="node">
<title>Node18</title>
<g id="a_node18"><a xlink:title=" ">
<polygon fill="#e0e0e0" stroke="#999999" points="379.5,-184 327.5,-184 327.5,-165 379.5,-165 379.5,-184"/>
<text text-anchor="middle" x="353.5" y="-172" font-family="Helvetica,sans-Serif" font-size="10.00">memory</text>
</a>
</g>
</g>
<!-- Node9&#45;&gt;Node18 -->
<g id="edge24" class="edge">
<title>Node9&#45;&gt;Node18</title>
<path fill="none" stroke="#63b8ff" d="M306.83,-219.54C315.65,-211.22 326.77,-200.72 335.94,-192.07"/>
<polygon fill="#63b8ff" stroke="#63b8ff" points="338.33,-194.62 343.2,-185.21 333.53,-189.53 338.33,-194.62"/>
</g>
<!-- Node10&#45;&gt;Node3 -->
<g id="edge16" class="edge">
<title>Node10&#45;&gt;Node3</title>
<path fill="none" stroke="#63b8ff" d="M489.73,-167.26C434.14,-157.57 327.11,-138.91 266.4,-128.33"/>
<polygon fill="#63b8ff" stroke="#63b8ff" points="267.21,-124.92 256.76,-126.65 266.01,-131.81 267.21,-124.92"/>
</g>
<!-- Node10&#45;&gt;Node4 -->
<g id="edge14" class="edge">
<title>Node10&#45;&gt;Node4</title>
<path fill="none" stroke="#63b8ff" d="M489.68,-165.02C452.42,-155.79 397,-140.77 378.5,-129 359.99,-117.23 343.83,-97.83 333.48,-83.57"/>
<polygon fill="#63b8ff" stroke="#63b8ff" points="336.47,-81.73 327.9,-75.51 330.72,-85.73 336.47,-81.73"/>
</g>
<!-- Node10&#45;&gt;Node11 -->
<g id="edge12" class="edge">
<title>Node10&#45;&gt;Node11</title>
<path fill="none" stroke="#63b8ff" d="M536.91,-164.7C553.79,-151.88 586.66,-127.66 616.5,-110 635.76,-98.61 658.33,-87.45 676.05,-79.16"/>
<polygon fill="#63b8ff" stroke="#63b8ff" points="677.4,-82.39 685.01,-75.02 674.46,-76.04 677.4,-82.39"/>
</g>
<!-- Node13 -->
<g id="node13" class="node">
<title>Node13</title>
<g id="a_node13"><a xlink:title=" ">
<polygon fill="#e0e0e0" stroke="#999999" points="786,-129 703,-129 703,-110 786,-110 786,-129"/>
<text text-anchor="middle" x="744.5" y="-117" font-family="Helvetica,sans-Serif" font-size="10.00">uni_algo/conv.h</text>
</a>
</g>
</g>
<!-- Node10&#45;&gt;Node13 -->
<g id="edge15" class="edge">
<title>Node10&#45;&gt;Node13</title>
<path fill="none" stroke="#63b8ff" d="M561.17,-164.87C597.96,-155.97 655.54,-142.03 696.34,-132.15"/>
<polygon fill="#63b8ff" stroke="#63b8ff" points="697.01,-135.59 705.91,-129.84 695.36,-128.79 697.01,-135.59"/>
</g>
<!-- Node14 -->
<g id="node14" class="node">
<title>Node14</title>
<g id="a_node14"><a xlink:href="conversion_8h.html" target="_top" xlink:title=" ">
<polygon fill="white" stroke="#666666" points="569,-129 456,-129 456,-110 569,-110 569,-129"/>
<text text-anchor="middle" x="512.5" y="-117" font-family="Helvetica,sans-Serif" font-size="10.00">interface/conversion.h</text>
</a>
</g>
</g>
<!-- Node10&#45;&gt;Node14 -->
<g id="edge17" class="edge">
<title>Node10&#45;&gt;Node14</title>
<path fill="none" stroke="#63b8ff" d="M523.35,-164.75C521.74,-158.19 519.48,-148.95 517.43,-140.6"/>
<polygon fill="#63b8ff" stroke="#63b8ff" points="520.84,-139.79 515.05,-130.91 514.04,-141.46 520.84,-139.79"/>
</g>
<!-- Node15 -->
<g id="node15" class="node">
<title>Node15</title>
<g id="a_node15"><a xlink:title=" ">
<polygon fill="#e0e0e0" stroke="#999999" points="882.5,-129 842.5,-129 842.5,-110 882.5,-110 882.5,-129"/>
<text text-anchor="middle" x="862.5" y="-117" font-family="Helvetica,sans-Serif" font-size="10.00">utility</text>
</a>
</g>
</g>
<!-- Node10&#45;&gt;Node15 -->
<g id="edge21" class="edge">
<title>Node10&#45;&gt;Node15</title>
<path fill="none" stroke="#63b8ff" d="M561.25,-167.88C627.45,-157.47 768.11,-135.35 830.98,-125.46"/>
<polygon fill="#63b8ff" stroke="#63b8ff" points="831.3,-128.95 840.64,-123.94 830.21,-122.03 831.3,-128.95"/>
</g>
<!-- Node16 -->
<g id="node16" class="node">
<title>Node16</title>
<g id="a_node16"><a xlink:title=" ">
<polygon fill="#e0e0e0" stroke="#999999" points="437.5,-129 387.5,-129 387.5,-110 437.5,-110 437.5,-129"/>
<text text-anchor="middle" x="412.5" y="-117" font-family="Helvetica,sans-Serif" font-size="10.00">optional</text>
</a>
</g>
</g>
<!-- Node10&#45;&gt;Node16 -->
<g id="edge22" class="edge">
<title>Node10&#45;&gt;Node16</title>
<path fill="none" stroke="#63b8ff" d="M506.33,-164.51C488.61,-156.2 462.02,-143.73 441.67,-134.18"/>
<polygon fill="#63b8ff" stroke="#63b8ff" points="443.3,-131.08 432.76,-130 440.32,-137.42 443.3,-131.08"/>
</g>
<!-- Node17 -->
<g id="node17" class="node">
<title>Node17</title>
<g id="a_node17"><a xlink:href="position_8h.html" target="_top" xlink:title=" ">
<polygon fill="white" stroke="#666666" points="685,-129 626,-129 626,-110 685,-110 685,-129"/>
<text text-anchor="middle" x="655.5" y="-117" font-family="Helvetica,sans-Serif" font-size="10.00">position.h</text>
</a>
</g>
</g>
<!-- Node10&#45;&gt;Node17 -->
<g id="edge23" class="edge">
<title>Node10&#45;&gt;Node17</title>
<path fill="none" stroke="#63b8ff" d="M547.55,-164.51C568.31,-156.04 599.66,-143.27 623.23,-133.66"/>
<polygon fill="#63b8ff" stroke="#63b8ff" points="624.43,-136.95 632.37,-129.93 621.79,-130.46 624.43,-136.95"/>
</g>
<!-- Node12 -->
<g id="node12" class="node">
<title>Node12</title>
<g id="a_node12"><a xlink:title=" ">
<polygon fill="#e0e0e0" stroke="#999999" points="1013.5,-19 959.5,-19 959.5,0 1013.5,0 1013.5,-19"/>
<text text-anchor="middle" x="986.5" y="-7" font-family="Helvetica,sans-Serif" font-size="10.00">iostream</text>
</a>
</g>
</g>
<!-- Node11&#45;&gt;Node12 -->
<g id="edge13" class="edge">
<title>Node11&#45;&gt;Node12</title>
<path fill="none" stroke="#63b8ff" d="M743.39,-56.52C796.52,-46.46 894.09,-27.99 948.07,-17.78"/>
<polygon fill="#63b8ff" stroke="#63b8ff" points="948.54,-21.25 957.72,-15.95 947.24,-14.37 948.54,-21.25"/>
</g>
<!-- Node14&#45;&gt;Node4 -->
<g id="edge19" class="edge">
<title>Node14&#45;&gt;Node4</title>
<path fill="none" stroke="#63b8ff" d="M480.1,-109.51C448.31,-100.69 399.64,-87.18 364.6,-77.46"/>
<polygon fill="#63b8ff" stroke="#63b8ff" points="365.77,-74.15 355.2,-74.85 363.9,-80.9 365.77,-74.15"/>
</g>
<!-- Node14&#45;&gt;Node6 -->
<g id="edge18" class="edge">
<title>Node14&#45;&gt;Node6</title>
<path fill="none" stroke="#63b8ff" d="M526.66,-109.66C556.31,-91.15 625.22,-48.13 661.76,-25.32"/>
<polygon fill="#63b8ff" stroke="#63b8ff" points="663.23,-28.53 669.86,-20.26 659.53,-22.59 663.23,-28.53"/>
</g>
<!-- Node14&#45;&gt;Node11 -->
<g id="edge20" class="edge">
<title>Node14&#45;&gt;Node11</title>
<path fill="none" stroke="#63b8ff" d="M545.41,-109.51C577.7,-100.69 627.13,-87.18 662.72,-77.46"/>
<polygon fill="#63b8ff" stroke="#63b8ff" points="663.57,-80.86 672.29,-74.85 661.72,-74.1 663.57,-80.86"/>
</g>
<!-- Node19&#45;&gt;Node3 -->
<g id="edge28" class="edge">
<title>Node19&#45;&gt;Node3</title>
<path fill="none" stroke="#63b8ff" d="M452.83,-291.18C447.79,-267.05 430.41,-199.47 388.5,-165 354,-136.62 303.14,-126.2 266.62,-122.45"/>
<polygon fill="#63b8ff" stroke="#63b8ff" points="267.09,-118.98 256.82,-121.58 266.47,-125.95 267.09,-118.98"/>
</g>
<!-- Node19&#45;&gt;Node4 -->
<g id="edge30" class="edge">
<title>Node19&#45;&gt;Node4</title>
<path fill="none" stroke="#63b8ff" d="M455.06,-291.32C455.75,-276.33 455.92,-244.82 447.5,-220 438.19,-192.56 433.18,-185.29 412.5,-165 390.58,-143.48 374.32,-151.58 353.5,-129 341.72,-116.22 333.22,-98.3 327.95,-84.75"/>
<polygon fill="#63b8ff" stroke="#63b8ff" points="331.35,-83.86 324.67,-75.63 324.77,-86.23 331.35,-83.86"/>
</g>
<!-- Node19&#45;&gt;Node6 -->
<g id="edge26" class="edge">
<title>Node19&#45;&gt;Node6</title>
<path fill="none" stroke="#63b8ff" d="M508.4,-292.8C608.82,-277.87 814.5,-239.48 814.5,-175.5 814.5,-175.5 814.5,-175.5 814.5,-118.5 814.5,-67.72 755.01,-36.11 716.83,-21.04"/>
<polygon fill="#63b8ff" stroke="#63b8ff" points="718.24,-17.83 707.64,-17.59 715.78,-24.38 718.24,-17.83"/>
</g>
<!-- Node19&#45;&gt;Node9 -->
<g id="edge32" class="edge">
<title>Node19&#45;&gt;Node9</title>
<path fill="none" stroke="#63b8ff" d="M431.84,-291.1C407.89,-281.7 369.44,-266.6 338.83,-254.59"/>
<polygon fill="#63b8ff" stroke="#63b8ff" points="340.37,-251.43 329.78,-251.03 337.81,-257.94 340.37,-251.43"/>
</g>
<!-- Node19&#45;&gt;Node10 -->
<g id="edge29" class="edge">
<title>Node19&#45;&gt;Node10</title>
<path fill="none" stroke="#63b8ff" d="M459.61,-291.05C471.12,-270.86 499.31,-221.43 514.82,-194.22"/>
<polygon fill="#63b8ff" stroke="#63b8ff" points="517.78,-196.11 519.69,-185.69 511.7,-192.64 517.78,-196.11"/>
</g>
<!-- Node19&#45;&gt;Node12 -->
<g id="edge27" class="edge">
<title>Node19&#45;&gt;Node12</title>
<path fill="none" stroke="#63b8ff" d="M508.44,-298.76C643.69,-294.18 986.5,-272.97 986.5,-175.5 986.5,-175.5 986.5,-175.5 986.5,-118.5 986.5,-87.92 986.5,-52.48 986.5,-30.77"/>
<polygon fill="#63b8ff" stroke="#63b8ff" points="990,-30.97 986.5,-20.97 983,-30.97 990,-30.97"/>
</g>
<!-- Node19&#45;&gt;Node17 -->
<g id="edge33" class="edge">
<title>Node19&#45;&gt;Node17</title>
<path fill="none" stroke="#63b8ff" d="M464.47,-291.1C496.28,-262.69 595.73,-173.88 637.13,-136.91"/>
<polygon fill="#63b8ff" stroke="#63b8ff" points="639.22,-139.73 644.34,-130.46 634.55,-134.51 639.22,-139.73"/>
</g>
<!-- Node19&#45;&gt;Node18 -->
<g id="edge31" class="edge">
<title>Node19&#45;&gt;Node18</title>
<path fill="none" stroke="#63b8ff" d="M446.29,-291.36C437.08,-281.55 421.82,-264.97 409.5,-250 394.13,-231.32 377.61,-209.05 366.53,-193.76"/>
<polygon fill="#63b8ff" stroke="#63b8ff" points="369.37,-191.71 360.69,-185.64 363.69,-195.8 369.37,-191.71"/>
</g>
<!-- Node20&#45;&gt;Node9 -->
<g id="edge40" class="edge">
<title>Node20&#45;&gt;Node9</title>
<path fill="none" stroke="#63b8ff" d="M116.5,-285.56C150.13,-276.04 194.36,-263.51 229.94,-253.43"/>
<polygon fill="#63b8ff" stroke="#63b8ff" points="230.56,-256.89 239.23,-250.8 228.65,-250.16 230.56,-256.89"/>
</g>
<!-- Node21 -->
<g id="node21" class="node">
<title>Node21</title>
<g id="a_node21"><a xlink:href="pervade_8h.html" target="_top" xlink:title=" ">
<polygon fill="white" stroke="#666666" points="122,-184 63,-184 63,-165 122,-165 122,-184"/>
<text text-anchor="middle" x="92.5" y="-172" font-family="Helvetica,sans-Serif" font-size="10.00">pervade.h</text>
</a>
</g>
</g>
<!-- Node20&#45;&gt;Node21 -->
<g id="edge36" class="edge">
<title>Node20&#45;&gt;Node21</title>
<path fill="none" stroke="#63b8ff" d="M68.6,-285.72C73.41,-263.53 82.69,-220.73 88.17,-195.49"/>
<polygon fill="#63b8ff" stroke="#63b8ff" points="91.55,-196.38 90.25,-185.86 84.71,-194.89 91.55,-196.38"/>
</g>
<!-- Node21&#45;&gt;Node3 -->
<g id="edge37" class="edge">
<title>Node21&#45;&gt;Node3</title>
<path fill="none" stroke="#63b8ff" d="M114.38,-164.51C134.99,-156.04 166.09,-143.27 189.48,-133.66"/>
<polygon fill="#63b8ff" stroke="#63b8ff" points="190.62,-136.97 198.54,-129.93 187.96,-130.5 190.62,-136.97"/>
</g>
<!-- Node21&#45;&gt;Node4 -->
<g id="edge38" class="edge">
<title>Node21&#45;&gt;Node4</title>
<path fill="none" stroke="#63b8ff" d="M97.41,-164.59C105.54,-150.72 123.13,-124.07 145.5,-110 167.04,-96.45 231.41,-82.3 276.02,-73.68"/>
<polygon fill="#63b8ff" stroke="#63b8ff" points="276.52,-77.15 285.69,-71.85 275.22,-70.27 276.52,-77.15"/>
</g>
<!-- Node22 -->
<g id="node22" class="node">
<title>Node22</title>
<g id="a_node22"><a xlink:title=" ">
<polygon fill="#e0e0e0" stroke="#999999" points="93.5,-129 25.5,-129 25.5,-110 93.5,-110 93.5,-129"/>
<text text-anchor="middle" x="59.5" y="-117" font-family="Helvetica,sans-Serif" font-size="10.00">pervade.tpp</text>
</a>
</g>
</g>
<!-- Node21&#45;&gt;Node22 -->
<g id="edge39" class="edge">
<title>Node21&#45;&gt;Node22</title>
<path fill="none" stroke="#63b8ff" d="M87.05,-164.75C82.73,-157.81 76.54,-147.86 71.12,-139.16"/>
<polygon fill="#63b8ff" stroke="#63b8ff" points="74.12,-137.37 65.87,-130.73 68.18,-141.07 74.12,-137.37"/>
</g>
<!-- Node23&#45;&gt;Node4 -->
<g id="edge43" class="edge">
<title>Node23&#45;&gt;Node4</title>
<path fill="none" stroke="#63b8ff" d="M176.65,-351.69C170.59,-327.88 159.5,-278.52 159.5,-236 159.5,-236 159.5,-236 159.5,-173.5 159.5,-144.04 157.78,-130.94 178.5,-110 192.34,-96.01 239.79,-83.01 276.28,-74.72"/>
<polygon fill="#63b8ff" stroke="#63b8ff" points="276.72,-78.21 285.72,-72.63 275.2,-71.37 276.72,-78.21"/>
</g>
<!-- Node23&#45;&gt;Node9 -->
<g id="edge42" class="edge">
<title>Node23&#45;&gt;Node9</title>
<path fill="none" stroke="#63b8ff" d="M192.8,-351.59C211.89,-329.24 248.81,-285.99 271.69,-259.2"/>
<polygon fill="#63b8ff" stroke="#63b8ff" points="274.33,-261.5 278.16,-251.62 269,-256.96 274.33,-261.5"/>
</g>
<!-- Node23&#45;&gt;Node19 -->
<g id="edge44" class="edge">
<title>Node23&#45;&gt;Node19</title>
<path fill="none" stroke="#63b8ff" d="M242.33,-351.56C291.51,-340.07 359.41,-324.21 405.03,-313.55"/>
<polygon fill="#63b8ff" stroke="#63b8ff" points="405.71,-316.99 414.65,-311.31 404.12,-310.17 405.71,-316.99"/>
</g>
<!-- Node24&#45;&gt;Node9 -->
<g id="edge46" class="edge">
<title>Node24&#45;&gt;Node9</title>
<path fill="none" stroke="#63b8ff" d="M436.29,-351.58C423.7,-341.6 406.57,-328.01 391.5,-316 366.73,-296.26 338.57,-273.72 318.45,-257.61"/>
<polygon fill="#63b8ff" stroke="#63b8ff" points="320.72,-254.94 310.73,-251.42 316.34,-260.4 320.72,-254.94"/>
</g>
<!-- Node24&#45;&gt;Node19 -->
<g id="edge47" class="edge">
<title>Node24&#45;&gt;Node19</title>
<path fill="none" stroke="#63b8ff" d="M454.5,-351.8C454.5,-343.09 454.5,-331.81 454.5,-322.18"/>
<polygon fill="#63b8ff" stroke="#63b8ff" points="458,-322.36 454.5,-312.36 451,-322.36 458,-322.36"/>
</g>
<!-- Node25&#45;&gt;Node4 -->
<g id="edge54" class="edge">
<title>Node25&#45;&gt;Node4</title>
<path fill="none" stroke="#63b8ff" d="M923.63,-164.71C920.1,-150.48 910.97,-122.72 891.5,-110 847.98,-81.58 494.08,-69.87 366.85,-66.56"/>
<polygon fill="#63b8ff" stroke="#63b8ff" points="367.21,-63.07 357.13,-66.31 367.03,-70.07 367.21,-63.07"/>
</g>
<!-- Node25&#45;&gt;Node12 -->
<g id="edge49" class="edge">
<title>Node25&#45;&gt;Node12</title>
<path fill="none" stroke="#63b8ff" d="M928.78,-164.74C938.3,-139.31 966.08,-65.08 979.32,-29.69"/>
<polygon fill="#63b8ff" stroke="#63b8ff" points="982.45,-31.32 982.67,-20.72 975.89,-28.86 982.45,-31.32"/>
</g>
<!-- Node25&#45;&gt;Node13 -->
<g id="edge55" class="edge">
<title>Node25&#45;&gt;Node13</title>
<path fill="none" stroke="#63b8ff" d="M894.8,-164.51C864.8,-155.73 818.95,-142.3 785.77,-132.59"/>
<polygon fill="#63b8ff" stroke="#63b8ff" points="787.09,-129.32 776.5,-129.87 785.12,-136.04 787.09,-129.32"/>
</g>
<!-- Node25&#45;&gt;Node15 -->
<g id="edge51" class="edge">
<title>Node25&#45;&gt;Node15</title>
<path fill="none" stroke="#63b8ff" d="M914.81,-164.51C905.8,-156.93 892.67,-145.88 881.82,-136.75"/>
<polygon fill="#63b8ff" stroke="#63b8ff" points="884.09,-134.09 874.19,-130.33 879.59,-139.45 884.09,-134.09"/>
</g>
<!-- Node26 -->
<g id="node26" class="node">
<title>Node26</title>
<g id="a_node26"><a xlink:title=" ">
<polygon fill="#e0e0e0" stroke="#999999" points="1104.5,-129 1052.5,-129 1052.5,-110 1104.5,-110 1104.5,-129"/>
<text text-anchor="middle" x="1078.5" y="-117" font-family="Helvetica,sans-Serif" font-size="10.00">sstream</text>
</a>
</g>
</g>
<!-- Node25&#45;&gt;Node26 -->
<g id="edge50" class="edge">
<title>Node25&#45;&gt;Node26</title>
<path fill="none" stroke="#63b8ff" d="M951.45,-164.51C976.37,-155.88 1014.23,-142.76 1042.14,-133.1"/>
<polygon fill="#63b8ff" stroke="#63b8ff" points="1042.94,-136.52 1051.24,-129.94 1040.65,-129.91 1042.94,-136.52"/>
</g>
<!-- Node27 -->
<g id="node27" class="node">
<title>Node27</title>
<g id="a_node27"><a xlink:href="error__type_8h.html" target="_top" xlink:title=" ">
<polygon fill="white" stroke="#666666" points="934.5,-74 866.5,-74 866.5,-55 934.5,-55 934.5,-74"/>
<text text-anchor="middle" x="900.5" y="-62" font-family="Helvetica,sans-Serif" font-size="10.00">error_type.h</text>
</a>
</g>
</g>
<!-- Node25&#45;&gt;Node27 -->
<g id="edge52" class="edge">
<title>Node25&#45;&gt;Node27</title>
<path fill="none" stroke="#63b8ff" d="M926.66,-164.7C928,-152.27 929.45,-128.99 924.5,-110 922.12,-100.88 917.51,-91.58 912.97,-83.86"/>
<polygon fill="#63b8ff" stroke="#63b8ff" points="915.95,-82.02 907.63,-75.45 910.04,-85.77 915.95,-82.02"/>
</g>
<!-- Node27&#45;&gt;Node6 -->
<g id="edge53" class="edge">
<title>Node27&#45;&gt;Node6</title>
<path fill="none" stroke="#63b8ff" d="M866.43,-55.1C825.48,-45.01 757.29,-28.2 717.35,-18.35"/>
<polygon fill="#63b8ff" stroke="#63b8ff" points="718.42,-15.01 707.87,-16.02 716.75,-21.81 718.42,-15.01"/>
</g>
</g>
</svg>
