<?xml version="1.0" encoding="UTF-8" standalone="no"?>
<!DOCTYPE svg PUBLIC "-//W3C//DTD SVG 1.1//EN"
 "http://www.w3.org/Graphics/SVG/1.1/DTD/svg11.dtd">
<!-- Generated by graphviz version 7.1.0 (20230121.1956)
 -->
<!-- Title: src/core/constants/literals.h Pages: 1 -->
<!--zoomable 170 -->
<svg id="main" version="1.1" xmlns="http://www.w3.org/2000/svg" xmlns:xlink="http://www.w3.org/1999/xlink" xml:space="preserve" onload="init(evt)">
<style type="text/css"><![CDATA[
.edge:hover path { stroke: red; }
.edge:hover polygon { stroke: red; fill: red; }
]]></style>
<script type="text/javascript"><![CDATA[
var edges = document.getElementsByTagName('g');
if (edges && edges.length) {
  for (var i=0;i<edges.length;i++) {
    if (edges[i].id.substr(0,4)=='edge') {
      edges[i].setAttribute('class','edge');
    }
  }
}
]]></script>
        <defs>
                <circle id="rim" cx="0" cy="0" r="7"/>
                <circle id="rim2" cx="0" cy="0" r="3.5"/>
                <g id="zoomPlus">
                        <use xlink:href="#rim" fill="#404040">
                                <set attributeName="fill" to="#808080" begin="zoomplus.mouseover" end="zoomplus.mouseout"/>
                        </use>
                        <path d="M-4,0h8M0,-4v8" fill="none" stroke="white" stroke-width="1.5" pointer-events="none"/>
                </g>
                <g id="zoomMin">
                        <use xlink:href="#rim" fill="#404040">
                                <set attributeName="fill" to="#808080" begin="zoomminus.mouseover" end="zoomminus.mouseout"/>
                        </use>
                        <path d="M-4,0h8" fill="none" stroke="white" stroke-width="1.5" pointer-events="none"/>
                </g>
                <g id="dirArrow">
                        <path fill="none" stroke="white" stroke-width="1.5" d="M0,-3.0v7 M-2.5,-0.5L0,-3.0L2.5,-0.5"/>
                </g>
               <g id="resetDef">
                       <use xlink:href="#rim2" fill="#404040">
                               <set attributeName="fill" to="#808080" begin="reset.mouseover" end="reset.mouseout"/>
                       </use>
               </g>
        </defs>

<script type="text/javascript">
var viewWidth = 1535;
var viewHeight = 170;
var sectionId = 'dynsection-1';
</script>
<script xlink:href="svgpan.js"/>
<svg id="graph" class="graph">
<g id="viewport">
<title>src/core/constants/literals.h</title>
<!-- Node1 -->
<g id="node1" class="node">
<title>Node1</title>
<g id="a_node1"><a xlink:title=" ">
<polygon fill="#999999" stroke="#666666" points="578,-162 480,-162 480,-132 578,-132 578,-162"/>
<text text-anchor="start" x="488" y="-150" font-family="Helvetica,sans-Serif" font-size="10.00">src/core/constants</text>
<text text-anchor="middle" x="529" y="-139" font-family="Helvetica,sans-Serif" font-size="10.00">/literals.h</text>
</a>
</g>
</g>
<!-- Node2 -->
<g id="node2" class="node">
<title>Node2</title>
<g id="a_node2"><a xlink:href="array_8cpp.html" target="_top" xlink:title=" ">
<polygon fill="white" stroke="#666666" points="94,-85 0,-85 0,-66 94,-66 94,-85"/>
<text text-anchor="middle" x="47" y="-73" font-family="Helvetica,sans-Serif" font-size="10.00">src/core/array.cpp</text>
</a>
</g>
</g>
<!-- Node1&#45;&gt;Node2 -->
<g id="edge1" class="edge">
<title>Node1&#45;&gt;Node2</title>
<path fill="none" stroke="#63b8ff" d="M468.26,-143.04C384.97,-138.05 231.06,-125.44 103,-96 91.56,-93.37 79.21,-89.22 69.02,-85.42"/>
<polygon fill="#63b8ff" stroke="#63b8ff" points="467.83,-146.53 478.02,-143.61 468.24,-139.54 467.83,-146.53"/>
</g>
<!-- Node3 -->
<g id="node3" class="node">
<title>Node3</title>
<g id="a_node3"><a xlink:href="config_8cpp.html" target="_top" xlink:title=" ">
<polygon fill="white" stroke="#666666" points="210,-90.5 112,-90.5 112,-60.5 210,-60.5 210,-90.5"/>
<text text-anchor="start" x="120" y="-78.5" font-family="Helvetica,sans-Serif" font-size="10.00">src/core/constants</text>
<text text-anchor="middle" x="161" y="-67.5" font-family="Helvetica,sans-Serif" font-size="10.00">/config.cpp</text>
</a>
</g>
</g>
<!-- Node1&#45;&gt;Node3 -->
<g id="edge2" class="edge">
<title>Node1&#45;&gt;Node3</title>
<path fill="none" stroke="#63b8ff" d="M468.34,-139.21C405.42,-131.48 304.45,-117.1 219,-96 213.22,-94.57 207.2,-92.84 201.31,-91"/>
<polygon fill="#63b8ff" stroke="#63b8ff" points="467.79,-142.67 478.14,-140.4 468.63,-135.72 467.79,-142.67"/>
</g>
<!-- Node4 -->
<g id="node4" class="node">
<title>Node4</title>
<g id="a_node4"><a xlink:href="datatypes_8cpp.html" target="_top" xlink:title=" ">
<polygon fill="white" stroke="#666666" points="344,-85 228,-85 228,-66 344,-66 344,-85"/>
<text text-anchor="middle" x="286" y="-73" font-family="Helvetica,sans-Serif" font-size="10.00">src/core/datatypes.cpp</text>
</a>
</g>
</g>
<!-- Node1&#45;&gt;Node4 -->
<g id="edge3" class="edge">
<title>Node1&#45;&gt;Node4</title>
<path fill="none" stroke="#63b8ff" d="M468.96,-129.05C434.93,-119.41 391.56,-107.09 353,-96 341.12,-92.58 328.08,-88.8 316.67,-85.47"/>
<polygon fill="#63b8ff" stroke="#63b8ff" points="467.63,-132.31 478.21,-131.66 469.54,-125.57 467.63,-132.31"/>
</g>
<!-- Node5 -->
<g id="node5" class="node">
<title>Node5</title>
<g id="a_node5"><a xlink:href="defined__function_8cpp.html" target="_top" xlink:title=" ">
<polygon fill="white" stroke="#666666" points="461.5,-96 362.5,-96 362.5,-55 461.5,-55 461.5,-96"/>
<text text-anchor="start" x="370.5" y="-84" font-family="Helvetica,sans-Serif" font-size="10.00">src/core/evaluation</text>
<text text-anchor="start" x="370.5" y="-73" font-family="Helvetica,sans-Serif" font-size="10.00">/operations/defined</text>
<text text-anchor="middle" x="412" y="-62" font-family="Helvetica,sans-Serif" font-size="10.00">_function.cpp</text>
</a>
</g>
</g>
<!-- Node1&#45;&gt;Node5 -->
<g id="edge4" class="edge">
<title>Node1&#45;&gt;Node5</title>
<path fill="none" stroke="#63b8ff" d="M494.99,-125.8C479.43,-116.55 461.04,-105.63 445.53,-96.42"/>
<polygon fill="#63b8ff" stroke="#63b8ff" points="493.07,-128.73 503.46,-130.83 496.65,-122.71 493.07,-128.73"/>
</g>
<!-- Node6 -->
<g id="node6" class="node">
<title>Node6</title>
<g id="a_node6"><a xlink:href="parser_8cpp.html" target="_top" xlink:title=" ">
<polygon fill="white" stroke="#666666" points="578.5,-90.5 479.5,-90.5 479.5,-60.5 578.5,-60.5 578.5,-90.5"/>
<text text-anchor="start" x="487.5" y="-78.5" font-family="Helvetica,sans-Serif" font-size="10.00">src/core/evaluation</text>
<text text-anchor="middle" x="529" y="-67.5" font-family="Helvetica,sans-Serif" font-size="10.00">/parser/parser.cpp</text>
</a>
</g>
</g>
<!-- Node1&#45;&gt;Node6 -->
<g id="edge5" class="edge">
<title>Node1&#45;&gt;Node6</title>
<path fill="none" stroke="#63b8ff" d="M529,-120.26C529,-110.33 529,-99.36 529,-90.88"/>
<polygon fill="#63b8ff" stroke="#63b8ff" points="525.5,-120.09 529,-130.09 532.5,-120.09 525.5,-120.09"/>
</g>
<!-- Node7 -->
<g id="node7" class="node">
<title>Node7</title>
<g id="a_node7"><a xlink:href="tokenizer_8cpp.html" target="_top" xlink:title=" ">
<polygon fill="white" stroke="#666666" points="717,-90.5 597,-90.5 597,-60.5 717,-60.5 717,-90.5"/>
<text text-anchor="start" x="605" y="-78.5" font-family="Helvetica,sans-Serif" font-size="10.00">src/core/evaluation</text>
<text text-anchor="middle" x="657" y="-67.5" font-family="Helvetica,sans-Serif" font-size="10.00">/tokenizer/tokenizer.cpp</text>
</a>
</g>
</g>
<!-- Node1&#45;&gt;Node7 -->
<g id="edge6" class="edge">
<title>Node1&#45;&gt;Node7</title>
<path fill="none" stroke="#63b8ff" d="M565.56,-126.15C586.28,-114.9 611.73,-101.08 630.51,-90.88"/>
<polygon fill="#63b8ff" stroke="#63b8ff" points="563.97,-123.03 556.85,-130.88 567.31,-129.18 563.97,-123.03"/>
</g>
<!-- Node8 -->
<g id="node8" class="node">
<title>Node8</title>
<g id="a_node8"><a xlink:href="execution_8cpp.html" target="_top" xlink:title=" ">
<polygon fill="white" stroke="#666666" points="851,-85 735,-85 735,-66 851,-66 851,-85"/>
<text text-anchor="middle" x="793" y="-73" font-family="Helvetica,sans-Serif" font-size="10.00">src/core/execution.cpp</text>
</a>
</g>
</g>
<!-- Node1&#45;&gt;Node8 -->
<g id="edge7" class="edge">
<title>Node1&#45;&gt;Node8</title>
<path fill="none" stroke="#63b8ff" d="M589.28,-131.28C628.35,-121.59 680.29,-108.45 726,-96 738.16,-92.69 751.49,-88.85 763.05,-85.46"/>
<polygon fill="#63b8ff" stroke="#63b8ff" points="588.44,-127.88 579.57,-133.68 590.12,-134.67 588.44,-127.88"/>
</g>
<!-- Node9 -->
<g id="node9" class="node">
<title>Node9</title>
<g id="a_node9"><a xlink:href="symbol__table_8cpp.html" target="_top" xlink:title=" ">
<polygon fill="white" stroke="#666666" points="1000.5,-85 869.5,-85 869.5,-66 1000.5,-66 1000.5,-85"/>
<text text-anchor="middle" x="935" y="-73" font-family="Helvetica,sans-Serif" font-size="10.00">src/core/symbol_table.cpp</text>
</a>
</g>
</g>
<!-- Node1&#45;&gt;Node9 -->
<g id="edge8" class="edge">
<title>Node1&#45;&gt;Node9</title>
<path fill="none" stroke="#63b8ff" d="M589.47,-138.79C656.08,-130.41 766.22,-115.22 860,-96 874.37,-93.06 890.1,-89.08 903.42,-85.49"/>
<polygon fill="#63b8ff" stroke="#63b8ff" points="589.35,-135.28 579.86,-139.99 590.21,-142.23 589.35,-135.28"/>
</g>
<!-- Node10 -->
<g id="node10" class="node">
<title>Node10</title>
<g id="a_node10"><a xlink:href="matcher_8h.html" target="_top" xlink:title=" ">
<polygon fill="white" stroke="#666666" points="1127,-85 1019,-85 1019,-66 1127,-66 1127,-85"/>
<text text-anchor="middle" x="1073" y="-73" font-family="Helvetica,sans-Serif" font-size="10.00">src/testing/matcher.h</text>
</a>
</g>
</g>
<!-- Node1&#45;&gt;Node10 -->
<g id="edge9" class="edge">
<title>Node1&#45;&gt;Node10</title>
<path fill="none" stroke="#63b8ff" d="M589.59,-143.52C681.36,-138.91 860.72,-126.55 1010,-96 1022.79,-93.38 1036.68,-89.23 1048.16,-85.43"/>
<polygon fill="#63b8ff" stroke="#63b8ff" points="589.63,-140.02 579.81,-144 589.97,-147.01 589.63,-140.02"/>
</g>
<!-- Node11 -->
<g id="node11" class="node">
<title>Node11</title>
<g id="a_node11"><a xlink:href="test__datatypes_8cpp.html" target="_top" xlink:title=" ">
<polygon fill="white" stroke="#666666" points="738.5,-19 589.5,-19 589.5,0 738.5,0 738.5,-19"/>
<text text-anchor="middle" x="664" y="-7" font-family="Helvetica,sans-Serif" font-size="10.00">src/testing/test_datatypes.cpp</text>
</a>
</g>
</g>
<!-- Node10&#45;&gt;Node11 -->
<g id="edge10" class="edge">
<title>Node10&#45;&gt;Node11</title>
<path fill="none" stroke="#63b8ff" d="M1036.6,-62.07C1027.95,-59.44 1018.71,-56.89 1010,-55 959.84,-44.1 824.42,-28.12 738.63,-18.57"/>
<polygon fill="#63b8ff" stroke="#63b8ff" points="1035.49,-65.39 1046.08,-65.06 1037.59,-58.71 1035.49,-65.39"/>
</g>
<!-- Node12 -->
<g id="node12" class="node">
<title>Node12</title>
<g id="a_node12"><a xlink:href="test__examples_8cpp.html" target="_top" xlink:title=" ">
<polygon fill="white" stroke="#666666" points="905,-19 757,-19 757,0 905,0 905,-19"/>
<text text-anchor="middle" x="831" y="-7" font-family="Helvetica,sans-Serif" font-size="10.00">src/testing/test_examples.cpp</text>
</a>
</g>
</g>
<!-- Node10&#45;&gt;Node12 -->
<g id="edge11" class="edge">
<title>Node10&#45;&gt;Node12</title>
<path fill="none" stroke="#63b8ff" d="M1034.24,-62.13C1026.25,-59.68 1017.87,-57.19 1010,-55 961.88,-41.58 905.94,-27.99 869.57,-19.42"/>
<polygon fill="#63b8ff" stroke="#63b8ff" points="1033.15,-65.45 1043.74,-65.07 1035.23,-58.77 1033.15,-65.45"/>
</g>
<!-- Node13 -->
<g id="node13" class="node">
<title>Node13</title>
<g id="a_node13"><a xlink:href="test__functions_8cpp.html" target="_top" xlink:title=" ">
<polygon fill="white" stroke="#666666" points="1069,-19 923,-19 923,0 1069,0 1069,-19"/>
<text text-anchor="middle" x="996" y="-7" font-family="Helvetica,sans-Serif" font-size="10.00">src/testing/test_functions.cpp</text>
</a>
</g>
</g>
<!-- Node10&#45;&gt;Node13 -->
<g id="edge12" class="edge">
<title>Node10&#45;&gt;Node13</title>
<path fill="none" stroke="#63b8ff" d="M1053.8,-58.54C1038.88,-46.14 1018.76,-29.42 1006.62,-19.32"/>
<polygon fill="#63b8ff" stroke="#63b8ff" points="1051.2,-60.93 1061.13,-64.63 1055.68,-55.55 1051.2,-60.93"/>
</g>
<!-- Node14 -->
<g id="node14" class="node">
<title>Node14</title>
<g id="a_node14"><a xlink:href="test__lexer_8cpp.html" target="_top" xlink:title=" ">
<polygon fill="white" stroke="#666666" points="1213,-19 1087,-19 1087,0 1213,0 1213,-19"/>
<text text-anchor="middle" x="1150" y="-7" font-family="Helvetica,sans-Serif" font-size="10.00">src/testing/test_lexer.cpp</text>
</a>
</g>
</g>
<!-- Node10&#45;&gt;Node14 -->
<g id="edge13" class="edge">
<title>Node10&#45;&gt;Node14</title>
<path fill="none" stroke="#63b8ff" d="M1092.2,-58.54C1107.12,-46.14 1127.24,-29.42 1139.38,-19.32"/>
<polygon fill="#63b8ff" stroke="#63b8ff" points="1090.32,-55.55 1084.87,-64.63 1094.8,-60.93 1090.32,-55.55"/>
</g>
<!-- Node15 -->
<g id="node15" class="node">
<title>Node15</title>
<g id="a_node15"><a xlink:href="test__operators_8cpp.html" target="_top" xlink:title=" ">
<polygon fill="white" stroke="#666666" points="1377,-19 1231,-19 1231,0 1377,0 1377,-19"/>
<text text-anchor="middle" x="1304" y="-7" font-family="Helvetica,sans-Serif" font-size="10.00">src/testing/test_operators.cpp</text>
</a>
</g>
</g>
<!-- Node10&#45;&gt;Node15 -->
<g id="edge14" class="edge">
<title>Node10&#45;&gt;Node15</title>
<path fill="none" stroke="#63b8ff" d="M1116.03,-62.58C1161.2,-50.06 1231.16,-30.68 1271.78,-19.43"/>
<polygon fill="#63b8ff" stroke="#63b8ff" points="1115.28,-59.15 1106.58,-65.2 1117.15,-65.9 1115.28,-59.15"/>
</g>
<!-- Node16 -->
<g id="node16" class="node">
<title>Node16</title>
<g id="a_node16"><a xlink:href="test__parser_8cpp.html" target="_top" xlink:title=" ">
<polygon fill="white" stroke="#666666" points="1527,-19 1395,-19 1395,0 1527,0 1527,-19"/>
<text text-anchor="middle" x="1461" y="-7" font-family="Helvetica,sans-Serif" font-size="10.00">src/testing/test_parser.cpp</text>
</a>
</g>
</g>
<!-- Node10&#45;&gt;Node16 -->
<g id="edge15" class="edge">
<title>Node10&#45;&gt;Node16</title>
<path fill="none" stroke="#63b8ff" d="M1138.59,-63.68C1214,-51.24 1336.4,-31.05 1406.7,-19.46"/>
<polygon fill="#63b8ff" stroke="#63b8ff" points="1138.15,-60.21 1128.85,-65.29 1139.29,-67.11 1138.15,-60.21"/>
</g>
</g>
</svg>
        <g id="navigator" transform="translate(0 0)" fill="#404254">
                <rect fill="#f2f5e9" fill-opacity="0.5" stroke="#606060" stroke-width=".5" x="0" y="0" width="60" height="60"/>
                <use id="zoomplus" xlink:href="#zoomPlus" x="17" y="9" onmousedown="handleZoom(evt,'in')"/>
                <use id="zoomminus" xlink:href="#zoomMin" x="42" y="9" onmousedown="handleZoom(evt,'out')"/>
                <use id="reset" xlink:href="#resetDef" x="30" y="36" onmousedown="handleReset()"/>
                <g id="arrowUp" xlink:href="#dirArrow" transform="translate(30 24)" onmousedown="handlePan(0,-1)">
                  <use xlink:href="#rim" fill="#404040">
                        <set attributeName="fill" to="#808080" begin="arrowUp.mouseover" end="arrowUp.mouseout"/>
                  </use>
                  <path fill="none" stroke="white" stroke-width="1.5" d="M0,-3.0v7 M-2.5,-0.5L0,-3.0L2.5,-0.5"/>
                </g>
                <g id="arrowRight" xlink:href="#dirArrow" transform="rotate(90) translate(36 -43)" onmousedown="handlePan(1,0)">
                  <use xlink:href="#rim" fill="#404040">
                        <set attributeName="fill" to="#808080" begin="arrowRight.mouseover" end="arrowRight.mouseout"/>
                  </use>
                  <path fill="none" stroke="white" stroke-width="1.5" d="M0,-3.0v7 M-2.5,-0.5L0,-3.0L2.5,-0.5"/>
                </g>
                <g id="arrowDown" xlink:href="#dirArrow" transform="rotate(180) translate(-30 -48)" onmousedown="handlePan(0,1)">
                  <use xlink:href="#rim" fill="#404040">
                        <set attributeName="fill" to="#808080" begin="arrowDown.mouseover" end="arrowDown.mouseout"/>
                  </use>
                  <path fill="none" stroke="white" stroke-width="1.5" d="M0,-3.0v7 M-2.5,-0.5L0,-3.0L2.5,-0.5"/>
                </g>
                <g id="arrowLeft" xlink:href="#dirArrow" transform="rotate(270) translate(-36 17)" onmousedown="handlePan(-1,0)">
                  <use xlink:href="#rim" fill="#404040">
                        <set attributeName="fill" to="#808080" begin="arrowLeft.mouseover" end="arrowLeft.mouseout"/>
                  </use>
                  <path fill="none" stroke="white" stroke-width="1.5" d="M0,-3.0v7 M-2.5,-0.5L0,-3.0L2.5,-0.5"/>
                </g>
        </g>
        <svg viewBox="0 0 15 15" width="100%" height="30px" preserveAspectRatio="xMaxYMin meet">
         <g id="arrow_out" transform="scale(0.3 0.3)">
          <a xlink:href="literals_8h__dep__incl_org.svg" target="_base">
           <rect id="button" ry="5" rx="5" y="6" x="6" height="38" width="38"
                fill="#f2f5e9" fill-opacity="0.5" stroke="#606060" stroke-width="1.0"/>
           <path id="arrow"
             d="M 11.500037,31.436501 C 11.940474,20.09759 22.043105,11.32322 32.158766,21.979434 L 37.068811,17.246167 C 37.068811,17.246167 37.088388,32 37.088388,32 L 22.160133,31.978069 C 22.160133,31.978069 26.997745,27.140456 26.997745,27.140456 C 18.528582,18.264221 13.291696,25.230495 11.500037,31.436501 z"
             style="fill:#404040;"/>
          </a>
         </g>
        </svg>
</svg>
