<?xml version="1.0" encoding="UTF-8" standalone="no"?>
<!DOCTYPE svg PUBLIC "-//W3C//DTD SVG 1.1//EN"
 "http://www.w3.org/Graphics/SVG/1.1/DTD/svg11.dtd">
<!-- Generated by graphviz version 7.1.0 (20230121.1956)
 -->
<!-- Title: /Users/nikolajbankejensen/Desktop/Kepler/src/core/literals.h Pages: 1 -->
<!--zoomable 214 -->
<svg id="main" version="1.1" xmlns="http://www.w3.org/2000/svg" xmlns:xlink="http://www.w3.org/1999/xlink" xml:space="preserve" onload="init(evt)">
<style type="text/css"><![CDATA[
.edge:hover path { stroke: red; }
.edge:hover polygon { stroke: red; fill: red; }
]]></style>
<script type="text/javascript"><![CDATA[
var edges = document.getElementsByTagName('g');
if (edges && edges.length) {
  for (var i=0;i<edges.length;i++) {
    if (edges[i].id.substr(0,4)=='edge') {
      edges[i].setAttribute('class','edge');
    }
  }
}
]]></script>
        <defs>
                <circle id="rim" cx="0" cy="0" r="7"/>
                <circle id="rim2" cx="0" cy="0" r="3.5"/>
                <g id="zoomPlus">
                        <use xlink:href="#rim" fill="#404040">
                                <set attributeName="fill" to="#808080" begin="zoomplus.mouseover" end="zoomplus.mouseout"/>
                        </use>
                        <path d="M-4,0h8M0,-4v8" fill="none" stroke="white" stroke-width="1.5" pointer-events="none"/>
                </g>
                <g id="zoomMin">
                        <use xlink:href="#rim" fill="#404040">
                                <set attributeName="fill" to="#808080" begin="zoomminus.mouseover" end="zoomminus.mouseout"/>
                        </use>
                        <path d="M-4,0h8" fill="none" stroke="white" stroke-width="1.5" pointer-events="none"/>
                </g>
                <g id="dirArrow">
                        <path fill="none" stroke="white" stroke-width="1.5" d="M0,-3.0v7 M-2.5,-0.5L0,-3.0L2.5,-0.5"/>
                </g>
               <g id="resetDef">
                       <use xlink:href="#rim2" fill="#404040">
                               <set attributeName="fill" to="#808080" begin="reset.mouseover" end="reset.mouseout"/>
                       </use>
               </g>
        </defs>

<script type="text/javascript">
var viewWidth = 2093;
var viewHeight = 214;
var sectionId = 'dynsection-1';
</script>
<script xlink:href="svgpan.js"/>
<svg id="graph" class="graph">
<g id="viewport">
<title>/Users/nikolajbankejensen/Desktop/Kepler/src/core/literals.h</title>
<!-- Node1 -->
<g id="node1" class="node">
<title>Node1</title>
<g id="a_node1"><a xlink:title=" ">
<polygon fill="#999999" stroke="#666666" points="934,-206 803,-206 803,-165 934,-165 934,-206"/>
<text text-anchor="start" x="811" y="-194" font-family="Helvetica,sans-Serif" font-size="10.00">/Users/nikolajbankejensen</text>
<text text-anchor="start" x="811" y="-183" font-family="Helvetica,sans-Serif" font-size="10.00">/Desktop/Kepler/src/core</text>
<text text-anchor="middle" x="868.5" y="-172" font-family="Helvetica,sans-Serif" font-size="10.00">/literals.h</text>
</a>
</g>
</g>
<!-- Node2 -->
<g id="node2" class="node">
<title>Node2</title>
<g id="a_node2"><a xlink:href="array_8cpp.html" target="_top" xlink:title=" ">
<polygon fill="white" stroke="#666666" points="131,-123.5 0,-123.5 0,-82.5 131,-82.5 131,-123.5"/>
<text text-anchor="start" x="8" y="-111.5" font-family="Helvetica,sans-Serif" font-size="10.00">/Users/nikolajbankejensen</text>
<text text-anchor="start" x="8" y="-100.5" font-family="Helvetica,sans-Serif" font-size="10.00">/Desktop/Kepler/src/core</text>
<text text-anchor="middle" x="65.5" y="-89.5" font-family="Helvetica,sans-Serif" font-size="10.00">/array.cpp</text>
</a>
</g>
</g>
<!-- Node1&#45;&gt;Node2 -->
<g id="edge1" class="edge">
<title>Node1&#45;&gt;Node2</title>
<path fill="none" stroke="#63b8ff" d="M791.57,-184.91C657.67,-184.25 373.65,-176.68 139.5,-129 132.86,-127.65 125.98,-125.87 119.23,-123.88"/>
<polygon fill="#63b8ff" stroke="#63b8ff" points="791.37,-188.41 801.38,-184.95 791.39,-181.41 791.37,-188.41"/>
</g>
<!-- Node3 -->
<g id="node3" class="node">
<title>Node3</title>
<g id="a_node3"><a xlink:href="execution_8cpp.html" target="_top" xlink:title=" ">
<polygon fill="white" stroke="#666666" points="280,-123.5 149,-123.5 149,-82.5 280,-82.5 280,-123.5"/>
<text text-anchor="start" x="157" y="-111.5" font-family="Helvetica,sans-Serif" font-size="10.00">/Users/nikolajbankejensen</text>
<text text-anchor="start" x="157" y="-100.5" font-family="Helvetica,sans-Serif" font-size="10.00">/Desktop/Kepler/src/core</text>
<text text-anchor="middle" x="214.5" y="-89.5" font-family="Helvetica,sans-Serif" font-size="10.00">/evaluation/execution.cpp</text>
</a>
</g>
</g>
<!-- Node1&#45;&gt;Node3 -->
<g id="edge2" class="edge">
<title>Node1&#45;&gt;Node3</title>
<path fill="none" stroke="#63b8ff" d="M791.35,-182.75C679.39,-178.95 465.9,-166.92 288.5,-129 282.13,-127.64 275.55,-125.91 269.06,-124"/>
<polygon fill="#63b8ff" stroke="#63b8ff" points="790.89,-186.24 801,-183.07 791.12,-179.24 790.89,-186.24"/>
</g>
<!-- Node4 -->
<g id="node4" class="node">
<title>Node4</title>
<g id="a_node4"><a xlink:href="interpreter_8cpp.html" target="_top" xlink:title=" ">
<polygon fill="white" stroke="#666666" points="429,-123.5 298,-123.5 298,-82.5 429,-82.5 429,-123.5"/>
<text text-anchor="start" x="306" y="-111.5" font-family="Helvetica,sans-Serif" font-size="10.00">/Users/nikolajbankejensen</text>
<text text-anchor="start" x="306" y="-100.5" font-family="Helvetica,sans-Serif" font-size="10.00">/Desktop/Kepler/src/core</text>
<text text-anchor="middle" x="363.5" y="-89.5" font-family="Helvetica,sans-Serif" font-size="10.00">/evaluation/interpreter.cpp</text>
</a>
</g>
</g>
<!-- Node1&#45;&gt;Node4 -->
<g id="edge3" class="edge">
<title>Node1&#45;&gt;Node4</title>
<path fill="none" stroke="#63b8ff" d="M791.29,-179.06C704.6,-171.91 560.16,-156.85 438.5,-129 432.21,-127.56 425.7,-125.81 419.27,-123.9"/>
<polygon fill="#63b8ff" stroke="#63b8ff" points="790.85,-182.53 801.1,-179.85 791.41,-175.56 790.85,-182.53"/>
</g>
<!-- Node5 -->
<g id="node5" class="node">
<title>Node5</title>
<g id="a_node5"><a xlink:href="defined__function_8cpp.html" target="_top" xlink:title=" ">
<polygon fill="white" stroke="#666666" points="593.5,-129 447.5,-129 447.5,-77 593.5,-77 593.5,-129"/>
<text text-anchor="start" x="455.5" y="-117" font-family="Helvetica,sans-Serif" font-size="10.00">/Users/nikolajbankejensen</text>
<text text-anchor="start" x="455.5" y="-106" font-family="Helvetica,sans-Serif" font-size="10.00">/Desktop/Kepler/src/core</text>
<text text-anchor="start" x="455.5" y="-95" font-family="Helvetica,sans-Serif" font-size="10.00">/evaluation/operations/defined</text>
<text text-anchor="middle" x="520.5" y="-84" font-family="Helvetica,sans-Serif" font-size="10.00">_function.cpp</text>
</a>
</g>
</g>
<!-- Node1&#45;&gt;Node5 -->
<g id="edge4" class="edge">
<title>Node1&#45;&gt;Node5</title>
<path fill="none" stroke="#63b8ff" d="M791.45,-170.33C738.11,-160.06 665.64,-145.18 602.5,-129 599.62,-128.26 596.68,-127.49 593.73,-126.68"/>
<polygon fill="#63b8ff" stroke="#63b8ff" points="790.56,-173.73 801.04,-172.17 791.88,-166.85 790.56,-173.73"/>
</g>
<!-- Node6 -->
<g id="node6" class="node">
<title>Node6</title>
<g id="a_node6"><a xlink:href="functions_8cpp.html" target="_top" xlink:title=" ">
<polygon fill="white" stroke="#666666" points="785,-123.5 612,-123.5 612,-82.5 785,-82.5 785,-123.5"/>
<text text-anchor="start" x="620" y="-111.5" font-family="Helvetica,sans-Serif" font-size="10.00">/Users/nikolajbankejensen</text>
<text text-anchor="start" x="620" y="-100.5" font-family="Helvetica,sans-Serif" font-size="10.00">/Desktop/Kepler/src/core</text>
<text text-anchor="middle" x="698.5" y="-89.5" font-family="Helvetica,sans-Serif" font-size="10.00">/evaluation/operations/functions.cpp</text>
</a>
</g>
</g>
<!-- Node1&#45;&gt;Node6 -->
<g id="edge5" class="edge">
<title>Node1&#45;&gt;Node6</title>
<path fill="none" stroke="#63b8ff" d="M816.35,-159.81C792.06,-148.3 763.53,-134.79 740.63,-123.95"/>
<polygon fill="#63b8ff" stroke="#63b8ff" points="814.57,-162.84 825.11,-163.95 817.57,-156.51 814.57,-162.84"/>
</g>
<!-- Node7 -->
<g id="node7" class="node">
<title>Node7</title>
<g id="a_node7"><a xlink:href="parser_8cpp.html" target="_top" xlink:title=" ">
<polygon fill="white" stroke="#666666" points="934,-123.5 803,-123.5 803,-82.5 934,-82.5 934,-123.5"/>
<text text-anchor="start" x="811" y="-111.5" font-family="Helvetica,sans-Serif" font-size="10.00">/Users/nikolajbankejensen</text>
<text text-anchor="start" x="811" y="-100.5" font-family="Helvetica,sans-Serif" font-size="10.00">/Desktop/Kepler/src/core</text>
<text text-anchor="middle" x="868.5" y="-89.5" font-family="Helvetica,sans-Serif" font-size="10.00">/evaluation/parser.cpp</text>
</a>
</g>
</g>
<!-- Node1&#45;&gt;Node7 -->
<g id="edge6" class="edge">
<title>Node1&#45;&gt;Node7</title>
<path fill="none" stroke="#63b8ff" d="M868.5,-153.16C868.5,-143.33 868.5,-132.76 868.5,-123.95"/>
<polygon fill="#63b8ff" stroke="#63b8ff" points="865,-153.09 868.5,-163.09 872,-153.09 865,-153.09"/>
</g>
<!-- Node8 -->
<g id="node8" class="node">
<title>Node8</title>
<g id="a_node8"><a xlink:href="tokenizer_8cpp.html" target="_top" xlink:title=" ">
<polygon fill="white" stroke="#666666" points="1083,-123.5 952,-123.5 952,-82.5 1083,-82.5 1083,-123.5"/>
<text text-anchor="start" x="960" y="-111.5" font-family="Helvetica,sans-Serif" font-size="10.00">/Users/nikolajbankejensen</text>
<text text-anchor="start" x="960" y="-100.5" font-family="Helvetica,sans-Serif" font-size="10.00">/Desktop/Kepler/src/core</text>
<text text-anchor="middle" x="1017.5" y="-89.5" font-family="Helvetica,sans-Serif" font-size="10.00">/evaluation/tokenizer.cpp</text>
</a>
</g>
</g>
<!-- Node1&#45;&gt;Node8 -->
<g id="edge7" class="edge">
<title>Node1&#45;&gt;Node8</title>
<path fill="none" stroke="#63b8ff" d="M915.35,-159.19C936.39,-147.82 960.86,-134.6 980.58,-123.95"/>
<polygon fill="#63b8ff" stroke="#63b8ff" points="913.8,-156.05 906.66,-163.88 917.12,-162.21 913.8,-156.05"/>
</g>
<!-- Node9 -->
<g id="node9" class="node">
<title>Node9</title>
<g id="a_node9"><a xlink:href="helpers_8cpp.html" target="_top" xlink:title=" ">
<polygon fill="white" stroke="#666666" points="1232,-123.5 1101,-123.5 1101,-82.5 1232,-82.5 1232,-123.5"/>
<text text-anchor="start" x="1109" y="-111.5" font-family="Helvetica,sans-Serif" font-size="10.00">/Users/nikolajbankejensen</text>
<text text-anchor="start" x="1109" y="-100.5" font-family="Helvetica,sans-Serif" font-size="10.00">/Desktop/Kepler/src/core</text>
<text text-anchor="middle" x="1166.5" y="-89.5" font-family="Helvetica,sans-Serif" font-size="10.00">/helpers.cpp</text>
</a>
</g>
</g>
<!-- Node1&#45;&gt;Node9 -->
<g id="edge8" class="edge">
<title>Node1&#45;&gt;Node9</title>
<path fill="none" stroke="#63b8ff" d="M945.24,-166.96C988.43,-156.7 1043.22,-143.03 1091.5,-129 1096.9,-127.43 1102.5,-125.72 1108.09,-123.96"/>
<polygon fill="#63b8ff" stroke="#63b8ff" points="944.64,-163.51 935.71,-169.21 946.25,-170.32 944.64,-163.51"/>
</g>
<!-- Node10 -->
<g id="node10" class="node">
<title>Node10</title>
<g id="a_node10"><a xlink:href="symbol__table_8cpp.html" target="_top" xlink:title=" ">
<polygon fill="white" stroke="#666666" points="1381,-123.5 1250,-123.5 1250,-82.5 1381,-82.5 1381,-123.5"/>
<text text-anchor="start" x="1258" y="-111.5" font-family="Helvetica,sans-Serif" font-size="10.00">/Users/nikolajbankejensen</text>
<text text-anchor="start" x="1258" y="-100.5" font-family="Helvetica,sans-Serif" font-size="10.00">/Desktop/Kepler/src/core</text>
<text text-anchor="middle" x="1315.5" y="-89.5" font-family="Helvetica,sans-Serif" font-size="10.00">/symbol_table.cpp</text>
</a>
</g>
</g>
<!-- Node1&#45;&gt;Node10 -->
<g id="edge9" class="edge">
<title>Node1&#45;&gt;Node10</title>
<path fill="none" stroke="#63b8ff" d="M945.66,-176.94C1021.42,-168.6 1139.93,-153.07 1240.5,-129 1246.64,-127.53 1253,-125.78 1259.29,-123.9"/>
<polygon fill="#63b8ff" stroke="#63b8ff" points="945.41,-173.45 935.85,-178.01 946.17,-180.41 945.41,-173.45"/>
</g>
<!-- Node11 -->
<g id="node11" class="node">
<title>Node11</title>
<g id="a_node11"><a xlink:href="main_8cpp.html" target="_top" xlink:title=" ">
<polygon fill="white" stroke="#666666" points="1545.5,-118 1399.5,-118 1399.5,-88 1545.5,-88 1545.5,-118"/>
<text text-anchor="start" x="1407.5" y="-106" font-family="Helvetica,sans-Serif" font-size="10.00">/Users/nikolajbankejensen</text>
<text text-anchor="middle" x="1472.5" y="-95" font-family="Helvetica,sans-Serif" font-size="10.00">/Desktop/Kepler/src/main.cpp</text>
</a>
</g>
</g>
<!-- Node1&#45;&gt;Node11 -->
<g id="edge10" class="edge">
<title>Node1&#45;&gt;Node11</title>
<path fill="none" stroke="#63b8ff" d="M945.94,-180.77C1048.31,-174.8 1233.89,-160.44 1389.5,-129 1402.92,-126.29 1417.29,-122.35 1430.24,-118.39"/>
<polygon fill="#63b8ff" stroke="#63b8ff" points="945.78,-177.27 936,-181.33 946.18,-184.26 945.78,-177.27"/>
</g>
<!-- Node12 -->
<g id="node12" class="node">
<title>Node12</title>
<g id="a_node12"><a xlink:href="matcher_8h.html" target="_top" xlink:title=" ">
<polygon fill="white" stroke="#666666" points="1699.5,-123.5 1563.5,-123.5 1563.5,-82.5 1699.5,-82.5 1699.5,-123.5"/>
<text text-anchor="start" x="1571.5" y="-111.5" font-family="Helvetica,sans-Serif" font-size="10.00">/Users/nikolajbankejensen</text>
<text text-anchor="start" x="1571.5" y="-100.5" font-family="Helvetica,sans-Serif" font-size="10.00">/Desktop/Kepler/src/testing</text>
<text text-anchor="middle" x="1631.5" y="-89.5" font-family="Helvetica,sans-Serif" font-size="10.00">/matcher.h</text>
</a>
</g>
</g>
<!-- Node1&#45;&gt;Node12 -->
<g id="edge11" class="edge">
<title>Node1&#45;&gt;Node12</title>
<path fill="none" stroke="#63b8ff" d="M945.67,-184.09C1073.5,-182.12 1336.7,-172.55 1554.5,-129 1561.25,-127.65 1568.24,-125.9 1575.13,-123.95"/>
<polygon fill="#63b8ff" stroke="#63b8ff" points="945.93,-180.59 935.98,-184.23 946.03,-187.59 945.93,-180.59"/>
</g>
<!-- Node13 -->
<g id="node13" class="node">
<title>Node13</title>
<g id="a_node13"><a xlink:href="test__datatypes_8cpp.html" target="_top" xlink:title=" ">
<polygon fill="white" stroke="#666666" points="1314.5,-41 1178.5,-41 1178.5,0 1314.5,0 1314.5,-41"/>
<text text-anchor="start" x="1186.5" y="-29" font-family="Helvetica,sans-Serif" font-size="10.00">/Users/nikolajbankejensen</text>
<text text-anchor="start" x="1186.5" y="-18" font-family="Helvetica,sans-Serif" font-size="10.00">/Desktop/Kepler/src/testing</text>
<text text-anchor="middle" x="1246.5" y="-7" font-family="Helvetica,sans-Serif" font-size="10.00">/test_datatypes.cpp</text>
</a>
</g>
</g>
<!-- Node12&#45;&gt;Node13 -->
<g id="edge12" class="edge">
<title>Node12&#45;&gt;Node13</title>
<path fill="none" stroke="#63b8ff" d="M1562.38,-78.98C1559.73,-78.28 1557.1,-77.62 1554.5,-77 1453.43,-52.88 1425.31,-61.78 1323.5,-41 1320.66,-40.42 1317.77,-39.81 1314.86,-39.16"/>
<polygon fill="#63b8ff" stroke="#63b8ff" points="1561.31,-82.32 1571.88,-81.63 1563.19,-75.58 1561.31,-82.32"/>
</g>
<!-- Node14 -->
<g id="node14" class="node">
<title>Node14</title>
<g id="a_node14"><a xlink:href="test__examples_8cpp.html" target="_top" xlink:title=" ">
<polygon fill="white" stroke="#666666" points="1468.5,-41 1332.5,-41 1332.5,0 1468.5,0 1468.5,-41"/>
<text text-anchor="start" x="1340.5" y="-29" font-family="Helvetica,sans-Serif" font-size="10.00">/Users/nikolajbankejensen</text>
<text text-anchor="start" x="1340.5" y="-18" font-family="Helvetica,sans-Serif" font-size="10.00">/Desktop/Kepler/src/testing</text>
<text text-anchor="middle" x="1400.5" y="-7" font-family="Helvetica,sans-Serif" font-size="10.00">/test_examples.cpp</text>
</a>
</g>
</g>
<!-- Node12&#45;&gt;Node14 -->
<g id="edge13" class="edge">
<title>Node12&#45;&gt;Node14</title>
<path fill="none" stroke="#63b8ff" d="M1563.72,-78.38C1530.06,-66.65 1489.84,-52.63 1457.74,-41.45"/>
<polygon fill="#63b8ff" stroke="#63b8ff" points="1562.37,-81.62 1572.97,-81.6 1564.68,-75.01 1562.37,-81.62"/>
</g>
<!-- Node15 -->
<g id="node15" class="node">
<title>Node15</title>
<g id="a_node15"><a xlink:href="test__functions_8cpp.html" target="_top" xlink:title=" ">
<polygon fill="white" stroke="#666666" points="1622.5,-41 1486.5,-41 1486.5,0 1622.5,0 1622.5,-41"/>
<text text-anchor="start" x="1494.5" y="-29" font-family="Helvetica,sans-Serif" font-size="10.00">/Users/nikolajbankejensen</text>
<text text-anchor="start" x="1494.5" y="-18" font-family="Helvetica,sans-Serif" font-size="10.00">/Desktop/Kepler/src/testing</text>
<text text-anchor="middle" x="1554.5" y="-7" font-family="Helvetica,sans-Serif" font-size="10.00">/test_functions.cpp</text>
</a>
</g>
</g>
<!-- Node12&#45;&gt;Node15 -->
<g id="edge14" class="edge">
<title>Node12&#45;&gt;Node15</title>
<path fill="none" stroke="#63b8ff" d="M1604.59,-73.86C1594.36,-63.17 1582.94,-51.23 1573.58,-41.45"/>
<polygon fill="#63b8ff" stroke="#63b8ff" points="1601.98,-76.2 1611.42,-81.01 1607.04,-71.36 1601.98,-76.2"/>
</g>
<!-- Node16 -->
<g id="node16" class="node">
<title>Node16</title>
<g id="a_node16"><a xlink:href="test__lexer_8cpp.html" target="_top" xlink:title=" ">
<polygon fill="white" stroke="#666666" points="1776.5,-41 1640.5,-41 1640.5,0 1776.5,0 1776.5,-41"/>
<text text-anchor="start" x="1648.5" y="-29" font-family="Helvetica,sans-Serif" font-size="10.00">/Users/nikolajbankejensen</text>
<text text-anchor="start" x="1648.5" y="-18" font-family="Helvetica,sans-Serif" font-size="10.00">/Desktop/Kepler/src/testing</text>
<text text-anchor="middle" x="1708.5" y="-7" font-family="Helvetica,sans-Serif" font-size="10.00">/test_lexer.cpp</text>
</a>
</g>
</g>
<!-- Node12&#45;&gt;Node16 -->
<g id="edge15" class="edge">
<title>Node12&#45;&gt;Node16</title>
<path fill="none" stroke="#63b8ff" d="M1658.41,-73.86C1668.64,-63.17 1680.06,-51.23 1689.42,-41.45"/>
<polygon fill="#63b8ff" stroke="#63b8ff" points="1655.96,-71.36 1651.58,-81.01 1661.02,-76.2 1655.96,-71.36"/>
</g>
<!-- Node17 -->
<g id="node17" class="node">
<title>Node17</title>
<g id="a_node17"><a xlink:href="test__operators_8cpp.html" target="_top" xlink:title=" ">
<polygon fill="white" stroke="#666666" points="1930.5,-41 1794.5,-41 1794.5,0 1930.5,0 1930.5,-41"/>
<text text-anchor="start" x="1802.5" y="-29" font-family="Helvetica,sans-Serif" font-size="10.00">/Users/nikolajbankejensen</text>
<text text-anchor="start" x="1802.5" y="-18" font-family="Helvetica,sans-Serif" font-size="10.00">/Desktop/Kepler/src/testing</text>
<text text-anchor="middle" x="1862.5" y="-7" font-family="Helvetica,sans-Serif" font-size="10.00">/test_operators.cpp</text>
</a>
</g>
</g>
<!-- Node12&#45;&gt;Node17 -->
<g id="edge16" class="edge">
<title>Node12&#45;&gt;Node17</title>
<path fill="none" stroke="#63b8ff" d="M1699.28,-78.38C1732.94,-66.65 1773.16,-52.63 1805.26,-41.45"/>
<polygon fill="#63b8ff" stroke="#63b8ff" points="1698.32,-75.01 1690.03,-81.6 1700.63,-81.62 1698.32,-75.01"/>
</g>
<!-- Node18 -->
<g id="node18" class="node">
<title>Node18</title>
<g id="a_node18"><a xlink:href="test__parser_8cpp.html" target="_top" xlink:title=" ">
<polygon fill="white" stroke="#666666" points="2084.5,-41 1948.5,-41 1948.5,0 2084.5,0 2084.5,-41"/>
<text text-anchor="start" x="1956.5" y="-29" font-family="Helvetica,sans-Serif" font-size="10.00">/Users/nikolajbankejensen</text>
<text text-anchor="start" x="1956.5" y="-18" font-family="Helvetica,sans-Serif" font-size="10.00">/Desktop/Kepler/src/testing</text>
<text text-anchor="middle" x="2016.5" y="-7" font-family="Helvetica,sans-Serif" font-size="10.00">/test_parser.cpp</text>
</a>
</g>
</g>
<!-- Node12&#45;&gt;Node18 -->
<g id="edge17" class="edge">
<title>Node12&#45;&gt;Node18</title>
<path fill="none" stroke="#63b8ff" d="M1710.85,-87.47C1773.2,-75.77 1862.12,-58.45 1939.5,-41 1942.32,-40.36 1945.2,-39.7 1948.11,-39.02"/>
<polygon fill="#63b8ff" stroke="#63b8ff" points="1710.59,-83.96 1701.41,-89.24 1711.88,-90.84 1710.59,-83.96"/>
</g>
</g>
</svg>
        <g id="navigator" transform="translate(0 0)" fill="#404254">
                <rect fill="#f2f5e9" fill-opacity="0.5" stroke="#606060" stroke-width=".5" x="0" y="0" width="60" height="60"/>
                <use id="zoomplus" xlink:href="#zoomPlus" x="17" y="9" onmousedown="handleZoom(evt,'in')"/>
                <use id="zoomminus" xlink:href="#zoomMin" x="42" y="9" onmousedown="handleZoom(evt,'out')"/>
                <use id="reset" xlink:href="#resetDef" x="30" y="36" onmousedown="handleReset()"/>
                <g id="arrowUp" xlink:href="#dirArrow" transform="translate(30 24)" onmousedown="handlePan(0,-1)">
                  <use xlink:href="#rim" fill="#404040">
                        <set attributeName="fill" to="#808080" begin="arrowUp.mouseover" end="arrowUp.mouseout"/>
                  </use>
                  <path fill="none" stroke="white" stroke-width="1.5" d="M0,-3.0v7 M-2.5,-0.5L0,-3.0L2.5,-0.5"/>
                </g>
                <g id="arrowRight" xlink:href="#dirArrow" transform="rotate(90) translate(36 -43)" onmousedown="handlePan(1,0)">
                  <use xlink:href="#rim" fill="#404040">
                        <set attributeName="fill" to="#808080" begin="arrowRight.mouseover" end="arrowRight.mouseout"/>
                  </use>
                  <path fill="none" stroke="white" stroke-width="1.5" d="M0,-3.0v7 M-2.5,-0.5L0,-3.0L2.5,-0.5"/>
                </g>
                <g id="arrowDown" xlink:href="#dirArrow" transform="rotate(180) translate(-30 -48)" onmousedown="handlePan(0,1)">
                  <use xlink:href="#rim" fill="#404040">
                        <set attributeName="fill" to="#808080" begin="arrowDown.mouseover" end="arrowDown.mouseout"/>
                  </use>
                  <path fill="none" stroke="white" stroke-width="1.5" d="M0,-3.0v7 M-2.5,-0.5L0,-3.0L2.5,-0.5"/>
                </g>
                <g id="arrowLeft" xlink:href="#dirArrow" transform="rotate(270) translate(-36 17)" onmousedown="handlePan(-1,0)">
                  <use xlink:href="#rim" fill="#404040">
                        <set attributeName="fill" to="#808080" begin="arrowLeft.mouseover" end="arrowLeft.mouseout"/>
                  </use>
                  <path fill="none" stroke="white" stroke-width="1.5" d="M0,-3.0v7 M-2.5,-0.5L0,-3.0L2.5,-0.5"/>
                </g>
        </g>
        <svg viewBox="0 0 15 15" width="100%" height="30px" preserveAspectRatio="xMaxYMin meet">
         <g id="arrow_out" transform="scale(0.3 0.3)">
          <a xlink:href="literals_8h__dep__incl_org.svg" target="_base">
           <rect id="button" ry="5" rx="5" y="6" x="6" height="38" width="38"
                fill="#f2f5e9" fill-opacity="0.5" stroke="#606060" stroke-width="1.0"/>
           <path id="arrow"
             d="M 11.500037,31.436501 C 11.940474,20.09759 22.043105,11.32322 32.158766,21.979434 L 37.068811,17.246167 C 37.068811,17.246167 37.088388,32 37.088388,32 L 22.160133,31.978069 C 22.160133,31.978069 26.997745,27.140456 26.997745,27.140456 C 18.528582,18.264221 13.291696,25.230495 11.500037,31.436501 z"
             style="fill:#404040;"/>
          </a>
         </g>
        </svg>
</svg>
