<?xml version="1.0" encoding="UTF-8" standalone="no"?>
<!DOCTYPE svg PUBLIC "-//W3C//DTD SVG 1.1//EN"
 "http://www.w3.org/Graphics/SVG/1.1/DTD/svg11.dtd">
<!-- Generated by graphviz version 7.1.0 (20230121.1956)
 -->
<!-- Title: main Pages: 1 -->
<svg width="817pt" height="567pt"
 viewBox="0.00 0.00 817.00 566.50" xmlns="http://www.w3.org/2000/svg" xmlns:xlink="http://www.w3.org/1999/xlink">
<g id="graph0" class="graph" transform="scale(1 1) rotate(0) translate(4 562.5)">
<title>main</title>
<!-- Node1 -->
<g id="node1" class="node">
<title>Node1</title>
<g id="a_node1"><a xlink:title=" ">
<polygon fill="#999999" stroke="#666666" points="38,-153 0,-153 0,-134 38,-134 38,-153"/>
<text text-anchor="middle" x="19" y="-141" font-family="Helvetica,sans-Serif" font-size="10.00">main</text>
</a>
</g>
</g>
<!-- Node2 -->
<g id="node2" class="node">
<title>Node2</title>
<g id="a_node2"><a xlink:href="namespacekepler.html#ae45e010aed51dc28b896694f75dc2ca7" target="_top" xlink:title=" ">
<polygon fill="white" stroke="#666666" points="290.5,-216 210.5,-216 210.5,-197 290.5,-197 290.5,-216"/>
<text text-anchor="middle" x="250.5" y="-204" font-family="Helvetica,sans-Serif" font-size="10.00">kepler::run_file</text>
</a>
</g>
</g>
<!-- Node1&#45;&gt;Node2 -->
<g id="edge1" class="edge">
<title>Node1&#45;&gt;Node2</title>
<path fill="none" stroke="#63b8ff" d="M38.39,-148.55C73.6,-158.21 151.5,-179.6 202.19,-193.51"/>
<polygon fill="#63b8ff" stroke="#63b8ff" points="201.17,-196.86 211.73,-196.13 203.02,-190.11 201.17,-196.86"/>
</g>
<!-- Node26 -->
<g id="node26" class="node">
<title>Node26</title>
<g id="a_node26"><a xlink:href="namespacekepler.html#a2eea97746f0ae5fd054d304271c171f5" target="_top" xlink:title=" ">
<polygon fill="white" stroke="#666666" points="157,-134 74,-134 74,-115 157,-115 157,-134"/>
<text text-anchor="middle" x="115.5" y="-122" font-family="Helvetica,sans-Serif" font-size="10.00">kepler::run_repl</text>
</a>
</g>
</g>
<!-- Node1&#45;&gt;Node26 -->
<g id="edge27" class="edge">
<title>Node1&#45;&gt;Node26</title>
<path fill="none" stroke="#63b8ff" d="M38.22,-139.84C45.31,-138.41 53.82,-136.7 62.55,-134.94"/>
<polygon fill="#63b8ff" stroke="#63b8ff" points="63.04,-138.42 72.15,-133.01 61.66,-131.55 63.04,-138.42"/>
</g>
<!-- Node3 -->
<g id="node3" class="node">
<title>Node3</title>
<g id="a_node3"><a xlink:href="classkepler_1_1_symbol_table.html#a95e2ea1cc4b5a2a669c3b65ef4d545cc" target="_top" xlink:title=" ">
<polygon fill="white" stroke="#666666" points="467,-301.5 362,-301.5 362,-271.5 467,-271.5 467,-301.5"/>
<text text-anchor="start" x="370" y="-289.5" font-family="Helvetica,sans-Serif" font-size="10.00">kepler::SymbolTable</text>
<text text-anchor="middle" x="414.5" y="-278.5" font-family="Helvetica,sans-Serif" font-size="10.00">::clear</text>
</a>
</g>
</g>
<!-- Node2&#45;&gt;Node3 -->
<g id="edge2" class="edge">
<title>Node2&#45;&gt;Node3</title>
<path fill="none" stroke="#63b8ff" d="M265.71,-216.41C283.43,-228.46 314.94,-248.87 344,-262.5 347.29,-264.04 350.72,-265.54 354.2,-266.99"/>
<polygon fill="#63b8ff" stroke="#63b8ff" points="352.75,-270.18 363.34,-270.58 355.31,-263.66 352.75,-270.18"/>
</g>
<!-- Node4 -->
<g id="node4" class="node">
<title>Node4</title>
<g id="a_node4"><a xlink:href="execution_8cpp.html#aa688fb368d750916706ef22d45dcab1f" target="_top" xlink:title=" ">
<polygon fill="white" stroke="#666666" points="450,-253 379,-253 379,-234 450,-234 450,-253"/>
<text text-anchor="middle" x="414.5" y="-241" font-family="Helvetica,sans-Serif" font-size="10.00">concat_lines</text>
</a>
</g>
</g>
<!-- Node2&#45;&gt;Node4 -->
<g id="edge3" class="edge">
<title>Node2&#45;&gt;Node4</title>
<path fill="none" stroke="#63b8ff" d="M290.72,-215.46C313.84,-220.74 343.21,-227.45 367.43,-232.98"/>
<polygon fill="#63b8ff" stroke="#63b8ff" points="366.5,-236.36 377.03,-235.17 368.06,-229.53 366.5,-236.36"/>
</g>
<!-- Node5 -->
<g id="node5" class="node">
<title>Node5</title>
<g id="a_node5"><a xlink:href="execution_8cpp.html#a3e0030c2b63e5204d11acccc92bdecde" target="_top" xlink:title=" ">
<polygon fill="white" stroke="#666666" points="441,-216 388,-216 388,-197 441,-197 441,-216"/>
<text text-anchor="middle" x="414.5" y="-204" font-family="Helvetica,sans-Serif" font-size="10.00">find_line</text>
</a>
</g>
</g>
<!-- Node2&#45;&gt;Node5 -->
<g id="edge4" class="edge">
<title>Node2&#45;&gt;Node5</title>
<path fill="none" stroke="#63b8ff" d="M290.72,-206.5C316.75,-206.5 350.7,-206.5 376.31,-206.5"/>
<polygon fill="#63b8ff" stroke="#63b8ff" points="376.27,-210 386.27,-206.5 376.27,-203 376.27,-210"/>
</g>
<!-- Node6 -->
<g id="node6" class="node">
<title>Node6</title>
<g id="a_node6"><a xlink:href="namespacekepler.html#a914686a7f5a60684440d93ed33a3a959" target="_top" xlink:title=" ">
<polygon fill="white" stroke="#666666" points="485,-430 344,-430 344,-411 485,-411 485,-430"/>
<text text-anchor="middle" x="414.5" y="-418" font-family="Helvetica,sans-Serif" font-size="10.00">kepler::immediate_execution</text>
</a>
</g>
</g>
<!-- Node2&#45;&gt;Node6 -->
<g id="edge5" class="edge">
<title>Node2&#45;&gt;Node6</title>
<path fill="none" stroke="#63b8ff" d="M255.8,-216.42C271.96,-253.6 328.97,-383.18 344,-396.5 348.08,-400.12 352.74,-403.2 357.67,-405.82"/>
<polygon fill="#63b8ff" stroke="#63b8ff" points="356.14,-408.97 366.68,-409.94 359.05,-402.6 356.14,-408.97"/>
</g>
<!-- Node14 -->
<g id="node14" class="node">
<title>Node14</title>
<g id="a_node14"><a xlink:href="classkepler_1_1_symbol_table.html#a581a7fca6bcd04dcb26c385818693b8b" target="_top" xlink:title=" ">
<polygon fill="white" stroke="#666666" points="483.5,-67.5 345.5,-67.5 345.5,-37.5 483.5,-37.5 483.5,-67.5"/>
<text text-anchor="start" x="353.5" y="-55.5" font-family="Helvetica,sans-Serif" font-size="10.00">kepler::SymbolTable</text>
<text text-anchor="middle" x="414.5" y="-44.5" font-family="Helvetica,sans-Serif" font-size="10.00">::insert_system_parameters</text>
</a>
</g>
</g>
<!-- Node2&#45;&gt;Node14 -->
<g id="edge13" class="edge">
<title>Node2&#45;&gt;Node14</title>
<path fill="none" stroke="#63b8ff" d="M256.01,-196.54C267.35,-172.58 299.36,-111.22 344,-77.5 346,-75.99 348.09,-74.57 350.26,-73.23"/>
<polygon fill="#63b8ff" stroke="#63b8ff" points="351.7,-76.43 358.81,-68.57 348.35,-70.28 351.7,-76.43"/>
</g>
<!-- Node17 -->
<g id="node17" class="node">
<title>Node17</title>
<g id="a_node17"><a xlink:href="namespacekepler.html#a9b4442cb52b01b9205ef895e825044fe" target="_top" xlink:title=" ">
<polygon fill="white" stroke="#666666" points="457.5,-179 371.5,-179 371.5,-160 457.5,-160 457.5,-179"/>
<text text-anchor="middle" x="414.5" y="-167" font-family="Helvetica,sans-Serif" font-size="10.00">kepler::read_file</text>
</a>
</g>
</g>
<!-- Node2&#45;&gt;Node17 -->
<g id="edge18" class="edge">
<title>Node2&#45;&gt;Node17</title>
<path fill="none" stroke="#63b8ff" d="M290.72,-197.54C311.54,-192.79 337.45,-186.87 360.09,-181.7"/>
<polygon fill="#63b8ff" stroke="#63b8ff" points="360.8,-185.13 369.76,-179.49 359.24,-178.3 360.8,-185.13"/>
</g>
<!-- Node18 -->
<g id="node18" class="node">
<title>Node18</title>
<g id="a_node18"><a xlink:href="classkepler_1_1error.html#aec3e310a53eebc02228954bab4a13b53" target="_top" xlink:title=" ">
<polygon fill="white" stroke="#666666" points="467.5,-142 361.5,-142 361.5,-123 467.5,-123 467.5,-142"/>
<text text-anchor="middle" x="414.5" y="-130" font-family="Helvetica,sans-Serif" font-size="10.00">kepler::error::set_file</text>
</a>
</g>
</g>
<!-- Node2&#45;&gt;Node18 -->
<g id="edge19" class="edge">
<title>Node2&#45;&gt;Node18</title>
<path fill="none" stroke="#63b8ff" d="M265.29,-196.68C282.83,-184.57 314.42,-164.06 344,-151.5 348.85,-149.44 353.99,-147.54 359.19,-145.81"/>
<polygon fill="#63b8ff" stroke="#63b8ff" points="359.92,-149.25 368.43,-142.94 357.85,-142.56 359.92,-149.25"/>
</g>
<!-- Node19 -->
<g id="node19" class="node">
<title>Node19</title>
<g id="a_node19"><a xlink:href="classkepler_1_1error.html#aac71db552cb0211798d24627817abccf" target="_top" xlink:title=" ">
<polygon fill="white" stroke="#666666" points="458.5,-387.5 370.5,-387.5 370.5,-357.5 458.5,-357.5 458.5,-387.5"/>
<text text-anchor="start" x="378.5" y="-375.5" font-family="Helvetica,sans-Serif" font-size="10.00">kepler::error::set</text>
<text text-anchor="middle" x="414.5" y="-364.5" font-family="Helvetica,sans-Serif" font-size="10.00">_input</text>
</a>
</g>
</g>
<!-- Node2&#45;&gt;Node19 -->
<g id="edge20" class="edge">
<title>Node2&#45;&gt;Node19</title>
<path fill="none" stroke="#63b8ff" d="M255.24,-216.37C265.44,-241.98 296.23,-311.2 344,-348.5 348.78,-352.23 354.18,-355.41 359.8,-358.1"/>
<polygon fill="#63b8ff" stroke="#63b8ff" points="358.11,-361.18 368.69,-361.86 360.84,-354.74 358.11,-361.18"/>
</g>
<!-- Node20 -->
<g id="node20" class="node">
<title>Node20</title>
<g id="a_node20"><a xlink:href="classkepler_1_1error.html#a055901085cd5171f7a6afa76b9fb526c" target="_top" xlink:title=" ">
<polygon fill="white" stroke="#666666" points="468.5,-105 360.5,-105 360.5,-86 468.5,-86 468.5,-105"/>
<text text-anchor="middle" x="414.5" y="-93" font-family="Helvetica,sans-Serif" font-size="10.00">kepler::error::set_line</text>
</a>
</g>
</g>
<!-- Node2&#45;&gt;Node20 -->
<g id="edge21" class="edge">
<title>Node2&#45;&gt;Node20</title>
<path fill="none" stroke="#63b8ff" d="M258.68,-196.51C272.81,-177.57 306.17,-136.4 344,-114.5 347.14,-112.68 350.46,-111.03 353.88,-109.54"/>
<polygon fill="#63b8ff" stroke="#63b8ff" points="354.87,-112.9 362.94,-106.04 352.35,-106.37 354.87,-112.9"/>
</g>
<!-- Node21 -->
<g id="node21" class="node">
<title>Node21</title>
<g id="a_node21"><a xlink:href="classkepler_1_1error.html#a9d1264b80888d725ef312a662ee4e5be" target="_top" xlink:title=" ">
<polygon fill="white" stroke="#666666" points="470.5,-339 358.5,-339 358.5,-320 470.5,-320 470.5,-339"/>
<text text-anchor="middle" x="414.5" y="-327" font-family="Helvetica,sans-Serif" font-size="10.00">kepler::error::to_string</text>
</a>
</g>
</g>
<!-- Node2&#45;&gt;Node21 -->
<g id="edge22" class="edge">
<title>Node2&#45;&gt;Node21</title>
<path fill="none" stroke="#63b8ff" d="M257.33,-216.21C270.24,-236.86 303.35,-285.27 344,-310.5 346.79,-312.23 349.74,-313.81 352.78,-315.24"/>
<polygon fill="#63b8ff" stroke="#63b8ff" points="351.44,-318.47 362.02,-319.02 354.09,-311.99 351.44,-318.47"/>
</g>
<!-- Node7 -->
<g id="node7" class="node">
<title>Node7</title>
<g id="a_node7"><a xlink:href="structkepler_1_1_interpreter.html#a2ec19db70151e2f0eb937421a8618935" target="_top" xlink:title=" ">
<polygon fill="white" stroke="#666666" points="630,-558.5 537,-558.5 537,-528.5 630,-528.5 630,-558.5"/>
<text text-anchor="start" x="545" y="-546.5" font-family="Helvetica,sans-Serif" font-size="10.00">kepler::Interpreter</text>
<text text-anchor="middle" x="583.5" y="-535.5" font-family="Helvetica,sans-Serif" font-size="10.00">::interpret</text>
</a>
</g>
</g>
<!-- Node6&#45;&gt;Node7 -->
<g id="edge6" class="edge">
<title>Node6&#45;&gt;Node7</title>
<path fill="none" stroke="#63b8ff" d="M423.56,-430.23C440.05,-449.6 479.58,-493.37 521,-519.5 522.97,-520.74 525.01,-521.94 527.11,-523.09"/>
<polygon fill="#63b8ff" stroke="#63b8ff" points="525.32,-526.11 535.83,-527.45 528.45,-519.85 525.32,-526.11"/>
</g>
<!-- Node9 -->
<g id="node9" class="node">
<title>Node9</title>
<g id="a_node9"><a xlink:href="classkepler_1_1_parser.html#a95c4ec7bfd2c105b1cd43f0906641f3f" target="_top" xlink:title=" ">
<polygon fill="white" stroke="#666666" points="637,-510 530,-510 530,-491 637,-491 637,-510"/>
<text text-anchor="middle" x="583.5" y="-498" font-family="Helvetica,sans-Serif" font-size="10.00">kepler::Parser::parse</text>
</a>
</g>
</g>
<!-- Node6&#45;&gt;Node9 -->
<g id="edge8" class="edge">
<title>Node6&#45;&gt;Node9</title>
<path fill="none" stroke="#63b8ff" d="M429.58,-430.31C449.26,-443.65 486.48,-467.58 521,-482.5 524.74,-484.12 528.68,-485.64 532.67,-487.07"/>
<polygon fill="#63b8ff" stroke="#63b8ff" points="531.24,-490.28 541.84,-490.12 533.45,-483.64 531.24,-490.28"/>
</g>
<!-- Node10 -->
<g id="node10" class="node">
<title>Node10</title>
<g id="a_node10"><a xlink:href="structkepler_1_1_array.html#afccb5c77a5934c2bcdfed7032b381ced" target="_top" xlink:title=" ">
<polygon fill="white" stroke="#666666" points="641.5,-473 525.5,-473 525.5,-454 641.5,-454 641.5,-473"/>
<text text-anchor="middle" x="583.5" y="-461" font-family="Helvetica,sans-Serif" font-size="10.00">kepler::Array::to_string</text>
</a>
</g>
</g>
<!-- Node6&#45;&gt;Node10 -->
<g id="edge9" class="edge">
<title>Node6&#45;&gt;Node10</title>
<path fill="none" stroke="#63b8ff" d="M454.23,-430.47C477.55,-436.48 507.47,-444.18 532.55,-450.64"/>
<polygon fill="#63b8ff" stroke="#63b8ff" points="531.67,-454.02 542.22,-453.13 533.41,-447.25 531.67,-454.02"/>
</g>
<!-- Node12 -->
<g id="node12" class="node">
<title>Node12</title>
<g id="a_node12"><a xlink:href="classkepler_1_1_tokenizer.html#a218312e24753d8d2e66d499bdbcce55c" target="_top" xlink:title=" ">
<polygon fill="white" stroke="#666666" points="632,-435.5 535,-435.5 535,-405.5 632,-405.5 632,-435.5"/>
<text text-anchor="start" x="543" y="-423.5" font-family="Helvetica,sans-Serif" font-size="10.00">kepler::Tokenizer::</text>
<text text-anchor="middle" x="583.5" y="-412.5" font-family="Helvetica,sans-Serif" font-size="10.00">tokenize</text>
</a>
</g>
</g>
<!-- Node6&#45;&gt;Node12 -->
<g id="edge11" class="edge">
<title>Node6&#45;&gt;Node12</title>
<path fill="none" stroke="#63b8ff" d="M485.36,-420.5C497.95,-420.5 510.98,-420.5 523.24,-420.5"/>
<polygon fill="#63b8ff" stroke="#63b8ff" points="523.21,-424 533.21,-420.5 523.21,-417 523.21,-424"/>
</g>
<!-- Node13 -->
<g id="node13" class="node">
<title>Node13</title>
<g id="a_node13"><a xlink:href="classkepler_1_1_parser.html#a8bae598977617c13f71ce43cadd806b4" target="_top" xlink:title=" ">
<polygon fill="white" stroke="#666666" points="633,-387.5 534,-387.5 534,-357.5 633,-357.5 633,-387.5"/>
<text text-anchor="start" x="542" y="-375.5" font-family="Helvetica,sans-Serif" font-size="10.00">kepler::Parser::use</text>
<text text-anchor="middle" x="583.5" y="-364.5" font-family="Helvetica,sans-Serif" font-size="10.00">_table</text>
</a>
</g>
</g>
<!-- Node6&#45;&gt;Node13 -->
<g id="edge12" class="edge">
<title>Node6&#45;&gt;Node13</title>
<path fill="none" stroke="#63b8ff" d="M450.1,-410.55C471.06,-404.53 498.37,-396.68 522.74,-389.68"/>
<polygon fill="#63b8ff" stroke="#63b8ff" points="523.59,-393.07 532.24,-386.95 521.66,-386.35 523.59,-393.07"/>
</g>
<!-- Node8 -->
<g id="node8" class="node">
<title>Node8</title>
<g id="a_node8"><a xlink:href="structkepler_1_1_a_s_t_node.html#a05bfe92973fce5532d1bdc50fc9b56eb" target="_top" xlink:title=" ">
<polygon fill="white" stroke="#666666" points="809,-553 682,-553 682,-534 809,-534 809,-553"/>
<text text-anchor="middle" x="745.5" y="-541" font-family="Helvetica,sans-Serif" font-size="10.00">kepler::ASTNode::accept</text>
</a>
</g>
</g>
<!-- Node7&#45;&gt;Node8 -->
<g id="edge7" class="edge">
<title>Node7&#45;&gt;Node8</title>
<path fill="none" stroke="#63b8ff" d="M630.35,-543.5C642.83,-543.5 656.68,-543.5 670.3,-543.5"/>
<polygon fill="#63b8ff" stroke="#63b8ff" points="670.14,-547 680.14,-543.5 670.14,-540 670.14,-547"/>
</g>
<!-- Node11 -->
<g id="node11" class="node">
<title>Node11</title>
<g id="a_node11"><a xlink:href="classkepler_1_1_symbol_table.html#a1d080f6571e21935f800524195b5e5a7" target="_top" xlink:title=" ">
<polygon fill="white" stroke="#666666" points="808,-473 683,-473 683,-454 808,-454 808,-473"/>
<text text-anchor="middle" x="745.5" y="-461" font-family="Helvetica,sans-Serif" font-size="10.00">kepler::SymbolTable::get</text>
</a>
</g>
</g>
<!-- Node10&#45;&gt;Node11 -->
<g id="edge10" class="edge">
<title>Node10&#45;&gt;Node11</title>
<path fill="none" stroke="#63b8ff" d="M641.81,-463.5C651.35,-463.5 661.36,-463.5 671.23,-463.5"/>
<polygon fill="#63b8ff" stroke="#63b8ff" points="671.2,-467 681.2,-463.5 671.2,-460 671.2,-467"/>
</g>
<!-- Node15 -->
<g id="node15" class="node">
<title>Node15</title>
<g id="a_node15"><a xlink:href="classkepler_1_1_symbol_table.html#a928b41896a0c0f1b5eef23ae3f35c3b3" target="_top" xlink:title=" ">
<polygon fill="white" stroke="#666666" points="646,-62 521,-62 521,-43 646,-43 646,-62"/>
<text text-anchor="middle" x="583.5" y="-50" font-family="Helvetica,sans-Serif" font-size="10.00">kepler::SymbolTable::set</text>
</a>
</g>
</g>
<!-- Node14&#45;&gt;Node15 -->
<g id="edge14" class="edge">
<title>Node14&#45;&gt;Node15</title>
<path fill="none" stroke="#63b8ff" d="M483.91,-52.5C492.27,-52.5 500.84,-52.5 509.26,-52.5"/>
<polygon fill="#63b8ff" stroke="#63b8ff" points="509.12,-56 519.12,-52.5 509.12,-49 509.12,-56"/>
</g>
<!-- Node15&#45;&gt;Node15 -->
<g id="edge17" class="edge">
<title>Node15&#45;&gt;Node15</title>
<path fill="none" stroke="#63b8ff" d="M558.14,-62.37C546.57,-70.94 555.02,-80 583.5,-80 599.52,-80 609.2,-77.13 612.55,-73.1"/>
<polygon fill="#63b8ff" stroke="#63b8ff" points="615.91,-72.12 609.35,-63.8 609.29,-74.39 615.91,-72.12"/>
</g>
<!-- Node16 -->
<g id="node16" class="node">
<title>Node16</title>
<g id="a_node16"><a xlink:href="classkepler_1_1_symbol_table.html#a57403652693faf5adf05509f540520e9" target="_top" xlink:title=" ">
<polygon fill="white" stroke="#666666" points="798,-67.5 693,-67.5 693,-37.5 798,-37.5 798,-67.5"/>
<text text-anchor="start" x="701" y="-55.5" font-family="Helvetica,sans-Serif" font-size="10.00">kepler::SymbolTable</text>
<text text-anchor="middle" x="745.5" y="-44.5" font-family="Helvetica,sans-Serif" font-size="10.00">::contains</text>
</a>
</g>
</g>
<!-- Node15&#45;&gt;Node16 -->
<g id="edge15" class="edge">
<title>Node15&#45;&gt;Node16</title>
<path fill="none" stroke="#63b8ff" d="M646.36,-52.5C657.84,-52.5 669.84,-52.5 681.35,-52.5"/>
<polygon fill="#63b8ff" stroke="#63b8ff" points="681.15,-56 691.15,-52.5 681.15,-49 681.15,-56"/>
</g>
<!-- Node16&#45;&gt;Node16 -->
<g id="edge16" class="edge">
<title>Node16&#45;&gt;Node16</title>
<path fill="none" stroke="#63b8ff" d="M717.02,-67.78C710.7,-76.91 720.19,-85.5 745.5,-85.5 759.34,-85.5 768.45,-82.93 772.83,-79.11"/>
<polygon fill="#63b8ff" stroke="#63b8ff" points="776.3,-79.58 773.82,-69.28 769.34,-78.88 776.3,-79.58"/>
</g>
<!-- Node22 -->
<g id="node22" class="node">
<title>Node22</title>
<g id="a_node22"><a xlink:href="classkepler_1_1error.html#a7694165073a5e4844154e625f5fddf6c" target="_top" xlink:title=" ">
<polygon fill="white" stroke="#666666" points="630,-339 537,-339 537,-320 630,-320 630,-339"/>
<text text-anchor="middle" x="583.5" y="-327" font-family="Helvetica,sans-Serif" font-size="10.00">kepler::error::type</text>
</a>
</g>
</g>
<!-- Node21&#45;&gt;Node22 -->
<g id="edge23" class="edge">
<title>Node21&#45;&gt;Node22</title>
<path fill="none" stroke="#63b8ff" d="M470.64,-329.5C488.18,-329.5 507.61,-329.5 525.29,-329.5"/>
<polygon fill="#63b8ff" stroke="#63b8ff" points="525.1,-333 535.1,-329.5 525.1,-326 525.1,-333"/>
</g>
<!-- Node24 -->
<g id="node24" class="node">
<title>Node24</title>
<g id="a_node24"><a xlink:href="classkepler_1_1error.html#a4e6ac4013bc23fa893866d2bb0f5d6b8" target="_top" xlink:title=" ">
<polygon fill="white" stroke="#666666" points="634,-302 533,-302 533,-283 634,-283 634,-302"/>
<text text-anchor="middle" x="583.5" y="-290" font-family="Helvetica,sans-Serif" font-size="10.00">kepler::error::where</text>
</a>
</g>
</g>
<!-- Node21&#45;&gt;Node24 -->
<g id="edge25" class="edge">
<title>Node21&#45;&gt;Node24</title>
<path fill="none" stroke="#63b8ff" d="M460.25,-319.58C480.66,-315.06 505.03,-309.66 526.62,-304.88"/>
<polygon fill="#63b8ff" stroke="#63b8ff" points="527.14,-308.35 536.15,-302.77 525.63,-301.52 527.14,-308.35"/>
</g>
<!-- Node25 -->
<g id="node25" class="node">
<title>Node25</title>
<g id="a_node25"><a xlink:href="classkepler_1_1error.html#af431dcb57cb6e62850a8bb2d6258c5e7" target="_top" xlink:title=" ">
<polygon fill="white" stroke="#666666" points="629.5,-265 537.5,-265 537.5,-246 629.5,-246 629.5,-265"/>
<text text-anchor="middle" x="583.5" y="-253" font-family="Helvetica,sans-Serif" font-size="10.00">kepler::error::why</text>
</a>
</g>
</g>
<!-- Node21&#45;&gt;Node25 -->
<g id="edge26" class="edge">
<title>Node21&#45;&gt;Node25</title>
<path fill="none" stroke="#63b8ff" d="M464.65,-319.52C471.73,-317.11 478.73,-314.14 485,-310.5 504.57,-299.14 501.62,-286.18 521,-274.5 523.92,-272.74 527.02,-271.13 530.21,-269.66"/>
<polygon fill="#63b8ff" stroke="#63b8ff" points="531.28,-273 539.22,-265.99 528.64,-266.52 531.28,-273"/>
</g>
<!-- Node23 -->
<g id="node23" class="node">
<title>Node23</title>
<g id="a_node23"><a xlink:href="namespacekepler.html#a76d95d0e078e053088ec440c6e878ab3" target="_top" xlink:title=" ">
<polygon fill="white" stroke="#666666" points="788.5,-339 702.5,-339 702.5,-320 788.5,-320 788.5,-339"/>
<text text-anchor="middle" x="745.5" y="-327" font-family="Helvetica,sans-Serif" font-size="10.00">kepler::to_string</text>
</a>
</g>
</g>
<!-- Node22&#45;&gt;Node23 -->
<g id="edge24" class="edge">
<title>Node22&#45;&gt;Node23</title>
<path fill="none" stroke="#63b8ff" d="M630.35,-329.5C649.26,-329.5 671.31,-329.5 690.96,-329.5"/>
<polygon fill="#63b8ff" stroke="#63b8ff" points="690.69,-333 700.69,-329.5 690.69,-326 690.69,-333"/>
</g>
<!-- Node26&#45;&gt;Node14 -->
<g id="edge28" class="edge">
<title>Node26&#45;&gt;Node14</title>
<path fill="none" stroke="#63b8ff" d="M157.48,-114.56C204.2,-103.24 281.52,-84.5 338.98,-70.56"/>
<polygon fill="#63b8ff" stroke="#63b8ff" points="339.47,-74.05 348.36,-68.29 337.82,-67.25 339.47,-74.05"/>
</g>
<!-- Node27 -->
<g id="node27" class="node">
<title>Node27</title>
<g id="a_node27"><a xlink:href="execution_8cpp.html#a33abc85d7c45422062c0bd0b8b2a8299" target="_top" xlink:title=" ">
<polygon fill="white" stroke="#666666" points="281.5,-36 219.5,-36 219.5,-17 281.5,-17 281.5,-36"/>
<text text-anchor="middle" x="250.5" y="-24" font-family="Helvetica,sans-Serif" font-size="10.00">read_input</text>
</a>
</g>
</g>
<!-- Node26&#45;&gt;Node27 -->
<g id="edge29" class="edge">
<title>Node26&#45;&gt;Node27</title>
<path fill="none" stroke="#63b8ff" d="M125.08,-114.58C138.42,-99.62 165.48,-71.06 193,-52.5 199.26,-48.28 206.31,-44.43 213.25,-41.06"/>
<polygon fill="#63b8ff" stroke="#63b8ff" points="214.24,-44.46 221.87,-37.11 211.32,-38.09 214.24,-44.46"/>
</g>
<!-- Node29 -->
<g id="node29" class="node">
<title>Node29</title>
<g id="a_node29"><a xlink:href="namespacekepler.html#a49b7372a95bc6035f77f37023923e171" target="_top" xlink:title=" ">
<polygon fill="white" stroke="#666666" points="308,-360 193,-360 193,-341 308,-341 308,-360"/>
<text text-anchor="middle" x="250.5" y="-348" font-family="Helvetica,sans-Serif" font-size="10.00">kepler::safe_execution</text>
</a>
</g>
</g>
<!-- Node26&#45;&gt;Node29 -->
<g id="edge31" class="edge">
<title>Node26&#45;&gt;Node29</title>
<path fill="none" stroke="#63b8ff" d="M122.21,-134.21C142.38,-168.47 210.44,-284.13 237.88,-330.76"/>
<polygon fill="#63b8ff" stroke="#63b8ff" points="234.8,-332.42 242.89,-339.27 240.83,-328.87 234.8,-332.42"/>
</g>
<!-- Node28 -->
<g id="node28" class="node">
<title>Node28</title>
<g id="a_node28"><a xlink:href="execution_8cpp.html#a44e292f13033ec2488d02522448571b4" target="_top" xlink:title=" ">
<polygon fill="white" stroke="#666666" points="456,-19 373,-19 373,0 456,0 456,-19"/>
<text text-anchor="middle" x="414.5" y="-7" font-family="Helvetica,sans-Serif" font-size="10.00">display_prompt</text>
</a>
</g>
</g>
<!-- Node27&#45;&gt;Node28 -->
<g id="edge30" class="edge">
<title>Node27&#45;&gt;Node28</title>
<path fill="none" stroke="#63b8ff" d="M281.97,-23.3C304.33,-20.96 335.23,-17.71 361.47,-14.96"/>
<polygon fill="#63b8ff" stroke="#63b8ff" points="361.68,-18.46 371.26,-13.93 360.95,-11.5 361.68,-18.46"/>
</g>
<!-- Node29&#45;&gt;Node6 -->
<g id="edge32" class="edge">
<title>Node29&#45;&gt;Node6</title>
<path fill="none" stroke="#63b8ff" d="M269.6,-360.37C288.02,-370.21 317.54,-385.4 344,-396.5 352.7,-400.15 362.18,-403.69 371.25,-406.89"/>
<polygon fill="#63b8ff" stroke="#63b8ff" points="370.01,-410.16 380.61,-410.1 372.29,-403.54 370.01,-410.16"/>
</g>
<!-- Node29&#45;&gt;Node19 -->
<g id="edge33" class="edge">
<title>Node29&#45;&gt;Node19</title>
<path fill="none" stroke="#63b8ff" d="M308.16,-358.19C324.69,-360.44 342.71,-362.89 359.1,-365.11"/>
<polygon fill="#63b8ff" stroke="#63b8ff" points="358.27,-368.53 368.65,-366.41 359.21,-361.6 358.27,-368.53"/>
</g>
<!-- Node29&#45;&gt;Node21 -->
<g id="edge34" class="edge">
<title>Node29&#45;&gt;Node21</title>
<path fill="none" stroke="#63b8ff" d="M308.16,-343.16C320.72,-341.53 334.14,-339.79 347.06,-338.11"/>
<polygon fill="#63b8ff" stroke="#63b8ff" points="347.27,-341.61 356.74,-336.86 346.37,-334.67 347.27,-341.61"/>
</g>
</g>
</svg>
