<?xml version="1.0" encoding="UTF-8" standalone="no"?>
<!DOCTYPE svg PUBLIC "-//W3C//DTD SVG 1.1//EN"
 "http://www.w3.org/Graphics/SVG/1.1/DTD/svg11.dtd">
<!-- Generated by graphviz version 7.1.0 (20230121.1956)
 -->
<!-- Title: /Users/nikolajbankejensen/Desktop/Kepler/src/main.cpp Pages: 1 -->
<!--zoomable 544 -->
<svg id="main" version="1.1" xmlns="http://www.w3.org/2000/svg" xmlns:xlink="http://www.w3.org/1999/xlink" xml:space="preserve" onload="init(evt)">
<style type="text/css"><![CDATA[
.edge:hover path { stroke: red; }
.edge:hover polygon { stroke: red; fill: red; }
]]></style>
<script type="text/javascript"><![CDATA[
var edges = document.getElementsByTagName('g');
if (edges && edges.length) {
  for (var i=0;i<edges.length;i++) {
    if (edges[i].id.substr(0,4)=='edge') {
      edges[i].setAttribute('class','edge');
    }
  }
}
]]></script>
        <defs>
                <circle id="rim" cx="0" cy="0" r="7"/>
                <circle id="rim2" cx="0" cy="0" r="3.5"/>
                <g id="zoomPlus">
                        <use xlink:href="#rim" fill="#404040">
                                <set attributeName="fill" to="#808080" begin="zoomplus.mouseover" end="zoomplus.mouseout"/>
                        </use>
                        <path d="M-4,0h8M0,-4v8" fill="none" stroke="white" stroke-width="1.5" pointer-events="none"/>
                </g>
                <g id="zoomMin">
                        <use xlink:href="#rim" fill="#404040">
                                <set attributeName="fill" to="#808080" begin="zoomminus.mouseover" end="zoomminus.mouseout"/>
                        </use>
                        <path d="M-4,0h8" fill="none" stroke="white" stroke-width="1.5" pointer-events="none"/>
                </g>
                <g id="dirArrow">
                        <path fill="none" stroke="white" stroke-width="1.5" d="M0,-3.0v7 M-2.5,-0.5L0,-3.0L2.5,-0.5"/>
                </g>
               <g id="resetDef">
                       <use xlink:href="#rim2" fill="#404040">
                               <set attributeName="fill" to="#808080" begin="reset.mouseover" end="reset.mouseout"/>
                       </use>
               </g>
        </defs>

<script type="text/javascript">
var viewWidth = 1314;
var viewHeight = 544;
var sectionId = 'dynsection-0';
</script>
<script xlink:href="svgpan.js"/>
<svg id="graph" class="graph">
<g id="viewport">
<title>/Users/nikolajbankejensen/Desktop/Kepler/src/main.cpp</title>
<!-- Node1 -->
<g id="node1" class="node">
<title>Node1</title>
<g id="a_node1"><a xlink:title=" ">
<polygon fill="#999999" stroke="#666666" points="1128.05,-536 982.05,-536 982.05,-506 1128.05,-506 1128.05,-536"/>
<text text-anchor="start" x="990.05" y="-524" font-family="Helvetica,sans-Serif" font-size="10.00">/Users/nikolajbankejensen</text>
<text text-anchor="middle" x="1055.05" y="-513" font-family="Helvetica,sans-Serif" font-size="10.00">/Desktop/Kepler/src/main.cpp</text>
</a>
</g>
</g>
<!-- Node2 -->
<g id="node2" class="node">
<title>Node2</title>
<g id="a_node2"><a xlink:title=" ">
<polygon fill="#e0e0e0" stroke="#999999" points="326.05,-19 272.05,-19 272.05,0 326.05,0 326.05,-19"/>
<text text-anchor="middle" x="299.05" y="-7" font-family="Helvetica,sans-Serif" font-size="10.00">iostream</text>
</a>
</g>
</g>
<!-- Node1&#45;&gt;Node2 -->
<g id="edge1" class="edge">
<title>Node1&#45;&gt;Node2</title>
<path fill="none" stroke="#63b8ff" d="M981.83,-518.12C771.93,-511.77 183.05,-486.79 183.05,-406.5 183.05,-406.5 183.05,-406.5 183.05,-349.5 183.05,-242.87 133.21,-210.42 169.05,-110 184.36,-67.13 231.4,-38.95 264.47,-23.87"/>
<polygon fill="#63b8ff" stroke="#63b8ff" points="265.51,-27.24 273.27,-20.03 262.71,-20.82 265.51,-27.24"/>
</g>
<!-- Node3 -->
<g id="node3" class="node">
<title>Node3</title>
<g id="a_node3"><a xlink:title=" ">
<polygon fill="#e0e0e0" stroke="#999999" points="1196.55,-470 1065.55,-470 1065.55,-451 1196.55,-451 1196.55,-470"/>
<text text-anchor="middle" x="1131.05" y="-458" font-family="Helvetica,sans-Serif" font-size="10.00">catch2/catch_session.hpp</text>
</a>
</g>
</g>
<!-- Node1&#45;&gt;Node3 -->
<g id="edge2" class="edge">
<title>Node1&#45;&gt;Node3</title>
<path fill="none" stroke="#63b8ff" d="M1073.84,-505.54C1085.1,-496.87 1099.42,-485.85 1110.92,-477"/>
<polygon fill="#63b8ff" stroke="#63b8ff" points="1112.79,-479.97 1118.58,-471.1 1108.52,-474.42 1112.79,-479.97"/>
</g>
<!-- Node4 -->
<g id="node4" class="node">
<title>Node4</title>
<g id="a_node4"><a xlink:title=" ">
<polygon fill="#e0e0e0" stroke="#999999" points="1306.05,-415 1236.05,-415 1236.05,-396 1306.05,-396 1306.05,-415"/>
<text text-anchor="middle" x="1271.05" y="-403" font-family="Helvetica,sans-Serif" font-size="10.00">lyra/lyra.hpp</text>
</a>
</g>
</g>
<!-- Node1&#45;&gt;Node4 -->
<g id="edge3" class="edge">
<title>Node1&#45;&gt;Node4</title>
<path fill="none" stroke="#63b8ff" d="M1118.7,-505.55C1146.46,-497.57 1178.63,-485.98 1205.05,-470 1225.39,-457.7 1244.49,-438.11 1256.85,-423.94"/>
<polygon fill="#63b8ff" stroke="#63b8ff" points="1259.52,-426.21 1263.29,-416.31 1254.17,-421.69 1259.52,-426.21"/>
</g>
<!-- Node5 -->
<g id="node5" class="node">
<title>Node5</title>
<g id="a_node5"><a xlink:href="cli_8h.html" target="_top" xlink:title=" ">
<polygon fill="white" stroke="#666666" points="1288.55,-470 1253.55,-470 1253.55,-451 1288.55,-451 1288.55,-470"/>
<text text-anchor="middle" x="1271.05" y="-458" font-family="Helvetica,sans-Serif" font-size="10.00">cli.h</text>
</a>
</g>
</g>
<!-- Node1&#45;&gt;Node5 -->
<g id="edge4" class="edge">
<title>Node1&#45;&gt;Node5</title>
<path fill="none" stroke="#63b8ff" d="M1108.45,-505.54C1150.69,-494.1 1208.06,-478.56 1242.15,-469.33"/>
<polygon fill="#63b8ff" stroke="#63b8ff" points="1242.97,-472.73 1251.71,-466.74 1241.14,-465.97 1242.97,-472.73"/>
</g>
<!-- Node6 -->
<g id="node6" class="node">
<title>Node6</title>
<g id="a_node6"><a xlink:href="execution_8h.html" target="_top" xlink:title=" ">
<polygon fill="white" stroke="#666666" points="1047.05,-470 911.05,-470 911.05,-451 1047.05,-451 1047.05,-470"/>
<text text-anchor="middle" x="979.05" y="-458" font-family="Helvetica,sans-Serif" font-size="10.00">core/evaluation/execution.h</text>
</a>
</g>
</g>
<!-- Node1&#45;&gt;Node6 -->
<g id="edge6" class="edge">
<title>Node1&#45;&gt;Node6</title>
<path fill="none" stroke="#63b8ff" d="M1036.27,-505.54C1025,-496.87 1010.68,-485.85 999.19,-477"/>
<polygon fill="#63b8ff" stroke="#63b8ff" points="1001.58,-474.42 991.52,-471.1 997.31,-479.97 1001.58,-474.42"/>
</g>
<!-- Node29 -->
<g id="node29" class="node">
<title>Node29</title>
<g id="a_node29"><a xlink:href="literals_8h.html" target="_top" xlink:title=" ">
<polygon fill="white" stroke="#666666" points="154.55,-360 79.55,-360 79.55,-341 154.55,-341 154.55,-360"/>
<text text-anchor="middle" x="117.05" y="-348" font-family="Helvetica,sans-Serif" font-size="10.00">core/literals.h</text>
</a>
</g>
</g>
<!-- Node1&#45;&gt;Node29 -->
<g id="edge56" class="edge">
<title>Node1&#45;&gt;Node29</title>
<path fill="none" stroke="#63b8ff" d="M981.68,-520.2C781.25,-520.16 235.02,-515.8 169.05,-470 136.23,-447.22 123.92,-398.9 119.46,-371.52"/>
<polygon fill="#63b8ff" stroke="#63b8ff" points="122.94,-371.19 118.09,-361.77 116.01,-372.16 122.94,-371.19"/>
</g>
<!-- Node5&#45;&gt;Node4 -->
<g id="edge5" class="edge">
<title>Node5&#45;&gt;Node4</title>
<path fill="none" stroke="#63b8ff" d="M1271.05,-450.75C1271.05,-444.27 1271.05,-435.16 1271.05,-426.9"/>
<polygon fill="#63b8ff" stroke="#63b8ff" points="1274.55,-426.96 1271.05,-416.96 1267.55,-426.96 1274.55,-426.96"/>
</g>
<!-- Node7 -->
<g id="node7" class="node">
<title>Node7</title>
<g id="a_node7"><a xlink:title=" ">
<polygon fill="#e0e0e0" stroke="#999999" points="930.55,-19 889.55,-19 889.55,0 930.55,0 930.55,-19"/>
<text text-anchor="middle" x="910.05" y="-7" font-family="Helvetica,sans-Serif" font-size="10.00">string</text>
</a>
</g>
</g>
<!-- Node6&#45;&gt;Node7 -->
<g id="edge7" class="edge">
<title>Node6&#45;&gt;Node7</title>
<path fill="none" stroke="#63b8ff" d="M1014.83,-450.54C1079.24,-433.35 1208.05,-393.7 1208.05,-351.5 1208.05,-351.5 1208.05,-351.5 1208.05,-118.5 1208.05,-84.16 1192.98,-73.5 1164.05,-55 1127.71,-31.75 1002.14,-18.29 942.28,-13.05"/>
<polygon fill="#63b8ff" stroke="#63b8ff" points="942.66,-9.57 932.4,-12.21 942.07,-16.55 942.66,-9.57"/>
</g>
<!-- Node8 -->
<g id="node8" class="node">
<title>Node8</title>
<g id="a_node8"><a xlink:href="datatypes_8h.html" target="_top" xlink:title=" ">
<polygon fill="white" stroke="#666666" points="683.55,-74 594.55,-74 594.55,-55 683.55,-55 683.55,-74"/>
<text text-anchor="middle" x="639.05" y="-62" font-family="Helvetica,sans-Serif" font-size="10.00">core/datatypes.h</text>
</a>
</g>
</g>
<!-- Node6&#45;&gt;Node8 -->
<g id="edge8" class="edge">
<title>Node6&#45;&gt;Node8</title>
<path fill="none" stroke="#63b8ff" d="M1016.87,-450.54C1062.18,-437.3 1132.05,-407.75 1132.05,-351.5 1132.05,-351.5 1132.05,-351.5 1132.05,-173.5 1132.05,-135.58 1108.86,-127.19 1075.05,-110 1009.99,-76.91 797.57,-68.42 695.2,-66.25"/>
<polygon fill="#63b8ff" stroke="#63b8ff" points="695.45,-62.75 685.38,-66.05 695.31,-69.75 695.45,-62.75"/>
</g>
<!-- Node11 -->
<g id="node11" class="node">
<title>Node11</title>
<g id="a_node11"><a xlink:href="symbol__table_8h.html" target="_top" xlink:title=" ">
<polygon fill="white" stroke="#666666" points="501.05,-415 397.05,-415 397.05,-396 501.05,-396 501.05,-415"/>
<text text-anchor="middle" x="449.05" y="-403" font-family="Helvetica,sans-Serif" font-size="10.00">core/symbol_table.h</text>
</a>
</g>
</g>
<!-- Node6&#45;&gt;Node11 -->
<g id="edge12" class="edge">
<title>Node6&#45;&gt;Node11</title>
<path fill="none" stroke="#63b8ff" d="M910.58,-452.65C807.24,-442.32 612.89,-422.88 512.56,-412.85"/>
<polygon fill="#63b8ff" stroke="#63b8ff" points="513.2,-409.4 502.9,-411.88 512.5,-416.36 513.2,-409.4"/>
</g>
<!-- Node8&#45;&gt;Node7 -->
<g id="edge10" class="edge">
<title>Node8&#45;&gt;Node7</title>
<path fill="none" stroke="#63b8ff" d="M683.8,-54.75C738.55,-44.04 829.86,-26.18 878.04,-16.76"/>
<polygon fill="#63b8ff" stroke="#63b8ff" points="878.68,-20.2 887.83,-14.85 877.34,-13.33 878.68,-20.2"/>
</g>
<!-- Node9 -->
<g id="node9" class="node">
<title>Node9</title>
<g id="a_node9"><a xlink:title=" ">
<polygon fill="#e0e0e0" stroke="#999999" points="627.05,-19 583.05,-19 583.05,0 627.05,0 627.05,-19"/>
<text text-anchor="middle" x="605.05" y="-7" font-family="Helvetica,sans-Serif" font-size="10.00">vector</text>
</a>
</g>
</g>
<!-- Node8&#45;&gt;Node9 -->
<g id="edge9" class="edge">
<title>Node8&#45;&gt;Node9</title>
<path fill="none" stroke="#63b8ff" d="M633.44,-54.75C628.94,-47.73 622.47,-37.64 616.84,-28.87"/>
<polygon fill="#63b8ff" stroke="#63b8ff" points="619.95,-27.24 611.61,-20.72 614.06,-31.02 619.95,-27.24"/>
</g>
<!-- Node10 -->
<g id="node10" class="node">
<title>Node10</title>
<g id="a_node10"><a xlink:title=" ">
<polygon fill="#e0e0e0" stroke="#999999" points="698.55,-19 645.55,-19 645.55,0 698.55,0 698.55,-19"/>
<text text-anchor="middle" x="672.05" y="-7" font-family="Helvetica,sans-Serif" font-size="10.00">complex</text>
</a>
</g>
</g>
<!-- Node8&#45;&gt;Node10 -->
<g id="edge11" class="edge">
<title>Node8&#45;&gt;Node10</title>
<path fill="none" stroke="#63b8ff" d="M644.5,-54.75C648.82,-47.81 655.01,-37.86 660.43,-29.16"/>
<polygon fill="#63b8ff" stroke="#63b8ff" points="663.37,-31.07 665.68,-20.73 657.43,-27.37 663.37,-31.07"/>
</g>
<!-- Node11&#45;&gt;Node7 -->
<g id="edge14" class="edge">
<title>Node11&#45;&gt;Node7</title>
<path fill="none" stroke="#63b8ff" d="M501.49,-399.32C667.4,-381.48 1170.05,-315.86 1170.05,-175.5 1170.05,-175.5 1170.05,-175.5 1170.05,-118.5 1170.05,-20.78 1011.47,-9.82 942,-9.71"/>
<polygon fill="#63b8ff" stroke="#63b8ff" points="942.38,-6.21 932.4,-9.77 942.43,-13.21 942.38,-6.21"/>
</g>
<!-- Node12 -->
<g id="node12" class="node">
<title>Node12</title>
<g id="a_node12"><a xlink:title=" ">
<polygon fill="#e0e0e0" stroke="#999999" points="284.55,-305 249.55,-305 249.55,-286 284.55,-286 284.55,-305"/>
<text text-anchor="middle" x="267.05" y="-293" font-family="Helvetica,sans-Serif" font-size="10.00">map</text>
</a>
</g>
</g>
<!-- Node11&#45;&gt;Node12 -->
<g id="edge13" class="edge">
<title>Node11&#45;&gt;Node12</title>
<path fill="none" stroke="#63b8ff" d="M398.17,-395.51C371.3,-388.93 338.85,-377.93 314.05,-360 297.92,-348.33 284.96,-329.47 276.78,-315.34"/>
<polygon fill="#63b8ff" stroke="#63b8ff" points="279.85,-313.66 271.99,-306.56 273.71,-317.02 279.85,-313.66"/>
</g>
<!-- Node13 -->
<g id="node13" class="node">
<title>Node13</title>
<g id="a_node13"><a xlink:href="array_8h.html" target="_top" xlink:title=" ">
<polygon fill="white" stroke="#666666" points="291.55,-129 224.55,-129 224.55,-110 291.55,-110 291.55,-129"/>
<text text-anchor="middle" x="258.05" y="-117" font-family="Helvetica,sans-Serif" font-size="10.00">core/array.h</text>
</a>
</g>
</g>
<!-- Node11&#45;&gt;Node13 -->
<g id="edge15" class="edge">
<title>Node11&#45;&gt;Node13</title>
<path fill="none" stroke="#63b8ff" d="M396.92,-398.91C343.34,-389.85 264.42,-366.24 240.05,-305 217.49,-248.29 238.23,-174.35 250.5,-139.83"/>
<polygon fill="#63b8ff" stroke="#63b8ff" points="253.66,-141.37 253.88,-130.78 247.11,-138.93 253.66,-141.37"/>
</g>
<!-- Node15 -->
<g id="node15" class="node">
<title>Node15</title>
<g id="a_node15"><a xlink:href="ast_8h.html" target="_top" xlink:title=" ">
<polygon fill="white" stroke="#666666" points="502.55,-305 395.55,-305 395.55,-286 502.55,-286 502.55,-305"/>
<text text-anchor="middle" x="449.05" y="-293" font-family="Helvetica,sans-Serif" font-size="10.00">core/evaluation/ast.h</text>
</a>
</g>
</g>
<!-- Node11&#45;&gt;Node15 -->
<g id="edge18" class="edge">
<title>Node11&#45;&gt;Node15</title>
<path fill="none" stroke="#63b8ff" d="M449.05,-395.66C449.05,-378.57 449.05,-340.61 449.05,-316.92"/>
<polygon fill="#63b8ff" stroke="#63b8ff" points="452.55,-316.97 449.05,-306.97 445.55,-316.97 452.55,-316.97"/>
</g>
<!-- Node25 -->
<g id="node25" class="node">
<title>Node25</title>
<g id="a_node25"><a xlink:href="error_8h.html" target="_top" xlink:title=" ">
<polygon fill="white" stroke="#666666" points="970.05,-184 926.05,-184 926.05,-165 970.05,-165 970.05,-184"/>
<text text-anchor="middle" x="948.05" y="-172" font-family="Helvetica,sans-Serif" font-size="10.00">error.h</text>
</a>
</g>
</g>
<!-- Node11&#45;&gt;Node25 -->
<g id="edge43" class="edge">
<title>Node11&#45;&gt;Node25</title>
<path fill="none" stroke="#63b8ff" d="M468.61,-395.52C545.32,-360.32 825.9,-231.56 918.32,-189.15"/>
<polygon fill="#63b8ff" stroke="#63b8ff" points="919.62,-192.4 927.25,-185.05 916.7,-186.04 919.62,-192.4"/>
</g>
<!-- Node28 -->
<g id="node28" class="node">
<title>Node28</title>
<g id="a_node28"><a xlink:href="symbol_8h.html" target="_top" xlink:title=" ">
<polygon fill="white" stroke="#666666" points="379.05,-360 323.05,-360 323.05,-341 379.05,-341 379.05,-360"/>
<text text-anchor="middle" x="351.05" y="-348" font-family="Helvetica,sans-Serif" font-size="10.00">symbol.h</text>
</a>
</g>
</g>
<!-- Node11&#45;&gt;Node28 -->
<g id="edge51" class="edge">
<title>Node11&#45;&gt;Node28</title>
<path fill="none" stroke="#63b8ff" d="M432.43,-395.51C417.27,-387.31 394.64,-375.07 377.08,-365.58"/>
<polygon fill="#63b8ff" stroke="#63b8ff" points="379.22,-362.76 368.76,-361.08 375.89,-368.91 379.22,-362.76"/>
</g>
<!-- Node13&#45;&gt;Node8 -->
<g id="edge16" class="edge">
<title>Node13&#45;&gt;Node8</title>
<path fill="none" stroke="#63b8ff" d="M291.82,-111.61C294.93,-111.04 298.05,-110.49 301.05,-110 399.88,-93.74 515.73,-79.54 582.92,-71.77"/>
<polygon fill="#63b8ff" stroke="#63b8ff" points="583.05,-75.28 592.58,-70.66 582.25,-68.33 583.05,-75.28"/>
</g>
<!-- Node14 -->
<g id="node14" class="node">
<title>Node14</title>
<g id="a_node14"><a xlink:title=" ">
<polygon fill="#e0e0e0" stroke="#999999" points="281.05,-74 235.05,-74 235.05,-55 281.05,-55 281.05,-74"/>
<text text-anchor="middle" x="258.05" y="-62" font-family="Helvetica,sans-Serif" font-size="10.00">variant</text>
</a>
</g>
</g>
<!-- Node13&#45;&gt;Node14 -->
<g id="edge17" class="edge">
<title>Node13&#45;&gt;Node14</title>
<path fill="none" stroke="#63b8ff" d="M258.05,-109.75C258.05,-103.27 258.05,-94.16 258.05,-85.9"/>
<polygon fill="#63b8ff" stroke="#63b8ff" points="261.55,-85.96 258.05,-75.96 254.55,-85.96 261.55,-85.96"/>
</g>
<!-- Node15&#45;&gt;Node2 -->
<g id="edge20" class="edge">
<title>Node15&#45;&gt;Node2</title>
<path fill="none" stroke="#63b8ff" d="M422.33,-285.52C370.39,-266.39 257.22,-216.11 215.05,-129 206.32,-110.96 216.6,-68.51 226.05,-55 235.41,-41.62 250.2,-31.53 264.02,-24.36"/>
<polygon fill="#63b8ff" stroke="#63b8ff" points="265.43,-27.57 272.94,-20.1 262.41,-21.26 265.43,-27.57"/>
</g>
<!-- Node15&#45;&gt;Node7 -->
<g id="edge19" class="edge">
<title>Node15&#45;&gt;Node7</title>
<path fill="none" stroke="#63b8ff" d="M503.03,-291.08C548.31,-286.45 613.63,-275.57 665.05,-250 710.03,-227.63 750.05,-225.73 750.05,-175.5 750.05,-175.5 750.05,-175.5 750.05,-118.5 750.05,-57.33 831.39,-28.48 878.08,-16.96"/>
<polygon fill="#63b8ff" stroke="#63b8ff" points="878.71,-20.41 887.66,-14.74 877.13,-13.59 878.71,-20.41"/>
</g>
<!-- Node15&#45;&gt;Node8 -->
<g id="edge35" class="edge">
<title>Node15&#45;&gt;Node8</title>
<path fill="none" stroke="#63b8ff" d="M503.05,-294.38C544.13,-291.55 599.76,-281.48 637.05,-250 685.91,-208.77 689.2,-170.99 670.05,-110 667,-100.27 660.98,-90.81 655.06,-83.13"/>
<polygon fill="#63b8ff" stroke="#63b8ff" points="657.89,-81.07 648.8,-75.64 652.52,-85.56 657.89,-81.07"/>
</g>
<!-- Node15&#45;&gt;Node13 -->
<g id="edge21" class="edge">
<title>Node15&#45;&gt;Node13</title>
<path fill="none" stroke="#63b8ff" d="M439.85,-285.53C417.91,-264.22 360.68,-209.06 311.05,-165 300.16,-155.33 287.69,-144.84 277.59,-136.47"/>
<polygon fill="#63b8ff" stroke="#63b8ff" points="279.87,-133.81 269.93,-130.16 275.42,-139.22 279.87,-133.81"/>
</g>
<!-- Node16 -->
<g id="node16" class="node">
<title>Node16</title>
<g id="a_node16"><a xlink:href="token_8h.html" target="_top" xlink:title=" ">
<polygon fill="white" stroke="#666666" points="656.55,-184 585.55,-184 585.55,-165 656.55,-165 656.55,-184"/>
<text text-anchor="middle" x="621.05" y="-172" font-family="Helvetica,sans-Serif" font-size="10.00">core/token.h</text>
</a>
</g>
</g>
<!-- Node15&#45;&gt;Node16 -->
<g id="edge22" class="edge">
<title>Node15&#45;&gt;Node16</title>
<path fill="none" stroke="#63b8ff" d="M502.97,-287.17C546.44,-280.06 602.63,-267.73 617.05,-250 629.3,-234.95 628.58,-212 625.88,-195.55"/>
<polygon fill="#63b8ff" stroke="#63b8ff" points="629.35,-195.05 623.91,-185.96 622.49,-196.46 629.35,-195.05"/>
</g>
<!-- Node22 -->
<g id="node22" class="node">
<title>Node22</title>
<g id="a_node22"><a xlink:href="position_8h.html" target="_top" xlink:title=" ">
<polygon fill="white" stroke="#666666" points="437.55,-129 378.55,-129 378.55,-110 437.55,-110 437.55,-129"/>
<text text-anchor="middle" x="408.05" y="-117" font-family="Helvetica,sans-Serif" font-size="10.00">position.h</text>
</a>
</g>
</g>
<!-- Node15&#45;&gt;Node22 -->
<g id="edge42" class="edge">
<title>Node15&#45;&gt;Node22</title>
<path fill="none" stroke="#63b8ff" d="M446.96,-285.63C440.63,-258.75 421.54,-177.73 412.67,-140.1"/>
<polygon fill="#63b8ff" stroke="#63b8ff" points="416.14,-139.55 410.44,-130.62 409.32,-141.15 416.14,-139.55"/>
</g>
<!-- Node23 -->
<g id="node23" class="node">
<title>Node23</title>
<g id="a_node23"><a xlink:title=" ">
<polygon fill="#e0e0e0" stroke="#999999" points="491.05,-184 439.05,-184 439.05,-165 491.05,-165 491.05,-184"/>
<text text-anchor="middle" x="465.05" y="-172" font-family="Helvetica,sans-Serif" font-size="10.00">memory</text>
</a>
</g>
</g>
<!-- Node15&#45;&gt;Node23 -->
<g id="edge36" class="edge">
<title>Node15&#45;&gt;Node23</title>
<path fill="none" stroke="#63b8ff" d="M450.26,-285.56C452.82,-266.51 458.86,-221.56 462.38,-195.37"/>
<polygon fill="#63b8ff" stroke="#63b8ff" points="465.81,-196.1 463.68,-185.72 458.88,-195.17 465.81,-196.1"/>
</g>
<!-- Node24 -->
<g id="node24" class="node">
<title>Node24</title>
<g id="a_node24"><a xlink:href="operation_8h.html" target="_top" xlink:title=" ">
<polygon fill="white" stroke="#666666" points="608.55,-250 477.55,-250 477.55,-220 608.55,-220 608.55,-250"/>
<text text-anchor="start" x="485.55" y="-238" font-family="Helvetica,sans-Serif" font-size="10.00">core/evaluation/operations</text>
<text text-anchor="middle" x="543.05" y="-227" font-family="Helvetica,sans-Serif" font-size="10.00">/operation.h</text>
</a>
</g>
</g>
<!-- Node15&#45;&gt;Node24 -->
<g id="edge37" class="edge">
<title>Node15&#45;&gt;Node24</title>
<path fill="none" stroke="#63b8ff" d="M463.33,-285.62C475.75,-277.89 494.22,-266.39 510.26,-256.41"/>
<polygon fill="#63b8ff" stroke="#63b8ff" points="511.92,-259.49 518.57,-251.24 508.23,-253.55 511.92,-259.49"/>
</g>
<!-- Node16&#45;&gt;Node8 -->
<g id="edge25" class="edge">
<title>Node16&#45;&gt;Node8</title>
<path fill="none" stroke="#63b8ff" d="M630.38,-164.63C638.41,-156.31 649.41,-143.06 654.05,-129 658.89,-114.34 654.33,-97.29 649,-84.56"/>
<polygon fill="#63b8ff" stroke="#63b8ff" points="652.22,-83.18 644.79,-75.63 645.89,-86.17 652.22,-83.18"/>
</g>
<!-- Node16&#45;&gt;Node13 -->
<g id="edge27" class="edge">
<title>Node16&#45;&gt;Node13</title>
<path fill="none" stroke="#63b8ff" d="M585.44,-169.22C528.21,-162.2 411.99,-147.34 303.02,-129.24"/>
<polygon fill="#63b8ff" stroke="#63b8ff" points="303.75,-125.81 293.31,-127.61 302.6,-132.72 303.75,-125.81"/>
</g>
<!-- Node17 -->
<g id="node17" class="node">
<title>Node17</title>
<g id="a_node17"><a xlink:href="token__type_8h.html" target="_top" xlink:title=" ">
<polygon fill="white" stroke="#666666" points="437.55,-74 364.55,-74 364.55,-55 437.55,-55 437.55,-74"/>
<text text-anchor="middle" x="401.05" y="-62" font-family="Helvetica,sans-Serif" font-size="10.00">token_type.h</text>
</a>
</g>
</g>
<!-- Node16&#45;&gt;Node17 -->
<g id="edge23" class="edge">
<title>Node16&#45;&gt;Node17</title>
<path fill="none" stroke="#63b8ff" d="M600.63,-164.61C580.71,-155.85 549.6,-141.92 523.05,-129 489.76,-112.79 452.04,-92.92 427.47,-79.77"/>
<polygon fill="#63b8ff" stroke="#63b8ff" points="429.28,-76.77 418.82,-75.13 425.97,-82.94 429.28,-76.77"/>
</g>
<!-- Node18 -->
<g id="node18" class="node">
<title>Node18</title>
<g id="a_node18"><a xlink:title=" ">
<polygon fill="#e0e0e0" stroke="#999999" points="919.55,-129 836.55,-129 836.55,-110 919.55,-110 919.55,-129"/>
<text text-anchor="middle" x="878.05" y="-117" font-family="Helvetica,sans-Serif" font-size="10.00">uni_algo/conv.h</text>
</a>
</g>
</g>
<!-- Node16&#45;&gt;Node18 -->
<g id="edge26" class="edge">
<title>Node16&#45;&gt;Node18</title>
<path fill="none" stroke="#63b8ff" d="M656.79,-166.13C700.51,-157.11 774.92,-141.77 825.25,-131.39"/>
<polygon fill="#63b8ff" stroke="#63b8ff" points="825.66,-134.88 834.75,-129.43 824.25,-128.02 825.66,-134.88"/>
</g>
<!-- Node19 -->
<g id="node19" class="node">
<title>Node19</title>
<g id="a_node19"><a xlink:href="conversion_8h.html" target="_top" xlink:title=" ">
<polygon fill="white" stroke="#666666" points="645.55,-129 532.55,-129 532.55,-110 645.55,-110 645.55,-129"/>
<text text-anchor="middle" x="589.05" y="-117" font-family="Helvetica,sans-Serif" font-size="10.00">interface/conversion.h</text>
</a>
</g>
</g>
<!-- Node16&#45;&gt;Node19 -->
<g id="edge28" class="edge">
<title>Node16&#45;&gt;Node19</title>
<path fill="none" stroke="#63b8ff" d="M615.77,-164.75C611.58,-157.81 605.57,-147.86 600.32,-139.16"/>
<polygon fill="#63b8ff" stroke="#63b8ff" points="603.4,-137.49 595.23,-130.74 597.41,-141.11 603.4,-137.49"/>
</g>
<!-- Node20 -->
<g id="node20" class="node">
<title>Node20</title>
<g id="a_node20"><a xlink:title=" ">
<polygon fill="#e0e0e0" stroke="#999999" points="818.05,-129 778.05,-129 778.05,-110 818.05,-110 818.05,-129"/>
<text text-anchor="middle" x="798.05" y="-117" font-family="Helvetica,sans-Serif" font-size="10.00">utility</text>
</a>
</g>
</g>
<!-- Node16&#45;&gt;Node20 -->
<g id="edge32" class="edge">
<title>Node16&#45;&gt;Node20</title>
<path fill="none" stroke="#63b8ff" d="M651.08,-164.51C683.28,-154.87 734.18,-139.63 766.84,-129.85"/>
<polygon fill="#63b8ff" stroke="#63b8ff" points="767.54,-133.29 776.12,-127.07 765.53,-126.58 767.54,-133.29"/>
</g>
<!-- Node21 -->
<g id="node21" class="node">
<title>Node21</title>
<g id="a_node21"><a xlink:title=" ">
<polygon fill="#e0e0e0" stroke="#999999" points="360.05,-129 310.05,-129 310.05,-110 360.05,-110 360.05,-129"/>
<text text-anchor="middle" x="335.05" y="-117" font-family="Helvetica,sans-Serif" font-size="10.00">optional</text>
</a>
</g>
</g>
<!-- Node16&#45;&gt;Node21 -->
<g id="edge33" class="edge">
<title>Node16&#45;&gt;Node21</title>
<path fill="none" stroke="#63b8ff" d="M585.43,-168.02C538.58,-160.63 453.46,-146.61 371.3,-129.35"/>
<polygon fill="#63b8ff" stroke="#63b8ff" points="372.25,-125.98 361.74,-127.32 370.79,-132.82 372.25,-125.98"/>
</g>
<!-- Node16&#45;&gt;Node22 -->
<g id="edge34" class="edge">
<title>Node16&#45;&gt;Node22</title>
<path fill="none" stroke="#63b8ff" d="M585.4,-164.63C547.78,-155.27 488.58,-140.54 449.05,-130.7"/>
<polygon fill="#63b8ff" stroke="#63b8ff" points="449.98,-127.33 439.43,-128.31 448.29,-134.12 449.98,-127.33"/>
</g>
<!-- Node17&#45;&gt;Node2 -->
<g id="edge24" class="edge">
<title>Node17&#45;&gt;Node2</title>
<path fill="none" stroke="#63b8ff" d="M383.75,-54.51C367.98,-46.31 344.42,-34.07 326.15,-24.58"/>
<polygon fill="#63b8ff" stroke="#63b8ff" points="327.93,-21.56 317.44,-20.06 324.7,-27.77 327.93,-21.56"/>
</g>
<!-- Node19&#45;&gt;Node7 -->
<g id="edge29" class="edge">
<title>Node19&#45;&gt;Node7</title>
<path fill="none" stroke="#63b8ff" d="M609.77,-109.55C650.23,-92.07 735.85,-55.07 736.05,-55 784.7,-38.39 842.85,-24.72 878.09,-17.09"/>
<polygon fill="#63b8ff" stroke="#63b8ff" points="878.59,-20.56 887.64,-15.05 877.13,-13.71 878.59,-20.56"/>
</g>
<!-- Node19&#45;&gt;Node8 -->
<g id="edge30" class="edge">
<title>Node19&#45;&gt;Node8</title>
<path fill="none" stroke="#63b8ff" d="M597.31,-109.75C604.22,-102.43 614.28,-91.76 622.79,-82.74"/>
<polygon fill="#63b8ff" stroke="#63b8ff" points="625.26,-85.22 629.58,-75.54 620.17,-80.42 625.26,-85.22"/>
</g>
<!-- Node19&#45;&gt;Node17 -->
<g id="edge31" class="edge">
<title>Node19&#45;&gt;Node17</title>
<path fill="none" stroke="#63b8ff" d="M557.16,-109.51C525.87,-100.69 477.96,-87.18 443.47,-77.46"/>
<polygon fill="#63b8ff" stroke="#63b8ff" points="444.82,-74.2 434.24,-74.86 442.92,-80.94 444.82,-74.2"/>
</g>
<!-- Node24&#45;&gt;Node8 -->
<g id="edge38" class="edge">
<title>Node24&#45;&gt;Node8</title>
<path fill="none" stroke="#63b8ff" d="M539.61,-219.62C532.4,-188.91 516.91,-118.94 523.05,-110 536.76,-90.07 560.72,-79.06 583.31,-72.98"/>
<polygon fill="#63b8ff" stroke="#63b8ff" points="583.86,-76.45 592.78,-70.72 582.24,-69.64 583.86,-76.45"/>
</g>
<!-- Node24&#45;&gt;Node13 -->
<g id="edge39" class="edge">
<title>Node24&#45;&gt;Node13</title>
<path fill="none" stroke="#63b8ff" d="M538.15,-219.58C531.91,-203.57 519.56,-178.24 500.05,-165 428.59,-116.5 392.26,-143.4 303,-129.18"/>
<polygon fill="#63b8ff" stroke="#63b8ff" points="303.79,-125.76 293.33,-127.49 302.58,-132.66 303.79,-125.76"/>
</g>
<!-- Node24&#45;&gt;Node16 -->
<g id="edge40" class="edge">
<title>Node24&#45;&gt;Node16</title>
<path fill="none" stroke="#63b8ff" d="M562.33,-219.54C573.89,-210.87 588.59,-199.85 600.39,-191"/>
<polygon fill="#63b8ff" stroke="#63b8ff" points="602.37,-193.88 608.27,-185.08 598.17,-188.28 602.37,-193.88"/>
</g>
<!-- Node24&#45;&gt;Node23 -->
<g id="edge41" class="edge">
<title>Node24&#45;&gt;Node23</title>
<path fill="none" stroke="#63b8ff" d="M523.77,-219.54C512.21,-210.87 497.51,-199.85 485.72,-191"/>
<polygon fill="#63b8ff" stroke="#63b8ff" points="487.93,-188.28 477.83,-185.08 483.73,-193.88 487.93,-188.28"/>
</g>
<!-- Node25&#45;&gt;Node2 -->
<g id="edge44" class="edge">
<title>Node25&#45;&gt;Node2</title>
<path fill="none" stroke="#63b8ff" d="M951.42,-164.56C955.84,-151.12 961.67,-125.6 949.05,-110 910.16,-61.91 471.33,-23.94 337.54,-13.41"/>
<polygon fill="#63b8ff" stroke="#63b8ff" points="338.03,-9.94 327.79,-12.65 337.48,-16.92 338.03,-9.94"/>
</g>
<!-- Node25&#45;&gt;Node8 -->
<g id="edge49" class="edge">
<title>Node25&#45;&gt;Node8</title>
<path fill="none" stroke="#63b8ff" d="M948.03,-164.54C947.46,-150.59 944.19,-123.85 928.05,-110 894.04,-80.82 769.48,-70.72 695.45,-67.26"/>
<polygon fill="#63b8ff" stroke="#63b8ff" points="695.68,-63.77 685.54,-66.83 695.37,-70.76 695.68,-63.77"/>
</g>
<!-- Node25&#45;&gt;Node18 -->
<g id="edge50" class="edge">
<title>Node25&#45;&gt;Node18</title>
<path fill="none" stroke="#63b8ff" d="M936.18,-164.51C925.96,-156.77 910.98,-145.43 898.79,-136.2"/>
<polygon fill="#63b8ff" stroke="#63b8ff" points="901.04,-133.52 890.96,-130.27 896.82,-139.1 901.04,-133.52"/>
</g>
<!-- Node25&#45;&gt;Node20 -->
<g id="edge46" class="edge">
<title>Node25&#45;&gt;Node20</title>
<path fill="none" stroke="#63b8ff" d="M925.6,-165.57C899.91,-156.49 857.7,-141.58 828.93,-131.41"/>
<polygon fill="#63b8ff" stroke="#63b8ff" points="830.28,-128.17 819.68,-128.14 827.95,-134.77 830.28,-128.17"/>
</g>
<!-- Node26 -->
<g id="node26" class="node">
<title>Node26</title>
<g id="a_node26"><a xlink:title=" ">
<polygon fill="#e0e0e0" stroke="#999999" points="1066.05,-129 1014.05,-129 1014.05,-110 1066.05,-110 1066.05,-129"/>
<text text-anchor="middle" x="1040.05" y="-117" font-family="Helvetica,sans-Serif" font-size="10.00">sstream</text>
</a>
</g>
</g>
<!-- Node25&#45;&gt;Node26 -->
<g id="edge45" class="edge">
<title>Node25&#45;&gt;Node26</title>
<path fill="none" stroke="#63b8ff" d="M963.66,-164.51C977.75,-156.39 998.74,-144.3 1015.15,-134.85"/>
<polygon fill="#63b8ff" stroke="#63b8ff" points="1016.45,-138.14 1023.36,-130.11 1012.95,-132.07 1016.45,-138.14"/>
</g>
<!-- Node27 -->
<g id="node27" class="node">
<title>Node27</title>
<g id="a_node27"><a xlink:href="error__type_8h.html" target="_top" xlink:title=" ">
<polygon fill="white" stroke="#666666" points="1105.05,-74 1037.05,-74 1037.05,-55 1105.05,-55 1105.05,-74"/>
<text text-anchor="middle" x="1071.05" y="-62" font-family="Helvetica,sans-Serif" font-size="10.00">error_type.h</text>
</a>
</g>
</g>
<!-- Node25&#45;&gt;Node27 -->
<g id="edge47" class="edge">
<title>Node25&#45;&gt;Node27</title>
<path fill="none" stroke="#63b8ff" d="M970.54,-173.01C1000.16,-171 1051.27,-162.54 1075.05,-129 1084.05,-116.32 1081.94,-98.38 1078.22,-84.81"/>
<polygon fill="#63b8ff" stroke="#63b8ff" points="1081.67,-84.1 1075.25,-75.68 1075.02,-86.27 1081.67,-84.1"/>
</g>
<!-- Node27&#45;&gt;Node7 -->
<g id="edge48" class="edge">
<title>Node27&#45;&gt;Node7</title>
<path fill="none" stroke="#63b8ff" d="M1043.74,-54.51C1015.42,-45.19 971.2,-30.63 941.46,-20.84"/>
<polygon fill="#63b8ff" stroke="#63b8ff" points="942.86,-17.61 932.26,-17.81 940.67,-24.26 942.86,-17.61"/>
</g>
<!-- Node28&#45;&gt;Node12 -->
<g id="edge52" class="edge">
<title>Node28&#45;&gt;Node12</title>
<path fill="none" stroke="#63b8ff" d="M336.8,-340.51C324.18,-332.54 305.49,-320.75 290.64,-311.38"/>
<polygon fill="#63b8ff" stroke="#63b8ff" points="292.7,-308.54 282.37,-306.17 288.96,-314.46 292.7,-308.54"/>
</g>
<!-- Node28&#45;&gt;Node13 -->
<g id="edge54" class="edge">
<title>Node28&#45;&gt;Node13</title>
<path fill="none" stroke="#63b8ff" d="M347.41,-340.52C333.69,-306.75 284.99,-186.84 265.86,-139.72"/>
<polygon fill="#63b8ff" stroke="#63b8ff" points="269.15,-138.52 262.14,-130.57 262.66,-141.15 269.15,-138.52"/>
</g>
<!-- Node28&#45;&gt;Node15 -->
<g id="edge55" class="edge">
<title>Node28&#45;&gt;Node15</title>
<path fill="none" stroke="#63b8ff" d="M367.68,-340.51C382.83,-332.31 405.47,-320.07 423.02,-310.58"/>
<polygon fill="#63b8ff" stroke="#63b8ff" points="424.21,-313.91 431.34,-306.08 420.88,-307.76 424.21,-313.91"/>
</g>
<!-- Node28&#45;&gt;Node21 -->
<g id="edge53" class="edge">
<title>Node28&#45;&gt;Node21</title>
<path fill="none" stroke="#63b8ff" d="M350.43,-340.52C348.08,-306.96 339.79,-188.36 336.46,-140.63"/>
<polygon fill="#63b8ff" stroke="#63b8ff" points="339.95,-140.41 335.76,-130.68 332.97,-140.9 339.95,-140.41"/>
</g>
<!-- Node29&#45;&gt;Node8 -->
<g id="edge57" class="edge">
<title>Node29&#45;&gt;Node8</title>
<path fill="none" stroke="#63b8ff" d="M120.83,-340.56C128.47,-321.64 145.05,-275.98 145.05,-236 145.05,-236 145.05,-236 145.05,-173.5 145.05,-131.5 176.71,-127.15 215.05,-110 279.47,-81.18 483.2,-70.6 582.94,-67.08"/>
<polygon fill="#63b8ff" stroke="#63b8ff" points="582.89,-70.59 592.77,-66.75 582.65,-63.59 582.89,-70.59"/>
</g>
<!-- Node29&#45;&gt;Node12 -->
<g id="edge59" class="edge">
<title>Node29&#45;&gt;Node12</title>
<path fill="none" stroke="#63b8ff" d="M142.5,-340.51C169.24,-331.06 211.19,-316.24 238.91,-306.44"/>
<polygon fill="#63b8ff" stroke="#63b8ff" points="239.78,-309.85 248.05,-303.22 237.45,-303.25 239.78,-309.85"/>
</g>
<!-- Node29&#45;&gt;Node17 -->
<g id="edge58" class="edge">
<title>Node29&#45;&gt;Node17</title>
<path fill="none" stroke="#63b8ff" d="M99.06,-340.57C86.12,-333.05 69.67,-320.96 62.05,-305 30.13,-238.12 -91.45,-290.02 131.05,-110 148.03,-96.26 279.96,-79.3 352.92,-70.83"/>
<polygon fill="#63b8ff" stroke="#63b8ff" points="353.06,-74.34 362.59,-69.72 352.26,-67.38 353.06,-74.34"/>
</g>
<!-- Node30 -->
<g id="node30" class="node">
<title>Node30</title>
<g id="a_node30"><a xlink:title=" ">
<polygon fill="#e0e0e0" stroke="#999999" points="117.05,-305 71.05,-305 71.05,-286 117.05,-286 117.05,-305"/>
<text text-anchor="middle" x="94.05" y="-293" font-family="Helvetica,sans-Serif" font-size="10.00">ranges</text>
</a>
</g>
</g>
<!-- Node29&#45;&gt;Node30 -->
<g id="edge60" class="edge">
<title>Node29&#45;&gt;Node30</title>
<path fill="none" stroke="#63b8ff" d="M113.25,-340.75C110.31,-333.96 106.12,-324.3 102.4,-315.73"/>
<polygon fill="#63b8ff" stroke="#63b8ff" points="105.73,-314.61 98.54,-306.83 99.31,-317.4 105.73,-314.61"/>
</g>
</g>
</svg>
        <g id="navigator" transform="translate(0 0)" fill="#404254">
                <rect fill="#f2f5e9" fill-opacity="0.5" stroke="#606060" stroke-width=".5" x="0" y="0" width="60" height="60"/>
                <use id="zoomplus" xlink:href="#zoomPlus" x="17" y="9" onmousedown="handleZoom(evt,'in')"/>
                <use id="zoomminus" xlink:href="#zoomMin" x="42" y="9" onmousedown="handleZoom(evt,'out')"/>
                <use id="reset" xlink:href="#resetDef" x="30" y="36" onmousedown="handleReset()"/>
                <g id="arrowUp" xlink:href="#dirArrow" transform="translate(30 24)" onmousedown="handlePan(0,-1)">
                  <use xlink:href="#rim" fill="#404040">
                        <set attributeName="fill" to="#808080" begin="arrowUp.mouseover" end="arrowUp.mouseout"/>
                  </use>
                  <path fill="none" stroke="white" stroke-width="1.5" d="M0,-3.0v7 M-2.5,-0.5L0,-3.0L2.5,-0.5"/>
                </g>
                <g id="arrowRight" xlink:href="#dirArrow" transform="rotate(90) translate(36 -43)" onmousedown="handlePan(1,0)">
                  <use xlink:href="#rim" fill="#404040">
                        <set attributeName="fill" to="#808080" begin="arrowRight.mouseover" end="arrowRight.mouseout"/>
                  </use>
                  <path fill="none" stroke="white" stroke-width="1.5" d="M0,-3.0v7 M-2.5,-0.5L0,-3.0L2.5,-0.5"/>
                </g>
                <g id="arrowDown" xlink:href="#dirArrow" transform="rotate(180) translate(-30 -48)" onmousedown="handlePan(0,1)">
                  <use xlink:href="#rim" fill="#404040">
                        <set attributeName="fill" to="#808080" begin="arrowDown.mouseover" end="arrowDown.mouseout"/>
                  </use>
                  <path fill="none" stroke="white" stroke-width="1.5" d="M0,-3.0v7 M-2.5,-0.5L0,-3.0L2.5,-0.5"/>
                </g>
                <g id="arrowLeft" xlink:href="#dirArrow" transform="rotate(270) translate(-36 17)" onmousedown="handlePan(-1,0)">
                  <use xlink:href="#rim" fill="#404040">
                        <set attributeName="fill" to="#808080" begin="arrowLeft.mouseover" end="arrowLeft.mouseout"/>
                  </use>
                  <path fill="none" stroke="white" stroke-width="1.5" d="M0,-3.0v7 M-2.5,-0.5L0,-3.0L2.5,-0.5"/>
                </g>
        </g>
        <svg viewBox="0 0 15 15" width="100%" height="30px" preserveAspectRatio="xMaxYMin meet">
         <g id="arrow_out" transform="scale(0.3 0.3)">
          <a xlink:href="main_8cpp__incl_org.svg" target="_base">
           <rect id="button" ry="5" rx="5" y="6" x="6" height="38" width="38"
                fill="#f2f5e9" fill-opacity="0.5" stroke="#606060" stroke-width="1.0"/>
           <path id="arrow"
             d="M 11.500037,31.436501 C 11.940474,20.09759 22.043105,11.32322 32.158766,21.979434 L 37.068811,17.246167 C 37.068811,17.246167 37.088388,32 37.088388,32 L 22.160133,31.978069 C 22.160133,31.978069 26.997745,27.140456 26.997745,27.140456 C 18.528582,18.264221 13.291696,25.230495 11.500037,31.436501 z"
             style="fill:#404040;"/>
          </a>
         </g>
        </svg>
</svg>
