<?xml version="1.0" encoding="UTF-8" standalone="no"?>
<!DOCTYPE svg PUBLIC "-//W3C//DTD SVG 1.1//EN"
 "http://www.w3.org/Graphics/SVG/1.1/DTD/svg11.dtd">
<!-- Generated by graphviz version 7.1.0 (20230121.1956)
 -->
<!-- Title: src/main.cpp Pages: 1 -->
<!--zoomable 533 -->
<svg id="main" version="1.1" xmlns="http://www.w3.org/2000/svg" xmlns:xlink="http://www.w3.org/1999/xlink" xml:space="preserve" onload="init(evt)">
<style type="text/css"><![CDATA[
.edge:hover path { stroke: red; }
.edge:hover polygon { stroke: red; fill: red; }
]]></style>
<script type="text/javascript"><![CDATA[
var edges = document.getElementsByTagName('g');
if (edges && edges.length) {
  for (var i=0;i<edges.length;i++) {
    if (edges[i].id.substr(0,4)=='edge') {
      edges[i].setAttribute('class','edge');
    }
  }
}
]]></script>
        <defs>
                <circle id="rim" cx="0" cy="0" r="7"/>
                <circle id="rim2" cx="0" cy="0" r="3.5"/>
                <g id="zoomPlus">
                        <use xlink:href="#rim" fill="#404040">
                                <set attributeName="fill" to="#808080" begin="zoomplus.mouseover" end="zoomplus.mouseout"/>
                        </use>
                        <path d="M-4,0h8M0,-4v8" fill="none" stroke="white" stroke-width="1.5" pointer-events="none"/>
                </g>
                <g id="zoomMin">
                        <use xlink:href="#rim" fill="#404040">
                                <set attributeName="fill" to="#808080" begin="zoomminus.mouseover" end="zoomminus.mouseout"/>
                        </use>
                        <path d="M-4,0h8" fill="none" stroke="white" stroke-width="1.5" pointer-events="none"/>
                </g>
                <g id="dirArrow">
                        <path fill="none" stroke="white" stroke-width="1.5" d="M0,-3.0v7 M-2.5,-0.5L0,-3.0L2.5,-0.5"/>
                </g>
               <g id="resetDef">
                       <use xlink:href="#rim2" fill="#404040">
                               <set attributeName="fill" to="#808080" begin="reset.mouseover" end="reset.mouseout"/>
                       </use>
               </g>
        </defs>

<script type="text/javascript">
var viewWidth = 1100;
var viewHeight = 533;
var sectionId = 'dynsection-0';
</script>
<script xlink:href="svgpan.js"/>
<svg id="graph" class="graph">
<g id="viewport">
<title>src/main.cpp</title>
<!-- Node1 -->
<g id="node1" class="node">
<title>Node1</title>
<g id="a_node1"><a xlink:title=" ">
<polygon fill="#999999" stroke="#666666" points="476.5,-525 403.5,-525 403.5,-506 476.5,-506 476.5,-525"/>
<text text-anchor="middle" x="440" y="-513" font-family="Helvetica,sans-Serif" font-size="10.00">src/main.cpp</text>
</a>
</g>
</g>
<!-- Node2 -->
<g id="node2" class="node">
<title>Node2</title>
<g id="a_node2"><a xlink:title=" ">
<polygon fill="#e0e0e0" stroke="#999999" points="84,-19 30,-19 30,0 84,0 84,-19"/>
<text text-anchor="middle" x="57" y="-7" font-family="Helvetica,sans-Serif" font-size="10.00">iostream</text>
</a>
</g>
</g>
<!-- Node1&#45;&gt;Node2 -->
<g id="edge1" class="edge">
<title>Node1&#45;&gt;Node2</title>
<path fill="none" stroke="#63b8ff" d="M403.24,-513.32C297.49,-508.95 0,-489.29 0,-406.5 0,-406.5 0,-406.5 0,-118.5 0,-83.18 24.14,-48.09 41.01,-27.89"/>
<polygon fill="#63b8ff" stroke="#63b8ff" points="43.42,-30.45 47.35,-20.61 38.14,-25.85 43.42,-30.45"/>
</g>
<!-- Node3 -->
<g id="node3" class="node">
<title>Node3</title>
<g id="a_node3"><a xlink:title=" ">
<polygon fill="#e0e0e0" stroke="#999999" points="404.5,-470 273.5,-470 273.5,-451 404.5,-451 404.5,-470"/>
<text text-anchor="middle" x="339" y="-458" font-family="Helvetica,sans-Serif" font-size="10.00">catch2/catch_session.hpp</text>
</a>
</g>
</g>
<!-- Node1&#45;&gt;Node3 -->
<g id="edge2" class="edge">
<title>Node1&#45;&gt;Node3</title>
<path fill="none" stroke="#63b8ff" d="M422.87,-505.51C407.25,-497.31 383.92,-485.07 365.83,-475.58"/>
<polygon fill="#63b8ff" stroke="#63b8ff" points="367.7,-472.61 357.22,-471.06 364.45,-478.81 367.7,-472.61"/>
</g>
<!-- Node4 -->
<g id="node4" class="node">
<title>Node4</title>
<g id="a_node4"><a xlink:title=" ">
<polygon fill="#e0e0e0" stroke="#999999" points="498,-415 428,-415 428,-396 498,-396 498,-415"/>
<text text-anchor="middle" x="463" y="-403" font-family="Helvetica,sans-Serif" font-size="10.00">lyra/lyra.hpp</text>
</a>
</g>
</g>
<!-- Node1&#45;&gt;Node4 -->
<g id="edge3" class="edge">
<title>Node1&#45;&gt;Node4</title>
<path fill="none" stroke="#63b8ff" d="M447.4,-505.65C454.01,-497.13 463.2,-483.58 467,-470 470.97,-455.8 469.71,-439.14 467.6,-426.45"/>
<polygon fill="#63b8ff" stroke="#63b8ff" points="471.06,-425.92 465.66,-416.8 464.2,-427.3 471.06,-425.92"/>
</g>
<!-- Node5 -->
<g id="node5" class="node">
<title>Node5</title>
<g id="a_node5"><a xlink:href="cli_8h.html" target="_top" xlink:title=" ">
<polygon fill="white" stroke="#666666" points="457.5,-470 422.5,-470 422.5,-451 457.5,-451 457.5,-470"/>
<text text-anchor="middle" x="440" y="-458" font-family="Helvetica,sans-Serif" font-size="10.00">cli.h</text>
</a>
</g>
</g>
<!-- Node1&#45;&gt;Node5 -->
<g id="edge4" class="edge">
<title>Node1&#45;&gt;Node5</title>
<path fill="none" stroke="#63b8ff" d="M440,-505.75C440,-499.27 440,-490.16 440,-481.9"/>
<polygon fill="#63b8ff" stroke="#63b8ff" points="443.5,-481.96 440,-471.96 436.5,-481.96 443.5,-481.96"/>
</g>
<!-- Node6 -->
<g id="node6" class="node">
<title>Node6</title>
<g id="a_node6"><a xlink:href="execution_8h.html" target="_top" xlink:title=" ">
<polygon fill="white" stroke="#666666" points="978.5,-470 889.5,-470 889.5,-451 978.5,-451 978.5,-470"/>
<text text-anchor="middle" x="934" y="-458" font-family="Helvetica,sans-Serif" font-size="10.00">core/execution.h</text>
</a>
</g>
</g>
<!-- Node1&#45;&gt;Node6 -->
<g id="edge6" class="edge">
<title>Node1&#45;&gt;Node6</title>
<path fill="none" stroke="#63b8ff" d="M476.73,-510.56C562.42,-501.37 776.02,-478.45 878.04,-467.5"/>
<polygon fill="#63b8ff" stroke="#63b8ff" points="878.25,-471 887.82,-466.45 877.5,-464.04 878.25,-471"/>
</g>
<!-- Node5&#45;&gt;Node4 -->
<g id="edge5" class="edge">
<title>Node5&#45;&gt;Node4</title>
<path fill="none" stroke="#63b8ff" d="M443.8,-450.75C446.74,-443.96 450.94,-434.3 454.65,-425.73"/>
<polygon fill="#63b8ff" stroke="#63b8ff" points="457.75,-427.4 458.52,-416.83 451.33,-424.61 457.75,-427.4"/>
</g>
<!-- Node7 -->
<g id="node7" class="node">
<title>Node7</title>
<g id="a_node7"><a xlink:title=" ">
<polygon fill="#e0e0e0" stroke="#999999" points="972.5,-19 931.5,-19 931.5,0 972.5,0 972.5,-19"/>
<text text-anchor="middle" x="952" y="-7" font-family="Helvetica,sans-Serif" font-size="10.00">string</text>
</a>
</g>
</g>
<!-- Node6&#45;&gt;Node7 -->
<g id="edge7" class="edge">
<title>Node6&#45;&gt;Node7</title>
<path fill="none" stroke="#63b8ff" d="M974.28,-450.59C1021.09,-437.59 1092,-408.48 1092,-351.5 1092,-351.5 1092,-351.5 1092,-118.5 1092,-64.21 1025.17,-33.38 983.86,-19.51"/>
<polygon fill="#63b8ff" stroke="#63b8ff" points="984.99,-16.2 974.4,-16.51 982.87,-22.87 984.99,-16.2"/>
</g>
<!-- Node8 -->
<g id="node8" class="node">
<title>Node8</title>
<g id="a_node8"><a xlink:href="datatypes_8h.html" target="_top" xlink:title=" ">
<polygon fill="white" stroke="#666666" points="789,-74 721,-74 721,-55 789,-55 789,-74"/>
<text text-anchor="middle" x="755" y="-62" font-family="Helvetica,sans-Serif" font-size="10.00">datatypes.h</text>
</a>
</g>
</g>
<!-- Node6&#45;&gt;Node8 -->
<g id="edge8" class="edge">
<title>Node6&#45;&gt;Node8</title>
<path fill="none" stroke="#63b8ff" d="M958,-450.55C993.01,-435.76 1054,-402.65 1054,-351.5 1054,-351.5 1054,-351.5 1054,-234 1054,-119.04 884.19,-81.66 800.51,-70.21"/>
<polygon fill="#63b8ff" stroke="#63b8ff" points="801.17,-66.77 790.8,-68.96 800.27,-73.71 801.17,-66.77"/>
</g>
<!-- Node11 -->
<g id="node11" class="node">
<title>Node11</title>
<g id="a_node11"><a xlink:href="symbol__table_8h.html" target="_top" xlink:title=" ">
<polygon fill="white" stroke="#666666" points="861.5,-415 778.5,-415 778.5,-396 861.5,-396 861.5,-415"/>
<text text-anchor="middle" x="820" y="-403" font-family="Helvetica,sans-Serif" font-size="10.00">symbol_table.h</text>
</a>
</g>
</g>
<!-- Node6&#45;&gt;Node11 -->
<g id="edge12" class="edge">
<title>Node6&#45;&gt;Node11</title>
<path fill="none" stroke="#63b8ff" d="M914.66,-450.51C896.78,-442.2 869.96,-429.73 849.43,-420.18"/>
<polygon fill="#63b8ff" stroke="#63b8ff" points="850.97,-417.04 840.43,-416 848.02,-423.39 850.97,-417.04"/>
</g>
<!-- Node8&#45;&gt;Node7 -->
<g id="edge10" class="edge">
<title>Node8&#45;&gt;Node7</title>
<path fill="none" stroke="#63b8ff" d="M788.42,-54.51C825.27,-44.6 884.11,-28.76 920.27,-19.04"/>
<polygon fill="#63b8ff" stroke="#63b8ff" points="920.95,-22.48 929.69,-16.5 919.13,-15.72 920.95,-22.48"/>
</g>
<!-- Node9 -->
<g id="node9" class="node">
<title>Node9</title>
<g id="a_node9"><a xlink:title=" ">
<polygon fill="#e0e0e0" stroke="#999999" points="810,-19 766,-19 766,0 810,0 810,-19"/>
<text text-anchor="middle" x="788" y="-7" font-family="Helvetica,sans-Serif" font-size="10.00">vector</text>
</a>
</g>
</g>
<!-- Node8&#45;&gt;Node9 -->
<g id="edge9" class="edge">
<title>Node8&#45;&gt;Node9</title>
<path fill="none" stroke="#63b8ff" d="M760.45,-54.75C764.77,-47.81 770.96,-37.86 776.38,-29.16"/>
<polygon fill="#63b8ff" stroke="#63b8ff" points="779.32,-31.07 781.63,-20.73 773.38,-27.37 779.32,-31.07"/>
</g>
<!-- Node10 -->
<g id="node10" class="node">
<title>Node10</title>
<g id="a_node10"><a xlink:title=" ">
<polygon fill="#e0e0e0" stroke="#999999" points="747.5,-19 694.5,-19 694.5,0 747.5,0 747.5,-19"/>
<text text-anchor="middle" x="721" y="-7" font-family="Helvetica,sans-Serif" font-size="10.00">complex</text>
</a>
</g>
</g>
<!-- Node8&#45;&gt;Node10 -->
<g id="edge11" class="edge">
<title>Node8&#45;&gt;Node10</title>
<path fill="none" stroke="#63b8ff" d="M749.39,-54.75C744.88,-47.73 738.41,-37.64 732.79,-28.87"/>
<polygon fill="#63b8ff" stroke="#63b8ff" points="735.9,-27.24 727.55,-20.72 730.01,-31.02 735.9,-27.24"/>
</g>
<!-- Node11&#45;&gt;Node7 -->
<g id="edge14" class="edge">
<title>Node11&#45;&gt;Node7</title>
<path fill="none" stroke="#63b8ff" d="M861.57,-400.09C919.1,-391.42 1016,-366.43 1016,-296.5 1016,-296.5 1016,-296.5 1016,-234 1016,-155.36 978.93,-66.96 961.21,-29.21"/>
<polygon fill="#63b8ff" stroke="#63b8ff" points="964.54,-28.05 957.05,-20.55 958.23,-31.08 964.54,-28.05"/>
</g>
<!-- Node12 -->
<g id="node12" class="node">
<title>Node12</title>
<g id="a_node12"><a xlink:title=" ">
<polygon fill="#e0e0e0" stroke="#999999" points="672.5,-305 637.5,-305 637.5,-286 672.5,-286 672.5,-305"/>
<text text-anchor="middle" x="655" y="-293" font-family="Helvetica,sans-Serif" font-size="10.00">map</text>
</a>
</g>
</g>
<!-- Node11&#45;&gt;Node12 -->
<g id="edge13" class="edge">
<title>Node11&#45;&gt;Node12</title>
<path fill="none" stroke="#63b8ff" d="M806.5,-395.66C778.34,-377.23 713.06,-334.5 678.09,-311.62"/>
<polygon fill="#63b8ff" stroke="#63b8ff" points="680.24,-308.84 669.96,-306.29 676.41,-314.69 680.24,-308.84"/>
</g>
<!-- Node13 -->
<g id="node13" class="node">
<title>Node13</title>
<g id="a_node13"><a xlink:href="array_8h.html" target="_top" xlink:title=" ">
<polygon fill="white" stroke="#666666" points="921.5,-129 854.5,-129 854.5,-110 921.5,-110 921.5,-129"/>
<text text-anchor="middle" x="888" y="-117" font-family="Helvetica,sans-Serif" font-size="10.00">core/array.h</text>
</a>
</g>
</g>
<!-- Node11&#45;&gt;Node13 -->
<g id="edge15" class="edge">
<title>Node11&#45;&gt;Node13</title>
<path fill="none" stroke="#63b8ff" d="M860.28,-395.59C907.09,-382.59 978,-353.48 978,-296.5 978,-296.5 978,-296.5 978,-234 978,-191.22 938.26,-155.18 911.59,-135.81"/>
<polygon fill="#63b8ff" stroke="#63b8ff" points="913.91,-133.16 903.7,-130.31 909.91,-138.9 913.91,-133.16"/>
</g>
<!-- Node15 -->
<g id="node15" class="node">
<title>Node15</title>
<g id="a_node15"><a xlink:href="ast_8h.html" target="_top" xlink:title=" ">
<polygon fill="white" stroke="#666666" points="797.5,-305 690.5,-305 690.5,-286 797.5,-286 797.5,-305"/>
<text text-anchor="middle" x="744" y="-293" font-family="Helvetica,sans-Serif" font-size="10.00">core/evaluation/ast.h</text>
</a>
</g>
</g>
<!-- Node11&#45;&gt;Node15 -->
<g id="edge18" class="edge">
<title>Node11&#45;&gt;Node15</title>
<path fill="none" stroke="#63b8ff" d="M811.95,-395.6C804.18,-386.83 792.25,-372.9 783,-360 772.51,-345.38 761.91,-327.91 754.41,-314.99"/>
<polygon fill="#63b8ff" stroke="#63b8ff" points="757.67,-313.64 749.67,-306.69 751.6,-317.11 757.67,-313.64"/>
</g>
<!-- Node25 -->
<g id="node25" class="node">
<title>Node25</title>
<g id="a_node25"><a xlink:href="error_8h.html" target="_top" xlink:title=" ">
<polygon fill="white" stroke="#666666" points="244,-184 200,-184 200,-165 244,-165 244,-184"/>
<text text-anchor="middle" x="222" y="-172" font-family="Helvetica,sans-Serif" font-size="10.00">error.h</text>
</a>
</g>
</g>
<!-- Node11&#45;&gt;Node25 -->
<g id="edge43" class="edge">
<title>Node11&#45;&gt;Node25</title>
<path fill="none" stroke="#63b8ff" d="M796.56,-395.52C703.85,-360.02 362.66,-229.36 254.87,-188.09"/>
<polygon fill="#63b8ff" stroke="#63b8ff" points="256.32,-184.9 245.73,-184.59 253.82,-191.43 256.32,-184.9"/>
</g>
<!-- Node28 -->
<g id="node28" class="node">
<title>Node28</title>
<g id="a_node28"><a xlink:href="symbol_8h.html" target="_top" xlink:title=" ">
<polygon fill="white" stroke="#666666" points="848,-360 792,-360 792,-341 848,-341 848,-360"/>
<text text-anchor="middle" x="820" y="-348" font-family="Helvetica,sans-Serif" font-size="10.00">symbol.h</text>
</a>
</g>
</g>
<!-- Node11&#45;&gt;Node28 -->
<g id="edge51" class="edge">
<title>Node11&#45;&gt;Node28</title>
<path fill="none" stroke="#63b8ff" d="M820,-395.75C820,-389.27 820,-380.16 820,-371.9"/>
<polygon fill="#63b8ff" stroke="#63b8ff" points="823.5,-371.96 820,-361.96 816.5,-371.96 823.5,-371.96"/>
</g>
<!-- Node13&#45;&gt;Node8 -->
<g id="edge16" class="edge">
<title>Node13&#45;&gt;Node8</title>
<path fill="none" stroke="#63b8ff" d="M865.44,-109.51C844.1,-101.01 811.84,-88.15 787.69,-78.53"/>
<polygon fill="#63b8ff" stroke="#63b8ff" points="789.22,-75.37 778.63,-74.92 786.63,-81.87 789.22,-75.37"/>
</g>
<!-- Node14 -->
<g id="node14" class="node">
<title>Node14</title>
<g id="a_node14"><a xlink:title=" ">
<polygon fill="#e0e0e0" stroke="#999999" points="911,-74 865,-74 865,-55 911,-55 911,-74"/>
<text text-anchor="middle" x="888" y="-62" font-family="Helvetica,sans-Serif" font-size="10.00">variant</text>
</a>
</g>
</g>
<!-- Node13&#45;&gt;Node14 -->
<g id="edge17" class="edge">
<title>Node13&#45;&gt;Node14</title>
<path fill="none" stroke="#63b8ff" d="M888,-109.75C888,-103.27 888,-94.16 888,-85.9"/>
<polygon fill="#63b8ff" stroke="#63b8ff" points="891.5,-85.96 888,-75.96 884.5,-85.96 891.5,-85.96"/>
</g>
<!-- Node15&#45;&gt;Node2 -->
<g id="edge20" class="edge">
<title>Node15&#45;&gt;Node2</title>
<path fill="none" stroke="#63b8ff" d="M690.07,-286.83C525.03,-263.19 38,-192.02 38,-175.5 38,-175.5 38,-175.5 38,-118.5 38,-87.31 45.78,-51.8 51.39,-30.28"/>
<polygon fill="#63b8ff" stroke="#63b8ff" points="54.71,-31.4 53.96,-20.83 47.96,-29.56 54.71,-31.4"/>
</g>
<!-- Node15&#45;&gt;Node7 -->
<g id="edge19" class="edge">
<title>Node15&#45;&gt;Node7</title>
<path fill="none" stroke="#63b8ff" d="M765.78,-285.51C783.34,-277.66 808.13,-265.15 827,-250 882.3,-205.61 900.62,-193.08 931,-129 946.25,-96.83 950.5,-54.99 951.64,-30.61"/>
<polygon fill="#63b8ff" stroke="#63b8ff" points="955.13,-30.92 951.95,-20.82 948.14,-30.7 955.13,-30.92"/>
</g>
<!-- Node15&#45;&gt;Node8 -->
<g id="edge35" class="edge">
<title>Node15&#45;&gt;Node8</title>
<path fill="none" stroke="#63b8ff" d="M749.74,-285.58C755.22,-276.79 763.44,-262.85 769,-250 791.37,-198.26 798.46,-184.72 807,-129 808.28,-120.65 810.53,-117.67 807,-110 801.5,-98.06 791.04,-88.13 780.94,-80.7"/>
<polygon fill="#63b8ff" stroke="#63b8ff" points="783.04,-77.89 772.79,-75.21 779.12,-83.7 783.04,-77.89"/>
</g>
<!-- Node15&#45;&gt;Node13 -->
<g id="edge21" class="edge">
<title>Node15&#45;&gt;Node13</title>
<path fill="none" stroke="#63b8ff" d="M757.93,-285.74C770.38,-277.49 788.66,-264.28 802,-250 834.88,-214.79 863.72,-165.72 878.17,-139.24"/>
<polygon fill="#63b8ff" stroke="#63b8ff" points="881.1,-141.18 882.73,-130.71 874.93,-137.88 881.1,-141.18"/>
</g>
<!-- Node16 -->
<g id="node16" class="node">
<title>Node16</title>
<g id="a_node16"><a xlink:href="token_8h.html" target="_top" xlink:title=" ">
<polygon fill="white" stroke="#666666" points="656.5,-184 585.5,-184 585.5,-165 656.5,-165 656.5,-184"/>
<text text-anchor="middle" x="621" y="-172" font-family="Helvetica,sans-Serif" font-size="10.00">core/token.h</text>
</a>
</g>
</g>
<!-- Node15&#45;&gt;Node16 -->
<g id="edge22" class="edge">
<title>Node15&#45;&gt;Node16</title>
<path fill="none" stroke="#63b8ff" d="M704.5,-285.55C672.12,-277.32 630.04,-264.26 620,-250 608.85,-234.15 611.09,-211.34 614.87,-195.14"/>
<polygon fill="#63b8ff" stroke="#63b8ff" points="618.18,-196.3 617.46,-185.73 611.43,-194.44 618.18,-196.3"/>
</g>
<!-- Node22 -->
<g id="node22" class="node">
<title>Node22</title>
<g id="a_node22"><a xlink:href="position_8h.html" target="_top" xlink:title=" ">
<polygon fill="white" stroke="#666666" points="469.5,-129 410.5,-129 410.5,-110 469.5,-110 469.5,-129"/>
<text text-anchor="middle" x="440" y="-117" font-family="Helvetica,sans-Serif" font-size="10.00">position.h</text>
</a>
</g>
</g>
<!-- Node15&#45;&gt;Node22 -->
<g id="edge42" class="edge">
<title>Node15&#45;&gt;Node22</title>
<path fill="none" stroke="#63b8ff" d="M697.68,-285.54C653.84,-276.54 591.62,-262.29 570,-250 518.94,-220.97 474,-166.59 452.85,-138.43"/>
<polygon fill="#63b8ff" stroke="#63b8ff" points="455.8,-136.54 447.06,-130.55 450.16,-140.69 455.8,-136.54"/>
</g>
<!-- Node23 -->
<g id="node23" class="node">
<title>Node23</title>
<g id="a_node23"><a xlink:title=" ">
<polygon fill="#e0e0e0" stroke="#999999" points="567,-184 515,-184 515,-165 567,-165 567,-184"/>
<text text-anchor="middle" x="541" y="-172" font-family="Helvetica,sans-Serif" font-size="10.00">memory</text>
</a>
</g>
</g>
<!-- Node15&#45;&gt;Node23 -->
<g id="edge36" class="edge">
<title>Node15&#45;&gt;Node23</title>
<path fill="none" stroke="#63b8ff" d="M696.23,-285.56C668.56,-278.84 633.99,-267.68 607,-250 584.26,-235.1 564.54,-210.37 552.72,-193.53"/>
<polygon fill="#63b8ff" stroke="#63b8ff" points="555.77,-191.79 547.27,-185.47 549.97,-195.71 555.77,-191.79"/>
</g>
<!-- Node24 -->
<g id="node24" class="node">
<title>Node24</title>
<g id="a_node24"><a xlink:href="operation_8h.html" target="_top" xlink:title=" ">
<polygon fill="white" stroke="#666666" points="759.5,-250 628.5,-250 628.5,-220 759.5,-220 759.5,-250"/>
<text text-anchor="start" x="636.5" y="-238" font-family="Helvetica,sans-Serif" font-size="10.00">core/evaluation/operations</text>
<text text-anchor="middle" x="694" y="-227" font-family="Helvetica,sans-Serif" font-size="10.00">/operation.h</text>
</a>
</g>
</g>
<!-- Node15&#45;&gt;Node24 -->
<g id="edge37" class="edge">
<title>Node15&#45;&gt;Node24</title>
<path fill="none" stroke="#63b8ff" d="M736.62,-285.87C730.53,-278.74 721.59,-268.28 713.48,-258.79"/>
<polygon fill="#63b8ff" stroke="#63b8ff" points="716.2,-256.59 707.05,-251.27 710.88,-261.14 716.2,-256.59"/>
</g>
<!-- Node16&#45;&gt;Node8 -->
<g id="edge25" class="edge">
<title>Node16&#45;&gt;Node8</title>
<path fill="none" stroke="#63b8ff" d="M631.97,-164.66C654.54,-146.47 706.49,-104.6 735.14,-81.51"/>
<polygon fill="#63b8ff" stroke="#63b8ff" points="737.11,-84.41 742.7,-75.41 732.72,-78.96 737.11,-84.41"/>
</g>
<!-- Node16&#45;&gt;Node13 -->
<g id="edge27" class="edge">
<title>Node16&#45;&gt;Node13</title>
<path fill="none" stroke="#63b8ff" d="M656.73,-166.41C704.92,-156.84 790.73,-139.81 843.19,-129.4"/>
<polygon fill="#63b8ff" stroke="#63b8ff" points="843.55,-132.89 852.68,-127.51 842.19,-126.03 843.55,-132.89"/>
</g>
<!-- Node17 -->
<g id="node17" class="node">
<title>Node17</title>
<g id="a_node17"><a xlink:href="token__type_8h.html" target="_top" xlink:title=" ">
<polygon fill="white" stroke="#666666" points="534.5,-74 461.5,-74 461.5,-55 534.5,-55 534.5,-74"/>
<text text-anchor="middle" x="498" y="-62" font-family="Helvetica,sans-Serif" font-size="10.00">token_type.h</text>
</a>
</g>
</g>
<!-- Node16&#45;&gt;Node17 -->
<g id="edge23" class="edge">
<title>Node16&#45;&gt;Node17</title>
<path fill="none" stroke="#63b8ff" d="M585.09,-166.33C562.61,-160.07 534.65,-148.78 517,-129 506.32,-117.04 501.64,-99.28 499.59,-85.59"/>
<polygon fill="#63b8ff" stroke="#63b8ff" points="503.1,-85.49 498.52,-75.94 496.14,-86.26 503.1,-85.49"/>
</g>
<!-- Node18 -->
<g id="node18" class="node">
<title>Node18</title>
<g id="a_node18"><a xlink:title=" ">
<polygon fill="#e0e0e0" stroke="#999999" points="333.5,-129 250.5,-129 250.5,-110 333.5,-110 333.5,-129"/>
<text text-anchor="middle" x="292" y="-117" font-family="Helvetica,sans-Serif" font-size="10.00">uni_algo/conv.h</text>
</a>
</g>
</g>
<!-- Node16&#45;&gt;Node18 -->
<g id="edge26" class="edge">
<title>Node16&#45;&gt;Node18</title>
<path fill="none" stroke="#63b8ff" d="M585.16,-166.62C582.06,-166.06 578.98,-165.51 576,-165 476.26,-147.88 448.34,-145.75 345,-129.3"/>
<polygon fill="#63b8ff" stroke="#63b8ff" points="345.66,-125.86 335.24,-127.74 344.56,-132.77 345.66,-125.86"/>
</g>
<!-- Node19 -->
<g id="node19" class="node">
<title>Node19</title>
<g id="a_node19"><a xlink:href="conversion_8h.html" target="_top" xlink:title=" ">
<polygon fill="white" stroke="#666666" points="654,-129 526,-129 526,-110 654,-110 654,-129"/>
<text text-anchor="middle" x="590" y="-117" font-family="Helvetica,sans-Serif" font-size="10.00">core/helpers/conversion.h</text>
</a>
</g>
</g>
<!-- Node16&#45;&gt;Node19 -->
<g id="edge28" class="edge">
<title>Node16&#45;&gt;Node19</title>
<path fill="none" stroke="#63b8ff" d="M615.88,-164.75C611.82,-157.81 606.01,-147.86 600.91,-139.16"/>
<polygon fill="#63b8ff" stroke="#63b8ff" points="604.06,-137.61 595.99,-130.75 598.02,-141.15 604.06,-137.61"/>
</g>
<!-- Node20 -->
<g id="node20" class="node">
<title>Node20</title>
<g id="a_node20"><a xlink:title=" ">
<polygon fill="#e0e0e0" stroke="#999999" points="392,-129 352,-129 352,-110 392,-110 392,-129"/>
<text text-anchor="middle" x="372" y="-117" font-family="Helvetica,sans-Serif" font-size="10.00">utility</text>
</a>
</g>
</g>
<!-- Node16&#45;&gt;Node20 -->
<g id="edge32" class="edge">
<title>Node16&#45;&gt;Node20</title>
<path fill="none" stroke="#63b8ff" d="M585.11,-166.63C536.24,-157.21 450.26,-140.41 403.28,-129.35"/>
<polygon fill="#63b8ff" stroke="#63b8ff" points="404.24,-125.98 393.69,-127.02 402.59,-132.78 404.24,-125.98"/>
</g>
<!-- Node21 -->
<g id="node21" class="node">
<title>Node21</title>
<g id="a_node21"><a xlink:title=" ">
<polygon fill="#e0e0e0" stroke="#999999" points="798,-129 748,-129 748,-110 798,-110 798,-129"/>
<text text-anchor="middle" x="773" y="-117" font-family="Helvetica,sans-Serif" font-size="10.00">optional</text>
</a>
</g>
</g>
<!-- Node16&#45;&gt;Node21 -->
<g id="edge33" class="edge">
<title>Node16&#45;&gt;Node21</title>
<path fill="none" stroke="#63b8ff" d="M646.78,-164.51C671.5,-155.89 709.04,-142.8 736.76,-133.14"/>
<polygon fill="#63b8ff" stroke="#63b8ff" points="737.88,-136.45 746.17,-129.86 735.57,-129.84 737.88,-136.45"/>
</g>
<!-- Node16&#45;&gt;Node22 -->
<g id="edge34" class="edge">
<title>Node16&#45;&gt;Node22</title>
<path fill="none" stroke="#63b8ff" d="M590.3,-164.51C560.12,-155.67 513.89,-142.14 480.67,-132.41"/>
<polygon fill="#63b8ff" stroke="#63b8ff" points="481.98,-129.15 471.4,-129.7 480.02,-135.86 481.98,-129.15"/>
</g>
<!-- Node17&#45;&gt;Node2 -->
<g id="edge24" class="edge">
<title>Node17&#45;&gt;Node2</title>
<path fill="none" stroke="#63b8ff" d="M461.16,-59.07C378.7,-49.16 179.91,-25.27 95.72,-15.15"/>
<polygon fill="#63b8ff" stroke="#63b8ff" points="96.24,-11.69 85.89,-13.97 95.4,-18.64 96.24,-11.69"/>
</g>
<!-- Node19&#45;&gt;Node7 -->
<g id="edge29" class="edge">
<title>Node19&#45;&gt;Node7</title>
<path fill="none" stroke="#63b8ff" d="M603.66,-109.65C625.61,-95.85 670.46,-69.3 712,-55 784.06,-30.19 873.32,-18.28 920.05,-13.38"/>
<polygon fill="#63b8ff" stroke="#63b8ff" points="920.14,-16.89 929.74,-12.41 919.44,-9.93 920.14,-16.89"/>
</g>
<!-- Node19&#45;&gt;Node8 -->
<g id="edge30" class="edge">
<title>Node19&#45;&gt;Node8</title>
<path fill="none" stroke="#63b8ff" d="M617.99,-109.51C645.09,-100.8 686.41,-87.53 716.58,-77.84"/>
<polygon fill="#63b8ff" stroke="#63b8ff" points="717.26,-81.3 725.71,-74.91 715.12,-74.64 717.26,-81.3"/>
</g>
<!-- Node19&#45;&gt;Node17 -->
<g id="edge31" class="edge">
<title>Node19&#45;&gt;Node17</title>
<path fill="none" stroke="#63b8ff" d="M574.39,-109.51C560.3,-101.39 539.31,-89.3 522.9,-79.85"/>
<polygon fill="#63b8ff" stroke="#63b8ff" points="525.1,-77.07 514.69,-75.11 521.61,-83.14 525.1,-77.07"/>
</g>
<!-- Node24&#45;&gt;Node8 -->
<g id="edge38" class="edge">
<title>Node24&#45;&gt;Node8</title>
<path fill="none" stroke="#63b8ff" d="M699.2,-219.63C710.18,-189.31 735.73,-118.74 748.07,-84.63"/>
<polygon fill="#63b8ff" stroke="#63b8ff" points="751.22,-86.23 751.33,-75.64 744.63,-83.85 751.22,-86.23"/>
</g>
<!-- Node24&#45;&gt;Node13 -->
<g id="edge39" class="edge">
<title>Node24&#45;&gt;Node13</title>
<path fill="none" stroke="#63b8ff" d="M718.57,-219.63C755.76,-197.87 825.93,-156.81 863.23,-134.99"/>
<polygon fill="#63b8ff" stroke="#63b8ff" points="864.66,-138.21 871.52,-130.14 861.12,-132.17 864.66,-138.21"/>
</g>
<!-- Node24&#45;&gt;Node16 -->
<g id="edge40" class="edge">
<title>Node24&#45;&gt;Node16</title>
<path fill="none" stroke="#63b8ff" d="M675.96,-219.54C665.24,-210.96 651.66,-200.07 640.67,-191.26"/>
<polygon fill="#63b8ff" stroke="#63b8ff" points="643,-188.64 633.01,-185.12 638.62,-194.11 643,-188.64"/>
</g>
<!-- Node24&#45;&gt;Node23 -->
<g id="edge41" class="edge">
<title>Node24&#45;&gt;Node23</title>
<path fill="none" stroke="#63b8ff" d="M656.18,-219.54C631.28,-210.02 598.95,-197.66 574.89,-188.46"/>
<polygon fill="#63b8ff" stroke="#63b8ff" points="576.14,-185.19 565.55,-184.89 573.64,-191.73 576.14,-185.19"/>
</g>
<!-- Node25&#45;&gt;Node2 -->
<g id="edge44" class="edge">
<title>Node25&#45;&gt;Node2</title>
<path fill="none" stroke="#63b8ff" d="M199.99,-171.69C171.84,-168.22 123.36,-158.13 95,-129 68.7,-101.99 60.6,-56.73 58.1,-30.66"/>
<polygon fill="#63b8ff" stroke="#63b8ff" points="61.6,-30.5 57.37,-20.78 54.62,-31.01 61.6,-30.5"/>
</g>
<!-- Node25&#45;&gt;Node8 -->
<g id="edge49" class="edge">
<title>Node25&#45;&gt;Node8</title>
<path fill="none" stroke="#63b8ff" d="M221.76,-164.88C221.89,-150.91 224.4,-123.51 241,-110 259.06,-95.3 587.22,-75.1 709.54,-68.05"/>
<polygon fill="#63b8ff" stroke="#63b8ff" points="709.42,-71.56 719.21,-67.5 709.02,-64.58 709.42,-71.56"/>
</g>
<!-- Node25&#45;&gt;Node18 -->
<g id="edge50" class="edge">
<title>Node25&#45;&gt;Node18</title>
<path fill="none" stroke="#63b8ff" d="M233.87,-164.51C244.09,-156.77 259.07,-145.43 271.26,-136.2"/>
<polygon fill="#63b8ff" stroke="#63b8ff" points="273.23,-139.1 279.09,-130.27 269.01,-133.52 273.23,-139.1"/>
</g>
<!-- Node25&#45;&gt;Node20 -->
<g id="edge46" class="edge">
<title>Node25&#45;&gt;Node20</title>
<path fill="none" stroke="#63b8ff" d="M244.46,-165.57C270.14,-156.49 312.35,-141.58 341.12,-131.41"/>
<polygon fill="#63b8ff" stroke="#63b8ff" points="342.11,-134.77 350.37,-128.14 339.78,-128.17 342.11,-134.77"/>
</g>
<!-- Node26 -->
<g id="node26" class="node">
<title>Node26</title>
<g id="a_node26"><a xlink:title=" ">
<polygon fill="#e0e0e0" stroke="#999999" points="156,-129 104,-129 104,-110 156,-110 156,-129"/>
<text text-anchor="middle" x="130" y="-117" font-family="Helvetica,sans-Serif" font-size="10.00">sstream</text>
</a>
</g>
</g>
<!-- Node25&#45;&gt;Node26 -->
<g id="edge45" class="edge">
<title>Node25&#45;&gt;Node26</title>
<path fill="none" stroke="#63b8ff" d="M206.39,-164.51C192.3,-156.39 171.31,-144.3 154.9,-134.85"/>
<polygon fill="#63b8ff" stroke="#63b8ff" points="157.1,-132.07 146.69,-130.11 153.61,-138.14 157.1,-132.07"/>
</g>
<!-- Node27 -->
<g id="node27" class="node">
<title>Node27</title>
<g id="a_node27"><a xlink:href="error__type_8h.html" target="_top" xlink:title=" ">
<polygon fill="white" stroke="#666666" points="331,-74 263,-74 263,-55 331,-55 331,-74"/>
<text text-anchor="middle" x="297" y="-62" font-family="Helvetica,sans-Serif" font-size="10.00">error_type.h</text>
</a>
</g>
</g>
<!-- Node25&#45;&gt;Node27 -->
<g id="edge47" class="edge">
<title>Node25&#45;&gt;Node27</title>
<path fill="none" stroke="#63b8ff" d="M216.21,-164.6C208.58,-151.66 197.32,-127.29 208,-110 217.85,-94.06 235.34,-83.64 252.22,-76.92"/>
<polygon fill="#63b8ff" stroke="#63b8ff" points="252.92,-80.38 261.15,-73.71 250.56,-73.8 252.92,-80.38"/>
</g>
<!-- Node27&#45;&gt;Node7 -->
<g id="edge48" class="edge">
<title>Node27&#45;&gt;Node7</title>
<path fill="none" stroke="#63b8ff" d="M331.29,-60.73C445.08,-51.52 809.21,-22.05 919.83,-13.1"/>
<polygon fill="#63b8ff" stroke="#63b8ff" points="919.98,-16.6 929.66,-12.31 919.41,-9.63 919.98,-16.6"/>
</g>
<!-- Node28&#45;&gt;Node12 -->
<g id="edge52" class="edge">
<title>Node28&#45;&gt;Node12</title>
<path fill="none" stroke="#63b8ff" d="M792.01,-340.51C761.84,-330.82 714.08,-315.48 683.66,-305.71"/>
<polygon fill="#63b8ff" stroke="#63b8ff" points="684.95,-302.45 674.36,-302.72 682.81,-309.11 684.95,-302.45"/>
</g>
<!-- Node28&#45;&gt;Node13 -->
<g id="edge54" class="edge">
<title>Node28&#45;&gt;Node13</title>
<path fill="none" stroke="#63b8ff" d="M822.88,-340.57C830.85,-315.79 853.7,-244.1 871,-184 875.21,-169.36 879.66,-152.72 882.94,-140.15"/>
<polygon fill="#63b8ff" stroke="#63b8ff" points="886.29,-141.18 885.41,-130.62 879.51,-139.42 886.29,-141.18"/>
</g>
<!-- Node28&#45;&gt;Node15 -->
<g id="edge55" class="edge">
<title>Node28&#45;&gt;Node15</title>
<path fill="none" stroke="#63b8ff" d="M807.11,-340.51C795.9,-332.7 779.43,-321.21 766.12,-311.93"/>
<polygon fill="#63b8ff" stroke="#63b8ff" points="768.15,-309.07 757.94,-306.22 764.14,-314.81 768.15,-309.07"/>
</g>
<!-- Node28&#45;&gt;Node21 -->
<g id="edge53" class="edge">
<title>Node28&#45;&gt;Node21</title>
<path fill="none" stroke="#63b8ff" d="M818.24,-340.87C815.74,-328.66 811.02,-305.62 807,-286 796.23,-233.47 783.5,-171.57 777.11,-140.47"/>
<polygon fill="#63b8ff" stroke="#63b8ff" points="780.59,-140.04 775.15,-130.95 773.74,-141.45 780.59,-140.04"/>
</g>
</g>
</svg>
        <g id="navigator" transform="translate(0 0)" fill="#404254">
                <rect fill="#f2f5e9" fill-opacity="0.5" stroke="#606060" stroke-width=".5" x="0" y="0" width="60" height="60"/>
                <use id="zoomplus" xlink:href="#zoomPlus" x="17" y="9" onmousedown="handleZoom(evt,'in')"/>
                <use id="zoomminus" xlink:href="#zoomMin" x="42" y="9" onmousedown="handleZoom(evt,'out')"/>
                <use id="reset" xlink:href="#resetDef" x="30" y="36" onmousedown="handleReset()"/>
                <g id="arrowUp" xlink:href="#dirArrow" transform="translate(30 24)" onmousedown="handlePan(0,-1)">
                  <use xlink:href="#rim" fill="#404040">
                        <set attributeName="fill" to="#808080" begin="arrowUp.mouseover" end="arrowUp.mouseout"/>
                  </use>
                  <path fill="none" stroke="white" stroke-width="1.5" d="M0,-3.0v7 M-2.5,-0.5L0,-3.0L2.5,-0.5"/>
                </g>
                <g id="arrowRight" xlink:href="#dirArrow" transform="rotate(90) translate(36 -43)" onmousedown="handlePan(1,0)">
                  <use xlink:href="#rim" fill="#404040">
                        <set attributeName="fill" to="#808080" begin="arrowRight.mouseover" end="arrowRight.mouseout"/>
                  </use>
                  <path fill="none" stroke="white" stroke-width="1.5" d="M0,-3.0v7 M-2.5,-0.5L0,-3.0L2.5,-0.5"/>
                </g>
                <g id="arrowDown" xlink:href="#dirArrow" transform="rotate(180) translate(-30 -48)" onmousedown="handlePan(0,1)">
                  <use xlink:href="#rim" fill="#404040">
                        <set attributeName="fill" to="#808080" begin="arrowDown.mouseover" end="arrowDown.mouseout"/>
                  </use>
                  <path fill="none" stroke="white" stroke-width="1.5" d="M0,-3.0v7 M-2.5,-0.5L0,-3.0L2.5,-0.5"/>
                </g>
                <g id="arrowLeft" xlink:href="#dirArrow" transform="rotate(270) translate(-36 17)" onmousedown="handlePan(-1,0)">
                  <use xlink:href="#rim" fill="#404040">
                        <set attributeName="fill" to="#808080" begin="arrowLeft.mouseover" end="arrowLeft.mouseout"/>
                  </use>
                  <path fill="none" stroke="white" stroke-width="1.5" d="M0,-3.0v7 M-2.5,-0.5L0,-3.0L2.5,-0.5"/>
                </g>
        </g>
        <svg viewBox="0 0 15 15" width="100%" height="30px" preserveAspectRatio="xMaxYMin meet">
         <g id="arrow_out" transform="scale(0.3 0.3)">
          <a xlink:href="main_8cpp__incl_org.svg" target="_base">
           <rect id="button" ry="5" rx="5" y="6" x="6" height="38" width="38"
                fill="#f2f5e9" fill-opacity="0.5" stroke="#606060" stroke-width="1.0"/>
           <path id="arrow"
             d="M 11.500037,31.436501 C 11.940474,20.09759 22.043105,11.32322 32.158766,21.979434 L 37.068811,17.246167 C 37.068811,17.246167 37.088388,32 37.088388,32 L 22.160133,31.978069 C 22.160133,31.978069 26.997745,27.140456 26.997745,27.140456 C 18.528582,18.264221 13.291696,25.230495 11.500037,31.436501 z"
             style="fill:#404040;"/>
          </a>
         </g>
        </svg>
</svg>
