<?xml version="1.0" encoding="UTF-8" standalone="no"?>
<!DOCTYPE svg PUBLIC "-//W3C//DTD SVG 1.1//EN"
 "http://www.w3.org/Graphics/SVG/1.1/DTD/svg11.dtd">
<!-- Generated by graphviz version 7.1.0 (20230121.1956)
 -->
<!-- Title: /Users/nikolajbankejensen/Desktop/Kepler/src/testing/matcher.h Pages: 1 -->
<svg width="1357pt" height="401pt"
 viewBox="0.00 0.00 1356.50 401.00" xmlns="http://www.w3.org/2000/svg" xmlns:xlink="http://www.w3.org/1999/xlink">
<g id="graph0" class="graph" transform="scale(1 1) rotate(0) translate(4 397)">
<title>/Users/nikolajbankejensen/Desktop/Kepler/src/testing/matcher.h</title>
<!-- Node1 -->
<g id="node1" class="node">
<title>Node1</title>
<g id="a_node1"><a xlink:title=" ">
<polygon fill="#999999" stroke="#666666" points="578.5,-393 442.5,-393 442.5,-352 578.5,-352 578.5,-393"/>
<text text-anchor="start" x="450.5" y="-381" font-family="Helvetica,sans-Serif" font-size="10.00">/Users/nikolajbankejensen</text>
<text text-anchor="start" x="450.5" y="-370" font-family="Helvetica,sans-Serif" font-size="10.00">/Desktop/Kepler/src/testing</text>
<text text-anchor="middle" x="510.5" y="-359" font-family="Helvetica,sans-Serif" font-size="10.00">/matcher.h</text>
</a>
</g>
</g>
<!-- Node2 -->
<g id="node2" class="node">
<title>Node2</title>
<g id="a_node2"><a xlink:title=" ">
<polygon fill="#e0e0e0" stroke="#999999" points="151,-310.5 0,-310.5 0,-291.5 151,-291.5 151,-310.5"/>
<text text-anchor="middle" x="75.5" y="-298.5" font-family="Helvetica,sans-Serif" font-size="10.00">catch2/catch_test_macros.hpp</text>
</a>
</g>
</g>
<!-- Node1&#45;&gt;Node2 -->
<g id="edge1" class="edge">
<title>Node1&#45;&gt;Node2</title>
<path fill="none" stroke="#63b8ff" d="M442.2,-360.87C371.45,-349.82 257.7,-331.95 159.5,-316 153.14,-314.97 146.52,-313.88 139.9,-312.79"/>
<polygon fill="#63b8ff" stroke="#63b8ff" points="140.74,-309.38 130.31,-311.2 139.6,-316.29 140.74,-309.38"/>
</g>
<!-- Node3 -->
<g id="node3" class="node">
<title>Node3</title>
<g id="a_node3"><a xlink:title=" ">
<polygon fill="#e0e0e0" stroke="#999999" points="298,-316 169,-316 169,-286 298,-286 298,-316"/>
<text text-anchor="start" x="177" y="-304" font-family="Helvetica,sans-Serif" font-size="10.00">catch2/matchers/catch</text>
<text text-anchor="middle" x="233.5" y="-293" font-family="Helvetica,sans-Serif" font-size="10.00">_matchers_templated.hpp</text>
</a>
</g>
</g>
<!-- Node1&#45;&gt;Node3 -->
<g id="edge2" class="edge">
<title>Node1&#45;&gt;Node3</title>
<path fill="none" stroke="#63b8ff" d="M442.03,-354.32C399.38,-343.62 344.71,-329.9 302.04,-319.2"/>
<polygon fill="#63b8ff" stroke="#63b8ff" points="302.93,-315.81 292.38,-316.77 301.23,-322.6 302.93,-315.81"/>
</g>
<!-- Node4 -->
<g id="node4" class="node">
<title>Node4</title>
<g id="a_node4"><a xlink:title=" ">
<polygon fill="#e0e0e0" stroke="#999999" points="444.5,-316 316.5,-316 316.5,-286 444.5,-286 444.5,-316"/>
<text text-anchor="start" x="324.5" y="-304" font-family="Helvetica,sans-Serif" font-size="10.00">catch2/matchers/catch</text>
<text text-anchor="middle" x="380.5" y="-293" font-family="Helvetica,sans-Serif" font-size="10.00">_matchers_exception.hpp</text>
</a>
</g>
</g>
<!-- Node1&#45;&gt;Node4 -->
<g id="edge3" class="edge">
<title>Node1&#45;&gt;Node4</title>
<path fill="none" stroke="#63b8ff" d="M473.25,-351.58C455.69,-342.2 434.8,-331.03 417.29,-321.67"/>
<polygon fill="#63b8ff" stroke="#63b8ff" points="419.23,-318.74 408.77,-317.11 415.93,-324.91 419.23,-318.74"/>
</g>
<!-- Node5 -->
<g id="node5" class="node">
<title>Node5</title>
<g id="a_node5"><a xlink:href="token__type_8h.html" target="_top" xlink:title=" ">
<polygon fill="white" stroke="#666666" points="596,-74 501,-74 501,-55 596,-55 596,-74"/>
<text text-anchor="middle" x="548.5" y="-62" font-family="Helvetica,sans-Serif" font-size="10.00">core/token_type.h</text>
</a>
</g>
</g>
<!-- Node1&#45;&gt;Node5 -->
<g id="edge4" class="edge">
<title>Node1&#45;&gt;Node5</title>
<path fill="none" stroke="#63b8ff" d="M510.5,-351.75C510.5,-325.37 510.5,-277.17 510.5,-236 510.5,-236 510.5,-236 510.5,-173.5 510.5,-140.65 526.34,-105.19 537.57,-84.19"/>
<polygon fill="#63b8ff" stroke="#63b8ff" points="540.5,-86.13 542.32,-75.69 534.38,-82.72 540.5,-86.13"/>
</g>
<!-- Node7 -->
<g id="node7" class="node">
<title>Node7</title>
<g id="a_node7"><a xlink:href="token_8h.html" target="_top" xlink:title=" ">
<polygon fill="white" stroke="#666666" points="1018,-184 947,-184 947,-165 1018,-165 1018,-184"/>
<text text-anchor="middle" x="982.5" y="-172" font-family="Helvetica,sans-Serif" font-size="10.00">core/token.h</text>
</a>
</g>
</g>
<!-- Node1&#45;&gt;Node7 -->
<g id="edge6" class="edge">
<title>Node1&#45;&gt;Node7</title>
<path fill="none" stroke="#63b8ff" d="M558.36,-351.63C654.49,-311.71 868.84,-222.7 950.27,-188.88"/>
<polygon fill="#63b8ff" stroke="#63b8ff" points="951.56,-192.14 959.45,-185.07 948.88,-185.67 951.56,-192.14"/>
</g>
<!-- Node19 -->
<g id="node19" class="node">
<title>Node19</title>
<g id="a_node19"><a xlink:href="error_8h.html" target="_top" xlink:title=" ">
<polygon fill="white" stroke="#666666" points="651,-184 586,-184 586,-165 651,-165 651,-184"/>
<text text-anchor="middle" x="618.5" y="-172" font-family="Helvetica,sans-Serif" font-size="10.00">core/error.h</text>
</a>
</g>
</g>
<!-- Node1&#45;&gt;Node19 -->
<g id="edge23" class="edge">
<title>Node1&#45;&gt;Node19</title>
<path fill="none" stroke="#63b8ff" d="M521.45,-351.63C542.35,-313.7 587.65,-231.48 608.11,-194.36"/>
<polygon fill="#63b8ff" stroke="#63b8ff" points="611.11,-196.16 612.87,-185.71 604.98,-192.78 611.11,-196.16"/>
</g>
<!-- Node22 -->
<g id="node22" class="node">
<title>Node22</title>
<g id="a_node22"><a xlink:href="literals_8h.html" target="_top" xlink:title=" ">
<polygon fill="white" stroke="#666666" points="406,-129 331,-129 331,-110 406,-110 406,-129"/>
<text text-anchor="middle" x="368.5" y="-117" font-family="Helvetica,sans-Serif" font-size="10.00">core/literals.h</text>
</a>
</g>
</g>
<!-- Node1&#45;&gt;Node22 -->
<g id="edge31" class="edge">
<title>Node1&#45;&gt;Node22</title>
<path fill="none" stroke="#63b8ff" d="M499.36,-351.8C472.66,-304.61 405.32,-185.57 379.14,-139.3"/>
<polygon fill="#63b8ff" stroke="#63b8ff" points="382.26,-137.72 374.29,-130.74 376.17,-141.17 382.26,-137.72"/>
</g>
<!-- Node25 -->
<g id="node25" class="node">
<title>Node25</title>
<g id="a_node25"><a xlink:href="ast_8h.html" target="_top" xlink:title=" ">
<polygon fill="white" stroke="#666666" points="1119,-310.5 1012,-310.5 1012,-291.5 1119,-291.5 1119,-310.5"/>
<text text-anchor="middle" x="1065.5" y="-298.5" font-family="Helvetica,sans-Serif" font-size="10.00">core/evaluation/ast.h</text>
</a>
</g>
</g>
<!-- Node1&#45;&gt;Node25 -->
<g id="edge36" class="edge">
<title>Node1&#45;&gt;Node25</title>
<path fill="none" stroke="#63b8ff" d="M578.83,-362.94C686.6,-349.45 894.63,-323.4 1000.37,-310.16"/>
<polygon fill="#63b8ff" stroke="#63b8ff" points="1000.52,-313.66 1010.01,-308.95 999.65,-306.72 1000.52,-313.66"/>
</g>
<!-- Node28 -->
<g id="node28" class="node">
<title>Node28</title>
<g id="a_node28"><a xlink:title=" ">
<polygon fill="#e0e0e0" stroke="#999999" points="1187.5,-310.5 1137.5,-310.5 1137.5,-291.5 1187.5,-291.5 1187.5,-310.5"/>
<text text-anchor="middle" x="1162.5" y="-298.5" font-family="Helvetica,sans-Serif" font-size="10.00">iomanip</text>
</a>
</g>
</g>
<!-- Node1&#45;&gt;Node28 -->
<g id="edge49" class="edge">
<title>Node1&#45;&gt;Node28</title>
<path fill="none" stroke="#63b8ff" d="M578.8,-372.01C693.91,-371.42 933.1,-363.84 1128.5,-316 1130.09,-315.61 1131.7,-315.16 1133.31,-314.66"/>
<polygon fill="#63b8ff" stroke="#63b8ff" points="1134.14,-318.09 1142.35,-311.4 1131.76,-311.5 1134.14,-318.09"/>
</g>
<!-- Node6 -->
<g id="node6" class="node">
<title>Node6</title>
<g id="a_node6"><a xlink:title=" ">
<polygon fill="#e0e0e0" stroke="#999999" points="499.5,-19 445.5,-19 445.5,0 499.5,0 499.5,-19"/>
<text text-anchor="middle" x="472.5" y="-7" font-family="Helvetica,sans-Serif" font-size="10.00">iostream</text>
</a>
</g>
</g>
<!-- Node5&#45;&gt;Node6 -->
<g id="edge5" class="edge">
<title>Node5&#45;&gt;Node6</title>
<path fill="none" stroke="#63b8ff" d="M535.61,-54.51C524.4,-46.7 507.93,-35.21 494.62,-25.93"/>
<polygon fill="#63b8ff" stroke="#63b8ff" points="496.65,-23.07 486.44,-20.22 492.64,-28.81 496.65,-23.07"/>
</g>
<!-- Node7&#45;&gt;Node5 -->
<g id="edge7" class="edge">
<title>Node7&#45;&gt;Node5</title>
<path fill="none" stroke="#63b8ff" d="M959.57,-164.53C937.58,-155.83 903.54,-142.04 874.5,-129 856.91,-121.1 853.9,-115.76 835.5,-110 758.93,-86.01 666.65,-74.65 607.78,-69.49"/>
<polygon fill="#63b8ff" stroke="#63b8ff" points="608.23,-66.01 597.98,-68.66 607.65,-72.99 608.23,-66.01"/>
</g>
<!-- Node8 -->
<g id="node8" class="node">
<title>Node8</title>
<g id="a_node8"><a xlink:href="datatypes_8h.html" target="_top" xlink:title=" ">
<polygon fill="white" stroke="#666666" points="1048.5,-74 980.5,-74 980.5,-55 1048.5,-55 1048.5,-74"/>
<text text-anchor="middle" x="1014.5" y="-62" font-family="Helvetica,sans-Serif" font-size="10.00">datatypes.h</text>
</a>
</g>
</g>
<!-- Node7&#45;&gt;Node8 -->
<g id="edge8" class="edge">
<title>Node7&#45;&gt;Node8</title>
<path fill="none" stroke="#63b8ff" d="M988.19,-164.68C993.54,-155.97 1001.32,-142.09 1005.5,-129 1010.02,-114.84 1012.27,-98.18 1013.39,-85.48"/>
<polygon fill="#63b8ff" stroke="#63b8ff" points="1016.86,-86.07 1014.07,-75.84 1009.88,-85.57 1016.86,-86.07"/>
</g>
<!-- Node12 -->
<g id="node12" class="node">
<title>Node12</title>
<g id="a_node12"><a xlink:title=" ">
<polygon fill="#e0e0e0" stroke="#999999" points="768,-129 685,-129 685,-110 768,-110 768,-129"/>
<text text-anchor="middle" x="726.5" y="-117" font-family="Helvetica,sans-Serif" font-size="10.00">uni_algo/conv.h</text>
</a>
</g>
</g>
<!-- Node7&#45;&gt;Node12 -->
<g id="edge12" class="edge">
<title>Node7&#45;&gt;Node12</title>
<path fill="none" stroke="#63b8ff" d="M946.63,-166.07C903.23,-157.09 829.75,-141.88 779.73,-131.52"/>
<polygon fill="#63b8ff" stroke="#63b8ff" points="780.48,-128.1 769.98,-129.5 779.06,-134.96 780.48,-128.1"/>
</g>
<!-- Node13 -->
<g id="node13" class="node">
<title>Node13</title>
<g id="a_node13"><a xlink:href="array_8h.html" target="_top" xlink:title=" ">
<polygon fill="white" stroke="#666666" points="1282,-129 1237,-129 1237,-110 1282,-110 1282,-129"/>
<text text-anchor="middle" x="1259.5" y="-117" font-family="Helvetica,sans-Serif" font-size="10.00">array.h</text>
</a>
</g>
</g>
<!-- Node7&#45;&gt;Node13 -->
<g id="edge13" class="edge">
<title>Node7&#45;&gt;Node13</title>
<path fill="none" stroke="#63b8ff" d="M1018.43,-166.63C1072.19,-156.34 1172.84,-137.08 1225.47,-127.01"/>
<polygon fill="#63b8ff" stroke="#63b8ff" points="1225.9,-130.49 1235.06,-125.18 1224.58,-123.62 1225.9,-130.49"/>
</g>
<!-- Node15 -->
<g id="node15" class="node">
<title>Node15</title>
<g id="a_node15"><a xlink:href="conversion_8h.html" target="_top" xlink:title=" ">
<polygon fill="white" stroke="#666666" points="996,-129 883,-129 883,-110 996,-110 996,-129"/>
<text text-anchor="middle" x="939.5" y="-117" font-family="Helvetica,sans-Serif" font-size="10.00">interface/conversion.h</text>
</a>
</g>
</g>
<!-- Node7&#45;&gt;Node15 -->
<g id="edge16" class="edge">
<title>Node7&#45;&gt;Node15</title>
<path fill="none" stroke="#63b8ff" d="M975.4,-164.75C969.58,-157.58 961.17,-147.2 953.94,-138.3"/>
<polygon fill="#63b8ff" stroke="#63b8ff" points="956.73,-136.18 947.71,-130.62 951.29,-140.59 956.73,-136.18"/>
</g>
<!-- Node16 -->
<g id="node16" class="node">
<title>Node16</title>
<g id="a_node16"><a xlink:title=" ">
<polygon fill="#e0e0e0" stroke="#999999" points="826.5,-129 786.5,-129 786.5,-110 826.5,-110 826.5,-129"/>
<text text-anchor="middle" x="806.5" y="-117" font-family="Helvetica,sans-Serif" font-size="10.00">utility</text>
</a>
</g>
</g>
<!-- Node7&#45;&gt;Node16 -->
<g id="edge20" class="edge">
<title>Node7&#45;&gt;Node16</title>
<path fill="none" stroke="#63b8ff" d="M952.64,-164.51C920.62,-154.87 870.01,-139.63 837.54,-129.85"/>
<polygon fill="#63b8ff" stroke="#63b8ff" points="838.9,-126.6 828.32,-127.07 836.89,-133.31 838.9,-126.6"/>
</g>
<!-- Node17 -->
<g id="node17" class="node">
<title>Node17</title>
<g id="a_node17"><a xlink:title=" ">
<polygon fill="#e0e0e0" stroke="#999999" points="1102.5,-129 1052.5,-129 1052.5,-110 1102.5,-110 1102.5,-129"/>
<text text-anchor="middle" x="1077.5" y="-117" font-family="Helvetica,sans-Serif" font-size="10.00">optional</text>
</a>
</g>
</g>
<!-- Node7&#45;&gt;Node17 -->
<g id="edge21" class="edge">
<title>Node7&#45;&gt;Node17</title>
<path fill="none" stroke="#63b8ff" d="M998.62,-164.51C1013.17,-156.39 1034.84,-144.3 1051.79,-134.85"/>
<polygon fill="#63b8ff" stroke="#63b8ff" points="1053.27,-138.02 1060.3,-130.1 1049.86,-131.91 1053.27,-138.02"/>
</g>
<!-- Node18 -->
<g id="node18" class="node">
<title>Node18</title>
<g id="a_node18"><a xlink:href="position_8h.html" target="_top" xlink:title=" ">
<polygon fill="white" stroke="#666666" points="1180,-129 1121,-129 1121,-110 1180,-110 1180,-129"/>
<text text-anchor="middle" x="1150.5" y="-117" font-family="Helvetica,sans-Serif" font-size="10.00">position.h</text>
</a>
</g>
</g>
<!-- Node7&#45;&gt;Node18 -->
<g id="edge22" class="edge">
<title>Node7&#45;&gt;Node18</title>
<path fill="none" stroke="#63b8ff" d="M1011,-164.51C1038.6,-155.8 1080.66,-142.53 1111.38,-132.84"/>
<polygon fill="#63b8ff" stroke="#63b8ff" points="1112.22,-136.25 1120.7,-129.9 1110.11,-129.57 1112.22,-136.25"/>
</g>
<!-- Node9 -->
<g id="node9" class="node">
<title>Node9</title>
<g id="a_node9"><a xlink:title=" ">
<polygon fill="#e0e0e0" stroke="#999999" points="1101.5,-19 1057.5,-19 1057.5,0 1101.5,0 1101.5,-19"/>
<text text-anchor="middle" x="1079.5" y="-7" font-family="Helvetica,sans-Serif" font-size="10.00">vector</text>
</a>
</g>
</g>
<!-- Node8&#45;&gt;Node9 -->
<g id="edge9" class="edge">
<title>Node8&#45;&gt;Node9</title>
<path fill="none" stroke="#63b8ff" d="M1025.53,-54.51C1034.92,-46.85 1048.65,-35.66 1059.91,-26.47"/>
<polygon fill="#63b8ff" stroke="#63b8ff" points="1061.93,-29.35 1067.46,-20.31 1057.5,-23.92 1061.93,-29.35"/>
</g>
<!-- Node10 -->
<g id="node10" class="node">
<title>Node10</title>
<g id="a_node10"><a xlink:title=" ">
<polygon fill="#e0e0e0" stroke="#999999" points="963,-19 922,-19 922,0 963,0 963,-19"/>
<text text-anchor="middle" x="942.5" y="-7" font-family="Helvetica,sans-Serif" font-size="10.00">string</text>
</a>
</g>
</g>
<!-- Node8&#45;&gt;Node10 -->
<g id="edge10" class="edge">
<title>Node8&#45;&gt;Node10</title>
<path fill="none" stroke="#63b8ff" d="M1002.29,-54.51C991.67,-46.7 976.06,-35.21 963.46,-25.93"/>
<polygon fill="#63b8ff" stroke="#63b8ff" points="965.88,-23.36 955.75,-20.26 961.73,-29 965.88,-23.36"/>
</g>
<!-- Node11 -->
<g id="node11" class="node">
<title>Node11</title>
<g id="a_node11"><a xlink:title=" ">
<polygon fill="#e0e0e0" stroke="#999999" points="1039,-19 986,-19 986,0 1039,0 1039,-19"/>
<text text-anchor="middle" x="1012.5" y="-7" font-family="Helvetica,sans-Serif" font-size="10.00">complex</text>
</a>
</g>
</g>
<!-- Node8&#45;&gt;Node11 -->
<g id="edge11" class="edge">
<title>Node8&#45;&gt;Node11</title>
<path fill="none" stroke="#63b8ff" d="M1014.17,-54.75C1013.93,-48.27 1013.58,-39.16 1013.27,-30.9"/>
<polygon fill="#63b8ff" stroke="#63b8ff" points="1016.77,-30.82 1012.89,-20.95 1009.77,-31.08 1016.77,-30.82"/>
</g>
<!-- Node13&#45;&gt;Node8 -->
<g id="edge14" class="edge">
<title>Node13&#45;&gt;Node8</title>
<path fill="none" stroke="#63b8ff" d="M1236.81,-113.23C1232.09,-112.15 1227.13,-111.03 1222.5,-110 1166.52,-97.58 1101.94,-83.86 1059.77,-74.98"/>
<polygon fill="#63b8ff" stroke="#63b8ff" points="1060.75,-71.61 1050.25,-72.98 1059.31,-78.46 1060.75,-71.61"/>
</g>
<!-- Node14 -->
<g id="node14" class="node">
<title>Node14</title>
<g id="a_node14"><a xlink:title=" ">
<polygon fill="#e0e0e0" stroke="#999999" points="1282.5,-74 1236.5,-74 1236.5,-55 1282.5,-55 1282.5,-74"/>
<text text-anchor="middle" x="1259.5" y="-62" font-family="Helvetica,sans-Serif" font-size="10.00">variant</text>
</a>
</g>
</g>
<!-- Node13&#45;&gt;Node14 -->
<g id="edge15" class="edge">
<title>Node13&#45;&gt;Node14</title>
<path fill="none" stroke="#63b8ff" d="M1259.5,-109.75C1259.5,-103.27 1259.5,-94.16 1259.5,-85.9"/>
<polygon fill="#63b8ff" stroke="#63b8ff" points="1263,-85.96 1259.5,-75.96 1256,-85.96 1263,-85.96"/>
</g>
<!-- Node15&#45;&gt;Node5 -->
<g id="edge19" class="edge">
<title>Node15&#45;&gt;Node5</title>
<path fill="none" stroke="#63b8ff" d="M882.65,-110.79C809.21,-100.84 682.01,-83.6 607.53,-73.5"/>
<polygon fill="#63b8ff" stroke="#63b8ff" points="608.37,-70.08 598,-72.21 607.43,-77.02 608.37,-70.08"/>
</g>
<!-- Node15&#45;&gt;Node8 -->
<g id="edge18" class="edge">
<title>Node15&#45;&gt;Node8</title>
<path fill="none" stroke="#63b8ff" d="M952.22,-109.51C963.28,-101.7 979.54,-90.21 992.67,-80.93"/>
<polygon fill="#63b8ff" stroke="#63b8ff" points="994.58,-83.86 1000.73,-75.23 990.54,-78.14 994.58,-83.86"/>
</g>
<!-- Node15&#45;&gt;Node10 -->
<g id="edge17" class="edge">
<title>Node15&#45;&gt;Node10</title>
<path fill="none" stroke="#63b8ff" d="M939.75,-109.66C940.22,-92.57 941.27,-54.61 941.93,-30.92"/>
<polygon fill="#63b8ff" stroke="#63b8ff" points="945.43,-31.07 942.21,-20.97 938.43,-30.87 945.43,-31.07"/>
</g>
<!-- Node19&#45;&gt;Node6 -->
<g id="edge24" class="edge">
<title>Node19&#45;&gt;Node6</title>
<path fill="none" stroke="#63b8ff" d="M592.69,-164.61C573.74,-157.18 548.15,-145.19 529.5,-129 507.06,-109.52 504.36,-100.78 491.5,-74 484.78,-60.01 479.87,-43.13 476.72,-30.29"/>
<polygon fill="#63b8ff" stroke="#63b8ff" points="480.22,-29.9 474.58,-20.93 473.4,-31.45 480.22,-29.9"/>
</g>
<!-- Node19&#45;&gt;Node8 -->
<g id="edge29" class="edge">
<title>Node19&#45;&gt;Node8</title>
<path fill="none" stroke="#63b8ff" d="M623.62,-164.73C632.42,-150.54 651.88,-122.84 676.5,-110 726.39,-83.98 888.64,-72.06 968.81,-67.65"/>
<polygon fill="#63b8ff" stroke="#63b8ff" points="968.71,-71.16 978.51,-67.14 968.34,-64.17 968.71,-71.16"/>
</g>
<!-- Node19&#45;&gt;Node12 -->
<g id="edge30" class="edge">
<title>Node19&#45;&gt;Node12</title>
<path fill="none" stroke="#63b8ff" d="M636.82,-164.51C653.68,-156.24 678.93,-143.84 698.35,-134.31"/>
<polygon fill="#63b8ff" stroke="#63b8ff" points="699.66,-137.57 707.09,-130.02 696.57,-131.29 699.66,-137.57"/>
</g>
<!-- Node19&#45;&gt;Node16 -->
<g id="edge26" class="edge">
<title>Node19&#45;&gt;Node16</title>
<path fill="none" stroke="#63b8ff" d="M650.81,-164.58C680.7,-156.3 726.64,-143.51 775.18,-129.64"/>
<polygon fill="#63b8ff" stroke="#63b8ff" points="776.12,-133.01 784.77,-126.89 774.2,-126.28 776.12,-133.01"/>
</g>
<!-- Node20 -->
<g id="node20" class="node">
<title>Node20</title>
<g id="a_node20"><a xlink:title=" ">
<polygon fill="#e0e0e0" stroke="#999999" points="590.5,-129 538.5,-129 538.5,-110 590.5,-110 590.5,-129"/>
<text text-anchor="middle" x="564.5" y="-117" font-family="Helvetica,sans-Serif" font-size="10.00">sstream</text>
</a>
</g>
</g>
<!-- Node19&#45;&gt;Node20 -->
<g id="edge25" class="edge">
<title>Node19&#45;&gt;Node20</title>
<path fill="none" stroke="#63b8ff" d="M609.58,-164.75C602.05,-157.35 591.03,-146.54 581.77,-137.45"/>
<polygon fill="#63b8ff" stroke="#63b8ff" points="584.28,-135.01 574.69,-130.5 579.38,-140 584.28,-135.01"/>
</g>
<!-- Node21 -->
<g id="node21" class="node">
<title>Node21</title>
<g id="a_node21"><a xlink:href="error__type_8h.html" target="_top" xlink:title=" ">
<polygon fill="white" stroke="#666666" points="796.5,-74 728.5,-74 728.5,-55 796.5,-55 796.5,-74"/>
<text text-anchor="middle" x="762.5" y="-62" font-family="Helvetica,sans-Serif" font-size="10.00">error_type.h</text>
</a>
</g>
</g>
<!-- Node19&#45;&gt;Node21 -->
<g id="edge27" class="edge">
<title>Node19&#45;&gt;Node21</title>
<path fill="none" stroke="#63b8ff" d="M619.48,-164.88C621.45,-151.4 627.12,-125.29 642.5,-110 662.52,-90.1 692.23,-78.99 717.07,-72.85"/>
<polygon fill="#63b8ff" stroke="#63b8ff" points="717.63,-76.31 726.61,-70.7 716.09,-69.49 717.63,-76.31"/>
</g>
<!-- Node21&#45;&gt;Node10 -->
<g id="edge28" class="edge">
<title>Node21&#45;&gt;Node10</title>
<path fill="none" stroke="#63b8ff" d="M793.03,-54.51C825.78,-44.87 877.55,-29.63 910.76,-19.85"/>
<polygon fill="#63b8ff" stroke="#63b8ff" points="911.61,-23.24 920.21,-17.06 909.63,-16.53 911.61,-23.24"/>
</g>
<!-- Node22&#45;&gt;Node5 -->
<g id="edge33" class="edge">
<title>Node22&#45;&gt;Node5</title>
<path fill="none" stroke="#63b8ff" d="M399.03,-109.51C428.86,-100.73 474.46,-87.3 507.45,-77.59"/>
<polygon fill="#63b8ff" stroke="#63b8ff" points="508.06,-81.06 516.66,-74.87 506.08,-74.34 508.06,-81.06"/>
</g>
<!-- Node22&#45;&gt;Node8 -->
<g id="edge32" class="edge">
<title>Node22&#45;&gt;Node8</title>
<path fill="none" stroke="#63b8ff" d="M406.5,-115.38C518.52,-106.19 847.22,-79.22 968.69,-69.26"/>
<polygon fill="#63b8ff" stroke="#63b8ff" points="968.93,-72.75 978.61,-68.44 968.36,-65.77 968.93,-72.75"/>
</g>
<!-- Node23 -->
<g id="node23" class="node">
<title>Node23</title>
<g id="a_node23"><a xlink:title=" ">
<polygon fill="#e0e0e0" stroke="#999999" points="335,-74 300,-74 300,-55 335,-55 335,-74"/>
<text text-anchor="middle" x="317.5" y="-62" font-family="Helvetica,sans-Serif" font-size="10.00">map</text>
</a>
</g>
</g>
<!-- Node22&#45;&gt;Node23 -->
<g id="edge34" class="edge">
<title>Node22&#45;&gt;Node23</title>
<path fill="none" stroke="#63b8ff" d="M360.08,-109.75C353.03,-102.43 342.77,-91.76 334.09,-82.74"/>
<polygon fill="#63b8ff" stroke="#63b8ff" points="336.61,-80.31 327.15,-75.53 331.57,-85.17 336.61,-80.31"/>
</g>
<!-- Node24 -->
<g id="node24" class="node">
<title>Node24</title>
<g id="a_node24"><a xlink:title=" ">
<polygon fill="#e0e0e0" stroke="#999999" points="399.5,-74 353.5,-74 353.5,-55 399.5,-55 399.5,-74"/>
<text text-anchor="middle" x="376.5" y="-62" font-family="Helvetica,sans-Serif" font-size="10.00">ranges</text>
</a>
</g>
</g>
<!-- Node22&#45;&gt;Node24 -->
<g id="edge35" class="edge">
<title>Node22&#45;&gt;Node24</title>
<path fill="none" stroke="#63b8ff" d="M369.82,-109.75C370.81,-103.19 372.21,-93.95 373.47,-85.6"/>
<polygon fill="#63b8ff" stroke="#63b8ff" points="376.89,-86.35 374.92,-75.94 369.97,-85.3 376.89,-86.35"/>
</g>
<!-- Node25&#45;&gt;Node6 -->
<g id="edge38" class="edge">
<title>Node25&#45;&gt;Node6</title>
<path fill="none" stroke="#63b8ff" d="M1011.84,-298.01C917.23,-292.28 717.42,-270.07 576.5,-184 523.77,-151.8 518.24,-129.7 491.5,-74 484.78,-60.01 479.87,-43.13 476.72,-30.29"/>
<polygon fill="#63b8ff" stroke="#63b8ff" points="480.22,-29.9 474.58,-20.93 473.4,-31.45 480.22,-29.9"/>
</g>
<!-- Node25&#45;&gt;Node7 -->
<g id="edge40" class="edge">
<title>Node25&#45;&gt;Node7</title>
<path fill="none" stroke="#63b8ff" d="M1059.53,-291.05C1046.01,-270.77 1012.83,-220.99 994.74,-193.86"/>
<polygon fill="#63b8ff" stroke="#63b8ff" points="997.71,-192.01 989.25,-185.63 991.89,-195.89 997.71,-192.01"/>
</g>
<!-- Node25&#45;&gt;Node8 -->
<g id="edge41" class="edge">
<title>Node25&#45;&gt;Node8</title>
<path fill="none" stroke="#63b8ff" d="M1104.92,-291.11C1164.42,-277.6 1270.61,-253.15 1273.5,-250 1315.92,-203.78 1332.19,-157.75 1291.5,-110 1262.32,-75.76 1131.04,-67.76 1060.18,-65.97"/>
<polygon fill="#63b8ff" stroke="#63b8ff" points="1060.53,-62.47 1050.45,-65.75 1060.37,-69.47 1060.53,-62.47"/>
</g>
<!-- Node25&#45;&gt;Node10 -->
<g id="edge37" class="edge">
<title>Node25&#45;&gt;Node10</title>
<path fill="none" stroke="#63b8ff" d="M1105.48,-291.05C1113.12,-289.36 1121.05,-287.62 1128.5,-286 1203.97,-269.62 1234.51,-293.24 1298.5,-250 1331.54,-227.68 1348.5,-215.38 1348.5,-175.5 1348.5,-175.5 1348.5,-175.5 1348.5,-118.5 1348.5,-80.58 1325.2,-72.4 1291.5,-55 1166.69,9.46 1115.79,-43.62 977.5,-19 976.33,-18.79 975.14,-18.57 973.94,-18.33"/>
<polygon fill="#63b8ff" stroke="#63b8ff" points="975.13,-15.01 964.62,-16.29 973.63,-21.85 975.13,-15.01"/>
</g>
<!-- Node25&#45;&gt;Node13 -->
<g id="edge39" class="edge">
<title>Node25&#45;&gt;Node13</title>
<path fill="none" stroke="#63b8ff" d="M1103.66,-291.07C1157.22,-278.36 1248.72,-255.93 1253.5,-250 1278.74,-218.7 1271.67,-168.02 1265.1,-140.25"/>
<polygon fill="#63b8ff" stroke="#63b8ff" points="1268.53,-139.52 1262.62,-130.72 1261.75,-141.28 1268.53,-139.52"/>
</g>
<!-- Node25&#45;&gt;Node18 -->
<g id="edge48" class="edge">
<title>Node25&#45;&gt;Node18</title>
<path fill="none" stroke="#63b8ff" d="M1064.63,-291.3C1062.78,-268.6 1060.6,-206.43 1086.5,-165 1094.46,-152.27 1107.54,-142.22 1119.81,-134.91"/>
<polygon fill="#63b8ff" stroke="#63b8ff" points="1121.39,-138.04 1128.46,-130.15 1118.01,-131.9 1121.39,-138.04"/>
</g>
<!-- Node26 -->
<g id="node26" class="node">
<title>Node26</title>
<g id="a_node26"><a xlink:title=" ">
<polygon fill="#e0e0e0" stroke="#999999" points="1147.5,-184 1095.5,-184 1095.5,-165 1147.5,-165 1147.5,-184"/>
<text text-anchor="middle" x="1121.5" y="-172" font-family="Helvetica,sans-Serif" font-size="10.00">memory</text>
</a>
</g>
</g>
<!-- Node25&#45;&gt;Node26 -->
<g id="edge42" class="edge">
<title>Node25&#45;&gt;Node26</title>
<path fill="none" stroke="#63b8ff" d="M1069.53,-291.05C1078.57,-270.95 1100.64,-221.87 1112.92,-194.58"/>
<polygon fill="#63b8ff" stroke="#63b8ff" points="1115.98,-196.31 1116.89,-185.75 1109.59,-193.44 1115.98,-196.31"/>
</g>
<!-- Node27 -->
<g id="node27" class="node">
<title>Node27</title>
<g id="a_node27"><a xlink:href="operation_8h.html" target="_top" xlink:title=" ">
<polygon fill="white" stroke="#666666" points="1244,-250 1113,-250 1113,-220 1244,-220 1244,-250"/>
<text text-anchor="start" x="1121" y="-238" font-family="Helvetica,sans-Serif" font-size="10.00">core/evaluation/operations</text>
<text text-anchor="middle" x="1178.5" y="-227" font-family="Helvetica,sans-Serif" font-size="10.00">/operation.h</text>
</a>
</g>
</g>
<!-- Node25&#45;&gt;Node27 -->
<g id="edge43" class="edge">
<title>Node25&#45;&gt;Node27</title>
<path fill="none" stroke="#63b8ff" d="M1081.21,-291.1C1097.16,-282.07 1122.39,-267.78 1143.16,-256.02"/>
<polygon fill="#63b8ff" stroke="#63b8ff" points="1144.64,-259.2 1151.62,-251.22 1141.19,-253.11 1144.64,-259.2"/>
</g>
<!-- Node27&#45;&gt;Node7 -->
<g id="edge46" class="edge">
<title>Node27&#45;&gt;Node7</title>
<path fill="none" stroke="#63b8ff" d="M1130.05,-219.54C1097.24,-209.75 1054.37,-196.95 1023.3,-187.68"/>
<polygon fill="#63b8ff" stroke="#63b8ff" points="1024.46,-184.37 1013.88,-184.87 1022.46,-191.08 1024.46,-184.37"/>
</g>
<!-- Node27&#45;&gt;Node8 -->
<g id="edge44" class="edge">
<title>Node27&#45;&gt;Node8</title>
<path fill="none" stroke="#63b8ff" d="M1185.52,-219.59C1196.63,-194.47 1214.57,-142.25 1189.5,-110 1173.76,-89.75 1106.64,-77.21 1060.26,-70.79"/>
<polygon fill="#63b8ff" stroke="#63b8ff" points="1060.83,-67.34 1050.46,-69.49 1059.91,-74.28 1060.83,-67.34"/>
</g>
<!-- Node27&#45;&gt;Node13 -->
<g id="edge45" class="edge">
<title>Node27&#45;&gt;Node13</title>
<path fill="none" stroke="#63b8ff" d="M1188.76,-219.63C1203.53,-198.93 1230.75,-160.78 1246.78,-138.32"/>
<polygon fill="#63b8ff" stroke="#63b8ff" points="1249.43,-140.63 1252.39,-130.46 1243.73,-136.57 1249.43,-140.63"/>
</g>
<!-- Node27&#45;&gt;Node26 -->
<g id="edge47" class="edge">
<title>Node27&#45;&gt;Node26</title>
<path fill="none" stroke="#63b8ff" d="M1164.41,-219.54C1156.38,-211.3 1146.29,-200.94 1137.91,-192.34"/>
<polygon fill="#63b8ff" stroke="#63b8ff" points="1140.49,-189.98 1131.01,-185.26 1135.48,-194.86 1140.49,-189.98"/>
</g>
</g>
</svg>
