<?xml version="1.0" encoding="UTF-8" standalone="no"?>
<!DOCTYPE svg PUBLIC "-//W3C//DTD SVG 1.1//EN"
 "http://www.w3.org/Graphics/SVG/1.1/DTD/svg11.dtd">
<!-- Generated by graphviz version 7.1.0 (20230121.1956)
 -->
<!-- Title: src/testing/matcher.h Pages: 1 -->
<svg width="1409pt" height="379pt"
 viewBox="0.00 0.00 1408.50 379.00" xmlns="http://www.w3.org/2000/svg" xmlns:xlink="http://www.w3.org/1999/xlink">
<g id="graph0" class="graph" transform="scale(1 1) rotate(0) translate(4 375)">
<title>src/testing/matcher.h</title>
<!-- Node1 -->
<g id="node1" class="node">
<title>Node1</title>
<g id="a_node1"><a xlink:title=" ">
<polygon fill="#999999" stroke="#666666" points="564.5,-371 456.5,-371 456.5,-352 564.5,-352 564.5,-371"/>
<text text-anchor="middle" x="510.5" y="-359" font-family="Helvetica,sans-Serif" font-size="10.00">src/testing/matcher.h</text>
</a>
</g>
</g>
<!-- Node2 -->
<g id="node2" class="node">
<title>Node2</title>
<g id="a_node2"><a xlink:title=" ">
<polygon fill="#e0e0e0" stroke="#999999" points="151,-310.5 0,-310.5 0,-291.5 151,-291.5 151,-310.5"/>
<text text-anchor="middle" x="75.5" y="-298.5" font-family="Helvetica,sans-Serif" font-size="10.00">catch2/catch_test_macros.hpp</text>
</a>
</g>
</g>
<!-- Node1&#45;&gt;Node2 -->
<g id="edge1" class="edge">
<title>Node1&#45;&gt;Node2</title>
<path fill="none" stroke="#63b8ff" d="M456.29,-354.29C387.26,-346.24 264.34,-331.38 159.5,-316 152.77,-315.01 145.74,-313.93 138.74,-312.81"/>
<polygon fill="#63b8ff" stroke="#63b8ff" points="139.35,-309.37 128.92,-311.22 138.23,-316.28 139.35,-309.37"/>
</g>
<!-- Node3 -->
<g id="node3" class="node">
<title>Node3</title>
<g id="a_node3"><a xlink:title=" ">
<polygon fill="#e0e0e0" stroke="#999999" points="298,-316 169,-316 169,-286 298,-286 298,-316"/>
<text text-anchor="start" x="177" y="-304" font-family="Helvetica,sans-Serif" font-size="10.00">catch2/matchers/catch</text>
<text text-anchor="middle" x="233.5" y="-293" font-family="Helvetica,sans-Serif" font-size="10.00">_matchers_templated.hpp</text>
</a>
</g>
</g>
<!-- Node1&#45;&gt;Node3 -->
<g id="edge2" class="edge">
<title>Node1&#45;&gt;Node3</title>
<path fill="none" stroke="#63b8ff" d="M468.13,-351.55C425.98,-342.65 360.4,-328.8 309.28,-318"/>
<polygon fill="#63b8ff" stroke="#63b8ff" points="310.26,-314.63 299.75,-315.99 308.81,-321.48 310.26,-314.63"/>
</g>
<!-- Node4 -->
<g id="node4" class="node">
<title>Node4</title>
<g id="a_node4"><a xlink:title=" ">
<polygon fill="#e0e0e0" stroke="#999999" points="444.5,-316 316.5,-316 316.5,-286 444.5,-286 444.5,-316"/>
<text text-anchor="start" x="324.5" y="-304" font-family="Helvetica,sans-Serif" font-size="10.00">catch2/matchers/catch</text>
<text text-anchor="middle" x="380.5" y="-293" font-family="Helvetica,sans-Serif" font-size="10.00">_matchers_exception.hpp</text>
</a>
</g>
</g>
<!-- Node1&#45;&gt;Node4 -->
<g id="edge3" class="edge">
<title>Node1&#45;&gt;Node4</title>
<path fill="none" stroke="#63b8ff" d="M490.76,-351.62C472.85,-343.56 445.85,-331.41 423.05,-321.15"/>
<polygon fill="#63b8ff" stroke="#63b8ff" points="424.52,-317.97 413.97,-317.06 421.65,-324.36 424.52,-317.97"/>
</g>
<!-- Node5 -->
<g id="node5" class="node">
<title>Node5</title>
<g id="a_node5"><a xlink:href="token__type_8h.html" target="_top" xlink:title=" ">
<polygon fill="white" stroke="#666666" points="672,-74 577,-74 577,-55 672,-55 672,-74"/>
<text text-anchor="middle" x="624.5" y="-62" font-family="Helvetica,sans-Serif" font-size="10.00">core/token_type.h</text>
</a>
</g>
</g>
<!-- Node1&#45;&gt;Node5 -->
<g id="edge4" class="edge">
<title>Node1&#45;&gt;Node5</title>
<path fill="none" stroke="#63b8ff" d="M510.5,-351.75C510.5,-331.42 510.5,-279.45 510.5,-236 510.5,-236 510.5,-236 510.5,-173.5 510.5,-128.23 558.45,-96.26 592.16,-79.37"/>
<polygon fill="#63b8ff" stroke="#63b8ff" points="593.64,-82.54 601.15,-75.07 590.62,-76.22 593.64,-82.54"/>
</g>
<!-- Node7 -->
<g id="node7" class="node">
<title>Node7</title>
<g id="a_node7"><a xlink:href="token_8h.html" target="_top" xlink:title=" ">
<polygon fill="white" stroke="#666666" points="1070,-184 999,-184 999,-165 1070,-165 1070,-184"/>
<text text-anchor="middle" x="1034.5" y="-172" font-family="Helvetica,sans-Serif" font-size="10.00">core/token.h</text>
</a>
</g>
</g>
<!-- Node1&#45;&gt;Node7 -->
<g id="edge6" class="edge">
<title>Node1&#45;&gt;Node7</title>
<path fill="none" stroke="#63b8ff" d="M535.77,-351.58C621.11,-321.45 898.78,-223.42 998.46,-188.22"/>
<polygon fill="#63b8ff" stroke="#63b8ff" points="999.48,-191.57 1007.75,-184.95 997.15,-184.97 999.48,-191.57"/>
</g>
<!-- Node19 -->
<g id="node19" class="node">
<title>Node19</title>
<g id="a_node19"><a xlink:href="error_8h.html" target="_top" xlink:title=" ">
<polygon fill="white" stroke="#666666" points="689,-184 624,-184 624,-165 689,-165 689,-184"/>
<text text-anchor="middle" x="656.5" y="-172" font-family="Helvetica,sans-Serif" font-size="10.00">core/error.h</text>
</a>
</g>
</g>
<!-- Node1&#45;&gt;Node19 -->
<g id="edge23" class="edge">
<title>Node1&#45;&gt;Node19</title>
<path fill="none" stroke="#63b8ff" d="M517.54,-351.58C540.33,-322.7 612.36,-231.43 642.75,-192.92"/>
<polygon fill="#63b8ff" stroke="#63b8ff" points="645.14,-195.54 648.59,-185.52 639.65,-191.2 645.14,-195.54"/>
</g>
<!-- Node22 -->
<g id="node22" class="node">
<title>Node22</title>
<g id="a_node22"><a xlink:href="literals_8h.html" target="_top" xlink:title=" ">
<polygon fill="white" stroke="#666666" points="482,-129 361,-129 361,-110 482,-110 482,-129"/>
<text text-anchor="middle" x="421.5" y="-117" font-family="Helvetica,sans-Serif" font-size="10.00">core/constants/literals.h</text>
</a>
</g>
</g>
<!-- Node1&#45;&gt;Node22 -->
<g id="edge31" class="edge">
<title>Node1&#45;&gt;Node22</title>
<path fill="none" stroke="#63b8ff" d="M507.23,-351.67C494.36,-316.98 447.08,-189.47 428.79,-140.16"/>
<polygon fill="#63b8ff" stroke="#63b8ff" points="432.09,-138.98 425.33,-130.83 425.52,-141.42 432.09,-138.98"/>
</g>
<!-- Node24 -->
<g id="node24" class="node">
<title>Node24</title>
<g id="a_node24"><a xlink:href="ast_8h.html" target="_top" xlink:title=" ">
<polygon fill="white" stroke="#666666" points="1171,-310.5 1064,-310.5 1064,-291.5 1171,-291.5 1171,-310.5"/>
<text text-anchor="middle" x="1117.5" y="-298.5" font-family="Helvetica,sans-Serif" font-size="10.00">core/evaluation/ast.h</text>
</a>
</g>
</g>
<!-- Node1&#45;&gt;Node24 -->
<g id="edge35" class="edge">
<title>Node1&#45;&gt;Node24</title>
<path fill="none" stroke="#63b8ff" d="M564.9,-355.26C676.82,-344.47 932.4,-319.84 1052.67,-308.25"/>
<polygon fill="#63b8ff" stroke="#63b8ff" points="1052.75,-311.76 1062.37,-307.31 1052.08,-304.79 1052.75,-311.76"/>
</g>
<!-- Node27 -->
<g id="node27" class="node">
<title>Node27</title>
<g id="a_node27"><a xlink:title=" ">
<polygon fill="#e0e0e0" stroke="#999999" points="1239.5,-310.5 1189.5,-310.5 1189.5,-291.5 1239.5,-291.5 1239.5,-310.5"/>
<text text-anchor="middle" x="1214.5" y="-298.5" font-family="Helvetica,sans-Serif" font-size="10.00">iomanip</text>
</a>
</g>
</g>
<!-- Node1&#45;&gt;Node27 -->
<g id="edge48" class="edge">
<title>Node1&#45;&gt;Node27</title>
<path fill="none" stroke="#63b8ff" d="M564.81,-359.16C702.73,-355.38 1063.83,-343.13 1180.5,-316 1182.09,-315.63 1183.71,-315.19 1185.32,-314.71"/>
<polygon fill="#63b8ff" stroke="#63b8ff" points="1186.13,-318.14 1194.37,-311.48 1183.78,-311.54 1186.13,-318.14"/>
</g>
<!-- Node6 -->
<g id="node6" class="node">
<title>Node6</title>
<g id="a_node6"><a xlink:title=" ">
<polygon fill="#e0e0e0" stroke="#999999" points="575.5,-19 521.5,-19 521.5,0 575.5,0 575.5,-19"/>
<text text-anchor="middle" x="548.5" y="-7" font-family="Helvetica,sans-Serif" font-size="10.00">iostream</text>
</a>
</g>
</g>
<!-- Node5&#45;&gt;Node6 -->
<g id="edge5" class="edge">
<title>Node5&#45;&gt;Node6</title>
<path fill="none" stroke="#63b8ff" d="M611.61,-54.51C600.4,-46.7 583.93,-35.21 570.62,-25.93"/>
<polygon fill="#63b8ff" stroke="#63b8ff" points="572.65,-23.07 562.44,-20.22 568.64,-28.81 572.65,-23.07"/>
</g>
<!-- Node7&#45;&gt;Node5 -->
<g id="edge7" class="edge">
<title>Node7&#45;&gt;Node5</title>
<path fill="none" stroke="#63b8ff" d="M1006.79,-164.5C981.62,-156.09 943.64,-142.79 911.5,-129 894.15,-121.55 891.42,-115.94 873.5,-110 810.34,-89.05 734.7,-77.31 683.49,-71.22"/>
<polygon fill="#63b8ff" stroke="#63b8ff" points="684.15,-67.77 673.81,-70.1 683.35,-74.72 684.15,-67.77"/>
</g>
<!-- Node8 -->
<g id="node8" class="node">
<title>Node8</title>
<g id="a_node8"><a xlink:href="datatypes_8h.html" target="_top" xlink:title=" ">
<polygon fill="white" stroke="#666666" points="1108.5,-74 1040.5,-74 1040.5,-55 1108.5,-55 1108.5,-74"/>
<text text-anchor="middle" x="1074.5" y="-62" font-family="Helvetica,sans-Serif" font-size="10.00">datatypes.h</text>
</a>
</g>
</g>
<!-- Node7&#45;&gt;Node8 -->
<g id="edge8" class="edge">
<title>Node7&#45;&gt;Node8</title>
<path fill="none" stroke="#63b8ff" d="M1039.85,-164.56C1044.94,-155.76 1052.54,-141.81 1057.5,-129 1063,-114.79 1067.39,-98.13 1070.33,-85.44"/>
<polygon fill="#63b8ff" stroke="#63b8ff" points="1073.72,-86.31 1072.44,-75.79 1066.88,-84.81 1073.72,-86.31"/>
</g>
<!-- Node12 -->
<g id="node12" class="node">
<title>Node12</title>
<g id="a_node12"><a xlink:title=" ">
<polygon fill="#e0e0e0" stroke="#999999" points="806,-129 723,-129 723,-110 806,-110 806,-129"/>
<text text-anchor="middle" x="764.5" y="-117" font-family="Helvetica,sans-Serif" font-size="10.00">uni_algo/conv.h</text>
</a>
</g>
</g>
<!-- Node7&#45;&gt;Node12 -->
<g id="edge12" class="edge">
<title>Node7&#45;&gt;Node12</title>
<path fill="none" stroke="#63b8ff" d="M998.65,-166.46C952.18,-157.34 870.77,-141.36 817.25,-130.85"/>
<polygon fill="#63b8ff" stroke="#63b8ff" points="818.24,-127.48 807.76,-128.99 816.89,-134.35 818.24,-127.48"/>
</g>
<!-- Node13 -->
<g id="node13" class="node">
<title>Node13</title>
<g id="a_node13"><a xlink:href="array_8h.html" target="_top" xlink:title=" ">
<polygon fill="white" stroke="#666666" points="1334,-129 1289,-129 1289,-110 1334,-110 1334,-129"/>
<text text-anchor="middle" x="1311.5" y="-117" font-family="Helvetica,sans-Serif" font-size="10.00">array.h</text>
</a>
</g>
</g>
<!-- Node7&#45;&gt;Node13 -->
<g id="edge13" class="edge">
<title>Node7&#45;&gt;Node13</title>
<path fill="none" stroke="#63b8ff" d="M1070.43,-166.63C1124.19,-156.34 1224.84,-137.08 1277.47,-127.01"/>
<polygon fill="#63b8ff" stroke="#63b8ff" points="1277.9,-130.49 1287.06,-125.18 1276.58,-123.62 1277.9,-130.49"/>
</g>
<!-- Node15 -->
<g id="node15" class="node">
<title>Node15</title>
<g id="a_node15"><a xlink:href="conversion_8h.html" target="_top" xlink:title=" ">
<polygon fill="white" stroke="#666666" points="1048.5,-129 920.5,-129 920.5,-110 1048.5,-110 1048.5,-129"/>
<text text-anchor="middle" x="984.5" y="-117" font-family="Helvetica,sans-Serif" font-size="10.00">core/helpers/conversion.h</text>
</a>
</g>
</g>
<!-- Node7&#45;&gt;Node15 -->
<g id="edge16" class="edge">
<title>Node7&#45;&gt;Node15</title>
<path fill="none" stroke="#63b8ff" d="M1026.24,-164.75C1019.34,-157.43 1009.28,-146.76 1000.76,-137.74"/>
<polygon fill="#63b8ff" stroke="#63b8ff" points="1003.38,-135.42 993.97,-130.54 998.29,-140.22 1003.38,-135.42"/>
</g>
<!-- Node16 -->
<g id="node16" class="node">
<title>Node16</title>
<g id="a_node16"><a xlink:title=" ">
<polygon fill="#e0e0e0" stroke="#999999" points="864.5,-129 824.5,-129 824.5,-110 864.5,-110 864.5,-129"/>
<text text-anchor="middle" x="844.5" y="-117" font-family="Helvetica,sans-Serif" font-size="10.00">utility</text>
</a>
</g>
</g>
<!-- Node7&#45;&gt;Node16 -->
<g id="edge20" class="edge">
<title>Node7&#45;&gt;Node16</title>
<path fill="none" stroke="#63b8ff" d="M1002.27,-164.51C966.98,-154.67 910.77,-138.99 875.84,-129.24"/>
<polygon fill="#63b8ff" stroke="#63b8ff" points="876.9,-125.9 866.33,-126.59 875.02,-132.65 876.9,-125.9"/>
</g>
<!-- Node17 -->
<g id="node17" class="node">
<title>Node17</title>
<g id="a_node17"><a xlink:title=" ">
<polygon fill="#e0e0e0" stroke="#999999" points="1154.5,-129 1104.5,-129 1104.5,-110 1154.5,-110 1154.5,-129"/>
<text text-anchor="middle" x="1129.5" y="-117" font-family="Helvetica,sans-Serif" font-size="10.00">optional</text>
</a>
</g>
</g>
<!-- Node7&#45;&gt;Node17 -->
<g id="edge21" class="edge">
<title>Node7&#45;&gt;Node17</title>
<path fill="none" stroke="#63b8ff" d="M1050.62,-164.51C1065.17,-156.39 1086.84,-144.3 1103.79,-134.85"/>
<polygon fill="#63b8ff" stroke="#63b8ff" points="1105.27,-138.02 1112.3,-130.1 1101.86,-131.91 1105.27,-138.02"/>
</g>
<!-- Node18 -->
<g id="node18" class="node">
<title>Node18</title>
<g id="a_node18"><a xlink:href="position_8h.html" target="_top" xlink:title=" ">
<polygon fill="white" stroke="#666666" points="1232,-129 1173,-129 1173,-110 1232,-110 1232,-129"/>
<text text-anchor="middle" x="1202.5" y="-117" font-family="Helvetica,sans-Serif" font-size="10.00">position.h</text>
</a>
</g>
</g>
<!-- Node7&#45;&gt;Node18 -->
<g id="edge22" class="edge">
<title>Node7&#45;&gt;Node18</title>
<path fill="none" stroke="#63b8ff" d="M1063,-164.51C1090.6,-155.8 1132.66,-142.53 1163.38,-132.84"/>
<polygon fill="#63b8ff" stroke="#63b8ff" points="1164.22,-136.25 1172.7,-129.9 1162.11,-129.57 1164.22,-136.25"/>
</g>
<!-- Node9 -->
<g id="node9" class="node">
<title>Node9</title>
<g id="a_node9"><a xlink:title=" ">
<polygon fill="#e0e0e0" stroke="#999999" points="1094.5,-19 1050.5,-19 1050.5,0 1094.5,0 1094.5,-19"/>
<text text-anchor="middle" x="1072.5" y="-7" font-family="Helvetica,sans-Serif" font-size="10.00">vector</text>
</a>
</g>
</g>
<!-- Node8&#45;&gt;Node9 -->
<g id="edge9" class="edge">
<title>Node8&#45;&gt;Node9</title>
<path fill="none" stroke="#63b8ff" d="M1074.17,-54.75C1073.93,-48.27 1073.58,-39.16 1073.27,-30.9"/>
<polygon fill="#63b8ff" stroke="#63b8ff" points="1076.77,-30.82 1072.89,-20.95 1069.77,-31.08 1076.77,-30.82"/>
</g>
<!-- Node10 -->
<g id="node10" class="node">
<title>Node10</title>
<g id="a_node10"><a xlink:title=" ">
<polygon fill="#e0e0e0" stroke="#999999" points="1017,-19 976,-19 976,0 1017,0 1017,-19"/>
<text text-anchor="middle" x="996.5" y="-7" font-family="Helvetica,sans-Serif" font-size="10.00">string</text>
</a>
</g>
</g>
<!-- Node8&#45;&gt;Node10 -->
<g id="edge10" class="edge">
<title>Node8&#45;&gt;Node10</title>
<path fill="none" stroke="#63b8ff" d="M1061.27,-54.51C1049.66,-46.62 1032.53,-34.98 1018.8,-25.65"/>
<polygon fill="#63b8ff" stroke="#63b8ff" points="1021.03,-22.93 1010.79,-20.21 1017.09,-28.72 1021.03,-22.93"/>
</g>
<!-- Node11 -->
<g id="node11" class="node">
<title>Node11</title>
<g id="a_node11"><a xlink:title=" ">
<polygon fill="#e0e0e0" stroke="#999999" points="1166,-19 1113,-19 1113,0 1166,0 1166,-19"/>
<text text-anchor="middle" x="1139.5" y="-7" font-family="Helvetica,sans-Serif" font-size="10.00">complex</text>
</a>
</g>
</g>
<!-- Node8&#45;&gt;Node11 -->
<g id="edge11" class="edge">
<title>Node8&#45;&gt;Node11</title>
<path fill="none" stroke="#63b8ff" d="M1085.53,-54.51C1094.92,-46.85 1108.65,-35.66 1119.91,-26.47"/>
<polygon fill="#63b8ff" stroke="#63b8ff" points="1121.93,-29.35 1127.46,-20.31 1117.5,-23.92 1121.93,-29.35"/>
</g>
<!-- Node13&#45;&gt;Node8 -->
<g id="edge14" class="edge">
<title>Node13&#45;&gt;Node8</title>
<path fill="none" stroke="#63b8ff" d="M1288.81,-113.26C1284.08,-112.18 1279.13,-111.05 1274.5,-110 1221.49,-98.01 1160.52,-84.49 1119.97,-75.52"/>
<polygon fill="#63b8ff" stroke="#63b8ff" points="1120.84,-72.13 1110.32,-73.39 1119.33,-78.97 1120.84,-72.13"/>
</g>
<!-- Node14 -->
<g id="node14" class="node">
<title>Node14</title>
<g id="a_node14"><a xlink:title=" ">
<polygon fill="#e0e0e0" stroke="#999999" points="1334.5,-74 1288.5,-74 1288.5,-55 1334.5,-55 1334.5,-74"/>
<text text-anchor="middle" x="1311.5" y="-62" font-family="Helvetica,sans-Serif" font-size="10.00">variant</text>
</a>
</g>
</g>
<!-- Node13&#45;&gt;Node14 -->
<g id="edge15" class="edge">
<title>Node13&#45;&gt;Node14</title>
<path fill="none" stroke="#63b8ff" d="M1311.5,-109.75C1311.5,-103.27 1311.5,-94.16 1311.5,-85.9"/>
<polygon fill="#63b8ff" stroke="#63b8ff" points="1315,-85.96 1311.5,-75.96 1308,-85.96 1315,-85.96"/>
</g>
<!-- Node15&#45;&gt;Node5 -->
<g id="edge19" class="edge">
<title>Node15&#45;&gt;Node5</title>
<path fill="none" stroke="#63b8ff" d="M923.43,-109.51C856.4,-99.64 749.53,-83.91 683.37,-74.17"/>
<polygon fill="#63b8ff" stroke="#63b8ff" points="684.22,-70.75 673.82,-72.76 683.2,-77.68 684.22,-70.75"/>
</g>
<!-- Node15&#45;&gt;Node8 -->
<g id="edge18" class="edge">
<title>Node15&#45;&gt;Node8</title>
<path fill="none" stroke="#63b8ff" d="M999.77,-109.51C1013.43,-101.47 1033.7,-89.53 1049.68,-80.11"/>
<polygon fill="#63b8ff" stroke="#63b8ff" points="1051.31,-83.22 1058.15,-75.13 1047.76,-77.18 1051.31,-83.22"/>
</g>
<!-- Node15&#45;&gt;Node10 -->
<g id="edge17" class="edge">
<title>Node15&#45;&gt;Node10</title>
<path fill="none" stroke="#63b8ff" d="M985.48,-109.66C987.39,-92.5 991.64,-54.26 994.27,-30.6"/>
<polygon fill="#63b8ff" stroke="#63b8ff" points="997.71,-31.29 995.34,-20.96 990.75,-30.52 997.71,-31.29"/>
</g>
<!-- Node19&#45;&gt;Node6 -->
<g id="edge24" class="edge">
<title>Node19&#45;&gt;Node6</title>
<path fill="none" stroke="#63b8ff" d="M623.59,-173.85C552.14,-173.85 386.41,-169.38 351.5,-129 300.93,-70.52 439.69,-32.69 510.21,-17.74"/>
<polygon fill="#63b8ff" stroke="#63b8ff" points="510.74,-21.21 519.83,-15.77 509.33,-14.35 510.74,-21.21"/>
</g>
<!-- Node19&#45;&gt;Node8 -->
<g id="edge29" class="edge">
<title>Node19&#45;&gt;Node8</title>
<path fill="none" stroke="#63b8ff" d="M661.6,-164.71C670.39,-150.49 689.83,-122.75 714.5,-110 768.34,-82.19 944.68,-71.04 1028.91,-67.22"/>
<polygon fill="#63b8ff" stroke="#63b8ff" points="1028.81,-70.73 1038.65,-66.8 1028.51,-63.74 1028.81,-70.73"/>
</g>
<!-- Node19&#45;&gt;Node12 -->
<g id="edge30" class="edge">
<title>Node19&#45;&gt;Node12</title>
<path fill="none" stroke="#63b8ff" d="M674.82,-164.51C691.68,-156.24 716.93,-143.84 736.35,-134.31"/>
<polygon fill="#63b8ff" stroke="#63b8ff" points="737.66,-137.57 745.09,-130.02 734.57,-131.29 737.66,-137.57"/>
</g>
<!-- Node19&#45;&gt;Node16 -->
<g id="edge26" class="edge">
<title>Node19&#45;&gt;Node16</title>
<path fill="none" stroke="#63b8ff" d="M688.81,-164.58C718.7,-156.3 764.64,-143.51 813.18,-129.64"/>
<polygon fill="#63b8ff" stroke="#63b8ff" points="814.12,-133.01 822.77,-126.89 812.2,-126.28 814.12,-133.01"/>
</g>
<!-- Node20 -->
<g id="node20" class="node">
<title>Node20</title>
<g id="a_node20"><a xlink:title=" ">
<polygon fill="#e0e0e0" stroke="#999999" points="628.5,-129 576.5,-129 576.5,-110 628.5,-110 628.5,-129"/>
<text text-anchor="middle" x="602.5" y="-117" font-family="Helvetica,sans-Serif" font-size="10.00">sstream</text>
</a>
</g>
</g>
<!-- Node19&#45;&gt;Node20 -->
<g id="edge25" class="edge">
<title>Node19&#45;&gt;Node20</title>
<path fill="none" stroke="#63b8ff" d="M647.58,-164.75C640.05,-157.35 629.03,-146.54 619.77,-137.45"/>
<polygon fill="#63b8ff" stroke="#63b8ff" points="622.28,-135.01 612.69,-130.5 617.38,-140 622.28,-135.01"/>
</g>
<!-- Node21 -->
<g id="node21" class="node">
<title>Node21</title>
<g id="a_node21"><a xlink:href="error__type_8h.html" target="_top" xlink:title=" ">
<polygon fill="white" stroke="#666666" points="861.5,-74 793.5,-74 793.5,-55 861.5,-55 861.5,-74"/>
<text text-anchor="middle" x="827.5" y="-62" font-family="Helvetica,sans-Serif" font-size="10.00">error_type.h</text>
</a>
</g>
</g>
<!-- Node19&#45;&gt;Node21 -->
<g id="edge27" class="edge">
<title>Node19&#45;&gt;Node21</title>
<path fill="none" stroke="#63b8ff" d="M657.37,-164.77C659.19,-151.13 664.66,-124.81 680.5,-110 708,-84.3 749.87,-73.41 781.9,-68.81"/>
<polygon fill="#63b8ff" stroke="#63b8ff" points="782.22,-72.3 791.71,-67.58 781.35,-65.35 782.22,-72.3"/>
</g>
<!-- Node21&#45;&gt;Node10 -->
<g id="edge28" class="edge">
<title>Node21&#45;&gt;Node10</title>
<path fill="none" stroke="#63b8ff" d="M856.17,-54.51C886.36,-45.04 933.77,-30.17 964.99,-20.38"/>
<polygon fill="#63b8ff" stroke="#63b8ff" points="965.76,-23.81 974.26,-17.47 963.67,-17.13 965.76,-23.81"/>
</g>
<!-- Node22&#45;&gt;Node5 -->
<g id="edge33" class="edge">
<title>Node22&#45;&gt;Node5</title>
<path fill="none" stroke="#63b8ff" d="M455.94,-109.51C489.87,-100.65 541.9,-87.07 579.18,-77.33"/>
<polygon fill="#63b8ff" stroke="#63b8ff" points="579.98,-80.74 588.77,-74.83 578.21,-73.97 579.98,-80.74"/>
</g>
<!-- Node22&#45;&gt;Node8 -->
<g id="edge32" class="edge">
<title>Node22&#45;&gt;Node8</title>
<path fill="none" stroke="#63b8ff" d="M482.35,-113.56C612.29,-103.01 914.38,-78.5 1029.16,-69.18"/>
<polygon fill="#63b8ff" stroke="#63b8ff" points="1029.11,-72.7 1038.8,-68.4 1028.54,-65.72 1029.11,-72.7"/>
</g>
<!-- Node23 -->
<g id="node23" class="node">
<title>Node23</title>
<g id="a_node23"><a xlink:title=" ">
<polygon fill="#e0e0e0" stroke="#999999" points="439,-74 404,-74 404,-55 439,-55 439,-74"/>
<text text-anchor="middle" x="421.5" y="-62" font-family="Helvetica,sans-Serif" font-size="10.00">map</text>
</a>
</g>
</g>
<!-- Node22&#45;&gt;Node23 -->
<g id="edge34" class="edge">
<title>Node22&#45;&gt;Node23</title>
<path fill="none" stroke="#63b8ff" d="M421.5,-109.75C421.5,-103.27 421.5,-94.16 421.5,-85.9"/>
<polygon fill="#63b8ff" stroke="#63b8ff" points="425,-85.96 421.5,-75.96 418,-85.96 425,-85.96"/>
</g>
<!-- Node24&#45;&gt;Node6 -->
<g id="edge37" class="edge">
<title>Node24&#45;&gt;Node6</title>
<path fill="none" stroke="#63b8ff" d="M1063.71,-299.58C921.87,-297.03 548.5,-280.35 548.5,-175.5 548.5,-175.5 548.5,-175.5 548.5,-118.5 548.5,-87.92 548.5,-52.48 548.5,-30.77"/>
<polygon fill="#63b8ff" stroke="#63b8ff" points="552,-30.97 548.5,-20.97 545,-30.97 552,-30.97"/>
</g>
<!-- Node24&#45;&gt;Node7 -->
<g id="edge39" class="edge">
<title>Node24&#45;&gt;Node7</title>
<path fill="none" stroke="#63b8ff" d="M1111.53,-291.05C1098.01,-270.77 1064.83,-220.99 1046.74,-193.86"/>
<polygon fill="#63b8ff" stroke="#63b8ff" points="1049.71,-192.01 1041.25,-185.63 1043.89,-195.89 1049.71,-192.01"/>
</g>
<!-- Node24&#45;&gt;Node8 -->
<g id="edge40" class="edge">
<title>Node24&#45;&gt;Node8</title>
<path fill="none" stroke="#63b8ff" d="M1156.92,-291.11C1216.42,-277.6 1322.61,-253.15 1325.5,-250 1367.92,-203.78 1384.08,-157.84 1343.5,-110 1315.42,-76.9 1189.53,-68.39 1120.37,-66.22"/>
<polygon fill="#63b8ff" stroke="#63b8ff" points="1120.57,-62.72 1110.48,-65.95 1120.38,-69.72 1120.57,-62.72"/>
</g>
<!-- Node24&#45;&gt;Node10 -->
<g id="edge36" class="edge">
<title>Node24&#45;&gt;Node10</title>
<path fill="none" stroke="#63b8ff" d="M1157.48,-291.05C1165.12,-289.36 1173.05,-287.62 1180.5,-286 1255.97,-269.62 1286.51,-293.24 1350.5,-250 1383.54,-227.68 1400.5,-215.38 1400.5,-175.5 1400.5,-175.5 1400.5,-175.5 1400.5,-118.5 1400.5,-80.58 1377.16,-72.48 1343.5,-55 1223.54,7.3 1175.1,-39.56 1041.5,-19 1037.24,-18.34 1032.77,-17.59 1028.37,-16.8"/>
<polygon fill="#63b8ff" stroke="#63b8ff" points="1029.02,-13.36 1018.55,-14.97 1027.74,-20.24 1029.02,-13.36"/>
</g>
<!-- Node24&#45;&gt;Node13 -->
<g id="edge38" class="edge">
<title>Node24&#45;&gt;Node13</title>
<path fill="none" stroke="#63b8ff" d="M1155.66,-291.07C1209.22,-278.36 1300.72,-255.93 1305.5,-250 1330.74,-218.7 1323.67,-168.02 1317.1,-140.25"/>
<polygon fill="#63b8ff" stroke="#63b8ff" points="1320.53,-139.52 1314.62,-130.72 1313.75,-141.28 1320.53,-139.52"/>
</g>
<!-- Node24&#45;&gt;Node18 -->
<g id="edge47" class="edge">
<title>Node24&#45;&gt;Node18</title>
<path fill="none" stroke="#63b8ff" d="M1116.63,-291.3C1114.78,-268.6 1112.6,-206.43 1138.5,-165 1146.46,-152.27 1159.54,-142.22 1171.81,-134.91"/>
<polygon fill="#63b8ff" stroke="#63b8ff" points="1173.39,-138.04 1180.46,-130.15 1170.01,-131.9 1173.39,-138.04"/>
</g>
<!-- Node25 -->
<g id="node25" class="node">
<title>Node25</title>
<g id="a_node25"><a xlink:title=" ">
<polygon fill="#e0e0e0" stroke="#999999" points="1199.5,-184 1147.5,-184 1147.5,-165 1199.5,-165 1199.5,-184"/>
<text text-anchor="middle" x="1173.5" y="-172" font-family="Helvetica,sans-Serif" font-size="10.00">memory</text>
</a>
</g>
</g>
<!-- Node24&#45;&gt;Node25 -->
<g id="edge41" class="edge">
<title>Node24&#45;&gt;Node25</title>
<path fill="none" stroke="#63b8ff" d="M1121.53,-291.05C1130.57,-270.95 1152.64,-221.87 1164.92,-194.58"/>
<polygon fill="#63b8ff" stroke="#63b8ff" points="1167.98,-196.31 1168.89,-185.75 1161.59,-193.44 1167.98,-196.31"/>
</g>
<!-- Node26 -->
<g id="node26" class="node">
<title>Node26</title>
<g id="a_node26"><a xlink:href="operation_8h.html" target="_top" xlink:title=" ">
<polygon fill="white" stroke="#666666" points="1296,-250 1165,-250 1165,-220 1296,-220 1296,-250"/>
<text text-anchor="start" x="1173" y="-238" font-family="Helvetica,sans-Serif" font-size="10.00">core/evaluation/operations</text>
<text text-anchor="middle" x="1230.5" y="-227" font-family="Helvetica,sans-Serif" font-size="10.00">/operation.h</text>
</a>
</g>
</g>
<!-- Node24&#45;&gt;Node26 -->
<g id="edge42" class="edge">
<title>Node24&#45;&gt;Node26</title>
<path fill="none" stroke="#63b8ff" d="M1133.21,-291.1C1149.16,-282.07 1174.39,-267.78 1195.16,-256.02"/>
<polygon fill="#63b8ff" stroke="#63b8ff" points="1196.64,-259.2 1203.62,-251.22 1193.19,-253.11 1196.64,-259.2"/>
</g>
<!-- Node26&#45;&gt;Node7 -->
<g id="edge45" class="edge">
<title>Node26&#45;&gt;Node7</title>
<path fill="none" stroke="#63b8ff" d="M1182.05,-219.54C1149.24,-209.75 1106.37,-196.95 1075.3,-187.68"/>
<polygon fill="#63b8ff" stroke="#63b8ff" points="1076.46,-184.37 1065.88,-184.87 1074.46,-191.08 1076.46,-184.37"/>
</g>
<!-- Node26&#45;&gt;Node8 -->
<g id="edge43" class="edge">
<title>Node26&#45;&gt;Node8</title>
<path fill="none" stroke="#63b8ff" d="M1237.48,-219.62C1248.53,-194.54 1266.39,-142.39 1241.5,-110 1226.77,-90.84 1164.44,-78.17 1120.26,-71.41"/>
<polygon fill="#63b8ff" stroke="#63b8ff" points="1120.8,-67.95 1110.39,-69.96 1119.78,-74.88 1120.8,-67.95"/>
</g>
<!-- Node26&#45;&gt;Node13 -->
<g id="edge44" class="edge">
<title>Node26&#45;&gt;Node13</title>
<path fill="none" stroke="#63b8ff" d="M1240.76,-219.63C1255.53,-198.93 1282.75,-160.78 1298.78,-138.32"/>
<polygon fill="#63b8ff" stroke="#63b8ff" points="1301.43,-140.63 1304.39,-130.46 1295.73,-136.57 1301.43,-140.63"/>
</g>
<!-- Node26&#45;&gt;Node25 -->
<g id="edge46" class="edge">
<title>Node26&#45;&gt;Node25</title>
<path fill="none" stroke="#63b8ff" d="M1216.41,-219.54C1208.38,-211.3 1198.29,-200.94 1189.91,-192.34"/>
<polygon fill="#63b8ff" stroke="#63b8ff" points="1192.49,-189.98 1183.01,-185.26 1187.48,-194.86 1192.49,-189.98"/>
</g>
</g>
</svg>
