<?xml version="1.0" encoding="UTF-8" standalone="no"?>
<!DOCTYPE svg PUBLIC "-//W3C//DTD SVG 1.1//EN"
 "http://www.w3.org/Graphics/SVG/1.1/DTD/svg11.dtd">
<!-- Generated by graphviz version 7.1.0 (20230121.1956)
 -->
<!-- Title: /Users/nikolajbankejensen/Desktop/Kepler/src/core/evaluation/operations/monadic_operators.cpp Pages: 1 -->
<!--zoomable 445 -->
<svg id="main" version="1.1" xmlns="http://www.w3.org/2000/svg" xmlns:xlink="http://www.w3.org/1999/xlink" xml:space="preserve" onload="init(evt)">
<style type="text/css"><![CDATA[
.edge:hover path { stroke: red; }
.edge:hover polygon { stroke: red; fill: red; }
]]></style>
<script type="text/javascript"><![CDATA[
var edges = document.getElementsByTagName('g');
if (edges && edges.length) {
  for (var i=0;i<edges.length;i++) {
    if (edges[i].id.substr(0,4)=='edge') {
      edges[i].setAttribute('class','edge');
    }
  }
}
]]></script>
        <defs>
                <circle id="rim" cx="0" cy="0" r="7"/>
                <circle id="rim2" cx="0" cy="0" r="3.5"/>
                <g id="zoomPlus">
                        <use xlink:href="#rim" fill="#404040">
                                <set attributeName="fill" to="#808080" begin="zoomplus.mouseover" end="zoomplus.mouseout"/>
                        </use>
                        <path d="M-4,0h8M0,-4v8" fill="none" stroke="white" stroke-width="1.5" pointer-events="none"/>
                </g>
                <g id="zoomMin">
                        <use xlink:href="#rim" fill="#404040">
                                <set attributeName="fill" to="#808080" begin="zoomminus.mouseover" end="zoomminus.mouseout"/>
                        </use>
                        <path d="M-4,0h8" fill="none" stroke="white" stroke-width="1.5" pointer-events="none"/>
                </g>
                <g id="dirArrow">
                        <path fill="none" stroke="white" stroke-width="1.5" d="M0,-3.0v7 M-2.5,-0.5L0,-3.0L2.5,-0.5"/>
                </g>
               <g id="resetDef">
                       <use xlink:href="#rim2" fill="#404040">
                               <set attributeName="fill" to="#808080" begin="reset.mouseover" end="reset.mouseout"/>
                       </use>
               </g>
        </defs>

<script type="text/javascript">
var viewWidth = 1007;
var viewHeight = 445;
var sectionId = 'dynsection-0';
</script>
<script xlink:href="svgpan.js"/>
<svg id="graph" class="graph">
<g id="viewport">
<title>/Users/nikolajbankejensen/Desktop/Kepler/src/core/evaluation/operations/monadic_operators.cpp</title>
<!-- Node1 -->
<g id="node1" class="node">
<title>Node1</title>
<g id="a_node1"><a xlink:title=" ">
<polygon fill="#999999" stroke="#666666" points="532,-437 380,-437 380,-385 532,-385 532,-437"/>
<text text-anchor="start" x="388" y="-425" font-family="Helvetica,sans-Serif" font-size="10.00">/Users/nikolajbankejensen</text>
<text text-anchor="start" x="388" y="-414" font-family="Helvetica,sans-Serif" font-size="10.00">/Desktop/Kepler/src/core</text>
<text text-anchor="start" x="388" y="-403" font-family="Helvetica,sans-Serif" font-size="10.00">/evaluation/operations/monadic</text>
<text text-anchor="middle" x="456" y="-392" font-family="Helvetica,sans-Serif" font-size="10.00">_operators.cpp</text>
</a>
</g>
</g>
<!-- Node2 -->
<g id="node2" class="node">
<title>Node2</title>
<g id="a_node2"><a xlink:href="monadic__operators_8h.html" target="_top" xlink:title=" ">
<polygon fill="white" stroke="#666666" points="233.5,-349 126.5,-349 126.5,-330 233.5,-330 233.5,-349"/>
<text text-anchor="middle" x="180" y="-337" font-family="Helvetica,sans-Serif" font-size="10.00">monadic_operators.h</text>
</a>
</g>
</g>
<!-- Node1&#45;&gt;Node2 -->
<g id="edge1" class="edge">
<title>Node1&#45;&gt;Node2</title>
<path fill="none" stroke="#63b8ff" d="M379.85,-390.82C330.74,-378.46 268.46,-362.77 226.58,-352.23"/>
<polygon fill="#63b8ff" stroke="#63b8ff" points="227.62,-348.88 217.07,-349.84 225.92,-355.67 227.62,-348.88"/>
</g>
<!-- Node15 -->
<g id="node15" class="node">
<title>Node15</title>
<g id="a_node15"><a xlink:title=" ">
<polygon fill="#e0e0e0" stroke="#999999" points="815,-129 775,-129 775,-110 815,-110 815,-129"/>
<text text-anchor="middle" x="795" y="-117" font-family="Helvetica,sans-Serif" font-size="10.00">utility</text>
</a>
</g>
</g>
<!-- Node1&#45;&gt;Node15 -->
<g id="edge34" class="edge">
<title>Node1&#45;&gt;Node15</title>
<path fill="none" stroke="#63b8ff" d="M532.41,-404.73C608.17,-394.86 713,-366.56 713,-285.5 713,-285.5 713,-285.5 713,-228.5 713,-189.01 748.2,-154.91 772.48,-136.08"/>
<polygon fill="#63b8ff" stroke="#63b8ff" points="774.3,-139.09 780.24,-130.32 770.13,-133.47 774.3,-139.09"/>
</g>
<!-- Node18 -->
<g id="node18" class="node">
<title>Node18</title>
<g id="a_node18"><a xlink:title=" ">
<polygon fill="#e0e0e0" stroke="#999999" points="80,-184 28,-184 28,-165 80,-165 80,-184"/>
<text text-anchor="middle" x="54" y="-172" font-family="Helvetica,sans-Serif" font-size="10.00">memory</text>
</a>
</g>
</g>
<!-- Node1&#45;&gt;Node18 -->
<g id="edge43" class="edge">
<title>Node1&#45;&gt;Node18</title>
<path fill="none" stroke="#63b8ff" d="M379.74,-404.2C293.04,-396.26 158.28,-379.4 118,-349 68.71,-311.8 57.36,-232.57 54.76,-195.46"/>
<polygon fill="#63b8ff" stroke="#63b8ff" points="58.27,-195.54 54.24,-185.74 51.28,-195.91 58.27,-195.54"/>
</g>
<!-- Node20 -->
<g id="node20" class="node">
<title>Node20</title>
<g id="a_node20"><a xlink:href="error_8h.html" target="_top" xlink:title=" ">
<polygon fill="white" stroke="#666666" points="875.5,-184 810.5,-184 810.5,-165 875.5,-165 875.5,-184"/>
<text text-anchor="middle" x="843" y="-172" font-family="Helvetica,sans-Serif" font-size="10.00">core/error.h</text>
</a>
</g>
</g>
<!-- Node1&#45;&gt;Node20 -->
<g id="edge35" class="edge">
<title>Node1&#45;&gt;Node20</title>
<path fill="none" stroke="#63b8ff" d="M532.45,-407.83C590.33,-402.83 669.44,-388.5 727,-349 784.44,-309.58 821.03,-231.51 835.69,-195.08"/>
<polygon fill="#63b8ff" stroke="#63b8ff" points="838.92,-196.43 839.27,-185.85 832.39,-193.9 838.92,-196.43"/>
</g>
<!-- Node3 -->
<g id="node3" class="node">
<title>Node3</title>
<g id="a_node3"><a xlink:href="operation_8h.html" target="_top" xlink:title=" ">
<polygon fill="white" stroke="#666666" points="155.5,-239 90.5,-239 90.5,-220 155.5,-220 155.5,-239"/>
<text text-anchor="middle" x="123" y="-227" font-family="Helvetica,sans-Serif" font-size="10.00">operation.h</text>
</a>
</g>
</g>
<!-- Node2&#45;&gt;Node3 -->
<g id="edge2" class="edge">
<title>Node2&#45;&gt;Node3</title>
<path fill="none" stroke="#63b8ff" d="M175.34,-329.66C166.15,-312.26 145.53,-273.19 133.09,-249.62"/>
<polygon fill="#63b8ff" stroke="#63b8ff" points="136.2,-248.01 128.44,-240.8 130.01,-251.28 136.2,-248.01"/>
</g>
<!-- Node4 -->
<g id="node4" class="node">
<title>Node4</title>
<g id="a_node4"><a xlink:href="datatypes_8h.html" target="_top" xlink:title=" ">
<polygon fill="white" stroke="#666666" points="290.5,-74 201.5,-74 201.5,-55 290.5,-55 290.5,-74"/>
<text text-anchor="middle" x="246" y="-62" font-family="Helvetica,sans-Serif" font-size="10.00">core/datatypes.h</text>
</a>
</g>
</g>
<!-- Node2&#45;&gt;Node4 -->
<g id="edge24" class="edge">
<title>Node2&#45;&gt;Node4</title>
<path fill="none" stroke="#63b8ff" d="M126.48,-329.73C73.42,-317.61 0,-290.09 0,-230.5 0,-230.5 0,-230.5 0,-173.5 0,-131.44 122.09,-95.04 194.25,-77.2"/>
<polygon fill="#63b8ff" stroke="#63b8ff" points="195.02,-80.62 203.91,-74.86 193.36,-73.81 195.02,-80.62"/>
</g>
<!-- Node19 -->
<g id="node19" class="node">
<title>Node19</title>
<g id="a_node19"><a xlink:href="ast_8h.html" target="_top" xlink:title=" ">
<polygon fill="white" stroke="#666666" points="275.5,-294 168.5,-294 168.5,-275 275.5,-275 275.5,-294"/>
<text text-anchor="middle" x="222" y="-282" font-family="Helvetica,sans-Serif" font-size="10.00">core/evaluation/ast.h</text>
</a>
</g>
</g>
<!-- Node2&#45;&gt;Node19 -->
<g id="edge25" class="edge">
<title>Node2&#45;&gt;Node19</title>
<path fill="none" stroke="#63b8ff" d="M186.94,-329.75C192.62,-322.58 200.84,-312.2 207.89,-303.3"/>
<polygon fill="#63b8ff" stroke="#63b8ff" points="210.51,-305.64 213.97,-295.63 205.02,-301.29 210.51,-305.64"/>
</g>
<!-- Node3&#45;&gt;Node4 -->
<g id="edge3" class="edge">
<title>Node3&#45;&gt;Node4</title>
<path fill="none" stroke="#63b8ff" d="M118.51,-219.74C108.36,-198.6 86.4,-144.01 111,-110 120.75,-96.53 157.64,-84.91 190.4,-76.92"/>
<polygon fill="#63b8ff" stroke="#63b8ff" points="190.9,-80.4 199.84,-74.7 189.3,-73.59 190.9,-80.4"/>
</g>
<!-- Node8 -->
<g id="node8" class="node">
<title>Node8</title>
<g id="a_node8"><a xlink:href="array_8h.html" target="_top" xlink:title=" ">
<polygon fill="white" stroke="#666666" points="186.5,-129 119.5,-129 119.5,-110 186.5,-110 186.5,-129"/>
<text text-anchor="middle" x="153" y="-117" font-family="Helvetica,sans-Serif" font-size="10.00">core/array.h</text>
</a>
</g>
</g>
<!-- Node3&#45;&gt;Node8 -->
<g id="edge7" class="edge">
<title>Node3&#45;&gt;Node8</title>
<path fill="none" stroke="#63b8ff" d="M125.46,-219.66C130.25,-202.42 140.94,-163.9 147.51,-140.27"/>
<polygon fill="#63b8ff" stroke="#63b8ff" points="150.8,-141.49 150.11,-130.92 144.06,-139.62 150.8,-141.49"/>
</g>
<!-- Node10 -->
<g id="node10" class="node">
<title>Node10</title>
<g id="a_node10"><a xlink:href="token_8h.html" target="_top" xlink:title=" ">
<polygon fill="white" stroke="#666666" points="391.5,-184 320.5,-184 320.5,-165 391.5,-165 391.5,-184"/>
<text text-anchor="middle" x="356" y="-172" font-family="Helvetica,sans-Serif" font-size="10.00">core/token.h</text>
</a>
</g>
</g>
<!-- Node3&#45;&gt;Node10 -->
<g id="edge10" class="edge">
<title>Node3&#45;&gt;Node10</title>
<path fill="none" stroke="#63b8ff" d="M155.89,-221.02C195.9,-211.92 263.72,-196.49 309.18,-186.15"/>
<polygon fill="#63b8ff" stroke="#63b8ff" points="309.77,-189.61 318.75,-183.97 308.22,-182.78 309.77,-189.61"/>
</g>
<!-- Node3&#45;&gt;Node18 -->
<g id="edge23" class="edge">
<title>Node3&#45;&gt;Node18</title>
<path fill="none" stroke="#63b8ff" d="M111.3,-219.51C101.22,-211.77 86.46,-200.43 74.44,-191.2"/>
<polygon fill="#63b8ff" stroke="#63b8ff" points="76.79,-188.6 66.73,-185.28 72.53,-194.15 76.79,-188.6"/>
</g>
<!-- Node5 -->
<g id="node5" class="node">
<title>Node5</title>
<g id="a_node5"><a xlink:title=" ">
<polygon fill="#e0e0e0" stroke="#999999" points="234,-19 190,-19 190,0 234,0 234,-19"/>
<text text-anchor="middle" x="212" y="-7" font-family="Helvetica,sans-Serif" font-size="10.00">vector</text>
</a>
</g>
</g>
<!-- Node4&#45;&gt;Node5 -->
<g id="edge4" class="edge">
<title>Node4&#45;&gt;Node5</title>
<path fill="none" stroke="#63b8ff" d="M240.39,-54.75C235.88,-47.73 229.41,-37.64 223.79,-28.87"/>
<polygon fill="#63b8ff" stroke="#63b8ff" points="226.9,-27.24 218.55,-20.72 221.01,-31.02 226.9,-27.24"/>
</g>
<!-- Node6 -->
<g id="node6" class="node">
<title>Node6</title>
<g id="a_node6"><a xlink:title=" ">
<polygon fill="#e0e0e0" stroke="#999999" points="522.5,-19 481.5,-19 481.5,0 522.5,0 522.5,-19"/>
<text text-anchor="middle" x="502" y="-7" font-family="Helvetica,sans-Serif" font-size="10.00">string</text>
</a>
</g>
</g>
<!-- Node4&#45;&gt;Node6 -->
<g id="edge5" class="edge">
<title>Node4&#45;&gt;Node6</title>
<path fill="none" stroke="#63b8ff" d="M289.43,-54.51C340.61,-43.91 424.44,-26.56 470.03,-17.12"/>
<polygon fill="#63b8ff" stroke="#63b8ff" points="470.46,-20.61 479.54,-15.15 469.04,-13.75 470.46,-20.61"/>
</g>
<!-- Node7 -->
<g id="node7" class="node">
<title>Node7</title>
<g id="a_node7"><a xlink:title=" ">
<polygon fill="#e0e0e0" stroke="#999999" points="305.5,-19 252.5,-19 252.5,0 305.5,0 305.5,-19"/>
<text text-anchor="middle" x="279" y="-7" font-family="Helvetica,sans-Serif" font-size="10.00">complex</text>
</a>
</g>
</g>
<!-- Node4&#45;&gt;Node7 -->
<g id="edge6" class="edge">
<title>Node4&#45;&gt;Node7</title>
<path fill="none" stroke="#63b8ff" d="M251.45,-54.75C255.77,-47.81 261.96,-37.86 267.38,-29.16"/>
<polygon fill="#63b8ff" stroke="#63b8ff" points="270.32,-31.07 272.63,-20.73 264.38,-27.37 270.32,-31.07"/>
</g>
<!-- Node8&#45;&gt;Node4 -->
<g id="edge8" class="edge">
<title>Node8&#45;&gt;Node4</title>
<path fill="none" stroke="#63b8ff" d="M168.78,-109.51C183.02,-101.39 204.24,-89.3 220.83,-79.85"/>
<polygon fill="#63b8ff" stroke="#63b8ff" points="222.19,-83.1 229.14,-75.11 218.72,-77.02 222.19,-83.1"/>
</g>
<!-- Node9 -->
<g id="node9" class="node">
<title>Node9</title>
<g id="a_node9"><a xlink:title=" ">
<polygon fill="#e0e0e0" stroke="#999999" points="176,-74 130,-74 130,-55 176,-55 176,-74"/>
<text text-anchor="middle" x="153" y="-62" font-family="Helvetica,sans-Serif" font-size="10.00">variant</text>
</a>
</g>
</g>
<!-- Node8&#45;&gt;Node9 -->
<g id="edge9" class="edge">
<title>Node8&#45;&gt;Node9</title>
<path fill="none" stroke="#63b8ff" d="M153,-109.75C153,-103.27 153,-94.16 153,-85.9"/>
<polygon fill="#63b8ff" stroke="#63b8ff" points="156.5,-85.96 153,-75.96 149.5,-85.96 156.5,-85.96"/>
</g>
<!-- Node10&#45;&gt;Node4 -->
<g id="edge13" class="edge">
<title>Node10&#45;&gt;Node4</title>
<path fill="none" stroke="#63b8ff" d="M328.66,-164.61C310.51,-157.49 287.29,-145.88 272,-129 260.85,-116.7 254.14,-98.98 250.33,-85.38"/>
<polygon fill="#63b8ff" stroke="#63b8ff" points="253.76,-84.67 247.97,-75.79 246.97,-86.34 253.76,-84.67"/>
</g>
<!-- Node10&#45;&gt;Node8 -->
<g id="edge15" class="edge">
<title>Node10&#45;&gt;Node8</title>
<path fill="none" stroke="#63b8ff" d="M321.56,-164.51C287.53,-155.62 235.29,-141.98 197.99,-132.25"/>
<polygon fill="#63b8ff" stroke="#63b8ff" points="198.95,-128.88 188.39,-129.74 197.18,-135.65 198.95,-128.88"/>
</g>
<!-- Node11 -->
<g id="node11" class="node">
<title>Node11</title>
<g id="a_node11"><a xlink:href="token__type_8h.html" target="_top" xlink:title=" ">
<polygon fill="white" stroke="#666666" points="527.5,-74 454.5,-74 454.5,-55 527.5,-55 527.5,-74"/>
<text text-anchor="middle" x="491" y="-62" font-family="Helvetica,sans-Serif" font-size="10.00">token_type.h</text>
</a>
</g>
</g>
<!-- Node10&#45;&gt;Node11 -->
<g id="edge11" class="edge">
<title>Node10&#45;&gt;Node11</title>
<path fill="none" stroke="#63b8ff" d="M391.86,-168.31C417.53,-162.77 451.1,-151.54 472,-129 483.02,-117.11 487.67,-99.08 489.62,-85.26"/>
<polygon fill="#63b8ff" stroke="#63b8ff" points="493.07,-85.87 490.6,-75.56 486.11,-85.16 493.07,-85.87"/>
</g>
<!-- Node13 -->
<g id="node13" class="node">
<title>Node13</title>
<g id="a_node13"><a xlink:title=" ">
<polygon fill="#e0e0e0" stroke="#999999" points="756.5,-129 673.5,-129 673.5,-110 756.5,-110 756.5,-129"/>
<text text-anchor="middle" x="715" y="-117" font-family="Helvetica,sans-Serif" font-size="10.00">uni_algo/conv.h</text>
</a>
</g>
</g>
<!-- Node10&#45;&gt;Node13 -->
<g id="edge14" class="edge">
<title>Node10&#45;&gt;Node13</title>
<path fill="none" stroke="#63b8ff" d="M391.73,-168.22C455.12,-158.87 587.52,-139.32 661.7,-128.37"/>
<polygon fill="#63b8ff" stroke="#63b8ff" points="662.21,-131.83 671.59,-126.91 661.19,-124.91 662.21,-131.83"/>
</g>
<!-- Node14 -->
<g id="node14" class="node">
<title>Node14</title>
<g id="a_node14"><a xlink:href="conversion_8h.html" target="_top" xlink:title=" ">
<polygon fill="white" stroke="#666666" points="462.5,-129 349.5,-129 349.5,-110 462.5,-110 462.5,-129"/>
<text text-anchor="middle" x="406" y="-117" font-family="Helvetica,sans-Serif" font-size="10.00">interface/conversion.h</text>
</a>
</g>
</g>
<!-- Node10&#45;&gt;Node14 -->
<g id="edge16" class="edge">
<title>Node10&#45;&gt;Node14</title>
<path fill="none" stroke="#63b8ff" d="M364.26,-164.75C371.16,-157.43 381.22,-146.76 389.74,-137.74"/>
<polygon fill="#63b8ff" stroke="#63b8ff" points="392.21,-140.22 396.53,-130.54 387.12,-135.42 392.21,-140.22"/>
</g>
<!-- Node10&#45;&gt;Node15 -->
<g id="edge20" class="edge">
<title>Node10&#45;&gt;Node15</title>
<path fill="none" stroke="#63b8ff" d="M391.97,-171.74C461.89,-167.86 621.07,-156.79 763.43,-129.18"/>
<polygon fill="#63b8ff" stroke="#63b8ff" points="763.9,-132.66 773.03,-127.28 762.54,-125.79 763.9,-132.66"/>
</g>
<!-- Node16 -->
<g id="node16" class="node">
<title>Node16</title>
<g id="a_node16"><a xlink:title=" ">
<polygon fill="#e0e0e0" stroke="#999999" points="331,-129 281,-129 281,-110 331,-110 331,-129"/>
<text text-anchor="middle" x="306" y="-117" font-family="Helvetica,sans-Serif" font-size="10.00">optional</text>
</a>
</g>
</g>
<!-- Node10&#45;&gt;Node16 -->
<g id="edge21" class="edge">
<title>Node10&#45;&gt;Node16</title>
<path fill="none" stroke="#63b8ff" d="M347.74,-164.75C340.84,-157.43 330.78,-146.76 322.26,-137.74"/>
<polygon fill="#63b8ff" stroke="#63b8ff" points="324.88,-135.42 315.47,-130.54 319.79,-140.22 324.88,-135.42"/>
</g>
<!-- Node17 -->
<g id="node17" class="node">
<title>Node17</title>
<g id="a_node17"><a xlink:href="position_8h.html" target="_top" xlink:title=" ">
<polygon fill="white" stroke="#666666" points="578.5,-129 519.5,-129 519.5,-110 578.5,-110 578.5,-129"/>
<text text-anchor="middle" x="549" y="-117" font-family="Helvetica,sans-Serif" font-size="10.00">position.h</text>
</a>
</g>
</g>
<!-- Node10&#45;&gt;Node17 -->
<g id="edge22" class="edge">
<title>Node10&#45;&gt;Node17</title>
<path fill="none" stroke="#63b8ff" d="M388.74,-164.51C421.73,-155.45 472.73,-141.44 508.31,-131.67"/>
<polygon fill="#63b8ff" stroke="#63b8ff" points="509.1,-135.09 517.81,-129.06 507.24,-128.34 509.1,-135.09"/>
</g>
<!-- Node12 -->
<g id="node12" class="node">
<title>Node12</title>
<g id="a_node12"><a xlink:title=" ">
<polygon fill="#e0e0e0" stroke="#999999" points="672,-19 618,-19 618,0 672,0 672,-19"/>
<text text-anchor="middle" x="645" y="-7" font-family="Helvetica,sans-Serif" font-size="10.00">iostream</text>
</a>
</g>
</g>
<!-- Node11&#45;&gt;Node12 -->
<g id="edge12" class="edge">
<title>Node11&#45;&gt;Node12</title>
<path fill="none" stroke="#63b8ff" d="M517.12,-54.51C542.2,-45.88 580.31,-32.76 608.4,-23.1"/>
<polygon fill="#63b8ff" stroke="#63b8ff" points="609.26,-26.5 617.57,-19.94 606.98,-19.88 609.26,-26.5"/>
</g>
<!-- Node14&#45;&gt;Node4 -->
<g id="edge18" class="edge">
<title>Node14&#45;&gt;Node4</title>
<path fill="none" stroke="#63b8ff" d="M378.86,-109.51C352.69,-100.84 312.86,-87.65 283.64,-77.97"/>
<polygon fill="#63b8ff" stroke="#63b8ff" points="285.04,-74.74 274.44,-74.92 282.84,-81.39 285.04,-74.74"/>
</g>
<!-- Node14&#45;&gt;Node6 -->
<g id="edge17" class="edge">
<title>Node14&#45;&gt;Node6</title>
<path fill="none" stroke="#63b8ff" d="M410.34,-109.65C416.93,-96.76 430.35,-72.46 446,-55 455.77,-44.1 468.42,-33.8 479.23,-25.86"/>
<polygon fill="#63b8ff" stroke="#63b8ff" points="481.13,-28.8 487.26,-20.16 477.08,-23.09 481.13,-28.8"/>
</g>
<!-- Node14&#45;&gt;Node11 -->
<g id="edge19" class="edge">
<title>Node14&#45;&gt;Node11</title>
<path fill="none" stroke="#63b8ff" d="M420.42,-109.51C433.2,-101.54 452.1,-89.75 467.13,-80.38"/>
<polygon fill="#63b8ff" stroke="#63b8ff" points="468.88,-83.42 475.51,-75.16 465.17,-77.48 468.88,-83.42"/>
</g>
<!-- Node19&#45;&gt;Node3 -->
<g id="edge32" class="edge">
<title>Node19&#45;&gt;Node3</title>
<path fill="none" stroke="#63b8ff" d="M205.21,-274.51C189.9,-266.31 167.03,-254.07 149.3,-244.58"/>
<polygon fill="#63b8ff" stroke="#63b8ff" points="151.35,-241.71 140.88,-240.07 148.04,-247.88 151.35,-241.71"/>
</g>
<!-- Node19&#45;&gt;Node4 -->
<g id="edge30" class="edge">
<title>Node19&#45;&gt;Node4</title>
<path fill="none" stroke="#63b8ff" d="M222.97,-274.68C226.51,-242.57 238.75,-131.33 243.8,-85.49"/>
<polygon fill="#63b8ff" stroke="#63b8ff" points="247.26,-86.01 244.88,-75.69 240.3,-85.25 247.26,-86.01"/>
</g>
<!-- Node19&#45;&gt;Node6 -->
<g id="edge26" class="edge">
<title>Node19&#45;&gt;Node6</title>
<path fill="none" stroke="#63b8ff" d="M275.94,-279.66C381.9,-270.63 607,-243.45 607,-175.5 607,-175.5 607,-175.5 607,-118.5 607,-74.8 562.26,-42.13 531.19,-24.71"/>
<polygon fill="#63b8ff" stroke="#63b8ff" points="533.06,-21.75 522.59,-20.11 529.76,-27.92 533.06,-21.75"/>
</g>
<!-- Node19&#45;&gt;Node8 -->
<g id="edge28" class="edge">
<title>Node19&#45;&gt;Node8</title>
<path fill="none" stroke="#63b8ff" d="M218.29,-274.74C207.53,-249.31 176.1,-175.08 161.12,-139.69"/>
<polygon fill="#63b8ff" stroke="#63b8ff" points="164.44,-138.55 157.32,-130.7 157.99,-141.27 164.44,-138.55"/>
</g>
<!-- Node19&#45;&gt;Node10 -->
<g id="edge29" class="edge">
<title>Node19&#45;&gt;Node10</title>
<path fill="none" stroke="#63b8ff" d="M232.97,-274.66C255.54,-256.47 307.49,-214.6 336.14,-191.51"/>
<polygon fill="#63b8ff" stroke="#63b8ff" points="338.11,-194.41 343.7,-185.41 333.72,-188.96 338.11,-194.41"/>
</g>
<!-- Node19&#45;&gt;Node12 -->
<g id="edge27" class="edge">
<title>Node19&#45;&gt;Node12</title>
<path fill="none" stroke="#63b8ff" d="M275.57,-281.04C389.4,-274.34 645,-250.91 645,-175.5 645,-175.5 645,-175.5 645,-118.5 645,-87.92 645,-52.48 645,-30.77"/>
<polygon fill="#63b8ff" stroke="#63b8ff" points="648.5,-30.97 645,-20.97 641.5,-30.97 648.5,-30.97"/>
</g>
<!-- Node19&#45;&gt;Node17 -->
<g id="edge33" class="edge">
<title>Node19&#45;&gt;Node17</title>
<path fill="none" stroke="#63b8ff" d="M240.05,-274.5C294.2,-247.51 455.61,-167.05 521.01,-134.45"/>
<polygon fill="#63b8ff" stroke="#63b8ff" points="522.27,-137.74 529.65,-130.14 519.14,-131.47 522.27,-137.74"/>
</g>
<!-- Node19&#45;&gt;Node18 -->
<g id="edge31" class="edge">
<title>Node19&#45;&gt;Node18</title>
<path fill="none" stroke="#63b8ff" d="M168.17,-277.2C139.66,-271.41 105.72,-260.3 82,-239 69.24,-227.54 62.02,-209.2 58.11,-195.17"/>
<polygon fill="#63b8ff" stroke="#63b8ff" points="61.58,-194.61 55.84,-185.7 54.77,-196.24 61.58,-194.61"/>
</g>
<!-- Node20&#45;&gt;Node4 -->
<g id="edge41" class="edge">
<title>Node20&#45;&gt;Node4</title>
<path fill="none" stroke="#63b8ff" d="M843.25,-164.87C843.14,-150.87 840.66,-123.43 824,-110 803.87,-93.78 443.7,-74.93 302.31,-68.12"/>
<polygon fill="#63b8ff" stroke="#63b8ff" points="302.58,-64.63 292.43,-67.65 302.25,-71.62 302.58,-64.63"/>
</g>
<!-- Node20&#45;&gt;Node12 -->
<g id="edge36" class="edge">
<title>Node20&#45;&gt;Node12</title>
<path fill="none" stroke="#63b8ff" d="M852.17,-164.66C863.53,-152.57 880.53,-130.09 873,-110 861.61,-79.62 852.7,-71.9 825,-55 781.04,-28.18 721.75,-17.5 683.44,-13.27"/>
<polygon fill="#63b8ff" stroke="#63b8ff" points="684.07,-9.81 673.77,-12.3 683.37,-16.78 684.07,-9.81"/>
</g>
<!-- Node20&#45;&gt;Node13 -->
<g id="edge42" class="edge">
<title>Node20&#45;&gt;Node13</title>
<path fill="none" stroke="#63b8ff" d="M821.29,-164.51C800.84,-156.04 769.98,-143.27 746.77,-133.66"/>
<polygon fill="#63b8ff" stroke="#63b8ff" points="748.37,-130.53 737.79,-129.94 745.69,-137 748.37,-130.53"/>
</g>
<!-- Node20&#45;&gt;Node15 -->
<g id="edge38" class="edge">
<title>Node20&#45;&gt;Node15</title>
<path fill="none" stroke="#63b8ff" d="M835.07,-164.75C828.44,-157.43 818.78,-146.76 810.61,-137.74"/>
<polygon fill="#63b8ff" stroke="#63b8ff" points="813.42,-135.63 804.11,-130.56 808.23,-140.33 813.42,-135.63"/>
</g>
<!-- Node21 -->
<g id="node21" class="node">
<title>Node21</title>
<g id="a_node21"><a xlink:title=" ">
<polygon fill="#e0e0e0" stroke="#999999" points="999,-129 947,-129 947,-110 999,-110 999,-129"/>
<text text-anchor="middle" x="973" y="-117" font-family="Helvetica,sans-Serif" font-size="10.00">sstream</text>
</a>
</g>
</g>
<!-- Node20&#45;&gt;Node21 -->
<g id="edge37" class="edge">
<title>Node20&#45;&gt;Node21</title>
<path fill="none" stroke="#63b8ff" d="M865.05,-164.51C885.81,-156.04 917.16,-143.27 940.73,-133.66"/>
<polygon fill="#63b8ff" stroke="#63b8ff" points="941.93,-136.95 949.87,-129.93 939.29,-130.46 941.93,-136.95"/>
</g>
<!-- Node22 -->
<g id="node22" class="node">
<title>Node22</title>
<g id="a_node22"><a xlink:href="error__type_8h.html" target="_top" xlink:title=" ">
<polygon fill="white" stroke="#666666" points="816,-74 748,-74 748,-55 816,-55 816,-74"/>
<text text-anchor="middle" x="782" y="-62" font-family="Helvetica,sans-Serif" font-size="10.00">error_type.h</text>
</a>
</g>
</g>
<!-- Node20&#45;&gt;Node22 -->
<g id="edge39" class="edge">
<title>Node20&#45;&gt;Node22</title>
<path fill="none" stroke="#63b8ff" d="M848.63,-164.7C856.05,-151.88 867.06,-127.66 857,-110 849.12,-96.16 835.05,-86.18 821.21,-79.23"/>
<polygon fill="#63b8ff" stroke="#63b8ff" points="822.71,-76.06 812.16,-75.11 819.81,-82.44 822.71,-76.06"/>
</g>
<!-- Node22&#45;&gt;Node6 -->
<g id="edge40" class="edge">
<title>Node22&#45;&gt;Node6</title>
<path fill="none" stroke="#63b8ff" d="M747.67,-57C692.95,-46.64 586.77,-26.54 533.73,-16.51"/>
<polygon fill="#63b8ff" stroke="#63b8ff" points="534.62,-13.11 524.15,-14.69 533.32,-19.99 534.62,-13.11"/>
</g>
</g>
</svg>
        <g id="navigator" transform="translate(0 0)" fill="#404254">
                <rect fill="#f2f5e9" fill-opacity="0.5" stroke="#606060" stroke-width=".5" x="0" y="0" width="60" height="60"/>
                <use id="zoomplus" xlink:href="#zoomPlus" x="17" y="9" onmousedown="handleZoom(evt,'in')"/>
                <use id="zoomminus" xlink:href="#zoomMin" x="42" y="9" onmousedown="handleZoom(evt,'out')"/>
                <use id="reset" xlink:href="#resetDef" x="30" y="36" onmousedown="handleReset()"/>
                <g id="arrowUp" xlink:href="#dirArrow" transform="translate(30 24)" onmousedown="handlePan(0,-1)">
                  <use xlink:href="#rim" fill="#404040">
                        <set attributeName="fill" to="#808080" begin="arrowUp.mouseover" end="arrowUp.mouseout"/>
                  </use>
                  <path fill="none" stroke="white" stroke-width="1.5" d="M0,-3.0v7 M-2.5,-0.5L0,-3.0L2.5,-0.5"/>
                </g>
                <g id="arrowRight" xlink:href="#dirArrow" transform="rotate(90) translate(36 -43)" onmousedown="handlePan(1,0)">
                  <use xlink:href="#rim" fill="#404040">
                        <set attributeName="fill" to="#808080" begin="arrowRight.mouseover" end="arrowRight.mouseout"/>
                  </use>
                  <path fill="none" stroke="white" stroke-width="1.5" d="M0,-3.0v7 M-2.5,-0.5L0,-3.0L2.5,-0.5"/>
                </g>
                <g id="arrowDown" xlink:href="#dirArrow" transform="rotate(180) translate(-30 -48)" onmousedown="handlePan(0,1)">
                  <use xlink:href="#rim" fill="#404040">
                        <set attributeName="fill" to="#808080" begin="arrowDown.mouseover" end="arrowDown.mouseout"/>
                  </use>
                  <path fill="none" stroke="white" stroke-width="1.5" d="M0,-3.0v7 M-2.5,-0.5L0,-3.0L2.5,-0.5"/>
                </g>
                <g id="arrowLeft" xlink:href="#dirArrow" transform="rotate(270) translate(-36 17)" onmousedown="handlePan(-1,0)">
                  <use xlink:href="#rim" fill="#404040">
                        <set attributeName="fill" to="#808080" begin="arrowLeft.mouseover" end="arrowLeft.mouseout"/>
                  </use>
                  <path fill="none" stroke="white" stroke-width="1.5" d="M0,-3.0v7 M-2.5,-0.5L0,-3.0L2.5,-0.5"/>
                </g>
        </g>
        <svg viewBox="0 0 15 15" width="100%" height="30px" preserveAspectRatio="xMaxYMin meet">
         <g id="arrow_out" transform="scale(0.3 0.3)">
          <a xlink:href="monadic__operators_8cpp__incl_org.svg" target="_base">
           <rect id="button" ry="5" rx="5" y="6" x="6" height="38" width="38"
                fill="#f2f5e9" fill-opacity="0.5" stroke="#606060" stroke-width="1.0"/>
           <path id="arrow"
             d="M 11.500037,31.436501 C 11.940474,20.09759 22.043105,11.32322 32.158766,21.979434 L 37.068811,17.246167 C 37.068811,17.246167 37.088388,32 37.088388,32 L 22.160133,31.978069 C 22.160133,31.978069 26.997745,27.140456 26.997745,27.140456 C 18.528582,18.264221 13.291696,25.230495 11.500037,31.436501 z"
             style="fill:#404040;"/>
          </a>
         </g>
        </svg>
</svg>
