<?xml version="1.0" encoding="UTF-8" standalone="no"?>
<!DOCTYPE svg PUBLIC "-//W3C//DTD SVG 1.1//EN"
 "http://www.w3.org/Graphics/SVG/1.1/DTD/svg11.dtd">
<!-- Generated by graphviz version 7.1.0 (20230121.1956)
 -->
<!-- Title: /Users/nikolajbankejensen/Desktop/Kepler/src/core/evaluation/operations/monadic_operators.h Pages: 1 -->
<svg width="760pt" height="390pt"
 viewBox="0.00 0.00 760.00 390.00" xmlns="http://www.w3.org/2000/svg" xmlns:xlink="http://www.w3.org/1999/xlink">
<g id="graph0" class="graph" transform="scale(1 1) rotate(0) translate(4 386)">
<title>/Users/nikolajbankejensen/Desktop/Kepler/src/core/evaluation/operations/monadic_operators.h</title>
<!-- Node1 -->
<g id="node1" class="node">
<title>Node1</title>
<g id="a_node1"><a xlink:title=" ">
<polygon fill="#999999" stroke="#666666" points="246,-382 94,-382 94,-330 246,-330 246,-382"/>
<text text-anchor="start" x="102" y="-370" font-family="Helvetica,sans-Serif" font-size="10.00">/Users/nikolajbankejensen</text>
<text text-anchor="start" x="102" y="-359" font-family="Helvetica,sans-Serif" font-size="10.00">/Desktop/Kepler/src/core</text>
<text text-anchor="start" x="102" y="-348" font-family="Helvetica,sans-Serif" font-size="10.00">/evaluation/operations/monadic</text>
<text text-anchor="middle" x="170" y="-337" font-family="Helvetica,sans-Serif" font-size="10.00">_operators.h</text>
</a>
</g>
</g>
<!-- Node2 -->
<g id="node2" class="node">
<title>Node2</title>
<g id="a_node2"><a xlink:href="operation_8h.html" target="_top" xlink:title=" ">
<polygon fill="white" stroke="#666666" points="202.5,-239 137.5,-239 137.5,-220 202.5,-220 202.5,-239"/>
<text text-anchor="middle" x="170" y="-227" font-family="Helvetica,sans-Serif" font-size="10.00">operation.h</text>
</a>
</g>
</g>
<!-- Node1&#45;&gt;Node2 -->
<g id="edge1" class="edge">
<title>Node1&#45;&gt;Node2</title>
<path fill="none" stroke="#63b8ff" d="M170,-329.51C170,-306.18 170,-272.14 170,-250.66"/>
<polygon fill="#63b8ff" stroke="#63b8ff" points="173.5,-250.9 170,-240.9 166.5,-250.9 173.5,-250.9"/>
</g>
<!-- Node3 -->
<g id="node3" class="node">
<title>Node3</title>
<g id="a_node3"><a xlink:href="datatypes_8h.html" target="_top" xlink:title=" ">
<polygon fill="white" stroke="#666666" points="151.5,-74 62.5,-74 62.5,-55 151.5,-55 151.5,-74"/>
<text text-anchor="middle" x="107" y="-62" font-family="Helvetica,sans-Serif" font-size="10.00">core/datatypes.h</text>
</a>
</g>
</g>
<!-- Node1&#45;&gt;Node3 -->
<g id="edge23" class="edge">
<title>Node1&#45;&gt;Node3</title>
<path fill="none" stroke="#63b8ff" d="M93.95,-331.79C48.69,-312.75 0,-280.62 0,-230.5 0,-230.5 0,-230.5 0,-173.5 0,-129.51 45.35,-97.02 77,-79.71"/>
<polygon fill="#63b8ff" stroke="#63b8ff" points="78.54,-82.85 85.78,-75.12 75.3,-76.65 78.54,-82.85"/>
</g>
<!-- Node18 -->
<g id="node18" class="node">
<title>Node18</title>
<g id="a_node18"><a xlink:href="ast_8h.html" target="_top" xlink:title=" ">
<polygon fill="white" stroke="#666666" points="322.5,-294 215.5,-294 215.5,-275 322.5,-275 322.5,-294"/>
<text text-anchor="middle" x="269" y="-282" font-family="Helvetica,sans-Serif" font-size="10.00">core/evaluation/ast.h</text>
</a>
</g>
</g>
<!-- Node1&#45;&gt;Node18 -->
<g id="edge24" class="edge">
<title>Node1&#45;&gt;Node18</title>
<path fill="none" stroke="#63b8ff" d="M206.3,-329.52C220.1,-319.83 235.37,-309.11 247.39,-300.67"/>
<polygon fill="#63b8ff" stroke="#63b8ff" points="249.2,-303.68 255.37,-295.07 245.18,-297.95 249.2,-303.68"/>
</g>
<!-- Node2&#45;&gt;Node3 -->
<g id="edge2" class="edge">
<title>Node2&#45;&gt;Node3</title>
<path fill="none" stroke="#63b8ff" d="M159.94,-219.59C142.67,-203.53 107.98,-167.77 95,-129 90.15,-114.5 93.86,-97.44 98.4,-84.66"/>
<polygon fill="#63b8ff" stroke="#63b8ff" points="101.51,-86.31 102.01,-75.72 95.02,-83.69 101.51,-86.31"/>
</g>
<!-- Node7 -->
<g id="node7" class="node">
<title>Node7</title>
<g id="a_node7"><a xlink:href="array_8h.html" target="_top" xlink:title=" ">
<polygon fill="white" stroke="#666666" points="171.5,-129 104.5,-129 104.5,-110 171.5,-110 171.5,-129"/>
<text text-anchor="middle" x="138" y="-117" font-family="Helvetica,sans-Serif" font-size="10.00">core/array.h</text>
</a>
</g>
</g>
<!-- Node2&#45;&gt;Node7 -->
<g id="edge6" class="edge">
<title>Node2&#45;&gt;Node7</title>
<path fill="none" stroke="#63b8ff" d="M167.38,-219.66C162.27,-202.42 150.86,-163.9 143.86,-140.27"/>
<polygon fill="#63b8ff" stroke="#63b8ff" points="147.28,-139.51 141.08,-130.91 140.57,-141.49 147.28,-139.51"/>
</g>
<!-- Node9 -->
<g id="node9" class="node">
<title>Node9</title>
<g id="a_node9"><a xlink:href="token_8h.html" target="_top" xlink:title=" ">
<polygon fill="white" stroke="#666666" points="370.5,-184 299.5,-184 299.5,-165 370.5,-165 370.5,-184"/>
<text text-anchor="middle" x="335" y="-172" font-family="Helvetica,sans-Serif" font-size="10.00">core/token.h</text>
</a>
</g>
</g>
<!-- Node2&#45;&gt;Node9 -->
<g id="edge9" class="edge">
<title>Node2&#45;&gt;Node9</title>
<path fill="none" stroke="#63b8ff" d="M197.99,-219.51C225.09,-210.8 266.41,-197.53 296.58,-187.84"/>
<polygon fill="#63b8ff" stroke="#63b8ff" points="297.26,-191.3 305.71,-184.91 295.12,-184.64 297.26,-191.3"/>
</g>
<!-- Node17 -->
<g id="node17" class="node">
<title>Node17</title>
<g id="a_node17"><a xlink:title=" ">
<polygon fill="#e0e0e0" stroke="#999999" points="234,-184 182,-184 182,-165 234,-165 234,-184"/>
<text text-anchor="middle" x="208" y="-172" font-family="Helvetica,sans-Serif" font-size="10.00">memory</text>
</a>
</g>
</g>
<!-- Node2&#45;&gt;Node17 -->
<g id="edge22" class="edge">
<title>Node2&#45;&gt;Node17</title>
<path fill="none" stroke="#63b8ff" d="M176.27,-219.75C181.36,-212.66 188.7,-202.42 195.03,-193.59"/>
<polygon fill="#63b8ff" stroke="#63b8ff" points="197.72,-195.84 200.71,-185.67 192.04,-191.76 197.72,-195.84"/>
</g>
<!-- Node4 -->
<g id="node4" class="node">
<title>Node4</title>
<g id="a_node4"><a xlink:title=" ">
<polygon fill="#e0e0e0" stroke="#999999" points="96,-19 52,-19 52,0 96,0 96,-19"/>
<text text-anchor="middle" x="74" y="-7" font-family="Helvetica,sans-Serif" font-size="10.00">vector</text>
</a>
</g>
</g>
<!-- Node3&#45;&gt;Node4 -->
<g id="edge3" class="edge">
<title>Node3&#45;&gt;Node4</title>
<path fill="none" stroke="#63b8ff" d="M101.55,-54.75C97.23,-47.81 91.04,-37.86 85.62,-29.16"/>
<polygon fill="#63b8ff" stroke="#63b8ff" points="88.62,-27.37 80.37,-20.73 82.68,-31.07 88.62,-27.37"/>
</g>
<!-- Node5 -->
<g id="node5" class="node">
<title>Node5</title>
<g id="a_node5"><a xlink:title=" ">
<polygon fill="#e0e0e0" stroke="#999999" points="533.5,-19 492.5,-19 492.5,0 533.5,0 533.5,-19"/>
<text text-anchor="middle" x="513" y="-7" font-family="Helvetica,sans-Serif" font-size="10.00">string</text>
</a>
</g>
</g>
<!-- Node3&#45;&gt;Node5 -->
<g id="edge4" class="edge">
<title>Node3&#45;&gt;Node5</title>
<path fill="none" stroke="#63b8ff" d="M151.77,-56.35C154.89,-55.88 157.99,-55.43 161,-55 278.78,-38.29 419.18,-21.47 481.04,-14.21"/>
<polygon fill="#63b8ff" stroke="#63b8ff" points="481.31,-17.7 490.84,-13.07 480.5,-10.75 481.31,-17.7"/>
</g>
<!-- Node6 -->
<g id="node6" class="node">
<title>Node6</title>
<g id="a_node6"><a xlink:title=" ">
<polygon fill="#e0e0e0" stroke="#999999" points="167.5,-19 114.5,-19 114.5,0 167.5,0 167.5,-19"/>
<text text-anchor="middle" x="141" y="-7" font-family="Helvetica,sans-Serif" font-size="10.00">complex</text>
</a>
</g>
</g>
<!-- Node3&#45;&gt;Node6 -->
<g id="edge5" class="edge">
<title>Node3&#45;&gt;Node6</title>
<path fill="none" stroke="#63b8ff" d="M112.61,-54.75C117.12,-47.73 123.59,-37.64 129.21,-28.87"/>
<polygon fill="#63b8ff" stroke="#63b8ff" points="131.99,-31.02 134.45,-20.72 126.1,-27.24 131.99,-31.02"/>
</g>
<!-- Node7&#45;&gt;Node3 -->
<g id="edge7" class="edge">
<title>Node7&#45;&gt;Node3</title>
<path fill="none" stroke="#63b8ff" d="M132.88,-109.75C128.82,-102.81 123.01,-92.86 117.91,-84.16"/>
<polygon fill="#63b8ff" stroke="#63b8ff" points="121.06,-82.61 112.99,-75.75 115.02,-86.15 121.06,-82.61"/>
</g>
<!-- Node8 -->
<g id="node8" class="node">
<title>Node8</title>
<g id="a_node8"><a xlink:title=" ">
<polygon fill="#e0e0e0" stroke="#999999" points="216,-74 170,-74 170,-55 216,-55 216,-74"/>
<text text-anchor="middle" x="193" y="-62" font-family="Helvetica,sans-Serif" font-size="10.00">variant</text>
</a>
</g>
</g>
<!-- Node7&#45;&gt;Node8 -->
<g id="edge8" class="edge">
<title>Node7&#45;&gt;Node8</title>
<path fill="none" stroke="#63b8ff" d="M147.08,-109.75C154.84,-102.27 166.21,-91.32 175.7,-82.17"/>
<polygon fill="#63b8ff" stroke="#63b8ff" points="177.86,-84.95 182.63,-75.49 173,-79.91 177.86,-84.95"/>
</g>
<!-- Node9&#45;&gt;Node3 -->
<g id="edge12" class="edge">
<title>Node9&#45;&gt;Node3</title>
<path fill="none" stroke="#63b8ff" d="M308.27,-164.53C284.45,-156.23 248.84,-143.09 219,-129 187.59,-114.17 153.05,-93.95 130.75,-80.34"/>
<polygon fill="#63b8ff" stroke="#63b8ff" points="132.77,-77.48 122.42,-75.22 129.1,-83.44 132.77,-77.48"/>
</g>
<!-- Node9&#45;&gt;Node7 -->
<g id="edge14" class="edge">
<title>Node9&#45;&gt;Node7</title>
<path fill="none" stroke="#63b8ff" d="M301.58,-164.51C268.65,-155.65 218.16,-142.07 181.98,-132.33"/>
<polygon fill="#63b8ff" stroke="#63b8ff" points="183.28,-129.06 172.71,-129.84 181.46,-135.82 183.28,-129.06"/>
</g>
<!-- Node10 -->
<g id="node10" class="node">
<title>Node10</title>
<g id="a_node10"><a xlink:href="token__type_8h.html" target="_top" xlink:title=" ">
<polygon fill="white" stroke="#666666" points="634.5,-74 561.5,-74 561.5,-55 634.5,-55 634.5,-74"/>
<text text-anchor="middle" x="598" y="-62" font-family="Helvetica,sans-Serif" font-size="10.00">token_type.h</text>
</a>
</g>
</g>
<!-- Node9&#45;&gt;Node10 -->
<g id="edge10" class="edge">
<title>Node9&#45;&gt;Node10</title>
<path fill="none" stroke="#63b8ff" d="M370.64,-171.5C430.76,-167.4 548.76,-156.07 579,-129 591.2,-118.08 595.71,-99.67 597.31,-85.48"/>
<polygon fill="#63b8ff" stroke="#63b8ff" points="600.77,-86.12 597.97,-75.9 593.79,-85.63 600.77,-86.12"/>
</g>
<!-- Node12 -->
<g id="node12" class="node">
<title>Node12</title>
<g id="a_node12"><a xlink:title=" ">
<polygon fill="#e0e0e0" stroke="#999999" points="379.5,-129 296.5,-129 296.5,-110 379.5,-110 379.5,-129"/>
<text text-anchor="middle" x="338" y="-117" font-family="Helvetica,sans-Serif" font-size="10.00">uni_algo/conv.h</text>
</a>
</g>
</g>
<!-- Node9&#45;&gt;Node12 -->
<g id="edge13" class="edge">
<title>Node9&#45;&gt;Node12</title>
<path fill="none" stroke="#63b8ff" d="M335.5,-164.75C335.86,-158.27 336.38,-149.16 336.85,-140.9"/>
<polygon fill="#63b8ff" stroke="#63b8ff" points="340.34,-141.13 337.41,-130.95 333.35,-140.74 340.34,-141.13"/>
</g>
<!-- Node13 -->
<g id="node13" class="node">
<title>Node13</title>
<g id="a_node13"><a xlink:href="conversion_8h.html" target="_top" xlink:title=" ">
<polygon fill="white" stroke="#666666" points="569.5,-129 456.5,-129 456.5,-110 569.5,-110 569.5,-129"/>
<text text-anchor="middle" x="513" y="-117" font-family="Helvetica,sans-Serif" font-size="10.00">interface/conversion.h</text>
</a>
</g>
</g>
<!-- Node9&#45;&gt;Node13 -->
<g id="edge15" class="edge">
<title>Node9&#45;&gt;Node13</title>
<path fill="none" stroke="#63b8ff" d="M365.2,-164.51C394.56,-155.76 439.4,-142.42 471.98,-132.71"/>
<polygon fill="#63b8ff" stroke="#63b8ff" points="472.92,-136.09 481.5,-129.88 470.92,-129.38 472.92,-136.09"/>
</g>
<!-- Node14 -->
<g id="node14" class="node">
<title>Node14</title>
<g id="a_node14"><a xlink:title=" ">
<polygon fill="#e0e0e0" stroke="#999999" points="438,-129 398,-129 398,-110 438,-110 438,-129"/>
<text text-anchor="middle" x="418" y="-117" font-family="Helvetica,sans-Serif" font-size="10.00">utility</text>
</a>
</g>
</g>
<!-- Node9&#45;&gt;Node14 -->
<g id="edge19" class="edge">
<title>Node9&#45;&gt;Node14</title>
<path fill="none" stroke="#63b8ff" d="M349.08,-164.51C361.56,-156.54 380.02,-144.75 394.69,-135.38"/>
<polygon fill="#63b8ff" stroke="#63b8ff" points="396.31,-138.5 402.85,-130.17 392.54,-132.6 396.31,-138.5"/>
</g>
<!-- Node15 -->
<g id="node15" class="node">
<title>Node15</title>
<g id="a_node15"><a xlink:title=" ">
<polygon fill="#e0e0e0" stroke="#999999" points="278,-129 228,-129 228,-110 278,-110 278,-129"/>
<text text-anchor="middle" x="253" y="-117" font-family="Helvetica,sans-Serif" font-size="10.00">optional</text>
</a>
</g>
</g>
<!-- Node9&#45;&gt;Node15 -->
<g id="edge20" class="edge">
<title>Node9&#45;&gt;Node15</title>
<path fill="none" stroke="#63b8ff" d="M321.09,-164.51C308.76,-156.54 290.53,-144.75 276.03,-135.38"/>
<polygon fill="#63b8ff" stroke="#63b8ff" points="278.27,-132.67 267.98,-130.18 274.47,-138.55 278.27,-132.67"/>
</g>
<!-- Node16 -->
<g id="node16" class="node">
<title>Node16</title>
<g id="a_node16"><a xlink:href="position_8h.html" target="_top" xlink:title=" ">
<polygon fill="white" stroke="#666666" points="685.5,-129 626.5,-129 626.5,-110 685.5,-110 685.5,-129"/>
<text text-anchor="middle" x="656" y="-117" font-family="Helvetica,sans-Serif" font-size="10.00">position.h</text>
</a>
</g>
</g>
<!-- Node9&#45;&gt;Node16 -->
<g id="edge21" class="edge">
<title>Node9&#45;&gt;Node16</title>
<path fill="none" stroke="#63b8ff" d="M370.92,-168.1C423.8,-160.07 525.67,-144.27 612,-129 613.01,-128.82 614.02,-128.64 615.05,-128.46"/>
<polygon fill="#63b8ff" stroke="#63b8ff" points="615.52,-131.93 624.71,-126.66 614.24,-125.05 615.52,-131.93"/>
</g>
<!-- Node11 -->
<g id="node11" class="node">
<title>Node11</title>
<g id="a_node11"><a xlink:title=" ">
<polygon fill="#e0e0e0" stroke="#999999" points="702,-19 648,-19 648,0 702,0 702,-19"/>
<text text-anchor="middle" x="675" y="-7" font-family="Helvetica,sans-Serif" font-size="10.00">iostream</text>
</a>
</g>
</g>
<!-- Node10&#45;&gt;Node11 -->
<g id="edge11" class="edge">
<title>Node10&#45;&gt;Node11</title>
<path fill="none" stroke="#63b8ff" d="M611.06,-54.51C622.52,-46.62 639.43,-34.98 652.98,-25.65"/>
<polygon fill="#63b8ff" stroke="#63b8ff" points="654.63,-28.77 660.88,-20.22 650.66,-23 654.63,-28.77"/>
</g>
<!-- Node13&#45;&gt;Node3 -->
<g id="edge17" class="edge">
<title>Node13&#45;&gt;Node3</title>
<path fill="none" stroke="#63b8ff" d="M456.12,-111.16C453.03,-110.77 449.98,-110.38 447,-110 323.51,-94.28 289.74,-92.08 163.09,-74.26"/>
<polygon fill="#63b8ff" stroke="#63b8ff" points="163.66,-70.8 153.27,-72.87 162.68,-77.73 163.66,-70.8"/>
</g>
<!-- Node13&#45;&gt;Node5 -->
<g id="edge16" class="edge">
<title>Node13&#45;&gt;Node5</title>
<path fill="none" stroke="#63b8ff" d="M513,-109.66C513,-92.57 513,-54.61 513,-30.92"/>
<polygon fill="#63b8ff" stroke="#63b8ff" points="516.5,-30.97 513,-20.97 509.5,-30.97 516.5,-30.97"/>
</g>
<!-- Node13&#45;&gt;Node10 -->
<g id="edge18" class="edge">
<title>Node13&#45;&gt;Node10</title>
<path fill="none" stroke="#63b8ff" d="M527.42,-109.51C540.2,-101.54 559.1,-89.75 574.13,-80.38"/>
<polygon fill="#63b8ff" stroke="#63b8ff" points="575.88,-83.42 582.51,-75.16 572.17,-77.48 575.88,-83.42"/>
</g>
<!-- Node18&#45;&gt;Node2 -->
<g id="edge31" class="edge">
<title>Node18&#45;&gt;Node2</title>
<path fill="none" stroke="#63b8ff" d="M252.21,-274.51C236.9,-266.31 214.03,-254.07 196.3,-244.58"/>
<polygon fill="#63b8ff" stroke="#63b8ff" points="198.35,-241.71 187.88,-240.07 195.04,-247.88 198.35,-241.71"/>
</g>
<!-- Node18&#45;&gt;Node3 -->
<g id="edge29" class="edge">
<title>Node18&#45;&gt;Node3</title>
<path fill="none" stroke="#63b8ff" d="M215.19,-278.17C186.06,-272.69 151.36,-261.56 128,-239 84.91,-197.39 77.56,-168.79 89,-110 90.67,-101.42 93.99,-92.39 97.34,-84.73"/>
<polygon fill="#63b8ff" stroke="#63b8ff" points="100.47,-86.3 101.57,-75.76 94.14,-83.31 100.47,-86.3"/>
</g>
<!-- Node18&#45;&gt;Node5 -->
<g id="edge25" class="edge">
<title>Node18&#45;&gt;Node5</title>
<path fill="none" stroke="#63b8ff" d="M322.68,-281.71C441.03,-276.3 714,-255.2 714,-175.5 714,-175.5 714,-175.5 714,-118.5 714,-42.68 601.66,-19.87 544.95,-13.18"/>
<polygon fill="#63b8ff" stroke="#63b8ff" points="545.57,-9.72 535.26,-12.14 544.83,-16.68 545.57,-9.72"/>
</g>
<!-- Node18&#45;&gt;Node7 -->
<g id="edge27" class="edge">
<title>Node18&#45;&gt;Node7</title>
<path fill="none" stroke="#63b8ff" d="M269.63,-274.6C270.66,-253.13 270.31,-197.9 243,-165 234.15,-154.34 203.57,-142.03 177.69,-133.06"/>
<polygon fill="#63b8ff" stroke="#63b8ff" points="178.98,-129.81 168.39,-129.92 176.74,-136.44 178.98,-129.81"/>
</g>
<!-- Node18&#45;&gt;Node9 -->
<g id="edge28" class="edge">
<title>Node18&#45;&gt;Node9</title>
<path fill="none" stroke="#63b8ff" d="M274.4,-274.66C285.13,-257.1 309.34,-217.48 323.7,-193.98"/>
<polygon fill="#63b8ff" stroke="#63b8ff" points="326.51,-196.11 328.74,-185.75 320.53,-192.46 326.51,-196.11"/>
</g>
<!-- Node18&#45;&gt;Node11 -->
<g id="edge26" class="edge">
<title>Node18&#45;&gt;Node11</title>
<path fill="none" stroke="#63b8ff" d="M322.53,-282.74C448.29,-279.52 752,-262.71 752,-175.5 752,-175.5 752,-175.5 752,-118.5 752,-79.84 718.89,-45.44 696.09,-26.34"/>
<polygon fill="#63b8ff" stroke="#63b8ff" points="698.54,-23.82 688.55,-20.29 694.16,-29.28 698.54,-23.82"/>
</g>
<!-- Node18&#45;&gt;Node16 -->
<g id="edge32" class="edge">
<title>Node18&#45;&gt;Node16</title>
<path fill="none" stroke="#63b8ff" d="M290.36,-274.5C354.85,-247.34 547.84,-166.05 624.3,-133.85"/>
<polygon fill="#63b8ff" stroke="#63b8ff" points="625.46,-137.16 633.31,-130.06 622.74,-130.71 625.46,-137.16"/>
</g>
<!-- Node18&#45;&gt;Node17 -->
<g id="edge30" class="edge">
<title>Node18&#45;&gt;Node17</title>
<path fill="none" stroke="#63b8ff" d="M264.01,-274.66C254.13,-257.18 231.91,-217.84 218.62,-194.3"/>
<polygon fill="#63b8ff" stroke="#63b8ff" points="221.77,-192.76 213.81,-185.78 215.68,-196.21 221.77,-192.76"/>
</g>
</g>
</svg>
