<?xml version="1.0" encoding="UTF-8" standalone="no"?>
<!DOCTYPE svg PUBLIC "-//W3C//DTD SVG 1.1//EN"
 "http://www.w3.org/Graphics/SVG/1.1/DTD/svg11.dtd">
<!-- Generated by graphviz version 7.1.0 (20230121.1956)
 -->
<!-- Title: src/core/evaluation/operations/monadic_operators.cpp Pages: 1 -->
<!--zoomable 434 -->
<svg id="main" version="1.1" xmlns="http://www.w3.org/2000/svg" xmlns:xlink="http://www.w3.org/1999/xlink" xml:space="preserve" onload="init(evt)">
<style type="text/css"><![CDATA[
.edge:hover path { stroke: red; }
.edge:hover polygon { stroke: red; fill: red; }
]]></style>
<script type="text/javascript"><![CDATA[
var edges = document.getElementsByTagName('g');
if (edges && edges.length) {
  for (var i=0;i<edges.length;i++) {
    if (edges[i].id.substr(0,4)=='edge') {
      edges[i].setAttribute('class','edge');
    }
  }
}
]]></script>
        <defs>
                <circle id="rim" cx="0" cy="0" r="7"/>
                <circle id="rim2" cx="0" cy="0" r="3.5"/>
                <g id="zoomPlus">
                        <use xlink:href="#rim" fill="#404040">
                                <set attributeName="fill" to="#808080" begin="zoomplus.mouseover" end="zoomplus.mouseout"/>
                        </use>
                        <path d="M-4,0h8M0,-4v8" fill="none" stroke="white" stroke-width="1.5" pointer-events="none"/>
                </g>
                <g id="zoomMin">
                        <use xlink:href="#rim" fill="#404040">
                                <set attributeName="fill" to="#808080" begin="zoomminus.mouseover" end="zoomminus.mouseout"/>
                        </use>
                        <path d="M-4,0h8" fill="none" stroke="white" stroke-width="1.5" pointer-events="none"/>
                </g>
                <g id="dirArrow">
                        <path fill="none" stroke="white" stroke-width="1.5" d="M0,-3.0v7 M-2.5,-0.5L0,-3.0L2.5,-0.5"/>
                </g>
               <g id="resetDef">
                       <use xlink:href="#rim2" fill="#404040">
                               <set attributeName="fill" to="#808080" begin="reset.mouseover" end="reset.mouseout"/>
                       </use>
               </g>
        </defs>

<script type="text/javascript">
var viewWidth = 1021;
var viewHeight = 434;
var sectionId = 'dynsection-0';
</script>
<script xlink:href="svgpan.js"/>
<svg id="graph" class="graph">
<g id="viewport">
<title>src/core/evaluation/operations/monadic_operators.cpp</title>
<!-- Node1 -->
<g id="node1" class="node">
<title>Node1</title>
<g id="a_node1"><a xlink:title=" ">
<polygon fill="#999999" stroke="#666666" points="515,-426 411,-426 411,-385 515,-385 515,-426"/>
<text text-anchor="start" x="419" y="-414" font-family="Helvetica,sans-Serif" font-size="10.00">src/core/evaluation</text>
<text text-anchor="start" x="419" y="-403" font-family="Helvetica,sans-Serif" font-size="10.00">/operations/monadic</text>
<text text-anchor="middle" x="463" y="-392" font-family="Helvetica,sans-Serif" font-size="10.00">_operators.cpp</text>
</a>
</g>
</g>
<!-- Node2 -->
<g id="node2" class="node">
<title>Node2</title>
<g id="a_node2"><a xlink:href="monadic__operators_8h.html" target="_top" xlink:title=" ">
<polygon fill="white" stroke="#666666" points="233.5,-349 126.5,-349 126.5,-330 233.5,-330 233.5,-349"/>
<text text-anchor="middle" x="180" y="-337" font-family="Helvetica,sans-Serif" font-size="10.00">monadic_operators.h</text>
</a>
</g>
</g>
<!-- Node1&#45;&gt;Node2 -->
<g id="edge1" class="edge">
<title>Node1&#45;&gt;Node2</title>
<path fill="none" stroke="#63b8ff" d="M410.76,-392.69C359.39,-381.07 281.48,-363.45 230.66,-351.96"/>
<polygon fill="#63b8ff" stroke="#63b8ff" points="231.62,-348.59 221.09,-349.79 230.07,-355.41 231.62,-348.59"/>
</g>
<!-- Node15 -->
<g id="node15" class="node">
<title>Node15</title>
<g id="a_node15"><a xlink:title=" ">
<polygon fill="#e0e0e0" stroke="#999999" points="829,-129 789,-129 789,-110 829,-110 829,-129"/>
<text text-anchor="middle" x="809" y="-117" font-family="Helvetica,sans-Serif" font-size="10.00">utility</text>
</a>
</g>
</g>
<!-- Node1&#45;&gt;Node15 -->
<g id="edge34" class="edge">
<title>Node1&#45;&gt;Node15</title>
<path fill="none" stroke="#63b8ff" d="M515.47,-403.41C592.46,-398.72 727,-377.38 727,-285.5 727,-285.5 727,-285.5 727,-228.5 727,-189.01 762.2,-154.91 786.48,-136.08"/>
<polygon fill="#63b8ff" stroke="#63b8ff" points="788.3,-139.09 794.24,-130.32 784.13,-133.47 788.3,-139.09"/>
</g>
<!-- Node18 -->
<g id="node18" class="node">
<title>Node18</title>
<g id="a_node18"><a xlink:title=" ">
<polygon fill="#e0e0e0" stroke="#999999" points="80,-184 28,-184 28,-165 80,-165 80,-184"/>
<text text-anchor="middle" x="54" y="-172" font-family="Helvetica,sans-Serif" font-size="10.00">memory</text>
</a>
</g>
</g>
<!-- Node1&#45;&gt;Node18 -->
<g id="edge43" class="edge">
<title>Node1&#45;&gt;Node18</title>
<path fill="none" stroke="#63b8ff" d="M410.58,-401.89C325.8,-396.72 163.48,-382.65 118,-349 68.36,-312.28 57.19,-232.81 54.7,-195.55"/>
<polygon fill="#63b8ff" stroke="#63b8ff" points="58.2,-195.59 54.2,-185.78 51.21,-195.94 58.2,-195.59"/>
</g>
<!-- Node20 -->
<g id="node20" class="node">
<title>Node20</title>
<g id="a_node20"><a xlink:href="error_8h.html" target="_top" xlink:title=" ">
<polygon fill="white" stroke="#666666" points="889.5,-184 824.5,-184 824.5,-165 889.5,-165 889.5,-184"/>
<text text-anchor="middle" x="857" y="-172" font-family="Helvetica,sans-Serif" font-size="10.00">core/error.h</text>
</a>
</g>
</g>
<!-- Node1&#45;&gt;Node20 -->
<g id="edge35" class="edge">
<title>Node1&#45;&gt;Node20</title>
<path fill="none" stroke="#63b8ff" d="M515.44,-398.86C585.42,-390.52 704.74,-373.24 741,-349 798.92,-310.28 835.27,-231.86 849.78,-195.21"/>
<polygon fill="#63b8ff" stroke="#63b8ff" points="853.03,-196.5 853.32,-185.91 846.49,-194.01 853.03,-196.5"/>
</g>
<!-- Node3 -->
<g id="node3" class="node">
<title>Node3</title>
<g id="a_node3"><a xlink:href="operation_8h.html" target="_top" xlink:title=" ">
<polygon fill="white" stroke="#666666" points="155.5,-239 90.5,-239 90.5,-220 155.5,-220 155.5,-239"/>
<text text-anchor="middle" x="123" y="-227" font-family="Helvetica,sans-Serif" font-size="10.00">operation.h</text>
</a>
</g>
</g>
<!-- Node2&#45;&gt;Node3 -->
<g id="edge2" class="edge">
<title>Node2&#45;&gt;Node3</title>
<path fill="none" stroke="#63b8ff" d="M175.34,-329.66C166.15,-312.26 145.53,-273.19 133.09,-249.62"/>
<polygon fill="#63b8ff" stroke="#63b8ff" points="136.2,-248.01 128.44,-240.8 130.01,-251.28 136.2,-248.01"/>
</g>
<!-- Node4 -->
<g id="node4" class="node">
<title>Node4</title>
<g id="a_node4"><a xlink:href="datatypes_8h.html" target="_top" xlink:title=" ">
<polygon fill="white" stroke="#666666" points="290.5,-74 201.5,-74 201.5,-55 290.5,-55 290.5,-74"/>
<text text-anchor="middle" x="246" y="-62" font-family="Helvetica,sans-Serif" font-size="10.00">core/datatypes.h</text>
</a>
</g>
</g>
<!-- Node2&#45;&gt;Node4 -->
<g id="edge24" class="edge">
<title>Node2&#45;&gt;Node4</title>
<path fill="none" stroke="#63b8ff" d="M126.48,-329.73C73.42,-317.61 0,-290.09 0,-230.5 0,-230.5 0,-230.5 0,-173.5 0,-131.44 122.09,-95.04 194.25,-77.2"/>
<polygon fill="#63b8ff" stroke="#63b8ff" points="195.02,-80.62 203.91,-74.86 193.36,-73.81 195.02,-80.62"/>
</g>
<!-- Node19 -->
<g id="node19" class="node">
<title>Node19</title>
<g id="a_node19"><a xlink:href="ast_8h.html" target="_top" xlink:title=" ">
<polygon fill="white" stroke="#666666" points="275.5,-294 168.5,-294 168.5,-275 275.5,-275 275.5,-294"/>
<text text-anchor="middle" x="222" y="-282" font-family="Helvetica,sans-Serif" font-size="10.00">core/evaluation/ast.h</text>
</a>
</g>
</g>
<!-- Node2&#45;&gt;Node19 -->
<g id="edge25" class="edge">
<title>Node2&#45;&gt;Node19</title>
<path fill="none" stroke="#63b8ff" d="M186.94,-329.75C192.62,-322.58 200.84,-312.2 207.89,-303.3"/>
<polygon fill="#63b8ff" stroke="#63b8ff" points="210.51,-305.64 213.97,-295.63 205.02,-301.29 210.51,-305.64"/>
</g>
<!-- Node3&#45;&gt;Node4 -->
<g id="edge3" class="edge">
<title>Node3&#45;&gt;Node4</title>
<path fill="none" stroke="#63b8ff" d="M118.51,-219.74C108.36,-198.6 86.4,-144.01 111,-110 120.75,-96.53 157.64,-84.91 190.4,-76.92"/>
<polygon fill="#63b8ff" stroke="#63b8ff" points="190.9,-80.4 199.84,-74.7 189.3,-73.59 190.9,-80.4"/>
</g>
<!-- Node8 -->
<g id="node8" class="node">
<title>Node8</title>
<g id="a_node8"><a xlink:href="array_8h.html" target="_top" xlink:title=" ">
<polygon fill="white" stroke="#666666" points="186.5,-129 119.5,-129 119.5,-110 186.5,-110 186.5,-129"/>
<text text-anchor="middle" x="153" y="-117" font-family="Helvetica,sans-Serif" font-size="10.00">core/array.h</text>
</a>
</g>
</g>
<!-- Node3&#45;&gt;Node8 -->
<g id="edge7" class="edge">
<title>Node3&#45;&gt;Node8</title>
<path fill="none" stroke="#63b8ff" d="M125.46,-219.66C130.25,-202.42 140.94,-163.9 147.51,-140.27"/>
<polygon fill="#63b8ff" stroke="#63b8ff" points="150.8,-141.49 150.11,-130.92 144.06,-139.62 150.8,-141.49"/>
</g>
<!-- Node10 -->
<g id="node10" class="node">
<title>Node10</title>
<g id="a_node10"><a xlink:href="token_8h.html" target="_top" xlink:title=" ">
<polygon fill="white" stroke="#666666" points="394.5,-184 323.5,-184 323.5,-165 394.5,-165 394.5,-184"/>
<text text-anchor="middle" x="359" y="-172" font-family="Helvetica,sans-Serif" font-size="10.00">core/token.h</text>
</a>
</g>
</g>
<!-- Node3&#45;&gt;Node10 -->
<g id="edge10" class="edge">
<title>Node3&#45;&gt;Node10</title>
<path fill="none" stroke="#63b8ff" d="M155.81,-221.13C196.45,-212.01 265.93,-196.4 312.16,-186.02"/>
<polygon fill="#63b8ff" stroke="#63b8ff" points="312.91,-189.44 321.9,-183.83 311.38,-182.61 312.91,-189.44"/>
</g>
<!-- Node3&#45;&gt;Node18 -->
<g id="edge23" class="edge">
<title>Node3&#45;&gt;Node18</title>
<path fill="none" stroke="#63b8ff" d="M111.3,-219.51C101.22,-211.77 86.46,-200.43 74.44,-191.2"/>
<polygon fill="#63b8ff" stroke="#63b8ff" points="76.79,-188.6 66.73,-185.28 72.53,-194.15 76.79,-188.6"/>
</g>
<!-- Node5 -->
<g id="node5" class="node">
<title>Node5</title>
<g id="a_node5"><a xlink:title=" ">
<polygon fill="#e0e0e0" stroke="#999999" points="234,-19 190,-19 190,0 234,0 234,-19"/>
<text text-anchor="middle" x="212" y="-7" font-family="Helvetica,sans-Serif" font-size="10.00">vector</text>
</a>
</g>
</g>
<!-- Node4&#45;&gt;Node5 -->
<g id="edge4" class="edge">
<title>Node4&#45;&gt;Node5</title>
<path fill="none" stroke="#63b8ff" d="M240.39,-54.75C235.88,-47.73 229.41,-37.64 223.79,-28.87"/>
<polygon fill="#63b8ff" stroke="#63b8ff" points="226.9,-27.24 218.55,-20.72 221.01,-31.02 226.9,-27.24"/>
</g>
<!-- Node6 -->
<g id="node6" class="node">
<title>Node6</title>
<g id="a_node6"><a xlink:title=" ">
<polygon fill="#e0e0e0" stroke="#999999" points="536.5,-19 495.5,-19 495.5,0 536.5,0 536.5,-19"/>
<text text-anchor="middle" x="516" y="-7" font-family="Helvetica,sans-Serif" font-size="10.00">string</text>
</a>
</g>
</g>
<!-- Node4&#45;&gt;Node6 -->
<g id="edge5" class="edge">
<title>Node4&#45;&gt;Node6</title>
<path fill="none" stroke="#63b8ff" d="M290.89,-54.69C345.35,-44 435.83,-26.24 483.82,-16.82"/>
<polygon fill="#63b8ff" stroke="#63b8ff" points="484.43,-20.26 493.57,-14.9 483.08,-13.39 484.43,-20.26"/>
</g>
<!-- Node7 -->
<g id="node7" class="node">
<title>Node7</title>
<g id="a_node7"><a xlink:title=" ">
<polygon fill="#e0e0e0" stroke="#999999" points="305.5,-19 252.5,-19 252.5,0 305.5,0 305.5,-19"/>
<text text-anchor="middle" x="279" y="-7" font-family="Helvetica,sans-Serif" font-size="10.00">complex</text>
</a>
</g>
</g>
<!-- Node4&#45;&gt;Node7 -->
<g id="edge6" class="edge">
<title>Node4&#45;&gt;Node7</title>
<path fill="none" stroke="#63b8ff" d="M251.45,-54.75C255.77,-47.81 261.96,-37.86 267.38,-29.16"/>
<polygon fill="#63b8ff" stroke="#63b8ff" points="270.32,-31.07 272.63,-20.73 264.38,-27.37 270.32,-31.07"/>
</g>
<!-- Node8&#45;&gt;Node4 -->
<g id="edge8" class="edge">
<title>Node8&#45;&gt;Node4</title>
<path fill="none" stroke="#63b8ff" d="M168.78,-109.51C183.02,-101.39 204.24,-89.3 220.83,-79.85"/>
<polygon fill="#63b8ff" stroke="#63b8ff" points="222.19,-83.1 229.14,-75.11 218.72,-77.02 222.19,-83.1"/>
</g>
<!-- Node9 -->
<g id="node9" class="node">
<title>Node9</title>
<g id="a_node9"><a xlink:title=" ">
<polygon fill="#e0e0e0" stroke="#999999" points="176,-74 130,-74 130,-55 176,-55 176,-74"/>
<text text-anchor="middle" x="153" y="-62" font-family="Helvetica,sans-Serif" font-size="10.00">variant</text>
</a>
</g>
</g>
<!-- Node8&#45;&gt;Node9 -->
<g id="edge9" class="edge">
<title>Node8&#45;&gt;Node9</title>
<path fill="none" stroke="#63b8ff" d="M153,-109.75C153,-103.27 153,-94.16 153,-85.9"/>
<polygon fill="#63b8ff" stroke="#63b8ff" points="156.5,-85.96 153,-75.96 149.5,-85.96 156.5,-85.96"/>
</g>
<!-- Node10&#45;&gt;Node4 -->
<g id="edge13" class="edge">
<title>Node10&#45;&gt;Node4</title>
<path fill="none" stroke="#63b8ff" d="M329.87,-164.53C311.19,-157.48 287.61,-145.99 272,-129 260.77,-116.78 254.06,-99.05 250.28,-85.43"/>
<polygon fill="#63b8ff" stroke="#63b8ff" points="253.71,-84.71 247.94,-75.82 246.9,-86.36 253.71,-84.71"/>
</g>
<!-- Node10&#45;&gt;Node8 -->
<g id="edge15" class="edge">
<title>Node10&#45;&gt;Node8</title>
<path fill="none" stroke="#63b8ff" d="M324.05,-164.51C289.16,-155.53 235.4,-141.7 197.48,-131.94"/>
<polygon fill="#63b8ff" stroke="#63b8ff" points="198.77,-128.66 188.21,-129.56 197.02,-135.44 198.77,-128.66"/>
</g>
<!-- Node11 -->
<g id="node11" class="node">
<title>Node11</title>
<g id="a_node11"><a xlink:href="token__type_8h.html" target="_top" xlink:title=" ">
<polygon fill="white" stroke="#666666" points="541.5,-74 468.5,-74 468.5,-55 541.5,-55 541.5,-74"/>
<text text-anchor="middle" x="505" y="-62" font-family="Helvetica,sans-Serif" font-size="10.00">token_type.h</text>
</a>
</g>
</g>
<!-- Node10&#45;&gt;Node11 -->
<g id="edge11" class="edge">
<title>Node10&#45;&gt;Node11</title>
<path fill="none" stroke="#63b8ff" d="M394.99,-169.78C423.41,-164.97 462.12,-154.01 486,-129 497.19,-117.28 501.82,-99.23 503.72,-85.36"/>
<polygon fill="#63b8ff" stroke="#63b8ff" points="507.18,-85.91 504.66,-75.62 500.22,-85.23 507.18,-85.91"/>
</g>
<!-- Node13 -->
<g id="node13" class="node">
<title>Node13</title>
<g id="a_node13"><a xlink:title=" ">
<polygon fill="#e0e0e0" stroke="#999999" points="770.5,-129 687.5,-129 687.5,-110 770.5,-110 770.5,-129"/>
<text text-anchor="middle" x="729" y="-117" font-family="Helvetica,sans-Serif" font-size="10.00">uni_algo/conv.h</text>
</a>
</g>
</g>
<!-- Node10&#45;&gt;Node13 -->
<g id="edge14" class="edge">
<title>Node10&#45;&gt;Node13</title>
<path fill="none" stroke="#63b8ff" d="M394.81,-168.37C460.28,-158.99 599.54,-139.04 676.01,-128.09"/>
<polygon fill="#63b8ff" stroke="#63b8ff" points="676.37,-131.57 685.77,-126.69 675.38,-124.65 676.37,-131.57"/>
</g>
<!-- Node14 -->
<g id="node14" class="node">
<title>Node14</title>
<g id="a_node14"><a xlink:href="conversion_8h.html" target="_top" xlink:title=" ">
<polygon fill="white" stroke="#666666" points="477,-129 349,-129 349,-110 477,-110 477,-129"/>
<text text-anchor="middle" x="413" y="-117" font-family="Helvetica,sans-Serif" font-size="10.00">core/helpers/conversion.h</text>
</a>
</g>
</g>
<!-- Node10&#45;&gt;Node14 -->
<g id="edge16" class="edge">
<title>Node10&#45;&gt;Node14</title>
<path fill="none" stroke="#63b8ff" d="M367.92,-164.75C375.45,-157.35 386.47,-146.54 395.73,-137.45"/>
<polygon fill="#63b8ff" stroke="#63b8ff" points="398.12,-140 402.81,-130.5 393.22,-135.01 398.12,-140"/>
</g>
<!-- Node10&#45;&gt;Node15 -->
<g id="edge20" class="edge">
<title>Node10&#45;&gt;Node15</title>
<path fill="none" stroke="#63b8ff" d="M394.81,-171.89C466.07,-168.22 630.74,-157.42 777.53,-129.15"/>
<polygon fill="#63b8ff" stroke="#63b8ff" points="777.89,-132.65 787.03,-127.29 776.55,-125.78 777.89,-132.65"/>
</g>
<!-- Node16 -->
<g id="node16" class="node">
<title>Node16</title>
<g id="a_node16"><a xlink:title=" ">
<polygon fill="#e0e0e0" stroke="#999999" points="331,-129 281,-129 281,-110 331,-110 331,-129"/>
<text text-anchor="middle" x="306" y="-117" font-family="Helvetica,sans-Serif" font-size="10.00">optional</text>
</a>
</g>
</g>
<!-- Node10&#45;&gt;Node16 -->
<g id="edge21" class="edge">
<title>Node10&#45;&gt;Node16</title>
<path fill="none" stroke="#63b8ff" d="M350.25,-164.75C342.85,-157.35 332.04,-146.54 322.95,-137.45"/>
<polygon fill="#63b8ff" stroke="#63b8ff" points="325.56,-135.11 316.01,-130.51 320.61,-140.06 325.56,-135.11"/>
</g>
<!-- Node17 -->
<g id="node17" class="node">
<title>Node17</title>
<g id="a_node17"><a xlink:href="position_8h.html" target="_top" xlink:title=" ">
<polygon fill="white" stroke="#666666" points="592.5,-129 533.5,-129 533.5,-110 592.5,-110 592.5,-129"/>
<text text-anchor="middle" x="563" y="-117" font-family="Helvetica,sans-Serif" font-size="10.00">position.h</text>
</a>
</g>
</g>
<!-- Node10&#45;&gt;Node17 -->
<g id="edge22" class="edge">
<title>Node10&#45;&gt;Node17</title>
<path fill="none" stroke="#63b8ff" d="M393.61,-164.51C429.15,-155.28 484.45,-140.91 522.12,-131.12"/>
<polygon fill="#63b8ff" stroke="#63b8ff" points="522.95,-134.52 531.74,-128.62 521.18,-127.75 522.95,-134.52"/>
</g>
<!-- Node12 -->
<g id="node12" class="node">
<title>Node12</title>
<g id="a_node12"><a xlink:title=" ">
<polygon fill="#e0e0e0" stroke="#999999" points="686,-19 632,-19 632,0 686,0 686,-19"/>
<text text-anchor="middle" x="659" y="-7" font-family="Helvetica,sans-Serif" font-size="10.00">iostream</text>
</a>
</g>
</g>
<!-- Node11&#45;&gt;Node12 -->
<g id="edge12" class="edge">
<title>Node11&#45;&gt;Node12</title>
<path fill="none" stroke="#63b8ff" d="M531.12,-54.51C556.2,-45.88 594.31,-32.76 622.4,-23.1"/>
<polygon fill="#63b8ff" stroke="#63b8ff" points="623.26,-26.5 631.57,-19.94 620.98,-19.88 623.26,-26.5"/>
</g>
<!-- Node14&#45;&gt;Node4 -->
<g id="edge18" class="edge">
<title>Node14&#45;&gt;Node4</title>
<path fill="none" stroke="#63b8ff" d="M384.67,-109.51C357.24,-100.8 315.42,-87.53 284.88,-77.84"/>
<polygon fill="#63b8ff" stroke="#63b8ff" points="286.22,-74.59 275.63,-74.9 284.1,-81.27 286.22,-74.59"/>
</g>
<!-- Node14&#45;&gt;Node6 -->
<g id="edge17" class="edge">
<title>Node14&#45;&gt;Node6</title>
<path fill="none" stroke="#63b8ff" d="M418.43,-109.73C426.58,-96.93 442.84,-72.75 460,-55 470.31,-44.33 483.19,-33.93 493.99,-25.87"/>
<polygon fill="#63b8ff" stroke="#63b8ff" points="495.94,-28.78 501.98,-20.08 491.83,-23.12 495.94,-28.78"/>
</g>
<!-- Node14&#45;&gt;Node11 -->
<g id="edge19" class="edge">
<title>Node14&#45;&gt;Node11</title>
<path fill="none" stroke="#63b8ff" d="M428.61,-109.51C442.7,-101.39 463.69,-89.3 480.1,-79.85"/>
<polygon fill="#63b8ff" stroke="#63b8ff" points="481.39,-83.14 488.31,-75.11 477.9,-77.07 481.39,-83.14"/>
</g>
<!-- Node19&#45;&gt;Node3 -->
<g id="edge32" class="edge">
<title>Node19&#45;&gt;Node3</title>
<path fill="none" stroke="#63b8ff" d="M205.21,-274.51C189.9,-266.31 167.03,-254.07 149.3,-244.58"/>
<polygon fill="#63b8ff" stroke="#63b8ff" points="151.35,-241.71 140.88,-240.07 148.04,-247.88 151.35,-241.71"/>
</g>
<!-- Node19&#45;&gt;Node4 -->
<g id="edge30" class="edge">
<title>Node19&#45;&gt;Node4</title>
<path fill="none" stroke="#63b8ff" d="M222.97,-274.68C226.51,-242.57 238.75,-131.33 243.8,-85.49"/>
<polygon fill="#63b8ff" stroke="#63b8ff" points="247.26,-86.01 244.88,-75.69 240.3,-85.25 247.26,-86.01"/>
</g>
<!-- Node19&#45;&gt;Node6 -->
<g id="edge26" class="edge">
<title>Node19&#45;&gt;Node6</title>
<path fill="none" stroke="#63b8ff" d="M275.81,-280.2C384.72,-272.04 621,-246.19 621,-175.5 621,-175.5 621,-175.5 621,-118.5 621,-74.8 576.26,-42.13 545.19,-24.71"/>
<polygon fill="#63b8ff" stroke="#63b8ff" points="547.06,-21.75 536.59,-20.11 543.76,-27.92 547.06,-21.75"/>
</g>
<!-- Node19&#45;&gt;Node8 -->
<g id="edge28" class="edge">
<title>Node19&#45;&gt;Node8</title>
<path fill="none" stroke="#63b8ff" d="M218.29,-274.74C207.53,-249.31 176.1,-175.08 161.12,-139.69"/>
<polygon fill="#63b8ff" stroke="#63b8ff" points="164.44,-138.55 157.32,-130.7 157.99,-141.27 164.44,-138.55"/>
</g>
<!-- Node19&#45;&gt;Node10 -->
<g id="edge29" class="edge">
<title>Node19&#45;&gt;Node10</title>
<path fill="none" stroke="#63b8ff" d="M233.21,-274.66C256.29,-256.47 309.4,-214.6 338.69,-191.51"/>
<polygon fill="#63b8ff" stroke="#63b8ff" points="340.76,-194.34 346.45,-185.4 336.43,-188.84 340.76,-194.34"/>
</g>
<!-- Node19&#45;&gt;Node12 -->
<g id="edge27" class="edge">
<title>Node19&#45;&gt;Node12</title>
<path fill="none" stroke="#63b8ff" d="M275.58,-281.48C392.28,-275.61 659,-253.65 659,-175.5 659,-175.5 659,-175.5 659,-118.5 659,-87.92 659,-52.48 659,-30.77"/>
<polygon fill="#63b8ff" stroke="#63b8ff" points="662.5,-30.97 659,-20.97 655.5,-30.97 662.5,-30.97"/>
</g>
<!-- Node19&#45;&gt;Node17 -->
<g id="edge33" class="edge">
<title>Node19&#45;&gt;Node17</title>
<path fill="none" stroke="#63b8ff" d="M240.82,-274.5C297.41,-247.45 466.31,-166.72 534.24,-134.25"/>
<polygon fill="#63b8ff" stroke="#63b8ff" points="535.36,-137.59 542.87,-130.12 532.34,-131.28 535.36,-137.59"/>
</g>
<!-- Node19&#45;&gt;Node18 -->
<g id="edge31" class="edge">
<title>Node19&#45;&gt;Node18</title>
<path fill="none" stroke="#63b8ff" d="M168.17,-277.2C139.66,-271.41 105.72,-260.3 82,-239 69.24,-227.54 62.02,-209.2 58.11,-195.17"/>
<polygon fill="#63b8ff" stroke="#63b8ff" points="61.58,-194.61 55.84,-185.7 54.77,-196.24 61.58,-194.61"/>
</g>
<!-- Node20&#45;&gt;Node4 -->
<g id="edge41" class="edge">
<title>Node20&#45;&gt;Node4</title>
<path fill="none" stroke="#63b8ff" d="M857.26,-164.86C857.15,-150.86 854.68,-123.42 838,-110 817.28,-93.33 445.11,-74.61 301.7,-67.99"/>
<polygon fill="#63b8ff" stroke="#63b8ff" points="302.23,-64.51 292.08,-67.54 301.91,-71.5 302.23,-64.51"/>
</g>
<!-- Node20&#45;&gt;Node12 -->
<g id="edge36" class="edge">
<title>Node20&#45;&gt;Node12</title>
<path fill="none" stroke="#63b8ff" d="M866.17,-164.66C877.53,-152.57 894.53,-130.09 887,-110 875.61,-79.62 866.7,-71.9 839,-55 795.04,-28.18 735.75,-17.5 697.44,-13.27"/>
<polygon fill="#63b8ff" stroke="#63b8ff" points="698.07,-9.81 687.77,-12.3 697.37,-16.78 698.07,-9.81"/>
</g>
<!-- Node20&#45;&gt;Node13 -->
<g id="edge42" class="edge">
<title>Node20&#45;&gt;Node13</title>
<path fill="none" stroke="#63b8ff" d="M835.29,-164.51C814.84,-156.04 783.98,-143.27 760.77,-133.66"/>
<polygon fill="#63b8ff" stroke="#63b8ff" points="762.37,-130.53 751.79,-129.94 759.69,-137 762.37,-130.53"/>
</g>
<!-- Node20&#45;&gt;Node15 -->
<g id="edge38" class="edge">
<title>Node20&#45;&gt;Node15</title>
<path fill="none" stroke="#63b8ff" d="M849.07,-164.75C842.44,-157.43 832.78,-146.76 824.61,-137.74"/>
<polygon fill="#63b8ff" stroke="#63b8ff" points="827.42,-135.63 818.11,-130.56 822.23,-140.33 827.42,-135.63"/>
</g>
<!-- Node21 -->
<g id="node21" class="node">
<title>Node21</title>
<g id="a_node21"><a xlink:title=" ">
<polygon fill="#e0e0e0" stroke="#999999" points="1013,-129 961,-129 961,-110 1013,-110 1013,-129"/>
<text text-anchor="middle" x="987" y="-117" font-family="Helvetica,sans-Serif" font-size="10.00">sstream</text>
</a>
</g>
</g>
<!-- Node20&#45;&gt;Node21 -->
<g id="edge37" class="edge">
<title>Node20&#45;&gt;Node21</title>
<path fill="none" stroke="#63b8ff" d="M879.05,-164.51C899.81,-156.04 931.16,-143.27 954.73,-133.66"/>
<polygon fill="#63b8ff" stroke="#63b8ff" points="955.93,-136.95 963.87,-129.93 953.29,-130.46 955.93,-136.95"/>
</g>
<!-- Node22 -->
<g id="node22" class="node">
<title>Node22</title>
<g id="a_node22"><a xlink:href="error__type_8h.html" target="_top" xlink:title=" ">
<polygon fill="white" stroke="#666666" points="830,-74 762,-74 762,-55 830,-55 830,-74"/>
<text text-anchor="middle" x="796" y="-62" font-family="Helvetica,sans-Serif" font-size="10.00">error_type.h</text>
</a>
</g>
</g>
<!-- Node20&#45;&gt;Node22 -->
<g id="edge39" class="edge">
<title>Node20&#45;&gt;Node22</title>
<path fill="none" stroke="#63b8ff" d="M862.63,-164.7C870.05,-151.88 881.06,-127.66 871,-110 863.12,-96.16 849.05,-86.18 835.21,-79.23"/>
<polygon fill="#63b8ff" stroke="#63b8ff" points="836.71,-76.06 826.16,-75.11 833.81,-82.44 836.71,-76.06"/>
</g>
<!-- Node22&#45;&gt;Node6 -->
<g id="edge40" class="edge">
<title>Node22&#45;&gt;Node6</title>
<path fill="none" stroke="#63b8ff" d="M761.67,-57C706.95,-46.64 600.77,-26.54 547.73,-16.51"/>
<polygon fill="#63b8ff" stroke="#63b8ff" points="548.62,-13.11 538.15,-14.69 547.32,-19.99 548.62,-13.11"/>
</g>
</g>
</svg>
        <g id="navigator" transform="translate(0 0)" fill="#404254">
                <rect fill="#f2f5e9" fill-opacity="0.5" stroke="#606060" stroke-width=".5" x="0" y="0" width="60" height="60"/>
                <use id="zoomplus" xlink:href="#zoomPlus" x="17" y="9" onmousedown="handleZoom(evt,'in')"/>
                <use id="zoomminus" xlink:href="#zoomMin" x="42" y="9" onmousedown="handleZoom(evt,'out')"/>
                <use id="reset" xlink:href="#resetDef" x="30" y="36" onmousedown="handleReset()"/>
                <g id="arrowUp" xlink:href="#dirArrow" transform="translate(30 24)" onmousedown="handlePan(0,-1)">
                  <use xlink:href="#rim" fill="#404040">
                        <set attributeName="fill" to="#808080" begin="arrowUp.mouseover" end="arrowUp.mouseout"/>
                  </use>
                  <path fill="none" stroke="white" stroke-width="1.5" d="M0,-3.0v7 M-2.5,-0.5L0,-3.0L2.5,-0.5"/>
                </g>
                <g id="arrowRight" xlink:href="#dirArrow" transform="rotate(90) translate(36 -43)" onmousedown="handlePan(1,0)">
                  <use xlink:href="#rim" fill="#404040">
                        <set attributeName="fill" to="#808080" begin="arrowRight.mouseover" end="arrowRight.mouseout"/>
                  </use>
                  <path fill="none" stroke="white" stroke-width="1.5" d="M0,-3.0v7 M-2.5,-0.5L0,-3.0L2.5,-0.5"/>
                </g>
                <g id="arrowDown" xlink:href="#dirArrow" transform="rotate(180) translate(-30 -48)" onmousedown="handlePan(0,1)">
                  <use xlink:href="#rim" fill="#404040">
                        <set attributeName="fill" to="#808080" begin="arrowDown.mouseover" end="arrowDown.mouseout"/>
                  </use>
                  <path fill="none" stroke="white" stroke-width="1.5" d="M0,-3.0v7 M-2.5,-0.5L0,-3.0L2.5,-0.5"/>
                </g>
                <g id="arrowLeft" xlink:href="#dirArrow" transform="rotate(270) translate(-36 17)" onmousedown="handlePan(-1,0)">
                  <use xlink:href="#rim" fill="#404040">
                        <set attributeName="fill" to="#808080" begin="arrowLeft.mouseover" end="arrowLeft.mouseout"/>
                  </use>
                  <path fill="none" stroke="white" stroke-width="1.5" d="M0,-3.0v7 M-2.5,-0.5L0,-3.0L2.5,-0.5"/>
                </g>
        </g>
        <svg viewBox="0 0 15 15" width="100%" height="30px" preserveAspectRatio="xMaxYMin meet">
         <g id="arrow_out" transform="scale(0.3 0.3)">
          <a xlink:href="monadic__operators_8cpp__incl_org.svg" target="_base">
           <rect id="button" ry="5" rx="5" y="6" x="6" height="38" width="38"
                fill="#f2f5e9" fill-opacity="0.5" stroke="#606060" stroke-width="1.0"/>
           <path id="arrow"
             d="M 11.500037,31.436501 C 11.940474,20.09759 22.043105,11.32322 32.158766,21.979434 L 37.068811,17.246167 C 37.068811,17.246167 37.088388,32 37.088388,32 L 22.160133,31.978069 C 22.160133,31.978069 26.997745,27.140456 26.997745,27.140456 C 18.528582,18.264221 13.291696,25.230495 11.500037,31.436501 z"
             style="fill:#404040;"/>
          </a>
         </g>
        </svg>
</svg>
