<?xml version="1.0" encoding="UTF-8" standalone="no"?>
<!DOCTYPE svg PUBLIC "-//W3C//DTD SVG 1.1//EN"
 "http://www.w3.org/Graphics/SVG/1.1/DTD/svg11.dtd">
<!-- Generated by graphviz version 7.1.0 (20230121.1956)
 -->
<!-- Title: /Users/nikolajbankejensen/Desktop/Kepler/src/core/evaluation/operations/monadic_operators.h Pages: 1 -->
<svg width="620pt" height="236pt"
 viewBox="0.00 0.00 619.50 236.00" xmlns="http://www.w3.org/2000/svg" xmlns:xlink="http://www.w3.org/1999/xlink">
<g id="graph0" class="graph" transform="scale(1 1) rotate(0) translate(4 232)">
<title>/Users/nikolajbankejensen/Desktop/Kepler/src/core/evaluation/operations/monadic_operators.h</title>
<!-- Node1 -->
<g id="node1" class="node">
<title>Node1</title>
<g id="a_node1"><a xlink:title=" ">
<polygon fill="#999999" stroke="#666666" points="445.5,-228 293.5,-228 293.5,-176 445.5,-176 445.5,-228"/>
<text text-anchor="start" x="301.5" y="-216" font-family="Helvetica,sans-Serif" font-size="10.00">/Users/nikolajbankejensen</text>
<text text-anchor="start" x="301.5" y="-205" font-family="Helvetica,sans-Serif" font-size="10.00">/Desktop/Kepler/src/core</text>
<text text-anchor="start" x="301.5" y="-194" font-family="Helvetica,sans-Serif" font-size="10.00">/evaluation/operations/monadic</text>
<text text-anchor="middle" x="369.5" y="-183" font-family="Helvetica,sans-Serif" font-size="10.00">_operators.h</text>
</a>
</g>
</g>
<!-- Node2 -->
<g id="node2" class="node">
<title>Node2</title>
<g id="a_node2"><a xlink:href="interpreter_8h.html" target="_top" xlink:title=" ">
<polygon fill="white" stroke="#666666" points="280,-134.5 149,-134.5 149,-93.5 280,-93.5 280,-134.5"/>
<text text-anchor="start" x="157" y="-122.5" font-family="Helvetica,sans-Serif" font-size="10.00">/Users/nikolajbankejensen</text>
<text text-anchor="start" x="157" y="-111.5" font-family="Helvetica,sans-Serif" font-size="10.00">/Desktop/Kepler/src/core</text>
<text text-anchor="middle" x="214.5" y="-100.5" font-family="Helvetica,sans-Serif" font-size="10.00">/evaluation/interpreter.h</text>
</a>
</g>
</g>
<!-- Node1&#45;&gt;Node2 -->
<g id="edge1" class="edge">
<title>Node1&#45;&gt;Node2</title>
<path fill="none" stroke="#63b8ff" d="M314,-170.21C292.87,-158.49 269.37,-145.44 250.51,-134.98"/>
<polygon fill="#63b8ff" stroke="#63b8ff" points="312.07,-173.14 322.51,-174.93 315.46,-167.02 312.07,-173.14"/>
</g>
<!-- Node6 -->
<g id="node6" class="node">
<title>Node6</title>
<g id="a_node6"><a xlink:href="dyadic__operators_8cpp.html" target="_top" xlink:title=" ">
<polygon fill="white" stroke="#666666" points="441,-140 298,-140 298,-88 441,-88 441,-140"/>
<text text-anchor="start" x="306" y="-128" font-family="Helvetica,sans-Serif" font-size="10.00">/Users/nikolajbankejensen</text>
<text text-anchor="start" x="306" y="-117" font-family="Helvetica,sans-Serif" font-size="10.00">/Desktop/Kepler/src/core</text>
<text text-anchor="start" x="306" y="-106" font-family="Helvetica,sans-Serif" font-size="10.00">/evaluation/operations/dyadic</text>
<text text-anchor="middle" x="369.5" y="-95" font-family="Helvetica,sans-Serif" font-size="10.00">_operators.cpp</text>
</a>
</g>
</g>
<!-- Node1&#45;&gt;Node6 -->
<g id="edge5" class="edge">
<title>Node1&#45;&gt;Node6</title>
<path fill="none" stroke="#63b8ff" d="M369.5,-164.26C369.5,-156.24 369.5,-147.92 369.5,-140.45"/>
<polygon fill="#63b8ff" stroke="#63b8ff" points="366,-164.15 369.5,-174.15 373,-164.15 366,-164.15"/>
</g>
<!-- Node7 -->
<g id="node7" class="node">
<title>Node7</title>
<g id="a_node7"><a xlink:href="monadic__operators_8cpp.html" target="_top" xlink:title=" ">
<polygon fill="white" stroke="#666666" points="611.5,-140 459.5,-140 459.5,-88 611.5,-88 611.5,-140"/>
<text text-anchor="start" x="467.5" y="-128" font-family="Helvetica,sans-Serif" font-size="10.00">/Users/nikolajbankejensen</text>
<text text-anchor="start" x="467.5" y="-117" font-family="Helvetica,sans-Serif" font-size="10.00">/Desktop/Kepler/src/core</text>
<text text-anchor="start" x="467.5" y="-106" font-family="Helvetica,sans-Serif" font-size="10.00">/evaluation/operations/monadic</text>
<text text-anchor="middle" x="535.5" y="-95" font-family="Helvetica,sans-Serif" font-size="10.00">_operators.cpp</text>
</a>
</g>
</g>
<!-- Node1&#45;&gt;Node7 -->
<g id="edge6" class="edge">
<title>Node1&#45;&gt;Node7</title>
<path fill="none" stroke="#63b8ff" d="M428.43,-170.47C447.39,-160.65 468.19,-149.87 486.37,-140.45"/>
<polygon fill="#63b8ff" stroke="#63b8ff" points="427.02,-167.26 419.75,-174.97 430.24,-173.47 427.02,-167.26"/>
</g>
<!-- Node3 -->
<g id="node3" class="node">
<title>Node3</title>
<g id="a_node3"><a xlink:href="execution_8cpp.html" target="_top" xlink:title=" ">
<polygon fill="white" stroke="#666666" points="131,-46.5 0,-46.5 0,-5.5 131,-5.5 131,-46.5"/>
<text text-anchor="start" x="8" y="-34.5" font-family="Helvetica,sans-Serif" font-size="10.00">/Users/nikolajbankejensen</text>
<text text-anchor="start" x="8" y="-23.5" font-family="Helvetica,sans-Serif" font-size="10.00">/Desktop/Kepler/src/core</text>
<text text-anchor="middle" x="65.5" y="-12.5" font-family="Helvetica,sans-Serif" font-size="10.00">/evaluation/execution.cpp</text>
</a>
</g>
</g>
<!-- Node2&#45;&gt;Node3 -->
<g id="edge2" class="edge">
<title>Node2&#45;&gt;Node3</title>
<path fill="none" stroke="#63b8ff" d="M170.01,-87.32C147.64,-74.41 120.94,-59 100.13,-46.99"/>
<polygon fill="#63b8ff" stroke="#63b8ff" points="168.22,-90.33 178.63,-92.3 171.72,-84.27 168.22,-90.33"/>
</g>
<!-- Node4 -->
<g id="node4" class="node">
<title>Node4</title>
<g id="a_node4"><a xlink:href="interpreter_8cpp.html" target="_top" xlink:title=" ">
<polygon fill="white" stroke="#666666" points="280,-46.5 149,-46.5 149,-5.5 280,-5.5 280,-46.5"/>
<text text-anchor="start" x="157" y="-34.5" font-family="Helvetica,sans-Serif" font-size="10.00">/Users/nikolajbankejensen</text>
<text text-anchor="start" x="157" y="-23.5" font-family="Helvetica,sans-Serif" font-size="10.00">/Desktop/Kepler/src/core</text>
<text text-anchor="middle" x="214.5" y="-12.5" font-family="Helvetica,sans-Serif" font-size="10.00">/evaluation/interpreter.cpp</text>
</a>
</g>
</g>
<!-- Node2&#45;&gt;Node4 -->
<g id="edge3" class="edge">
<title>Node2&#45;&gt;Node4</title>
<path fill="none" stroke="#63b8ff" d="M214.5,-81.56C214.5,-69.95 214.5,-57.13 214.5,-46.84"/>
<polygon fill="#63b8ff" stroke="#63b8ff" points="211,-81.54 214.5,-91.54 218,-81.54 211,-81.54"/>
</g>
<!-- Node5 -->
<g id="node5" class="node">
<title>Node5</title>
<g id="a_node5"><a xlink:href="defined__function_8cpp.html" target="_top" xlink:title=" ">
<polygon fill="white" stroke="#666666" points="444.5,-52 298.5,-52 298.5,0 444.5,0 444.5,-52"/>
<text text-anchor="start" x="306.5" y="-40" font-family="Helvetica,sans-Serif" font-size="10.00">/Users/nikolajbankejensen</text>
<text text-anchor="start" x="306.5" y="-29" font-family="Helvetica,sans-Serif" font-size="10.00">/Desktop/Kepler/src/core</text>
<text text-anchor="start" x="306.5" y="-18" font-family="Helvetica,sans-Serif" font-size="10.00">/evaluation/operations/defined</text>
<text text-anchor="middle" x="371.5" y="-7" font-family="Helvetica,sans-Serif" font-size="10.00">_function.cpp</text>
</a>
</g>
</g>
<!-- Node2&#45;&gt;Node5 -->
<g id="edge4" class="edge">
<title>Node2&#45;&gt;Node5</title>
<path fill="none" stroke="#63b8ff" d="M260.86,-87.61C281.13,-76.5 304.86,-63.5 325.14,-52.4"/>
<polygon fill="#63b8ff" stroke="#63b8ff" points="259.33,-84.45 252.24,-92.33 262.69,-90.59 259.33,-84.45"/>
</g>
</g>
</svg>
