<?xml version="1.0" encoding="UTF-8" standalone="no"?>
<!DOCTYPE svg PUBLIC "-//W3C//DTD SVG 1.1//EN"
 "http://www.w3.org/Graphics/SVG/1.1/DTD/svg11.dtd">
<!-- Generated by graphviz version 7.1.0 (20230121.1956)
 -->
<!-- Title: kepler::read_file Pages: 1 -->
<svg width="364pt" height="82pt"
 viewBox="0.00 0.00 364.00 82.00" xmlns="http://www.w3.org/2000/svg" xmlns:xlink="http://www.w3.org/1999/xlink">
<g id="graph0" class="graph" transform="scale(1 1) rotate(0) translate(4 78)">
<title>kepler::read_file</title>
<!-- Node1 -->
<g id="node1" class="node">
<title>Node1</title>
<g id="a_node1"><a xlink:title=" ">
<polygon fill="#999999" stroke="#666666" points="356,-55 270,-55 270,-36 356,-36 356,-55"/>
<text text-anchor="middle" x="313" y="-43" font-family="Helvetica,sans-Serif" font-size="10.00">kepler::read_file</text>
</a>
</g>
</g>
<!-- Node2 -->
<g id="node2" class="node">
<title>Node2</title>
<g id="a_node2"><a xlink:href="class_kepler_fixture.html#ab5112dd2c0517c455fd2cbf9b58bd49e" target="_top" xlink:title=" ">
<polygon fill="white" stroke="#666666" points="234,-74 118,-74 118,-55 234,-55 234,-74"/>
<text text-anchor="middle" x="176" y="-62" font-family="Helvetica,sans-Serif" font-size="10.00">KeplerFixture::load_file</text>
</a>
</g>
</g>
<!-- Node1&#45;&gt;Node2 -->
<g id="edge1" class="edge">
<title>Node1&#45;&gt;Node2</title>
<path fill="none" stroke="#63b8ff" d="M258.52,-53.03C250.48,-54.16 242.16,-55.33 234.04,-56.47"/>
<polygon fill="#63b8ff" stroke="#63b8ff" points="258.74,-56.53 268.16,-51.67 257.77,-49.6 258.74,-56.53"/>
</g>
<!-- Node3 -->
<g id="node3" class="node">
<title>Node3</title>
<g id="a_node3"><a xlink:href="namespacekepler.html#ae45e010aed51dc28b896694f75dc2ca7" target="_top" xlink:title=" ">
<polygon fill="white" stroke="#666666" points="216,-37 136,-37 136,-18 216,-18 216,-37"/>
<text text-anchor="middle" x="176" y="-25" font-family="Helvetica,sans-Serif" font-size="10.00">kepler::run_file</text>
</a>
</g>
</g>
<!-- Node1&#45;&gt;Node3 -->
<g id="edge2" class="edge">
<title>Node1&#45;&gt;Node3</title>
<path fill="none" stroke="#63b8ff" d="M258.61,-38.38C244.54,-36.51 229.62,-34.52 216.44,-32.76"/>
<polygon fill="#63b8ff" stroke="#63b8ff" points="257.78,-41.8 268.16,-39.65 258.71,-34.86 257.78,-41.8"/>
</g>
<!-- Node4 -->
<g id="node4" class="node">
<title>Node4</title>
<g id="a_node4"><a xlink:href="main_8cpp.html#a0ddf1224851353fc92bfbff6f499fa97" target="_top" xlink:title=" ">
<polygon fill="white" stroke="#666666" points="60,-56 22,-56 22,-37 60,-37 60,-56"/>
<text text-anchor="middle" x="41" y="-44" font-family="Helvetica,sans-Serif" font-size="10.00">main</text>
</a>
</g>
</g>
<!-- Node3&#45;&gt;Node4 -->
<g id="edge3" class="edge">
<title>Node3&#45;&gt;Node4</title>
<path fill="none" stroke="#63b8ff" d="M124.65,-34.69C102.06,-37.92 76.83,-41.52 60.26,-43.89"/>
<polygon fill="#63b8ff" stroke="#63b8ff" points="124.91,-38.19 134.32,-33.31 123.92,-31.26 124.91,-38.19"/>
</g>
<!-- Node5 -->
<g id="node5" class="node">
<title>Node5</title>
<g id="a_node5"><a xlink:href="class_file_fixture.html#aed1771b5e05cdce7af6d69a50a7e4f6c" target="_top" xlink:title=" ">
<polygon fill="white" stroke="#666666" points="82,-19 0,-19 0,0 82,0 82,-19"/>
<text text-anchor="middle" x="41" y="-7" font-family="Helvetica,sans-Serif" font-size="10.00">FileFixture::run</text>
</a>
</g>
</g>
<!-- Node3&#45;&gt;Node5 -->
<g id="edge4" class="edge">
<title>Node3&#45;&gt;Node5</title>
<path fill="none" stroke="#63b8ff" d="M124.82,-20.71C110.77,-18.81 95.68,-16.77 82.29,-14.95"/>
<polygon fill="#63b8ff" stroke="#63b8ff" points="123.94,-24.12 134.32,-21.99 124.87,-17.18 123.94,-24.12"/>
</g>
</g>
</svg>
