<?xml version="1.0" encoding="UTF-8" standalone="no"?>
<!DOCTYPE svg PUBLIC "-//W3C//DTD SVG 1.1//EN"
 "http://www.w3.org/Graphics/SVG/1.1/DTD/svg11.dtd">
<!-- Generated by graphviz version 7.1.0 (20230121.1956)
 -->
<!-- Title: kepler::vec_size Pages: 1 -->
<svg width="494pt" height="182pt"
 viewBox="0.00 0.00 494.00 182.00" xmlns="http://www.w3.org/2000/svg" xmlns:xlink="http://www.w3.org/1999/xlink">
<g id="graph0" class="graph" transform="scale(1 1) rotate(0) translate(4 178)">
<title>kepler::vec_size</title>
<!-- Node1 -->
<g id="node1" class="node">
<title>Node1</title>
<g id="a_node1"><a xlink:title=" ">
<polygon fill="#999999" stroke="#666666" points="486,-96.5 398,-96.5 398,-77.5 486,-77.5 486,-96.5"/>
<text text-anchor="middle" x="442" y="-84.5" font-family="Helvetica,sans-Serif" font-size="10.00">kepler::vec_size</text>
</a>
</g>
</g>
<!-- Node2 -->
<g id="node2" class="node">
<title>Node2</title>
<g id="a_node2"><a xlink:href="namespacekepler.html#ad171f0351cbb21e92ca7ea0cc0bbd317" target="_top" xlink:title=" ">
<polygon fill="white" stroke="#666666" points="362,-96.5 248,-96.5 248,-77.5 362,-77.5 362,-96.5"/>
<text text-anchor="middle" x="305" y="-84.5" font-family="Helvetica,sans-Serif" font-size="10.00">kepler::get_block_size</text>
</a>
</g>
</g>
<!-- Node1&#45;&gt;Node2 -->
<g id="edge1" class="edge">
<title>Node1&#45;&gt;Node2</title>
<path fill="none" stroke="#63b8ff" d="M386.19,-87C378.28,-87 370.14,-87 362.2,-87"/>
<polygon fill="#63b8ff" stroke="#63b8ff" points="386.03,-90.5 396.03,-87 386.03,-83.5 386.03,-90.5"/>
</g>
<!-- Node3 -->
<g id="node3" class="node">
<title>Node3</title>
<g id="a_node3"><a xlink:href="namespacekepler.html#a5d53d8d215c23865190574f886dd4484" target="_top" xlink:title=" ">
<polygon fill="white" stroke="#666666" points="212,-120.5 131,-120.5 131,-101.5 212,-101.5 212,-120.5"/>
<text text-anchor="middle" x="171.5" y="-108.5" font-family="Helvetica,sans-Serif" font-size="10.00">kepler::reverse</text>
</a>
</g>
</g>
<!-- Node2&#45;&gt;Node3 -->
<g id="edge2" class="edge">
<title>Node2&#45;&gt;Node3</title>
<path fill="none" stroke="#63b8ff" d="M238.22,-99.01C229.37,-100.62 220.53,-102.23 212.32,-103.73"/>
<polygon fill="#63b8ff" stroke="#63b8ff" points="238.68,-102.48 247.89,-97.24 237.42,-95.59 238.68,-102.48"/>
</g>
<!-- Node6 -->
<g id="node6" class="node">
<title>Node6</title>
<g id="a_node6"><a xlink:href="namespacekepler.html#a2e0061e6ccc074df0dabcaf61f4517b8" target="_top" xlink:title=" ">
<polygon fill="white" stroke="#666666" points="208.5,-72.5 134.5,-72.5 134.5,-53.5 208.5,-53.5 208.5,-72.5"/>
<text text-anchor="middle" x="171.5" y="-60.5" font-family="Helvetica,sans-Serif" font-size="10.00">kepler::rotate</text>
</a>
</g>
</g>
<!-- Node2&#45;&gt;Node6 -->
<g id="edge5" class="edge">
<title>Node2&#45;&gt;Node6</title>
<path fill="none" stroke="#63b8ff" d="M238.37,-75.02C228.19,-73.16 218,-71.3 208.79,-69.62"/>
<polygon fill="#63b8ff" stroke="#63b8ff" points="237.42,-78.41 247.89,-76.76 238.68,-71.52 237.42,-78.41"/>
</g>
<!-- Node4 -->
<g id="node4" class="node">
<title>Node4</title>
<g id="a_node4"><a xlink:href="structkepler_1_1_circle_bar.html#a71671ba0c73be8ee79cceb7bd8dd831a" target="_top" xlink:title=" ">
<polygon fill="white" stroke="#666666" points="95,-174 0,-174 0,-144 95,-144 95,-174"/>
<text text-anchor="start" x="8" y="-162" font-family="Helvetica,sans-Serif" font-size="10.00">kepler::CircleBar::</text>
<text text-anchor="middle" x="47.5" y="-151" font-family="Helvetica,sans-Serif" font-size="10.00">operator()</text>
</a>
</g>
</g>
<!-- Node3&#45;&gt;Node4 -->
<g id="edge3" class="edge">
<title>Node3&#45;&gt;Node4</title>
<path fill="none" stroke="#63b8ff" d="M134.93,-125C120.11,-130.82 102.86,-137.61 87.68,-143.58"/>
<polygon fill="#63b8ff" stroke="#63b8ff" points="135.79,-128.42 143.81,-121.5 133.23,-121.9 135.79,-128.42"/>
</g>
<!-- Node5 -->
<g id="node5" class="node">
<title>Node5</title>
<g id="a_node5"><a xlink:href="structkepler_1_1_circle_stile.html#ae3e658a67df48a0457ed356f29ff1fc9" target="_top" xlink:title=" ">
<polygon fill="white" stroke="#666666" points="94.5,-126 0.5,-126 0.5,-96 94.5,-96 94.5,-126"/>
<text text-anchor="start" x="8.5" y="-114" font-family="Helvetica,sans-Serif" font-size="10.00">kepler::CircleStile</text>
<text text-anchor="middle" x="47.5" y="-103" font-family="Helvetica,sans-Serif" font-size="10.00">::operator()</text>
</a>
</g>
</g>
<!-- Node3&#45;&gt;Node5 -->
<g id="edge4" class="edge">
<title>Node3&#45;&gt;Node5</title>
<path fill="none" stroke="#63b8ff" d="M119.04,-111C111.03,-111 102.79,-111 94.89,-111"/>
<polygon fill="#63b8ff" stroke="#63b8ff" points="119.04,-114.5 129.04,-111 119.04,-107.5 119.04,-114.5"/>
</g>
<!-- Node7 -->
<g id="node7" class="node">
<title>Node7</title>
<g id="a_node7"><a xlink:href="structkepler_1_1_circle_bar.html#ad4d789ada13f9e9152417c8034abee01" target="_top" xlink:title=" ">
<polygon fill="white" stroke="#666666" points="95,-78 0,-78 0,-48 95,-48 95,-78"/>
<text text-anchor="start" x="8" y="-66" font-family="Helvetica,sans-Serif" font-size="10.00">kepler::CircleBar::</text>
<text text-anchor="middle" x="47.5" y="-55" font-family="Helvetica,sans-Serif" font-size="10.00">operator()</text>
</a>
</g>
</g>
<!-- Node6&#45;&gt;Node7 -->
<g id="edge6" class="edge">
<title>Node6&#45;&gt;Node7</title>
<path fill="none" stroke="#63b8ff" d="M122.99,-63C113.88,-63 104.36,-63 95.27,-63"/>
<polygon fill="#63b8ff" stroke="#63b8ff" points="122.71,-66.5 132.71,-63 122.71,-59.5 122.71,-66.5"/>
</g>
<!-- Node8 -->
<g id="node8" class="node">
<title>Node8</title>
<g id="a_node8"><a xlink:href="structkepler_1_1_circle_stile.html#a29677d4fd43e1db4bacaddc636efa189" target="_top" xlink:title=" ">
<polygon fill="white" stroke="#666666" points="94.5,-30 0.5,-30 0.5,0 94.5,0 94.5,-30"/>
<text text-anchor="start" x="8.5" y="-18" font-family="Helvetica,sans-Serif" font-size="10.00">kepler::CircleStile</text>
<text text-anchor="middle" x="47.5" y="-7" font-family="Helvetica,sans-Serif" font-size="10.00">::operator()</text>
</a>
</g>
</g>
<!-- Node6&#45;&gt;Node8 -->
<g id="edge7" class="edge">
<title>Node6&#45;&gt;Node8</title>
<path fill="none" stroke="#63b8ff" d="M134.93,-49C120.11,-43.18 102.86,-36.39 87.68,-30.42"/>
<polygon fill="#63b8ff" stroke="#63b8ff" points="133.23,-52.1 143.81,-52.5 135.79,-45.58 133.23,-52.1"/>
</g>
</g>
</svg>
