<?xml version="1.0" encoding="UTF-8" standalone="no"?>
<!DOCTYPE svg PUBLIC "-//W3C//DTD SVG 1.1//EN"
 "http://www.w3.org/Graphics/SVG/1.1/DTD/svg11.dtd">
<!-- Generated by graphviz version 7.1.0 (20230121.1956)
 -->
<!-- Title: kepler::block_join Pages: 1 -->
<svg width="348pt" height="64pt"
 viewBox="0.00 0.00 348.00 64.00" xmlns="http://www.w3.org/2000/svg" xmlns:xlink="http://www.w3.org/1999/xlink">
<g id="graph0" class="graph" transform="scale(1 1) rotate(0) translate(4 60)">
<title>kepler::block_join</title>
<!-- Node1 -->
<g id="node1" class="node">
<title>Node1</title>
<g id="a_node1"><a xlink:title=" ">
<polygon fill="#999999" stroke="#666666" points="92,-37 0,-37 0,-18 92,-18 92,-37"/>
<text text-anchor="middle" x="46" y="-25" font-family="Helvetica,sans-Serif" font-size="10.00">kepler::block_join</text>
</a>
</g>
</g>
<!-- Node2 -->
<g id="node2" class="node">
<title>Node2</title>
<g id="a_node2"><a xlink:href="namespacekepler.html#ac2e37855a527a231ea2757065461ec7c" target="_top" xlink:title=" ">
<polygon fill="white" stroke="#666666" points="237,-56 128,-56 128,-37 237,-37 237,-56"/>
<text text-anchor="middle" x="182.5" y="-44" font-family="Helvetica,sans-Serif" font-size="10.00">kepler::block_append</text>
</a>
</g>
</g>
<!-- Node1&#45;&gt;Node2 -->
<g id="edge1" class="edge">
<title>Node1&#45;&gt;Node2</title>
<path fill="none" stroke="#63b8ff" d="M92.16,-33.88C100.03,-34.99 108.35,-36.17 116.63,-37.34"/>
<polygon fill="#63b8ff" stroke="#63b8ff" points="115.95,-40.77 126.34,-38.71 116.93,-33.84 115.95,-40.77"/>
</g>
<!-- Node4 -->
<g id="node4" class="node">
<title>Node4</title>
<g id="a_node4"><a xlink:href="namespacekepler.html#ac06a7b655e54e2533459da64127b862a" target="_top" xlink:title=" ">
<polygon fill="white" stroke="#666666" points="236,-19 129,-19 129,0 236,0 236,-19"/>
<text text-anchor="middle" x="182.5" y="-7" font-family="Helvetica,sans-Serif" font-size="10.00">kepler::block_concat</text>
</a>
</g>
</g>
<!-- Node1&#45;&gt;Node4 -->
<g id="edge3" class="edge">
<title>Node1&#45;&gt;Node4</title>
<path fill="none" stroke="#63b8ff" d="M92.16,-21.46C100.33,-20.36 108.99,-19.2 117.58,-18.05"/>
<polygon fill="#63b8ff" stroke="#63b8ff" points="117.84,-21.55 127.28,-16.76 116.91,-14.61 117.84,-21.55"/>
</g>
<!-- Node3 -->
<g id="node3" class="node">
<title>Node3</title>
<g id="a_node3"><a xlink:href="namespacekepler.html#a1c940fca16ab1a09634ee009e48d64f9" target="_top" xlink:title=" ">
<polygon fill="white" stroke="#666666" points="340,-37 273,-37 273,-18 340,-18 340,-37"/>
<text text-anchor="middle" x="306.5" y="-25" font-family="Helvetica,sans-Serif" font-size="10.00">kepler::split</text>
</a>
</g>
</g>
<!-- Node2&#45;&gt;Node3 -->
<g id="edge2" class="edge">
<title>Node2&#45;&gt;Node3</title>
<path fill="none" stroke="#63b8ff" d="M237.37,-38.11C245.43,-36.86 253.66,-35.57 261.49,-34.35"/>
<polygon fill="#63b8ff" stroke="#63b8ff" points="261.76,-37.85 271.1,-32.86 260.68,-30.94 261.76,-37.85"/>
</g>
<!-- Node4&#45;&gt;Node3 -->
<g id="edge4" class="edge">
<title>Node4&#45;&gt;Node3</title>
<path fill="none" stroke="#63b8ff" d="M236.3,-17.29C244.71,-18.53 253.32,-19.8 261.49,-21.01"/>
<polygon fill="#63b8ff" stroke="#63b8ff" points="260.78,-24.44 271.19,-22.44 261.81,-17.52 260.78,-24.44"/>
</g>
</g>
</svg>
