<?xml version="1.0" encoding="UTF-8" standalone="no"?>
<!DOCTYPE svg PUBLIC "-//W3C//DTD SVG 1.1//EN"
 "http://www.w3.org/Graphics/SVG/1.1/DTD/svg11.dtd">
<!-- Generated by graphviz version 7.1.0 (20230121.1956)
 -->
<!-- Title: kepler::number_to_string Pages: 1 -->
<svg width="290pt" height="76pt"
 viewBox="0.00 0.00 290.00 75.50" xmlns="http://www.w3.org/2000/svg" xmlns:xlink="http://www.w3.org/1999/xlink">
<g id="graph0" class="graph" transform="scale(1 1) rotate(0) translate(4 71.5)">
<title>kepler::number_to_string</title>
<!-- Node1 -->
<g id="node1" class="node">
<title>Node1</title>
<g id="a_node1"><a xlink:title=" ">
<polygon fill="#999999" stroke="#666666" points="282,-45.5 158,-45.5 158,-26.5 282,-26.5 282,-45.5"/>
<text text-anchor="middle" x="220" y="-33.5" font-family="Helvetica,sans-Serif" font-size="10.00">kepler::number_to_string</text>
</a>
</g>
</g>
<!-- Node2 -->
<g id="node2" class="node">
<title>Node2</title>
<g id="a_node2"><a xlink:href="structkepler_1_1_circle.html#a1b5e921606ab397ba507886860cea180" target="_top" xlink:title=" ">
<polygon fill="white" stroke="#666666" points="122,-67.5 0,-67.5 0,-48.5 122,-48.5 122,-67.5"/>
<text text-anchor="middle" x="61" y="-55.5" font-family="Helvetica,sans-Serif" font-size="10.00">kepler::Circle::operator()</text>
</a>
</g>
</g>
<!-- Node1&#45;&gt;Node2 -->
<g id="edge1" class="edge">
<title>Node1&#45;&gt;Node2</title>
<path fill="none" stroke="#63b8ff" d="M146.55,-46.15C138.5,-47.28 130.35,-48.42 122.47,-49.53"/>
<polygon fill="#63b8ff" stroke="#63b8ff" points="146.93,-49.63 156.35,-44.78 145.96,-42.7 146.93,-49.63"/>
</g>
<!-- Node3 -->
<g id="node3" class="node">
<title>Node3</title>
<g id="a_node3"><a xlink:href="structkepler_1_1_array_printer.html#a0f82ed45047ce6e1fecd2bd882c2166c" target="_top" xlink:title=" ">
<polygon fill="white" stroke="#666666" points="111.5,-30 10.5,-30 10.5,0 111.5,0 111.5,-30"/>
<text text-anchor="start" x="18.5" y="-18" font-family="Helvetica,sans-Serif" font-size="10.00">kepler::ArrayPrinter</text>
<text text-anchor="middle" x="61" y="-7" font-family="Helvetica,sans-Serif" font-size="10.00">::operator()</text>
</a>
</g>
</g>
<!-- Node1&#45;&gt;Node3 -->
<g id="edge2" class="edge">
<title>Node1&#45;&gt;Node3</title>
<path fill="none" stroke="#63b8ff" d="M146.59,-26.31C134.74,-24.73 122.71,-23.12 111.58,-21.63"/>
<polygon fill="#63b8ff" stroke="#63b8ff" points="145.97,-29.76 156.35,-27.62 146.9,-22.83 145.97,-29.76"/>
</g>
</g>
</svg>
