<?xml version="1.0" encoding="UTF-8" standalone="no"?>
<!DOCTYPE svg PUBLIC "-//W3C//DTD SVG 1.1//EN"
 "http://www.w3.org/Graphics/SVG/1.1/DTD/svg11.dtd">
<!-- Generated by graphviz version 7.1.0 (20230121.1956)
 -->
<!-- Title: kepler::reverse Pages: 1 -->
<svg width="220pt" height="86pt"
 viewBox="0.00 0.00 220.00 86.00" xmlns="http://www.w3.org/2000/svg" xmlns:xlink="http://www.w3.org/1999/xlink">
<g id="graph0" class="graph" transform="scale(1 1) rotate(0) translate(4 82)">
<title>kepler::reverse</title>
<!-- Node1 -->
<g id="node1" class="node">
<title>Node1</title>
<g id="a_node1"><a xlink:title=" ">
<polygon fill="#999999" stroke="#666666" points="212,-48.5 131,-48.5 131,-29.5 212,-29.5 212,-48.5"/>
<text text-anchor="middle" x="171.5" y="-36.5" font-family="Helvetica,sans-Serif" font-size="10.00">kepler::reverse</text>
</a>
</g>
</g>
<!-- Node2 -->
<g id="node2" class="node">
<title>Node2</title>
<g id="a_node2"><a xlink:href="structkepler_1_1_circle_bar.html#a71671ba0c73be8ee79cceb7bd8dd831a" target="_top" xlink:title=" ">
<polygon fill="white" stroke="#666666" points="95,-78 0,-78 0,-48 95,-48 95,-78"/>
<text text-anchor="start" x="8" y="-66" font-family="Helvetica,sans-Serif" font-size="10.00">kepler::CircleBar::</text>
<text text-anchor="middle" x="47.5" y="-55" font-family="Helvetica,sans-Serif" font-size="10.00">operator()</text>
</a>
</g>
</g>
<!-- Node1&#45;&gt;Node2 -->
<g id="edge1" class="edge">
<title>Node1&#45;&gt;Node2</title>
<path fill="none" stroke="#63b8ff" d="M119.46,-49.04C111.46,-50.61 103.22,-52.23 95.32,-53.79"/>
<polygon fill="#63b8ff" stroke="#63b8ff" points="119.93,-52.52 129.07,-47.15 118.58,-45.65 119.93,-52.52"/>
</g>
<!-- Node3 -->
<g id="node3" class="node">
<title>Node3</title>
<g id="a_node3"><a xlink:href="structkepler_1_1_circle_stile.html#ae3e658a67df48a0457ed356f29ff1fc9" target="_top" xlink:title=" ">
<polygon fill="white" stroke="#666666" points="94.5,-30 0.5,-30 0.5,0 94.5,0 94.5,-30"/>
<text text-anchor="start" x="8.5" y="-18" font-family="Helvetica,sans-Serif" font-size="10.00">kepler::CircleStile</text>
<text text-anchor="middle" x="47.5" y="-7" font-family="Helvetica,sans-Serif" font-size="10.00">::operator()</text>
</a>
</g>
</g>
<!-- Node1&#45;&gt;Node3 -->
<g id="edge2" class="edge">
<title>Node1&#45;&gt;Node3</title>
<path fill="none" stroke="#63b8ff" d="M119.32,-28.93C111.22,-27.34 102.88,-25.7 94.89,-24.13"/>
<polygon fill="#63b8ff" stroke="#63b8ff" points="118.58,-32.35 129.07,-30.85 119.93,-25.48 118.58,-32.35"/>
</g>
</g>
</svg>
