<?xml version="1.0" encoding="UTF-8" standalone="no"?>
<!DOCTYPE svg PUBLIC "-//W3C//DTD SVG 1.1//EN"
 "http://www.w3.org/Graphics/SVG/1.1/DTD/svg11.dtd">
<!-- Generated by graphviz version 7.1.0 (20230121.1956)
 -->
<!-- Title: kepler::rotate Pages: 1 -->
<svg width="540pt" height="149pt"
 viewBox="0.00 0.00 540.00 149.00" xmlns="http://www.w3.org/2000/svg" xmlns:xlink="http://www.w3.org/1999/xlink">
<g id="graph0" class="graph" transform="scale(1 1) rotate(0) translate(4 145)">
<title>kepler::rotate</title>
<!-- Node1 -->
<g id="node1" class="node">
<title>Node1</title>
<g id="a_node1"><a xlink:title=" ">
<polygon fill="#999999" stroke="#666666" points="74,-76 0,-76 0,-57 74,-57 74,-76"/>
<text text-anchor="middle" x="37" y="-64" font-family="Helvetica,sans-Serif" font-size="10.00">kepler::rotate</text>
</a>
</g>
</g>
<!-- Node2 -->
<g id="node2" class="node">
<title>Node2</title>
<g id="a_node2"><a xlink:href="namespacekepler.html#a56130004ed10dae55c0a8695f9d8ab37" target="_top" xlink:title=" ">
<polygon fill="white" stroke="#666666" points="224,-137 110,-137 110,-118 224,-118 224,-137"/>
<text text-anchor="middle" x="167" y="-125" font-family="Helvetica,sans-Serif" font-size="10.00">kepler::get_block_size</text>
</a>
</g>
</g>
<!-- Node1&#45;&gt;Node2 -->
<g id="edge1" class="edge">
<title>Node1&#45;&gt;Node2</title>
<path fill="none" stroke="#63b8ff" d="M55.51,-76.35C69.95,-84.32 91.05,-95.63 110,-104.5 116.43,-107.51 123.38,-110.54 130.11,-113.36"/>
<polygon fill="#63b8ff" stroke="#63b8ff" points="128.43,-116.45 139.01,-117.01 131.09,-109.98 128.43,-116.45"/>
</g>
<!-- Node4 -->
<g id="node4" class="node">
<title>Node4</title>
<g id="a_node4"><a xlink:href="namespacekepler.html#a172b41eba4b6d1c9af75f4d5a853d35f" target="_top" xlink:title=" ">
<polygon fill="white" stroke="#666666" points="210,-95 124,-95 124,-76 210,-76 210,-95"/>
<text text-anchor="middle" x="167" y="-83" font-family="Helvetica,sans-Serif" font-size="10.00">kepler::get_shift</text>
</a>
</g>
</g>
<!-- Node1&#45;&gt;Node4 -->
<g id="edge3" class="edge">
<title>Node1&#45;&gt;Node4</title>
<path fill="none" stroke="#63b8ff" d="M74.34,-71.89C86.23,-73.66 99.7,-75.66 112.58,-77.57"/>
<polygon fill="#63b8ff" stroke="#63b8ff" points="111.79,-80.99 122.19,-79 112.81,-74.07 111.79,-80.99"/>
</g>
<!-- Node8 -->
<g id="node8" class="node">
<title>Node8</title>
<g id="a_node8"><a xlink:href="structkepler_1_1_array.html#a98194b5409eace27b9eae7dcac74e350" target="_top" xlink:title=" ">
<polygon fill="white" stroke="#666666" points="367.5,-55 271.5,-55 271.5,-36 367.5,-36 367.5,-55"/>
<text text-anchor="middle" x="319.5" y="-43" font-family="Helvetica,sans-Serif" font-size="10.00">kepler::Array::size</text>
</a>
</g>
</g>
<!-- Node1&#45;&gt;Node8 -->
<g id="edge9" class="edge">
<title>Node1&#45;&gt;Node8</title>
<path fill="none" stroke="#63b8ff" d="M74.38,-63.78C121.53,-60.25 204.32,-54.05 260.26,-49.86"/>
<polygon fill="#63b8ff" stroke="#63b8ff" points="260.2,-53.37 269.92,-49.14 259.68,-46.39 260.2,-53.37"/>
</g>
<!-- Node9 -->
<g id="node9" class="node">
<title>Node9</title>
<g id="a_node9"><a xlink:href="namespacekepler.html#a8cec7c445b114ae66fe0c31d6746e7fb" target="_top" xlink:title=" ">
<polygon fill="white" stroke="#666666" points="222,-19 112,-19 112,0 222,0 222,-19"/>
<text text-anchor="middle" x="167" y="-7" font-family="Helvetica,sans-Serif" font-size="10.00">kepler::get_step_size</text>
</a>
</g>
</g>
<!-- Node1&#45;&gt;Node9 -->
<g id="edge8" class="edge">
<title>Node1&#45;&gt;Node9</title>
<path fill="none" stroke="#63b8ff" d="M59.36,-56.54C73.65,-49.92 92.9,-41.08 110,-33.5 117.15,-30.33 124.83,-26.99 132.15,-23.84"/>
<polygon fill="#63b8ff" stroke="#63b8ff" points="133.3,-27.16 141.12,-20.01 130.55,-20.72 133.3,-27.16"/>
</g>
<!-- Node3 -->
<g id="node3" class="node">
<title>Node3</title>
<g id="a_node3"><a xlink:href="namespacekepler.html#aec3e7febe28a0cbe1f4ddefd7fd6349c" target="_top" xlink:title=" ">
<polygon fill="white" stroke="#666666" points="363.5,-141 275.5,-141 275.5,-122 363.5,-122 363.5,-141"/>
<text text-anchor="middle" x="319.5" y="-129" font-family="Helvetica,sans-Serif" font-size="10.00">kepler::vec_size</text>
</a>
</g>
</g>
<!-- Node2&#45;&gt;Node3 -->
<g id="edge2" class="edge">
<title>Node2&#45;&gt;Node3</title>
<path fill="none" stroke="#63b8ff" d="M224.47,-129C237.37,-129.34 251.05,-129.71 263.88,-130.05"/>
<polygon fill="#63b8ff" stroke="#63b8ff" points="263.76,-133.55 273.85,-130.31 263.94,-126.55 263.76,-133.55"/>
</g>
<!-- Node5 -->
<g id="node5" class="node">
<title>Node5</title>
<g id="a_node5"><a xlink:href="structkepler_1_1_array.html#a31e9d1137447bf3402d6278c41569f5e" target="_top" xlink:title=" ">
<polygon fill="white" stroke="#666666" points="379,-103.5 260,-103.5 260,-73.5 379,-73.5 379,-103.5"/>
<text text-anchor="start" x="268" y="-91.5" font-family="Helvetica,sans-Serif" font-size="10.00">kepler::Array::is_simple</text>
<text text-anchor="middle" x="319.5" y="-80.5" font-family="Helvetica,sans-Serif" font-size="10.00">_scalar</text>
</a>
</g>
</g>
<!-- Node4&#45;&gt;Node5 -->
<g id="edge4" class="edge">
<title>Node4&#45;&gt;Node5</title>
<path fill="none" stroke="#63b8ff" d="M210.32,-86.34C222.16,-86.58 235.35,-86.84 248.33,-87.1"/>
<polygon fill="#63b8ff" stroke="#63b8ff" points="248.07,-90.6 258.14,-87.3 248.21,-83.6 248.07,-90.6"/>
</g>
<!-- Node4&#45;&gt;Node8 -->
<g id="edge7" class="edge">
<title>Node4&#45;&gt;Node8</title>
<path fill="none" stroke="#63b8ff" d="M205.59,-75.51C225.15,-70.31 249.28,-63.9 270.2,-58.34"/>
<polygon fill="#63b8ff" stroke="#63b8ff" points="270.9,-61.77 279.67,-55.82 269.1,-55.01 270.9,-61.77"/>
</g>
<!-- Node6 -->
<g id="node6" class="node">
<title>Node6</title>
<g id="a_node6"><a xlink:href="structkepler_1_1_array.html#a9d4e4ca37cd263142d76ca0a56346991" target="_top" xlink:title=" ">
<polygon fill="white" stroke="#666666" points="526,-116 421,-116 421,-97 526,-97 526,-116"/>
<text text-anchor="middle" x="473.5" y="-104" font-family="Helvetica,sans-Serif" font-size="10.00">kepler::Array::empty</text>
</a>
</g>
</g>
<!-- Node5&#45;&gt;Node6 -->
<g id="edge5" class="edge">
<title>Node5&#45;&gt;Node6</title>
<path fill="none" stroke="#63b8ff" d="M379.27,-95.46C389.22,-96.64 399.59,-97.87 409.65,-99.06"/>
<polygon fill="#63b8ff" stroke="#63b8ff" points="408.98,-102.5 419.32,-100.2 409.8,-95.55 408.98,-102.5"/>
</g>
<!-- Node7 -->
<g id="node7" class="node">
<title>Node7</title>
<g id="a_node7"><a xlink:href="structkepler_1_1_array.html#ae82484749f93ec527be3eff64ddf3d37" target="_top" xlink:title=" ">
<polygon fill="white" stroke="#666666" points="532,-79 415,-79 415,-60 532,-60 532,-79"/>
<text text-anchor="middle" x="473.5" y="-67" font-family="Helvetica,sans-Serif" font-size="10.00">kepler::Array::is_scalar</text>
</a>
</g>
</g>
<!-- Node5&#45;&gt;Node7 -->
<g id="edge6" class="edge">
<title>Node5&#45;&gt;Node7</title>
<path fill="none" stroke="#63b8ff" d="M379.27,-81.15C387.22,-80.16 395.43,-79.13 403.54,-78.12"/>
<polygon fill="#63b8ff" stroke="#63b8ff" points="403.9,-81.6 413.39,-76.89 403.03,-74.66 403.9,-81.6"/>
</g>
</g>
</svg>
