<?xml version="1.0" encoding="UTF-8" standalone="no"?>
<!DOCTYPE svg PUBLIC "-//W3C//DTD SVG 1.1//EN"
 "http://www.w3.org/Graphics/SVG/1.1/DTD/svg11.dtd">
<!-- Generated by graphviz version 7.1.0 (20230121.1956)
 -->
<!-- Title: kepler::rho Pages: 1 -->
<svg width="223pt" height="113pt"
 viewBox="0.00 0.00 223.00 112.50" xmlns="http://www.w3.org/2000/svg" xmlns:xlink="http://www.w3.org/1999/xlink">
<g id="graph0" class="graph" transform="scale(1 1) rotate(0) translate(4 108.5)">
<title>kepler::rho</title>
<!-- Node1 -->
<g id="node1" class="node">
<title>Node1</title>
<g id="a_node1"><a xlink:title=" ">
<polygon fill="#999999" stroke="#666666" points="62,-56 0,-56 0,-37 62,-37 62,-56"/>
<text text-anchor="middle" x="31" y="-44" font-family="Helvetica,sans-Serif" font-size="10.00">kepler::rho</text>
</a>
</g>
</g>
<!-- Node2 -->
<g id="node2" class="node">
<title>Node2</title>
<g id="a_node2"><a xlink:href="structkepler_1_1_array.html#a4469c88ae890d155a6f0c7b01a40fc8d" target="_top" xlink:title=" ">
<polygon fill="white" stroke="#666666" points="214.5,-104.5 98.5,-104.5 98.5,-74.5 214.5,-74.5 214.5,-104.5"/>
<text text-anchor="start" x="106.5" y="-92.5" font-family="Helvetica,sans-Serif" font-size="10.00">kepler::Array::flattened</text>
<text text-anchor="middle" x="156.5" y="-81.5" font-family="Helvetica,sans-Serif" font-size="10.00">_shape</text>
</a>
</g>
</g>
<!-- Node1&#45;&gt;Node2 -->
<g id="edge1" class="edge">
<title>Node1&#45;&gt;Node2</title>
<path fill="none" stroke="#63b8ff" d="M60.64,-56.47C72.45,-60.58 86.55,-65.49 100.22,-70.25"/>
<polygon fill="#63b8ff" stroke="#63b8ff" points="99.02,-73.54 109.62,-73.52 101.32,-66.93 99.02,-73.54"/>
</g>
<!-- Node3 -->
<g id="node3" class="node">
<title>Node3</title>
<g id="a_node3"><a xlink:href="structkepler_1_1_array.html#ae82484749f93ec527be3eff64ddf3d37" target="_top" xlink:title=" ">
<polygon fill="white" stroke="#666666" points="215,-56 98,-56 98,-37 215,-37 215,-56"/>
<text text-anchor="middle" x="156.5" y="-44" font-family="Helvetica,sans-Serif" font-size="10.00">kepler::Array::is_scalar</text>
</a>
</g>
</g>
<!-- Node1&#45;&gt;Node3 -->
<g id="edge2" class="edge">
<title>Node1&#45;&gt;Node3</title>
<path fill="none" stroke="#63b8ff" d="M62.21,-46.5C69.58,-46.5 77.76,-46.5 86.13,-46.5"/>
<polygon fill="#63b8ff" stroke="#63b8ff" points="86.09,-50 96.09,-46.5 86.09,-43 86.09,-50"/>
</g>
<!-- Node4 -->
<g id="node4" class="node">
<title>Node4</title>
<g id="a_node4"><a xlink:href="structkepler_1_1_array.html#a5701013e5ec1699d7d8663bba09cfcdb" target="_top" xlink:title=" ">
<polygon fill="white" stroke="#666666" points="205,-19 108,-19 108,0 205,0 205,-19"/>
<text text-anchor="middle" x="156.5" y="-7" font-family="Helvetica,sans-Serif" font-size="10.00">kepler::Array::rank</text>
</a>
</g>
</g>
<!-- Node1&#45;&gt;Node4 -->
<g id="edge3" class="edge">
<title>Node1&#45;&gt;Node4</title>
<path fill="none" stroke="#63b8ff" d="M62.21,-37.45C76.95,-33.03 94.96,-27.64 111.22,-22.77"/>
<polygon fill="#63b8ff" stroke="#63b8ff" points="112.1,-26.16 120.68,-19.93 110.09,-19.45 112.1,-26.16"/>
</g>
</g>
</svg>
