<?xml version="1.0" encoding="UTF-8" standalone="no"?>
<!DOCTYPE svg PUBLIC "-//W3C//DTD SVG 1.1//EN"
 "http://www.w3.org/Graphics/SVG/1.1/DTD/svg11.dtd">
<!-- Generated by graphviz version 7.1.0 (20230121.1956)
 -->
<!-- Title: kepler::run_repl Pages: 1 -->
<!--zoomable 387 -->
<svg id="main" version="1.1" xmlns="http://www.w3.org/2000/svg" xmlns:xlink="http://www.w3.org/1999/xlink" xml:space="preserve" onload="init(evt)">
<style type="text/css"><![CDATA[
.edge:hover path { stroke: red; }
.edge:hover polygon { stroke: red; fill: red; }
]]></style>
<script type="text/javascript"><![CDATA[
var edges = document.getElementsByTagName('g');
if (edges && edges.length) {
  for (var i=0;i<edges.length;i++) {
    if (edges[i].id.substr(0,4)=='edge') {
      edges[i].setAttribute('class','edge');
    }
  }
}
]]></script>
        <defs>
                <circle id="rim" cx="0" cy="0" r="7"/>
                <circle id="rim2" cx="0" cy="0" r="3.5"/>
                <g id="zoomPlus">
                        <use xlink:href="#rim" fill="#404040">
                                <set attributeName="fill" to="#808080" begin="zoomplus.mouseover" end="zoomplus.mouseout"/>
                        </use>
                        <path d="M-4,0h8M0,-4v8" fill="none" stroke="white" stroke-width="1.5" pointer-events="none"/>
                </g>
                <g id="zoomMin">
                        <use xlink:href="#rim" fill="#404040">
                                <set attributeName="fill" to="#808080" begin="zoomminus.mouseover" end="zoomminus.mouseout"/>
                        </use>
                        <path d="M-4,0h8" fill="none" stroke="white" stroke-width="1.5" pointer-events="none"/>
                </g>
                <g id="dirArrow">
                        <path fill="none" stroke="white" stroke-width="1.5" d="M0,-3.0v7 M-2.5,-0.5L0,-3.0L2.5,-0.5"/>
                </g>
               <g id="resetDef">
                       <use xlink:href="#rim2" fill="#404040">
                               <set attributeName="fill" to="#808080" begin="reset.mouseover" end="reset.mouseout"/>
                       </use>
               </g>
        </defs>

<script type="text/javascript">
var viewWidth = 757;
var viewHeight = 387;
var sectionId = 'dynsection-23';
</script>
<script xlink:href="svgpan.js"/>
<svg id="graph" class="graph">
<g id="viewport">
<title>kepler::run_repl</title>
<!-- Node1 -->
<g id="node1" class="node">
<title>Node1</title>
<g id="a_node1"><a xlink:title=" ">
<polygon fill="#999999" stroke="#666666" points="83,-270 0,-270 0,-251 83,-251 83,-270"/>
<text text-anchor="middle" x="41.5" y="-258" font-family="Helvetica,sans-Serif" font-size="10.00">kepler::run_repl</text>
</a>
</g>
</g>
<!-- Node2 -->
<g id="node2" class="node">
<title>Node2</title>
<g id="a_node2"><a xlink:href="classkepler_1_1_symbol_table.html#a581a7fca6bcd04dcb26c385818693b8b" target="_top" xlink:title=" ">
<polygon fill="white" stroke="#666666" points="257,-330.5 119,-330.5 119,-300.5 257,-300.5 257,-330.5"/>
<text text-anchor="start" x="127" y="-318.5" font-family="Helvetica,sans-Serif" font-size="10.00">kepler::SymbolTable</text>
<text text-anchor="middle" x="188" y="-307.5" font-family="Helvetica,sans-Serif" font-size="10.00">::insert_system_parameters</text>
</a>
</g>
</g>
<!-- Node1&#45;&gt;Node2 -->
<g id="edge1" class="edge">
<title>Node1&#45;&gt;Node2</title>
<path fill="none" stroke="#63b8ff" d="M68.67,-270.46C87.34,-277.57 113.07,-287.36 135.77,-296"/>
<polygon fill="#63b8ff" stroke="#63b8ff" points="134.28,-299.18 144.87,-299.46 136.77,-292.63 134.28,-299.18"/>
</g>
<!-- Node5 -->
<g id="node5" class="node">
<title>Node5</title>
<g id="a_node5"><a xlink:href="execution_8cpp.html#af3d2161c155c5aef33765bac6f8257bd" target="_top" xlink:title=" ">
<polygon fill="white" stroke="#666666" points="219,-270 157,-270 157,-251 219,-251 219,-270"/>
<text text-anchor="middle" x="188" y="-258" font-family="Helvetica,sans-Serif" font-size="10.00">read_input</text>
</a>
</g>
</g>
<!-- Node1&#45;&gt;Node5 -->
<g id="edge6" class="edge">
<title>Node1&#45;&gt;Node5</title>
<path fill="none" stroke="#63b8ff" d="M83.14,-260.5C102.58,-260.5 125.84,-260.5 145.41,-260.5"/>
<polygon fill="#63b8ff" stroke="#63b8ff" points="145.23,-264 155.23,-260.5 145.23,-257 145.23,-264"/>
</g>
<!-- Node7 -->
<g id="node7" class="node">
<title>Node7</title>
<g id="a_node7"><a xlink:href="namespacekepler.html#ae873199194df3797260d2e48244b90f4" target="_top" xlink:title=" ">
<polygon fill="white" stroke="#666666" points="245.5,-206 130.5,-206 130.5,-187 245.5,-187 245.5,-206"/>
<text text-anchor="middle" x="188" y="-194" font-family="Helvetica,sans-Serif" font-size="10.00">kepler::safe_execution</text>
</a>
</g>
</g>
<!-- Node1&#45;&gt;Node7 -->
<g id="edge8" class="edge">
<title>Node1&#45;&gt;Node7</title>
<path fill="none" stroke="#63b8ff" d="M65.08,-250.5C89.04,-239.89 127.14,-223.01 154.37,-210.95"/>
<polygon fill="#63b8ff" stroke="#63b8ff" points="155.47,-214.29 163.2,-207.04 152.64,-207.89 155.47,-214.29"/>
</g>
<!-- Node3 -->
<g id="node3" class="node">
<title>Node3</title>
<g id="a_node3"><a xlink:href="classkepler_1_1_symbol_table.html#a86e00168373c906d584687a60a889245" target="_top" xlink:title=" ">
<polygon fill="white" stroke="#666666" points="426,-349 301,-349 301,-330 426,-330 426,-349"/>
<text text-anchor="middle" x="363.5" y="-337" font-family="Helvetica,sans-Serif" font-size="10.00">kepler::SymbolTable::set</text>
</a>
</g>
</g>
<!-- Node2&#45;&gt;Node3 -->
<g id="edge2" class="edge">
<title>Node2&#45;&gt;Node3</title>
<path fill="none" stroke="#63b8ff" d="M257.07,-324.92C267.6,-326.37 278.51,-327.88 289.15,-329.35"/>
<polygon fill="#63b8ff" stroke="#63b8ff" points="288.67,-332.82 299.06,-330.72 289.63,-325.89 288.67,-332.82"/>
</g>
<!-- Node3&#45;&gt;Node3 -->
<g id="edge5" class="edge">
<title>Node3&#45;&gt;Node3</title>
<path fill="none" stroke="#63b8ff" d="M337.75,-349.37C326,-357.94 334.58,-367 363.5,-367 379.77,-367 389.6,-364.13 393,-360.1"/>
<polygon fill="#63b8ff" stroke="#63b8ff" points="396.35,-359.09 389.75,-350.8 389.74,-361.39 396.35,-359.09"/>
</g>
<!-- Node4 -->
<g id="node4" class="node">
<title>Node4</title>
<g id="a_node4"><a xlink:href="classkepler_1_1_symbol_table.html#acc1befc5ef14ca2b0da939f93218c05a" target="_top" xlink:title=" ">
<polygon fill="white" stroke="#666666" points="580.5,-360.5 475.5,-360.5 475.5,-330.5 580.5,-330.5 580.5,-360.5"/>
<text text-anchor="start" x="483.5" y="-348.5" font-family="Helvetica,sans-Serif" font-size="10.00">kepler::SymbolTable</text>
<text text-anchor="middle" x="528" y="-337.5" font-family="Helvetica,sans-Serif" font-size="10.00">::contains</text>
</a>
</g>
</g>
<!-- Node3&#45;&gt;Node4 -->
<g id="edge3" class="edge">
<title>Node3&#45;&gt;Node4</title>
<path fill="none" stroke="#63b8ff" d="M426.4,-341.79C438.56,-342.23 451.35,-342.71 463.56,-343.16"/>
<polygon fill="#63b8ff" stroke="#63b8ff" points="463.43,-346.66 473.55,-343.53 463.69,-339.66 463.43,-346.66"/>
</g>
<!-- Node4&#45;&gt;Node4 -->
<g id="edge4" class="edge">
<title>Node4&#45;&gt;Node4</title>
<path fill="none" stroke="#63b8ff" d="M500.31,-360.78C494.16,-369.91 503.39,-378.5 528,-378.5 541.46,-378.5 550.32,-375.93 554.57,-372.11"/>
<polygon fill="#63b8ff" stroke="#63b8ff" points="558.05,-372.58 555.54,-362.28 551.08,-371.89 558.05,-372.58"/>
</g>
<!-- Node6 -->
<g id="node6" class="node">
<title>Node6</title>
<g id="a_node6"><a xlink:href="execution_8cpp.html#a44e292f13033ec2488d02522448571b4" target="_top" xlink:title=" ">
<polygon fill="white" stroke="#666666" points="405,-270 322,-270 322,-251 405,-251 405,-270"/>
<text text-anchor="middle" x="363.5" y="-258" font-family="Helvetica,sans-Serif" font-size="10.00">display_prompt</text>
</a>
</g>
</g>
<!-- Node5&#45;&gt;Node6 -->
<g id="edge7" class="edge">
<title>Node5&#45;&gt;Node6</title>
<path fill="none" stroke="#63b8ff" d="M219.22,-260.5C244.25,-260.5 280.39,-260.5 310.12,-260.5"/>
<polygon fill="#63b8ff" stroke="#63b8ff" points="310.06,-264 320.06,-260.5 310.06,-257 310.06,-264"/>
</g>
<!-- Node8 -->
<g id="node8" class="node">
<title>Node8</title>
<g id="a_node8"><a xlink:href="namespacekepler.html#aff2a3590024c2d97ee7d9d49bef09bfd" target="_top" xlink:title=" ">
<polygon fill="white" stroke="#666666" points="434,-227 293,-227 293,-208 434,-208 434,-227"/>
<text text-anchor="middle" x="363.5" y="-215" font-family="Helvetica,sans-Serif" font-size="10.00">kepler::immediate_execution</text>
</a>
</g>
</g>
<!-- Node7&#45;&gt;Node8 -->
<g id="edge9" class="edge">
<title>Node7&#45;&gt;Node8</title>
<path fill="none" stroke="#63b8ff" d="M245.81,-203.38C257.12,-204.74 269.2,-206.21 281.15,-207.65"/>
<polygon fill="#63b8ff" stroke="#63b8ff" points="280.68,-211.12 291.03,-208.85 281.52,-204.17 280.68,-211.12"/>
</g>
<!-- Node16 -->
<g id="node16" class="node">
<title>Node16</title>
<g id="a_node16"><a xlink:href="classkepler_1_1_error.html#a839ce149a6eb564e511b06ce9adfd7bb" target="_top" xlink:title=" ">
<polygon fill="white" stroke="#666666" points="408,-189.5 319,-189.5 319,-159.5 408,-159.5 408,-189.5"/>
<text text-anchor="start" x="327" y="-177.5" font-family="Helvetica,sans-Serif" font-size="10.00">kepler::Error::set</text>
<text text-anchor="middle" x="363.5" y="-166.5" font-family="Helvetica,sans-Serif" font-size="10.00">_input</text>
</a>
</g>
</g>
<!-- Node7&#45;&gt;Node16 -->
<g id="edge17" class="edge">
<title>Node7&#45;&gt;Node16</title>
<path fill="none" stroke="#63b8ff" d="M245.81,-189.3C265.64,-186.78 287.84,-183.97 307.52,-181.47"/>
<polygon fill="#63b8ff" stroke="#63b8ff" points="307.79,-184.97 317.27,-180.23 306.91,-178.02 307.79,-184.97"/>
</g>
<!-- Node17 -->
<g id="node17" class="node">
<title>Node17</title>
<g id="a_node17"><a xlink:href="classkepler_1_1_error.html#ac847dfe892a8ce3ed8cf2421e9057a11" target="_top" xlink:title=" ">
<polygon fill="white" stroke="#666666" points="420,-75 307,-75 307,-56 420,-56 420,-75"/>
<text text-anchor="middle" x="363.5" y="-63" font-family="Helvetica,sans-Serif" font-size="10.00">kepler::Error::to_string</text>
</a>
</g>
</g>
<!-- Node7&#45;&gt;Node17 -->
<g id="edge18" class="edge">
<title>Node7&#45;&gt;Node17</title>
<path fill="none" stroke="#63b8ff" d="M202.04,-186.65C231.56,-164.37 303.75,-109.86 340.39,-82.19"/>
<polygon fill="#63b8ff" stroke="#63b8ff" points="342.23,-85.19 348.1,-76.37 338.01,-79.61 342.23,-85.19"/>
</g>
<!-- Node9 -->
<g id="node9" class="node">
<title>Node9</title>
<g id="a_node9"><a xlink:href="structkepler_1_1_interpreter.html#a2ec19db70151e2f0eb937421a8618935" target="_top" xlink:title=" ">
<polygon fill="white" stroke="#666666" points="574.5,-312.5 481.5,-312.5 481.5,-282.5 574.5,-282.5 574.5,-312.5"/>
<text text-anchor="start" x="489.5" y="-300.5" font-family="Helvetica,sans-Serif" font-size="10.00">kepler::Interpreter</text>
<text text-anchor="middle" x="528" y="-289.5" font-family="Helvetica,sans-Serif" font-size="10.00">::interpret</text>
</a>
</g>
</g>
<!-- Node8&#45;&gt;Node9 -->
<g id="edge10" class="edge">
<title>Node8&#45;&gt;Node9</title>
<path fill="none" stroke="#63b8ff" d="M399.91,-227.44C411.19,-231.34 423.48,-236.36 434,-242.5 452.24,-253.14 452.05,-262.38 470,-273.5 471.88,-274.67 473.83,-275.8 475.82,-276.9"/>
<polygon fill="#63b8ff" stroke="#63b8ff" points="474.2,-280 484.7,-281.41 477.37,-273.76 474.2,-280"/>
</g>
<!-- Node11 -->
<g id="node11" class="node">
<title>Node11</title>
<g id="a_node11"><a xlink:href="classkepler_1_1_parser.html#a95c4ec7bfd2c105b1cd43f0906641f3f" target="_top" xlink:title=" ">
<polygon fill="white" stroke="#666666" points="581.5,-264 474.5,-264 474.5,-245 581.5,-245 581.5,-264"/>
<text text-anchor="middle" x="528" y="-252" font-family="Helvetica,sans-Serif" font-size="10.00">kepler::Parser::parse</text>
</a>
</g>
</g>
<!-- Node8&#45;&gt;Node11 -->
<g id="edge12" class="edge">
<title>Node8&#45;&gt;Node11</title>
<path fill="none" stroke="#63b8ff" d="M408.05,-227.42C427.81,-231.92 451.4,-237.29 472.34,-242.05"/>
<polygon fill="#63b8ff" stroke="#63b8ff" points="471.33,-245.41 481.86,-244.22 472.88,-238.59 471.33,-245.41"/>
</g>
<!-- Node12 -->
<g id="node12" class="node">
<title>Node12</title>
<g id="a_node12"><a xlink:href="structkepler_1_1_array.html#afccb5c77a5934c2bcdfed7032b381ced" target="_top" xlink:title=" ">
<polygon fill="white" stroke="#666666" points="586,-227 470,-227 470,-208 586,-208 586,-227"/>
<text text-anchor="middle" x="528" y="-215" font-family="Helvetica,sans-Serif" font-size="10.00">kepler::Array::to_string</text>
</a>
</g>
</g>
<!-- Node8&#45;&gt;Node12 -->
<g id="edge13" class="edge">
<title>Node8&#45;&gt;Node12</title>
<path fill="none" stroke="#63b8ff" d="M434.36,-217.5C442.33,-217.5 450.46,-217.5 458.42,-217.5"/>
<polygon fill="#63b8ff" stroke="#63b8ff" points="458.41,-221 468.41,-217.5 458.41,-214 458.41,-221"/>
</g>
<!-- Node14 -->
<g id="node14" class="node">
<title>Node14</title>
<g id="a_node14"><a xlink:href="classkepler_1_1_tokenizer.html#a218312e24753d8d2e66d499bdbcce55c" target="_top" xlink:title=" ">
<polygon fill="white" stroke="#666666" points="576.5,-189.5 479.5,-189.5 479.5,-159.5 576.5,-159.5 576.5,-189.5"/>
<text text-anchor="start" x="487.5" y="-177.5" font-family="Helvetica,sans-Serif" font-size="10.00">kepler::Tokenizer::</text>
<text text-anchor="middle" x="528" y="-166.5" font-family="Helvetica,sans-Serif" font-size="10.00">tokenize</text>
</a>
</g>
</g>
<!-- Node8&#45;&gt;Node14 -->
<g id="edge15" class="edge">
<title>Node8&#45;&gt;Node14</title>
<path fill="none" stroke="#63b8ff" d="M402.19,-207.53C421.76,-202.35 446.12,-195.9 468.11,-190.08"/>
<polygon fill="#63b8ff" stroke="#63b8ff" points="468.78,-193.53 477.55,-187.59 466.99,-186.76 468.78,-193.53"/>
</g>
<!-- Node15 -->
<g id="node15" class="node">
<title>Node15</title>
<g id="a_node15"><a xlink:href="classkepler_1_1_parser.html#a8bae598977617c13f71ce43cadd806b4" target="_top" xlink:title=" ">
<polygon fill="white" stroke="#666666" points="577.5,-141.5 478.5,-141.5 478.5,-111.5 577.5,-111.5 577.5,-141.5"/>
<text text-anchor="start" x="486.5" y="-129.5" font-family="Helvetica,sans-Serif" font-size="10.00">kepler::Parser::use</text>
<text text-anchor="middle" x="528" y="-118.5" font-family="Helvetica,sans-Serif" font-size="10.00">_table</text>
</a>
</g>
</g>
<!-- Node8&#45;&gt;Node15 -->
<g id="edge16" class="edge">
<title>Node8&#45;&gt;Node15</title>
<path fill="none" stroke="#63b8ff" d="M416.31,-207.5C422.56,-205.11 428.62,-202.16 434,-198.5 456.05,-183.51 448.98,-166.91 470,-150.5 471.3,-149.49 472.64,-148.51 474.02,-147.57"/>
<polygon fill="#63b8ff" stroke="#63b8ff" points="475.51,-150.76 482.3,-142.62 471.92,-144.75 475.51,-150.76"/>
</g>
<!-- Node10 -->
<g id="node10" class="node">
<title>Node10</title>
<g id="a_node10"><a xlink:href="structkepler_1_1_a_s_t_node.html#a05bfe92973fce5532d1bdc50fc9b56eb" target="_top" xlink:title=" ">
<polygon fill="white" stroke="#666666" points="749,-307 622,-307 622,-288 749,-288 749,-307"/>
<text text-anchor="middle" x="685.5" y="-295" font-family="Helvetica,sans-Serif" font-size="10.00">kepler::ASTNode::accept</text>
</a>
</g>
</g>
<!-- Node9&#45;&gt;Node10 -->
<g id="edge11" class="edge">
<title>Node9&#45;&gt;Node10</title>
<path fill="none" stroke="#63b8ff" d="M574.81,-297.5C585.95,-297.5 598.14,-297.5 610.22,-297.5"/>
<polygon fill="#63b8ff" stroke="#63b8ff" points="610.21,-301 620.21,-297.5 610.21,-294 610.21,-301"/>
</g>
<!-- Node13 -->
<g id="node13" class="node">
<title>Node13</title>
<g id="a_node13"><a xlink:href="classkepler_1_1_symbol_table.html#ac34dc1ebd2c512e2d9af0453c6a59eaa" target="_top" xlink:title=" ">
<polygon fill="white" stroke="#666666" points="748,-227 623,-227 623,-208 748,-208 748,-227"/>
<text text-anchor="middle" x="685.5" y="-215" font-family="Helvetica,sans-Serif" font-size="10.00">kepler::SymbolTable::get</text>
</a>
</g>
</g>
<!-- Node12&#45;&gt;Node13 -->
<g id="edge14" class="edge">
<title>Node12&#45;&gt;Node13</title>
<path fill="none" stroke="#63b8ff" d="M586.46,-217.5C594.55,-217.5 602.95,-217.5 611.29,-217.5"/>
<polygon fill="#63b8ff" stroke="#63b8ff" points="611.06,-221 621.06,-217.5 611.06,-214 611.06,-221"/>
</g>
<!-- Node18 -->
<g id="node18" class="node">
<title>Node18</title>
<g id="a_node18"><a xlink:href="classkepler_1_1_error.html#af9f5362abadaec34cd6aec19abfb9734" target="_top" xlink:title=" ">
<polygon fill="white" stroke="#666666" points="575.5,-93 480.5,-93 480.5,-74 575.5,-74 575.5,-93"/>
<text text-anchor="middle" x="528" y="-81" font-family="Helvetica,sans-Serif" font-size="10.00">kepler::Error::type</text>
</a>
</g>
</g>
<!-- Node17&#45;&gt;Node18 -->
<g id="edge19" class="edge">
<title>Node17&#45;&gt;Node18</title>
<path fill="none" stroke="#63b8ff" d="M420.42,-71.69C436.09,-73.43 453.14,-75.32 468.93,-77.07"/>
<polygon fill="#63b8ff" stroke="#63b8ff" points="468.33,-80.52 478.65,-78.14 469.1,-73.56 468.33,-80.52"/>
</g>
<!-- Node20 -->
<g id="node20" class="node">
<title>Node20</title>
<g id="a_node20"><a xlink:href="classkepler_1_1_error.html#a28cce1690de3e69e3175e2bb82676797" target="_top" xlink:title=" ">
<polygon fill="white" stroke="#666666" points="579,-56 477,-56 477,-37 579,-37 579,-56"/>
<text text-anchor="middle" x="528" y="-44" font-family="Helvetica,sans-Serif" font-size="10.00">kepler::Error::where</text>
</a>
</g>
</g>
<!-- Node17&#45;&gt;Node20 -->
<g id="edge21" class="edge">
<title>Node17&#45;&gt;Node20</title>
<path fill="none" stroke="#63b8ff" d="M420.42,-58.96C434.98,-57.26 450.75,-55.42 465.57,-53.68"/>
<polygon fill="#63b8ff" stroke="#63b8ff" points="465.66,-57.2 475.19,-52.56 464.85,-50.24 465.66,-57.2"/>
</g>
<!-- Node21 -->
<g id="node21" class="node">
<title>Node21</title>
<g id="a_node21"><a xlink:href="classkepler_1_1_error.html#a70199e2d60e955b1d6a026b9aebed10d" target="_top" xlink:title=" ">
<polygon fill="white" stroke="#666666" points="575,-19 481,-19 481,0 575,0 575,-19"/>
<text text-anchor="middle" x="528" y="-7" font-family="Helvetica,sans-Serif" font-size="10.00">kepler::Error::why</text>
</a>
</g>
</g>
<!-- Node17&#45;&gt;Node21 -->
<g id="edge22" class="edge">
<title>Node17&#45;&gt;Node21</title>
<path fill="none" stroke="#63b8ff" d="M392.23,-55.64C413.48,-48.12 443.55,-37.54 470,-28.5 475.16,-26.74 480.58,-24.9 485.95,-23.1"/>
<polygon fill="#63b8ff" stroke="#63b8ff" points="486.99,-26.44 495.36,-19.95 484.77,-19.8 486.99,-26.44"/>
</g>
<!-- Node19 -->
<g id="node19" class="node">
<title>Node19</title>
<g id="a_node19"><a xlink:href="namespacekepler.html#a76d95d0e078e053088ec440c6e878ab3" target="_top" xlink:title=" ">
<polygon fill="white" stroke="#666666" points="728.5,-93 642.5,-93 642.5,-74 728.5,-74 728.5,-93"/>
<text text-anchor="middle" x="685.5" y="-81" font-family="Helvetica,sans-Serif" font-size="10.00">kepler::to_string</text>
</a>
</g>
</g>
<!-- Node18&#45;&gt;Node19 -->
<g id="edge20" class="edge">
<title>Node18&#45;&gt;Node19</title>
<path fill="none" stroke="#63b8ff" d="M575.66,-83.5C592.97,-83.5 612.76,-83.5 630.67,-83.5"/>
<polygon fill="#63b8ff" stroke="#63b8ff" points="630.6,-87 640.6,-83.5 630.6,-80 630.6,-87"/>
</g>
</g>
</svg>
        <g id="navigator" transform="translate(0 0)" fill="#404254">
                <rect fill="#f2f5e9" fill-opacity="0.5" stroke="#606060" stroke-width=".5" x="0" y="0" width="60" height="60"/>
                <use id="zoomplus" xlink:href="#zoomPlus" x="17" y="9" onmousedown="handleZoom(evt,'in')"/>
                <use id="zoomminus" xlink:href="#zoomMin" x="42" y="9" onmousedown="handleZoom(evt,'out')"/>
                <use id="reset" xlink:href="#resetDef" x="30" y="36" onmousedown="handleReset()"/>
                <g id="arrowUp" xlink:href="#dirArrow" transform="translate(30 24)" onmousedown="handlePan(0,-1)">
                  <use xlink:href="#rim" fill="#404040">
                        <set attributeName="fill" to="#808080" begin="arrowUp.mouseover" end="arrowUp.mouseout"/>
                  </use>
                  <path fill="none" stroke="white" stroke-width="1.5" d="M0,-3.0v7 M-2.5,-0.5L0,-3.0L2.5,-0.5"/>
                </g>
                <g id="arrowRight" xlink:href="#dirArrow" transform="rotate(90) translate(36 -43)" onmousedown="handlePan(1,0)">
                  <use xlink:href="#rim" fill="#404040">
                        <set attributeName="fill" to="#808080" begin="arrowRight.mouseover" end="arrowRight.mouseout"/>
                  </use>
                  <path fill="none" stroke="white" stroke-width="1.5" d="M0,-3.0v7 M-2.5,-0.5L0,-3.0L2.5,-0.5"/>
                </g>
                <g id="arrowDown" xlink:href="#dirArrow" transform="rotate(180) translate(-30 -48)" onmousedown="handlePan(0,1)">
                  <use xlink:href="#rim" fill="#404040">
                        <set attributeName="fill" to="#808080" begin="arrowDown.mouseover" end="arrowDown.mouseout"/>
                  </use>
                  <path fill="none" stroke="white" stroke-width="1.5" d="M0,-3.0v7 M-2.5,-0.5L0,-3.0L2.5,-0.5"/>
                </g>
                <g id="arrowLeft" xlink:href="#dirArrow" transform="rotate(270) translate(-36 17)" onmousedown="handlePan(-1,0)">
                  <use xlink:href="#rim" fill="#404040">
                        <set attributeName="fill" to="#808080" begin="arrowLeft.mouseover" end="arrowLeft.mouseout"/>
                  </use>
                  <path fill="none" stroke="white" stroke-width="1.5" d="M0,-3.0v7 M-2.5,-0.5L0,-3.0L2.5,-0.5"/>
                </g>
        </g>
        <svg viewBox="0 0 15 15" width="100%" height="30px" preserveAspectRatio="xMaxYMin meet">
         <g id="arrow_out" transform="scale(0.3 0.3)">
          <a xlink:href="namespacekepler_a2eea97746f0ae5fd054d304271c171f5_cgraph_org.svg" target="_base">
           <rect id="button" ry="5" rx="5" y="6" x="6" height="38" width="38"
                fill="#f2f5e9" fill-opacity="0.5" stroke="#606060" stroke-width="1.0"/>
           <path id="arrow"
             d="M 11.500037,31.436501 C 11.940474,20.09759 22.043105,11.32322 32.158766,21.979434 L 37.068811,17.246167 C 37.068811,17.246167 37.088388,32 37.088388,32 L 22.160133,31.978069 C 22.160133,31.978069 26.997745,27.140456 26.997745,27.140456 C 18.528582,18.264221 13.291696,25.230495 11.500037,31.436501 z"
             style="fill:#404040;"/>
          </a>
         </g>
        </svg>
</svg>
