<?xml version="1.0" encoding="UTF-8" standalone="no"?>
<!DOCTYPE svg PUBLIC "-//W3C//DTD SVG 1.1//EN"
 "http://www.w3.org/Graphics/SVG/1.1/DTD/svg11.dtd">
<!-- Generated by graphviz version 7.1.0 (20230121.1956)
 -->
<!-- Title: kepler::constants::check_valid_system_param_value Pages: 1 -->
<svg width="316pt" height="56pt"
 viewBox="0.00 0.00 316.00 56.00" xmlns="http://www.w3.org/2000/svg" xmlns:xlink="http://www.w3.org/1999/xlink">
<g id="graph0" class="graph" transform="scale(1 1) rotate(0) translate(4 52)">
<title>kepler::constants::check_valid_system_param_value</title>
<!-- Node1 -->
<g id="node1" class="node">
<title>Node1</title>
<g id="a_node1"><a xlink:title=" ">
<polygon fill="#999999" stroke="#666666" points="167,-30 0,-30 0,0 167,0 167,-30"/>
<text text-anchor="start" x="8" y="-18" font-family="Helvetica,sans-Serif" font-size="10.00">kepler::constants::</text>
<text text-anchor="middle" x="83.5" y="-7" font-family="Helvetica,sans-Serif" font-size="10.00">check_valid_system_param_value</text>
</a>
</g>
</g>
<!-- Node1&#45;&gt;Node1 -->
<g id="edge1" class="edge">
<title>Node1&#45;&gt;Node1</title>
<path fill="none" stroke="#63b8ff" d="M53.27,-30.28C46.55,-39.41 56.62,-48 83.5,-48 98.2,-48 107.87,-45.43 112.52,-41.61"/>
<polygon fill="#63b8ff" stroke="#63b8ff" points="115.99,-42.1 113.57,-31.78 109.03,-41.35 115.99,-42.1"/>
</g>
<!-- Node2 -->
<g id="node2" class="node">
<title>Node2</title>
<g id="a_node2"><a xlink:href="structkepler_1_1_array.html#a9d4e4ca37cd263142d76ca0a56346991" target="_top" xlink:title=" ">
<polygon fill="white" stroke="#666666" points="308,-24.5 203,-24.5 203,-5.5 308,-5.5 308,-24.5"/>
<text text-anchor="middle" x="255.5" y="-12.5" font-family="Helvetica,sans-Serif" font-size="10.00">kepler::Array::empty</text>
</a>
</g>
</g>
<!-- Node1&#45;&gt;Node2 -->
<g id="edge2" class="edge">
<title>Node1&#45;&gt;Node2</title>
<path fill="none" stroke="#63b8ff" d="M167.01,-15C175.19,-15 183.41,-15 191.35,-15"/>
<polygon fill="#63b8ff" stroke="#63b8ff" points="191.25,-18.5 201.25,-15 191.25,-11.5 191.25,-18.5"/>
</g>
</g>
</svg>
