<?xml version="1.0" encoding="UTF-8" standalone="no"?>
<!DOCTYPE svg PUBLIC "-//W3C//DTD SVG 1.1//EN"
 "http://www.w3.org/Graphics/SVG/1.1/DTD/svg11.dtd">
<!-- Generated by graphviz version 7.1.0 (20230121.1956)
 -->
<!-- Title: kepler::run_file Pages: 1 -->
<!--zoomable 433 -->
<svg id="main" version="1.1" xmlns="http://www.w3.org/2000/svg" xmlns:xlink="http://www.w3.org/1999/xlink" xml:space="preserve" onload="init(evt)">
<style type="text/css"><![CDATA[
.edge:hover path { stroke: red; }
.edge:hover polygon { stroke: red; fill: red; }
]]></style>
<script type="text/javascript"><![CDATA[
var edges = document.getElementsByTagName('g');
if (edges && edges.length) {
  for (var i=0;i<edges.length;i++) {
    if (edges[i].id.substr(0,4)=='edge') {
      edges[i].setAttribute('class','edge');
    }
  }
}
]]></script>
        <defs>
                <circle id="rim" cx="0" cy="0" r="7"/>
                <circle id="rim2" cx="0" cy="0" r="3.5"/>
                <g id="zoomPlus">
                        <use xlink:href="#rim" fill="#404040">
                                <set attributeName="fill" to="#808080" begin="zoomplus.mouseover" end="zoomplus.mouseout"/>
                        </use>
                        <path d="M-4,0h8M0,-4v8" fill="none" stroke="white" stroke-width="1.5" pointer-events="none"/>
                </g>
                <g id="zoomMin">
                        <use xlink:href="#rim" fill="#404040">
                                <set attributeName="fill" to="#808080" begin="zoomminus.mouseover" end="zoomminus.mouseout"/>
                        </use>
                        <path d="M-4,0h8" fill="none" stroke="white" stroke-width="1.5" pointer-events="none"/>
                </g>
                <g id="dirArrow">
                        <path fill="none" stroke="white" stroke-width="1.5" d="M0,-3.0v7 M-2.5,-0.5L0,-3.0L2.5,-0.5"/>
                </g>
               <g id="resetDef">
                       <use xlink:href="#rim2" fill="#404040">
                               <set attributeName="fill" to="#808080" begin="reset.mouseover" end="reset.mouseout"/>
                       </use>
               </g>
        </defs>

<script type="text/javascript">
var viewWidth = 589;
var viewHeight = 433;
var sectionId = 'dynsection-43';
</script>
<script xlink:href="svgpan.js"/>
<svg id="graph" class="graph">
<g id="viewport">
<title>kepler::run_file</title>
<!-- Node1 -->
<g id="node1" class="node">
<title>Node1</title>
<g id="a_node1"><a xlink:title=" ">
<polygon fill="#999999" stroke="#666666" points="80,-237 0,-237 0,-218 80,-218 80,-237"/>
<text text-anchor="middle" x="40" y="-225" font-family="Helvetica,sans-Serif" font-size="10.00">kepler::run_file</text>
</a>
</g>
</g>
<!-- Node2 -->
<g id="node2" class="node">
<title>Node2</title>
<g id="a_node2"><a xlink:href="classkepler_1_1_symbol_table.html#a95e2ea1cc4b5a2a669c3b65ef4d545cc" target="_top" xlink:title=" ">
<polygon fill="white" stroke="#666666" points="239,-424.5 134,-424.5 134,-394.5 239,-394.5 239,-424.5"/>
<text text-anchor="start" x="142" y="-412.5" font-family="Helvetica,sans-Serif" font-size="10.00">kepler::SymbolTable</text>
<text text-anchor="middle" x="186.5" y="-401.5" font-family="Helvetica,sans-Serif" font-size="10.00">::clear</text>
</a>
</g>
</g>
<!-- Node1&#45;&gt;Node2 -->
<g id="edge1" class="edge">
<title>Node1&#45;&gt;Node2</title>
<path fill="none" stroke="#63b8ff" d="M42.87,-237.24C48.65,-264.65 68.71,-343.18 116,-385.5 118.41,-387.65 121.02,-389.62 123.77,-391.41"/>
<polygon fill="#63b8ff" stroke="#63b8ff" points="121.8,-394.32 132.24,-396.11 125.19,-388.2 121.8,-394.32"/>
</g>
<!-- Node3 -->
<g id="node3" class="node">
<title>Node3</title>
<g id="a_node3"><a xlink:href="execution_8cpp.html#aa688fb368d750916706ef22d45dcab1f" target="_top" xlink:title=" ">
<polygon fill="white" stroke="#666666" points="222,-376 151,-376 151,-357 222,-357 222,-376"/>
<text text-anchor="middle" x="186.5" y="-364" font-family="Helvetica,sans-Serif" font-size="10.00">concat_lines</text>
</a>
</g>
</g>
<!-- Node1&#45;&gt;Node3 -->
<g id="edge2" class="edge">
<title>Node1&#45;&gt;Node3</title>
<path fill="none" stroke="#63b8ff" d="M44.24,-237.43C52.34,-260.68 75.8,-318.9 116,-348.5 122.98,-353.64 131.29,-357.31 139.7,-359.94"/>
<polygon fill="#63b8ff" stroke="#63b8ff" points="138.69,-363.29 149.25,-362.44 140.46,-356.52 138.69,-363.29"/>
</g>
<!-- Node4 -->
<g id="node4" class="node">
<title>Node4</title>
<g id="a_node4"><a xlink:href="execution_8cpp.html#a3e0030c2b63e5204d11acccc92bdecde" target="_top" xlink:title=" ">
<polygon fill="white" stroke="#666666" points="213,-339 160,-339 160,-320 213,-320 213,-339"/>
<text text-anchor="middle" x="186.5" y="-327" font-family="Helvetica,sans-Serif" font-size="10.00">find_line</text>
</a>
</g>
</g>
<!-- Node1&#45;&gt;Node4 -->
<g id="edge3" class="edge">
<title>Node1&#45;&gt;Node4</title>
<path fill="none" stroke="#63b8ff" d="M46.88,-237.24C58.06,-254.87 84.12,-292.06 116,-311.5 125.79,-317.47 137.53,-321.48 148.54,-324.16"/>
<polygon fill="#63b8ff" stroke="#63b8ff" points="147.66,-327.55 158.16,-326.19 149.1,-320.7 147.66,-327.55"/>
</g>
<!-- Node5 -->
<g id="node5" class="node">
<title>Node5</title>
<g id="a_node5"><a xlink:href="namespacekepler.html#a914686a7f5a60684440d93ed33a3a959" target="_top" xlink:title=" ">
<polygon fill="white" stroke="#666666" points="257,-302 116,-302 116,-283 257,-283 257,-302"/>
<text text-anchor="middle" x="186.5" y="-290" font-family="Helvetica,sans-Serif" font-size="10.00">kepler::immediate_execution</text>
</a>
</g>
</g>
<!-- Node1&#45;&gt;Node5 -->
<g id="edge4" class="edge">
<title>Node1&#45;&gt;Node5</title>
<path fill="none" stroke="#63b8ff" d="M54.46,-237.39C68.99,-247.66 93.15,-263.61 116,-273.5 120.84,-275.59 125.97,-277.51 131.16,-279.26"/>
<polygon fill="#63b8ff" stroke="#63b8ff" points="129.81,-282.5 140.4,-282.15 131.9,-275.82 129.81,-282.5"/>
</g>
<!-- Node13 -->
<g id="node13" class="node">
<title>Node13</title>
<g id="a_node13"><a xlink:href="classkepler_1_1_symbol_table.html#a581a7fca6bcd04dcb26c385818693b8b" target="_top" xlink:title=" ">
<polygon fill="white" stroke="#666666" points="255.5,-264.5 117.5,-264.5 117.5,-234.5 255.5,-234.5 255.5,-264.5"/>
<text text-anchor="start" x="125.5" y="-252.5" font-family="Helvetica,sans-Serif" font-size="10.00">kepler::SymbolTable</text>
<text text-anchor="middle" x="186.5" y="-241.5" font-family="Helvetica,sans-Serif" font-size="10.00">::insert_system_parameters</text>
</a>
</g>
</g>
<!-- Node1&#45;&gt;Node13 -->
<g id="edge12" class="edge">
<title>Node1&#45;&gt;Node13</title>
<path fill="none" stroke="#63b8ff" d="M80.49,-233.51C88.48,-234.73 97.14,-236.05 105.96,-237.39"/>
<polygon fill="#63b8ff" stroke="#63b8ff" points="105.25,-240.82 115.67,-238.87 106.31,-233.9 105.25,-240.82"/>
</g>
<!-- Node16 -->
<g id="node16" class="node">
<title>Node16</title>
<g id="a_node16"><a xlink:href="namespacekepler.html#a9b4442cb52b01b9205ef895e825044fe" target="_top" xlink:title=" ">
<polygon fill="white" stroke="#666666" points="229.5,-216 143.5,-216 143.5,-197 229.5,-197 229.5,-216"/>
<text text-anchor="middle" x="186.5" y="-204" font-family="Helvetica,sans-Serif" font-size="10.00">kepler::read_file</text>
</a>
</g>
</g>
<!-- Node1&#45;&gt;Node16 -->
<g id="edge17" class="edge">
<title>Node1&#45;&gt;Node16</title>
<path fill="none" stroke="#63b8ff" d="M80.49,-221.76C96.39,-219.45 114.98,-216.75 132.06,-214.27"/>
<polygon fill="#63b8ff" stroke="#63b8ff" points="132.13,-217.79 141.53,-212.89 131.13,-210.87 132.13,-217.79"/>
</g>
<!-- Node17 -->
<g id="node17" class="node">
<title>Node17</title>
<g id="a_node17"><a xlink:href="classkepler_1_1error.html#aec3e310a53eebc02228954bab4a13b53" target="_top" xlink:title=" ">
<polygon fill="white" stroke="#666666" points="239.5,-179 133.5,-179 133.5,-160 239.5,-160 239.5,-179"/>
<text text-anchor="middle" x="186.5" y="-167" font-family="Helvetica,sans-Serif" font-size="10.00">kepler::error::set_file</text>
</a>
</g>
</g>
<!-- Node1&#45;&gt;Node17 -->
<g id="edge18" class="edge">
<title>Node1&#45;&gt;Node17</title>
<path fill="none" stroke="#63b8ff" d="M57.5,-217.62C72.39,-209.02 95.09,-196.69 116,-188.5 121.32,-186.42 126.96,-184.47 132.63,-182.68"/>
<polygon fill="#63b8ff" stroke="#63b8ff" points="133.47,-186.08 142.05,-179.87 131.47,-179.37 133.47,-186.08"/>
</g>
<!-- Node18 -->
<g id="node18" class="node">
<title>Node18</title>
<g id="a_node18"><a xlink:href="classkepler_1_1error.html#aac71db552cb0211798d24627817abccf" target="_top" xlink:title=" ">
<polygon fill="white" stroke="#666666" points="230.5,-141.5 142.5,-141.5 142.5,-111.5 230.5,-111.5 230.5,-141.5"/>
<text text-anchor="start" x="150.5" y="-129.5" font-family="Helvetica,sans-Serif" font-size="10.00">kepler::error::set</text>
<text text-anchor="middle" x="186.5" y="-118.5" font-family="Helvetica,sans-Serif" font-size="10.00">_input</text>
</a>
</g>
</g>
<!-- Node1&#45;&gt;Node18 -->
<g id="edge19" class="edge">
<title>Node1&#45;&gt;Node18</title>
<path fill="none" stroke="#63b8ff" d="M48.24,-217.73C60.52,-201.77 86.95,-170.07 116,-151.5 120.87,-148.39 126.18,-145.59 131.63,-143.11"/>
<polygon fill="#63b8ff" stroke="#63b8ff" points="132.92,-146.36 140.79,-139.28 130.22,-139.9 132.92,-146.36"/>
</g>
<!-- Node19 -->
<g id="node19" class="node">
<title>Node19</title>
<g id="a_node19"><a xlink:href="classkepler_1_1error.html#a055901085cd5171f7a6afa76b9fb526c" target="_top" xlink:title=" ">
<polygon fill="white" stroke="#666666" points="240.5,-93 132.5,-93 132.5,-74 240.5,-74 240.5,-93"/>
<text text-anchor="middle" x="186.5" y="-81" font-family="Helvetica,sans-Serif" font-size="10.00">kepler::error::set_line</text>
</a>
</g>
</g>
<!-- Node1&#45;&gt;Node19 -->
<g id="edge20" class="edge">
<title>Node1&#45;&gt;Node19</title>
<path fill="none" stroke="#63b8ff" d="M44.05,-217.64C51.89,-193.95 75.06,-133.54 116,-102.5 117.91,-101.05 119.92,-99.72 122.01,-98.48"/>
<polygon fill="#63b8ff" stroke="#63b8ff" points="123.48,-101.66 130.89,-94.09 120.37,-95.39 123.48,-101.66"/>
</g>
<!-- Node20 -->
<g id="node20" class="node">
<title>Node20</title>
<g id="a_node20"><a xlink:href="classkepler_1_1error.html#a9d1264b80888d725ef312a662ee4e5be" target="_top" xlink:title=" ">
<polygon fill="white" stroke="#666666" points="242.5,-56 130.5,-56 130.5,-37 242.5,-37 242.5,-56"/>
<text text-anchor="middle" x="186.5" y="-44" font-family="Helvetica,sans-Serif" font-size="10.00">kepler::error::to_string</text>
</a>
</g>
</g>
<!-- Node1&#45;&gt;Node20 -->
<g id="edge21" class="edge">
<title>Node1&#45;&gt;Node20</title>
<path fill="none" stroke="#63b8ff" d="M42.58,-217.76C47.67,-189.62 66.31,-107.53 116,-65.5 117.51,-64.22 119.1,-63.03 120.75,-61.92"/>
<polygon fill="#63b8ff" stroke="#63b8ff" points="122.4,-65 129.47,-57.11 119.02,-58.87 122.4,-65"/>
</g>
<!-- Node6 -->
<g id="node6" class="node">
<title>Node6</title>
<g id="a_node6"><a xlink:href="structkepler_1_1_interpreter.html#a2ec19db70151e2f0eb937421a8618935" target="_top" xlink:title=" ">
<polygon fill="white" stroke="#666666" points="402,-408.5 309,-408.5 309,-378.5 402,-378.5 402,-408.5"/>
<text text-anchor="start" x="317" y="-396.5" font-family="Helvetica,sans-Serif" font-size="10.00">kepler::Interpreter</text>
<text text-anchor="middle" x="355.5" y="-385.5" font-family="Helvetica,sans-Serif" font-size="10.00">::interpret</text>
</a>
</g>
</g>
<!-- Node5&#45;&gt;Node6 -->
<g id="edge5" class="edge">
<title>Node5&#45;&gt;Node6</title>
<path fill="none" stroke="#63b8ff" d="M240.7,-302.49C246.51,-304.88 252.09,-307.83 257,-311.5 281.32,-329.65 269.67,-350.1 293,-369.5 294.9,-371.08 296.91,-372.56 299.01,-373.95"/>
<polygon fill="#63b8ff" stroke="#63b8ff" points="296.9,-376.78 307.32,-378.73 300.39,-370.71 296.9,-376.78"/>
</g>
<!-- Node8 -->
<g id="node8" class="node">
<title>Node8</title>
<g id="a_node8"><a xlink:href="classkepler_1_1_parser.html#a95c4ec7bfd2c105b1cd43f0906641f3f" target="_top" xlink:title=" ">
<polygon fill="white" stroke="#666666" points="409,-360 302,-360 302,-341 409,-341 409,-360"/>
<text text-anchor="middle" x="355.5" y="-348" font-family="Helvetica,sans-Serif" font-size="10.00">kepler::Parser::parse</text>
</a>
</g>
</g>
<!-- Node5&#45;&gt;Node8 -->
<g id="edge7" class="edge">
<title>Node5&#45;&gt;Node8</title>
<path fill="none" stroke="#63b8ff" d="M230.73,-302.43C239.57,-304.99 248.7,-308.01 257,-311.5 274.08,-318.67 275.99,-325.18 293,-332.5 296.75,-334.11 300.68,-335.63 304.67,-337.05"/>
<polygon fill="#63b8ff" stroke="#63b8ff" points="303.25,-340.27 313.85,-340.1 305.46,-333.63 303.25,-340.27"/>
</g>
<!-- Node9 -->
<g id="node9" class="node">
<title>Node9</title>
<g id="a_node9"><a xlink:href="structkepler_1_1_array.html#afccb5c77a5934c2bcdfed7032b381ced" target="_top" xlink:title=" ">
<polygon fill="white" stroke="#666666" points="413.5,-323 297.5,-323 297.5,-304 413.5,-304 413.5,-323"/>
<text text-anchor="middle" x="355.5" y="-311" font-family="Helvetica,sans-Serif" font-size="10.00">kepler::Array::to_string</text>
</a>
</g>
</g>
<!-- Node5&#45;&gt;Node9 -->
<g id="edge8" class="edge">
<title>Node5&#45;&gt;Node9</title>
<path fill="none" stroke="#63b8ff" d="M257.36,-301.28C266.76,-302.47 276.4,-303.68 285.79,-304.86"/>
<polygon fill="#63b8ff" stroke="#63b8ff" points="285.21,-308.31 295.57,-306.09 286.09,-301.37 285.21,-308.31"/>
</g>
<!-- Node11 -->
<g id="node11" class="node">
<title>Node11</title>
<g id="a_node11"><a xlink:href="classkepler_1_1_tokenizer.html#a218312e24753d8d2e66d499bdbcce55c" target="_top" xlink:title=" ">
<polygon fill="white" stroke="#666666" points="404,-285.5 307,-285.5 307,-255.5 404,-255.5 404,-285.5"/>
<text text-anchor="start" x="315" y="-273.5" font-family="Helvetica,sans-Serif" font-size="10.00">kepler::Tokenizer::</text>
<text text-anchor="middle" x="355.5" y="-262.5" font-family="Helvetica,sans-Serif" font-size="10.00">tokenize</text>
</a>
</g>
</g>
<!-- Node5&#45;&gt;Node11 -->
<g id="edge10" class="edge">
<title>Node5&#45;&gt;Node11</title>
<path fill="none" stroke="#63b8ff" d="M257.36,-283.3C270.08,-281.62 283.25,-279.89 295.62,-278.26"/>
<polygon fill="#63b8ff" stroke="#63b8ff" points="295.76,-281.77 305.22,-276.99 294.85,-274.83 295.76,-281.77"/>
</g>
<!-- Node12 -->
<g id="node12" class="node">
<title>Node12</title>
<g id="a_node12"><a xlink:href="classkepler_1_1_parser.html#a8bae598977617c13f71ce43cadd806b4" target="_top" xlink:title=" ">
<polygon fill="white" stroke="#666666" points="405,-237.5 306,-237.5 306,-207.5 405,-207.5 405,-237.5"/>
<text text-anchor="start" x="314" y="-225.5" font-family="Helvetica,sans-Serif" font-size="10.00">kepler::Parser::use</text>
<text text-anchor="middle" x="355.5" y="-214.5" font-family="Helvetica,sans-Serif" font-size="10.00">_table</text>
</a>
</g>
</g>
<!-- Node5&#45;&gt;Node12 -->
<g id="edge11" class="edge">
<title>Node5&#45;&gt;Node12</title>
<path fill="none" stroke="#63b8ff" d="M233.64,-282.52C241.62,-280.06 249.7,-277.07 257,-273.5 274.96,-264.71 275.52,-256.22 293,-246.5 295.32,-245.21 297.73,-243.95 300.19,-242.74"/>
<polygon fill="#63b8ff" stroke="#63b8ff" points="301.5,-245.99 309.11,-238.62 298.56,-239.63 301.5,-245.99"/>
</g>
<!-- Node7 -->
<g id="node7" class="node">
<title>Node7</title>
<g id="a_node7"><a xlink:href="structkepler_1_1_a_s_t_node.html#a05bfe92973fce5532d1bdc50fc9b56eb" target="_top" xlink:title=" ">
<polygon fill="white" stroke="#666666" points="581,-403 454,-403 454,-384 581,-384 581,-403"/>
<text text-anchor="middle" x="517.5" y="-391" font-family="Helvetica,sans-Serif" font-size="10.00">kepler::ASTNode::accept</text>
</a>
</g>
</g>
<!-- Node6&#45;&gt;Node7 -->
<g id="edge6" class="edge">
<title>Node6&#45;&gt;Node7</title>
<path fill="none" stroke="#63b8ff" d="M402.35,-393.5C414.83,-393.5 428.68,-393.5 442.3,-393.5"/>
<polygon fill="#63b8ff" stroke="#63b8ff" points="442.14,-397 452.14,-393.5 442.14,-390 442.14,-397"/>
</g>
<!-- Node10 -->
<g id="node10" class="node">
<title>Node10</title>
<g id="a_node10"><a xlink:href="classkepler_1_1_symbol_table.html#a1d080f6571e21935f800524195b5e5a7" target="_top" xlink:title=" ">
<polygon fill="white" stroke="#666666" points="580,-323 455,-323 455,-304 580,-304 580,-323"/>
<text text-anchor="middle" x="517.5" y="-311" font-family="Helvetica,sans-Serif" font-size="10.00">kepler::SymbolTable::get</text>
</a>
</g>
</g>
<!-- Node9&#45;&gt;Node10 -->
<g id="edge9" class="edge">
<title>Node9&#45;&gt;Node10</title>
<path fill="none" stroke="#63b8ff" d="M413.81,-313.5C423.35,-313.5 433.36,-313.5 443.23,-313.5"/>
<polygon fill="#63b8ff" stroke="#63b8ff" points="443.2,-317 453.2,-313.5 443.2,-310 443.2,-317"/>
</g>
<!-- Node14 -->
<g id="node14" class="node">
<title>Node14</title>
<g id="a_node14"><a xlink:href="classkepler_1_1_symbol_table.html#a928b41896a0c0f1b5eef23ae3f35c3b3" target="_top" xlink:title=" ">
<polygon fill="white" stroke="#666666" points="418,-171 293,-171 293,-152 418,-152 418,-171"/>
<text text-anchor="middle" x="355.5" y="-159" font-family="Helvetica,sans-Serif" font-size="10.00">kepler::SymbolTable::set</text>
</a>
</g>
</g>
<!-- Node13&#45;&gt;Node14 -->
<g id="edge13" class="edge">
<title>Node13&#45;&gt;Node14</title>
<path fill="none" stroke="#63b8ff" d="M238.02,-234.14C244.54,-231.56 251.02,-228.67 257,-225.5 274.67,-216.12 276.41,-209.67 293,-198.5 303.97,-191.12 316.41,-183.5 327.21,-177.11"/>
<polygon fill="#63b8ff" stroke="#63b8ff" points="328.8,-180.24 335.67,-172.17 325.27,-174.19 328.8,-180.24"/>
</g>
<!-- Node14&#45;&gt;Node14 -->
<g id="edge16" class="edge">
<title>Node14&#45;&gt;Node14</title>
<path fill="none" stroke="#63b8ff" d="M330.14,-171.37C318.57,-179.94 327.02,-189 355.5,-189 371.52,-189 381.2,-186.13 384.55,-182.1"/>
<polygon fill="#63b8ff" stroke="#63b8ff" points="387.91,-181.12 381.35,-172.8 381.29,-183.39 387.91,-181.12"/>
</g>
<!-- Node15 -->
<g id="node15" class="node">
<title>Node15</title>
<g id="a_node15"><a xlink:href="classkepler_1_1_symbol_table.html#a57403652693faf5adf05509f540520e9" target="_top" xlink:title=" ">
<polygon fill="white" stroke="#666666" points="570,-176.5 465,-176.5 465,-146.5 570,-146.5 570,-176.5"/>
<text text-anchor="start" x="473" y="-164.5" font-family="Helvetica,sans-Serif" font-size="10.00">kepler::SymbolTable</text>
<text text-anchor="middle" x="517.5" y="-153.5" font-family="Helvetica,sans-Serif" font-size="10.00">::contains</text>
</a>
</g>
</g>
<!-- Node14&#45;&gt;Node15 -->
<g id="edge14" class="edge">
<title>Node14&#45;&gt;Node15</title>
<path fill="none" stroke="#63b8ff" d="M418.36,-161.5C429.84,-161.5 441.84,-161.5 453.35,-161.5"/>
<polygon fill="#63b8ff" stroke="#63b8ff" points="453.15,-165 463.15,-161.5 453.15,-158 453.15,-165"/>
</g>
<!-- Node15&#45;&gt;Node15 -->
<g id="edge15" class="edge">
<title>Node15&#45;&gt;Node15</title>
<path fill="none" stroke="#63b8ff" d="M489.02,-176.78C482.7,-185.91 492.19,-194.5 517.5,-194.5 531.34,-194.5 540.45,-191.93 544.83,-188.11"/>
<polygon fill="#63b8ff" stroke="#63b8ff" points="548.3,-188.58 545.82,-178.28 541.34,-187.88 548.3,-188.58"/>
</g>
<!-- Node21 -->
<g id="node21" class="node">
<title>Node21</title>
<g id="a_node21"><a xlink:href="classkepler_1_1error.html#a7694165073a5e4844154e625f5fddf6c" target="_top" xlink:title=" ">
<polygon fill="white" stroke="#666666" points="402,-93 309,-93 309,-74 402,-74 402,-93"/>
<text text-anchor="middle" x="355.5" y="-81" font-family="Helvetica,sans-Serif" font-size="10.00">kepler::error::type</text>
</a>
</g>
</g>
<!-- Node20&#45;&gt;Node21 -->
<g id="edge22" class="edge">
<title>Node20&#45;&gt;Node21</title>
<path fill="none" stroke="#63b8ff" d="M232.25,-56.42C252.66,-60.94 277.03,-66.34 298.62,-71.12"/>
<polygon fill="#63b8ff" stroke="#63b8ff" points="297.63,-74.48 308.15,-73.23 299.14,-67.65 297.63,-74.48"/>
</g>
<!-- Node23 -->
<g id="node23" class="node">
<title>Node23</title>
<g id="a_node23"><a xlink:href="classkepler_1_1error.html#a4e6ac4013bc23fa893866d2bb0f5d6b8" target="_top" xlink:title=" ">
<polygon fill="white" stroke="#666666" points="406,-56 305,-56 305,-37 406,-37 406,-56"/>
<text text-anchor="middle" x="355.5" y="-44" font-family="Helvetica,sans-Serif" font-size="10.00">kepler::error::where</text>
</a>
</g>
</g>
<!-- Node20&#45;&gt;Node23 -->
<g id="edge24" class="edge">
<title>Node20&#45;&gt;Node23</title>
<path fill="none" stroke="#63b8ff" d="M242.64,-46.5C258.93,-46.5 276.85,-46.5 293.49,-46.5"/>
<polygon fill="#63b8ff" stroke="#63b8ff" points="293.25,-50 303.25,-46.5 293.25,-43 293.25,-50"/>
</g>
<!-- Node24 -->
<g id="node24" class="node">
<title>Node24</title>
<g id="a_node24"><a xlink:href="classkepler_1_1error.html#af431dcb57cb6e62850a8bb2d6258c5e7" target="_top" xlink:title=" ">
<polygon fill="white" stroke="#666666" points="401.5,-19 309.5,-19 309.5,0 401.5,0 401.5,-19"/>
<text text-anchor="middle" x="355.5" y="-7" font-family="Helvetica,sans-Serif" font-size="10.00">kepler::error::why</text>
</a>
</g>
</g>
<!-- Node20&#45;&gt;Node24 -->
<g id="edge25" class="edge">
<title>Node20&#45;&gt;Node24</title>
<path fill="none" stroke="#63b8ff" d="M232.25,-36.58C252.66,-32.06 277.03,-26.66 298.62,-21.88"/>
<polygon fill="#63b8ff" stroke="#63b8ff" points="299.14,-25.35 308.15,-19.77 297.63,-18.52 299.14,-25.35"/>
</g>
<!-- Node22 -->
<g id="node22" class="node">
<title>Node22</title>
<g id="a_node22"><a xlink:href="namespacekepler.html#a76d95d0e078e053088ec440c6e878ab3" target="_top" xlink:title=" ">
<polygon fill="white" stroke="#666666" points="560.5,-93 474.5,-93 474.5,-74 560.5,-74 560.5,-93"/>
<text text-anchor="middle" x="517.5" y="-81" font-family="Helvetica,sans-Serif" font-size="10.00">kepler::to_string</text>
</a>
</g>
</g>
<!-- Node21&#45;&gt;Node22 -->
<g id="edge23" class="edge">
<title>Node21&#45;&gt;Node22</title>
<path fill="none" stroke="#63b8ff" d="M402.35,-83.5C421.26,-83.5 443.31,-83.5 462.96,-83.5"/>
<polygon fill="#63b8ff" stroke="#63b8ff" points="462.69,-87 472.69,-83.5 462.69,-80 462.69,-87"/>
</g>
</g>
</svg>
        <g id="navigator" transform="translate(0 0)" fill="#404254">
                <rect fill="#f2f5e9" fill-opacity="0.5" stroke="#606060" stroke-width=".5" x="0" y="0" width="60" height="60"/>
                <use id="zoomplus" xlink:href="#zoomPlus" x="17" y="9" onmousedown="handleZoom(evt,'in')"/>
                <use id="zoomminus" xlink:href="#zoomMin" x="42" y="9" onmousedown="handleZoom(evt,'out')"/>
                <use id="reset" xlink:href="#resetDef" x="30" y="36" onmousedown="handleReset()"/>
                <g id="arrowUp" xlink:href="#dirArrow" transform="translate(30 24)" onmousedown="handlePan(0,-1)">
                  <use xlink:href="#rim" fill="#404040">
                        <set attributeName="fill" to="#808080" begin="arrowUp.mouseover" end="arrowUp.mouseout"/>
                  </use>
                  <path fill="none" stroke="white" stroke-width="1.5" d="M0,-3.0v7 M-2.5,-0.5L0,-3.0L2.5,-0.5"/>
                </g>
                <g id="arrowRight" xlink:href="#dirArrow" transform="rotate(90) translate(36 -43)" onmousedown="handlePan(1,0)">
                  <use xlink:href="#rim" fill="#404040">
                        <set attributeName="fill" to="#808080" begin="arrowRight.mouseover" end="arrowRight.mouseout"/>
                  </use>
                  <path fill="none" stroke="white" stroke-width="1.5" d="M0,-3.0v7 M-2.5,-0.5L0,-3.0L2.5,-0.5"/>
                </g>
                <g id="arrowDown" xlink:href="#dirArrow" transform="rotate(180) translate(-30 -48)" onmousedown="handlePan(0,1)">
                  <use xlink:href="#rim" fill="#404040">
                        <set attributeName="fill" to="#808080" begin="arrowDown.mouseover" end="arrowDown.mouseout"/>
                  </use>
                  <path fill="none" stroke="white" stroke-width="1.5" d="M0,-3.0v7 M-2.5,-0.5L0,-3.0L2.5,-0.5"/>
                </g>
                <g id="arrowLeft" xlink:href="#dirArrow" transform="rotate(270) translate(-36 17)" onmousedown="handlePan(-1,0)">
                  <use xlink:href="#rim" fill="#404040">
                        <set attributeName="fill" to="#808080" begin="arrowLeft.mouseover" end="arrowLeft.mouseout"/>
                  </use>
                  <path fill="none" stroke="white" stroke-width="1.5" d="M0,-3.0v7 M-2.5,-0.5L0,-3.0L2.5,-0.5"/>
                </g>
        </g>
        <svg viewBox="0 0 15 15" width="100%" height="30px" preserveAspectRatio="xMaxYMin meet">
         <g id="arrow_out" transform="scale(0.3 0.3)">
          <a xlink:href="namespacekepler_ae45e010aed51dc28b896694f75dc2ca7_cgraph_org.svg" target="_base">
           <rect id="button" ry="5" rx="5" y="6" x="6" height="38" width="38"
                fill="#f2f5e9" fill-opacity="0.5" stroke="#606060" stroke-width="1.0"/>
           <path id="arrow"
             d="M 11.500037,31.436501 C 11.940474,20.09759 22.043105,11.32322 32.158766,21.979434 L 37.068811,17.246167 C 37.068811,17.246167 37.088388,32 37.088388,32 L 22.160133,31.978069 C 22.160133,31.978069 26.997745,27.140456 26.997745,27.140456 C 18.528582,18.264221 13.291696,25.230495 11.500037,31.436501 z"
             style="fill:#404040;"/>
          </a>
         </g>
        </svg>
</svg>
