<?xml version="1.0" encoding="UTF-8" standalone="no"?>
<!DOCTYPE svg PUBLIC "-//W3C//DTD SVG 1.1//EN"
 "http://www.w3.org/Graphics/SVG/1.1/DTD/svg11.dtd">
<!-- Generated by graphviz version 7.1.0 (20230121.1956)
 -->
<!-- Title: kepler::immediate_execution Pages: 1 -->
<svg width="464pt" height="209pt"
 viewBox="0.00 0.00 464.00 209.00" xmlns="http://www.w3.org/2000/svg" xmlns:xlink="http://www.w3.org/1999/xlink">
<g id="graph0" class="graph" transform="scale(1 1) rotate(0) translate(4 205)">
<title>kepler::immediate_execution</title>
<!-- Node1 -->
<g id="node1" class="node">
<title>Node1</title>
<g id="a_node1"><a xlink:title=" ">
<polygon fill="#999999" stroke="#666666" points="141,-115.5 0,-115.5 0,-96.5 141,-96.5 141,-115.5"/>
<text text-anchor="middle" x="70.5" y="-103.5" font-family="Helvetica,sans-Serif" font-size="10.00">kepler::immediate_execution</text>
</a>
</g>
</g>
<!-- Node2 -->
<g id="node2" class="node">
<title>Node2</title>
<g id="a_node2"><a xlink:href="structkepler_1_1_interpreter.html#a2ec19db70151e2f0eb937421a8618935" target="_top" xlink:title=" ">
<polygon fill="white" stroke="#666666" points="281.5,-201 188.5,-201 188.5,-171 281.5,-171 281.5,-201"/>
<text text-anchor="start" x="196.5" y="-189" font-family="Helvetica,sans-Serif" font-size="10.00">kepler::Interpreter</text>
<text text-anchor="middle" x="235" y="-178" font-family="Helvetica,sans-Serif" font-size="10.00">::interpret</text>
</a>
</g>
</g>
<!-- Node1&#45;&gt;Node2 -->
<g id="edge1" class="edge">
<title>Node1&#45;&gt;Node2</title>
<path fill="none" stroke="#63b8ff" d="M88.8,-115.8C109.51,-127.38 145.34,-146.97 177,-162 179.86,-163.36 182.83,-164.73 185.83,-166.08"/>
<polygon fill="#63b8ff" stroke="#63b8ff" points="184.13,-169.15 194.69,-169.98 186.95,-162.75 184.13,-169.15"/>
</g>
<!-- Node4 -->
<g id="node4" class="node">
<title>Node4</title>
<g id="a_node4"><a xlink:href="classkepler_1_1_parser.html#a95c4ec7bfd2c105b1cd43f0906641f3f" target="_top" xlink:title=" ">
<polygon fill="white" stroke="#666666" points="288.5,-152.5 181.5,-152.5 181.5,-133.5 288.5,-133.5 288.5,-152.5"/>
<text text-anchor="middle" x="235" y="-140.5" font-family="Helvetica,sans-Serif" font-size="10.00">kepler::Parser::parse</text>
</a>
</g>
</g>
<!-- Node1&#45;&gt;Node4 -->
<g id="edge3" class="edge">
<title>Node1&#45;&gt;Node4</title>
<path fill="none" stroke="#63b8ff" d="M115.05,-115.92C134.81,-120.42 158.4,-125.79 179.34,-130.55"/>
<polygon fill="#63b8ff" stroke="#63b8ff" points="178.33,-133.91 188.86,-132.72 179.88,-127.09 178.33,-133.91"/>
</g>
<!-- Node5 -->
<g id="node5" class="node">
<title>Node5</title>
<g id="a_node5"><a xlink:href="structkepler_1_1_array.html#afccb5c77a5934c2bcdfed7032b381ced" target="_top" xlink:title=" ">
<polygon fill="white" stroke="#666666" points="293,-115.5 177,-115.5 177,-96.5 293,-96.5 293,-115.5"/>
<text text-anchor="middle" x="235" y="-103.5" font-family="Helvetica,sans-Serif" font-size="10.00">kepler::Array::to_string</text>
</a>
</g>
</g>
<!-- Node1&#45;&gt;Node5 -->
<g id="edge4" class="edge">
<title>Node1&#45;&gt;Node5</title>
<path fill="none" stroke="#63b8ff" d="M141.36,-106C149.33,-106 157.46,-106 165.42,-106"/>
<polygon fill="#63b8ff" stroke="#63b8ff" points="165.41,-109.5 175.41,-106 165.41,-102.5 165.41,-109.5"/>
</g>
<!-- Node7 -->
<g id="node7" class="node">
<title>Node7</title>
<g id="a_node7"><a xlink:href="classkepler_1_1_tokenizer.html#a218312e24753d8d2e66d499bdbcce55c" target="_top" xlink:title=" ">
<polygon fill="white" stroke="#666666" points="283.5,-78 186.5,-78 186.5,-48 283.5,-48 283.5,-78"/>
<text text-anchor="start" x="194.5" y="-66" font-family="Helvetica,sans-Serif" font-size="10.00">kepler::Tokenizer::</text>
<text text-anchor="middle" x="235" y="-55" font-family="Helvetica,sans-Serif" font-size="10.00">tokenize</text>
</a>
</g>
</g>
<!-- Node1&#45;&gt;Node7 -->
<g id="edge6" class="edge">
<title>Node1&#45;&gt;Node7</title>
<path fill="none" stroke="#63b8ff" d="M109.19,-96.03C128.76,-90.85 153.12,-84.4 175.11,-78.58"/>
<polygon fill="#63b8ff" stroke="#63b8ff" points="175.78,-82.03 184.55,-76.09 173.99,-75.26 175.78,-82.03"/>
</g>
<!-- Node8 -->
<g id="node8" class="node">
<title>Node8</title>
<g id="a_node8"><a xlink:href="classkepler_1_1_parser.html#a8bae598977617c13f71ce43cadd806b4" target="_top" xlink:title=" ">
<polygon fill="white" stroke="#666666" points="284.5,-30 185.5,-30 185.5,0 284.5,0 284.5,-30"/>
<text text-anchor="start" x="193.5" y="-18" font-family="Helvetica,sans-Serif" font-size="10.00">kepler::Parser::use</text>
<text text-anchor="middle" x="235" y="-7" font-family="Helvetica,sans-Serif" font-size="10.00">_table</text>
</a>
</g>
</g>
<!-- Node1&#45;&gt;Node8 -->
<g id="edge7" class="edge">
<title>Node1&#45;&gt;Node8</title>
<path fill="none" stroke="#63b8ff" d="M85.38,-96.12C105.14,-82.3 142.78,-56.91 177,-39 179.5,-37.69 182.08,-36.4 184.71,-35.14"/>
<polygon fill="#63b8ff" stroke="#63b8ff" points="185.97,-38.41 193.59,-31.04 183.04,-32.05 185.97,-38.41"/>
</g>
<!-- Node3 -->
<g id="node3" class="node">
<title>Node3</title>
<g id="a_node3"><a xlink:href="structkepler_1_1_a_s_t_node.html#a05bfe92973fce5532d1bdc50fc9b56eb" target="_top" xlink:title=" ">
<polygon fill="white" stroke="#666666" points="456,-195.5 329,-195.5 329,-176.5 456,-176.5 456,-195.5"/>
<text text-anchor="middle" x="392.5" y="-183.5" font-family="Helvetica,sans-Serif" font-size="10.00">kepler::ASTNode::accept</text>
</a>
</g>
</g>
<!-- Node2&#45;&gt;Node3 -->
<g id="edge2" class="edge">
<title>Node2&#45;&gt;Node3</title>
<path fill="none" stroke="#63b8ff" d="M281.81,-186C292.95,-186 305.14,-186 317.22,-186"/>
<polygon fill="#63b8ff" stroke="#63b8ff" points="317.21,-189.5 327.21,-186 317.21,-182.5 317.21,-189.5"/>
</g>
<!-- Node6 -->
<g id="node6" class="node">
<title>Node6</title>
<g id="a_node6"><a xlink:href="classkepler_1_1_symbol_table.html#a1d080f6571e21935f800524195b5e5a7" target="_top" xlink:title=" ">
<polygon fill="white" stroke="#666666" points="455,-115.5 330,-115.5 330,-96.5 455,-96.5 455,-115.5"/>
<text text-anchor="middle" x="392.5" y="-103.5" font-family="Helvetica,sans-Serif" font-size="10.00">kepler::SymbolTable::get</text>
</a>
</g>
</g>
<!-- Node5&#45;&gt;Node6 -->
<g id="edge5" class="edge">
<title>Node5&#45;&gt;Node6</title>
<path fill="none" stroke="#63b8ff" d="M293.46,-106C301.55,-106 309.95,-106 318.29,-106"/>
<polygon fill="#63b8ff" stroke="#63b8ff" points="318.06,-109.5 328.06,-106 318.06,-102.5 318.06,-109.5"/>
</g>
</g>
</svg>
