<?xml version="1.0" encoding="UTF-8" standalone="no"?>
<!DOCTYPE svg PUBLIC "-//W3C//DTD SVG 1.1//EN"
 "http://www.w3.org/Graphics/SVG/1.1/DTD/svg11.dtd">
<!-- Generated by graphviz version 7.1.0 (20230121.1956)
 -->
<!-- Title: kepler::split Pages: 1 -->
<svg width="647pt" height="228pt"
 viewBox="0.00 0.00 647.00 227.50" xmlns="http://www.w3.org/2000/svg" xmlns:xlink="http://www.w3.org/1999/xlink">
<g id="graph0" class="graph" transform="scale(1 1) rotate(0) translate(4 223.5)">
<title>kepler::split</title>
<!-- Node1 -->
<g id="node1" class="node">
<title>Node1</title>
<g id="a_node1"><a xlink:title=" ">
<polygon fill="#999999" stroke="#666666" points="639,-124.5 572,-124.5 572,-105.5 639,-105.5 639,-124.5"/>
<text text-anchor="middle" x="605.5" y="-112.5" font-family="Helvetica,sans-Serif" font-size="10.00">kepler::split</text>
</a>
</g>
</g>
<!-- Node2 -->
<g id="node2" class="node">
<title>Node2</title>
<g id="a_node2"><a xlink:href="namespacekepler.html#ac2e37855a527a231ea2757065461ec7c" target="_top" xlink:title=" ">
<polygon fill="white" stroke="#666666" points="536,-181.5 427,-181.5 427,-162.5 536,-162.5 536,-181.5"/>
<text text-anchor="middle" x="481.5" y="-169.5" font-family="Helvetica,sans-Serif" font-size="10.00">kepler::block_append</text>
</a>
</g>
</g>
<!-- Node1&#45;&gt;Node2 -->
<g id="edge1" class="edge">
<title>Node1&#45;&gt;Node2</title>
<path fill="none" stroke="#63b8ff" d="M573.94,-129.94C562.12,-135.66 548.46,-142.2 536,-148 525.85,-152.72 514.54,-157.82 504.95,-162.09"/>
<polygon fill="#63b8ff" stroke="#63b8ff" points="575.36,-133.14 582.83,-125.63 572.3,-126.85 575.36,-133.14"/>
</g>
<!-- Node4 -->
<g id="node4" class="node">
<title>Node4</title>
<g id="a_node4"><a xlink:href="namespacekepler.html#a03094b27ee173cc9846d34ee4a919648" target="_top" xlink:title=" ">
<polygon fill="white" stroke="#666666" points="243,-124.5 137,-124.5 137,-105.5 243,-105.5 243,-124.5"/>
<text text-anchor="middle" x="190" y="-112.5" font-family="Helvetica,sans-Serif" font-size="10.00">kepler::frame_matrix</text>
</a>
</g>
</g>
<!-- Node1&#45;&gt;Node4 -->
<g id="edge12" class="edge">
<title>Node1&#45;&gt;Node4</title>
<path fill="none" stroke="#63b8ff" d="M560.53,-118.69C552.38,-119.23 543.94,-119.71 536,-120 432.29,-123.78 310.94,-120.15 243.33,-117.41"/>
<polygon fill="#63b8ff" stroke="#63b8ff" points="560.54,-122.19 570.26,-117.99 560.04,-115.21 560.54,-122.19"/>
</g>
<!-- Node6 -->
<g id="node6" class="node">
<title>Node6</title>
<g id="a_node6"><a xlink:href="namespacekepler.html#ac06a7b655e54e2533459da64127b862a" target="_top" xlink:title=" ">
<polygon fill="white" stroke="#666666" points="535,-218.5 428,-218.5 428,-199.5 535,-199.5 535,-218.5"/>
<text text-anchor="middle" x="481.5" y="-206.5" font-family="Helvetica,sans-Serif" font-size="10.00">kepler::block_concat</text>
</a>
</g>
</g>
<!-- Node1&#45;&gt;Node6 -->
<g id="edge6" class="edge">
<title>Node1&#45;&gt;Node6</title>
<path fill="none" stroke="#63b8ff" d="M591.79,-133.94C579.4,-151.06 559.09,-175.84 536,-191 531.17,-194.17 525.72,-196.84 520.2,-199.06"/>
<polygon fill="#63b8ff" stroke="#63b8ff" points="594.4,-136.31 597.26,-126.11 588.66,-132.3 594.4,-136.31"/>
</g>
<!-- Node7 -->
<g id="node7" class="node">
<title>Node7</title>
<g id="a_node7"><a xlink:href="namespacekepler.html#a5812fc866c7b21bfe8481ea58813a270" target="_top" xlink:title=" ">
<polygon fill="white" stroke="#666666" points="391,-105.5 279,-105.5 279,-86.5 391,-86.5 391,-105.5"/>
<text text-anchor="middle" x="335" y="-93.5" font-family="Helvetica,sans-Serif" font-size="10.00">kepler::block_prepend</text>
</a>
</g>
</g>
<!-- Node1&#45;&gt;Node7 -->
<g id="edge8" class="edge">
<title>Node1&#45;&gt;Node7</title>
<path fill="none" stroke="#63b8ff" d="M560.13,-111.86C513.89,-108.59 441.34,-103.45 391.38,-99.92"/>
<polygon fill="#63b8ff" stroke="#63b8ff" points="559.84,-115.35 570.07,-112.56 560.34,-108.37 559.84,-115.35"/>
</g>
<!-- Node8 -->
<g id="node8" class="node">
<title>Node8</title>
<g id="a_node8"><a xlink:href="namespacekepler.html#ac23a3c14c1978c0096eb41930fda9507" target="_top" xlink:title=" ">
<polygon fill="white" stroke="#666666" points="514,-67.5 449,-67.5 449,-48.5 514,-48.5 514,-67.5"/>
<text text-anchor="middle" x="481.5" y="-55.5" font-family="Helvetica,sans-Serif" font-size="10.00">kepler::box</text>
</a>
</g>
</g>
<!-- Node1&#45;&gt;Node8 -->
<g id="edge10" class="edge">
<title>Node1&#45;&gt;Node8</title>
<path fill="none" stroke="#63b8ff" d="M573.94,-100.06C562.12,-94.34 548.46,-87.8 536,-82 525.85,-77.28 514.54,-72.18 504.95,-67.91"/>
<polygon fill="#63b8ff" stroke="#63b8ff" points="572.3,-103.15 582.83,-104.37 575.36,-96.86 572.3,-103.15"/>
</g>
<!-- Node9 -->
<g id="node9" class="node">
<title>Node9</title>
<g id="a_node9"><a xlink:href="namespacekepler.html#a9e38cc6ab08a8fa6e0df6933e1998c88" target="_top" xlink:title=" ">
<polygon fill="white" stroke="#666666" points="391,-30 279,-30 279,0 391,0 391,-30"/>
<text text-anchor="start" x="287" y="-18" font-family="Helvetica,sans-Serif" font-size="10.00">kepler::max_length</text>
<text text-anchor="middle" x="335" y="-7" font-family="Helvetica,sans-Serif" font-size="10.00">_contiguous_segment</text>
</a>
</g>
</g>
<!-- Node1&#45;&gt;Node9 -->
<g id="edge13" class="edge">
<title>Node1&#45;&gt;Node9</title>
<path fill="none" stroke="#63b8ff" d="M592.83,-95.51C580.95,-77.56 560.78,-51.85 536,-39 491.14,-15.74 433.2,-11.09 391.24,-11.45"/>
<polygon fill="#63b8ff" stroke="#63b8ff" points="589.73,-97.15 598.03,-103.74 595.65,-93.41 589.73,-97.15"/>
</g>
<!-- Node3 -->
<g id="node3" class="node">
<title>Node3</title>
<g id="a_node3"><a xlink:href="namespacekepler.html#a750517c7d0a2aee96dd1a59d93eeeb4b" target="_top" xlink:title=" ">
<polygon fill="white" stroke="#666666" points="381,-219.5 289,-219.5 289,-200.5 381,-200.5 381,-219.5"/>
<text text-anchor="middle" x="335" y="-207.5" font-family="Helvetica,sans-Serif" font-size="10.00">kepler::block_join</text>
</a>
</g>
</g>
<!-- Node2&#45;&gt;Node3 -->
<g id="edge2" class="edge">
<title>Node2&#45;&gt;Node3</title>
<path fill="none" stroke="#63b8ff" d="M431.49,-184.89C412.7,-189.83 391.56,-195.39 373.96,-200.02"/>
<polygon fill="#63b8ff" stroke="#63b8ff" points="432.29,-188.3 441.07,-182.37 430.51,-181.53 432.29,-188.3"/>
</g>
<!-- Node2&#45;&gt;Node4 -->
<g id="edge5" class="edge">
<title>Node2&#45;&gt;Node4</title>
<path fill="none" stroke="#63b8ff" d="M415.42,-168.23C375.61,-164.94 323.86,-158.92 279,-148 255.85,-142.37 230.49,-132.43 212.96,-124.92"/>
<polygon fill="#63b8ff" stroke="#63b8ff" points="415.1,-171.72 425.34,-169.01 415.64,-164.74 415.1,-171.72"/>
</g>
<!-- Node3&#45;&gt;Node4 -->
<g id="edge3" class="edge">
<title>Node3&#45;&gt;Node4</title>
<path fill="none" stroke="#63b8ff" d="M297.05,-195.51C290.88,-192.63 284.65,-189.43 279,-186 248.62,-167.57 217.21,-139.71 201.41,-124.97"/>
<polygon fill="#63b8ff" stroke="#63b8ff" points="295.32,-198.57 305.88,-199.41 298.15,-192.17 295.32,-198.57"/>
</g>
<!-- Node5 -->
<g id="node5" class="node">
<title>Node5</title>
<g id="a_node5"><a xlink:href="structkepler_1_1_array_printer.html#a258d0cb2d48a33d2324f73e9e63a71f7" target="_top" xlink:title=" ">
<polygon fill="white" stroke="#666666" points="101,-90 0,-90 0,-60 101,-60 101,-90"/>
<text text-anchor="start" x="8" y="-78" font-family="Helvetica,sans-Serif" font-size="10.00">kepler::ArrayPrinter</text>
<text text-anchor="middle" x="50.5" y="-67" font-family="Helvetica,sans-Serif" font-size="10.00">::operator()</text>
</a>
</g>
</g>
<!-- Node4&#45;&gt;Node5 -->
<g id="edge4" class="edge">
<title>Node4&#45;&gt;Node5</title>
<path fill="none" stroke="#63b8ff" d="M143.68,-101.82C130.17,-97.89 115.28,-93.55 101.49,-89.54"/>
<polygon fill="#63b8ff" stroke="#63b8ff" points="142.62,-105.15 153.2,-104.59 144.58,-98.43 142.62,-105.15"/>
</g>
<!-- Node6&#45;&gt;Node3 -->
<g id="edge7" class="edge">
<title>Node6&#45;&gt;Node3</title>
<path fill="none" stroke="#63b8ff" d="M416.34,-209.44C404.55,-209.53 392.46,-209.61 381.37,-209.69"/>
<polygon fill="#63b8ff" stroke="#63b8ff" points="416.03,-212.95 426,-209.38 415.98,-205.95 416.03,-212.95"/>
</g>
<!-- Node7&#45;&gt;Node4 -->
<g id="edge9" class="edge">
<title>Node7&#45;&gt;Node4</title>
<path fill="none" stroke="#63b8ff" d="M267.39,-104.85C259.32,-105.92 251.15,-107.01 243.33,-108.05"/>
<polygon fill="#63b8ff" stroke="#63b8ff" points="267.76,-108.33 277.21,-103.55 266.84,-101.39 267.76,-108.33"/>
</g>
<!-- Node8&#45;&gt;Node4 -->
<g id="edge11" class="edge">
<title>Node8&#45;&gt;Node4</title>
<path fill="none" stroke="#63b8ff" d="M437.31,-58.57C396.07,-59.99 332.46,-64.44 279,-78 254.26,-84.28 227.44,-96.39 210,-105.05"/>
<polygon fill="#63b8ff" stroke="#63b8ff" points="437.18,-62.08 447.07,-58.29 436.97,-55.08 437.18,-62.08"/>
</g>
<!-- Node9&#45;&gt;Node5 -->
<g id="edge14" class="edge">
<title>Node9&#45;&gt;Node5</title>
<path fill="none" stroke="#63b8ff" d="M267.3,-29.17C216.37,-39.98 147.31,-54.65 101.17,-64.45"/>
<polygon fill="#63b8ff" stroke="#63b8ff" points="267.99,-32.6 277.04,-27.1 266.53,-25.75 267.99,-32.6"/>
</g>
</g>
</svg>
