<?xml version="1.0" encoding="UTF-8" standalone="no"?>
<!DOCTYPE svg PUBLIC "-//W3C//DTD SVG 1.1//EN"
 "http://www.w3.org/Graphics/SVG/1.1/DTD/svg11.dtd">
<!-- Generated by graphviz version 7.1.0 (20230121.1956)
 -->
<!-- Title: kepler::block_join Pages: 1 -->
<svg width="379pt" height="38pt"
 viewBox="0.00 0.00 379.00 38.00" xmlns="http://www.w3.org/2000/svg" xmlns:xlink="http://www.w3.org/1999/xlink">
<g id="graph0" class="graph" transform="scale(1 1) rotate(0) translate(4 34)">
<title>kepler::block_join</title>
<!-- Node1 -->
<g id="node1" class="node">
<title>Node1</title>
<g id="a_node1"><a xlink:title=" ">
<polygon fill="#999999" stroke="#666666" points="371,-24.5 279,-24.5 279,-5.5 371,-5.5 371,-24.5"/>
<text text-anchor="middle" x="325" y="-12.5" font-family="Helvetica,sans-Serif" font-size="10.00">kepler::block_join</text>
</a>
</g>
</g>
<!-- Node2 -->
<g id="node2" class="node">
<title>Node2</title>
<g id="a_node2"><a xlink:href="namespacekepler.html#a03094b27ee173cc9846d34ee4a919648" target="_top" xlink:title=" ">
<polygon fill="white" stroke="#666666" points="243,-24.5 137,-24.5 137,-5.5 243,-5.5 243,-24.5"/>
<text text-anchor="middle" x="190" y="-12.5" font-family="Helvetica,sans-Serif" font-size="10.00">kepler::frame_matrix</text>
</a>
</g>
</g>
<!-- Node1&#45;&gt;Node2 -->
<g id="edge1" class="edge">
<title>Node1&#45;&gt;Node2</title>
<path fill="none" stroke="#63b8ff" d="M267.1,-15C259.11,-15 250.94,-15 243.06,-15"/>
<polygon fill="#63b8ff" stroke="#63b8ff" points="267.09,-18.5 277.09,-15 267.09,-11.5 267.09,-18.5"/>
</g>
<!-- Node3 -->
<g id="node3" class="node">
<title>Node3</title>
<g id="a_node3"><a xlink:href="structkepler_1_1_array_printer.html#a258d0cb2d48a33d2324f73e9e63a71f7" target="_top" xlink:title=" ">
<polygon fill="white" stroke="#666666" points="101,-30 0,-30 0,0 101,0 101,-30"/>
<text text-anchor="start" x="8" y="-18" font-family="Helvetica,sans-Serif" font-size="10.00">kepler::ArrayPrinter</text>
<text text-anchor="middle" x="50.5" y="-7" font-family="Helvetica,sans-Serif" font-size="10.00">::operator()</text>
</a>
</g>
</g>
<!-- Node2&#45;&gt;Node3 -->
<g id="edge2" class="edge">
<title>Node2&#45;&gt;Node3</title>
<path fill="none" stroke="#63b8ff" d="M125.38,-15C117.36,-15 109.24,-15 101.46,-15"/>
<polygon fill="#63b8ff" stroke="#63b8ff" points="125.11,-18.5 135.11,-15 125.11,-11.5 125.11,-18.5"/>
</g>
</g>
</svg>
