<?xml version="1.0" encoding="UTF-8" standalone="no"?>
<!DOCTYPE svg PUBLIC "-//W3C//DTD SVG 1.1//EN"
 "http://www.w3.org/Graphics/SVG/1.1/DTD/svg11.dtd">
<!-- Generated by graphviz version 7.1.0 (20230121.1956)
 -->
<!-- Title: kepler::block_append Pages: 1 -->
<svg width="524pt" height="52pt"
 viewBox="0.00 0.00 524.00 51.50" xmlns="http://www.w3.org/2000/svg" xmlns:xlink="http://www.w3.org/1999/xlink">
<g id="graph0" class="graph" transform="scale(1 1) rotate(0) translate(4 47.5)">
<title>kepler::block_append</title>
<!-- Node1 -->
<g id="node1" class="node">
<title>Node1</title>
<g id="a_node1"><a xlink:title=" ">
<polygon fill="#999999" stroke="#666666" points="516,-24.5 407,-24.5 407,-5.5 516,-5.5 516,-24.5"/>
<text text-anchor="middle" x="461.5" y="-12.5" font-family="Helvetica,sans-Serif" font-size="10.00">kepler::block_append</text>
</a>
</g>
</g>
<!-- Node2 -->
<g id="node2" class="node">
<title>Node2</title>
<g id="a_node2"><a xlink:href="namespacekepler.html#a750517c7d0a2aee96dd1a59d93eeeb4b" target="_top" xlink:title=" ">
<polygon fill="white" stroke="#666666" points="371,-43.5 279,-43.5 279,-24.5 371,-24.5 371,-43.5"/>
<text text-anchor="middle" x="325" y="-31.5" font-family="Helvetica,sans-Serif" font-size="10.00">kepler::block_join</text>
</a>
</g>
</g>
<!-- Node1&#45;&gt;Node2 -->
<g id="edge1" class="edge">
<title>Node1&#45;&gt;Node2</title>
<path fill="none" stroke="#63b8ff" d="M395.21,-24.22C387.12,-25.37 379,-26.51 371.3,-27.6"/>
<polygon fill="#63b8ff" stroke="#63b8ff" points="395.66,-27.69 405.07,-22.83 394.68,-20.76 395.66,-27.69"/>
</g>
<!-- Node3 -->
<g id="node3" class="node">
<title>Node3</title>
<g id="a_node3"><a xlink:href="namespacekepler.html#a03094b27ee173cc9846d34ee4a919648" target="_top" xlink:title=" ">
<polygon fill="white" stroke="#666666" points="243,-24.5 137,-24.5 137,-5.5 243,-5.5 243,-24.5"/>
<text text-anchor="middle" x="190" y="-12.5" font-family="Helvetica,sans-Serif" font-size="10.00">kepler::frame_matrix</text>
</a>
</g>
</g>
<!-- Node1&#45;&gt;Node3 -->
<g id="edge4" class="edge">
<title>Node1&#45;&gt;Node3</title>
<path fill="none" stroke="#63b8ff" d="M395.12,-15C348.54,-15 286.77,-15 243.42,-15"/>
<polygon fill="#63b8ff" stroke="#63b8ff" points="395.1,-18.5 405.1,-15 395.1,-11.5 395.1,-18.5"/>
</g>
<!-- Node2&#45;&gt;Node3 -->
<g id="edge2" class="edge">
<title>Node2&#45;&gt;Node3</title>
<path fill="none" stroke="#63b8ff" d="M267.37,-25.91C259.3,-24.76 251.04,-23.58 243.06,-22.44"/>
<polygon fill="#63b8ff" stroke="#63b8ff" points="266.71,-29.35 277.1,-27.3 267.7,-22.42 266.71,-29.35"/>
</g>
<!-- Node4 -->
<g id="node4" class="node">
<title>Node4</title>
<g id="a_node4"><a xlink:href="structkepler_1_1_array_printer.html#a258d0cb2d48a33d2324f73e9e63a71f7" target="_top" xlink:title=" ">
<polygon fill="white" stroke="#666666" points="101,-30 0,-30 0,0 101,0 101,-30"/>
<text text-anchor="start" x="8" y="-18" font-family="Helvetica,sans-Serif" font-size="10.00">kepler::ArrayPrinter</text>
<text text-anchor="middle" x="50.5" y="-7" font-family="Helvetica,sans-Serif" font-size="10.00">::operator()</text>
</a>
</g>
</g>
<!-- Node3&#45;&gt;Node4 -->
<g id="edge3" class="edge">
<title>Node3&#45;&gt;Node4</title>
<path fill="none" stroke="#63b8ff" d="M125.38,-15C117.36,-15 109.24,-15 101.46,-15"/>
<polygon fill="#63b8ff" stroke="#63b8ff" points="125.11,-18.5 135.11,-15 125.11,-11.5 125.11,-18.5"/>
</g>
</g>
</svg>
