<?xml version="1.0" encoding="UTF-8" standalone="no"?>
<!DOCTYPE svg PUBLIC "-//W3C//DTD SVG 1.1//EN"
 "http://www.w3.org/Graphics/SVG/1.1/DTD/svg11.dtd">
<!-- Generated by graphviz version 7.1.0 (20230121.1956)
 -->
<!-- Title: kepler::floor Pages: 1 -->
<svg width="238pt" height="101pt"
 viewBox="0.00 0.00 238.00 101.00" xmlns="http://www.w3.org/2000/svg" xmlns:xlink="http://www.w3.org/1999/xlink">
<g id="graph0" class="graph" transform="scale(1 1) rotate(0) translate(4 97)">
<title>kepler::floor</title>
<!-- Node1 -->
<g id="node1" class="node">
<title>Node1</title>
<g id="a_node1"><a xlink:title=" ">
<polygon fill="#999999" stroke="#666666" points="230,-56 162,-56 162,-37 230,-37 230,-56"/>
<text text-anchor="middle" x="196" y="-44" font-family="Helvetica,sans-Serif" font-size="10.00">kepler::floor</text>
</a>
</g>
</g>
<!-- Node2 -->
<g id="node2" class="node">
<title>Node2</title>
<g id="a_node2"><a xlink:href="structkepler_1_1_bar.html#a4e7aee6268e25babbcdcbdce538e751f" target="_top" xlink:title=" ">
<polygon fill="white" stroke="#666666" points="118.5,-93 7.5,-93 7.5,-74 118.5,-74 118.5,-93"/>
<text text-anchor="middle" x="63" y="-81" font-family="Helvetica,sans-Serif" font-size="10.00">kepler::Bar::operator()</text>
</a>
</g>
</g>
<!-- Node1&#45;&gt;Node2 -->
<g id="edge1" class="edge">
<title>Node1&#45;&gt;Node2</title>
<path fill="none" stroke="#63b8ff" d="M150.89,-58.96C134.04,-63.72 115.07,-69.07 99.17,-73.57"/>
<polygon fill="#63b8ff" stroke="#63b8ff" points="151.48,-62.43 160.15,-56.34 149.57,-55.69 151.48,-62.43"/>
</g>
<!-- Node3 -->
<g id="node3" class="node">
<title>Node3</title>
<g id="a_node3"><a xlink:href="structkepler_1_1_ceiling.html#a4e51cc6c5696f5ee2d375718b6d0e2f8" target="_top" xlink:title=" ">
<polygon fill="white" stroke="#666666" points="126,-56 0,-56 0,-37 126,-37 126,-56"/>
<text text-anchor="middle" x="63" y="-44" font-family="Helvetica,sans-Serif" font-size="10.00">kepler::Ceiling::operator()</text>
</a>
</g>
</g>
<!-- Node1&#45;&gt;Node3 -->
<g id="edge2" class="edge">
<title>Node1&#45;&gt;Node3</title>
<path fill="none" stroke="#63b8ff" d="M150.3,-46.5C142.59,-46.5 134.45,-46.5 126.38,-46.5"/>
<polygon fill="#63b8ff" stroke="#63b8ff" points="150.09,-50 160.09,-46.5 150.09,-43 150.09,-50"/>
</g>
<!-- Node4 -->
<g id="node4" class="node">
<title>Node4</title>
<g id="a_node4"><a xlink:href="structkepler_1_1_floor.html#aa082ff01bffae5a11c70d15b6191c60e" target="_top" xlink:title=" ">
<polygon fill="white" stroke="#666666" points="122,-19 4,-19 4,0 122,0 122,-19"/>
<text text-anchor="middle" x="63" y="-7" font-family="Helvetica,sans-Serif" font-size="10.00">kepler::Floor::operator()</text>
</a>
</g>
</g>
<!-- Node1&#45;&gt;Node4 -->
<g id="edge3" class="edge">
<title>Node1&#45;&gt;Node4</title>
<path fill="none" stroke="#63b8ff" d="M150.89,-34.04C134.04,-29.28 115.07,-23.93 99.17,-19.43"/>
<polygon fill="#63b8ff" stroke="#63b8ff" points="149.57,-37.31 160.15,-36.66 151.48,-30.57 149.57,-37.31"/>
</g>
</g>
</svg>
