<?xml version="1.0" encoding="UTF-8" standalone="no"?>
<!DOCTYPE svg PUBLIC "-//W3C//DTD SVG 1.1//EN"
 "http://www.w3.org/Graphics/SVG/1.1/DTD/svg11.dtd">
<!-- Generated by graphviz version 7.1.0 (20230121.1956)
 -->
<!-- Title: kepler::rotate Pages: 1 -->
<!--zoomable 149 -->
<svg id="main" version="1.1" xmlns="http://www.w3.org/2000/svg" xmlns:xlink="http://www.w3.org/1999/xlink" xml:space="preserve" onload="init(evt)">
<style type="text/css"><![CDATA[
.edge:hover path { stroke: red; }
.edge:hover polygon { stroke: red; fill: red; }
]]></style>
<script type="text/javascript"><![CDATA[
var edges = document.getElementsByTagName('g');
if (edges && edges.length) {
  for (var i=0;i<edges.length;i++) {
    if (edges[i].id.substr(0,4)=='edge') {
      edges[i].setAttribute('class','edge');
    }
  }
}
]]></script>
        <defs>
                <circle id="rim" cx="0" cy="0" r="7"/>
                <circle id="rim2" cx="0" cy="0" r="3.5"/>
                <g id="zoomPlus">
                        <use xlink:href="#rim" fill="#404040">
                                <set attributeName="fill" to="#808080" begin="zoomplus.mouseover" end="zoomplus.mouseout"/>
                        </use>
                        <path d="M-4,0h8M0,-4v8" fill="none" stroke="white" stroke-width="1.5" pointer-events="none"/>
                </g>
                <g id="zoomMin">
                        <use xlink:href="#rim" fill="#404040">
                                <set attributeName="fill" to="#808080" begin="zoomminus.mouseover" end="zoomminus.mouseout"/>
                        </use>
                        <path d="M-4,0h8" fill="none" stroke="white" stroke-width="1.5" pointer-events="none"/>
                </g>
                <g id="dirArrow">
                        <path fill="none" stroke="white" stroke-width="1.5" d="M0,-3.0v7 M-2.5,-0.5L0,-3.0L2.5,-0.5"/>
                </g>
               <g id="resetDef">
                       <use xlink:href="#rim2" fill="#404040">
                               <set attributeName="fill" to="#808080" begin="reset.mouseover" end="reset.mouseout"/>
                       </use>
               </g>
        </defs>

<script type="text/javascript">
var viewWidth = 540;
var viewHeight = 149;
var sectionId = 'dynsection-19';
</script>
<script xlink:href="svgpan.js"/>
<svg id="graph" class="graph">
<g id="viewport">
<title>kepler::rotate</title>
<!-- Node1 -->
<g id="node1" class="node">
<title>Node1</title>
<g id="a_node1"><a xlink:title=" ">
<polygon fill="#999999" stroke="#666666" points="74,-76 0,-76 0,-57 74,-57 74,-76"/>
<text text-anchor="middle" x="37" y="-64" font-family="Helvetica,sans-Serif" font-size="10.00">kepler::rotate</text>
</a>
</g>
</g>
<!-- Node2 -->
<g id="node2" class="node">
<title>Node2</title>
<g id="a_node2"><a xlink:href="namespacekepler.html#a56130004ed10dae55c0a8695f9d8ab37" target="_top" xlink:title=" ">
<polygon fill="white" stroke="#666666" points="224,-137 110,-137 110,-118 224,-118 224,-137"/>
<text text-anchor="middle" x="167" y="-125" font-family="Helvetica,sans-Serif" font-size="10.00">kepler::get_block_size</text>
</a>
</g>
</g>
<!-- Node1&#45;&gt;Node2 -->
<g id="edge1" class="edge">
<title>Node1&#45;&gt;Node2</title>
<path fill="none" stroke="#63b8ff" d="M55.51,-76.35C69.95,-84.32 91.05,-95.63 110,-104.5 116.43,-107.51 123.38,-110.54 130.11,-113.36"/>
<polygon fill="#63b8ff" stroke="#63b8ff" points="128.43,-116.45 139.01,-117.01 131.09,-109.98 128.43,-116.45"/>
</g>
<!-- Node4 -->
<g id="node4" class="node">
<title>Node4</title>
<g id="a_node4"><a xlink:href="namespacekepler.html#a172b41eba4b6d1c9af75f4d5a853d35f" target="_top" xlink:title=" ">
<polygon fill="white" stroke="#666666" points="210,-95 124,-95 124,-76 210,-76 210,-95"/>
<text text-anchor="middle" x="167" y="-83" font-family="Helvetica,sans-Serif" font-size="10.00">kepler::get_shift</text>
</a>
</g>
</g>
<!-- Node1&#45;&gt;Node4 -->
<g id="edge3" class="edge">
<title>Node1&#45;&gt;Node4</title>
<path fill="none" stroke="#63b8ff" d="M74.34,-71.89C86.23,-73.66 99.7,-75.66 112.58,-77.57"/>
<polygon fill="#63b8ff" stroke="#63b8ff" points="111.79,-80.99 122.19,-79 112.81,-74.07 111.79,-80.99"/>
</g>
<!-- Node8 -->
<g id="node8" class="node">
<title>Node8</title>
<g id="a_node8"><a xlink:href="structkepler_1_1_array.html#a98194b5409eace27b9eae7dcac74e350" target="_top" xlink:title=" ">
<polygon fill="white" stroke="#666666" points="367.5,-55 271.5,-55 271.5,-36 367.5,-36 367.5,-55"/>
<text text-anchor="middle" x="319.5" y="-43" font-family="Helvetica,sans-Serif" font-size="10.00">kepler::Array::size</text>
</a>
</g>
</g>
<!-- Node1&#45;&gt;Node8 -->
<g id="edge9" class="edge">
<title>Node1&#45;&gt;Node8</title>
<path fill="none" stroke="#63b8ff" d="M74.38,-63.78C121.53,-60.25 204.32,-54.05 260.26,-49.86"/>
<polygon fill="#63b8ff" stroke="#63b8ff" points="260.2,-53.37 269.92,-49.14 259.68,-46.39 260.2,-53.37"/>
</g>
<!-- Node9 -->
<g id="node9" class="node">
<title>Node9</title>
<g id="a_node9"><a xlink:href="namespacekepler.html#a8cec7c445b114ae66fe0c31d6746e7fb" target="_top" xlink:title=" ">
<polygon fill="white" stroke="#666666" points="222,-19 112,-19 112,0 222,0 222,-19"/>
<text text-anchor="middle" x="167" y="-7" font-family="Helvetica,sans-Serif" font-size="10.00">kepler::get_step_size</text>
</a>
</g>
</g>
<!-- Node1&#45;&gt;Node9 -->
<g id="edge8" class="edge">
<title>Node1&#45;&gt;Node9</title>
<path fill="none" stroke="#63b8ff" d="M59.36,-56.54C73.65,-49.92 92.9,-41.08 110,-33.5 117.15,-30.33 124.83,-26.99 132.15,-23.84"/>
<polygon fill="#63b8ff" stroke="#63b8ff" points="133.3,-27.16 141.12,-20.01 130.55,-20.72 133.3,-27.16"/>
</g>
<!-- Node3 -->
<g id="node3" class="node">
<title>Node3</title>
<g id="a_node3"><a xlink:href="namespacekepler.html#aec3e7febe28a0cbe1f4ddefd7fd6349c" target="_top" xlink:title=" ">
<polygon fill="white" stroke="#666666" points="363.5,-141 275.5,-141 275.5,-122 363.5,-122 363.5,-141"/>
<text text-anchor="middle" x="319.5" y="-129" font-family="Helvetica,sans-Serif" font-size="10.00">kepler::vec_size</text>
</a>
</g>
</g>
<!-- Node2&#45;&gt;Node3 -->
<g id="edge2" class="edge">
<title>Node2&#45;&gt;Node3</title>
<path fill="none" stroke="#63b8ff" d="M224.47,-129C237.37,-129.34 251.05,-129.71 263.88,-130.05"/>
<polygon fill="#63b8ff" stroke="#63b8ff" points="263.76,-133.55 273.85,-130.31 263.94,-126.55 263.76,-133.55"/>
</g>
<!-- Node5 -->
<g id="node5" class="node">
<title>Node5</title>
<g id="a_node5"><a xlink:href="structkepler_1_1_array.html#a31e9d1137447bf3402d6278c41569f5e" target="_top" xlink:title=" ">
<polygon fill="white" stroke="#666666" points="379,-103.5 260,-103.5 260,-73.5 379,-73.5 379,-103.5"/>
<text text-anchor="start" x="268" y="-91.5" font-family="Helvetica,sans-Serif" font-size="10.00">kepler::Array::is_simple</text>
<text text-anchor="middle" x="319.5" y="-80.5" font-family="Helvetica,sans-Serif" font-size="10.00">_scalar</text>
</a>
</g>
</g>
<!-- Node4&#45;&gt;Node5 -->
<g id="edge4" class="edge">
<title>Node4&#45;&gt;Node5</title>
<path fill="none" stroke="#63b8ff" d="M210.32,-86.34C222.16,-86.58 235.35,-86.84 248.33,-87.1"/>
<polygon fill="#63b8ff" stroke="#63b8ff" points="248.07,-90.6 258.14,-87.3 248.21,-83.6 248.07,-90.6"/>
</g>
<!-- Node4&#45;&gt;Node8 -->
<g id="edge7" class="edge">
<title>Node4&#45;&gt;Node8</title>
<path fill="none" stroke="#63b8ff" d="M205.59,-75.51C225.15,-70.31 249.28,-63.9 270.2,-58.34"/>
<polygon fill="#63b8ff" stroke="#63b8ff" points="270.9,-61.77 279.67,-55.82 269.1,-55.01 270.9,-61.77"/>
</g>
<!-- Node6 -->
<g id="node6" class="node">
<title>Node6</title>
<g id="a_node6"><a xlink:href="structkepler_1_1_array.html#a9d4e4ca37cd263142d76ca0a56346991" target="_top" xlink:title=" ">
<polygon fill="white" stroke="#666666" points="526,-116 421,-116 421,-97 526,-97 526,-116"/>
<text text-anchor="middle" x="473.5" y="-104" font-family="Helvetica,sans-Serif" font-size="10.00">kepler::Array::empty</text>
</a>
</g>
</g>
<!-- Node5&#45;&gt;Node6 -->
<g id="edge5" class="edge">
<title>Node5&#45;&gt;Node6</title>
<path fill="none" stroke="#63b8ff" d="M379.27,-95.46C389.22,-96.64 399.59,-97.87 409.65,-99.06"/>
<polygon fill="#63b8ff" stroke="#63b8ff" points="408.98,-102.5 419.32,-100.2 409.8,-95.55 408.98,-102.5"/>
</g>
<!-- Node7 -->
<g id="node7" class="node">
<title>Node7</title>
<g id="a_node7"><a xlink:href="structkepler_1_1_array.html#ae82484749f93ec527be3eff64ddf3d37" target="_top" xlink:title=" ">
<polygon fill="white" stroke="#666666" points="532,-79 415,-79 415,-60 532,-60 532,-79"/>
<text text-anchor="middle" x="473.5" y="-67" font-family="Helvetica,sans-Serif" font-size="10.00">kepler::Array::is_scalar</text>
</a>
</g>
</g>
<!-- Node5&#45;&gt;Node7 -->
<g id="edge6" class="edge">
<title>Node5&#45;&gt;Node7</title>
<path fill="none" stroke="#63b8ff" d="M379.27,-81.15C387.22,-80.16 395.43,-79.13 403.54,-78.12"/>
<polygon fill="#63b8ff" stroke="#63b8ff" points="403.9,-81.6 413.39,-76.89 403.03,-74.66 403.9,-81.6"/>
</g>
</g>
</svg>
        <g id="navigator" transform="translate(0 0)" fill="#404254">
                <rect fill="#f2f5e9" fill-opacity="0.5" stroke="#606060" stroke-width=".5" x="0" y="0" width="60" height="60"/>
                <use id="zoomplus" xlink:href="#zoomPlus" x="17" y="9" onmousedown="handleZoom(evt,'in')"/>
                <use id="zoomminus" xlink:href="#zoomMin" x="42" y="9" onmousedown="handleZoom(evt,'out')"/>
                <use id="reset" xlink:href="#resetDef" x="30" y="36" onmousedown="handleReset()"/>
                <g id="arrowUp" xlink:href="#dirArrow" transform="translate(30 24)" onmousedown="handlePan(0,-1)">
                  <use xlink:href="#rim" fill="#404040">
                        <set attributeName="fill" to="#808080" begin="arrowUp.mouseover" end="arrowUp.mouseout"/>
                  </use>
                  <path fill="none" stroke="white" stroke-width="1.5" d="M0,-3.0v7 M-2.5,-0.5L0,-3.0L2.5,-0.5"/>
                </g>
                <g id="arrowRight" xlink:href="#dirArrow" transform="rotate(90) translate(36 -43)" onmousedown="handlePan(1,0)">
                  <use xlink:href="#rim" fill="#404040">
                        <set attributeName="fill" to="#808080" begin="arrowRight.mouseover" end="arrowRight.mouseout"/>
                  </use>
                  <path fill="none" stroke="white" stroke-width="1.5" d="M0,-3.0v7 M-2.5,-0.5L0,-3.0L2.5,-0.5"/>
                </g>
                <g id="arrowDown" xlink:href="#dirArrow" transform="rotate(180) translate(-30 -48)" onmousedown="handlePan(0,1)">
                  <use xlink:href="#rim" fill="#404040">
                        <set attributeName="fill" to="#808080" begin="arrowDown.mouseover" end="arrowDown.mouseout"/>
                  </use>
                  <path fill="none" stroke="white" stroke-width="1.5" d="M0,-3.0v7 M-2.5,-0.5L0,-3.0L2.5,-0.5"/>
                </g>
                <g id="arrowLeft" xlink:href="#dirArrow" transform="rotate(270) translate(-36 17)" onmousedown="handlePan(-1,0)">
                  <use xlink:href="#rim" fill="#404040">
                        <set attributeName="fill" to="#808080" begin="arrowLeft.mouseover" end="arrowLeft.mouseout"/>
                  </use>
                  <path fill="none" stroke="white" stroke-width="1.5" d="M0,-3.0v7 M-2.5,-0.5L0,-3.0L2.5,-0.5"/>
                </g>
        </g>
        <svg viewBox="0 0 15 15" width="100%" height="30px" preserveAspectRatio="xMaxYMin meet">
         <g id="arrow_out" transform="scale(0.3 0.3)">
          <a xlink:href="namespacekepler_a2e0061e6ccc074df0dabcaf61f4517b8_cgraph_org.svg" target="_base">
           <rect id="button" ry="5" rx="5" y="6" x="6" height="38" width="38"
                fill="#f2f5e9" fill-opacity="0.5" stroke="#606060" stroke-width="1.0"/>
           <path id="arrow"
             d="M 11.500037,31.436501 C 11.940474,20.09759 22.043105,11.32322 32.158766,21.979434 L 37.068811,17.246167 C 37.068811,17.246167 37.088388,32 37.088388,32 L 22.160133,31.978069 C 22.160133,31.978069 26.997745,27.140456 26.997745,27.140456 C 18.528582,18.264221 13.291696,25.230495 11.500037,31.436501 z"
             style="fill:#404040;"/>
          </a>
         </g>
        </svg>
</svg>
