<?xml version="1.0" encoding="UTF-8" standalone="no"?>
<!DOCTYPE svg PUBLIC "-//W3C//DTD SVG 1.1//EN"
 "http://www.w3.org/Graphics/SVG/1.1/DTD/svg11.dtd">
<!-- Generated by graphviz version 7.1.0 (20230121.1956)
 -->
<!-- Title: kepler::safe_execution Pages: 1 -->
<!--zoomable 321 -->
<svg id="main" version="1.1" xmlns="http://www.w3.org/2000/svg" xmlns:xlink="http://www.w3.org/1999/xlink" xml:space="preserve" onload="init(evt)">
<style type="text/css"><![CDATA[
.edge:hover path { stroke: red; }
.edge:hover polygon { stroke: red; fill: red; }
]]></style>
<script type="text/javascript"><![CDATA[
var edges = document.getElementsByTagName('g');
if (edges && edges.length) {
  for (var i=0;i<edges.length;i++) {
    if (edges[i].id.substr(0,4)=='edge') {
      edges[i].setAttribute('class','edge');
    }
  }
}
]]></script>
        <defs>
                <circle id="rim" cx="0" cy="0" r="7"/>
                <circle id="rim2" cx="0" cy="0" r="3.5"/>
                <g id="zoomPlus">
                        <use xlink:href="#rim" fill="#404040">
                                <set attributeName="fill" to="#808080" begin="zoomplus.mouseover" end="zoomplus.mouseout"/>
                        </use>
                        <path d="M-4,0h8M0,-4v8" fill="none" stroke="white" stroke-width="1.5" pointer-events="none"/>
                </g>
                <g id="zoomMin">
                        <use xlink:href="#rim" fill="#404040">
                                <set attributeName="fill" to="#808080" begin="zoomminus.mouseover" end="zoomminus.mouseout"/>
                        </use>
                        <path d="M-4,0h8" fill="none" stroke="white" stroke-width="1.5" pointer-events="none"/>
                </g>
                <g id="dirArrow">
                        <path fill="none" stroke="white" stroke-width="1.5" d="M0,-3.0v7 M-2.5,-0.5L0,-3.0L2.5,-0.5"/>
                </g>
               <g id="resetDef">
                       <use xlink:href="#rim2" fill="#404040">
                               <set attributeName="fill" to="#808080" begin="reset.mouseover" end="reset.mouseout"/>
                       </use>
               </g>
        </defs>

<script type="text/javascript">
var viewWidth = 615;
var viewHeight = 321;
var sectionId = 'dynsection-47';
</script>
<script xlink:href="svgpan.js"/>
<svg id="graph" class="graph">
<g id="viewport">
<title>kepler::safe_execution</title>
<!-- Node1 -->
<g id="node1" class="node">
<title>Node1</title>
<g id="a_node1"><a xlink:title=" ">
<polygon fill="#999999" stroke="#666666" points="115,-129 0,-129 0,-110 115,-110 115,-129"/>
<text text-anchor="middle" x="57.5" y="-117" font-family="Helvetica,sans-Serif" font-size="10.00">kepler::safe_execution</text>
</a>
</g>
</g>
<!-- Node2 -->
<g id="node2" class="node">
<title>Node2</title>
<g id="a_node2"><a xlink:href="namespacekepler.html#a914686a7f5a60684440d93ed33a3a959" target="_top" xlink:title=" ">
<polygon fill="white" stroke="#666666" points="292,-205 151,-205 151,-186 292,-186 292,-205"/>
<text text-anchor="middle" x="221.5" y="-193" font-family="Helvetica,sans-Serif" font-size="10.00">kepler::immediate_execution</text>
</a>
</g>
</g>
<!-- Node1&#45;&gt;Node2 -->
<g id="edge1" class="edge">
<title>Node1&#45;&gt;Node2</title>
<path fill="none" stroke="#63b8ff" d="M79.68,-129.44C107.57,-142.52 156.85,-165.64 189.09,-180.77"/>
<polygon fill="#63b8ff" stroke="#63b8ff" points="187.41,-183.84 197.95,-184.92 190.38,-177.5 187.41,-183.84"/>
</g>
<!-- Node10 -->
<g id="node10" class="node">
<title>Node10</title>
<g id="a_node10"><a xlink:href="classkepler_1_1error.html#aac71db552cb0211798d24627817abccf" target="_top" xlink:title=" ">
<polygon fill="white" stroke="#666666" points="265.5,-134.5 177.5,-134.5 177.5,-104.5 265.5,-104.5 265.5,-134.5"/>
<text text-anchor="start" x="185.5" y="-122.5" font-family="Helvetica,sans-Serif" font-size="10.00">kepler::error::set</text>
<text text-anchor="middle" x="221.5" y="-111.5" font-family="Helvetica,sans-Serif" font-size="10.00">_input</text>
</a>
</g>
</g>
<!-- Node1&#45;&gt;Node10 -->
<g id="edge9" class="edge">
<title>Node1&#45;&gt;Node10</title>
<path fill="none" stroke="#63b8ff" d="M115.16,-119.5C131.69,-119.5 149.71,-119.5 166.1,-119.5"/>
<polygon fill="#63b8ff" stroke="#63b8ff" points="165.64,-123 175.64,-119.5 165.64,-116 165.64,-123"/>
</g>
<!-- Node11 -->
<g id="node11" class="node">
<title>Node11</title>
<g id="a_node11"><a xlink:href="classkepler_1_1error.html#a9d1264b80888d725ef312a662ee4e5be" target="_top" xlink:title=" ">
<polygon fill="white" stroke="#666666" points="277.5,-75 165.5,-75 165.5,-56 277.5,-56 277.5,-75"/>
<text text-anchor="middle" x="221.5" y="-63" font-family="Helvetica,sans-Serif" font-size="10.00">kepler::error::to_string</text>
</a>
</g>
</g>
<!-- Node1&#45;&gt;Node11 -->
<g id="edge10" class="edge">
<title>Node1&#45;&gt;Node11</title>
<path fill="none" stroke="#63b8ff" d="M88.21,-109.6C113.94,-101.02 151.38,-88.54 179.88,-79.04"/>
<polygon fill="#63b8ff" stroke="#63b8ff" points="180.89,-82.39 189.27,-75.91 178.67,-75.75 180.89,-82.39"/>
</g>
<!-- Node3 -->
<g id="node3" class="node">
<title>Node3</title>
<g id="a_node3"><a xlink:href="structkepler_1_1_interpreter.html#a2ec19db70151e2f0eb937421a8618935" target="_top" xlink:title=" ">
<polygon fill="white" stroke="#666666" points="432.5,-312.5 339.5,-312.5 339.5,-282.5 432.5,-282.5 432.5,-312.5"/>
<text text-anchor="start" x="347.5" y="-300.5" font-family="Helvetica,sans-Serif" font-size="10.00">kepler::Interpreter</text>
<text text-anchor="middle" x="386" y="-289.5" font-family="Helvetica,sans-Serif" font-size="10.00">::interpret</text>
</a>
</g>
</g>
<!-- Node2&#45;&gt;Node3 -->
<g id="edge2" class="edge">
<title>Node2&#45;&gt;Node3</title>
<path fill="none" stroke="#63b8ff" d="M233.89,-205.36C252.59,-221.2 291.38,-252.65 328,-273.5 330.16,-274.73 332.4,-275.93 334.68,-277.11"/>
<polygon fill="#63b8ff" stroke="#63b8ff" points="332.97,-280.17 343.5,-281.37 336.02,-273.87 332.97,-280.17"/>
</g>
<!-- Node5 -->
<g id="node5" class="node">
<title>Node5</title>
<g id="a_node5"><a xlink:href="classkepler_1_1_parser.html#a95c4ec7bfd2c105b1cd43f0906641f3f" target="_top" xlink:title=" ">
<polygon fill="white" stroke="#666666" points="439.5,-264 332.5,-264 332.5,-245 439.5,-245 439.5,-264"/>
<text text-anchor="middle" x="386" y="-252" font-family="Helvetica,sans-Serif" font-size="10.00">kepler::Parser::parse</text>
</a>
</g>
</g>
<!-- Node2&#45;&gt;Node5 -->
<g id="edge4" class="edge">
<title>Node2&#45;&gt;Node5</title>
<path fill="none" stroke="#63b8ff" d="M246.64,-205.39C267.91,-213.99 299.82,-226.59 328,-236.5 332.41,-238.05 337.02,-239.61 341.64,-241.13"/>
<polygon fill="#63b8ff" stroke="#63b8ff" points="340.29,-244.37 350.88,-244.12 342.44,-237.71 340.29,-244.37"/>
</g>
<!-- Node6 -->
<g id="node6" class="node">
<title>Node6</title>
<g id="a_node6"><a xlink:href="structkepler_1_1_array.html#afccb5c77a5934c2bcdfed7032b381ced" target="_top" xlink:title=" ">
<polygon fill="white" stroke="#666666" points="444,-227 328,-227 328,-208 444,-208 444,-227"/>
<text text-anchor="middle" x="386" y="-215" font-family="Helvetica,sans-Serif" font-size="10.00">kepler::Array::to_string</text>
</a>
</g>
</g>
<!-- Node2&#45;&gt;Node6 -->
<g id="edge5" class="edge">
<title>Node2&#45;&gt;Node6</title>
<path fill="none" stroke="#63b8ff" d="M292.36,-204.96C300.43,-206.05 308.65,-207.16 316.7,-208.25"/>
<polygon fill="#63b8ff" stroke="#63b8ff" points="316.04,-211.7 326.42,-209.57 316.98,-204.76 316.04,-211.7"/>
</g>
<!-- Node8 -->
<g id="node8" class="node">
<title>Node8</title>
<g id="a_node8"><a xlink:href="classkepler_1_1_tokenizer.html#a218312e24753d8d2e66d499bdbcce55c" target="_top" xlink:title=" ">
<polygon fill="white" stroke="#666666" points="434.5,-189.5 337.5,-189.5 337.5,-159.5 434.5,-159.5 434.5,-189.5"/>
<text text-anchor="start" x="345.5" y="-177.5" font-family="Helvetica,sans-Serif" font-size="10.00">kepler::Tokenizer::</text>
<text text-anchor="middle" x="386" y="-166.5" font-family="Helvetica,sans-Serif" font-size="10.00">tokenize</text>
</a>
</g>
</g>
<!-- Node2&#45;&gt;Node8 -->
<g id="edge7" class="edge">
<title>Node2&#45;&gt;Node8</title>
<path fill="none" stroke="#63b8ff" d="M292.36,-186.47C303.59,-185.02 315.13,-183.53 326.07,-182.12"/>
<polygon fill="#63b8ff" stroke="#63b8ff" points="326.26,-185.62 335.73,-180.87 325.37,-178.68 326.26,-185.62"/>
</g>
<!-- Node9 -->
<g id="node9" class="node">
<title>Node9</title>
<g id="a_node9"><a xlink:href="classkepler_1_1_parser.html#a8bae598977617c13f71ce43cadd806b4" target="_top" xlink:title=" ">
<polygon fill="white" stroke="#666666" points="435.5,-141.5 336.5,-141.5 336.5,-111.5 435.5,-111.5 435.5,-141.5"/>
<text text-anchor="start" x="344.5" y="-129.5" font-family="Helvetica,sans-Serif" font-size="10.00">kepler::Parser::use</text>
<text text-anchor="middle" x="386" y="-118.5" font-family="Helvetica,sans-Serif" font-size="10.00">_table</text>
</a>
</g>
</g>
<!-- Node2&#45;&gt;Node9 -->
<g id="edge8" class="edge">
<title>Node2&#45;&gt;Node9</title>
<path fill="none" stroke="#63b8ff" d="M245.54,-185.64C266.9,-176.5 299.58,-162.54 328,-150.5 331.16,-149.16 334.42,-147.78 337.71,-146.39"/>
<polygon fill="#63b8ff" stroke="#63b8ff" points="338.95,-149.67 346.8,-142.56 336.23,-143.22 338.95,-149.67"/>
</g>
<!-- Node4 -->
<g id="node4" class="node">
<title>Node4</title>
<g id="a_node4"><a xlink:href="structkepler_1_1_a_s_t_node.html#a05bfe92973fce5532d1bdc50fc9b56eb" target="_top" xlink:title=" ">
<polygon fill="white" stroke="#666666" points="607,-307 480,-307 480,-288 607,-288 607,-307"/>
<text text-anchor="middle" x="543.5" y="-295" font-family="Helvetica,sans-Serif" font-size="10.00">kepler::ASTNode::accept</text>
</a>
</g>
</g>
<!-- Node3&#45;&gt;Node4 -->
<g id="edge3" class="edge">
<title>Node3&#45;&gt;Node4</title>
<path fill="none" stroke="#63b8ff" d="M432.81,-297.5C443.95,-297.5 456.14,-297.5 468.22,-297.5"/>
<polygon fill="#63b8ff" stroke="#63b8ff" points="468.21,-301 478.21,-297.5 468.21,-294 468.21,-301"/>
</g>
<!-- Node7 -->
<g id="node7" class="node">
<title>Node7</title>
<g id="a_node7"><a xlink:href="classkepler_1_1_symbol_table.html#a1d080f6571e21935f800524195b5e5a7" target="_top" xlink:title=" ">
<polygon fill="white" stroke="#666666" points="606,-227 481,-227 481,-208 606,-208 606,-227"/>
<text text-anchor="middle" x="543.5" y="-215" font-family="Helvetica,sans-Serif" font-size="10.00">kepler::SymbolTable::get</text>
</a>
</g>
</g>
<!-- Node6&#45;&gt;Node7 -->
<g id="edge6" class="edge">
<title>Node6&#45;&gt;Node7</title>
<path fill="none" stroke="#63b8ff" d="M444.46,-217.5C452.55,-217.5 460.95,-217.5 469.29,-217.5"/>
<polygon fill="#63b8ff" stroke="#63b8ff" points="469.06,-221 479.06,-217.5 469.06,-214 469.06,-221"/>
</g>
<!-- Node12 -->
<g id="node12" class="node">
<title>Node12</title>
<g id="a_node12"><a xlink:href="classkepler_1_1error.html#a7694165073a5e4844154e625f5fddf6c" target="_top" xlink:title=" ">
<polygon fill="white" stroke="#666666" points="432.5,-93 339.5,-93 339.5,-74 432.5,-74 432.5,-93"/>
<text text-anchor="middle" x="386" y="-81" font-family="Helvetica,sans-Serif" font-size="10.00">kepler::error::type</text>
</a>
</g>
</g>
<!-- Node11&#45;&gt;Node12 -->
<g id="edge11" class="edge">
<title>Node11&#45;&gt;Node12</title>
<path fill="none" stroke="#63b8ff" d="M277.97,-71.64C294.18,-73.44 311.92,-75.4 328.21,-77.21"/>
<polygon fill="#63b8ff" stroke="#63b8ff" points="327.39,-80.64 337.72,-78.26 328.16,-73.68 327.39,-80.64"/>
</g>
<!-- Node14 -->
<g id="node14" class="node">
<title>Node14</title>
<g id="a_node14"><a xlink:href="classkepler_1_1error.html#a4e6ac4013bc23fa893866d2bb0f5d6b8" target="_top" xlink:title=" ">
<polygon fill="white" stroke="#666666" points="436.5,-56 335.5,-56 335.5,-37 436.5,-37 436.5,-56"/>
<text text-anchor="middle" x="386" y="-44" font-family="Helvetica,sans-Serif" font-size="10.00">kepler::error::where</text>
</a>
</g>
</g>
<!-- Node11&#45;&gt;Node14 -->
<g id="edge13" class="edge">
<title>Node11&#45;&gt;Node14</title>
<path fill="none" stroke="#63b8ff" d="M277.97,-59.01C292.77,-57.28 308.84,-55.4 323.92,-53.64"/>
<polygon fill="#63b8ff" stroke="#63b8ff" points="324.2,-57.13 333.73,-52.5 323.39,-50.18 324.2,-57.13"/>
</g>
<!-- Node15 -->
<g id="node15" class="node">
<title>Node15</title>
<g id="a_node15"><a xlink:href="classkepler_1_1error.html#af431dcb57cb6e62850a8bb2d6258c5e7" target="_top" xlink:title=" ">
<polygon fill="white" stroke="#666666" points="432,-19 340,-19 340,0 432,0 432,-19"/>
<text text-anchor="middle" x="386" y="-7" font-family="Helvetica,sans-Serif" font-size="10.00">kepler::error::why</text>
</a>
</g>
</g>
<!-- Node11&#45;&gt;Node15 -->
<g id="edge14" class="edge">
<title>Node11&#45;&gt;Node15</title>
<path fill="none" stroke="#63b8ff" d="M250.23,-55.64C271.48,-48.12 301.55,-37.54 328,-28.5 333.16,-26.74 338.58,-24.9 343.95,-23.1"/>
<polygon fill="#63b8ff" stroke="#63b8ff" points="344.99,-26.44 353.36,-19.95 342.77,-19.8 344.99,-26.44"/>
</g>
<!-- Node13 -->
<g id="node13" class="node">
<title>Node13</title>
<g id="a_node13"><a xlink:href="namespacekepler.html#a76d95d0e078e053088ec440c6e878ab3" target="_top" xlink:title=" ">
<polygon fill="white" stroke="#666666" points="586.5,-93 500.5,-93 500.5,-74 586.5,-74 586.5,-93"/>
<text text-anchor="middle" x="543.5" y="-81" font-family="Helvetica,sans-Serif" font-size="10.00">kepler::to_string</text>
</a>
</g>
</g>
<!-- Node12&#45;&gt;Node13 -->
<g id="edge12" class="edge">
<title>Node12&#45;&gt;Node13</title>
<path fill="none" stroke="#63b8ff" d="M432.81,-83.5C450.39,-83.5 470.6,-83.5 488.84,-83.5"/>
<polygon fill="#63b8ff" stroke="#63b8ff" points="488.69,-87 498.69,-83.5 488.69,-80 488.69,-87"/>
</g>
</g>
</svg>
        <g id="navigator" transform="translate(0 0)" fill="#404254">
                <rect fill="#f2f5e9" fill-opacity="0.5" stroke="#606060" stroke-width=".5" x="0" y="0" width="60" height="60"/>
                <use id="zoomplus" xlink:href="#zoomPlus" x="17" y="9" onmousedown="handleZoom(evt,'in')"/>
                <use id="zoomminus" xlink:href="#zoomMin" x="42" y="9" onmousedown="handleZoom(evt,'out')"/>
                <use id="reset" xlink:href="#resetDef" x="30" y="36" onmousedown="handleReset()"/>
                <g id="arrowUp" xlink:href="#dirArrow" transform="translate(30 24)" onmousedown="handlePan(0,-1)">
                  <use xlink:href="#rim" fill="#404040">
                        <set attributeName="fill" to="#808080" begin="arrowUp.mouseover" end="arrowUp.mouseout"/>
                  </use>
                  <path fill="none" stroke="white" stroke-width="1.5" d="M0,-3.0v7 M-2.5,-0.5L0,-3.0L2.5,-0.5"/>
                </g>
                <g id="arrowRight" xlink:href="#dirArrow" transform="rotate(90) translate(36 -43)" onmousedown="handlePan(1,0)">
                  <use xlink:href="#rim" fill="#404040">
                        <set attributeName="fill" to="#808080" begin="arrowRight.mouseover" end="arrowRight.mouseout"/>
                  </use>
                  <path fill="none" stroke="white" stroke-width="1.5" d="M0,-3.0v7 M-2.5,-0.5L0,-3.0L2.5,-0.5"/>
                </g>
                <g id="arrowDown" xlink:href="#dirArrow" transform="rotate(180) translate(-30 -48)" onmousedown="handlePan(0,1)">
                  <use xlink:href="#rim" fill="#404040">
                        <set attributeName="fill" to="#808080" begin="arrowDown.mouseover" end="arrowDown.mouseout"/>
                  </use>
                  <path fill="none" stroke="white" stroke-width="1.5" d="M0,-3.0v7 M-2.5,-0.5L0,-3.0L2.5,-0.5"/>
                </g>
                <g id="arrowLeft" xlink:href="#dirArrow" transform="rotate(270) translate(-36 17)" onmousedown="handlePan(-1,0)">
                  <use xlink:href="#rim" fill="#404040">
                        <set attributeName="fill" to="#808080" begin="arrowLeft.mouseover" end="arrowLeft.mouseout"/>
                  </use>
                  <path fill="none" stroke="white" stroke-width="1.5" d="M0,-3.0v7 M-2.5,-0.5L0,-3.0L2.5,-0.5"/>
                </g>
        </g>
        <svg viewBox="0 0 15 15" width="100%" height="30px" preserveAspectRatio="xMaxYMin meet">
         <g id="arrow_out" transform="scale(0.3 0.3)">
          <a xlink:href="namespacekepler_a49b7372a95bc6035f77f37023923e171_cgraph_org.svg" target="_base">
           <rect id="button" ry="5" rx="5" y="6" x="6" height="38" width="38"
                fill="#f2f5e9" fill-opacity="0.5" stroke="#606060" stroke-width="1.0"/>
           <path id="arrow"
             d="M 11.500037,31.436501 C 11.940474,20.09759 22.043105,11.32322 32.158766,21.979434 L 37.068811,17.246167 C 37.068811,17.246167 37.088388,32 37.088388,32 L 22.160133,31.978069 C 22.160133,31.978069 26.997745,27.140456 26.997745,27.140456 C 18.528582,18.264221 13.291696,25.230495 11.500037,31.436501 z"
             style="fill:#404040;"/>
          </a>
         </g>
        </svg>
</svg>
