<?xml version="1.0" encoding="UTF-8" standalone="no"?>
<!DOCTYPE svg PUBLIC "-//W3C//DTD SVG 1.1//EN"
 "http://www.w3.org/Graphics/SVG/1.1/DTD/svg11.dtd">
<!-- Generated by graphviz version 7.1.0 (20230121.1956)
 -->
<!-- Title: kepler::rotate Pages: 1 -->
<svg width="540pt" height="142pt"
 viewBox="0.00 0.00 540.00 142.00" xmlns="http://www.w3.org/2000/svg" xmlns:xlink="http://www.w3.org/1999/xlink">
<g id="graph0" class="graph" transform="scale(1 1) rotate(0) translate(4 138)">
<title>kepler::rotate</title>
<!-- Node1 -->
<g id="node1" class="node">
<title>Node1</title>
<g id="a_node1"><a xlink:title=" ">
<polygon fill="#999999" stroke="#666666" points="74,-74 0,-74 0,-55 74,-55 74,-74"/>
<text text-anchor="middle" x="37" y="-62" font-family="Helvetica,sans-Serif" font-size="10.00">kepler::rotate</text>
</a>
</g>
</g>
<!-- Node2 -->
<g id="node2" class="node">
<title>Node2</title>
<g id="a_node2"><a xlink:href="namespacekepler.html#ad171f0351cbb21e92ca7ea0cc0bbd317" target="_top" xlink:title=" ">
<polygon fill="white" stroke="#666666" points="224,-133 110,-133 110,-114 224,-114 224,-133"/>
<text text-anchor="middle" x="167" y="-121" font-family="Helvetica,sans-Serif" font-size="10.00">kepler::get_block_size</text>
</a>
</g>
</g>
<!-- Node1&#45;&gt;Node2 -->
<g id="edge1" class="edge">
<title>Node1&#45;&gt;Node2</title>
<path fill="none" stroke="#63b8ff" d="M56.1,-74.44C70.51,-82.2 91.3,-93.05 110,-101.5 115.98,-104.2 122.39,-106.9 128.66,-109.44"/>
<polygon fill="#63b8ff" stroke="#63b8ff" points="127,-112.54 137.59,-112.97 129.58,-106.03 127,-112.54"/>
</g>
<!-- Node4 -->
<g id="node4" class="node">
<title>Node4</title>
<g id="a_node4"><a xlink:href="namespacekepler.html#a39278d07695647da0a30c3b209c7a4d7" target="_top" xlink:title=" ">
<polygon fill="white" stroke="#666666" points="210,-93 124,-93 124,-74 210,-74 210,-93"/>
<text text-anchor="middle" x="167" y="-81" font-family="Helvetica,sans-Serif" font-size="10.00">kepler::get_shift</text>
</a>
</g>
</g>
<!-- Node1&#45;&gt;Node4 -->
<g id="edge3" class="edge">
<title>Node1&#45;&gt;Node4</title>
<path fill="none" stroke="#63b8ff" d="M74.34,-69.89C86.23,-71.66 99.7,-73.66 112.58,-75.57"/>
<polygon fill="#63b8ff" stroke="#63b8ff" points="111.79,-78.99 122.19,-77 112.81,-72.07 111.79,-78.99"/>
</g>
<!-- Node8 -->
<g id="node8" class="node">
<title>Node8</title>
<g id="a_node8"><a xlink:href="namespacekepler.html#a381bfabdccfab574253acbb27e3d8df2" target="_top" xlink:title=" ">
<polygon fill="white" stroke="#666666" points="222,-56 112,-56 112,-37 222,-37 222,-56"/>
<text text-anchor="middle" x="167" y="-44" font-family="Helvetica,sans-Serif" font-size="10.00">kepler::get_step_size</text>
</a>
</g>
</g>
<!-- Node1&#45;&gt;Node8 -->
<g id="edge7" class="edge">
<title>Node1&#45;&gt;Node8</title>
<path fill="none" stroke="#63b8ff" d="M74.34,-59.39C82.55,-58.24 91.51,-56.97 100.51,-55.71"/>
<polygon fill="#63b8ff" stroke="#63b8ff" points="100.97,-59.18 110.39,-54.32 100,-52.25 100.97,-59.18"/>
</g>
<!-- Node9 -->
<g id="node9" class="node">
<title>Node9</title>
<g id="a_node9"><a xlink:href="structkepler_1_1_array.html#a98194b5409eace27b9eae7dcac74e350" target="_top" xlink:title=" ">
<polygon fill="white" stroke="#666666" points="215,-19 119,-19 119,0 215,0 215,-19"/>
<text text-anchor="middle" x="167" y="-7" font-family="Helvetica,sans-Serif" font-size="10.00">kepler::Array::size</text>
</a>
</g>
</g>
<!-- Node1&#45;&gt;Node9 -->
<g id="edge8" class="edge">
<title>Node1&#45;&gt;Node9</title>
<path fill="none" stroke="#63b8ff" d="M55.37,-54.55C69.72,-46.58 90.78,-35.46 110,-27.5 113.6,-26.01 117.37,-24.56 121.18,-23.18"/>
<polygon fill="#63b8ff" stroke="#63b8ff" points="122.18,-26.54 130.49,-19.96 119.89,-19.92 122.18,-26.54"/>
</g>
<!-- Node3 -->
<g id="node3" class="node">
<title>Node3</title>
<g id="a_node3"><a xlink:href="namespacekepler.html#a7f5815983171b78737f0e166e9d89fba" target="_top" xlink:title=" ">
<polygon fill="white" stroke="#666666" points="363.5,-134 275.5,-134 275.5,-115 363.5,-115 363.5,-134"/>
<text text-anchor="middle" x="319.5" y="-122" font-family="Helvetica,sans-Serif" font-size="10.00">kepler::vec_size</text>
</a>
</g>
</g>
<!-- Node2&#45;&gt;Node3 -->
<g id="edge2" class="edge">
<title>Node2&#45;&gt;Node3</title>
<path fill="none" stroke="#63b8ff" d="M224.47,-123.88C237.37,-123.96 251.05,-124.05 263.88,-124.14"/>
<polygon fill="#63b8ff" stroke="#63b8ff" points="263.82,-127.64 273.85,-124.2 263.87,-120.64 263.82,-127.64"/>
</g>
<!-- Node5 -->
<g id="node5" class="node">
<title>Node5</title>
<g id="a_node5"><a xlink:href="structkepler_1_1_array.html#a31e9d1137447bf3402d6278c41569f5e" target="_top" xlink:title=" ">
<polygon fill="white" stroke="#666666" points="379,-96.5 260,-96.5 260,-66.5 379,-66.5 379,-96.5"/>
<text text-anchor="start" x="268" y="-84.5" font-family="Helvetica,sans-Serif" font-size="10.00">kepler::Array::is_simple</text>
<text text-anchor="middle" x="319.5" y="-73.5" font-family="Helvetica,sans-Serif" font-size="10.00">_scalar</text>
</a>
</g>
</g>
<!-- Node4&#45;&gt;Node5 -->
<g id="edge4" class="edge">
<title>Node4&#45;&gt;Node5</title>
<path fill="none" stroke="#63b8ff" d="M210.32,-82.94C222.16,-82.78 235.35,-82.61 248.33,-82.43"/>
<polygon fill="#63b8ff" stroke="#63b8ff" points="248.19,-85.93 258.14,-82.3 248.09,-78.94 248.19,-85.93"/>
</g>
<!-- Node6 -->
<g id="node6" class="node">
<title>Node6</title>
<g id="a_node6"><a xlink:href="structkepler_1_1_array.html#a9d4e4ca37cd263142d76ca0a56346991" target="_top" xlink:title=" ">
<polygon fill="white" stroke="#666666" points="526,-110 421,-110 421,-91 526,-91 526,-110"/>
<text text-anchor="middle" x="473.5" y="-98" font-family="Helvetica,sans-Serif" font-size="10.00">kepler::Array::empty</text>
</a>
</g>
</g>
<!-- Node5&#45;&gt;Node6 -->
<g id="edge5" class="edge">
<title>Node5&#45;&gt;Node6</title>
<path fill="none" stroke="#63b8ff" d="M379.27,-88.85C389.22,-90.09 399.59,-91.39 409.65,-92.64"/>
<polygon fill="#63b8ff" stroke="#63b8ff" points="408.97,-96.09 419.32,-93.85 409.83,-89.14 408.97,-96.09"/>
</g>
<!-- Node7 -->
<g id="node7" class="node">
<title>Node7</title>
<g id="a_node7"><a xlink:href="structkepler_1_1_array.html#ae82484749f93ec527be3eff64ddf3d37" target="_top" xlink:title=" ">
<polygon fill="white" stroke="#666666" points="532,-73 415,-73 415,-54 532,-54 532,-73"/>
<text text-anchor="middle" x="473.5" y="-61" font-family="Helvetica,sans-Serif" font-size="10.00">kepler::Array::is_scalar</text>
</a>
</g>
</g>
<!-- Node5&#45;&gt;Node7 -->
<g id="edge6" class="edge">
<title>Node5&#45;&gt;Node7</title>
<path fill="none" stroke="#63b8ff" d="M379.27,-74.54C387.22,-73.6 395.43,-72.63 403.54,-71.67"/>
<polygon fill="#63b8ff" stroke="#63b8ff" points="403.87,-75.15 413.39,-70.5 403.04,-68.2 403.87,-75.15"/>
</g>
</g>
</svg>
