<?xml version="1.0" encoding="UTF-8" standalone="no"?>
<!DOCTYPE svg PUBLIC "-//W3C//DTD SVG 1.1//EN"
 "http://www.w3.org/Graphics/SVG/1.1/DTD/svg11.dtd">
<!-- Generated by graphviz version 7.1.0 (20230121.1956)
 -->
<!-- Title: kepler::frame_matrix Pages: 1 -->
<svg width="493pt" height="163pt"
 viewBox="0.00 0.00 493.00 162.98" xmlns="http://www.w3.org/2000/svg" xmlns:xlink="http://www.w3.org/1999/xlink">
<g id="graph0" class="graph" transform="scale(1 1) rotate(0) translate(4 158.98)">
<title>kepler::frame_matrix</title>
<!-- Node1 -->
<g id="node1" class="node">
<title>Node1</title>
<g id="a_node1"><a xlink:title=" ">
<polygon fill="#999999" stroke="#666666" points="106,-95 0,-95 0,-76 106,-76 106,-95"/>
<text text-anchor="middle" x="53" y="-83" font-family="Helvetica,sans-Serif" font-size="10.00">kepler::frame_matrix</text>
</a>
</g>
</g>
<!-- Node2 -->
<g id="node2" class="node">
<title>Node2</title>
<g id="a_node2"><a xlink:href="namespacekepler.html#ac2e37855a527a231ea2757065461ec7c" target="_top" xlink:title=" ">
<polygon fill="white" stroke="#666666" points="380.5,-132 271.5,-132 271.5,-113 380.5,-113 380.5,-132"/>
<text text-anchor="middle" x="326" y="-120" font-family="Helvetica,sans-Serif" font-size="10.00">kepler::block_append</text>
</a>
</g>
</g>
<!-- Node1&#45;&gt;Node2 -->
<g id="edge1" class="edge">
<title>Node1&#45;&gt;Node2</title>
<path fill="none" stroke="#63b8ff" d="M95.45,-95.47C110.09,-98.72 126.71,-102.11 142,-104.5 180.99,-110.61 225,-115.01 260.08,-117.94"/>
<polygon fill="#63b8ff" stroke="#63b8ff" points="259.39,-121.39 269.64,-118.71 259.95,-114.41 259.39,-121.39"/>
</g>
<!-- Node3 -->
<g id="node3" class="node">
<title>Node3</title>
<g id="a_node3"><a xlink:href="namespacekepler.html#a1c940fca16ab1a09634ee009e48d64f9" target="_top" xlink:title=" ">
<polygon fill="white" stroke="#666666" points="485,-95 418,-95 418,-76 485,-76 485,-95"/>
<text text-anchor="middle" x="451.5" y="-83" font-family="Helvetica,sans-Serif" font-size="10.00">kepler::split</text>
</a>
</g>
</g>
<!-- Node1&#45;&gt;Node3 -->
<g id="edge11" class="edge">
<title>Node1&#45;&gt;Node3</title>
<path fill="none" stroke="#63b8ff" d="M73.44,-95.47C125.13,-120.56 269.64,-181.58 382,-141.5 402.92,-134.04 422.07,-117.13 434.77,-103.84"/>
<polygon fill="#63b8ff" stroke="#63b8ff" points="437.31,-106.24 441.45,-96.49 432.13,-101.53 437.31,-106.24"/>
</g>
<!-- Node4 -->
<g id="node4" class="node">
<title>Node4</title>
<g id="a_node4"><a xlink:href="namespacekepler.html#a750517c7d0a2aee96dd1a59d93eeeb4b" target="_top" xlink:title=" ">
<polygon fill="white" stroke="#666666" points="234,-95 142,-95 142,-76 234,-76 234,-95"/>
<text text-anchor="middle" x="188" y="-83" font-family="Helvetica,sans-Serif" font-size="10.00">kepler::block_join</text>
</a>
</g>
</g>
<!-- Node1&#45;&gt;Node4 -->
<g id="edge3" class="edge">
<title>Node1&#45;&gt;Node4</title>
<path fill="none" stroke="#63b8ff" d="M106.18,-85.5C114.2,-85.5 122.5,-85.5 130.6,-85.5"/>
<polygon fill="#63b8ff" stroke="#63b8ff" points="130.35,-89 140.35,-85.5 130.35,-82 130.35,-89"/>
</g>
<!-- Node6 -->
<g id="node6" class="node">
<title>Node6</title>
<g id="a_node6"><a xlink:href="namespacekepler.html#a5812fc866c7b21bfe8481ea58813a270" target="_top" xlink:title=" ">
<polygon fill="white" stroke="#666666" points="382,-58 270,-58 270,-39 382,-39 382,-58"/>
<text text-anchor="middle" x="326" y="-46" font-family="Helvetica,sans-Serif" font-size="10.00">kepler::block_prepend</text>
</a>
</g>
</g>
<!-- Node1&#45;&gt;Node6 -->
<g id="edge7" class="edge">
<title>Node1&#45;&gt;Node6</title>
<path fill="none" stroke="#63b8ff" d="M98.16,-75.58C112.13,-72.68 127.67,-69.7 142,-67.5 180.29,-61.61 223.38,-57.04 258.12,-53.85"/>
<polygon fill="#63b8ff" stroke="#63b8ff" points="258.41,-57.34 268.06,-52.96 257.78,-50.37 258.41,-57.34"/>
</g>
<!-- Node7 -->
<g id="node7" class="node">
<title>Node7</title>
<g id="a_node7"><a xlink:href="namespacekepler.html#ac23a3c14c1978c0096eb41930fda9507" target="_top" xlink:title=" ">
<polygon fill="white" stroke="#666666" points="220.5,-19 155.5,-19 155.5,0 220.5,0 220.5,-19"/>
<text text-anchor="middle" x="188" y="-7" font-family="Helvetica,sans-Serif" font-size="10.00">kepler::box</text>
</a>
</g>
</g>
<!-- Node1&#45;&gt;Node7 -->
<g id="edge9" class="edge">
<title>Node1&#45;&gt;Node7</title>
<path fill="none" stroke="#63b8ff" d="M70.42,-75.51C88,-64.87 116.78,-47.67 142,-33.5 147.17,-30.59 152.72,-27.56 158.1,-24.67"/>
<polygon fill="#63b8ff" stroke="#63b8ff" points="159.56,-27.86 166.74,-20.07 156.26,-21.69 159.56,-27.86"/>
</g>
<!-- Node2&#45;&gt;Node3 -->
<g id="edge2" class="edge">
<title>Node2&#45;&gt;Node3</title>
<path fill="none" stroke="#63b8ff" d="M360.1,-112.58C374.47,-108.28 391.5,-103.17 406.89,-98.57"/>
<polygon fill="#63b8ff" stroke="#63b8ff" points="407.72,-101.97 416.29,-95.75 405.71,-95.27 407.72,-101.97"/>
</g>
<!-- Node4&#45;&gt;Node2 -->
<g id="edge4" class="edge">
<title>Node4&#45;&gt;Node2</title>
<path fill="none" stroke="#63b8ff" d="M225.45,-95.42C241.45,-99.77 260.46,-104.94 277.55,-109.59"/>
<polygon fill="#63b8ff" stroke="#63b8ff" points="276.43,-112.91 286.99,-112.16 278.26,-106.16 276.43,-112.91"/>
</g>
<!-- Node5 -->
<g id="node5" class="node">
<title>Node5</title>
<g id="a_node5"><a xlink:href="namespacekepler.html#ac06a7b655e54e2533459da64127b862a" target="_top" xlink:title=" ">
<polygon fill="white" stroke="#666666" points="379.5,-95 272.5,-95 272.5,-76 379.5,-76 379.5,-95"/>
<text text-anchor="middle" x="326" y="-83" font-family="Helvetica,sans-Serif" font-size="10.00">kepler::block_concat</text>
</a>
</g>
</g>
<!-- Node4&#45;&gt;Node5 -->
<g id="edge5" class="edge">
<title>Node4&#45;&gt;Node5</title>
<path fill="none" stroke="#63b8ff" d="M234.29,-85.5C242.87,-85.5 252,-85.5 261.03,-85.5"/>
<polygon fill="#63b8ff" stroke="#63b8ff" points="260.87,-89 270.87,-85.5 260.87,-82 260.87,-89"/>
</g>
<!-- Node5&#45;&gt;Node3 -->
<g id="edge6" class="edge">
<title>Node5&#45;&gt;Node3</title>
<path fill="none" stroke="#63b8ff" d="M379.73,-85.5C388.57,-85.5 397.65,-85.5 406.25,-85.5"/>
<polygon fill="#63b8ff" stroke="#63b8ff" points="406.08,-89 416.08,-85.5 406.08,-82 406.08,-89"/>
</g>
<!-- Node6&#45;&gt;Node3 -->
<g id="edge8" class="edge">
<title>Node6&#45;&gt;Node3</title>
<path fill="none" stroke="#63b8ff" d="M360.1,-58.42C374.47,-62.72 391.5,-67.83 406.89,-72.43"/>
<polygon fill="#63b8ff" stroke="#63b8ff" points="405.71,-75.73 416.29,-75.25 407.72,-69.03 405.71,-75.73"/>
</g>
<!-- Node7&#45;&gt;Node3 -->
<g id="edge10" class="edge">
<title>Node7&#45;&gt;Node3</title>
<path fill="none" stroke="#63b8ff" d="M220.77,-7.34C260.17,-5.87 328.66,-7.31 382,-29.5 402.28,-37.94 421.28,-54.42 434.1,-67.33"/>
<polygon fill="#63b8ff" stroke="#63b8ff" points="431.45,-69.63 440.88,-74.46 436.52,-64.8 431.45,-69.63"/>
</g>
</g>
</svg>
