<?xml version="1.0" encoding="UTF-8" standalone="no"?>
<!DOCTYPE svg PUBLIC "-//W3C//DTD SVG 1.1//EN"
 "http://www.w3.org/Graphics/SVG/1.1/DTD/svg11.dtd">
<!-- Generated by graphviz version 7.1.0 (20230121.1956)
 -->
<!-- Title: src/core/evaluation/node_visitor.h Pages: 1 -->
<svg width="359pt" height="181pt"
 viewBox="0.00 0.00 358.50 181.00" xmlns="http://www.w3.org/2000/svg" xmlns:xlink="http://www.w3.org/1999/xlink">
<g id="graph0" class="graph" transform="scale(1 1) rotate(0) translate(4 177)">
<title>src/core/evaluation/node_visitor.h</title>
<!-- Node1 -->
<g id="node1" class="node">
<title>Node1</title>
<g id="a_node1"><a xlink:title=" ">
<polygon fill="#999999" stroke="#666666" points="157,-173 58,-173 58,-143 157,-143 157,-173"/>
<text text-anchor="start" x="66" y="-161" font-family="Helvetica,sans-Serif" font-size="10.00">src/core/evaluation</text>
<text text-anchor="middle" x="107.5" y="-150" font-family="Helvetica,sans-Serif" font-size="10.00">/node_visitor.h</text>
</a>
</g>
</g>
<!-- Node2 -->
<g id="node2" class="node">
<title>Node2</title>
<g id="a_node2"><a xlink:href="ast_8cpp.html" target="_top" xlink:title=" ">
<polygon fill="white" stroke="#666666" points="99,-107 0,-107 0,-77 99,-77 99,-107"/>
<text text-anchor="start" x="8" y="-95" font-family="Helvetica,sans-Serif" font-size="10.00">src/core/evaluation</text>
<text text-anchor="middle" x="49.5" y="-84" font-family="Helvetica,sans-Serif" font-size="10.00">/ast.cpp</text>
</a>
</g>
</g>
<!-- Node1&#45;&gt;Node2 -->
<g id="edge1" class="edge">
<title>Node1&#45;&gt;Node2</title>
<path fill="none" stroke="#63b8ff" d="M87.13,-134.53C78.89,-125.43 69.61,-115.19 62.34,-107.16"/>
<polygon fill="#63b8ff" stroke="#63b8ff" points="84.3,-136.62 93.61,-141.67 89.49,-131.91 84.3,-136.62"/>
</g>
<!-- Node3 -->
<g id="node3" class="node">
<title>Node3</title>
<g id="a_node3"><a xlink:href="interpreter_8h.html" target="_top" xlink:title=" ">
<polygon fill="white" stroke="#666666" points="216,-107 117,-107 117,-77 216,-77 216,-107"/>
<text text-anchor="start" x="125" y="-95" font-family="Helvetica,sans-Serif" font-size="10.00">src/core/evaluation</text>
<text text-anchor="middle" x="166.5" y="-84" font-family="Helvetica,sans-Serif" font-size="10.00">/interpreter.h</text>
</a>
</g>
</g>
<!-- Node1&#45;&gt;Node3 -->
<g id="edge2" class="edge">
<title>Node1&#45;&gt;Node3</title>
<path fill="none" stroke="#63b8ff" d="M128.22,-134.53C136.61,-125.43 146.04,-115.19 153.44,-107.16"/>
<polygon fill="#63b8ff" stroke="#63b8ff" points="125.82,-131.96 121.62,-141.68 130.97,-136.7 125.82,-131.96"/>
</g>
<!-- Node4 -->
<g id="node4" class="node">
<title>Node4</title>
<g id="a_node4"><a xlink:href="interpreter_8cpp.html" target="_top" xlink:title=" ">
<polygon fill="white" stroke="#666666" points="99,-35.5 0,-35.5 0,-5.5 99,-5.5 99,-35.5"/>
<text text-anchor="start" x="8" y="-23.5" font-family="Helvetica,sans-Serif" font-size="10.00">src/core/evaluation</text>
<text text-anchor="middle" x="49.5" y="-12.5" font-family="Helvetica,sans-Serif" font-size="10.00">/interpreter.cpp</text>
</a>
</g>
</g>
<!-- Node3&#45;&gt;Node4 -->
<g id="edge3" class="edge">
<title>Node3&#45;&gt;Node4</title>
<path fill="none" stroke="#63b8ff" d="M132.56,-70.84C113.72,-59.65 90.73,-45.99 73.71,-35.88"/>
<polygon fill="#63b8ff" stroke="#63b8ff" points="130.57,-73.73 140.96,-75.83 134.15,-67.71 130.57,-73.73"/>
</g>
<!-- Node5 -->
<g id="node5" class="node">
<title>Node5</title>
<g id="a_node5"><a xlink:href="defined__function_8cpp.html" target="_top" xlink:title=" ">
<polygon fill="white" stroke="#666666" points="216,-41 117,-41 117,0 216,0 216,-41"/>
<text text-anchor="start" x="125" y="-29" font-family="Helvetica,sans-Serif" font-size="10.00">src/core/evaluation</text>
<text text-anchor="start" x="125" y="-18" font-family="Helvetica,sans-Serif" font-size="10.00">/operations/defined</text>
<text text-anchor="middle" x="166.5" y="-7" font-family="Helvetica,sans-Serif" font-size="10.00">_function.cpp</text>
</a>
</g>
</g>
<!-- Node3&#45;&gt;Node5 -->
<g id="edge4" class="edge">
<title>Node3&#45;&gt;Node5</title>
<path fill="none" stroke="#63b8ff" d="M166.5,-65.36C166.5,-57.45 166.5,-48.87 166.5,-41.42"/>
<polygon fill="#63b8ff" stroke="#63b8ff" points="163,-65.09 166.5,-75.09 170,-65.09 163,-65.09"/>
</g>
<!-- Node6 -->
<g id="node6" class="node">
<title>Node6</title>
<g id="a_node6"><a xlink:href="execution_8cpp.html" target="_top" xlink:title=" ">
<polygon fill="white" stroke="#666666" points="350.5,-30 234.5,-30 234.5,-11 350.5,-11 350.5,-30"/>
<text text-anchor="middle" x="292.5" y="-18" font-family="Helvetica,sans-Serif" font-size="10.00">src/core/execution.cpp</text>
</a>
</g>
</g>
<!-- Node3&#45;&gt;Node6 -->
<g id="edge5" class="edge">
<title>Node3&#45;&gt;Node6</title>
<path fill="none" stroke="#63b8ff" d="M202.58,-71.1C226.94,-57.66 257.9,-40.59 276.4,-30.38"/>
<polygon fill="#63b8ff" stroke="#63b8ff" points="201,-67.97 193.93,-75.87 204.38,-74.1 201,-67.97"/>
</g>
</g>
</svg>
