<?xml version="1.0" encoding="UTF-8" standalone="no"?>
<!DOCTYPE svg PUBLIC "-//W3C//DTD SVG 1.1//EN"
 "http://www.w3.org/Graphics/SVG/1.1/DTD/svg11.dtd">
<!-- Generated by graphviz version 7.1.0 (20230121.1956)
 -->
<!-- Title: src/core/evaluation/node_visitor.h Pages: 1 -->
<svg width="746pt" height="379pt"
 viewBox="0.00 0.00 745.50 379.00" xmlns="http://www.w3.org/2000/svg" xmlns:xlink="http://www.w3.org/1999/xlink">
<g id="graph0" class="graph" transform="scale(1 1) rotate(0) translate(4 375)">
<title>src/core/evaluation/node_visitor.h</title>
<!-- Node1 -->
<g id="node1" class="node">
<title>Node1</title>
<g id="a_node1"><a xlink:title=" ">
<polygon fill="#999999" stroke="#666666" points="163,-371 64,-371 64,-341 163,-341 163,-371"/>
<text text-anchor="start" x="72" y="-359" font-family="Helvetica,sans-Serif" font-size="10.00">src/core/evaluation</text>
<text text-anchor="middle" x="113.5" y="-348" font-family="Helvetica,sans-Serif" font-size="10.00">/node_visitor.h</text>
</a>
</g>
</g>
<!-- Node2 -->
<g id="node2" class="node">
<title>Node2</title>
<g id="a_node2"><a xlink:href="array_8h.html" target="_top" xlink:title=" ">
<polygon fill="white" stroke="#666666" points="67,-129 0,-129 0,-110 67,-110 67,-129"/>
<text text-anchor="middle" x="33.5" y="-117" font-family="Helvetica,sans-Serif" font-size="10.00">core/array.h</text>
</a>
</g>
</g>
<!-- Node1&#45;&gt;Node2 -->
<g id="edge1" class="edge">
<title>Node1&#45;&gt;Node2</title>
<path fill="none" stroke="#63b8ff" d="M94.72,-340.72C72.38,-322.48 36.14,-288.59 20.5,-250 6.3,-214.97 11.01,-202.24 17.5,-165 18.98,-156.51 21.93,-147.51 24.91,-139.84"/>
<polygon fill="#63b8ff" stroke="#63b8ff" points="28.03,-141.43 28.66,-130.85 21.57,-138.73 28.03,-141.43"/>
</g>
<!-- Node8 -->
<g id="node8" class="node">
<title>Node8</title>
<g id="a_node8"><a xlink:href="operation_8h.html" target="_top" xlink:title=" ">
<polygon fill="white" stroke="#666666" points="179,-250 48,-250 48,-220 179,-220 179,-250"/>
<text text-anchor="start" x="56" y="-238" font-family="Helvetica,sans-Serif" font-size="10.00">core/evaluation/operations</text>
<text text-anchor="middle" x="113.5" y="-227" font-family="Helvetica,sans-Serif" font-size="10.00">/operation.h</text>
</a>
</g>
</g>
<!-- Node1&#45;&gt;Node8 -->
<g id="edge7" class="edge">
<title>Node1&#45;&gt;Node8</title>
<path fill="none" stroke="#63b8ff" d="M113.5,-340.88C113.5,-321.39 113.5,-285.92 113.5,-261.67"/>
<polygon fill="#63b8ff" stroke="#63b8ff" points="117,-261.98 113.5,-251.98 110,-261.98 117,-261.98"/>
</g>
<!-- Node18 -->
<g id="node18" class="node">
<title>Node18</title>
<g id="a_node18"><a xlink:href="ast_8h.html" target="_top" xlink:title=" ">
<polygon fill="white" stroke="#666666" points="299,-305 192,-305 192,-286 299,-286 299,-305"/>
<text text-anchor="middle" x="245.5" y="-293" font-family="Helvetica,sans-Serif" font-size="10.00">core/evaluation/ast.h</text>
</a>
</g>
</g>
<!-- Node1&#45;&gt;Node18 -->
<g id="edge24" class="edge">
<title>Node1&#45;&gt;Node18</title>
<path fill="none" stroke="#63b8ff" d="M146.13,-340.54C167.23,-331.19 194.5,-319.1 215.13,-309.96"/>
<polygon fill="#63b8ff" stroke="#63b8ff" points="216.43,-313.21 224.16,-305.96 213.6,-306.81 216.43,-313.21"/>
</g>
<!-- Node3 -->
<g id="node3" class="node">
<title>Node3</title>
<g id="a_node3"><a xlink:href="datatypes_8h.html" target="_top" xlink:title=" ">
<polygon fill="white" stroke="#666666" points="249.5,-74 181.5,-74 181.5,-55 249.5,-55 249.5,-74"/>
<text text-anchor="middle" x="215.5" y="-62" font-family="Helvetica,sans-Serif" font-size="10.00">datatypes.h</text>
</a>
</g>
</g>
<!-- Node2&#45;&gt;Node3 -->
<g id="edge2" class="edge">
<title>Node2&#45;&gt;Node3</title>
<path fill="none" stroke="#63b8ff" d="M64.37,-109.51C94.53,-100.73 140.64,-87.3 174,-77.59"/>
<polygon fill="#63b8ff" stroke="#63b8ff" points="174.7,-81.03 183.33,-74.87 172.75,-74.31 174.7,-81.03"/>
</g>
<!-- Node7 -->
<g id="node7" class="node">
<title>Node7</title>
<g id="a_node7"><a xlink:title=" ">
<polygon fill="#e0e0e0" stroke="#999999" points="56.5,-74 10.5,-74 10.5,-55 56.5,-55 56.5,-74"/>
<text text-anchor="middle" x="33.5" y="-62" font-family="Helvetica,sans-Serif" font-size="10.00">variant</text>
</a>
</g>
</g>
<!-- Node2&#45;&gt;Node7 -->
<g id="edge6" class="edge">
<title>Node2&#45;&gt;Node7</title>
<path fill="none" stroke="#63b8ff" d="M33.5,-109.75C33.5,-103.27 33.5,-94.16 33.5,-85.9"/>
<polygon fill="#63b8ff" stroke="#63b8ff" points="37,-85.96 33.5,-75.96 30,-85.96 37,-85.96"/>
</g>
<!-- Node4 -->
<g id="node4" class="node">
<title>Node4</title>
<g id="a_node4"><a xlink:title=" ">
<polygon fill="#e0e0e0" stroke="#999999" points="203.5,-19 159.5,-19 159.5,0 203.5,0 203.5,-19"/>
<text text-anchor="middle" x="181.5" y="-7" font-family="Helvetica,sans-Serif" font-size="10.00">vector</text>
</a>
</g>
</g>
<!-- Node3&#45;&gt;Node4 -->
<g id="edge3" class="edge">
<title>Node3&#45;&gt;Node4</title>
<path fill="none" stroke="#63b8ff" d="M209.89,-54.75C205.38,-47.73 198.91,-37.64 193.29,-28.87"/>
<polygon fill="#63b8ff" stroke="#63b8ff" points="196.4,-27.24 188.05,-20.72 190.51,-31.02 196.4,-27.24"/>
</g>
<!-- Node5 -->
<g id="node5" class="node">
<title>Node5</title>
<g id="a_node5"><a xlink:title=" ">
<polygon fill="#e0e0e0" stroke="#999999" points="512,-19 471,-19 471,0 512,0 512,-19"/>
<text text-anchor="middle" x="491.5" y="-7" font-family="Helvetica,sans-Serif" font-size="10.00">string</text>
</a>
</g>
</g>
<!-- Node3&#45;&gt;Node5 -->
<g id="edge4" class="edge">
<title>Node3&#45;&gt;Node5</title>
<path fill="none" stroke="#63b8ff" d="M249.9,-56.89C303.66,-46.57 406.85,-26.76 459.25,-16.69"/>
<polygon fill="#63b8ff" stroke="#63b8ff" points="459.88,-20.14 469.04,-14.81 458.56,-13.26 459.88,-20.14"/>
</g>
<!-- Node6 -->
<g id="node6" class="node">
<title>Node6</title>
<g id="a_node6"><a xlink:title=" ">
<polygon fill="#e0e0e0" stroke="#999999" points="275,-19 222,-19 222,0 275,0 275,-19"/>
<text text-anchor="middle" x="248.5" y="-7" font-family="Helvetica,sans-Serif" font-size="10.00">complex</text>
</a>
</g>
</g>
<!-- Node3&#45;&gt;Node6 -->
<g id="edge5" class="edge">
<title>Node3&#45;&gt;Node6</title>
<path fill="none" stroke="#63b8ff" d="M220.95,-54.75C225.27,-47.81 231.46,-37.86 236.88,-29.16"/>
<polygon fill="#63b8ff" stroke="#63b8ff" points="239.82,-31.07 242.13,-20.73 233.88,-27.37 239.82,-31.07"/>
</g>
<!-- Node8&#45;&gt;Node2 -->
<g id="edge9" class="edge">
<title>Node8&#45;&gt;Node2</title>
<path fill="none" stroke="#63b8ff" d="M103.37,-219.63C88.85,-199.03 62.13,-161.12 46.28,-138.63"/>
<polygon fill="#63b8ff" stroke="#63b8ff" points="49.15,-136.62 40.52,-130.47 43.43,-140.66 49.15,-136.62"/>
</g>
<!-- Node8&#45;&gt;Node3 -->
<g id="edge8" class="edge">
<title>Node8&#45;&gt;Node3</title>
<path fill="none" stroke="#63b8ff" d="M109.76,-219.52C104.24,-194.73 96.87,-143.61 119.5,-110 131.16,-92.68 151.4,-81.96 170.3,-75.4"/>
<polygon fill="#63b8ff" stroke="#63b8ff" points="171.24,-78.78 179.75,-72.46 169.16,-72.09 171.24,-78.78"/>
</g>
<!-- Node9 -->
<g id="node9" class="node">
<title>Node9</title>
<g id="a_node9"><a xlink:href="token_8h.html" target="_top" xlink:title=" ">
<polygon fill="white" stroke="#666666" points="329,-184 258,-184 258,-165 329,-165 329,-184"/>
<text text-anchor="middle" x="293.5" y="-172" font-family="Helvetica,sans-Serif" font-size="10.00">core/token.h</text>
</a>
</g>
</g>
<!-- Node8&#45;&gt;Node9 -->
<g id="edge10" class="edge">
<title>Node8&#45;&gt;Node9</title>
<path fill="none" stroke="#63b8ff" d="M157.99,-219.54C187.86,-209.83 226.81,-197.17 255.28,-187.92"/>
<polygon fill="#63b8ff" stroke="#63b8ff" points="256.15,-191.32 264.58,-184.9 253.98,-184.66 256.15,-191.32"/>
</g>
<!-- Node17 -->
<g id="node17" class="node">
<title>Node17</title>
<g id="a_node17"><a xlink:title=" ">
<polygon fill="#e0e0e0" stroke="#999999" points="179.5,-184 127.5,-184 127.5,-165 179.5,-165 179.5,-184"/>
<text text-anchor="middle" x="153.5" y="-172" font-family="Helvetica,sans-Serif" font-size="10.00">memory</text>
</a>
</g>
</g>
<!-- Node8&#45;&gt;Node17 -->
<g id="edge23" class="edge">
<title>Node8&#45;&gt;Node17</title>
<path fill="none" stroke="#63b8ff" d="M123.39,-219.54C128.78,-211.65 135.51,-201.81 141.24,-193.44"/>
<polygon fill="#63b8ff" stroke="#63b8ff" points="143.96,-195.65 146.71,-185.42 138.18,-191.7 143.96,-195.65"/>
</g>
<!-- Node9&#45;&gt;Node2 -->
<g id="edge15" class="edge">
<title>Node9&#45;&gt;Node2</title>
<path fill="none" stroke="#63b8ff" d="M257.62,-166.19C210.87,-156.66 129.11,-139.99 78.32,-129.64"/>
<polygon fill="#63b8ff" stroke="#63b8ff" points="79.34,-126.27 68.84,-127.7 77.94,-133.13 79.34,-126.27"/>
</g>
<!-- Node9&#45;&gt;Node3 -->
<g id="edge13" class="edge">
<title>Node9&#45;&gt;Node3</title>
<path fill="none" stroke="#63b8ff" d="M293.34,-164.5C292.69,-151.43 289.91,-126.9 278.5,-110 270.07,-97.51 256.88,-87.41 244.75,-80"/>
<polygon fill="#63b8ff" stroke="#63b8ff" points="246.67,-77.07 236.24,-75.17 243.21,-83.15 246.67,-77.07"/>
</g>
<!-- Node10 -->
<g id="node10" class="node">
<title>Node10</title>
<g id="a_node10"><a xlink:href="token__type_8h.html" target="_top" xlink:title=" ">
<polygon fill="white" stroke="#666666" points="620,-74 547,-74 547,-55 620,-55 620,-74"/>
<text text-anchor="middle" x="583.5" y="-62" font-family="Helvetica,sans-Serif" font-size="10.00">token_type.h</text>
</a>
</g>
</g>
<!-- Node9&#45;&gt;Node10 -->
<g id="edge11" class="edge">
<title>Node9&#45;&gt;Node10</title>
<path fill="none" stroke="#63b8ff" d="M329.4,-172.21C394.88,-169.15 530.13,-159.23 564.5,-129 576.8,-118.18 581.29,-99.77 582.86,-85.55"/>
<polygon fill="#63b8ff" stroke="#63b8ff" points="586.33,-86.15 583.51,-75.94 579.35,-85.68 586.33,-86.15"/>
</g>
<!-- Node12 -->
<g id="node12" class="node">
<title>Node12</title>
<g id="a_node12"><a xlink:title=" ">
<polygon fill="#e0e0e0" stroke="#999999" points="409,-129 326,-129 326,-110 409,-110 409,-129"/>
<text text-anchor="middle" x="367.5" y="-117" font-family="Helvetica,sans-Serif" font-size="10.00">uni_algo/conv.h</text>
</a>
</g>
</g>
<!-- Node9&#45;&gt;Node12 -->
<g id="edge14" class="edge">
<title>Node9&#45;&gt;Node12</title>
<path fill="none" stroke="#63b8ff" d="M306.05,-164.51C316.96,-156.7 333,-145.21 345.96,-135.93"/>
<polygon fill="#63b8ff" stroke="#63b8ff" points="347.81,-138.91 353.9,-130.24 343.73,-133.22 347.81,-138.91"/>
</g>
<!-- Node13 -->
<g id="node13" class="node">
<title>Node13</title>
<g id="a_node13"><a xlink:href="conversion_8h.html" target="_top" xlink:title=" ">
<polygon fill="white" stroke="#666666" points="555.5,-129 427.5,-129 427.5,-110 555.5,-110 555.5,-129"/>
<text text-anchor="middle" x="491.5" y="-117" font-family="Helvetica,sans-Serif" font-size="10.00">core/helpers/conversion.h</text>
</a>
</g>
</g>
<!-- Node9&#45;&gt;Node13 -->
<g id="edge16" class="edge">
<title>Node9&#45;&gt;Node13</title>
<path fill="none" stroke="#63b8ff" d="M327.09,-164.51C360.18,-155.65 410.93,-142.07 447.29,-132.33"/>
<polygon fill="#63b8ff" stroke="#63b8ff" points="447.86,-135.8 456.62,-129.84 446.05,-129.04 447.86,-135.8"/>
</g>
<!-- Node14 -->
<g id="node14" class="node">
<title>Node14</title>
<g id="a_node14"><a xlink:title=" ">
<polygon fill="#e0e0e0" stroke="#999999" points="201.5,-129 161.5,-129 161.5,-110 201.5,-110 201.5,-129"/>
<text text-anchor="middle" x="181.5" y="-117" font-family="Helvetica,sans-Serif" font-size="10.00">utility</text>
</a>
</g>
</g>
<!-- Node9&#45;&gt;Node14 -->
<g id="edge20" class="edge">
<title>Node9&#45;&gt;Node14</title>
<path fill="none" stroke="#63b8ff" d="M274.5,-164.51C256.94,-156.2 230.58,-143.73 210.41,-134.18"/>
<polygon fill="#63b8ff" stroke="#63b8ff" points="212.12,-131.12 201.59,-130.01 209.13,-137.45 212.12,-131.12"/>
</g>
<!-- Node15 -->
<g id="node15" class="node">
<title>Node15</title>
<g id="a_node15"><a xlink:title=" ">
<polygon fill="#e0e0e0" stroke="#999999" points="269.5,-129 219.5,-129 219.5,-110 269.5,-110 269.5,-129"/>
<text text-anchor="middle" x="244.5" y="-117" font-family="Helvetica,sans-Serif" font-size="10.00">optional</text>
</a>
</g>
</g>
<!-- Node9&#45;&gt;Node15 -->
<g id="edge21" class="edge">
<title>Node9&#45;&gt;Node15</title>
<path fill="none" stroke="#63b8ff" d="M285.41,-164.75C278.64,-157.43 268.78,-146.76 260.44,-137.74"/>
<polygon fill="#63b8ff" stroke="#63b8ff" points="263.15,-135.52 253.79,-130.55 258.01,-140.27 263.15,-135.52"/>
</g>
<!-- Node16 -->
<g id="node16" class="node">
<title>Node16</title>
<g id="a_node16"><a xlink:href="position_8h.html" target="_top" xlink:title=" ">
<polygon fill="white" stroke="#666666" points="671,-129 612,-129 612,-110 671,-110 671,-129"/>
<text text-anchor="middle" x="641.5" y="-117" font-family="Helvetica,sans-Serif" font-size="10.00">position.h</text>
</a>
</g>
</g>
<!-- Node9&#45;&gt;Node16 -->
<g id="edge22" class="edge">
<title>Node9&#45;&gt;Node16</title>
<path fill="none" stroke="#63b8ff" d="M329.15,-168.82C386.02,-161.22 500.74,-145.42 597.5,-129 598.51,-128.83 599.53,-128.65 600.55,-128.47"/>
<polygon fill="#63b8ff" stroke="#63b8ff" points="601.01,-131.95 610.22,-126.72 599.76,-125.06 601.01,-131.95"/>
</g>
<!-- Node11 -->
<g id="node11" class="node">
<title>Node11</title>
<g id="a_node11"><a xlink:title=" ">
<polygon fill="#e0e0e0" stroke="#999999" points="687.5,-19 633.5,-19 633.5,0 687.5,0 687.5,-19"/>
<text text-anchor="middle" x="660.5" y="-7" font-family="Helvetica,sans-Serif" font-size="10.00">iostream</text>
</a>
</g>
</g>
<!-- Node10&#45;&gt;Node11 -->
<g id="edge12" class="edge">
<title>Node10&#45;&gt;Node11</title>
<path fill="none" stroke="#63b8ff" d="M596.56,-54.51C608.02,-46.62 624.93,-34.98 638.48,-25.65"/>
<polygon fill="#63b8ff" stroke="#63b8ff" points="640.13,-28.77 646.38,-20.22 636.16,-23 640.13,-28.77"/>
</g>
<!-- Node13&#45;&gt;Node3 -->
<g id="edge18" class="edge">
<title>Node13&#45;&gt;Node3</title>
<path fill="none" stroke="#63b8ff" d="M444.68,-109.51C393.46,-99.67 311.9,-84.01 261.14,-74.27"/>
<polygon fill="#63b8ff" stroke="#63b8ff" points="261.84,-70.83 251.36,-72.39 260.52,-77.71 261.84,-70.83"/>
</g>
<!-- Node13&#45;&gt;Node5 -->
<g id="edge17" class="edge">
<title>Node13&#45;&gt;Node5</title>
<path fill="none" stroke="#63b8ff" d="M491.5,-109.66C491.5,-92.57 491.5,-54.61 491.5,-30.92"/>
<polygon fill="#63b8ff" stroke="#63b8ff" points="495,-30.97 491.5,-20.97 488,-30.97 495,-30.97"/>
</g>
<!-- Node13&#45;&gt;Node10 -->
<g id="edge19" class="edge">
<title>Node13&#45;&gt;Node10</title>
<path fill="none" stroke="#63b8ff" d="M507.11,-109.51C521.2,-101.39 542.19,-89.3 558.6,-79.85"/>
<polygon fill="#63b8ff" stroke="#63b8ff" points="559.89,-83.14 566.81,-75.11 556.4,-77.07 559.89,-83.14"/>
</g>
<!-- Node18&#45;&gt;Node2 -->
<g id="edge27" class="edge">
<title>Node18&#45;&gt;Node2</title>
<path fill="none" stroke="#63b8ff" d="M191.53,-290.28C136.91,-284.78 57.83,-273.01 38.5,-250 12.64,-219.23 20.44,-168.34 27.51,-140.4"/>
<polygon fill="#63b8ff" stroke="#63b8ff" points="30.88,-141.36 30.18,-130.79 24.13,-139.49 30.88,-141.36"/>
</g>
<!-- Node18&#45;&gt;Node3 -->
<g id="edge29" class="edge">
<title>Node18&#45;&gt;Node3</title>
<path fill="none" stroke="#63b8ff" d="M241.81,-285.76C235.92,-271.81 223.97,-243.69 213.5,-220 202.65,-195.44 203.79,-187.07 188.5,-165 175.61,-146.4 161.16,-149.91 152.5,-129 144,-108.47 164.67,-91.06 184.57,-79.69"/>
<polygon fill="#63b8ff" stroke="#63b8ff" points="186.2,-82.78 193.41,-75.01 182.93,-76.59 186.2,-82.78"/>
</g>
<!-- Node18&#45;&gt;Node5 -->
<g id="edge25" class="edge">
<title>Node18&#45;&gt;Node5</title>
<path fill="none" stroke="#63b8ff" d="M299.36,-291.72C419.62,-284.05 699.5,-257.39 699.5,-175.5 699.5,-175.5 699.5,-175.5 699.5,-118.5 699.5,-40.08 581.62,-18.53 523.34,-12.66"/>
<polygon fill="#63b8ff" stroke="#63b8ff" points="523.99,-9.2 513.71,-11.79 523.36,-16.18 523.99,-9.2"/>
</g>
<!-- Node18&#45;&gt;Node8 -->
<g id="edge31" class="edge">
<title>Node18&#45;&gt;Node8</title>
<path fill="none" stroke="#63b8ff" d="M225.45,-285.62C207.19,-277.52 179.61,-265.3 156.39,-255.01"/>
<polygon fill="#63b8ff" stroke="#63b8ff" points="158.03,-251.9 147.47,-251.05 155.19,-258.3 158.03,-251.9"/>
</g>
<!-- Node18&#45;&gt;Node9 -->
<g id="edge28" class="edge">
<title>Node18&#45;&gt;Node9</title>
<path fill="none" stroke="#63b8ff" d="M249.11,-285.56C256.86,-266.34 275.25,-220.74 285.77,-194.67"/>
<polygon fill="#63b8ff" stroke="#63b8ff" points="288.92,-196.21 289.41,-185.63 282.43,-193.59 288.92,-196.21"/>
</g>
<!-- Node18&#45;&gt;Node11 -->
<g id="edge26" class="edge">
<title>Node18&#45;&gt;Node11</title>
<path fill="none" stroke="#63b8ff" d="M299.19,-292.21C393.18,-287.6 583.34,-275.37 644.5,-250 693.42,-229.71 737.5,-228.46 737.5,-175.5 737.5,-175.5 737.5,-175.5 737.5,-118.5 737.5,-79.84 704.39,-45.44 681.59,-26.34"/>
<polygon fill="#63b8ff" stroke="#63b8ff" points="684.04,-23.82 674.05,-20.29 679.66,-29.28 684.04,-23.82"/>
</g>
<!-- Node18&#45;&gt;Node16 -->
<g id="edge32" class="edge">
<title>Node18&#45;&gt;Node16</title>
<path fill="none" stroke="#63b8ff" d="M265.96,-285.51C331.02,-256.92 533.43,-167.98 610.91,-133.94"/>
<polygon fill="#63b8ff" stroke="#63b8ff" points="612.27,-137.17 620.02,-129.94 609.45,-130.76 612.27,-137.17"/>
</g>
<!-- Node18&#45;&gt;Node17 -->
<g id="edge30" class="edge">
<title>Node18&#45;&gt;Node17</title>
<path fill="none" stroke="#63b8ff" d="M238.59,-285.56C223.46,-265.99 187.2,-219.09 167.24,-193.28"/>
<polygon fill="#63b8ff" stroke="#63b8ff" points="170.06,-191.19 161.17,-185.42 164.52,-195.47 170.06,-191.19"/>
</g>
</g>
</svg>
