<?xml version="1.0" encoding="UTF-8" standalone="no"?>
<!DOCTYPE svg PUBLIC "-//W3C//DTD SVG 1.1//EN"
 "http://www.w3.org/Graphics/SVG/1.1/DTD/svg11.dtd">
<!-- Generated by graphviz version 7.1.0 (20230121.1956)
 -->
<!-- Title: /Users/nikolajbankejensen/Desktop/Kepler/src/core/evaluation/operations/operation.cpp Pages: 1 -->
<svg width="770pt" height="324pt"
 viewBox="0.00 0.00 770.49 324.00" xmlns="http://www.w3.org/2000/svg" xmlns:xlink="http://www.w3.org/1999/xlink">
<g id="graph0" class="graph" transform="scale(1 1) rotate(0) translate(4 320)">
<title>/Users/nikolajbankejensen/Desktop/Kepler/src/core/evaluation/operations/operation.cpp</title>
<!-- Node1 -->
<g id="node1" class="node">
<title>Node1</title>
<g id="a_node1"><a xlink:title=" ">
<polygon fill="#999999" stroke="#666666" points="255.79,-316 82.79,-316 82.79,-275 255.79,-275 255.79,-316"/>
<text text-anchor="start" x="90.79" y="-304" font-family="Helvetica,sans-Serif" font-size="10.00">/Users/nikolajbankejensen</text>
<text text-anchor="start" x="90.79" y="-293" font-family="Helvetica,sans-Serif" font-size="10.00">/Desktop/Kepler/src/core</text>
<text text-anchor="middle" x="169.29" y="-282" font-family="Helvetica,sans-Serif" font-size="10.00">/evaluation/operations/operation.cpp</text>
</a>
</g>
</g>
<!-- Node2 -->
<g id="node2" class="node">
<title>Node2</title>
<g id="a_node2"><a xlink:href="operation_8h.html" target="_top" xlink:title=" ">
<polygon fill="white" stroke="#666666" points="171.79,-239 106.79,-239 106.79,-220 171.79,-220 171.79,-239"/>
<text text-anchor="middle" x="139.29" y="-227" font-family="Helvetica,sans-Serif" font-size="10.00">operation.h</text>
</a>
</g>
</g>
<!-- Node1&#45;&gt;Node2 -->
<g id="edge1" class="edge">
<title>Node1&#45;&gt;Node2</title>
<path fill="none" stroke="#63b8ff" d="M159.96,-274.6C156.22,-266.61 151.92,-257.45 148.22,-249.55"/>
<polygon fill="#63b8ff" stroke="#63b8ff" points="151.41,-248.1 143.99,-240.53 145.07,-251.07 151.41,-248.1"/>
</g>
<!-- Node18 -->
<g id="node18" class="node">
<title>Node18</title>
<g id="a_node18"><a xlink:href="error_8h.html" target="_top" xlink:title=" ">
<polygon fill="white" stroke="#666666" points="649.79,-184 584.79,-184 584.79,-165 649.79,-165 649.79,-184"/>
<text text-anchor="middle" x="617.29" y="-172" font-family="Helvetica,sans-Serif" font-size="10.00">core/error.h</text>
</a>
</g>
</g>
<!-- Node1&#45;&gt;Node18 -->
<g id="edge23" class="edge">
<title>Node1&#45;&gt;Node18</title>
<path fill="none" stroke="#63b8ff" d="M244.53,-274.51C338.64,-249.52 496.69,-207.53 573.18,-187.22"/>
<polygon fill="#63b8ff" stroke="#63b8ff" points="574.07,-190.6 582.83,-184.65 572.27,-183.84 574.07,-190.6"/>
</g>
<!-- Node3 -->
<g id="node3" class="node">
<title>Node3</title>
<g id="a_node3"><a xlink:href="datatypes_8h.html" target="_top" xlink:title=" ">
<polygon fill="white" stroke="#666666" points="288.79,-74 199.79,-74 199.79,-55 288.79,-55 288.79,-74"/>
<text text-anchor="middle" x="244.29" y="-62" font-family="Helvetica,sans-Serif" font-size="10.00">core/datatypes.h</text>
</a>
</g>
</g>
<!-- Node2&#45;&gt;Node3 -->
<g id="edge2" class="edge">
<title>Node2&#45;&gt;Node3</title>
<path fill="none" stroke="#63b8ff" d="M114.92,-219.62C67.59,-201.07 -28.9,-156.09 9.29,-110 31.58,-83.1 126.1,-72.33 188.27,-68.12"/>
<polygon fill="#63b8ff" stroke="#63b8ff" points="188.21,-71.63 197.96,-67.5 187.76,-64.64 188.21,-71.63"/>
</g>
<!-- Node7 -->
<g id="node7" class="node">
<title>Node7</title>
<g id="a_node7"><a xlink:href="array_8h.html" target="_top" xlink:title=" ">
<polygon fill="white" stroke="#666666" points="85.79,-129 18.79,-129 18.79,-110 85.79,-110 85.79,-129"/>
<text text-anchor="middle" x="52.29" y="-117" font-family="Helvetica,sans-Serif" font-size="10.00">core/array.h</text>
</a>
</g>
</g>
<!-- Node2&#45;&gt;Node7 -->
<g id="edge6" class="edge">
<title>Node2&#45;&gt;Node7</title>
<path fill="none" stroke="#63b8ff" d="M138.58,-219.86C137.13,-206.8 132.81,-181.79 120.29,-165 110.77,-152.24 96.43,-142.08 83.37,-134.71"/>
<polygon fill="#63b8ff" stroke="#63b8ff" points="85.11,-131.67 74.63,-130.11 81.84,-137.87 85.11,-131.67"/>
</g>
<!-- Node9 -->
<g id="node9" class="node">
<title>Node9</title>
<g id="a_node9"><a xlink:href="token_8h.html" target="_top" xlink:title=" ">
<polygon fill="white" stroke="#666666" points="279.79,-184 208.79,-184 208.79,-165 279.79,-165 279.79,-184"/>
<text text-anchor="middle" x="244.29" y="-172" font-family="Helvetica,sans-Serif" font-size="10.00">core/token.h</text>
</a>
</g>
</g>
<!-- Node2&#45;&gt;Node9 -->
<g id="edge9" class="edge">
<title>Node2&#45;&gt;Node9</title>
<path fill="none" stroke="#63b8ff" d="M157.1,-219.51C173.42,-211.27 197.82,-198.96 216.66,-189.45"/>
<polygon fill="#63b8ff" stroke="#63b8ff" points="218.04,-192.67 225.39,-185.04 214.88,-186.42 218.04,-192.67"/>
</g>
<!-- Node17 -->
<g id="node17" class="node">
<title>Node17</title>
<g id="a_node17"><a xlink:title=" ">
<polygon fill="#e0e0e0" stroke="#999999" points="111.29,-184 59.29,-184 59.29,-165 111.29,-165 111.29,-184"/>
<text text-anchor="middle" x="85.29" y="-172" font-family="Helvetica,sans-Serif" font-size="10.00">memory</text>
</a>
</g>
</g>
<!-- Node2&#45;&gt;Node17 -->
<g id="edge22" class="edge">
<title>Node2&#45;&gt;Node17</title>
<path fill="none" stroke="#63b8ff" d="M130.37,-219.75C122.84,-212.35 111.82,-201.54 102.56,-192.45"/>
<polygon fill="#63b8ff" stroke="#63b8ff" points="105.07,-190.01 95.48,-185.5 100.17,-195 105.07,-190.01"/>
</g>
<!-- Node4 -->
<g id="node4" class="node">
<title>Node4</title>
<g id="a_node4"><a xlink:title=" ">
<polygon fill="#e0e0e0" stroke="#999999" points="209.29,-19 165.29,-19 165.29,0 209.29,0 209.29,-19"/>
<text text-anchor="middle" x="187.29" y="-7" font-family="Helvetica,sans-Serif" font-size="10.00">vector</text>
</a>
</g>
</g>
<!-- Node3&#45;&gt;Node4 -->
<g id="edge3" class="edge">
<title>Node3&#45;&gt;Node4</title>
<path fill="none" stroke="#63b8ff" d="M234.62,-54.51C226.55,-47 214.82,-36.1 205.06,-27.03"/>
<polygon fill="#63b8ff" stroke="#63b8ff" points="207.63,-24.63 197.92,-20.39 202.86,-29.76 207.63,-24.63"/>
</g>
<!-- Node5 -->
<g id="node5" class="node">
<title>Node5</title>
<g id="a_node5"><a xlink:title=" ">
<polygon fill="#e0e0e0" stroke="#999999" points="402.79,-19 361.79,-19 361.79,0 402.79,0 402.79,-19"/>
<text text-anchor="middle" x="382.29" y="-7" font-family="Helvetica,sans-Serif" font-size="10.00">string</text>
</a>
</g>
</g>
<!-- Node3&#45;&gt;Node5 -->
<g id="edge4" class="edge">
<title>Node3&#45;&gt;Node5</title>
<path fill="none" stroke="#63b8ff" d="M267.7,-54.51C290.61,-45.71 325.65,-32.25 350.96,-22.53"/>
<polygon fill="#63b8ff" stroke="#63b8ff" points="351.98,-25.89 360.06,-19.04 349.47,-19.35 351.98,-25.89"/>
</g>
<!-- Node6 -->
<g id="node6" class="node">
<title>Node6</title>
<g id="a_node6"><a xlink:title=" ">
<polygon fill="#e0e0e0" stroke="#999999" points="280.79,-19 227.79,-19 227.79,0 280.79,0 280.79,-19"/>
<text text-anchor="middle" x="254.29" y="-7" font-family="Helvetica,sans-Serif" font-size="10.00">complex</text>
</a>
</g>
</g>
<!-- Node3&#45;&gt;Node6 -->
<g id="edge5" class="edge">
<title>Node3&#45;&gt;Node6</title>
<path fill="none" stroke="#63b8ff" d="M245.94,-54.75C247.18,-48.19 248.92,-38.95 250.5,-30.6"/>
<polygon fill="#63b8ff" stroke="#63b8ff" points="253.91,-31.4 252.32,-20.93 247.03,-30.11 253.91,-31.4"/>
</g>
<!-- Node7&#45;&gt;Node3 -->
<g id="edge7" class="edge">
<title>Node7&#45;&gt;Node3</title>
<path fill="none" stroke="#63b8ff" d="M84.86,-109.51C116.81,-100.69 165.74,-87.18 200.96,-77.46"/>
<polygon fill="#63b8ff" stroke="#63b8ff" points="201.71,-80.88 210.42,-74.85 199.85,-74.14 201.71,-80.88"/>
</g>
<!-- Node8 -->
<g id="node8" class="node">
<title>Node8</title>
<g id="a_node8"><a xlink:title=" ">
<polygon fill="#e0e0e0" stroke="#999999" points="75.29,-74 29.29,-74 29.29,-55 75.29,-55 75.29,-74"/>
<text text-anchor="middle" x="52.29" y="-62" font-family="Helvetica,sans-Serif" font-size="10.00">variant</text>
</a>
</g>
</g>
<!-- Node7&#45;&gt;Node8 -->
<g id="edge8" class="edge">
<title>Node7&#45;&gt;Node8</title>
<path fill="none" stroke="#63b8ff" d="M52.29,-109.75C52.29,-103.27 52.29,-94.16 52.29,-85.9"/>
<polygon fill="#63b8ff" stroke="#63b8ff" points="55.79,-85.96 52.29,-75.96 48.79,-85.96 55.79,-85.96"/>
</g>
<!-- Node9&#45;&gt;Node3 -->
<g id="edge12" class="edge">
<title>Node9&#45;&gt;Node3</title>
<path fill="none" stroke="#63b8ff" d="M234.68,-164.69C226.42,-156.41 215.09,-143.18 210.29,-129 204.61,-112.22 215.62,-94.57 226.59,-82.15"/>
<polygon fill="#63b8ff" stroke="#63b8ff" points="228.87,-84.84 233.29,-75.21 223.83,-79.98 228.87,-84.84"/>
</g>
<!-- Node9&#45;&gt;Node7 -->
<g id="edge14" class="edge">
<title>Node9&#45;&gt;Node7</title>
<path fill="none" stroke="#63b8ff" d="M211.72,-164.51C179.76,-155.69 130.84,-142.18 95.61,-132.46"/>
<polygon fill="#63b8ff" stroke="#63b8ff" points="96.73,-129.14 86.16,-129.85 94.87,-135.88 96.73,-129.14"/>
</g>
<!-- Node10 -->
<g id="node10" class="node">
<title>Node10</title>
<g id="a_node10"><a xlink:href="token__type_8h.html" target="_top" xlink:title=" ">
<polygon fill="white" stroke="#666666" points="503.79,-74 430.79,-74 430.79,-55 503.79,-55 503.79,-74"/>
<text text-anchor="middle" x="467.29" y="-62" font-family="Helvetica,sans-Serif" font-size="10.00">token_type.h</text>
</a>
</g>
</g>
<!-- Node9&#45;&gt;Node10 -->
<g id="edge10" class="edge">
<title>Node9&#45;&gt;Node10</title>
<path fill="none" stroke="#63b8ff" d="M280.15,-169.95C331.69,-164.16 423.19,-151.03 447.29,-129 459.43,-117.9 464.25,-99.52 466.14,-85.38"/>
<polygon fill="#63b8ff" stroke="#63b8ff" points="469.59,-86.12 467.02,-75.84 462.62,-85.48 469.59,-86.12"/>
</g>
<!-- Node12 -->
<g id="node12" class="node">
<title>Node12</title>
<g id="a_node12"><a xlink:title=" ">
<polygon fill="#e0e0e0" stroke="#999999" points="578.79,-129 495.79,-129 495.79,-110 578.79,-110 578.79,-129"/>
<text text-anchor="middle" x="537.29" y="-117" font-family="Helvetica,sans-Serif" font-size="10.00">uni_algo/conv.h</text>
</a>
</g>
</g>
<!-- Node9&#45;&gt;Node12 -->
<g id="edge13" class="edge">
<title>Node9&#45;&gt;Node12</title>
<path fill="none" stroke="#63b8ff" d="M280.22,-167C331.32,-157.76 425.35,-140.75 484.42,-130.06"/>
<polygon fill="#63b8ff" stroke="#63b8ff" points="484.68,-133.57 493.9,-128.35 483.43,-126.68 484.68,-133.57"/>
</g>
<!-- Node13 -->
<g id="node13" class="node">
<title>Node13</title>
<g id="a_node13"><a xlink:href="conversion_8h.html" target="_top" xlink:title=" ">
<polygon fill="white" stroke="#666666" points="438.79,-129 325.79,-129 325.79,-110 438.79,-110 438.79,-129"/>
<text text-anchor="middle" x="382.29" y="-117" font-family="Helvetica,sans-Serif" font-size="10.00">interface/conversion.h</text>
</a>
</g>
</g>
<!-- Node9&#45;&gt;Node13 -->
<g id="edge15" class="edge">
<title>Node9&#45;&gt;Node13</title>
<path fill="none" stroke="#63b8ff" d="M267.7,-164.51C289.94,-155.97 323.61,-143.03 348.71,-133.4"/>
<polygon fill="#63b8ff" stroke="#63b8ff" points="349.73,-136.75 357.81,-129.9 347.22,-130.22 349.73,-136.75"/>
</g>
<!-- Node14 -->
<g id="node14" class="node">
<title>Node14</title>
<g id="a_node14"><a xlink:title=" ">
<polygon fill="#e0e0e0" stroke="#999999" points="637.29,-129 597.29,-129 597.29,-110 637.29,-110 637.29,-129"/>
<text text-anchor="middle" x="617.29" y="-117" font-family="Helvetica,sans-Serif" font-size="10.00">utility</text>
</a>
</g>
</g>
<!-- Node9&#45;&gt;Node14 -->
<g id="edge19" class="edge">
<title>Node9&#45;&gt;Node14</title>
<path fill="none" stroke="#63b8ff" d="M280.25,-170.71C341.23,-165.59 468.89,-153.13 585.54,-129.28"/>
<polygon fill="#63b8ff" stroke="#63b8ff" points="586.24,-132.71 595.31,-127.25 584.81,-125.86 586.24,-132.71"/>
</g>
<!-- Node15 -->
<g id="node15" class="node">
<title>Node15</title>
<g id="a_node15"><a xlink:title=" ">
<polygon fill="#e0e0e0" stroke="#999999" points="269.29,-129 219.29,-129 219.29,-110 269.29,-110 269.29,-129"/>
<text text-anchor="middle" x="244.29" y="-117" font-family="Helvetica,sans-Serif" font-size="10.00">optional</text>
</a>
</g>
</g>
<!-- Node9&#45;&gt;Node15 -->
<g id="edge20" class="edge">
<title>Node9&#45;&gt;Node15</title>
<path fill="none" stroke="#63b8ff" d="M244.29,-164.75C244.29,-158.27 244.29,-149.16 244.29,-140.9"/>
<polygon fill="#63b8ff" stroke="#63b8ff" points="247.79,-140.96 244.29,-130.96 240.79,-140.96 247.79,-140.96"/>
</g>
<!-- Node16 -->
<g id="node16" class="node">
<title>Node16</title>
<g id="a_node16"><a xlink:href="position_8h.html" target="_top" xlink:title=" ">
<polygon fill="white" stroke="#666666" points="162.79,-129 103.79,-129 103.79,-110 162.79,-110 162.79,-129"/>
<text text-anchor="middle" x="133.29" y="-117" font-family="Helvetica,sans-Serif" font-size="10.00">position.h</text>
</a>
</g>
</g>
<!-- Node9&#45;&gt;Node16 -->
<g id="edge21" class="edge">
<title>Node9&#45;&gt;Node16</title>
<path fill="none" stroke="#63b8ff" d="M225.46,-164.51C208.13,-156.24 182.18,-143.84 162.22,-134.31"/>
<polygon fill="#63b8ff" stroke="#63b8ff" points="163.74,-131.16 153.21,-130.01 160.72,-137.48 163.74,-131.16"/>
</g>
<!-- Node11 -->
<g id="node11" class="node">
<title>Node11</title>
<g id="a_node11"><a xlink:title=" ">
<polygon fill="#e0e0e0" stroke="#999999" points="647.29,-19 593.29,-19 593.29,0 647.29,0 647.29,-19"/>
<text text-anchor="middle" x="620.29" y="-7" font-family="Helvetica,sans-Serif" font-size="10.00">iostream</text>
</a>
</g>
</g>
<!-- Node10&#45;&gt;Node11 -->
<g id="edge11" class="edge">
<title>Node10&#45;&gt;Node11</title>
<path fill="none" stroke="#63b8ff" d="M493.24,-54.51C518.16,-45.88 556.01,-32.76 583.93,-23.1"/>
<polygon fill="#63b8ff" stroke="#63b8ff" points="584.73,-26.52 593.03,-19.94 582.44,-19.91 584.73,-26.52"/>
</g>
<!-- Node13&#45;&gt;Node3 -->
<g id="edge17" class="edge">
<title>Node13&#45;&gt;Node3</title>
<path fill="none" stroke="#63b8ff" d="M358.88,-109.51C336.64,-100.97 302.96,-88.03 277.87,-78.4"/>
<polygon fill="#63b8ff" stroke="#63b8ff" points="279.36,-75.22 268.77,-74.9 276.85,-81.75 279.36,-75.22"/>
</g>
<!-- Node13&#45;&gt;Node5 -->
<g id="edge16" class="edge">
<title>Node13&#45;&gt;Node5</title>
<path fill="none" stroke="#63b8ff" d="M382.29,-109.66C382.29,-92.57 382.29,-54.61 382.29,-30.92"/>
<polygon fill="#63b8ff" stroke="#63b8ff" points="385.79,-30.97 382.29,-20.97 378.79,-30.97 385.79,-30.97"/>
</g>
<!-- Node13&#45;&gt;Node10 -->
<g id="edge18" class="edge">
<title>Node13&#45;&gt;Node10</title>
<path fill="none" stroke="#63b8ff" d="M396.71,-109.51C409.48,-101.54 428.39,-89.75 443.42,-80.38"/>
<polygon fill="#63b8ff" stroke="#63b8ff" points="445.16,-83.42 451.8,-75.16 441.46,-77.48 445.16,-83.42"/>
</g>
<!-- Node18&#45;&gt;Node3 -->
<g id="edge29" class="edge">
<title>Node18&#45;&gt;Node3</title>
<path fill="none" stroke="#63b8ff" d="M584.47,-171.01C516.68,-165.49 363.54,-150.94 316.29,-129 293.01,-118.19 271.67,-97.4 258.38,-82.55"/>
<polygon fill="#63b8ff" stroke="#63b8ff" points="261.36,-80.65 252.18,-75.36 256.06,-85.22 261.36,-80.65"/>
</g>
<!-- Node18&#45;&gt;Node11 -->
<g id="edge24" class="edge">
<title>Node18&#45;&gt;Node11</title>
<path fill="none" stroke="#63b8ff" d="M650.11,-173.12C682.54,-170.78 730.62,-161.57 754.29,-129 787.28,-83.59 706.9,-43.23 656.78,-23.43"/>
<polygon fill="#63b8ff" stroke="#63b8ff" points="658.3,-20.26 647.71,-19.95 655.79,-26.8 658.3,-20.26"/>
</g>
<!-- Node18&#45;&gt;Node12 -->
<g id="edge30" class="edge">
<title>Node18&#45;&gt;Node12</title>
<path fill="none" stroke="#63b8ff" d="M603.72,-164.51C591.81,-156.62 574.24,-144.98 560.16,-135.65"/>
<polygon fill="#63b8ff" stroke="#63b8ff" points="562.19,-132.8 551.92,-130.19 558.32,-138.63 562.19,-132.8"/>
</g>
<!-- Node18&#45;&gt;Node14 -->
<g id="edge26" class="edge">
<title>Node18&#45;&gt;Node14</title>
<path fill="none" stroke="#63b8ff" d="M617.29,-164.75C617.29,-158.27 617.29,-149.16 617.29,-140.9"/>
<polygon fill="#63b8ff" stroke="#63b8ff" points="620.79,-140.96 617.29,-130.96 613.79,-140.96 620.79,-140.96"/>
</g>
<!-- Node19 -->
<g id="node19" class="node">
<title>Node19</title>
<g id="a_node19"><a xlink:title=" ">
<polygon fill="#e0e0e0" stroke="#999999" points="745.29,-129 693.29,-129 693.29,-110 745.29,-110 745.29,-129"/>
<text text-anchor="middle" x="719.29" y="-117" font-family="Helvetica,sans-Serif" font-size="10.00">sstream</text>
</a>
</g>
</g>
<!-- Node18&#45;&gt;Node19 -->
<g id="edge25" class="edge">
<title>Node18&#45;&gt;Node19</title>
<path fill="none" stroke="#63b8ff" d="M634.59,-164.51C650.37,-156.31 673.93,-144.07 692.2,-134.58"/>
<polygon fill="#63b8ff" stroke="#63b8ff" points="693.64,-137.77 700.9,-130.06 690.41,-131.56 693.64,-137.77"/>
</g>
<!-- Node20 -->
<g id="node20" class="node">
<title>Node20</title>
<g id="a_node20"><a xlink:href="error__type_8h.html" target="_top" xlink:title=" ">
<polygon fill="white" stroke="#666666" points="645.29,-74 577.29,-74 577.29,-55 645.29,-55 645.29,-74"/>
<text text-anchor="middle" x="611.29" y="-62" font-family="Helvetica,sans-Serif" font-size="10.00">error_type.h</text>
</a>
</g>
</g>
<!-- Node18&#45;&gt;Node20 -->
<g id="edge27" class="edge">
<title>Node18&#45;&gt;Node20</title>
<path fill="none" stroke="#63b8ff" d="M626.06,-164.68C636.94,-152.61 653.27,-130.16 646.29,-110 642.77,-99.83 635.86,-90.22 629.1,-82.55"/>
<polygon fill="#63b8ff" stroke="#63b8ff" points="631.66,-80.16 622.22,-75.35 626.59,-84.99 631.66,-80.16"/>
</g>
<!-- Node20&#45;&gt;Node5 -->
<g id="edge28" class="edge">
<title>Node20&#45;&gt;Node5</title>
<path fill="none" stroke="#63b8ff" d="M577.01,-55.57C532.98,-45.38 457.17,-27.83 414.28,-17.9"/>
<polygon fill="#63b8ff" stroke="#63b8ff" points="415.12,-14.51 404.59,-15.66 413.54,-21.33 415.12,-14.51"/>
</g>
</g>
</svg>
