<?xml version="1.0" encoding="UTF-8" standalone="no"?>
<!DOCTYPE svg PUBLIC "-//W3C//DTD SVG 1.1//EN"
 "http://www.w3.org/Graphics/SVG/1.1/DTD/svg11.dtd">
<!-- Generated by graphviz version 7.1.0 (20230121.1956)
 -->
<!-- Title: src/core/evaluation/operations/operation.cpp Pages: 1 -->
<svg width="784pt" height="313pt"
 viewBox="0.00 0.00 784.49 313.00" xmlns="http://www.w3.org/2000/svg" xmlns:xlink="http://www.w3.org/1999/xlink">
<g id="graph0" class="graph" transform="scale(1 1) rotate(0) translate(4 309)">
<title>src/core/evaluation/operations/operation.cpp</title>
<!-- Node1 -->
<g id="node1" class="node">
<title>Node1</title>
<g id="a_node1"><a xlink:title=" ">
<polygon fill="#999999" stroke="#666666" points="232.29,-305 106.29,-305 106.29,-275 232.29,-275 232.29,-305"/>
<text text-anchor="start" x="114.29" y="-293" font-family="Helvetica,sans-Serif" font-size="10.00">src/core/evaluation</text>
<text text-anchor="middle" x="169.29" y="-282" font-family="Helvetica,sans-Serif" font-size="10.00">/operations/operation.cpp</text>
</a>
</g>
</g>
<!-- Node2 -->
<g id="node2" class="node">
<title>Node2</title>
<g id="a_node2"><a xlink:href="operation_8h.html" target="_top" xlink:title=" ">
<polygon fill="white" stroke="#666666" points="171.79,-239 106.79,-239 106.79,-220 171.79,-220 171.79,-239"/>
<text text-anchor="middle" x="139.29" y="-227" font-family="Helvetica,sans-Serif" font-size="10.00">operation.h</text>
</a>
</g>
</g>
<!-- Node1&#45;&gt;Node2 -->
<g id="edge1" class="edge">
<title>Node1&#45;&gt;Node2</title>
<path fill="none" stroke="#63b8ff" d="M161.87,-274.54C157.96,-266.91 153.11,-257.46 148.91,-249.27"/>
<polygon fill="#63b8ff" stroke="#63b8ff" points="152.11,-247.82 144.43,-240.52 145.88,-251.02 152.11,-247.82"/>
</g>
<!-- Node18 -->
<g id="node18" class="node">
<title>Node18</title>
<g id="a_node18"><a xlink:href="error_8h.html" target="_top" xlink:title=" ">
<polygon fill="white" stroke="#666666" points="663.79,-184 598.79,-184 598.79,-165 663.79,-165 663.79,-184"/>
<text text-anchor="middle" x="631.29" y="-172" font-family="Helvetica,sans-Serif" font-size="10.00">core/error.h</text>
</a>
</g>
</g>
<!-- Node1&#45;&gt;Node18 -->
<g id="edge23" class="edge">
<title>Node1&#45;&gt;Node18</title>
<path fill="none" stroke="#63b8ff" d="M228.27,-274.51C322.25,-251.42 503.86,-206.81 587.35,-186.29"/>
<polygon fill="#63b8ff" stroke="#63b8ff" points="588.12,-189.71 596.99,-183.93 586.45,-182.91 588.12,-189.71"/>
</g>
<!-- Node3 -->
<g id="node3" class="node">
<title>Node3</title>
<g id="a_node3"><a xlink:href="datatypes_8h.html" target="_top" xlink:title=" ">
<polygon fill="white" stroke="#666666" points="288.79,-74 199.79,-74 199.79,-55 288.79,-55 288.79,-74"/>
<text text-anchor="middle" x="244.29" y="-62" font-family="Helvetica,sans-Serif" font-size="10.00">core/datatypes.h</text>
</a>
</g>
</g>
<!-- Node2&#45;&gt;Node3 -->
<g id="edge2" class="edge">
<title>Node2&#45;&gt;Node3</title>
<path fill="none" stroke="#63b8ff" d="M114.92,-219.62C67.59,-201.07 -28.9,-156.09 9.29,-110 31.58,-83.1 126.1,-72.33 188.27,-68.12"/>
<polygon fill="#63b8ff" stroke="#63b8ff" points="188.21,-71.63 197.96,-67.5 187.76,-64.64 188.21,-71.63"/>
</g>
<!-- Node7 -->
<g id="node7" class="node">
<title>Node7</title>
<g id="a_node7"><a xlink:href="array_8h.html" target="_top" xlink:title=" ">
<polygon fill="white" stroke="#666666" points="85.79,-129 18.79,-129 18.79,-110 85.79,-110 85.79,-129"/>
<text text-anchor="middle" x="52.29" y="-117" font-family="Helvetica,sans-Serif" font-size="10.00">core/array.h</text>
</a>
</g>
</g>
<!-- Node2&#45;&gt;Node7 -->
<g id="edge6" class="edge">
<title>Node2&#45;&gt;Node7</title>
<path fill="none" stroke="#63b8ff" d="M138.58,-219.86C137.13,-206.8 132.81,-181.79 120.29,-165 110.77,-152.24 96.43,-142.08 83.37,-134.71"/>
<polygon fill="#63b8ff" stroke="#63b8ff" points="85.11,-131.67 74.63,-130.11 81.84,-137.87 85.11,-131.67"/>
</g>
<!-- Node9 -->
<g id="node9" class="node">
<title>Node9</title>
<g id="a_node9"><a xlink:href="token_8h.html" target="_top" xlink:title=" ">
<polygon fill="white" stroke="#666666" points="279.79,-184 208.79,-184 208.79,-165 279.79,-165 279.79,-184"/>
<text text-anchor="middle" x="244.29" y="-172" font-family="Helvetica,sans-Serif" font-size="10.00">core/token.h</text>
</a>
</g>
</g>
<!-- Node2&#45;&gt;Node9 -->
<g id="edge9" class="edge">
<title>Node2&#45;&gt;Node9</title>
<path fill="none" stroke="#63b8ff" d="M157.1,-219.51C173.42,-211.27 197.82,-198.96 216.66,-189.45"/>
<polygon fill="#63b8ff" stroke="#63b8ff" points="218.04,-192.67 225.39,-185.04 214.88,-186.42 218.04,-192.67"/>
</g>
<!-- Node17 -->
<g id="node17" class="node">
<title>Node17</title>
<g id="a_node17"><a xlink:title=" ">
<polygon fill="#e0e0e0" stroke="#999999" points="111.29,-184 59.29,-184 59.29,-165 111.29,-165 111.29,-184"/>
<text text-anchor="middle" x="85.29" y="-172" font-family="Helvetica,sans-Serif" font-size="10.00">memory</text>
</a>
</g>
</g>
<!-- Node2&#45;&gt;Node17 -->
<g id="edge22" class="edge">
<title>Node2&#45;&gt;Node17</title>
<path fill="none" stroke="#63b8ff" d="M130.37,-219.75C122.84,-212.35 111.82,-201.54 102.56,-192.45"/>
<polygon fill="#63b8ff" stroke="#63b8ff" points="105.07,-190.01 95.48,-185.5 100.17,-195 105.07,-190.01"/>
</g>
<!-- Node4 -->
<g id="node4" class="node">
<title>Node4</title>
<g id="a_node4"><a xlink:title=" ">
<polygon fill="#e0e0e0" stroke="#999999" points="212.29,-19 168.29,-19 168.29,0 212.29,0 212.29,-19"/>
<text text-anchor="middle" x="190.29" y="-7" font-family="Helvetica,sans-Serif" font-size="10.00">vector</text>
</a>
</g>
</g>
<!-- Node3&#45;&gt;Node4 -->
<g id="edge3" class="edge">
<title>Node3&#45;&gt;Node4</title>
<path fill="none" stroke="#63b8ff" d="M235.37,-54.75C227.84,-47.35 216.82,-36.54 207.56,-27.45"/>
<polygon fill="#63b8ff" stroke="#63b8ff" points="210.07,-25.01 200.48,-20.5 205.17,-30 210.07,-25.01"/>
</g>
<!-- Node5 -->
<g id="node5" class="node">
<title>Node5</title>
<g id="a_node5"><a xlink:title=" ">
<polygon fill="#e0e0e0" stroke="#999999" points="409.79,-19 368.79,-19 368.79,0 409.79,0 409.79,-19"/>
<text text-anchor="middle" x="389.29" y="-7" font-family="Helvetica,sans-Serif" font-size="10.00">string</text>
</a>
</g>
</g>
<!-- Node3&#45;&gt;Node5 -->
<g id="edge4" class="edge">
<title>Node3&#45;&gt;Node5</title>
<path fill="none" stroke="#63b8ff" d="M268.89,-54.51C293.35,-45.57 330.98,-31.81 357.65,-22.06"/>
<polygon fill="#63b8ff" stroke="#63b8ff" points="358.73,-25.4 366.92,-18.68 356.33,-18.82 358.73,-25.4"/>
</g>
<!-- Node6 -->
<g id="node6" class="node">
<title>Node6</title>
<g id="a_node6"><a xlink:title=" ">
<polygon fill="#e0e0e0" stroke="#999999" points="283.79,-19 230.79,-19 230.79,0 283.79,0 283.79,-19"/>
<text text-anchor="middle" x="257.29" y="-7" font-family="Helvetica,sans-Serif" font-size="10.00">complex</text>
</a>
</g>
</g>
<!-- Node3&#45;&gt;Node6 -->
<g id="edge5" class="edge">
<title>Node3&#45;&gt;Node6</title>
<path fill="none" stroke="#63b8ff" d="M246.44,-54.75C248.04,-48.19 250.31,-38.95 252.36,-30.6"/>
<polygon fill="#63b8ff" stroke="#63b8ff" points="255.75,-31.46 254.74,-20.91 248.95,-29.79 255.75,-31.46"/>
</g>
<!-- Node7&#45;&gt;Node3 -->
<g id="edge7" class="edge">
<title>Node7&#45;&gt;Node3</title>
<path fill="none" stroke="#63b8ff" d="M84.86,-109.51C116.81,-100.69 165.74,-87.18 200.96,-77.46"/>
<polygon fill="#63b8ff" stroke="#63b8ff" points="201.71,-80.88 210.42,-74.85 199.85,-74.14 201.71,-80.88"/>
</g>
<!-- Node8 -->
<g id="node8" class="node">
<title>Node8</title>
<g id="a_node8"><a xlink:title=" ">
<polygon fill="#e0e0e0" stroke="#999999" points="75.29,-74 29.29,-74 29.29,-55 75.29,-55 75.29,-74"/>
<text text-anchor="middle" x="52.29" y="-62" font-family="Helvetica,sans-Serif" font-size="10.00">variant</text>
</a>
</g>
</g>
<!-- Node7&#45;&gt;Node8 -->
<g id="edge8" class="edge">
<title>Node7&#45;&gt;Node8</title>
<path fill="none" stroke="#63b8ff" d="M52.29,-109.75C52.29,-103.27 52.29,-94.16 52.29,-85.9"/>
<polygon fill="#63b8ff" stroke="#63b8ff" points="55.79,-85.96 52.29,-75.96 48.79,-85.96 55.79,-85.96"/>
</g>
<!-- Node9&#45;&gt;Node3 -->
<g id="edge12" class="edge">
<title>Node9&#45;&gt;Node3</title>
<path fill="none" stroke="#63b8ff" d="M234.34,-164.88C221.95,-153.04 203.24,-130.85 210.29,-110 213.7,-99.92 220.41,-90.32 226.98,-82.64"/>
<polygon fill="#63b8ff" stroke="#63b8ff" points="229.43,-85.14 233.65,-75.42 224.29,-80.38 229.43,-85.14"/>
</g>
<!-- Node9&#45;&gt;Node7 -->
<g id="edge14" class="edge">
<title>Node9&#45;&gt;Node7</title>
<path fill="none" stroke="#63b8ff" d="M211.72,-164.51C179.76,-155.69 130.84,-142.18 95.61,-132.46"/>
<polygon fill="#63b8ff" stroke="#63b8ff" points="96.73,-129.14 86.16,-129.85 94.87,-135.88 96.73,-129.14"/>
</g>
<!-- Node10 -->
<g id="node10" class="node">
<title>Node10</title>
<g id="a_node10"><a xlink:href="token__type_8h.html" target="_top" xlink:title=" ">
<polygon fill="white" stroke="#666666" points="517.79,-74 444.79,-74 444.79,-55 517.79,-55 517.79,-74"/>
<text text-anchor="middle" x="481.29" y="-62" font-family="Helvetica,sans-Serif" font-size="10.00">token_type.h</text>
</a>
</g>
</g>
<!-- Node9&#45;&gt;Node10 -->
<g id="edge10" class="edge">
<title>Node9&#45;&gt;Node10</title>
<path fill="none" stroke="#63b8ff" d="M280.1,-170.61C334.92,-165.48 436.06,-152.98 462.29,-129 474.37,-117.95 478.89,-99.56 480.53,-85.41"/>
<polygon fill="#63b8ff" stroke="#63b8ff" points="483.99,-86.09 481.22,-75.86 477,-85.58 483.99,-86.09"/>
</g>
<!-- Node12 -->
<g id="node12" class="node">
<title>Node12</title>
<g id="a_node12"><a xlink:title=" ">
<polygon fill="#e0e0e0" stroke="#999999" points="592.79,-129 509.79,-129 509.79,-110 592.79,-110 592.79,-129"/>
<text text-anchor="middle" x="551.29" y="-117" font-family="Helvetica,sans-Serif" font-size="10.00">uni_algo/conv.h</text>
</a>
</g>
</g>
<!-- Node9&#45;&gt;Node12 -->
<g id="edge13" class="edge">
<title>Node9&#45;&gt;Node12</title>
<path fill="none" stroke="#63b8ff" d="M280.11,-167.32C333.86,-158.04 435.73,-140.45 498.16,-129.67"/>
<polygon fill="#63b8ff" stroke="#63b8ff" points="498.59,-133.15 507.85,-128 497.4,-126.25 498.59,-133.15"/>
</g>
<!-- Node13 -->
<g id="node13" class="node">
<title>Node13</title>
<g id="a_node13"><a xlink:href="conversion_8h.html" target="_top" xlink:title=" ">
<polygon fill="white" stroke="#666666" points="453.29,-129 325.29,-129 325.29,-110 453.29,-110 453.29,-129"/>
<text text-anchor="middle" x="389.29" y="-117" font-family="Helvetica,sans-Serif" font-size="10.00">core/helpers/conversion.h</text>
</a>
</g>
</g>
<!-- Node9&#45;&gt;Node13 -->
<g id="edge15" class="edge">
<title>Node9&#45;&gt;Node13</title>
<path fill="none" stroke="#63b8ff" d="M268.89,-164.51C292.36,-155.93 327.96,-142.92 354.36,-133.27"/>
<polygon fill="#63b8ff" stroke="#63b8ff" points="355.44,-136.6 363.63,-129.88 353.04,-130.02 355.44,-136.6"/>
</g>
<!-- Node14 -->
<g id="node14" class="node">
<title>Node14</title>
<g id="a_node14"><a xlink:title=" ">
<polygon fill="#e0e0e0" stroke="#999999" points="651.29,-129 611.29,-129 611.29,-110 651.29,-110 651.29,-129"/>
<text text-anchor="middle" x="631.29" y="-117" font-family="Helvetica,sans-Serif" font-size="10.00">utility</text>
</a>
</g>
</g>
<!-- Node9&#45;&gt;Node14 -->
<g id="edge19" class="edge">
<title>Node9&#45;&gt;Node14</title>
<path fill="none" stroke="#63b8ff" d="M280.17,-170.97C343.11,-166.11 477.58,-153.9 599.77,-129.22"/>
<polygon fill="#63b8ff" stroke="#63b8ff" points="600.23,-132.7 609.32,-127.26 598.81,-125.84 600.23,-132.7"/>
</g>
<!-- Node15 -->
<g id="node15" class="node">
<title>Node15</title>
<g id="a_node15"><a xlink:title=" ">
<polygon fill="#e0e0e0" stroke="#999999" points="269.29,-129 219.29,-129 219.29,-110 269.29,-110 269.29,-129"/>
<text text-anchor="middle" x="244.29" y="-117" font-family="Helvetica,sans-Serif" font-size="10.00">optional</text>
</a>
</g>
</g>
<!-- Node9&#45;&gt;Node15 -->
<g id="edge20" class="edge">
<title>Node9&#45;&gt;Node15</title>
<path fill="none" stroke="#63b8ff" d="M244.29,-164.75C244.29,-158.27 244.29,-149.16 244.29,-140.9"/>
<polygon fill="#63b8ff" stroke="#63b8ff" points="247.79,-140.96 244.29,-130.96 240.79,-140.96 247.79,-140.96"/>
</g>
<!-- Node16 -->
<g id="node16" class="node">
<title>Node16</title>
<g id="a_node16"><a xlink:href="position_8h.html" target="_top" xlink:title=" ">
<polygon fill="white" stroke="#666666" points="162.79,-129 103.79,-129 103.79,-110 162.79,-110 162.79,-129"/>
<text text-anchor="middle" x="133.29" y="-117" font-family="Helvetica,sans-Serif" font-size="10.00">position.h</text>
</a>
</g>
</g>
<!-- Node9&#45;&gt;Node16 -->
<g id="edge21" class="edge">
<title>Node9&#45;&gt;Node16</title>
<path fill="none" stroke="#63b8ff" d="M225.46,-164.51C208.13,-156.24 182.18,-143.84 162.22,-134.31"/>
<polygon fill="#63b8ff" stroke="#63b8ff" points="163.74,-131.16 153.21,-130.01 160.72,-137.48 163.74,-131.16"/>
</g>
<!-- Node11 -->
<g id="node11" class="node">
<title>Node11</title>
<g id="a_node11"><a xlink:title=" ">
<polygon fill="#e0e0e0" stroke="#999999" points="661.29,-19 607.29,-19 607.29,0 661.29,0 661.29,-19"/>
<text text-anchor="middle" x="634.29" y="-7" font-family="Helvetica,sans-Serif" font-size="10.00">iostream</text>
</a>
</g>
</g>
<!-- Node10&#45;&gt;Node11 -->
<g id="edge11" class="edge">
<title>Node10&#45;&gt;Node11</title>
<path fill="none" stroke="#63b8ff" d="M507.24,-54.51C532.16,-45.88 570.01,-32.76 597.93,-23.1"/>
<polygon fill="#63b8ff" stroke="#63b8ff" points="598.73,-26.52 607.03,-19.94 596.44,-19.91 598.73,-26.52"/>
</g>
<!-- Node13&#45;&gt;Node3 -->
<g id="edge17" class="edge">
<title>Node13&#45;&gt;Node3</title>
<path fill="none" stroke="#63b8ff" d="M364.69,-109.51C341.22,-100.93 305.62,-87.92 279.22,-78.27"/>
<polygon fill="#63b8ff" stroke="#63b8ff" points="280.54,-75.02 269.94,-74.88 278.14,-81.6 280.54,-75.02"/>
</g>
<!-- Node13&#45;&gt;Node5 -->
<g id="edge16" class="edge">
<title>Node13&#45;&gt;Node5</title>
<path fill="none" stroke="#63b8ff" d="M389.29,-109.66C389.29,-92.57 389.29,-54.61 389.29,-30.92"/>
<polygon fill="#63b8ff" stroke="#63b8ff" points="392.79,-30.97 389.29,-20.97 385.79,-30.97 392.79,-30.97"/>
</g>
<!-- Node13&#45;&gt;Node10 -->
<g id="edge18" class="edge">
<title>Node13&#45;&gt;Node10</title>
<path fill="none" stroke="#63b8ff" d="M404.9,-109.51C418.99,-101.39 439.98,-89.3 456.39,-79.85"/>
<polygon fill="#63b8ff" stroke="#63b8ff" points="457.68,-83.14 464.6,-75.11 454.19,-77.07 457.68,-83.14"/>
</g>
<!-- Node18&#45;&gt;Node3 -->
<g id="edge29" class="edge">
<title>Node18&#45;&gt;Node3</title>
<path fill="none" stroke="#63b8ff" d="M598.55,-171.26C528.45,-166.09 366.14,-151.96 316.29,-129 292.97,-118.26 271.65,-97.46 258.36,-82.59"/>
<polygon fill="#63b8ff" stroke="#63b8ff" points="261.34,-80.69 252.17,-75.39 256.03,-85.25 261.34,-80.69"/>
</g>
<!-- Node18&#45;&gt;Node11 -->
<g id="edge24" class="edge">
<title>Node18&#45;&gt;Node11</title>
<path fill="none" stroke="#63b8ff" d="M664.11,-173.12C696.54,-170.78 744.62,-161.57 768.29,-129 801.28,-83.59 720.9,-43.23 670.78,-23.43"/>
<polygon fill="#63b8ff" stroke="#63b8ff" points="672.3,-20.26 661.71,-19.95 669.79,-26.8 672.3,-20.26"/>
</g>
<!-- Node18&#45;&gt;Node12 -->
<g id="edge30" class="edge">
<title>Node18&#45;&gt;Node12</title>
<path fill="none" stroke="#63b8ff" d="M617.72,-164.51C605.81,-156.62 588.24,-144.98 574.16,-135.65"/>
<polygon fill="#63b8ff" stroke="#63b8ff" points="576.19,-132.8 565.92,-130.19 572.32,-138.63 576.19,-132.8"/>
</g>
<!-- Node18&#45;&gt;Node14 -->
<g id="edge26" class="edge">
<title>Node18&#45;&gt;Node14</title>
<path fill="none" stroke="#63b8ff" d="M631.29,-164.75C631.29,-158.27 631.29,-149.16 631.29,-140.9"/>
<polygon fill="#63b8ff" stroke="#63b8ff" points="634.79,-140.96 631.29,-130.96 627.79,-140.96 634.79,-140.96"/>
</g>
<!-- Node19 -->
<g id="node19" class="node">
<title>Node19</title>
<g id="a_node19"><a xlink:title=" ">
<polygon fill="#e0e0e0" stroke="#999999" points="759.29,-129 707.29,-129 707.29,-110 759.29,-110 759.29,-129"/>
<text text-anchor="middle" x="733.29" y="-117" font-family="Helvetica,sans-Serif" font-size="10.00">sstream</text>
</a>
</g>
</g>
<!-- Node18&#45;&gt;Node19 -->
<g id="edge25" class="edge">
<title>Node18&#45;&gt;Node19</title>
<path fill="none" stroke="#63b8ff" d="M648.59,-164.51C664.37,-156.31 687.93,-144.07 706.2,-134.58"/>
<polygon fill="#63b8ff" stroke="#63b8ff" points="707.64,-137.77 714.9,-130.06 704.41,-131.56 707.64,-137.77"/>
</g>
<!-- Node20 -->
<g id="node20" class="node">
<title>Node20</title>
<g id="a_node20"><a xlink:href="error__type_8h.html" target="_top" xlink:title=" ">
<polygon fill="white" stroke="#666666" points="659.29,-74 591.29,-74 591.29,-55 659.29,-55 659.29,-74"/>
<text text-anchor="middle" x="625.29" y="-62" font-family="Helvetica,sans-Serif" font-size="10.00">error_type.h</text>
</a>
</g>
</g>
<!-- Node18&#45;&gt;Node20 -->
<g id="edge27" class="edge">
<title>Node18&#45;&gt;Node20</title>
<path fill="none" stroke="#63b8ff" d="M640.06,-164.68C650.94,-152.61 667.27,-130.16 660.29,-110 656.77,-99.83 649.86,-90.22 643.1,-82.55"/>
<polygon fill="#63b8ff" stroke="#63b8ff" points="645.66,-80.16 636.22,-75.35 640.59,-84.99 645.66,-80.16"/>
</g>
<!-- Node20&#45;&gt;Node5 -->
<g id="edge28" class="edge">
<title>Node20&#45;&gt;Node5</title>
<path fill="none" stroke="#63b8ff" d="M590.97,-55.79C545.32,-45.54 465.25,-27.56 420.97,-17.61"/>
<polygon fill="#63b8ff" stroke="#63b8ff" points="422.01,-14.26 411.48,-15.48 420.47,-21.09 422.01,-14.26"/>
</g>
</g>
</svg>
