<?xml version="1.0" encoding="UTF-8" standalone="no"?>
<!DOCTYPE svg PUBLIC "-//W3C//DTD SVG 1.1//EN"
 "http://www.w3.org/Graphics/SVG/1.1/DTD/svg11.dtd">
<!-- Generated by graphviz version 7.1.0 (20230121.1956)
 -->
<!-- Title: src/core/evaluation/operations/operation.h Pages: 1 -->
<svg width="1427pt" height="456pt"
 viewBox="0.00 0.00 1427.14 456.00" xmlns="http://www.w3.org/2000/svg" xmlns:xlink="http://www.w3.org/1999/xlink">
<g id="graph0" class="graph" transform="scale(1 1) rotate(0) translate(4 452)">
<title>src/core/evaluation/operations/operation.h</title>
<!-- Node1 -->
<g id="node1" class="node">
<title>Node1</title>
<g id="a_node1"><a xlink:title=" ">
<polygon fill="#999999" stroke="#666666" points="1077.5,-448 961.5,-448 961.5,-418 1077.5,-418 1077.5,-448"/>
<text text-anchor="start" x="969.5" y="-436" font-family="Helvetica,sans-Serif" font-size="10.00">src/core/evaluation</text>
<text text-anchor="middle" x="1019.5" y="-425" font-family="Helvetica,sans-Serif" font-size="10.00">/operations/operation.h</text>
</a>
</g>
</g>
<!-- Node2 -->
<g id="node2" class="node">
<title>Node2</title>
<g id="a_node2"><a xlink:href="ast_8h.html" target="_top" xlink:title=" ">
<polygon fill="white" stroke="#666666" points="824,-382 725,-382 725,-352 824,-352 824,-382"/>
<text text-anchor="start" x="733" y="-370" font-family="Helvetica,sans-Serif" font-size="10.00">src/core/evaluation</text>
<text text-anchor="middle" x="774.5" y="-359" font-family="Helvetica,sans-Serif" font-size="10.00">/ast.h</text>
</a>
</g>
</g>
<!-- Node1&#45;&gt;Node2 -->
<g id="edge1" class="edge">
<title>Node1&#45;&gt;Node2</title>
<path fill="none" stroke="#63b8ff" d="M953.31,-414.71C912.64,-404.08 861.38,-390.69 824.18,-380.98"/>
<polygon fill="#63b8ff" stroke="#63b8ff" points="952.19,-418.03 962.75,-417.17 953.96,-411.26 952.19,-418.03"/>
</g>
<!-- Node4 -->
<g id="node4" class="node">
<title>Node4</title>
<g id="a_node4"><a xlink:href="node__visitor_8h.html" target="_top" xlink:title=" ">
<polygon fill="white" stroke="#666666" points="921,-310.5 822,-310.5 822,-280.5 921,-280.5 921,-310.5"/>
<text text-anchor="start" x="830" y="-298.5" font-family="Helvetica,sans-Serif" font-size="10.00">src/core/evaluation</text>
<text text-anchor="middle" x="871.5" y="-287.5" font-family="Helvetica,sans-Serif" font-size="10.00">/node_visitor.h</text>
</a>
</g>
</g>
<!-- Node1&#45;&gt;Node4 -->
<g id="edge55" class="edge">
<title>Node1&#45;&gt;Node4</title>
<path fill="none" stroke="#63b8ff" d="M979.36,-412.34C964.69,-404.11 948.52,-393.71 935.5,-382 911.65,-360.55 890.81,-329.04 879.8,-310.87"/>
<polygon fill="#63b8ff" stroke="#63b8ff" points="977.43,-415.27 987.88,-416.97 980.76,-409.12 977.43,-415.27"/>
</g>
<!-- Node9 -->
<g id="node9" class="node">
<title>Node9</title>
<g id="a_node9"><a xlink:href="defined__function_8h.html" target="_top" xlink:title=" ">
<polygon fill="white" stroke="#666666" points="984,-239 885,-239 885,-198 984,-198 984,-239"/>
<text text-anchor="start" x="893" y="-227" font-family="Helvetica,sans-Serif" font-size="10.00">src/core/evaluation</text>
<text text-anchor="start" x="893" y="-216" font-family="Helvetica,sans-Serif" font-size="10.00">/operations/defined</text>
<text text-anchor="middle" x="934.5" y="-205" font-family="Helvetica,sans-Serif" font-size="10.00">_function.h</text>
</a>
</g>
</g>
<!-- Node1&#45;&gt;Node9 -->
<g id="edge56" class="edge">
<title>Node1&#45;&gt;Node9</title>
<path fill="none" stroke="#63b8ff" d="M1008.09,-407.52C997.38,-384.2 981.15,-348 968.5,-316 958.12,-289.74 947.52,-258.87 940.97,-239.25"/>
<polygon fill="#63b8ff" stroke="#63b8ff" points="1004.86,-408.87 1012.23,-416.49 1011.22,-405.94 1004.86,-408.87"/>
</g>
<!-- Node10 -->
<g id="node10" class="node">
<title>Node10</title>
<g id="a_node10"><a xlink:href="dyadic__operators_8h.html" target="_top" xlink:title=" ">
<polygon fill="white" stroke="#666666" points="1127.5,-310.5 977.5,-310.5 977.5,-280.5 1127.5,-280.5 1127.5,-310.5"/>
<text text-anchor="start" x="985.5" y="-298.5" font-family="Helvetica,sans-Serif" font-size="10.00">src/core/evaluation</text>
<text text-anchor="middle" x="1052.5" y="-287.5" font-family="Helvetica,sans-Serif" font-size="10.00">/operations/dyadic_operators.h</text>
</a>
</g>
</g>
<!-- Node1&#45;&gt;Node10 -->
<g id="edge57" class="edge">
<title>Node1&#45;&gt;Node10</title>
<path fill="none" stroke="#63b8ff" d="M1025.64,-406.79C1032.51,-378.57 1043.41,-333.81 1048.98,-310.96"/>
<polygon fill="#63b8ff" stroke="#63b8ff" points="1022.29,-405.74 1023.33,-416.28 1029.09,-407.4 1022.29,-405.74"/>
</g>
<!-- Node12 -->
<g id="node12" class="node">
<title>Node12</title>
<g id="a_node12"><a xlink:href="monadic__operators_8h.html" target="_top" xlink:title=" ">
<polygon fill="white" stroke="#666666" points="1249.5,-316 1145.5,-316 1145.5,-275 1249.5,-275 1249.5,-316"/>
<text text-anchor="start" x="1153.5" y="-304" font-family="Helvetica,sans-Serif" font-size="10.00">src/core/evaluation</text>
<text text-anchor="start" x="1153.5" y="-293" font-family="Helvetica,sans-Serif" font-size="10.00">/operations/monadic</text>
<text text-anchor="middle" x="1197.5" y="-282" font-family="Helvetica,sans-Serif" font-size="10.00">_operators.h</text>
</a>
</g>
</g>
<!-- Node1&#45;&gt;Node12 -->
<g id="edge61" class="edge">
<title>Node1&#45;&gt;Node12</title>
<path fill="none" stroke="#63b8ff" d="M1033.66,-408.2C1044.9,-390.87 1061.95,-367.77 1081.5,-352 1100.35,-336.79 1124.06,-324.5 1145.12,-315.39"/>
<polygon fill="#63b8ff" stroke="#63b8ff" points="1030.89,-406.03 1028.54,-416.36 1036.82,-409.75 1030.89,-406.03"/>
</g>
<!-- Node33 -->
<g id="node33" class="node">
<title>Node33</title>
<g id="a_node33"><a xlink:href="functions_8h.html" target="_top" xlink:title=" ">
<polygon fill="white" stroke="#666666" points="1383.5,-310.5 1267.5,-310.5 1267.5,-280.5 1383.5,-280.5 1383.5,-310.5"/>
<text text-anchor="start" x="1275.5" y="-298.5" font-family="Helvetica,sans-Serif" font-size="10.00">src/core/evaluation</text>
<text text-anchor="middle" x="1325.5" y="-287.5" font-family="Helvetica,sans-Serif" font-size="10.00">/operations/functions.h</text>
</a>
</g>
</g>
<!-- Node1&#45;&gt;Node33 -->
<g id="edge58" class="edge">
<title>Node1&#45;&gt;Node33</title>
<path fill="none" stroke="#63b8ff" d="M1046.41,-410.29C1057.09,-401.59 1069.45,-391.4 1080.5,-382 1095.85,-368.94 1096.66,-361.38 1114.5,-352 1172.89,-321.3 1194.82,-333.22 1258.5,-316 1264.35,-314.42 1270.47,-312.71 1276.53,-310.99"/>
<polygon fill="#63b8ff" stroke="#63b8ff" points="1044.26,-407.54 1038.7,-416.56 1048.67,-412.97 1044.26,-407.54"/>
</g>
<!-- Node34 -->
<g id="node34" class="node">
<title>Node34</title>
<g id="a_node34"><a xlink:href="operation_8cpp.html" target="_top" xlink:title=" ">
<polygon fill="white" stroke="#666666" points="1249.5,-382 1123.5,-382 1123.5,-352 1249.5,-352 1249.5,-382"/>
<text text-anchor="start" x="1131.5" y="-370" font-family="Helvetica,sans-Serif" font-size="10.00">src/core/evaluation</text>
<text text-anchor="middle" x="1186.5" y="-359" font-family="Helvetica,sans-Serif" font-size="10.00">/operations/operation.cpp</text>
</a>
</g>
</g>
<!-- Node1&#45;&gt;Node34 -->
<g id="edge62" class="edge">
<title>Node1&#45;&gt;Node34</title>
<path fill="none" stroke="#63b8ff" d="M1067.67,-413.54C1093.49,-403.64 1124.84,-391.63 1148.86,-382.43"/>
<polygon fill="#63b8ff" stroke="#63b8ff" points="1066.48,-410.25 1058.39,-417.1 1068.98,-416.79 1066.48,-410.25"/>
</g>
<!-- Node3 -->
<g id="node3" class="node">
<title>Node3</title>
<g id="a_node3"><a xlink:href="ast_8cpp.html" target="_top" xlink:title=" ">
<polygon fill="white" stroke="#666666" points="99,-156.5 0,-156.5 0,-126.5 99,-126.5 99,-156.5"/>
<text text-anchor="start" x="8" y="-144.5" font-family="Helvetica,sans-Serif" font-size="10.00">src/core/evaluation</text>
<text text-anchor="middle" x="49.5" y="-133.5" font-family="Helvetica,sans-Serif" font-size="10.00">/ast.cpp</text>
</a>
</g>
</g>
<!-- Node2&#45;&gt;Node3 -->
<g id="edge2" class="edge">
<title>Node2&#45;&gt;Node3</title>
<path fill="none" stroke="#63b8ff" d="M713.57,-355.55C665.16,-346.68 595.94,-332.75 536.5,-316 363.94,-267.38 164.17,-189 84.71,-156.91"/>
<polygon fill="#63b8ff" stroke="#63b8ff" points="712.85,-358.97 723.31,-357.31 714.09,-352.09 712.85,-358.97"/>
</g>
<!-- Node2&#45;&gt;Node4 -->
<g id="edge3" class="edge">
<title>Node2&#45;&gt;Node4</title>
<path fill="none" stroke="#63b8ff" d="M803.72,-345.06C819.13,-334.02 837.65,-320.76 851.43,-310.88"/>
<polygon fill="#63b8ff" stroke="#63b8ff" points="801.92,-342.05 795.83,-350.72 806,-347.74 801.92,-342.05"/>
</g>
<!-- Node2&#45;&gt;Node9 -->
<g id="edge9" class="edge">
<title>Node2&#45;&gt;Node9</title>
<path fill="none" stroke="#63b8ff" d="M779.75,-340.5C785.02,-320.5 794.95,-293.11 812.5,-275 832.01,-254.86 860.19,-241.39 884.55,-232.76"/>
<polygon fill="#63b8ff" stroke="#63b8ff" points="776.37,-339.56 777.45,-350.1 783.18,-341.18 776.37,-339.56"/>
</g>
<!-- Node2&#45;&gt;Node10 -->
<g id="edge12" class="edge">
<title>Node2&#45;&gt;Node10</title>
<path fill="none" stroke="#63b8ff" d="M835.23,-350.82C882.59,-338.98 947.94,-322.64 994.58,-310.98"/>
<polygon fill="#63b8ff" stroke="#63b8ff" points="834.52,-347.39 825.67,-353.21 836.22,-354.18 834.52,-347.39"/>
</g>
<!-- Node2&#45;&gt;Node12 -->
<g id="edge15" class="edge">
<title>Node2&#45;&gt;Node12</title>
<path fill="none" stroke="#63b8ff" d="M835.64,-360.79C908.08,-353.88 1032.11,-339.71 1136.5,-316 1139.32,-315.36 1142.19,-314.65 1145.09,-313.89"/>
<polygon fill="#63b8ff" stroke="#63b8ff" points="835.6,-357.28 825.97,-361.7 836.26,-364.25 835.6,-357.28"/>
</g>
<!-- Node14 -->
<g id="node14" class="node">
<title>Node14</title>
<g id="a_node14"><a xlink:href="parser_8h.html" target="_top" xlink:title=" ">
<polygon fill="white" stroke="#666666" points="855,-233.5 756,-233.5 756,-203.5 855,-203.5 855,-233.5"/>
<text text-anchor="start" x="764" y="-221.5" font-family="Helvetica,sans-Serif" font-size="10.00">src/core/evaluation</text>
<text text-anchor="middle" x="805.5" y="-210.5" font-family="Helvetica,sans-Serif" font-size="10.00">/parser/parser.h</text>
</a>
</g>
</g>
<!-- Node2&#45;&gt;Node14 -->
<g id="edge19" class="edge">
<title>Node2&#45;&gt;Node14</title>
<path fill="none" stroke="#63b8ff" d="M773.32,-340.28C773.1,-321.84 774.08,-296.55 779.5,-275 783.19,-260.35 790.78,-244.87 796.82,-234"/>
<polygon fill="#63b8ff" stroke="#63b8ff" points="769.82,-340.14 773.58,-350.05 776.81,-339.96 769.82,-340.14"/>
</g>
<!-- Node18 -->
<g id="node18" class="node">
<title>Node18</title>
<g id="a_node18"><a xlink:href="symbol_8h.html" target="_top" xlink:title=" ">
<polygon fill="white" stroke="#666666" points="727,-305 632,-305 632,-286 727,-286 727,-305"/>
<text text-anchor="middle" x="679.5" y="-293" font-family="Helvetica,sans-Serif" font-size="10.00">src/core/symbol.h</text>
</a>
</g>
</g>
<!-- Node2&#45;&gt;Node18 -->
<g id="edge25" class="edge">
<title>Node2&#45;&gt;Node18</title>
<path fill="none" stroke="#63b8ff" d="M745.81,-345.01C727.69,-331.75 705.22,-315.31 691.64,-305.38"/>
<polygon fill="#63b8ff" stroke="#63b8ff" points="743.46,-347.63 753.59,-350.71 747.59,-341.98 743.46,-347.63"/>
</g>
<!-- Node19 -->
<g id="node19" class="node">
<title>Node19</title>
<g id="a_node19"><a xlink:href="symbol__table_8h.html" target="_top" xlink:title=" ">
<polygon fill="white" stroke="#666666" points="738,-228 617,-228 617,-209 738,-209 738,-228"/>
<text text-anchor="middle" x="677.5" y="-216" font-family="Helvetica,sans-Serif" font-size="10.00">src/core/symbol_table.h</text>
</a>
</g>
</g>
<!-- Node2&#45;&gt;Node19 -->
<g id="edge47" class="edge">
<title>Node2&#45;&gt;Node19</title>
<path fill="none" stroke="#63b8ff" d="M713.38,-362.48C680.77,-357.11 643.19,-344.59 622.5,-316 611.82,-301.24 615.56,-291.85 622.5,-275 630.86,-254.68 650.67,-237.85 664.08,-228.23"/>
<polygon fill="#63b8ff" stroke="#63b8ff" points="712.79,-365.93 723.18,-363.88 713.78,-359 712.79,-365.93"/>
</g>
<!-- Node31 -->
<g id="node31" class="node">
<title>Node31</title>
<g id="a_node31"><a xlink:href="matcher_8h.html" target="_top" xlink:title=" ">
<polygon fill="white" stroke="#666666" points="618.5,-79.5 510.5,-79.5 510.5,-60.5 618.5,-60.5 618.5,-79.5"/>
<text text-anchor="middle" x="564.5" y="-67.5" font-family="Helvetica,sans-Serif" font-size="10.00">src/testing/matcher.h</text>
</a>
</g>
</g>
<!-- Node2&#45;&gt;Node31 -->
<g id="edge48" class="edge">
<title>Node2&#45;&gt;Node31</title>
<path fill="none" stroke="#63b8ff" d="M713.14,-362.13C678.78,-356.69 637.88,-344.22 612.5,-316 548.74,-245.1 559.12,-115.12 563.3,-79.97"/>
<polygon fill="#63b8ff" stroke="#63b8ff" points="712.62,-365.59 723.01,-363.5 713.58,-358.66 712.62,-365.59"/>
</g>
<!-- Node4&#45;&gt;Node3 -->
<g id="edge4" class="edge">
<title>Node4&#45;&gt;Node3</title>
<path fill="none" stroke="#63b8ff" d="M810.41,-284.53C683.92,-263.66 384.3,-213.08 134.5,-162 123.08,-159.66 110.84,-156.97 99.3,-154.34"/>
<polygon fill="#63b8ff" stroke="#63b8ff" points="809.81,-287.98 820.25,-286.15 810.95,-281.07 809.81,-287.98"/>
</g>
<!-- Node5 -->
<g id="node5" class="node">
<title>Node5</title>
<g id="a_node5"><a xlink:href="interpreter_8h.html" target="_top" xlink:title=" ">
<polygon fill="white" stroke="#666666" points="1101,-233.5 1002,-233.5 1002,-203.5 1101,-203.5 1101,-233.5"/>
<text text-anchor="start" x="1010" y="-221.5" font-family="Helvetica,sans-Serif" font-size="10.00">src/core/evaluation</text>
<text text-anchor="middle" x="1051.5" y="-210.5" font-family="Helvetica,sans-Serif" font-size="10.00">/interpreter.h</text>
</a>
</g>
</g>
<!-- Node4&#45;&gt;Node5 -->
<g id="edge5" class="edge">
<title>Node4&#45;&gt;Node5</title>
<path fill="none" stroke="#63b8ff" d="M916.76,-275.64C947.82,-262.7 988.42,-245.78 1016.9,-233.92"/>
<polygon fill="#63b8ff" stroke="#63b8ff" points="915.49,-272.38 907.6,-279.46 918.18,-278.84 915.49,-272.38"/>
</g>
<!-- Node6 -->
<g id="node6" class="node">
<title>Node6</title>
<g id="a_node6"><a xlink:href="interpreter_8cpp.html" target="_top" xlink:title=" ">
<polygon fill="white" stroke="#666666" points="988,-156.5 889,-156.5 889,-126.5 988,-126.5 988,-156.5"/>
<text text-anchor="start" x="897" y="-144.5" font-family="Helvetica,sans-Serif" font-size="10.00">src/core/evaluation</text>
<text text-anchor="middle" x="938.5" y="-133.5" font-family="Helvetica,sans-Serif" font-size="10.00">/interpreter.cpp</text>
</a>
</g>
</g>
<!-- Node5&#45;&gt;Node6 -->
<g id="edge6" class="edge">
<title>Node5&#45;&gt;Node6</title>
<path fill="none" stroke="#63b8ff" d="M1020.24,-196.75C1001.16,-184.09 977.24,-168.21 960.22,-156.92"/>
<polygon fill="#63b8ff" stroke="#63b8ff" points="1018.18,-199.59 1028.45,-202.2 1022.06,-193.76 1018.18,-199.59"/>
</g>
<!-- Node7 -->
<g id="node7" class="node">
<title>Node7</title>
<g id="a_node7"><a xlink:href="defined__function_8cpp.html" target="_top" xlink:title=" ">
<polygon fill="white" stroke="#666666" points="1105,-162 1006,-162 1006,-121 1105,-121 1105,-162"/>
<text text-anchor="start" x="1014" y="-150" font-family="Helvetica,sans-Serif" font-size="10.00">src/core/evaluation</text>
<text text-anchor="start" x="1014" y="-139" font-family="Helvetica,sans-Serif" font-size="10.00">/operations/defined</text>
<text text-anchor="middle" x="1055.5" y="-128" font-family="Helvetica,sans-Serif" font-size="10.00">_function.cpp</text>
</a>
</g>
</g>
<!-- Node5&#45;&gt;Node7 -->
<g id="edge7" class="edge">
<title>Node5&#45;&gt;Node7</title>
<path fill="none" stroke="#63b8ff" d="M1052.88,-191.68C1053.39,-182.06 1053.96,-171.3 1054.44,-162.3"/>
<polygon fill="#63b8ff" stroke="#63b8ff" points="1049.39,-191.36 1052.35,-201.53 1056.38,-191.73 1049.39,-191.36"/>
</g>
<!-- Node8 -->
<g id="node8" class="node">
<title>Node8</title>
<g id="a_node8"><a xlink:href="execution_8cpp.html" target="_top" xlink:title=" ">
<polygon fill="white" stroke="#666666" points="922.5,-79.5 806.5,-79.5 806.5,-60.5 922.5,-60.5 922.5,-79.5"/>
<text text-anchor="middle" x="864.5" y="-67.5" font-family="Helvetica,sans-Serif" font-size="10.00">src/core/execution.cpp</text>
</a>
</g>
</g>
<!-- Node5&#45;&gt;Node8 -->
<g id="edge8" class="edge">
<title>Node5&#45;&gt;Node8</title>
<path fill="none" stroke="#63b8ff" d="M1104.87,-199.65C1106.76,-199.08 1108.65,-198.53 1110.5,-198 1175.58,-179.36 1216.67,-215.23 1258.5,-162 1269.76,-147.67 1270.55,-134.67 1258.5,-121 1236.68,-96.23 1027.03,-80.54 922.77,-74.21"/>
<polygon fill="#63b8ff" stroke="#63b8ff" points="1103.88,-196.29 1095.36,-202.58 1105.95,-202.98 1103.88,-196.29"/>
</g>
<!-- Node9&#45;&gt;Node6 -->
<g id="edge10" class="edge">
<title>Node9&#45;&gt;Node6</title>
<path fill="none" stroke="#63b8ff" d="M936.15,-186.62C936.7,-176.3 937.28,-165.3 937.73,-156.86"/>
<polygon fill="#63b8ff" stroke="#63b8ff" points="932.67,-186.11 935.63,-196.28 939.66,-186.48 932.67,-186.11"/>
</g>
<!-- Node9&#45;&gt;Node7 -->
<g id="edge11" class="edge">
<title>Node9&#45;&gt;Node7</title>
<path fill="none" stroke="#63b8ff" d="M976.39,-191.53C991.74,-182.02 1008.86,-171.41 1023.24,-162.49"/>
<polygon fill="#63b8ff" stroke="#63b8ff" points="974.55,-188.56 967.89,-196.8 978.24,-194.51 974.55,-188.56"/>
</g>
<!-- Node10&#45;&gt;Node5 -->
<g id="edge13" class="edge">
<title>Node10&#45;&gt;Node5</title>
<path fill="none" stroke="#63b8ff" d="M1052.16,-268.73C1052,-257.08 1051.82,-243.76 1051.69,-233.92"/>
<polygon fill="#63b8ff" stroke="#63b8ff" points="1048.65,-268.57 1052.29,-278.53 1055.65,-268.48 1048.65,-268.57"/>
</g>
<!-- Node11 -->
<g id="node11" class="node">
<title>Node11</title>
<g id="a_node11"><a xlink:href="dyadic__operators_8cpp.html" target="_top" xlink:title=" ">
<polygon fill="white" stroke="#666666" points="1280,-233.5 1119,-233.5 1119,-203.5 1280,-203.5 1280,-233.5"/>
<text text-anchor="start" x="1127" y="-221.5" font-family="Helvetica,sans-Serif" font-size="10.00">src/core/evaluation</text>
<text text-anchor="middle" x="1199.5" y="-210.5" font-family="Helvetica,sans-Serif" font-size="10.00">/operations/dyadic_operators.cpp</text>
</a>
</g>
</g>
<!-- Node10&#45;&gt;Node11 -->
<g id="edge14" class="edge">
<title>Node10&#45;&gt;Node11</title>
<path fill="none" stroke="#63b8ff" d="M1090.8,-274.96C1115.98,-262.11 1148.39,-245.58 1171.24,-233.92"/>
<polygon fill="#63b8ff" stroke="#63b8ff" points="1089.51,-271.69 1082.19,-279.35 1092.69,-277.92 1089.51,-271.69"/>
</g>
<!-- Node12&#45;&gt;Node5 -->
<g id="edge16" class="edge">
<title>Node12&#45;&gt;Node5</title>
<path fill="none" stroke="#63b8ff" d="M1148.78,-269.47C1125.67,-257.6 1098.91,-243.85 1079.31,-233.79"/>
<polygon fill="#63b8ff" stroke="#63b8ff" points="1146.92,-272.45 1157.41,-273.91 1150.12,-266.22 1146.92,-272.45"/>
</g>
<!-- Node12&#45;&gt;Node11 -->
<g id="edge17" class="edge">
<title>Node12&#45;&gt;Node11</title>
<path fill="none" stroke="#63b8ff" d="M1198.32,-263.62C1198.6,-253.3 1198.89,-242.3 1199.12,-233.86"/>
<polygon fill="#63b8ff" stroke="#63b8ff" points="1194.83,-263.19 1198.07,-273.28 1201.83,-263.38 1194.83,-263.19"/>
</g>
<!-- Node13 -->
<g id="node13" class="node">
<title>Node13</title>
<g id="a_node13"><a xlink:href="monadic__operators_8cpp.html" target="_top" xlink:title=" ">
<polygon fill="white" stroke="#666666" points="1402.5,-239 1298.5,-239 1298.5,-198 1402.5,-198 1402.5,-239"/>
<text text-anchor="start" x="1306.5" y="-227" font-family="Helvetica,sans-Serif" font-size="10.00">src/core/evaluation</text>
<text text-anchor="start" x="1306.5" y="-216" font-family="Helvetica,sans-Serif" font-size="10.00">/operations/monadic</text>
<text text-anchor="middle" x="1350.5" y="-205" font-family="Helvetica,sans-Serif" font-size="10.00">_operators.cpp</text>
</a>
</g>
</g>
<!-- Node12&#45;&gt;Node13 -->
<g id="edge18" class="edge">
<title>Node12&#45;&gt;Node13</title>
<path fill="none" stroke="#63b8ff" d="M1248.26,-269.62C1268.23,-259.83 1290.84,-248.75 1309.71,-239.49"/>
<polygon fill="#63b8ff" stroke="#63b8ff" points="1246.9,-266.39 1239.46,-273.93 1249.98,-272.67 1246.9,-266.39"/>
</g>
<!-- Node14&#45;&gt;Node6 -->
<g id="edge20" class="edge">
<title>Node14&#45;&gt;Node6</title>
<path fill="none" stroke="#63b8ff" d="M841.07,-197.44C863.72,-184.67 892.53,-168.42 912.93,-156.92"/>
<polygon fill="#63b8ff" stroke="#63b8ff" points="839.45,-194.34 832.46,-202.3 842.89,-200.43 839.45,-194.34"/>
</g>
<!-- Node14&#45;&gt;Node8 -->
<g id="edge22" class="edge">
<title>Node14&#45;&gt;Node8</title>
<path fill="none" stroke="#63b8ff" d="M823.19,-193.99C829.7,-184.46 836.66,-173.09 841.5,-162 854.01,-133.32 860.69,-96.47 863.25,-79.84"/>
<polygon fill="#63b8ff" stroke="#63b8ff" points="820.48,-191.76 817.55,-201.94 826.19,-195.81 820.48,-191.76"/>
</g>
<!-- Node15 -->
<g id="node15" class="node">
<title>Node15</title>
<g id="a_node15"><a xlink:href="parser_8cpp.html" target="_top" xlink:title=" ">
<polygon fill="white" stroke="#666666" points="716,-156.5 617,-156.5 617,-126.5 716,-126.5 716,-156.5"/>
<text text-anchor="start" x="625" y="-144.5" font-family="Helvetica,sans-Serif" font-size="10.00">src/core/evaluation</text>
<text text-anchor="middle" x="666.5" y="-133.5" font-family="Helvetica,sans-Serif" font-size="10.00">/parser/parser.cpp</text>
</a>
</g>
</g>
<!-- Node14&#45;&gt;Node15 -->
<g id="edge21" class="edge">
<title>Node14&#45;&gt;Node15</title>
<path fill="none" stroke="#63b8ff" d="M768.65,-197.62C744.93,-184.82 714.64,-168.47 693.22,-156.92"/>
<polygon fill="#63b8ff" stroke="#63b8ff" points="766.9,-200.65 777.37,-202.32 770.23,-194.49 766.9,-200.65"/>
</g>
<!-- Node16 -->
<g id="node16" class="node">
<title>Node16</title>
<g id="a_node16"><a xlink:href="parser__fixture_8h.html" target="_top" xlink:title=" ">
<polygon fill="white" stroke="#666666" points="832.5,-156.5 734.5,-156.5 734.5,-126.5 832.5,-126.5 832.5,-156.5"/>
<text text-anchor="start" x="742.5" y="-144.5" font-family="Helvetica,sans-Serif" font-size="10.00">src/testing/fixtures</text>
<text text-anchor="middle" x="783.5" y="-133.5" font-family="Helvetica,sans-Serif" font-size="10.00">/parser_fixture.h</text>
</a>
</g>
</g>
<!-- Node14&#45;&gt;Node16 -->
<g id="edge23" class="edge">
<title>Node14&#45;&gt;Node16</title>
<path fill="none" stroke="#63b8ff" d="M798.05,-192.1C794.61,-180.37 790.65,-166.87 787.73,-156.92"/>
<polygon fill="#63b8ff" stroke="#63b8ff" points="794.66,-192.98 800.83,-201.59 801.38,-191.01 794.66,-192.98"/>
</g>
<!-- Node17 -->
<g id="node17" class="node">
<title>Node17</title>
<g id="a_node17"><a xlink:href="test__parser_8cpp.html" target="_top" xlink:title=" ">
<polygon fill="white" stroke="#666666" points="961.5,-19 829.5,-19 829.5,0 961.5,0 961.5,-19"/>
<text text-anchor="middle" x="895.5" y="-7" font-family="Helvetica,sans-Serif" font-size="10.00">src/testing/test_parser.cpp</text>
</a>
</g>
</g>
<!-- Node16&#45;&gt;Node17 -->
<g id="edge24" class="edge">
<title>Node16&#45;&gt;Node17</title>
<path fill="none" stroke="#63b8ff" d="M781.63,-114.85C781.63,-96.43 784.51,-71.97 797.5,-55 811.36,-36.9 834.26,-25.94 854.45,-19.44"/>
<polygon fill="#63b8ff" stroke="#63b8ff" points="778.13,-114.8 781.94,-124.69 785.12,-114.58 778.13,-114.8"/>
</g>
<!-- Node18&#45;&gt;Node19 -->
<g id="edge26" class="edge">
<title>Node18&#45;&gt;Node19</title>
<path fill="none" stroke="#63b8ff" d="M678.96,-274.42C678.56,-259.43 678.04,-239.66 677.74,-228.39"/>
<polygon fill="#63b8ff" stroke="#63b8ff" points="675.46,-274.19 679.22,-284.09 682.45,-274 675.46,-274.19"/>
</g>
<!-- Node19&#45;&gt;Node3 -->
<g id="edge28" class="edge">
<title>Node19&#45;&gt;Node3</title>
<path fill="none" stroke="#63b8ff" d="M637.4,-205.65C626.2,-202.72 613.95,-199.89 602.5,-198 387.5,-162.44 327.72,-202 113.5,-162 106.54,-160.7 99.26,-158.91 92.21,-156.94"/>
<polygon fill="#63b8ff" stroke="#63b8ff" points="636.17,-208.94 646.74,-208.17 638,-202.18 636.17,-208.94"/>
</g>
<!-- Node19&#45;&gt;Node6 -->
<g id="edge29" class="edge">
<title>Node19&#45;&gt;Node6</title>
<path fill="none" stroke="#63b8ff" d="M719.56,-205.41C765.78,-192.13 839.96,-170.82 888.97,-156.73"/>
<polygon fill="#63b8ff" stroke="#63b8ff" points="718.82,-201.98 710.18,-208.11 720.76,-208.71 718.82,-201.98"/>
</g>
<!-- Node19&#45;&gt;Node7 -->
<g id="edge30" class="edge">
<title>Node19&#45;&gt;Node7</title>
<path fill="none" stroke="#63b8ff" d="M716.76,-205.43C726.42,-202.73 736.78,-200.06 746.5,-198 856.75,-174.62 887.86,-188.06 997.5,-162 1000.19,-161.36 1002.93,-160.65 1005.68,-159.89"/>
<polygon fill="#63b8ff" stroke="#63b8ff" points="715.92,-202.03 707.28,-208.16 717.86,-208.76 715.92,-202.03"/>
</g>
<!-- Node19&#45;&gt;Node8 -->
<g id="edge33" class="edge">
<title>Node19&#45;&gt;Node8</title>
<path fill="none" stroke="#63b8ff" d="M648.67,-202.97C633.41,-193.56 616.08,-179.75 607.5,-162 599.57,-145.59 595.91,-135.06 607.5,-121 632.18,-91.05 738.27,-78.81 806.19,-73.98"/>
<polygon fill="#63b8ff" stroke="#63b8ff" points="646.57,-205.8 656.98,-207.75 650.06,-199.73 646.57,-205.8"/>
</g>
<!-- Node19&#45;&gt;Node15 -->
<g id="edge32" class="edge">
<title>Node19&#45;&gt;Node15</title>
<path fill="none" stroke="#63b8ff" d="M674.53,-197.25C672.65,-184.45 670.27,-168.22 668.59,-156.77"/>
<polygon fill="#63b8ff" stroke="#63b8ff" points="671.06,-197.72 675.98,-207.1 677.99,-196.7 671.06,-197.72"/>
</g>
<!-- Node19&#45;&gt;Node16 -->
<g id="edge46" class="edge">
<title>Node19&#45;&gt;Node16</title>
<path fill="none" stroke="#63b8ff" d="M699.33,-202.06C718.13,-188.76 745.04,-169.71 763.34,-156.77"/>
<polygon fill="#63b8ff" stroke="#63b8ff" points="697.45,-199.09 691.31,-207.73 701.5,-204.81 697.45,-199.09"/>
</g>
<!-- Node20 -->
<g id="node20" class="node">
<title>Node20</title>
<g id="a_node20"><a xlink:href="array_8cpp.html" target="_top" xlink:title=" ">
<polygon fill="white" stroke="#666666" points="249.5,-151 155.5,-151 155.5,-132 249.5,-132 249.5,-151"/>
<text text-anchor="middle" x="202.5" y="-139" font-family="Helvetica,sans-Serif" font-size="10.00">src/core/array.cpp</text>
</a>
</g>
</g>
<!-- Node19&#45;&gt;Node20 -->
<g id="edge27" class="edge">
<title>Node19&#45;&gt;Node20</title>
<path fill="none" stroke="#63b8ff" d="M636.43,-205.64C625.48,-202.8 613.6,-200.01 602.5,-198 451.24,-170.58 408.53,-195.5 258.5,-162 247.05,-159.44 234.69,-155.3 224.5,-151.48"/>
<polygon fill="#63b8ff" stroke="#63b8ff" points="635.41,-208.99 645.98,-208.19 637.22,-202.23 635.41,-208.99"/>
</g>
<!-- Node21 -->
<g id="node21" class="node">
<title>Node21</title>
<g id="a_node21"><a xlink:href="functions_8cpp.html" target="_top" xlink:title=" ">
<polygon fill="white" stroke="#666666" points="1249.5,-156.5 1123.5,-156.5 1123.5,-126.5 1249.5,-126.5 1249.5,-156.5"/>
<text text-anchor="start" x="1131.5" y="-144.5" font-family="Helvetica,sans-Serif" font-size="10.00">src/core/evaluation</text>
<text text-anchor="middle" x="1186.5" y="-133.5" font-family="Helvetica,sans-Serif" font-size="10.00">/operations/functions.cpp</text>
</a>
</g>
</g>
<!-- Node19&#45;&gt;Node21 -->
<g id="edge31" class="edge">
<title>Node19&#45;&gt;Node21</title>
<path fill="none" stroke="#63b8ff" d="M715.6,-205.43C725.57,-202.63 736.37,-199.91 746.5,-198 907.99,-167.53 952.85,-191.58 1114.5,-162 1122.02,-160.62 1129.89,-158.85 1137.56,-156.93"/>
<polygon fill="#63b8ff" stroke="#63b8ff" points="714.84,-202 706.22,-208.16 716.8,-208.72 714.84,-202"/>
</g>
<!-- Node22 -->
<g id="node22" class="node">
<title>Node22</title>
<g id="a_node22"><a xlink:href="execution_8h.html" target="_top" xlink:title=" ">
<polygon fill="white" stroke="#666666" points="522,-151 417,-151 417,-132 522,-132 522,-151"/>
<text text-anchor="middle" x="469.5" y="-139" font-family="Helvetica,sans-Serif" font-size="10.00">src/core/execution.h</text>
</a>
</g>
</g>
<!-- Node19&#45;&gt;Node22 -->
<g id="edge34" class="edge">
<title>Node19&#45;&gt;Node22</title>
<path fill="none" stroke="#63b8ff" d="M642.23,-204.78C600.15,-189.61 530.87,-164.63 494.15,-151.39"/>
<polygon fill="#63b8ff" stroke="#63b8ff" points="640.8,-207.99 651.4,-208.09 643.18,-201.4 640.8,-207.99"/>
</g>
<!-- Node26 -->
<g id="node26" class="node">
<title>Node26</title>
<g id="a_node26"><a xlink:href="fixture_8h.html" target="_top" xlink:title=" ">
<polygon fill="white" stroke="#666666" points="342.5,-85 244.5,-85 244.5,-55 342.5,-55 342.5,-85"/>
<text text-anchor="start" x="252.5" y="-73" font-family="Helvetica,sans-Serif" font-size="10.00">src/testing/fixtures</text>
<text text-anchor="middle" x="293.5" y="-62" font-family="Helvetica,sans-Serif" font-size="10.00">/fixture.h</text>
</a>
</g>
</g>
<!-- Node19&#45;&gt;Node26 -->
<g id="edge45" class="edge">
<title>Node19&#45;&gt;Node26</title>
<path fill="none" stroke="#63b8ff" d="M636.76,-205.52C625.72,-202.66 613.73,-199.89 602.5,-198 552.38,-189.57 181,-199.33 146.5,-162 134.13,-148.62 135.89,-135.82 146.5,-121 158.19,-104.67 206.07,-90.41 244.05,-81.35"/>
<polygon fill="#63b8ff" stroke="#63b8ff" points="635.81,-208.89 646.37,-208.11 637.63,-202.13 635.81,-208.89"/>
</g>
<!-- Node30 -->
<g id="node30" class="node">
<title>Node30</title>
<g id="a_node30"><a xlink:href="symbol__table_8cpp.html" target="_top" xlink:title=" ">
<polygon fill="white" stroke="#666666" points="399,-151 268,-151 268,-132 399,-132 399,-151"/>
<text text-anchor="middle" x="333.5" y="-139" font-family="Helvetica,sans-Serif" font-size="10.00">src/core/symbol_table.cpp</text>
</a>
</g>
</g>
<!-- Node19&#45;&gt;Node30 -->
<g id="edge44" class="edge">
<title>Node19&#45;&gt;Node30</title>
<path fill="none" stroke="#63b8ff" d="M634.23,-205.69C623.87,-203.01 612.82,-200.29 602.5,-198 516.46,-178.9 493.5,-181.24 407.5,-162 393.63,-158.9 378.42,-154.98 365.43,-151.47"/>
<polygon fill="#63b8ff" stroke="#63b8ff" points="633.11,-209.01 643.67,-208.16 634.89,-202.24 633.11,-209.01"/>
</g>
<!-- Node22&#45;&gt;Node8 -->
<g id="edge35" class="edge">
<title>Node22&#45;&gt;Node8</title>
<path fill="none" stroke="#63b8ff" d="M528.3,-129.44C543.35,-126.65 559.52,-123.68 574.5,-121 657.1,-106.21 753.09,-89.82 811.28,-79.96"/>
<polygon fill="#63b8ff" stroke="#63b8ff" points="527.72,-125.99 518.53,-131.26 529,-132.87 527.72,-125.99"/>
</g>
<!-- Node23 -->
<g id="node23" class="node">
<title>Node23</title>
<g id="a_node23"><a xlink:href="main_8cpp.html" target="_top" xlink:title=" ">
<polygon fill="white" stroke="#666666" points="492,-79.5 419,-79.5 419,-60.5 492,-60.5 492,-79.5"/>
<text text-anchor="middle" x="455.5" y="-67.5" font-family="Helvetica,sans-Serif" font-size="10.00">src/main.cpp</text>
</a>
</g>
</g>
<!-- Node22&#45;&gt;Node23 -->
<g id="edge36" class="edge">
<title>Node22&#45;&gt;Node23</title>
<path fill="none" stroke="#63b8ff" d="M465.51,-120.71C462.81,-107.29 459.37,-90.2 457.3,-79.95"/>
<polygon fill="#63b8ff" stroke="#63b8ff" points="462.02,-121.1 467.43,-130.21 468.88,-119.72 462.02,-121.1"/>
</g>
<!-- Node24 -->
<g id="node24" class="node">
<title>Node24</title>
<g id="a_node24"><a xlink:href="file__fixture_8h.html" target="_top" xlink:title=" ">
<polygon fill="white" stroke="#666666" points="201.5,-85 103.5,-85 103.5,-55 201.5,-55 201.5,-85"/>
<text text-anchor="start" x="111.5" y="-73" font-family="Helvetica,sans-Serif" font-size="10.00">src/testing/fixtures</text>
<text text-anchor="middle" x="152.5" y="-62" font-family="Helvetica,sans-Serif" font-size="10.00">/file_fixture.h</text>
</a>
</g>
</g>
<!-- Node22&#45;&gt;Node24 -->
<g id="edge37" class="edge">
<title>Node22&#45;&gt;Node24</title>
<path fill="none" stroke="#63b8ff" d="M432.63,-128.16C424.4,-125.62 415.69,-123.09 407.5,-121 369.35,-111.29 264.73,-91.59 201.98,-80.02"/>
<polygon fill="#63b8ff" stroke="#63b8ff" points="431.41,-131.45 442,-131.14 433.52,-124.78 431.41,-131.45"/>
</g>
<!-- Node22&#45;&gt;Node26 -->
<g id="edge39" class="edge">
<title>Node22&#45;&gt;Node26</title>
<path fill="none" stroke="#63b8ff" d="M436.41,-127.43C406.15,-115.49 361.47,-97.84 330.15,-85.47"/>
<polygon fill="#63b8ff" stroke="#63b8ff" points="434.86,-130.58 445.44,-131 437.43,-124.07 434.86,-130.58"/>
</g>
<!-- Node25 -->
<g id="node25" class="node">
<title>Node25</title>
<g id="a_node25"><a xlink:href="test__examples_8cpp.html" target="_top" xlink:title=" ">
<polygon fill="white" stroke="#666666" points="171.5,-19 23.5,-19 23.5,0 171.5,0 171.5,-19"/>
<text text-anchor="middle" x="97.5" y="-7" font-family="Helvetica,sans-Serif" font-size="10.00">src/testing/test_examples.cpp</text>
</a>
</g>
</g>
<!-- Node24&#45;&gt;Node25 -->
<g id="edge38" class="edge">
<title>Node24&#45;&gt;Node25</title>
<path fill="none" stroke="#63b8ff" d="M131.09,-46.22C122.17,-36.74 112.36,-26.31 105.66,-19.18"/>
<polygon fill="#63b8ff" stroke="#63b8ff" points="128.47,-48.55 137.87,-53.44 133.57,-43.75 128.47,-48.55"/>
</g>
<!-- Node26&#45;&gt;Node25 -->
<g id="edge41" class="edge">
<title>Node26&#45;&gt;Node25</title>
<path fill="none" stroke="#63b8ff" d="M234.38,-51.35C199.08,-40.82 155.76,-27.89 127.43,-19.43"/>
<polygon fill="#63b8ff" stroke="#63b8ff" points="233.02,-54.6 243.6,-54.11 235.02,-47.89 233.02,-54.6"/>
</g>
<!-- Node27 -->
<g id="node27" class="node">
<title>Node27</title>
<g id="a_node27"><a xlink:href="test__datatypes_8cpp.html" target="_top" xlink:title=" ">
<polygon fill="white" stroke="#666666" points="339,-19 190,-19 190,0 339,0 339,-19"/>
<text text-anchor="middle" x="264.5" y="-7" font-family="Helvetica,sans-Serif" font-size="10.00">src/testing/test_datatypes.cpp</text>
</a>
</g>
</g>
<!-- Node26&#45;&gt;Node27 -->
<g id="edge40" class="edge">
<title>Node26&#45;&gt;Node27</title>
<path fill="none" stroke="#63b8ff" d="M281.34,-44.47C276.88,-35.48 272.12,-25.87 268.8,-19.18"/>
<polygon fill="#63b8ff" stroke="#63b8ff" points="278.08,-45.78 285.66,-53.18 284.35,-42.67 278.08,-45.78"/>
</g>
<!-- Node28 -->
<g id="node28" class="node">
<title>Node28</title>
<g id="a_node28"><a xlink:href="test__functions_8cpp.html" target="_top" xlink:title=" ">
<polygon fill="white" stroke="#666666" points="503.5,-19 357.5,-19 357.5,0 503.5,0 503.5,-19"/>
<text text-anchor="middle" x="430.5" y="-7" font-family="Helvetica,sans-Serif" font-size="10.00">src/testing/test_functions.cpp</text>
</a>
</g>
</g>
<!-- Node26&#45;&gt;Node28 -->
<g id="edge42" class="edge">
<title>Node26&#45;&gt;Node28</title>
<path fill="none" stroke="#63b8ff" d="M337.75,-50.1C361.94,-39.78 390.76,-27.47 409.78,-19.35"/>
<polygon fill="#63b8ff" stroke="#63b8ff" points="336.58,-46.8 328.76,-53.94 339.33,-53.24 336.58,-46.8"/>
</g>
<!-- Node29 -->
<g id="node29" class="node">
<title>Node29</title>
<g id="a_node29"><a xlink:href="test__operators_8cpp.html" target="_top" xlink:title=" ">
<polygon fill="white" stroke="#666666" points="667.5,-19 521.5,-19 521.5,0 667.5,0 667.5,-19"/>
<text text-anchor="middle" x="594.5" y="-7" font-family="Helvetica,sans-Serif" font-size="10.00">src/testing/test_operators.cpp</text>
</a>
</g>
</g>
<!-- Node26&#45;&gt;Node29 -->
<g id="edge43" class="edge">
<title>Node26&#45;&gt;Node29</title>
<path fill="none" stroke="#63b8ff" d="M353.97,-57.25C411.4,-46.09 496.49,-29.55 548.56,-19.43"/>
<polygon fill="#63b8ff" stroke="#63b8ff" points="353.5,-53.77 344.35,-59.12 354.84,-60.64 353.5,-53.77"/>
</g>
<!-- Node31&#45;&gt;Node17 -->
<g id="edge54" class="edge">
<title>Node31&#45;&gt;Node17</title>
<path fill="none" stroke="#63b8ff" d="M626.1,-58.11C689.09,-46.98 785.8,-29.89 844.6,-19.5"/>
<polygon fill="#63b8ff" stroke="#63b8ff" points="625.86,-54.6 616.62,-59.79 627.08,-61.49 625.86,-54.6"/>
</g>
<!-- Node31&#45;&gt;Node25 -->
<g id="edge50" class="edge">
<title>Node31&#45;&gt;Node25</title>
<path fill="none" stroke="#63b8ff" d="M515.66,-57.76C510.56,-56.75 505.43,-55.81 500.5,-55 468.94,-49.82 279.06,-29.57 171.57,-18.25"/>
<polygon fill="#63b8ff" stroke="#63b8ff" points="514.74,-61.15 525.24,-59.74 516.16,-54.29 514.74,-61.15"/>
</g>
<!-- Node31&#45;&gt;Node27 -->
<g id="edge49" class="edge">
<title>Node31&#45;&gt;Node27</title>
<path fill="none" stroke="#63b8ff" d="M513.06,-57.61C508.81,-56.71 504.59,-55.83 500.5,-55 436.36,-41.94 362.13,-28.16 314.31,-19.46"/>
<polygon fill="#63b8ff" stroke="#63b8ff" points="512.26,-61.02 522.77,-59.69 513.73,-54.17 512.26,-61.02"/>
</g>
<!-- Node31&#45;&gt;Node28 -->
<g id="edge51" class="edge">
<title>Node31&#45;&gt;Node28</title>
<path fill="none" stroke="#63b8ff" d="M533.61,-55.52C508.26,-44.45 473.06,-29.08 451.04,-19.47"/>
<polygon fill="#63b8ff" stroke="#63b8ff" points="532.2,-58.72 542.76,-59.51 535,-52.3 532.2,-58.72"/>
</g>
<!-- Node31&#45;&gt;Node29 -->
<g id="edge53" class="edge">
<title>Node31&#45;&gt;Node29</title>
<path fill="none" stroke="#63b8ff" d="M574.16,-50.16C579.5,-39.74 585.88,-27.3 590.06,-19.17"/>
<polygon fill="#63b8ff" stroke="#63b8ff" points="571.07,-48.53 569.62,-59.02 577.29,-51.72 571.07,-48.53"/>
</g>
<!-- Node32 -->
<g id="node32" class="node">
<title>Node32</title>
<g id="a_node32"><a xlink:href="test__lexer_8cpp.html" target="_top" xlink:title=" ">
<polygon fill="white" stroke="#666666" points="811.5,-19 685.5,-19 685.5,0 811.5,0 811.5,-19"/>
<text text-anchor="middle" x="748.5" y="-7" font-family="Helvetica,sans-Serif" font-size="10.00">src/testing/test_lexer.cpp</text>
</a>
</g>
</g>
<!-- Node31&#45;&gt;Node32 -->
<g id="edge52" class="edge">
<title>Node31&#45;&gt;Node32</title>
<path fill="none" stroke="#63b8ff" d="M603.22,-56.69C638.24,-45.56 688.98,-29.42 720.29,-19.47"/>
<polygon fill="#63b8ff" stroke="#63b8ff" points="602.36,-53.29 593.89,-59.66 604.48,-59.96 602.36,-53.29"/>
</g>
<!-- Node33&#45;&gt;Node5 -->
<g id="edge59" class="edge">
<title>Node33&#45;&gt;Node5</title>
<path fill="none" stroke="#63b8ff" d="M1265.89,-277C1263.4,-276.32 1260.93,-275.65 1258.5,-275 1193.1,-257.54 1175.58,-257.64 1110.5,-239 1105.11,-237.46 1099.47,-235.73 1093.91,-233.97"/>
<polygon fill="#63b8ff" stroke="#63b8ff" points="1264.87,-280.35 1275.44,-279.67 1266.75,-273.61 1264.87,-280.35"/>
</g>
<!-- Node33&#45;&gt;Node21 -->
<g id="edge60" class="edge">
<title>Node33&#45;&gt;Node21</title>
<path fill="none" stroke="#63b8ff" d="M1373.62,-274.76C1388.48,-266.11 1403.13,-254.36 1411.5,-239 1420.22,-223 1422.74,-212.35 1411.5,-198 1391.71,-172.74 1309.24,-157.41 1249.88,-149.45"/>
<polygon fill="#63b8ff" stroke="#63b8ff" points="1372.37,-271.46 1365.22,-279.29 1375.68,-277.63 1372.37,-271.46"/>
</g>
</g>
</svg>
