<?xml version="1.0" encoding="UTF-8" standalone="no"?>
<!DOCTYPE svg PUBLIC "-//W3C//DTD SVG 1.1//EN"
 "http://www.w3.org/Graphics/SVG/1.1/DTD/svg11.dtd">
<!-- Generated by graphviz version 7.1.0 (20230121.1956)
 -->
<!-- Title: src/core/evaluation/parser/parser.h Pages: 1 -->
<svg width="797pt" height="379pt"
 viewBox="0.00 0.00 797.30 379.00" xmlns="http://www.w3.org/2000/svg" xmlns:xlink="http://www.w3.org/1999/xlink">
<g id="graph0" class="graph" transform="scale(1 1) rotate(0) translate(4 375)">
<title>src/core/evaluation/parser/parser.h</title>
<!-- Node1 -->
<g id="node1" class="node">
<title>Node1</title>
<g id="a_node1"><a xlink:title=" ">
<polygon fill="#999999" stroke="#666666" points="446.5,-371 347.5,-371 347.5,-341 446.5,-341 446.5,-371"/>
<text text-anchor="start" x="355.5" y="-359" font-family="Helvetica,sans-Serif" font-size="10.00">src/core/evaluation</text>
<text text-anchor="middle" x="397" y="-348" font-family="Helvetica,sans-Serif" font-size="10.00">/parser/parser.h</text>
</a>
</g>
</g>
<!-- Node2 -->
<g id="node2" class="node">
<title>Node2</title>
<g id="a_node2"><a xlink:href="token_8h.html" target="_top" xlink:title=" ">
<polygon fill="white" stroke="#666666" points="477.5,-184 406.5,-184 406.5,-165 477.5,-165 477.5,-184"/>
<text text-anchor="middle" x="442" y="-172" font-family="Helvetica,sans-Serif" font-size="10.00">core/token.h</text>
</a>
</g>
</g>
<!-- Node1&#45;&gt;Node2 -->
<g id="edge1" class="edge">
<title>Node1&#45;&gt;Node2</title>
<path fill="none" stroke="#63b8ff" d="M400.61,-340.61C408.59,-308.76 427.78,-232.22 436.95,-195.64"/>
<polygon fill="#63b8ff" stroke="#63b8ff" points="440.34,-196.52 439.38,-185.97 433.55,-194.82 440.34,-196.52"/>
</g>
<!-- Node3 -->
<g id="node3" class="node">
<title>Node3</title>
<g id="a_node3"><a xlink:href="token__type_8h.html" target="_top" xlink:title=" ">
<polygon fill="white" stroke="#666666" points="251.5,-74 178.5,-74 178.5,-55 251.5,-55 251.5,-74"/>
<text text-anchor="middle" x="215" y="-62" font-family="Helvetica,sans-Serif" font-size="10.00">token_type.h</text>
</a>
</g>
</g>
<!-- Node1&#45;&gt;Node3 -->
<g id="edge20" class="edge">
<title>Node1&#45;&gt;Node3</title>
<path fill="none" stroke="#63b8ff" d="M347.02,-352.4C281.81,-346.04 169.82,-324.24 117,-250 80.92,-199.29 80,-162.13 114,-110 121.2,-98.96 149.85,-86.92 174.81,-78.16"/>
<polygon fill="#63b8ff" stroke="#63b8ff" points="175.79,-81.52 184.13,-74.98 173.54,-74.9 175.79,-81.52"/>
</g>
<!-- Node6 -->
<g id="node6" class="node">
<title>Node6</title>
<g id="a_node6"><a xlink:title=" ">
<polygon fill="#e0e0e0" stroke="#999999" points="224,-19 180,-19 180,0 224,0 224,-19"/>
<text text-anchor="middle" x="202" y="-7" font-family="Helvetica,sans-Serif" font-size="10.00">vector</text>
</a>
</g>
</g>
<!-- Node1&#45;&gt;Node6 -->
<g id="edge19" class="edge">
<title>Node1&#45;&gt;Node6</title>
<path fill="none" stroke="#63b8ff" d="M347.12,-350.62C240.5,-339.87 0,-307.68 0,-236 0,-236 0,-236 0,-173.5 0,-87.74 111.64,-39.41 168.93,-20.25"/>
<polygon fill="#63b8ff" stroke="#63b8ff" points="169.73,-23.67 178.17,-17.27 167.58,-17.01 169.73,-23.67"/>
</g>
<!-- Node12 -->
<g id="node12" class="node">
<title>Node12</title>
<g id="a_node12"><a xlink:href="conversion_8h.html" target="_top" xlink:title=" ">
<polygon fill="white" stroke="#666666" points="773,-129 645,-129 645,-110 773,-110 773,-129"/>
<text text-anchor="middle" x="709" y="-117" font-family="Helvetica,sans-Serif" font-size="10.00">core/helpers/conversion.h</text>
</a>
</g>
</g>
<!-- Node1&#45;&gt;Node12 -->
<g id="edge34" class="edge">
<title>Node1&#45;&gt;Node12</title>
<path fill="none" stroke="#63b8ff" d="M446.77,-352.11C512.96,-345.42 628.6,-323.27 689,-250 714.73,-218.78 714.37,-168.44 711.74,-140.62"/>
<polygon fill="#63b8ff" stroke="#63b8ff" points="715.23,-140.28 710.6,-130.76 708.27,-141.09 715.23,-140.28"/>
</g>
<!-- Node16 -->
<g id="node16" class="node">
<title>Node16</title>
<g id="a_node16"><a xlink:href="ast_8h.html" target="_top" xlink:title=" ">
<polygon fill="white" stroke="#666666" points="393.5,-305 286.5,-305 286.5,-286 393.5,-286 393.5,-305"/>
<text text-anchor="middle" x="340" y="-293" font-family="Helvetica,sans-Serif" font-size="10.00">core/evaluation/ast.h</text>
</a>
</g>
</g>
<!-- Node1&#45;&gt;Node16 -->
<g id="edge21" class="edge">
<title>Node1&#45;&gt;Node16</title>
<path fill="none" stroke="#63b8ff" d="M382.91,-340.54C374.88,-332.3 364.79,-321.94 356.41,-313.34"/>
<polygon fill="#63b8ff" stroke="#63b8ff" points="358.99,-310.98 349.51,-306.26 353.98,-315.86 358.99,-310.98"/>
</g>
<!-- Node19 -->
<g id="node19" class="node">
<title>Node19</title>
<g id="a_node19"><a xlink:href="classifiers_8h.html" target="_top" xlink:title=" ">
<polygon fill="white" stroke="#666666" points="680.5,-244.5 555.5,-244.5 555.5,-225.5 680.5,-225.5 680.5,-244.5"/>
<text text-anchor="middle" x="618" y="-232.5" font-family="Helvetica,sans-Serif" font-size="10.00">core/helpers/classifiers.h</text>
</a>
</g>
</g>
<!-- Node1&#45;&gt;Node19 -->
<g id="edge35" class="edge">
<title>Node1&#45;&gt;Node19</title>
<path fill="none" stroke="#63b8ff" d="M423.66,-340.65C466.2,-317.74 548.98,-273.17 591.45,-250.29"/>
<polygon fill="#63b8ff" stroke="#63b8ff" points="592.86,-253.51 600,-245.69 589.54,-247.35 592.86,-253.51"/>
</g>
<!-- Node2&#45;&gt;Node3 -->
<g id="edge2" class="edge">
<title>Node2&#45;&gt;Node3</title>
<path fill="none" stroke="#63b8ff" d="M426.48,-164.54C397.1,-147.58 335.86,-112.31 331,-110 305.38,-97.84 275.47,-86.44 252.45,-78.21"/>
<polygon fill="#63b8ff" stroke="#63b8ff" points="253.77,-74.97 243.17,-74.95 251.44,-81.57 253.77,-74.97"/>
</g>
<!-- Node5 -->
<g id="node5" class="node">
<title>Node5</title>
<g id="a_node5"><a xlink:href="datatypes_8h.html" target="_top" xlink:title=" ">
<polygon fill="white" stroke="#666666" points="338,-74 270,-74 270,-55 338,-55 338,-74"/>
<text text-anchor="middle" x="304" y="-62" font-family="Helvetica,sans-Serif" font-size="10.00">datatypes.h</text>
</a>
</g>
</g>
<!-- Node2&#45;&gt;Node5 -->
<g id="edge4" class="edge">
<title>Node2&#45;&gt;Node5</title>
<path fill="none" stroke="#63b8ff" d="M431.7,-164.67C417.07,-152.22 389.37,-128.91 365,-110 352.22,-100.08 337.58,-89.38 325.85,-80.96"/>
<polygon fill="#63b8ff" stroke="#63b8ff" points="328.18,-78.33 318.01,-75.37 324.12,-84.03 328.18,-78.33"/>
</g>
<!-- Node9 -->
<g id="node9" class="node">
<title>Node9</title>
<g id="a_node9"><a xlink:title=" ">
<polygon fill="#e0e0e0" stroke="#999999" points="568.5,-129 485.5,-129 485.5,-110 568.5,-110 568.5,-129"/>
<text text-anchor="middle" x="527" y="-117" font-family="Helvetica,sans-Serif" font-size="10.00">uni_algo/conv.h</text>
</a>
</g>
</g>
<!-- Node2&#45;&gt;Node9 -->
<g id="edge8" class="edge">
<title>Node2&#45;&gt;Node9</title>
<path fill="none" stroke="#63b8ff" d="M456.42,-164.51C469.2,-156.54 488.1,-144.75 503.13,-135.38"/>
<polygon fill="#63b8ff" stroke="#63b8ff" points="504.88,-138.42 511.51,-130.16 501.17,-132.48 504.88,-138.42"/>
</g>
<!-- Node10 -->
<g id="node10" class="node">
<title>Node10</title>
<g id="a_node10"><a xlink:href="array_8h.html" target="_top" xlink:title=" ">
<polygon fill="white" stroke="#666666" points="168.5,-129 123.5,-129 123.5,-110 168.5,-110 168.5,-129"/>
<text text-anchor="middle" x="146" y="-117" font-family="Helvetica,sans-Serif" font-size="10.00">array.h</text>
</a>
</g>
</g>
<!-- Node2&#45;&gt;Node10 -->
<g id="edge9" class="edge">
<title>Node2&#45;&gt;Node10</title>
<path fill="none" stroke="#63b8ff" d="M406,-167.05C348.32,-156.73 235.98,-136.61 179.76,-126.54"/>
<polygon fill="#63b8ff" stroke="#63b8ff" points="180.6,-123.14 170.14,-124.82 179.37,-130.03 180.6,-123.14"/>
</g>
<!-- Node2&#45;&gt;Node12 -->
<g id="edge12" class="edge">
<title>Node2&#45;&gt;Node12</title>
<path fill="none" stroke="#63b8ff" d="M477.73,-166.41C522.48,-157.52 599.66,-142.2 652.46,-131.72"/>
<polygon fill="#63b8ff" stroke="#63b8ff" points="653.05,-135.17 662.18,-129.79 651.69,-128.31 653.05,-135.17"/>
</g>
<!-- Node13 -->
<g id="node13" class="node">
<title>Node13</title>
<g id="a_node13"><a xlink:title=" ">
<polygon fill="#e0e0e0" stroke="#999999" points="627,-129 587,-129 587,-110 627,-110 627,-129"/>
<text text-anchor="middle" x="607" y="-117" font-family="Helvetica,sans-Serif" font-size="10.00">utility</text>
</a>
</g>
</g>
<!-- Node2&#45;&gt;Node13 -->
<g id="edge16" class="edge">
<title>Node2&#45;&gt;Node13</title>
<path fill="none" stroke="#63b8ff" d="M469.99,-164.51C499.34,-155.08 545.35,-140.3 575.84,-130.51"/>
<polygon fill="#63b8ff" stroke="#63b8ff" points="576.8,-133.88 585.25,-127.48 574.66,-127.21 576.8,-133.88"/>
</g>
<!-- Node14 -->
<g id="node14" class="node">
<title>Node14</title>
<g id="a_node14"><a xlink:title=" ">
<polygon fill="#e0e0e0" stroke="#999999" points="467,-129 417,-129 417,-110 467,-110 467,-129"/>
<text text-anchor="middle" x="442" y="-117" font-family="Helvetica,sans-Serif" font-size="10.00">optional</text>
</a>
</g>
</g>
<!-- Node2&#45;&gt;Node14 -->
<g id="edge17" class="edge">
<title>Node2&#45;&gt;Node14</title>
<path fill="none" stroke="#63b8ff" d="M442,-164.75C442,-158.27 442,-149.16 442,-140.9"/>
<polygon fill="#63b8ff" stroke="#63b8ff" points="445.5,-140.96 442,-130.96 438.5,-140.96 445.5,-140.96"/>
</g>
<!-- Node15 -->
<g id="node15" class="node">
<title>Node15</title>
<g id="a_node15"><a xlink:href="position_8h.html" target="_top" xlink:title=" ">
<polygon fill="white" stroke="#666666" points="322.5,-129 263.5,-129 263.5,-110 322.5,-110 322.5,-129"/>
<text text-anchor="middle" x="293" y="-117" font-family="Helvetica,sans-Serif" font-size="10.00">position.h</text>
</a>
</g>
</g>
<!-- Node2&#45;&gt;Node15 -->
<g id="edge18" class="edge">
<title>Node2&#45;&gt;Node15</title>
<path fill="none" stroke="#63b8ff" d="M416.72,-164.51C392.5,-155.89 355.7,-142.8 328.53,-133.14"/>
<polygon fill="#63b8ff" stroke="#63b8ff" points="329.92,-129.92 319.33,-129.87 327.58,-136.51 329.92,-129.92"/>
</g>
<!-- Node4 -->
<g id="node4" class="node">
<title>Node4</title>
<g id="a_node4"><a xlink:title=" ">
<polygon fill="#e0e0e0" stroke="#999999" points="92,-19 38,-19 38,0 92,0 92,-19"/>
<text text-anchor="middle" x="65" y="-7" font-family="Helvetica,sans-Serif" font-size="10.00">iostream</text>
</a>
</g>
</g>
<!-- Node3&#45;&gt;Node4 -->
<g id="edge3" class="edge">
<title>Node3&#45;&gt;Node4</title>
<path fill="none" stroke="#63b8ff" d="M189.55,-54.51C165.24,-45.92 128.34,-32.88 101.01,-23.22"/>
<polygon fill="#63b8ff" stroke="#63b8ff" points="102.34,-19.98 91.75,-19.95 100.01,-26.58 102.34,-19.98"/>
</g>
<!-- Node5&#45;&gt;Node6 -->
<g id="edge5" class="edge">
<title>Node5&#45;&gt;Node6</title>
<path fill="none" stroke="#63b8ff" d="M286.7,-54.51C270.92,-46.31 247.36,-34.07 229.09,-24.58"/>
<polygon fill="#63b8ff" stroke="#63b8ff" points="230.88,-21.56 220.39,-20.06 227.65,-27.77 230.88,-21.56"/>
</g>
<!-- Node7 -->
<g id="node7" class="node">
<title>Node7</title>
<g id="a_node7"><a xlink:title=" ">
<polygon fill="#e0e0e0" stroke="#999999" points="729.5,-19 688.5,-19 688.5,0 729.5,0 729.5,-19"/>
<text text-anchor="middle" x="709" y="-7" font-family="Helvetica,sans-Serif" font-size="10.00">string</text>
</a>
</g>
</g>
<!-- Node5&#45;&gt;Node7 -->
<g id="edge6" class="edge">
<title>Node5&#45;&gt;Node7</title>
<path fill="none" stroke="#63b8ff" d="M338.18,-59.03C415.3,-48.94 601.9,-24.52 676.95,-14.69"/>
<polygon fill="#63b8ff" stroke="#63b8ff" points="677.04,-18.21 686.5,-13.44 676.13,-11.27 677.04,-18.21"/>
</g>
<!-- Node8 -->
<g id="node8" class="node">
<title>Node8</title>
<g id="a_node8"><a xlink:title=" ">
<polygon fill="#e0e0e0" stroke="#999999" points="330.5,-19 277.5,-19 277.5,0 330.5,0 330.5,-19"/>
<text text-anchor="middle" x="304" y="-7" font-family="Helvetica,sans-Serif" font-size="10.00">complex</text>
</a>
</g>
</g>
<!-- Node5&#45;&gt;Node8 -->
<g id="edge7" class="edge">
<title>Node5&#45;&gt;Node8</title>
<path fill="none" stroke="#63b8ff" d="M304,-54.75C304,-48.27 304,-39.16 304,-30.9"/>
<polygon fill="#63b8ff" stroke="#63b8ff" points="307.5,-30.96 304,-20.96 300.5,-30.96 307.5,-30.96"/>
</g>
<!-- Node10&#45;&gt;Node5 -->
<g id="edge10" class="edge">
<title>Node10&#45;&gt;Node5</title>
<path fill="none" stroke="#63b8ff" d="M168.97,-110.79C194.59,-102.2 236.39,-88.18 266.7,-78.01"/>
<polygon fill="#63b8ff" stroke="#63b8ff" points="267.5,-81.44 275.86,-74.94 265.27,-74.8 267.5,-81.44"/>
</g>
<!-- Node11 -->
<g id="node11" class="node">
<title>Node11</title>
<g id="a_node11"><a xlink:title=" ">
<polygon fill="#e0e0e0" stroke="#999999" points="160,-74 114,-74 114,-55 160,-55 160,-74"/>
<text text-anchor="middle" x="137" y="-62" font-family="Helvetica,sans-Serif" font-size="10.00">variant</text>
</a>
</g>
</g>
<!-- Node10&#45;&gt;Node11 -->
<g id="edge11" class="edge">
<title>Node10&#45;&gt;Node11</title>
<path fill="none" stroke="#63b8ff" d="M144.51,-109.75C143.4,-103.19 141.83,-93.95 140.41,-85.6"/>
<polygon fill="#63b8ff" stroke="#63b8ff" points="143.9,-85.21 138.77,-75.93 137,-86.38 143.9,-85.21"/>
</g>
<!-- Node12&#45;&gt;Node3 -->
<g id="edge15" class="edge">
<title>Node12&#45;&gt;Node3</title>
<path fill="none" stroke="#63b8ff" d="M644.52,-110.92C641.64,-110.6 638.79,-110.3 636,-110 473.08,-92.7 428.7,-97.03 262.96,-74.15"/>
<polygon fill="#63b8ff" stroke="#63b8ff" points="263.75,-70.73 253.36,-72.81 262.78,-77.66 263.75,-70.73"/>
</g>
<!-- Node12&#45;&gt;Node5 -->
<g id="edge14" class="edge">
<title>Node12&#45;&gt;Node5</title>
<path fill="none" stroke="#63b8ff" d="M644.83,-110.1C562.53,-99.33 421.85,-80.92 349.67,-71.48"/>
<polygon fill="#63b8ff" stroke="#63b8ff" points="350.15,-68.01 339.78,-70.18 349.24,-74.95 350.15,-68.01"/>
</g>
<!-- Node12&#45;&gt;Node7 -->
<g id="edge13" class="edge">
<title>Node12&#45;&gt;Node7</title>
<path fill="none" stroke="#63b8ff" d="M709,-109.66C709,-92.57 709,-54.61 709,-30.92"/>
<polygon fill="#63b8ff" stroke="#63b8ff" points="712.5,-30.97 709,-20.97 705.5,-30.97 712.5,-30.97"/>
</g>
<!-- Node16&#45;&gt;Node2 -->
<g id="edge25" class="edge">
<title>Node16&#45;&gt;Node2</title>
<path fill="none" stroke="#63b8ff" d="M351.97,-285.77C363.07,-277.34 379.68,-263.85 392,-250 407.65,-232.41 422.24,-209.63 431.58,-193.91"/>
<polygon fill="#63b8ff" stroke="#63b8ff" points="434.4,-196.02 436.39,-185.62 428.34,-192.51 434.4,-196.02"/>
</g>
<!-- Node16&#45;&gt;Node4 -->
<g id="edge23" class="edge">
<title>Node16&#45;&gt;Node4</title>
<path fill="none" stroke="#63b8ff" d="M286.14,-290.46C227.98,-284.97 140.47,-273.08 117,-250 56.12,-190.14 58.73,-76.97 62.71,-30.84"/>
<polygon fill="#63b8ff" stroke="#63b8ff" points="66.18,-31.29 63.69,-20.99 59.21,-30.59 66.18,-31.29"/>
</g>
<!-- Node16&#45;&gt;Node5 -->
<g id="edge26" class="edge">
<title>Node16&#45;&gt;Node5</title>
<path fill="none" stroke="#63b8ff" d="M339.54,-285.8C337.99,-263.68 331.36,-204.24 304,-165 288.34,-142.54 266.48,-153.37 254,-129 244.66,-110.77 262.23,-92.68 279.05,-80.51"/>
<polygon fill="#63b8ff" stroke="#63b8ff" points="280.55,-83.72 286.89,-75.23 276.64,-77.91 280.55,-83.72"/>
</g>
<!-- Node16&#45;&gt;Node7 -->
<g id="edge22" class="edge">
<title>Node16&#45;&gt;Node7</title>
<path fill="none" stroke="#63b8ff" d="M364.51,-285.53C456.88,-251.72 778.8,-133.61 782,-129 806.85,-93.16 760.38,-48.96 730.8,-26"/>
<polygon fill="#63b8ff" stroke="#63b8ff" points="733.22,-23.44 723.12,-20.24 729.02,-29.04 733.22,-23.44"/>
</g>
<!-- Node16&#45;&gt;Node10 -->
<g id="edge24" class="edge">
<title>Node16&#45;&gt;Node10</title>
<path fill="none" stroke="#63b8ff" d="M286.1,-290.45C231.32,-285.08 151.91,-273.41 133,-250 107.41,-218.32 124.3,-167.05 136.54,-139.48"/>
<polygon fill="#63b8ff" stroke="#63b8ff" points="139.62,-141.15 140.71,-130.62 133.29,-138.17 139.62,-141.15"/>
</g>
<!-- Node16&#45;&gt;Node15 -->
<g id="edge33" class="edge">
<title>Node16&#45;&gt;Node15</title>
<path fill="none" stroke="#63b8ff" d="M337.6,-285.63C330.34,-258.75 308.46,-177.73 298.29,-140.1"/>
<polygon fill="#63b8ff" stroke="#63b8ff" points="301.72,-139.35 295.73,-130.6 294.96,-141.17 301.72,-139.35"/>
</g>
<!-- Node17 -->
<g id="node17" class="node">
<title>Node17</title>
<g id="a_node17"><a xlink:title=" ">
<polygon fill="#e0e0e0" stroke="#999999" points="295,-184 243,-184 243,-165 295,-165 295,-184"/>
<text text-anchor="middle" x="269" y="-172" font-family="Helvetica,sans-Serif" font-size="10.00">memory</text>
</a>
</g>
</g>
<!-- Node16&#45;&gt;Node17 -->
<g id="edge27" class="edge">
<title>Node16&#45;&gt;Node17</title>
<path fill="none" stroke="#63b8ff" d="M334.66,-285.56C323.09,-266.16 295.5,-219.91 280.02,-193.97"/>
<polygon fill="#63b8ff" stroke="#63b8ff" points="283.11,-192.32 274.98,-185.52 277.1,-195.91 283.11,-192.32"/>
</g>
<!-- Node18 -->
<g id="node18" class="node">
<title>Node18</title>
<g id="a_node18"><a xlink:href="operation_8h.html" target="_top" xlink:title=" ">
<polygon fill="white" stroke="#666666" points="273.5,-250 142.5,-250 142.5,-220 273.5,-220 273.5,-250"/>
<text text-anchor="start" x="150.5" y="-238" font-family="Helvetica,sans-Serif" font-size="10.00">core/evaluation/operations</text>
<text text-anchor="middle" x="208" y="-227" font-family="Helvetica,sans-Serif" font-size="10.00">/operation.h</text>
</a>
</g>
</g>
<!-- Node16&#45;&gt;Node18 -->
<g id="edge28" class="edge">
<title>Node16&#45;&gt;Node18</title>
<path fill="none" stroke="#63b8ff" d="M319.95,-285.62C301.69,-277.52 274.11,-265.3 250.89,-255.01"/>
<polygon fill="#63b8ff" stroke="#63b8ff" points="252.53,-251.9 241.97,-251.05 249.69,-258.3 252.53,-251.9"/>
</g>
<!-- Node18&#45;&gt;Node2 -->
<g id="edge31" class="edge">
<title>Node18&#45;&gt;Node2</title>
<path fill="none" stroke="#63b8ff" d="M265.84,-219.54C305.7,-209.57 358,-196.5 395.23,-187.19"/>
<polygon fill="#63b8ff" stroke="#63b8ff" points="395.95,-190.62 404.8,-184.8 394.25,-183.83 395.95,-190.62"/>
</g>
<!-- Node18&#45;&gt;Node5 -->
<g id="edge29" class="edge">
<title>Node18&#45;&gt;Node5</title>
<path fill="none" stroke="#63b8ff" d="M205.46,-219.55C201.93,-194.82 198.31,-143.78 221,-110 230.63,-95.66 246.44,-85.58 261.7,-78.69"/>
<polygon fill="#63b8ff" stroke="#63b8ff" points="262.77,-82.03 270.69,-74.98 260.11,-75.56 262.77,-82.03"/>
</g>
<!-- Node18&#45;&gt;Node10 -->
<g id="edge30" class="edge">
<title>Node18&#45;&gt;Node10</title>
<path fill="none" stroke="#63b8ff" d="M200.15,-219.63C189,-199.21 168.57,-161.81 156.24,-139.24"/>
<polygon fill="#63b8ff" stroke="#63b8ff" points="159.36,-137.66 151.49,-130.56 153.22,-141.01 159.36,-137.66"/>
</g>
<!-- Node18&#45;&gt;Node17 -->
<g id="edge32" class="edge">
<title>Node18&#45;&gt;Node17</title>
<path fill="none" stroke="#63b8ff" d="M223.08,-219.54C231.76,-211.22 242.7,-200.72 251.72,-192.07"/>
<polygon fill="#63b8ff" stroke="#63b8ff" points="254.07,-194.67 258.86,-185.22 249.22,-189.62 254.07,-194.67"/>
</g>
<!-- Node19&#45;&gt;Node2 -->
<g id="edge36" class="edge">
<title>Node19&#45;&gt;Node2</title>
<path fill="none" stroke="#63b8ff" d="M591.27,-225.12C561.55,-215.24 513.32,-199.21 479.75,-188.05"/>
<polygon fill="#63b8ff" stroke="#63b8ff" points="481.01,-184.78 470.42,-184.95 478.8,-191.42 481.01,-184.78"/>
</g>
</g>
</svg>
