<?xml version="1.0" encoding="UTF-8" standalone="no"?>
<!DOCTYPE svg PUBLIC "-//W3C//DTD SVG 1.1//EN"
 "http://www.w3.org/Graphics/SVG/1.1/DTD/svg11.dtd">
<!-- Generated by graphviz version 7.1.0 (20230121.1956)
 -->
<!-- Title: src/core/evaluation/parser/parser.cpp Pages: 1 -->
<svg width="1158pt" height="489pt"
 viewBox="0.00 0.00 1157.76 489.00" xmlns="http://www.w3.org/2000/svg" xmlns:xlink="http://www.w3.org/1999/xlink">
<g id="graph0" class="graph" transform="scale(1 1) rotate(0) translate(4 485)">
<title>src/core/evaluation/parser/parser.cpp</title>
<!-- Node1 -->
<g id="node1" class="node">
<title>Node1</title>
<g id="a_node1"><a xlink:title=" ">
<polygon fill="#999999" stroke="#666666" points="796.5,-481 697.5,-481 697.5,-451 796.5,-451 796.5,-481"/>
<text text-anchor="start" x="705.5" y="-469" font-family="Helvetica,sans-Serif" font-size="10.00">src/core/evaluation</text>
<text text-anchor="middle" x="747" y="-458" font-family="Helvetica,sans-Serif" font-size="10.00">/parser/parser.cpp</text>
</a>
</g>
</g>
<!-- Node2 -->
<g id="node2" class="node">
<title>Node2</title>
<g id="a_node2"><a xlink:href="parser_8h.html" target="_top" xlink:title=" ">
<polygon fill="white" stroke="#666666" points="407.5,-360 356.5,-360 356.5,-341 407.5,-341 407.5,-360"/>
<text text-anchor="middle" x="382" y="-348" font-family="Helvetica,sans-Serif" font-size="10.00">parser.h</text>
</a>
</g>
</g>
<!-- Node1&#45;&gt;Node2 -->
<g id="edge1" class="edge">
<title>Node1&#45;&gt;Node2</title>
<path fill="none" stroke="#63b8ff" d="M700.4,-450.51C626.82,-427.63 485.25,-383.61 418.51,-362.85"/>
<polygon fill="#63b8ff" stroke="#63b8ff" points="419.74,-359.57 409.15,-359.94 417.66,-366.25 419.74,-359.57"/>
</g>
<!-- Node21 -->
<g id="node21" class="node">
<title>Node21</title>
<g id="a_node21"><a xlink:href="error_8h.html" target="_top" xlink:title=" ">
<polygon fill="white" stroke="#666666" points="137.5,-184 72.5,-184 72.5,-165 137.5,-165 137.5,-184"/>
<text text-anchor="middle" x="105" y="-172" font-family="Helvetica,sans-Serif" font-size="10.00">core/error.h</text>
</a>
</g>
</g>
<!-- Node1&#45;&gt;Node21 -->
<g id="edge38" class="edge">
<title>Node1&#45;&gt;Node21</title>
<path fill="none" stroke="#63b8ff" d="M697.12,-462.7C529.95,-454.33 0,-422.21 0,-351.5 0,-351.5 0,-351.5 0,-294.5 0,-247.22 47.18,-209.86 78.29,-190.36"/>
<polygon fill="#63b8ff" stroke="#63b8ff" points="80.06,-193.37 86.83,-185.22 76.46,-187.37 80.06,-193.37"/>
</g>
<!-- Node24 -->
<g id="node24" class="node">
<title>Node24</title>
<g id="a_node24"><a xlink:href="symbol__table_8h.html" target="_top" xlink:title=" ">
<polygon fill="white" stroke="#666666" points="926,-415 822,-415 822,-396 926,-396 926,-415"/>
<text text-anchor="middle" x="874" y="-403" font-family="Helvetica,sans-Serif" font-size="10.00">core/symbol_table.h</text>
</a>
</g>
</g>
<!-- Node1&#45;&gt;Node24 -->
<g id="edge46" class="edge">
<title>Node1&#45;&gt;Node24</title>
<path fill="none" stroke="#63b8ff" d="M778.39,-450.54C798.6,-441.23 824.69,-429.22 844.51,-420.09"/>
<polygon fill="#63b8ff" stroke="#63b8ff" points="845.8,-423.34 853.42,-415.98 842.87,-416.98 845.8,-423.34"/>
</g>
<!-- Node27 -->
<g id="node27" class="node">
<title>Node27</title>
<g id="a_node27"><a xlink:href="literals_8h.html" target="_top" xlink:title=" ">
<polygon fill="white" stroke="#666666" points="1120.5,-360 999.5,-360 999.5,-341 1120.5,-341 1120.5,-360"/>
<text text-anchor="middle" x="1060" y="-348" font-family="Helvetica,sans-Serif" font-size="10.00">core/constants/literals.h</text>
</a>
</g>
</g>
<!-- Node1&#45;&gt;Node27 -->
<g id="edge57" class="edge">
<title>Node1&#45;&gt;Node27</title>
<path fill="none" stroke="#63b8ff" d="M796.98,-454.72C835.39,-446.1 889.41,-432.42 935,-415 971.05,-401.23 1010.39,-380.16 1035.12,-366.11"/>
<polygon fill="#63b8ff" stroke="#63b8ff" points="1036.84,-369.16 1043.77,-361.14 1033.35,-363.09 1036.84,-369.16"/>
</g>
<!-- Node3 -->
<g id="node3" class="node">
<title>Node3</title>
<g id="a_node3"><a xlink:href="token_8h.html" target="_top" xlink:title=" ">
<polygon fill="white" stroke="#666666" points="509.5,-184 438.5,-184 438.5,-165 509.5,-165 509.5,-184"/>
<text text-anchor="middle" x="474" y="-172" font-family="Helvetica,sans-Serif" font-size="10.00">core/token.h</text>
</a>
</g>
</g>
<!-- Node2&#45;&gt;Node3 -->
<g id="edge2" class="edge">
<title>Node2&#45;&gt;Node3</title>
<path fill="none" stroke="#63b8ff" d="M390.18,-340.63C405.03,-324.06 436.49,-286.77 454,-250 462.37,-232.43 467.68,-210.8 470.71,-195.38"/>
<polygon fill="#63b8ff" stroke="#63b8ff" points="474.14,-196.07 472.47,-185.61 467.25,-194.83 474.14,-196.07"/>
</g>
<!-- Node4 -->
<g id="node4" class="node">
<title>Node4</title>
<g id="a_node4"><a xlink:href="token__type_8h.html" target="_top" xlink:title=" ">
<polygon fill="white" stroke="#666666" points="449.5,-74 376.5,-74 376.5,-55 449.5,-55 449.5,-74"/>
<text text-anchor="middle" x="413" y="-62" font-family="Helvetica,sans-Serif" font-size="10.00">token_type.h</text>
</a>
</g>
</g>
<!-- Node2&#45;&gt;Node4 -->
<g id="edge21" class="edge">
<title>Node2&#45;&gt;Node4</title>
<path fill="none" stroke="#63b8ff" d="M356.11,-346.74C302.44,-339.44 184,-314.45 184,-236 184,-236 184,-236 184,-173.5 184,-144.04 181.33,-129.96 203,-110 226.22,-88.61 310.71,-76.04 365.18,-69.98"/>
<polygon fill="#63b8ff" stroke="#63b8ff" points="365.24,-73.5 374.81,-68.95 364.5,-66.54 365.24,-73.5"/>
</g>
<!-- Node7 -->
<g id="node7" class="node">
<title>Node7</title>
<g id="a_node7"><a xlink:title=" ">
<polygon fill="#e0e0e0" stroke="#999999" points="566,-19 522,-19 522,0 566,0 566,-19"/>
<text text-anchor="middle" x="544" y="-7" font-family="Helvetica,sans-Serif" font-size="10.00">vector</text>
</a>
</g>
</g>
<!-- Node2&#45;&gt;Node7 -->
<g id="edge20" class="edge">
<title>Node2&#45;&gt;Node7</title>
<path fill="none" stroke="#63b8ff" d="M356.06,-347.04C319.63,-342.74 252.08,-331.62 201,-305 103.56,-254.21 -13.21,-200.58 49,-110 87.55,-53.87 125.96,-71.61 192,-55 251.96,-39.91 434.36,-21.12 510.28,-13.71"/>
<polygon fill="#63b8ff" stroke="#63b8ff" points="510.39,-17.22 520.01,-12.77 509.72,-10.25 510.39,-17.22"/>
</g>
<!-- Node13 -->
<g id="node13" class="node">
<title>Node13</title>
<g id="a_node13"><a xlink:href="conversion_8h.html" target="_top" xlink:title=" ">
<polygon fill="white" stroke="#666666" points="538,-129 410,-129 410,-110 538,-110 538,-129"/>
<text text-anchor="middle" x="474" y="-117" font-family="Helvetica,sans-Serif" font-size="10.00">core/helpers/conversion.h</text>
</a>
</g>
</g>
<!-- Node2&#45;&gt;Node13 -->
<g id="edge35" class="edge">
<title>Node2&#45;&gt;Node13</title>
<path fill="none" stroke="#63b8ff" d="M370.34,-340.69C344.07,-319.73 284.51,-265.28 310,-220 335.63,-174.47 391.44,-147.38 430.81,-133.22"/>
<polygon fill="#63b8ff" stroke="#63b8ff" points="431.94,-136.54 440.26,-129.98 429.67,-129.91 431.94,-136.54"/>
</g>
<!-- Node17 -->
<g id="node17" class="node">
<title>Node17</title>
<g id="a_node17"><a xlink:href="ast_8h.html" target="_top" xlink:title=" ">
<polygon fill="white" stroke="#666666" points="716.5,-305 609.5,-305 609.5,-286 716.5,-286 716.5,-305"/>
<text text-anchor="middle" x="663" y="-293" font-family="Helvetica,sans-Serif" font-size="10.00">core/evaluation/ast.h</text>
</a>
</g>
</g>
<!-- Node2&#45;&gt;Node17 -->
<g id="edge22" class="edge">
<title>Node2&#45;&gt;Node17</title>
<path fill="none" stroke="#63b8ff" d="M407.93,-344.61C452.22,-336.26 543.52,-319.04 604,-307.63"/>
<polygon fill="#63b8ff" stroke="#63b8ff" points="604.63,-311.07 613.81,-305.78 603.33,-304.19 604.63,-311.07"/>
</g>
<!-- Node20 -->
<g id="node20" class="node">
<title>Node20</title>
<g id="a_node20"><a xlink:href="classifiers_8h.html" target="_top" xlink:title=" ">
<polygon fill="white" stroke="#666666" points="444.5,-244.5 319.5,-244.5 319.5,-225.5 444.5,-225.5 444.5,-244.5"/>
<text text-anchor="middle" x="382" y="-232.5" font-family="Helvetica,sans-Serif" font-size="10.00">core/helpers/classifiers.h</text>
</a>
</g>
</g>
<!-- Node2&#45;&gt;Node20 -->
<g id="edge36" class="edge">
<title>Node2&#45;&gt;Node20</title>
<path fill="none" stroke="#63b8ff" d="M382,-340.59C382,-322.53 382,-281.17 382,-256.21"/>
<polygon fill="#63b8ff" stroke="#63b8ff" points="385.5,-256.38 382,-246.38 378.5,-256.38 385.5,-256.38"/>
</g>
<!-- Node3&#45;&gt;Node4 -->
<g id="edge3" class="edge">
<title>Node3&#45;&gt;Node4</title>
<path fill="none" stroke="#63b8ff" d="M446.7,-164.63C430.28,-157.72 410.74,-146.34 401,-129 393.35,-115.38 397.57,-97.79 403.01,-84.58"/>
<polygon fill="#63b8ff" stroke="#63b8ff" points="406.11,-86.22 407.2,-75.68 399.78,-83.24 406.11,-86.22"/>
</g>
<!-- Node6 -->
<g id="node6" class="node">
<title>Node6</title>
<g id="a_node6"><a xlink:href="datatypes_8h.html" target="_top" xlink:title=" ">
<polygon fill="white" stroke="#666666" points="740,-74 672,-74 672,-55 740,-55 740,-74"/>
<text text-anchor="middle" x="706" y="-62" font-family="Helvetica,sans-Serif" font-size="10.00">datatypes.h</text>
</a>
</g>
</g>
<!-- Node3&#45;&gt;Node6 -->
<g id="edge5" class="edge">
<title>Node3&#45;&gt;Node6</title>
<path fill="none" stroke="#63b8ff" d="M492.99,-164.66C533.35,-145.87 627.93,-101.84 676.33,-79.31"/>
<polygon fill="#63b8ff" stroke="#63b8ff" points="677.79,-82.49 685.38,-75.1 674.84,-76.15 677.79,-82.49"/>
</g>
<!-- Node10 -->
<g id="node10" class="node">
<title>Node10</title>
<g id="a_node10"><a xlink:title=" ">
<polygon fill="#e0e0e0" stroke="#999999" points="295.5,-129 212.5,-129 212.5,-110 295.5,-110 295.5,-129"/>
<text text-anchor="middle" x="254" y="-117" font-family="Helvetica,sans-Serif" font-size="10.00">uni_algo/conv.h</text>
</a>
</g>
</g>
<!-- Node3&#45;&gt;Node10 -->
<g id="edge9" class="edge">
<title>Node3&#45;&gt;Node10</title>
<path fill="none" stroke="#63b8ff" d="M438.16,-164.87C401.21,-155.97 343.37,-142.03 302.38,-132.15"/>
<polygon fill="#63b8ff" stroke="#63b8ff" points="303.31,-128.78 292.76,-129.84 301.67,-135.58 303.31,-128.78"/>
</g>
<!-- Node11 -->
<g id="node11" class="node">
<title>Node11</title>
<g id="a_node11"><a xlink:href="array_8h.html" target="_top" xlink:title=" ">
<polygon fill="white" stroke="#666666" points="906.5,-129 861.5,-129 861.5,-110 906.5,-110 906.5,-129"/>
<text text-anchor="middle" x="884" y="-117" font-family="Helvetica,sans-Serif" font-size="10.00">array.h</text>
</a>
</g>
</g>
<!-- Node3&#45;&gt;Node11 -->
<g id="edge10" class="edge">
<title>Node3&#45;&gt;Node11</title>
<path fill="none" stroke="#63b8ff" d="M509.82,-170.43C576.36,-164.45 723.39,-149.99 846,-129 847.39,-128.76 848.8,-128.51 850.22,-128.24"/>
<polygon fill="#63b8ff" stroke="#63b8ff" points="850.59,-131.74 859.68,-126.3 849.18,-124.88 850.59,-131.74"/>
</g>
<!-- Node3&#45;&gt;Node13 -->
<g id="edge13" class="edge">
<title>Node3&#45;&gt;Node13</title>
<path fill="none" stroke="#63b8ff" d="M474,-164.75C474,-158.27 474,-149.16 474,-140.9"/>
<polygon fill="#63b8ff" stroke="#63b8ff" points="477.5,-140.96 474,-130.96 470.5,-140.96 477.5,-140.96"/>
</g>
<!-- Node14 -->
<g id="node14" class="node">
<title>Node14</title>
<g id="a_node14"><a xlink:title=" ">
<polygon fill="#e0e0e0" stroke="#999999" points="354,-129 314,-129 314,-110 354,-110 354,-129"/>
<text text-anchor="middle" x="334" y="-117" font-family="Helvetica,sans-Serif" font-size="10.00">utility</text>
</a>
</g>
</g>
<!-- Node3&#45;&gt;Node14 -->
<g id="edge17" class="edge">
<title>Node3&#45;&gt;Node14</title>
<path fill="none" stroke="#63b8ff" d="M450.25,-164.51C426.74,-155.61 390.62,-141.94 364.89,-132.19"/>
<polygon fill="#63b8ff" stroke="#63b8ff" points="366.23,-128.96 355.64,-128.69 363.75,-135.51 366.23,-128.96"/>
</g>
<!-- Node15 -->
<g id="node15" class="node">
<title>Node15</title>
<g id="a_node15"><a xlink:title=" ">
<polygon fill="#e0e0e0" stroke="#999999" points="837,-129 787,-129 787,-110 837,-110 837,-129"/>
<text text-anchor="middle" x="812" y="-117" font-family="Helvetica,sans-Serif" font-size="10.00">optional</text>
</a>
</g>
</g>
<!-- Node3&#45;&gt;Node15 -->
<g id="edge18" class="edge">
<title>Node3&#45;&gt;Node15</title>
<path fill="none" stroke="#63b8ff" d="M509.85,-167.88C574.47,-157.75 709.81,-136.52 775.15,-126.28"/>
<polygon fill="#63b8ff" stroke="#63b8ff" points="775.67,-129.74 785.01,-124.73 774.59,-122.82 775.67,-129.74"/>
</g>
<!-- Node16 -->
<g id="node16" class="node">
<title>Node16</title>
<g id="a_node16"><a xlink:href="position_8h.html" target="_top" xlink:title=" ">
<polygon fill="white" stroke="#666666" points="691.5,-129 632.5,-129 632.5,-110 691.5,-110 691.5,-129"/>
<text text-anchor="middle" x="662" y="-117" font-family="Helvetica,sans-Serif" font-size="10.00">position.h</text>
</a>
</g>
</g>
<!-- Node3&#45;&gt;Node16 -->
<g id="edge19" class="edge">
<title>Node3&#45;&gt;Node16</title>
<path fill="none" stroke="#63b8ff" d="M505.89,-164.51C537.75,-155.53 586.83,-141.69 621.44,-131.93"/>
<polygon fill="#63b8ff" stroke="#63b8ff" points="622,-135.41 630.67,-129.33 620.1,-128.68 622,-135.41"/>
</g>
<!-- Node5 -->
<g id="node5" class="node">
<title>Node5</title>
<g id="a_node5"><a xlink:title=" ">
<polygon fill="#e0e0e0" stroke="#999999" points="440,-19 386,-19 386,0 440,0 440,-19"/>
<text text-anchor="middle" x="413" y="-7" font-family="Helvetica,sans-Serif" font-size="10.00">iostream</text>
</a>
</g>
</g>
<!-- Node4&#45;&gt;Node5 -->
<g id="edge4" class="edge">
<title>Node4&#45;&gt;Node5</title>
<path fill="none" stroke="#63b8ff" d="M413,-54.75C413,-48.27 413,-39.16 413,-30.9"/>
<polygon fill="#63b8ff" stroke="#63b8ff" points="416.5,-30.96 413,-20.96 409.5,-30.96 416.5,-30.96"/>
</g>
<!-- Node6&#45;&gt;Node7 -->
<g id="edge6" class="edge">
<title>Node6&#45;&gt;Node7</title>
<path fill="none" stroke="#63b8ff" d="M678.52,-54.51C650.5,-45.34 607.03,-31.12 577.12,-21.34"/>
<polygon fill="#63b8ff" stroke="#63b8ff" points="578.42,-18.08 567.83,-18.3 576.24,-24.73 578.42,-18.08"/>
</g>
<!-- Node8 -->
<g id="node8" class="node">
<title>Node8</title>
<g id="a_node8"><a xlink:title=" ">
<polygon fill="#e0e0e0" stroke="#999999" points="758.5,-19 717.5,-19 717.5,0 758.5,0 758.5,-19"/>
<text text-anchor="middle" x="738" y="-7" font-family="Helvetica,sans-Serif" font-size="10.00">string</text>
</a>
</g>
</g>
<!-- Node6&#45;&gt;Node8 -->
<g id="edge7" class="edge">
<title>Node6&#45;&gt;Node8</title>
<path fill="none" stroke="#63b8ff" d="M711.28,-54.75C715.47,-47.81 721.48,-37.86 726.73,-29.16"/>
<polygon fill="#63b8ff" stroke="#63b8ff" points="729.65,-31.11 731.82,-20.74 723.65,-27.49 729.65,-31.11"/>
</g>
<!-- Node9 -->
<g id="node9" class="node">
<title>Node9</title>
<g id="a_node9"><a xlink:title=" ">
<polygon fill="#e0e0e0" stroke="#999999" points="699.5,-19 646.5,-19 646.5,0 699.5,0 699.5,-19"/>
<text text-anchor="middle" x="673" y="-7" font-family="Helvetica,sans-Serif" font-size="10.00">complex</text>
</a>
</g>
</g>
<!-- Node6&#45;&gt;Node9 -->
<g id="edge8" class="edge">
<title>Node6&#45;&gt;Node9</title>
<path fill="none" stroke="#63b8ff" d="M700.55,-54.75C696.23,-47.81 690.04,-37.86 684.62,-29.16"/>
<polygon fill="#63b8ff" stroke="#63b8ff" points="687.62,-27.37 679.37,-20.73 681.68,-31.07 687.62,-27.37"/>
</g>
<!-- Node11&#45;&gt;Node6 -->
<g id="edge11" class="edge">
<title>Node11&#45;&gt;Node6</title>
<path fill="none" stroke="#63b8ff" d="M861.09,-111.68C832.29,-103.1 782.32,-88.22 746.89,-77.67"/>
<polygon fill="#63b8ff" stroke="#63b8ff" points="747.97,-74.35 737.39,-74.85 745.98,-81.06 747.97,-74.35"/>
</g>
<!-- Node12 -->
<g id="node12" class="node">
<title>Node12</title>
<g id="a_node12"><a xlink:title=" ">
<polygon fill="#e0e0e0" stroke="#999999" points="907,-74 861,-74 861,-55 907,-55 907,-74"/>
<text text-anchor="middle" x="884" y="-62" font-family="Helvetica,sans-Serif" font-size="10.00">variant</text>
</a>
</g>
</g>
<!-- Node11&#45;&gt;Node12 -->
<g id="edge12" class="edge">
<title>Node11&#45;&gt;Node12</title>
<path fill="none" stroke="#63b8ff" d="M884,-109.75C884,-103.27 884,-94.16 884,-85.9"/>
<polygon fill="#63b8ff" stroke="#63b8ff" points="887.5,-85.96 884,-75.96 880.5,-85.96 887.5,-85.96"/>
</g>
<!-- Node13&#45;&gt;Node4 -->
<g id="edge16" class="edge">
<title>Node13&#45;&gt;Node4</title>
<path fill="none" stroke="#63b8ff" d="M463.65,-109.51C454.92,-101.93 442.21,-90.88 431.7,-81.75"/>
<polygon fill="#63b8ff" stroke="#63b8ff" points="434.18,-79.27 424.34,-75.35 429.59,-84.55 434.18,-79.27"/>
</g>
<!-- Node13&#45;&gt;Node6 -->
<g id="edge15" class="edge">
<title>Node13&#45;&gt;Node6</title>
<path fill="none" stroke="#63b8ff" d="M513.36,-109.51C554.18,-100.18 617.93,-85.62 660.79,-75.83"/>
<polygon fill="#63b8ff" stroke="#63b8ff" points="661.31,-79.3 670.28,-73.66 659.75,-72.48 661.31,-79.3"/>
</g>
<!-- Node13&#45;&gt;Node8 -->
<g id="edge14" class="edge">
<title>Node13&#45;&gt;Node8</title>
<path fill="none" stroke="#63b8ff" d="M495.6,-109.66C542.26,-90.57 652.61,-45.43 706.83,-23.25"/>
<polygon fill="#63b8ff" stroke="#63b8ff" points="707.87,-26.61 715.8,-19.58 705.22,-20.13 707.87,-26.61"/>
</g>
<!-- Node17&#45;&gt;Node3 -->
<g id="edge26" class="edge">
<title>Node17&#45;&gt;Node3</title>
<path fill="none" stroke="#63b8ff" d="M619.02,-285.58C592.94,-278.8 560.17,-267.58 535,-250 513.64,-235.08 495.68,-210.71 484.89,-193.93"/>
<polygon fill="#63b8ff" stroke="#63b8ff" points="487.9,-192.14 479.67,-185.46 481.94,-195.81 487.9,-192.14"/>
</g>
<!-- Node17&#45;&gt;Node5 -->
<g id="edge24" class="edge">
<title>Node17&#45;&gt;Node5</title>
<path fill="none" stroke="#63b8ff" d="M644.41,-285.56C630.22,-277.89 611.11,-265.62 599,-250 558.33,-197.54 586.84,-163.09 547,-110 518.21,-71.65 470.65,-41.3 440.61,-24.64"/>
<polygon fill="#63b8ff" stroke="#63b8ff" points="442.57,-21.72 432.11,-20.04 439.24,-27.88 442.57,-21.72"/>
</g>
<!-- Node17&#45;&gt;Node6 -->
<g id="edge27" class="edge">
<title>Node17&#45;&gt;Node6</title>
<path fill="none" stroke="#63b8ff" d="M660.54,-285.52C655.05,-263.74 643.69,-206.81 662,-165 671.46,-143.39 690.7,-150.22 701,-129 707.52,-115.57 708.55,-98.65 708.07,-85.65"/>
<polygon fill="#63b8ff" stroke="#63b8ff" points="711.57,-85.46 707.35,-75.74 704.59,-85.97 711.57,-85.46"/>
</g>
<!-- Node17&#45;&gt;Node8 -->
<g id="edge23" class="edge">
<title>Node17&#45;&gt;Node8</title>
<path fill="none" stroke="#63b8ff" d="M716.93,-294.35C759.16,-291.58 817.23,-281.6 857,-250 903.85,-212.79 902.54,-187.3 916,-129 923.4,-96.95 936.24,-80.92 916,-55 898.24,-32.25 816.42,-19.41 770.14,-13.85"/>
<polygon fill="#63b8ff" stroke="#63b8ff" points="770.77,-10.4 760.43,-12.73 769.97,-17.35 770.77,-10.4"/>
</g>
<!-- Node17&#45;&gt;Node11 -->
<g id="edge25" class="edge">
<title>Node17&#45;&gt;Node11</title>
<path fill="none" stroke="#63b8ff" d="M716.82,-292.6C753.28,-288.63 800.38,-277.91 832,-250 864.6,-221.22 877.05,-169.13 881.58,-140.57"/>
<polygon fill="#63b8ff" stroke="#63b8ff" points="885.03,-141.15 882.94,-130.77 878.1,-140.19 885.03,-141.15"/>
</g>
<!-- Node17&#45;&gt;Node16 -->
<g id="edge34" class="edge">
<title>Node17&#45;&gt;Node16</title>
<path fill="none" stroke="#63b8ff" d="M646.47,-285.64C634.15,-278.02 618.26,-265.76 611,-250 595.04,-215.34 605.82,-199.06 623,-165 628.18,-154.74 636.28,-144.95 643.76,-137.17"/>
<polygon fill="#63b8ff" stroke="#63b8ff" points="645.98,-139.9 650.67,-130.4 641.08,-134.9 645.98,-139.9"/>
</g>
<!-- Node18 -->
<g id="node18" class="node">
<title>Node18</title>
<g id="a_node18"><a xlink:title=" ">
<polygon fill="#e0e0e0" stroke="#999999" points="723,-184 671,-184 671,-165 723,-165 723,-184"/>
<text text-anchor="middle" x="697" y="-172" font-family="Helvetica,sans-Serif" font-size="10.00">memory</text>
</a>
</g>
</g>
<!-- Node17&#45;&gt;Node18 -->
<g id="edge28" class="edge">
<title>Node17&#45;&gt;Node18</title>
<path fill="none" stroke="#63b8ff" d="M665.22,-285.75C668.79,-271.79 676.11,-243.66 683,-220 685.38,-211.84 688.16,-202.88 690.62,-195.16"/>
<polygon fill="#63b8ff" stroke="#63b8ff" points="693.91,-196.36 693.64,-185.77 687.24,-194.22 693.91,-196.36"/>
</g>
<!-- Node19 -->
<g id="node19" class="node">
<title>Node19</title>
<g id="a_node19"><a xlink:href="operation_8h.html" target="_top" xlink:title=" ">
<polygon fill="white" stroke="#666666" points="822.5,-250 691.5,-250 691.5,-220 822.5,-220 822.5,-250"/>
<text text-anchor="start" x="699.5" y="-238" font-family="Helvetica,sans-Serif" font-size="10.00">core/evaluation/operations</text>
<text text-anchor="middle" x="757" y="-227" font-family="Helvetica,sans-Serif" font-size="10.00">/operation.h</text>
</a>
</g>
</g>
<!-- Node17&#45;&gt;Node19 -->
<g id="edge29" class="edge">
<title>Node17&#45;&gt;Node19</title>
<path fill="none" stroke="#63b8ff" d="M677.28,-285.62C689.7,-277.89 708.17,-266.39 724.2,-256.41"/>
<polygon fill="#63b8ff" stroke="#63b8ff" points="725.87,-259.49 732.51,-251.24 722.17,-253.55 725.87,-259.49"/>
</g>
<!-- Node19&#45;&gt;Node3 -->
<g id="edge32" class="edge">
<title>Node19&#45;&gt;Node3</title>
<path fill="none" stroke="#63b8ff" d="M691.01,-220.36C638.91,-209.59 567.5,-194.83 521.06,-185.23"/>
<polygon fill="#63b8ff" stroke="#63b8ff" points="521.8,-181.81 511.3,-183.21 520.39,-188.66 521.8,-181.81"/>
</g>
<!-- Node19&#45;&gt;Node6 -->
<g id="edge30" class="edge">
<title>Node19&#45;&gt;Node6</title>
<path fill="none" stroke="#63b8ff" d="M756.11,-219.76C754.25,-196.2 748.82,-147.93 734,-110 730.44,-100.88 724.95,-91.59 719.77,-83.88"/>
<polygon fill="#63b8ff" stroke="#63b8ff" points="722.62,-81.86 713.98,-75.73 716.92,-85.91 722.62,-81.86"/>
</g>
<!-- Node19&#45;&gt;Node11 -->
<g id="edge31" class="edge">
<title>Node19&#45;&gt;Node11</title>
<path fill="none" stroke="#63b8ff" d="M773.08,-219.63C796.76,-198.47 840.86,-159.05 865.73,-136.83"/>
<polygon fill="#63b8ff" stroke="#63b8ff" points="867.98,-139.51 873.1,-130.24 863.32,-134.29 867.98,-139.51"/>
</g>
<!-- Node19&#45;&gt;Node18 -->
<g id="edge33" class="edge">
<title>Node19&#45;&gt;Node18</title>
<path fill="none" stroke="#63b8ff" d="M742.17,-219.54C733.63,-211.22 722.87,-200.72 713.99,-192.07"/>
<polygon fill="#63b8ff" stroke="#63b8ff" points="716.58,-189.71 706.98,-185.23 711.7,-194.72 716.58,-189.71"/>
</g>
<!-- Node20&#45;&gt;Node3 -->
<g id="edge37" class="edge">
<title>Node20&#45;&gt;Node3</title>
<path fill="none" stroke="#63b8ff" d="M395.97,-225.12C410.43,-215.92 433.26,-201.41 450.5,-190.44"/>
<polygon fill="#63b8ff" stroke="#63b8ff" points="452.06,-193.6 458.62,-185.28 448.3,-187.69 452.06,-193.6"/>
</g>
<!-- Node21&#45;&gt;Node5 -->
<g id="edge39" class="edge">
<title>Node21&#45;&gt;Node5</title>
<path fill="none" stroke="#63b8ff" d="M86.99,-164.62C65.59,-152.84 34.52,-131.08 49,-110 86.19,-55.84 288.54,-25.47 374.42,-14.86"/>
<polygon fill="#63b8ff" stroke="#63b8ff" points="374.73,-18.35 384.24,-13.67 373.89,-11.4 374.73,-18.35"/>
</g>
<!-- Node21&#45;&gt;Node6 -->
<g id="edge44" class="edge">
<title>Node21&#45;&gt;Node6</title>
<path fill="none" stroke="#63b8ff" d="M90,-164.63C70.31,-151.92 40.12,-128.08 57,-110 77.59,-87.95 516.22,-71.7 660.47,-66.93"/>
<polygon fill="#63b8ff" stroke="#63b8ff" points="660.53,-70.43 670.41,-66.61 660.3,-63.44 660.53,-70.43"/>
</g>
<!-- Node21&#45;&gt;Node10 -->
<g id="edge45" class="edge">
<title>Node21&#45;&gt;Node10</title>
<path fill="none" stroke="#63b8ff" d="M130.28,-164.51C154.5,-155.89 191.3,-142.8 218.47,-133.14"/>
<polygon fill="#63b8ff" stroke="#63b8ff" points="219.42,-136.51 227.67,-129.87 217.08,-129.92 219.42,-136.51"/>
</g>
<!-- Node21&#45;&gt;Node14 -->
<g id="edge41" class="edge">
<title>Node21&#45;&gt;Node14</title>
<path fill="none" stroke="#63b8ff" d="M137.88,-166.74C175.29,-158.92 238.44,-145.32 302.57,-129.23"/>
<polygon fill="#63b8ff" stroke="#63b8ff" points="303.4,-132.63 312.24,-126.79 301.69,-125.85 303.4,-132.63"/>
</g>
<!-- Node22 -->
<g id="node22" class="node">
<title>Node22</title>
<g id="a_node22"><a xlink:title=" ">
<polygon fill="#e0e0e0" stroke="#999999" points="118,-129 66,-129 66,-110 118,-110 118,-129"/>
<text text-anchor="middle" x="92" y="-117" font-family="Helvetica,sans-Serif" font-size="10.00">sstream</text>
</a>
</g>
</g>
<!-- Node21&#45;&gt;Node22 -->
<g id="edge40" class="edge">
<title>Node21&#45;&gt;Node22</title>
<path fill="none" stroke="#63b8ff" d="M102.85,-164.75C101.24,-158.19 98.98,-148.95 96.93,-140.6"/>
<polygon fill="#63b8ff" stroke="#63b8ff" points="100.34,-139.79 94.55,-130.91 93.54,-141.46 100.34,-139.79"/>
</g>
<!-- Node23 -->
<g id="node23" class="node">
<title>Node23</title>
<g id="a_node23"><a xlink:href="error__type_8h.html" target="_top" xlink:title=" ">
<polygon fill="white" stroke="#666666" points="269,-74 201,-74 201,-55 269,-55 269,-74"/>
<text text-anchor="middle" x="235" y="-62" font-family="Helvetica,sans-Serif" font-size="10.00">error_type.h</text>
</a>
</g>
</g>
<!-- Node21&#45;&gt;Node23 -->
<g id="edge42" class="edge">
<title>Node21&#45;&gt;Node23</title>
<path fill="none" stroke="#63b8ff" d="M112.98,-164.8C124.83,-152.09 148.05,-128.01 170,-110 183.02,-99.32 198.54,-88.63 211.16,-80.4"/>
<polygon fill="#63b8ff" stroke="#63b8ff" points="212.74,-83.54 219.27,-75.19 208.96,-77.64 212.74,-83.54"/>
</g>
<!-- Node23&#45;&gt;Node8 -->
<g id="edge43" class="edge">
<title>Node23&#45;&gt;Node8</title>
<path fill="none" stroke="#63b8ff" d="M269.5,-61.12C360.21,-54.74 604.86,-36.65 705.9,-19.18"/>
<polygon fill="#63b8ff" stroke="#63b8ff" points="706.51,-22.63 715.72,-17.38 705.25,-15.74 706.51,-22.63"/>
</g>
<!-- Node24&#45;&gt;Node8 -->
<g id="edge48" class="edge">
<title>Node24&#45;&gt;Node8</title>
<path fill="none" stroke="#63b8ff" d="M926.37,-401.79C992.31,-397.32 1100.57,-386.13 1130,-360 1152.03,-340.44 1149,-325.96 1149,-296.5 1149,-296.5 1149,-296.5 1149,-118.5 1149,-40.32 867.31,-17.57 770.34,-12.05"/>
<polygon fill="#63b8ff" stroke="#63b8ff" points="770.63,-8.56 760.46,-11.51 770.25,-15.55 770.63,-8.56"/>
</g>
<!-- Node24&#45;&gt;Node11 -->
<g id="edge49" class="edge">
<title>Node24&#45;&gt;Node11</title>
<path fill="none" stroke="#63b8ff" d="M884.79,-395.55C893.74,-387.36 905.81,-374.36 911,-360 916.73,-344.15 948.93,-377.13 902,-165 900.11,-156.46 896.75,-147.45 893.43,-139.78"/>
<polygon fill="#63b8ff" stroke="#63b8ff" points="896.65,-138.4 889.28,-130.79 890.3,-141.34 896.65,-138.4"/>
</g>
<!-- Node24&#45;&gt;Node17 -->
<g id="edge50" class="edge">
<title>Node24&#45;&gt;Node17</title>
<path fill="none" stroke="#63b8ff" d="M856.73,-395.66C820.18,-376.95 734.73,-333.21 690.54,-310.6"/>
<polygon fill="#63b8ff" stroke="#63b8ff" points="692.35,-307.59 681.85,-306.15 689.16,-313.82 692.35,-307.59"/>
</g>
<!-- Node24&#45;&gt;Node21 -->
<g id="edge51" class="edge">
<title>Node24&#45;&gt;Node21</title>
<path fill="none" stroke="#63b8ff" d="M821.73,-404.11C675.84,-401.97 268.43,-388.49 170,-305 135.41,-275.66 117.3,-223.4 109.61,-195.07"/>
<polygon fill="#63b8ff" stroke="#63b8ff" points="113.08,-194.52 107.24,-185.68 106.3,-196.24 113.08,-194.52"/>
</g>
<!-- Node25 -->
<g id="node25" class="node">
<title>Node25</title>
<g id="a_node25"><a xlink:title=" ">
<polygon fill="#e0e0e0" stroke="#999999" points="1031.5,-305 996.5,-305 996.5,-286 1031.5,-286 1031.5,-305"/>
<text text-anchor="middle" x="1014" y="-293" font-family="Helvetica,sans-Serif" font-size="10.00">map</text>
</a>
</g>
</g>
<!-- Node24&#45;&gt;Node25 -->
<g id="edge47" class="edge">
<title>Node24&#45;&gt;Node25</title>
<path fill="none" stroke="#63b8ff" d="M890.89,-395.55C906.12,-387.17 928.85,-373.89 947,-360 965.79,-345.62 985.2,-326.71 998.26,-313.27"/>
<polygon fill="#63b8ff" stroke="#63b8ff" points="1000.42,-316.07 1004.8,-306.43 995.36,-311.23 1000.42,-316.07"/>
</g>
<!-- Node26 -->
<g id="node26" class="node">
<title>Node26</title>
<g id="a_node26"><a xlink:href="symbol_8h.html" target="_top" xlink:title=" ">
<polygon fill="white" stroke="#666666" points="902,-360 846,-360 846,-341 902,-341 902,-360"/>
<text text-anchor="middle" x="874" y="-348" font-family="Helvetica,sans-Serif" font-size="10.00">symbol.h</text>
</a>
</g>
</g>
<!-- Node24&#45;&gt;Node26 -->
<g id="edge52" class="edge">
<title>Node24&#45;&gt;Node26</title>
<path fill="none" stroke="#63b8ff" d="M874,-395.75C874,-389.27 874,-380.16 874,-371.9"/>
<polygon fill="#63b8ff" stroke="#63b8ff" points="877.5,-371.96 874,-361.96 870.5,-371.96 877.5,-371.96"/>
</g>
<!-- Node26&#45;&gt;Node11 -->
<g id="edge55" class="edge">
<title>Node26&#45;&gt;Node11</title>
<path fill="none" stroke="#63b8ff" d="M875.43,-340.68C879.56,-314.14 891.04,-232.71 888,-165 887.64,-157.06 886.93,-148.34 886.21,-140.74"/>
<polygon fill="#63b8ff" stroke="#63b8ff" points="889.69,-140.44 885.19,-130.86 882.73,-141.16 889.69,-140.44"/>
</g>
<!-- Node26&#45;&gt;Node15 -->
<g id="edge54" class="edge">
<title>Node26&#45;&gt;Node15</title>
<path fill="none" stroke="#63b8ff" d="M871.57,-340.52C862.44,-306.82 830.1,-187.35 817.28,-140.02"/>
<polygon fill="#63b8ff" stroke="#63b8ff" points="820.73,-139.37 814.74,-130.63 813.98,-141.2 820.73,-139.37"/>
</g>
<!-- Node26&#45;&gt;Node17 -->
<g id="edge56" class="edge">
<title>Node26&#45;&gt;Node17</title>
<path fill="none" stroke="#63b8ff" d="M845.54,-342.35C810.72,-333.6 751.26,-318.67 709.69,-308.23"/>
<polygon fill="#63b8ff" stroke="#63b8ff" points="710.76,-304.89 700.21,-305.85 709.06,-311.68 710.76,-304.89"/>
</g>
<!-- Node26&#45;&gt;Node25 -->
<g id="edge53" class="edge">
<title>Node26&#45;&gt;Node25</title>
<path fill="none" stroke="#63b8ff" d="M897.75,-340.51C922.08,-331.3 959.9,-316.98 985.75,-307.2"/>
<polygon fill="#63b8ff" stroke="#63b8ff" points="986.83,-310.53 994.94,-303.72 984.35,-303.98 986.83,-310.53"/>
</g>
<!-- Node27&#45;&gt;Node4 -->
<g id="edge59" class="edge">
<title>Node27&#45;&gt;Node4</title>
<path fill="none" stroke="#63b8ff" d="M1058,-340.78C1049.11,-304.34 1009.43,-163.59 916,-110 877.09,-87.68 578.84,-72.6 460.84,-67.46"/>
<polygon fill="#63b8ff" stroke="#63b8ff" points="461.32,-63.97 451.18,-67.04 461.02,-70.97 461.32,-63.97"/>
</g>
<!-- Node27&#45;&gt;Node6 -->
<g id="edge58" class="edge">
<title>Node27&#45;&gt;Node6</title>
<path fill="none" stroke="#63b8ff" d="M1065.12,-340.72C1075.5,-322.08 1098,-276.94 1098,-236 1098,-236 1098,-236 1098,-173.5 1098,-102.38 855.18,-76.31 751.76,-68.43"/>
<polygon fill="#63b8ff" stroke="#63b8ff" points="752.18,-64.95 741.95,-67.71 751.67,-71.94 752.18,-64.95"/>
</g>
<!-- Node27&#45;&gt;Node25 -->
<g id="edge60" class="edge">
<title>Node27&#45;&gt;Node25</title>
<path fill="none" stroke="#63b8ff" d="M1052.4,-340.75C1046.12,-333.5 1036.99,-322.98 1029.2,-314.02"/>
<polygon fill="#63b8ff" stroke="#63b8ff" points="1031.95,-311.84 1022.75,-306.59 1026.66,-316.43 1031.95,-311.84"/>
</g>
</g>
</svg>
