<?xml version="1.0" encoding="UTF-8" standalone="no"?>
<!DOCTYPE svg PUBLIC "-//W3C//DTD SVG 1.1//EN"
 "http://www.w3.org/Graphics/SVG/1.1/DTD/svg11.dtd">
<!-- Generated by graphviz version 7.1.0 (20230121.1956)
 -->
<!-- Title: src/testing/fixtures/parser_fixture.h Pages: 1 -->
<!--zoomable 500 -->
<svg id="main" version="1.1" xmlns="http://www.w3.org/2000/svg" xmlns:xlink="http://www.w3.org/1999/xlink" xml:space="preserve" onload="init(evt)">
<style type="text/css"><![CDATA[
.edge:hover path { stroke: red; }
.edge:hover polygon { stroke: red; fill: red; }
]]></style>
<script type="text/javascript"><![CDATA[
var edges = document.getElementsByTagName('g');
if (edges && edges.length) {
  for (var i=0;i<edges.length;i++) {
    if (edges[i].id.substr(0,4)=='edge') {
      edges[i].setAttribute('class','edge');
    }
  }
}
]]></script>
        <defs>
                <circle id="rim" cx="0" cy="0" r="7"/>
                <circle id="rim2" cx="0" cy="0" r="3.5"/>
                <g id="zoomPlus">
                        <use xlink:href="#rim" fill="#404040">
                                <set attributeName="fill" to="#808080" begin="zoomplus.mouseover" end="zoomplus.mouseout"/>
                        </use>
                        <path d="M-4,0h8M0,-4v8" fill="none" stroke="white" stroke-width="1.5" pointer-events="none"/>
                </g>
                <g id="zoomMin">
                        <use xlink:href="#rim" fill="#404040">
                                <set attributeName="fill" to="#808080" begin="zoomminus.mouseover" end="zoomminus.mouseout"/>
                        </use>
                        <path d="M-4,0h8" fill="none" stroke="white" stroke-width="1.5" pointer-events="none"/>
                </g>
                <g id="dirArrow">
                        <path fill="none" stroke="white" stroke-width="1.5" d="M0,-3.0v7 M-2.5,-0.5L0,-3.0L2.5,-0.5"/>
                </g>
               <g id="resetDef">
                       <use xlink:href="#rim2" fill="#404040">
                               <set attributeName="fill" to="#808080" begin="reset.mouseover" end="reset.mouseout"/>
                       </use>
               </g>
        </defs>

<script type="text/javascript">
var viewWidth = 1211;
var viewHeight = 500;
var sectionId = 'dynsection-0';
</script>
<script xlink:href="svgpan.js"/>
<svg id="graph" class="graph">
<g id="viewport">
<title>src/testing/fixtures/parser_fixture.h</title>
<!-- Node1 -->
<g id="node1" class="node">
<title>Node1</title>
<g id="a_node1"><a xlink:title=" ">
<polygon fill="#999999" stroke="#666666" points="753,-492 655,-492 655,-462 753,-462 753,-492"/>
<text text-anchor="start" x="663" y="-480" font-family="Helvetica,sans-Serif" font-size="10.00">src/testing/fixtures</text>
<text text-anchor="middle" x="704" y="-469" font-family="Helvetica,sans-Serif" font-size="10.00">/parser_fixture.h</text>
</a>
</g>
</g>
<!-- Node2 -->
<g id="node2" class="node">
<title>Node2</title>
<g id="a_node2"><a xlink:href="datatypes_8h.html" target="_top" xlink:title=" ">
<polygon fill="white" stroke="#666666" points="846.5,-74 757.5,-74 757.5,-55 846.5,-55 846.5,-74"/>
<text text-anchor="middle" x="802" y="-62" font-family="Helvetica,sans-Serif" font-size="10.00">core/datatypes.h</text>
</a>
</g>
</g>
<!-- Node1&#45;&gt;Node2 -->
<g id="edge1" class="edge">
<title>Node1&#45;&gt;Node2</title>
<path fill="none" stroke="#63b8ff" d="M753.17,-472.65C865.04,-463.67 1129,-434.29 1129,-357 1129,-357 1129,-357 1129,-173.5 1129,-111.98 1063.88,-130.85 1006,-110 979.21,-100.35 908.46,-85.78 857.8,-75.97"/>
<polygon fill="#63b8ff" stroke="#63b8ff" points="858.65,-72.57 848.17,-74.12 857.33,-79.44 858.65,-72.57"/>
</g>
<!-- Node6 -->
<g id="node6" class="node">
<title>Node6</title>
<g id="a_node6"><a xlink:href="symbol__table_8h.html" target="_top" xlink:title=" ">
<polygon fill="white" stroke="#666666" points="756,-426 652,-426 652,-407 756,-407 756,-426"/>
<text text-anchor="middle" x="704" y="-414" font-family="Helvetica,sans-Serif" font-size="10.00">core/symbol_table.h</text>
</a>
</g>
</g>
<!-- Node1&#45;&gt;Node6 -->
<g id="edge5" class="edge">
<title>Node1&#45;&gt;Node6</title>
<path fill="none" stroke="#63b8ff" d="M704,-461.54C704,-454.34 704,-445.53 704,-437.68"/>
<polygon fill="#63b8ff" stroke="#63b8ff" points="707.5,-437.69 704,-427.69 700.5,-437.69 707.5,-437.69"/>
</g>
<!-- Node25 -->
<g id="node25" class="node">
<title>Node25</title>
<g id="a_node25"><a xlink:href="tokenizer_8h.html" target="_top" xlink:title=" ">
<polygon fill="white" stroke="#666666" points="309.5,-250 184.5,-250 184.5,-220 309.5,-220 309.5,-250"/>
<text text-anchor="start" x="192.5" y="-238" font-family="Helvetica,sans-Serif" font-size="10.00">core/evaluation/tokenizer</text>
<text text-anchor="middle" x="247" y="-227" font-family="Helvetica,sans-Serif" font-size="10.00">/tokenizer.h</text>
</a>
</g>
</g>
<!-- Node1&#45;&gt;Node25 -->
<g id="edge49" class="edge">
<title>Node1&#45;&gt;Node25</title>
<path fill="none" stroke="#63b8ff" d="M654.83,-470.74C553.03,-458.83 324.32,-426.43 272,-371 244.25,-341.6 242.3,-291.89 244.14,-261.69"/>
<polygon fill="#63b8ff" stroke="#63b8ff" points="247.61,-262.19 244.94,-251.93 240.63,-261.62 247.61,-262.19"/>
</g>
<!-- Node26 -->
<g id="node26" class="node">
<title>Node26</title>
<g id="a_node26"><a xlink:href="parser_8h.html" target="_top" xlink:title=" ">
<polygon fill="white" stroke="#666666" points="394.5,-371 281.5,-371 281.5,-341 394.5,-341 394.5,-371"/>
<text text-anchor="start" x="289.5" y="-359" font-family="Helvetica,sans-Serif" font-size="10.00">core/evaluation/parser</text>
<text text-anchor="middle" x="338" y="-348" font-family="Helvetica,sans-Serif" font-size="10.00">/parser.h</text>
</a>
</g>
</g>
<!-- Node1&#45;&gt;Node26 -->
<g id="edge52" class="edge">
<title>Node1&#45;&gt;Node26</title>
<path fill="none" stroke="#63b8ff" d="M659.49,-461.53C592.53,-439.76 466.01,-398.62 393.25,-374.97"/>
<polygon fill="#63b8ff" stroke="#63b8ff" points="394.52,-371.7 383.93,-371.93 392.36,-378.35 394.52,-371.7"/>
</g>
<!-- Node28 -->
<g id="node28" class="node">
<title>Node28</title>
<g id="a_node28"><a xlink:title=" ">
<polygon fill="#e0e0e0" stroke="#999999" points="1203,-426 1157,-426 1157,-407 1203,-407 1203,-426"/>
<text text-anchor="middle" x="1180" y="-414" font-family="Helvetica,sans-Serif" font-size="10.00">chrono</text>
</a>
</g>
</g>
<!-- Node1&#45;&gt;Node28 -->
<g id="edge60" class="edge">
<title>Node1&#45;&gt;Node28</title>
<path fill="none" stroke="#63b8ff" d="M753.3,-472.2C834.8,-465.52 1002.56,-450.05 1143,-426 1143.83,-425.86 1144.67,-425.71 1145.51,-425.55"/>
<polygon fill="#63b8ff" stroke="#63b8ff" points="1146.01,-429.02 1155.11,-423.6 1144.61,-422.17 1146.01,-429.02"/>
</g>
<!-- Node3 -->
<g id="node3" class="node">
<title>Node3</title>
<g id="a_node3"><a xlink:title=" ">
<polygon fill="#e0e0e0" stroke="#999999" points="744,-19 700,-19 700,0 744,0 744,-19"/>
<text text-anchor="middle" x="722" y="-7" font-family="Helvetica,sans-Serif" font-size="10.00">vector</text>
</a>
</g>
</g>
<!-- Node2&#45;&gt;Node3 -->
<g id="edge2" class="edge">
<title>Node2&#45;&gt;Node3</title>
<path fill="none" stroke="#63b8ff" d="M788.43,-54.51C776.52,-46.62 758.95,-34.98 744.87,-25.65"/>
<polygon fill="#63b8ff" stroke="#63b8ff" points="746.9,-22.8 736.63,-20.19 743.04,-28.63 746.9,-22.8"/>
</g>
<!-- Node4 -->
<g id="node4" class="node">
<title>Node4</title>
<g id="a_node4"><a xlink:title=" ">
<polygon fill="#e0e0e0" stroke="#999999" points="919.5,-19 878.5,-19 878.5,0 919.5,0 919.5,-19"/>
<text text-anchor="middle" x="899" y="-7" font-family="Helvetica,sans-Serif" font-size="10.00">string</text>
</a>
</g>
</g>
<!-- Node2&#45;&gt;Node4 -->
<g id="edge3" class="edge">
<title>Node2&#45;&gt;Node4</title>
<path fill="none" stroke="#63b8ff" d="M818.45,-54.51C833.32,-46.39 855.44,-34.3 872.75,-24.85"/>
<polygon fill="#63b8ff" stroke="#63b8ff" points="874.36,-27.95 881.46,-20.08 871.01,-21.81 874.36,-27.95"/>
</g>
<!-- Node5 -->
<g id="node5" class="node">
<title>Node5</title>
<g id="a_node5"><a xlink:title=" ">
<polygon fill="#e0e0e0" stroke="#999999" points="828.5,-19 775.5,-19 775.5,0 828.5,0 828.5,-19"/>
<text text-anchor="middle" x="802" y="-7" font-family="Helvetica,sans-Serif" font-size="10.00">complex</text>
</a>
</g>
</g>
<!-- Node2&#45;&gt;Node5 -->
<g id="edge4" class="edge">
<title>Node2&#45;&gt;Node5</title>
<path fill="none" stroke="#63b8ff" d="M802,-54.75C802,-48.27 802,-39.16 802,-30.9"/>
<polygon fill="#63b8ff" stroke="#63b8ff" points="805.5,-30.96 802,-20.96 798.5,-30.96 805.5,-30.96"/>
</g>
<!-- Node6&#45;&gt;Node4 -->
<g id="edge7" class="edge">
<title>Node6&#45;&gt;Node4</title>
<path fill="none" stroke="#63b8ff" d="M756.49,-414.56C815.02,-411.87 911.52,-402.51 988,-371 1040.24,-349.48 1091,-353 1091,-296.5 1091,-296.5 1091,-296.5 1091,-118.5 1091,-45.99 985.7,-21.65 931.06,-13.89"/>
<polygon fill="#63b8ff" stroke="#63b8ff" points="931.78,-10.46 921.41,-12.64 930.88,-17.4 931.78,-10.46"/>
</g>
<!-- Node7 -->
<g id="node7" class="node">
<title>Node7</title>
<g id="a_node7"><a xlink:title=" ">
<polygon fill="#e0e0e0" stroke="#999999" points="621.5,-305 586.5,-305 586.5,-286 621.5,-286 621.5,-305"/>
<text text-anchor="middle" x="604" y="-293" font-family="Helvetica,sans-Serif" font-size="10.00">map</text>
</a>
</g>
</g>
<!-- Node6&#45;&gt;Node7 -->
<g id="edge6" class="edge">
<title>Node6&#45;&gt;Node7</title>
<path fill="none" stroke="#63b8ff" d="M686.06,-406.65C671.79,-398.88 652.11,-386.42 639,-371 625.13,-354.69 615.51,-331.96 609.91,-315.9"/>
<polygon fill="#63b8ff" stroke="#63b8ff" points="613.3,-315.01 606.88,-306.58 606.64,-317.18 613.3,-315.01"/>
</g>
<!-- Node8 -->
<g id="node8" class="node">
<title>Node8</title>
<g id="a_node8"><a xlink:href="array_8h.html" target="_top" xlink:title=" ">
<polygon fill="white" stroke="#666666" points="996.5,-129 929.5,-129 929.5,-110 996.5,-110 996.5,-129"/>
<text text-anchor="middle" x="963" y="-117" font-family="Helvetica,sans-Serif" font-size="10.00">core/array.h</text>
</a>
</g>
</g>
<!-- Node6&#45;&gt;Node8 -->
<g id="edge8" class="edge">
<title>Node6&#45;&gt;Node8</title>
<path fill="none" stroke="#63b8ff" d="M756.25,-408.76C853.61,-394.73 1053,-358.44 1053,-296.5 1053,-296.5 1053,-296.5 1053,-234 1053,-191.22 1013.26,-155.18 986.59,-135.81"/>
<polygon fill="#63b8ff" stroke="#63b8ff" points="988.91,-133.16 978.7,-130.31 984.91,-138.9 988.91,-133.16"/>
</g>
<!-- Node10 -->
<g id="node10" class="node">
<title>Node10</title>
<g id="a_node10"><a xlink:href="ast_8h.html" target="_top" xlink:title=" ">
<polygon fill="white" stroke="#666666" points="785.5,-305 678.5,-305 678.5,-286 785.5,-286 785.5,-305"/>
<text text-anchor="middle" x="732" y="-293" font-family="Helvetica,sans-Serif" font-size="10.00">core/evaluation/ast.h</text>
</a>
</g>
</g>
<!-- Node6&#45;&gt;Node10 -->
<g id="edge11" class="edge">
<title>Node6&#45;&gt;Node10</title>
<path fill="none" stroke="#63b8ff" d="M706.1,-406.56C710.59,-387.51 721.16,-342.56 727.32,-316.37"/>
<polygon fill="#63b8ff" stroke="#63b8ff" points="730.72,-317.23 729.6,-306.7 723.9,-315.63 730.72,-317.23"/>
</g>
<!-- Node21 -->
<g id="node21" class="node">
<title>Node21</title>
<g id="a_node21"><a xlink:href="error_8h.html" target="_top" xlink:title=" ">
<polygon fill="white" stroke="#666666" points="689,-184 645,-184 645,-165 689,-165 689,-184"/>
<text text-anchor="middle" x="667" y="-172" font-family="Helvetica,sans-Serif" font-size="10.00">error.h</text>
</a>
</g>
</g>
<!-- Node6&#45;&gt;Node21 -->
<g id="edge36" class="edge">
<title>Node6&#45;&gt;Node21</title>
<path fill="none" stroke="#63b8ff" d="M677.35,-406.62C658.53,-399.32 633.62,-387.5 616,-371 591.13,-347.71 585.98,-337.87 577,-305 564.1,-257.81 613.04,-213.42 643.79,-190.9"/>
<polygon fill="#63b8ff" stroke="#63b8ff" points="645.64,-193.87 651.8,-185.25 641.61,-188.15 645.64,-193.87"/>
</g>
<!-- Node24 -->
<g id="node24" class="node">
<title>Node24</title>
<g id="a_node24"><a xlink:href="symbol_8h.html" target="_top" xlink:title=" ">
<polygon fill="white" stroke="#666666" points="704,-365.5 648,-365.5 648,-346.5 704,-346.5 704,-365.5"/>
<text text-anchor="middle" x="676" y="-353.5" font-family="Helvetica,sans-Serif" font-size="10.00">symbol.h</text>
</a>
</g>
</g>
<!-- Node6&#45;&gt;Node24 -->
<g id="edge44" class="edge">
<title>Node6&#45;&gt;Node24</title>
<path fill="none" stroke="#63b8ff" d="M699.87,-406.87C695.98,-398.75 690.03,-386.31 685.04,-375.89"/>
<polygon fill="#63b8ff" stroke="#63b8ff" points="688.28,-374.54 680.8,-367.03 681.96,-377.56 688.28,-374.54"/>
</g>
<!-- Node8&#45;&gt;Node2 -->
<g id="edge9" class="edge">
<title>Node8&#45;&gt;Node2</title>
<path fill="none" stroke="#63b8ff" d="M935.69,-109.51C909.36,-100.84 869.28,-87.65 839.87,-77.97"/>
<polygon fill="#63b8ff" stroke="#63b8ff" points="841.21,-74.72 830.61,-74.92 839.02,-81.37 841.21,-74.72"/>
</g>
<!-- Node9 -->
<g id="node9" class="node">
<title>Node9</title>
<g id="a_node9"><a xlink:title=" ">
<polygon fill="#e0e0e0" stroke="#999999" points="997,-74 951,-74 951,-55 997,-55 997,-74"/>
<text text-anchor="middle" x="974" y="-62" font-family="Helvetica,sans-Serif" font-size="10.00">variant</text>
</a>
</g>
</g>
<!-- Node8&#45;&gt;Node9 -->
<g id="edge10" class="edge">
<title>Node8&#45;&gt;Node9</title>
<path fill="none" stroke="#63b8ff" d="M964.82,-109.75C966.18,-103.19 968.1,-93.95 969.83,-85.6"/>
<polygon fill="#63b8ff" stroke="#63b8ff" points="973.23,-86.43 971.84,-75.92 966.38,-85 973.23,-86.43"/>
</g>
<!-- Node10&#45;&gt;Node2 -->
<g id="edge28" class="edge">
<title>Node10&#45;&gt;Node2</title>
<path fill="none" stroke="#63b8ff" d="M785.78,-293.81C819.25,-290.23 859.98,-279.5 882,-250 923.01,-195.06 854.04,-115.85 819.68,-81.93"/>
<polygon fill="#63b8ff" stroke="#63b8ff" points="822.5,-79.79 812.87,-75.37 817.65,-84.83 822.5,-79.79"/>
</g>
<!-- Node10&#45;&gt;Node4 -->
<g id="edge12" class="edge">
<title>Node10&#45;&gt;Node4</title>
<path fill="none" stroke="#63b8ff" d="M785.84,-288.14C839.1,-280.96 916.03,-267.89 940,-250 1013.33,-195.28 1056.78,-131.11 1006,-55 989.42,-30.15 956.08,-19.16 930.99,-14.3"/>
<polygon fill="#63b8ff" stroke="#63b8ff" points="931.73,-10.88 921.29,-12.68 930.58,-17.78 931.73,-10.88"/>
</g>
<!-- Node10&#45;&gt;Node8 -->
<g id="edge14" class="edge">
<title>Node10&#45;&gt;Node8</title>
<path fill="none" stroke="#63b8ff" d="M785.82,-294.4C825.95,-291.54 879.7,-281.41 915,-250 947.15,-221.39 957.82,-169.23 961.32,-140.61"/>
<polygon fill="#63b8ff" stroke="#63b8ff" points="964.79,-141.1 962.32,-130.8 957.82,-140.39 964.79,-141.1"/>
</g>
<!-- Node11 -->
<g id="node11" class="node">
<title>Node11</title>
<g id="a_node11"><a xlink:title=" ">
<polygon fill="#e0e0e0" stroke="#999999" points="668,-19 614,-19 614,0 668,0 668,-19"/>
<text text-anchor="middle" x="641" y="-7" font-family="Helvetica,sans-Serif" font-size="10.00">iostream</text>
</a>
</g>
</g>
<!-- Node10&#45;&gt;Node11 -->
<g id="edge13" class="edge">
<title>Node10&#45;&gt;Node11</title>
<path fill="none" stroke="#63b8ff" d="M729.68,-285.71C727.46,-276.79 724.26,-262.55 723,-250 721.67,-236.73 722.49,-233.32 723,-220 724.88,-171.05 747.48,-155.76 730,-110 716.53,-74.73 684.17,-44.06 662.41,-26.42"/>
<polygon fill="#63b8ff" stroke="#63b8ff" points="664.76,-23.81 654.73,-20.4 660.44,-29.32 664.76,-23.81"/>
</g>
<!-- Node12 -->
<g id="node12" class="node">
<title>Node12</title>
<g id="a_node12"><a xlink:href="token_8h.html" target="_top" xlink:title=" ">
<polygon fill="white" stroke="#666666" points="475.5,-184 404.5,-184 404.5,-165 475.5,-165 475.5,-184"/>
<text text-anchor="middle" x="440" y="-172" font-family="Helvetica,sans-Serif" font-size="10.00">core/token.h</text>
</a>
</g>
</g>
<!-- Node10&#45;&gt;Node12 -->
<g id="edge15" class="edge">
<title>Node10&#45;&gt;Node12</title>
<path fill="none" stroke="#63b8ff" d="M709.22,-285.56C686.57,-276.64 650.83,-262.5 620,-250 567.88,-228.86 507.52,-203.75 471.62,-188.74"/>
<polygon fill="#63b8ff" stroke="#63b8ff" points="473.27,-185.64 462.69,-185.01 470.57,-192.1 473.27,-185.64"/>
</g>
<!-- Node18 -->
<g id="node18" class="node">
<title>Node18</title>
<g id="a_node18"><a xlink:href="position_8h.html" target="_top" xlink:title=" ">
<polygon fill="white" stroke="#666666" points="453.5,-129 394.5,-129 394.5,-110 453.5,-110 453.5,-129"/>
<text text-anchor="middle" x="424" y="-117" font-family="Helvetica,sans-Serif" font-size="10.00">position.h</text>
</a>
</g>
</g>
<!-- Node10&#45;&gt;Node18 -->
<g id="edge35" class="edge">
<title>Node10&#45;&gt;Node18</title>
<path fill="none" stroke="#63b8ff" d="M716.3,-285.63C666.36,-257.42 510.8,-169.54 449.35,-134.82"/>
<polygon fill="#63b8ff" stroke="#63b8ff" points="451.41,-131.97 440.98,-130.09 447.97,-138.06 451.41,-131.97"/>
</g>
<!-- Node19 -->
<g id="node19" class="node">
<title>Node19</title>
<g id="a_node19"><a xlink:title=" ">
<polygon fill="#e0e0e0" stroke="#999999" points="797,-184 745,-184 745,-165 797,-165 797,-184"/>
<text text-anchor="middle" x="771" y="-172" font-family="Helvetica,sans-Serif" font-size="10.00">memory</text>
</a>
</g>
</g>
<!-- Node10&#45;&gt;Node19 -->
<g id="edge29" class="edge">
<title>Node10&#45;&gt;Node19</title>
<path fill="none" stroke="#63b8ff" d="M730.28,-285.89C727.84,-271.64 724.52,-242.52 733,-220 736.91,-209.61 744.4,-199.99 751.71,-192.36"/>
<polygon fill="#63b8ff" stroke="#63b8ff" points="754.11,-194.92 758.88,-185.46 749.25,-189.87 754.11,-194.92"/>
</g>
<!-- Node20 -->
<g id="node20" class="node">
<title>Node20</title>
<g id="a_node20"><a xlink:href="operation_8h.html" target="_top" xlink:title=" ">
<polygon fill="white" stroke="#666666" points="872.5,-250 741.5,-250 741.5,-220 872.5,-220 872.5,-250"/>
<text text-anchor="start" x="749.5" y="-238" font-family="Helvetica,sans-Serif" font-size="10.00">core/evaluation/operations</text>
<text text-anchor="middle" x="807" y="-227" font-family="Helvetica,sans-Serif" font-size="10.00">/operation.h</text>
</a>
</g>
</g>
<!-- Node10&#45;&gt;Node20 -->
<g id="edge30" class="edge">
<title>Node10&#45;&gt;Node20</title>
<path fill="none" stroke="#63b8ff" d="M743.39,-285.62C753.02,-278.1 767.21,-267.04 779.74,-257.26"/>
<polygon fill="#63b8ff" stroke="#63b8ff" points="781.56,-260.28 787.29,-251.37 777.26,-254.76 781.56,-260.28"/>
</g>
<!-- Node12&#45;&gt;Node2 -->
<g id="edge18" class="edge">
<title>Node12&#45;&gt;Node2</title>
<path fill="none" stroke="#63b8ff" d="M422.59,-164.58C400.64,-152.2 367.74,-129.2 385,-110 408.69,-83.65 637.45,-71.64 745.73,-67.4"/>
<polygon fill="#63b8ff" stroke="#63b8ff" points="745.69,-70.91 755.55,-67.03 745.43,-63.91 745.69,-70.91"/>
</g>
<!-- Node12&#45;&gt;Node8 -->
<g id="edge20" class="edge">
<title>Node12&#45;&gt;Node8</title>
<path fill="none" stroke="#63b8ff" d="M475.95,-169.86C568.63,-160.46 815.57,-135.44 917.76,-125.08"/>
<polygon fill="#63b8ff" stroke="#63b8ff" points="918.09,-128.57 927.69,-124.08 917.39,-121.6 918.09,-128.57"/>
</g>
<!-- Node13 -->
<g id="node13" class="node">
<title>Node13</title>
<g id="a_node13"><a xlink:href="token__type_8h.html" target="_top" xlink:title=" ">
<polygon fill="white" stroke="#666666" points="125.5,-74 52.5,-74 52.5,-55 125.5,-55 125.5,-74"/>
<text text-anchor="middle" x="89" y="-62" font-family="Helvetica,sans-Serif" font-size="10.00">token_type.h</text>
</a>
</g>
</g>
<!-- Node12&#45;&gt;Node13 -->
<g id="edge16" class="edge">
<title>Node12&#45;&gt;Node13</title>
<path fill="none" stroke="#63b8ff" d="M404.02,-174.27C324.4,-175.17 137.02,-172.48 95,-129 84.05,-117.67 83.42,-99.31 85.02,-85.24"/>
<polygon fill="#63b8ff" stroke="#63b8ff" points="88.41,-86.19 86.55,-75.76 81.5,-85.07 88.41,-86.19"/>
</g>
<!-- Node14 -->
<g id="node14" class="node">
<title>Node14</title>
<g id="a_node14"><a xlink:title=" ">
<polygon fill="#e0e0e0" stroke="#999999" points="554.5,-129 471.5,-129 471.5,-110 554.5,-110 554.5,-129"/>
<text text-anchor="middle" x="513" y="-117" font-family="Helvetica,sans-Serif" font-size="10.00">uni_algo/conv.h</text>
</a>
</g>
</g>
<!-- Node12&#45;&gt;Node14 -->
<g id="edge19" class="edge">
<title>Node12&#45;&gt;Node14</title>
<path fill="none" stroke="#63b8ff" d="M452.38,-164.51C463.15,-156.7 478.97,-145.21 491.75,-135.93"/>
<polygon fill="#63b8ff" stroke="#63b8ff" points="493.54,-138.95 499.57,-130.25 489.43,-133.29 493.54,-138.95"/>
</g>
<!-- Node15 -->
<g id="node15" class="node">
<title>Node15</title>
<g id="a_node15"><a xlink:href="conversion_8h.html" target="_top" xlink:title=" ">
<polygon fill="white" stroke="#666666" points="232,-129 104,-129 104,-110 232,-110 232,-129"/>
<text text-anchor="middle" x="168" y="-117" font-family="Helvetica,sans-Serif" font-size="10.00">core/helpers/conversion.h</text>
</a>
</g>
</g>
<!-- Node12&#45;&gt;Node15 -->
<g id="edge21" class="edge">
<title>Node12&#45;&gt;Node15</title>
<path fill="none" stroke="#63b8ff" d="M404.16,-166.52C358.51,-157.62 279.06,-142.14 225.04,-131.61"/>
<polygon fill="#63b8ff" stroke="#63b8ff" points="225.89,-128.21 215.4,-129.74 224.55,-135.08 225.89,-128.21"/>
</g>
<!-- Node16 -->
<g id="node16" class="node">
<title>Node16</title>
<g id="a_node16"><a xlink:title=" ">
<polygon fill="#e0e0e0" stroke="#999999" points="613,-129 573,-129 573,-110 613,-110 613,-129"/>
<text text-anchor="middle" x="593" y="-117" font-family="Helvetica,sans-Serif" font-size="10.00">utility</text>
</a>
</g>
</g>
<!-- Node12&#45;&gt;Node16 -->
<g id="edge25" class="edge">
<title>Node12&#45;&gt;Node16</title>
<path fill="none" stroke="#63b8ff" d="M465.95,-164.51C492.48,-155.32 533.68,-141.05 561.93,-131.26"/>
<polygon fill="#63b8ff" stroke="#63b8ff" points="563.06,-134.58 571.36,-127.99 560.77,-127.96 563.06,-134.58"/>
</g>
<!-- Node17 -->
<g id="node17" class="node">
<title>Node17</title>
<g id="a_node17"><a xlink:title=" ">
<polygon fill="#e0e0e0" stroke="#999999" points="338,-129 288,-129 288,-110 338,-110 338,-129"/>
<text text-anchor="middle" x="313" y="-117" font-family="Helvetica,sans-Serif" font-size="10.00">optional</text>
</a>
</g>
</g>
<!-- Node12&#45;&gt;Node17 -->
<g id="edge26" class="edge">
<title>Node12&#45;&gt;Node17</title>
<path fill="none" stroke="#63b8ff" d="M418.46,-164.51C398.26,-156.08 367.83,-143.38 344.84,-133.79"/>
<polygon fill="#63b8ff" stroke="#63b8ff" points="346.2,-130.56 335.62,-129.94 343.5,-137.02 346.2,-130.56"/>
</g>
<!-- Node12&#45;&gt;Node18 -->
<g id="edge27" class="edge">
<title>Node12&#45;&gt;Node18</title>
<path fill="none" stroke="#63b8ff" d="M437.36,-164.75C435.36,-158.11 432.52,-148.73 429.98,-140.31"/>
<polygon fill="#63b8ff" stroke="#63b8ff" points="433.38,-139.45 427.14,-130.89 426.68,-141.48 433.38,-139.45"/>
</g>
<!-- Node13&#45;&gt;Node11 -->
<g id="edge17" class="edge">
<title>Node13&#45;&gt;Node11</title>
<path fill="none" stroke="#63b8ff" d="M125.65,-59.98C225.24,-50.42 500.26,-24.01 602.26,-14.22"/>
<polygon fill="#63b8ff" stroke="#63b8ff" points="602.42,-17.72 612.04,-13.28 601.75,-10.75 602.42,-17.72"/>
</g>
<!-- Node15&#45;&gt;Node2 -->
<g id="edge23" class="edge">
<title>Node15&#45;&gt;Node2</title>
<path fill="none" stroke="#63b8ff" d="M232.26,-111.35C236.91,-110.88 241.52,-110.42 246,-110 428.69,-92.74 645.57,-76.65 745.92,-69.45"/>
<polygon fill="#63b8ff" stroke="#63b8ff" points="746.04,-72.95 755.77,-68.75 745.55,-65.97 746.04,-72.95"/>
</g>
<!-- Node15&#45;&gt;Node4 -->
<g id="edge22" class="edge">
<title>Node15&#45;&gt;Node4</title>
<path fill="none" stroke="#63b8ff" d="M228.75,-109.52C377.18,-87.6 754.28,-31.88 866.82,-15.25"/>
<polygon fill="#63b8ff" stroke="#63b8ff" points="867.16,-18.74 876.54,-13.82 866.14,-11.82 867.16,-18.74"/>
</g>
<!-- Node15&#45;&gt;Node13 -->
<g id="edge24" class="edge">
<title>Node15&#45;&gt;Node13</title>
<path fill="none" stroke="#63b8ff" d="M154.6,-109.51C142.84,-101.62 125.49,-89.98 111.59,-80.65"/>
<polygon fill="#63b8ff" stroke="#63b8ff" points="113.71,-77.87 103.46,-75.2 109.81,-83.68 113.71,-77.87"/>
</g>
<!-- Node20&#45;&gt;Node2 -->
<g id="edge31" class="edge">
<title>Node20&#45;&gt;Node2</title>
<path fill="none" stroke="#63b8ff" d="M806.9,-219.73C806.78,-205.77 806.52,-183.92 806,-165 805.25,-137.5 803.89,-105.74 802.96,-85.64"/>
<polygon fill="#63b8ff" stroke="#63b8ff" points="806.46,-85.62 802.5,-75.79 799.47,-85.95 806.46,-85.62"/>
</g>
<!-- Node20&#45;&gt;Node8 -->
<g id="edge32" class="edge">
<title>Node20&#45;&gt;Node8</title>
<path fill="none" stroke="#63b8ff" d="M826.76,-219.63C856.22,-198.19 911.45,-158.01 941.75,-135.96"/>
<polygon fill="#63b8ff" stroke="#63b8ff" points="943.75,-138.83 949.78,-130.12 939.63,-133.17 943.75,-138.83"/>
</g>
<!-- Node20&#45;&gt;Node12 -->
<g id="edge33" class="edge">
<title>Node20&#45;&gt;Node12</title>
<path fill="none" stroke="#63b8ff" d="M741.39,-223.54C668.06,-211.85 551.18,-193.22 486.64,-182.93"/>
<polygon fill="#63b8ff" stroke="#63b8ff" points="487.52,-179.53 477.09,-181.41 486.42,-186.44 487.52,-179.53"/>
</g>
<!-- Node20&#45;&gt;Node19 -->
<g id="edge34" class="edge">
<title>Node20&#45;&gt;Node19</title>
<path fill="none" stroke="#63b8ff" d="M798.1,-219.54C793.3,-211.74 787.32,-202.03 782.21,-193.71"/>
<polygon fill="#63b8ff" stroke="#63b8ff" points="785.35,-192.15 777.13,-185.46 779.39,-195.82 785.35,-192.15"/>
</g>
<!-- Node21&#45;&gt;Node2 -->
<g id="edge42" class="edge">
<title>Node21&#45;&gt;Node2</title>
<path fill="none" stroke="#63b8ff" d="M680.33,-164.7C693.29,-156 713.4,-142.12 730,-129 749.09,-113.91 769.83,-95.38 784.12,-82.23"/>
<polygon fill="#63b8ff" stroke="#63b8ff" points="786.44,-84.86 791.39,-75.5 781.68,-79.73 786.44,-84.86"/>
</g>
<!-- Node21&#45;&gt;Node11 -->
<g id="edge37" class="edge">
<title>Node21&#45;&gt;Node11</title>
<path fill="none" stroke="#63b8ff" d="M665.6,-164.74C661.58,-139.53 649.91,-66.36 644.21,-30.62"/>
<polygon fill="#63b8ff" stroke="#63b8ff" points="647.67,-30.13 642.64,-20.8 640.76,-31.23 647.67,-30.13"/>
</g>
<!-- Node21&#45;&gt;Node14 -->
<g id="edge43" class="edge">
<title>Node21&#45;&gt;Node14</title>
<path fill="none" stroke="#63b8ff" d="M644.61,-165.79C619.75,-157.24 579.26,-143.3 549.74,-133.15"/>
<polygon fill="#63b8ff" stroke="#63b8ff" points="551.05,-129.89 540.46,-129.95 548.77,-136.51 551.05,-129.89"/>
</g>
<!-- Node21&#45;&gt;Node16 -->
<g id="edge39" class="edge">
<title>Node21&#45;&gt;Node16</title>
<path fill="none" stroke="#63b8ff" d="M654.45,-164.51C643.54,-156.7 627.5,-145.21 614.54,-135.93"/>
<polygon fill="#63b8ff" stroke="#63b8ff" points="616.77,-133.22 606.6,-130.24 612.69,-138.91 616.77,-133.22"/>
</g>
<!-- Node22 -->
<g id="node22" class="node">
<title>Node22</title>
<g id="a_node22"><a xlink:title=" ">
<polygon fill="#e0e0e0" stroke="#999999" points="721,-129 669,-129 669,-110 721,-110 721,-129"/>
<text text-anchor="middle" x="695" y="-117" font-family="Helvetica,sans-Serif" font-size="10.00">sstream</text>
</a>
</g>
</g>
<!-- Node21&#45;&gt;Node22 -->
<g id="edge38" class="edge">
<title>Node21&#45;&gt;Node22</title>
<path fill="none" stroke="#63b8ff" d="M671.62,-164.75C675.25,-157.88 680.43,-148.08 684.99,-139.45"/>
<polygon fill="#63b8ff" stroke="#63b8ff" points="687.99,-141.26 689.57,-130.78 681.8,-137.99 687.99,-141.26"/>
</g>
<!-- Node23 -->
<g id="node23" class="node">
<title>Node23</title>
<g id="a_node23"><a xlink:href="error__type_8h.html" target="_top" xlink:title=" ">
<polygon fill="white" stroke="#666666" points="933,-74 865,-74 865,-55 933,-55 933,-74"/>
<text text-anchor="middle" x="899" y="-62" font-family="Helvetica,sans-Serif" font-size="10.00">error_type.h</text>
</a>
</g>
</g>
<!-- Node21&#45;&gt;Node23 -->
<g id="edge40" class="edge">
<title>Node21&#45;&gt;Node23</title>
<path fill="none" stroke="#63b8ff" d="M685.99,-164.66C726.35,-145.87 820.93,-101.84 869.33,-79.31"/>
<polygon fill="#63b8ff" stroke="#63b8ff" points="870.79,-82.49 878.38,-75.1 867.84,-76.15 870.79,-82.49"/>
</g>
<!-- Node23&#45;&gt;Node4 -->
<g id="edge41" class="edge">
<title>Node23&#45;&gt;Node4</title>
<path fill="none" stroke="#63b8ff" d="M899,-54.75C899,-48.27 899,-39.16 899,-30.9"/>
<polygon fill="#63b8ff" stroke="#63b8ff" points="902.5,-30.96 899,-20.96 895.5,-30.96 902.5,-30.96"/>
</g>
<!-- Node24&#45;&gt;Node7 -->
<g id="edge45" class="edge">
<title>Node24&#45;&gt;Node7</title>
<path fill="none" stroke="#63b8ff" d="M665.06,-346.12C654.18,-337.27 637.21,-323.48 623.92,-312.69"/>
<polygon fill="#63b8ff" stroke="#63b8ff" points="626.18,-310.01 616.21,-306.42 621.77,-315.45 626.18,-310.01"/>
</g>
<!-- Node24&#45;&gt;Node8 -->
<g id="edge47" class="edge">
<title>Node24&#45;&gt;Node8</title>
<path fill="none" stroke="#63b8ff" d="M704.47,-350.93C757.43,-341.95 871.86,-315.77 940,-250 968.72,-222.28 971.67,-204.83 969,-165 968.46,-156.93 967.37,-148.09 966.27,-140.43"/>
<polygon fill="#63b8ff" stroke="#63b8ff" points="969.77,-140.17 964.78,-130.83 962.85,-141.24 969.77,-140.17"/>
</g>
<!-- Node24&#45;&gt;Node10 -->
<g id="edge48" class="edge">
<title>Node24&#45;&gt;Node10</title>
<path fill="none" stroke="#63b8ff" d="M684.26,-346.37C692.53,-337.73 705.48,-324.2 715.81,-313.42"/>
<polygon fill="#63b8ff" stroke="#63b8ff" points="718.27,-315.9 722.66,-306.26 713.21,-311.06 718.27,-315.9"/>
</g>
<!-- Node24&#45;&gt;Node17 -->
<g id="edge46" class="edge">
<title>Node24&#45;&gt;Node17</title>
<path fill="none" stroke="#63b8ff" d="M672.95,-346.06C667.28,-330.95 653.61,-300.56 631,-286 541.79,-228.55 483.82,-308.04 395,-250 354.46,-223.5 330.12,-169.23 319.43,-140.06"/>
<polygon fill="#63b8ff" stroke="#63b8ff" points="322.76,-138.99 316.18,-130.69 316.15,-141.28 322.76,-138.99"/>
</g>
<!-- Node25&#45;&gt;Node2 -->
<g id="edge51" class="edge">
<title>Node25&#45;&gt;Node2</title>
<path fill="none" stroke="#63b8ff" d="M245.89,-219.79C244.7,-193.53 246.39,-137.55 279,-110 314.06,-80.38 617.83,-69.82 745.67,-66.67"/>
<polygon fill="#63b8ff" stroke="#63b8ff" points="745.69,-70.17 755.61,-66.43 745.53,-63.17 745.69,-70.17"/>
</g>
<!-- Node25&#45;&gt;Node12 -->
<g id="edge50" class="edge">
<title>Node25&#45;&gt;Node12</title>
<path fill="none" stroke="#63b8ff" d="M294.71,-219.54C327.02,-209.75 369.23,-196.95 399.83,-187.68"/>
<polygon fill="#63b8ff" stroke="#63b8ff" points="400.53,-191.12 409.08,-184.87 398.5,-184.42 400.53,-191.12"/>
</g>
<!-- Node26&#45;&gt;Node3 -->
<g id="edge54" class="edge">
<title>Node26&#45;&gt;Node3</title>
<path fill="none" stroke="#63b8ff" d="M281.05,-350.4C184.72,-339.17 0,-301.24 0,-175.5 0,-175.5 0,-175.5 0,-118.5 0,-84.42 13.36,-71.82 43,-55 104.37,-20.18 606.96,-27.57 677,-19 680.71,-18.55 684.57,-17.97 688.41,-17.34"/>
<polygon fill="#63b8ff" stroke="#63b8ff" points="688.95,-20.8 698.17,-15.58 687.71,-13.91 688.95,-20.8"/>
</g>
<!-- Node26&#45;&gt;Node10 -->
<g id="edge56" class="edge">
<title>Node26&#45;&gt;Node10</title>
<path fill="none" stroke="#63b8ff" d="M394.87,-346.56C467.03,-335.84 591.2,-317.41 667.03,-306.15"/>
<polygon fill="#63b8ff" stroke="#63b8ff" points="667.43,-309.62 676.81,-304.69 666.41,-302.7 667.43,-309.62"/>
</g>
<!-- Node26&#45;&gt;Node12 -->
<g id="edge53" class="edge">
<title>Node26&#45;&gt;Node12</title>
<path fill="none" stroke="#63b8ff" d="M342.01,-340.69C349.63,-315 367.9,-260.02 395,-220 402.04,-209.6 411.77,-199.62 420.37,-191.75"/>
<polygon fill="#63b8ff" stroke="#63b8ff" points="422.42,-194.61 427.64,-185.39 417.81,-189.34 422.42,-194.61"/>
</g>
<!-- Node26&#45;&gt;Node13 -->
<g id="edge55" class="edge">
<title>Node26&#45;&gt;Node13</title>
<path fill="none" stroke="#63b8ff" d="M281.22,-344.51C194.25,-326.79 38,-287.76 38,-236 38,-236 38,-236 38,-173.5 38,-139.09 59.43,-103.9 74.51,-83.41"/>
<polygon fill="#63b8ff" stroke="#63b8ff" points="77.23,-85.62 80.55,-75.56 71.68,-81.35 77.23,-85.62"/>
</g>
<!-- Node26&#45;&gt;Node15 -->
<g id="edge57" class="edge">
<title>Node26&#45;&gt;Node15</title>
<path fill="none" stroke="#63b8ff" d="M295.63,-340.54C256.84,-324.84 201.55,-295.7 175,-250 155.08,-215.71 159.26,-167.32 163.8,-140.45"/>
<polygon fill="#63b8ff" stroke="#63b8ff" points="167.18,-141.41 165.61,-130.93 160.3,-140.1 167.18,-141.41"/>
</g>
<!-- Node27 -->
<g id="node27" class="node">
<title>Node27</title>
<g id="a_node27"><a xlink:href="classifiers_8h.html" target="_top" xlink:title=" ">
<polygon fill="white" stroke="#666666" points="529.5,-244.5 404.5,-244.5 404.5,-225.5 529.5,-225.5 529.5,-244.5"/>
<text text-anchor="middle" x="467" y="-232.5" font-family="Helvetica,sans-Serif" font-size="10.00">core/helpers/classifiers.h</text>
</a>
</g>
</g>
<!-- Node26&#45;&gt;Node27 -->
<g id="edge58" class="edge">
<title>Node26&#45;&gt;Node27</title>
<path fill="none" stroke="#63b8ff" d="M353.56,-340.65C377.55,-318.51 423.46,-276.16 448.9,-252.69"/>
<polygon fill="#63b8ff" stroke="#63b8ff" points="451.18,-255.35 456.16,-246 446.44,-250.21 451.18,-255.35"/>
</g>
<!-- Node27&#45;&gt;Node12 -->
<g id="edge59" class="edge">
<title>Node27&#45;&gt;Node12</title>
<path fill="none" stroke="#63b8ff" d="M463.02,-225.37C459.27,-217.25 453.53,-204.81 448.72,-194.39"/>
<polygon fill="#63b8ff" stroke="#63b8ff" points="452,-193.15 444.63,-185.54 445.65,-196.09 452,-193.15"/>
</g>
</g>
</svg>
        <g id="navigator" transform="translate(0 0)" fill="#404254">
                <rect fill="#f2f5e9" fill-opacity="0.5" stroke="#606060" stroke-width=".5" x="0" y="0" width="60" height="60"/>
                <use id="zoomplus" xlink:href="#zoomPlus" x="17" y="9" onmousedown="handleZoom(evt,'in')"/>
                <use id="zoomminus" xlink:href="#zoomMin" x="42" y="9" onmousedown="handleZoom(evt,'out')"/>
                <use id="reset" xlink:href="#resetDef" x="30" y="36" onmousedown="handleReset()"/>
                <g id="arrowUp" xlink:href="#dirArrow" transform="translate(30 24)" onmousedown="handlePan(0,-1)">
                  <use xlink:href="#rim" fill="#404040">
                        <set attributeName="fill" to="#808080" begin="arrowUp.mouseover" end="arrowUp.mouseout"/>
                  </use>
                  <path fill="none" stroke="white" stroke-width="1.5" d="M0,-3.0v7 M-2.5,-0.5L0,-3.0L2.5,-0.5"/>
                </g>
                <g id="arrowRight" xlink:href="#dirArrow" transform="rotate(90) translate(36 -43)" onmousedown="handlePan(1,0)">
                  <use xlink:href="#rim" fill="#404040">
                        <set attributeName="fill" to="#808080" begin="arrowRight.mouseover" end="arrowRight.mouseout"/>
                  </use>
                  <path fill="none" stroke="white" stroke-width="1.5" d="M0,-3.0v7 M-2.5,-0.5L0,-3.0L2.5,-0.5"/>
                </g>
                <g id="arrowDown" xlink:href="#dirArrow" transform="rotate(180) translate(-30 -48)" onmousedown="handlePan(0,1)">
                  <use xlink:href="#rim" fill="#404040">
                        <set attributeName="fill" to="#808080" begin="arrowDown.mouseover" end="arrowDown.mouseout"/>
                  </use>
                  <path fill="none" stroke="white" stroke-width="1.5" d="M0,-3.0v7 M-2.5,-0.5L0,-3.0L2.5,-0.5"/>
                </g>
                <g id="arrowLeft" xlink:href="#dirArrow" transform="rotate(270) translate(-36 17)" onmousedown="handlePan(-1,0)">
                  <use xlink:href="#rim" fill="#404040">
                        <set attributeName="fill" to="#808080" begin="arrowLeft.mouseover" end="arrowLeft.mouseout"/>
                  </use>
                  <path fill="none" stroke="white" stroke-width="1.5" d="M0,-3.0v7 M-2.5,-0.5L0,-3.0L2.5,-0.5"/>
                </g>
        </g>
        <svg viewBox="0 0 15 15" width="100%" height="30px" preserveAspectRatio="xMaxYMin meet">
         <g id="arrow_out" transform="scale(0.3 0.3)">
          <a xlink:href="parser__fixture_8h__incl_org.svg" target="_base">
           <rect id="button" ry="5" rx="5" y="6" x="6" height="38" width="38"
                fill="#f2f5e9" fill-opacity="0.5" stroke="#606060" stroke-width="1.0"/>
           <path id="arrow"
             d="M 11.500037,31.436501 C 11.940474,20.09759 22.043105,11.32322 32.158766,21.979434 L 37.068811,17.246167 C 37.068811,17.246167 37.088388,32 37.088388,32 L 22.160133,31.978069 C 22.160133,31.978069 26.997745,27.140456 26.997745,27.140456 C 18.528582,18.264221 13.291696,25.230495 11.500037,31.436501 z"
             style="fill:#404040;"/>
          </a>
         </g>
        </svg>
</svg>
