<?xml version="1.0" encoding="UTF-8" standalone="no"?>
<!DOCTYPE svg PUBLIC "-//W3C//DTD SVG 1.1//EN"
 "http://www.w3.org/Graphics/SVG/1.1/DTD/svg11.dtd">
<!-- Generated by graphviz version 7.1.0 (20230121.1956)
 -->
<!-- Title: src/core/evaluation/parser/parser.h Pages: 1 -->
<svg width="492pt" height="159pt"
 viewBox="0.00 0.00 491.50 159.00" xmlns="http://www.w3.org/2000/svg" xmlns:xlink="http://www.w3.org/1999/xlink">
<g id="graph0" class="graph" transform="scale(1 1) rotate(0) translate(4 155)">
<title>src/core/evaluation/parser/parser.h</title>
<!-- Node1 -->
<g id="node1" class="node">
<title>Node1</title>
<g id="a_node1"><a xlink:title=" ">
<polygon fill="#999999" stroke="#666666" points="279,-151 180,-151 180,-121 279,-121 279,-151"/>
<text text-anchor="start" x="188" y="-139" font-family="Helvetica,sans-Serif" font-size="10.00">src/core/evaluation</text>
<text text-anchor="middle" x="229.5" y="-128" font-family="Helvetica,sans-Serif" font-size="10.00">/parser/parser.h</text>
</a>
</g>
</g>
<!-- Node2 -->
<g id="node2" class="node">
<title>Node2</title>
<g id="a_node2"><a xlink:href="interpreter_8cpp.html" target="_top" xlink:title=" ">
<polygon fill="white" stroke="#666666" points="99,-85 0,-85 0,-55 99,-55 99,-85"/>
<text text-anchor="start" x="8" y="-73" font-family="Helvetica,sans-Serif" font-size="10.00">src/core/evaluation</text>
<text text-anchor="middle" x="49.5" y="-62" font-family="Helvetica,sans-Serif" font-size="10.00">/interpreter.cpp</text>
</a>
</g>
</g>
<!-- Node1&#45;&gt;Node2 -->
<g id="edge1" class="edge">
<title>Node1&#45;&gt;Node2</title>
<path fill="none" stroke="#63b8ff" d="M178.33,-116.8C150.35,-106.86 116.19,-94.71 90.07,-85.43"/>
<polygon fill="#63b8ff" stroke="#63b8ff" points="177.08,-120.08 187.68,-120.13 179.43,-113.48 177.08,-120.08"/>
</g>
<!-- Node3 -->
<g id="node3" class="node">
<title>Node3</title>
<g id="a_node3"><a xlink:href="parser_8cpp.html" target="_top" xlink:title=" ">
<polygon fill="white" stroke="#666666" points="216,-85 117,-85 117,-55 216,-55 216,-85"/>
<text text-anchor="start" x="125" y="-73" font-family="Helvetica,sans-Serif" font-size="10.00">src/core/evaluation</text>
<text text-anchor="middle" x="166.5" y="-62" font-family="Helvetica,sans-Serif" font-size="10.00">/parser/parser.cpp</text>
</a>
</g>
</g>
<!-- Node1&#45;&gt;Node3 -->
<g id="edge2" class="edge">
<title>Node1&#45;&gt;Node3</title>
<path fill="none" stroke="#63b8ff" d="M207.65,-112.81C198.63,-103.64 188.43,-93.28 180.44,-85.16"/>
<polygon fill="#63b8ff" stroke="#63b8ff" points="204.95,-115.05 214.46,-119.72 209.94,-110.14 204.95,-115.05"/>
</g>
<!-- Node4 -->
<g id="node4" class="node">
<title>Node4</title>
<g id="a_node4"><a xlink:href="execution_8cpp.html" target="_top" xlink:title=" ">
<polygon fill="white" stroke="#666666" points="350.5,-79.5 234.5,-79.5 234.5,-60.5 350.5,-60.5 350.5,-79.5"/>
<text text-anchor="middle" x="292.5" y="-67.5" font-family="Helvetica,sans-Serif" font-size="10.00">src/core/execution.cpp</text>
</a>
</g>
</g>
<!-- Node1&#45;&gt;Node4 -->
<g id="edge3" class="edge">
<title>Node1&#45;&gt;Node4</title>
<path fill="none" stroke="#63b8ff" d="M251.54,-112.61C262.65,-101.32 275.49,-88.28 283.79,-79.84"/>
<polygon fill="#63b8ff" stroke="#63b8ff" points="249.06,-110.14 244.54,-119.72 254.05,-115.05 249.06,-110.14"/>
</g>
<!-- Node5 -->
<g id="node5" class="node">
<title>Node5</title>
<g id="a_node5"><a xlink:href="parser__fixture_8h.html" target="_top" xlink:title=" ">
<polygon fill="white" stroke="#666666" points="466.5,-85 368.5,-85 368.5,-55 466.5,-55 466.5,-85"/>
<text text-anchor="start" x="376.5" y="-73" font-family="Helvetica,sans-Serif" font-size="10.00">src/testing/fixtures</text>
<text text-anchor="middle" x="417.5" y="-62" font-family="Helvetica,sans-Serif" font-size="10.00">/parser_fixture.h</text>
</a>
</g>
</g>
<!-- Node1&#45;&gt;Node5 -->
<g id="edge4" class="edge">
<title>Node1&#45;&gt;Node5</title>
<path fill="none" stroke="#63b8ff" d="M282.56,-116.94C311.85,-106.97 347.73,-94.75 375.13,-85.43"/>
<polygon fill="#63b8ff" stroke="#63b8ff" points="281.46,-113.61 273.12,-120.15 283.72,-120.24 281.46,-113.61"/>
</g>
<!-- Node6 -->
<g id="node6" class="node">
<title>Node6</title>
<g id="a_node6"><a xlink:href="test__parser_8cpp.html" target="_top" xlink:title=" ">
<polygon fill="white" stroke="#666666" points="483.5,-19 351.5,-19 351.5,0 483.5,0 483.5,-19"/>
<text text-anchor="middle" x="417.5" y="-7" font-family="Helvetica,sans-Serif" font-size="10.00">src/testing/test_parser.cpp</text>
</a>
</g>
</g>
<!-- Node5&#45;&gt;Node6 -->
<g id="edge5" class="edge">
<title>Node5&#45;&gt;Node6</title>
<path fill="none" stroke="#63b8ff" d="M417.5,-43.3C417.5,-34.65 417.5,-25.58 417.5,-19.18"/>
<polygon fill="#63b8ff" stroke="#63b8ff" points="414,-43.03 417.5,-53.03 421,-43.03 414,-43.03"/>
</g>
</g>
</svg>
