<?xml version="1.0" encoding="UTF-8" standalone="no"?>
<!DOCTYPE svg PUBLIC "-//W3C//DTD SVG 1.1//EN"
 "http://www.w3.org/Graphics/SVG/1.1/DTD/svg11.dtd">
<!-- Generated by graphviz version 7.1.0 (20230121.1956)
 -->
<!-- Title: /Users/nikolajbankejensen/Desktop/Kepler/src/core/evaluation/operations/pervade.h Pages: 1 -->
<svg width="479pt" height="291pt"
 viewBox="0.00 0.00 479.00 291.00" xmlns="http://www.w3.org/2000/svg" xmlns:xlink="http://www.w3.org/1999/xlink">
<g id="graph0" class="graph" transform="scale(1 1) rotate(0) translate(4 287)">
<title>/Users/nikolajbankejensen/Desktop/Kepler/src/core/evaluation/operations/pervade.h</title>
<!-- Node1 -->
<g id="node1" class="node">
<title>Node1</title>
<g id="a_node1"><a xlink:title=" ">
<polygon fill="#999999" stroke="#666666" points="378.5,-283 220.5,-283 220.5,-242 378.5,-242 378.5,-283"/>
<text text-anchor="start" x="228.5" y="-271" font-family="Helvetica,sans-Serif" font-size="10.00">/Users/nikolajbankejensen</text>
<text text-anchor="start" x="228.5" y="-260" font-family="Helvetica,sans-Serif" font-size="10.00">/Desktop/Kepler/src/core</text>
<text text-anchor="middle" x="299.5" y="-249" font-family="Helvetica,sans-Serif" font-size="10.00">/evaluation/operations/pervade.h</text>
</a>
</g>
</g>
<!-- Node2 -->
<g id="node2" class="node">
<title>Node2</title>
<g id="a_node2"><a xlink:href="functions_8h.html" target="_top" xlink:title=" ">
<polygon fill="white" stroke="#666666" points="381,-206 218,-206 218,-165 381,-165 381,-206"/>
<text text-anchor="start" x="226" y="-194" font-family="Helvetica,sans-Serif" font-size="10.00">/Users/nikolajbankejensen</text>
<text text-anchor="start" x="226" y="-183" font-family="Helvetica,sans-Serif" font-size="10.00">/Desktop/Kepler/src/core</text>
<text text-anchor="middle" x="299.5" y="-172" font-family="Helvetica,sans-Serif" font-size="10.00">/evaluation/operations/functions.h</text>
</a>
</g>
</g>
<!-- Node1&#45;&gt;Node2 -->
<g id="edge1" class="edge">
<title>Node1&#45;&gt;Node2</title>
<path fill="none" stroke="#63b8ff" d="M299.5,-230.36C299.5,-222.24 299.5,-213.7 299.5,-206.33"/>
<polygon fill="#63b8ff" stroke="#63b8ff" points="296,-230.28 299.5,-240.28 303,-230.28 296,-230.28"/>
</g>
<!-- Node3 -->
<g id="node3" class="node">
<title>Node3</title>
<g id="a_node3"><a xlink:href="interpreter_8h.html" target="_top" xlink:title=" ">
<polygon fill="white" stroke="#666666" points="280,-129 149,-129 149,-88 280,-88 280,-129"/>
<text text-anchor="start" x="157" y="-117" font-family="Helvetica,sans-Serif" font-size="10.00">/Users/nikolajbankejensen</text>
<text text-anchor="start" x="157" y="-106" font-family="Helvetica,sans-Serif" font-size="10.00">/Desktop/Kepler/src/core</text>
<text text-anchor="middle" x="214.5" y="-95" font-family="Helvetica,sans-Serif" font-size="10.00">/evaluation/interpreter.h</text>
</a>
</g>
</g>
<!-- Node2&#45;&gt;Node3 -->
<g id="edge2" class="edge">
<title>Node2&#45;&gt;Node3</title>
<path fill="none" stroke="#63b8ff" d="M268.67,-157.29C258.19,-148.05 246.68,-137.89 236.98,-129.33"/>
<polygon fill="#63b8ff" stroke="#63b8ff" points="266.22,-159.8 276.03,-163.79 270.85,-154.55 266.22,-159.8"/>
</g>
<!-- Node7 -->
<g id="node7" class="node">
<title>Node7</title>
<g id="a_node7"><a xlink:href="functions_8cpp.html" target="_top" xlink:title=" ">
<polygon fill="white" stroke="#666666" points="471,-129 298,-129 298,-88 471,-88 471,-129"/>
<text text-anchor="start" x="306" y="-117" font-family="Helvetica,sans-Serif" font-size="10.00">/Users/nikolajbankejensen</text>
<text text-anchor="start" x="306" y="-106" font-family="Helvetica,sans-Serif" font-size="10.00">/Desktop/Kepler/src/core</text>
<text text-anchor="middle" x="384.5" y="-95" font-family="Helvetica,sans-Serif" font-size="10.00">/evaluation/operations/functions.cpp</text>
</a>
</g>
</g>
<!-- Node2&#45;&gt;Node7 -->
<g id="edge6" class="edge">
<title>Node2&#45;&gt;Node7</title>
<path fill="none" stroke="#63b8ff" d="M330.33,-157.29C340.81,-148.05 352.32,-137.89 362.02,-129.33"/>
<polygon fill="#63b8ff" stroke="#63b8ff" points="328.15,-154.55 322.97,-163.79 332.78,-159.8 328.15,-154.55"/>
</g>
<!-- Node4 -->
<g id="node4" class="node">
<title>Node4</title>
<g id="a_node4"><a xlink:href="execution_8cpp.html" target="_top" xlink:title=" ">
<polygon fill="white" stroke="#666666" points="131,-46.5 0,-46.5 0,-5.5 131,-5.5 131,-46.5"/>
<text text-anchor="start" x="8" y="-34.5" font-family="Helvetica,sans-Serif" font-size="10.00">/Users/nikolajbankejensen</text>
<text text-anchor="start" x="8" y="-23.5" font-family="Helvetica,sans-Serif" font-size="10.00">/Desktop/Kepler/src/core</text>
<text text-anchor="middle" x="65.5" y="-12.5" font-family="Helvetica,sans-Serif" font-size="10.00">/evaluation/execution.cpp</text>
</a>
</g>
</g>
<!-- Node3&#45;&gt;Node4 -->
<g id="edge3" class="edge">
<title>Node3&#45;&gt;Node4</title>
<path fill="none" stroke="#63b8ff" d="M167.65,-82.19C146.61,-70.82 122.14,-57.6 102.42,-46.95"/>
<polygon fill="#63b8ff" stroke="#63b8ff" points="165.88,-85.21 176.34,-86.88 169.2,-79.05 165.88,-85.21"/>
</g>
<!-- Node5 -->
<g id="node5" class="node">
<title>Node5</title>
<g id="a_node5"><a xlink:href="interpreter_8cpp.html" target="_top" xlink:title=" ">
<polygon fill="white" stroke="#666666" points="280,-46.5 149,-46.5 149,-5.5 280,-5.5 280,-46.5"/>
<text text-anchor="start" x="157" y="-34.5" font-family="Helvetica,sans-Serif" font-size="10.00">/Users/nikolajbankejensen</text>
<text text-anchor="start" x="157" y="-23.5" font-family="Helvetica,sans-Serif" font-size="10.00">/Desktop/Kepler/src/core</text>
<text text-anchor="middle" x="214.5" y="-12.5" font-family="Helvetica,sans-Serif" font-size="10.00">/evaluation/interpreter.cpp</text>
</a>
</g>
</g>
<!-- Node3&#45;&gt;Node5 -->
<g id="edge4" class="edge">
<title>Node3&#45;&gt;Node5</title>
<path fill="none" stroke="#63b8ff" d="M214.5,-76.16C214.5,-66.33 214.5,-55.76 214.5,-46.95"/>
<polygon fill="#63b8ff" stroke="#63b8ff" points="211,-76.09 214.5,-86.09 218,-76.09 211,-76.09"/>
</g>
<!-- Node6 -->
<g id="node6" class="node">
<title>Node6</title>
<g id="a_node6"><a xlink:href="defined__function_8cpp.html" target="_top" xlink:title=" ">
<polygon fill="white" stroke="#666666" points="444.5,-52 298.5,-52 298.5,0 444.5,0 444.5,-52"/>
<text text-anchor="start" x="306.5" y="-40" font-family="Helvetica,sans-Serif" font-size="10.00">/Users/nikolajbankejensen</text>
<text text-anchor="start" x="306.5" y="-29" font-family="Helvetica,sans-Serif" font-size="10.00">/Desktop/Kepler/src/core</text>
<text text-anchor="start" x="306.5" y="-18" font-family="Helvetica,sans-Serif" font-size="10.00">/evaluation/operations/defined</text>
<text text-anchor="middle" x="371.5" y="-7" font-family="Helvetica,sans-Serif" font-size="10.00">_function.cpp</text>
</a>
</g>
</g>
<!-- Node3&#45;&gt;Node6 -->
<g id="edge5" class="edge">
<title>Node3&#45;&gt;Node6</title>
<path fill="none" stroke="#63b8ff" d="M263.35,-82.45C281.96,-72.91 303.17,-62.03 321.86,-52.45"/>
<polygon fill="#63b8ff" stroke="#63b8ff" points="261.96,-79.23 254.66,-86.91 265.15,-85.46 261.96,-79.23"/>
</g>
</g>
</svg>
