<?xml version="1.0" encoding="UTF-8" standalone="no"?>
<!DOCTYPE svg PUBLIC "-//W3C//DTD SVG 1.1//EN"
 "http://www.w3.org/Graphics/SVG/1.1/DTD/svg11.dtd">
<!-- Generated by graphviz version 7.1.0 (20230121.1956)
 -->
<!-- Title: src/core/evaluation/operations/pervade.h Pages: 1 -->
<svg width="273pt" height="203pt"
 viewBox="0.00 0.00 273.00 203.00" xmlns="http://www.w3.org/2000/svg" xmlns:xlink="http://www.w3.org/1999/xlink">
<g id="graph0" class="graph" transform="scale(1 1) rotate(0) translate(4 199)">
<title>src/core/evaluation/operations/pervade.h</title>
<!-- Node1 -->
<g id="node1" class="node">
<title>Node1</title>
<g id="a_node1"><a xlink:title=" ">
<polygon fill="#999999" stroke="#666666" points="200,-195 90,-195 90,-165 200,-165 200,-195"/>
<text text-anchor="start" x="98" y="-183" font-family="Helvetica,sans-Serif" font-size="10.00">src/core/evaluation</text>
<text text-anchor="middle" x="145" y="-172" font-family="Helvetica,sans-Serif" font-size="10.00">/operations/pervade.h</text>
</a>
</g>
</g>
<!-- Node2 -->
<g id="node2" class="node">
<title>Node2</title>
<g id="a_node2"><a xlink:href="array_8h.html" target="_top" xlink:title=" ">
<polygon fill="white" stroke="#666666" points="178.5,-129 111.5,-129 111.5,-110 178.5,-110 178.5,-129"/>
<text text-anchor="middle" x="145" y="-117" font-family="Helvetica,sans-Serif" font-size="10.00">core/array.h</text>
</a>
</g>
</g>
<!-- Node1&#45;&gt;Node2 -->
<g id="edge1" class="edge">
<title>Node1&#45;&gt;Node2</title>
<path fill="none" stroke="#63b8ff" d="M145,-164.54C145,-157.34 145,-148.53 145,-140.68"/>
<polygon fill="#63b8ff" stroke="#63b8ff" points="148.5,-140.69 145,-130.69 141.5,-140.69 148.5,-140.69"/>
</g>
<!-- Node3 -->
<g id="node3" class="node">
<title>Node3</title>
<g id="a_node3"><a xlink:href="datatypes_8h.html" target="_top" xlink:title=" ">
<polygon fill="white" stroke="#666666" points="117,-74 49,-74 49,-55 117,-55 117,-74"/>
<text text-anchor="middle" x="83" y="-62" font-family="Helvetica,sans-Serif" font-size="10.00">datatypes.h</text>
</a>
</g>
</g>
<!-- Node1&#45;&gt;Node3 -->
<g id="edge7" class="edge">
<title>Node1&#45;&gt;Node3</title>
<path fill="none" stroke="#63b8ff" d="M129.61,-164.5C120.46,-155.14 109.25,-142.26 102,-129 94.47,-115.23 89.57,-98.1 86.63,-85.11"/>
<polygon fill="#63b8ff" stroke="#63b8ff" points="90.13,-84.74 84.7,-75.64 83.27,-86.14 90.13,-84.74"/>
</g>
<!-- Node8 -->
<g id="node8" class="node">
<title>Node8</title>
<g id="a_node8"><a xlink:title=" ">
<polygon fill="#e0e0e0" stroke="#999999" points="265,-129 197,-129 197,-110 265,-110 265,-129"/>
<text text-anchor="middle" x="231" y="-117" font-family="Helvetica,sans-Serif" font-size="10.00">pervade.tpp</text>
</a>
</g>
</g>
<!-- Node1&#45;&gt;Node8 -->
<g id="edge8" class="edge">
<title>Node1&#45;&gt;Node8</title>
<path fill="none" stroke="#63b8ff" d="M166.26,-164.54C179.18,-155.75 195.66,-144.54 208.75,-135.63"/>
<polygon fill="#63b8ff" stroke="#63b8ff" points="210.44,-138.72 216.74,-130.2 206.51,-132.93 210.44,-138.72"/>
</g>
<!-- Node2&#45;&gt;Node3 -->
<g id="edge2" class="edge">
<title>Node2&#45;&gt;Node3</title>
<path fill="none" stroke="#63b8ff" d="M134.48,-109.51C125.61,-101.93 112.69,-90.88 102.01,-81.75"/>
<polygon fill="#63b8ff" stroke="#63b8ff" points="104.39,-79.18 94.51,-75.34 99.84,-84.5 104.39,-79.18"/>
</g>
<!-- Node7 -->
<g id="node7" class="node">
<title>Node7</title>
<g id="a_node7"><a xlink:title=" ">
<polygon fill="#e0e0e0" stroke="#999999" points="181,-74 135,-74 135,-55 181,-55 181,-74"/>
<text text-anchor="middle" x="158" y="-62" font-family="Helvetica,sans-Serif" font-size="10.00">variant</text>
</a>
</g>
</g>
<!-- Node2&#45;&gt;Node7 -->
<g id="edge6" class="edge">
<title>Node2&#45;&gt;Node7</title>
<path fill="none" stroke="#63b8ff" d="M147.15,-109.75C148.76,-103.19 151.02,-93.95 153.07,-85.6"/>
<polygon fill="#63b8ff" stroke="#63b8ff" points="156.46,-86.46 155.45,-75.91 149.66,-84.79 156.46,-86.46"/>
</g>
<!-- Node4 -->
<g id="node4" class="node">
<title>Node4</title>
<g id="a_node4"><a xlink:title=" ">
<polygon fill="#e0e0e0" stroke="#999999" points="44,-19 0,-19 0,0 44,0 44,-19"/>
<text text-anchor="middle" x="22" y="-7" font-family="Helvetica,sans-Serif" font-size="10.00">vector</text>
</a>
</g>
</g>
<!-- Node3&#45;&gt;Node4 -->
<g id="edge3" class="edge">
<title>Node3&#45;&gt;Node4</title>
<path fill="none" stroke="#63b8ff" d="M72.65,-54.51C63.92,-46.93 51.21,-35.88 40.7,-26.75"/>
<polygon fill="#63b8ff" stroke="#63b8ff" points="43.18,-24.27 33.34,-20.35 38.59,-29.55 43.18,-24.27"/>
</g>
<!-- Node5 -->
<g id="node5" class="node">
<title>Node5</title>
<g id="a_node5"><a xlink:title=" ">
<polygon fill="#e0e0e0" stroke="#999999" points="103.5,-19 62.5,-19 62.5,0 103.5,0 103.5,-19"/>
<text text-anchor="middle" x="83" y="-7" font-family="Helvetica,sans-Serif" font-size="10.00">string</text>
</a>
</g>
</g>
<!-- Node3&#45;&gt;Node5 -->
<g id="edge4" class="edge">
<title>Node3&#45;&gt;Node5</title>
<path fill="none" stroke="#63b8ff" d="M83,-54.75C83,-48.27 83,-39.16 83,-30.9"/>
<polygon fill="#63b8ff" stroke="#63b8ff" points="86.5,-30.96 83,-20.96 79.5,-30.96 86.5,-30.96"/>
</g>
<!-- Node6 -->
<g id="node6" class="node">
<title>Node6</title>
<g id="a_node6"><a xlink:title=" ">
<polygon fill="#e0e0e0" stroke="#999999" points="174.5,-19 121.5,-19 121.5,0 174.5,0 174.5,-19"/>
<text text-anchor="middle" x="148" y="-7" font-family="Helvetica,sans-Serif" font-size="10.00">complex</text>
</a>
</g>
</g>
<!-- Node3&#45;&gt;Node6 -->
<g id="edge5" class="edge">
<title>Node3&#45;&gt;Node6</title>
<path fill="none" stroke="#63b8ff" d="M94.03,-54.51C103.42,-46.85 117.15,-35.66 128.41,-26.47"/>
<polygon fill="#63b8ff" stroke="#63b8ff" points="130.43,-29.35 135.96,-20.31 126,-23.92 130.43,-29.35"/>
</g>
</g>
</svg>
