<?xml version="1.0" encoding="UTF-8" standalone="no"?>
<!DOCTYPE svg PUBLIC "-//W3C//DTD SVG 1.1//EN"
 "http://www.w3.org/Graphics/SVG/1.1/DTD/svg11.dtd">
<!-- Generated by graphviz version 7.1.0 (20230121.1956)
 -->
<!-- Title: kepler::FunctionVariable Pages: 1 -->
<svg width="381pt" height="668pt"
 viewBox="0.00 0.00 380.96 668.00" xmlns="http://www.w3.org/2000/svg" xmlns:xlink="http://www.w3.org/1999/xlink">
<g id="graph0" class="graph" transform="scale(1 1) rotate(0) translate(4 664)">
<title>kepler::FunctionVariable</title>
<!-- Node1 -->
<g id="node1" class="node">
<title>Node1</title>
<g id="a_node1"><a xlink:title=" ">
<polygon fill="#999999" stroke="#666666" points="86.46,-0.5 86.46,-123.5 213.46,-123.5 213.46,-0.5 86.46,-0.5"/>
<text text-anchor="middle" x="149.96" y="-111.5" font-family="Helvetica,sans-Serif" font-size="10.00">kepler::FunctionVariable</text>
<polyline fill="none" stroke="#666666" points="86.46,-104.5 213.46,-104.5"/>
<text text-anchor="middle" x="149.96" y="-92.5" font-family="Helvetica,sans-Serif" font-size="10.00"> </text>
<polyline fill="none" stroke="#666666" points="86.46,-85.5 213.46,-85.5"/>
<text text-anchor="start" x="94.46" y="-73.5" font-family="Helvetica,sans-Serif" font-size="10.00">+ FunctionVariable(Token</text>
<text text-anchor="start" x="94.46" y="-62.5" font-family="Helvetica,sans-Serif" font-size="10.00"> identifier)</text>
<text text-anchor="start" x="94.46" y="-51.5" font-family="Helvetica,sans-Serif" font-size="10.00">+ std::string to_string</text>
<text text-anchor="start" x="94.46" y="-40.5" font-family="Helvetica,sans-Serif" font-size="10.00">() const override</text>
<text text-anchor="start" x="94.46" y="-29.5" font-family="Helvetica,sans-Serif" font-size="10.00">+ Operation_ptr accept</text>
<text text-anchor="start" x="94.46" y="-18.5" font-family="Helvetica,sans-Serif" font-size="10.00">(NodeVisitor &amp;visitor)</text>
<text text-anchor="start" x="94.46" y="-7.5" font-family="Helvetica,sans-Serif" font-size="10.00"> override</text>
</a>
</g>
</g>
<!-- Node2 -->
<g id="node2" class="node">
<title>Node2</title>
<g id="a_node2"><a xlink:href="structkepler_1_1_a_s_t_node.html" target="_top" xlink:title=" ">
<polygon fill="white" stroke="#666666" points="13.46,-161.5 13.46,-295.5 156.46,-295.5 156.46,-161.5 13.46,-161.5"/>
<text text-anchor="start" x="21.46" y="-283.5" font-family="Helvetica,sans-Serif" font-size="10.00">kepler::ASTNode&lt; Operation</text>
<text text-anchor="middle" x="84.96" y="-272.5" font-family="Helvetica,sans-Serif" font-size="10.00">_ptr &gt;</text>
<polyline fill="none" stroke="#666666" points="13.46,-265.5 156.46,-265.5"/>
<text text-anchor="middle" x="84.96" y="-253.5" font-family="Helvetica,sans-Serif" font-size="10.00"> </text>
<polyline fill="none" stroke="#666666" points="13.46,-246.5 156.46,-246.5"/>
<text text-anchor="start" x="21.46" y="-234.5" font-family="Helvetica,sans-Serif" font-size="10.00">+ virtual ~ASTNode()</text>
<text text-anchor="start" x="21.46" y="-223.5" font-family="Helvetica,sans-Serif" font-size="10.00">=default</text>
<text text-anchor="start" x="21.46" y="-212.5" font-family="Helvetica,sans-Serif" font-size="10.00">+ virtual Operation_ptr</text>
<text text-anchor="start" x="21.46" y="-201.5" font-family="Helvetica,sans-Serif" font-size="10.00"> accept(class NodeVisitor</text>
<text text-anchor="start" x="21.46" y="-190.5" font-family="Helvetica,sans-Serif" font-size="10.00"> &amp;visitor)=0</text>
<text text-anchor="start" x="21.46" y="-179.5" font-family="Helvetica,sans-Serif" font-size="10.00">+ virtual std::string</text>
<text text-anchor="start" x="21.46" y="-168.5" font-family="Helvetica,sans-Serif" font-size="10.00"> to_string() const=0</text>
</a>
</g>
</g>
<!-- Node2&#45;&gt;Node1 -->
<g id="edge1" class="edge">
<title>Node2&#45;&gt;Node1</title>
<path fill="none" stroke="#63b8ff" d="M115.14,-151.11C118.82,-141.81 122.53,-132.41 126.1,-123.38"/>
<polygon fill="none" stroke="#63b8ff" points="112,-149.55 111.58,-160.13 118.51,-152.12 112,-149.55"/>
</g>
<!-- Node3 -->
<g id="node3" class="node">
<title>Node3</title>
<g id="a_node3"><a xlink:href="structkepler_1_1position.html" target="_top" xlink:title=" ">
<polygon fill="white" stroke="#666666" points="24.96,-547.5 24.96,-659.5 144.96,-659.5 144.96,-547.5 24.96,-547.5"/>
<text text-anchor="middle" x="84.96" y="-647.5" font-family="Helvetica,sans-Serif" font-size="10.00">kepler::position</text>
<polyline fill="none" stroke="#666666" points="24.96,-640.5 144.96,-640.5"/>
<text text-anchor="middle" x="84.96" y="-628.5" font-family="Helvetica,sans-Serif" font-size="10.00"> </text>
<polyline fill="none" stroke="#666666" points="24.96,-621.5 144.96,-621.5"/>
<text text-anchor="start" x="32.96" y="-609.5" font-family="Helvetica,sans-Serif" font-size="10.00">+ position()</text>
<text text-anchor="start" x="32.96" y="-598.5" font-family="Helvetica,sans-Serif" font-size="10.00">+ position(long pos_)</text>
<text text-anchor="start" x="32.96" y="-587.5" font-family="Helvetica,sans-Serif" font-size="10.00">+ void set_position(long</text>
<text text-anchor="start" x="32.96" y="-576.5" font-family="Helvetica,sans-Serif" font-size="10.00"> new_pos)</text>
<text text-anchor="start" x="32.96" y="-565.5" font-family="Helvetica,sans-Serif" font-size="10.00">+ long get_position()</text>
<text text-anchor="start" x="32.96" y="-554.5" font-family="Helvetica,sans-Serif" font-size="10.00"> const</text>
</a>
</g>
</g>
<!-- Node3&#45;&gt;Node2 -->
<g id="edge2" class="edge">
<title>Node3&#45;&gt;Node2</title>
<path fill="none" stroke="#63b8ff" d="M32.73,-538.2C25.42,-526.14 19.02,-513.16 14.96,-500 -5.63,-433.33 -4.08,-410.13 14.96,-343 19.6,-326.63 27.35,-310.3 36.03,-295.35"/>
<polygon fill="none" stroke="#63b8ff" points="29.63,-539.84 37.96,-546.39 35.53,-536.08 29.63,-539.84"/>
</g>
<!-- Node4 -->
<g id="node4" class="node">
<title>Node4</title>
<g id="a_node4"><a xlink:href="structkepler_1_1_a_s_t_node.html" target="_top" xlink:title=" ">
<polygon fill="white" stroke="#666666" points="24.46,-365.5 24.46,-477.5 145.46,-477.5 145.46,-365.5 24.46,-365.5"/>
<text text-anchor="middle" x="84.96" y="-465.5" font-family="Helvetica,sans-Serif" font-size="10.00">kepler::ASTNode&lt; T &gt;</text>
<polyline fill="none" stroke="#666666" points="24.46,-458.5 145.46,-458.5"/>
<text text-anchor="middle" x="84.96" y="-446.5" font-family="Helvetica,sans-Serif" font-size="10.00"> </text>
<polyline fill="none" stroke="#666666" points="24.46,-439.5 145.46,-439.5"/>
<text text-anchor="start" x="32.46" y="-427.5" font-family="Helvetica,sans-Serif" font-size="10.00">+ virtual ~ASTNode()</text>
<text text-anchor="start" x="32.46" y="-416.5" font-family="Helvetica,sans-Serif" font-size="10.00">=default</text>
<text text-anchor="start" x="32.46" y="-405.5" font-family="Helvetica,sans-Serif" font-size="10.00">+ virtual T accept(class</text>
<text text-anchor="start" x="32.46" y="-394.5" font-family="Helvetica,sans-Serif" font-size="10.00"> NodeVisitor &amp;visitor)=0</text>
<text text-anchor="start" x="32.46" y="-383.5" font-family="Helvetica,sans-Serif" font-size="10.00">+ virtual std::string</text>
<text text-anchor="start" x="32.46" y="-372.5" font-family="Helvetica,sans-Serif" font-size="10.00"> to_string() const =0</text>
</a>
</g>
</g>
<!-- Node3&#45;&gt;Node4 -->
<g id="edge4" class="edge">
<title>Node3&#45;&gt;Node4</title>
<path fill="none" stroke="#63b8ff" d="M84.96,-536.06C84.96,-516.78 84.96,-495.95 84.96,-477.46"/>
<polygon fill="none" stroke="#63b8ff" points="81.46,-536 84.96,-546 88.46,-536 81.46,-536"/>
</g>
<!-- Node5 -->
<g id="node5" class="node">
<title>Node5</title>
<g id="a_node5"><a xlink:href="structkepler_1_1_token.html" target="_top" xlink:title=" ">
<polygon fill="white" stroke="#666666" points="163.96,-343.5 163.96,-499.5 315.96,-499.5 315.96,-343.5 163.96,-343.5"/>
<text text-anchor="middle" x="239.96" y="-487.5" font-family="Helvetica,sans-Serif" font-size="10.00">kepler::Token</text>
<polyline fill="none" stroke="#666666" points="163.96,-480.5 315.96,-480.5"/>
<text text-anchor="middle" x="239.96" y="-468.5" font-family="Helvetica,sans-Serif" font-size="10.00"> </text>
<polyline fill="none" stroke="#666666" points="163.96,-461.5 315.96,-461.5"/>
<text text-anchor="start" x="171.96" y="-449.5" font-family="Helvetica,sans-Serif" font-size="10.00">+ Token(long pos, TokenType</text>
<text text-anchor="start" x="171.96" y="-438.5" font-family="Helvetica,sans-Serif" font-size="10.00"> type_, Char content_)</text>
<text text-anchor="start" x="171.96" y="-427.5" font-family="Helvetica,sans-Serif" font-size="10.00">+ Token(long pos, TokenType</text>
<text text-anchor="start" x="171.96" y="-416.5" font-family="Helvetica,sans-Serif" font-size="10.00"> type_, std::u32string content_)</text>
<text text-anchor="start" x="171.96" y="-405.5" font-family="Helvetica,sans-Serif" font-size="10.00">+ Token(TokenType type</text>
<text text-anchor="start" x="171.96" y="-394.5" font-family="Helvetica,sans-Serif" font-size="10.00">_, std::u32string content_)</text>
<text text-anchor="start" x="171.96" y="-383.5" font-family="Helvetica,sans-Serif" font-size="10.00">+ Token(long pos, TokenType</text>
<text text-anchor="start" x="171.96" y="-372.5" font-family="Helvetica,sans-Serif" font-size="10.00"> type_)</text>
<text text-anchor="start" x="171.96" y="-361.5" font-family="Helvetica,sans-Serif" font-size="10.00">+ std::string to_string</text>
<text text-anchor="start" x="171.96" y="-350.5" font-family="Helvetica,sans-Serif" font-size="10.00">() const</text>
</a>
</g>
</g>
<!-- Node3&#45;&gt;Node5 -->
<g id="edge6" class="edge">
<title>Node3&#45;&gt;Node5</title>
<path fill="none" stroke="#63b8ff" d="M139.8,-538.81C150.79,-526.05 162.45,-512.5 173.79,-499.35"/>
<polygon fill="none" stroke="#63b8ff" points="137.17,-536.51 133.29,-546.37 142.47,-541.08 137.17,-536.51"/>
</g>
<!-- Node4&#45;&gt;Node2 -->
<g id="edge3" class="edge">
<title>Node4&#45;&gt;Node2</title>
<path fill="none" stroke="orange" d="M84.96,-354.19C84.96,-335.11 84.96,-314.3 84.96,-295.25"/>
<polygon fill="orange" stroke="orange" points="81.46,-354 84.96,-364 88.46,-354 81.46,-354"/>
<text text-anchor="middle" x="124.96" y="-317" font-family="Helvetica,sans-Serif" font-size="10.00"> &lt; Operation_ptr &gt;</text>
</g>
<!-- Node5&#45;&gt;Node1 -->
<g id="edge5" class="edge">
<title>Node5&#45;&gt;Node1</title>
<path fill="none" stroke="#404040" d="M220.65,-343.81C205.15,-282.23 183.53,-196.34 168.29,-135.81"/>
<polygon fill="none" stroke="#404040" points="168.29,-135.81 162.94,-130.97 165.36,-124.17 170.7,-129.02 168.29,-135.81"/>
<text text-anchor="middle" x="231.96" y="-226" font-family="Helvetica,sans-Serif" font-size="10.00"> +identifier</text>
</g>
<!-- Node6 -->
<g id="node6" class="node">
<title>Node6</title>
<g id="a_node6"><a xlink:title=" ">
<polygon fill="white" stroke="#666666" points="184.96,-575 184.96,-632 248.96,-632 248.96,-575 184.96,-575"/>
<text text-anchor="middle" x="216.96" y="-620" font-family="Helvetica,sans-Serif" font-size="10.00">TokenType</text>
<polyline fill="none" stroke="#666666" points="184.96,-613 248.96,-613"/>
<text text-anchor="middle" x="216.96" y="-601" font-family="Helvetica,sans-Serif" font-size="10.00"> </text>
<polyline fill="none" stroke="#666666" points="184.96,-594 248.96,-594"/>
<text text-anchor="middle" x="216.96" y="-582" font-family="Helvetica,sans-Serif" font-size="10.00"> </text>
</a>
</g>
</g>
<!-- Node6&#45;&gt;Node5 -->
<g id="edge7" class="edge">
<title>Node6&#45;&gt;Node5</title>
<path fill="none" stroke="#404040" d="M220.45,-575.16C222.64,-558.07 225.59,-534.99 228.53,-511.95"/>
<polygon fill="none" stroke="#404040" points="228.52,-512 225.32,-505.54 230.04,-500.09 233.25,-506.55 228.52,-512"/>
<text text-anchor="middle" x="241.96" y="-521" font-family="Helvetica,sans-Serif" font-size="10.00"> +type</text>
</g>
<!-- Node7 -->
<g id="node7" class="node">
<title>Node7</title>
<g id="a_node7"><a xlink:title=" ">
<polygon fill="white" stroke="#666666" points="266.96,-569.5 266.96,-637.5 372.96,-637.5 372.96,-569.5 266.96,-569.5"/>
<text text-anchor="start" x="274.96" y="-625.5" font-family="Helvetica,sans-Serif" font-size="10.00">optional&lt; std::vector</text>
<text text-anchor="middle" x="319.96" y="-614.5" font-family="Helvetica,sans-Serif" font-size="10.00">&lt; Char &gt; &gt;</text>
<polyline fill="none" stroke="#666666" points="266.96,-607.5 372.96,-607.5"/>
<text text-anchor="middle" x="319.96" y="-595.5" font-family="Helvetica,sans-Serif" font-size="10.00"> </text>
<polyline fill="none" stroke="#666666" points="266.96,-588.5 372.96,-588.5"/>
<text text-anchor="middle" x="319.96" y="-576.5" font-family="Helvetica,sans-Serif" font-size="10.00"> </text>
</a>
</g>
</g>
<!-- Node7&#45;&gt;Node5 -->
<g id="edge8" class="edge">
<title>Node7&#45;&gt;Node5</title>
<path fill="none" stroke="#404040" d="M305.47,-569.9C298.06,-553.23 288.65,-532.06 279.29,-510.99"/>
<polygon fill="none" stroke="#404040" points="279.34,-511.12 273.25,-507.26 274.47,-500.15 280.56,-504.01 279.34,-511.12"/>
<text text-anchor="middle" x="308.96" y="-521" font-family="Helvetica,sans-Serif" font-size="10.00"> +content</text>
</g>
</g>
</svg>
