<?xml version="1.0" encoding="UTF-8" standalone="no"?>
<!DOCTYPE svg PUBLIC "-//W3C//DTD SVG 1.1//EN"
 "http://www.w3.org/Graphics/SVG/1.1/DTD/svg11.dtd">
<!-- Generated by graphviz version 7.1.0 (20230121.1956)
 -->
<!-- Title: kepler::Array::flattened_shape Pages: 1 -->
<svg width="417pt" height="76pt"
 viewBox="0.00 0.00 417.00 75.50" xmlns="http://www.w3.org/2000/svg" xmlns:xlink="http://www.w3.org/1999/xlink">
<g id="graph0" class="graph" transform="scale(1 1) rotate(0) translate(4 71.5)">
<title>kepler::Array::flattened_shape</title>
<!-- Node1 -->
<g id="node1" class="node">
<title>Node1</title>
<g id="a_node1"><a xlink:title=" ">
<polygon fill="#999999" stroke="#666666" points="409,-45.5 293,-45.5 293,-15.5 409,-15.5 409,-45.5"/>
<text text-anchor="start" x="301" y="-33.5" font-family="Helvetica,sans-Serif" font-size="10.00">kepler::Array::flattened</text>
<text text-anchor="middle" x="351" y="-22.5" font-family="Helvetica,sans-Serif" font-size="10.00">_shape</text>
</a>
</g>
</g>
<!-- Node2 -->
<g id="node2" class="node">
<title>Node2</title>
<g id="a_node2"><a xlink:href="structkepler_1_1_outer_product.html#a4b0449458081029233704a679beb1d21" target="_top" xlink:title=" ">
<polygon fill="white" stroke="#666666" points="257,-67.5 150,-67.5 150,-37.5 257,-37.5 257,-67.5"/>
<text text-anchor="start" x="158" y="-55.5" font-family="Helvetica,sans-Serif" font-size="10.00">kepler::OuterProduct</text>
<text text-anchor="middle" x="203.5" y="-44.5" font-family="Helvetica,sans-Serif" font-size="10.00">::operator()</text>
</a>
</g>
</g>
<!-- Node1&#45;&gt;Node2 -->
<g id="edge1" class="edge">
<title>Node1&#45;&gt;Node2</title>
<path fill="none" stroke="#63b8ff" d="M281.74,-40.82C273.48,-42.07 265.14,-43.33 257.15,-44.54"/>
<polygon fill="#63b8ff" stroke="#63b8ff" points="282.05,-44.31 291.42,-39.36 281,-37.39 282.05,-44.31"/>
</g>
<!-- Node3 -->
<g id="node3" class="node">
<title>Node3</title>
<g id="a_node3"><a xlink:href="namespacekepler.html#a2e1be937349f3fa654c55c00517d6761" target="_top" xlink:title=" ">
<polygon fill="white" stroke="#666666" points="234.5,-19 172.5,-19 172.5,0 234.5,0 234.5,-19"/>
<text text-anchor="middle" x="203.5" y="-7" font-family="Helvetica,sans-Serif" font-size="10.00">kepler::rho</text>
</a>
</g>
</g>
<!-- Node1&#45;&gt;Node3 -->
<g id="edge2" class="edge">
<title>Node1&#45;&gt;Node3</title>
<path fill="none" stroke="#63b8ff" d="M281.59,-20.63C265.09,-18.25 248.31,-15.82 234.62,-13.85"/>
<polygon fill="#63b8ff" stroke="#63b8ff" points="281.02,-24.08 291.41,-22.04 282.02,-17.15 281.02,-24.08"/>
</g>
<!-- Node4 -->
<g id="node4" class="node">
<title>Node4</title>
<g id="a_node4"><a xlink:href="structkepler_1_1_rho.html#af4c3435cbe66a0e278faad380ed11221" target="_top" xlink:title=" ">
<polygon fill="white" stroke="#666666" points="114,-19 0,-19 0,0 114,0 114,-19"/>
<text text-anchor="middle" x="57" y="-7" font-family="Helvetica,sans-Serif" font-size="10.00">kepler::Rho::operator()</text>
</a>
</g>
</g>
<!-- Node3&#45;&gt;Node4 -->
<g id="edge3" class="edge">
<title>Node3&#45;&gt;Node4</title>
<path fill="none" stroke="#63b8ff" d="M161.02,-9.5C146.44,-9.5 129.81,-9.5 114.23,-9.5"/>
<polygon fill="#63b8ff" stroke="#63b8ff" points="160.69,-13 170.69,-9.5 160.69,-6 160.69,-13"/>
</g>
</g>
</svg>
