<?xml version="1.0" encoding="UTF-8" standalone="no"?>
<!DOCTYPE svg PUBLIC "-//W3C//DTD SVG 1.1//EN"
 "http://www.w3.org/Graphics/SVG/1.1/DTD/svg11.dtd">
<!-- Generated by graphviz version 7.1.0 (20230121.1956)
 -->
<!-- Title: kepler::DyadicFunction Pages: 1 -->
<svg width="463pt" height="668pt"
 viewBox="0.00 0.00 463.00 668.00" xmlns="http://www.w3.org/2000/svg" xmlns:xlink="http://www.w3.org/1999/xlink">
<g id="graph0" class="graph" transform="scale(1 1) rotate(0) translate(4 664)">
<title>kepler::DyadicFunction</title>
<!-- Node1 -->
<g id="node1" class="node">
<title>Node1</title>
<g id="a_node1"><a xlink:title=" ">
<polygon fill="#999999" stroke="#666666" points="152,-0.5 152,-156.5 307,-156.5 307,-0.5 152,-0.5"/>
<text text-anchor="middle" x="229.5" y="-144.5" font-family="Helvetica,sans-Serif" font-size="10.00">kepler::DyadicFunction</text>
<polyline fill="none" stroke="#666666" points="152,-137.5 307,-137.5"/>
<text text-anchor="middle" x="229.5" y="-125.5" font-family="Helvetica,sans-Serif" font-size="10.00"> </text>
<polyline fill="none" stroke="#666666" points="152,-118.5 307,-118.5"/>
<text text-anchor="start" x="160" y="-106.5" font-family="Helvetica,sans-Serif" font-size="10.00">+ ~DyadicFunction()</text>
<text text-anchor="start" x="160" y="-95.5" font-family="Helvetica,sans-Serif" font-size="10.00"> override</text>
<text text-anchor="start" x="160" y="-84.5" font-family="Helvetica,sans-Serif" font-size="10.00">+ DyadicFunction(ASTNode</text>
<text text-anchor="start" x="160" y="-73.5" font-family="Helvetica,sans-Serif" font-size="10.00">&lt; Operation_ptr &gt; *function</text>
<text text-anchor="start" x="160" y="-62.5" font-family="Helvetica,sans-Serif" font-size="10.00">_, ASTNode&lt; Array &gt; *alpha</text>
<text text-anchor="start" x="160" y="-51.5" font-family="Helvetica,sans-Serif" font-size="10.00">_, ASTNode&lt; Array &gt; *omega_)</text>
<text text-anchor="start" x="160" y="-40.5" font-family="Helvetica,sans-Serif" font-size="10.00">+ std::string to_string</text>
<text text-anchor="start" x="160" y="-29.5" font-family="Helvetica,sans-Serif" font-size="10.00">() const override</text>
<text text-anchor="start" x="160" y="-18.5" font-family="Helvetica,sans-Serif" font-size="10.00">+ Array accept(NodeVisitor</text>
<text text-anchor="start" x="160" y="-7.5" font-family="Helvetica,sans-Serif" font-size="10.00"> &amp;visitor) override</text>
</a>
</g>
</g>
<!-- Node2 -->
<g id="node2" class="node">
<title>Node2</title>
<g id="a_node2"><a xlink:href="structkepler_1_1_a_s_t_node.html" target="_top" xlink:title=" ">
<polygon fill="white" stroke="#666666" points="0,-226.5 0,-338.5 147,-338.5 147,-226.5 0,-226.5"/>
<text text-anchor="middle" x="73.5" y="-326.5" font-family="Helvetica,sans-Serif" font-size="10.00">kepler::ASTNode&lt; Array &gt;</text>
<polyline fill="none" stroke="#666666" points="0,-319.5 147,-319.5"/>
<text text-anchor="middle" x="73.5" y="-307.5" font-family="Helvetica,sans-Serif" font-size="10.00"> </text>
<polyline fill="none" stroke="#666666" points="0,-300.5 147,-300.5"/>
<text text-anchor="start" x="8" y="-288.5" font-family="Helvetica,sans-Serif" font-size="10.00">+ virtual ~ASTNode()</text>
<text text-anchor="start" x="8" y="-277.5" font-family="Helvetica,sans-Serif" font-size="10.00">=default</text>
<text text-anchor="start" x="8" y="-266.5" font-family="Helvetica,sans-Serif" font-size="10.00">+ virtual Array accept</text>
<text text-anchor="start" x="8" y="-255.5" font-family="Helvetica,sans-Serif" font-size="10.00">(class NodeVisitor &amp;visitor)=0</text>
<text text-anchor="start" x="8" y="-244.5" font-family="Helvetica,sans-Serif" font-size="10.00">+ virtual std::string</text>
<text text-anchor="start" x="8" y="-233.5" font-family="Helvetica,sans-Serif" font-size="10.00"> to_string() const=0</text>
</a>
</g>
</g>
<!-- Node2&#45;&gt;Node1 -->
<g id="edge1" class="edge">
<title>Node2&#45;&gt;Node1</title>
<path fill="none" stroke="#63b8ff" d="M122.91,-217.52C137.91,-198.1 154.54,-176.57 170.12,-156.39"/>
<polygon fill="none" stroke="#63b8ff" points="120.19,-215.32 116.85,-225.37 125.73,-219.6 120.19,-215.32"/>
</g>
<!-- Node3 -->
<g id="node3" class="node">
<title>Node3</title>
<g id="a_node3"><a xlink:href="structkepler_1_1_position.html" target="_top" xlink:title=" ">
<polygon fill="white" stroke="#666666" points="114.5,-547.5 114.5,-659.5 234.5,-659.5 234.5,-547.5 114.5,-547.5"/>
<text text-anchor="middle" x="174.5" y="-647.5" font-family="Helvetica,sans-Serif" font-size="10.00">kepler::Position</text>
<polyline fill="none" stroke="#666666" points="114.5,-640.5 234.5,-640.5"/>
<text text-anchor="middle" x="174.5" y="-628.5" font-family="Helvetica,sans-Serif" font-size="10.00"> </text>
<polyline fill="none" stroke="#666666" points="114.5,-621.5 234.5,-621.5"/>
<text text-anchor="start" x="122.5" y="-609.5" font-family="Helvetica,sans-Serif" font-size="10.00">+ Position()</text>
<text text-anchor="start" x="122.5" y="-598.5" font-family="Helvetica,sans-Serif" font-size="10.00">+ Position(long pos_)</text>
<text text-anchor="start" x="122.5" y="-587.5" font-family="Helvetica,sans-Serif" font-size="10.00">+ void set_position(long</text>
<text text-anchor="start" x="122.5" y="-576.5" font-family="Helvetica,sans-Serif" font-size="10.00"> new_pos)</text>
<text text-anchor="start" x="122.5" y="-565.5" font-family="Helvetica,sans-Serif" font-size="10.00">+ long get_position()</text>
<text text-anchor="start" x="122.5" y="-554.5" font-family="Helvetica,sans-Serif" font-size="10.00"> const</text>
</a>
</g>
</g>
<!-- Node3&#45;&gt;Node2 -->
<g id="edge2" class="edge">
<title>Node3&#45;&gt;Node2</title>
<path fill="none" stroke="#63b8ff" d="M137.46,-537.67C133.05,-528.55 128.91,-519.16 125.5,-510 104.31,-453.1 90.07,-384.82 81.92,-338.2"/>
<polygon fill="none" stroke="#63b8ff" points="134.26,-539.09 141.85,-546.47 140.52,-535.96 134.26,-539.09"/>
</g>
<!-- Node4 -->
<g id="node4" class="node">
<title>Node4</title>
<g id="a_node4"><a xlink:href="structkepler_1_1_a_s_t_node.html" target="_top" xlink:title=" ">
<polygon fill="white" stroke="#666666" points="159,-397.5 159,-509.5 280,-509.5 280,-397.5 159,-397.5"/>
<text text-anchor="middle" x="219.5" y="-497.5" font-family="Helvetica,sans-Serif" font-size="10.00">kepler::ASTNode&lt; T &gt;</text>
<polyline fill="none" stroke="#666666" points="159,-490.5 280,-490.5"/>
<text text-anchor="middle" x="219.5" y="-478.5" font-family="Helvetica,sans-Serif" font-size="10.00"> </text>
<polyline fill="none" stroke="#666666" points="159,-471.5 280,-471.5"/>
<text text-anchor="start" x="167" y="-459.5" font-family="Helvetica,sans-Serif" font-size="10.00">+ virtual ~ASTNode()</text>
<text text-anchor="start" x="167" y="-448.5" font-family="Helvetica,sans-Serif" font-size="10.00">=default</text>
<text text-anchor="start" x="167" y="-437.5" font-family="Helvetica,sans-Serif" font-size="10.00">+ virtual T accept(class</text>
<text text-anchor="start" x="167" y="-426.5" font-family="Helvetica,sans-Serif" font-size="10.00"> NodeVisitor &amp;visitor)=0</text>
<text text-anchor="start" x="167" y="-415.5" font-family="Helvetica,sans-Serif" font-size="10.00">+ virtual std::string</text>
<text text-anchor="start" x="167" y="-404.5" font-family="Helvetica,sans-Serif" font-size="10.00"> to_string() const =0</text>
</a>
</g>
</g>
<!-- Node3&#45;&gt;Node4 -->
<g id="edge4" class="edge">
<title>Node3&#45;&gt;Node4</title>
<path fill="none" stroke="#63b8ff" d="M194.48,-536.8C197.25,-527.67 200.08,-518.36 202.79,-509.46"/>
<polygon fill="none" stroke="#63b8ff" points="191.13,-535.78 191.57,-546.36 197.83,-537.81 191.13,-535.78"/>
</g>
<!-- Node5 -->
<g id="node5" class="node">
<title>Node5</title>
<g id="a_node5"><a xlink:href="structkepler_1_1_a_s_t_node.html" target="_top" xlink:title=" ">
<polygon fill="white" stroke="#666666" points="312,-215.5 312,-349.5 455,-349.5 455,-215.5 312,-215.5"/>
<text text-anchor="start" x="320" y="-337.5" font-family="Helvetica,sans-Serif" font-size="10.00">kepler::ASTNode&lt; Operation</text>
<text text-anchor="middle" x="383.5" y="-326.5" font-family="Helvetica,sans-Serif" font-size="10.00">_ptr &gt;</text>
<polyline fill="none" stroke="#666666" points="312,-319.5 455,-319.5"/>
<text text-anchor="middle" x="383.5" y="-307.5" font-family="Helvetica,sans-Serif" font-size="10.00"> </text>
<polyline fill="none" stroke="#666666" points="312,-300.5 455,-300.5"/>
<text text-anchor="start" x="320" y="-288.5" font-family="Helvetica,sans-Serif" font-size="10.00">+ virtual ~ASTNode()</text>
<text text-anchor="start" x="320" y="-277.5" font-family="Helvetica,sans-Serif" font-size="10.00">=default</text>
<text text-anchor="start" x="320" y="-266.5" font-family="Helvetica,sans-Serif" font-size="10.00">+ virtual Operation_ptr</text>
<text text-anchor="start" x="320" y="-255.5" font-family="Helvetica,sans-Serif" font-size="10.00"> accept(class NodeVisitor</text>
<text text-anchor="start" x="320" y="-244.5" font-family="Helvetica,sans-Serif" font-size="10.00"> &amp;visitor)=0</text>
<text text-anchor="start" x="320" y="-233.5" font-family="Helvetica,sans-Serif" font-size="10.00">+ virtual std::string</text>
<text text-anchor="start" x="320" y="-222.5" font-family="Helvetica,sans-Serif" font-size="10.00"> to_string() const=0</text>
</a>
</g>
</g>
<!-- Node3&#45;&gt;Node5 -->
<g id="edge6" class="edge">
<title>Node3&#45;&gt;Node5</title>
<path fill="none" stroke="#63b8ff" d="M243.7,-558.27C297.84,-518.89 368.35,-455.71 395.5,-379 398.82,-369.63 399.94,-359.45 399.72,-349.35"/>
<polygon fill="none" stroke="#63b8ff" points="241.81,-555.32 235.71,-563.99 245.88,-561.02 241.81,-555.32"/>
</g>
<!-- Node6 -->
<g id="node6" class="node">
<title>Node6</title>
<g id="a_node6"><a xlink:href="structkepler_1_1_a_s_t_node.html" target="_top" xlink:title=" ">
<polygon fill="white" stroke="#666666" points="165,-215.5 165,-349.5 294,-349.5 294,-215.5 165,-215.5"/>
<text text-anchor="start" x="173" y="-337.5" font-family="Helvetica,sans-Serif" font-size="10.00">kepler::ASTNode&lt; kepler</text>
<text text-anchor="middle" x="229.5" y="-326.5" font-family="Helvetica,sans-Serif" font-size="10.00">::Array &gt;</text>
<polyline fill="none" stroke="#666666" points="165,-319.5 294,-319.5"/>
<text text-anchor="middle" x="229.5" y="-307.5" font-family="Helvetica,sans-Serif" font-size="10.00"> </text>
<polyline fill="none" stroke="#666666" points="165,-300.5 294,-300.5"/>
<text text-anchor="start" x="173" y="-288.5" font-family="Helvetica,sans-Serif" font-size="10.00">+ virtual ~ASTNode()</text>
<text text-anchor="start" x="173" y="-277.5" font-family="Helvetica,sans-Serif" font-size="10.00">=default</text>
<text text-anchor="start" x="173" y="-266.5" font-family="Helvetica,sans-Serif" font-size="10.00">+ virtual kepler::Array</text>
<text text-anchor="start" x="173" y="-255.5" font-family="Helvetica,sans-Serif" font-size="10.00"> accept(class NodeVisitor</text>
<text text-anchor="start" x="173" y="-244.5" font-family="Helvetica,sans-Serif" font-size="10.00"> &amp;visitor)=0</text>
<text text-anchor="start" x="173" y="-233.5" font-family="Helvetica,sans-Serif" font-size="10.00">+ virtual std::string</text>
<text text-anchor="start" x="173" y="-222.5" font-family="Helvetica,sans-Serif" font-size="10.00"> to_string() const=0</text>
</a>
</g>
</g>
<!-- Node3&#45;&gt;Node6 -->
<g id="edge9" class="edge">
<title>Node3&#45;&gt;Node6</title>
<path fill="none" stroke="#63b8ff" d="M147.83,-537.1C132.23,-488.67 119.67,-422.01 142.5,-368 144.14,-364.12 153.25,-354.41 165,-342.9"/>
<polygon fill="none" stroke="#63b8ff" points="144.43,-537.96 150.92,-546.33 151.06,-535.73 144.43,-537.96"/>
</g>
<!-- Node4&#45;&gt;Node2 -->
<g id="edge3" class="edge">
<title>Node4&#45;&gt;Node2</title>
<path fill="none" stroke="orange" d="M164.68,-389.04C150.28,-372.38 134.88,-354.55 120.91,-338.38"/>
<polygon fill="orange" stroke="orange" points="161.92,-391.21 171.11,-396.49 167.22,-386.63 161.92,-391.21"/>
<text text-anchor="middle" x="176.5" y="-371" font-family="Helvetica,sans-Serif" font-size="10.00"> &lt; Array &gt;</text>
</g>
<!-- Node4&#45;&gt;Node5 -->
<g id="edge7" class="edge">
<title>Node4&#45;&gt;Node5</title>
<path fill="none" stroke="orange" d="M288.19,-393.08C293.11,-388.39 297.93,-383.67 302.5,-379 311.62,-369.68 320.92,-359.48 329.81,-349.33"/>
<polygon fill="orange" stroke="orange" points="285.85,-390.47 280.94,-399.86 290.63,-395.58 285.85,-390.47"/>
<text text-anchor="middle" x="351.5" y="-371" font-family="Helvetica,sans-Serif" font-size="10.00"> &lt; Operation_ptr &gt;</text>
</g>
<!-- Node4&#45;&gt;Node6 -->
<g id="edge10" class="edge">
<title>Node4&#45;&gt;Node6</title>
<path fill="none" stroke="orange" d="M223.42,-386.2C224.14,-374.07 224.89,-361.41 225.61,-349.29"/>
<polygon fill="orange" stroke="orange" points="219.93,-385.93 222.84,-396.12 226.92,-386.34 219.93,-385.93"/>
<text text-anchor="middle" x="263" y="-371" font-family="Helvetica,sans-Serif" font-size="10.00"> &lt; kepler::Array &gt;</text>
</g>
<!-- Node5&#45;&gt;Node1 -->
<g id="edge5" class="edge">
<title>Node5&#45;&gt;Node1</title>
<path fill="none" stroke="#404040" d="M333.29,-215.64C321.29,-199.91 308.31,-182.87 295.72,-166.36"/>
<polygon fill="none" stroke="#404040" points="295.76,-166.42 288.94,-164.07 288.49,-156.87 295.31,-159.22 295.76,-166.42"/>
<text text-anchor="middle" x="337.5" y="-183.5" font-family="Helvetica,sans-Serif" font-size="10.00"> +function</text>
</g>
<!-- Node6&#45;&gt;Node1 -->
<g id="edge8" class="edge">
<title>Node6&#45;&gt;Node1</title>
<path fill="none" stroke="#404040" d="M229.5,-215.64C229.5,-200.8 229.5,-184.8 229.5,-169.17"/>
<polygon fill="none" stroke="#404040" points="229.5,-169.06 225.5,-163.06 229.5,-157.06 233.5,-163.06 229.5,-169.06"/>
<text text-anchor="middle" x="247.5" y="-189" font-family="Helvetica,sans-Serif" font-size="10.00"> +alpha</text>
<text text-anchor="middle" x="247.5" y="-178" font-family="Helvetica,sans-Serif" font-size="10.00">+omega</text>
</g>
</g>
</svg>
