<?xml version="1.0" encoding="UTF-8" standalone="no"?>
<!DOCTYPE svg PUBLIC "-//W3C//DTD SVG 1.1//EN"
 "http://www.w3.org/Graphics/SVG/1.1/DTD/svg11.dtd">
<!-- Generated by graphviz version 7.1.0 (20230121.1956)
 -->
<!-- Title: kepler::Variable Pages: 1 -->
<!--zoomable 624 -->
<svg id="main" version="1.1" xmlns="http://www.w3.org/2000/svg" xmlns:xlink="http://www.w3.org/1999/xlink" xml:space="preserve" onload="init(evt)">
<style type="text/css"><![CDATA[
.edge:hover path { stroke: red; }
.edge:hover polygon { stroke: red; fill: red; }
]]></style>
<script type="text/javascript"><![CDATA[
var edges = document.getElementsByTagName('g');
if (edges && edges.length) {
  for (var i=0;i<edges.length;i++) {
    if (edges[i].id.substr(0,4)=='edge') {
      edges[i].setAttribute('class','edge');
    }
  }
}
]]></script>
        <defs>
                <circle id="rim" cx="0" cy="0" r="7"/>
                <circle id="rim2" cx="0" cy="0" r="3.5"/>
                <g id="zoomPlus">
                        <use xlink:href="#rim" fill="#404040">
                                <set attributeName="fill" to="#808080" begin="zoomplus.mouseover" end="zoomplus.mouseout"/>
                        </use>
                        <path d="M-4,0h8M0,-4v8" fill="none" stroke="white" stroke-width="1.5" pointer-events="none"/>
                </g>
                <g id="zoomMin">
                        <use xlink:href="#rim" fill="#404040">
                                <set attributeName="fill" to="#808080" begin="zoomminus.mouseover" end="zoomminus.mouseout"/>
                        </use>
                        <path d="M-4,0h8" fill="none" stroke="white" stroke-width="1.5" pointer-events="none"/>
                </g>
                <g id="dirArrow">
                        <path fill="none" stroke="white" stroke-width="1.5" d="M0,-3.0v7 M-2.5,-0.5L0,-3.0L2.5,-0.5"/>
                </g>
               <g id="resetDef">
                       <use xlink:href="#rim2" fill="#404040">
                               <set attributeName="fill" to="#808080" begin="reset.mouseover" end="reset.mouseout"/>
                       </use>
               </g>
        </defs>

<script type="text/javascript">
var viewWidth = 379;
var viewHeight = 624;
var sectionId = 'dynsection-1';
</script>
<script xlink:href="svgpan.js"/>
<svg id="graph" class="graph">
<g id="viewport">
<title>kepler::Variable</title>
<!-- Node1 -->
<g id="node1" class="node">
<title>Node1</title>
<g id="a_node1"><a xlink:title=" ">
<polygon fill="#999999" stroke="#666666" points="83.44,-0.5 83.44,-101.5 217.44,-101.5 217.44,-0.5 83.44,-0.5"/>
<text text-anchor="middle" x="150.44" y="-89.5" font-family="Helvetica,sans-Serif" font-size="10.00">kepler::Variable</text>
<polyline fill="none" stroke="#666666" points="83.44,-82.5 217.44,-82.5"/>
<text text-anchor="middle" x="150.44" y="-70.5" font-family="Helvetica,sans-Serif" font-size="10.00"> </text>
<polyline fill="none" stroke="#666666" points="83.44,-63.5 217.44,-63.5"/>
<text text-anchor="start" x="91.44" y="-51.5" font-family="Helvetica,sans-Serif" font-size="10.00">+ Variable(Token token_)</text>
<text text-anchor="start" x="91.44" y="-40.5" font-family="Helvetica,sans-Serif" font-size="10.00">+ std::string to_string</text>
<text text-anchor="start" x="91.44" y="-29.5" font-family="Helvetica,sans-Serif" font-size="10.00">() const override</text>
<text text-anchor="start" x="91.44" y="-18.5" font-family="Helvetica,sans-Serif" font-size="10.00">+ Array accept(NodeVisitor</text>
<text text-anchor="start" x="91.44" y="-7.5" font-family="Helvetica,sans-Serif" font-size="10.00"> &amp;visitor) override</text>
</a>
</g>
</g>
<!-- Node2 -->
<g id="node2" class="node">
<title>Node2</title>
<g id="a_node2"><a xlink:href="structkepler_1_1_a_s_t_node.html" target="_top" xlink:title=" ">
<polygon fill="white" stroke="#666666" points="11.94,-139.5 11.94,-251.5 158.94,-251.5 158.94,-139.5 11.94,-139.5"/>
<text text-anchor="middle" x="85.44" y="-239.5" font-family="Helvetica,sans-Serif" font-size="10.00">kepler::ASTNode&lt; Array &gt;</text>
<polyline fill="none" stroke="#666666" points="11.94,-232.5 158.94,-232.5"/>
<text text-anchor="middle" x="85.44" y="-220.5" font-family="Helvetica,sans-Serif" font-size="10.00"> </text>
<polyline fill="none" stroke="#666666" points="11.94,-213.5 158.94,-213.5"/>
<text text-anchor="start" x="19.94" y="-201.5" font-family="Helvetica,sans-Serif" font-size="10.00">+ virtual ~ASTNode()</text>
<text text-anchor="start" x="19.94" y="-190.5" font-family="Helvetica,sans-Serif" font-size="10.00">=default</text>
<text text-anchor="start" x="19.94" y="-179.5" font-family="Helvetica,sans-Serif" font-size="10.00">+ virtual Array accept</text>
<text text-anchor="start" x="19.94" y="-168.5" font-family="Helvetica,sans-Serif" font-size="10.00">(class NodeVisitor &amp;visitor)=0</text>
<text text-anchor="start" x="19.94" y="-157.5" font-family="Helvetica,sans-Serif" font-size="10.00">+ virtual std::string</text>
<text text-anchor="start" x="19.94" y="-146.5" font-family="Helvetica,sans-Serif" font-size="10.00"> to_string() const=0</text>
</a>
</g>
</g>
<!-- Node2&#45;&gt;Node1 -->
<g id="edge1" class="edge">
<title>Node2&#45;&gt;Node1</title>
<path fill="none" stroke="#63b8ff" d="M115.07,-129.56C119.42,-120.02 123.84,-110.33 128.01,-101.18"/>
<polygon fill="none" stroke="#63b8ff" points="111.98,-127.89 111.02,-138.44 118.35,-130.79 111.98,-127.89"/>
</g>
<!-- Node3 -->
<g id="node3" class="node">
<title>Node3</title>
<g id="a_node3"><a xlink:href="structkepler_1_1_position.html" target="_top" xlink:title=" ">
<polygon fill="white" stroke="#666666" points="25.44,-503.5 25.44,-615.5 145.44,-615.5 145.44,-503.5 25.44,-503.5"/>
<text text-anchor="middle" x="85.44" y="-603.5" font-family="Helvetica,sans-Serif" font-size="10.00">kepler::Position</text>
<polyline fill="none" stroke="#666666" points="25.44,-596.5 145.44,-596.5"/>
<text text-anchor="middle" x="85.44" y="-584.5" font-family="Helvetica,sans-Serif" font-size="10.00"> </text>
<polyline fill="none" stroke="#666666" points="25.44,-577.5 145.44,-577.5"/>
<text text-anchor="start" x="33.44" y="-565.5" font-family="Helvetica,sans-Serif" font-size="10.00">+ Position()</text>
<text text-anchor="start" x="33.44" y="-554.5" font-family="Helvetica,sans-Serif" font-size="10.00">+ Position(long pos_)</text>
<text text-anchor="start" x="33.44" y="-543.5" font-family="Helvetica,sans-Serif" font-size="10.00">+ void set_position(long</text>
<text text-anchor="start" x="33.44" y="-532.5" font-family="Helvetica,sans-Serif" font-size="10.00"> new_pos)</text>
<text text-anchor="start" x="33.44" y="-521.5" font-family="Helvetica,sans-Serif" font-size="10.00">+ long get_position()</text>
<text text-anchor="start" x="33.44" y="-510.5" font-family="Helvetica,sans-Serif" font-size="10.00"> const</text>
</a>
</g>
</g>
<!-- Node3&#45;&gt;Node2 -->
<g id="edge2" class="edge">
<title>Node3&#45;&gt;Node2</title>
<path fill="none" stroke="#63b8ff" d="M33.22,-494.2C25.91,-482.14 19.51,-469.16 15.44,-456 -5.15,-389.33 -5.15,-365.67 15.44,-299 20.6,-282.32 29.5,-265.94 39.26,-251.33"/>
<polygon fill="none" stroke="#63b8ff" points="30.12,-495.84 38.44,-502.39 36.02,-492.08 30.12,-495.84"/>
</g>
<!-- Node4 -->
<g id="node4" class="node">
<title>Node4</title>
<g id="a_node4"><a xlink:href="structkepler_1_1_a_s_t_node.html" target="_top" xlink:title=" ">
<polygon fill="white" stroke="#666666" points="24.94,-321.5 24.94,-433.5 145.94,-433.5 145.94,-321.5 24.94,-321.5"/>
<text text-anchor="middle" x="85.44" y="-421.5" font-family="Helvetica,sans-Serif" font-size="10.00">kepler::ASTNode&lt; T &gt;</text>
<polyline fill="none" stroke="#666666" points="24.94,-414.5 145.94,-414.5"/>
<text text-anchor="middle" x="85.44" y="-402.5" font-family="Helvetica,sans-Serif" font-size="10.00"> </text>
<polyline fill="none" stroke="#666666" points="24.94,-395.5 145.94,-395.5"/>
<text text-anchor="start" x="32.94" y="-383.5" font-family="Helvetica,sans-Serif" font-size="10.00">+ virtual ~ASTNode()</text>
<text text-anchor="start" x="32.94" y="-372.5" font-family="Helvetica,sans-Serif" font-size="10.00">=default</text>
<text text-anchor="start" x="32.94" y="-361.5" font-family="Helvetica,sans-Serif" font-size="10.00">+ virtual T accept(class</text>
<text text-anchor="start" x="32.94" y="-350.5" font-family="Helvetica,sans-Serif" font-size="10.00"> NodeVisitor &amp;visitor)=0</text>
<text text-anchor="start" x="32.94" y="-339.5" font-family="Helvetica,sans-Serif" font-size="10.00">+ virtual std::string</text>
<text text-anchor="start" x="32.94" y="-328.5" font-family="Helvetica,sans-Serif" font-size="10.00"> to_string() const =0</text>
</a>
</g>
</g>
<!-- Node3&#45;&gt;Node4 -->
<g id="edge4" class="edge">
<title>Node3&#45;&gt;Node4</title>
<path fill="none" stroke="#63b8ff" d="M85.44,-492.06C85.44,-472.78 85.44,-451.95 85.44,-433.46"/>
<polygon fill="none" stroke="#63b8ff" points="81.95,-492 85.44,-502 88.95,-492 81.95,-492"/>
</g>
<!-- Node5 -->
<g id="node5" class="node">
<title>Node5</title>
<g id="a_node5"><a xlink:href="structkepler_1_1_token.html" target="_top" xlink:title=" ">
<polygon fill="white" stroke="#666666" points="163.94,-299.5 163.94,-455.5 308.94,-455.5 308.94,-299.5 163.94,-299.5"/>
<text text-anchor="middle" x="236.44" y="-443.5" font-family="Helvetica,sans-Serif" font-size="10.00">kepler::Token</text>
<polyline fill="none" stroke="#666666" points="163.94,-436.5 308.94,-436.5"/>
<text text-anchor="middle" x="236.44" y="-424.5" font-family="Helvetica,sans-Serif" font-size="10.00"> </text>
<polyline fill="none" stroke="#666666" points="163.94,-417.5 308.94,-417.5"/>
<text text-anchor="start" x="171.94" y="-405.5" font-family="Helvetica,sans-Serif" font-size="10.00">+ Token(long pos, TokenType</text>
<text text-anchor="start" x="171.94" y="-394.5" font-family="Helvetica,sans-Serif" font-size="10.00"> type_, Char content_)</text>
<text text-anchor="start" x="171.94" y="-383.5" font-family="Helvetica,sans-Serif" font-size="10.00">+ Token(long pos, TokenType</text>
<text text-anchor="start" x="171.94" y="-372.5" font-family="Helvetica,sans-Serif" font-size="10.00"> type_, String content_)</text>
<text text-anchor="start" x="171.94" y="-361.5" font-family="Helvetica,sans-Serif" font-size="10.00">+ Token(TokenType type</text>
<text text-anchor="start" x="171.94" y="-350.5" font-family="Helvetica,sans-Serif" font-size="10.00">_, String content_)</text>
<text text-anchor="start" x="171.94" y="-339.5" font-family="Helvetica,sans-Serif" font-size="10.00">+ Token(long pos, TokenType</text>
<text text-anchor="start" x="171.94" y="-328.5" font-family="Helvetica,sans-Serif" font-size="10.00"> type_)</text>
<text text-anchor="start" x="171.94" y="-317.5" font-family="Helvetica,sans-Serif" font-size="10.00">+ std::string to_string</text>
<text text-anchor="start" x="171.94" y="-306.5" font-family="Helvetica,sans-Serif" font-size="10.00">() const</text>
</a>
</g>
</g>
<!-- Node3&#45;&gt;Node5 -->
<g id="edge6" class="edge">
<title>Node3&#45;&gt;Node5</title>
<path fill="none" stroke="#63b8ff" d="M138.87,-494.81C149.58,-482.05 160.94,-468.5 171.98,-455.35"/>
<polygon fill="none" stroke="#63b8ff" points="136.29,-492.45 132.54,-502.36 141.65,-496.94 136.29,-492.45"/>
</g>
<!-- Node4&#45;&gt;Node2 -->
<g id="edge3" class="edge">
<title>Node4&#45;&gt;Node2</title>
<path fill="none" stroke="orange" d="M85.44,-310.06C85.44,-290.78 85.44,-269.95 85.44,-251.46"/>
<polygon fill="orange" stroke="orange" points="81.95,-310 85.44,-320 88.95,-310 81.95,-310"/>
<text text-anchor="middle" x="107.44" y="-273" font-family="Helvetica,sans-Serif" font-size="10.00"> &lt; Array &gt;</text>
</g>
<!-- Node5&#45;&gt;Node1 -->
<g id="edge5" class="edge">
<title>Node5&#45;&gt;Node1</title>
<path fill="none" stroke="#404040" d="M216.06,-299.6C201.01,-242.81 180.79,-166.51 166.8,-113.69"/>
<polygon fill="none" stroke="#404040" points="166.77,-113.6 161.37,-108.83 163.7,-102 169.1,-106.78 166.77,-113.6"/>
<text text-anchor="middle" x="220.44" y="-193" font-family="Helvetica,sans-Serif" font-size="10.00"> +token</text>
</g>
<!-- Node6 -->
<g id="node6" class="node">
<title>Node6</title>
<g id="a_node6"><a xlink:title=" ">
<polygon fill="white" stroke="#666666" points="183.44,-531 183.44,-588 247.44,-588 247.44,-531 183.44,-531"/>
<text text-anchor="middle" x="215.44" y="-576" font-family="Helvetica,sans-Serif" font-size="10.00">TokenType</text>
<polyline fill="none" stroke="#666666" points="183.44,-569 247.44,-569"/>
<text text-anchor="middle" x="215.44" y="-557" font-family="Helvetica,sans-Serif" font-size="10.00"> </text>
<polyline fill="none" stroke="#666666" points="183.44,-550 247.44,-550"/>
<text text-anchor="middle" x="215.44" y="-538" font-family="Helvetica,sans-Serif" font-size="10.00"> </text>
</a>
</g>
</g>
<!-- Node6&#45;&gt;Node5 -->
<g id="edge7" class="edge">
<title>Node6&#45;&gt;Node5</title>
<path fill="none" stroke="#404040" d="M218.63,-531.16C220.63,-514.07 223.32,-490.99 226.01,-467.95"/>
<polygon fill="none" stroke="#404040" points="226,-468.01 222.72,-461.59 227.39,-456.09 230.67,-462.52 226,-468.01"/>
<text text-anchor="middle" x="239.44" y="-477" font-family="Helvetica,sans-Serif" font-size="10.00"> +type</text>
</g>
<!-- Node7 -->
<g id="node7" class="node">
<title>Node7</title>
<g id="a_node7"><a xlink:title=" ">
<polygon fill="white" stroke="#666666" points="265.44,-525.5 265.44,-593.5 371.44,-593.5 371.44,-525.5 265.44,-525.5"/>
<text text-anchor="start" x="273.44" y="-581.5" font-family="Helvetica,sans-Serif" font-size="10.00">optional&lt; std::vector</text>
<text text-anchor="middle" x="318.44" y="-570.5" font-family="Helvetica,sans-Serif" font-size="10.00">&lt; Char &gt; &gt;</text>
<polyline fill="none" stroke="#666666" points="265.44,-563.5 371.44,-563.5"/>
<text text-anchor="middle" x="318.44" y="-551.5" font-family="Helvetica,sans-Serif" font-size="10.00"> </text>
<polyline fill="none" stroke="#666666" points="265.44,-544.5 371.44,-544.5"/>
<text text-anchor="middle" x="318.44" y="-532.5" font-family="Helvetica,sans-Serif" font-size="10.00"> </text>
</a>
</g>
</g>
<!-- Node7&#45;&gt;Node5 -->
<g id="edge8" class="edge">
<title>Node7&#45;&gt;Node5</title>
<path fill="none" stroke="#404040" d="M303.6,-525.9C296,-509.23 286.35,-488.06 276.76,-466.99"/>
<polygon fill="none" stroke="#404040" points="276.79,-467.07 270.66,-463.27 271.82,-456.15 277.94,-459.95 276.79,-467.07"/>
<text text-anchor="middle" x="306.44" y="-477" font-family="Helvetica,sans-Serif" font-size="10.00"> +content</text>
</g>
</g>
</svg>
        <g id="navigator" transform="translate(0 0)" fill="#404254">
                <rect fill="#f2f5e9" fill-opacity="0.5" stroke="#606060" stroke-width=".5" x="0" y="0" width="60" height="60"/>
                <use id="zoomplus" xlink:href="#zoomPlus" x="17" y="9" onmousedown="handleZoom(evt,'in')"/>
                <use id="zoomminus" xlink:href="#zoomMin" x="42" y="9" onmousedown="handleZoom(evt,'out')"/>
                <use id="reset" xlink:href="#resetDef" x="30" y="36" onmousedown="handleReset()"/>
                <g id="arrowUp" xlink:href="#dirArrow" transform="translate(30 24)" onmousedown="handlePan(0,-1)">
                  <use xlink:href="#rim" fill="#404040">
                        <set attributeName="fill" to="#808080" begin="arrowUp.mouseover" end="arrowUp.mouseout"/>
                  </use>
                  <path fill="none" stroke="white" stroke-width="1.5" d="M0,-3.0v7 M-2.5,-0.5L0,-3.0L2.5,-0.5"/>
                </g>
                <g id="arrowRight" xlink:href="#dirArrow" transform="rotate(90) translate(36 -43)" onmousedown="handlePan(1,0)">
                  <use xlink:href="#rim" fill="#404040">
                        <set attributeName="fill" to="#808080" begin="arrowRight.mouseover" end="arrowRight.mouseout"/>
                  </use>
                  <path fill="none" stroke="white" stroke-width="1.5" d="M0,-3.0v7 M-2.5,-0.5L0,-3.0L2.5,-0.5"/>
                </g>
                <g id="arrowDown" xlink:href="#dirArrow" transform="rotate(180) translate(-30 -48)" onmousedown="handlePan(0,1)">
                  <use xlink:href="#rim" fill="#404040">
                        <set attributeName="fill" to="#808080" begin="arrowDown.mouseover" end="arrowDown.mouseout"/>
                  </use>
                  <path fill="none" stroke="white" stroke-width="1.5" d="M0,-3.0v7 M-2.5,-0.5L0,-3.0L2.5,-0.5"/>
                </g>
                <g id="arrowLeft" xlink:href="#dirArrow" transform="rotate(270) translate(-36 17)" onmousedown="handlePan(-1,0)">
                  <use xlink:href="#rim" fill="#404040">
                        <set attributeName="fill" to="#808080" begin="arrowLeft.mouseover" end="arrowLeft.mouseout"/>
                  </use>
                  <path fill="none" stroke="white" stroke-width="1.5" d="M0,-3.0v7 M-2.5,-0.5L0,-3.0L2.5,-0.5"/>
                </g>
        </g>
        <svg viewBox="0 0 15 15" width="100%" height="30px" preserveAspectRatio="xMaxYMin meet">
         <g id="arrow_out" transform="scale(0.3 0.3)">
          <a xlink:href="structkepler_1_1_variable__coll__graph_org.svg" target="_base">
           <rect id="button" ry="5" rx="5" y="6" x="6" height="38" width="38"
                fill="#f2f5e9" fill-opacity="0.5" stroke="#606060" stroke-width="1.0"/>
           <path id="arrow"
             d="M 11.500037,31.436501 C 11.940474,20.09759 22.043105,11.32322 32.158766,21.979434 L 37.068811,17.246167 C 37.068811,17.246167 37.088388,32 37.088388,32 L 22.160133,31.978069 C 22.160133,31.978069 26.997745,27.140456 26.997745,27.140456 C 18.528582,18.264221 13.291696,25.230495 11.500037,31.436501 z"
             style="fill:#404040;"/>
          </a>
         </g>
        </svg>
</svg>
