<?xml version="1.0" encoding="UTF-8" standalone="no"?>
<!DOCTYPE svg PUBLIC "-//W3C//DTD SVG 1.1//EN"
 "http://www.w3.org/Graphics/SVG/1.1/DTD/svg11.dtd">
<!-- Generated by graphviz version 7.1.0 (20230121.1956)
 -->
<!-- Title: kepler::ArrayPrinter::operator() Pages: 1 -->
<svg width="425pt" height="38pt"
 viewBox="0.00 0.00 425.00 38.00" xmlns="http://www.w3.org/2000/svg" xmlns:xlink="http://www.w3.org/1999/xlink">
<g id="graph0" class="graph" transform="scale(1 1) rotate(0) translate(4 34)">
<title>kepler::ArrayPrinter::operator()</title>
<!-- Node1 -->
<g id="node1" class="node">
<title>Node1</title>
<g id="a_node1"><a xlink:title=" ">
<polygon fill="#999999" stroke="#666666" points="101,-30 0,-30 0,0 101,0 101,-30"/>
<text text-anchor="start" x="8" y="-18" font-family="Helvetica,sans-Serif" font-size="10.00">kepler::ArrayPrinter</text>
<text text-anchor="middle" x="50.5" y="-7" font-family="Helvetica,sans-Serif" font-size="10.00">::operator()</text>
</a>
</g>
</g>
<!-- Node2 -->
<g id="node2" class="node">
<title>Node2</title>
<g id="a_node2"><a xlink:href="namespacekepler.html#aa848e96e65932d5f52bf3811002f0ec0" target="_top" xlink:title=" ">
<polygon fill="white" stroke="#666666" points="261,-24.5 137,-24.5 137,-5.5 261,-5.5 261,-24.5"/>
<text text-anchor="middle" x="199" y="-12.5" font-family="Helvetica,sans-Serif" font-size="10.00">kepler::number_to_string</text>
</a>
</g>
</g>
<!-- Node1&#45;&gt;Node2 -->
<g id="edge1" class="edge">
<title>Node1&#45;&gt;Node2</title>
<path fill="none" stroke="#63b8ff" d="M101.1,-15C108.83,-15 116.95,-15 125.07,-15"/>
<polygon fill="#63b8ff" stroke="#63b8ff" points="124.99,-18.5 134.99,-15 124.99,-11.5 124.99,-18.5"/>
</g>
<!-- Node3 -->
<g id="node3" class="node">
<title>Node3</title>
<g id="a_node3"><a xlink:href="namespacekepler.html#aeb0c7de5bfe099f79d13607089e6c312" target="_top" xlink:title=" ">
<polygon fill="white" stroke="#666666" points="417,-24.5 297,-24.5 297,-5.5 417,-5.5 417,-24.5"/>
<text text-anchor="middle" x="357" y="-12.5" font-family="Helvetica,sans-Serif" font-size="10.00">kepler::double_to_string</text>
</a>
</g>
</g>
<!-- Node2&#45;&gt;Node3 -->
<g id="edge2" class="edge">
<title>Node2&#45;&gt;Node3</title>
<path fill="none" stroke="#63b8ff" d="M261.21,-15C269.1,-15 277.23,-15 285.26,-15"/>
<polygon fill="#63b8ff" stroke="#63b8ff" points="284.99,-18.5 294.99,-15 284.99,-11.5 284.99,-18.5"/>
</g>
</g>
</svg>
