<?xml version="1.0" encoding="UTF-8" standalone="no"?>
<!DOCTYPE svg PUBLIC "-//W3C//DTD SVG 1.1//EN"
 "http://www.w3.org/Graphics/SVG/1.1/DTD/svg11.dtd">
<!-- Generated by graphviz version 7.1.0 (20230121.1956)
 -->
<!-- Title: kepler::Array::size Pages: 1 -->
<svg width="576pt" height="477pt"
 viewBox="0.00 0.00 576.00 477.27" xmlns="http://www.w3.org/2000/svg" xmlns:xlink="http://www.w3.org/1999/xlink">
<g id="graph0" class="graph" transform="scale(1 1) rotate(0) translate(4 473.27)">
<title>kepler::Array::size</title>
<!-- Node1 -->
<g id="node1" class="node">
<title>Node1</title>
<g id="a_node1"><a xlink:title=" ">
<polygon fill="#999999" stroke="#666666" points="568,-263.5 472,-263.5 472,-244.5 568,-244.5 568,-263.5"/>
<text text-anchor="middle" x="520" y="-251.5" font-family="Helvetica,sans-Serif" font-size="10.00">kepler::Array::size</text>
</a>
</g>
</g>
<!-- Node2 -->
<g id="node2" class="node">
<title>Node2</title>
<g id="a_node2"><a xlink:href="namespacekepler.html#a172b41eba4b6d1c9af75f4d5a853d35f" target="_top" xlink:title=" ">
<polygon fill="white" stroke="#666666" points="412,-396.5 326,-396.5 326,-377.5 412,-377.5 412,-396.5"/>
<text text-anchor="middle" x="369" y="-384.5" font-family="Helvetica,sans-Serif" font-size="10.00">kepler::get_shift</text>
</a>
</g>
</g>
<!-- Node1&#45;&gt;Node2 -->
<g id="edge1" class="edge">
<title>Node1&#45;&gt;Node2</title>
<path fill="none" stroke="#63b8ff" d="M508.63,-273.8C495,-298.02 468.89,-338.79 436,-363 427.95,-368.93 418.28,-373.52 408.86,-377.02"/>
<polygon fill="#63b8ff" stroke="#63b8ff" points="511.56,-275.74 513.27,-265.28 505.41,-272.39 511.56,-275.74"/>
</g>
<!-- Node3 -->
<g id="node3" class="node">
<title>Node3</title>
<g id="a_node3"><a xlink:href="namespacekepler.html#a2e0061e6ccc074df0dabcaf61f4517b8" target="_top" xlink:title=" ">
<polygon fill="white" stroke="#666666" points="235.5,-412.5 161.5,-412.5 161.5,-393.5 235.5,-393.5 235.5,-412.5"/>
<text text-anchor="middle" x="198.5" y="-400.5" font-family="Helvetica,sans-Serif" font-size="10.00">kepler::rotate</text>
</a>
</g>
</g>
<!-- Node1&#45;&gt;Node3 -->
<g id="edge18" class="edge">
<title>Node1&#45;&gt;Node3</title>
<path fill="none" stroke="#63b8ff" d="M514.7,-274.9C506.36,-309.41 484.36,-377.31 436,-406 371.37,-444.34 278.29,-426.33 230.46,-412.95"/>
<polygon fill="#63b8ff" stroke="#63b8ff" points="518.08,-275.84 516.85,-265.32 511.25,-274.31 518.08,-275.84"/>
</g>
<!-- Node4 -->
<g id="node4" class="node">
<title>Node4</title>
<g id="a_node4"><a xlink:href="structkepler_1_1_circle_bar.html#ad4d789ada13f9e9152417c8034abee01" target="_top" xlink:title=" ">
<polygon fill="white" stroke="#666666" points="95,-433 0,-433 0,-403 95,-403 95,-433"/>
<text text-anchor="start" x="8" y="-421" font-family="Helvetica,sans-Serif" font-size="10.00">kepler::CircleBar::</text>
<text text-anchor="middle" x="47.5" y="-410" font-family="Helvetica,sans-Serif" font-size="10.00">operator()</text>
</a>
</g>
</g>
<!-- Node1&#45;&gt;Node4 -->
<g id="edge6" class="edge">
<title>Node1&#45;&gt;Node4</title>
<path fill="none" stroke="#63b8ff" d="M516.37,-274.94C510.24,-313.73 491.07,-396 436,-431 327.49,-499.96 165.2,-458.78 89.77,-433.43"/>
<polygon fill="#63b8ff" stroke="#63b8ff" points="519.83,-275.47 517.77,-265.08 512.9,-274.49 519.83,-275.47"/>
</g>
<!-- Node5 -->
<g id="node5" class="node">
<title>Node5</title>
<g id="a_node5"><a xlink:href="structkepler_1_1_circle_stile.html#a29677d4fd43e1db4bacaddc636efa189" target="_top" xlink:title=" ">
<polygon fill="white" stroke="#666666" points="94.5,-378 0.5,-378 0.5,-348 94.5,-348 94.5,-378"/>
<text text-anchor="start" x="8.5" y="-366" font-family="Helvetica,sans-Serif" font-size="10.00">kepler::CircleStile</text>
<text text-anchor="middle" x="47.5" y="-355" font-family="Helvetica,sans-Serif" font-size="10.00">::operator()</text>
</a>
</g>
</g>
<!-- Node1&#45;&gt;Node5 -->
<g id="edge7" class="edge">
<title>Node1&#45;&gt;Node5</title>
<path fill="none" stroke="#63b8ff" d="M500.35,-271.01C484.46,-284.48 460.38,-302.53 436,-312 319.3,-357.32 169.54,-363.8 94.99,-363.89"/>
<polygon fill="#63b8ff" stroke="#63b8ff" points="502.34,-273.93 507.56,-264.71 497.73,-268.66 502.34,-273.93"/>
</g>
<!-- Node6 -->
<g id="node6" class="node">
<title>Node6</title>
<g id="a_node6"><a xlink:href="structkepler_1_1_left_shoe.html#a0c3fbe0e57ebbbcba263652ca3425723" target="_top" xlink:title=" ">
<polygon fill="white" stroke="#666666" points="266,-218.5 131,-218.5 131,-199.5 266,-199.5 266,-218.5"/>
<text text-anchor="middle" x="198.5" y="-206.5" font-family="Helvetica,sans-Serif" font-size="10.00">kepler::LeftShoe::operator()</text>
</a>
</g>
</g>
<!-- Node1&#45;&gt;Node6 -->
<g id="edge5" class="edge">
<title>Node1&#45;&gt;Node6</title>
<path fill="none" stroke="#63b8ff" d="M493.26,-269.28C477.36,-277.82 456.2,-287.6 436,-292 377.81,-304.69 358.14,-311.88 302,-292 260.34,-277.25 223.24,-237.56 207.5,-218.93"/>
<polygon fill="#63b8ff" stroke="#63b8ff" points="494.53,-272.58 501.56,-264.66 491.12,-266.46 494.53,-272.58"/>
</g>
<!-- Node7 -->
<g id="node7" class="node">
<title>Node7</title>
<g id="a_node7"><a xlink:href="structkepler_1_1_arrow_up.html#ab1b075f1c3ad3585a1ecbe0bf5e4ed24" target="_top" xlink:title=" ">
<polygon fill="white" stroke="#666666" points="436,-282.5 302,-282.5 302,-263.5 436,-263.5 436,-282.5"/>
<text text-anchor="middle" x="369" y="-270.5" font-family="Helvetica,sans-Serif" font-size="10.00">kepler::ArrowUp::operator()</text>
</a>
</g>
</g>
<!-- Node1&#45;&gt;Node7 -->
<g id="edge8" class="edge">
<title>Node1&#45;&gt;Node7</title>
<path fill="none" stroke="#63b8ff" d="M460.51,-261.46C452.61,-262.47 444.46,-263.5 436.44,-264.53"/>
<polygon fill="#63b8ff" stroke="#63b8ff" points="460.88,-264.94 470.35,-260.2 459.99,-258 460.88,-264.94"/>
</g>
<!-- Node8 -->
<g id="node8" class="node">
<title>Node8</title>
<g id="a_node8"><a xlink:href="structkepler_1_1_neq.html#ac472506425be39a5d0855c11ffafe4f6" target="_top" xlink:title=" ">
<polygon fill="white" stroke="#666666" points="426,-245.5 312,-245.5 312,-226.5 426,-226.5 426,-245.5"/>
<text text-anchor="middle" x="369" y="-233.5" font-family="Helvetica,sans-Serif" font-size="10.00">kepler::Neq::operator()</text>
</a>
</g>
</g>
<!-- Node1&#45;&gt;Node8 -->
<g id="edge9" class="edge">
<title>Node1&#45;&gt;Node8</title>
<path fill="none" stroke="#63b8ff" d="M460.44,-246.93C449.27,-245.58 437.6,-244.17 426.49,-242.82"/>
<polygon fill="#63b8ff" stroke="#63b8ff" points="460.01,-250.4 470.35,-248.12 460.84,-243.45 460.01,-250.4"/>
</g>
<!-- Node9 -->
<g id="node9" class="node">
<title>Node9</title>
<g id="a_node9"><a xlink:href="structkepler_1_1_iota.html#aff3ed08535aa814e0f19c68e8e397e40" target="_top" xlink:title=" ">
<polygon fill="white" stroke="#666666" points="425.5,-208.5 312.5,-208.5 312.5,-189.5 425.5,-189.5 425.5,-208.5"/>
<text text-anchor="middle" x="369" y="-196.5" font-family="Helvetica,sans-Serif" font-size="10.00">kepler::Iota::operator()</text>
</a>
</g>
</g>
<!-- Node1&#45;&gt;Node9 -->
<g id="edge10" class="edge">
<title>Node1&#45;&gt;Node9</title>
<path fill="none" stroke="#63b8ff" d="M488.1,-239.47C472.64,-232.49 453.54,-224.3 436,-218 426.91,-214.74 416.97,-211.63 407.62,-208.92"/>
<polygon fill="#63b8ff" stroke="#63b8ff" points="486.22,-242.46 496.77,-243.44 489.14,-236.09 486.22,-242.46"/>
</g>
<!-- Node10 -->
<g id="node10" class="node">
<title>Node10</title>
<g id="a_node10"><a xlink:href="structkepler_1_1_comma.html#a69be487d5950b93900ff4f7be38e36ad" target="_top" xlink:title=" ">
<polygon fill="white" stroke="#666666" points="434.5,-171.5 303.5,-171.5 303.5,-152.5 434.5,-152.5 434.5,-171.5"/>
<text text-anchor="middle" x="369" y="-159.5" font-family="Helvetica,sans-Serif" font-size="10.00">kepler::Comma::operator()</text>
</a>
</g>
</g>
<!-- Node1&#45;&gt;Node10 -->
<g id="edge11" class="edge">
<title>Node1&#45;&gt;Node10</title>
<path fill="none" stroke="#63b8ff" d="M503.2,-236.16C487.64,-219.63 462.42,-195.46 436,-181 429.41,-177.39 422.07,-174.41 414.74,-171.96"/>
<polygon fill="#63b8ff" stroke="#63b8ff" points="500.44,-238.33 509.78,-243.34 505.6,-233.6 500.44,-238.33"/>
</g>
<!-- Node11 -->
<g id="node11" class="node">
<title>Node11</title>
<g id="a_node11"><a xlink:href="structkepler_1_1_slash.html#aa8c5f4aa29df8fdb2cbfc1a2cafbda71" target="_top" xlink:title=" ">
<polygon fill="white" stroke="#666666" points="429.5,-134.5 308.5,-134.5 308.5,-115.5 429.5,-115.5 429.5,-134.5"/>
<text text-anchor="middle" x="369" y="-122.5" font-family="Helvetica,sans-Serif" font-size="10.00">kepler::Slash::operator()</text>
</a>
</g>
</g>
<!-- Node1&#45;&gt;Node11 -->
<g id="edge12" class="edge">
<title>Node1&#45;&gt;Node11</title>
<path fill="none" stroke="#63b8ff" d="M509.14,-234.02C495.89,-209.23 470.02,-167.39 436,-144 430.6,-140.28 424.47,-137.29 418.18,-134.87"/>
<polygon fill="#63b8ff" stroke="#63b8ff" points="505.94,-235.45 513.63,-242.73 512.16,-232.24 505.94,-235.45"/>
</g>
<!-- Node12 -->
<g id="node12" class="node">
<title>Node12</title>
<g id="a_node12"><a xlink:href="namespacekepler.html#ab641b8b2fc3933a9bcc27f30811c94bd" target="_top" xlink:title=" ">
<polygon fill="white" stroke="#666666" points="416,-97 322,-97 322,-67 416,-67 416,-97"/>
<text text-anchor="start" x="330" y="-85" font-family="Helvetica,sans-Serif" font-size="10.00">kepler::partitioned</text>
<text text-anchor="middle" x="369" y="-74" font-family="Helvetica,sans-Serif" font-size="10.00">_enclose</text>
</a>
</g>
</g>
<!-- Node1&#45;&gt;Node12 -->
<g id="edge13" class="edge">
<title>Node1&#45;&gt;Node12</title>
<path fill="none" stroke="#63b8ff" d="M512.48,-233.35C501.55,-201.87 476.64,-141.89 436,-107 430.24,-102.05 423.39,-98.03 416.33,-94.79"/>
<polygon fill="#63b8ff" stroke="#63b8ff" points="509.15,-234.42 515.62,-242.81 515.8,-232.22 509.15,-234.42"/>
</g>
<!-- Node13 -->
<g id="node13" class="node">
<title>Node13</title>
<g id="a_node13"><a xlink:href="namespacekepler.html#a5d53d8d215c23865190574f886dd4484" target="_top" xlink:title=" ">
<polygon fill="white" stroke="#666666" points="409.5,-48.5 328.5,-48.5 328.5,-29.5 409.5,-29.5 409.5,-48.5"/>
<text text-anchor="middle" x="369" y="-36.5" font-family="Helvetica,sans-Serif" font-size="10.00">kepler::reverse</text>
</a>
</g>
</g>
<!-- Node1&#45;&gt;Node13 -->
<g id="edge15" class="edge">
<title>Node1&#45;&gt;Node13</title>
<path fill="none" stroke="#63b8ff" d="M516.1,-232.89C509.46,-192.78 489.4,-105.33 436,-58 428.68,-51.51 419.28,-47.23 409.88,-44.41"/>
<polygon fill="#63b8ff" stroke="#63b8ff" points="512.62,-233.28 517.58,-242.64 519.54,-232.23 512.62,-233.28"/>
</g>
<!-- Node2&#45;&gt;Node3 -->
<g id="edge2" class="edge">
<title>Node2&#45;&gt;Node3</title>
<path fill="none" stroke="#63b8ff" d="M314.49,-392.08C288.87,-394.51 258.85,-397.36 235.91,-399.54"/>
<polygon fill="#63b8ff" stroke="#63b8ff" points="314.78,-395.57 324.41,-391.14 314.12,-388.6 314.78,-395.57"/>
</g>
<!-- Node3&#45;&gt;Node4 -->
<g id="edge3" class="edge">
<title>Node3&#45;&gt;Node4</title>
<path fill="none" stroke="#63b8ff" d="M149.94,-407.79C132.46,-409.55 112.7,-411.54 95.29,-413.29"/>
<polygon fill="#63b8ff" stroke="#63b8ff" points="149.95,-411.31 159.54,-406.82 149.24,-404.34 149.95,-411.31"/>
</g>
<!-- Node3&#45;&gt;Node5 -->
<g id="edge4" class="edge">
<title>Node3&#45;&gt;Node5</title>
<path fill="none" stroke="#63b8ff" d="M150.09,-390.27C132.39,-385.52 112.33,-380.13 94.73,-375.41"/>
<polygon fill="#63b8ff" stroke="#63b8ff" points="149.02,-393.61 159.59,-392.82 150.84,-386.85 149.02,-393.61"/>
</g>
<!-- Node12&#45;&gt;Node6 -->
<g id="edge14" class="edge">
<title>Node12&#45;&gt;Node6</title>
<path fill="none" stroke="#63b8ff" d="M311.56,-101.48C308.25,-103.2 305.04,-105.04 302,-107 260.64,-133.66 222.53,-179.29 206.94,-199.21"/>
<polygon fill="#63b8ff" stroke="#63b8ff" points="312.8,-104.77 320.33,-97.32 309.79,-98.45 312.8,-104.77"/>
</g>
<!-- Node14 -->
<g id="node14" class="node">
<title>Node14</title>
<g id="a_node14"><a xlink:href="structkepler_1_1_circle_bar.html#a71671ba0c73be8ee79cceb7bd8dd831a" target="_top" xlink:title=" ">
<polygon fill="white" stroke="#666666" points="246,-78 151,-78 151,-48 246,-48 246,-78"/>
<text text-anchor="start" x="159" y="-66" font-family="Helvetica,sans-Serif" font-size="10.00">kepler::CircleBar::</text>
<text text-anchor="middle" x="198.5" y="-55" font-family="Helvetica,sans-Serif" font-size="10.00">operator()</text>
</a>
</g>
</g>
<!-- Node13&#45;&gt;Node14 -->
<g id="edge16" class="edge">
<title>Node13&#45;&gt;Node14</title>
<path fill="none" stroke="#63b8ff" d="M316.73,-46.3C294.31,-49.5 268.2,-53.21 246.32,-56.33"/>
<polygon fill="#63b8ff" stroke="#63b8ff" points="317.16,-49.78 326.57,-44.9 316.18,-42.85 317.16,-49.78"/>
</g>
<!-- Node15 -->
<g id="node15" class="node">
<title>Node15</title>
<g id="a_node15"><a xlink:href="structkepler_1_1_circle_stile.html#ae3e658a67df48a0457ed356f29ff1fc9" target="_top" xlink:title=" ">
<polygon fill="white" stroke="#666666" points="245.5,-30 151.5,-30 151.5,0 245.5,0 245.5,-30"/>
<text text-anchor="start" x="159.5" y="-18" font-family="Helvetica,sans-Serif" font-size="10.00">kepler::CircleStile</text>
<text text-anchor="middle" x="198.5" y="-7" font-family="Helvetica,sans-Serif" font-size="10.00">::operator()</text>
</a>
</g>
</g>
<!-- Node13&#45;&gt;Node15 -->
<g id="edge17" class="edge">
<title>Node13&#45;&gt;Node15</title>
<path fill="none" stroke="#63b8ff" d="M316.94,-31.73C294.27,-28.5 267.78,-24.73 245.71,-21.58"/>
<polygon fill="#63b8ff" stroke="#63b8ff" points="316.18,-35.15 326.57,-33.1 317.16,-28.22 316.18,-35.15"/>
</g>
</g>
</svg>
