<?xml version="1.0" encoding="UTF-8" standalone="no"?>
<!DOCTYPE svg PUBLIC "-//W3C//DTD SVG 1.1//EN"
 "http://www.w3.org/Graphics/SVG/1.1/DTD/svg11.dtd">
<!-- Generated by graphviz version 7.1.0 (20230121.1956)
 -->
<!-- Title: kepler::Array::is_integer_numeric Pages: 1 -->
<svg width="298pt" height="161pt"
 viewBox="0.00 0.00 298.00 160.50" xmlns="http://www.w3.org/2000/svg" xmlns:xlink="http://www.w3.org/1999/xlink">
<g id="graph0" class="graph" transform="scale(1 1) rotate(0) translate(4 156.5)">
<title>kepler::Array::is_integer_numeric</title>
<!-- Node1 -->
<g id="node1" class="node">
<title>Node1</title>
<g id="a_node1"><a xlink:title=" ">
<polygon fill="#999999" stroke="#666666" points="290,-82.5 170,-82.5 170,-52.5 290,-52.5 290,-82.5"/>
<text text-anchor="start" x="178" y="-70.5" font-family="Helvetica,sans-Serif" font-size="10.00">kepler::Array::is_integer</text>
<text text-anchor="middle" x="230" y="-59.5" font-family="Helvetica,sans-Serif" font-size="10.00">_numeric</text>
</a>
</g>
</g>
<!-- Node2 -->
<g id="node2" class="node">
<title>Node2</title>
<g id="a_node2"><a xlink:href="structkepler_1_1_circle_bar.html#ad4d789ada13f9e9152417c8034abee01" target="_top" xlink:title=" ">
<polygon fill="white" stroke="#666666" points="114.5,-152.5 19.5,-152.5 19.5,-122.5 114.5,-122.5 114.5,-152.5"/>
<text text-anchor="start" x="27.5" y="-140.5" font-family="Helvetica,sans-Serif" font-size="10.00">kepler::CircleBar::</text>
<text text-anchor="middle" x="67" y="-129.5" font-family="Helvetica,sans-Serif" font-size="10.00">operator()</text>
</a>
</g>
</g>
<!-- Node1&#45;&gt;Node2 -->
<g id="edge1" class="edge">
<title>Node1&#45;&gt;Node2</title>
<path fill="none" stroke="#63b8ff" d="M189.35,-87.82C172.47,-96.18 152.45,-105.7 134,-113.5 127.04,-116.44 119.58,-119.37 112.27,-122.11"/>
<polygon fill="#63b8ff" stroke="#63b8ff" points="190.67,-91.07 198.05,-83.47 187.54,-84.81 190.67,-91.07"/>
</g>
<!-- Node3 -->
<g id="node3" class="node">
<title>Node3</title>
<g id="a_node3"><a xlink:href="structkepler_1_1_circle_stile.html#a29677d4fd43e1db4bacaddc636efa189" target="_top" xlink:title=" ">
<polygon fill="white" stroke="#666666" points="114,-104.5 20,-104.5 20,-74.5 114,-74.5 114,-104.5"/>
<text text-anchor="start" x="28" y="-92.5" font-family="Helvetica,sans-Serif" font-size="10.00">kepler::CircleStile</text>
<text text-anchor="middle" x="67" y="-81.5" font-family="Helvetica,sans-Serif" font-size="10.00">::operator()</text>
</a>
</g>
</g>
<!-- Node1&#45;&gt;Node3 -->
<g id="edge2" class="edge">
<title>Node1&#45;&gt;Node3</title>
<path fill="none" stroke="#63b8ff" d="M158.27,-77.16C143.42,-79.19 128.11,-81.29 114.42,-83.16"/>
<polygon fill="#63b8ff" stroke="#63b8ff" points="158.57,-80.66 168.01,-75.83 157.63,-73.72 158.57,-80.66"/>
</g>
<!-- Node4 -->
<g id="node4" class="node">
<title>Node4</title>
<g id="a_node4"><a xlink:href="structkepler_1_1_arrow_up.html#ab1b075f1c3ad3585a1ecbe0bf5e4ed24" target="_top" xlink:title=" ">
<polygon fill="white" stroke="#666666" points="134,-56 0,-56 0,-37 134,-37 134,-56"/>
<text text-anchor="middle" x="67" y="-44" font-family="Helvetica,sans-Serif" font-size="10.00">kepler::ArrowUp::operator()</text>
</a>
</g>
</g>
<!-- Node1&#45;&gt;Node4 -->
<g id="edge3" class="edge">
<title>Node1&#45;&gt;Node4</title>
<path fill="none" stroke="#63b8ff" d="M158.33,-58.28C150.35,-57.24 142.23,-56.18 134.3,-55.15"/>
<polygon fill="#63b8ff" stroke="#63b8ff" points="157.64,-61.72 168.01,-59.54 158.54,-54.78 157.64,-61.72"/>
</g>
<!-- Node5 -->
<g id="node5" class="node">
<title>Node5</title>
<g id="a_node5"><a xlink:href="structkepler_1_1_power.html#a67d479325a5c7fe90d9d8c66f18f2625" target="_top" xlink:title=" ">
<polygon fill="white" stroke="#666666" points="129,-19 5,-19 5,0 129,0 129,-19"/>
<text text-anchor="middle" x="67" y="-7" font-family="Helvetica,sans-Serif" font-size="10.00">kepler::Power::operator()</text>
</a>
</g>
</g>
<!-- Node1&#45;&gt;Node5 -->
<g id="edge4" class="edge">
<title>Node1&#45;&gt;Node5</title>
<path fill="none" stroke="#63b8ff" d="M183.72,-47.73C168.11,-41.23 150.42,-34.21 134,-28.5 124.77,-25.29 114.68,-22.18 105.23,-19.45"/>
<polygon fill="#63b8ff" stroke="#63b8ff" points="182.19,-50.89 192.77,-51.54 184.91,-44.43 182.19,-50.89"/>
</g>
</g>
</svg>
