<?xml version="1.0" encoding="UTF-8" standalone="no"?>
<!DOCTYPE svg PUBLIC "-//W3C//DTD SVG 1.1//EN"
 "http://www.w3.org/Graphics/SVG/1.1/DTD/svg11.dtd">
<!-- Generated by graphviz version 7.1.0 (20230121.1956)
 -->
<!-- Title: kepler::position Pages: 1 -->
<svg width="2212pt" height="779pt"
 viewBox="0.00 0.00 2212.00 779.00" xmlns="http://www.w3.org/2000/svg" xmlns:xlink="http://www.w3.org/1999/xlink">
<g id="graph0" class="graph" transform="scale(1 1) rotate(0) translate(4 775)">
<title>kepler::position</title>
<!-- Node1 -->
<g id="node1" class="node">
<title>Node1</title>
<g id="a_node1"><a xlink:title=" ">
<polygon fill="#999999" stroke="#666666" points="987,-658.5 987,-770.5 1107,-770.5 1107,-658.5 987,-658.5"/>
<text text-anchor="middle" x="1047" y="-758.5" font-family="Helvetica,sans-Serif" font-size="10.00">kepler::position</text>
<polyline fill="none" stroke="#666666" points="987,-751.5 1107,-751.5"/>
<text text-anchor="middle" x="1047" y="-739.5" font-family="Helvetica,sans-Serif" font-size="10.00"> </text>
<polyline fill="none" stroke="#666666" points="987,-732.5 1107,-732.5"/>
<text text-anchor="start" x="995" y="-720.5" font-family="Helvetica,sans-Serif" font-size="10.00">+ position()</text>
<text text-anchor="start" x="995" y="-709.5" font-family="Helvetica,sans-Serif" font-size="10.00">+ position(long pos_)</text>
<text text-anchor="start" x="995" y="-698.5" font-family="Helvetica,sans-Serif" font-size="10.00">+ void set_position(long</text>
<text text-anchor="start" x="995" y="-687.5" font-family="Helvetica,sans-Serif" font-size="10.00"> new_pos)</text>
<text text-anchor="start" x="995" y="-676.5" font-family="Helvetica,sans-Serif" font-size="10.00">+ long get_position()</text>
<text text-anchor="start" x="995" y="-665.5" font-family="Helvetica,sans-Serif" font-size="10.00"> const</text>
</a>
</g>
</g>
<!-- Node2 -->
<g id="node2" class="node">
<title>Node2</title>
<g id="a_node2"><a xlink:href="structkepler_1_1_a_s_t_node.html" target="_top" xlink:title=" ">
<polygon fill="white" stroke="#666666" points="455.5,-260.5 455.5,-394.5 598.5,-394.5 598.5,-260.5 455.5,-260.5"/>
<text text-anchor="start" x="463.5" y="-382.5" font-family="Helvetica,sans-Serif" font-size="10.00">kepler::ASTNode&lt; Operation</text>
<text text-anchor="middle" x="527" y="-371.5" font-family="Helvetica,sans-Serif" font-size="10.00">_ptr &gt;</text>
<polyline fill="none" stroke="#666666" points="455.5,-364.5 598.5,-364.5"/>
<text text-anchor="middle" x="527" y="-352.5" font-family="Helvetica,sans-Serif" font-size="10.00"> </text>
<polyline fill="none" stroke="#666666" points="455.5,-345.5 598.5,-345.5"/>
<text text-anchor="start" x="463.5" y="-333.5" font-family="Helvetica,sans-Serif" font-size="10.00">+ virtual ~ASTNode()</text>
<text text-anchor="start" x="463.5" y="-322.5" font-family="Helvetica,sans-Serif" font-size="10.00">=default</text>
<text text-anchor="start" x="463.5" y="-311.5" font-family="Helvetica,sans-Serif" font-size="10.00">+ virtual Operation_ptr</text>
<text text-anchor="start" x="463.5" y="-300.5" font-family="Helvetica,sans-Serif" font-size="10.00"> accept(class NodeVisitor</text>
<text text-anchor="start" x="463.5" y="-289.5" font-family="Helvetica,sans-Serif" font-size="10.00"> &amp;visitor)=0</text>
<text text-anchor="start" x="463.5" y="-278.5" font-family="Helvetica,sans-Serif" font-size="10.00">+ virtual std::string</text>
<text text-anchor="start" x="463.5" y="-267.5" font-family="Helvetica,sans-Serif" font-size="10.00"> to_string() const=0</text>
</a>
</g>
</g>
<!-- Node1&#45;&gt;Node2 -->
<g id="edge1" class="edge">
<title>Node1&#45;&gt;Node2</title>
<path fill="none" stroke="#63b8ff" d="M978.09,-662.48C879.31,-589.35 698.38,-455.38 598.29,-381.29"/>
<polygon fill="none" stroke="#63b8ff" points="975.76,-665.11 985.88,-668.25 979.92,-659.48 975.76,-665.11"/>
</g>
<!-- Node8 -->
<g id="node8" class="node">
<title>Node8</title>
<g id="a_node8"><a xlink:href="structkepler_1_1_a_s_t_node.html" target="_top" xlink:title=" ">
<polygon fill="white" stroke="#666666" points="1247.5,-271.5 1247.5,-383.5 1394.5,-383.5 1394.5,-271.5 1247.5,-271.5"/>
<text text-anchor="middle" x="1321" y="-371.5" font-family="Helvetica,sans-Serif" font-size="10.00">kepler::ASTNode&lt; Array &gt;</text>
<polyline fill="none" stroke="#666666" points="1247.5,-364.5 1394.5,-364.5"/>
<text text-anchor="middle" x="1321" y="-352.5" font-family="Helvetica,sans-Serif" font-size="10.00"> </text>
<polyline fill="none" stroke="#666666" points="1247.5,-345.5 1394.5,-345.5"/>
<text text-anchor="start" x="1255.5" y="-333.5" font-family="Helvetica,sans-Serif" font-size="10.00">+ virtual ~ASTNode()</text>
<text text-anchor="start" x="1255.5" y="-322.5" font-family="Helvetica,sans-Serif" font-size="10.00">=default</text>
<text text-anchor="start" x="1255.5" y="-311.5" font-family="Helvetica,sans-Serif" font-size="10.00">+ virtual Array accept</text>
<text text-anchor="start" x="1255.5" y="-300.5" font-family="Helvetica,sans-Serif" font-size="10.00">(class NodeVisitor &amp;visitor)=0</text>
<text text-anchor="start" x="1255.5" y="-289.5" font-family="Helvetica,sans-Serif" font-size="10.00">+ virtual std::string</text>
<text text-anchor="start" x="1255.5" y="-278.5" font-family="Helvetica,sans-Serif" font-size="10.00"> to_string() const=0</text>
</a>
</g>
</g>
<!-- Node1&#45;&gt;Node8 -->
<g id="edge7" class="edge">
<title>Node1&#45;&gt;Node8</title>
<path fill="none" stroke="#63b8ff" d="M1095.74,-649.79C1102.68,-640.24 1109.63,-630.44 1116,-621 1168.13,-543.81 1170.54,-517.56 1225,-442 1239.26,-422.21 1256.07,-401.57 1271.61,-383.4"/>
<polygon fill="none" stroke="#63b8ff" points="1093.08,-647.49 1089.99,-657.62 1098.73,-651.63 1093.08,-647.49"/>
</g>
<!-- Node18 -->
<g id="node18" class="node">
<title>Node18</title>
<g id="a_node18"><a xlink:href="structkepler_1_1_a_s_t_node.html" target="_top" xlink:title=" ">
<polygon fill="white" stroke="#666666" points="914.5,-260.5 914.5,-394.5 1043.5,-394.5 1043.5,-260.5 914.5,-260.5"/>
<text text-anchor="start" x="922.5" y="-382.5" font-family="Helvetica,sans-Serif" font-size="10.00">kepler::ASTNode&lt; kepler</text>
<text text-anchor="middle" x="979" y="-371.5" font-family="Helvetica,sans-Serif" font-size="10.00">::Array &gt;</text>
<polyline fill="none" stroke="#666666" points="914.5,-364.5 1043.5,-364.5"/>
<text text-anchor="middle" x="979" y="-352.5" font-family="Helvetica,sans-Serif" font-size="10.00"> </text>
<polyline fill="none" stroke="#666666" points="914.5,-345.5 1043.5,-345.5"/>
<text text-anchor="start" x="922.5" y="-333.5" font-family="Helvetica,sans-Serif" font-size="10.00">+ virtual ~ASTNode()</text>
<text text-anchor="start" x="922.5" y="-322.5" font-family="Helvetica,sans-Serif" font-size="10.00">=default</text>
<text text-anchor="start" x="922.5" y="-311.5" font-family="Helvetica,sans-Serif" font-size="10.00">+ virtual kepler::Array</text>
<text text-anchor="start" x="922.5" y="-300.5" font-family="Helvetica,sans-Serif" font-size="10.00"> accept(class NodeVisitor</text>
<text text-anchor="start" x="922.5" y="-289.5" font-family="Helvetica,sans-Serif" font-size="10.00"> &amp;visitor)=0</text>
<text text-anchor="start" x="922.5" y="-278.5" font-family="Helvetica,sans-Serif" font-size="10.00">+ virtual std::string</text>
<text text-anchor="start" x="922.5" y="-267.5" font-family="Helvetica,sans-Serif" font-size="10.00"> to_string() const=0</text>
</a>
</g>
</g>
<!-- Node1&#45;&gt;Node18 -->
<g id="edge17" class="edge">
<title>Node1&#45;&gt;Node18</title>
<path fill="none" stroke="#63b8ff" d="M993.46,-649.2C987.34,-640.08 981.64,-630.54 977,-621 937.37,-539.58 936.65,-513.8 925,-424 923.69,-413.89 925.28,-403.84 928.63,-394.26"/>
<polygon fill="none" stroke="#63b8ff" points="990.52,-651.09 999.1,-657.3 996.26,-647.09 990.52,-651.09"/>
</g>
<!-- Node19 -->
<g id="node19" class="node">
<title>Node19</title>
<g id="a_node19"><a xlink:href="structkepler_1_1_a_s_t_node.html" target="_top" xlink:title=" ">
<polygon fill="white" stroke="#666666" points="986.5,-475.5 986.5,-587.5 1107.5,-587.5 1107.5,-475.5 986.5,-475.5"/>
<text text-anchor="middle" x="1047" y="-575.5" font-family="Helvetica,sans-Serif" font-size="10.00">kepler::ASTNode&lt; T &gt;</text>
<polyline fill="none" stroke="#666666" points="986.5,-568.5 1107.5,-568.5"/>
<text text-anchor="middle" x="1047" y="-556.5" font-family="Helvetica,sans-Serif" font-size="10.00"> </text>
<polyline fill="none" stroke="#666666" points="986.5,-549.5 1107.5,-549.5"/>
<text text-anchor="start" x="994.5" y="-537.5" font-family="Helvetica,sans-Serif" font-size="10.00">+ virtual ~ASTNode()</text>
<text text-anchor="start" x="994.5" y="-526.5" font-family="Helvetica,sans-Serif" font-size="10.00">=default</text>
<text text-anchor="start" x="994.5" y="-515.5" font-family="Helvetica,sans-Serif" font-size="10.00">+ virtual T accept(class</text>
<text text-anchor="start" x="994.5" y="-504.5" font-family="Helvetica,sans-Serif" font-size="10.00"> NodeVisitor &amp;visitor)=0</text>
<text text-anchor="start" x="994.5" y="-493.5" font-family="Helvetica,sans-Serif" font-size="10.00">+ virtual std::string</text>
<text text-anchor="start" x="994.5" y="-482.5" font-family="Helvetica,sans-Serif" font-size="10.00"> to_string() const =0</text>
</a>
</g>
</g>
<!-- Node1&#45;&gt;Node19 -->
<g id="edge18" class="edge">
<title>Node1&#45;&gt;Node19</title>
<path fill="none" stroke="#63b8ff" d="M1047,-647.34C1047,-627.65 1047,-606.31 1047,-587.42"/>
<polygon fill="none" stroke="#63b8ff" points="1043.5,-647.19 1047,-657.19 1050.5,-647.19 1043.5,-647.19"/>
</g>
<!-- Node20 -->
<g id="node20" class="node">
<title>Node20</title>
<g id="a_node20"><a xlink:href="structkepler_1_1_token.html" target="_top" xlink:title=" ">
<polygon fill="white" stroke="#666666" points="1234,-442.5 1234,-620.5 1386,-620.5 1386,-442.5 1234,-442.5"/>
<text text-anchor="middle" x="1310" y="-608.5" font-family="Helvetica,sans-Serif" font-size="10.00">kepler::Token</text>
<polyline fill="none" stroke="#666666" points="1234,-601.5 1386,-601.5"/>
<text text-anchor="start" x="1242" y="-589.5" font-family="Helvetica,sans-Serif" font-size="10.00">+ TokenType type</text>
<text text-anchor="start" x="1242" y="-578.5" font-family="Helvetica,sans-Serif" font-size="10.00">+ std::optional&lt; std</text>
<text text-anchor="start" x="1242" y="-567.5" font-family="Helvetica,sans-Serif" font-size="10.00">::vector&lt; Char &gt; &gt; content</text>
<polyline fill="none" stroke="#666666" points="1234,-560.5 1386,-560.5"/>
<text text-anchor="start" x="1242" y="-548.5" font-family="Helvetica,sans-Serif" font-size="10.00">+ Token(long pos, TokenType</text>
<text text-anchor="start" x="1242" y="-537.5" font-family="Helvetica,sans-Serif" font-size="10.00"> type_, Char content_)</text>
<text text-anchor="start" x="1242" y="-526.5" font-family="Helvetica,sans-Serif" font-size="10.00">+ Token(long pos, TokenType</text>
<text text-anchor="start" x="1242" y="-515.5" font-family="Helvetica,sans-Serif" font-size="10.00"> type_, std::u32string content_)</text>
<text text-anchor="start" x="1242" y="-504.5" font-family="Helvetica,sans-Serif" font-size="10.00">+ Token(TokenType type</text>
<text text-anchor="start" x="1242" y="-493.5" font-family="Helvetica,sans-Serif" font-size="10.00">_, std::u32string content_)</text>
<text text-anchor="start" x="1242" y="-482.5" font-family="Helvetica,sans-Serif" font-size="10.00">+ Token(long pos, TokenType</text>
<text text-anchor="start" x="1242" y="-471.5" font-family="Helvetica,sans-Serif" font-size="10.00"> type_)</text>
<text text-anchor="start" x="1242" y="-460.5" font-family="Helvetica,sans-Serif" font-size="10.00">+ std::string to_string</text>
<text text-anchor="start" x="1242" y="-449.5" font-family="Helvetica,sans-Serif" font-size="10.00">() const</text>
</a>
</g>
</g>
<!-- Node1&#45;&gt;Node20 -->
<g id="edge22" class="edge">
<title>Node1&#45;&gt;Node20</title>
<path fill="none" stroke="#63b8ff" d="M1117.23,-692.22C1150.35,-680.13 1189.24,-662.79 1220,-640 1227.92,-634.13 1235.59,-627.43 1242.88,-620.3"/>
<polygon fill="none" stroke="#63b8ff" points="1116.38,-688.81 1108.13,-695.46 1118.72,-695.41 1116.38,-688.81"/>
</g>
<!-- Node3 -->
<g id="node3" class="node">
<title>Node3</title>
<g id="a_node3"><a xlink:href="structkepler_1_1_anonymous_function.html" target="_top" xlink:title=" ">
<polygon fill="white" stroke="#666666" points="458,-39 458,-184 596,-184 596,-39 458,-39"/>
<text text-anchor="middle" x="527" y="-172" font-family="Helvetica,sans-Serif" font-size="10.00">kepler::AnonymousFunction</text>
<polyline fill="none" stroke="#666666" points="458,-165 596,-165"/>
<text text-anchor="start" x="466" y="-153" font-family="Helvetica,sans-Serif" font-size="10.00">+ Statements * body</text>
<polyline fill="none" stroke="#666666" points="458,-146 596,-146"/>
<text text-anchor="start" x="466" y="-134" font-family="Helvetica,sans-Serif" font-size="10.00">+ ~AnonymousFunction</text>
<text text-anchor="start" x="466" y="-123" font-family="Helvetica,sans-Serif" font-size="10.00">() override</text>
<text text-anchor="start" x="466" y="-112" font-family="Helvetica,sans-Serif" font-size="10.00">+ AnonymousFunction</text>
<text text-anchor="start" x="466" y="-101" font-family="Helvetica,sans-Serif" font-size="10.00">(Statements *body)</text>
<text text-anchor="start" x="466" y="-90" font-family="Helvetica,sans-Serif" font-size="10.00">+ std::string to_string</text>
<text text-anchor="start" x="466" y="-79" font-family="Helvetica,sans-Serif" font-size="10.00">() const override</text>
<text text-anchor="start" x="466" y="-68" font-family="Helvetica,sans-Serif" font-size="10.00">+ Operation_ptr accept</text>
<text text-anchor="start" x="466" y="-57" font-family="Helvetica,sans-Serif" font-size="10.00">(NodeVisitor &amp;visitor)</text>
<text text-anchor="start" x="466" y="-46" font-family="Helvetica,sans-Serif" font-size="10.00"> override</text>
</a>
</g>
</g>
<!-- Node2&#45;&gt;Node3 -->
<g id="edge2" class="edge">
<title>Node2&#45;&gt;Node3</title>
<path fill="none" stroke="#63b8ff" d="M527,-249.22C527,-227.87 527,-204.81 527,-183.81"/>
<polygon fill="none" stroke="#63b8ff" points="523.5,-249.03 527,-259.03 530.5,-249.03 523.5,-249.03"/>
</g>
<!-- Node4 -->
<g id="node4" class="node">
<title>Node4</title>
<g id="a_node4"><a xlink:href="structkepler_1_1_dyadic_operator.html" target="_top" xlink:title=" ">
<polygon fill="white" stroke="#666666" points="614,-0.5 614,-222.5 772,-222.5 772,-0.5 614,-0.5"/>
<text text-anchor="middle" x="693" y="-210.5" font-family="Helvetica,sans-Serif" font-size="10.00">kepler::DyadicOperator</text>
<polyline fill="none" stroke="#666666" points="614,-203.5 772,-203.5"/>
<text text-anchor="start" x="622" y="-191.5" font-family="Helvetica,sans-Serif" font-size="10.00">+ Token token</text>
<text text-anchor="start" x="622" y="-180.5" font-family="Helvetica,sans-Serif" font-size="10.00">+ ASTNode&lt; Operation</text>
<text text-anchor="start" x="622" y="-169.5" font-family="Helvetica,sans-Serif" font-size="10.00">_ptr &gt; * left</text>
<text text-anchor="start" x="622" y="-158.5" font-family="Helvetica,sans-Serif" font-size="10.00">+ std::variant&lt; ASTNode</text>
<text text-anchor="start" x="622" y="-147.5" font-family="Helvetica,sans-Serif" font-size="10.00">&lt; Operation_ptr &gt; *,</text>
<text text-anchor="start" x="622" y="-136.5" font-family="Helvetica,sans-Serif" font-size="10.00"> ASTNode&lt; Array &gt; * &gt; right</text>
<polyline fill="none" stroke="#666666" points="614,-129.5 772,-129.5"/>
<text text-anchor="start" x="622" y="-117.5" font-family="Helvetica,sans-Serif" font-size="10.00">+ ~DyadicOperator()</text>
<text text-anchor="start" x="622" y="-106.5" font-family="Helvetica,sans-Serif" font-size="10.00">+ DyadicOperator(Token</text>
<text text-anchor="start" x="622" y="-95.5" font-family="Helvetica,sans-Serif" font-size="10.00"> token_, ASTNode&lt; Operation</text>
<text text-anchor="start" x="622" y="-84.5" font-family="Helvetica,sans-Serif" font-size="10.00">_ptr &gt; *left_, std::variant</text>
<text text-anchor="start" x="622" y="-73.5" font-family="Helvetica,sans-Serif" font-size="10.00">&lt; ASTNode&lt; Operation_ptr &gt;</text>
<text text-anchor="start" x="622" y="-62.5" font-family="Helvetica,sans-Serif" font-size="10.00"> *, ASTNode&lt; Array &gt; * &gt; right_)</text>
<text text-anchor="start" x="622" y="-51.5" font-family="Helvetica,sans-Serif" font-size="10.00">+ std::string to_string</text>
<text text-anchor="start" x="622" y="-40.5" font-family="Helvetica,sans-Serif" font-size="10.00">() const override</text>
<text text-anchor="start" x="622" y="-29.5" font-family="Helvetica,sans-Serif" font-size="10.00">+ Operation_ptr accept</text>
<text text-anchor="start" x="622" y="-18.5" font-family="Helvetica,sans-Serif" font-size="10.00">(NodeVisitor &amp;visitor)</text>
<text text-anchor="start" x="622" y="-7.5" font-family="Helvetica,sans-Serif" font-size="10.00"> override</text>
</a>
</g>
</g>
<!-- Node2&#45;&gt;Node4 -->
<g id="edge3" class="edge">
<title>Node2&#45;&gt;Node4</title>
<path fill="none" stroke="#63b8ff" d="M584.96,-251.78C594.42,-239.58 604.37,-226.76 614.23,-214.05"/>
<polygon fill="none" stroke="#63b8ff" points="582.45,-249.3 579.09,-259.35 587.98,-253.59 582.45,-249.3"/>
</g>
<!-- Node5 -->
<g id="node5" class="node">
<title>Node5</title>
<g id="a_node5"><a xlink:href="structkepler_1_1_function.html" target="_top" xlink:title=" ">
<polygon fill="white" stroke="#666666" points="0,-55.5 0,-167.5 128,-167.5 128,-55.5 0,-55.5"/>
<text text-anchor="middle" x="64" y="-155.5" font-family="Helvetica,sans-Serif" font-size="10.00">kepler::Function</text>
<polyline fill="none" stroke="#666666" points="0,-148.5 128,-148.5"/>
<text text-anchor="start" x="8" y="-136.5" font-family="Helvetica,sans-Serif" font-size="10.00">+ Token token</text>
<polyline fill="none" stroke="#666666" points="0,-129.5 128,-129.5"/>
<text text-anchor="start" x="8" y="-117.5" font-family="Helvetica,sans-Serif" font-size="10.00">+ Function(Token token_)</text>
<text text-anchor="start" x="8" y="-106.5" font-family="Helvetica,sans-Serif" font-size="10.00">+ std::string to_string</text>
<text text-anchor="start" x="8" y="-95.5" font-family="Helvetica,sans-Serif" font-size="10.00">() const override</text>
<text text-anchor="start" x="8" y="-84.5" font-family="Helvetica,sans-Serif" font-size="10.00">+ Operation_ptr accept</text>
<text text-anchor="start" x="8" y="-73.5" font-family="Helvetica,sans-Serif" font-size="10.00">(NodeVisitor &amp;visitor)</text>
<text text-anchor="start" x="8" y="-62.5" font-family="Helvetica,sans-Serif" font-size="10.00"> override</text>
</a>
</g>
</g>
<!-- Node2&#45;&gt;Node5 -->
<g id="edge4" class="edge">
<title>Node2&#45;&gt;Node5</title>
<path fill="none" stroke="#63b8ff" d="M444.47,-321.61C360.16,-312.96 228.91,-289.06 137,-223 117.3,-208.84 101.44,-187.59 89.6,-167.49"/>
<polygon fill="none" stroke="#63b8ff" points="444,-325.08 454.29,-322.56 444.67,-318.11 444,-325.08"/>
</g>
<!-- Node6 -->
<g id="node6" class="node">
<title>Node6</title>
<g id="a_node6"><a xlink:href="structkepler_1_1_function_variable.html" target="_top" xlink:title=" ">
<polygon fill="white" stroke="#666666" points="146.5,-50 146.5,-173 273.5,-173 273.5,-50 146.5,-50"/>
<text text-anchor="middle" x="210" y="-161" font-family="Helvetica,sans-Serif" font-size="10.00">kepler::FunctionVariable</text>
<polyline fill="none" stroke="#666666" points="146.5,-154 273.5,-154"/>
<text text-anchor="start" x="154.5" y="-142" font-family="Helvetica,sans-Serif" font-size="10.00">+ Token identifier</text>
<polyline fill="none" stroke="#666666" points="146.5,-135 273.5,-135"/>
<text text-anchor="start" x="154.5" y="-123" font-family="Helvetica,sans-Serif" font-size="10.00">+ FunctionVariable(Token</text>
<text text-anchor="start" x="154.5" y="-112" font-family="Helvetica,sans-Serif" font-size="10.00"> identifier)</text>
<text text-anchor="start" x="154.5" y="-101" font-family="Helvetica,sans-Serif" font-size="10.00">+ std::string to_string</text>
<text text-anchor="start" x="154.5" y="-90" font-family="Helvetica,sans-Serif" font-size="10.00">() const override</text>
<text text-anchor="start" x="154.5" y="-79" font-family="Helvetica,sans-Serif" font-size="10.00">+ Operation_ptr accept</text>
<text text-anchor="start" x="154.5" y="-68" font-family="Helvetica,sans-Serif" font-size="10.00">(NodeVisitor &amp;visitor)</text>
<text text-anchor="start" x="154.5" y="-57" font-family="Helvetica,sans-Serif" font-size="10.00"> override</text>
</a>
</g>
</g>
<!-- Node2&#45;&gt;Node6 -->
<g id="edge5" class="edge">
<title>Node2&#45;&gt;Node6</title>
<path fill="none" stroke="#63b8ff" d="M444.71,-304.89C394.05,-288.55 330.04,-262.15 283,-223 266.48,-209.25 252.28,-190.8 240.93,-172.92"/>
<polygon fill="none" stroke="#63b8ff" points="443.6,-308.21 454.19,-307.87 445.7,-301.53 443.6,-308.21"/>
</g>
<!-- Node7 -->
<g id="node7" class="node">
<title>Node7</title>
<g id="a_node7"><a xlink:href="structkepler_1_1_monadic_operator.html" target="_top" xlink:title=" ">
<polygon fill="white" stroke="#666666" points="292,-28 292,-195 440,-195 440,-28 292,-28"/>
<text text-anchor="middle" x="366" y="-183" font-family="Helvetica,sans-Serif" font-size="10.00">kepler::MonadicOperator</text>
<polyline fill="none" stroke="#666666" points="292,-176 440,-176"/>
<text text-anchor="start" x="300" y="-164" font-family="Helvetica,sans-Serif" font-size="10.00">+ Token token</text>
<text text-anchor="start" x="300" y="-153" font-family="Helvetica,sans-Serif" font-size="10.00">+ ASTNode&lt; Operation</text>
<text text-anchor="start" x="300" y="-142" font-family="Helvetica,sans-Serif" font-size="10.00">_ptr &gt; * child</text>
<polyline fill="none" stroke="#666666" points="292,-135 440,-135"/>
<text text-anchor="start" x="300" y="-123" font-family="Helvetica,sans-Serif" font-size="10.00">+ ~MonadicOperator()</text>
<text text-anchor="start" x="300" y="-112" font-family="Helvetica,sans-Serif" font-size="10.00">+ MonadicOperator(Token</text>
<text text-anchor="start" x="300" y="-101" font-family="Helvetica,sans-Serif" font-size="10.00"> token_, ASTNode&lt; Operation</text>
<text text-anchor="start" x="300" y="-90" font-family="Helvetica,sans-Serif" font-size="10.00">_ptr &gt; *child_)</text>
<text text-anchor="start" x="300" y="-79" font-family="Helvetica,sans-Serif" font-size="10.00">+ std::string to_string</text>
<text text-anchor="start" x="300" y="-68" font-family="Helvetica,sans-Serif" font-size="10.00">() const override</text>
<text text-anchor="start" x="300" y="-57" font-family="Helvetica,sans-Serif" font-size="10.00">+ Operation_ptr accept</text>
<text text-anchor="start" x="300" y="-46" font-family="Helvetica,sans-Serif" font-size="10.00">(NodeVisitor &amp;visitor)</text>
<text text-anchor="start" x="300" y="-35" font-family="Helvetica,sans-Serif" font-size="10.00"> override</text>
</a>
</g>
</g>
<!-- Node2&#45;&gt;Node7 -->
<g id="edge6" class="edge">
<title>Node2&#45;&gt;Node7</title>
<path fill="none" stroke="#63b8ff" d="M470.39,-251.41C463.19,-241.85 455.92,-232.2 449,-223 442.15,-213.89 434.98,-204.36 427.85,-194.88"/>
<polygon fill="none" stroke="#63b8ff" points="467.54,-253.44 476.35,-259.32 473.13,-249.23 467.54,-253.44"/>
</g>
<!-- Node9 -->
<g id="node9" class="node">
<title>Node9</title>
<g id="a_node9"><a xlink:href="structkepler_1_1_assignment.html" target="_top" xlink:title=" ">
<polygon fill="white" stroke="#666666" points="1246.5,-39 1246.5,-184 1395.5,-184 1395.5,-39 1246.5,-39"/>
<text text-anchor="middle" x="1321" y="-172" font-family="Helvetica,sans-Serif" font-size="10.00">kepler::Assignment</text>
<polyline fill="none" stroke="#666666" points="1246.5,-165 1395.5,-165"/>
<text text-anchor="start" x="1254.5" y="-153" font-family="Helvetica,sans-Serif" font-size="10.00">+ Token identifier</text>
<text text-anchor="start" x="1254.5" y="-142" font-family="Helvetica,sans-Serif" font-size="10.00">+ ASTNode&lt; Array &gt; *</text>
<text text-anchor="start" x="1254.5" y="-131" font-family="Helvetica,sans-Serif" font-size="10.00"> value</text>
<polyline fill="none" stroke="#666666" points="1246.5,-124 1395.5,-124"/>
<text text-anchor="start" x="1254.5" y="-112" font-family="Helvetica,sans-Serif" font-size="10.00">+ ~Assignment() override</text>
<text text-anchor="start" x="1254.5" y="-101" font-family="Helvetica,sans-Serif" font-size="10.00">+ Assignment(Token identifier</text>
<text text-anchor="start" x="1254.5" y="-90" font-family="Helvetica,sans-Serif" font-size="10.00">_, ASTNode&lt; Array &gt; *value_)</text>
<text text-anchor="start" x="1254.5" y="-79" font-family="Helvetica,sans-Serif" font-size="10.00">+ std::string to_string</text>
<text text-anchor="start" x="1254.5" y="-68" font-family="Helvetica,sans-Serif" font-size="10.00">() const override</text>
<text text-anchor="start" x="1254.5" y="-57" font-family="Helvetica,sans-Serif" font-size="10.00">+ Array accept(NodeVisitor</text>
<text text-anchor="start" x="1254.5" y="-46" font-family="Helvetica,sans-Serif" font-size="10.00"> &amp;visitor) override</text>
</a>
</g>
</g>
<!-- Node8&#45;&gt;Node9 -->
<g id="edge8" class="edge">
<title>Node8&#45;&gt;Node9</title>
<path fill="none" stroke="#63b8ff" d="M1321,-260.4C1321,-236.1 1321,-208.49 1321,-183.76"/>
<polygon fill="none" stroke="#63b8ff" points="1317.5,-260.15 1321,-270.15 1324.5,-260.15 1317.5,-260.15"/>
</g>
<!-- Node10 -->
<g id="node10" class="node">
<title>Node10</title>
<g id="a_node10"><a xlink:href="structkepler_1_1_conditional.html" target="_top" xlink:title=" ">
<polygon fill="white" stroke="#666666" points="1414,-6 1414,-217 1548,-217 1548,-6 1414,-6"/>
<text text-anchor="middle" x="1481" y="-205" font-family="Helvetica,sans-Serif" font-size="10.00">kepler::Conditional</text>
<polyline fill="none" stroke="#666666" points="1414,-198 1548,-198"/>
<text text-anchor="start" x="1422" y="-186" font-family="Helvetica,sans-Serif" font-size="10.00">+ ASTNode&lt; Array &gt; *</text>
<text text-anchor="start" x="1422" y="-175" font-family="Helvetica,sans-Serif" font-size="10.00"> condition</text>
<text text-anchor="start" x="1422" y="-164" font-family="Helvetica,sans-Serif" font-size="10.00">+ ASTNode&lt; Array &gt; *</text>
<text text-anchor="start" x="1422" y="-153" font-family="Helvetica,sans-Serif" font-size="10.00"> true_case</text>
<text text-anchor="start" x="1422" y="-142" font-family="Helvetica,sans-Serif" font-size="10.00">+ ASTNode&lt; Array &gt; *</text>
<text text-anchor="start" x="1422" y="-131" font-family="Helvetica,sans-Serif" font-size="10.00"> false_case</text>
<polyline fill="none" stroke="#666666" points="1414,-124 1548,-124"/>
<text text-anchor="start" x="1422" y="-112" font-family="Helvetica,sans-Serif" font-size="10.00">+ ~Conditional()</text>
<text text-anchor="start" x="1422" y="-101" font-family="Helvetica,sans-Serif" font-size="10.00">+ Conditional(ASTNode</text>
<text text-anchor="start" x="1422" y="-90" font-family="Helvetica,sans-Serif" font-size="10.00">&lt; Array &gt; *condition,</text>
<text text-anchor="start" x="1422" y="-79" font-family="Helvetica,sans-Serif" font-size="10.00"> ASTNode&lt; Array &gt; *true</text>
<text text-anchor="start" x="1422" y="-68" font-family="Helvetica,sans-Serif" font-size="10.00">_case, ASTNode&lt; Array &gt;</text>
<text text-anchor="start" x="1422" y="-57" font-family="Helvetica,sans-Serif" font-size="10.00"> *false_case)</text>
<text text-anchor="start" x="1422" y="-46" font-family="Helvetica,sans-Serif" font-size="10.00">+ std::string to_string</text>
<text text-anchor="start" x="1422" y="-35" font-family="Helvetica,sans-Serif" font-size="10.00">() const override</text>
<text text-anchor="start" x="1422" y="-24" font-family="Helvetica,sans-Serif" font-size="10.00">+ Array accept(NodeVisitor</text>
<text text-anchor="start" x="1422" y="-13" font-family="Helvetica,sans-Serif" font-size="10.00"> &amp;visitor) override</text>
</a>
</g>
</g>
<!-- Node8&#45;&gt;Node10 -->
<g id="edge9" class="edge">
<title>Node8&#45;&gt;Node10</title>
<path fill="none" stroke="#63b8ff" d="M1374.1,-262.68C1384.54,-249.7 1395.26,-236.02 1405,-223 1408,-218.99 1411.03,-214.88 1414.06,-210.7"/>
<polygon fill="none" stroke="#63b8ff" points="1371.46,-260.39 1367.89,-270.37 1376.9,-264.79 1371.46,-260.39"/>
</g>
<!-- Node11 -->
<g id="node11" class="node">
<title>Node11</title>
<g id="a_node11"><a xlink:href="structkepler_1_1_dyadic_function.html" target="_top" xlink:title=" ">
<polygon fill="white" stroke="#666666" points="1566.5,-6 1566.5,-217 1721.5,-217 1721.5,-6 1566.5,-6"/>
<text text-anchor="middle" x="1644" y="-205" font-family="Helvetica,sans-Serif" font-size="10.00">kepler::DyadicFunction</text>
<polyline fill="none" stroke="#666666" points="1566.5,-198 1721.5,-198"/>
<text text-anchor="start" x="1574.5" y="-186" font-family="Helvetica,sans-Serif" font-size="10.00">+ ASTNode&lt; Operation</text>
<text text-anchor="start" x="1574.5" y="-175" font-family="Helvetica,sans-Serif" font-size="10.00">_ptr &gt; * function</text>
<text text-anchor="start" x="1574.5" y="-164" font-family="Helvetica,sans-Serif" font-size="10.00">+ ASTNode&lt; Array &gt; *</text>
<text text-anchor="start" x="1574.5" y="-153" font-family="Helvetica,sans-Serif" font-size="10.00"> alpha</text>
<text text-anchor="start" x="1574.5" y="-142" font-family="Helvetica,sans-Serif" font-size="10.00">+ ASTNode&lt; Array &gt; *</text>
<text text-anchor="start" x="1574.5" y="-131" font-family="Helvetica,sans-Serif" font-size="10.00"> omega</text>
<polyline fill="none" stroke="#666666" points="1566.5,-124 1721.5,-124"/>
<text text-anchor="start" x="1574.5" y="-112" font-family="Helvetica,sans-Serif" font-size="10.00">+ ~DyadicFunction()</text>
<text text-anchor="start" x="1574.5" y="-101" font-family="Helvetica,sans-Serif" font-size="10.00"> override</text>
<text text-anchor="start" x="1574.5" y="-90" font-family="Helvetica,sans-Serif" font-size="10.00">+ DyadicFunction(ASTNode</text>
<text text-anchor="start" x="1574.5" y="-79" font-family="Helvetica,sans-Serif" font-size="10.00">&lt; Operation_ptr &gt; *function</text>
<text text-anchor="start" x="1574.5" y="-68" font-family="Helvetica,sans-Serif" font-size="10.00">_, ASTNode&lt; Array &gt; *alpha</text>
<text text-anchor="start" x="1574.5" y="-57" font-family="Helvetica,sans-Serif" font-size="10.00">_, ASTNode&lt; Array &gt; *omega_)</text>
<text text-anchor="start" x="1574.5" y="-46" font-family="Helvetica,sans-Serif" font-size="10.00">+ std::string to_string</text>
<text text-anchor="start" x="1574.5" y="-35" font-family="Helvetica,sans-Serif" font-size="10.00">() const override</text>
<text text-anchor="start" x="1574.5" y="-24" font-family="Helvetica,sans-Serif" font-size="10.00">+ Array accept(NodeVisitor</text>
<text text-anchor="start" x="1574.5" y="-13" font-family="Helvetica,sans-Serif" font-size="10.00"> &amp;visitor) override</text>
</a>
</g>
</g>
<!-- Node8&#45;&gt;Node11 -->
<g id="edge10" class="edge">
<title>Node8&#45;&gt;Node11</title>
<path fill="none" stroke="#63b8ff" d="M1404.96,-301.06C1452.65,-283.95 1511.69,-258.06 1557,-223 1560.28,-220.46 1563.51,-217.77 1566.68,-214.96"/>
<polygon fill="none" stroke="#63b8ff" points="1404.05,-297.67 1395.77,-304.29 1406.37,-304.28 1404.05,-297.67"/>
</g>
<!-- Node12 -->
<g id="node12" class="node">
<title>Node12</title>
<g id="a_node12"><a xlink:href="structkepler_1_1_function_assignment.html" target="_top" xlink:title=" ">
<polygon fill="white" stroke="#666666" points="1740,-28 1740,-195 1878,-195 1878,-28 1740,-28"/>
<text text-anchor="middle" x="1809" y="-183" font-family="Helvetica,sans-Serif" font-size="10.00">kepler::FunctionAssignment</text>
<polyline fill="none" stroke="#666666" points="1740,-176 1878,-176"/>
<text text-anchor="start" x="1748" y="-164" font-family="Helvetica,sans-Serif" font-size="10.00">+ Token identifier</text>
<text text-anchor="start" x="1748" y="-153" font-family="Helvetica,sans-Serif" font-size="10.00">+ ASTNode&lt; Operation</text>
<text text-anchor="start" x="1748" y="-142" font-family="Helvetica,sans-Serif" font-size="10.00">_ptr &gt; * function</text>
<polyline fill="none" stroke="#666666" points="1740,-135 1878,-135"/>
<text text-anchor="start" x="1748" y="-123" font-family="Helvetica,sans-Serif" font-size="10.00">+ ~FunctionAssignment</text>
<text text-anchor="start" x="1748" y="-112" font-family="Helvetica,sans-Serif" font-size="10.00">() override</text>
<text text-anchor="start" x="1748" y="-101" font-family="Helvetica,sans-Serif" font-size="10.00">+ FunctionAssignment</text>
<text text-anchor="start" x="1748" y="-90" font-family="Helvetica,sans-Serif" font-size="10.00">(Token identifier, ASTNode</text>
<text text-anchor="start" x="1748" y="-79" font-family="Helvetica,sans-Serif" font-size="10.00">&lt; Operation_ptr &gt; *function)</text>
<text text-anchor="start" x="1748" y="-68" font-family="Helvetica,sans-Serif" font-size="10.00">+ std::string to_string</text>
<text text-anchor="start" x="1748" y="-57" font-family="Helvetica,sans-Serif" font-size="10.00">() const override</text>
<text text-anchor="start" x="1748" y="-46" font-family="Helvetica,sans-Serif" font-size="10.00">+ Array accept(NodeVisitor</text>
<text text-anchor="start" x="1748" y="-35" font-family="Helvetica,sans-Serif" font-size="10.00"> &amp;visitor) override</text>
</a>
</g>
</g>
<!-- Node8&#45;&gt;Node12 -->
<g id="edge11" class="edge">
<title>Node8&#45;&gt;Node12</title>
<path fill="none" stroke="#63b8ff" d="M1405.57,-322.21C1493.75,-314.07 1632.58,-290.58 1731,-223 1742.13,-215.36 1752.2,-205.57 1761.11,-194.99"/>
<polygon fill="none" stroke="#63b8ff" points="1405.44,-318.71 1395.78,-323.06 1406.05,-325.68 1405.44,-318.71"/>
</g>
<!-- Node13 -->
<g id="node13" class="node">
<title>Node13</title>
<g id="a_node13"><a xlink:href="structkepler_1_1_monadic_function.html" target="_top" xlink:title=" ">
<polygon fill="white" stroke="#666666" points="1896.5,-22.5 1896.5,-200.5 2051.5,-200.5 2051.5,-22.5 1896.5,-22.5"/>
<text text-anchor="middle" x="1974" y="-188.5" font-family="Helvetica,sans-Serif" font-size="10.00">kepler::MonadicFunction</text>
<polyline fill="none" stroke="#666666" points="1896.5,-181.5 2051.5,-181.5"/>
<text text-anchor="start" x="1904.5" y="-169.5" font-family="Helvetica,sans-Serif" font-size="10.00">+ ASTNode&lt; Operation</text>
<text text-anchor="start" x="1904.5" y="-158.5" font-family="Helvetica,sans-Serif" font-size="10.00">_ptr &gt; * function</text>
<text text-anchor="start" x="1904.5" y="-147.5" font-family="Helvetica,sans-Serif" font-size="10.00">+ ASTNode&lt; Array &gt; *</text>
<text text-anchor="start" x="1904.5" y="-136.5" font-family="Helvetica,sans-Serif" font-size="10.00"> omega</text>
<polyline fill="none" stroke="#666666" points="1896.5,-129.5 2051.5,-129.5"/>
<text text-anchor="start" x="1904.5" y="-117.5" font-family="Helvetica,sans-Serif" font-size="10.00">+ ~MonadicFunction()</text>
<text text-anchor="start" x="1904.5" y="-106.5" font-family="Helvetica,sans-Serif" font-size="10.00"> override</text>
<text text-anchor="start" x="1904.5" y="-95.5" font-family="Helvetica,sans-Serif" font-size="10.00">+ MonadicFunction(ASTNode</text>
<text text-anchor="start" x="1904.5" y="-84.5" font-family="Helvetica,sans-Serif" font-size="10.00">&lt; Operation_ptr &gt; *function</text>
<text text-anchor="start" x="1904.5" y="-73.5" font-family="Helvetica,sans-Serif" font-size="10.00">_, ASTNode&lt; Array &gt; *omega_)</text>
<text text-anchor="start" x="1904.5" y="-62.5" font-family="Helvetica,sans-Serif" font-size="10.00">+ std::string to_string</text>
<text text-anchor="start" x="1904.5" y="-51.5" font-family="Helvetica,sans-Serif" font-size="10.00">() const override</text>
<text text-anchor="start" x="1904.5" y="-40.5" font-family="Helvetica,sans-Serif" font-size="10.00">+ Array accept(NodeVisitor</text>
<text text-anchor="start" x="1904.5" y="-29.5" font-family="Helvetica,sans-Serif" font-size="10.00"> &amp;visitor) override</text>
</a>
</g>
</g>
<!-- Node8&#45;&gt;Node13 -->
<g id="edge12" class="edge">
<title>Node8&#45;&gt;Node13</title>
<path fill="none" stroke="#63b8ff" d="M1405.57,-318.42C1542.92,-304.08 1807.16,-271.11 1887,-223 1897.25,-216.82 1906.76,-208.97 1915.44,-200.29"/>
<polygon fill="none" stroke="#63b8ff" points="1405.39,-314.92 1395.8,-319.43 1406.11,-321.88 1405.39,-314.92"/>
</g>
<!-- Node14 -->
<g id="node14" class="node">
<title>Node14</title>
<g id="a_node14"><a xlink:href="structkepler_1_1_scalar.html" target="_top" xlink:title=" ">
<polygon fill="white" stroke="#666666" points="2070,-39 2070,-184 2204,-184 2204,-39 2070,-39"/>
<text text-anchor="middle" x="2137" y="-172" font-family="Helvetica,sans-Serif" font-size="10.00">kepler::Scalar</text>
<polyline fill="none" stroke="#666666" points="2070,-165 2204,-165"/>
<text text-anchor="start" x="2078" y="-153" font-family="Helvetica,sans-Serif" font-size="10.00">+ Token token</text>
<text text-anchor="start" x="2078" y="-142" font-family="Helvetica,sans-Serif" font-size="10.00">+ std::variant&lt; Number,</text>
<text text-anchor="start" x="2078" y="-131" font-family="Helvetica,sans-Serif" font-size="10.00"> std::u32string &gt; content</text>
<polyline fill="none" stroke="#666666" points="2070,-124 2204,-124"/>
<text text-anchor="start" x="2078" y="-112" font-family="Helvetica,sans-Serif" font-size="10.00">+ Scalar(Token token</text>
<text text-anchor="start" x="2078" y="-101" font-family="Helvetica,sans-Serif" font-size="10.00">_, std::variant&lt; Number,</text>
<text text-anchor="start" x="2078" y="-90" font-family="Helvetica,sans-Serif" font-size="10.00"> std::u32string &gt; content_)</text>
<text text-anchor="start" x="2078" y="-79" font-family="Helvetica,sans-Serif" font-size="10.00">+ std::string to_string</text>
<text text-anchor="start" x="2078" y="-68" font-family="Helvetica,sans-Serif" font-size="10.00">() const override</text>
<text text-anchor="start" x="2078" y="-57" font-family="Helvetica,sans-Serif" font-size="10.00">+ Array accept(NodeVisitor</text>
<text text-anchor="start" x="2078" y="-46" font-family="Helvetica,sans-Serif" font-size="10.00"> &amp;visitor) override</text>
</a>
</g>
</g>
<!-- Node8&#45;&gt;Node14 -->
<g id="edge13" class="edge">
<title>Node8&#45;&gt;Node14</title>
<path fill="none" stroke="#63b8ff" d="M1405.76,-323.14C1576.08,-315.03 1952.8,-289.88 2061,-223 2076.75,-213.27 2090.04,-198.92 2100.89,-183.77"/>
<polygon fill="none" stroke="#63b8ff" points="1405.69,-319.64 1395.87,-323.6 1406.02,-326.63 1405.69,-319.64"/>
</g>
<!-- Node15 -->
<g id="node15" class="node">
<title>Node15</title>
<g id="a_node15"><a xlink:href="structkepler_1_1_statements.html" target="_top" xlink:title=" ">
<polygon fill="white" stroke="#666666" points="790,-22.5 790,-200.5 924,-200.5 924,-22.5 790,-22.5"/>
<text text-anchor="middle" x="857" y="-188.5" font-family="Helvetica,sans-Serif" font-size="10.00">kepler::Statements</text>
<polyline fill="none" stroke="#666666" points="790,-181.5 924,-181.5"/>
<text text-anchor="start" x="798" y="-169.5" font-family="Helvetica,sans-Serif" font-size="10.00">+ std::vector&lt; ASTNode</text>
<text text-anchor="start" x="798" y="-158.5" font-family="Helvetica,sans-Serif" font-size="10.00">&lt; Array &gt; * &gt; children</text>
<text text-anchor="start" x="798" y="-147.5" font-family="Helvetica,sans-Serif" font-size="10.00">+ SymbolTable * symbol</text>
<text text-anchor="start" x="798" y="-136.5" font-family="Helvetica,sans-Serif" font-size="10.00">_table</text>
<polyline fill="none" stroke="#666666" points="790,-129.5 924,-129.5"/>
<text text-anchor="start" x="798" y="-117.5" font-family="Helvetica,sans-Serif" font-size="10.00">+ ~Statements() override</text>
<text text-anchor="start" x="798" y="-106.5" font-family="Helvetica,sans-Serif" font-size="10.00">+ Statements(std::vector</text>
<text text-anchor="start" x="798" y="-95.5" font-family="Helvetica,sans-Serif" font-size="10.00">&lt; ASTNode&lt; Array &gt; * &gt;</text>
<text text-anchor="start" x="798" y="-84.5" font-family="Helvetica,sans-Serif" font-size="10.00"> children_, SymbolTable</text>
<text text-anchor="start" x="798" y="-73.5" font-family="Helvetica,sans-Serif" font-size="10.00"> *symbol_table)</text>
<text text-anchor="start" x="798" y="-62.5" font-family="Helvetica,sans-Serif" font-size="10.00">+ std::string to_string</text>
<text text-anchor="start" x="798" y="-51.5" font-family="Helvetica,sans-Serif" font-size="10.00">() const override</text>
<text text-anchor="start" x="798" y="-40.5" font-family="Helvetica,sans-Serif" font-size="10.00">+ Array accept(NodeVisitor</text>
<text text-anchor="start" x="798" y="-29.5" font-family="Helvetica,sans-Serif" font-size="10.00"> &amp;visitor) override</text>
</a>
</g>
</g>
<!-- Node8&#45;&gt;Node15 -->
<g id="edge14" class="edge">
<title>Node8&#45;&gt;Node15</title>
<path fill="none" stroke="#63b8ff" d="M1236.41,-305.52C1126.1,-277.93 945.6,-231.89 933,-223 923.96,-216.62 915.66,-208.81 908.14,-200.31"/>
<polygon fill="none" stroke="#63b8ff" points="1235.5,-308.9 1246.05,-307.93 1237.2,-302.11 1235.5,-308.9"/>
</g>
<!-- Node16 -->
<g id="node16" class="node">
<title>Node16</title>
<g id="a_node16"><a xlink:href="structkepler_1_1_variable.html" target="_top" xlink:title=" ">
<polygon fill="white" stroke="#666666" points="942,-61 942,-162 1076,-162 1076,-61 942,-61"/>
<text text-anchor="middle" x="1009" y="-150" font-family="Helvetica,sans-Serif" font-size="10.00">kepler::Variable</text>
<polyline fill="none" stroke="#666666" points="942,-143 1076,-143"/>
<text text-anchor="start" x="950" y="-131" font-family="Helvetica,sans-Serif" font-size="10.00">+ Token token</text>
<polyline fill="none" stroke="#666666" points="942,-124 1076,-124"/>
<text text-anchor="start" x="950" y="-112" font-family="Helvetica,sans-Serif" font-size="10.00">+ Variable(Token token_)</text>
<text text-anchor="start" x="950" y="-101" font-family="Helvetica,sans-Serif" font-size="10.00">+ std::string to_string</text>
<text text-anchor="start" x="950" y="-90" font-family="Helvetica,sans-Serif" font-size="10.00">() const override</text>
<text text-anchor="start" x="950" y="-79" font-family="Helvetica,sans-Serif" font-size="10.00">+ Array accept(NodeVisitor</text>
<text text-anchor="start" x="950" y="-68" font-family="Helvetica,sans-Serif" font-size="10.00"> &amp;visitor) override</text>
</a>
</g>
</g>
<!-- Node8&#45;&gt;Node16 -->
<g id="edge15" class="edge">
<title>Node8&#45;&gt;Node16</title>
<path fill="none" stroke="#63b8ff" d="M1236.96,-302.41C1188.84,-285.67 1129.4,-259.7 1085,-223 1064.72,-206.24 1047.54,-182.74 1034.67,-161.73"/>
<polygon fill="none" stroke="#63b8ff" points="1235.64,-305.66 1246.24,-305.57 1237.9,-299.04 1235.64,-305.66"/>
</g>
<!-- Node17 -->
<g id="node17" class="node">
<title>Node17</title>
<g id="a_node17"><a xlink:href="structkepler_1_1_vector.html" target="_top" xlink:title=" ">
<polygon fill="white" stroke="#666666" points="1094,-44.5 1094,-178.5 1228,-178.5 1228,-44.5 1094,-44.5"/>
<text text-anchor="middle" x="1161" y="-166.5" font-family="Helvetica,sans-Serif" font-size="10.00">kepler::Vector</text>
<polyline fill="none" stroke="#666666" points="1094,-159.5 1228,-159.5"/>
<text text-anchor="start" x="1102" y="-147.5" font-family="Helvetica,sans-Serif" font-size="10.00">+ std::vector&lt; ASTNode</text>
<text text-anchor="start" x="1102" y="-136.5" font-family="Helvetica,sans-Serif" font-size="10.00"> * &gt; children</text>
<polyline fill="none" stroke="#666666" points="1094,-129.5 1228,-129.5"/>
<text text-anchor="start" x="1102" y="-117.5" font-family="Helvetica,sans-Serif" font-size="10.00">+ ~Vector() override</text>
<text text-anchor="start" x="1102" y="-106.5" font-family="Helvetica,sans-Serif" font-size="10.00">+ Vector(std::vector</text>
<text text-anchor="start" x="1102" y="-95.5" font-family="Helvetica,sans-Serif" font-size="10.00">&lt; ASTNode * &gt; children_)</text>
<text text-anchor="start" x="1102" y="-84.5" font-family="Helvetica,sans-Serif" font-size="10.00">+ std::string to_string</text>
<text text-anchor="start" x="1102" y="-73.5" font-family="Helvetica,sans-Serif" font-size="10.00">() const override</text>
<text text-anchor="start" x="1102" y="-62.5" font-family="Helvetica,sans-Serif" font-size="10.00">+ Array accept(NodeVisitor</text>
<text text-anchor="start" x="1102" y="-51.5" font-family="Helvetica,sans-Serif" font-size="10.00"> &amp;visitor) override</text>
</a>
</g>
</g>
<!-- Node8&#45;&gt;Node17 -->
<g id="edge16" class="edge">
<title>Node8&#45;&gt;Node17</title>
<path fill="none" stroke="#63b8ff" d="M1267.9,-262.68C1257.46,-249.7 1246.74,-236.02 1237,-223 1226.33,-208.74 1215.25,-193.13 1204.96,-178.26"/>
<polygon fill="none" stroke="#63b8ff" points="1265.1,-264.79 1274.11,-270.37 1270.54,-260.39 1265.1,-264.79"/>
</g>
<!-- Node19&#45;&gt;Node2 -->
<g id="edge19" class="edge">
<title>Node19&#45;&gt;Node2</title>
<path fill="none" stroke="orange" d="M976.06,-502.94C876.8,-464.38 697.5,-394.73 598.13,-356.13"/>
<polygon fill="orange" stroke="orange" points="974.59,-506.13 985.18,-506.48 977.12,-499.6 974.59,-506.13"/>
<text text-anchor="middle" x="812" y="-416" font-family="Helvetica,sans-Serif" font-size="10.00"> &lt; Operation_ptr &gt;</text>
</g>
<!-- Node19&#45;&gt;Node8 -->
<g id="edge20" class="edge">
<title>Node19&#45;&gt;Node8</title>
<path fill="none" stroke="orange" d="M1093.72,-466.73C1109.54,-447.89 1128.24,-428.26 1148,-413 1178.03,-389.81 1215.44,-370.58 1247.78,-356.34"/>
<polygon fill="orange" stroke="orange" points="1091.03,-464.48 1087.39,-474.43 1096.44,-468.93 1091.03,-464.48"/>
<text text-anchor="middle" x="1170" y="-416" font-family="Helvetica,sans-Serif" font-size="10.00"> &lt; Array &gt;</text>
</g>
<!-- Node19&#45;&gt;Node18 -->
<g id="edge21" class="edge">
<title>Node19&#45;&gt;Node18</title>
<path fill="none" stroke="orange" d="M1038.43,-464.69C1035.19,-447.58 1030.82,-429.36 1025,-413 1022.82,-406.86 1020.23,-400.63 1017.42,-394.48"/>
<polygon fill="orange" stroke="orange" points="1034.93,-465.03 1040.13,-474.26 1041.82,-463.8 1034.93,-465.03"/>
<text text-anchor="middle" x="1067.5" y="-416" font-family="Helvetica,sans-Serif" font-size="10.00"> &lt; kepler::Array &gt;</text>
</g>
</g>
</svg>
