<?xml version="1.0" encoding="UTF-8" standalone="no"?>
<!DOCTYPE svg PUBLIC "-//W3C//DTD SVG 1.1//EN"
 "http://www.w3.org/Graphics/SVG/1.1/DTD/svg11.dtd">
<!-- Generated by graphviz version 7.1.0 (20230121.1956)
 -->
<!-- Title: kepler::Not::operator() Pages: 1 -->
<svg width="281pt" height="101pt"
 viewBox="0.00 0.00 281.00 101.00" xmlns="http://www.w3.org/2000/svg" xmlns:xlink="http://www.w3.org/1999/xlink">
<g id="graph0" class="graph" transform="scale(1 1) rotate(0) translate(4 97)">
<title>kepler::Not::operator()</title>
<!-- Node1 -->
<g id="node1" class="node">
<title>Node1</title>
<g id="a_node1"><a xlink:title=" ">
<polygon fill="#999999" stroke="#666666" points="112,-56 0,-56 0,-37 112,-37 112,-56"/>
<text text-anchor="middle" x="56" y="-44" font-family="Helvetica,sans-Serif" font-size="10.00">kepler::Not::operator()</text>
</a>
</g>
</g>
<!-- Node2 -->
<g id="node2" class="node">
<title>Node2</title>
<g id="a_node2"><a xlink:href="structkepler_1_1_array.html#add830056588269ea267c11f89b14f774" target="_top" xlink:title=" ">
<polygon fill="white" stroke="#666666" points="273,-93 148,-93 148,-74 273,-74 273,-93"/>
<text text-anchor="middle" x="210.5" y="-81" font-family="Helvetica,sans-Serif" font-size="10.00">kepler::Array::is_numeric</text>
</a>
</g>
</g>
<!-- Node1&#45;&gt;Node2 -->
<g id="edge1" class="edge">
<title>Node1&#45;&gt;Node2</title>
<path fill="none" stroke="#63b8ff" d="M97.87,-56.42C116.16,-60.85 137.94,-66.14 157.38,-70.86"/>
<polygon fill="#63b8ff" stroke="#63b8ff" points="156.51,-74.24 167.05,-73.2 158.16,-67.44 156.51,-74.24"/>
</g>
<!-- Node3 -->
<g id="node3" class="node">
<title>Node3</title>
<g id="a_node3"><a xlink:href="structkepler_1_1_array.html#a5701013e5ec1699d7d8663bba09cfcdb" target="_top" xlink:title=" ">
<polygon fill="white" stroke="#666666" points="259,-56 162,-56 162,-37 259,-37 259,-56"/>
<text text-anchor="middle" x="210.5" y="-44" font-family="Helvetica,sans-Serif" font-size="10.00">kepler::Array::rank</text>
</a>
</g>
</g>
<!-- Node1&#45;&gt;Node3 -->
<g id="edge2" class="edge">
<title>Node1&#45;&gt;Node3</title>
<path fill="none" stroke="#63b8ff" d="M112.49,-46.5C124.88,-46.5 138.06,-46.5 150.58,-46.5"/>
<polygon fill="#63b8ff" stroke="#63b8ff" points="150.34,-50 160.34,-46.5 150.34,-43 150.34,-50"/>
</g>
<!-- Node4 -->
<g id="node4" class="node">
<title>Node4</title>
<g id="a_node4"><a xlink:href="namespacekepler.html#a0c751cbac6c4f57d783d2ab8960fd6da" target="_top" xlink:title=" ">
<polygon fill="white" stroke="#666666" points="250.5,-19 170.5,-19 170.5,0 250.5,0 250.5,-19"/>
<text text-anchor="middle" x="210.5" y="-7" font-family="Helvetica,sans-Serif" font-size="10.00">kepler::without</text>
</a>
</g>
</g>
<!-- Node1&#45;&gt;Node4 -->
<g id="edge3" class="edge">
<title>Node1&#45;&gt;Node4</title>
<path fill="none" stroke="#63b8ff" d="M97.87,-36.58C116.69,-32.02 139.2,-26.56 159.07,-21.74"/>
<polygon fill="#63b8ff" stroke="#63b8ff" points="159.74,-25.18 168.63,-19.42 158.09,-18.37 159.74,-25.18"/>
</g>
</g>
</svg>
