<?xml version="1.0" encoding="UTF-8" standalone="no"?>
<!DOCTYPE svg PUBLIC "-//W3C//DTD SVG 1.1//EN"
 "http://www.w3.org/Graphics/SVG/1.1/DTD/svg11.dtd">
<!-- Generated by graphviz version 7.1.0 (20230121.1956)
 -->
<!-- Title: kepler::Interpreter::visit Pages: 1 -->
<svg width="386pt" height="76pt"
 viewBox="0.00 0.00 386.00 75.50" xmlns="http://www.w3.org/2000/svg" xmlns:xlink="http://www.w3.org/1999/xlink">
<g id="graph0" class="graph" transform="scale(1 1) rotate(0) translate(4 71.5)">
<title>kepler::Interpreter::visit</title>
<!-- Node1 -->
<g id="node1" class="node">
<title>Node1</title>
<g id="a_node1"><a xlink:title=" ">
<polygon fill="#999999" stroke="#666666" points="93,-51 0,-51 0,-21 93,-21 93,-51"/>
<text text-anchor="start" x="8" y="-39" font-family="Helvetica,sans-Serif" font-size="10.00">kepler::Interpreter</text>
<text text-anchor="middle" x="46.5" y="-28" font-family="Helvetica,sans-Serif" font-size="10.00">::visit</text>
</a>
</g>
</g>
<!-- Node2 -->
<g id="node2" class="node">
<title>Node2</title>
<g id="a_node2"><a xlink:href="structkepler_1_1_a_s_t_node.html#a05bfe92973fce5532d1bdc50fc9b56eb" target="_top" xlink:title=" ">
<polygon fill="white" stroke="#666666" points="256,-67.5 129,-67.5 129,-48.5 256,-48.5 256,-67.5"/>
<text text-anchor="middle" x="192.5" y="-55.5" font-family="Helvetica,sans-Serif" font-size="10.00">kepler::ASTNode::accept</text>
</a>
</g>
</g>
<!-- Node1&#45;&gt;Node2 -->
<g id="edge1" class="edge">
<title>Node1&#45;&gt;Node2</title>
<path fill="none" stroke="#63b8ff" d="M93.46,-43.02C101.15,-44.2 109.31,-45.44 117.5,-46.69"/>
<polygon fill="#63b8ff" stroke="#63b8ff" points="116.74,-50.12 127.15,-48.17 117.79,-43.2 116.74,-50.12"/>
</g>
<!-- Node3 -->
<g id="node3" class="node">
<title>Node3</title>
<g id="a_node3"><a xlink:href="structkepler_1_1_interpreter.html#a035115ca88c1b9dc5620373a30d07889" target="_top" xlink:title=" ">
<polygon fill="white" stroke="#666666" points="239,-30 146,-30 146,0 239,0 239,-30"/>
<text text-anchor="start" x="154" y="-18" font-family="Helvetica,sans-Serif" font-size="10.00">kepler::Interpreter</text>
<text text-anchor="middle" x="192.5" y="-7" font-family="Helvetica,sans-Serif" font-size="10.00">::build_operation</text>
</a>
</g>
</g>
<!-- Node1&#45;&gt;Node3 -->
<g id="edge2" class="edge">
<title>Node1&#45;&gt;Node3</title>
<path fill="none" stroke="#63b8ff" d="M93.46,-29.3C106.58,-27.38 121.03,-25.28 134.71,-23.28"/>
<polygon fill="#63b8ff" stroke="#63b8ff" points="135.09,-26.76 144.48,-21.86 134.08,-19.84 135.09,-26.76"/>
</g>
<!-- Node4 -->
<g id="node4" class="node">
<title>Node4</title>
<g id="a_node4"><a xlink:href="namespacekepler.html#a76d95d0e078e053088ec440c6e878ab3" target="_top" xlink:title=" ">
<polygon fill="white" stroke="#666666" points="378,-24.5 292,-24.5 292,-5.5 378,-5.5 378,-24.5"/>
<text text-anchor="middle" x="335" y="-12.5" font-family="Helvetica,sans-Serif" font-size="10.00">kepler::to_string</text>
</a>
</g>
</g>
<!-- Node3&#45;&gt;Node4 -->
<g id="edge3" class="edge">
<title>Node3&#45;&gt;Node4</title>
<path fill="none" stroke="#63b8ff" d="M239.12,-15C252.39,-15 267,-15 280.7,-15"/>
<polygon fill="#63b8ff" stroke="#63b8ff" points="280.43,-18.5 290.43,-15 280.43,-11.5 280.43,-18.5"/>
</g>
</g>
</svg>
