<?xml version="1.0" encoding="UTF-8" standalone="no"?>
<!DOCTYPE svg PUBLIC "-//W3C//DTD SVG 1.1//EN"
 "http://www.w3.org/Graphics/SVG/1.1/DTD/svg11.dtd">
<!-- Generated by graphviz version 7.1.0 (20230121.1956)
 -->
<!-- Title: kepler::Circle::operator() Pages: 1 -->
<svg width="446pt" height="27pt"
 viewBox="0.00 0.00 446.00 27.00" xmlns="http://www.w3.org/2000/svg" xmlns:xlink="http://www.w3.org/1999/xlink">
<g id="graph0" class="graph" transform="scale(1 1) rotate(0) translate(4 23)">
<title>kepler::Circle::operator()</title>
<!-- Node1 -->
<g id="node1" class="node">
<title>Node1</title>
<g id="a_node1"><a xlink:title=" ">
<polygon fill="#999999" stroke="#666666" points="122,-19 0,-19 0,0 122,0 122,-19"/>
<text text-anchor="middle" x="61" y="-7" font-family="Helvetica,sans-Serif" font-size="10.00">kepler::Circle::operator()</text>
</a>
</g>
</g>
<!-- Node2 -->
<g id="node2" class="node">
<title>Node2</title>
<g id="a_node2"><a xlink:href="namespacekepler.html#aa848e96e65932d5f52bf3811002f0ec0" target="_top" xlink:title=" ">
<polygon fill="white" stroke="#666666" points="282,-19 158,-19 158,0 282,0 282,-19"/>
<text text-anchor="middle" x="220" y="-7" font-family="Helvetica,sans-Serif" font-size="10.00">kepler::number_to_string</text>
</a>
</g>
</g>
<!-- Node1&#45;&gt;Node2 -->
<g id="edge1" class="edge">
<title>Node1&#45;&gt;Node2</title>
<path fill="none" stroke="#63b8ff" d="M122.25,-9.5C130.13,-9.5 138.26,-9.5 146.32,-9.5"/>
<polygon fill="#63b8ff" stroke="#63b8ff" points="146.1,-13 156.1,-9.5 146.1,-6 146.1,-13"/>
</g>
<!-- Node3 -->
<g id="node3" class="node">
<title>Node3</title>
<g id="a_node3"><a xlink:href="namespacekepler.html#aeb0c7de5bfe099f79d13607089e6c312" target="_top" xlink:title=" ">
<polygon fill="white" stroke="#666666" points="438,-19 318,-19 318,0 438,0 438,-19"/>
<text text-anchor="middle" x="378" y="-7" font-family="Helvetica,sans-Serif" font-size="10.00">kepler::double_to_string</text>
</a>
</g>
</g>
<!-- Node2&#45;&gt;Node3 -->
<g id="edge2" class="edge">
<title>Node2&#45;&gt;Node3</title>
<path fill="none" stroke="#63b8ff" d="M282.21,-9.5C290.1,-9.5 298.23,-9.5 306.26,-9.5"/>
<polygon fill="#63b8ff" stroke="#63b8ff" points="305.99,-13 315.99,-9.5 305.99,-6 305.99,-13"/>
</g>
</g>
</svg>
