<?xml version="1.0" encoding="UTF-8" standalone="no"?>
<!DOCTYPE svg PUBLIC "-//W3C//DTD SVG 1.1//EN"
 "http://www.w3.org/Graphics/SVG/1.1/DTD/svg11.dtd">
<!-- Generated by graphviz version 7.1.0 (20230121.1956)
 -->
<!-- Title: kepler::MonadicOperator Pages: 1 -->
<svg width="379pt" height="700pt"
 viewBox="0.00 0.00 378.96 700.00" xmlns="http://www.w3.org/2000/svg" xmlns:xlink="http://www.w3.org/1999/xlink">
<g id="graph0" class="graph" transform="scale(1 1) rotate(0) translate(4 696)">
<title>kepler::MonadicOperator</title>
<!-- Node1 -->
<g id="node1" class="node">
<title>Node1</title>
<g id="a_node1"><a xlink:title=" ">
<polygon fill="#999999" stroke="#666666" points="43.96,-0.5 43.96,-145.5 191.96,-145.5 191.96,-0.5 43.96,-0.5"/>
<text text-anchor="middle" x="117.96" y="-133.5" font-family="Helvetica,sans-Serif" font-size="10.00">kepler::MonadicOperator</text>
<polyline fill="none" stroke="#666666" points="43.96,-126.5 191.96,-126.5"/>
<text text-anchor="middle" x="117.96" y="-114.5" font-family="Helvetica,sans-Serif" font-size="10.00"> </text>
<polyline fill="none" stroke="#666666" points="43.96,-107.5 191.96,-107.5"/>
<text text-anchor="start" x="51.96" y="-95.5" font-family="Helvetica,sans-Serif" font-size="10.00">+ ~MonadicOperator()</text>
<text text-anchor="start" x="51.96" y="-84.5" font-family="Helvetica,sans-Serif" font-size="10.00">+ MonadicOperator(Token</text>
<text text-anchor="start" x="51.96" y="-73.5" font-family="Helvetica,sans-Serif" font-size="10.00"> token_, ASTNode&lt; Operation</text>
<text text-anchor="start" x="51.96" y="-62.5" font-family="Helvetica,sans-Serif" font-size="10.00">_ptr &gt; *child_)</text>
<text text-anchor="start" x="51.96" y="-51.5" font-family="Helvetica,sans-Serif" font-size="10.00">+ std::string to_string</text>
<text text-anchor="start" x="51.96" y="-40.5" font-family="Helvetica,sans-Serif" font-size="10.00">() const override</text>
<text text-anchor="start" x="51.96" y="-29.5" font-family="Helvetica,sans-Serif" font-size="10.00">+ Operation_ptr accept</text>
<text text-anchor="start" x="51.96" y="-18.5" font-family="Helvetica,sans-Serif" font-size="10.00">(NodeVisitor &amp;visitor)</text>
<text text-anchor="start" x="51.96" y="-7.5" font-family="Helvetica,sans-Serif" font-size="10.00"> override</text>
</a>
</g>
</g>
<!-- Node2 -->
<g id="node2" class="node">
<title>Node2</title>
<g id="a_node2"><a xlink:href="structkepler_1_1_a_s_t_node.html" target="_top" xlink:title=" ">
<polygon fill="white" stroke="#666666" points="13.46,-193.5 13.46,-327.5 156.46,-327.5 156.46,-193.5 13.46,-193.5"/>
<text text-anchor="start" x="21.46" y="-315.5" font-family="Helvetica,sans-Serif" font-size="10.00">kepler::ASTNode&lt; Operation</text>
<text text-anchor="middle" x="84.96" y="-304.5" font-family="Helvetica,sans-Serif" font-size="10.00">_ptr &gt;</text>
<polyline fill="none" stroke="#666666" points="13.46,-297.5 156.46,-297.5"/>
<text text-anchor="middle" x="84.96" y="-285.5" font-family="Helvetica,sans-Serif" font-size="10.00"> </text>
<polyline fill="none" stroke="#666666" points="13.46,-278.5 156.46,-278.5"/>
<text text-anchor="start" x="21.46" y="-266.5" font-family="Helvetica,sans-Serif" font-size="10.00">+ virtual ~ASTNode()</text>
<text text-anchor="start" x="21.46" y="-255.5" font-family="Helvetica,sans-Serif" font-size="10.00">=default</text>
<text text-anchor="start" x="21.46" y="-244.5" font-family="Helvetica,sans-Serif" font-size="10.00">+ virtual Operation_ptr</text>
<text text-anchor="start" x="21.46" y="-233.5" font-family="Helvetica,sans-Serif" font-size="10.00"> accept(class NodeVisitor</text>
<text text-anchor="start" x="21.46" y="-222.5" font-family="Helvetica,sans-Serif" font-size="10.00"> &amp;visitor)=0</text>
<text text-anchor="start" x="21.46" y="-211.5" font-family="Helvetica,sans-Serif" font-size="10.00">+ virtual std::string</text>
<text text-anchor="start" x="21.46" y="-200.5" font-family="Helvetica,sans-Serif" font-size="10.00"> to_string() const=0</text>
</a>
</g>
</g>
<!-- Node2&#45;&gt;Node1 -->
<g id="edge1" class="edge">
<title>Node2&#45;&gt;Node1</title>
<path fill="none" stroke="#63b8ff" d="M95.83,-182.42C96.84,-176.18 97.89,-169.98 98.96,-164 100.05,-157.87 101.26,-151.52 102.51,-145.15"/>
<polygon fill="none" stroke="#63b8ff" points="92.4,-181.74 94.3,-192.16 99.31,-182.83 92.4,-181.74"/>
</g>
<!-- Node2&#45;&gt;Node1 -->
<g id="edge9" class="edge">
<title>Node2&#45;&gt;Node1</title>
<path fill="none" stroke="#404040" d="M96.69,-193.58C98.73,-182.11 100.87,-170.04 102.99,-158.16"/>
<polygon fill="none" stroke="#404040" points="103,-158.08 100.11,-151.47 105.1,-146.26 107.99,-152.87 103,-158.08"/>
<text text-anchor="middle" x="116.96" y="-167" font-family="Helvetica,sans-Serif" font-size="10.00"> +child</text>
</g>
<!-- Node3 -->
<g id="node3" class="node">
<title>Node3</title>
<g id="a_node3"><a xlink:href="structkepler_1_1_position.html" target="_top" xlink:title=" ">
<polygon fill="white" stroke="#666666" points="24.96,-579.5 24.96,-691.5 144.96,-691.5 144.96,-579.5 24.96,-579.5"/>
<text text-anchor="middle" x="84.96" y="-679.5" font-family="Helvetica,sans-Serif" font-size="10.00">kepler::Position</text>
<polyline fill="none" stroke="#666666" points="24.96,-672.5 144.96,-672.5"/>
<text text-anchor="middle" x="84.96" y="-660.5" font-family="Helvetica,sans-Serif" font-size="10.00"> </text>
<polyline fill="none" stroke="#666666" points="24.96,-653.5 144.96,-653.5"/>
<text text-anchor="start" x="32.96" y="-641.5" font-family="Helvetica,sans-Serif" font-size="10.00">+ Position()</text>
<text text-anchor="start" x="32.96" y="-630.5" font-family="Helvetica,sans-Serif" font-size="10.00">+ Position(long pos_)</text>
<text text-anchor="start" x="32.96" y="-619.5" font-family="Helvetica,sans-Serif" font-size="10.00">+ void set_position(long</text>
<text text-anchor="start" x="32.96" y="-608.5" font-family="Helvetica,sans-Serif" font-size="10.00"> new_pos)</text>
<text text-anchor="start" x="32.96" y="-597.5" font-family="Helvetica,sans-Serif" font-size="10.00">+ long get_position()</text>
<text text-anchor="start" x="32.96" y="-586.5" font-family="Helvetica,sans-Serif" font-size="10.00"> const</text>
</a>
</g>
</g>
<!-- Node3&#45;&gt;Node2 -->
<g id="edge2" class="edge">
<title>Node3&#45;&gt;Node2</title>
<path fill="none" stroke="#63b8ff" d="M32.73,-570.2C25.42,-558.14 19.02,-545.16 14.96,-532 -5.63,-465.33 -4.08,-442.13 14.96,-375 19.6,-358.63 27.35,-342.3 36.03,-327.35"/>
<polygon fill="none" stroke="#63b8ff" points="29.63,-571.84 37.96,-578.39 35.53,-568.08 29.63,-571.84"/>
</g>
<!-- Node4 -->
<g id="node4" class="node">
<title>Node4</title>
<g id="a_node4"><a xlink:href="structkepler_1_1_a_s_t_node.html" target="_top" xlink:title=" ">
<polygon fill="white" stroke="#666666" points="24.46,-397.5 24.46,-509.5 145.46,-509.5 145.46,-397.5 24.46,-397.5"/>
<text text-anchor="middle" x="84.96" y="-497.5" font-family="Helvetica,sans-Serif" font-size="10.00">kepler::ASTNode&lt; T &gt;</text>
<polyline fill="none" stroke="#666666" points="24.46,-490.5 145.46,-490.5"/>
<text text-anchor="middle" x="84.96" y="-478.5" font-family="Helvetica,sans-Serif" font-size="10.00"> </text>
<polyline fill="none" stroke="#666666" points="24.46,-471.5 145.46,-471.5"/>
<text text-anchor="start" x="32.46" y="-459.5" font-family="Helvetica,sans-Serif" font-size="10.00">+ virtual ~ASTNode()</text>
<text text-anchor="start" x="32.46" y="-448.5" font-family="Helvetica,sans-Serif" font-size="10.00">=default</text>
<text text-anchor="start" x="32.46" y="-437.5" font-family="Helvetica,sans-Serif" font-size="10.00">+ virtual T accept(class</text>
<text text-anchor="start" x="32.46" y="-426.5" font-family="Helvetica,sans-Serif" font-size="10.00"> NodeVisitor &amp;visitor)=0</text>
<text text-anchor="start" x="32.46" y="-415.5" font-family="Helvetica,sans-Serif" font-size="10.00">+ virtual std::string</text>
<text text-anchor="start" x="32.46" y="-404.5" font-family="Helvetica,sans-Serif" font-size="10.00"> to_string() const =0</text>
</a>
</g>
</g>
<!-- Node3&#45;&gt;Node4 -->
<g id="edge4" class="edge">
<title>Node3&#45;&gt;Node4</title>
<path fill="none" stroke="#63b8ff" d="M84.96,-568.06C84.96,-548.78 84.96,-527.95 84.96,-509.46"/>
<polygon fill="none" stroke="#63b8ff" points="81.46,-568 84.96,-578 88.46,-568 81.46,-568"/>
</g>
<!-- Node5 -->
<g id="node5" class="node">
<title>Node5</title>
<g id="a_node5"><a xlink:href="structkepler_1_1_token.html" target="_top" xlink:title=" ">
<polygon fill="white" stroke="#666666" points="163.46,-375.5 163.46,-531.5 308.46,-531.5 308.46,-375.5 163.46,-375.5"/>
<text text-anchor="middle" x="235.96" y="-519.5" font-family="Helvetica,sans-Serif" font-size="10.00">kepler::Token</text>
<polyline fill="none" stroke="#666666" points="163.46,-512.5 308.46,-512.5"/>
<text text-anchor="middle" x="235.96" y="-500.5" font-family="Helvetica,sans-Serif" font-size="10.00"> </text>
<polyline fill="none" stroke="#666666" points="163.46,-493.5 308.46,-493.5"/>
<text text-anchor="start" x="171.46" y="-481.5" font-family="Helvetica,sans-Serif" font-size="10.00">+ Token(long pos, TokenType</text>
<text text-anchor="start" x="171.46" y="-470.5" font-family="Helvetica,sans-Serif" font-size="10.00"> type_, Char content_)</text>
<text text-anchor="start" x="171.46" y="-459.5" font-family="Helvetica,sans-Serif" font-size="10.00">+ Token(long pos, TokenType</text>
<text text-anchor="start" x="171.46" y="-448.5" font-family="Helvetica,sans-Serif" font-size="10.00"> type_, String content_)</text>
<text text-anchor="start" x="171.46" y="-437.5" font-family="Helvetica,sans-Serif" font-size="10.00">+ Token(TokenType type</text>
<text text-anchor="start" x="171.46" y="-426.5" font-family="Helvetica,sans-Serif" font-size="10.00">_, String content_)</text>
<text text-anchor="start" x="171.46" y="-415.5" font-family="Helvetica,sans-Serif" font-size="10.00">+ Token(long pos, TokenType</text>
<text text-anchor="start" x="171.46" y="-404.5" font-family="Helvetica,sans-Serif" font-size="10.00"> type_)</text>
<text text-anchor="start" x="171.46" y="-393.5" font-family="Helvetica,sans-Serif" font-size="10.00">+ std::string to_string</text>
<text text-anchor="start" x="171.46" y="-382.5" font-family="Helvetica,sans-Serif" font-size="10.00">() const</text>
</a>
</g>
</g>
<!-- Node3&#45;&gt;Node5 -->
<g id="edge6" class="edge">
<title>Node3&#45;&gt;Node5</title>
<path fill="none" stroke="#63b8ff" d="M138.38,-570.81C149.09,-558.05 160.45,-544.5 171.49,-531.35"/>
<polygon fill="none" stroke="#63b8ff" points="135.8,-568.45 132.06,-578.36 141.17,-572.94 135.8,-568.45"/>
</g>
<!-- Node4&#45;&gt;Node2 -->
<g id="edge3" class="edge">
<title>Node4&#45;&gt;Node2</title>
<path fill="none" stroke="orange" d="M84.96,-386.19C84.96,-367.11 84.96,-346.3 84.96,-327.25"/>
<polygon fill="orange" stroke="orange" points="81.46,-386 84.96,-396 88.46,-386 81.46,-386"/>
<text text-anchor="middle" x="124.96" y="-349" font-family="Helvetica,sans-Serif" font-size="10.00"> &lt; Operation_ptr &gt;</text>
</g>
<!-- Node5&#45;&gt;Node1 -->
<g id="edge5" class="edge">
<title>Node5&#45;&gt;Node1</title>
<path fill="none" stroke="#404040" d="M217.31,-375.77C204.1,-323.76 185.19,-253.71 164.96,-193 161.06,-181.3 156.65,-169.09 152.12,-157.12"/>
<polygon fill="none" stroke="#404040" points="152.19,-157.32 146.31,-153.15 147.89,-146.11 153.78,-150.28 152.19,-157.32"/>
<text text-anchor="middle" x="221.96" y="-258" font-family="Helvetica,sans-Serif" font-size="10.00"> +token</text>
</g>
<!-- Node6 -->
<g id="node6" class="node">
<title>Node6</title>
<g id="a_node6"><a xlink:title=" ">
<polygon fill="white" stroke="#666666" points="182.96,-607 182.96,-664 246.96,-664 246.96,-607 182.96,-607"/>
<text text-anchor="middle" x="214.96" y="-652" font-family="Helvetica,sans-Serif" font-size="10.00">TokenType</text>
<polyline fill="none" stroke="#666666" points="182.96,-645 246.96,-645"/>
<text text-anchor="middle" x="214.96" y="-633" font-family="Helvetica,sans-Serif" font-size="10.00"> </text>
<polyline fill="none" stroke="#666666" points="182.96,-626 246.96,-626"/>
<text text-anchor="middle" x="214.96" y="-614" font-family="Helvetica,sans-Serif" font-size="10.00"> </text>
</a>
</g>
</g>
<!-- Node6&#45;&gt;Node5 -->
<g id="edge7" class="edge">
<title>Node6&#45;&gt;Node5</title>
<path fill="none" stroke="#404040" d="M218.15,-607.16C220.14,-590.07 222.84,-566.99 225.52,-543.95"/>
<polygon fill="none" stroke="#404040" points="225.52,-544.01 222.24,-537.59 226.91,-532.09 230.18,-538.52 225.52,-544.01"/>
<text text-anchor="middle" x="238.96" y="-553" font-family="Helvetica,sans-Serif" font-size="10.00"> +type</text>
</g>
<!-- Node7 -->
<g id="node7" class="node">
<title>Node7</title>
<g id="a_node7"><a xlink:title=" ">
<polygon fill="white" stroke="#666666" points="264.96,-601.5 264.96,-669.5 370.96,-669.5 370.96,-601.5 264.96,-601.5"/>
<text text-anchor="start" x="272.96" y="-657.5" font-family="Helvetica,sans-Serif" font-size="10.00">optional&lt; std::vector</text>
<text text-anchor="middle" x="317.96" y="-646.5" font-family="Helvetica,sans-Serif" font-size="10.00">&lt; Char &gt; &gt;</text>
<polyline fill="none" stroke="#666666" points="264.96,-639.5 370.96,-639.5"/>
<text text-anchor="middle" x="317.96" y="-627.5" font-family="Helvetica,sans-Serif" font-size="10.00"> </text>
<polyline fill="none" stroke="#666666" points="264.96,-620.5 370.96,-620.5"/>
<text text-anchor="middle" x="317.96" y="-608.5" font-family="Helvetica,sans-Serif" font-size="10.00"> </text>
</a>
</g>
</g>
<!-- Node7&#45;&gt;Node5 -->
<g id="edge8" class="edge">
<title>Node7&#45;&gt;Node5</title>
<path fill="none" stroke="#404040" d="M303.11,-601.9C295.52,-585.23 285.87,-564.06 276.27,-542.99"/>
<polygon fill="none" stroke="#404040" points="276.31,-543.07 270.18,-539.27 271.33,-532.15 277.46,-535.95 276.31,-543.07"/>
<text text-anchor="middle" x="305.96" y="-553" font-family="Helvetica,sans-Serif" font-size="10.00"> +content</text>
</g>
</g>
</svg>
