<?xml version="1.0" encoding="UTF-8" standalone="no"?>
<!DOCTYPE svg PUBLIC "-//W3C//DTD SVG 1.1//EN"
 "http://www.w3.org/Graphics/SVG/1.1/DTD/svg11.dtd">
<!-- Generated by graphviz version 7.1.0 (20230121.1956)
 -->
<!-- Title: kepler::CircleStile::operator() Pages: 1 -->
<!--zoomable 341 -->
<svg id="main" version="1.1" xmlns="http://www.w3.org/2000/svg" xmlns:xlink="http://www.w3.org/1999/xlink" xml:space="preserve" onload="init(evt)">
<style type="text/css"><![CDATA[
.edge:hover path { stroke: red; }
.edge:hover polygon { stroke: red; fill: red; }
]]></style>
<script type="text/javascript"><![CDATA[
var edges = document.getElementsByTagName('g');
if (edges && edges.length) {
  for (var i=0;i<edges.length;i++) {
    if (edges[i].id.substr(0,4)=='edge') {
      edges[i].setAttribute('class','edge');
    }
  }
}
]]></script>
        <defs>
                <circle id="rim" cx="0" cy="0" r="7"/>
                <circle id="rim2" cx="0" cy="0" r="3.5"/>
                <g id="zoomPlus">
                        <use xlink:href="#rim" fill="#404040">
                                <set attributeName="fill" to="#808080" begin="zoomplus.mouseover" end="zoomplus.mouseout"/>
                        </use>
                        <path d="M-4,0h8M0,-4v8" fill="none" stroke="white" stroke-width="1.5" pointer-events="none"/>
                </g>
                <g id="zoomMin">
                        <use xlink:href="#rim" fill="#404040">
                                <set attributeName="fill" to="#808080" begin="zoomminus.mouseover" end="zoomminus.mouseout"/>
                        </use>
                        <path d="M-4,0h8" fill="none" stroke="white" stroke-width="1.5" pointer-events="none"/>
                </g>
                <g id="dirArrow">
                        <path fill="none" stroke="white" stroke-width="1.5" d="M0,-3.0v7 M-2.5,-0.5L0,-3.0L2.5,-0.5"/>
                </g>
               <g id="resetDef">
                       <use xlink:href="#rim2" fill="#404040">
                               <set attributeName="fill" to="#808080" begin="reset.mouseover" end="reset.mouseout"/>
                       </use>
               </g>
        </defs>

<script type="text/javascript">
var viewWidth = 721;
var viewHeight = 341;
var sectionId = 'dynsection-2';
</script>
<script xlink:href="svgpan.js"/>
<svg id="graph" class="graph">
<g id="viewport">
<title>kepler::CircleStile::operator()</title>
<!-- Node1 -->
<g id="node1" class="node">
<title>Node1</title>
<g id="a_node1"><a xlink:title=" ">
<polygon fill="#999999" stroke="#666666" points="94,-232.5 0,-232.5 0,-202.5 94,-202.5 94,-232.5"/>
<text text-anchor="start" x="8" y="-220.5" font-family="Helvetica,sans-Serif" font-size="10.00">kepler::CircleStile</text>
<text text-anchor="middle" x="47" y="-209.5" font-family="Helvetica,sans-Serif" font-size="10.00">::operator()</text>
</a>
</g>
</g>
<!-- Node2 -->
<g id="node2" class="node">
<title>Node2</title>
<g id="a_node2"><a xlink:href="structkepler_1_1_array.html#aeba04f1c5287e3e0cbbefa7db410267d" target="_top" xlink:title=" ">
<polygon fill="white" stroke="#666666" points="252.5,-332.5 132.5,-332.5 132.5,-302.5 252.5,-302.5 252.5,-332.5"/>
<text text-anchor="start" x="140.5" y="-320.5" font-family="Helvetica,sans-Serif" font-size="10.00">kepler::Array::is_integer</text>
<text text-anchor="middle" x="192.5" y="-309.5" font-family="Helvetica,sans-Serif" font-size="10.00">_numeric</text>
</a>
</g>
</g>
<!-- Node1&#45;&gt;Node2 -->
<g id="edge1" class="edge">
<title>Node1&#45;&gt;Node2</title>
<path fill="none" stroke="#63b8ff" d="M61.15,-232.73C76.32,-249.51 102.7,-276.39 130,-293.5 131.97,-294.74 134.02,-295.93 136.12,-297.07"/>
<polygon fill="#63b8ff" stroke="#63b8ff" points="134.34,-300.1 144.85,-301.42 137.46,-293.83 134.34,-300.1"/>
</g>
<!-- Node3 -->
<g id="node3" class="node">
<title>Node3</title>
<g id="a_node3"><a xlink:href="structkepler_1_1_array.html#add830056588269ea267c11f89b14f774" target="_top" xlink:title=" ">
<polygon fill="white" stroke="#666666" points="255,-284 130,-284 130,-265 255,-265 255,-284"/>
<text text-anchor="middle" x="192.5" y="-272" font-family="Helvetica,sans-Serif" font-size="10.00">kepler::Array::is_numeric</text>
</a>
</g>
</g>
<!-- Node1&#45;&gt;Node3 -->
<g id="edge2" class="edge">
<title>Node1&#45;&gt;Node3</title>
<path fill="none" stroke="#63b8ff" d="M85.93,-232.86C99.79,-238.45 115.59,-244.79 130,-250.5 138.15,-253.73 146.92,-257.17 155.21,-260.41"/>
<polygon fill="#63b8ff" stroke="#63b8ff" points="153.74,-263.6 164.33,-263.97 156.29,-257.07 153.74,-263.6"/>
</g>
<!-- Node4 -->
<g id="node4" class="node">
<title>Node4</title>
<g id="a_node4"><a xlink:href="structkepler_1_1_array.html#ae82484749f93ec527be3eff64ddf3d37" target="_top" xlink:title=" ">
<polygon fill="white" stroke="#666666" points="713,-243 596,-243 596,-224 713,-224 713,-243"/>
<text text-anchor="middle" x="654.5" y="-231" font-family="Helvetica,sans-Serif" font-size="10.00">kepler::Array::is_scalar</text>
</a>
</g>
</g>
<!-- Node1&#45;&gt;Node4 -->
<g id="edge3" class="edge">
<title>Node1&#45;&gt;Node4</title>
<path fill="none" stroke="#63b8ff" d="M94.39,-220.65C106.01,-221.35 118.46,-222.03 130,-222.5 292.73,-229.17 484.08,-231.89 584.3,-232.92"/>
<polygon fill="#63b8ff" stroke="#63b8ff" points="584.22,-236.42 594.25,-233.02 584.29,-229.42 584.22,-236.42"/>
</g>
<!-- Node5 -->
<g id="node5" class="node">
<title>Node5</title>
<g id="a_node5"><a xlink:href="structkepler_1_1_array.html#a31e9d1137447bf3402d6278c41569f5e" target="_top" xlink:title=" ">
<polygon fill="white" stroke="#666666" points="560,-208.5 441,-208.5 441,-178.5 560,-178.5 560,-208.5"/>
<text text-anchor="start" x="449" y="-196.5" font-family="Helvetica,sans-Serif" font-size="10.00">kepler::Array::is_simple</text>
<text text-anchor="middle" x="500.5" y="-185.5" font-family="Helvetica,sans-Serif" font-size="10.00">_scalar</text>
</a>
</g>
</g>
<!-- Node1&#45;&gt;Node5 -->
<g id="edge4" class="edge">
<title>Node1&#45;&gt;Node5</title>
<path fill="none" stroke="#63b8ff" d="M94.2,-215.04C173.49,-210.83 335.93,-202.19 429.3,-197.23"/>
<polygon fill="#63b8ff" stroke="#63b8ff" points="429.3,-200.74 439.1,-196.71 428.93,-193.75 429.3,-200.74"/>
</g>
<!-- Node7 -->
<g id="node7" class="node">
<title>Node7</title>
<g id="a_node7"><a xlink:href="namespacekepler.html#a2e0061e6ccc074df0dabcaf61f4517b8" target="_top" xlink:title=" ">
<polygon fill="white" stroke="#666666" points="229.5,-95 155.5,-95 155.5,-76 229.5,-76 229.5,-95"/>
<text text-anchor="middle" x="192.5" y="-83" font-family="Helvetica,sans-Serif" font-size="10.00">kepler::rotate</text>
</a>
</g>
</g>
<!-- Node1&#45;&gt;Node7 -->
<g id="edge7" class="edge">
<title>Node1&#45;&gt;Node7</title>
<path fill="none" stroke="#63b8ff" d="M64.74,-202.1C91.69,-177.31 144.53,-128.71 172.72,-102.77"/>
<polygon fill="#63b8ff" stroke="#63b8ff" points="174.84,-105.58 179.83,-96.23 170.1,-100.43 174.84,-105.58"/>
</g>
<!-- Node11 -->
<g id="node11" class="node">
<title>Node11</title>
<g id="a_node11"><a xlink:href="structkepler_1_1_array.html#a98194b5409eace27b9eae7dcac74e350" target="_top" xlink:title=" ">
<polygon fill="white" stroke="#666666" points="548.5,-132 452.5,-132 452.5,-113 548.5,-113 548.5,-132"/>
<text text-anchor="middle" x="500.5" y="-120" font-family="Helvetica,sans-Serif" font-size="10.00">kepler::Array::size</text>
</a>
</g>
</g>
<!-- Node1&#45;&gt;Node11 -->
<g id="edge15" class="edge">
<title>Node1&#45;&gt;Node11</title>
<path fill="none" stroke="#63b8ff" d="M94.2,-207.78C176.85,-190.39 349.88,-153.98 440.81,-134.85"/>
<polygon fill="#63b8ff" stroke="#63b8ff" points="441.47,-138.29 450.53,-132.8 440.03,-131.44 441.47,-138.29"/>
</g>
<!-- Node5&#45;&gt;Node4 -->
<g id="edge6" class="edge">
<title>Node5&#45;&gt;Node4</title>
<path fill="none" stroke="#63b8ff" d="M560.27,-208.97C574.9,-212.82 590.43,-216.9 604.54,-220.62"/>
<polygon fill="#63b8ff" stroke="#63b8ff" points="603.48,-223.95 614.04,-223.12 605.26,-217.19 603.48,-223.95"/>
</g>
<!-- Node6 -->
<g id="node6" class="node">
<title>Node6</title>
<g id="a_node6"><a xlink:href="structkepler_1_1_array.html#a9d4e4ca37cd263142d76ca0a56346991" target="_top" xlink:title=" ">
<polygon fill="white" stroke="#666666" points="707,-203 602,-203 602,-184 707,-184 707,-203"/>
<text text-anchor="middle" x="654.5" y="-191" font-family="Helvetica,sans-Serif" font-size="10.00">kepler::Array::empty</text>
</a>
</g>
</g>
<!-- Node5&#45;&gt;Node6 -->
<g id="edge5" class="edge">
<title>Node5&#45;&gt;Node6</title>
<path fill="none" stroke="#63b8ff" d="M560.27,-193.5C570.11,-193.5 580.37,-193.5 590.32,-193.5"/>
<polygon fill="#63b8ff" stroke="#63b8ff" points="590.31,-197 600.31,-193.5 590.31,-190 590.31,-197"/>
</g>
<!-- Node8 -->
<g id="node8" class="node">
<title>Node8</title>
<g id="a_node8"><a xlink:href="namespacekepler.html#a56130004ed10dae55c0a8695f9d8ab37" target="_top" xlink:title=" ">
<polygon fill="white" stroke="#666666" points="405,-19 291,-19 291,0 405,0 405,-19"/>
<text text-anchor="middle" x="348" y="-7" font-family="Helvetica,sans-Serif" font-size="10.00">kepler::get_block_size</text>
</a>
</g>
</g>
<!-- Node7&#45;&gt;Node8 -->
<g id="edge8" class="edge">
<title>Node7&#45;&gt;Node8</title>
<path fill="none" stroke="#63b8ff" d="M210.88,-75.65C230.21,-64.84 262.46,-47.19 291,-33.5 297.86,-30.21 305.28,-26.88 312.41,-23.78"/>
<polygon fill="#63b8ff" stroke="#63b8ff" points="313.33,-27.19 321.15,-20.04 310.58,-20.76 313.33,-27.19"/>
</g>
<!-- Node10 -->
<g id="node10" class="node">
<title>Node10</title>
<g id="a_node10"><a xlink:href="namespacekepler.html#a172b41eba4b6d1c9af75f4d5a853d35f" target="_top" xlink:title=" ">
<polygon fill="white" stroke="#666666" points="391,-132 305,-132 305,-113 391,-113 391,-132"/>
<text text-anchor="middle" x="348" y="-120" font-family="Helvetica,sans-Serif" font-size="10.00">kepler::get_shift</text>
</a>
</g>
</g>
<!-- Node7&#45;&gt;Node10 -->
<g id="edge10" class="edge">
<title>Node7&#45;&gt;Node10</title>
<path fill="none" stroke="#63b8ff" d="M229.88,-94.27C249.19,-98.92 273.27,-104.73 294.57,-109.86"/>
<polygon fill="#63b8ff" stroke="#63b8ff" points="293.72,-113.26 304.27,-112.2 295.36,-106.45 293.72,-113.26"/>
</g>
<!-- Node7&#45;&gt;Node11 -->
<g id="edge14" class="edge">
<title>Node7&#45;&gt;Node11</title>
<path fill="none" stroke="#63b8ff" d="M227.47,-75.53C269.8,-64.71 343.98,-51.04 405,-67.5 432.37,-74.89 459.97,-92.37 478.21,-105.66"/>
<polygon fill="#63b8ff" stroke="#63b8ff" points="476.02,-108.39 486.11,-111.61 480.23,-102.8 476.02,-108.39"/>
</g>
<!-- Node12 -->
<g id="node12" class="node">
<title>Node12</title>
<g id="a_node12"><a xlink:href="namespacekepler.html#a8cec7c445b114ae66fe0c31d6746e7fb" target="_top" xlink:title=" ">
<polygon fill="white" stroke="#666666" points="403,-95 293,-95 293,-76 403,-76 403,-95"/>
<text text-anchor="middle" x="348" y="-83" font-family="Helvetica,sans-Serif" font-size="10.00">kepler::get_step_size</text>
</a>
</g>
</g>
<!-- Node7&#45;&gt;Node12 -->
<g id="edge13" class="edge">
<title>Node7&#45;&gt;Node12</title>
<path fill="none" stroke="#63b8ff" d="M229.88,-85.5C245.22,-85.5 263.58,-85.5 281.15,-85.5"/>
<polygon fill="#63b8ff" stroke="#63b8ff" points="281.04,-89 291.04,-85.5 281.04,-82 281.04,-89"/>
</g>
<!-- Node9 -->
<g id="node9" class="node">
<title>Node9</title>
<g id="a_node9"><a xlink:href="namespacekepler.html#aec3e7febe28a0cbe1f4ddefd7fd6349c" target="_top" xlink:title=" ">
<polygon fill="white" stroke="#666666" points="544.5,-19 456.5,-19 456.5,0 544.5,0 544.5,-19"/>
<text text-anchor="middle" x="500.5" y="-7" font-family="Helvetica,sans-Serif" font-size="10.00">kepler::vec_size</text>
</a>
</g>
</g>
<!-- Node8&#45;&gt;Node9 -->
<g id="edge9" class="edge">
<title>Node8&#45;&gt;Node9</title>
<path fill="none" stroke="#63b8ff" d="M405.47,-9.5C418.37,-9.5 432.05,-9.5 444.88,-9.5"/>
<polygon fill="#63b8ff" stroke="#63b8ff" points="444.85,-13 454.85,-9.5 444.84,-6 444.85,-13"/>
</g>
<!-- Node10&#45;&gt;Node5 -->
<g id="edge11" class="edge">
<title>Node10&#45;&gt;Node5</title>
<path fill="none" stroke="#63b8ff" d="M369.93,-132.37C392.3,-142.93 428.39,-159.95 456.8,-173.36"/>
<polygon fill="#63b8ff" stroke="#63b8ff" points="454.98,-176.37 465.52,-177.47 457.96,-170.04 454.98,-176.37"/>
</g>
<!-- Node10&#45;&gt;Node11 -->
<g id="edge12" class="edge">
<title>Node10&#45;&gt;Node11</title>
<path fill="none" stroke="#63b8ff" d="M391.32,-122.5C406.72,-122.5 424.41,-122.5 440.97,-122.5"/>
<polygon fill="#63b8ff" stroke="#63b8ff" points="440.69,-126 450.69,-122.5 440.69,-119 440.69,-126"/>
</g>
</g>
</svg>
        <g id="navigator" transform="translate(0 0)" fill="#404254">
                <rect fill="#f2f5e9" fill-opacity="0.5" stroke="#606060" stroke-width=".5" x="0" y="0" width="60" height="60"/>
                <use id="zoomplus" xlink:href="#zoomPlus" x="17" y="9" onmousedown="handleZoom(evt,'in')"/>
                <use id="zoomminus" xlink:href="#zoomMin" x="42" y="9" onmousedown="handleZoom(evt,'out')"/>
                <use id="reset" xlink:href="#resetDef" x="30" y="36" onmousedown="handleReset()"/>
                <g id="arrowUp" xlink:href="#dirArrow" transform="translate(30 24)" onmousedown="handlePan(0,-1)">
                  <use xlink:href="#rim" fill="#404040">
                        <set attributeName="fill" to="#808080" begin="arrowUp.mouseover" end="arrowUp.mouseout"/>
                  </use>
                  <path fill="none" stroke="white" stroke-width="1.5" d="M0,-3.0v7 M-2.5,-0.5L0,-3.0L2.5,-0.5"/>
                </g>
                <g id="arrowRight" xlink:href="#dirArrow" transform="rotate(90) translate(36 -43)" onmousedown="handlePan(1,0)">
                  <use xlink:href="#rim" fill="#404040">
                        <set attributeName="fill" to="#808080" begin="arrowRight.mouseover" end="arrowRight.mouseout"/>
                  </use>
                  <path fill="none" stroke="white" stroke-width="1.5" d="M0,-3.0v7 M-2.5,-0.5L0,-3.0L2.5,-0.5"/>
                </g>
                <g id="arrowDown" xlink:href="#dirArrow" transform="rotate(180) translate(-30 -48)" onmousedown="handlePan(0,1)">
                  <use xlink:href="#rim" fill="#404040">
                        <set attributeName="fill" to="#808080" begin="arrowDown.mouseover" end="arrowDown.mouseout"/>
                  </use>
                  <path fill="none" stroke="white" stroke-width="1.5" d="M0,-3.0v7 M-2.5,-0.5L0,-3.0L2.5,-0.5"/>
                </g>
                <g id="arrowLeft" xlink:href="#dirArrow" transform="rotate(270) translate(-36 17)" onmousedown="handlePan(-1,0)">
                  <use xlink:href="#rim" fill="#404040">
                        <set attributeName="fill" to="#808080" begin="arrowLeft.mouseover" end="arrowLeft.mouseout"/>
                  </use>
                  <path fill="none" stroke="white" stroke-width="1.5" d="M0,-3.0v7 M-2.5,-0.5L0,-3.0L2.5,-0.5"/>
                </g>
        </g>
        <svg viewBox="0 0 15 15" width="100%" height="30px" preserveAspectRatio="xMaxYMin meet">
         <g id="arrow_out" transform="scale(0.3 0.3)">
          <a xlink:href="structkepler_1_1_circle_stile_a29677d4fd43e1db4bacaddc636efa189_cgraph_org.svg" target="_base">
           <rect id="button" ry="5" rx="5" y="6" x="6" height="38" width="38"
                fill="#f2f5e9" fill-opacity="0.5" stroke="#606060" stroke-width="1.0"/>
           <path id="arrow"
             d="M 11.500037,31.436501 C 11.940474,20.09759 22.043105,11.32322 32.158766,21.979434 L 37.068811,17.246167 C 37.068811,17.246167 37.088388,32 37.088388,32 L 22.160133,31.978069 C 22.160133,31.978069 26.997745,27.140456 26.997745,27.140456 C 18.528582,18.264221 13.291696,25.230495 11.500037,31.436501 z"
             style="fill:#404040;"/>
          </a>
         </g>
        </svg>
</svg>
