<?xml version="1.0" encoding="UTF-8" standalone="no"?>
<!DOCTYPE svg PUBLIC "-//W3C//DTD SVG 1.1//EN"
 "http://www.w3.org/Graphics/SVG/1.1/DTD/svg11.dtd">
<!-- Generated by graphviz version 7.1.0 (20230121.1956)
 -->
<!-- Title: kepler::FunctionAssignment::to_string Pages: 1 -->
<svg width="423pt" height="76pt"
 viewBox="0.00 0.00 423.00 75.50" xmlns="http://www.w3.org/2000/svg" xmlns:xlink="http://www.w3.org/1999/xlink">
<g id="graph0" class="graph" transform="scale(1 1) rotate(0) translate(4 71.5)">
<title>kepler::FunctionAssignment::to_string</title>
<!-- Node1 -->
<g id="node1" class="node">
<title>Node1</title>
<g id="a_node1"><a xlink:title=" ">
<polygon fill="#999999" stroke="#666666" points="138,-51 0,-51 0,-21 138,-21 138,-51"/>
<text text-anchor="start" x="8" y="-39" font-family="Helvetica,sans-Serif" font-size="10.00">kepler::FunctionAssignment</text>
<text text-anchor="middle" x="69" y="-28" font-family="Helvetica,sans-Serif" font-size="10.00">::to_string</text>
</a>
</g>
</g>
<!-- Node2 -->
<g id="node2" class="node">
<title>Node2</title>
<g id="a_node2"><a xlink:href="structkepler_1_1_token.html#aa138d51909b8ce9e3435d7ba9864e6be" target="_top" xlink:title=" ">
<polygon fill="white" stroke="#666666" points="293,-67.5 174,-67.5 174,-48.5 293,-48.5 293,-67.5"/>
<text text-anchor="middle" x="233.5" y="-55.5" font-family="Helvetica,sans-Serif" font-size="10.00">kepler::Token::to_string</text>
</a>
</g>
</g>
<!-- Node1&#45;&gt;Node2 -->
<g id="edge1" class="edge">
<title>Node1&#45;&gt;Node2</title>
<path fill="none" stroke="#63b8ff" d="M138.44,-45.27C146.4,-46.34 154.53,-47.44 162.51,-48.52"/>
<polygon fill="#63b8ff" stroke="#63b8ff" points="161.78,-51.96 172.16,-49.83 162.72,-45.02 161.78,-51.96"/>
</g>
<!-- Node4 -->
<g id="node4" class="node">
<title>Node4</title>
<g id="a_node4"><a xlink:href="structkepler_1_1_a_s_t_node.html#a0824700896d42c783deaacfde0d94ba8" target="_top" xlink:title=" ">
<polygon fill="white" stroke="#666666" points="286.5,-30 180.5,-30 180.5,0 286.5,0 286.5,-30"/>
<text text-anchor="start" x="188.5" y="-18" font-family="Helvetica,sans-Serif" font-size="10.00">kepler::ASTNode::to</text>
<text text-anchor="middle" x="233.5" y="-7" font-family="Helvetica,sans-Serif" font-size="10.00">_string</text>
</a>
</g>
</g>
<!-- Node1&#45;&gt;Node4 -->
<g id="edge3" class="edge">
<title>Node1&#45;&gt;Node4</title>
<path fill="none" stroke="#63b8ff" d="M138.44,-27.15C148.65,-25.84 159.14,-24.48 169.24,-23.18"/>
<polygon fill="#63b8ff" stroke="#63b8ff" points="169.46,-26.68 178.93,-21.92 168.57,-19.73 169.46,-26.68"/>
</g>
<!-- Node3 -->
<g id="node3" class="node">
<title>Node3</title>
<g id="a_node3"><a xlink:href="namespacekepler.html#a76d95d0e078e053088ec440c6e878ab3" target="_top" xlink:title=" ">
<polygon fill="white" stroke="#666666" points="415,-67.5 329,-67.5 329,-48.5 415,-48.5 415,-67.5"/>
<text text-anchor="middle" x="372" y="-55.5" font-family="Helvetica,sans-Serif" font-size="10.00">kepler::to_string</text>
</a>
</g>
</g>
<!-- Node2&#45;&gt;Node3 -->
<g id="edge2" class="edge">
<title>Node2&#45;&gt;Node3</title>
<path fill="none" stroke="#63b8ff" d="M293.18,-58C301.24,-58 309.48,-58 317.44,-58"/>
<polygon fill="#63b8ff" stroke="#63b8ff" points="317.34,-61.5 327.34,-58 317.34,-54.5 317.34,-61.5"/>
</g>
</g>
</svg>
