<?xml version="1.0" encoding="UTF-8" standalone="no"?>
<!DOCTYPE svg PUBLIC "-//W3C//DTD SVG 1.1//EN"
 "http://www.w3.org/Graphics/SVG/1.1/DTD/svg11.dtd">
<!-- Generated by graphviz version 7.1.0 (20230121.1956)
 -->
<!-- Title: kepler::OuterProduct::operator() Pages: 1 -->
<svg width="268pt" height="76pt"
 viewBox="0.00 0.00 268.00 75.50" xmlns="http://www.w3.org/2000/svg" xmlns:xlink="http://www.w3.org/1999/xlink">
<g id="graph0" class="graph" transform="scale(1 1) rotate(0) translate(4 71.5)">
<title>kepler::OuterProduct::operator()</title>
<!-- Node1 -->
<g id="node1" class="node">
<title>Node1</title>
<g id="a_node1"><a xlink:title=" ">
<polygon fill="#999999" stroke="#666666" points="107,-45.5 0,-45.5 0,-15.5 107,-15.5 107,-45.5"/>
<text text-anchor="start" x="8" y="-33.5" font-family="Helvetica,sans-Serif" font-size="10.00">kepler::OuterProduct</text>
<text text-anchor="middle" x="53.5" y="-22.5" font-family="Helvetica,sans-Serif" font-size="10.00">::operator()</text>
</a>
</g>
</g>
<!-- Node2 -->
<g id="node2" class="node">
<title>Node2</title>
<g id="a_node2"><a xlink:href="structkepler_1_1_array.html#a4469c88ae890d155a6f0c7b01a40fc8d" target="_top" xlink:title=" ">
<polygon fill="white" stroke="#666666" points="259.5,-67.5 143.5,-67.5 143.5,-37.5 259.5,-37.5 259.5,-67.5"/>
<text text-anchor="start" x="151.5" y="-55.5" font-family="Helvetica,sans-Serif" font-size="10.00">kepler::Array::flattened</text>
<text text-anchor="middle" x="201.5" y="-44.5" font-family="Helvetica,sans-Serif" font-size="10.00">_shape</text>
</a>
</g>
</g>
<!-- Node1&#45;&gt;Node2 -->
<g id="edge1" class="edge">
<title>Node1&#45;&gt;Node2</title>
<path fill="none" stroke="#63b8ff" d="M107.21,-38.44C115.3,-39.66 123.74,-40.93 132.11,-42.19"/>
<polygon fill="#63b8ff" stroke="#63b8ff" points="131.52,-45.64 141.93,-43.67 132.56,-38.72 131.52,-45.64"/>
</g>
<!-- Node3 -->
<g id="node3" class="node">
<title>Node3</title>
<g id="a_node3"><a xlink:href="structkepler_1_1_array.html#ae82484749f93ec527be3eff64ddf3d37" target="_top" xlink:title=" ">
<polygon fill="white" stroke="#666666" points="260,-19 143,-19 143,0 260,0 260,-19"/>
<text text-anchor="middle" x="201.5" y="-7" font-family="Helvetica,sans-Serif" font-size="10.00">kepler::Array::is_scalar</text>
</a>
</g>
</g>
<!-- Node1&#45;&gt;Node3 -->
<g id="edge2" class="edge">
<title>Node1&#45;&gt;Node3</title>
<path fill="none" stroke="#63b8ff" d="M107.21,-22.92C115.18,-21.77 123.51,-20.57 131.76,-19.39"/>
<polygon fill="#63b8ff" stroke="#63b8ff" points="132.03,-22.88 141.43,-18 131.03,-15.96 132.03,-22.88"/>
</g>
</g>
</svg>
