<?xml version="1.0" encoding="UTF-8" standalone="no"?>
<!DOCTYPE svg PUBLIC "-//W3C//DTD SVG 1.1//EN"
 "http://www.w3.org/Graphics/SVG/1.1/DTD/svg11.dtd">
<!-- Generated by graphviz version 7.1.0 (20230121.1956)
 -->
<!-- Title: kepler::Array::is_simple_scalar Pages: 1 -->
<svg width="539pt" height="225pt"
 viewBox="0.00 0.00 539.00 224.50" xmlns="http://www.w3.org/2000/svg" xmlns:xlink="http://www.w3.org/1999/xlink">
<g id="graph0" class="graph" transform="scale(1 1) rotate(0) translate(4 220.5)">
<title>kepler::Array::is_simple_scalar</title>
<!-- Node1 -->
<g id="node1" class="node">
<title>Node1</title>
<g id="a_node1"><a xlink:title=" ">
<polygon fill="#999999" stroke="#666666" points="531,-125.5 412,-125.5 412,-95.5 531,-95.5 531,-125.5"/>
<text text-anchor="start" x="420" y="-113.5" font-family="Helvetica,sans-Serif" font-size="10.00">kepler::Array::is_simple</text>
<text text-anchor="middle" x="471.5" y="-102.5" font-family="Helvetica,sans-Serif" font-size="10.00">_scalar</text>
</a>
</g>
</g>
<!-- Node2 -->
<g id="node2" class="node">
<title>Node2</title>
<g id="a_node2"><a xlink:href="namespacekepler.html#a39278d07695647da0a30c3b209c7a4d7" target="_top" xlink:title=" ">
<polygon fill="white" stroke="#666666" points="351.5,-180 265.5,-180 265.5,-161 351.5,-161 351.5,-180"/>
<text text-anchor="middle" x="308.5" y="-168" font-family="Helvetica,sans-Serif" font-size="10.00">kepler::get_shift</text>
</a>
</g>
</g>
<!-- Node1&#45;&gt;Node2 -->
<g id="edge1" class="edge">
<title>Node1&#45;&gt;Node2</title>
<path fill="none" stroke="#63b8ff" d="M419.98,-129.93C405.77,-135.35 390.3,-141.2 376,-146.5 363.34,-151.2 349.28,-156.29 337.37,-160.57"/>
<polygon fill="#63b8ff" stroke="#63b8ff" points="421.05,-133.27 429.14,-126.44 418.55,-126.73 421.05,-133.27"/>
</g>
<!-- Node4 -->
<g id="node4" class="node">
<title>Node4</title>
<g id="a_node4"><a xlink:href="structkepler_1_1_circle_bar.html#ad4d789ada13f9e9152417c8034abee01" target="_top" xlink:title=" ">
<polygon fill="white" stroke="#666666" points="95,-216.5 0,-216.5 0,-186.5 95,-186.5 95,-216.5"/>
<text text-anchor="start" x="8" y="-204.5" font-family="Helvetica,sans-Serif" font-size="10.00">kepler::CircleBar::</text>
<text text-anchor="middle" x="47.5" y="-193.5" font-family="Helvetica,sans-Serif" font-size="10.00">operator()</text>
</a>
</g>
</g>
<!-- Node1&#45;&gt;Node4 -->
<g id="edge5" class="edge">
<title>Node1&#45;&gt;Node4</title>
<path fill="none" stroke="#63b8ff" d="M450.11,-134.25C432.58,-152.79 405.51,-177.23 376,-188.5 281.65,-224.54 160.69,-216.85 95.38,-208.75"/>
<polygon fill="#63b8ff" stroke="#63b8ff" points="452.5,-136.82 456.67,-127.08 447.34,-132.1 452.5,-136.82"/>
</g>
<!-- Node5 -->
<g id="node5" class="node">
<title>Node5</title>
<g id="a_node5"><a xlink:href="structkepler_1_1_circle_stile.html#a29677d4fd43e1db4bacaddc636efa189" target="_top" xlink:title=" ">
<polygon fill="white" stroke="#666666" points="94.5,-161.5 0.5,-161.5 0.5,-131.5 94.5,-131.5 94.5,-161.5"/>
<text text-anchor="start" x="8.5" y="-149.5" font-family="Helvetica,sans-Serif" font-size="10.00">kepler::CircleStile</text>
<text text-anchor="middle" x="47.5" y="-138.5" font-family="Helvetica,sans-Serif" font-size="10.00">::operator()</text>
</a>
</g>
</g>
<!-- Node1&#45;&gt;Node5 -->
<g id="edge6" class="edge">
<title>Node1&#45;&gt;Node5</title>
<path fill="none" stroke="#63b8ff" d="M400.53,-116.47C313.96,-123.85 168.98,-136.22 95,-142.53"/>
<polygon fill="#63b8ff" stroke="#63b8ff" points="400.65,-119.97 410.31,-115.63 400.05,-113 400.65,-119.97"/>
</g>
<!-- Node6 -->
<g id="node6" class="node">
<title>Node6</title>
<g id="a_node6"><a xlink:href="structkepler_1_1_array_printer.html#a258d0cb2d48a33d2324f73e9e63a71f7" target="_top" xlink:title=" ">
<polygon fill="white" stroke="#666666" points="359,-104.5 258,-104.5 258,-74.5 359,-74.5 359,-104.5"/>
<text text-anchor="start" x="266" y="-92.5" font-family="Helvetica,sans-Serif" font-size="10.00">kepler::ArrayPrinter</text>
<text text-anchor="middle" x="308.5" y="-81.5" font-family="Helvetica,sans-Serif" font-size="10.00">::operator()</text>
</a>
</g>
</g>
<!-- Node1&#45;&gt;Node6 -->
<g id="edge7" class="edge">
<title>Node1&#45;&gt;Node6</title>
<path fill="none" stroke="#63b8ff" d="M400.83,-101.41C386.85,-99.59 372.43,-97.71 359.28,-95.99"/>
<polygon fill="#63b8ff" stroke="#63b8ff" points="400.05,-104.84 410.42,-102.66 400.96,-97.9 400.05,-104.84"/>
</g>
<!-- Node7 -->
<g id="node7" class="node">
<title>Node7</title>
<g id="a_node7"><a xlink:href="structkepler_1_1_power.html#a67d479325a5c7fe90d9d8c66f18f2625" target="_top" xlink:title=" ">
<polygon fill="white" stroke="#666666" points="370.5,-56 246.5,-56 246.5,-37 370.5,-37 370.5,-56"/>
<text text-anchor="middle" x="308.5" y="-44" font-family="Helvetica,sans-Serif" font-size="10.00">kepler::Power::operator()</text>
</a>
</g>
</g>
<!-- Node1&#45;&gt;Node7 -->
<g id="edge8" class="edge">
<title>Node1&#45;&gt;Node7</title>
<path fill="none" stroke="#63b8ff" d="M431.28,-90.02C414.52,-81.75 394.58,-72.52 376,-65.5 367.24,-62.19 357.64,-59.13 348.54,-56.48"/>
<polygon fill="#63b8ff" stroke="#63b8ff" points="429.39,-93 439.9,-94.35 432.53,-86.74 429.39,-93"/>
</g>
<!-- Node8 -->
<g id="node8" class="node">
<title>Node8</title>
<g id="a_node8"><a xlink:href="structkepler_1_1_left_shoe.html#a8e54fab10919256786409887381785f4" target="_top" xlink:title=" ">
<polygon fill="white" stroke="#666666" points="376,-19 241,-19 241,0 376,0 376,-19"/>
<text text-anchor="middle" x="308.5" y="-7" font-family="Helvetica,sans-Serif" font-size="10.00">kepler::LeftShoe::operator()</text>
</a>
</g>
</g>
<!-- Node1&#45;&gt;Node8 -->
<g id="edge9" class="edge">
<title>Node1&#45;&gt;Node8</title>
<path fill="none" stroke="#63b8ff" d="M449.61,-86.99C431.79,-68.3 404.57,-42.83 376,-27.5 370.1,-24.33 363.6,-21.69 357.04,-19.49"/>
<polygon fill="#63b8ff" stroke="#63b8ff" points="446.94,-89.25 456.31,-94.18 452.06,-84.48 446.94,-89.25"/>
</g>
<!-- Node3 -->
<g id="node3" class="node">
<title>Node3</title>
<g id="a_node3"><a xlink:href="namespacekepler.html#a2e0061e6ccc074df0dabcaf61f4517b8" target="_top" xlink:title=" ">
<polygon fill="white" stroke="#666666" points="205,-180 131,-180 131,-161 205,-161 205,-180"/>
<text text-anchor="middle" x="168" y="-168" font-family="Helvetica,sans-Serif" font-size="10.00">kepler::rotate</text>
</a>
</g>
</g>
<!-- Node2&#45;&gt;Node3 -->
<g id="edge2" class="edge">
<title>Node2&#45;&gt;Node3</title>
<path fill="none" stroke="#63b8ff" d="M253.69,-170.5C237.53,-170.5 220.19,-170.5 205.43,-170.5"/>
<polygon fill="#63b8ff" stroke="#63b8ff" points="253.68,-174 263.68,-170.5 253.68,-167 253.68,-174"/>
</g>
<!-- Node3&#45;&gt;Node4 -->
<g id="edge3" class="edge">
<title>Node3&#45;&gt;Node4</title>
<path fill="none" stroke="#63b8ff" d="M119.74,-182.86C111.73,-184.96 103.41,-187.13 95.41,-189.23"/>
<polygon fill="#63b8ff" stroke="#63b8ff" points="120.55,-186.27 129.34,-180.35 118.78,-179.5 120.55,-186.27"/>
</g>
<!-- Node3&#45;&gt;Node5 -->
<g id="edge4" class="edge">
<title>Node3&#45;&gt;Node5</title>
<path fill="none" stroke="#63b8ff" d="M119.6,-160.9C111.49,-159.26 103.07,-157.55 94.98,-155.91"/>
<polygon fill="#63b8ff" stroke="#63b8ff" points="118.82,-164.31 129.32,-162.87 120.21,-157.45 118.82,-164.31"/>
</g>
</g>
</svg>
