<?xml version="1.0" encoding="UTF-8" standalone="no"?>
<!DOCTYPE svg PUBLIC "-//W3C//DTD SVG 1.1//EN"
 "http://www.w3.org/Graphics/SVG/1.1/DTD/svg11.dtd">
<!-- Generated by graphviz version 7.1.0 (20230121.1956)
 -->
<!-- Title: kepler::Statements Pages: 1 -->
<!--zoomable 647 -->
<svg id="main" version="1.1" xmlns="http://www.w3.org/2000/svg" xmlns:xlink="http://www.w3.org/1999/xlink" xml:space="preserve" onload="init(evt)">
<style type="text/css"><![CDATA[
.edge:hover path { stroke: red; }
.edge:hover polygon { stroke: red; fill: red; }
]]></style>
<script type="text/javascript"><![CDATA[
var edges = document.getElementsByTagName('g');
if (edges && edges.length) {
  for (var i=0;i<edges.length;i++) {
    if (edges[i].id.substr(0,4)=='edge') {
      edges[i].setAttribute('class','edge');
    }
  }
}
]]></script>
        <defs>
                <circle id="rim" cx="0" cy="0" r="7"/>
                <circle id="rim2" cx="0" cy="0" r="3.5"/>
                <g id="zoomPlus">
                        <use xlink:href="#rim" fill="#404040">
                                <set attributeName="fill" to="#808080" begin="zoomplus.mouseover" end="zoomplus.mouseout"/>
                        </use>
                        <path d="M-4,0h8M0,-4v8" fill="none" stroke="white" stroke-width="1.5" pointer-events="none"/>
                </g>
                <g id="zoomMin">
                        <use xlink:href="#rim" fill="#404040">
                                <set attributeName="fill" to="#808080" begin="zoomminus.mouseover" end="zoomminus.mouseout"/>
                        </use>
                        <path d="M-4,0h8" fill="none" stroke="white" stroke-width="1.5" pointer-events="none"/>
                </g>
                <g id="dirArrow">
                        <path fill="none" stroke="white" stroke-width="1.5" d="M0,-3.0v7 M-2.5,-0.5L0,-3.0L2.5,-0.5"/>
                </g>
               <g id="resetDef">
                       <use xlink:href="#rim2" fill="#404040">
                               <set attributeName="fill" to="#808080" begin="reset.mouseover" end="reset.mouseout"/>
                       </use>
               </g>
        </defs>

<script type="text/javascript">
var viewWidth = 215;
var viewHeight = 647;
var sectionId = 'dynsection-0';
</script>
<script xlink:href="svgpan.js"/>
<svg id="graph" class="graph">
<g id="viewport">
<title>kepler::Statements</title>
<!-- Node1 -->
<g id="node1" class="node">
<title>Node1</title>
<g id="a_node1"><a xlink:title=" ">
<polygon fill="#999999" stroke="#666666" points="6.5,-0.5 6.5,-178.5 140.5,-178.5 140.5,-0.5 6.5,-0.5"/>
<text text-anchor="middle" x="73.5" y="-166.5" font-family="Helvetica,sans-Serif" font-size="10.00">kepler::Statements</text>
<polyline fill="none" stroke="#666666" points="6.5,-159.5 140.5,-159.5"/>
<text text-anchor="start" x="14.5" y="-147.5" font-family="Helvetica,sans-Serif" font-size="10.00">+ std::vector&lt; ASTNode</text>
<text text-anchor="start" x="14.5" y="-136.5" font-family="Helvetica,sans-Serif" font-size="10.00">&lt; Array &gt; * &gt; children</text>
<text text-anchor="start" x="14.5" y="-125.5" font-family="Helvetica,sans-Serif" font-size="10.00">+ SymbolTable * symbol</text>
<text text-anchor="start" x="14.5" y="-114.5" font-family="Helvetica,sans-Serif" font-size="10.00">_table</text>
<polyline fill="none" stroke="#666666" points="6.5,-107.5 140.5,-107.5"/>
<text text-anchor="start" x="14.5" y="-95.5" font-family="Helvetica,sans-Serif" font-size="10.00">+ ~Statements() override</text>
<text text-anchor="start" x="14.5" y="-84.5" font-family="Helvetica,sans-Serif" font-size="10.00">+ Statements(std::vector</text>
<text text-anchor="start" x="14.5" y="-73.5" font-family="Helvetica,sans-Serif" font-size="10.00">&lt; ASTNode&lt; Array &gt; * &gt;</text>
<text text-anchor="start" x="14.5" y="-62.5" font-family="Helvetica,sans-Serif" font-size="10.00"> children_, SymbolTable</text>
<text text-anchor="start" x="14.5" y="-51.5" font-family="Helvetica,sans-Serif" font-size="10.00"> *symbol_table)</text>
<text text-anchor="start" x="14.5" y="-40.5" font-family="Helvetica,sans-Serif" font-size="10.00">+ std::string to_string</text>
<text text-anchor="start" x="14.5" y="-29.5" font-family="Helvetica,sans-Serif" font-size="10.00">() const override</text>
<text text-anchor="start" x="14.5" y="-18.5" font-family="Helvetica,sans-Serif" font-size="10.00">+ Array accept(NodeVisitor</text>
<text text-anchor="start" x="14.5" y="-7.5" font-family="Helvetica,sans-Serif" font-size="10.00"> &amp;visitor) override</text>
</a>
</g>
</g>
<!-- Node2 -->
<g id="node2" class="node">
<title>Node2</title>
<g id="a_node2"><a xlink:href="structkepler_1_1_a_s_t_node.html" target="_top" xlink:title=" ">
<polygon fill="white" stroke="#666666" points="0,-216.5 0,-328.5 147,-328.5 147,-216.5 0,-216.5"/>
<text text-anchor="middle" x="73.5" y="-316.5" font-family="Helvetica,sans-Serif" font-size="10.00">kepler::ASTNode&lt; Array &gt;</text>
<polyline fill="none" stroke="#666666" points="0,-309.5 147,-309.5"/>
<text text-anchor="middle" x="73.5" y="-297.5" font-family="Helvetica,sans-Serif" font-size="10.00"> </text>
<polyline fill="none" stroke="#666666" points="0,-290.5 147,-290.5"/>
<text text-anchor="start" x="8" y="-278.5" font-family="Helvetica,sans-Serif" font-size="10.00">+ virtual ~ASTNode()</text>
<text text-anchor="start" x="8" y="-267.5" font-family="Helvetica,sans-Serif" font-size="10.00">=default</text>
<text text-anchor="start" x="8" y="-256.5" font-family="Helvetica,sans-Serif" font-size="10.00">+ virtual Array accept</text>
<text text-anchor="start" x="8" y="-245.5" font-family="Helvetica,sans-Serif" font-size="10.00">(class NodeVisitor &amp;visitor)=0</text>
<text text-anchor="start" x="8" y="-234.5" font-family="Helvetica,sans-Serif" font-size="10.00">+ virtual std::string</text>
<text text-anchor="start" x="8" y="-223.5" font-family="Helvetica,sans-Serif" font-size="10.00"> to_string() const=0</text>
</a>
</g>
</g>
<!-- Node2&#45;&gt;Node1 -->
<g id="edge1" class="edge">
<title>Node2&#45;&gt;Node1</title>
<path fill="none" stroke="#63b8ff" d="M73.5,-205.32C73.5,-196.49 73.5,-187.33 73.5,-178.21"/>
<polygon fill="none" stroke="#63b8ff" points="70,-205.19 73.5,-215.19 77,-205.19 70,-205.19"/>
</g>
<!-- Node3 -->
<g id="node3" class="node">
<title>Node3</title>
<g id="a_node3"><a xlink:href="structkepler_1_1position.html" target="_top" xlink:title=" ">
<polygon fill="white" stroke="#666666" points="9.5,-526.5 9.5,-638.5 129.5,-638.5 129.5,-526.5 9.5,-526.5"/>
<text text-anchor="middle" x="69.5" y="-626.5" font-family="Helvetica,sans-Serif" font-size="10.00">kepler::position</text>
<polyline fill="none" stroke="#666666" points="9.5,-619.5 129.5,-619.5"/>
<text text-anchor="middle" x="69.5" y="-607.5" font-family="Helvetica,sans-Serif" font-size="10.00"> </text>
<polyline fill="none" stroke="#666666" points="9.5,-600.5 129.5,-600.5"/>
<text text-anchor="start" x="17.5" y="-588.5" font-family="Helvetica,sans-Serif" font-size="10.00">+ position()</text>
<text text-anchor="start" x="17.5" y="-577.5" font-family="Helvetica,sans-Serif" font-size="10.00">+ position(long pos_)</text>
<text text-anchor="start" x="17.5" y="-566.5" font-family="Helvetica,sans-Serif" font-size="10.00">+ void set_position(long</text>
<text text-anchor="start" x="17.5" y="-555.5" font-family="Helvetica,sans-Serif" font-size="10.00"> new_pos)</text>
<text text-anchor="start" x="17.5" y="-544.5" font-family="Helvetica,sans-Serif" font-size="10.00">+ long get_position()</text>
<text text-anchor="start" x="17.5" y="-533.5" font-family="Helvetica,sans-Serif" font-size="10.00"> const</text>
</a>
</g>
</g>
<!-- Node3&#45;&gt;Node2 -->
<g id="edge2" class="edge">
<title>Node3&#45;&gt;Node2</title>
<path fill="none" stroke="#63b8ff" d="M70.36,-515.61C71.08,-459.86 72.11,-380.89 72.79,-328.48"/>
<polygon fill="none" stroke="#63b8ff" points="66.86,-515.23 70.23,-525.28 73.86,-515.32 66.86,-515.23"/>
</g>
<!-- Node4 -->
<g id="node4" class="node">
<title>Node4</title>
<g id="a_node4"><a xlink:href="structkepler_1_1_a_s_t_node.html" target="_top" xlink:title=" ">
<polygon fill="white" stroke="#666666" points="86,-376.5 86,-488.5 207,-488.5 207,-376.5 86,-376.5"/>
<text text-anchor="middle" x="146.5" y="-476.5" font-family="Helvetica,sans-Serif" font-size="10.00">kepler::ASTNode&lt; T &gt;</text>
<polyline fill="none" stroke="#666666" points="86,-469.5 207,-469.5"/>
<text text-anchor="middle" x="146.5" y="-457.5" font-family="Helvetica,sans-Serif" font-size="10.00"> </text>
<polyline fill="none" stroke="#666666" points="86,-450.5 207,-450.5"/>
<text text-anchor="start" x="94" y="-438.5" font-family="Helvetica,sans-Serif" font-size="10.00">+ virtual ~ASTNode()</text>
<text text-anchor="start" x="94" y="-427.5" font-family="Helvetica,sans-Serif" font-size="10.00">=default</text>
<text text-anchor="start" x="94" y="-416.5" font-family="Helvetica,sans-Serif" font-size="10.00">+ virtual T accept(class</text>
<text text-anchor="start" x="94" y="-405.5" font-family="Helvetica,sans-Serif" font-size="10.00"> NodeVisitor &amp;visitor)=0</text>
<text text-anchor="start" x="94" y="-394.5" font-family="Helvetica,sans-Serif" font-size="10.00">+ virtual std::string</text>
<text text-anchor="start" x="94" y="-383.5" font-family="Helvetica,sans-Serif" font-size="10.00"> to_string() const =0</text>
</a>
</g>
</g>
<!-- Node3&#45;&gt;Node4 -->
<g id="edge4" class="edge">
<title>Node3&#45;&gt;Node4</title>
<path fill="none" stroke="#63b8ff" d="M103.21,-516.7C108.11,-507.28 113.12,-497.66 117.91,-488.46"/>
<polygon fill="none" stroke="#63b8ff" points="100.16,-514.98 98.65,-525.47 106.37,-518.21 100.16,-514.98"/>
</g>
<!-- Node4&#45;&gt;Node2 -->
<g id="edge3" class="edge">
<title>Node4&#45;&gt;Node2</title>
<path fill="none" stroke="orange" d="M116.36,-366.28C110.56,-353.72 104.54,-340.68 98.91,-328.49"/>
<polygon fill="orange" stroke="orange" points="113.17,-367.7 120.54,-375.31 119.52,-364.76 113.17,-367.7"/>
<text text-anchor="middle" x="133.5" y="-350" font-family="Helvetica,sans-Serif" font-size="10.00"> &lt; Array &gt;</text>
</g>
</g>
</svg>
        <g id="navigator" transform="translate(0 0)" fill="#404254">
                <rect fill="#f2f5e9" fill-opacity="0.5" stroke="#606060" stroke-width=".5" x="0" y="0" width="60" height="60"/>
                <use id="zoomplus" xlink:href="#zoomPlus" x="17" y="9" onmousedown="handleZoom(evt,'in')"/>
                <use id="zoomminus" xlink:href="#zoomMin" x="42" y="9" onmousedown="handleZoom(evt,'out')"/>
                <use id="reset" xlink:href="#resetDef" x="30" y="36" onmousedown="handleReset()"/>
                <g id="arrowUp" xlink:href="#dirArrow" transform="translate(30 24)" onmousedown="handlePan(0,-1)">
                  <use xlink:href="#rim" fill="#404040">
                        <set attributeName="fill" to="#808080" begin="arrowUp.mouseover" end="arrowUp.mouseout"/>
                  </use>
                  <path fill="none" stroke="white" stroke-width="1.5" d="M0,-3.0v7 M-2.5,-0.5L0,-3.0L2.5,-0.5"/>
                </g>
                <g id="arrowRight" xlink:href="#dirArrow" transform="rotate(90) translate(36 -43)" onmousedown="handlePan(1,0)">
                  <use xlink:href="#rim" fill="#404040">
                        <set attributeName="fill" to="#808080" begin="arrowRight.mouseover" end="arrowRight.mouseout"/>
                  </use>
                  <path fill="none" stroke="white" stroke-width="1.5" d="M0,-3.0v7 M-2.5,-0.5L0,-3.0L2.5,-0.5"/>
                </g>
                <g id="arrowDown" xlink:href="#dirArrow" transform="rotate(180) translate(-30 -48)" onmousedown="handlePan(0,1)">
                  <use xlink:href="#rim" fill="#404040">
                        <set attributeName="fill" to="#808080" begin="arrowDown.mouseover" end="arrowDown.mouseout"/>
                  </use>
                  <path fill="none" stroke="white" stroke-width="1.5" d="M0,-3.0v7 M-2.5,-0.5L0,-3.0L2.5,-0.5"/>
                </g>
                <g id="arrowLeft" xlink:href="#dirArrow" transform="rotate(270) translate(-36 17)" onmousedown="handlePan(-1,0)">
                  <use xlink:href="#rim" fill="#404040">
                        <set attributeName="fill" to="#808080" begin="arrowLeft.mouseover" end="arrowLeft.mouseout"/>
                  </use>
                  <path fill="none" stroke="white" stroke-width="1.5" d="M0,-3.0v7 M-2.5,-0.5L0,-3.0L2.5,-0.5"/>
                </g>
        </g>
        <svg viewBox="0 0 15 15" width="100%" height="30px" preserveAspectRatio="xMaxYMin meet">
         <g id="arrow_out" transform="scale(0.3 0.3)">
          <a xlink:href="structkepler_1_1_statements__inherit__graph_org.svg" target="_base">
           <rect id="button" ry="5" rx="5" y="6" x="6" height="38" width="38"
                fill="#f2f5e9" fill-opacity="0.5" stroke="#606060" stroke-width="1.0"/>
           <path id="arrow"
             d="M 11.500037,31.436501 C 11.940474,20.09759 22.043105,11.32322 32.158766,21.979434 L 37.068811,17.246167 C 37.068811,17.246167 37.088388,32 37.088388,32 L 22.160133,31.978069 C 22.160133,31.978069 26.997745,27.140456 26.997745,27.140456 C 18.528582,18.264221 13.291696,25.230495 11.500037,31.436501 z"
             style="fill:#404040;"/>
          </a>
         </g>
        </svg>
</svg>
