<?xml version="1.0" encoding="UTF-8" standalone="no"?>
<!DOCTYPE svg PUBLIC "-//W3C//DTD SVG 1.1//EN"
 "http://www.w3.org/Graphics/SVG/1.1/DTD/svg11.dtd">
<!-- Generated by graphviz version 7.1.0 (20230121.1956)
 -->
<!-- Title: kepler::FunctionAssignment Pages: 1 -->
<!--zoomable 700 -->
<svg id="main" version="1.1" xmlns="http://www.w3.org/2000/svg" xmlns:xlink="http://www.w3.org/1999/xlink" xml:space="preserve" onload="init(evt)">
<style type="text/css"><![CDATA[
.edge:hover path { stroke: red; }
.edge:hover polygon { stroke: red; fill: red; }
]]></style>
<script type="text/javascript"><![CDATA[
var edges = document.getElementsByTagName('g');
if (edges && edges.length) {
  for (var i=0;i<edges.length;i++) {
    if (edges[i].id.substr(0,4)=='edge') {
      edges[i].setAttribute('class','edge');
    }
  }
}
]]></script>
        <defs>
                <circle id="rim" cx="0" cy="0" r="7"/>
                <circle id="rim2" cx="0" cy="0" r="3.5"/>
                <g id="zoomPlus">
                        <use xlink:href="#rim" fill="#404040">
                                <set attributeName="fill" to="#808080" begin="zoomplus.mouseover" end="zoomplus.mouseout"/>
                        </use>
                        <path d="M-4,0h8M0,-4v8" fill="none" stroke="white" stroke-width="1.5" pointer-events="none"/>
                </g>
                <g id="zoomMin">
                        <use xlink:href="#rim" fill="#404040">
                                <set attributeName="fill" to="#808080" begin="zoomminus.mouseover" end="zoomminus.mouseout"/>
                        </use>
                        <path d="M-4,0h8" fill="none" stroke="white" stroke-width="1.5" pointer-events="none"/>
                </g>
                <g id="dirArrow">
                        <path fill="none" stroke="white" stroke-width="1.5" d="M0,-3.0v7 M-2.5,-0.5L0,-3.0L2.5,-0.5"/>
                </g>
               <g id="resetDef">
                       <use xlink:href="#rim2" fill="#404040">
                               <set attributeName="fill" to="#808080" begin="reset.mouseover" end="reset.mouseout"/>
                       </use>
               </g>
        </defs>

<script type="text/javascript">
var viewWidth = 498;
var viewHeight = 700;
var sectionId = 'dynsection-1';
</script>
<script xlink:href="svgpan.js"/>
<svg id="graph" class="graph">
<g id="viewport">
<title>kepler::FunctionAssignment</title>
<!-- Node1 -->
<g id="node1" class="node">
<title>Node1</title>
<g id="a_node1"><a xlink:title=" ">
<polygon fill="#999999" stroke="#666666" points="165.5,-0.5 165.5,-145.5 303.5,-145.5 303.5,-0.5 165.5,-0.5"/>
<text text-anchor="middle" x="234.5" y="-133.5" font-family="Helvetica,sans-Serif" font-size="10.00">kepler::FunctionAssignment</text>
<polyline fill="none" stroke="#666666" points="165.5,-126.5 303.5,-126.5"/>
<text text-anchor="middle" x="234.5" y="-114.5" font-family="Helvetica,sans-Serif" font-size="10.00"> </text>
<polyline fill="none" stroke="#666666" points="165.5,-107.5 303.5,-107.5"/>
<text text-anchor="start" x="173.5" y="-95.5" font-family="Helvetica,sans-Serif" font-size="10.00">+ ~FunctionAssignment</text>
<text text-anchor="start" x="173.5" y="-84.5" font-family="Helvetica,sans-Serif" font-size="10.00">() override</text>
<text text-anchor="start" x="173.5" y="-73.5" font-family="Helvetica,sans-Serif" font-size="10.00">+ FunctionAssignment</text>
<text text-anchor="start" x="173.5" y="-62.5" font-family="Helvetica,sans-Serif" font-size="10.00">(Token identifier, ASTNode</text>
<text text-anchor="start" x="173.5" y="-51.5" font-family="Helvetica,sans-Serif" font-size="10.00">&lt; Operation_ptr &gt; *function)</text>
<text text-anchor="start" x="173.5" y="-40.5" font-family="Helvetica,sans-Serif" font-size="10.00">+ std::string to_string</text>
<text text-anchor="start" x="173.5" y="-29.5" font-family="Helvetica,sans-Serif" font-size="10.00">() const override</text>
<text text-anchor="start" x="173.5" y="-18.5" font-family="Helvetica,sans-Serif" font-size="10.00">+ Array accept(NodeVisitor</text>
<text text-anchor="start" x="173.5" y="-7.5" font-family="Helvetica,sans-Serif" font-size="10.00"> &amp;visitor) override</text>
</a>
</g>
</g>
<!-- Node2 -->
<g id="node2" class="node">
<title>Node2</title>
<g id="a_node2"><a xlink:href="structkepler_1_1_a_s_t_node.html" target="_top" xlink:title=" ">
<polygon fill="white" stroke="#666666" points="161,-204.5 161,-316.5 308,-316.5 308,-204.5 161,-204.5"/>
<text text-anchor="middle" x="234.5" y="-304.5" font-family="Helvetica,sans-Serif" font-size="10.00">kepler::ASTNode&lt; Array &gt;</text>
<polyline fill="none" stroke="#666666" points="161,-297.5 308,-297.5"/>
<text text-anchor="middle" x="234.5" y="-285.5" font-family="Helvetica,sans-Serif" font-size="10.00"> </text>
<polyline fill="none" stroke="#666666" points="161,-278.5 308,-278.5"/>
<text text-anchor="start" x="169" y="-266.5" font-family="Helvetica,sans-Serif" font-size="10.00">+ virtual ~ASTNode()</text>
<text text-anchor="start" x="169" y="-255.5" font-family="Helvetica,sans-Serif" font-size="10.00">=default</text>
<text text-anchor="start" x="169" y="-244.5" font-family="Helvetica,sans-Serif" font-size="10.00">+ virtual Array accept</text>
<text text-anchor="start" x="169" y="-233.5" font-family="Helvetica,sans-Serif" font-size="10.00">(class NodeVisitor &amp;visitor)=0</text>
<text text-anchor="start" x="169" y="-222.5" font-family="Helvetica,sans-Serif" font-size="10.00">+ virtual std::string</text>
<text text-anchor="start" x="169" y="-211.5" font-family="Helvetica,sans-Serif" font-size="10.00"> to_string() const=0</text>
</a>
</g>
</g>
<!-- Node2&#45;&gt;Node1 -->
<g id="edge1" class="edge">
<title>Node2&#45;&gt;Node1</title>
<path fill="none" stroke="#63b8ff" d="M234.5,-193.45C234.5,-177.84 234.5,-161.13 234.5,-145.3"/>
<polygon fill="none" stroke="#63b8ff" points="231,-193.08 234.5,-203.08 238,-193.08 231,-193.08"/>
</g>
<!-- Node3 -->
<g id="node3" class="node">
<title>Node3</title>
<g id="a_node3"><a xlink:href="structkepler_1_1_position.html" target="_top" xlink:title=" ">
<polygon fill="white" stroke="#666666" points="145.5,-579.5 145.5,-691.5 265.5,-691.5 265.5,-579.5 145.5,-579.5"/>
<text text-anchor="middle" x="205.5" y="-679.5" font-family="Helvetica,sans-Serif" font-size="10.00">kepler::Position</text>
<polyline fill="none" stroke="#666666" points="145.5,-672.5 265.5,-672.5"/>
<text text-anchor="middle" x="205.5" y="-660.5" font-family="Helvetica,sans-Serif" font-size="10.00"> </text>
<polyline fill="none" stroke="#666666" points="145.5,-653.5 265.5,-653.5"/>
<text text-anchor="start" x="153.5" y="-641.5" font-family="Helvetica,sans-Serif" font-size="10.00">+ Position()</text>
<text text-anchor="start" x="153.5" y="-630.5" font-family="Helvetica,sans-Serif" font-size="10.00">+ Position(long pos_)</text>
<text text-anchor="start" x="153.5" y="-619.5" font-family="Helvetica,sans-Serif" font-size="10.00">+ void set_position(long</text>
<text text-anchor="start" x="153.5" y="-608.5" font-family="Helvetica,sans-Serif" font-size="10.00"> new_pos)</text>
<text text-anchor="start" x="153.5" y="-597.5" font-family="Helvetica,sans-Serif" font-size="10.00">+ long get_position()</text>
<text text-anchor="start" x="153.5" y="-586.5" font-family="Helvetica,sans-Serif" font-size="10.00"> const</text>
</a>
</g>
</g>
<!-- Node3&#45;&gt;Node2 -->
<g id="edge2" class="edge">
<title>Node3&#45;&gt;Node2</title>
<path fill="none" stroke="#63b8ff" d="M218.4,-568.64C220.4,-556.5 222.22,-543.9 223.5,-532 231.51,-457.58 233.81,-371.07 234.41,-316.32"/>
<polygon fill="none" stroke="#63b8ff" points="215.01,-567.7 216.78,-578.14 221.91,-568.87 215.01,-567.7"/>
</g>
<!-- Node4 -->
<g id="node4" class="node">
<title>Node4</title>
<g id="a_node4"><a xlink:href="structkepler_1_1_a_s_t_node.html" target="_top" xlink:title=" ">
<polygon fill="white" stroke="#666666" points="94,-397.5 94,-509.5 215,-509.5 215,-397.5 94,-397.5"/>
<text text-anchor="middle" x="154.5" y="-497.5" font-family="Helvetica,sans-Serif" font-size="10.00">kepler::ASTNode&lt; T &gt;</text>
<polyline fill="none" stroke="#666666" points="94,-490.5 215,-490.5"/>
<text text-anchor="middle" x="154.5" y="-478.5" font-family="Helvetica,sans-Serif" font-size="10.00"> </text>
<polyline fill="none" stroke="#666666" points="94,-471.5 215,-471.5"/>
<text text-anchor="start" x="102" y="-459.5" font-family="Helvetica,sans-Serif" font-size="10.00">+ virtual ~ASTNode()</text>
<text text-anchor="start" x="102" y="-448.5" font-family="Helvetica,sans-Serif" font-size="10.00">=default</text>
<text text-anchor="start" x="102" y="-437.5" font-family="Helvetica,sans-Serif" font-size="10.00">+ virtual T accept(class</text>
<text text-anchor="start" x="102" y="-426.5" font-family="Helvetica,sans-Serif" font-size="10.00"> NodeVisitor &amp;visitor)=0</text>
<text text-anchor="start" x="102" y="-415.5" font-family="Helvetica,sans-Serif" font-size="10.00">+ virtual std::string</text>
<text text-anchor="start" x="102" y="-404.5" font-family="Helvetica,sans-Serif" font-size="10.00"> to_string() const =0</text>
</a>
</g>
</g>
<!-- Node3&#45;&gt;Node4 -->
<g id="edge4" class="edge">
<title>Node3&#45;&gt;Node4</title>
<path fill="none" stroke="#63b8ff" d="M186.83,-568.6C181.32,-549.17 175.36,-528.12 170.07,-509.46"/>
<polygon fill="none" stroke="#63b8ff" points="183.42,-569.39 189.51,-578.06 190.15,-567.48 183.42,-569.39"/>
</g>
<!-- Node5 -->
<g id="node5" class="node">
<title>Node5</title>
<g id="a_node5"><a xlink:href="structkepler_1_1_token.html" target="_top" xlink:title=" ">
<polygon fill="white" stroke="#666666" points="272,-375.5 272,-531.5 417,-531.5 417,-375.5 272,-375.5"/>
<text text-anchor="middle" x="344.5" y="-519.5" font-family="Helvetica,sans-Serif" font-size="10.00">kepler::Token</text>
<polyline fill="none" stroke="#666666" points="272,-512.5 417,-512.5"/>
<text text-anchor="middle" x="344.5" y="-500.5" font-family="Helvetica,sans-Serif" font-size="10.00"> </text>
<polyline fill="none" stroke="#666666" points="272,-493.5 417,-493.5"/>
<text text-anchor="start" x="280" y="-481.5" font-family="Helvetica,sans-Serif" font-size="10.00">+ Token(long pos, TokenType</text>
<text text-anchor="start" x="280" y="-470.5" font-family="Helvetica,sans-Serif" font-size="10.00"> type_, Char content_)</text>
<text text-anchor="start" x="280" y="-459.5" font-family="Helvetica,sans-Serif" font-size="10.00">+ Token(long pos, TokenType</text>
<text text-anchor="start" x="280" y="-448.5" font-family="Helvetica,sans-Serif" font-size="10.00"> type_, String content_)</text>
<text text-anchor="start" x="280" y="-437.5" font-family="Helvetica,sans-Serif" font-size="10.00">+ Token(TokenType type</text>
<text text-anchor="start" x="280" y="-426.5" font-family="Helvetica,sans-Serif" font-size="10.00">_, String content_)</text>
<text text-anchor="start" x="280" y="-415.5" font-family="Helvetica,sans-Serif" font-size="10.00">+ Token(long pos, TokenType</text>
<text text-anchor="start" x="280" y="-404.5" font-family="Helvetica,sans-Serif" font-size="10.00"> type_)</text>
<text text-anchor="start" x="280" y="-393.5" font-family="Helvetica,sans-Serif" font-size="10.00">+ std::string to_string</text>
<text text-anchor="start" x="280" y="-382.5" font-family="Helvetica,sans-Serif" font-size="10.00">() const</text>
</a>
</g>
</g>
<!-- Node3&#45;&gt;Node5 -->
<g id="edge6" class="edge">
<title>Node3&#45;&gt;Node5</title>
<path fill="none" stroke="#63b8ff" d="M254.96,-570.45C264.74,-557.79 275.09,-544.38 285.16,-531.35"/>
<polygon fill="none" stroke="#63b8ff" points="252.23,-568.26 248.88,-578.32 257.77,-572.54 252.23,-568.26"/>
</g>
<!-- Node8 -->
<g id="node8" class="node">
<title>Node8</title>
<g id="a_node8"><a xlink:href="structkepler_1_1_a_s_t_node.html" target="_top" xlink:title=" ">
<polygon fill="white" stroke="#666666" points="0,-193.5 0,-327.5 143,-327.5 143,-193.5 0,-193.5"/>
<text text-anchor="start" x="8" y="-315.5" font-family="Helvetica,sans-Serif" font-size="10.00">kepler::ASTNode&lt; Operation</text>
<text text-anchor="middle" x="71.5" y="-304.5" font-family="Helvetica,sans-Serif" font-size="10.00">_ptr &gt;</text>
<polyline fill="none" stroke="#666666" points="0,-297.5 143,-297.5"/>
<text text-anchor="middle" x="71.5" y="-285.5" font-family="Helvetica,sans-Serif" font-size="10.00"> </text>
<polyline fill="none" stroke="#666666" points="0,-278.5 143,-278.5"/>
<text text-anchor="start" x="8" y="-266.5" font-family="Helvetica,sans-Serif" font-size="10.00">+ virtual ~ASTNode()</text>
<text text-anchor="start" x="8" y="-255.5" font-family="Helvetica,sans-Serif" font-size="10.00">=default</text>
<text text-anchor="start" x="8" y="-244.5" font-family="Helvetica,sans-Serif" font-size="10.00">+ virtual Operation_ptr</text>
<text text-anchor="start" x="8" y="-233.5" font-family="Helvetica,sans-Serif" font-size="10.00"> accept(class NodeVisitor</text>
<text text-anchor="start" x="8" y="-222.5" font-family="Helvetica,sans-Serif" font-size="10.00"> &amp;visitor)=0</text>
<text text-anchor="start" x="8" y="-211.5" font-family="Helvetica,sans-Serif" font-size="10.00">+ virtual std::string</text>
<text text-anchor="start" x="8" y="-200.5" font-family="Helvetica,sans-Serif" font-size="10.00"> to_string() const=0</text>
</a>
</g>
</g>
<!-- Node3&#45;&gt;Node8 -->
<g id="edge10" class="edge">
<title>Node3&#45;&gt;Node8</title>
<path fill="none" stroke="#63b8ff" d="M136.64,-592.34C116.23,-576.15 96.22,-555.77 84.5,-532 52.9,-467.9 54.24,-384.56 60.55,-327.42"/>
<polygon fill="none" stroke="#63b8ff" points="134.43,-595.05 144.5,-598.33 138.67,-589.49 134.43,-595.05"/>
</g>
<!-- Node4&#45;&gt;Node2 -->
<g id="edge3" class="edge">
<title>Node4&#45;&gt;Node2</title>
<path fill="none" stroke="orange" d="M170.9,-386.85C175.07,-373.13 179.97,-358.92 185.5,-346 189.7,-336.18 194.81,-326.07 200.11,-316.42"/>
<polygon fill="orange" stroke="orange" points="167.6,-385.67 168.13,-396.25 174.31,-387.65 167.6,-385.67"/>
<text text-anchor="middle" x="207.5" y="-349" font-family="Helvetica,sans-Serif" font-size="10.00"> &lt; Array &gt;</text>
</g>
<!-- Node4&#45;&gt;Node8 -->
<g id="edge11" class="edge">
<title>Node4&#45;&gt;Node8</title>
<path fill="none" stroke="orange" d="M113.59,-387.76C108.09,-377.67 102.85,-367.21 98.5,-357 94.48,-347.57 90.87,-337.36 87.7,-327.25"/>
<polygon fill="orange" stroke="orange" points="110.48,-389.36 118.42,-396.37 116.59,-385.94 110.48,-389.36"/>
<text text-anchor="middle" x="138.5" y="-349" font-family="Helvetica,sans-Serif" font-size="10.00"> &lt; Operation_ptr &gt;</text>
</g>
<!-- Node5&#45;&gt;Node1 -->
<g id="edge5" class="edge">
<title>Node5&#45;&gt;Node1</title>
<path fill="none" stroke="#404040" d="M346.01,-375.58C344.72,-322.71 338.3,-251.73 316.5,-193 311.9,-180.61 305.72,-168.28 298.81,-156.52"/>
<polygon fill="none" stroke="#404040" points="298.75,-156.41 292.2,-153.4 292.46,-146.19 299.01,-149.2 298.75,-156.41"/>
<text text-anchor="middle" x="366.5" y="-258" font-family="Helvetica,sans-Serif" font-size="10.00"> +identifier</text>
</g>
<!-- Node6 -->
<g id="node6" class="node">
<title>Node6</title>
<g id="a_node6"><a xlink:title=" ">
<polygon fill="white" stroke="#666666" points="301.5,-607 301.5,-664 365.5,-664 365.5,-607 301.5,-607"/>
<text text-anchor="middle" x="333.5" y="-652" font-family="Helvetica,sans-Serif" font-size="10.00">TokenType</text>
<polyline fill="none" stroke="#666666" points="301.5,-645 365.5,-645"/>
<text text-anchor="middle" x="333.5" y="-633" font-family="Helvetica,sans-Serif" font-size="10.00"> </text>
<polyline fill="none" stroke="#666666" points="301.5,-626 365.5,-626"/>
<text text-anchor="middle" x="333.5" y="-614" font-family="Helvetica,sans-Serif" font-size="10.00"> </text>
</a>
</g>
</g>
<!-- Node6&#45;&gt;Node5 -->
<g id="edge7" class="edge">
<title>Node6&#45;&gt;Node5</title>
<path fill="none" stroke="#404040" d="M335.17,-607.16C336.22,-590.07 337.63,-566.99 339.03,-543.95"/>
<polygon fill="none" stroke="#404040" points="339.03,-544.08 335.4,-537.84 339.76,-532.1 343.38,-538.33 339.03,-544.08"/>
<text text-anchor="middle" x="352.5" y="-553" font-family="Helvetica,sans-Serif" font-size="10.00"> +type</text>
</g>
<!-- Node7 -->
<g id="node7" class="node">
<title>Node7</title>
<g id="a_node7"><a xlink:title=" ">
<polygon fill="white" stroke="#666666" points="383.5,-601.5 383.5,-669.5 489.5,-669.5 489.5,-601.5 383.5,-601.5"/>
<text text-anchor="start" x="391.5" y="-657.5" font-family="Helvetica,sans-Serif" font-size="10.00">optional&lt; std::vector</text>
<text text-anchor="middle" x="436.5" y="-646.5" font-family="Helvetica,sans-Serif" font-size="10.00">&lt; Char &gt; &gt;</text>
<polyline fill="none" stroke="#666666" points="383.5,-639.5 489.5,-639.5"/>
<text text-anchor="middle" x="436.5" y="-627.5" font-family="Helvetica,sans-Serif" font-size="10.00"> </text>
<polyline fill="none" stroke="#666666" points="383.5,-620.5 489.5,-620.5"/>
<text text-anchor="middle" x="436.5" y="-608.5" font-family="Helvetica,sans-Serif" font-size="10.00"> </text>
</a>
</g>
</g>
<!-- Node7&#45;&gt;Node5 -->
<g id="edge8" class="edge">
<title>Node7&#45;&gt;Node5</title>
<path fill="none" stroke="#404040" d="M419.84,-601.9C411.28,-585.16 400.4,-563.86 389.58,-542.7"/>
<polygon fill="none" stroke="#404040" points="389.64,-542.81 383.35,-539.29 384.18,-532.13 390.47,-535.65 389.64,-542.81"/>
<text text-anchor="middle" x="420.5" y="-553" font-family="Helvetica,sans-Serif" font-size="10.00"> +content</text>
</g>
<!-- Node8&#45;&gt;Node1 -->
<g id="edge9" class="edge">
<title>Node8&#45;&gt;Node1</title>
<path fill="none" stroke="#404040" d="M129.43,-193.58C140.36,-181.13 151.92,-167.98 163.21,-155.13"/>
<polygon fill="none" stroke="#404040" points="163.27,-155.07 164.22,-147.92 171.19,-146.05 170.23,-153.2 163.27,-155.07"/>
<text text-anchor="middle" x="175.5" y="-167" font-family="Helvetica,sans-Serif" font-size="10.00"> +function</text>
</g>
</g>
</svg>
        <g id="navigator" transform="translate(0 0)" fill="#404254">
                <rect fill="#f2f5e9" fill-opacity="0.5" stroke="#606060" stroke-width=".5" x="0" y="0" width="60" height="60"/>
                <use id="zoomplus" xlink:href="#zoomPlus" x="17" y="9" onmousedown="handleZoom(evt,'in')"/>
                <use id="zoomminus" xlink:href="#zoomMin" x="42" y="9" onmousedown="handleZoom(evt,'out')"/>
                <use id="reset" xlink:href="#resetDef" x="30" y="36" onmousedown="handleReset()"/>
                <g id="arrowUp" xlink:href="#dirArrow" transform="translate(30 24)" onmousedown="handlePan(0,-1)">
                  <use xlink:href="#rim" fill="#404040">
                        <set attributeName="fill" to="#808080" begin="arrowUp.mouseover" end="arrowUp.mouseout"/>
                  </use>
                  <path fill="none" stroke="white" stroke-width="1.5" d="M0,-3.0v7 M-2.5,-0.5L0,-3.0L2.5,-0.5"/>
                </g>
                <g id="arrowRight" xlink:href="#dirArrow" transform="rotate(90) translate(36 -43)" onmousedown="handlePan(1,0)">
                  <use xlink:href="#rim" fill="#404040">
                        <set attributeName="fill" to="#808080" begin="arrowRight.mouseover" end="arrowRight.mouseout"/>
                  </use>
                  <path fill="none" stroke="white" stroke-width="1.5" d="M0,-3.0v7 M-2.5,-0.5L0,-3.0L2.5,-0.5"/>
                </g>
                <g id="arrowDown" xlink:href="#dirArrow" transform="rotate(180) translate(-30 -48)" onmousedown="handlePan(0,1)">
                  <use xlink:href="#rim" fill="#404040">
                        <set attributeName="fill" to="#808080" begin="arrowDown.mouseover" end="arrowDown.mouseout"/>
                  </use>
                  <path fill="none" stroke="white" stroke-width="1.5" d="M0,-3.0v7 M-2.5,-0.5L0,-3.0L2.5,-0.5"/>
                </g>
                <g id="arrowLeft" xlink:href="#dirArrow" transform="rotate(270) translate(-36 17)" onmousedown="handlePan(-1,0)">
                  <use xlink:href="#rim" fill="#404040">
                        <set attributeName="fill" to="#808080" begin="arrowLeft.mouseover" end="arrowLeft.mouseout"/>
                  </use>
                  <path fill="none" stroke="white" stroke-width="1.5" d="M0,-3.0v7 M-2.5,-0.5L0,-3.0L2.5,-0.5"/>
                </g>
        </g>
        <svg viewBox="0 0 15 15" width="100%" height="30px" preserveAspectRatio="xMaxYMin meet">
         <g id="arrow_out" transform="scale(0.3 0.3)">
          <a xlink:href="structkepler_1_1_function_assignment__coll__graph_org.svg" target="_base">
           <rect id="button" ry="5" rx="5" y="6" x="6" height="38" width="38"
                fill="#f2f5e9" fill-opacity="0.5" stroke="#606060" stroke-width="1.0"/>
           <path id="arrow"
             d="M 11.500037,31.436501 C 11.940474,20.09759 22.043105,11.32322 32.158766,21.979434 L 37.068811,17.246167 C 37.068811,17.246167 37.088388,32 37.088388,32 L 22.160133,31.978069 C 22.160133,31.978069 26.997745,27.140456 26.997745,27.140456 C 18.528582,18.264221 13.291696,25.230495 11.500037,31.436501 z"
             style="fill:#404040;"/>
          </a>
         </g>
        </svg>
</svg>
