<?xml version="1.0" encoding="UTF-8" standalone="no"?>
<!DOCTYPE svg PUBLIC "-//W3C//DTD SVG 1.1//EN"
 "http://www.w3.org/Graphics/SVG/1.1/DTD/svg11.dtd">
<!-- Generated by graphviz version 7.1.0 (20230121.1956)
 -->
<!-- Title: kepler::FunctionVariable::to_string Pages: 1 -->
<svg width="406pt" height="38pt"
 viewBox="0.00 0.00 406.00 38.00" xmlns="http://www.w3.org/2000/svg" xmlns:xlink="http://www.w3.org/1999/xlink">
<g id="graph0" class="graph" transform="scale(1 1) rotate(0) translate(4 34)">
<title>kepler::FunctionVariable::to_string</title>
<!-- Node1 -->
<g id="node1" class="node">
<title>Node1</title>
<g id="a_node1"><a xlink:title=" ">
<polygon fill="#999999" stroke="#666666" points="121,-30 0,-30 0,0 121,0 121,-30"/>
<text text-anchor="start" x="8" y="-18" font-family="Helvetica,sans-Serif" font-size="10.00">kepler::FunctionVariable</text>
<text text-anchor="middle" x="60.5" y="-7" font-family="Helvetica,sans-Serif" font-size="10.00">::to_string</text>
</a>
</g>
</g>
<!-- Node2 -->
<g id="node2" class="node">
<title>Node2</title>
<g id="a_node2"><a xlink:href="structkepler_1_1_token.html#aa138d51909b8ce9e3435d7ba9864e6be" target="_top" xlink:title=" ">
<polygon fill="white" stroke="#666666" points="276,-24.5 157,-24.5 157,-5.5 276,-5.5 276,-24.5"/>
<text text-anchor="middle" x="216.5" y="-12.5" font-family="Helvetica,sans-Serif" font-size="10.00">kepler::Token::to_string</text>
</a>
</g>
</g>
<!-- Node1&#45;&gt;Node2 -->
<g id="edge1" class="edge">
<title>Node1&#45;&gt;Node2</title>
<path fill="none" stroke="#63b8ff" d="M121.48,-15C129.26,-15 137.27,-15 145.19,-15"/>
<polygon fill="#63b8ff" stroke="#63b8ff" points="145.18,-18.5 155.18,-15 145.18,-11.5 145.18,-18.5"/>
</g>
<!-- Node3 -->
<g id="node3" class="node">
<title>Node3</title>
<g id="a_node3"><a xlink:href="namespacekepler.html#a76d95d0e078e053088ec440c6e878ab3" target="_top" xlink:title=" ">
<polygon fill="white" stroke="#666666" points="398,-24.5 312,-24.5 312,-5.5 398,-5.5 398,-24.5"/>
<text text-anchor="middle" x="355" y="-12.5" font-family="Helvetica,sans-Serif" font-size="10.00">kepler::to_string</text>
</a>
</g>
</g>
<!-- Node2&#45;&gt;Node3 -->
<g id="edge2" class="edge">
<title>Node2&#45;&gt;Node3</title>
<path fill="none" stroke="#63b8ff" d="M276.18,-15C284.24,-15 292.48,-15 300.44,-15"/>
<polygon fill="#63b8ff" stroke="#63b8ff" points="300.34,-18.5 310.34,-15 300.34,-11.5 300.34,-18.5"/>
</g>
</g>
</svg>
