<?xml version="1.0" encoding="UTF-8" standalone="no"?>
<!DOCTYPE svg PUBLIC "-//W3C//DTD SVG 1.1//EN"
 "http://www.w3.org/Graphics/SVG/1.1/DTD/svg11.dtd">
<!-- Generated by graphviz version 7.1.0 (20230121.1956)
 -->
<!-- Title: kepler::ASTNode::accept Pages: 1 -->
<svg width="817pt" height="160pt"
 viewBox="0.00 0.00 817.00 160.26" xmlns="http://www.w3.org/2000/svg" xmlns:xlink="http://www.w3.org/1999/xlink">
<g id="graph0" class="graph" transform="scale(1 1) rotate(0) translate(4 156.26)">
<title>kepler::ASTNode::accept</title>
<!-- Node1 -->
<g id="node1" class="node">
<title>Node1</title>
<g id="a_node1"><a xlink:title=" ">
<polygon fill="#999999" stroke="#666666" points="809,-81 682,-81 682,-62 809,-62 809,-81"/>
<text text-anchor="middle" x="745.5" y="-69" font-family="Helvetica,sans-Serif" font-size="10.00">kepler::ASTNode::accept</text>
</a>
</g>
</g>
<!-- Node2 -->
<g id="node2" class="node">
<title>Node2</title>
<g id="a_node2"><a xlink:href="structkepler_1_1_interpreter.html#a2ec19db70151e2f0eb937421a8618935" target="_top" xlink:title=" ">
<polygon fill="white" stroke="#666666" points="646,-86.5 553,-86.5 553,-56.5 646,-56.5 646,-86.5"/>
<text text-anchor="start" x="561" y="-74.5" font-family="Helvetica,sans-Serif" font-size="10.00">kepler::Interpreter</text>
<text text-anchor="middle" x="599.5" y="-63.5" font-family="Helvetica,sans-Serif" font-size="10.00">::interpret</text>
</a>
</g>
</g>
<!-- Node1&#45;&gt;Node2 -->
<g id="edge1" class="edge">
<title>Node1&#45;&gt;Node2</title>
<path fill="none" stroke="#63b8ff" d="M670.47,-71.5C662.18,-71.5 653.93,-71.5 646.15,-71.5"/>
<polygon fill="#63b8ff" stroke="#63b8ff" points="670.24,-75 680.24,-71.5 670.24,-68 670.24,-75"/>
</g>
<!-- Node3 -->
<g id="node3" class="node">
<title>Node3</title>
<g id="a_node3"><a xlink:href="namespacekepler.html#aff2a3590024c2d97ee7d9d49bef09bfd" target="_top" xlink:title=" ">
<polygon fill="white" stroke="#666666" points="517,-103 376,-103 376,-84 517,-84 517,-103"/>
<text text-anchor="middle" x="446.5" y="-91" font-family="Helvetica,sans-Serif" font-size="10.00">kepler::immediate_execution</text>
</a>
</g>
</g>
<!-- Node2&#45;&gt;Node3 -->
<g id="edge2" class="edge">
<title>Node2&#45;&gt;Node3</title>
<path fill="none" stroke="#63b8ff" d="M541.59,-79.79C533.21,-81.01 524.49,-82.28 515.91,-83.53"/>
<polygon fill="#63b8ff" stroke="#63b8ff" points="541.9,-83.28 551.29,-78.38 540.89,-76.36 541.9,-83.28"/>
</g>
<!-- Node11 -->
<g id="node11" class="node">
<title>Node11</title>
<g id="a_node11"><a xlink:href="structkepler_1_1_defined_function.html#a5b6f49592631a604f7babee3804eddeb" target="_top" xlink:title=" ">
<polygon fill="white" stroke="#666666" points="506.5,-65.5 386.5,-65.5 386.5,-35.5 506.5,-35.5 506.5,-65.5"/>
<text text-anchor="start" x="394.5" y="-53.5" font-family="Helvetica,sans-Serif" font-size="10.00">kepler::DefinedFunction</text>
<text text-anchor="middle" x="446.5" y="-42.5" font-family="Helvetica,sans-Serif" font-size="10.00">::operator()</text>
</a>
</g>
</g>
<!-- Node2&#45;&gt;Node11 -->
<g id="edge11" class="edge">
<title>Node2&#45;&gt;Node11</title>
<path fill="none" stroke="#63b8ff" d="M541.63,-63.59C530.23,-62.01 518.22,-60.34 506.74,-58.74"/>
<polygon fill="#63b8ff" stroke="#63b8ff" points="540.9,-67.02 551.29,-64.93 541.86,-60.09 540.9,-67.02"/>
</g>
<!-- Node4 -->
<g id="node4" class="node">
<title>Node4</title>
<g id="a_node4"><a xlink:href="namespacekepler.html#ae45e010aed51dc28b896694f75dc2ca7" target="_top" xlink:title=" ">
<polygon fill="white" stroke="#666666" points="322.5,-130 242.5,-130 242.5,-111 322.5,-111 322.5,-130"/>
<text text-anchor="middle" x="282.5" y="-118" font-family="Helvetica,sans-Serif" font-size="10.00">kepler::run_file</text>
</a>
</g>
</g>
<!-- Node3&#45;&gt;Node4 -->
<g id="edge3" class="edge">
<title>Node3&#45;&gt;Node4</title>
<path fill="none" stroke="#63b8ff" d="M374.46,-105.34C356.79,-108.28 338.49,-111.34 322.97,-113.92"/>
<polygon fill="#63b8ff" stroke="#63b8ff" points="374.86,-108.82 384.14,-103.73 373.71,-101.92 374.86,-108.82"/>
</g>
<!-- Node7 -->
<g id="node7" class="node">
<title>Node7</title>
<g id="a_node7"><a xlink:href="namespacekepler.html#ae873199194df3797260d2e48244b90f4" target="_top" xlink:title=" ">
<polygon fill="white" stroke="#666666" points="340,-75 225,-75 225,-56 340,-56 340,-75"/>
<text text-anchor="middle" x="282.5" y="-63" font-family="Helvetica,sans-Serif" font-size="10.00">kepler::safe_execution</text>
</a>
</g>
</g>
<!-- Node3&#45;&gt;Node7 -->
<g id="edge6" class="edge">
<title>Node3&#45;&gt;Node7</title>
<path fill="none" stroke="#63b8ff" d="M376.89,-81.64C364.71,-79.54 352.15,-77.37 340.34,-75.32"/>
<polygon fill="#63b8ff" stroke="#63b8ff" points="375.99,-85.04 386.44,-83.29 377.18,-78.14 375.99,-85.04"/>
</g>
<!-- Node5 -->
<g id="node5" class="node">
<title>Node5</title>
<g id="a_node5"><a xlink:href="main_8cpp.html#a0ddf1224851353fc92bfbff6f499fa97" target="_top" xlink:title=" ">
<polygon fill="white" stroke="#666666" points="38,-93 0,-93 0,-74 38,-74 38,-93"/>
<text text-anchor="middle" x="19" y="-81" font-family="Helvetica,sans-Serif" font-size="10.00">main</text>
</a>
</g>
</g>
<!-- Node4&#45;&gt;Node5 -->
<g id="edge4" class="edge">
<title>Node4&#45;&gt;Node5</title>
<path fill="none" stroke="#63b8ff" d="M244.97,-134.01C202.2,-147.57 130.08,-163.33 74,-139.5 51.87,-130.1 34.41,-106.7 25.82,-93.31"/>
<polygon fill="#63b8ff" stroke="#63b8ff" points="245.87,-137.4 254.26,-130.93 243.67,-130.75 245.87,-137.4"/>
</g>
<!-- Node6 -->
<g id="node6" class="node">
<title>Node6</title>
<g id="a_node6"><a xlink:href="class_file_fixture.html#aed1771b5e05cdce7af6d69a50a7e4f6c" target="_top" xlink:title=" ">
<polygon fill="white" stroke="#666666" points="172.5,-130 90.5,-130 90.5,-111 172.5,-111 172.5,-130"/>
<text text-anchor="middle" x="131.5" y="-118" font-family="Helvetica,sans-Serif" font-size="10.00">FileFixture::run</text>
</a>
</g>
</g>
<!-- Node4&#45;&gt;Node6 -->
<g id="edge5" class="edge">
<title>Node4&#45;&gt;Node6</title>
<path fill="none" stroke="#63b8ff" d="M230.93,-120.5C212.02,-120.5 190.82,-120.5 172.94,-120.5"/>
<polygon fill="#63b8ff" stroke="#63b8ff" points="230.84,-124 240.84,-120.5 230.84,-117 230.84,-124"/>
</g>
<!-- Node8 -->
<g id="node8" class="node">
<title>Node8</title>
<g id="a_node8"><a xlink:href="class_kepler_fixture.html#a6f016bd99f6790e81e774b99c3d14594" target="_top" xlink:title=" ">
<polygon fill="white" stroke="#666666" points="189,-93 74,-93 74,-74 189,-74 189,-93"/>
<text text-anchor="middle" x="131.5" y="-81" font-family="Helvetica,sans-Serif" font-size="10.00">KeplerFixture::execute</text>
</a>
</g>
</g>
<!-- Node7&#45;&gt;Node8 -->
<g id="edge7" class="edge">
<title>Node7&#45;&gt;Node8</title>
<path fill="none" stroke="#63b8ff" d="M213.37,-73.73C205.25,-74.71 197.03,-75.7 189.1,-76.66"/>
<polygon fill="#63b8ff" stroke="#63b8ff" points="213.73,-77.21 223.24,-72.54 212.89,-70.26 213.73,-77.21"/>
</g>
<!-- Node9 -->
<g id="node9" class="node">
<title>Node9</title>
<g id="a_node9"><a xlink:href="class_general_fixture.html#a1502e9432f1e512a9b56f3e744090e81" target="_top" xlink:title=" ">
<polygon fill="white" stroke="#666666" points="181.5,-56 81.5,-56 81.5,-37 181.5,-37 181.5,-56"/>
<text text-anchor="middle" x="131.5" y="-44" font-family="Helvetica,sans-Serif" font-size="10.00">GeneralFixture::run</text>
</a>
</g>
</g>
<!-- Node7&#45;&gt;Node9 -->
<g id="edge8" class="edge">
<title>Node7&#45;&gt;Node9</title>
<path fill="none" stroke="#63b8ff" d="M213.66,-56.85C202.92,-55.48 192,-54.09 181.79,-52.79"/>
<polygon fill="#63b8ff" stroke="#63b8ff" points="212.88,-60.28 223.24,-58.07 213.77,-53.33 212.88,-60.28"/>
</g>
<!-- Node10 -->
<g id="node10" class="node">
<title>Node10</title>
<g id="a_node10"><a xlink:href="namespacekepler.html#a2eea97746f0ae5fd054d304271c171f5" target="_top" xlink:title=" ">
<polygon fill="white" stroke="#666666" points="173,-19 90,-19 90,0 173,0 173,-19"/>
<text text-anchor="middle" x="131.5" y="-7" font-family="Helvetica,sans-Serif" font-size="10.00">kepler::run_repl</text>
</a>
</g>
</g>
<!-- Node7&#45;&gt;Node10 -->
<g id="edge9" class="edge">
<title>Node7&#45;&gt;Node10</title>
<path fill="none" stroke="#63b8ff" d="M248.6,-51.22C231.05,-43.8 208.99,-34.78 189,-27.5 181.36,-24.72 173.05,-21.94 165.22,-19.43"/>
<polygon fill="#63b8ff" stroke="#63b8ff" points="246.93,-54.31 257.5,-55.02 249.67,-47.87 246.93,-54.31"/>
</g>
<!-- Node10&#45;&gt;Node5 -->
<g id="edge10" class="edge">
<title>Node10&#45;&gt;Node5</title>
<path fill="none" stroke="#63b8ff" d="M80.19,-24.03C78.05,-25.11 75.98,-26.27 74,-27.5 54.04,-39.9 36.27,-61.32 26.93,-73.76"/>
<polygon fill="#63b8ff" stroke="#63b8ff" points="81.37,-27.34 89.1,-20.1 78.54,-20.93 81.37,-27.34"/>
</g>
</g>
</svg>
