<?xml version="1.0" encoding="UTF-8" standalone="no"?>
<!DOCTYPE svg PUBLIC "-//W3C//DTD SVG 1.1//EN"
 "http://www.w3.org/Graphics/SVG/1.1/DTD/svg11.dtd">
<!-- Generated by graphviz version 7.1.0 (20230121.1956)
 -->
<!-- Title: kepler::Token::to_string Pages: 1 -->
<svg width="301pt" height="392pt"
 viewBox="0.00 0.00 301.00 392.00" xmlns="http://www.w3.org/2000/svg" xmlns:xlink="http://www.w3.org/1999/xlink">
<g id="graph0" class="graph" transform="scale(1 1) rotate(0) translate(4 388)">
<title>kepler::Token::to_string</title>
<!-- Node1 -->
<g id="node1" class="node">
<title>Node1</title>
<g id="a_node1"><a xlink:title=" ">
<polygon fill="#999999" stroke="#666666" points="293,-192.5 174,-192.5 174,-173.5 293,-173.5 293,-192.5"/>
<text text-anchor="middle" x="233.5" y="-180.5" font-family="Helvetica,sans-Serif" font-size="10.00">kepler::Token::to_string</text>
</a>
</g>
</g>
<!-- Node2 -->
<g id="node2" class="node">
<title>Node2</title>
<g id="a_node2"><a xlink:href="structkepler_1_1_scalar.html#a89e38869e89dd82c3b930d8c1f5a9a5d" target="_top" xlink:title=" ">
<polygon fill="white" stroke="#666666" points="114.5,-384 23.5,-384 23.5,-354 114.5,-354 114.5,-384"/>
<text text-anchor="start" x="31.5" y="-372" font-family="Helvetica,sans-Serif" font-size="10.00">kepler::Scalar::to</text>
<text text-anchor="middle" x="69" y="-361" font-family="Helvetica,sans-Serif" font-size="10.00">_string</text>
</a>
</g>
</g>
<!-- Node1&#45;&gt;Node2 -->
<g id="edge1" class="edge">
<title>Node1&#45;&gt;Node2</title>
<path fill="none" stroke="#63b8ff" d="M225.82,-203.53C213.7,-237.67 184.91,-306.2 138,-345 131.25,-350.59 123.1,-354.91 114.83,-358.25"/>
<polygon fill="#63b8ff" stroke="#63b8ff" points="229.01,-205.02 228.93,-194.42 222.39,-202.76 229.01,-205.02"/>
</g>
<!-- Node3 -->
<g id="node3" class="node">
<title>Node3</title>
<g id="a_node3"><a xlink:href="structkepler_1_1_monadic_operator.html#ad47eac20736f552b300d760d0f527e8b" target="_top" xlink:title=" ">
<polygon fill="white" stroke="#666666" points="130.5,-336 7.5,-336 7.5,-306 130.5,-306 130.5,-336"/>
<text text-anchor="start" x="15.5" y="-324" font-family="Helvetica,sans-Serif" font-size="10.00">kepler::MonadicOperator</text>
<text text-anchor="middle" x="69" y="-313" font-family="Helvetica,sans-Serif" font-size="10.00">::to_string</text>
</a>
</g>
</g>
<!-- Node1&#45;&gt;Node3 -->
<g id="edge2" class="edge">
<title>Node1&#45;&gt;Node3</title>
<path fill="none" stroke="#63b8ff" d="M221.19,-202.29C205.51,-227.44 174.9,-271.27 138,-297 133.38,-300.22 128.28,-303.05 123.02,-305.53"/>
<polygon fill="#63b8ff" stroke="#63b8ff" points="223.99,-204.42 226.18,-194.05 218,-200.79 223.99,-204.42"/>
</g>
<!-- Node4 -->
<g id="node4" class="node">
<title>Node4</title>
<g id="a_node4"><a xlink:href="structkepler_1_1_dyadic_operator.html#a8cb2f1e4a2d624fe2f3731f7d62527fa" target="_top" xlink:title=" ">
<polygon fill="white" stroke="#666666" points="127.5,-270 10.5,-270 10.5,-240 127.5,-240 127.5,-270"/>
<text text-anchor="start" x="18.5" y="-258" font-family="Helvetica,sans-Serif" font-size="10.00">kepler::DyadicOperator</text>
<text text-anchor="middle" x="69" y="-247" font-family="Helvetica,sans-Serif" font-size="10.00">::to_string</text>
</a>
</g>
</g>
<!-- Node1&#45;&gt;Node4 -->
<g id="edge3" class="edge">
<title>Node1&#45;&gt;Node4</title>
<path fill="none" stroke="#63b8ff" d="M204.6,-198.39C186.02,-208.33 160.91,-221.19 138,-231 131.1,-233.96 123.69,-236.85 116.4,-239.54"/>
<polygon fill="#63b8ff" stroke="#63b8ff" points="206.25,-201.47 213.39,-193.64 202.92,-195.31 206.25,-201.47"/>
</g>
<!-- Node5 -->
<g id="node5" class="node">
<title>Node5</title>
<g id="a_node5"><a xlink:href="structkepler_1_1_function.html#af750233fbd94850bd37e94d854a145a8" target="_top" xlink:title=" ">
<polygon fill="white" stroke="#666666" points="119.5,-222 18.5,-222 18.5,-192 119.5,-192 119.5,-222"/>
<text text-anchor="start" x="26.5" y="-210" font-family="Helvetica,sans-Serif" font-size="10.00">kepler::Function::to</text>
<text text-anchor="middle" x="69" y="-199" font-family="Helvetica,sans-Serif" font-size="10.00">_string</text>
</a>
</g>
</g>
<!-- Node1&#45;&gt;Node5 -->
<g id="edge5" class="edge">
<title>Node1&#45;&gt;Node5</title>
<path fill="none" stroke="#63b8ff" d="M162.5,-193.34C148.2,-195.45 133.43,-197.63 120,-199.62"/>
<polygon fill="#63b8ff" stroke="#63b8ff" points="162.96,-196.81 172.34,-191.89 161.93,-189.88 162.96,-196.81"/>
</g>
<!-- Node6 -->
<g id="node6" class="node">
<title>Node6</title>
<g id="a_node6"><a xlink:href="structkepler_1_1_function_assignment.html#ac6cf83d532386295fe7215c44e06145c" target="_top" xlink:title=" ">
<polygon fill="white" stroke="#666666" points="138,-174 0,-174 0,-144 138,-144 138,-174"/>
<text text-anchor="start" x="8" y="-162" font-family="Helvetica,sans-Serif" font-size="10.00">kepler::FunctionAssignment</text>
<text text-anchor="middle" x="69" y="-151" font-family="Helvetica,sans-Serif" font-size="10.00">::to_string</text>
</a>
</g>
</g>
<!-- Node1&#45;&gt;Node6 -->
<g id="edge6" class="edge">
<title>Node1&#45;&gt;Node6</title>
<path fill="none" stroke="#63b8ff" d="M162.57,-172.67C154.51,-171.48 146.29,-170.27 138.25,-169.08"/>
<polygon fill="#63b8ff" stroke="#63b8ff" points="161.93,-176.12 172.34,-174.11 162.96,-169.19 161.93,-176.12"/>
</g>
<!-- Node7 -->
<g id="node7" class="node">
<title>Node7</title>
<g id="a_node7"><a xlink:href="structkepler_1_1_assignment.html#a634e6e75b9523874244dc0a770ba9dc4" target="_top" xlink:title=" ">
<polygon fill="white" stroke="#666666" points="119.5,-126 18.5,-126 18.5,-96 119.5,-96 119.5,-126"/>
<text text-anchor="start" x="26.5" y="-114" font-family="Helvetica,sans-Serif" font-size="10.00">kepler::Assignment</text>
<text text-anchor="middle" x="69" y="-103" font-family="Helvetica,sans-Serif" font-size="10.00">::to_string</text>
</a>
</g>
</g>
<!-- Node1&#45;&gt;Node7 -->
<g id="edge7" class="edge">
<title>Node1&#45;&gt;Node7</title>
<path fill="none" stroke="#63b8ff" d="M204.6,-167.61C186.02,-157.67 160.91,-144.81 138,-135 131.1,-132.04 123.69,-129.15 116.4,-126.46"/>
<polygon fill="#63b8ff" stroke="#63b8ff" points="202.92,-170.69 213.39,-172.36 206.25,-164.53 202.92,-170.69"/>
</g>
<!-- Node8 -->
<g id="node8" class="node">
<title>Node8</title>
<g id="a_node8"><a xlink:href="structkepler_1_1_variable.html#afaf5f443c9a3d8aed396e31d0b70ffac" target="_top" xlink:title=" ">
<polygon fill="white" stroke="#666666" points="118,-78 20,-78 20,-48 118,-48 118,-78"/>
<text text-anchor="start" x="28" y="-66" font-family="Helvetica,sans-Serif" font-size="10.00">kepler::Variable::to</text>
<text text-anchor="middle" x="69" y="-55" font-family="Helvetica,sans-Serif" font-size="10.00">_string</text>
</a>
</g>
</g>
<!-- Node1&#45;&gt;Node8 -->
<g id="edge8" class="edge">
<title>Node1&#45;&gt;Node8</title>
<path fill="none" stroke="#63b8ff" d="M218.27,-164.04C201.3,-142.62 171.05,-108.01 138,-87 131.98,-83.17 125.27,-79.86 118.47,-77.02"/>
<polygon fill="#63b8ff" stroke="#63b8ff" points="215.48,-166.15 224.37,-171.92 221.02,-161.87 215.48,-166.15"/>
</g>
<!-- Node9 -->
<g id="node9" class="node">
<title>Node9</title>
<g id="a_node9"><a xlink:href="structkepler_1_1_function_variable.html#a6e457557412d6d63dca30b07de2fa600" target="_top" xlink:title=" ">
<polygon fill="white" stroke="#666666" points="129.5,-30 8.5,-30 8.5,0 129.5,0 129.5,-30"/>
<text text-anchor="start" x="16.5" y="-18" font-family="Helvetica,sans-Serif" font-size="10.00">kepler::FunctionVariable</text>
<text text-anchor="middle" x="69" y="-7" font-family="Helvetica,sans-Serif" font-size="10.00">::to_string</text>
</a>
</g>
</g>
<!-- Node1&#45;&gt;Node9 -->
<g id="edge9" class="edge">
<title>Node1&#45;&gt;Node9</title>
<path fill="none" stroke="#63b8ff" d="M224.26,-162.61C210.75,-131.62 180.99,-72.69 138,-39 133.86,-35.76 129.25,-32.93 124.43,-30.48"/>
<polygon fill="#63b8ff" stroke="#63b8ff" points="220.95,-163.76 228.05,-171.62 227.4,-161.04 220.95,-163.76"/>
</g>
<!-- Node4&#45;&gt;Node4 -->
<g id="edge4" class="edge">
<title>Node4&#45;&gt;Node4</title>
<path fill="none" stroke="#63b8ff" d="M96.76,-281.61C92.31,-285.43 83.06,-288 69,-288 43.3,-288 33.66,-279.41 40.08,-270.28"/>
<polygon fill="#63b8ff" stroke="#63b8ff" points="100.23,-282.09 97.76,-271.78 93.26,-281.37 100.23,-282.09"/>
</g>
</g>
</svg>
