<?xml version="1.0" encoding="UTF-8" standalone="no"?>
<!DOCTYPE svg PUBLIC "-//W3C//DTD SVG 1.1//EN"
 "http://www.w3.org/Graphics/SVG/1.1/DTD/svg11.dtd">
<!-- Generated by graphviz version 7.1.0 (20230121.1956)
 -->
<!-- Title: kepler::Statements Pages: 1 -->
<svg width="462pt" height="877pt"
 viewBox="0.00 0.00 461.50 877.00" xmlns="http://www.w3.org/2000/svg" xmlns:xlink="http://www.w3.org/1999/xlink">
<g id="graph0" class="graph" transform="scale(1 1) rotate(0) translate(4 873)">
<title>kepler::Statements</title>
<!-- Node1 -->
<g id="node1" class="node">
<title>Node1</title>
<g id="a_node1"><a xlink:title=" ">
<polygon fill="#999999" stroke="#666666" points="162.5,-0.5 162.5,-145.5 296.5,-145.5 296.5,-0.5 162.5,-0.5"/>
<text text-anchor="middle" x="229.5" y="-133.5" font-family="Helvetica,sans-Serif" font-size="10.00">kepler::Statements</text>
<polyline fill="none" stroke="#666666" points="162.5,-126.5 296.5,-126.5"/>
<text text-anchor="middle" x="229.5" y="-114.5" font-family="Helvetica,sans-Serif" font-size="10.00"> </text>
<polyline fill="none" stroke="#666666" points="162.5,-107.5 296.5,-107.5"/>
<text text-anchor="start" x="170.5" y="-95.5" font-family="Helvetica,sans-Serif" font-size="10.00">+ ~Statements() override</text>
<text text-anchor="start" x="170.5" y="-84.5" font-family="Helvetica,sans-Serif" font-size="10.00">+ Statements(std::vector</text>
<text text-anchor="start" x="170.5" y="-73.5" font-family="Helvetica,sans-Serif" font-size="10.00">&lt; ASTNode&lt; Array &gt; * &gt;</text>
<text text-anchor="start" x="170.5" y="-62.5" font-family="Helvetica,sans-Serif" font-size="10.00"> children_, SymbolTable</text>
<text text-anchor="start" x="170.5" y="-51.5" font-family="Helvetica,sans-Serif" font-size="10.00"> *symbol_table)</text>
<text text-anchor="start" x="170.5" y="-40.5" font-family="Helvetica,sans-Serif" font-size="10.00">+ std::string to_string</text>
<text text-anchor="start" x="170.5" y="-29.5" font-family="Helvetica,sans-Serif" font-size="10.00">() const override</text>
<text text-anchor="start" x="170.5" y="-18.5" font-family="Helvetica,sans-Serif" font-size="10.00">+ Array accept(NodeVisitor</text>
<text text-anchor="start" x="170.5" y="-7.5" font-family="Helvetica,sans-Serif" font-size="10.00"> &amp;visitor) override</text>
</a>
</g>
</g>
<!-- Node2 -->
<g id="node2" class="node">
<title>Node2</title>
<g id="a_node2"><a xlink:href="structkepler_1_1_a_s_t_node.html" target="_top" xlink:title=" ">
<polygon fill="white" stroke="#666666" points="0,-320 0,-432 147,-432 147,-320 0,-320"/>
<text text-anchor="middle" x="73.5" y="-420" font-family="Helvetica,sans-Serif" font-size="10.00">kepler::ASTNode&lt; Array &gt;</text>
<polyline fill="none" stroke="#666666" points="0,-413 147,-413"/>
<text text-anchor="middle" x="73.5" y="-401" font-family="Helvetica,sans-Serif" font-size="10.00"> </text>
<polyline fill="none" stroke="#666666" points="0,-394 147,-394"/>
<text text-anchor="start" x="8" y="-382" font-family="Helvetica,sans-Serif" font-size="10.00">+ virtual ~ASTNode()</text>
<text text-anchor="start" x="8" y="-371" font-family="Helvetica,sans-Serif" font-size="10.00">=default</text>
<text text-anchor="start" x="8" y="-360" font-family="Helvetica,sans-Serif" font-size="10.00">+ virtual Array accept</text>
<text text-anchor="start" x="8" y="-349" font-family="Helvetica,sans-Serif" font-size="10.00">(class NodeVisitor &amp;visitor)=0</text>
<text text-anchor="start" x="8" y="-338" font-family="Helvetica,sans-Serif" font-size="10.00">+ virtual std::string</text>
<text text-anchor="start" x="8" y="-327" font-family="Helvetica,sans-Serif" font-size="10.00"> to_string() const=0</text>
</a>
</g>
</g>
<!-- Node2&#45;&gt;Node1 -->
<g id="edge1" class="edge">
<title>Node2&#45;&gt;Node1</title>
<path fill="none" stroke="#63b8ff" d="M100.89,-309.87C116.23,-274.75 136.31,-230.95 156.5,-193 164.87,-177.27 174.45,-160.77 183.86,-145.23"/>
<polygon fill="none" stroke="#63b8ff" points="97.87,-308.05 97.09,-318.62 104.29,-310.84 97.87,-308.05"/>
</g>
<!-- Node3 -->
<g id="node3" class="node">
<title>Node3</title>
<g id="a_node3"><a xlink:href="structkepler_1_1_position.html" target="_top" xlink:title=" ">
<polygon fill="white" stroke="#666666" points="9.5,-756.5 9.5,-868.5 129.5,-868.5 129.5,-756.5 9.5,-756.5"/>
<text text-anchor="middle" x="69.5" y="-856.5" font-family="Helvetica,sans-Serif" font-size="10.00">kepler::Position</text>
<polyline fill="none" stroke="#666666" points="9.5,-849.5 129.5,-849.5"/>
<text text-anchor="middle" x="69.5" y="-837.5" font-family="Helvetica,sans-Serif" font-size="10.00"> </text>
<polyline fill="none" stroke="#666666" points="9.5,-830.5 129.5,-830.5"/>
<text text-anchor="start" x="17.5" y="-818.5" font-family="Helvetica,sans-Serif" font-size="10.00">+ Position()</text>
<text text-anchor="start" x="17.5" y="-807.5" font-family="Helvetica,sans-Serif" font-size="10.00">+ Position(long pos_)</text>
<text text-anchor="start" x="17.5" y="-796.5" font-family="Helvetica,sans-Serif" font-size="10.00">+ void set_position(long</text>
<text text-anchor="start" x="17.5" y="-785.5" font-family="Helvetica,sans-Serif" font-size="10.00"> new_pos)</text>
<text text-anchor="start" x="17.5" y="-774.5" font-family="Helvetica,sans-Serif" font-size="10.00">+ long get_position()</text>
<text text-anchor="start" x="17.5" y="-763.5" font-family="Helvetica,sans-Serif" font-size="10.00"> const</text>
</a>
</g>
</g>
<!-- Node3&#45;&gt;Node2 -->
<g id="edge2" class="edge">
<title>Node3&#45;&gt;Node2</title>
<path fill="none" stroke="#63b8ff" d="M70.11,-745.49C70.9,-659.72 72.26,-511.53 73,-431.71"/>
<polygon fill="none" stroke="#63b8ff" points="66.61,-745.36 70.02,-755.4 73.61,-745.43 66.61,-745.36"/>
</g>
<!-- Node4 -->
<g id="node4" class="node">
<title>Node4</title>
<g id="a_node4"><a xlink:href="structkepler_1_1_a_s_t_node.html" target="_top" xlink:title=" ">
<polygon fill="white" stroke="#666666" points="86,-606.5 86,-718.5 207,-718.5 207,-606.5 86,-606.5"/>
<text text-anchor="middle" x="146.5" y="-706.5" font-family="Helvetica,sans-Serif" font-size="10.00">kepler::ASTNode&lt; T &gt;</text>
<polyline fill="none" stroke="#666666" points="86,-699.5 207,-699.5"/>
<text text-anchor="middle" x="146.5" y="-687.5" font-family="Helvetica,sans-Serif" font-size="10.00"> </text>
<polyline fill="none" stroke="#666666" points="86,-680.5 207,-680.5"/>
<text text-anchor="start" x="94" y="-668.5" font-family="Helvetica,sans-Serif" font-size="10.00">+ virtual ~ASTNode()</text>
<text text-anchor="start" x="94" y="-657.5" font-family="Helvetica,sans-Serif" font-size="10.00">=default</text>
<text text-anchor="start" x="94" y="-646.5" font-family="Helvetica,sans-Serif" font-size="10.00">+ virtual T accept(class</text>
<text text-anchor="start" x="94" y="-635.5" font-family="Helvetica,sans-Serif" font-size="10.00"> NodeVisitor &amp;visitor)=0</text>
<text text-anchor="start" x="94" y="-624.5" font-family="Helvetica,sans-Serif" font-size="10.00">+ virtual std::string</text>
<text text-anchor="start" x="94" y="-613.5" font-family="Helvetica,sans-Serif" font-size="10.00"> to_string() const =0</text>
</a>
</g>
</g>
<!-- Node3&#45;&gt;Node4 -->
<g id="edge4" class="edge">
<title>Node3&#45;&gt;Node4</title>
<path fill="none" stroke="#63b8ff" d="M103.21,-746.7C108.11,-737.28 113.12,-727.66 117.91,-718.46"/>
<polygon fill="none" stroke="#63b8ff" points="100.16,-744.98 98.65,-755.47 106.37,-748.21 100.16,-744.98"/>
</g>
<!-- Node4&#45;&gt;Node2 -->
<g id="edge3" class="edge">
<title>Node4&#45;&gt;Node2</title>
<path fill="none" stroke="orange" d="M129.61,-595.68C116.85,-545.94 99.54,-478.47 87.53,-431.69"/>
<polygon fill="orange" stroke="orange" points="126.17,-596.36 132.05,-605.18 132.95,-594.62 126.17,-596.36"/>
<text text-anchor="middle" x="149.5" y="-580" font-family="Helvetica,sans-Serif" font-size="10.00"> &lt; Array &gt;</text>
</g>
<!-- Node5 -->
<g id="node5" class="node">
<title>Node5</title>
<g id="a_node5"><a xlink:title=" ">
<polygon fill="white" stroke="#666666" points="165.5,-342 165.5,-410 293.5,-410 293.5,-342 165.5,-342"/>
<text text-anchor="start" x="173.5" y="-398" font-family="Helvetica,sans-Serif" font-size="10.00">vector&lt; kepler::ASTNode</text>
<text text-anchor="middle" x="229.5" y="-387" font-family="Helvetica,sans-Serif" font-size="10.00">&lt; kepler::Array &gt; * &gt;</text>
<polyline fill="none" stroke="#666666" points="165.5,-380 293.5,-380"/>
<text text-anchor="middle" x="229.5" y="-368" font-family="Helvetica,sans-Serif" font-size="10.00"> </text>
<polyline fill="none" stroke="#666666" points="165.5,-361 293.5,-361"/>
<text text-anchor="middle" x="229.5" y="-349" font-family="Helvetica,sans-Serif" font-size="10.00"> </text>
</a>
</g>
</g>
<!-- Node5&#45;&gt;Node1 -->
<g id="edge5" class="edge">
<title>Node5&#45;&gt;Node1</title>
<path fill="none" stroke="#404040" d="M229.5,-342.21C229.5,-298.4 229.5,-219.2 229.5,-158.18"/>
<polygon fill="none" stroke="#404040" points="229.5,-158.36 225.5,-152.36 229.5,-146.36 233.5,-152.36 229.5,-158.36"/>
<text text-anchor="middle" x="251" y="-167" font-family="Helvetica,sans-Serif" font-size="10.00"> +children</text>
</g>
<!-- Node6 -->
<g id="node6" class="node">
<title>Node6</title>
<g id="a_node6"><a xlink:href="classkepler_1_1_symbol_table.html" target="_top" xlink:title=" ">
<polygon fill="white" stroke="#666666" points="311.5,-193.5 311.5,-558.5 453.5,-558.5 453.5,-193.5 311.5,-193.5"/>
<text text-anchor="middle" x="382.5" y="-546.5" font-family="Helvetica,sans-Serif" font-size="10.00">kepler::SymbolTable</text>
<polyline fill="none" stroke="#666666" points="311.5,-539.5 453.5,-539.5"/>
<text text-anchor="middle" x="382.5" y="-527.5" font-family="Helvetica,sans-Serif" font-size="10.00"> </text>
<polyline fill="none" stroke="#666666" points="311.5,-520.5 453.5,-520.5"/>
<text text-anchor="start" x="319.5" y="-508.5" font-family="Helvetica,sans-Serif" font-size="10.00">+ SymbolTable()</text>
<text text-anchor="start" x="319.5" y="-497.5" font-family="Helvetica,sans-Serif" font-size="10.00">+ SymbolTable(SymbolTable</text>
<text text-anchor="start" x="319.5" y="-486.5" font-family="Helvetica,sans-Serif" font-size="10.00"> *parent)</text>
<text text-anchor="start" x="319.5" y="-475.5" font-family="Helvetica,sans-Serif" font-size="10.00">+ ~SymbolTable()</text>
<text text-anchor="start" x="319.5" y="-464.5" font-family="Helvetica,sans-Serif" font-size="10.00">+ void attach_parent</text>
<text text-anchor="start" x="319.5" y="-453.5" font-family="Helvetica,sans-Serif" font-size="10.00">(SymbolTable *parent)</text>
<text text-anchor="start" x="319.5" y="-442.5" font-family="Helvetica,sans-Serif" font-size="10.00">+ bool contains(const</text>
<text text-anchor="start" x="319.5" y="-431.5" font-family="Helvetica,sans-Serif" font-size="10.00"> String &amp;id) const</text>
<text text-anchor="start" x="319.5" y="-420.5" font-family="Helvetica,sans-Serif" font-size="10.00">+ const T &amp; get(const</text>
<text text-anchor="start" x="319.5" y="-409.5" font-family="Helvetica,sans-Serif" font-size="10.00"> String &amp;id) const</text>
<text text-anchor="start" x="319.5" y="-398.5" font-family="Helvetica,sans-Serif" font-size="10.00">+ SymbolType get_type</text>
<text text-anchor="start" x="319.5" y="-387.5" font-family="Helvetica,sans-Serif" font-size="10.00">(const String &amp;id) const</text>
<text text-anchor="start" x="319.5" y="-376.5" font-family="Helvetica,sans-Serif" font-size="10.00">+ void set(const String</text>
<text text-anchor="start" x="319.5" y="-365.5" font-family="Helvetica,sans-Serif" font-size="10.00"> &amp;id, const Array &amp;value,</text>
<text text-anchor="start" x="319.5" y="-354.5" font-family="Helvetica,sans-Serif" font-size="10.00"> bool locally_only=false)</text>
<text text-anchor="start" x="319.5" y="-343.5" font-family="Helvetica,sans-Serif" font-size="10.00">+ void set(const String</text>
<text text-anchor="start" x="319.5" y="-332.5" font-family="Helvetica,sans-Serif" font-size="10.00"> &amp;id, const Operation</text>
<text text-anchor="start" x="319.5" y="-321.5" font-family="Helvetica,sans-Serif" font-size="10.00">_ptr &amp;value, bool locally</text>
<text text-anchor="start" x="319.5" y="-310.5" font-family="Helvetica,sans-Serif" font-size="10.00">_only=false)</text>
<text text-anchor="start" x="319.5" y="-299.5" font-family="Helvetica,sans-Serif" font-size="10.00">+ void set(const String</text>
<text text-anchor="start" x="319.5" y="-288.5" font-family="Helvetica,sans-Serif" font-size="10.00"> &amp;id, const Number &amp;value,</text>
<text text-anchor="start" x="319.5" y="-277.5" font-family="Helvetica,sans-Serif" font-size="10.00"> bool locally_only=false)</text>
<text text-anchor="start" x="319.5" y="-266.5" font-family="Helvetica,sans-Serif" font-size="10.00">+ void remove(const String</text>
<text text-anchor="start" x="319.5" y="-255.5" font-family="Helvetica,sans-Serif" font-size="10.00"> &amp;id, bool locally_only=false)</text>
<text text-anchor="start" x="319.5" y="-244.5" font-family="Helvetica,sans-Serif" font-size="10.00">+ void bind_function</text>
<text text-anchor="start" x="319.5" y="-233.5" font-family="Helvetica,sans-Serif" font-size="10.00">(const String &amp;id)</text>
<text text-anchor="start" x="319.5" y="-222.5" font-family="Helvetica,sans-Serif" font-size="10.00">+ void clear()</text>
<text text-anchor="start" x="319.5" y="-211.5" font-family="Helvetica,sans-Serif" font-size="10.00">+ void insert_system</text>
<text text-anchor="start" x="319.5" y="-200.5" font-family="Helvetica,sans-Serif" font-size="10.00">_parameters()</text>
</a>
</g>
</g>
<!-- Node6&#45;&gt;Node1 -->
<g id="edge6" class="edge">
<title>Node6&#45;&gt;Node1</title>
<path fill="none" stroke="#404040" d="M311.58,-210.8C308.57,-204.76 305.54,-198.81 302.5,-193 296.22,-181 289.2,-168.56 282.07,-156.46"/>
<polygon fill="none" stroke="#404040" points="282.11,-156.54 275.6,-153.43 275.96,-146.23 282.47,-149.33 282.11,-156.54"/>
<text text-anchor="middle" x="325" y="-167" font-family="Helvetica,sans-Serif" font-size="10.00"> +symbol_table</text>
</g>
</g>
</svg>
