<?xml version="1.0" encoding="UTF-8" standalone="no"?>
<!DOCTYPE svg PUBLIC "-//W3C//DTD SVG 1.1//EN"
 "http://www.w3.org/Graphics/SVG/1.1/DTD/svg11.dtd">
<!-- Generated by graphviz version 7.1.0 (20230121.1956)
 -->
<!-- Title: kepler::ASTNode::to_string Pages: 1 -->
<svg width="288pt" height="344pt"
 viewBox="0.00 0.00 288.00 344.00" xmlns="http://www.w3.org/2000/svg" xmlns:xlink="http://www.w3.org/1999/xlink">
<g id="graph0" class="graph" transform="scale(1 1) rotate(0) translate(4 340)">
<title>kepler::ASTNode::to_string</title>
<!-- Node1 -->
<g id="node1" class="node">
<title>Node1</title>
<g id="a_node1"><a xlink:title=" ">
<polygon fill="#999999" stroke="#666666" points="280,-174 174,-174 174,-144 280,-144 280,-174"/>
<text text-anchor="start" x="182" y="-162" font-family="Helvetica,sans-Serif" font-size="10.00">kepler::ASTNode::to</text>
<text text-anchor="middle" x="227" y="-151" font-family="Helvetica,sans-Serif" font-size="10.00">_string</text>
</a>
</g>
</g>
<!-- Node2 -->
<g id="node2" class="node">
<title>Node2</title>
<g id="a_node2"><a xlink:href="structkepler_1_1_monadic_operator.html#ad47eac20736f552b300d760d0f527e8b" target="_top" xlink:title=" ">
<polygon fill="white" stroke="#666666" points="130.5,-336 7.5,-336 7.5,-306 130.5,-306 130.5,-336"/>
<text text-anchor="start" x="15.5" y="-324" font-family="Helvetica,sans-Serif" font-size="10.00">kepler::MonadicOperator</text>
<text text-anchor="middle" x="69" y="-313" font-family="Helvetica,sans-Serif" font-size="10.00">::to_string</text>
</a>
</g>
</g>
<!-- Node1&#45;&gt;Node2 -->
<g id="edge1" class="edge">
<title>Node1&#45;&gt;Node2</title>
<path fill="none" stroke="#63b8ff" d="M215.92,-184.54C202.53,-215.36 176.05,-266.78 138,-297 133.88,-300.27 129.29,-303.11 124.48,-305.58"/>
<polygon fill="#63b8ff" stroke="#63b8ff" points="219.03,-186.17 219.67,-175.6 212.58,-183.46 219.03,-186.17"/>
</g>
<!-- Node3 -->
<g id="node3" class="node">
<title>Node3</title>
<g id="a_node3"><a xlink:href="structkepler_1_1_dyadic_operator.html#a8cb2f1e4a2d624fe2f3731f7d62527fa" target="_top" xlink:title=" ">
<polygon fill="white" stroke="#666666" points="127.5,-270 10.5,-270 10.5,-240 127.5,-240 127.5,-270"/>
<text text-anchor="start" x="18.5" y="-258" font-family="Helvetica,sans-Serif" font-size="10.00">kepler::DyadicOperator</text>
<text text-anchor="middle" x="69" y="-247" font-family="Helvetica,sans-Serif" font-size="10.00">::to_string</text>
</a>
</g>
</g>
<!-- Node1&#45;&gt;Node3 -->
<g id="edge2" class="edge">
<title>Node1&#45;&gt;Node3</title>
<path fill="none" stroke="#63b8ff" d="M202.57,-182.01C185.73,-197.53 161.88,-217.56 138,-231 132.44,-234.13 126.39,-236.97 120.27,-239.5"/>
<polygon fill="#63b8ff" stroke="#63b8ff" points="204.71,-184.8 209.6,-175.39 199.92,-179.7 204.71,-184.8"/>
</g>
<!-- Node4 -->
<g id="node4" class="node">
<title>Node4</title>
<g id="a_node4"><a xlink:href="structkepler_1_1_monadic_function.html#aa56832dd3dddbd9ae32cdf64992465cf" target="_top" xlink:title=" ">
<polygon fill="white" stroke="#666666" points="130.5,-222 7.5,-222 7.5,-192 130.5,-192 130.5,-222"/>
<text text-anchor="start" x="15.5" y="-210" font-family="Helvetica,sans-Serif" font-size="10.00">kepler::MonadicFunction</text>
<text text-anchor="middle" x="69" y="-199" font-family="Helvetica,sans-Serif" font-size="10.00">::to_string</text>
</a>
</g>
</g>
<!-- Node1&#45;&gt;Node4 -->
<g id="edge4" class="edge">
<title>Node1&#45;&gt;Node4</title>
<path fill="none" stroke="#63b8ff" d="M165.12,-177.73C150.23,-182.32 134.45,-187.17 120.12,-191.58"/>
<polygon fill="#63b8ff" stroke="#63b8ff" points="165.81,-181.18 174.34,-174.9 163.75,-174.49 165.81,-181.18"/>
</g>
<!-- Node5 -->
<g id="node5" class="node">
<title>Node5</title>
<g id="a_node5"><a xlink:href="structkepler_1_1_dyadic_function.html#adb551d9a0293432748c7e5081ff9a1c0" target="_top" xlink:title=" ">
<polygon fill="white" stroke="#666666" points="127.5,-174 10.5,-174 10.5,-144 127.5,-144 127.5,-174"/>
<text text-anchor="start" x="18.5" y="-162" font-family="Helvetica,sans-Serif" font-size="10.00">kepler::DyadicFunction</text>
<text text-anchor="middle" x="69" y="-151" font-family="Helvetica,sans-Serif" font-size="10.00">::to_string</text>
</a>
</g>
</g>
<!-- Node1&#45;&gt;Node5 -->
<g id="edge5" class="edge">
<title>Node1&#45;&gt;Node5</title>
<path fill="none" stroke="#63b8ff" d="M162.38,-159C150.96,-159 139.12,-159 127.88,-159"/>
<polygon fill="#63b8ff" stroke="#63b8ff" points="162.11,-162.5 172.11,-159 162.11,-155.5 162.11,-162.5"/>
</g>
<!-- Node6 -->
<g id="node6" class="node">
<title>Node6</title>
<g id="a_node6"><a xlink:href="structkepler_1_1_function_assignment.html#ac6cf83d532386295fe7215c44e06145c" target="_top" xlink:title=" ">
<polygon fill="white" stroke="#666666" points="138,-126 0,-126 0,-96 138,-96 138,-126"/>
<text text-anchor="start" x="8" y="-114" font-family="Helvetica,sans-Serif" font-size="10.00">kepler::FunctionAssignment</text>
<text text-anchor="middle" x="69" y="-103" font-family="Helvetica,sans-Serif" font-size="10.00">::to_string</text>
</a>
</g>
</g>
<!-- Node1&#45;&gt;Node6 -->
<g id="edge6" class="edge">
<title>Node1&#45;&gt;Node6</title>
<path fill="none" stroke="#63b8ff" d="M165.12,-140.27C150.23,-135.68 134.45,-130.83 120.12,-126.42"/>
<polygon fill="#63b8ff" stroke="#63b8ff" points="163.75,-143.51 174.34,-143.1 165.81,-136.82 163.75,-143.51"/>
</g>
<!-- Node7 -->
<g id="node7" class="node">
<title>Node7</title>
<g id="a_node7"><a xlink:href="structkepler_1_1_assignment.html#a634e6e75b9523874244dc0a770ba9dc4" target="_top" xlink:title=" ">
<polygon fill="white" stroke="#666666" points="119.5,-78 18.5,-78 18.5,-48 119.5,-48 119.5,-78"/>
<text text-anchor="start" x="26.5" y="-66" font-family="Helvetica,sans-Serif" font-size="10.00">kepler::Assignment</text>
<text text-anchor="middle" x="69" y="-55" font-family="Helvetica,sans-Serif" font-size="10.00">::to_string</text>
</a>
</g>
</g>
<!-- Node1&#45;&gt;Node7 -->
<g id="edge7" class="edge">
<title>Node1&#45;&gt;Node7</title>
<path fill="none" stroke="#63b8ff" d="M202.57,-135.99C185.73,-120.47 161.88,-100.44 138,-87 132.33,-83.81 126.15,-80.92 119.91,-78.35"/>
<polygon fill="#63b8ff" stroke="#63b8ff" points="199.92,-138.3 209.6,-142.61 204.71,-133.2 199.92,-138.3"/>
</g>
<!-- Node8 -->
<g id="node8" class="node">
<title>Node8</title>
<g id="a_node8"><a xlink:href="structkepler_1_1_conditional.html#ac80e1eafa8ff2fc16c15e0fa19e6d5da" target="_top" xlink:title=" ">
<polygon fill="white" stroke="#666666" points="118,-30 20,-30 20,0 118,0 118,-30"/>
<text text-anchor="start" x="28" y="-18" font-family="Helvetica,sans-Serif" font-size="10.00">kepler::Conditional</text>
<text text-anchor="middle" x="69" y="-7" font-family="Helvetica,sans-Serif" font-size="10.00">::to_string</text>
</a>
</g>
</g>
<!-- Node1&#45;&gt;Node8 -->
<g id="edge8" class="edge">
<title>Node1&#45;&gt;Node8</title>
<path fill="none" stroke="#63b8ff" d="M213.54,-133.97C198.92,-106.96 172.24,-64.42 138,-39 132.07,-34.6 125.26,-30.95 118.29,-27.94"/>
<polygon fill="#63b8ff" stroke="#63b8ff" points="210.27,-135.26 218.02,-142.48 216.47,-132 210.27,-135.26"/>
</g>
<!-- Node3&#45;&gt;Node3 -->
<g id="edge3" class="edge">
<title>Node3&#45;&gt;Node3</title>
<path fill="none" stroke="#63b8ff" d="M95.66,-281.61C91.39,-285.43 82.5,-288 69,-288 44.31,-288 35.05,-279.41 41.23,-270.28"/>
<polygon fill="#63b8ff" stroke="#63b8ff" points="99.13,-282.08 96.63,-271.78 92.16,-281.39 99.13,-282.08"/>
</g>
</g>
</svg>
