<?xml version="1.0" encoding="UTF-8" standalone="no"?>
<!DOCTYPE svg PUBLIC "-//W3C//DTD SVG 1.1//EN"
 "http://www.w3.org/Graphics/SVG/1.1/DTD/svg11.dtd">
<!-- Generated by graphviz version 7.1.0 (20230121.1956)
 -->
<!-- Title: kepler::ASTNode&lt; T &gt; Pages: 1 -->
<!--zoomable 713 -->
<svg id="main" version="1.1" xmlns="http://www.w3.org/2000/svg" xmlns:xlink="http://www.w3.org/1999/xlink" xml:space="preserve" onload="init(evt)">
<style type="text/css"><![CDATA[
.edge:hover path { stroke: red; }
.edge:hover polygon { stroke: red; fill: red; }
]]></style>
<script type="text/javascript"><![CDATA[
var edges = document.getElementsByTagName('g');
if (edges && edges.length) {
  for (var i=0;i<edges.length;i++) {
    if (edges[i].id.substr(0,4)=='edge') {
      edges[i].setAttribute('class','edge');
    }
  }
}
]]></script>
        <defs>
                <circle id="rim" cx="0" cy="0" r="7"/>
                <circle id="rim2" cx="0" cy="0" r="3.5"/>
                <g id="zoomPlus">
                        <use xlink:href="#rim" fill="#404040">
                                <set attributeName="fill" to="#808080" begin="zoomplus.mouseover" end="zoomplus.mouseout"/>
                        </use>
                        <path d="M-4,0h8M0,-4v8" fill="none" stroke="white" stroke-width="1.5" pointer-events="none"/>
                </g>
                <g id="zoomMin">
                        <use xlink:href="#rim" fill="#404040">
                                <set attributeName="fill" to="#808080" begin="zoomminus.mouseover" end="zoomminus.mouseout"/>
                        </use>
                        <path d="M-4,0h8" fill="none" stroke="white" stroke-width="1.5" pointer-events="none"/>
                </g>
                <g id="dirArrow">
                        <path fill="none" stroke="white" stroke-width="1.5" d="M0,-3.0v7 M-2.5,-0.5L0,-3.0L2.5,-0.5"/>
                </g>
               <g id="resetDef">
                       <use xlink:href="#rim2" fill="#404040">
                               <set attributeName="fill" to="#808080" begin="reset.mouseover" end="reset.mouseout"/>
                       </use>
               </g>
        </defs>

<script type="text/javascript">
var viewWidth = 2212;
var viewHeight = 713;
var sectionId = 'dynsection-0';
</script>
<script xlink:href="svgpan.js"/>
<svg id="graph" class="graph">
<g id="viewport">
<title>kepler::ASTNode&lt; T &gt;</title>
<!-- Node1 -->
<g id="node1" class="node">
<title>Node1</title>
<g id="a_node1"><a xlink:title=" ">
<polygon fill="#999999" stroke="#666666" points="1374.5,-442.5 1374.5,-554.5 1495.5,-554.5 1495.5,-442.5 1374.5,-442.5"/>
<text text-anchor="middle" x="1435" y="-542.5" font-family="Helvetica,sans-Serif" font-size="10.00">kepler::ASTNode&lt; T &gt;</text>
<polyline fill="none" stroke="#666666" points="1374.5,-535.5 1495.5,-535.5"/>
<text text-anchor="middle" x="1435" y="-523.5" font-family="Helvetica,sans-Serif" font-size="10.00"> </text>
<polyline fill="none" stroke="#666666" points="1374.5,-516.5 1495.5,-516.5"/>
<text text-anchor="start" x="1382.5" y="-504.5" font-family="Helvetica,sans-Serif" font-size="10.00">+ virtual ~ASTNode()</text>
<text text-anchor="start" x="1382.5" y="-493.5" font-family="Helvetica,sans-Serif" font-size="10.00">=default</text>
<text text-anchor="start" x="1382.5" y="-482.5" font-family="Helvetica,sans-Serif" font-size="10.00">+ virtual T accept(class</text>
<text text-anchor="start" x="1382.5" y="-471.5" font-family="Helvetica,sans-Serif" font-size="10.00"> NodeVisitor &amp;visitor)=0</text>
<text text-anchor="start" x="1382.5" y="-460.5" font-family="Helvetica,sans-Serif" font-size="10.00">+ virtual std::string</text>
<text text-anchor="start" x="1382.5" y="-449.5" font-family="Helvetica,sans-Serif" font-size="10.00"> to_string() const =0</text>
</a>
</g>
</g>
<!-- Node3 -->
<g id="node3" class="node">
<title>Node3</title>
<g id="a_node3"><a xlink:href="structkepler_1_1_a_s_t_node.html" target="_top" xlink:title=" ">
<polygon fill="white" stroke="#666666" points="397.5,-260.5 397.5,-394.5 540.5,-394.5 540.5,-260.5 397.5,-260.5"/>
<text text-anchor="start" x="405.5" y="-382.5" font-family="Helvetica,sans-Serif" font-size="10.00">kepler::ASTNode&lt; Operation</text>
<text text-anchor="middle" x="469" y="-371.5" font-family="Helvetica,sans-Serif" font-size="10.00">_ptr &gt;</text>
<polyline fill="none" stroke="#666666" points="397.5,-364.5 540.5,-364.5"/>
<text text-anchor="middle" x="469" y="-352.5" font-family="Helvetica,sans-Serif" font-size="10.00"> </text>
<polyline fill="none" stroke="#666666" points="397.5,-345.5 540.5,-345.5"/>
<text text-anchor="start" x="405.5" y="-333.5" font-family="Helvetica,sans-Serif" font-size="10.00">+ virtual ~ASTNode()</text>
<text text-anchor="start" x="405.5" y="-322.5" font-family="Helvetica,sans-Serif" font-size="10.00">=default</text>
<text text-anchor="start" x="405.5" y="-311.5" font-family="Helvetica,sans-Serif" font-size="10.00">+ virtual Operation_ptr</text>
<text text-anchor="start" x="405.5" y="-300.5" font-family="Helvetica,sans-Serif" font-size="10.00"> accept(class NodeVisitor</text>
<text text-anchor="start" x="405.5" y="-289.5" font-family="Helvetica,sans-Serif" font-size="10.00"> &amp;visitor)=0</text>
<text text-anchor="start" x="405.5" y="-278.5" font-family="Helvetica,sans-Serif" font-size="10.00">+ virtual std::string</text>
<text text-anchor="start" x="405.5" y="-267.5" font-family="Helvetica,sans-Serif" font-size="10.00"> to_string() const=0</text>
</a>
</g>
</g>
<!-- Node1&#45;&gt;Node3 -->
<g id="edge2" class="edge">
<title>Node1&#45;&gt;Node3</title>
<path fill="none" stroke="orange" d="M1363.46,-484.98C1184.51,-453.68 719.06,-372.25 540.33,-340.98"/>
<polygon fill="orange" stroke="orange" points="1362.63,-488.39 1373.08,-486.67 1363.83,-481.5 1362.63,-488.39"/>
<text text-anchor="middle" x="1050" y="-416" font-family="Helvetica,sans-Serif" font-size="10.00"> &lt; Operation_ptr &gt;</text>
</g>
<!-- Node9 -->
<g id="node9" class="node">
<title>Node9</title>
<g id="a_node9"><a xlink:href="structkepler_1_1_a_s_t_node.html" target="_top" xlink:title=" ">
<polygon fill="white" stroke="#666666" points="1361.5,-271.5 1361.5,-383.5 1508.5,-383.5 1508.5,-271.5 1361.5,-271.5"/>
<text text-anchor="middle" x="1435" y="-371.5" font-family="Helvetica,sans-Serif" font-size="10.00">kepler::ASTNode&lt; Array &gt;</text>
<polyline fill="none" stroke="#666666" points="1361.5,-364.5 1508.5,-364.5"/>
<text text-anchor="middle" x="1435" y="-352.5" font-family="Helvetica,sans-Serif" font-size="10.00"> </text>
<polyline fill="none" stroke="#666666" points="1361.5,-345.5 1508.5,-345.5"/>
<text text-anchor="start" x="1369.5" y="-333.5" font-family="Helvetica,sans-Serif" font-size="10.00">+ virtual ~ASTNode()</text>
<text text-anchor="start" x="1369.5" y="-322.5" font-family="Helvetica,sans-Serif" font-size="10.00">=default</text>
<text text-anchor="start" x="1369.5" y="-311.5" font-family="Helvetica,sans-Serif" font-size="10.00">+ virtual Array accept</text>
<text text-anchor="start" x="1369.5" y="-300.5" font-family="Helvetica,sans-Serif" font-size="10.00">(class NodeVisitor &amp;visitor)=0</text>
<text text-anchor="start" x="1369.5" y="-289.5" font-family="Helvetica,sans-Serif" font-size="10.00">+ virtual std::string</text>
<text text-anchor="start" x="1369.5" y="-278.5" font-family="Helvetica,sans-Serif" font-size="10.00"> to_string() const=0</text>
</a>
</g>
</g>
<!-- Node1&#45;&gt;Node9 -->
<g id="edge8" class="edge">
<title>Node1&#45;&gt;Node9</title>
<path fill="none" stroke="orange" d="M1435,-431.28C1435,-415.42 1435,-398.66 1435,-383.38"/>
<polygon fill="orange" stroke="orange" points="1431.5,-431.12 1435,-441.12 1438.5,-431.12 1431.5,-431.12"/>
<text text-anchor="middle" x="1457" y="-416" font-family="Helvetica,sans-Serif" font-size="10.00"> &lt; Array &gt;</text>
</g>
<!-- Node19 -->
<g id="node19" class="node">
<title>Node19</title>
<g id="a_node19"><a xlink:href="structkepler_1_1_a_s_t_node.html" target="_top" xlink:title=" ">
<polygon fill="white" stroke="#666666" points="1526.5,-260.5 1526.5,-394.5 1655.5,-394.5 1655.5,-260.5 1526.5,-260.5"/>
<text text-anchor="start" x="1534.5" y="-382.5" font-family="Helvetica,sans-Serif" font-size="10.00">kepler::ASTNode&lt; kepler</text>
<text text-anchor="middle" x="1591" y="-371.5" font-family="Helvetica,sans-Serif" font-size="10.00">::Array &gt;</text>
<polyline fill="none" stroke="#666666" points="1526.5,-364.5 1655.5,-364.5"/>
<text text-anchor="middle" x="1591" y="-352.5" font-family="Helvetica,sans-Serif" font-size="10.00"> </text>
<polyline fill="none" stroke="#666666" points="1526.5,-345.5 1655.5,-345.5"/>
<text text-anchor="start" x="1534.5" y="-333.5" font-family="Helvetica,sans-Serif" font-size="10.00">+ virtual ~ASTNode()</text>
<text text-anchor="start" x="1534.5" y="-322.5" font-family="Helvetica,sans-Serif" font-size="10.00">=default</text>
<text text-anchor="start" x="1534.5" y="-311.5" font-family="Helvetica,sans-Serif" font-size="10.00">+ virtual kepler::Array</text>
<text text-anchor="start" x="1534.5" y="-300.5" font-family="Helvetica,sans-Serif" font-size="10.00"> accept(class NodeVisitor</text>
<text text-anchor="start" x="1534.5" y="-289.5" font-family="Helvetica,sans-Serif" font-size="10.00"> &amp;visitor)=0</text>
<text text-anchor="start" x="1534.5" y="-278.5" font-family="Helvetica,sans-Serif" font-size="10.00">+ virtual std::string</text>
<text text-anchor="start" x="1534.5" y="-267.5" font-family="Helvetica,sans-Serif" font-size="10.00"> to_string() const=0</text>
</a>
</g>
</g>
<!-- Node1&#45;&gt;Node19 -->
<g id="edge18" class="edge">
<title>Node1&#45;&gt;Node19</title>
<path fill="none" stroke="orange" d="M1493.44,-434.19C1505.47,-421.16 1518.16,-407.41 1530.27,-394.29"/>
<polygon fill="orange" stroke="orange" points="1490.89,-431.8 1486.68,-441.52 1496.03,-436.54 1490.89,-431.8"/>
<text text-anchor="middle" x="1551.5" y="-416" font-family="Helvetica,sans-Serif" font-size="10.00"> &lt; kepler::Array &gt;</text>
</g>
<!-- Node2 -->
<g id="node2" class="node">
<title>Node2</title>
<g id="a_node2"><a xlink:href="structkepler_1_1_position.html" target="_top" xlink:title=" ">
<polygon fill="white" stroke="#666666" points="1375,-592.5 1375,-704.5 1495,-704.5 1495,-592.5 1375,-592.5"/>
<text text-anchor="middle" x="1435" y="-692.5" font-family="Helvetica,sans-Serif" font-size="10.00">kepler::Position</text>
<polyline fill="none" stroke="#666666" points="1375,-685.5 1495,-685.5"/>
<text text-anchor="middle" x="1435" y="-673.5" font-family="Helvetica,sans-Serif" font-size="10.00"> </text>
<polyline fill="none" stroke="#666666" points="1375,-666.5 1495,-666.5"/>
<text text-anchor="start" x="1383" y="-654.5" font-family="Helvetica,sans-Serif" font-size="10.00">+ Position()</text>
<text text-anchor="start" x="1383" y="-643.5" font-family="Helvetica,sans-Serif" font-size="10.00">+ Position(long pos_)</text>
<text text-anchor="start" x="1383" y="-632.5" font-family="Helvetica,sans-Serif" font-size="10.00">+ void set_position(long</text>
<text text-anchor="start" x="1383" y="-621.5" font-family="Helvetica,sans-Serif" font-size="10.00"> new_pos)</text>
<text text-anchor="start" x="1383" y="-610.5" font-family="Helvetica,sans-Serif" font-size="10.00">+ long get_position()</text>
<text text-anchor="start" x="1383" y="-599.5" font-family="Helvetica,sans-Serif" font-size="10.00"> const</text>
</a>
</g>
</g>
<!-- Node2&#45;&gt;Node1 -->
<g id="edge1" class="edge">
<title>Node2&#45;&gt;Node1</title>
<path fill="none" stroke="#63b8ff" d="M1435,-581.5C1435,-572.46 1435,-563.27 1435,-554.46"/>
<polygon fill="none" stroke="#63b8ff" points="1431.5,-581.3 1435,-591.3 1438.5,-581.3 1431.5,-581.3"/>
</g>
<!-- Node4 -->
<g id="node4" class="node">
<title>Node4</title>
<g id="a_node4"><a xlink:href="structkepler_1_1_anonymous_function.html" target="_top" xlink:title=" ">
<polygon fill="white" stroke="#666666" points="0,-39 0,-184 138,-184 138,-39 0,-39"/>
<text text-anchor="middle" x="69" y="-172" font-family="Helvetica,sans-Serif" font-size="10.00">kepler::AnonymousFunction</text>
<polyline fill="none" stroke="#666666" points="0,-165 138,-165"/>
<text text-anchor="start" x="8" y="-153" font-family="Helvetica,sans-Serif" font-size="10.00">+ Statements * body</text>
<polyline fill="none" stroke="#666666" points="0,-146 138,-146"/>
<text text-anchor="start" x="8" y="-134" font-family="Helvetica,sans-Serif" font-size="10.00">+ ~AnonymousFunction</text>
<text text-anchor="start" x="8" y="-123" font-family="Helvetica,sans-Serif" font-size="10.00">() override</text>
<text text-anchor="start" x="8" y="-112" font-family="Helvetica,sans-Serif" font-size="10.00">+ AnonymousFunction</text>
<text text-anchor="start" x="8" y="-101" font-family="Helvetica,sans-Serif" font-size="10.00">(Statements *body)</text>
<text text-anchor="start" x="8" y="-90" font-family="Helvetica,sans-Serif" font-size="10.00">+ std::string to_string</text>
<text text-anchor="start" x="8" y="-79" font-family="Helvetica,sans-Serif" font-size="10.00">() const override</text>
<text text-anchor="start" x="8" y="-68" font-family="Helvetica,sans-Serif" font-size="10.00">+ Operation_ptr accept</text>
<text text-anchor="start" x="8" y="-57" font-family="Helvetica,sans-Serif" font-size="10.00">(NodeVisitor &amp;visitor)</text>
<text text-anchor="start" x="8" y="-46" font-family="Helvetica,sans-Serif" font-size="10.00"> override</text>
</a>
</g>
</g>
<!-- Node3&#45;&gt;Node4 -->
<g id="edge3" class="edge">
<title>Node3&#45;&gt;Node4</title>
<path fill="none" stroke="#63b8ff" d="M386.46,-314.94C317.14,-301.93 218.28,-275.36 147,-223 132.62,-212.43 119.9,-198.4 109.13,-183.9"/>
<polygon fill="none" stroke="#63b8ff" points="385.8,-318.38 396.26,-316.72 387.05,-311.49 385.8,-318.38"/>
</g>
<!-- Node5 -->
<g id="node5" class="node">
<title>Node5</title>
<g id="a_node5"><a xlink:href="structkepler_1_1_dyadic_operator.html" target="_top" xlink:title=" ">
<polygon fill="white" stroke="#666666" points="156,-0.5 156,-222.5 314,-222.5 314,-0.5 156,-0.5"/>
<text text-anchor="middle" x="235" y="-210.5" font-family="Helvetica,sans-Serif" font-size="10.00">kepler::DyadicOperator</text>
<polyline fill="none" stroke="#666666" points="156,-203.5 314,-203.5"/>
<text text-anchor="start" x="164" y="-191.5" font-family="Helvetica,sans-Serif" font-size="10.00">+ Token token</text>
<text text-anchor="start" x="164" y="-180.5" font-family="Helvetica,sans-Serif" font-size="10.00">+ ASTNode&lt; Operation</text>
<text text-anchor="start" x="164" y="-169.5" font-family="Helvetica,sans-Serif" font-size="10.00">_ptr &gt; * left</text>
<text text-anchor="start" x="164" y="-158.5" font-family="Helvetica,sans-Serif" font-size="10.00">+ std::variant&lt; ASTNode</text>
<text text-anchor="start" x="164" y="-147.5" font-family="Helvetica,sans-Serif" font-size="10.00">&lt; Operation_ptr &gt; *,</text>
<text text-anchor="start" x="164" y="-136.5" font-family="Helvetica,sans-Serif" font-size="10.00"> ASTNode&lt; Array &gt; * &gt; right</text>
<polyline fill="none" stroke="#666666" points="156,-129.5 314,-129.5"/>
<text text-anchor="start" x="164" y="-117.5" font-family="Helvetica,sans-Serif" font-size="10.00">+ ~DyadicOperator()</text>
<text text-anchor="start" x="164" y="-106.5" font-family="Helvetica,sans-Serif" font-size="10.00">+ DyadicOperator(Token</text>
<text text-anchor="start" x="164" y="-95.5" font-family="Helvetica,sans-Serif" font-size="10.00"> token_, ASTNode&lt; Operation</text>
<text text-anchor="start" x="164" y="-84.5" font-family="Helvetica,sans-Serif" font-size="10.00">_ptr &gt; *left_, std::variant</text>
<text text-anchor="start" x="164" y="-73.5" font-family="Helvetica,sans-Serif" font-size="10.00">&lt; ASTNode&lt; Operation_ptr &gt;</text>
<text text-anchor="start" x="164" y="-62.5" font-family="Helvetica,sans-Serif" font-size="10.00"> *, ASTNode&lt; Array &gt; * &gt; right_)</text>
<text text-anchor="start" x="164" y="-51.5" font-family="Helvetica,sans-Serif" font-size="10.00">+ std::string to_string</text>
<text text-anchor="start" x="164" y="-40.5" font-family="Helvetica,sans-Serif" font-size="10.00">() const override</text>
<text text-anchor="start" x="164" y="-29.5" font-family="Helvetica,sans-Serif" font-size="10.00">+ Operation_ptr accept</text>
<text text-anchor="start" x="164" y="-18.5" font-family="Helvetica,sans-Serif" font-size="10.00">(NodeVisitor &amp;visitor)</text>
<text text-anchor="start" x="164" y="-7.5" font-family="Helvetica,sans-Serif" font-size="10.00"> override</text>
</a>
</g>
</g>
<!-- Node3&#45;&gt;Node5 -->
<g id="edge4" class="edge">
<title>Node3&#45;&gt;Node5</title>
<path fill="none" stroke="#63b8ff" d="M388.18,-275.29C366.06,-259.68 342.75,-241.68 323,-223 319.97,-220.14 316.96,-217.16 313.97,-214.11"/>
<polygon fill="none" stroke="#63b8ff" points="386.13,-278.12 396.34,-280.96 390.13,-272.37 386.13,-278.12"/>
</g>
<!-- Node6 -->
<g id="node6" class="node">
<title>Node6</title>
<g id="a_node6"><a xlink:href="structkepler_1_1_function.html" target="_top" xlink:title=" ">
<polygon fill="white" stroke="#666666" points="332,-55.5 332,-167.5 460,-167.5 460,-55.5 332,-55.5"/>
<text text-anchor="middle" x="396" y="-155.5" font-family="Helvetica,sans-Serif" font-size="10.00">kepler::Function</text>
<polyline fill="none" stroke="#666666" points="332,-148.5 460,-148.5"/>
<text text-anchor="start" x="340" y="-136.5" font-family="Helvetica,sans-Serif" font-size="10.00">+ Token token</text>
<polyline fill="none" stroke="#666666" points="332,-129.5 460,-129.5"/>
<text text-anchor="start" x="340" y="-117.5" font-family="Helvetica,sans-Serif" font-size="10.00">+ Function(Token token_)</text>
<text text-anchor="start" x="340" y="-106.5" font-family="Helvetica,sans-Serif" font-size="10.00">+ std::string to_string</text>
<text text-anchor="start" x="340" y="-95.5" font-family="Helvetica,sans-Serif" font-size="10.00">() const override</text>
<text text-anchor="start" x="340" y="-84.5" font-family="Helvetica,sans-Serif" font-size="10.00">+ Operation_ptr accept</text>
<text text-anchor="start" x="340" y="-73.5" font-family="Helvetica,sans-Serif" font-size="10.00">(NodeVisitor &amp;visitor)</text>
<text text-anchor="start" x="340" y="-62.5" font-family="Helvetica,sans-Serif" font-size="10.00"> override</text>
</a>
</g>
</g>
<!-- Node3&#45;&gt;Node6 -->
<g id="edge5" class="edge">
<title>Node3&#45;&gt;Node6</title>
<path fill="none" stroke="#63b8ff" d="M442.86,-249.87C433.56,-222.62 423.29,-192.51 414.74,-167.44"/>
<polygon fill="none" stroke="#63b8ff" points="439.47,-250.78 446.01,-259.11 446.1,-248.52 439.47,-250.78"/>
</g>
<!-- Node7 -->
<g id="node7" class="node">
<title>Node7</title>
<g id="a_node7"><a xlink:href="structkepler_1_1_function_variable.html" target="_top" xlink:title=" ">
<polygon fill="white" stroke="#666666" points="478.5,-50 478.5,-173 605.5,-173 605.5,-50 478.5,-50"/>
<text text-anchor="middle" x="542" y="-161" font-family="Helvetica,sans-Serif" font-size="10.00">kepler::FunctionVariable</text>
<polyline fill="none" stroke="#666666" points="478.5,-154 605.5,-154"/>
<text text-anchor="start" x="486.5" y="-142" font-family="Helvetica,sans-Serif" font-size="10.00">+ Token identifier</text>
<polyline fill="none" stroke="#666666" points="478.5,-135 605.5,-135"/>
<text text-anchor="start" x="486.5" y="-123" font-family="Helvetica,sans-Serif" font-size="10.00">+ FunctionVariable(Token</text>
<text text-anchor="start" x="486.5" y="-112" font-family="Helvetica,sans-Serif" font-size="10.00"> identifier)</text>
<text text-anchor="start" x="486.5" y="-101" font-family="Helvetica,sans-Serif" font-size="10.00">+ std::string to_string</text>
<text text-anchor="start" x="486.5" y="-90" font-family="Helvetica,sans-Serif" font-size="10.00">() const override</text>
<text text-anchor="start" x="486.5" y="-79" font-family="Helvetica,sans-Serif" font-size="10.00">+ Operation_ptr accept</text>
<text text-anchor="start" x="486.5" y="-68" font-family="Helvetica,sans-Serif" font-size="10.00">(NodeVisitor &amp;visitor)</text>
<text text-anchor="start" x="486.5" y="-57" font-family="Helvetica,sans-Serif" font-size="10.00"> override</text>
</a>
</g>
</g>
<!-- Node3&#45;&gt;Node7 -->
<g id="edge6" class="edge">
<title>Node3&#45;&gt;Node7</title>
<path fill="none" stroke="#63b8ff" d="M495.14,-249.86C503.79,-224.52 513.28,-196.71 521.44,-172.77"/>
<polygon fill="none" stroke="#63b8ff" points="491.9,-248.52 491.99,-259.11 498.53,-250.78 491.9,-248.52"/>
</g>
<!-- Node8 -->
<g id="node8" class="node">
<title>Node8</title>
<g id="a_node8"><a xlink:href="structkepler_1_1_monadic_operator.html" target="_top" xlink:title=" ">
<polygon fill="white" stroke="#666666" points="624,-28 624,-195 772,-195 772,-28 624,-28"/>
<text text-anchor="middle" x="698" y="-183" font-family="Helvetica,sans-Serif" font-size="10.00">kepler::MonadicOperator</text>
<polyline fill="none" stroke="#666666" points="624,-176 772,-176"/>
<text text-anchor="start" x="632" y="-164" font-family="Helvetica,sans-Serif" font-size="10.00">+ Token token</text>
<text text-anchor="start" x="632" y="-153" font-family="Helvetica,sans-Serif" font-size="10.00">+ ASTNode&lt; Operation</text>
<text text-anchor="start" x="632" y="-142" font-family="Helvetica,sans-Serif" font-size="10.00">_ptr &gt; * child</text>
<polyline fill="none" stroke="#666666" points="624,-135 772,-135"/>
<text text-anchor="start" x="632" y="-123" font-family="Helvetica,sans-Serif" font-size="10.00">+ ~MonadicOperator()</text>
<text text-anchor="start" x="632" y="-112" font-family="Helvetica,sans-Serif" font-size="10.00">+ MonadicOperator(Token</text>
<text text-anchor="start" x="632" y="-101" font-family="Helvetica,sans-Serif" font-size="10.00"> token_, ASTNode&lt; Operation</text>
<text text-anchor="start" x="632" y="-90" font-family="Helvetica,sans-Serif" font-size="10.00">_ptr &gt; *child_)</text>
<text text-anchor="start" x="632" y="-79" font-family="Helvetica,sans-Serif" font-size="10.00">+ std::string to_string</text>
<text text-anchor="start" x="632" y="-68" font-family="Helvetica,sans-Serif" font-size="10.00">() const override</text>
<text text-anchor="start" x="632" y="-57" font-family="Helvetica,sans-Serif" font-size="10.00">+ Operation_ptr accept</text>
<text text-anchor="start" x="632" y="-46" font-family="Helvetica,sans-Serif" font-size="10.00">(NodeVisitor &amp;visitor)</text>
<text text-anchor="start" x="632" y="-35" font-family="Helvetica,sans-Serif" font-size="10.00"> override</text>
</a>
</g>
</g>
<!-- Node3&#45;&gt;Node8 -->
<g id="edge7" class="edge">
<title>Node3&#45;&gt;Node8</title>
<path fill="none" stroke="#63b8ff" d="M549.52,-275.5C571.49,-259.9 594.58,-241.85 614,-223 622.91,-214.36 631.63,-204.72 639.88,-194.84"/>
<polygon fill="none" stroke="#63b8ff" points="547.61,-272.57 541.42,-281.17 551.62,-278.3 547.61,-272.57"/>
</g>
<!-- Node10 -->
<g id="node10" class="node">
<title>Node10</title>
<g id="a_node10"><a xlink:href="structkepler_1_1_assignment.html" target="_top" xlink:title=" ">
<polygon fill="white" stroke="#666666" points="790.5,-39 790.5,-184 939.5,-184 939.5,-39 790.5,-39"/>
<text text-anchor="middle" x="865" y="-172" font-family="Helvetica,sans-Serif" font-size="10.00">kepler::Assignment</text>
<polyline fill="none" stroke="#666666" points="790.5,-165 939.5,-165"/>
<text text-anchor="start" x="798.5" y="-153" font-family="Helvetica,sans-Serif" font-size="10.00">+ Token identifier</text>
<text text-anchor="start" x="798.5" y="-142" font-family="Helvetica,sans-Serif" font-size="10.00">+ ASTNode&lt; Array &gt; *</text>
<text text-anchor="start" x="798.5" y="-131" font-family="Helvetica,sans-Serif" font-size="10.00"> value</text>
<polyline fill="none" stroke="#666666" points="790.5,-124 939.5,-124"/>
<text text-anchor="start" x="798.5" y="-112" font-family="Helvetica,sans-Serif" font-size="10.00">+ ~Assignment() override</text>
<text text-anchor="start" x="798.5" y="-101" font-family="Helvetica,sans-Serif" font-size="10.00">+ Assignment(Token identifier</text>
<text text-anchor="start" x="798.5" y="-90" font-family="Helvetica,sans-Serif" font-size="10.00">_, ASTNode&lt; Array &gt; *value_)</text>
<text text-anchor="start" x="798.5" y="-79" font-family="Helvetica,sans-Serif" font-size="10.00">+ std::string to_string</text>
<text text-anchor="start" x="798.5" y="-68" font-family="Helvetica,sans-Serif" font-size="10.00">() const override</text>
<text text-anchor="start" x="798.5" y="-57" font-family="Helvetica,sans-Serif" font-size="10.00">+ Array accept(NodeVisitor</text>
<text text-anchor="start" x="798.5" y="-46" font-family="Helvetica,sans-Serif" font-size="10.00"> &amp;visitor) override</text>
</a>
</g>
</g>
<!-- Node9&#45;&gt;Node10 -->
<g id="edge9" class="edge">
<title>Node9&#45;&gt;Node10</title>
<path fill="none" stroke="#63b8ff" d="M1350.33,-325.95C1247.75,-321.56 1073.28,-301.84 949,-223 933.13,-212.93 919.13,-198.74 907.34,-183.87"/>
<polygon fill="none" stroke="#63b8ff" points="1349.92,-329.44 1360.04,-326.32 1350.18,-322.44 1349.92,-329.44"/>
</g>
<!-- Node11 -->
<g id="node11" class="node">
<title>Node11</title>
<g id="a_node11"><a xlink:href="structkepler_1_1_conditional.html" target="_top" xlink:title=" ">
<polygon fill="white" stroke="#666666" points="958,-6 958,-217 1092,-217 1092,-6 958,-6"/>
<text text-anchor="middle" x="1025" y="-205" font-family="Helvetica,sans-Serif" font-size="10.00">kepler::Conditional</text>
<polyline fill="none" stroke="#666666" points="958,-198 1092,-198"/>
<text text-anchor="start" x="966" y="-186" font-family="Helvetica,sans-Serif" font-size="10.00">+ ASTNode&lt; Array &gt; *</text>
<text text-anchor="start" x="966" y="-175" font-family="Helvetica,sans-Serif" font-size="10.00"> condition</text>
<text text-anchor="start" x="966" y="-164" font-family="Helvetica,sans-Serif" font-size="10.00">+ ASTNode&lt; Array &gt; *</text>
<text text-anchor="start" x="966" y="-153" font-family="Helvetica,sans-Serif" font-size="10.00"> true_case</text>
<text text-anchor="start" x="966" y="-142" font-family="Helvetica,sans-Serif" font-size="10.00">+ ASTNode&lt; Array &gt; *</text>
<text text-anchor="start" x="966" y="-131" font-family="Helvetica,sans-Serif" font-size="10.00"> false_case</text>
<polyline fill="none" stroke="#666666" points="958,-124 1092,-124"/>
<text text-anchor="start" x="966" y="-112" font-family="Helvetica,sans-Serif" font-size="10.00">+ ~Conditional()</text>
<text text-anchor="start" x="966" y="-101" font-family="Helvetica,sans-Serif" font-size="10.00">+ Conditional(ASTNode</text>
<text text-anchor="start" x="966" y="-90" font-family="Helvetica,sans-Serif" font-size="10.00">&lt; Array &gt; *condition,</text>
<text text-anchor="start" x="966" y="-79" font-family="Helvetica,sans-Serif" font-size="10.00"> ASTNode&lt; Array &gt; *true</text>
<text text-anchor="start" x="966" y="-68" font-family="Helvetica,sans-Serif" font-size="10.00">_case, ASTNode&lt; Array &gt;</text>
<text text-anchor="start" x="966" y="-57" font-family="Helvetica,sans-Serif" font-size="10.00"> *false_case)</text>
<text text-anchor="start" x="966" y="-46" font-family="Helvetica,sans-Serif" font-size="10.00">+ std::string to_string</text>
<text text-anchor="start" x="966" y="-35" font-family="Helvetica,sans-Serif" font-size="10.00">() const override</text>
<text text-anchor="start" x="966" y="-24" font-family="Helvetica,sans-Serif" font-size="10.00">+ Array accept(NodeVisitor</text>
<text text-anchor="start" x="966" y="-13" font-family="Helvetica,sans-Serif" font-size="10.00"> &amp;visitor) override</text>
</a>
</g>
</g>
<!-- Node9&#45;&gt;Node11 -->
<g id="edge10" class="edge">
<title>Node9&#45;&gt;Node11</title>
<path fill="none" stroke="#63b8ff" d="M1350.36,-316.07C1278.31,-303.72 1175.03,-277.47 1101,-223 1097.91,-220.72 1094.89,-218.28 1091.97,-215.7"/>
<polygon fill="none" stroke="#63b8ff" points="1349.72,-319.51 1360.15,-317.68 1350.86,-312.6 1349.72,-319.51"/>
</g>
<!-- Node12 -->
<g id="node12" class="node">
<title>Node12</title>
<g id="a_node12"><a xlink:href="structkepler_1_1_dyadic_function.html" target="_top" xlink:title=" ">
<polygon fill="white" stroke="#666666" points="1110.5,-6 1110.5,-217 1265.5,-217 1265.5,-6 1110.5,-6"/>
<text text-anchor="middle" x="1188" y="-205" font-family="Helvetica,sans-Serif" font-size="10.00">kepler::DyadicFunction</text>
<polyline fill="none" stroke="#666666" points="1110.5,-198 1265.5,-198"/>
<text text-anchor="start" x="1118.5" y="-186" font-family="Helvetica,sans-Serif" font-size="10.00">+ ASTNode&lt; Operation</text>
<text text-anchor="start" x="1118.5" y="-175" font-family="Helvetica,sans-Serif" font-size="10.00">_ptr &gt; * function</text>
<text text-anchor="start" x="1118.5" y="-164" font-family="Helvetica,sans-Serif" font-size="10.00">+ ASTNode&lt; Array &gt; *</text>
<text text-anchor="start" x="1118.5" y="-153" font-family="Helvetica,sans-Serif" font-size="10.00"> alpha</text>
<text text-anchor="start" x="1118.5" y="-142" font-family="Helvetica,sans-Serif" font-size="10.00">+ ASTNode&lt; Array &gt; *</text>
<text text-anchor="start" x="1118.5" y="-131" font-family="Helvetica,sans-Serif" font-size="10.00"> omega</text>
<polyline fill="none" stroke="#666666" points="1110.5,-124 1265.5,-124"/>
<text text-anchor="start" x="1118.5" y="-112" font-family="Helvetica,sans-Serif" font-size="10.00">+ ~DyadicFunction()</text>
<text text-anchor="start" x="1118.5" y="-101" font-family="Helvetica,sans-Serif" font-size="10.00"> override</text>
<text text-anchor="start" x="1118.5" y="-90" font-family="Helvetica,sans-Serif" font-size="10.00">+ DyadicFunction(ASTNode</text>
<text text-anchor="start" x="1118.5" y="-79" font-family="Helvetica,sans-Serif" font-size="10.00">&lt; Operation_ptr &gt; *function</text>
<text text-anchor="start" x="1118.5" y="-68" font-family="Helvetica,sans-Serif" font-size="10.00">_, ASTNode&lt; Array &gt; *alpha</text>
<text text-anchor="start" x="1118.5" y="-57" font-family="Helvetica,sans-Serif" font-size="10.00">_, ASTNode&lt; Array &gt; *omega_)</text>
<text text-anchor="start" x="1118.5" y="-46" font-family="Helvetica,sans-Serif" font-size="10.00">+ std::string to_string</text>
<text text-anchor="start" x="1118.5" y="-35" font-family="Helvetica,sans-Serif" font-size="10.00">() const override</text>
<text text-anchor="start" x="1118.5" y="-24" font-family="Helvetica,sans-Serif" font-size="10.00">+ Array accept(NodeVisitor</text>
<text text-anchor="start" x="1118.5" y="-13" font-family="Helvetica,sans-Serif" font-size="10.00"> &amp;visitor) override</text>
</a>
</g>
</g>
<!-- Node9&#45;&gt;Node12 -->
<g id="edge11" class="edge">
<title>Node9&#45;&gt;Node12</title>
<path fill="none" stroke="#63b8ff" d="M1352.19,-280.22C1326.17,-263.82 1298.19,-244.14 1275,-223 1271.75,-220.04 1268.53,-216.95 1265.35,-213.76"/>
<polygon fill="none" stroke="#63b8ff" points="1350.05,-283.01 1360.39,-285.32 1353.74,-277.07 1350.05,-283.01"/>
</g>
<!-- Node13 -->
<g id="node13" class="node">
<title>Node13</title>
<g id="a_node13"><a xlink:href="structkepler_1_1_function_assignment.html" target="_top" xlink:title=" ">
<polygon fill="white" stroke="#666666" points="1284,-28 1284,-195 1422,-195 1422,-28 1284,-28"/>
<text text-anchor="middle" x="1353" y="-183" font-family="Helvetica,sans-Serif" font-size="10.00">kepler::FunctionAssignment</text>
<polyline fill="none" stroke="#666666" points="1284,-176 1422,-176"/>
<text text-anchor="start" x="1292" y="-164" font-family="Helvetica,sans-Serif" font-size="10.00">+ Token identifier</text>
<text text-anchor="start" x="1292" y="-153" font-family="Helvetica,sans-Serif" font-size="10.00">+ ASTNode&lt; Operation</text>
<text text-anchor="start" x="1292" y="-142" font-family="Helvetica,sans-Serif" font-size="10.00">_ptr &gt; * function</text>
<polyline fill="none" stroke="#666666" points="1284,-135 1422,-135"/>
<text text-anchor="start" x="1292" y="-123" font-family="Helvetica,sans-Serif" font-size="10.00">+ ~FunctionAssignment</text>
<text text-anchor="start" x="1292" y="-112" font-family="Helvetica,sans-Serif" font-size="10.00">() override</text>
<text text-anchor="start" x="1292" y="-101" font-family="Helvetica,sans-Serif" font-size="10.00">+ FunctionAssignment</text>
<text text-anchor="start" x="1292" y="-90" font-family="Helvetica,sans-Serif" font-size="10.00">(Token identifier, ASTNode</text>
<text text-anchor="start" x="1292" y="-79" font-family="Helvetica,sans-Serif" font-size="10.00">&lt; Operation_ptr &gt; *function)</text>
<text text-anchor="start" x="1292" y="-68" font-family="Helvetica,sans-Serif" font-size="10.00">+ std::string to_string</text>
<text text-anchor="start" x="1292" y="-57" font-family="Helvetica,sans-Serif" font-size="10.00">() const override</text>
<text text-anchor="start" x="1292" y="-46" font-family="Helvetica,sans-Serif" font-size="10.00">+ Array accept(NodeVisitor</text>
<text text-anchor="start" x="1292" y="-35" font-family="Helvetica,sans-Serif" font-size="10.00"> &amp;visitor) override</text>
</a>
</g>
</g>
<!-- Node9&#45;&gt;Node13 -->
<g id="edge12" class="edge">
<title>Node9&#45;&gt;Node13</title>
<path fill="none" stroke="#63b8ff" d="M1409.89,-260.97C1401.87,-240.05 1392.9,-216.62 1384.49,-194.67"/>
<polygon fill="none" stroke="#63b8ff" points="1406.6,-262.17 1413.45,-270.25 1413.14,-259.66 1406.6,-262.17"/>
</g>
<!-- Node14 -->
<g id="node14" class="node">
<title>Node14</title>
<g id="a_node14"><a xlink:href="structkepler_1_1_monadic_function.html" target="_top" xlink:title=" ">
<polygon fill="white" stroke="#666666" points="1440.5,-22.5 1440.5,-200.5 1595.5,-200.5 1595.5,-22.5 1440.5,-22.5"/>
<text text-anchor="middle" x="1518" y="-188.5" font-family="Helvetica,sans-Serif" font-size="10.00">kepler::MonadicFunction</text>
<polyline fill="none" stroke="#666666" points="1440.5,-181.5 1595.5,-181.5"/>
<text text-anchor="start" x="1448.5" y="-169.5" font-family="Helvetica,sans-Serif" font-size="10.00">+ ASTNode&lt; Operation</text>
<text text-anchor="start" x="1448.5" y="-158.5" font-family="Helvetica,sans-Serif" font-size="10.00">_ptr &gt; * function</text>
<text text-anchor="start" x="1448.5" y="-147.5" font-family="Helvetica,sans-Serif" font-size="10.00">+ ASTNode&lt; Array &gt; *</text>
<text text-anchor="start" x="1448.5" y="-136.5" font-family="Helvetica,sans-Serif" font-size="10.00"> omega</text>
<polyline fill="none" stroke="#666666" points="1440.5,-129.5 1595.5,-129.5"/>
<text text-anchor="start" x="1448.5" y="-117.5" font-family="Helvetica,sans-Serif" font-size="10.00">+ ~MonadicFunction()</text>
<text text-anchor="start" x="1448.5" y="-106.5" font-family="Helvetica,sans-Serif" font-size="10.00"> override</text>
<text text-anchor="start" x="1448.5" y="-95.5" font-family="Helvetica,sans-Serif" font-size="10.00">+ MonadicFunction(ASTNode</text>
<text text-anchor="start" x="1448.5" y="-84.5" font-family="Helvetica,sans-Serif" font-size="10.00">&lt; Operation_ptr &gt; *function</text>
<text text-anchor="start" x="1448.5" y="-73.5" font-family="Helvetica,sans-Serif" font-size="10.00">_, ASTNode&lt; Array &gt; *omega_)</text>
<text text-anchor="start" x="1448.5" y="-62.5" font-family="Helvetica,sans-Serif" font-size="10.00">+ std::string to_string</text>
<text text-anchor="start" x="1448.5" y="-51.5" font-family="Helvetica,sans-Serif" font-size="10.00">() const override</text>
<text text-anchor="start" x="1448.5" y="-40.5" font-family="Helvetica,sans-Serif" font-size="10.00">+ Array accept(NodeVisitor</text>
<text text-anchor="start" x="1448.5" y="-29.5" font-family="Helvetica,sans-Serif" font-size="10.00"> &amp;visitor) override</text>
</a>
</g>
</g>
<!-- Node9&#45;&gt;Node14 -->
<g id="edge13" class="edge">
<title>Node9&#45;&gt;Node14</title>
<path fill="none" stroke="#63b8ff" d="M1460.41,-260.99C1467.82,-241.88 1476.04,-220.68 1483.9,-200.43"/>
<polygon fill="none" stroke="#63b8ff" points="1457.17,-259.67 1456.81,-270.26 1463.69,-262.2 1457.17,-259.67"/>
</g>
<!-- Node15 -->
<g id="node15" class="node">
<title>Node15</title>
<g id="a_node15"><a xlink:href="structkepler_1_1_scalar.html" target="_top" xlink:title=" ">
<polygon fill="white" stroke="#666666" points="1614,-39 1614,-184 1748,-184 1748,-39 1614,-39"/>
<text text-anchor="middle" x="1681" y="-172" font-family="Helvetica,sans-Serif" font-size="10.00">kepler::Scalar</text>
<polyline fill="none" stroke="#666666" points="1614,-165 1748,-165"/>
<text text-anchor="start" x="1622" y="-153" font-family="Helvetica,sans-Serif" font-size="10.00">+ Token token</text>
<text text-anchor="start" x="1622" y="-142" font-family="Helvetica,sans-Serif" font-size="10.00">+ std::variant&lt; Number,</text>
<text text-anchor="start" x="1622" y="-131" font-family="Helvetica,sans-Serif" font-size="10.00"> String &gt; content</text>
<polyline fill="none" stroke="#666666" points="1614,-124 1748,-124"/>
<text text-anchor="start" x="1622" y="-112" font-family="Helvetica,sans-Serif" font-size="10.00">+ Scalar(Token token</text>
<text text-anchor="start" x="1622" y="-101" font-family="Helvetica,sans-Serif" font-size="10.00">_, std::variant&lt; Number,</text>
<text text-anchor="start" x="1622" y="-90" font-family="Helvetica,sans-Serif" font-size="10.00"> String &gt; content_)</text>
<text text-anchor="start" x="1622" y="-79" font-family="Helvetica,sans-Serif" font-size="10.00">+ std::string to_string</text>
<text text-anchor="start" x="1622" y="-68" font-family="Helvetica,sans-Serif" font-size="10.00">() const override</text>
<text text-anchor="start" x="1622" y="-57" font-family="Helvetica,sans-Serif" font-size="10.00">+ Array accept(NodeVisitor</text>
<text text-anchor="start" x="1622" y="-46" font-family="Helvetica,sans-Serif" font-size="10.00"> &amp;visitor) override</text>
</a>
</g>
</g>
<!-- Node9&#45;&gt;Node15 -->
<g id="edge14" class="edge">
<title>Node9&#45;&gt;Node15</title>
<path fill="none" stroke="#63b8ff" d="M1508.59,-265.28C1511.39,-263.44 1514.2,-261.68 1517,-260 1553.4,-238.2 1572.09,-249.78 1605,-223 1618.45,-212.05 1630.51,-198.12 1640.85,-183.86"/>
<polygon fill="none" stroke="#63b8ff" points="1506.65,-262.36 1500.37,-270.89 1510.6,-268.14 1506.65,-262.36"/>
</g>
<!-- Node16 -->
<g id="node16" class="node">
<title>Node16</title>
<g id="a_node16"><a xlink:href="structkepler_1_1_statements.html" target="_top" xlink:title=" ">
<polygon fill="white" stroke="#666666" points="1766,-22.5 1766,-200.5 1900,-200.5 1900,-22.5 1766,-22.5"/>
<text text-anchor="middle" x="1833" y="-188.5" font-family="Helvetica,sans-Serif" font-size="10.00">kepler::Statements</text>
<polyline fill="none" stroke="#666666" points="1766,-181.5 1900,-181.5"/>
<text text-anchor="start" x="1774" y="-169.5" font-family="Helvetica,sans-Serif" font-size="10.00">+ std::vector&lt; ASTNode</text>
<text text-anchor="start" x="1774" y="-158.5" font-family="Helvetica,sans-Serif" font-size="10.00">&lt; Array &gt; * &gt; children</text>
<text text-anchor="start" x="1774" y="-147.5" font-family="Helvetica,sans-Serif" font-size="10.00">+ SymbolTable * symbol</text>
<text text-anchor="start" x="1774" y="-136.5" font-family="Helvetica,sans-Serif" font-size="10.00">_table</text>
<polyline fill="none" stroke="#666666" points="1766,-129.5 1900,-129.5"/>
<text text-anchor="start" x="1774" y="-117.5" font-family="Helvetica,sans-Serif" font-size="10.00">+ ~Statements() override</text>
<text text-anchor="start" x="1774" y="-106.5" font-family="Helvetica,sans-Serif" font-size="10.00">+ Statements(std::vector</text>
<text text-anchor="start" x="1774" y="-95.5" font-family="Helvetica,sans-Serif" font-size="10.00">&lt; ASTNode&lt; Array &gt; * &gt;</text>
<text text-anchor="start" x="1774" y="-84.5" font-family="Helvetica,sans-Serif" font-size="10.00"> children_, SymbolTable</text>
<text text-anchor="start" x="1774" y="-73.5" font-family="Helvetica,sans-Serif" font-size="10.00"> *symbol_table)</text>
<text text-anchor="start" x="1774" y="-62.5" font-family="Helvetica,sans-Serif" font-size="10.00">+ std::string to_string</text>
<text text-anchor="start" x="1774" y="-51.5" font-family="Helvetica,sans-Serif" font-size="10.00">() const override</text>
<text text-anchor="start" x="1774" y="-40.5" font-family="Helvetica,sans-Serif" font-size="10.00">+ Array accept(NodeVisitor</text>
<text text-anchor="start" x="1774" y="-29.5" font-family="Helvetica,sans-Serif" font-size="10.00"> &amp;visitor) override</text>
</a>
</g>
</g>
<!-- Node9&#45;&gt;Node16 -->
<g id="edge15" class="edge">
<title>Node9&#45;&gt;Node16</title>
<path fill="none" stroke="#63b8ff" d="M1505.63,-265.72C1509.37,-263.62 1513.17,-261.7 1517,-260 1615.67,-216.27 1665.6,-280.39 1757,-223 1766.76,-216.87 1775.59,-208.98 1783.48,-200.24"/>
<polygon fill="none" stroke="#63b8ff" points="1503.9,-262.67 1497.17,-270.85 1507.53,-268.66 1503.9,-262.67"/>
</g>
<!-- Node17 -->
<g id="node17" class="node">
<title>Node17</title>
<g id="a_node17"><a xlink:href="structkepler_1_1_variable.html" target="_top" xlink:title=" ">
<polygon fill="white" stroke="#666666" points="1918,-61 1918,-162 2052,-162 2052,-61 1918,-61"/>
<text text-anchor="middle" x="1985" y="-150" font-family="Helvetica,sans-Serif" font-size="10.00">kepler::Variable</text>
<polyline fill="none" stroke="#666666" points="1918,-143 2052,-143"/>
<text text-anchor="start" x="1926" y="-131" font-family="Helvetica,sans-Serif" font-size="10.00">+ Token token</text>
<polyline fill="none" stroke="#666666" points="1918,-124 2052,-124"/>
<text text-anchor="start" x="1926" y="-112" font-family="Helvetica,sans-Serif" font-size="10.00">+ Variable(Token token_)</text>
<text text-anchor="start" x="1926" y="-101" font-family="Helvetica,sans-Serif" font-size="10.00">+ std::string to_string</text>
<text text-anchor="start" x="1926" y="-90" font-family="Helvetica,sans-Serif" font-size="10.00">() const override</text>
<text text-anchor="start" x="1926" y="-79" font-family="Helvetica,sans-Serif" font-size="10.00">+ Array accept(NodeVisitor</text>
<text text-anchor="start" x="1926" y="-68" font-family="Helvetica,sans-Serif" font-size="10.00"> &amp;visitor) override</text>
</a>
</g>
</g>
<!-- Node9&#45;&gt;Node17 -->
<g id="edge16" class="edge">
<title>Node9&#45;&gt;Node17</title>
<path fill="none" stroke="#63b8ff" d="M1504.27,-266.04C1508.44,-263.77 1512.7,-261.73 1517,-260 1598.18,-227.35 1833.85,-267.81 1909,-223 1932.6,-208.93 1950.59,-184.35 1963.13,-161.95"/>
<polygon fill="none" stroke="#63b8ff" points="1502.81,-262.83 1496,-270.94 1506.38,-268.85 1502.81,-262.83"/>
</g>
<!-- Node18 -->
<g id="node18" class="node">
<title>Node18</title>
<g id="a_node18"><a xlink:href="structkepler_1_1_vector.html" target="_top" xlink:title=" ">
<polygon fill="white" stroke="#666666" points="2070,-44.5 2070,-178.5 2204,-178.5 2204,-44.5 2070,-44.5"/>
<text text-anchor="middle" x="2137" y="-166.5" font-family="Helvetica,sans-Serif" font-size="10.00">kepler::Vector</text>
<polyline fill="none" stroke="#666666" points="2070,-159.5 2204,-159.5"/>
<text text-anchor="start" x="2078" y="-147.5" font-family="Helvetica,sans-Serif" font-size="10.00">+ std::vector&lt; ASTNode</text>
<text text-anchor="start" x="2078" y="-136.5" font-family="Helvetica,sans-Serif" font-size="10.00"> * &gt; children</text>
<polyline fill="none" stroke="#666666" points="2070,-129.5 2204,-129.5"/>
<text text-anchor="start" x="2078" y="-117.5" font-family="Helvetica,sans-Serif" font-size="10.00">+ ~Vector() override</text>
<text text-anchor="start" x="2078" y="-106.5" font-family="Helvetica,sans-Serif" font-size="10.00">+ Vector(std::vector</text>
<text text-anchor="start" x="2078" y="-95.5" font-family="Helvetica,sans-Serif" font-size="10.00">&lt; ASTNode * &gt; children_)</text>
<text text-anchor="start" x="2078" y="-84.5" font-family="Helvetica,sans-Serif" font-size="10.00">+ std::string to_string</text>
<text text-anchor="start" x="2078" y="-73.5" font-family="Helvetica,sans-Serif" font-size="10.00">() const override</text>
<text text-anchor="start" x="2078" y="-62.5" font-family="Helvetica,sans-Serif" font-size="10.00">+ Array accept(NodeVisitor</text>
<text text-anchor="start" x="2078" y="-51.5" font-family="Helvetica,sans-Serif" font-size="10.00"> &amp;visitor) override</text>
</a>
</g>
</g>
<!-- Node9&#45;&gt;Node18 -->
<g id="edge17" class="edge">
<title>Node9&#45;&gt;Node18</title>
<path fill="none" stroke="#63b8ff" d="M1503.93,-266.03C1508.2,-263.74 1512.57,-261.7 1517,-260 1630.08,-216.47 1956.44,-284.22 2061,-223 2079.08,-212.41 2093.85,-195.61 2105.39,-178.27"/>
<polygon fill="none" stroke="#63b8ff" points="1502.28,-262.94 1495.43,-271.02 1505.83,-268.97 1502.28,-262.94"/>
</g>
</g>
</svg>
        <g id="navigator" transform="translate(0 0)" fill="#404254">
                <rect fill="#f2f5e9" fill-opacity="0.5" stroke="#606060" stroke-width=".5" x="0" y="0" width="60" height="60"/>
                <use id="zoomplus" xlink:href="#zoomPlus" x="17" y="9" onmousedown="handleZoom(evt,'in')"/>
                <use id="zoomminus" xlink:href="#zoomMin" x="42" y="9" onmousedown="handleZoom(evt,'out')"/>
                <use id="reset" xlink:href="#resetDef" x="30" y="36" onmousedown="handleReset()"/>
                <g id="arrowUp" xlink:href="#dirArrow" transform="translate(30 24)" onmousedown="handlePan(0,-1)">
                  <use xlink:href="#rim" fill="#404040">
                        <set attributeName="fill" to="#808080" begin="arrowUp.mouseover" end="arrowUp.mouseout"/>
                  </use>
                  <path fill="none" stroke="white" stroke-width="1.5" d="M0,-3.0v7 M-2.5,-0.5L0,-3.0L2.5,-0.5"/>
                </g>
                <g id="arrowRight" xlink:href="#dirArrow" transform="rotate(90) translate(36 -43)" onmousedown="handlePan(1,0)">
                  <use xlink:href="#rim" fill="#404040">
                        <set attributeName="fill" to="#808080" begin="arrowRight.mouseover" end="arrowRight.mouseout"/>
                  </use>
                  <path fill="none" stroke="white" stroke-width="1.5" d="M0,-3.0v7 M-2.5,-0.5L0,-3.0L2.5,-0.5"/>
                </g>
                <g id="arrowDown" xlink:href="#dirArrow" transform="rotate(180) translate(-30 -48)" onmousedown="handlePan(0,1)">
                  <use xlink:href="#rim" fill="#404040">
                        <set attributeName="fill" to="#808080" begin="arrowDown.mouseover" end="arrowDown.mouseout"/>
                  </use>
                  <path fill="none" stroke="white" stroke-width="1.5" d="M0,-3.0v7 M-2.5,-0.5L0,-3.0L2.5,-0.5"/>
                </g>
                <g id="arrowLeft" xlink:href="#dirArrow" transform="rotate(270) translate(-36 17)" onmousedown="handlePan(-1,0)">
                  <use xlink:href="#rim" fill="#404040">
                        <set attributeName="fill" to="#808080" begin="arrowLeft.mouseover" end="arrowLeft.mouseout"/>
                  </use>
                  <path fill="none" stroke="white" stroke-width="1.5" d="M0,-3.0v7 M-2.5,-0.5L0,-3.0L2.5,-0.5"/>
                </g>
        </g>
        <svg viewBox="0 0 15 15" width="100%" height="30px" preserveAspectRatio="xMaxYMin meet">
         <g id="arrow_out" transform="scale(0.3 0.3)">
          <a xlink:href="structkepler_1_1_a_s_t_node__inherit__graph_org.svg" target="_base">
           <rect id="button" ry="5" rx="5" y="6" x="6" height="38" width="38"
                fill="#f2f5e9" fill-opacity="0.5" stroke="#606060" stroke-width="1.0"/>
           <path id="arrow"
             d="M 11.500037,31.436501 C 11.940474,20.09759 22.043105,11.32322 32.158766,21.979434 L 37.068811,17.246167 C 37.068811,17.246167 37.088388,32 37.088388,32 L 22.160133,31.978069 C 22.160133,31.978069 26.997745,27.140456 26.997745,27.140456 C 18.528582,18.264221 13.291696,25.230495 11.500037,31.436501 z"
             style="fill:#404040;"/>
          </a>
         </g>
        </svg>
</svg>
