<?xml version="1.0" encoding="UTF-8" standalone="no"?>
<!DOCTYPE svg PUBLIC "-//W3C//DTD SVG 1.1//EN"
 "http://www.w3.org/Graphics/SVG/1.1/DTD/svg11.dtd">
<!-- Generated by graphviz version 7.1.0 (20230121.1956)
 -->
<!-- Title: kepler::Array::empty Pages: 1 -->
<svg width="701pt" height="228pt"
 viewBox="0.00 0.00 701.00 227.50" xmlns="http://www.w3.org/2000/svg" xmlns:xlink="http://www.w3.org/1999/xlink">
<g id="graph0" class="graph" transform="scale(1 1) rotate(0) translate(4 223.5)">
<title>kepler::Array::empty</title>
<!-- Node1 -->
<g id="node1" class="node">
<title>Node1</title>
<g id="a_node1"><a xlink:title=" ">
<polygon fill="#999999" stroke="#666666" points="693,-105.5 588,-105.5 588,-86.5 693,-86.5 693,-105.5"/>
<text text-anchor="middle" x="640.5" y="-93.5" font-family="Helvetica,sans-Serif" font-size="10.00">kepler::Array::empty</text>
</a>
</g>
</g>
<!-- Node2 -->
<g id="node2" class="node">
<title>Node2</title>
<g id="a_node2"><a xlink:href="namespacekepler_1_1helpers.html#a36b0dbb858dd2100bffd1f5ea272266a" target="_top" xlink:title=" ">
<polygon fill="white" stroke="#666666" points="552,-159 412,-159 412,-129 552,-129 552,-159"/>
<text text-anchor="start" x="420" y="-147" font-family="Helvetica,sans-Serif" font-size="10.00">kepler::helpers::check</text>
<text text-anchor="middle" x="482" y="-136" font-family="Helvetica,sans-Serif" font-size="10.00">_valid_system_param_value</text>
</a>
</g>
</g>
<!-- Node1&#45;&gt;Node2 -->
<g id="edge1" class="edge">
<title>Node1&#45;&gt;Node2</title>
<path fill="none" stroke="#63b8ff" d="M596.07,-109.32C576.59,-115.3 553.49,-122.38 533.26,-128.58"/>
<polygon fill="#63b8ff" stroke="#63b8ff" points="597.09,-112.67 605.63,-106.39 595.04,-105.98 597.09,-112.67"/>
</g>
<!-- Node3 -->
<g id="node3" class="node">
<title>Node3</title>
<g id="a_node3"><a xlink:href="structkepler_1_1_array.html#a31e9d1137447bf3402d6278c41569f5e" target="_top" xlink:title=" ">
<polygon fill="white" stroke="#666666" points="541.5,-111 422.5,-111 422.5,-81 541.5,-81 541.5,-111"/>
<text text-anchor="start" x="430.5" y="-99" font-family="Helvetica,sans-Serif" font-size="10.00">kepler::Array::is_simple</text>
<text text-anchor="middle" x="482" y="-88" font-family="Helvetica,sans-Serif" font-size="10.00">_scalar</text>
</a>
</g>
</g>
<!-- Node1&#45;&gt;Node3 -->
<g id="edge3" class="edge">
<title>Node1&#45;&gt;Node3</title>
<path fill="none" stroke="#63b8ff" d="M576.58,-96C565.14,-96 553.25,-96 541.94,-96"/>
<polygon fill="#63b8ff" stroke="#63b8ff" points="576.31,-99.5 586.31,-96 576.31,-92.5 576.31,-99.5"/>
</g>
<!-- Node8 -->
<g id="node8" class="node">
<title>Node8</title>
<g id="a_node8"><a xlink:href="structkepler_1_1_array_printer.html#a840ee5d9761edc63b694ecbf577f6c27" target="_top" xlink:title=" ">
<polygon fill="white" stroke="#666666" points="359,-30 258,-30 258,0 359,0 359,-30"/>
<text text-anchor="start" x="266" y="-18" font-family="Helvetica,sans-Serif" font-size="10.00">kepler::ArrayPrinter</text>
<text text-anchor="middle" x="308.5" y="-7" font-family="Helvetica,sans-Serif" font-size="10.00">::operator()</text>
</a>
</g>
</g>
<!-- Node1&#45;&gt;Node8 -->
<g id="edge13" class="edge">
<title>Node1&#45;&gt;Node8</title>
<path fill="none" stroke="#63b8ff" d="M593.39,-83.01C580.06,-79.35 565.48,-75.43 552,-72 485.57,-55.09 408.44,-37.27 359.33,-26.15"/>
<polygon fill="#63b8ff" stroke="#63b8ff" points="592.21,-86.32 602.78,-85.61 594.08,-79.57 592.21,-86.32"/>
</g>
<!-- Node2&#45;&gt;Node2 -->
<g id="edge2" class="edge">
<title>Node2&#45;&gt;Node2</title>
<path fill="none" stroke="#63b8ff" d="M508.74,-170.61C504.46,-174.43 495.54,-177 482,-177 457.23,-177 447.95,-168.41 454.14,-159.28"/>
<polygon fill="#63b8ff" stroke="#63b8ff" points="512.21,-171.08 509.71,-160.78 505.25,-170.39 512.21,-171.08"/>
</g>
<!-- Node4 -->
<g id="node4" class="node">
<title>Node4</title>
<g id="a_node4"><a xlink:href="namespacekepler.html#a172b41eba4b6d1c9af75f4d5a853d35f" target="_top" xlink:title=" ">
<polygon fill="white" stroke="#666666" points="351.5,-143.5 265.5,-143.5 265.5,-124.5 351.5,-124.5 351.5,-143.5"/>
<text text-anchor="middle" x="308.5" y="-131.5" font-family="Helvetica,sans-Serif" font-size="10.00">kepler::get_shift</text>
</a>
</g>
</g>
<!-- Node3&#45;&gt;Node4 -->
<g id="edge4" class="edge">
<title>Node3&#45;&gt;Node4</title>
<path fill="none" stroke="#63b8ff" d="M411.4,-111.42C391.21,-115.89 369.79,-120.64 351.82,-124.62"/>
<polygon fill="#63b8ff" stroke="#63b8ff" points="411.98,-114.88 420.98,-109.3 410.46,-108.04 411.98,-114.88"/>
</g>
<!-- Node6 -->
<g id="node6" class="node">
<title>Node6</title>
<g id="a_node6"><a xlink:href="structkepler_1_1_circle_bar.html#ad4d789ada13f9e9152417c8034abee01" target="_top" xlink:title=" ">
<polygon fill="white" stroke="#666666" points="95,-180 0,-180 0,-150 95,-150 95,-180"/>
<text text-anchor="start" x="8" y="-168" font-family="Helvetica,sans-Serif" font-size="10.00">kepler::CircleBar::</text>
<text text-anchor="middle" x="47.5" y="-157" font-family="Helvetica,sans-Serif" font-size="10.00">operator()</text>
</a>
</g>
</g>
<!-- Node3&#45;&gt;Node6 -->
<g id="edge8" class="edge">
<title>Node3&#45;&gt;Node6</title>
<path fill="none" stroke="#63b8ff" d="M418.72,-116.28C416.42,-117.47 414.17,-118.71 412,-120 393.36,-131.13 396.08,-144.76 376,-153 282.43,-191.38 160.91,-182.25 95.36,-173.08"/>
<polygon fill="#63b8ff" stroke="#63b8ff" points="420.13,-119.49 427.71,-112.09 417.17,-113.15 420.13,-119.49"/>
</g>
<!-- Node7 -->
<g id="node7" class="node">
<title>Node7</title>
<g id="a_node7"><a xlink:href="structkepler_1_1_circle_stile.html#a29677d4fd43e1db4bacaddc636efa189" target="_top" xlink:title=" ">
<polygon fill="white" stroke="#666666" points="94.5,-125 0.5,-125 0.5,-95 94.5,-95 94.5,-125"/>
<text text-anchor="start" x="8.5" y="-113" font-family="Helvetica,sans-Serif" font-size="10.00">kepler::CircleStile</text>
<text text-anchor="middle" x="47.5" y="-102" font-family="Helvetica,sans-Serif" font-size="10.00">::operator()</text>
</a>
</g>
</g>
<!-- Node3&#45;&gt;Node7 -->
<g id="edge9" class="edge">
<title>Node3&#45;&gt;Node7</title>
<path fill="none" stroke="#63b8ff" d="M410.89,-98.27C321.87,-101.15 170.78,-106.04 94.9,-108.5"/>
<polygon fill="#63b8ff" stroke="#63b8ff" points="410.83,-101.77 420.71,-97.95 410.6,-94.78 410.83,-101.77"/>
</g>
<!-- Node3&#45;&gt;Node8 -->
<g id="edge10" class="edge">
<title>Node3&#45;&gt;Node8</title>
<path fill="none" stroke="#63b8ff" d="M445.32,-74.89C425.32,-63.49 399.69,-49.63 376,-39 369.39,-36.03 362.3,-33.16 355.29,-30.5"/>
<polygon fill="#63b8ff" stroke="#63b8ff" points="443.51,-77.88 453.92,-79.83 447,-71.81 443.51,-77.88"/>
</g>
<!-- Node9 -->
<g id="node9" class="node">
<title>Node9</title>
<g id="a_node9"><a xlink:href="structkepler_1_1_power.html#a67d479325a5c7fe90d9d8c66f18f2625" target="_top" xlink:title=" ">
<polygon fill="white" stroke="#666666" points="370.5,-67.5 246.5,-67.5 246.5,-48.5 370.5,-48.5 370.5,-67.5"/>
<text text-anchor="middle" x="308.5" y="-55.5" font-family="Helvetica,sans-Serif" font-size="10.00">kepler::Power::operator()</text>
</a>
</g>
</g>
<!-- Node3&#45;&gt;Node9 -->
<g id="edge11" class="edge">
<title>Node3&#45;&gt;Node9</title>
<path fill="none" stroke="#63b8ff" d="M411.33,-80.56C392.17,-76.32 371.89,-71.82 354.51,-67.97"/>
<polygon fill="#63b8ff" stroke="#63b8ff" points="410.46,-83.96 420.98,-82.7 411.98,-77.12 410.46,-83.96"/>
</g>
<!-- Node10 -->
<g id="node10" class="node">
<title>Node10</title>
<g id="a_node10"><a xlink:href="structkepler_1_1_left_shoe.html#a8e54fab10919256786409887381785f4" target="_top" xlink:title=" ">
<polygon fill="white" stroke="#666666" points="376,-219.5 241,-219.5 241,-200.5 376,-200.5 376,-219.5"/>
<text text-anchor="middle" x="308.5" y="-207.5" font-family="Helvetica,sans-Serif" font-size="10.00">kepler::LeftShoe::operator()</text>
</a>
</g>
</g>
<!-- Node3&#45;&gt;Node10 -->
<g id="edge12" class="edge">
<title>Node3&#45;&gt;Node10</title>
<path fill="none" stroke="#63b8ff" d="M415.37,-117.34C414.21,-118.19 413.09,-119.08 412,-120 386.51,-141.6 401.36,-164.25 376,-186 368.92,-192.07 360.18,-196.65 351.4,-200.1"/>
<polygon fill="#63b8ff" stroke="#63b8ff" points="416.9,-120.51 423.51,-112.22 413.18,-114.58 416.9,-120.51"/>
</g>
<!-- Node5 -->
<g id="node5" class="node">
<title>Node5</title>
<g id="a_node5"><a xlink:href="namespacekepler.html#a2e0061e6ccc074df0dabcaf61f4517b8" target="_top" xlink:title=" ">
<polygon fill="white" stroke="#666666" points="205,-143.5 131,-143.5 131,-124.5 205,-124.5 205,-143.5"/>
<text text-anchor="middle" x="168" y="-131.5" font-family="Helvetica,sans-Serif" font-size="10.00">kepler::rotate</text>
</a>
</g>
</g>
<!-- Node4&#45;&gt;Node5 -->
<g id="edge5" class="edge">
<title>Node4&#45;&gt;Node5</title>
<path fill="none" stroke="#63b8ff" d="M253.69,-134C237.53,-134 220.19,-134 205.43,-134"/>
<polygon fill="#63b8ff" stroke="#63b8ff" points="253.68,-137.5 263.68,-134 253.68,-130.5 253.68,-137.5"/>
</g>
<!-- Node5&#45;&gt;Node6 -->
<g id="edge6" class="edge">
<title>Node5&#45;&gt;Node6</title>
<path fill="none" stroke="#63b8ff" d="M119.74,-146.36C111.73,-148.46 103.41,-150.63 95.41,-152.73"/>
<polygon fill="#63b8ff" stroke="#63b8ff" points="120.55,-149.77 129.34,-143.85 118.78,-143 120.55,-149.77"/>
</g>
<!-- Node5&#45;&gt;Node7 -->
<g id="edge7" class="edge">
<title>Node5&#45;&gt;Node7</title>
<path fill="none" stroke="#63b8ff" d="M119.6,-124.4C111.49,-122.76 103.07,-121.05 94.98,-119.41"/>
<polygon fill="#63b8ff" stroke="#63b8ff" points="118.82,-127.81 129.32,-126.37 120.21,-120.95 118.82,-127.81"/>
</g>
</g>
</svg>
