<?xml version="1.0" encoding="UTF-8" standalone="no"?>
<!DOCTYPE svg PUBLIC "-//W3C//DTD SVG 1.1//EN"
 "http://www.w3.org/Graphics/SVG/1.1/DTD/svg11.dtd">
<!-- Generated by graphviz version 7.1.0 (20230121.1956)
 -->
<!-- Title: error_loc Pages: 1 -->
<svg width="186pt" height="215pt"
 viewBox="0.00 0.00 186.00 215.00" xmlns="http://www.w3.org/2000/svg" xmlns:xlink="http://www.w3.org/1999/xlink">
<g id="graph0" class="graph" transform="scale(1 1) rotate(0) translate(4 211)">
<title>error_loc</title>
<!-- Node1 -->
<g id="node1" class="node">
<title>Node1</title>
<g id="a_node1"><a xlink:title=" ">
<polygon fill="#999999" stroke="#666666" points="2.5,-0.5 2.5,-90.5 130.5,-90.5 130.5,-0.5 2.5,-0.5"/>
<text text-anchor="middle" x="66.5" y="-78.5" font-family="Helvetica,sans-Serif" font-size="10.00">error_loc</text>
<polyline fill="none" stroke="#666666" points="2.5,-71.5 130.5,-71.5"/>
<text text-anchor="middle" x="66.5" y="-59.5" font-family="Helvetica,sans-Serif" font-size="10.00"> </text>
<polyline fill="none" stroke="#666666" points="2.5,-52.5 130.5,-52.5"/>
<text text-anchor="start" x="10.5" y="-40.5" font-family="Helvetica,sans-Serif" font-size="10.00">+ error_loc(long line</text>
<text text-anchor="start" x="10.5" y="-29.5" font-family="Helvetica,sans-Serif" font-size="10.00">_number_, long pos_,</text>
<text text-anchor="start" x="10.5" y="-18.5" font-family="Helvetica,sans-Serif" font-size="10.00"> const std::vector&lt; kepler</text>
<text text-anchor="start" x="10.5" y="-7.5" font-family="Helvetica,sans-Serif" font-size="10.00">::Char &gt; &amp;line_)</text>
</a>
</g>
</g>
<!-- Node2 -->
<g id="node2" class="node">
<title>Node2</title>
<g id="a_node2"><a xlink:title=" ">
<polygon fill="white" stroke="#666666" points="0,-149.5 0,-206.5 35,-206.5 35,-149.5 0,-149.5"/>
<text text-anchor="middle" x="17.5" y="-194.5" font-family="Helvetica,sans-Serif" font-size="10.00">long</text>
<polyline fill="none" stroke="#666666" points="0,-187.5 35,-187.5"/>
<text text-anchor="middle" x="17.5" y="-175.5" font-family="Helvetica,sans-Serif" font-size="10.00"> </text>
<polyline fill="none" stroke="#666666" points="0,-168.5 35,-168.5"/>
<text text-anchor="middle" x="17.5" y="-156.5" font-family="Helvetica,sans-Serif" font-size="10.00"> </text>
</a>
</g>
</g>
<!-- Node2&#45;&gt;Node1 -->
<g id="edge1" class="edge">
<title>Node2&#45;&gt;Node1</title>
<path fill="none" stroke="#404040" d="M21.16,-149.66C23.34,-137.03 26.66,-121.99 31.5,-109 32.36,-106.68 33.3,-104.35 34.3,-102.02"/>
<polygon fill="none" stroke="#404040" points="34.26,-102.11 33.18,-94.98 39.34,-91.24 40.42,-98.37 34.26,-102.11"/>
<text text-anchor="middle" x="62.5" y="-123" font-family="Helvetica,sans-Serif" font-size="10.00"> +line_number</text>
<text text-anchor="middle" x="62.5" y="-112" font-family="Helvetica,sans-Serif" font-size="10.00">+pos</text>
</g>
<!-- Node3 -->
<g id="node3" class="node">
<title>Node3</title>
<g id="a_node3"><a xlink:title=" ">
<polygon fill="white" stroke="#666666" points="53,-149.5 53,-206.5 178,-206.5 178,-149.5 53,-149.5"/>
<text text-anchor="middle" x="115.5" y="-194.5" font-family="Helvetica,sans-Serif" font-size="10.00">vector&lt; kepler::Char &gt; &amp;</text>
<polyline fill="none" stroke="#666666" points="53,-187.5 178,-187.5"/>
<text text-anchor="middle" x="115.5" y="-175.5" font-family="Helvetica,sans-Serif" font-size="10.00"> </text>
<polyline fill="none" stroke="#666666" points="53,-168.5 178,-168.5"/>
<text text-anchor="middle" x="115.5" y="-156.5" font-family="Helvetica,sans-Serif" font-size="10.00"> </text>
</a>
</g>
</g>
<!-- Node3&#45;&gt;Node1 -->
<g id="edge2" class="edge">
<title>Node3&#45;&gt;Node1</title>
<path fill="none" stroke="#404040" d="M107.31,-149.66C103.4,-137.17 98.49,-122.24 93.5,-109 92.68,-106.81 91.82,-104.59 90.94,-102.35"/>
<polygon fill="none" stroke="#404040" points="90.91,-102.29 84.95,-98.23 86.4,-91.17 92.36,-95.22 90.91,-102.29"/>
<text text-anchor="middle" x="113" y="-117.5" font-family="Helvetica,sans-Serif" font-size="10.00"> +line</text>
</g>
</g>
</svg>
