<?xml version="1.0" encoding="UTF-8" standalone="no"?>
<!DOCTYPE svg PUBLIC "-//W3C//DTD SVG 1.1//EN"
 "http://www.w3.org/Graphics/SVG/1.1/DTD/svg11.dtd">
<!-- Generated by graphviz version 7.1.0 (20230121.1956)
 -->
<!-- Title: kepler::Array::size Pages: 1 -->
<svg width="442pt" height="492pt"
 viewBox="0.00 0.00 442.00 491.92" xmlns="http://www.w3.org/2000/svg" xmlns:xlink="http://www.w3.org/1999/xlink">
<g id="graph0" class="graph" transform="scale(1 1) rotate(0) translate(4 487.92)">
<title>kepler::Array::size</title>
<!-- Node1 -->
<g id="node1" class="node">
<title>Node1</title>
<g id="a_node1"><a xlink:title=" ">
<polygon fill="#999999" stroke="#666666" points="434,-270.5 338,-270.5 338,-251.5 434,-251.5 434,-270.5"/>
<text text-anchor="middle" x="386" y="-258.5" font-family="Helvetica,sans-Serif" font-size="10.00">kepler::Array::size</text>
</a>
</g>
</g>
<!-- Node2 -->
<g id="node2" class="node">
<title>Node2</title>
<g id="a_node2"><a xlink:href="structkepler_1_1_left_shoe.html#a0c3fbe0e57ebbbcba263652ca3425723" target="_top" xlink:title=" ">
<polygon fill="white" stroke="#666666" points="135,-465.5 0,-465.5 0,-446.5 135,-446.5 135,-465.5"/>
<text text-anchor="middle" x="67.5" y="-453.5" font-family="Helvetica,sans-Serif" font-size="10.00">kepler::LeftShoe::operator()</text>
</a>
</g>
</g>
<!-- Node1&#45;&gt;Node2 -->
<g id="edge1" class="edge">
<title>Node1&#45;&gt;Node2</title>
<path fill="none" stroke="#63b8ff" d="M383.47,-282.03C379.12,-324.21 362.75,-418.59 302,-459 239.21,-500.76 144.4,-480.25 97.24,-465.92"/>
<polygon fill="#63b8ff" stroke="#63b8ff" points="386.94,-282.5 384.33,-272.23 379.97,-281.89 386.94,-282.5"/>
</g>
<!-- Node3 -->
<g id="node3" class="node">
<title>Node3</title>
<g id="a_node3"><a xlink:href="structkepler_1_1_circle_bar.html#ad4d789ada13f9e9152417c8034abee01" target="_top" xlink:title=" ">
<polygon fill="white" stroke="#666666" points="115,-388 20,-388 20,-358 115,-358 115,-388"/>
<text text-anchor="start" x="28" y="-376" font-family="Helvetica,sans-Serif" font-size="10.00">kepler::CircleBar::</text>
<text text-anchor="middle" x="67.5" y="-365" font-family="Helvetica,sans-Serif" font-size="10.00">operator()</text>
</a>
</g>
</g>
<!-- Node1&#45;&gt;Node3 -->
<g id="edge2" class="edge">
<title>Node1&#45;&gt;Node3</title>
<path fill="none" stroke="#63b8ff" d="M376.89,-281.38C365,-308.11 340.03,-353.85 302,-373 242.98,-402.72 164.46,-394.59 115.19,-384.77"/>
<polygon fill="#63b8ff" stroke="#63b8ff" points="380.05,-282.88 380.72,-272.31 373.6,-280.16 380.05,-282.88"/>
</g>
<!-- Node4 -->
<g id="node4" class="node">
<title>Node4</title>
<g id="a_node4"><a xlink:href="structkepler_1_1_circle_stile.html#a29677d4fd43e1db4bacaddc636efa189" target="_top" xlink:title=" ">
<polygon fill="white" stroke="#666666" points="114.5,-274 20.5,-274 20.5,-244 114.5,-244 114.5,-274"/>
<text text-anchor="start" x="28.5" y="-262" font-family="Helvetica,sans-Serif" font-size="10.00">kepler::CircleStile</text>
<text text-anchor="middle" x="67.5" y="-251" font-family="Helvetica,sans-Serif" font-size="10.00">::operator()</text>
</a>
</g>
</g>
<!-- Node1&#45;&gt;Node4 -->
<g id="edge3" class="edge">
<title>Node1&#45;&gt;Node4</title>
<path fill="none" stroke="#63b8ff" d="M370.71,-242.3C355.8,-224.47 330.63,-198.8 302,-188 247.52,-167.45 226.57,-170.63 171,-188 136.08,-198.91 102.6,-226.36 83.87,-243.75"/>
<polygon fill="#63b8ff" stroke="#63b8ff" points="367.96,-244.46 376.95,-250.07 373.42,-240.08 367.96,-244.46"/>
</g>
<!-- Node5 -->
<g id="node5" class="node">
<title>Node5</title>
<g id="a_node5"><a xlink:href="structkepler_1_1_arrow_up.html#ab1b075f1c3ad3585a1ecbe0bf5e4ed24" target="_top" xlink:title=" ">
<polygon fill="white" stroke="#666666" points="134.5,-131.5 0.5,-131.5 0.5,-112.5 134.5,-112.5 134.5,-131.5"/>
<text text-anchor="middle" x="67.5" y="-119.5" font-family="Helvetica,sans-Serif" font-size="10.00">kepler::ArrowUp::operator()</text>
</a>
</g>
</g>
<!-- Node1&#45;&gt;Node5 -->
<g id="edge4" class="edge">
<title>Node1&#45;&gt;Node5</title>
<path fill="none" stroke="#63b8ff" d="M372.93,-241.42C358.7,-220.09 333.02,-186.67 302,-169 250.62,-139.74 183.78,-128.5 134.79,-124.28"/>
<polygon fill="#63b8ff" stroke="#63b8ff" points="369.96,-243.27 378.32,-249.79 375.85,-239.48 369.96,-243.27"/>
</g>
<!-- Node6 -->
<g id="node6" class="node">
<title>Node6</title>
<g id="a_node6"><a xlink:href="structkepler_1_1_neq.html#ac472506425be39a5d0855c11ffafe4f6" target="_top" xlink:title=" ">
<polygon fill="white" stroke="#666666" points="293.5,-326.5 179.5,-326.5 179.5,-307.5 293.5,-307.5 293.5,-326.5"/>
<text text-anchor="middle" x="236.5" y="-314.5" font-family="Helvetica,sans-Serif" font-size="10.00">kepler::Neq::operator()</text>
</a>
</g>
</g>
<!-- Node1&#45;&gt;Node6 -->
<g id="edge5" class="edge">
<title>Node1&#45;&gt;Node6</title>
<path fill="none" stroke="#63b8ff" d="M355.46,-275.9C339.82,-283.43 320.14,-292.36 302,-299 294.03,-301.92 285.36,-304.63 277.04,-307.03"/>
<polygon fill="#63b8ff" stroke="#63b8ff" points="356.77,-279.15 364.22,-271.61 353.7,-272.86 356.77,-279.15"/>
</g>
<!-- Node7 -->
<g id="node7" class="node">
<title>Node7</title>
<g id="a_node7"><a xlink:href="structkepler_1_1_iota.html#aff3ed08535aa814e0f19c68e8e397e40" target="_top" xlink:title=" ">
<polygon fill="white" stroke="#666666" points="293,-289.5 180,-289.5 180,-270.5 293,-270.5 293,-289.5"/>
<text text-anchor="middle" x="236.5" y="-277.5" font-family="Helvetica,sans-Serif" font-size="10.00">kepler::Iota::operator()</text>
</a>
</g>
</g>
<!-- Node1&#45;&gt;Node7 -->
<g id="edge6" class="edge">
<title>Node1&#45;&gt;Node7</title>
<path fill="none" stroke="#63b8ff" d="M326.39,-268.55C315.51,-269.95 304.17,-271.41 293.38,-272.8"/>
<polygon fill="#63b8ff" stroke="#63b8ff" points="326.55,-272.06 336.02,-267.31 325.65,-265.12 326.55,-272.06"/>
</g>
<!-- Node8 -->
<g id="node8" class="node">
<title>Node8</title>
<g id="a_node8"><a xlink:href="structkepler_1_1_comma.html#a69be487d5950b93900ff4f7be38e36ad" target="_top" xlink:title=" ">
<polygon fill="white" stroke="#666666" points="302,-252.5 171,-252.5 171,-233.5 302,-233.5 302,-252.5"/>
<text text-anchor="middle" x="236.5" y="-240.5" font-family="Helvetica,sans-Serif" font-size="10.00">kepler::Comma::operator()</text>
</a>
</g>
</g>
<!-- Node1&#45;&gt;Node8 -->
<g id="edge7" class="edge">
<title>Node1&#45;&gt;Node8</title>
<path fill="none" stroke="#63b8ff" d="M326.24,-253.83C318.39,-252.87 310.31,-251.89 302.37,-250.92"/>
<polygon fill="#63b8ff" stroke="#63b8ff" points="325.67,-257.29 336.02,-255.02 326.51,-250.34 325.67,-257.29"/>
</g>
<!-- Node9 -->
<g id="node9" class="node">
<title>Node9</title>
<g id="a_node9"><a xlink:href="structkepler_1_1_slash.html#aa8c5f4aa29df8fdb2cbfc1a2cafbda71" target="_top" xlink:title=" ">
<polygon fill="white" stroke="#666666" points="297,-215.5 176,-215.5 176,-196.5 297,-196.5 297,-215.5"/>
<text text-anchor="middle" x="236.5" y="-203.5" font-family="Helvetica,sans-Serif" font-size="10.00">kepler::Slash::operator()</text>
</a>
</g>
</g>
<!-- Node1&#45;&gt;Node9 -->
<g id="edge8" class="edge">
<title>Node1&#45;&gt;Node9</title>
<path fill="none" stroke="#63b8ff" d="M354.08,-246.51C338.62,-239.55 319.52,-231.35 302,-225 293.11,-221.78 283.39,-218.69 274.25,-215.98"/>
<polygon fill="#63b8ff" stroke="#63b8ff" points="352.21,-249.51 362.76,-250.47 355.12,-243.14 352.21,-249.51"/>
</g>
<!-- Node10 -->
<g id="node10" class="node">
<title>Node10</title>
<g id="a_node10"><a xlink:href="namespacekepler.html#ab641b8b2fc3933a9bcc27f30811c94bd" target="_top" xlink:title=" ">
<polygon fill="white" stroke="#666666" points="283.5,-450 189.5,-450 189.5,-420 283.5,-420 283.5,-450"/>
<text text-anchor="start" x="197.5" y="-438" font-family="Helvetica,sans-Serif" font-size="10.00">kepler::partitioned</text>
<text text-anchor="middle" x="236.5" y="-427" font-family="Helvetica,sans-Serif" font-size="10.00">_enclose</text>
</a>
</g>
</g>
<!-- Node1&#45;&gt;Node10 -->
<g id="edge9" class="edge">
<title>Node1&#45;&gt;Node10</title>
<path fill="none" stroke="#63b8ff" d="M377.98,-281.52C366.52,-312.3 341.07,-370.56 302,-406 296.09,-411.36 289.02,-415.87 281.77,-419.61"/>
<polygon fill="#63b8ff" stroke="#63b8ff" points="381.22,-282.86 381.29,-272.26 374.63,-280.5 381.22,-282.86"/>
</g>
<!-- Node11 -->
<g id="node11" class="node">
<title>Node11</title>
<g id="a_node11"><a xlink:href="namespacekepler.html#a9c26d292ba4263ed7f68f4f1ede08fbb" target="_top" xlink:title=" ">
<polygon fill="white" stroke="#666666" points="278,-101.5 195,-101.5 195,-82.5 278,-82.5 278,-101.5"/>
<text text-anchor="middle" x="236.5" y="-89.5" font-family="Helvetica,sans-Serif" font-size="10.00">kepler::reshape</text>
</a>
</g>
</g>
<!-- Node1&#45;&gt;Node11 -->
<g id="edge11" class="edge">
<title>Node1&#45;&gt;Node11</title>
<path fill="none" stroke="#63b8ff" d="M378.43,-240.6C367.43,-209.51 342.42,-150.29 302,-116 294.89,-109.97 286.13,-105.39 277.38,-101.93"/>
<polygon fill="#63b8ff" stroke="#63b8ff" points="375.07,-241.58 381.59,-249.93 381.7,-239.34 375.07,-241.58"/>
</g>
<!-- Node12 -->
<g id="node12" class="node">
<title>Node12</title>
<g id="a_node12"><a xlink:href="namespacekepler.html#a5d53d8d215c23865190574f886dd4484" target="_top" xlink:title=" ">
<polygon fill="white" stroke="#666666" points="277,-64.5 196,-64.5 196,-45.5 277,-45.5 277,-64.5"/>
<text text-anchor="middle" x="236.5" y="-52.5" font-family="Helvetica,sans-Serif" font-size="10.00">kepler::reverse</text>
</a>
</g>
</g>
<!-- Node1&#45;&gt;Node12 -->
<g id="edge13" class="edge">
<title>Node1&#45;&gt;Node12</title>
<path fill="none" stroke="#63b8ff" d="M381.57,-239.83C374.19,-201.12 353.11,-118.81 302,-74 295.07,-67.92 286.27,-63.78 277.42,-60.97"/>
<polygon fill="#63b8ff" stroke="#63b8ff" points="378.13,-240.44 383.31,-249.68 385.02,-239.22 378.13,-240.44"/>
</g>
<!-- Node15 -->
<g id="node15" class="node">
<title>Node15</title>
<g id="a_node15"><a xlink:href="namespacekepler.html#a2e0061e6ccc074df0dabcaf61f4517b8" target="_top" xlink:title=" ">
<polygon fill="white" stroke="#666666" points="273.5,-363.5 199.5,-363.5 199.5,-344.5 273.5,-344.5 273.5,-363.5"/>
<text text-anchor="middle" x="236.5" y="-351.5" font-family="Helvetica,sans-Serif" font-size="10.00">kepler::rotate</text>
</a>
</g>
</g>
<!-- Node1&#45;&gt;Node15 -->
<g id="edge16" class="edge">
<title>Node1&#45;&gt;Node15</title>
<path fill="none" stroke="#63b8ff" d="M369.33,-279.39C353.85,-296.43 328.7,-321.29 302,-336 293.34,-340.77 283.33,-344.35 273.8,-347.02"/>
<polygon fill="#63b8ff" stroke="#63b8ff" points="371.88,-281.79 375.87,-271.98 366.63,-277.16 371.88,-281.79"/>
</g>
<!-- Node10&#45;&gt;Node2 -->
<g id="edge10" class="edge">
<title>Node10&#45;&gt;Node2</title>
<path fill="none" stroke="#63b8ff" d="M178.14,-442.21C164.37,-443.95 149.53,-445.81 135.37,-447.59"/>
<polygon fill="#63b8ff" stroke="#63b8ff" points="178.44,-445.7 187.92,-440.98 177.56,-438.76 178.44,-445.7"/>
</g>
<!-- Node11&#45;&gt;Node5 -->
<g id="edge12" class="edge">
<title>Node11&#45;&gt;Node5</title>
<path fill="none" stroke="#63b8ff" d="M183.56,-101.33C164.67,-104.72 143.25,-108.57 124.06,-112.02"/>
<polygon fill="#63b8ff" stroke="#63b8ff" points="183.93,-104.82 193.16,-99.61 182.7,-97.93 183.93,-104.82"/>
</g>
<!-- Node13 -->
<g id="node13" class="node">
<title>Node13</title>
<g id="a_node13"><a xlink:href="structkepler_1_1_circle_bar.html#a71671ba0c73be8ee79cceb7bd8dd831a" target="_top" xlink:title=" ">
<polygon fill="white" stroke="#666666" points="115,-78 20,-78 20,-48 115,-48 115,-78"/>
<text text-anchor="start" x="28" y="-66" font-family="Helvetica,sans-Serif" font-size="10.00">kepler::CircleBar::</text>
<text text-anchor="middle" x="67.5" y="-55" font-family="Helvetica,sans-Serif" font-size="10.00">operator()</text>
</a>
</g>
</g>
<!-- Node12&#45;&gt;Node13 -->
<g id="edge14" class="edge">
<title>Node12&#45;&gt;Node13</title>
<path fill="none" stroke="#63b8ff" d="M184.42,-57.45C162.37,-58.5 136.75,-59.73 115.2,-60.76"/>
<polygon fill="#63b8ff" stroke="#63b8ff" points="184.59,-60.94 194.41,-56.97 184.26,-53.95 184.59,-60.94"/>
</g>
<!-- Node14 -->
<g id="node14" class="node">
<title>Node14</title>
<g id="a_node14"><a xlink:href="structkepler_1_1_circle_stile.html#ae3e658a67df48a0457ed356f29ff1fc9" target="_top" xlink:title=" ">
<polygon fill="white" stroke="#666666" points="114.5,-30 20.5,-30 20.5,0 114.5,0 114.5,-30"/>
<text text-anchor="start" x="28.5" y="-18" font-family="Helvetica,sans-Serif" font-size="10.00">kepler::CircleStile</text>
<text text-anchor="middle" x="67.5" y="-7" font-family="Helvetica,sans-Serif" font-size="10.00">::operator()</text>
</a>
</g>
</g>
<!-- Node12&#45;&gt;Node14 -->
<g id="edge15" class="edge">
<title>Node12&#45;&gt;Node14</title>
<path fill="none" stroke="#63b8ff" d="M184.99,-42.9C162.71,-37.56 136.69,-31.33 114.9,-26.11"/>
<polygon fill="#63b8ff" stroke="#63b8ff" points="183.91,-46.24 194.45,-45.17 185.54,-39.43 183.91,-46.24"/>
</g>
<!-- Node15&#45;&gt;Node3 -->
<g id="edge17" class="edge">
<title>Node15&#45;&gt;Node3</title>
<path fill="none" stroke="#63b8ff" d="M187.84,-359.42C165.14,-362.01 138.07,-365.08 115.46,-367.66"/>
<polygon fill="#63b8ff" stroke="#63b8ff" points="188.22,-362.9 197.76,-358.29 187.43,-355.95 188.22,-362.9"/>
</g>
<!-- Node15&#45;&gt;Node4 -->
<g id="edge18" class="edge">
<title>Node15&#45;&gt;Node4</title>
<path fill="none" stroke="#63b8ff" d="M188.4,-343.08C182.42,-341.05 176.47,-338.7 171,-336 137.67,-319.56 104.2,-291.8 84.96,-274.49"/>
<polygon fill="#63b8ff" stroke="#63b8ff" points="187.1,-346.34 197.69,-345.95 189.17,-339.65 187.1,-346.34"/>
</g>
</g>
</svg>
