<?xml version="1.0" encoding="UTF-8" standalone="no"?>
<!DOCTYPE svg PUBLIC "-//W3C//DTD SVG 1.1//EN"
 "http://www.w3.org/Graphics/SVG/1.1/DTD/svg11.dtd">
<!-- Generated by graphviz version 7.1.0 (20230121.1956)
 -->
<!-- Title: kepler::PervadeMixin&lt; BASE &gt; Pages: 1 -->
<svg width="150pt" height="259pt"
 viewBox="0.00 0.00 150.00 259.00" xmlns="http://www.w3.org/2000/svg" xmlns:xlink="http://www.w3.org/1999/xlink">
<g id="graph0" class="graph" transform="scale(1 1) rotate(0) translate(4 255)">
<title>kepler::PervadeMixin&lt; BASE &gt;</title>
<!-- Node1 -->
<g id="node1" class="node">
<title>Node1</title>
<g id="a_node1"><a xlink:title=" ">
<polygon fill="#999999" stroke="#666666" points="0,-0.5 0,-156.5 142,-156.5 142,-0.5 0,-0.5"/>
<text text-anchor="start" x="8" y="-144.5" font-family="Helvetica,sans-Serif" font-size="10.00">kepler::PervadeMixin</text>
<text text-anchor="middle" x="71" y="-133.5" font-family="Helvetica,sans-Serif" font-size="10.00">&lt; BASE &gt;</text>
<polyline fill="none" stroke="#666666" points="0,-126.5 142,-126.5"/>
<text text-anchor="middle" x="71" y="-114.5" font-family="Helvetica,sans-Serif" font-size="10.00"> </text>
<polyline fill="none" stroke="#666666" points="0,-107.5 142,-107.5"/>
<text text-anchor="start" x="8" y="-95.5" font-family="Helvetica,sans-Serif" font-size="10.00">+ virtual Array operator</text>
<text text-anchor="start" x="8" y="-84.5" font-family="Helvetica,sans-Serif" font-size="10.00">()(const Array &amp;omega)</text>
<text text-anchor="start" x="8" y="-73.5" font-family="Helvetica,sans-Serif" font-size="10.00">+ virtual Array operator</text>
<text text-anchor="start" x="8" y="-62.5" font-family="Helvetica,sans-Serif" font-size="10.00">()(const Array &amp;alpha,</text>
<text text-anchor="start" x="8" y="-51.5" font-family="Helvetica,sans-Serif" font-size="10.00"> const Array &amp;omega)</text>
<text text-anchor="start" x="8" y="-40.5" font-family="Helvetica,sans-Serif" font-size="10.00">+ virtual Array operator</text>
<text text-anchor="start" x="8" y="-29.5" font-family="Helvetica,sans-Serif" font-size="10.00">()(const std::u32string</text>
<text text-anchor="start" x="8" y="-18.5" font-family="Helvetica,sans-Serif" font-size="10.00"> &amp;alpha, const std::u32string</text>
<text text-anchor="start" x="8" y="-7.5" font-family="Helvetica,sans-Serif" font-size="10.00"> &amp;omega)</text>
</a>
</g>
</g>
<!-- Node2 -->
<g id="node2" class="node">
<title>Node2</title>
<g id="a_node2"><a xlink:href="class_b_a_s_e.html" target="_top" xlink:title=" ">
<polygon fill="white" stroke="#666666" points="49,-193.5 49,-250.5 93,-250.5 93,-193.5 49,-193.5"/>
<text text-anchor="middle" x="71" y="-238.5" font-family="Helvetica,sans-Serif" font-size="10.00">BASE</text>
<polyline fill="none" stroke="#666666" points="49,-231.5 93,-231.5"/>
<text text-anchor="middle" x="71" y="-219.5" font-family="Helvetica,sans-Serif" font-size="10.00"> </text>
<polyline fill="none" stroke="#666666" points="49,-212.5 93,-212.5"/>
<text text-anchor="middle" x="71" y="-200.5" font-family="Helvetica,sans-Serif" font-size="10.00"> </text>
</a>
</g>
</g>
<!-- Node2&#45;&gt;Node1 -->
<g id="edge1" class="edge">
<title>Node2&#45;&gt;Node1</title>
<path fill="none" stroke="#63b8ff" d="M71,-182.39C71,-174.27 71,-165.43 71,-156.45"/>
<polygon fill="none" stroke="#63b8ff" points="67.5,-182.2 71,-192.2 74.5,-182.2 67.5,-182.2"/>
</g>
</g>
</svg>
