<?xml version="1.0" encoding="UTF-8" standalone="no"?>
<!DOCTYPE svg PUBLIC "-//W3C//DTD SVG 1.1//EN"
 "http://www.w3.org/Graphics/SVG/1.1/DTD/svg11.dtd">
<!-- Generated by graphviz version 7.1.0 (20230121.1956)
 -->
<!-- Title: kepler::Rho::operator() Pages: 1 -->
<svg width="373pt" height="113pt"
 viewBox="0.00 0.00 373.00 112.50" xmlns="http://www.w3.org/2000/svg" xmlns:xlink="http://www.w3.org/1999/xlink">
<g id="graph0" class="graph" transform="scale(1 1) rotate(0) translate(4 108.5)">
<title>kepler::Rho::operator()</title>
<!-- Node1 -->
<g id="node1" class="node">
<title>Node1</title>
<g id="a_node1"><a xlink:title=" ">
<polygon fill="#999999" stroke="#666666" points="114,-56 0,-56 0,-37 114,-37 114,-56"/>
<text text-anchor="middle" x="57" y="-44" font-family="Helvetica,sans-Serif" font-size="10.00">kepler::Rho::operator()</text>
</a>
</g>
</g>
<!-- Node2 -->
<g id="node2" class="node">
<title>Node2</title>
<g id="a_node2"><a xlink:href="namespacekepler.html#a2e1be937349f3fa654c55c00517d6761" target="_top" xlink:title=" ">
<polygon fill="white" stroke="#666666" points="212,-56 150,-56 150,-37 212,-37 212,-56"/>
<text text-anchor="middle" x="181" y="-44" font-family="Helvetica,sans-Serif" font-size="10.00">kepler::rho</text>
</a>
</g>
</g>
<!-- Node1&#45;&gt;Node2 -->
<g id="edge1" class="edge">
<title>Node1&#45;&gt;Node2</title>
<path fill="none" stroke="#63b8ff" d="M114.36,-46.5C122.4,-46.5 130.55,-46.5 138.25,-46.5"/>
<polygon fill="#63b8ff" stroke="#63b8ff" points="137.99,-50 147.99,-46.5 137.99,-43 137.99,-50"/>
</g>
<!-- Node3 -->
<g id="node3" class="node">
<title>Node3</title>
<g id="a_node3"><a xlink:href="structkepler_1_1_array.html#a4469c88ae890d155a6f0c7b01a40fc8d" target="_top" xlink:title=" ">
<polygon fill="white" stroke="#666666" points="364.5,-104.5 248.5,-104.5 248.5,-74.5 364.5,-74.5 364.5,-104.5"/>
<text text-anchor="start" x="256.5" y="-92.5" font-family="Helvetica,sans-Serif" font-size="10.00">kepler::Array::flattened</text>
<text text-anchor="middle" x="306.5" y="-81.5" font-family="Helvetica,sans-Serif" font-size="10.00">_shape</text>
</a>
</g>
</g>
<!-- Node2&#45;&gt;Node3 -->
<g id="edge2" class="edge">
<title>Node2&#45;&gt;Node3</title>
<path fill="none" stroke="#63b8ff" d="M210.64,-56.47C222.45,-60.58 236.55,-65.49 250.22,-70.25"/>
<polygon fill="#63b8ff" stroke="#63b8ff" points="249.02,-73.54 259.62,-73.52 251.32,-66.93 249.02,-73.54"/>
</g>
<!-- Node4 -->
<g id="node4" class="node">
<title>Node4</title>
<g id="a_node4"><a xlink:href="structkepler_1_1_array.html#ae82484749f93ec527be3eff64ddf3d37" target="_top" xlink:title=" ">
<polygon fill="white" stroke="#666666" points="365,-56 248,-56 248,-37 365,-37 365,-56"/>
<text text-anchor="middle" x="306.5" y="-44" font-family="Helvetica,sans-Serif" font-size="10.00">kepler::Array::is_scalar</text>
</a>
</g>
</g>
<!-- Node2&#45;&gt;Node4 -->
<g id="edge3" class="edge">
<title>Node2&#45;&gt;Node4</title>
<path fill="none" stroke="#63b8ff" d="M212.21,-46.5C219.58,-46.5 227.76,-46.5 236.13,-46.5"/>
<polygon fill="#63b8ff" stroke="#63b8ff" points="236.09,-50 246.09,-46.5 236.09,-43 236.09,-50"/>
</g>
<!-- Node5 -->
<g id="node5" class="node">
<title>Node5</title>
<g id="a_node5"><a xlink:href="structkepler_1_1_array.html#a5701013e5ec1699d7d8663bba09cfcdb" target="_top" xlink:title=" ">
<polygon fill="white" stroke="#666666" points="355,-19 258,-19 258,0 355,0 355,-19"/>
<text text-anchor="middle" x="306.5" y="-7" font-family="Helvetica,sans-Serif" font-size="10.00">kepler::Array::rank</text>
</a>
</g>
</g>
<!-- Node2&#45;&gt;Node5 -->
<g id="edge4" class="edge">
<title>Node2&#45;&gt;Node5</title>
<path fill="none" stroke="#63b8ff" d="M212.21,-37.45C226.95,-33.03 244.96,-27.64 261.22,-22.77"/>
<polygon fill="#63b8ff" stroke="#63b8ff" points="262.1,-26.16 270.68,-19.93 260.09,-19.45 262.1,-26.16"/>
</g>
</g>
</svg>
