<?xml version="1.0" encoding="UTF-8" standalone="no"?>
<!DOCTYPE svg PUBLIC "-//W3C//DTD SVG 1.1//EN"
 "http://www.w3.org/Graphics/SVG/1.1/DTD/svg11.dtd">
<!-- Generated by graphviz version 7.1.0 (20230121.1956)
 -->
<!-- Title: kepler::cli::Config Pages: 1 -->
<svg width="166pt" height="182pt"
 viewBox="0.00 0.00 166.00 182.00" xmlns="http://www.w3.org/2000/svg" xmlns:xlink="http://www.w3.org/1999/xlink">
<g id="graph0" class="graph" transform="scale(1 1) rotate(0) translate(4 178)">
<title>kepler::cli::Config</title>
<!-- Node1 -->
<g id="node1" class="node">
<title>Node1</title>
<g id="a_node1"><a xlink:title="The Config struct contains all configuration which can be set in the command&#45;line.">
<polygon fill="#999999" stroke="#666666" points="15,-0.5 15,-57.5 108,-57.5 108,-0.5 15,-0.5"/>
<text text-anchor="middle" x="61.5" y="-45.5" font-family="Helvetica,sans-Serif" font-size="10.00">kepler::cli::Config</text>
<polyline fill="none" stroke="#666666" points="15,-38.5 108,-38.5"/>
<text text-anchor="middle" x="61.5" y="-26.5" font-family="Helvetica,sans-Serif" font-size="10.00"> </text>
<polyline fill="none" stroke="#666666" points="15,-19.5 108,-19.5"/>
<text text-anchor="middle" x="61.5" y="-7.5" font-family="Helvetica,sans-Serif" font-size="10.00"> </text>
</a>
</g>
</g>
<!-- Node2 -->
<g id="node2" class="node">
<title>Node2</title>
<g id="a_node2"><a xlink:title=" ">
<polygon fill="white" stroke="#666666" points="0,-116.5 0,-173.5 35,-173.5 35,-116.5 0,-116.5"/>
<text text-anchor="middle" x="17.5" y="-161.5" font-family="Helvetica,sans-Serif" font-size="10.00">bool</text>
<polyline fill="none" stroke="#666666" points="0,-154.5 35,-154.5"/>
<text text-anchor="middle" x="17.5" y="-142.5" font-family="Helvetica,sans-Serif" font-size="10.00"> </text>
<polyline fill="none" stroke="#666666" points="0,-135.5 35,-135.5"/>
<text text-anchor="middle" x="17.5" y="-123.5" font-family="Helvetica,sans-Serif" font-size="10.00"> </text>
</a>
</g>
</g>
<!-- Node2&#45;&gt;Node1 -->
<g id="edge1" class="edge">
<title>Node2&#45;&gt;Node1</title>
<path fill="none" stroke="#404040" d="M20.14,-116.8C22.02,-104.06 25.19,-88.89 30.5,-76 31.57,-73.4 32.81,-70.79 34.15,-68.21"/>
<polygon fill="none" stroke="#404040" points="34.07,-68.34 33.64,-61.14 40.12,-57.97 40.55,-65.17 34.07,-68.34"/>
<text text-anchor="middle" x="57" y="-90" font-family="Helvetica,sans-Serif" font-size="10.00"> +run_tests</text>
<text text-anchor="middle" x="57" y="-79" font-family="Helvetica,sans-Serif" font-size="10.00">+show_help</text>
</g>
<!-- Node3 -->
<g id="node3" class="node">
<title>Node3</title>
<g id="a_node3"><a xlink:title=" ">
<polygon fill="white" stroke="#666666" points="53,-116.5 53,-173.5 158,-173.5 158,-116.5 53,-116.5"/>
<text text-anchor="middle" x="105.5" y="-161.5" font-family="Helvetica,sans-Serif" font-size="10.00">vector&lt; std::string &gt;</text>
<polyline fill="none" stroke="#666666" points="53,-154.5 158,-154.5"/>
<text text-anchor="middle" x="105.5" y="-142.5" font-family="Helvetica,sans-Serif" font-size="10.00"> </text>
<polyline fill="none" stroke="#666666" points="53,-135.5 158,-135.5"/>
<text text-anchor="middle" x="105.5" y="-123.5" font-family="Helvetica,sans-Serif" font-size="10.00"> </text>
</a>
</g>
</g>
<!-- Node3&#45;&gt;Node1 -->
<g id="edge2" class="edge">
<title>Node3&#45;&gt;Node1</title>
<path fill="none" stroke="#404040" d="M97.54,-116.57C93.68,-104.06 88.74,-89.14 83.5,-76 82.63,-73.81 81.7,-71.58 80.74,-69.35"/>
<polygon fill="none" stroke="#404040" points="80.68,-69.22 74.56,-65.4 75.74,-58.29 81.85,-62.11 80.68,-69.22"/>
<text text-anchor="middle" x="119.5" y="-84.5" font-family="Helvetica,sans-Serif" font-size="10.00"> +commands</text>
</g>
</g>
</svg>
