<?xml version="1.0" encoding="UTF-8" standalone="no"?>
<!DOCTYPE svg PUBLIC "-//W3C//DTD SVG 1.1//EN"
 "http://www.w3.org/Graphics/SVG/1.1/DTD/svg11.dtd">
<!-- Generated by graphviz version 7.1.0 (20230121.1956)
 -->
<!-- Title: kepler::PervadeMixin&lt; BASE &gt; Pages: 1 -->
<svg width="3556pt" height="647pt"
 viewBox="0.00 0.00 3556.00 647.00" xmlns="http://www.w3.org/2000/svg" xmlns:xlink="http://www.w3.org/1999/xlink">
<g id="graph0" class="graph" transform="scale(1 1) rotate(0) translate(4 643)">
<title>kepler::PervadeMixin&lt; BASE &gt;</title>
<!-- Node1 -->
<g id="node1" class="node">
<title>Node1</title>
<g id="a_node1"><a xlink:title=" ">
<polygon fill="#999999" stroke="#666666" points="1682,-387.5 1682,-543.5 1824,-543.5 1824,-387.5 1682,-387.5"/>
<text text-anchor="start" x="1690" y="-531.5" font-family="Helvetica,sans-Serif" font-size="10.00">kepler::PervadeMixin</text>
<text text-anchor="middle" x="1753" y="-520.5" font-family="Helvetica,sans-Serif" font-size="10.00">&lt; BASE &gt;</text>
<polyline fill="none" stroke="#666666" points="1682,-513.5 1824,-513.5"/>
<text text-anchor="middle" x="1753" y="-501.5" font-family="Helvetica,sans-Serif" font-size="10.00"> </text>
<polyline fill="none" stroke="#666666" points="1682,-494.5 1824,-494.5"/>
<text text-anchor="start" x="1690" y="-482.5" font-family="Helvetica,sans-Serif" font-size="10.00">+ virtual Array operator</text>
<text text-anchor="start" x="1690" y="-471.5" font-family="Helvetica,sans-Serif" font-size="10.00">()(const Array &amp;omega)</text>
<text text-anchor="start" x="1690" y="-460.5" font-family="Helvetica,sans-Serif" font-size="10.00">+ virtual Array operator</text>
<text text-anchor="start" x="1690" y="-449.5" font-family="Helvetica,sans-Serif" font-size="10.00">()(const Array &amp;alpha,</text>
<text text-anchor="start" x="1690" y="-438.5" font-family="Helvetica,sans-Serif" font-size="10.00"> const Array &amp;omega)</text>
<text text-anchor="start" x="1690" y="-427.5" font-family="Helvetica,sans-Serif" font-size="10.00">+ virtual Array operator</text>
<text text-anchor="start" x="1690" y="-416.5" font-family="Helvetica,sans-Serif" font-size="10.00">()(const std::u32string</text>
<text text-anchor="start" x="1690" y="-405.5" font-family="Helvetica,sans-Serif" font-size="10.00"> &amp;alpha, const std::u32string</text>
<text text-anchor="start" x="1690" y="-394.5" font-family="Helvetica,sans-Serif" font-size="10.00"> &amp;omega)</text>
</a>
</g>
</g>
<!-- Node3 -->
<g id="node3" class="node">
<title>Node3</title>
<g id="a_node3"><a xlink:href="structkepler_1_1_pervade_mixin.html" target="_top" xlink:title=" ">
<polygon fill="white" stroke="#666666" points="1682,-183.5 1682,-339.5 1824,-339.5 1824,-183.5 1682,-183.5"/>
<text text-anchor="start" x="1690" y="-327.5" font-family="Helvetica,sans-Serif" font-size="10.00">kepler::PervadeMixin</text>
<text text-anchor="middle" x="1753" y="-316.5" font-family="Helvetica,sans-Serif" font-size="10.00">&lt; Operation &gt;</text>
<polyline fill="none" stroke="#666666" points="1682,-309.5 1824,-309.5"/>
<text text-anchor="middle" x="1753" y="-297.5" font-family="Helvetica,sans-Serif" font-size="10.00"> </text>
<polyline fill="none" stroke="#666666" points="1682,-290.5 1824,-290.5"/>
<text text-anchor="start" x="1690" y="-278.5" font-family="Helvetica,sans-Serif" font-size="10.00">+ virtual Array operator</text>
<text text-anchor="start" x="1690" y="-267.5" font-family="Helvetica,sans-Serif" font-size="10.00">()(const Array &amp;omega)</text>
<text text-anchor="start" x="1690" y="-256.5" font-family="Helvetica,sans-Serif" font-size="10.00">+ virtual Array operator</text>
<text text-anchor="start" x="1690" y="-245.5" font-family="Helvetica,sans-Serif" font-size="10.00">()(const Array &amp;alpha,</text>
<text text-anchor="start" x="1690" y="-234.5" font-family="Helvetica,sans-Serif" font-size="10.00"> const Array &amp;omega)</text>
<text text-anchor="start" x="1690" y="-223.5" font-family="Helvetica,sans-Serif" font-size="10.00">+ virtual Array operator</text>
<text text-anchor="start" x="1690" y="-212.5" font-family="Helvetica,sans-Serif" font-size="10.00">()(const std::u32string</text>
<text text-anchor="start" x="1690" y="-201.5" font-family="Helvetica,sans-Serif" font-size="10.00"> &amp;alpha, const std::u32string</text>
<text text-anchor="start" x="1690" y="-190.5" font-family="Helvetica,sans-Serif" font-size="10.00"> &amp;omega)</text>
</a>
</g>
</g>
<!-- Node1&#45;&gt;Node3 -->
<g id="edge2" class="edge">
<title>Node1&#45;&gt;Node3</title>
<path fill="none" stroke="orange" d="M1753,-376.31C1753,-363.96 1753,-351.35 1753,-339.23"/>
<polygon fill="orange" stroke="orange" points="1749.5,-376.04 1753,-386.04 1756.5,-376.04 1749.5,-376.04"/>
<text text-anchor="middle" x="1785" y="-361" font-family="Helvetica,sans-Serif" font-size="10.00"> &lt; Operation &gt;</text>
</g>
<!-- Node2 -->
<g id="node2" class="node">
<title>Node2</title>
<g id="a_node2"><a xlink:href="class_b_a_s_e.html" target="_top" xlink:title=" ">
<polygon fill="white" stroke="#666666" points="1731,-581.5 1731,-638.5 1775,-638.5 1775,-581.5 1731,-581.5"/>
<text text-anchor="middle" x="1753" y="-626.5" font-family="Helvetica,sans-Serif" font-size="10.00">BASE</text>
<polyline fill="none" stroke="#666666" points="1731,-619.5 1775,-619.5"/>
<text text-anchor="middle" x="1753" y="-607.5" font-family="Helvetica,sans-Serif" font-size="10.00"> </text>
<polyline fill="none" stroke="#666666" points="1731,-600.5 1775,-600.5"/>
<text text-anchor="middle" x="1753" y="-588.5" font-family="Helvetica,sans-Serif" font-size="10.00"> </text>
</a>
</g>
</g>
<!-- Node2&#45;&gt;Node1 -->
<g id="edge1" class="edge">
<title>Node2&#45;&gt;Node1</title>
<path fill="none" stroke="#63b8ff" d="M1753,-570.23C1753,-561.84 1753,-552.68 1753,-543.39"/>
<polygon fill="none" stroke="#63b8ff" points="1749.5,-570.01 1753,-580.01 1756.5,-570.01 1749.5,-570.01"/>
</g>
<!-- Node4 -->
<g id="node4" class="node">
<title>Node4</title>
<g id="a_node4"><a xlink:href="structkepler_1_1_and.html" target="_top" xlink:title=" ">
<polygon fill="white" stroke="#666666" points="0,-0.5 0,-145.5 148,-145.5 148,-0.5 0,-0.5"/>
<text text-anchor="middle" x="74" y="-133.5" font-family="Helvetica,sans-Serif" font-size="10.00">kepler::And</text>
<polyline fill="none" stroke="#666666" points="0,-126.5 148,-126.5"/>
<text text-anchor="middle" x="74" y="-114.5" font-family="Helvetica,sans-Serif" font-size="10.00"> </text>
<polyline fill="none" stroke="#666666" points="0,-107.5 148,-107.5"/>
<text text-anchor="start" x="8" y="-95.5" font-family="Helvetica,sans-Serif" font-size="10.00">+ Array operator()(const</text>
<text text-anchor="start" x="8" y="-84.5" font-family="Helvetica,sans-Serif" font-size="10.00"> Number &amp;alpha, const</text>
<text text-anchor="start" x="8" y="-73.5" font-family="Helvetica,sans-Serif" font-size="10.00"> Number &amp;omega) override</text>
<text text-anchor="start" x="8" y="-62.5" font-family="Helvetica,sans-Serif" font-size="10.00">+ Array operator()(const</text>
<text text-anchor="start" x="8" y="-51.5" font-family="Helvetica,sans-Serif" font-size="10.00"> std::u32string &amp;alpha,</text>
<text text-anchor="start" x="8" y="-40.5" font-family="Helvetica,sans-Serif" font-size="10.00"> const std::u32string &amp;omega)</text>
<text text-anchor="start" x="8" y="-29.5" font-family="Helvetica,sans-Serif" font-size="10.00"> override</text>
<text text-anchor="start" x="8" y="-18.5" font-family="Helvetica,sans-Serif" font-size="10.00">+ Array operator()(const</text>
<text text-anchor="start" x="8" y="-7.5" font-family="Helvetica,sans-Serif" font-size="10.00"> Number &amp;omega) override</text>
</a>
</g>
</g>
<!-- Node3&#45;&gt;Node4 -->
<g id="edge3" class="edge">
<title>Node3&#45;&gt;Node4</title>
<path fill="none" stroke="#63b8ff" d="M1670.85,-255.55C1455.8,-242.43 858.59,-205.05 362,-165 270.79,-157.64 241.15,-181.93 157,-146 153.93,-144.69 150.89,-143.22 147.9,-141.62"/>
<polygon fill="none" stroke="#63b8ff" points="1670.32,-259.02 1680.51,-256.14 1670.74,-252.03 1670.32,-259.02"/>
</g>
<!-- Node5 -->
<g id="node5" class="node">
<title>Node5</title>
<g id="a_node5"><a xlink:href="structkepler_1_1_bar.html" target="_top" xlink:title=" ">
<polygon fill="white" stroke="#666666" points="166,-22.5 166,-123.5 300,-123.5 300,-22.5 166,-22.5"/>
<text text-anchor="middle" x="233" y="-111.5" font-family="Helvetica,sans-Serif" font-size="10.00">kepler::Bar</text>
<polyline fill="none" stroke="#666666" points="166,-104.5 300,-104.5"/>
<text text-anchor="middle" x="233" y="-92.5" font-family="Helvetica,sans-Serif" font-size="10.00"> </text>
<polyline fill="none" stroke="#666666" points="166,-85.5 300,-85.5"/>
<text text-anchor="start" x="174" y="-73.5" font-family="Helvetica,sans-Serif" font-size="10.00">+ Array operator()(const</text>
<text text-anchor="start" x="174" y="-62.5" font-family="Helvetica,sans-Serif" font-size="10.00"> Number &amp;omega) override</text>
<text text-anchor="start" x="174" y="-51.5" font-family="Helvetica,sans-Serif" font-size="10.00">+ Array operator()(const</text>
<text text-anchor="start" x="174" y="-40.5" font-family="Helvetica,sans-Serif" font-size="10.00"> Number &amp;alpha, const</text>
<text text-anchor="start" x="174" y="-29.5" font-family="Helvetica,sans-Serif" font-size="10.00"> Number &amp;omega) override</text>
</a>
</g>
</g>
<!-- Node3&#45;&gt;Node5 -->
<g id="edge4" class="edge">
<title>Node3&#45;&gt;Node5</title>
<path fill="none" stroke="#63b8ff" d="M1670.94,-254.6C1472.41,-240.22 950.38,-201.87 515,-165 423.38,-157.24 392.76,-183.93 309,-146 296.91,-140.53 285.54,-132.32 275.46,-123.39"/>
<polygon fill="none" stroke="#63b8ff" points="1670.4,-258.07 1680.63,-255.3 1670.91,-251.09 1670.4,-258.07"/>
</g>
<!-- Node6 -->
<g id="node6" class="node">
<title>Node6</title>
<g id="a_node6"><a xlink:href="structkepler_1_1_ceiling.html" target="_top" xlink:title=" ">
<polygon fill="white" stroke="#666666" points="318,-22.5 318,-123.5 452,-123.5 452,-22.5 318,-22.5"/>
<text text-anchor="middle" x="385" y="-111.5" font-family="Helvetica,sans-Serif" font-size="10.00">kepler::Ceiling</text>
<polyline fill="none" stroke="#666666" points="318,-104.5 452,-104.5"/>
<text text-anchor="middle" x="385" y="-92.5" font-family="Helvetica,sans-Serif" font-size="10.00"> </text>
<polyline fill="none" stroke="#666666" points="318,-85.5 452,-85.5"/>
<text text-anchor="start" x="326" y="-73.5" font-family="Helvetica,sans-Serif" font-size="10.00">+ Array operator()(const</text>
<text text-anchor="start" x="326" y="-62.5" font-family="Helvetica,sans-Serif" font-size="10.00"> Number &amp;alpha, const</text>
<text text-anchor="start" x="326" y="-51.5" font-family="Helvetica,sans-Serif" font-size="10.00"> Number &amp;omega) override</text>
<text text-anchor="start" x="326" y="-40.5" font-family="Helvetica,sans-Serif" font-size="10.00">+ Array operator()(const</text>
<text text-anchor="start" x="326" y="-29.5" font-family="Helvetica,sans-Serif" font-size="10.00"> Number &amp;omega) override</text>
</a>
</g>
</g>
<!-- Node3&#45;&gt;Node6 -->
<g id="edge5" class="edge">
<title>Node3&#45;&gt;Node6</title>
<path fill="none" stroke="#63b8ff" d="M1670.85,-253.59C1488.54,-238.21 1036.35,-199.74 658,-165 570.41,-156.96 541.05,-182.45 461,-146 448.92,-140.5 437.56,-132.28 427.47,-123.35"/>
<polygon fill="none" stroke="#63b8ff" points="1670.43,-257.07 1680.69,-254.42 1671.02,-250.1 1670.43,-257.07"/>
</g>
<!-- Node7 -->
<g id="node7" class="node">
<title>Node7</title>
<g id="a_node7"><a xlink:href="structkepler_1_1_circle.html" target="_top" xlink:title=" ">
<polygon fill="white" stroke="#666666" points="470,-22.5 470,-123.5 604,-123.5 604,-22.5 470,-22.5"/>
<text text-anchor="middle" x="537" y="-111.5" font-family="Helvetica,sans-Serif" font-size="10.00">kepler::Circle</text>
<polyline fill="none" stroke="#666666" points="470,-104.5 604,-104.5"/>
<text text-anchor="middle" x="537" y="-92.5" font-family="Helvetica,sans-Serif" font-size="10.00"> </text>
<polyline fill="none" stroke="#666666" points="470,-85.5 604,-85.5"/>
<text text-anchor="start" x="478" y="-73.5" font-family="Helvetica,sans-Serif" font-size="10.00">+ Array operator()(const</text>
<text text-anchor="start" x="478" y="-62.5" font-family="Helvetica,sans-Serif" font-size="10.00"> Number &amp;omega) override</text>
<text text-anchor="start" x="478" y="-51.5" font-family="Helvetica,sans-Serif" font-size="10.00">+ Array operator()(const</text>
<text text-anchor="start" x="478" y="-40.5" font-family="Helvetica,sans-Serif" font-size="10.00"> Number &amp;alpha, const</text>
<text text-anchor="start" x="478" y="-29.5" font-family="Helvetica,sans-Serif" font-size="10.00"> Number &amp;omega) override</text>
</a>
</g>
</g>
<!-- Node3&#45;&gt;Node7 -->
<g id="edge6" class="edge">
<title>Node3&#45;&gt;Node7</title>
<path fill="none" stroke="#63b8ff" d="M1670.85,-259.08C1442.06,-254.08 801.98,-232.5 613,-146 600.94,-140.48 589.57,-132.25 579.49,-123.31"/>
<polygon fill="none" stroke="#63b8ff" points="1670.5,-262.58 1680.57,-259.29 1670.65,-255.58 1670.5,-262.58"/>
</g>
<!-- Node8 -->
<g id="node8" class="node">
<title>Node8</title>
<g id="a_node8"><a xlink:href="structkepler_1_1_divide.html" target="_top" xlink:title=" ">
<polygon fill="white" stroke="#666666" points="622,-22.5 622,-123.5 756,-123.5 756,-22.5 622,-22.5"/>
<text text-anchor="middle" x="689" y="-111.5" font-family="Helvetica,sans-Serif" font-size="10.00">kepler::Divide</text>
<polyline fill="none" stroke="#666666" points="622,-104.5 756,-104.5"/>
<text text-anchor="middle" x="689" y="-92.5" font-family="Helvetica,sans-Serif" font-size="10.00"> </text>
<polyline fill="none" stroke="#666666" points="622,-85.5 756,-85.5"/>
<text text-anchor="start" x="630" y="-73.5" font-family="Helvetica,sans-Serif" font-size="10.00">+ Array operator()(const</text>
<text text-anchor="start" x="630" y="-62.5" font-family="Helvetica,sans-Serif" font-size="10.00"> Number &amp;alpha, const</text>
<text text-anchor="start" x="630" y="-51.5" font-family="Helvetica,sans-Serif" font-size="10.00"> Number &amp;omega) override</text>
<text text-anchor="start" x="630" y="-40.5" font-family="Helvetica,sans-Serif" font-size="10.00">+ Array operator()(const</text>
<text text-anchor="start" x="630" y="-29.5" font-family="Helvetica,sans-Serif" font-size="10.00"> Number &amp;omega) override</text>
</a>
</g>
</g>
<!-- Node3&#45;&gt;Node8 -->
<g id="edge7" class="edge">
<title>Node3&#45;&gt;Node8</title>
<path fill="none" stroke="#63b8ff" d="M1670.82,-257.62C1463.74,-249.33 925.56,-220.98 765,-146 752.98,-140.39 741.63,-132.12 731.56,-123.17"/>
<polygon fill="none" stroke="#63b8ff" points="1670.57,-261.12 1680.7,-258.01 1670.84,-254.12 1670.57,-261.12"/>
</g>
<!-- Node9 -->
<g id="node9" class="node">
<title>Node9</title>
<g id="a_node9"><a xlink:href="structkepler_1_1_eq.html" target="_top" xlink:title=" ">
<polygon fill="white" stroke="#666666" points="774,-17 774,-129 908,-129 908,-17 774,-17"/>
<text text-anchor="middle" x="841" y="-117" font-family="Helvetica,sans-Serif" font-size="10.00">kepler::Eq</text>
<polyline fill="none" stroke="#666666" points="774,-110 908,-110"/>
<text text-anchor="middle" x="841" y="-98" font-family="Helvetica,sans-Serif" font-size="10.00"> </text>
<polyline fill="none" stroke="#666666" points="774,-91 908,-91"/>
<text text-anchor="start" x="782" y="-79" font-family="Helvetica,sans-Serif" font-size="10.00">+ Array operator()(const</text>
<text text-anchor="start" x="782" y="-68" font-family="Helvetica,sans-Serif" font-size="10.00"> Number &amp;alpha, const</text>
<text text-anchor="start" x="782" y="-57" font-family="Helvetica,sans-Serif" font-size="10.00"> Number &amp;omega) override</text>
<text text-anchor="start" x="782" y="-46" font-family="Helvetica,sans-Serif" font-size="10.00">+ Array operator()(const</text>
<text text-anchor="start" x="782" y="-35" font-family="Helvetica,sans-Serif" font-size="10.00"> Char &amp;alpha, const Char</text>
<text text-anchor="start" x="782" y="-24" font-family="Helvetica,sans-Serif" font-size="10.00"> &amp;omega) override</text>
</a>
</g>
</g>
<!-- Node3&#45;&gt;Node9 -->
<g id="edge8" class="edge">
<title>Node3&#45;&gt;Node9</title>
<path fill="none" stroke="#63b8ff" d="M1670.7,-255.64C1487.01,-243.76 1049.38,-209.5 917,-146 907.66,-141.52 898.71,-135.46 890.44,-128.76"/>
<polygon fill="none" stroke="#63b8ff" points="1670.44,-259.13 1680.65,-256.27 1670.89,-252.14 1670.44,-259.13"/>
</g>
<!-- Node10 -->
<g id="node10" class="node">
<title>Node10</title>
<g id="a_node10"><a xlink:href="structkepler_1_1_exclamation_mark.html" target="_top" xlink:title=" ">
<polygon fill="white" stroke="#666666" points="926,-22.5 926,-123.5 1060,-123.5 1060,-22.5 926,-22.5"/>
<text text-anchor="middle" x="993" y="-111.5" font-family="Helvetica,sans-Serif" font-size="10.00">kepler::ExclamationMark</text>
<polyline fill="none" stroke="#666666" points="926,-104.5 1060,-104.5"/>
<text text-anchor="middle" x="993" y="-92.5" font-family="Helvetica,sans-Serif" font-size="10.00"> </text>
<polyline fill="none" stroke="#666666" points="926,-85.5 1060,-85.5"/>
<text text-anchor="start" x="934" y="-73.5" font-family="Helvetica,sans-Serif" font-size="10.00">+ Array operator()(const</text>
<text text-anchor="start" x="934" y="-62.5" font-family="Helvetica,sans-Serif" font-size="10.00"> Number &amp;omega) override</text>
<text text-anchor="start" x="934" y="-51.5" font-family="Helvetica,sans-Serif" font-size="10.00">+ Array operator()(const</text>
<text text-anchor="start" x="934" y="-40.5" font-family="Helvetica,sans-Serif" font-size="10.00"> Number &amp;alpha, const</text>
<text text-anchor="start" x="934" y="-29.5" font-family="Helvetica,sans-Serif" font-size="10.00"> Number &amp;omega) override</text>
</a>
</g>
</g>
<!-- Node3&#45;&gt;Node10 -->
<g id="edge9" class="edge">
<title>Node3&#45;&gt;Node10</title>
<path fill="none" stroke="#63b8ff" d="M1670.99,-252.82C1513.19,-237.06 1173.66,-198.13 1069,-146 1057.45,-140.25 1046.46,-132.15 1036.61,-123.44"/>
<polygon fill="none" stroke="#63b8ff" points="1670.23,-256.26 1680.53,-253.76 1670.92,-249.3 1670.23,-256.26"/>
</g>
<!-- Node11 -->
<g id="node11" class="node">
<title>Node11</title>
<g id="a_node11"><a xlink:href="structkepler_1_1_floor.html" target="_top" xlink:title=" ">
<polygon fill="white" stroke="#666666" points="1078,-22.5 1078,-123.5 1212,-123.5 1212,-22.5 1078,-22.5"/>
<text text-anchor="middle" x="1145" y="-111.5" font-family="Helvetica,sans-Serif" font-size="10.00">kepler::Floor</text>
<polyline fill="none" stroke="#666666" points="1078,-104.5 1212,-104.5"/>
<text text-anchor="middle" x="1145" y="-92.5" font-family="Helvetica,sans-Serif" font-size="10.00"> </text>
<polyline fill="none" stroke="#666666" points="1078,-85.5 1212,-85.5"/>
<text text-anchor="start" x="1086" y="-73.5" font-family="Helvetica,sans-Serif" font-size="10.00">+ Array operator()(const</text>
<text text-anchor="start" x="1086" y="-62.5" font-family="Helvetica,sans-Serif" font-size="10.00"> Number &amp;alpha, const</text>
<text text-anchor="start" x="1086" y="-51.5" font-family="Helvetica,sans-Serif" font-size="10.00"> Number &amp;omega) override</text>
<text text-anchor="start" x="1086" y="-40.5" font-family="Helvetica,sans-Serif" font-size="10.00">+ Array operator()(const</text>
<text text-anchor="start" x="1086" y="-29.5" font-family="Helvetica,sans-Serif" font-size="10.00"> Number &amp;omega) override</text>
</a>
</g>
</g>
<!-- Node3&#45;&gt;Node11 -->
<g id="edge10" class="edge">
<title>Node3&#45;&gt;Node11</title>
<path fill="none" stroke="#63b8ff" d="M1670.95,-256.53C1562.28,-248.32 1367.3,-223.13 1221,-146 1209.75,-140.07 1198.96,-131.99 1189.24,-123.4"/>
<polygon fill="none" stroke="#63b8ff" points="1670.42,-260 1680.65,-257.23 1670.93,-253.02 1670.42,-260"/>
</g>
<!-- Node12 -->
<g id="node12" class="node">
<title>Node12</title>
<g id="a_node12"><a xlink:href="structkepler_1_1_greater.html" target="_top" xlink:title=" ">
<polygon fill="white" stroke="#666666" points="1230,-33.5 1230,-112.5 1364,-112.5 1364,-33.5 1230,-33.5"/>
<text text-anchor="middle" x="1297" y="-100.5" font-family="Helvetica,sans-Serif" font-size="10.00">kepler::Greater</text>
<polyline fill="none" stroke="#666666" points="1230,-93.5 1364,-93.5"/>
<text text-anchor="middle" x="1297" y="-81.5" font-family="Helvetica,sans-Serif" font-size="10.00"> </text>
<polyline fill="none" stroke="#666666" points="1230,-74.5 1364,-74.5"/>
<text text-anchor="start" x="1238" y="-62.5" font-family="Helvetica,sans-Serif" font-size="10.00">+ Array operator()(const</text>
<text text-anchor="start" x="1238" y="-51.5" font-family="Helvetica,sans-Serif" font-size="10.00"> Number &amp;alpha, const</text>
<text text-anchor="start" x="1238" y="-40.5" font-family="Helvetica,sans-Serif" font-size="10.00"> Number &amp;omega) override</text>
</a>
</g>
</g>
<!-- Node3&#45;&gt;Node12 -->
<g id="edge11" class="edge">
<title>Node3&#45;&gt;Node12</title>
<path fill="none" stroke="#63b8ff" d="M1671.16,-247.25C1591.07,-231.73 1467.64,-200.88 1373,-146 1357.59,-137.06 1342.84,-124.42 1330.51,-112.21"/>
<polygon fill="none" stroke="#63b8ff" points="1670.21,-250.63 1680.68,-249.06 1671.51,-243.75 1670.21,-250.63"/>
</g>
<!-- Node13 -->
<g id="node13" class="node">
<title>Node13</title>
<g id="a_node13"><a xlink:href="structkepler_1_1_greater_eq.html" target="_top" xlink:title=" ">
<polygon fill="white" stroke="#666666" points="1382,-33.5 1382,-112.5 1516,-112.5 1516,-33.5 1382,-33.5"/>
<text text-anchor="middle" x="1449" y="-100.5" font-family="Helvetica,sans-Serif" font-size="10.00">kepler::GreaterEq</text>
<polyline fill="none" stroke="#666666" points="1382,-93.5 1516,-93.5"/>
<text text-anchor="middle" x="1449" y="-81.5" font-family="Helvetica,sans-Serif" font-size="10.00"> </text>
<polyline fill="none" stroke="#666666" points="1382,-74.5 1516,-74.5"/>
<text text-anchor="start" x="1390" y="-62.5" font-family="Helvetica,sans-Serif" font-size="10.00">+ Array operator()(const</text>
<text text-anchor="start" x="1390" y="-51.5" font-family="Helvetica,sans-Serif" font-size="10.00"> Number &amp;alpha, const</text>
<text text-anchor="start" x="1390" y="-40.5" font-family="Helvetica,sans-Serif" font-size="10.00"> Number &amp;omega) override</text>
</a>
</g>
</g>
<!-- Node3&#45;&gt;Node13 -->
<g id="edge12" class="edge">
<title>Node3&#45;&gt;Node13</title>
<path fill="none" stroke="#63b8ff" d="M1671.86,-226.79C1626.78,-206.37 1570.75,-178.1 1525,-146 1511.01,-136.19 1497.05,-123.87 1484.98,-112.22"/>
<polygon fill="none" stroke="#63b8ff" points="1670.24,-229.9 1680.8,-230.8 1673.1,-223.52 1670.24,-229.9"/>
</g>
<!-- Node14 -->
<g id="node14" class="node">
<title>Node14</title>
<g id="a_node14"><a xlink:href="structkepler_1_1_less.html" target="_top" xlink:title=" ">
<polygon fill="white" stroke="#666666" points="1534,-33.5 1534,-112.5 1668,-112.5 1668,-33.5 1534,-33.5"/>
<text text-anchor="middle" x="1601" y="-100.5" font-family="Helvetica,sans-Serif" font-size="10.00">kepler::Less</text>
<polyline fill="none" stroke="#666666" points="1534,-93.5 1668,-93.5"/>
<text text-anchor="middle" x="1601" y="-81.5" font-family="Helvetica,sans-Serif" font-size="10.00"> </text>
<polyline fill="none" stroke="#666666" points="1534,-74.5 1668,-74.5"/>
<text text-anchor="start" x="1542" y="-62.5" font-family="Helvetica,sans-Serif" font-size="10.00">+ Array operator()(const</text>
<text text-anchor="start" x="1542" y="-51.5" font-family="Helvetica,sans-Serif" font-size="10.00"> Number &amp;alpha, const</text>
<text text-anchor="start" x="1542" y="-40.5" font-family="Helvetica,sans-Serif" font-size="10.00"> Number &amp;omega) override</text>
</a>
</g>
</g>
<!-- Node3&#45;&gt;Node14 -->
<g id="edge13" class="edge">
<title>Node3&#45;&gt;Node14</title>
<path fill="none" stroke="#63b8ff" d="M1683.21,-174.87C1665.33,-152.93 1646.99,-130.43 1632.18,-112.26"/>
<polygon fill="none" stroke="#63b8ff" points="1680.31,-176.85 1689.34,-182.39 1685.74,-172.43 1680.31,-176.85"/>
</g>
<!-- Node15 -->
<g id="node15" class="node">
<title>Node15</title>
<g id="a_node15"><a xlink:href="structkepler_1_1_less_eq.html" target="_top" xlink:title=" ">
<polygon fill="white" stroke="#666666" points="1686,-33.5 1686,-112.5 1820,-112.5 1820,-33.5 1686,-33.5"/>
<text text-anchor="middle" x="1753" y="-100.5" font-family="Helvetica,sans-Serif" font-size="10.00">kepler::LessEq</text>
<polyline fill="none" stroke="#666666" points="1686,-93.5 1820,-93.5"/>
<text text-anchor="middle" x="1753" y="-81.5" font-family="Helvetica,sans-Serif" font-size="10.00"> </text>
<polyline fill="none" stroke="#666666" points="1686,-74.5 1820,-74.5"/>
<text text-anchor="start" x="1694" y="-62.5" font-family="Helvetica,sans-Serif" font-size="10.00">+ Array operator()(const</text>
<text text-anchor="start" x="1694" y="-51.5" font-family="Helvetica,sans-Serif" font-size="10.00"> Number &amp;alpha, const</text>
<text text-anchor="start" x="1694" y="-40.5" font-family="Helvetica,sans-Serif" font-size="10.00"> Number &amp;omega) override</text>
</a>
</g>
</g>
<!-- Node3&#45;&gt;Node15 -->
<g id="edge14" class="edge">
<title>Node3&#45;&gt;Node15</title>
<path fill="none" stroke="#63b8ff" d="M1753,-172.25C1753,-151.15 1753,-129.7 1753,-112.26"/>
<polygon fill="none" stroke="#63b8ff" points="1749.5,-172.05 1753,-182.05 1756.5,-172.05 1749.5,-172.05"/>
</g>
<!-- Node16 -->
<g id="node16" class="node">
<title>Node16</title>
<g id="a_node16"><a xlink:href="structkepler_1_1_log.html" target="_top" xlink:title=" ">
<polygon fill="white" stroke="#666666" points="1838,-22.5 1838,-123.5 1972,-123.5 1972,-22.5 1838,-22.5"/>
<text text-anchor="middle" x="1905" y="-111.5" font-family="Helvetica,sans-Serif" font-size="10.00">kepler::Log</text>
<polyline fill="none" stroke="#666666" points="1838,-104.5 1972,-104.5"/>
<text text-anchor="middle" x="1905" y="-92.5" font-family="Helvetica,sans-Serif" font-size="10.00"> </text>
<polyline fill="none" stroke="#666666" points="1838,-85.5 1972,-85.5"/>
<text text-anchor="start" x="1846" y="-73.5" font-family="Helvetica,sans-Serif" font-size="10.00">+ Array operator()(const</text>
<text text-anchor="start" x="1846" y="-62.5" font-family="Helvetica,sans-Serif" font-size="10.00"> Number &amp;omega) override</text>
<text text-anchor="start" x="1846" y="-51.5" font-family="Helvetica,sans-Serif" font-size="10.00">+ Array operator()(const</text>
<text text-anchor="start" x="1846" y="-40.5" font-family="Helvetica,sans-Serif" font-size="10.00"> Number &amp;alpha, const</text>
<text text-anchor="start" x="1846" y="-29.5" font-family="Helvetica,sans-Serif" font-size="10.00"> Number &amp;omega) override</text>
</a>
</g>
</g>
<!-- Node3&#45;&gt;Node16 -->
<g id="edge15" class="edge">
<title>Node3&#45;&gt;Node16</title>
<path fill="none" stroke="#63b8ff" d="M1822.75,-174.92C1837.17,-157.23 1851.89,-139.16 1864.82,-123.3"/>
<polygon fill="none" stroke="#63b8ff" points="1820.26,-172.43 1816.66,-182.39 1825.69,-176.85 1820.26,-172.43"/>
</g>
<!-- Node17 -->
<g id="node17" class="node">
<title>Node17</title>
<g id="a_node17"><a xlink:href="structkepler_1_1_minus.html" target="_top" xlink:title=" ">
<polygon fill="white" stroke="#666666" points="1990,-22.5 1990,-123.5 2124,-123.5 2124,-22.5 1990,-22.5"/>
<text text-anchor="middle" x="2057" y="-111.5" font-family="Helvetica,sans-Serif" font-size="10.00">kepler::Minus</text>
<polyline fill="none" stroke="#666666" points="1990,-104.5 2124,-104.5"/>
<text text-anchor="middle" x="2057" y="-92.5" font-family="Helvetica,sans-Serif" font-size="10.00"> </text>
<polyline fill="none" stroke="#666666" points="1990,-85.5 2124,-85.5"/>
<text text-anchor="start" x="1998" y="-73.5" font-family="Helvetica,sans-Serif" font-size="10.00">+ Array operator()(const</text>
<text text-anchor="start" x="1998" y="-62.5" font-family="Helvetica,sans-Serif" font-size="10.00"> Number &amp;alpha, const</text>
<text text-anchor="start" x="1998" y="-51.5" font-family="Helvetica,sans-Serif" font-size="10.00"> Number &amp;omega) override</text>
<text text-anchor="start" x="1998" y="-40.5" font-family="Helvetica,sans-Serif" font-size="10.00">+ Array operator()(const</text>
<text text-anchor="start" x="1998" y="-29.5" font-family="Helvetica,sans-Serif" font-size="10.00"> Number &amp;omega) override</text>
</a>
</g>
</g>
<!-- Node3&#45;&gt;Node17 -->
<g id="edge16" class="edge">
<title>Node3&#45;&gt;Node17</title>
<path fill="none" stroke="#63b8ff" d="M1834.14,-226.79C1879.22,-206.37 1935.25,-178.1 1981,-146 1990.52,-139.32 2000.03,-131.48 2008.94,-123.47"/>
<polygon fill="none" stroke="#63b8ff" points="1832.9,-223.52 1825.2,-230.8 1835.76,-229.9 1832.9,-223.52"/>
</g>
<!-- Node18 -->
<g id="node18" class="node">
<title>Node18</title>
<g id="a_node18"><a xlink:href="structkepler_1_1_nand.html" target="_top" xlink:title=" ">
<polygon fill="white" stroke="#666666" points="2142,-0.5 2142,-145.5 2290,-145.5 2290,-0.5 2142,-0.5"/>
<text text-anchor="middle" x="2216" y="-133.5" font-family="Helvetica,sans-Serif" font-size="10.00">kepler::Nand</text>
<polyline fill="none" stroke="#666666" points="2142,-126.5 2290,-126.5"/>
<text text-anchor="middle" x="2216" y="-114.5" font-family="Helvetica,sans-Serif" font-size="10.00"> </text>
<polyline fill="none" stroke="#666666" points="2142,-107.5 2290,-107.5"/>
<text text-anchor="start" x="2150" y="-95.5" font-family="Helvetica,sans-Serif" font-size="10.00">+ Array operator()(const</text>
<text text-anchor="start" x="2150" y="-84.5" font-family="Helvetica,sans-Serif" font-size="10.00"> Number &amp;alpha, const</text>
<text text-anchor="start" x="2150" y="-73.5" font-family="Helvetica,sans-Serif" font-size="10.00"> Number &amp;omega) override</text>
<text text-anchor="start" x="2150" y="-62.5" font-family="Helvetica,sans-Serif" font-size="10.00">+ Array operator()(const</text>
<text text-anchor="start" x="2150" y="-51.5" font-family="Helvetica,sans-Serif" font-size="10.00"> std::u32string &amp;alpha,</text>
<text text-anchor="start" x="2150" y="-40.5" font-family="Helvetica,sans-Serif" font-size="10.00"> const std::u32string &amp;omega)</text>
<text text-anchor="start" x="2150" y="-29.5" font-family="Helvetica,sans-Serif" font-size="10.00"> override</text>
<text text-anchor="start" x="2150" y="-18.5" font-family="Helvetica,sans-Serif" font-size="10.00">+ Array operator()(const</text>
<text text-anchor="start" x="2150" y="-7.5" font-family="Helvetica,sans-Serif" font-size="10.00"> Number &amp;omega) override</text>
</a>
</g>
</g>
<!-- Node3&#45;&gt;Node18 -->
<g id="edge17" class="edge">
<title>Node3&#45;&gt;Node18</title>
<path fill="none" stroke="#63b8ff" d="M1834.69,-246.27C1914.41,-230.05 2037.32,-198.72 2133,-146 2136.17,-144.25 2139.33,-142.36 2142.47,-140.37"/>
<polygon fill="none" stroke="#63b8ff" points="1834.34,-242.77 1825.22,-248.17 1835.71,-249.64 1834.34,-242.77"/>
</g>
<!-- Node19 -->
<g id="node19" class="node">
<title>Node19</title>
<g id="a_node19"><a xlink:href="structkepler_1_1_neq.html" target="_top" xlink:title=" ">
<polygon fill="white" stroke="#666666" points="2308,-6 2308,-140 2442,-140 2442,-6 2308,-6"/>
<text text-anchor="middle" x="2375" y="-128" font-family="Helvetica,sans-Serif" font-size="10.00">kepler::Neq</text>
<polyline fill="none" stroke="#666666" points="2308,-121 2442,-121"/>
<text text-anchor="middle" x="2375" y="-109" font-family="Helvetica,sans-Serif" font-size="10.00"> </text>
<polyline fill="none" stroke="#666666" points="2308,-102 2442,-102"/>
<text text-anchor="start" x="2316" y="-90" font-family="Helvetica,sans-Serif" font-size="10.00">+ Array operator()(const</text>
<text text-anchor="start" x="2316" y="-79" font-family="Helvetica,sans-Serif" font-size="10.00"> Number &amp;alpha, const</text>
<text text-anchor="start" x="2316" y="-68" font-family="Helvetica,sans-Serif" font-size="10.00"> Number &amp;omega) override</text>
<text text-anchor="start" x="2316" y="-57" font-family="Helvetica,sans-Serif" font-size="10.00">+ Array operator()(const</text>
<text text-anchor="start" x="2316" y="-46" font-family="Helvetica,sans-Serif" font-size="10.00"> Char &amp;alpha, const Char</text>
<text text-anchor="start" x="2316" y="-35" font-family="Helvetica,sans-Serif" font-size="10.00"> &amp;omega) override</text>
<text text-anchor="start" x="2316" y="-24" font-family="Helvetica,sans-Serif" font-size="10.00">+ Array operator()(const</text>
<text text-anchor="start" x="2316" y="-13" font-family="Helvetica,sans-Serif" font-size="10.00"> Array &amp;omega) override</text>
</a>
</g>
</g>
<!-- Node3&#45;&gt;Node19 -->
<g id="edge18" class="edge">
<title>Node3&#45;&gt;Node19</title>
<path fill="none" stroke="#63b8ff" d="M1835.36,-257.12C1946.51,-249.56 2147.98,-225.11 2299,-146 2302.54,-144.14 2306.04,-142.08 2309.47,-139.85"/>
<polygon fill="none" stroke="#63b8ff" points="1835.17,-253.63 1825.41,-257.76 1835.62,-260.61 1835.17,-253.63"/>
</g>
<!-- Node20 -->
<g id="node20" class="node">
<title>Node20</title>
<g id="a_node20"><a xlink:href="structkepler_1_1_nor.html" target="_top" xlink:title=" ">
<polygon fill="white" stroke="#666666" points="2460,-0.5 2460,-145.5 2608,-145.5 2608,-0.5 2460,-0.5"/>
<text text-anchor="middle" x="2534" y="-133.5" font-family="Helvetica,sans-Serif" font-size="10.00">kepler::Nor</text>
<polyline fill="none" stroke="#666666" points="2460,-126.5 2608,-126.5"/>
<text text-anchor="middle" x="2534" y="-114.5" font-family="Helvetica,sans-Serif" font-size="10.00"> </text>
<polyline fill="none" stroke="#666666" points="2460,-107.5 2608,-107.5"/>
<text text-anchor="start" x="2468" y="-95.5" font-family="Helvetica,sans-Serif" font-size="10.00">+ Array operator()(const</text>
<text text-anchor="start" x="2468" y="-84.5" font-family="Helvetica,sans-Serif" font-size="10.00"> Number &amp;alpha, const</text>
<text text-anchor="start" x="2468" y="-73.5" font-family="Helvetica,sans-Serif" font-size="10.00"> Number &amp;omega) override</text>
<text text-anchor="start" x="2468" y="-62.5" font-family="Helvetica,sans-Serif" font-size="10.00">+ Array operator()(const</text>
<text text-anchor="start" x="2468" y="-51.5" font-family="Helvetica,sans-Serif" font-size="10.00"> std::u32string &amp;alpha,</text>
<text text-anchor="start" x="2468" y="-40.5" font-family="Helvetica,sans-Serif" font-size="10.00"> const std::u32string &amp;omega)</text>
<text text-anchor="start" x="2468" y="-29.5" font-family="Helvetica,sans-Serif" font-size="10.00"> override</text>
<text text-anchor="start" x="2468" y="-18.5" font-family="Helvetica,sans-Serif" font-size="10.00">+ Array operator()(const</text>
<text text-anchor="start" x="2468" y="-7.5" font-family="Helvetica,sans-Serif" font-size="10.00"> Number &amp;omega) override</text>
</a>
</g>
</g>
<!-- Node3&#45;&gt;Node20 -->
<g id="edge19" class="edge">
<title>Node3&#45;&gt;Node20</title>
<path fill="none" stroke="#63b8ff" d="M1835.27,-261.25C1970.29,-259.44 2244.53,-242.84 2451,-146 2454.11,-144.54 2457.19,-142.93 2460.23,-141.2"/>
<polygon fill="none" stroke="#63b8ff" points="1835.3,-257.75 1825.33,-261.35 1835.37,-264.75 1835.3,-257.75"/>
</g>
<!-- Node21 -->
<g id="node21" class="node">
<title>Node21</title>
<g id="a_node21"><a xlink:href="structkepler_1_1_not.html" target="_top" xlink:title=" ">
<polygon fill="white" stroke="#666666" points="2626,-0.5 2626,-145.5 2774,-145.5 2774,-0.5 2626,-0.5"/>
<text text-anchor="middle" x="2700" y="-133.5" font-family="Helvetica,sans-Serif" font-size="10.00">kepler::Not</text>
<polyline fill="none" stroke="#666666" points="2626,-126.5 2774,-126.5"/>
<text text-anchor="middle" x="2700" y="-114.5" font-family="Helvetica,sans-Serif" font-size="10.00"> </text>
<polyline fill="none" stroke="#666666" points="2626,-107.5 2774,-107.5"/>
<text text-anchor="start" x="2634" y="-95.5" font-family="Helvetica,sans-Serif" font-size="10.00">+ Array operator()(const</text>
<text text-anchor="start" x="2634" y="-84.5" font-family="Helvetica,sans-Serif" font-size="10.00"> Number &amp;omega) override</text>
<text text-anchor="start" x="2634" y="-73.5" font-family="Helvetica,sans-Serif" font-size="10.00">+ Array operator()(const</text>
<text text-anchor="start" x="2634" y="-62.5" font-family="Helvetica,sans-Serif" font-size="10.00"> Array &amp;alpha, const Array</text>
<text text-anchor="start" x="2634" y="-51.5" font-family="Helvetica,sans-Serif" font-size="10.00"> &amp;omega) override</text>
<text text-anchor="start" x="2634" y="-40.5" font-family="Helvetica,sans-Serif" font-size="10.00">+ Array operator()(const</text>
<text text-anchor="start" x="2634" y="-29.5" font-family="Helvetica,sans-Serif" font-size="10.00"> std::u32string &amp;alpha,</text>
<text text-anchor="start" x="2634" y="-18.5" font-family="Helvetica,sans-Serif" font-size="10.00"> const std::u32string &amp;omega)</text>
<text text-anchor="start" x="2634" y="-7.5" font-family="Helvetica,sans-Serif" font-size="10.00"> override</text>
</a>
</g>
</g>
<!-- Node3&#45;&gt;Node21 -->
<g id="edge20" class="edge">
<title>Node3&#45;&gt;Node21</title>
<path fill="none" stroke="#63b8ff" d="M1835.16,-255.64C2022.95,-243.56 2478.06,-208.57 2617,-146 2620.04,-144.63 2623.06,-143.11 2626.04,-141.47"/>
<polygon fill="none" stroke="#63b8ff" points="1834.99,-252.14 1825.23,-256.27 1835.43,-259.13 1834.99,-252.14"/>
</g>
<!-- Node22 -->
<g id="node22" class="node">
<title>Node22</title>
<g id="a_node22"><a xlink:href="structkepler_1_1_or.html" target="_top" xlink:title=" ">
<polygon fill="white" stroke="#666666" points="2792,-0.5 2792,-145.5 2940,-145.5 2940,-0.5 2792,-0.5"/>
<text text-anchor="middle" x="2866" y="-133.5" font-family="Helvetica,sans-Serif" font-size="10.00">kepler::Or</text>
<polyline fill="none" stroke="#666666" points="2792,-126.5 2940,-126.5"/>
<text text-anchor="middle" x="2866" y="-114.5" font-family="Helvetica,sans-Serif" font-size="10.00"> </text>
<polyline fill="none" stroke="#666666" points="2792,-107.5 2940,-107.5"/>
<text text-anchor="start" x="2800" y="-95.5" font-family="Helvetica,sans-Serif" font-size="10.00">+ Array operator()(const</text>
<text text-anchor="start" x="2800" y="-84.5" font-family="Helvetica,sans-Serif" font-size="10.00"> Number &amp;alpha, const</text>
<text text-anchor="start" x="2800" y="-73.5" font-family="Helvetica,sans-Serif" font-size="10.00"> Number &amp;omega) override</text>
<text text-anchor="start" x="2800" y="-62.5" font-family="Helvetica,sans-Serif" font-size="10.00">+ Array operator()(const</text>
<text text-anchor="start" x="2800" y="-51.5" font-family="Helvetica,sans-Serif" font-size="10.00"> std::u32string &amp;alpha,</text>
<text text-anchor="start" x="2800" y="-40.5" font-family="Helvetica,sans-Serif" font-size="10.00"> const std::u32string &amp;omega)</text>
<text text-anchor="start" x="2800" y="-29.5" font-family="Helvetica,sans-Serif" font-size="10.00"> override</text>
<text text-anchor="start" x="2800" y="-18.5" font-family="Helvetica,sans-Serif" font-size="10.00">+ Array operator()(const</text>
<text text-anchor="start" x="2800" y="-7.5" font-family="Helvetica,sans-Serif" font-size="10.00"> Number &amp;omega) override</text>
</a>
</g>
</g>
<!-- Node3&#45;&gt;Node22 -->
<g id="edge21" class="edge">
<title>Node3&#45;&gt;Node22</title>
<path fill="none" stroke="#63b8ff" d="M1835.08,-257.65C2047.94,-249.26 2612.96,-220.44 2783,-146 2786.06,-144.66 2789.09,-143.17 2792.07,-141.55"/>
<polygon fill="none" stroke="#63b8ff" points="1835.06,-254.15 1825.2,-258.03 1835.33,-261.14 1835.06,-254.15"/>
</g>
<!-- Node23 -->
<g id="node23" class="node">
<title>Node23</title>
<g id="a_node23"><a xlink:href="structkepler_1_1_plus.html" target="_top" xlink:title=" ">
<polygon fill="white" stroke="#666666" points="2958,-22.5 2958,-123.5 3092,-123.5 3092,-22.5 2958,-22.5"/>
<text text-anchor="middle" x="3025" y="-111.5" font-family="Helvetica,sans-Serif" font-size="10.00">kepler::Plus</text>
<polyline fill="none" stroke="#666666" points="2958,-104.5 3092,-104.5"/>
<text text-anchor="middle" x="3025" y="-92.5" font-family="Helvetica,sans-Serif" font-size="10.00"> </text>
<polyline fill="none" stroke="#666666" points="2958,-85.5 3092,-85.5"/>
<text text-anchor="start" x="2966" y="-73.5" font-family="Helvetica,sans-Serif" font-size="10.00">+ Array operator()(const</text>
<text text-anchor="start" x="2966" y="-62.5" font-family="Helvetica,sans-Serif" font-size="10.00"> Number &amp;alpha, const</text>
<text text-anchor="start" x="2966" y="-51.5" font-family="Helvetica,sans-Serif" font-size="10.00"> Number &amp;omega) override</text>
<text text-anchor="start" x="2966" y="-40.5" font-family="Helvetica,sans-Serif" font-size="10.00">+ Array operator()(const</text>
<text text-anchor="start" x="2966" y="-29.5" font-family="Helvetica,sans-Serif" font-size="10.00"> Number &amp;omega) override</text>
</a>
</g>
</g>
<!-- Node3&#45;&gt;Node23 -->
<g id="edge22" class="edge">
<title>Node3&#45;&gt;Node23</title>
<path fill="none" stroke="#63b8ff" d="M1835.04,-259.53C2071.37,-255.67 2749.47,-236.77 2949,-146 2961.08,-140.51 2972.45,-132.29 2982.53,-123.35"/>
<polygon fill="none" stroke="#63b8ff" points="1835.25,-256.03 1825.3,-259.69 1835.36,-263.03 1835.25,-256.03"/>
</g>
<!-- Node24 -->
<g id="node24" class="node">
<title>Node24</title>
<g id="a_node24"><a xlink:href="structkepler_1_1_roll.html" target="_top" xlink:title=" ">
<polygon fill="white" stroke="#666666" points="3110,-39 3110,-107 3244,-107 3244,-39 3110,-39"/>
<text text-anchor="middle" x="3177" y="-95" font-family="Helvetica,sans-Serif" font-size="10.00">kepler::Roll</text>
<polyline fill="none" stroke="#666666" points="3110,-88 3244,-88"/>
<text text-anchor="middle" x="3177" y="-76" font-family="Helvetica,sans-Serif" font-size="10.00"> </text>
<polyline fill="none" stroke="#666666" points="3110,-69 3244,-69"/>
<text text-anchor="start" x="3118" y="-57" font-family="Helvetica,sans-Serif" font-size="10.00">+ Array operator()(const</text>
<text text-anchor="start" x="3118" y="-46" font-family="Helvetica,sans-Serif" font-size="10.00"> Number &amp;omega) override</text>
</a>
</g>
</g>
<!-- Node3&#45;&gt;Node24 -->
<g id="edge23" class="edge">
<title>Node3&#45;&gt;Node24</title>
<path fill="none" stroke="#63b8ff" d="M1835.11,-254.22C2024.71,-239.62 2507.67,-201.8 2911,-165 2995.51,-157.29 3023.83,-181.3 3101,-146 3120.34,-137.15 3137.87,-121.35 3151.22,-106.81"/>
<polygon fill="none" stroke="#63b8ff" points="1835.07,-250.71 1825.37,-254.97 1835.61,-257.69 1835.07,-250.71"/>
</g>
<!-- Node25 -->
<g id="node25" class="node">
<title>Node25</title>
<g id="a_node25"><a xlink:href="structkepler_1_1_star.html" target="_top" xlink:title=" ">
<polygon fill="white" stroke="#666666" points="3262,-22.5 3262,-123.5 3396,-123.5 3396,-22.5 3262,-22.5"/>
<text text-anchor="middle" x="3329" y="-111.5" font-family="Helvetica,sans-Serif" font-size="10.00">kepler::Star</text>
<polyline fill="none" stroke="#666666" points="3262,-104.5 3396,-104.5"/>
<text text-anchor="middle" x="3329" y="-92.5" font-family="Helvetica,sans-Serif" font-size="10.00"> </text>
<polyline fill="none" stroke="#666666" points="3262,-85.5 3396,-85.5"/>
<text text-anchor="start" x="3270" y="-73.5" font-family="Helvetica,sans-Serif" font-size="10.00">+ Array operator()(const</text>
<text text-anchor="start" x="3270" y="-62.5" font-family="Helvetica,sans-Serif" font-size="10.00"> Number &amp;omega) override</text>
<text text-anchor="start" x="3270" y="-51.5" font-family="Helvetica,sans-Serif" font-size="10.00">+ Array operator()(const</text>
<text text-anchor="start" x="3270" y="-40.5" font-family="Helvetica,sans-Serif" font-size="10.00"> Number &amp;alpha, const</text>
<text text-anchor="start" x="3270" y="-29.5" font-family="Helvetica,sans-Serif" font-size="10.00"> Number &amp;omega) override</text>
</a>
</g>
</g>
<!-- Node3&#45;&gt;Node25 -->
<g id="edge24" class="edge">
<title>Node3&#45;&gt;Node25</title>
<path fill="none" stroke="#63b8ff" d="M1835.39,-257.43C2130.35,-246 3123.12,-203.58 3253,-146 3265.3,-140.55 3276.83,-132.23 3287.02,-123.16"/>
<polygon fill="none" stroke="#63b8ff" points="1835.31,-253.93 1825.45,-257.81 1835.58,-260.92 1835.31,-253.93"/>
</g>
<!-- Node26 -->
<g id="node26" class="node">
<title>Node26</title>
<g id="a_node26"><a xlink:href="structkepler_1_1_times.html" target="_top" xlink:title=" ">
<polygon fill="white" stroke="#666666" points="3414,-22.5 3414,-123.5 3548,-123.5 3548,-22.5 3414,-22.5"/>
<text text-anchor="middle" x="3481" y="-111.5" font-family="Helvetica,sans-Serif" font-size="10.00">kepler::Times</text>
<polyline fill="none" stroke="#666666" points="3414,-104.5 3548,-104.5"/>
<text text-anchor="middle" x="3481" y="-92.5" font-family="Helvetica,sans-Serif" font-size="10.00"> </text>
<polyline fill="none" stroke="#666666" points="3414,-85.5 3548,-85.5"/>
<text text-anchor="start" x="3422" y="-73.5" font-family="Helvetica,sans-Serif" font-size="10.00">+ Array operator()(const</text>
<text text-anchor="start" x="3422" y="-62.5" font-family="Helvetica,sans-Serif" font-size="10.00"> Number &amp;alpha, const</text>
<text text-anchor="start" x="3422" y="-51.5" font-family="Helvetica,sans-Serif" font-size="10.00"> Number &amp;omega) override</text>
<text text-anchor="start" x="3422" y="-40.5" font-family="Helvetica,sans-Serif" font-size="10.00">+ Array operator()(const</text>
<text text-anchor="start" x="3422" y="-29.5" font-family="Helvetica,sans-Serif" font-size="10.00"> Number &amp;omega) override</text>
</a>
</g>
</g>
<!-- Node3&#45;&gt;Node26 -->
<g id="edge25" class="edge">
<title>Node3&#45;&gt;Node26</title>
<path fill="none" stroke="#63b8ff" d="M1835.27,-255.71C2055.5,-242.75 2676.74,-205.25 3193,-165 3287.31,-157.65 3318.77,-184.91 3405,-146 3417.09,-140.54 3428.47,-132.34 3438.55,-123.41"/>
<polygon fill="none" stroke="#63b8ff" points="1835.13,-252.22 1825.35,-256.3 1835.54,-259.2 1835.13,-252.22"/>
</g>
</g>
</svg>
