<?xml version="1.0" encoding="UTF-8" standalone="no"?>
<!DOCTYPE svg PUBLIC "-//W3C//DTD SVG 1.1//EN"
 "http://www.w3.org/Graphics/SVG/1.1/DTD/svg11.dtd">
<!-- Generated by graphviz version 7.1.0 (20230121.1956)
 -->
<!-- Title: kepler::DyadicOperator Pages: 1 -->
<svg width="408pt" height="722pt"
 viewBox="0.00 0.00 408.46 722.00" xmlns="http://www.w3.org/2000/svg" xmlns:xlink="http://www.w3.org/1999/xlink">
<g id="graph0" class="graph" transform="scale(1 1) rotate(0) translate(4 718)">
<title>kepler::DyadicOperator</title>
<!-- Node1 -->
<g id="node1" class="node">
<title>Node1</title>
<g id="a_node1"><a xlink:title=" ">
<polygon fill="#999999" stroke="#666666" points="89.96,-0.5 89.96,-167.5 247.96,-167.5 247.96,-0.5 89.96,-0.5"/>
<text text-anchor="middle" x="168.96" y="-155.5" font-family="Helvetica,sans-Serif" font-size="10.00">kepler::DyadicOperator</text>
<polyline fill="none" stroke="#666666" points="89.96,-148.5 247.96,-148.5"/>
<text text-anchor="middle" x="168.96" y="-136.5" font-family="Helvetica,sans-Serif" font-size="10.00"> </text>
<polyline fill="none" stroke="#666666" points="89.96,-129.5 247.96,-129.5"/>
<text text-anchor="start" x="97.96" y="-117.5" font-family="Helvetica,sans-Serif" font-size="10.00">+ ~DyadicOperator()</text>
<text text-anchor="start" x="97.96" y="-106.5" font-family="Helvetica,sans-Serif" font-size="10.00">+ DyadicOperator(Token</text>
<text text-anchor="start" x="97.96" y="-95.5" font-family="Helvetica,sans-Serif" font-size="10.00"> token_, ASTNode&lt; Operation</text>
<text text-anchor="start" x="97.96" y="-84.5" font-family="Helvetica,sans-Serif" font-size="10.00">_ptr &gt; *left_, std::variant</text>
<text text-anchor="start" x="97.96" y="-73.5" font-family="Helvetica,sans-Serif" font-size="10.00">&lt; ASTNode&lt; Operation_ptr &gt;</text>
<text text-anchor="start" x="97.96" y="-62.5" font-family="Helvetica,sans-Serif" font-size="10.00"> *, ASTNode&lt; Array &gt; * &gt; right_)</text>
<text text-anchor="start" x="97.96" y="-51.5" font-family="Helvetica,sans-Serif" font-size="10.00">+ std::string to_string</text>
<text text-anchor="start" x="97.96" y="-40.5" font-family="Helvetica,sans-Serif" font-size="10.00">() const override</text>
<text text-anchor="start" x="97.96" y="-29.5" font-family="Helvetica,sans-Serif" font-size="10.00">+ Operation_ptr accept</text>
<text text-anchor="start" x="97.96" y="-18.5" font-family="Helvetica,sans-Serif" font-size="10.00">(NodeVisitor &amp;visitor)</text>
<text text-anchor="start" x="97.96" y="-7.5" font-family="Helvetica,sans-Serif" font-size="10.00"> override</text>
</a>
</g>
</g>
<!-- Node2 -->
<g id="node2" class="node">
<title>Node2</title>
<g id="a_node2"><a xlink:href="structkepler_1_1_a_s_t_node.html" target="_top" xlink:title=" ">
<polygon fill="white" stroke="#666666" points="13.46,-215.5 13.46,-349.5 156.46,-349.5 156.46,-215.5 13.46,-215.5"/>
<text text-anchor="start" x="21.46" y="-337.5" font-family="Helvetica,sans-Serif" font-size="10.00">kepler::ASTNode&lt; Operation</text>
<text text-anchor="middle" x="84.96" y="-326.5" font-family="Helvetica,sans-Serif" font-size="10.00">_ptr &gt;</text>
<polyline fill="none" stroke="#666666" points="13.46,-319.5 156.46,-319.5"/>
<text text-anchor="middle" x="84.96" y="-307.5" font-family="Helvetica,sans-Serif" font-size="10.00"> </text>
<polyline fill="none" stroke="#666666" points="13.46,-300.5 156.46,-300.5"/>
<text text-anchor="start" x="21.46" y="-288.5" font-family="Helvetica,sans-Serif" font-size="10.00">+ virtual ~ASTNode()</text>
<text text-anchor="start" x="21.46" y="-277.5" font-family="Helvetica,sans-Serif" font-size="10.00">=default</text>
<text text-anchor="start" x="21.46" y="-266.5" font-family="Helvetica,sans-Serif" font-size="10.00">+ virtual Operation_ptr</text>
<text text-anchor="start" x="21.46" y="-255.5" font-family="Helvetica,sans-Serif" font-size="10.00"> accept(class NodeVisitor</text>
<text text-anchor="start" x="21.46" y="-244.5" font-family="Helvetica,sans-Serif" font-size="10.00"> &amp;visitor)=0</text>
<text text-anchor="start" x="21.46" y="-233.5" font-family="Helvetica,sans-Serif" font-size="10.00">+ virtual std::string</text>
<text text-anchor="start" x="21.46" y="-222.5" font-family="Helvetica,sans-Serif" font-size="10.00"> to_string() const=0</text>
</a>
</g>
</g>
<!-- Node2&#45;&gt;Node1 -->
<g id="edge1" class="edge">
<title>Node2&#45;&gt;Node1</title>
<path fill="none" stroke="#63b8ff" d="M115.81,-205.34C118.54,-198.79 121.28,-192.27 123.96,-186 126.56,-179.91 129.27,-173.63 132.03,-167.31"/>
<polygon fill="none" stroke="#63b8ff" points="112.72,-203.65 112.12,-214.23 119.19,-206.33 112.72,-203.65"/>
</g>
<!-- Node2&#45;&gt;Node1 -->
<g id="edge9" class="edge">
<title>Node2&#45;&gt;Node1</title>
<path fill="none" stroke="#404040" d="M115.73,-215.68C118.55,-209.38 121.33,-203.08 123.96,-197 126.46,-191.2 129,-185.2 131.53,-179.15"/>
<polygon fill="none" stroke="#404040" points="131.43,-179.38 130.04,-172.31 136.03,-168.3 137.43,-175.37 131.43,-179.38"/>
<text text-anchor="middle" x="139.46" y="-189" font-family="Helvetica,sans-Serif" font-size="10.00"> +left</text>
</g>
<!-- Node3 -->
<g id="node3" class="node">
<title>Node3</title>
<g id="a_node3"><a xlink:href="structkepler_1_1_position.html" target="_top" xlink:title=" ">
<polygon fill="white" stroke="#666666" points="24.96,-601.5 24.96,-713.5 144.96,-713.5 144.96,-601.5 24.96,-601.5"/>
<text text-anchor="middle" x="84.96" y="-701.5" font-family="Helvetica,sans-Serif" font-size="10.00">kepler::Position</text>
<polyline fill="none" stroke="#666666" points="24.96,-694.5 144.96,-694.5"/>
<text text-anchor="middle" x="84.96" y="-682.5" font-family="Helvetica,sans-Serif" font-size="10.00"> </text>
<polyline fill="none" stroke="#666666" points="24.96,-675.5 144.96,-675.5"/>
<text text-anchor="start" x="32.96" y="-663.5" font-family="Helvetica,sans-Serif" font-size="10.00">+ Position()</text>
<text text-anchor="start" x="32.96" y="-652.5" font-family="Helvetica,sans-Serif" font-size="10.00">+ Position(long pos_)</text>
<text text-anchor="start" x="32.96" y="-641.5" font-family="Helvetica,sans-Serif" font-size="10.00">+ void set_position(long</text>
<text text-anchor="start" x="32.96" y="-630.5" font-family="Helvetica,sans-Serif" font-size="10.00"> new_pos)</text>
<text text-anchor="start" x="32.96" y="-619.5" font-family="Helvetica,sans-Serif" font-size="10.00">+ long get_position()</text>
<text text-anchor="start" x="32.96" y="-608.5" font-family="Helvetica,sans-Serif" font-size="10.00"> const</text>
</a>
</g>
</g>
<!-- Node3&#45;&gt;Node2 -->
<g id="edge2" class="edge">
<title>Node3&#45;&gt;Node2</title>
<path fill="none" stroke="#63b8ff" d="M32.73,-592.2C25.42,-580.14 19.02,-567.16 14.96,-554 -5.63,-487.33 -4.08,-464.13 14.96,-397 19.6,-380.63 27.35,-364.3 36.03,-349.35"/>
<polygon fill="none" stroke="#63b8ff" points="29.63,-593.84 37.96,-600.39 35.53,-590.08 29.63,-593.84"/>
</g>
<!-- Node4 -->
<g id="node4" class="node">
<title>Node4</title>
<g id="a_node4"><a xlink:href="structkepler_1_1_a_s_t_node.html" target="_top" xlink:title=" ">
<polygon fill="white" stroke="#666666" points="24.46,-419.5 24.46,-531.5 145.46,-531.5 145.46,-419.5 24.46,-419.5"/>
<text text-anchor="middle" x="84.96" y="-519.5" font-family="Helvetica,sans-Serif" font-size="10.00">kepler::ASTNode&lt; T &gt;</text>
<polyline fill="none" stroke="#666666" points="24.46,-512.5 145.46,-512.5"/>
<text text-anchor="middle" x="84.96" y="-500.5" font-family="Helvetica,sans-Serif" font-size="10.00"> </text>
<polyline fill="none" stroke="#666666" points="24.46,-493.5 145.46,-493.5"/>
<text text-anchor="start" x="32.46" y="-481.5" font-family="Helvetica,sans-Serif" font-size="10.00">+ virtual ~ASTNode()</text>
<text text-anchor="start" x="32.46" y="-470.5" font-family="Helvetica,sans-Serif" font-size="10.00">=default</text>
<text text-anchor="start" x="32.46" y="-459.5" font-family="Helvetica,sans-Serif" font-size="10.00">+ virtual T accept(class</text>
<text text-anchor="start" x="32.46" y="-448.5" font-family="Helvetica,sans-Serif" font-size="10.00"> NodeVisitor &amp;visitor)=0</text>
<text text-anchor="start" x="32.46" y="-437.5" font-family="Helvetica,sans-Serif" font-size="10.00">+ virtual std::string</text>
<text text-anchor="start" x="32.46" y="-426.5" font-family="Helvetica,sans-Serif" font-size="10.00"> to_string() const =0</text>
</a>
</g>
</g>
<!-- Node3&#45;&gt;Node4 -->
<g id="edge4" class="edge">
<title>Node3&#45;&gt;Node4</title>
<path fill="none" stroke="#63b8ff" d="M84.96,-590.06C84.96,-570.78 84.96,-549.95 84.96,-531.46"/>
<polygon fill="none" stroke="#63b8ff" points="81.46,-590 84.96,-600 88.46,-590 81.46,-590"/>
</g>
<!-- Node5 -->
<g id="node5" class="node">
<title>Node5</title>
<g id="a_node5"><a xlink:href="structkepler_1_1_token.html" target="_top" xlink:title=" ">
<polygon fill="white" stroke="#666666" points="163.46,-397.5 163.46,-553.5 308.46,-553.5 308.46,-397.5 163.46,-397.5"/>
<text text-anchor="middle" x="235.96" y="-541.5" font-family="Helvetica,sans-Serif" font-size="10.00">kepler::Token</text>
<polyline fill="none" stroke="#666666" points="163.46,-534.5 308.46,-534.5"/>
<text text-anchor="middle" x="235.96" y="-522.5" font-family="Helvetica,sans-Serif" font-size="10.00"> </text>
<polyline fill="none" stroke="#666666" points="163.46,-515.5 308.46,-515.5"/>
<text text-anchor="start" x="171.46" y="-503.5" font-family="Helvetica,sans-Serif" font-size="10.00">+ Token(long pos, TokenType</text>
<text text-anchor="start" x="171.46" y="-492.5" font-family="Helvetica,sans-Serif" font-size="10.00"> type_, Char content_)</text>
<text text-anchor="start" x="171.46" y="-481.5" font-family="Helvetica,sans-Serif" font-size="10.00">+ Token(long pos, TokenType</text>
<text text-anchor="start" x="171.46" y="-470.5" font-family="Helvetica,sans-Serif" font-size="10.00"> type_, String content_)</text>
<text text-anchor="start" x="171.46" y="-459.5" font-family="Helvetica,sans-Serif" font-size="10.00">+ Token(TokenType type</text>
<text text-anchor="start" x="171.46" y="-448.5" font-family="Helvetica,sans-Serif" font-size="10.00">_, String content_)</text>
<text text-anchor="start" x="171.46" y="-437.5" font-family="Helvetica,sans-Serif" font-size="10.00">+ Token(long pos, TokenType</text>
<text text-anchor="start" x="171.46" y="-426.5" font-family="Helvetica,sans-Serif" font-size="10.00"> type_)</text>
<text text-anchor="start" x="171.46" y="-415.5" font-family="Helvetica,sans-Serif" font-size="10.00">+ std::string to_string</text>
<text text-anchor="start" x="171.46" y="-404.5" font-family="Helvetica,sans-Serif" font-size="10.00">() const</text>
</a>
</g>
</g>
<!-- Node3&#45;&gt;Node5 -->
<g id="edge6" class="edge">
<title>Node3&#45;&gt;Node5</title>
<path fill="none" stroke="#63b8ff" d="M138.38,-592.81C149.09,-580.05 160.45,-566.5 171.49,-553.35"/>
<polygon fill="none" stroke="#63b8ff" points="135.8,-590.45 132.06,-600.36 141.17,-594.94 135.8,-590.45"/>
</g>
<!-- Node4&#45;&gt;Node2 -->
<g id="edge3" class="edge">
<title>Node4&#45;&gt;Node2</title>
<path fill="none" stroke="orange" d="M84.96,-408.19C84.96,-389.11 84.96,-368.3 84.96,-349.25"/>
<polygon fill="orange" stroke="orange" points="81.46,-408 84.96,-418 88.46,-408 81.46,-408"/>
<text text-anchor="middle" x="124.96" y="-371" font-family="Helvetica,sans-Serif" font-size="10.00"> &lt; Operation_ptr &gt;</text>
</g>
<!-- Node5&#45;&gt;Node1 -->
<g id="edge5" class="edge">
<title>Node5&#45;&gt;Node1</title>
<path fill="none" stroke="#404040" d="M213.94,-397.83C209.91,-382.1 206.01,-365.58 202.96,-350 192.01,-294.1 183.74,-230.84 178.1,-180.16"/>
<polygon fill="none" stroke="#404040" points="178.09,-180.05 173.46,-174.52 176.79,-168.12 181.42,-173.65 178.09,-180.05"/>
<text text-anchor="middle" x="219.96" y="-280" font-family="Helvetica,sans-Serif" font-size="10.00"> +token</text>
</g>
<!-- Node6 -->
<g id="node6" class="node">
<title>Node6</title>
<g id="a_node6"><a xlink:title=" ">
<polygon fill="white" stroke="#666666" points="182.96,-629 182.96,-686 246.96,-686 246.96,-629 182.96,-629"/>
<text text-anchor="middle" x="214.96" y="-674" font-family="Helvetica,sans-Serif" font-size="10.00">TokenType</text>
<polyline fill="none" stroke="#666666" points="182.96,-667 246.96,-667"/>
<text text-anchor="middle" x="214.96" y="-655" font-family="Helvetica,sans-Serif" font-size="10.00"> </text>
<polyline fill="none" stroke="#666666" points="182.96,-648 246.96,-648"/>
<text text-anchor="middle" x="214.96" y="-636" font-family="Helvetica,sans-Serif" font-size="10.00"> </text>
</a>
</g>
</g>
<!-- Node6&#45;&gt;Node5 -->
<g id="edge7" class="edge">
<title>Node6&#45;&gt;Node5</title>
<path fill="none" stroke="#404040" d="M218.15,-629.16C220.14,-612.07 222.84,-588.99 225.52,-565.95"/>
<polygon fill="none" stroke="#404040" points="225.52,-566.01 222.24,-559.59 226.91,-554.09 230.18,-560.52 225.52,-566.01"/>
<text text-anchor="middle" x="237.96" y="-575" font-family="Helvetica,sans-Serif" font-size="10.00"> +type</text>
</g>
<!-- Node7 -->
<g id="node7" class="node">
<title>Node7</title>
<g id="a_node7"><a xlink:title=" ">
<polygon fill="white" stroke="#666666" points="264.96,-623.5 264.96,-691.5 370.96,-691.5 370.96,-623.5 264.96,-623.5"/>
<text text-anchor="start" x="272.96" y="-679.5" font-family="Helvetica,sans-Serif" font-size="10.00">optional&lt; std::vector</text>
<text text-anchor="middle" x="317.96" y="-668.5" font-family="Helvetica,sans-Serif" font-size="10.00">&lt; Char &gt; &gt;</text>
<polyline fill="none" stroke="#666666" points="264.96,-661.5 370.96,-661.5"/>
<text text-anchor="middle" x="317.96" y="-649.5" font-family="Helvetica,sans-Serif" font-size="10.00"> </text>
<polyline fill="none" stroke="#666666" points="264.96,-642.5 370.96,-642.5"/>
<text text-anchor="middle" x="317.96" y="-630.5" font-family="Helvetica,sans-Serif" font-size="10.00"> </text>
</a>
</g>
</g>
<!-- Node7&#45;&gt;Node5 -->
<g id="edge8" class="edge">
<title>Node7&#45;&gt;Node5</title>
<path fill="none" stroke="#404040" d="M303.11,-623.9C295.52,-607.23 285.87,-586.06 276.27,-564.99"/>
<polygon fill="none" stroke="#404040" points="276.31,-565.07 270.18,-561.27 271.33,-554.15 277.46,-557.95 276.31,-565.07"/>
<text text-anchor="middle" x="304.96" y="-575" font-family="Helvetica,sans-Serif" font-size="10.00"> +content</text>
</g>
<!-- Node8 -->
<g id="node8" class="node">
<title>Node8</title>
<g id="a_node8"><a xlink:title=" ">
<polygon fill="white" stroke="#666666" points="245.46,-243 245.46,-322 400.46,-322 400.46,-243 245.46,-243"/>
<text text-anchor="start" x="253.46" y="-310" font-family="Helvetica,sans-Serif" font-size="10.00">variant&lt; kepler::ASTNode</text>
<text text-anchor="start" x="253.46" y="-299" font-family="Helvetica,sans-Serif" font-size="10.00">&lt; Operation_ptr &gt; *, kepler</text>
<text text-anchor="middle" x="322.96" y="-288" font-family="Helvetica,sans-Serif" font-size="10.00">::ASTNode&lt; kepler::Array &gt; * &gt;</text>
<polyline fill="none" stroke="#666666" points="245.46,-281 400.46,-281"/>
<text text-anchor="middle" x="322.96" y="-269" font-family="Helvetica,sans-Serif" font-size="10.00"> </text>
<polyline fill="none" stroke="#666666" points="245.46,-262 400.46,-262"/>
<text text-anchor="middle" x="322.96" y="-250" font-family="Helvetica,sans-Serif" font-size="10.00"> </text>
</a>
</g>
</g>
<!-- Node8&#45;&gt;Node1 -->
<g id="edge10" class="edge">
<title>Node8&#45;&gt;Node1</title>
<path fill="none" stroke="#404040" d="M292.9,-243.15C278.11,-224.27 259.58,-200.63 241.39,-177.42"/>
<polygon fill="none" stroke="#404040" points="241.31,-177.32 234.46,-175.06 233.91,-167.87 240.76,-170.13 241.31,-177.32"/>
<text text-anchor="middle" x="268.96" y="-189" font-family="Helvetica,sans-Serif" font-size="10.00"> +right</text>
</g>
</g>
</svg>
