<?xml version="1.0" encoding="UTF-8" standalone="no"?>
<!DOCTYPE svg PUBLIC "-//W3C//DTD SVG 1.1//EN"
 "http://www.w3.org/Graphics/SVG/1.1/DTD/svg11.dtd">
<!-- Generated by graphviz version 7.1.0 (20230121.1956)
 -->
<!-- Title: kepler::Interpreter::visit Pages: 1 -->
<svg width="403pt" height="56pt"
 viewBox="0.00 0.00 403.00 56.00" xmlns="http://www.w3.org/2000/svg" xmlns:xlink="http://www.w3.org/1999/xlink">
<g id="graph0" class="graph" transform="scale(1 1) rotate(0) translate(4 52)">
<title>kepler::Interpreter::visit</title>
<!-- Node1 -->
<g id="node1" class="node">
<title>Node1</title>
<g id="a_node1"><a xlink:title=" ">
<polygon fill="#999999" stroke="#666666" points="93,-30 0,-30 0,0 93,0 93,-30"/>
<text text-anchor="start" x="8" y="-18" font-family="Helvetica,sans-Serif" font-size="10.00">kepler::Interpreter</text>
<text text-anchor="middle" x="46.5" y="-7" font-family="Helvetica,sans-Serif" font-size="10.00">::visit</text>
</a>
</g>
</g>
<!-- Node2 -->
<g id="node2" class="node">
<title>Node2</title>
<g id="a_node2"><a xlink:href="classkepler_1_1_symbol_table.html#a928b41896a0c0f1b5eef23ae3f35c3b3" target="_top" xlink:title=" ">
<polygon fill="white" stroke="#666666" points="254,-24.5 129,-24.5 129,-5.5 254,-5.5 254,-24.5"/>
<text text-anchor="middle" x="191.5" y="-12.5" font-family="Helvetica,sans-Serif" font-size="10.00">kepler::SymbolTable::set</text>
</a>
</g>
</g>
<!-- Node1&#45;&gt;Node2 -->
<g id="edge1" class="edge">
<title>Node1&#45;&gt;Node2</title>
<path fill="none" stroke="#63b8ff" d="M93.14,-15C100.81,-15 108.93,-15 117.09,-15"/>
<polygon fill="#63b8ff" stroke="#63b8ff" points="117.09,-18.5 127.09,-15 117.09,-11.5 117.09,-18.5"/>
</g>
<!-- Node2&#45;&gt;Node2 -->
<g id="edge4" class="edge">
<title>Node2&#45;&gt;Node2</title>
<path fill="none" stroke="#63b8ff" d="M168.8,-24.87C158.44,-33.44 166.01,-42.5 191.5,-42.5 205.44,-42.5 214.02,-39.79 217.24,-35.93"/>
<polygon fill="#63b8ff" stroke="#63b8ff" points="220.62,-35.04 214.6,-26.33 213.87,-36.9 220.62,-35.04"/>
</g>
<!-- Node3 -->
<g id="node3" class="node">
<title>Node3</title>
<g id="a_node3"><a xlink:href="classkepler_1_1_symbol_table.html#a57403652693faf5adf05509f540520e9" target="_top" xlink:title=" ">
<polygon fill="white" stroke="#666666" points="395,-30 290,-30 290,0 395,0 395,-30"/>
<text text-anchor="start" x="298" y="-18" font-family="Helvetica,sans-Serif" font-size="10.00">kepler::SymbolTable</text>
<text text-anchor="middle" x="342.5" y="-7" font-family="Helvetica,sans-Serif" font-size="10.00">::contains</text>
</a>
</g>
</g>
<!-- Node2&#45;&gt;Node3 -->
<g id="edge2" class="edge">
<title>Node2&#45;&gt;Node3</title>
<path fill="none" stroke="#63b8ff" d="M254.39,-15C262.35,-15 270.49,-15 278.46,-15"/>
<polygon fill="#63b8ff" stroke="#63b8ff" points="278.45,-18.5 288.45,-15 278.45,-11.5 278.45,-18.5"/>
</g>
<!-- Node3&#45;&gt;Node3 -->
<g id="edge3" class="edge">
<title>Node3&#45;&gt;Node3</title>
<path fill="none" stroke="#63b8ff" d="M315.96,-30.28C310.06,-39.41 318.91,-48 342.5,-48 355.4,-48 363.9,-45.43 367.98,-41.61"/>
<polygon fill="#63b8ff" stroke="#63b8ff" points="371.45,-42.07 368.9,-31.78 364.48,-41.41 371.45,-42.07"/>
</g>
</g>
</svg>
