<?xml version="1.0" encoding="UTF-8" standalone="no"?>
<!DOCTYPE svg PUBLIC "-//W3C//DTD SVG 1.1//EN"
 "http://www.w3.org/Graphics/SVG/1.1/DTD/svg11.dtd">
<!-- Generated by graphviz version 7.1.0 (20230121.1956)
 -->
<!-- Title: kepler::AnonymousFunction Pages: 1 -->
<svg width="623pt" height="1070pt"
 viewBox="0.00 0.00 622.50 1070.00" xmlns="http://www.w3.org/2000/svg" xmlns:xlink="http://www.w3.org/1999/xlink">
<g id="graph0" class="graph" transform="scale(1 1) rotate(0) translate(4 1066)">
<title>kepler::AnonymousFunction</title>
<!-- Node1 -->
<g id="node1" class="node">
<title>Node1</title>
<g id="a_node1"><a xlink:title=" ">
<polygon fill="#999999" stroke="#666666" points="141.5,-0.5 141.5,-145.5 279.5,-145.5 279.5,-0.5 141.5,-0.5"/>
<text text-anchor="middle" x="210.5" y="-133.5" font-family="Helvetica,sans-Serif" font-size="10.00">kepler::AnonymousFunction</text>
<polyline fill="none" stroke="#666666" points="141.5,-126.5 279.5,-126.5"/>
<text text-anchor="middle" x="210.5" y="-114.5" font-family="Helvetica,sans-Serif" font-size="10.00"> </text>
<polyline fill="none" stroke="#666666" points="141.5,-107.5 279.5,-107.5"/>
<text text-anchor="start" x="149.5" y="-95.5" font-family="Helvetica,sans-Serif" font-size="10.00">+ ~AnonymousFunction</text>
<text text-anchor="start" x="149.5" y="-84.5" font-family="Helvetica,sans-Serif" font-size="10.00">() override</text>
<text text-anchor="start" x="149.5" y="-73.5" font-family="Helvetica,sans-Serif" font-size="10.00">+ AnonymousFunction</text>
<text text-anchor="start" x="149.5" y="-62.5" font-family="Helvetica,sans-Serif" font-size="10.00">(Statements *body)</text>
<text text-anchor="start" x="149.5" y="-51.5" font-family="Helvetica,sans-Serif" font-size="10.00">+ std::string to_string</text>
<text text-anchor="start" x="149.5" y="-40.5" font-family="Helvetica,sans-Serif" font-size="10.00">() const override</text>
<text text-anchor="start" x="149.5" y="-29.5" font-family="Helvetica,sans-Serif" font-size="10.00">+ Operation_ptr accept</text>
<text text-anchor="start" x="149.5" y="-18.5" font-family="Helvetica,sans-Serif" font-size="10.00">(NodeVisitor &amp;visitor)</text>
<text text-anchor="start" x="149.5" y="-7.5" font-family="Helvetica,sans-Serif" font-size="10.00"> override</text>
</a>
</g>
</g>
<!-- Node2 -->
<g id="node2" class="node">
<title>Node2</title>
<g id="a_node2"><a xlink:href="structkepler_1_1_a_s_t_node.html" target="_top" xlink:title=" ">
<polygon fill="white" stroke="#666666" points="0,-502 0,-636 143,-636 143,-502 0,-502"/>
<text text-anchor="start" x="8" y="-624" font-family="Helvetica,sans-Serif" font-size="10.00">kepler::ASTNode&lt; Operation</text>
<text text-anchor="middle" x="71.5" y="-613" font-family="Helvetica,sans-Serif" font-size="10.00">_ptr &gt;</text>
<polyline fill="none" stroke="#666666" points="0,-606 143,-606"/>
<text text-anchor="middle" x="71.5" y="-594" font-family="Helvetica,sans-Serif" font-size="10.00"> </text>
<polyline fill="none" stroke="#666666" points="0,-587 143,-587"/>
<text text-anchor="start" x="8" y="-575" font-family="Helvetica,sans-Serif" font-size="10.00">+ virtual ~ASTNode()</text>
<text text-anchor="start" x="8" y="-564" font-family="Helvetica,sans-Serif" font-size="10.00">=default</text>
<text text-anchor="start" x="8" y="-553" font-family="Helvetica,sans-Serif" font-size="10.00">+ virtual Operation_ptr</text>
<text text-anchor="start" x="8" y="-542" font-family="Helvetica,sans-Serif" font-size="10.00"> accept(class NodeVisitor</text>
<text text-anchor="start" x="8" y="-531" font-family="Helvetica,sans-Serif" font-size="10.00"> &amp;visitor)=0</text>
<text text-anchor="start" x="8" y="-520" font-family="Helvetica,sans-Serif" font-size="10.00">+ virtual std::string</text>
<text text-anchor="start" x="8" y="-509" font-family="Helvetica,sans-Serif" font-size="10.00"> to_string() const=0</text>
</a>
</g>
</g>
<!-- Node2&#45;&gt;Node1 -->
<g id="edge1" class="edge">
<title>Node2&#45;&gt;Node1</title>
<path fill="none" stroke="#63b8ff" d="M93.1,-491.23C119.7,-396.7 164.52,-237.39 190.41,-145.4"/>
<polygon fill="none" stroke="#63b8ff" points="89.78,-490.11 90.44,-500.69 96.52,-492.01 89.78,-490.11"/>
</g>
<!-- Node3 -->
<g id="node3" class="node">
<title>Node3</title>
<g id="a_node3"><a xlink:href="structkepler_1_1_position.html" target="_top" xlink:title=" ">
<polygon fill="white" stroke="#666666" points="92.5,-949.5 92.5,-1061.5 212.5,-1061.5 212.5,-949.5 92.5,-949.5"/>
<text text-anchor="middle" x="152.5" y="-1049.5" font-family="Helvetica,sans-Serif" font-size="10.00">kepler::Position</text>
<polyline fill="none" stroke="#666666" points="92.5,-1042.5 212.5,-1042.5"/>
<text text-anchor="middle" x="152.5" y="-1030.5" font-family="Helvetica,sans-Serif" font-size="10.00"> </text>
<polyline fill="none" stroke="#666666" points="92.5,-1023.5 212.5,-1023.5"/>
<text text-anchor="start" x="100.5" y="-1011.5" font-family="Helvetica,sans-Serif" font-size="10.00">+ Position()</text>
<text text-anchor="start" x="100.5" y="-1000.5" font-family="Helvetica,sans-Serif" font-size="10.00">+ Position(long pos_)</text>
<text text-anchor="start" x="100.5" y="-989.5" font-family="Helvetica,sans-Serif" font-size="10.00">+ void set_position(long</text>
<text text-anchor="start" x="100.5" y="-978.5" font-family="Helvetica,sans-Serif" font-size="10.00"> new_pos)</text>
<text text-anchor="start" x="100.5" y="-967.5" font-family="Helvetica,sans-Serif" font-size="10.00">+ long get_position()</text>
<text text-anchor="start" x="100.5" y="-956.5" font-family="Helvetica,sans-Serif" font-size="10.00"> const</text>
</a>
</g>
</g>
<!-- Node3&#45;&gt;Node2 -->
<g id="edge2" class="edge">
<title>Node3&#45;&gt;Node2</title>
<path fill="none" stroke="#63b8ff" d="M96.21,-940C90.7,-931.06 85.9,-921.62 82.5,-912 50.11,-820.43 54.61,-706.32 62.08,-635.82"/>
<polygon fill="none" stroke="#63b8ff" points="93.2,-941.79 101.6,-948.24 99.05,-937.96 93.2,-941.79"/>
</g>
<!-- Node4 -->
<g id="node4" class="node">
<title>Node4</title>
<g id="a_node4"><a xlink:href="structkepler_1_1_a_s_t_node.html" target="_top" xlink:title=" ">
<polygon fill="white" stroke="#666666" points="92,-799.5 92,-911.5 213,-911.5 213,-799.5 92,-799.5"/>
<text text-anchor="middle" x="152.5" y="-899.5" font-family="Helvetica,sans-Serif" font-size="10.00">kepler::ASTNode&lt; T &gt;</text>
<polyline fill="none" stroke="#666666" points="92,-892.5 213,-892.5"/>
<text text-anchor="middle" x="152.5" y="-880.5" font-family="Helvetica,sans-Serif" font-size="10.00"> </text>
<polyline fill="none" stroke="#666666" points="92,-873.5 213,-873.5"/>
<text text-anchor="start" x="100" y="-861.5" font-family="Helvetica,sans-Serif" font-size="10.00">+ virtual ~ASTNode()</text>
<text text-anchor="start" x="100" y="-850.5" font-family="Helvetica,sans-Serif" font-size="10.00">=default</text>
<text text-anchor="start" x="100" y="-839.5" font-family="Helvetica,sans-Serif" font-size="10.00">+ virtual T accept(class</text>
<text text-anchor="start" x="100" y="-828.5" font-family="Helvetica,sans-Serif" font-size="10.00"> NodeVisitor &amp;visitor)=0</text>
<text text-anchor="start" x="100" y="-817.5" font-family="Helvetica,sans-Serif" font-size="10.00">+ virtual std::string</text>
<text text-anchor="start" x="100" y="-806.5" font-family="Helvetica,sans-Serif" font-size="10.00"> to_string() const =0</text>
</a>
</g>
</g>
<!-- Node3&#45;&gt;Node4 -->
<g id="edge4" class="edge">
<title>Node3&#45;&gt;Node4</title>
<path fill="none" stroke="#63b8ff" d="M152.5,-938.5C152.5,-929.46 152.5,-920.27 152.5,-911.46"/>
<polygon fill="none" stroke="#63b8ff" points="149,-938.3 152.5,-948.3 156,-938.3 149,-938.3"/>
</g>
<!-- Node6 -->
<g id="node6" class="node">
<title>Node6</title>
<g id="a_node6"><a xlink:href="structkepler_1_1_a_s_t_node.html" target="_top" xlink:title=" ">
<polygon fill="white" stroke="#666666" points="161,-513 161,-625 308,-625 308,-513 161,-513"/>
<text text-anchor="middle" x="234.5" y="-613" font-family="Helvetica,sans-Serif" font-size="10.00">kepler::ASTNode&lt; Array &gt;</text>
<polyline fill="none" stroke="#666666" points="161,-606 308,-606"/>
<text text-anchor="middle" x="234.5" y="-594" font-family="Helvetica,sans-Serif" font-size="10.00"> </text>
<polyline fill="none" stroke="#666666" points="161,-587 308,-587"/>
<text text-anchor="start" x="169" y="-575" font-family="Helvetica,sans-Serif" font-size="10.00">+ virtual ~ASTNode()</text>
<text text-anchor="start" x="169" y="-564" font-family="Helvetica,sans-Serif" font-size="10.00">=default</text>
<text text-anchor="start" x="169" y="-553" font-family="Helvetica,sans-Serif" font-size="10.00">+ virtual Array accept</text>
<text text-anchor="start" x="169" y="-542" font-family="Helvetica,sans-Serif" font-size="10.00">(class NodeVisitor &amp;visitor)=0</text>
<text text-anchor="start" x="169" y="-531" font-family="Helvetica,sans-Serif" font-size="10.00">+ virtual std::string</text>
<text text-anchor="start" x="169" y="-520" font-family="Helvetica,sans-Serif" font-size="10.00"> to_string() const=0</text>
</a>
</g>
</g>
<!-- Node3&#45;&gt;Node6 -->
<g id="edge7" class="edge">
<title>Node3&#45;&gt;Node6</title>
<path fill="none" stroke="#63b8ff" d="M207.82,-940.11C213.31,-931.12 218.1,-921.64 221.5,-912 255.58,-815.49 249.68,-694.02 242.18,-624.87"/>
<polygon fill="none" stroke="#63b8ff" points="204.95,-938.09 202.45,-948.39 210.83,-941.9 204.95,-938.09"/>
</g>
<!-- Node4&#45;&gt;Node2 -->
<g id="edge3" class="edge">
<title>Node4&#45;&gt;Node2</title>
<path fill="none" stroke="orange" d="M93.99,-790.33C92.33,-787.27 90.82,-784.15 89.5,-781 70.24,-735.06 66.33,-678.63 66.91,-635.7"/>
<polygon fill="orange" stroke="orange" points="90.82,-791.86 98.97,-798.64 96.83,-788.26 90.82,-791.86"/>
<text text-anchor="middle" x="129.5" y="-773" font-family="Helvetica,sans-Serif" font-size="10.00"> &lt; Operation_ptr &gt;</text>
</g>
<!-- Node4&#45;&gt;Node6 -->
<g id="edge8" class="edge">
<title>Node4&#45;&gt;Node6</title>
<path fill="none" stroke="orange" d="M171.47,-788.68C185.81,-738.94 205.25,-671.47 218.74,-624.69"/>
<polygon fill="orange" stroke="orange" points="168.14,-787.61 168.73,-798.19 174.86,-789.55 168.14,-787.61"/>
<text text-anchor="middle" x="199.5" y="-773" font-family="Helvetica,sans-Serif" font-size="10.00"> &lt; Array &gt;</text>
</g>
<!-- Node5 -->
<g id="node5" class="node">
<title>Node5</title>
<g id="a_node5"><a xlink:href="structkepler_1_1_statements.html" target="_top" xlink:title=" ">
<polygon fill="white" stroke="#666666" points="296.5,-193.5 296.5,-338.5 430.5,-338.5 430.5,-193.5 296.5,-193.5"/>
<text text-anchor="middle" x="363.5" y="-326.5" font-family="Helvetica,sans-Serif" font-size="10.00">kepler::Statements</text>
<polyline fill="none" stroke="#666666" points="296.5,-319.5 430.5,-319.5"/>
<text text-anchor="middle" x="363.5" y="-307.5" font-family="Helvetica,sans-Serif" font-size="10.00"> </text>
<polyline fill="none" stroke="#666666" points="296.5,-300.5 430.5,-300.5"/>
<text text-anchor="start" x="304.5" y="-288.5" font-family="Helvetica,sans-Serif" font-size="10.00">+ ~Statements() override</text>
<text text-anchor="start" x="304.5" y="-277.5" font-family="Helvetica,sans-Serif" font-size="10.00">+ Statements(std::vector</text>
<text text-anchor="start" x="304.5" y="-266.5" font-family="Helvetica,sans-Serif" font-size="10.00">&lt; ASTNode&lt; Array &gt; * &gt;</text>
<text text-anchor="start" x="304.5" y="-255.5" font-family="Helvetica,sans-Serif" font-size="10.00"> children_, SymbolTable</text>
<text text-anchor="start" x="304.5" y="-244.5" font-family="Helvetica,sans-Serif" font-size="10.00"> *symbol_table)</text>
<text text-anchor="start" x="304.5" y="-233.5" font-family="Helvetica,sans-Serif" font-size="10.00">+ std::string to_string</text>
<text text-anchor="start" x="304.5" y="-222.5" font-family="Helvetica,sans-Serif" font-size="10.00">() const override</text>
<text text-anchor="start" x="304.5" y="-211.5" font-family="Helvetica,sans-Serif" font-size="10.00">+ Array accept(NodeVisitor</text>
<text text-anchor="start" x="304.5" y="-200.5" font-family="Helvetica,sans-Serif" font-size="10.00"> &amp;visitor) override</text>
</a>
</g>
</g>
<!-- Node5&#45;&gt;Node1 -->
<g id="edge5" class="edge">
<title>Node5&#45;&gt;Node1</title>
<path fill="none" stroke="#404040" d="M306.31,-193.61C296.33,-181.15 285.88,-168.11 275.71,-155.4"/>
<polygon fill="none" stroke="#404040" points="275.69,-155.38 268.81,-153.19 268.18,-146.01 275.06,-148.19 275.69,-155.38"/>
<text text-anchor="middle" x="303" y="-167" font-family="Helvetica,sans-Serif" font-size="10.00"> +body</text>
</g>
<!-- Node6&#45;&gt;Node5 -->
<g id="edge6" class="edge">
<title>Node6&#45;&gt;Node5</title>
<path fill="none" stroke="#63b8ff" d="M262.46,-502.76C283.25,-454.26 311.59,-388.12 332.97,-338.24"/>
<polygon fill="none" stroke="#63b8ff" points="259.33,-501.18 258.61,-511.75 265.76,-503.94 259.33,-501.18"/>
</g>
<!-- Node7 -->
<g id="node7" class="node">
<title>Node7</title>
<g id="a_node7"><a xlink:title=" ">
<polygon fill="white" stroke="#666666" points="326.5,-535 326.5,-603 454.5,-603 454.5,-535 326.5,-535"/>
<text text-anchor="start" x="334.5" y="-591" font-family="Helvetica,sans-Serif" font-size="10.00">vector&lt; kepler::ASTNode</text>
<text text-anchor="middle" x="390.5" y="-580" font-family="Helvetica,sans-Serif" font-size="10.00">&lt; kepler::Array &gt; * &gt;</text>
<polyline fill="none" stroke="#666666" points="326.5,-573 454.5,-573"/>
<text text-anchor="middle" x="390.5" y="-561" font-family="Helvetica,sans-Serif" font-size="10.00"> </text>
<polyline fill="none" stroke="#666666" points="326.5,-554 454.5,-554"/>
<text text-anchor="middle" x="390.5" y="-542" font-family="Helvetica,sans-Serif" font-size="10.00"> </text>
</a>
</g>
</g>
<!-- Node7&#45;&gt;Node5 -->
<g id="edge9" class="edge">
<title>Node7&#45;&gt;Node5</title>
<path fill="none" stroke="#404040" d="M387.56,-535.21C383.63,-491.4 376.52,-412.2 371.05,-351.18"/>
<polygon fill="none" stroke="#404040" points="371.06,-351.31 366.54,-345.69 369.99,-339.36 374.51,-344.97 371.06,-351.31"/>
<text text-anchor="middle" x="394" y="-360" font-family="Helvetica,sans-Serif" font-size="10.00"> +children</text>
</g>
<!-- Node8 -->
<g id="node8" class="node">
<title>Node8</title>
<g id="a_node8"><a xlink:href="classkepler_1_1_symbol_table.html" target="_top" xlink:title=" ">
<polygon fill="white" stroke="#666666" points="472.5,-386.5 472.5,-751.5 614.5,-751.5 614.5,-386.5 472.5,-386.5"/>
<text text-anchor="middle" x="543.5" y="-739.5" font-family="Helvetica,sans-Serif" font-size="10.00">kepler::SymbolTable</text>
<polyline fill="none" stroke="#666666" points="472.5,-732.5 614.5,-732.5"/>
<text text-anchor="middle" x="543.5" y="-720.5" font-family="Helvetica,sans-Serif" font-size="10.00"> </text>
<polyline fill="none" stroke="#666666" points="472.5,-713.5 614.5,-713.5"/>
<text text-anchor="start" x="480.5" y="-701.5" font-family="Helvetica,sans-Serif" font-size="10.00">+ SymbolTable()</text>
<text text-anchor="start" x="480.5" y="-690.5" font-family="Helvetica,sans-Serif" font-size="10.00">+ SymbolTable(SymbolTable</text>
<text text-anchor="start" x="480.5" y="-679.5" font-family="Helvetica,sans-Serif" font-size="10.00"> *parent)</text>
<text text-anchor="start" x="480.5" y="-668.5" font-family="Helvetica,sans-Serif" font-size="10.00">+ ~SymbolTable()</text>
<text text-anchor="start" x="480.5" y="-657.5" font-family="Helvetica,sans-Serif" font-size="10.00">+ void attach_parent</text>
<text text-anchor="start" x="480.5" y="-646.5" font-family="Helvetica,sans-Serif" font-size="10.00">(SymbolTable *parent)</text>
<text text-anchor="start" x="480.5" y="-635.5" font-family="Helvetica,sans-Serif" font-size="10.00">+ bool contains(const</text>
<text text-anchor="start" x="480.5" y="-624.5" font-family="Helvetica,sans-Serif" font-size="10.00"> String &amp;id) const</text>
<text text-anchor="start" x="480.5" y="-613.5" font-family="Helvetica,sans-Serif" font-size="10.00">+ const T &amp; get(const</text>
<text text-anchor="start" x="480.5" y="-602.5" font-family="Helvetica,sans-Serif" font-size="10.00"> String &amp;id) const</text>
<text text-anchor="start" x="480.5" y="-591.5" font-family="Helvetica,sans-Serif" font-size="10.00">+ SymbolType get_type</text>
<text text-anchor="start" x="480.5" y="-580.5" font-family="Helvetica,sans-Serif" font-size="10.00">(const String &amp;id) const</text>
<text text-anchor="start" x="480.5" y="-569.5" font-family="Helvetica,sans-Serif" font-size="10.00">+ void set(const String</text>
<text text-anchor="start" x="480.5" y="-558.5" font-family="Helvetica,sans-Serif" font-size="10.00"> &amp;id, const Array &amp;value,</text>
<text text-anchor="start" x="480.5" y="-547.5" font-family="Helvetica,sans-Serif" font-size="10.00"> bool locally_only=false)</text>
<text text-anchor="start" x="480.5" y="-536.5" font-family="Helvetica,sans-Serif" font-size="10.00">+ void set(const String</text>
<text text-anchor="start" x="480.5" y="-525.5" font-family="Helvetica,sans-Serif" font-size="10.00"> &amp;id, const Operation</text>
<text text-anchor="start" x="480.5" y="-514.5" font-family="Helvetica,sans-Serif" font-size="10.00">_ptr &amp;value, bool locally</text>
<text text-anchor="start" x="480.5" y="-503.5" font-family="Helvetica,sans-Serif" font-size="10.00">_only=false)</text>
<text text-anchor="start" x="480.5" y="-492.5" font-family="Helvetica,sans-Serif" font-size="10.00">+ void set(const String</text>
<text text-anchor="start" x="480.5" y="-481.5" font-family="Helvetica,sans-Serif" font-size="10.00"> &amp;id, const Number &amp;value,</text>
<text text-anchor="start" x="480.5" y="-470.5" font-family="Helvetica,sans-Serif" font-size="10.00"> bool locally_only=false)</text>
<text text-anchor="start" x="480.5" y="-459.5" font-family="Helvetica,sans-Serif" font-size="10.00">+ void remove(const String</text>
<text text-anchor="start" x="480.5" y="-448.5" font-family="Helvetica,sans-Serif" font-size="10.00"> &amp;id, bool locally_only=false)</text>
<text text-anchor="start" x="480.5" y="-437.5" font-family="Helvetica,sans-Serif" font-size="10.00">+ void bind_function</text>
<text text-anchor="start" x="480.5" y="-426.5" font-family="Helvetica,sans-Serif" font-size="10.00">(const String &amp;id)</text>
<text text-anchor="start" x="480.5" y="-415.5" font-family="Helvetica,sans-Serif" font-size="10.00">+ void clear()</text>
<text text-anchor="start" x="480.5" y="-404.5" font-family="Helvetica,sans-Serif" font-size="10.00">+ void insert_system</text>
<text text-anchor="start" x="480.5" y="-393.5" font-family="Helvetica,sans-Serif" font-size="10.00">_parameters()</text>
</a>
</g>
</g>
<!-- Node8&#45;&gt;Node5 -->
<g id="edge10" class="edge">
<title>Node8&#45;&gt;Node5</title>
<path fill="none" stroke="#404040" d="M472.62,-401.33C469.64,-396.11 466.6,-390.98 463.5,-386 455.65,-373.38 446.55,-360.68 437.1,-348.52"/>
<polygon fill="none" stroke="#404040" points="437.12,-348.55 430.26,-346.34 429.66,-339.16 436.52,-341.37 437.12,-348.55"/>
<text text-anchor="middle" x="482" y="-360" font-family="Helvetica,sans-Serif" font-size="10.00"> +symbol_table</text>
</g>
</g>
</svg>
