<?xml version="1.0" encoding="UTF-8" standalone="no"?>
<!DOCTYPE svg PUBLIC "-//W3C//DTD SVG 1.1//EN"
 "http://www.w3.org/Graphics/SVG/1.1/DTD/svg11.dtd">
<!-- Generated by graphviz version 7.1.0 (20230121.1956)
 -->
<!-- Title: kepler::ArrowUp::operator() Pages: 1 -->
<svg width="274pt" height="64pt"
 viewBox="0.00 0.00 274.00 64.00" xmlns="http://www.w3.org/2000/svg" xmlns:xlink="http://www.w3.org/1999/xlink">
<g id="graph0" class="graph" transform="scale(1 1) rotate(0) translate(4 60)">
<title>kepler::ArrowUp::operator()</title>
<!-- Node1 -->
<g id="node1" class="node">
<title>Node1</title>
<g id="a_node1"><a xlink:title=" ">
<polygon fill="#999999" stroke="#666666" points="134,-37 0,-37 0,-18 134,-18 134,-37"/>
<text text-anchor="middle" x="67" y="-25" font-family="Helvetica,sans-Serif" font-size="10.00">kepler::ArrowUp::operator()</text>
</a>
</g>
</g>
<!-- Node2 -->
<g id="node2" class="node">
<title>Node2</title>
<g id="a_node2"><a xlink:href="namespacekepler.html#aa58d9a8f10f67bdf7f1b10a6fa44254f" target="_top" xlink:title=" ">
<polygon fill="white" stroke="#666666" points="259.5,-56 176.5,-56 176.5,-37 259.5,-37 259.5,-56"/>
<text text-anchor="middle" x="218" y="-44" font-family="Helvetica,sans-Serif" font-size="10.00">kepler::reshape</text>
</a>
</g>
</g>
<!-- Node1&#45;&gt;Node2 -->
<g id="edge1" class="edge">
<title>Node1&#45;&gt;Node2</title>
<path fill="none" stroke="#63b8ff" d="M134.22,-35.94C144.5,-37.26 154.99,-38.59 164.9,-39.86"/>
<polygon fill="#63b8ff" stroke="#63b8ff" points="164.35,-43.31 174.72,-41.11 165.24,-36.37 164.35,-43.31"/>
</g>
<!-- Node3 -->
<g id="node3" class="node">
<title>Node3</title>
<g id="a_node3"><a xlink:href="structkepler_1_1_array.html#a98194b5409eace27b9eae7dcac74e350" target="_top" xlink:title=" ">
<polygon fill="white" stroke="#666666" points="266,-19 170,-19 170,0 266,0 266,-19"/>
<text text-anchor="middle" x="218" y="-7" font-family="Helvetica,sans-Serif" font-size="10.00">kepler::Array::size</text>
</a>
</g>
</g>
<!-- Node1&#45;&gt;Node3 -->
<g id="edge2" class="edge">
<title>Node1&#45;&gt;Node3</title>
<path fill="none" stroke="#63b8ff" d="M134.22,-19.5C142.26,-18.53 150.44,-17.54 158.36,-16.58"/>
<polygon fill="#63b8ff" stroke="#63b8ff" points="158.73,-20.07 168.24,-15.39 157.89,-13.12 158.73,-20.07"/>
</g>
</g>
</svg>
