<?xml version="1.0" encoding="UTF-8" standalone="no"?>
<!DOCTYPE svg PUBLIC "-//W3C//DTD SVG 1.1//EN"
 "http://www.w3.org/Graphics/SVG/1.1/DTD/svg11.dtd">
<!-- Generated by graphviz version 7.1.0 (20230121.1956)
 -->
<!-- Title: kepler::ArrayPrinter::operator() Pages: 1 -->
<svg width="668pt" height="369pt"
 viewBox="0.00 0.00 668.00 368.97" xmlns="http://www.w3.org/2000/svg" xmlns:xlink="http://www.w3.org/1999/xlink">
<g id="graph0" class="graph" transform="scale(1 1) rotate(0) translate(4 364.97)">
<title>kepler::ArrayPrinter::operator()</title>
<!-- Node1 -->
<g id="node1" class="node">
<title>Node1</title>
<g id="a_node1"><a xlink:title=" ">
<polygon fill="#999999" stroke="#666666" points="101,-163.5 0,-163.5 0,-133.5 101,-133.5 101,-163.5"/>
<text text-anchor="start" x="8" y="-151.5" font-family="Helvetica,sans-Serif" font-size="10.00">kepler::ArrayPrinter</text>
<text text-anchor="middle" x="50.5" y="-140.5" font-family="Helvetica,sans-Serif" font-size="10.00">::operator()</text>
</a>
</g>
</g>
<!-- Node2 -->
<g id="node2" class="node">
<title>Node2</title>
<g id="a_node2"><a xlink:href="namespacekepler.html#ab01a36f4a7d47386adc6da6f9a76e90b" target="_top" xlink:title=" ">
<polygon fill="white" stroke="#666666" points="248.5,-316.5 144.5,-316.5 144.5,-286.5 248.5,-286.5 248.5,-316.5"/>
<text text-anchor="start" x="152.5" y="-304.5" font-family="Helvetica,sans-Serif" font-size="10.00">kepler::all_elements</text>
<text text-anchor="middle" x="196.5" y="-293.5" font-family="Helvetica,sans-Serif" font-size="10.00">_are_scalars</text>
</a>
</g>
</g>
<!-- Node1&#45;&gt;Node2 -->
<g id="edge1" class="edge">
<title>Node1&#45;&gt;Node2</title>
<path fill="none" stroke="#63b8ff" d="M57.94,-163.76C69.85,-190.32 97.75,-245.28 137,-277.5 138.1,-278.4 139.23,-279.27 140.4,-280.11"/>
<polygon fill="#63b8ff" stroke="#63b8ff" points="138.24,-282.89 148.58,-285.21 141.95,-276.95 138.24,-282.89"/>
</g>
<!-- Node3 -->
<g id="node3" class="node">
<title>Node3</title>
<g id="a_node3"><a xlink:href="namespacekepler.html#af3b3c68418fa87bb4572e48b1bfd07a8" target="_top" xlink:title=" ">
<polygon fill="white" stroke="#666666" points="231.5,-268 161.5,-268 161.5,-249 231.5,-249 231.5,-268"/>
<text text-anchor="middle" x="196.5" y="-256" font-family="Helvetica,sans-Serif" font-size="10.00">kepler::dims</text>
</a>
</g>
</g>
<!-- Node1&#45;&gt;Node3 -->
<g id="edge2" class="edge">
<title>Node1&#45;&gt;Node3</title>
<path fill="none" stroke="#63b8ff" d="M61.81,-163.86C76.27,-184.27 104.49,-220.11 137,-240.5 141.22,-243.14 145.85,-245.42 150.6,-247.38"/>
<polygon fill="#63b8ff" stroke="#63b8ff" points="149.07,-250.55 159.66,-250.66 151.45,-243.97 149.07,-250.55"/>
</g>
<!-- Node4 -->
<g id="node4" class="node">
<title>Node4</title>
<g id="a_node4"><a xlink:href="structkepler_1_1_array.html#a9d4e4ca37cd263142d76ca0a56346991" target="_top" xlink:title=" ">
<polygon fill="white" stroke="#666666" points="403,-169 298,-169 298,-150 403,-150 403,-169"/>
<text text-anchor="middle" x="350.5" y="-157" font-family="Helvetica,sans-Serif" font-size="10.00">kepler::Array::empty</text>
</a>
</g>
</g>
<!-- Node1&#45;&gt;Node4 -->
<g id="edge3" class="edge">
<title>Node1&#45;&gt;Node4</title>
<path fill="none" stroke="#63b8ff" d="M101.38,-150.34C152.19,-152.22 231.16,-155.13 286.32,-157.17"/>
<polygon fill="#63b8ff" stroke="#63b8ff" points="286.07,-160.66 296.19,-157.53 286.33,-153.67 286.07,-160.66"/>
</g>
<!-- Node5 -->
<g id="node5" class="node">
<title>Node5</title>
<g id="a_node5"><a xlink:href="namespacekepler.html#a03094b27ee173cc9846d34ee4a919648" target="_top" xlink:title=" ">
<polygon fill="white" stroke="#666666" points="249.5,-231 143.5,-231 143.5,-212 249.5,-212 249.5,-231"/>
<text text-anchor="middle" x="196.5" y="-219" font-family="Helvetica,sans-Serif" font-size="10.00">kepler::frame_matrix</text>
</a>
</g>
</g>
<!-- Node1&#45;&gt;Node5 -->
<g id="edge4" class="edge">
<title>Node1&#45;&gt;Node5</title>
<path fill="none" stroke="#63b8ff" d="M82.04,-163.98C106.78,-176.52 141.42,-194.09 165.91,-206.5"/>
<polygon fill="#63b8ff" stroke="#63b8ff" points="164.19,-209.55 174.69,-210.95 167.36,-203.31 164.19,-209.55"/>
</g>
<!-- Node12 -->
<g id="node12" class="node">
<title>Node12</title>
<g id="a_node12"><a xlink:href="structkepler_1_1_array.html#a31e9d1137447bf3402d6278c41569f5e" target="_top" xlink:title=" ">
<polygon fill="white" stroke="#666666" points="256,-142.5 137,-142.5 137,-112.5 256,-112.5 256,-142.5"/>
<text text-anchor="start" x="145" y="-130.5" font-family="Helvetica,sans-Serif" font-size="10.00">kepler::Array::is_simple</text>
<text text-anchor="middle" x="196.5" y="-119.5" font-family="Helvetica,sans-Serif" font-size="10.00">_scalar</text>
</a>
</g>
</g>
<!-- Node1&#45;&gt;Node12 -->
<g id="edge16" class="edge">
<title>Node1&#45;&gt;Node12</title>
<path fill="none" stroke="#63b8ff" d="M101.46,-141.21C109.19,-140.09 117.29,-138.9 125.37,-137.73"/>
<polygon fill="#63b8ff" stroke="#63b8ff" points="125.83,-141.2 135.22,-136.29 124.82,-134.27 125.83,-141.2"/>
</g>
<!-- Node14 -->
<g id="node14" class="node">
<title>Node14</title>
<g id="a_node14"><a xlink:href="namespacekepler.html#a9e38cc6ab08a8fa6e0df6933e1998c88" target="_top" xlink:title=" ">
<polygon fill="white" stroke="#666666" points="557,-134.5 445,-134.5 445,-104.5 557,-104.5 557,-134.5"/>
<text text-anchor="start" x="453" y="-122.5" font-family="Helvetica,sans-Serif" font-size="10.00">kepler::max_length</text>
<text text-anchor="middle" x="501" y="-111.5" font-family="Helvetica,sans-Serif" font-size="10.00">_contiguous_segment</text>
</a>
</g>
</g>
<!-- Node1&#45;&gt;Node14 -->
<g id="edge19" class="edge">
<title>Node1&#45;&gt;Node14</title>
<path fill="none" stroke="#63b8ff" d="M73.51,-133.08C90.1,-122.43 113.88,-109.21 137,-103.5 238.21,-78.49 360.03,-92.44 433.67,-105.47"/>
<polygon fill="#63b8ff" stroke="#63b8ff" points="432.66,-108.85 443.13,-107.19 433.92,-101.96 432.66,-108.85"/>
</g>
<!-- Node15 -->
<g id="node15" class="node">
<title>Node15</title>
<g id="a_node15"><a xlink:href="namespacekepler.html#a09368e22450bc240021df6519cf19c7a" target="_top" xlink:title=" ">
<polygon fill="white" stroke="#666666" points="236,-56 157,-56 157,-37 236,-37 236,-56"/>
<text text-anchor="middle" x="196.5" y="-44" font-family="Helvetica,sans-Serif" font-size="10.00">kepler::offsets</text>
</a>
</g>
</g>
<!-- Node1&#45;&gt;Node15 -->
<g id="edge21" class="edge">
<title>Node1&#45;&gt;Node15</title>
<path fill="none" stroke="#63b8ff" d="M65.04,-133.28C80.9,-116.17 108.65,-88.45 137,-70.5 142.64,-66.93 148.91,-63.7 155.19,-60.85"/>
<polygon fill="#63b8ff" stroke="#63b8ff" points="156.41,-64.13 164.25,-57.01 153.68,-57.68 156.41,-64.13"/>
</g>
<!-- Node16 -->
<g id="node16" class="node">
<title>Node16</title>
<g id="a_node16"><a xlink:href="structkepler_1_1_array.html#a5701013e5ec1699d7d8663bba09cfcdb" target="_top" xlink:title=" ">
<polygon fill="white" stroke="#666666" points="245,-19 148,-19 148,0 245,0 245,-19"/>
<text text-anchor="middle" x="196.5" y="-7" font-family="Helvetica,sans-Serif" font-size="10.00">kepler::Array::rank</text>
</a>
</g>
</g>
<!-- Node1&#45;&gt;Node16 -->
<g id="edge22" class="edge">
<title>Node1&#45;&gt;Node16</title>
<path fill="none" stroke="#63b8ff" d="M58.3,-133.02C70.38,-107.28 98.05,-55.72 137,-27.5 138.54,-26.39 140.15,-25.34 141.81,-24.36"/>
<polygon fill="#63b8ff" stroke="#63b8ff" points="143.03,-27.66 150.43,-20.07 139.92,-21.39 143.03,-27.66"/>
</g>
<!-- Node6 -->
<g id="node6" class="node">
<title>Node6</title>
<g id="a_node6"><a xlink:href="namespacekepler.html#ac2e37855a527a231ea2757065461ec7c" target="_top" xlink:title=" ">
<polygon fill="white" stroke="#666666" points="555.5,-282 446.5,-282 446.5,-263 555.5,-263 555.5,-282"/>
<text text-anchor="middle" x="501" y="-270" font-family="Helvetica,sans-Serif" font-size="10.00">kepler::block_append</text>
</a>
</g>
</g>
<!-- Node5&#45;&gt;Node6 -->
<g id="edge5" class="edge">
<title>Node5&#45;&gt;Node6</title>
<path fill="none" stroke="#63b8ff" d="M229.19,-231.43C237.91,-234.26 247.35,-237.42 256,-240.5 272.17,-246.26 275.28,-250.61 292,-254.5 339.11,-265.46 393.63,-269.89 435.03,-271.61"/>
<polygon fill="#63b8ff" stroke="#63b8ff" points="434.71,-275.1 444.83,-271.97 434.97,-268.11 434.71,-275.1"/>
</g>
<!-- Node7 -->
<g id="node7" class="node">
<title>Node7</title>
<g id="a_node7"><a xlink:href="namespacekepler.html#a1c940fca16ab1a09634ee009e48d64f9" target="_top" xlink:title=" ">
<polygon fill="white" stroke="#666666" points="660,-263 593,-263 593,-244 660,-244 660,-263"/>
<text text-anchor="middle" x="626.5" y="-251" font-family="Helvetica,sans-Serif" font-size="10.00">kepler::split</text>
</a>
</g>
</g>
<!-- Node5&#45;&gt;Node7 -->
<g id="edge15" class="edge">
<title>Node5&#45;&gt;Node7</title>
<path fill="none" stroke="#63b8ff" d="M249.98,-212.41C320.88,-202 450.64,-189.61 557,-216.5 573.23,-220.6 589.8,-229.4 602.57,-237.39"/>
<polygon fill="#63b8ff" stroke="#63b8ff" points="600.37,-240.13 610.65,-242.68 604.21,-234.28 600.37,-240.13"/>
</g>
<!-- Node8 -->
<g id="node8" class="node">
<title>Node8</title>
<g id="a_node8"><a xlink:href="namespacekepler.html#a750517c7d0a2aee96dd1a59d93eeeb4b" target="_top" xlink:title=" ">
<polygon fill="white" stroke="#666666" points="396.5,-245 304.5,-245 304.5,-226 396.5,-226 396.5,-245"/>
<text text-anchor="middle" x="350.5" y="-233" font-family="Helvetica,sans-Serif" font-size="10.00">kepler::block_join</text>
</a>
</g>
</g>
<!-- Node5&#45;&gt;Node8 -->
<g id="edge7" class="edge">
<title>Node5&#45;&gt;Node8</title>
<path fill="none" stroke="#63b8ff" d="M249.81,-226.32C263.77,-227.6 278.91,-229 293.08,-230.3"/>
<polygon fill="#63b8ff" stroke="#63b8ff" points="292.41,-233.76 302.69,-231.19 293.05,-226.79 292.41,-233.76"/>
</g>
<!-- Node10 -->
<g id="node10" class="node">
<title>Node10</title>
<g id="a_node10"><a xlink:href="namespacekepler.html#a5812fc866c7b21bfe8481ea58813a270" target="_top" xlink:title=" ">
<polygon fill="white" stroke="#666666" points="557,-358 445,-358 445,-339 557,-339 557,-358"/>
<text text-anchor="middle" x="501" y="-346" font-family="Helvetica,sans-Serif" font-size="10.00">kepler::block_prepend</text>
</a>
</g>
</g>
<!-- Node5&#45;&gt;Node10 -->
<g id="edge11" class="edge">
<title>Node5&#45;&gt;Node10</title>
<path fill="none" stroke="#63b8ff" d="M242.31,-231.38C247.31,-233.79 252.02,-236.78 256,-240.5 287.46,-269.93 257.4,-304.83 292,-330.5 332.17,-360.3 389.47,-363.21 433.76,-359.55"/>
<polygon fill="#63b8ff" stroke="#63b8ff" points="433.88,-363.05 443.5,-358.61 433.21,-356.09 433.88,-363.05"/>
</g>
<!-- Node11 -->
<g id="node11" class="node">
<title>Node11</title>
<g id="a_node11"><a xlink:href="namespacekepler.html#ac23a3c14c1978c0096eb41930fda9507" target="_top" xlink:title=" ">
<polygon fill="white" stroke="#666666" points="383,-321 318,-321 318,-302 383,-302 383,-321"/>
<text text-anchor="middle" x="350.5" y="-309" font-family="Helvetica,sans-Serif" font-size="10.00">kepler::box</text>
</a>
</g>
</g>
<!-- Node5&#45;&gt;Node11 -->
<g id="edge13" class="edge">
<title>Node5&#45;&gt;Node11</title>
<path fill="none" stroke="#63b8ff" d="M238.97,-231.47C244.98,-233.89 250.86,-236.86 256,-240.5 277.48,-255.69 271.15,-271.44 292,-287.5 296.65,-291.08 301.91,-294.22 307.31,-296.95"/>
<polygon fill="#63b8ff" stroke="#63b8ff" points="305.82,-300.11 316.38,-301.06 308.72,-293.74 305.82,-300.11"/>
</g>
<!-- Node6&#45;&gt;Node7 -->
<g id="edge6" class="edge">
<title>Node6&#45;&gt;Node7</title>
<path fill="none" stroke="#63b8ff" d="M555.81,-264.22C564.38,-262.9 573.16,-261.55 581.47,-260.27"/>
<polygon fill="#63b8ff" stroke="#63b8ff" points="581.99,-263.74 591.34,-258.76 580.93,-256.82 581.99,-263.74"/>
</g>
<!-- Node8&#45;&gt;Node6 -->
<g id="edge8" class="edge">
<title>Node8&#45;&gt;Node6</title>
<path fill="none" stroke="#63b8ff" d="M391.3,-245.42C409.02,-249.83 430.12,-255.09 448.99,-259.79"/>
<polygon fill="#63b8ff" stroke="#63b8ff" points="448.08,-263.17 458.63,-262.19 449.77,-256.38 448.08,-263.17"/>
</g>
<!-- Node9 -->
<g id="node9" class="node">
<title>Node9</title>
<g id="a_node9"><a xlink:href="namespacekepler.html#ac06a7b655e54e2533459da64127b862a" target="_top" xlink:title=" ">
<polygon fill="white" stroke="#666666" points="554.5,-245 447.5,-245 447.5,-226 554.5,-226 554.5,-245"/>
<text text-anchor="middle" x="501" y="-233" font-family="Helvetica,sans-Serif" font-size="10.00">kepler::block_concat</text>
</a>
</g>
</g>
<!-- Node8&#45;&gt;Node9 -->
<g id="edge9" class="edge">
<title>Node8&#45;&gt;Node9</title>
<path fill="none" stroke="#63b8ff" d="M396.86,-235.5C409.13,-235.5 422.65,-235.5 435.74,-235.5"/>
<polygon fill="#63b8ff" stroke="#63b8ff" points="435.59,-239 445.59,-235.5 435.59,-232 435.59,-239"/>
</g>
<!-- Node9&#45;&gt;Node7 -->
<g id="edge10" class="edge">
<title>Node9&#45;&gt;Node7</title>
<path fill="none" stroke="#63b8ff" d="M554.73,-243.19C563.57,-244.47 572.65,-245.8 581.25,-247.05"/>
<polygon fill="#63b8ff" stroke="#63b8ff" points="580.69,-250.51 591.09,-248.48 581.7,-243.58 580.69,-250.51"/>
</g>
<!-- Node10&#45;&gt;Node7 -->
<g id="edge12" class="edge">
<title>Node10&#45;&gt;Node7</title>
<path fill="none" stroke="#63b8ff" d="M530.54,-338.55C539.41,-334.81 548.96,-330.09 557,-324.5 578.2,-309.77 598.18,-287.77 611.03,-272.17"/>
<polygon fill="#63b8ff" stroke="#63b8ff" points="613.58,-274.58 617.11,-264.59 608.12,-270.2 613.58,-274.58"/>
</g>
<!-- Node11&#45;&gt;Node7 -->
<g id="edge14" class="edge">
<title>Node11&#45;&gt;Node7</title>
<path fill="none" stroke="#63b8ff" d="M383.27,-312.37C424.34,-312.6 497.62,-309.98 557,-291.5 572.98,-286.52 589.43,-277.55 602.21,-269.57"/>
<polygon fill="#63b8ff" stroke="#63b8ff" points="603.83,-272.69 610.31,-264.3 600.02,-266.82 603.83,-272.69"/>
</g>
<!-- Node12&#45;&gt;Node4 -->
<g id="edge17" class="edge">
<title>Node12&#45;&gt;Node4</title>
<path fill="none" stroke="#63b8ff" d="M256.27,-139.87C267.67,-142.27 279.62,-144.79 291.01,-147.19"/>
<polygon fill="#63b8ff" stroke="#63b8ff" points="290.19,-150.59 300.7,-149.23 291.64,-143.74 290.19,-150.59"/>
</g>
<!-- Node13 -->
<g id="node13" class="node">
<title>Node13</title>
<g id="a_node13"><a xlink:href="structkepler_1_1_array.html#ae82484749f93ec527be3eff64ddf3d37" target="_top" xlink:title=" ">
<polygon fill="white" stroke="#666666" points="409,-132 292,-132 292,-113 409,-113 409,-132"/>
<text text-anchor="middle" x="350.5" y="-120" font-family="Helvetica,sans-Serif" font-size="10.00">kepler::Array::is_scalar</text>
</a>
</g>
</g>
<!-- Node12&#45;&gt;Node13 -->
<g id="edge18" class="edge">
<title>Node12&#45;&gt;Node13</title>
<path fill="none" stroke="#63b8ff" d="M256.27,-125.57C264.22,-125.31 272.43,-125.04 280.54,-124.77"/>
<polygon fill="#63b8ff" stroke="#63b8ff" points="280.5,-128.27 290.38,-124.44 280.27,-121.28 280.5,-128.27"/>
</g>
<!-- Node14&#45;&gt;Node7 -->
<g id="edge20" class="edge">
<title>Node14&#45;&gt;Node7</title>
<path fill="none" stroke="#63b8ff" d="M516.17,-134.87C539.06,-159.72 584.11,-208.59 608.63,-235.19"/>
<polygon fill="#63b8ff" stroke="#63b8ff" points="606,-237.5 615.35,-242.49 611.15,-232.76 606,-237.5"/>
</g>
</g>
</svg>
