<?xml version="1.0" encoding="UTF-8" standalone="no"?>
<!DOCTYPE svg PUBLIC "-//W3C//DTD SVG 1.1//EN"
 "http://www.w3.org/Graphics/SVG/1.1/DTD/svg11.dtd">
<!-- Generated by graphviz version 7.1.0 (20230121.1956)
 -->
<!-- Title: kepler::PervadeMixin&lt; BASE &gt; Pages: 1 -->
<svg width="125pt" height="248pt"
 viewBox="0.00 0.00 125.00 248.00" xmlns="http://www.w3.org/2000/svg" xmlns:xlink="http://www.w3.org/1999/xlink">
<g id="graph0" class="graph" transform="scale(1 1) rotate(0) translate(4 244)">
<title>kepler::PervadeMixin&lt; BASE &gt;</title>
<!-- Node1 -->
<g id="node1" class="node">
<title>Node1</title>
<g id="a_node1"><a xlink:title=" ">
<polygon fill="#999999" stroke="#666666" points="0,-0.5 0,-145.5 117,-145.5 117,-0.5 0,-0.5"/>
<text text-anchor="start" x="8" y="-133.5" font-family="Helvetica,sans-Serif" font-size="10.00">kepler::PervadeMixin</text>
<text text-anchor="middle" x="58.5" y="-122.5" font-family="Helvetica,sans-Serif" font-size="10.00">&lt; BASE &gt;</text>
<polyline fill="none" stroke="#666666" points="0,-115.5 117,-115.5"/>
<text text-anchor="middle" x="58.5" y="-103.5" font-family="Helvetica,sans-Serif" font-size="10.00"> </text>
<polyline fill="none" stroke="#666666" points="0,-96.5 117,-96.5"/>
<text text-anchor="start" x="8" y="-84.5" font-family="Helvetica,sans-Serif" font-size="10.00">+ virtual Array operator</text>
<text text-anchor="start" x="8" y="-73.5" font-family="Helvetica,sans-Serif" font-size="10.00">()(const Array &amp;omega)</text>
<text text-anchor="start" x="8" y="-62.5" font-family="Helvetica,sans-Serif" font-size="10.00">+ virtual Array operator</text>
<text text-anchor="start" x="8" y="-51.5" font-family="Helvetica,sans-Serif" font-size="10.00">()(const Array &amp;alpha,</text>
<text text-anchor="start" x="8" y="-40.5" font-family="Helvetica,sans-Serif" font-size="10.00"> const Array &amp;omega)</text>
<text text-anchor="start" x="8" y="-29.5" font-family="Helvetica,sans-Serif" font-size="10.00">+ virtual Array operator</text>
<text text-anchor="start" x="8" y="-18.5" font-family="Helvetica,sans-Serif" font-size="10.00">()(const String &amp;alpha,</text>
<text text-anchor="start" x="8" y="-7.5" font-family="Helvetica,sans-Serif" font-size="10.00"> const String &amp;omega)</text>
</a>
</g>
</g>
<!-- Node2 -->
<g id="node2" class="node">
<title>Node2</title>
<g id="a_node2"><a xlink:href="class_b_a_s_e.html" target="_top" xlink:title=" ">
<polygon fill="white" stroke="#666666" points="36.5,-182.5 36.5,-239.5 80.5,-239.5 80.5,-182.5 36.5,-182.5"/>
<text text-anchor="middle" x="58.5" y="-227.5" font-family="Helvetica,sans-Serif" font-size="10.00">BASE</text>
<polyline fill="none" stroke="#666666" points="36.5,-220.5 80.5,-220.5"/>
<text text-anchor="middle" x="58.5" y="-208.5" font-family="Helvetica,sans-Serif" font-size="10.00"> </text>
<polyline fill="none" stroke="#666666" points="36.5,-201.5 80.5,-201.5"/>
<text text-anchor="middle" x="58.5" y="-189.5" font-family="Helvetica,sans-Serif" font-size="10.00"> </text>
</a>
</g>
</g>
<!-- Node2&#45;&gt;Node1 -->
<g id="edge1" class="edge">
<title>Node2&#45;&gt;Node1</title>
<path fill="none" stroke="#63b8ff" d="M58.5,-171.4C58.5,-163.22 58.5,-154.34 58.5,-145.38"/>
<polygon fill="none" stroke="#63b8ff" points="55,-171.29 58.5,-181.29 62,-171.29 55,-171.29"/>
</g>
</g>
</svg>
