<?xml version="1.0" encoding="UTF-8" standalone="no"?>
<!DOCTYPE svg PUBLIC "-//W3C//DTD SVG 1.1//EN"
 "http://www.w3.org/Graphics/SVG/1.1/DTD/svg11.dtd">
<!-- Generated by graphviz version 7.1.0 (20230121.1956)
 -->
<!-- Title: kepler::AnonymousFunction Pages: 1 -->
<!--zoomable 1147 -->
<svg id="main" version="1.1" xmlns="http://www.w3.org/2000/svg" xmlns:xlink="http://www.w3.org/1999/xlink" xml:space="preserve" onload="init(evt)">
<style type="text/css"><![CDATA[
.edge:hover path { stroke: red; }
.edge:hover polygon { stroke: red; fill: red; }
]]></style>
<script type="text/javascript"><![CDATA[
var edges = document.getElementsByTagName('g');
if (edges && edges.length) {
  for (var i=0;i<edges.length;i++) {
    if (edges[i].id.substr(0,4)=='edge') {
      edges[i].setAttribute('class','edge');
    }
  }
}
]]></script>
        <defs>
                <circle id="rim" cx="0" cy="0" r="7"/>
                <circle id="rim2" cx="0" cy="0" r="3.5"/>
                <g id="zoomPlus">
                        <use xlink:href="#rim" fill="#404040">
                                <set attributeName="fill" to="#808080" begin="zoomplus.mouseover" end="zoomplus.mouseout"/>
                        </use>
                        <path d="M-4,0h8M0,-4v8" fill="none" stroke="white" stroke-width="1.5" pointer-events="none"/>
                </g>
                <g id="zoomMin">
                        <use xlink:href="#rim" fill="#404040">
                                <set attributeName="fill" to="#808080" begin="zoomminus.mouseover" end="zoomminus.mouseout"/>
                        </use>
                        <path d="M-4,0h8" fill="none" stroke="white" stroke-width="1.5" pointer-events="none"/>
                </g>
                <g id="dirArrow">
                        <path fill="none" stroke="white" stroke-width="1.5" d="M0,-3.0v7 M-2.5,-0.5L0,-3.0L2.5,-0.5"/>
                </g>
               <g id="resetDef">
                       <use xlink:href="#rim2" fill="#404040">
                               <set attributeName="fill" to="#808080" begin="reset.mouseover" end="reset.mouseout"/>
                       </use>
               </g>
        </defs>

<script type="text/javascript">
var viewWidth = 623;
var viewHeight = 1147;
var sectionId = 'dynsection-1';
</script>
<script xlink:href="svgpan.js"/>
<svg id="graph" class="graph">
<g id="viewport">
<title>kepler::AnonymousFunction</title>
<!-- Node1 -->
<g id="node1" class="node">
<title>Node1</title>
<g id="a_node1"><a xlink:title=" ">
<polygon fill="#999999" stroke="#666666" points="141.5,-0.5 141.5,-145.5 279.5,-145.5 279.5,-0.5 141.5,-0.5"/>
<text text-anchor="middle" x="210.5" y="-133.5" font-family="Helvetica,sans-Serif" font-size="10.00">kepler::AnonymousFunction</text>
<polyline fill="none" stroke="#666666" points="141.5,-126.5 279.5,-126.5"/>
<text text-anchor="middle" x="210.5" y="-114.5" font-family="Helvetica,sans-Serif" font-size="10.00"> </text>
<polyline fill="none" stroke="#666666" points="141.5,-107.5 279.5,-107.5"/>
<text text-anchor="start" x="149.5" y="-95.5" font-family="Helvetica,sans-Serif" font-size="10.00">+ ~AnonymousFunction</text>
<text text-anchor="start" x="149.5" y="-84.5" font-family="Helvetica,sans-Serif" font-size="10.00">() override</text>
<text text-anchor="start" x="149.5" y="-73.5" font-family="Helvetica,sans-Serif" font-size="10.00">+ AnonymousFunction</text>
<text text-anchor="start" x="149.5" y="-62.5" font-family="Helvetica,sans-Serif" font-size="10.00">(Statements *body)</text>
<text text-anchor="start" x="149.5" y="-51.5" font-family="Helvetica,sans-Serif" font-size="10.00">+ std::string to_string</text>
<text text-anchor="start" x="149.5" y="-40.5" font-family="Helvetica,sans-Serif" font-size="10.00">() const override</text>
<text text-anchor="start" x="149.5" y="-29.5" font-family="Helvetica,sans-Serif" font-size="10.00">+ Operation_ptr accept</text>
<text text-anchor="start" x="149.5" y="-18.5" font-family="Helvetica,sans-Serif" font-size="10.00">(NodeVisitor &amp;visitor)</text>
<text text-anchor="start" x="149.5" y="-7.5" font-family="Helvetica,sans-Serif" font-size="10.00"> override</text>
</a>
</g>
</g>
<!-- Node2 -->
<g id="node2" class="node">
<title>Node2</title>
<g id="a_node2"><a xlink:href="structkepler_1_1_a_s_t_node.html" target="_top" xlink:title=" ">
<polygon fill="white" stroke="#666666" points="0,-540.5 0,-674.5 143,-674.5 143,-540.5 0,-540.5"/>
<text text-anchor="start" x="8" y="-662.5" font-family="Helvetica,sans-Serif" font-size="10.00">kepler::ASTNode&lt; Operation</text>
<text text-anchor="middle" x="71.5" y="-651.5" font-family="Helvetica,sans-Serif" font-size="10.00">_ptr &gt;</text>
<polyline fill="none" stroke="#666666" points="0,-644.5 143,-644.5"/>
<text text-anchor="middle" x="71.5" y="-632.5" font-family="Helvetica,sans-Serif" font-size="10.00"> </text>
<polyline fill="none" stroke="#666666" points="0,-625.5 143,-625.5"/>
<text text-anchor="start" x="8" y="-613.5" font-family="Helvetica,sans-Serif" font-size="10.00">+ virtual ~ASTNode()</text>
<text text-anchor="start" x="8" y="-602.5" font-family="Helvetica,sans-Serif" font-size="10.00">=default</text>
<text text-anchor="start" x="8" y="-591.5" font-family="Helvetica,sans-Serif" font-size="10.00">+ virtual Operation_ptr</text>
<text text-anchor="start" x="8" y="-580.5" font-family="Helvetica,sans-Serif" font-size="10.00"> accept(class NodeVisitor</text>
<text text-anchor="start" x="8" y="-569.5" font-family="Helvetica,sans-Serif" font-size="10.00"> &amp;visitor)=0</text>
<text text-anchor="start" x="8" y="-558.5" font-family="Helvetica,sans-Serif" font-size="10.00">+ virtual std::string</text>
<text text-anchor="start" x="8" y="-547.5" font-family="Helvetica,sans-Serif" font-size="10.00"> to_string() const=0</text>
</a>
</g>
</g>
<!-- Node2&#45;&gt;Node1 -->
<g id="edge1" class="edge">
<title>Node2&#45;&gt;Node1</title>
<path fill="none" stroke="#63b8ff" d="M91.54,-529.73C118.42,-426.74 165.8,-245.25 191.92,-145.19"/>
<polygon fill="none" stroke="#63b8ff" points="88.21,-528.65 89.07,-539.21 94.98,-530.41 88.21,-528.65"/>
</g>
<!-- Node3 -->
<g id="node3" class="node">
<title>Node3</title>
<g id="a_node3"><a xlink:href="structkepler_1_1position.html" target="_top" xlink:title=" ">
<polygon fill="white" stroke="#666666" points="92.5,-1026.5 92.5,-1138.5 212.5,-1138.5 212.5,-1026.5 92.5,-1026.5"/>
<text text-anchor="middle" x="152.5" y="-1126.5" font-family="Helvetica,sans-Serif" font-size="10.00">kepler::position</text>
<polyline fill="none" stroke="#666666" points="92.5,-1119.5 212.5,-1119.5"/>
<text text-anchor="middle" x="152.5" y="-1107.5" font-family="Helvetica,sans-Serif" font-size="10.00"> </text>
<polyline fill="none" stroke="#666666" points="92.5,-1100.5 212.5,-1100.5"/>
<text text-anchor="start" x="100.5" y="-1088.5" font-family="Helvetica,sans-Serif" font-size="10.00">+ position()</text>
<text text-anchor="start" x="100.5" y="-1077.5" font-family="Helvetica,sans-Serif" font-size="10.00">+ position(long pos_)</text>
<text text-anchor="start" x="100.5" y="-1066.5" font-family="Helvetica,sans-Serif" font-size="10.00">+ void set_position(long</text>
<text text-anchor="start" x="100.5" y="-1055.5" font-family="Helvetica,sans-Serif" font-size="10.00"> new_pos)</text>
<text text-anchor="start" x="100.5" y="-1044.5" font-family="Helvetica,sans-Serif" font-size="10.00">+ long get_position()</text>
<text text-anchor="start" x="100.5" y="-1033.5" font-family="Helvetica,sans-Serif" font-size="10.00"> const</text>
</a>
</g>
</g>
<!-- Node3&#45;&gt;Node2 -->
<g id="edge2" class="edge">
<title>Node3&#45;&gt;Node2</title>
<path fill="none" stroke="#63b8ff" d="M96.18,-1017.02C90.68,-1008.07 85.89,-998.63 82.5,-989 45.48,-883.8 52.49,-751.96 61.56,-674.31"/>
<polygon fill="none" stroke="#63b8ff" points="93.17,-1018.8 101.57,-1025.25 99.02,-1014.97 93.17,-1018.8"/>
</g>
<!-- Node4 -->
<g id="node4" class="node">
<title>Node4</title>
<g id="a_node4"><a xlink:href="structkepler_1_1_a_s_t_node.html" target="_top" xlink:title=" ">
<polygon fill="white" stroke="#666666" points="92,-876.5 92,-988.5 213,-988.5 213,-876.5 92,-876.5"/>
<text text-anchor="middle" x="152.5" y="-976.5" font-family="Helvetica,sans-Serif" font-size="10.00">kepler::ASTNode&lt; T &gt;</text>
<polyline fill="none" stroke="#666666" points="92,-969.5 213,-969.5"/>
<text text-anchor="middle" x="152.5" y="-957.5" font-family="Helvetica,sans-Serif" font-size="10.00"> </text>
<polyline fill="none" stroke="#666666" points="92,-950.5 213,-950.5"/>
<text text-anchor="start" x="100" y="-938.5" font-family="Helvetica,sans-Serif" font-size="10.00">+ virtual ~ASTNode()</text>
<text text-anchor="start" x="100" y="-927.5" font-family="Helvetica,sans-Serif" font-size="10.00">=default</text>
<text text-anchor="start" x="100" y="-916.5" font-family="Helvetica,sans-Serif" font-size="10.00">+ virtual T accept(class</text>
<text text-anchor="start" x="100" y="-905.5" font-family="Helvetica,sans-Serif" font-size="10.00"> NodeVisitor &amp;visitor)=0</text>
<text text-anchor="start" x="100" y="-894.5" font-family="Helvetica,sans-Serif" font-size="10.00">+ virtual std::string</text>
<text text-anchor="start" x="100" y="-883.5" font-family="Helvetica,sans-Serif" font-size="10.00"> to_string() const =0</text>
</a>
</g>
</g>
<!-- Node3&#45;&gt;Node4 -->
<g id="edge4" class="edge">
<title>Node3&#45;&gt;Node4</title>
<path fill="none" stroke="#63b8ff" d="M152.5,-1015.5C152.5,-1006.46 152.5,-997.27 152.5,-988.46"/>
<polygon fill="none" stroke="#63b8ff" points="149,-1015.3 152.5,-1025.3 156,-1015.3 149,-1015.3"/>
</g>
<!-- Node6 -->
<g id="node6" class="node">
<title>Node6</title>
<g id="a_node6"><a xlink:href="structkepler_1_1_a_s_t_node.html" target="_top" xlink:title=" ">
<polygon fill="white" stroke="#666666" points="161,-551.5 161,-663.5 308,-663.5 308,-551.5 161,-551.5"/>
<text text-anchor="middle" x="234.5" y="-651.5" font-family="Helvetica,sans-Serif" font-size="10.00">kepler::ASTNode&lt; Array &gt;</text>
<polyline fill="none" stroke="#666666" points="161,-644.5 308,-644.5"/>
<text text-anchor="middle" x="234.5" y="-632.5" font-family="Helvetica,sans-Serif" font-size="10.00"> </text>
<polyline fill="none" stroke="#666666" points="161,-625.5 308,-625.5"/>
<text text-anchor="start" x="169" y="-613.5" font-family="Helvetica,sans-Serif" font-size="10.00">+ virtual ~ASTNode()</text>
<text text-anchor="start" x="169" y="-602.5" font-family="Helvetica,sans-Serif" font-size="10.00">=default</text>
<text text-anchor="start" x="169" y="-591.5" font-family="Helvetica,sans-Serif" font-size="10.00">+ virtual Array accept</text>
<text text-anchor="start" x="169" y="-580.5" font-family="Helvetica,sans-Serif" font-size="10.00">(class NodeVisitor &amp;visitor)=0</text>
<text text-anchor="start" x="169" y="-569.5" font-family="Helvetica,sans-Serif" font-size="10.00">+ virtual std::string</text>
<text text-anchor="start" x="169" y="-558.5" font-family="Helvetica,sans-Serif" font-size="10.00"> to_string() const=0</text>
</a>
</g>
</g>
<!-- Node3&#45;&gt;Node6 -->
<g id="edge7" class="edge">
<title>Node3&#45;&gt;Node6</title>
<path fill="none" stroke="#63b8ff" d="M207.85,-1017.12C213.34,-1008.13 218.11,-998.65 221.5,-989 260.24,-878.61 251.63,-738.97 242.62,-663.3"/>
<polygon fill="none" stroke="#63b8ff" points="204.99,-1015.11 202.49,-1025.4 210.86,-1018.91 204.99,-1015.11"/>
</g>
<!-- Node4&#45;&gt;Node2 -->
<g id="edge3" class="edge">
<title>Node4&#45;&gt;Node2</title>
<path fill="none" stroke="orange" d="M93.67,-866.85C92.13,-863.94 90.73,-860.99 89.5,-858 65.33,-799.26 62.9,-726.21 65.26,-674.36"/>
<polygon fill="orange" stroke="orange" points="90.52,-868.4 98.61,-875.23 96.55,-864.84 90.52,-868.4"/>
<text text-anchor="middle" x="129.5" y="-850" font-family="Helvetica,sans-Serif" font-size="10.00"> &lt; Operation_ptr &gt;</text>
</g>
<!-- Node4&#45;&gt;Node6 -->
<g id="edge8" class="edge">
<title>Node4&#45;&gt;Node6</title>
<path fill="none" stroke="orange" d="M169.15,-865.9C184.29,-806.27 206.37,-719.29 220.59,-663.29"/>
<polygon fill="orange" stroke="orange" points="165.85,-864.69 166.78,-875.24 172.64,-866.41 165.85,-864.69"/>
<text text-anchor="middle" x="194.5" y="-850" font-family="Helvetica,sans-Serif" font-size="10.00"> &lt; Array &gt;</text>
</g>
<!-- Node5 -->
<g id="node5" class="node">
<title>Node5</title>
<g id="a_node5"><a xlink:href="structkepler_1_1_statements.html" target="_top" xlink:title=" ">
<polygon fill="white" stroke="#666666" points="296.5,-193.5 296.5,-338.5 430.5,-338.5 430.5,-193.5 296.5,-193.5"/>
<text text-anchor="middle" x="363.5" y="-326.5" font-family="Helvetica,sans-Serif" font-size="10.00">kepler::Statements</text>
<polyline fill="none" stroke="#666666" points="296.5,-319.5 430.5,-319.5"/>
<text text-anchor="middle" x="363.5" y="-307.5" font-family="Helvetica,sans-Serif" font-size="10.00"> </text>
<polyline fill="none" stroke="#666666" points="296.5,-300.5 430.5,-300.5"/>
<text text-anchor="start" x="304.5" y="-288.5" font-family="Helvetica,sans-Serif" font-size="10.00">+ ~Statements() override</text>
<text text-anchor="start" x="304.5" y="-277.5" font-family="Helvetica,sans-Serif" font-size="10.00">+ Statements(std::vector</text>
<text text-anchor="start" x="304.5" y="-266.5" font-family="Helvetica,sans-Serif" font-size="10.00">&lt; ASTNode&lt; Array &gt; * &gt;</text>
<text text-anchor="start" x="304.5" y="-255.5" font-family="Helvetica,sans-Serif" font-size="10.00"> children_, SymbolTable</text>
<text text-anchor="start" x="304.5" y="-244.5" font-family="Helvetica,sans-Serif" font-size="10.00"> *symbol_table)</text>
<text text-anchor="start" x="304.5" y="-233.5" font-family="Helvetica,sans-Serif" font-size="10.00">+ std::string to_string</text>
<text text-anchor="start" x="304.5" y="-222.5" font-family="Helvetica,sans-Serif" font-size="10.00">() const override</text>
<text text-anchor="start" x="304.5" y="-211.5" font-family="Helvetica,sans-Serif" font-size="10.00">+ Array accept(NodeVisitor</text>
<text text-anchor="start" x="304.5" y="-200.5" font-family="Helvetica,sans-Serif" font-size="10.00"> &amp;visitor) override</text>
</a>
</g>
</g>
<!-- Node5&#45;&gt;Node1 -->
<g id="edge5" class="edge">
<title>Node5&#45;&gt;Node1</title>
<path fill="none" stroke="#404040" d="M306.31,-193.61C296.33,-181.15 285.88,-168.11 275.71,-155.4"/>
<polygon fill="none" stroke="#404040" points="275.69,-155.38 268.81,-153.19 268.18,-146.01 275.06,-148.19 275.69,-155.38"/>
<text text-anchor="middle" x="303" y="-167" font-family="Helvetica,sans-Serif" font-size="10.00"> +body</text>
</g>
<!-- Node6&#45;&gt;Node5 -->
<g id="edge6" class="edge">
<title>Node6&#45;&gt;Node5</title>
<path fill="none" stroke="#63b8ff" d="M258.95,-541.09C275.4,-497.19 297.63,-438.08 317.5,-386 323.38,-370.58 329.74,-354.06 335.79,-338.38"/>
<polygon fill="none" stroke="#63b8ff" points="255.76,-539.62 255.53,-550.21 262.32,-542.07 255.76,-539.62"/>
</g>
<!-- Node7 -->
<g id="node7" class="node">
<title>Node7</title>
<g id="a_node7"><a xlink:title=" ">
<polygon fill="white" stroke="#666666" points="326.5,-573.5 326.5,-641.5 454.5,-641.5 454.5,-573.5 326.5,-573.5"/>
<text text-anchor="start" x="334.5" y="-629.5" font-family="Helvetica,sans-Serif" font-size="10.00">vector&lt; kepler::ASTNode</text>
<text text-anchor="middle" x="390.5" y="-618.5" font-family="Helvetica,sans-Serif" font-size="10.00">&lt; kepler::Array &gt; * &gt;</text>
<polyline fill="none" stroke="#666666" points="326.5,-611.5 454.5,-611.5"/>
<text text-anchor="middle" x="390.5" y="-599.5" font-family="Helvetica,sans-Serif" font-size="10.00"> </text>
<polyline fill="none" stroke="#666666" points="326.5,-592.5 454.5,-592.5"/>
<text text-anchor="middle" x="390.5" y="-580.5" font-family="Helvetica,sans-Serif" font-size="10.00"> </text>
</a>
</g>
</g>
<!-- Node7&#45;&gt;Node5 -->
<g id="edge9" class="edge">
<title>Node7&#45;&gt;Node5</title>
<path fill="none" stroke="#404040" d="M387.89,-573.64C383.83,-522.62 375.89,-422.75 370.17,-350.83"/>
<polygon fill="none" stroke="#404040" points="370.18,-351.05 365.72,-345.39 369.23,-339.09 373.7,-344.75 370.18,-351.05"/>
<text text-anchor="middle" x="393" y="-360" font-family="Helvetica,sans-Serif" font-size="10.00"> +children</text>
</g>
<!-- Node8 -->
<g id="node8" class="node">
<title>Node8</title>
<g id="a_node8"><a xlink:href="classkepler_1_1_symbol_table.html" target="_top" xlink:title=" ">
<polygon fill="white" stroke="#666666" points="472.5,-386.5 472.5,-828.5 614.5,-828.5 614.5,-386.5 472.5,-386.5"/>
<text text-anchor="middle" x="543.5" y="-816.5" font-family="Helvetica,sans-Serif" font-size="10.00">kepler::SymbolTable</text>
<polyline fill="none" stroke="#666666" points="472.5,-809.5 614.5,-809.5"/>
<text text-anchor="middle" x="543.5" y="-797.5" font-family="Helvetica,sans-Serif" font-size="10.00"> </text>
<polyline fill="none" stroke="#666666" points="472.5,-790.5 614.5,-790.5"/>
<text text-anchor="start" x="480.5" y="-778.5" font-family="Helvetica,sans-Serif" font-size="10.00">+ SymbolTable()</text>
<text text-anchor="start" x="480.5" y="-767.5" font-family="Helvetica,sans-Serif" font-size="10.00">+ SymbolTable(SymbolTable</text>
<text text-anchor="start" x="480.5" y="-756.5" font-family="Helvetica,sans-Serif" font-size="10.00"> *parent)</text>
<text text-anchor="start" x="480.5" y="-745.5" font-family="Helvetica,sans-Serif" font-size="10.00">+ ~SymbolTable()</text>
<text text-anchor="start" x="480.5" y="-734.5" font-family="Helvetica,sans-Serif" font-size="10.00">+ void attach_parent</text>
<text text-anchor="start" x="480.5" y="-723.5" font-family="Helvetica,sans-Serif" font-size="10.00">(SymbolTable *parent)</text>
<text text-anchor="start" x="480.5" y="-712.5" font-family="Helvetica,sans-Serif" font-size="10.00">+ bool contains(const</text>
<text text-anchor="start" x="480.5" y="-701.5" font-family="Helvetica,sans-Serif" font-size="10.00"> std::u32string &amp;id)</text>
<text text-anchor="start" x="480.5" y="-690.5" font-family="Helvetica,sans-Serif" font-size="10.00"> const</text>
<text text-anchor="start" x="480.5" y="-679.5" font-family="Helvetica,sans-Serif" font-size="10.00">+ const T &amp; get(const</text>
<text text-anchor="start" x="480.5" y="-668.5" font-family="Helvetica,sans-Serif" font-size="10.00"> std::u32string &amp;id)</text>
<text text-anchor="start" x="480.5" y="-657.5" font-family="Helvetica,sans-Serif" font-size="10.00"> const</text>
<text text-anchor="start" x="480.5" y="-646.5" font-family="Helvetica,sans-Serif" font-size="10.00">+ SymbolType get_type</text>
<text text-anchor="start" x="480.5" y="-635.5" font-family="Helvetica,sans-Serif" font-size="10.00">(const std::u32string</text>
<text text-anchor="start" x="480.5" y="-624.5" font-family="Helvetica,sans-Serif" font-size="10.00"> &amp;id) const</text>
<text text-anchor="start" x="480.5" y="-613.5" font-family="Helvetica,sans-Serif" font-size="10.00">+ void set(const std</text>
<text text-anchor="start" x="480.5" y="-602.5" font-family="Helvetica,sans-Serif" font-size="10.00">::u32string &amp;id, const</text>
<text text-anchor="start" x="480.5" y="-591.5" font-family="Helvetica,sans-Serif" font-size="10.00"> Array &amp;value, bool locally</text>
<text text-anchor="start" x="480.5" y="-580.5" font-family="Helvetica,sans-Serif" font-size="10.00">_only=false)</text>
<text text-anchor="start" x="480.5" y="-569.5" font-family="Helvetica,sans-Serif" font-size="10.00">+ void set(const std</text>
<text text-anchor="start" x="480.5" y="-558.5" font-family="Helvetica,sans-Serif" font-size="10.00">::u32string &amp;id, const</text>
<text text-anchor="start" x="480.5" y="-547.5" font-family="Helvetica,sans-Serif" font-size="10.00"> Operation_ptr &amp;value,</text>
<text text-anchor="start" x="480.5" y="-536.5" font-family="Helvetica,sans-Serif" font-size="10.00"> bool locally_only=false)</text>
<text text-anchor="start" x="480.5" y="-525.5" font-family="Helvetica,sans-Serif" font-size="10.00">+ void set(const std</text>
<text text-anchor="start" x="480.5" y="-514.5" font-family="Helvetica,sans-Serif" font-size="10.00">::u32string &amp;id, const</text>
<text text-anchor="start" x="480.5" y="-503.5" font-family="Helvetica,sans-Serif" font-size="10.00"> Number &amp;value, bool locally</text>
<text text-anchor="start" x="480.5" y="-492.5" font-family="Helvetica,sans-Serif" font-size="10.00">_only=false)</text>
<text text-anchor="start" x="480.5" y="-481.5" font-family="Helvetica,sans-Serif" font-size="10.00">+ void remove(const std</text>
<text text-anchor="start" x="480.5" y="-470.5" font-family="Helvetica,sans-Serif" font-size="10.00">::u32string &amp;id, bool</text>
<text text-anchor="start" x="480.5" y="-459.5" font-family="Helvetica,sans-Serif" font-size="10.00"> locally_only=false)</text>
<text text-anchor="start" x="480.5" y="-448.5" font-family="Helvetica,sans-Serif" font-size="10.00">+ void bind_function</text>
<text text-anchor="start" x="480.5" y="-437.5" font-family="Helvetica,sans-Serif" font-size="10.00">(const std::u32string &amp;id)</text>
<text text-anchor="start" x="480.5" y="-426.5" font-family="Helvetica,sans-Serif" font-size="10.00">+ void clear()</text>
<text text-anchor="start" x="480.5" y="-415.5" font-family="Helvetica,sans-Serif" font-size="10.00">+ void strip_values()</text>
<text text-anchor="start" x="480.5" y="-404.5" font-family="Helvetica,sans-Serif" font-size="10.00">+ void insert_system</text>
<text text-anchor="start" x="480.5" y="-393.5" font-family="Helvetica,sans-Serif" font-size="10.00">_parameters()</text>
</a>
</g>
</g>
<!-- Node8&#45;&gt;Node5 -->
<g id="edge10" class="edge">
<title>Node8&#45;&gt;Node5</title>
<path fill="none" stroke="#404040" d="M472.55,-402.53C469.62,-396.9 466.6,-391.38 463.5,-386 456.12,-373.22 447.33,-360.47 438.07,-348.32"/>
<polygon fill="none" stroke="#404040" points="438.16,-348.42 431.31,-346.16 430.76,-338.97 437.61,-341.23 438.16,-348.42"/>
<text text-anchor="middle" x="483" y="-360" font-family="Helvetica,sans-Serif" font-size="10.00"> +symbol_table</text>
</g>
</g>
</svg>
        <g id="navigator" transform="translate(0 0)" fill="#404254">
                <rect fill="#f2f5e9" fill-opacity="0.5" stroke="#606060" stroke-width=".5" x="0" y="0" width="60" height="60"/>
                <use id="zoomplus" xlink:href="#zoomPlus" x="17" y="9" onmousedown="handleZoom(evt,'in')"/>
                <use id="zoomminus" xlink:href="#zoomMin" x="42" y="9" onmousedown="handleZoom(evt,'out')"/>
                <use id="reset" xlink:href="#resetDef" x="30" y="36" onmousedown="handleReset()"/>
                <g id="arrowUp" xlink:href="#dirArrow" transform="translate(30 24)" onmousedown="handlePan(0,-1)">
                  <use xlink:href="#rim" fill="#404040">
                        <set attributeName="fill" to="#808080" begin="arrowUp.mouseover" end="arrowUp.mouseout"/>
                  </use>
                  <path fill="none" stroke="white" stroke-width="1.5" d="M0,-3.0v7 M-2.5,-0.5L0,-3.0L2.5,-0.5"/>
                </g>
                <g id="arrowRight" xlink:href="#dirArrow" transform="rotate(90) translate(36 -43)" onmousedown="handlePan(1,0)">
                  <use xlink:href="#rim" fill="#404040">
                        <set attributeName="fill" to="#808080" begin="arrowRight.mouseover" end="arrowRight.mouseout"/>
                  </use>
                  <path fill="none" stroke="white" stroke-width="1.5" d="M0,-3.0v7 M-2.5,-0.5L0,-3.0L2.5,-0.5"/>
                </g>
                <g id="arrowDown" xlink:href="#dirArrow" transform="rotate(180) translate(-30 -48)" onmousedown="handlePan(0,1)">
                  <use xlink:href="#rim" fill="#404040">
                        <set attributeName="fill" to="#808080" begin="arrowDown.mouseover" end="arrowDown.mouseout"/>
                  </use>
                  <path fill="none" stroke="white" stroke-width="1.5" d="M0,-3.0v7 M-2.5,-0.5L0,-3.0L2.5,-0.5"/>
                </g>
                <g id="arrowLeft" xlink:href="#dirArrow" transform="rotate(270) translate(-36 17)" onmousedown="handlePan(-1,0)">
                  <use xlink:href="#rim" fill="#404040">
                        <set attributeName="fill" to="#808080" begin="arrowLeft.mouseover" end="arrowLeft.mouseout"/>
                  </use>
                  <path fill="none" stroke="white" stroke-width="1.5" d="M0,-3.0v7 M-2.5,-0.5L0,-3.0L2.5,-0.5"/>
                </g>
        </g>
        <svg viewBox="0 0 15 15" width="100%" height="30px" preserveAspectRatio="xMaxYMin meet">
         <g id="arrow_out" transform="scale(0.3 0.3)">
          <a xlink:href="structkepler_1_1_anonymous_function__coll__graph_org.svg" target="_base">
           <rect id="button" ry="5" rx="5" y="6" x="6" height="38" width="38"
                fill="#f2f5e9" fill-opacity="0.5" stroke="#606060" stroke-width="1.0"/>
           <path id="arrow"
             d="M 11.500037,31.436501 C 11.940474,20.09759 22.043105,11.32322 32.158766,21.979434 L 37.068811,17.246167 C 37.068811,17.246167 37.088388,32 37.088388,32 L 22.160133,31.978069 C 22.160133,31.978069 26.997745,27.140456 26.997745,27.140456 C 18.528582,18.264221 13.291696,25.230495 11.500037,31.436501 z"
             style="fill:#404040;"/>
          </a>
         </g>
        </svg>
</svg>
