<?xml version="1.0" encoding="UTF-8" standalone="no"?>
<!DOCTYPE svg PUBLIC "-//W3C//DTD SVG 1.1//EN"
 "http://www.w3.org/Graphics/SVG/1.1/DTD/svg11.dtd">
<!-- Generated by graphviz version 7.1.0 (20230121.1956)
 -->
<!-- Title: kepler::CircleStile::operator() Pages: 1 -->
<!--zoomable 301 -->
<svg id="main" version="1.1" xmlns="http://www.w3.org/2000/svg" xmlns:xlink="http://www.w3.org/1999/xlink" xml:space="preserve" onload="init(evt)">
<style type="text/css"><![CDATA[
.edge:hover path { stroke: red; }
.edge:hover polygon { stroke: red; fill: red; }
]]></style>
<script type="text/javascript"><![CDATA[
var edges = document.getElementsByTagName('g');
if (edges && edges.length) {
  for (var i=0;i<edges.length;i++) {
    if (edges[i].id.substr(0,4)=='edge') {
      edges[i].setAttribute('class','edge');
    }
  }
}
]]></script>
        <defs>
                <circle id="rim" cx="0" cy="0" r="7"/>
                <circle id="rim2" cx="0" cy="0" r="3.5"/>
                <g id="zoomPlus">
                        <use xlink:href="#rim" fill="#404040">
                                <set attributeName="fill" to="#808080" begin="zoomplus.mouseover" end="zoomplus.mouseout"/>
                        </use>
                        <path d="M-4,0h8M0,-4v8" fill="none" stroke="white" stroke-width="1.5" pointer-events="none"/>
                </g>
                <g id="zoomMin">
                        <use xlink:href="#rim" fill="#404040">
                                <set attributeName="fill" to="#808080" begin="zoomminus.mouseover" end="zoomminus.mouseout"/>
                        </use>
                        <path d="M-4,0h8" fill="none" stroke="white" stroke-width="1.5" pointer-events="none"/>
                </g>
                <g id="dirArrow">
                        <path fill="none" stroke="white" stroke-width="1.5" d="M0,-3.0v7 M-2.5,-0.5L0,-3.0L2.5,-0.5"/>
                </g>
               <g id="resetDef">
                       <use xlink:href="#rim2" fill="#404040">
                               <set attributeName="fill" to="#808080" begin="reset.mouseover" end="reset.mouseout"/>
                       </use>
               </g>
        </defs>

<script type="text/javascript">
var viewWidth = 721;
var viewHeight = 301;
var sectionId = 'dynsection-2';
</script>
<script xlink:href="svgpan.js"/>
<svg id="graph" class="graph">
<g id="viewport">
<title>kepler::CircleStile::operator()</title>
<!-- Node1 -->
<g id="node1" class="node">
<title>Node1</title>
<g id="a_node1"><a xlink:title=" ">
<polygon fill="#999999" stroke="#666666" points="94,-192.5 0,-192.5 0,-162.5 94,-162.5 94,-192.5"/>
<text text-anchor="start" x="8" y="-180.5" font-family="Helvetica,sans-Serif" font-size="10.00">kepler::CircleStile</text>
<text text-anchor="middle" x="47" y="-169.5" font-family="Helvetica,sans-Serif" font-size="10.00">::operator()</text>
</a>
</g>
</g>
<!-- Node2 -->
<g id="node2" class="node">
<title>Node2</title>
<g id="a_node2"><a xlink:href="structkepler_1_1_array.html#aeba04f1c5287e3e0cbbefa7db410267d" target="_top" xlink:title=" ">
<polygon fill="white" stroke="#666666" points="252.5,-292.5 132.5,-292.5 132.5,-262.5 252.5,-262.5 252.5,-292.5"/>
<text text-anchor="start" x="140.5" y="-280.5" font-family="Helvetica,sans-Serif" font-size="10.00">kepler::Array::is_integer</text>
<text text-anchor="middle" x="192.5" y="-269.5" font-family="Helvetica,sans-Serif" font-size="10.00">_numeric</text>
</a>
</g>
</g>
<!-- Node1&#45;&gt;Node2 -->
<g id="edge1" class="edge">
<title>Node1&#45;&gt;Node2</title>
<path fill="none" stroke="#63b8ff" d="M61.15,-192.73C76.32,-209.51 102.7,-236.39 130,-253.5 131.97,-254.74 134.02,-255.93 136.12,-257.07"/>
<polygon fill="#63b8ff" stroke="#63b8ff" points="134.34,-260.1 144.85,-261.42 137.46,-253.83 134.34,-260.1"/>
</g>
<!-- Node3 -->
<g id="node3" class="node">
<title>Node3</title>
<g id="a_node3"><a xlink:href="structkepler_1_1_array.html#add830056588269ea267c11f89b14f774" target="_top" xlink:title=" ">
<polygon fill="white" stroke="#666666" points="255,-244 130,-244 130,-225 255,-225 255,-244"/>
<text text-anchor="middle" x="192.5" y="-232" font-family="Helvetica,sans-Serif" font-size="10.00">kepler::Array::is_numeric</text>
</a>
</g>
</g>
<!-- Node1&#45;&gt;Node3 -->
<g id="edge2" class="edge">
<title>Node1&#45;&gt;Node3</title>
<path fill="none" stroke="#63b8ff" d="M85.93,-192.86C99.79,-198.45 115.59,-204.79 130,-210.5 138.15,-213.73 146.92,-217.17 155.21,-220.41"/>
<polygon fill="#63b8ff" stroke="#63b8ff" points="153.74,-223.6 164.33,-223.97 156.29,-217.07 153.74,-223.6"/>
</g>
<!-- Node4 -->
<g id="node4" class="node">
<title>Node4</title>
<g id="a_node4"><a xlink:href="structkepler_1_1_array.html#ae82484749f93ec527be3eff64ddf3d37" target="_top" xlink:title=" ">
<polygon fill="white" stroke="#666666" points="713,-203 596,-203 596,-184 713,-184 713,-203"/>
<text text-anchor="middle" x="654.5" y="-191" font-family="Helvetica,sans-Serif" font-size="10.00">kepler::Array::is_scalar</text>
</a>
</g>
</g>
<!-- Node1&#45;&gt;Node4 -->
<g id="edge3" class="edge">
<title>Node1&#45;&gt;Node4</title>
<path fill="none" stroke="#63b8ff" d="M94.39,-180.65C106.01,-181.35 118.46,-182.03 130,-182.5 292.73,-189.17 484.08,-191.89 584.3,-192.92"/>
<polygon fill="#63b8ff" stroke="#63b8ff" points="584.22,-196.42 594.25,-193.02 584.29,-189.42 584.22,-196.42"/>
</g>
<!-- Node5 -->
<g id="node5" class="node">
<title>Node5</title>
<g id="a_node5"><a xlink:href="structkepler_1_1_array.html#a31e9d1137447bf3402d6278c41569f5e" target="_top" xlink:title=" ">
<polygon fill="white" stroke="#666666" points="560,-168.5 441,-168.5 441,-138.5 560,-138.5 560,-168.5"/>
<text text-anchor="start" x="449" y="-156.5" font-family="Helvetica,sans-Serif" font-size="10.00">kepler::Array::is_simple</text>
<text text-anchor="middle" x="500.5" y="-145.5" font-family="Helvetica,sans-Serif" font-size="10.00">_scalar</text>
</a>
</g>
</g>
<!-- Node1&#45;&gt;Node5 -->
<g id="edge4" class="edge">
<title>Node1&#45;&gt;Node5</title>
<path fill="none" stroke="#63b8ff" d="M94.2,-175.04C173.49,-170.83 335.93,-162.19 429.3,-157.23"/>
<polygon fill="#63b8ff" stroke="#63b8ff" points="429.3,-160.74 439.1,-156.71 428.93,-153.75 429.3,-160.74"/>
</g>
<!-- Node7 -->
<g id="node7" class="node">
<title>Node7</title>
<g id="a_node7"><a xlink:href="namespacekepler.html#a2e0061e6ccc074df0dabcaf61f4517b8" target="_top" xlink:title=" ">
<polygon fill="white" stroke="#666666" points="229.5,-93 155.5,-93 155.5,-74 229.5,-74 229.5,-93"/>
<text text-anchor="middle" x="192.5" y="-81" font-family="Helvetica,sans-Serif" font-size="10.00">kepler::rotate</text>
</a>
</g>
</g>
<!-- Node1&#45;&gt;Node7 -->
<g id="edge7" class="edge">
<title>Node1&#45;&gt;Node7</title>
<path fill="none" stroke="#63b8ff" d="M71.38,-162.19C97.71,-144.94 140.33,-117.02 167.09,-99.49"/>
<polygon fill="#63b8ff" stroke="#63b8ff" points="168.78,-102.56 175.23,-94.16 164.95,-96.71 168.78,-102.56"/>
</g>
<!-- Node12 -->
<g id="node12" class="node">
<title>Node12</title>
<g id="a_node12"><a xlink:href="structkepler_1_1_array.html#a98194b5409eace27b9eae7dcac74e350" target="_top" xlink:title=" ">
<polygon fill="white" stroke="#666666" points="396,-19 300,-19 300,0 396,0 396,-19"/>
<text text-anchor="middle" x="348" y="-7" font-family="Helvetica,sans-Serif" font-size="10.00">kepler::Array::size</text>
</a>
</g>
</g>
<!-- Node1&#45;&gt;Node12 -->
<g id="edge14" class="edge">
<title>Node1&#45;&gt;Node12</title>
<path fill="none" stroke="#63b8ff" d="M54.86,-162.05C66.59,-137.47 92.88,-89.66 130,-64.5 177.31,-32.44 241.86,-19.06 288.24,-13.48"/>
<polygon fill="#63b8ff" stroke="#63b8ff" points="288.56,-16.97 298.11,-12.39 287.79,-10.01 288.56,-16.97"/>
</g>
<!-- Node5&#45;&gt;Node4 -->
<g id="edge6" class="edge">
<title>Node5&#45;&gt;Node4</title>
<path fill="none" stroke="#63b8ff" d="M560.27,-168.97C574.9,-172.82 590.43,-176.9 604.54,-180.62"/>
<polygon fill="#63b8ff" stroke="#63b8ff" points="603.48,-183.95 614.04,-183.12 605.26,-177.19 603.48,-183.95"/>
</g>
<!-- Node6 -->
<g id="node6" class="node">
<title>Node6</title>
<g id="a_node6"><a xlink:href="structkepler_1_1_array.html#a9d4e4ca37cd263142d76ca0a56346991" target="_top" xlink:title=" ">
<polygon fill="white" stroke="#666666" points="707,-163 602,-163 602,-144 707,-144 707,-163"/>
<text text-anchor="middle" x="654.5" y="-151" font-family="Helvetica,sans-Serif" font-size="10.00">kepler::Array::empty</text>
</a>
</g>
</g>
<!-- Node5&#45;&gt;Node6 -->
<g id="edge5" class="edge">
<title>Node5&#45;&gt;Node6</title>
<path fill="none" stroke="#63b8ff" d="M560.27,-153.5C570.11,-153.5 580.37,-153.5 590.32,-153.5"/>
<polygon fill="#63b8ff" stroke="#63b8ff" points="590.31,-157 600.31,-153.5 590.31,-150 590.31,-157"/>
</g>
<!-- Node8 -->
<g id="node8" class="node">
<title>Node8</title>
<g id="a_node8"><a xlink:href="namespacekepler.html#ad171f0351cbb21e92ca7ea0cc0bbd317" target="_top" xlink:title=" ">
<polygon fill="white" stroke="#666666" points="405,-93 291,-93 291,-74 405,-74 405,-93"/>
<text text-anchor="middle" x="348" y="-81" font-family="Helvetica,sans-Serif" font-size="10.00">kepler::get_block_size</text>
</a>
</g>
</g>
<!-- Node7&#45;&gt;Node8 -->
<g id="edge8" class="edge">
<title>Node7&#45;&gt;Node8</title>
<path fill="none" stroke="#63b8ff" d="M229.88,-83.5C244.79,-83.5 262.54,-83.5 279.65,-83.5"/>
<polygon fill="#63b8ff" stroke="#63b8ff" points="279.26,-87 289.26,-83.5 279.26,-80 279.26,-87"/>
</g>
<!-- Node10 -->
<g id="node10" class="node">
<title>Node10</title>
<g id="a_node10"><a xlink:href="namespacekepler.html#a39278d07695647da0a30c3b209c7a4d7" target="_top" xlink:title=" ">
<polygon fill="white" stroke="#666666" points="391,-130 305,-130 305,-111 391,-111 391,-130"/>
<text text-anchor="middle" x="348" y="-118" font-family="Helvetica,sans-Serif" font-size="10.00">kepler::get_shift</text>
</a>
</g>
</g>
<!-- Node7&#45;&gt;Node10 -->
<g id="edge10" class="edge">
<title>Node7&#45;&gt;Node10</title>
<path fill="none" stroke="#63b8ff" d="M229.88,-92.27C249.19,-96.92 273.27,-102.73 294.57,-107.86"/>
<polygon fill="#63b8ff" stroke="#63b8ff" points="293.72,-111.26 304.27,-110.2 295.36,-104.45 293.72,-111.26"/>
</g>
<!-- Node11 -->
<g id="node11" class="node">
<title>Node11</title>
<g id="a_node11"><a xlink:href="namespacekepler.html#a381bfabdccfab574253acbb27e3d8df2" target="_top" xlink:title=" ">
<polygon fill="white" stroke="#666666" points="403,-56 293,-56 293,-37 403,-37 403,-56"/>
<text text-anchor="middle" x="348" y="-44" font-family="Helvetica,sans-Serif" font-size="10.00">kepler::get_step_size</text>
</a>
</g>
</g>
<!-- Node7&#45;&gt;Node11 -->
<g id="edge12" class="edge">
<title>Node7&#45;&gt;Node11</title>
<path fill="none" stroke="#63b8ff" d="M229.88,-74.73C249.19,-70.08 273.27,-64.27 294.57,-59.14"/>
<polygon fill="#63b8ff" stroke="#63b8ff" points="295.36,-62.55 304.27,-56.8 293.72,-55.74 295.36,-62.55"/>
</g>
<!-- Node7&#45;&gt;Node12 -->
<g id="edge13" class="edge">
<title>Node7&#45;&gt;Node12</title>
<path fill="none" stroke="#63b8ff" d="M208.51,-73.54C227.22,-61.45 260.47,-40.99 291,-27.5 294.36,-26.01 297.89,-24.59 301.46,-23.24"/>
<polygon fill="#63b8ff" stroke="#63b8ff" points="302.54,-26.57 310.79,-19.93 300.2,-19.97 302.54,-26.57"/>
</g>
<!-- Node9 -->
<g id="node9" class="node">
<title>Node9</title>
<g id="a_node9"><a xlink:href="namespacekepler.html#a7f5815983171b78737f0e166e9d89fba" target="_top" xlink:title=" ">
<polygon fill="white" stroke="#666666" points="544.5,-93 456.5,-93 456.5,-74 544.5,-74 544.5,-93"/>
<text text-anchor="middle" x="500.5" y="-81" font-family="Helvetica,sans-Serif" font-size="10.00">kepler::vec_size</text>
</a>
</g>
</g>
<!-- Node8&#45;&gt;Node9 -->
<g id="edge9" class="edge">
<title>Node8&#45;&gt;Node9</title>
<path fill="none" stroke="#63b8ff" d="M405.47,-83.5C418.37,-83.5 432.05,-83.5 444.88,-83.5"/>
<polygon fill="#63b8ff" stroke="#63b8ff" points="444.85,-87 454.85,-83.5 444.84,-80 444.85,-87"/>
</g>
<!-- Node10&#45;&gt;Node5 -->
<g id="edge11" class="edge">
<title>Node10&#45;&gt;Node5</title>
<path fill="none" stroke="#63b8ff" d="M391.32,-129.78C403.28,-132.4 416.61,-135.33 429.73,-138.2"/>
<polygon fill="#63b8ff" stroke="#63b8ff" points="428.66,-141.55 439.17,-140.27 430.16,-134.71 428.66,-141.55"/>
</g>
</g>
</svg>
        <g id="navigator" transform="translate(0 0)" fill="#404254">
                <rect fill="#f2f5e9" fill-opacity="0.5" stroke="#606060" stroke-width=".5" x="0" y="0" width="60" height="60"/>
                <use id="zoomplus" xlink:href="#zoomPlus" x="17" y="9" onmousedown="handleZoom(evt,'in')"/>
                <use id="zoomminus" xlink:href="#zoomMin" x="42" y="9" onmousedown="handleZoom(evt,'out')"/>
                <use id="reset" xlink:href="#resetDef" x="30" y="36" onmousedown="handleReset()"/>
                <g id="arrowUp" xlink:href="#dirArrow" transform="translate(30 24)" onmousedown="handlePan(0,-1)">
                  <use xlink:href="#rim" fill="#404040">
                        <set attributeName="fill" to="#808080" begin="arrowUp.mouseover" end="arrowUp.mouseout"/>
                  </use>
                  <path fill="none" stroke="white" stroke-width="1.5" d="M0,-3.0v7 M-2.5,-0.5L0,-3.0L2.5,-0.5"/>
                </g>
                <g id="arrowRight" xlink:href="#dirArrow" transform="rotate(90) translate(36 -43)" onmousedown="handlePan(1,0)">
                  <use xlink:href="#rim" fill="#404040">
                        <set attributeName="fill" to="#808080" begin="arrowRight.mouseover" end="arrowRight.mouseout"/>
                  </use>
                  <path fill="none" stroke="white" stroke-width="1.5" d="M0,-3.0v7 M-2.5,-0.5L0,-3.0L2.5,-0.5"/>
                </g>
                <g id="arrowDown" xlink:href="#dirArrow" transform="rotate(180) translate(-30 -48)" onmousedown="handlePan(0,1)">
                  <use xlink:href="#rim" fill="#404040">
                        <set attributeName="fill" to="#808080" begin="arrowDown.mouseover" end="arrowDown.mouseout"/>
                  </use>
                  <path fill="none" stroke="white" stroke-width="1.5" d="M0,-3.0v7 M-2.5,-0.5L0,-3.0L2.5,-0.5"/>
                </g>
                <g id="arrowLeft" xlink:href="#dirArrow" transform="rotate(270) translate(-36 17)" onmousedown="handlePan(-1,0)">
                  <use xlink:href="#rim" fill="#404040">
                        <set attributeName="fill" to="#808080" begin="arrowLeft.mouseover" end="arrowLeft.mouseout"/>
                  </use>
                  <path fill="none" stroke="white" stroke-width="1.5" d="M0,-3.0v7 M-2.5,-0.5L0,-3.0L2.5,-0.5"/>
                </g>
        </g>
        <svg viewBox="0 0 15 15" width="100%" height="30px" preserveAspectRatio="xMaxYMin meet">
         <g id="arrow_out" transform="scale(0.3 0.3)">
          <a xlink:href="structkepler_1_1_circle_stile_a29677d4fd43e1db4bacaddc636efa189_cgraph_org.svg" target="_base">
           <rect id="button" ry="5" rx="5" y="6" x="6" height="38" width="38"
                fill="#f2f5e9" fill-opacity="0.5" stroke="#606060" stroke-width="1.0"/>
           <path id="arrow"
             d="M 11.500037,31.436501 C 11.940474,20.09759 22.043105,11.32322 32.158766,21.979434 L 37.068811,17.246167 C 37.068811,17.246167 37.088388,32 37.088388,32 L 22.160133,31.978069 C 22.160133,31.978069 26.997745,27.140456 26.997745,27.140456 C 18.528582,18.264221 13.291696,25.230495 11.500037,31.436501 z"
             style="fill:#404040;"/>
          </a>
         </g>
        </svg>
</svg>
