<?xml version="1.0" encoding="UTF-8" standalone="no"?>
<!DOCTYPE svg PUBLIC "-//W3C//DTD SVG 1.1//EN"
 "http://www.w3.org/Graphics/SVG/1.1/DTD/svg11.dtd">
<!-- Generated by graphviz version 7.1.0 (20230121.1956)
 -->
<!-- Title: kepler::CircleBar::operator() Pages: 1 -->
<svg width="535pt" height="175pt"
 viewBox="0.00 0.00 535.00 175.00" xmlns="http://www.w3.org/2000/svg" xmlns:xlink="http://www.w3.org/1999/xlink">
<g id="graph0" class="graph" transform="scale(1 1) rotate(0) translate(4 171)">
<title>kepler::CircleBar::operator()</title>
<!-- Node1 -->
<g id="node1" class="node">
<title>Node1</title>
<g id="a_node1"><a xlink:title=" ">
<polygon fill="#999999" stroke="#666666" points="95,-98.5 0,-98.5 0,-68.5 95,-68.5 95,-98.5"/>
<text text-anchor="start" x="8" y="-86.5" font-family="Helvetica,sans-Serif" font-size="10.00">kepler::CircleBar::</text>
<text text-anchor="middle" x="47.5" y="-75.5" font-family="Helvetica,sans-Serif" font-size="10.00">operator()</text>
</a>
</g>
</g>
<!-- Node2 -->
<g id="node2" class="node">
<title>Node2</title>
<g id="a_node2"><a xlink:href="structkepler_1_1_array.html#a31e9d1137447bf3402d6278c41569f5e" target="_top" xlink:title=" ">
<polygon fill="white" stroke="#666666" points="250,-135.5 131,-135.5 131,-105.5 250,-105.5 250,-135.5"/>
<text text-anchor="start" x="139" y="-123.5" font-family="Helvetica,sans-Serif" font-size="10.00">kepler::Array::is_simple</text>
<text text-anchor="middle" x="190.5" y="-112.5" font-family="Helvetica,sans-Serif" font-size="10.00">_scalar</text>
</a>
</g>
</g>
<!-- Node1&#45;&gt;Node2 -->
<g id="edge1" class="edge">
<title>Node1&#45;&gt;Node2</title>
<path fill="none" stroke="#63b8ff" d="M95.45,-95.82C103.22,-97.86 111.41,-100.01 119.6,-102.16"/>
<polygon fill="#63b8ff" stroke="#63b8ff" points="118.69,-105.54 129.25,-104.69 120.47,-98.77 118.69,-105.54"/>
</g>
<!-- Node5 -->
<g id="node5" class="node">
<title>Node5</title>
<g id="a_node5"><a xlink:href="namespacekepler.html#a5d53d8d215c23865190574f886dd4484" target="_top" xlink:title=" ">
<polygon fill="white" stroke="#666666" points="231,-72 150,-72 150,-53 231,-53 231,-72"/>
<text text-anchor="middle" x="190.5" y="-60" font-family="Helvetica,sans-Serif" font-size="10.00">kepler::reverse</text>
</a>
</g>
</g>
<!-- Node1&#45;&gt;Node5 -->
<g id="edge4" class="edge">
<title>Node1&#45;&gt;Node5</title>
<path fill="none" stroke="#63b8ff" d="M95.45,-76.51C109.36,-74.44 124.65,-72.16 138.78,-70.05"/>
<polygon fill="#63b8ff" stroke="#63b8ff" points="138.95,-73.57 148.32,-68.63 137.92,-66.64 138.95,-73.57"/>
</g>
<!-- Node3 -->
<g id="node3" class="node">
<title>Node3</title>
<g id="a_node3"><a xlink:href="structkepler_1_1_array.html#a9d4e4ca37cd263142d76ca0a56346991" target="_top" xlink:title=" ">
<polygon fill="white" stroke="#666666" points="397,-167 292,-167 292,-148 397,-148 397,-167"/>
<text text-anchor="middle" x="344.5" y="-155" font-family="Helvetica,sans-Serif" font-size="10.00">kepler::Array::empty</text>
</a>
</g>
</g>
<!-- Node2&#45;&gt;Node3 -->
<g id="edge2" class="edge">
<title>Node2&#45;&gt;Node3</title>
<path fill="none" stroke="#63b8ff" d="M250.27,-134.81C263.97,-138.14 278.47,-141.67 291.84,-144.92"/>
<polygon fill="#63b8ff" stroke="#63b8ff" points="290.75,-148.26 301.29,-147.23 292.41,-141.46 290.75,-148.26"/>
</g>
<!-- Node4 -->
<g id="node4" class="node">
<title>Node4</title>
<g id="a_node4"><a xlink:href="structkepler_1_1_array.html#ae82484749f93ec527be3eff64ddf3d37" target="_top" xlink:title=" ">
<polygon fill="white" stroke="#666666" points="403,-130 286,-130 286,-111 403,-111 403,-130"/>
<text text-anchor="middle" x="344.5" y="-118" font-family="Helvetica,sans-Serif" font-size="10.00">kepler::Array::is_scalar</text>
</a>
</g>
</g>
<!-- Node2&#45;&gt;Node4 -->
<g id="edge3" class="edge">
<title>Node2&#45;&gt;Node4</title>
<path fill="none" stroke="#63b8ff" d="M250.27,-120.5C258.22,-120.5 266.43,-120.5 274.54,-120.5"/>
<polygon fill="#63b8ff" stroke="#63b8ff" points="274.38,-124 284.38,-120.5 274.38,-117 274.38,-124"/>
</g>
<!-- Node6 -->
<g id="node6" class="node">
<title>Node6</title>
<g id="a_node6"><a xlink:href="namespacekepler.html#ad171f0351cbb21e92ca7ea0cc0bbd317" target="_top" xlink:title=" ">
<polygon fill="white" stroke="#666666" points="401.5,-93 287.5,-93 287.5,-74 401.5,-74 401.5,-93"/>
<text text-anchor="middle" x="344.5" y="-81" font-family="Helvetica,sans-Serif" font-size="10.00">kepler::get_block_size</text>
</a>
</g>
</g>
<!-- Node5&#45;&gt;Node6 -->
<g id="edge5" class="edge">
<title>Node5&#45;&gt;Node6</title>
<path fill="none" stroke="#63b8ff" d="M231.44,-68.02C245.17,-69.91 260.94,-72.09 276.24,-74.21"/>
<polygon fill="#63b8ff" stroke="#63b8ff" points="275.37,-77.62 285.76,-75.52 276.33,-70.69 275.37,-77.62"/>
</g>
<!-- Node8 -->
<g id="node8" class="node">
<title>Node8</title>
<g id="a_node8"><a xlink:href="namespacekepler.html#a381bfabdccfab574253acbb27e3d8df2" target="_top" xlink:title=" ">
<polygon fill="white" stroke="#666666" points="399.5,-56 289.5,-56 289.5,-37 399.5,-37 399.5,-56"/>
<text text-anchor="middle" x="344.5" y="-44" font-family="Helvetica,sans-Serif" font-size="10.00">kepler::get_step_size</text>
</a>
</g>
</g>
<!-- Node5&#45;&gt;Node8 -->
<g id="edge7" class="edge">
<title>Node5&#45;&gt;Node8</title>
<path fill="none" stroke="#63b8ff" d="M231.44,-58.3C245.66,-56.8 262.08,-55.07 277.89,-53.41"/>
<polygon fill="#63b8ff" stroke="#63b8ff" points="278.17,-56.9 287.75,-52.37 277.44,-49.93 278.17,-56.9"/>
</g>
<!-- Node9 -->
<g id="node9" class="node">
<title>Node9</title>
<g id="a_node9"><a xlink:href="structkepler_1_1_array.html#a98194b5409eace27b9eae7dcac74e350" target="_top" xlink:title=" ">
<polygon fill="white" stroke="#666666" points="392.5,-19 296.5,-19 296.5,0 392.5,0 392.5,-19"/>
<text text-anchor="middle" x="344.5" y="-7" font-family="Helvetica,sans-Serif" font-size="10.00">kepler::Array::size</text>
</a>
</g>
</g>
<!-- Node5&#45;&gt;Node9 -->
<g id="edge8" class="edge">
<title>Node5&#45;&gt;Node9</title>
<path fill="none" stroke="#63b8ff" d="M218.32,-52.64C237.2,-45.75 263.09,-36.41 286,-28.5 291.33,-26.66 296.95,-24.76 302.5,-22.9"/>
<polygon fill="#63b8ff" stroke="#63b8ff" points="303.19,-26.36 311.58,-19.89 300.98,-19.72 303.19,-26.36"/>
</g>
<!-- Node7 -->
<g id="node7" class="node">
<title>Node7</title>
<g id="a_node7"><a xlink:href="namespacekepler.html#a7f5815983171b78737f0e166e9d89fba" target="_top" xlink:title=" ">
<polygon fill="white" stroke="#666666" points="527,-93 439,-93 439,-74 527,-74 527,-93"/>
<text text-anchor="middle" x="483" y="-81" font-family="Helvetica,sans-Serif" font-size="10.00">kepler::vec_size</text>
</a>
</g>
</g>
<!-- Node6&#45;&gt;Node7 -->
<g id="edge6" class="edge">
<title>Node6&#45;&gt;Node7</title>
<path fill="none" stroke="#63b8ff" d="M401.81,-83.5C410.29,-83.5 419.03,-83.5 427.47,-83.5"/>
<polygon fill="#63b8ff" stroke="#63b8ff" points="427.24,-87 437.24,-83.5 427.24,-80 427.24,-87"/>
</g>
</g>
</svg>
