<?xml version="1.0" encoding="UTF-8" standalone="no"?>
<!DOCTYPE svg PUBLIC "-//W3C//DTD SVG 1.1//EN"
 "http://www.w3.org/Graphics/SVG/1.1/DTD/svg11.dtd">
<!-- Generated by graphviz version 7.1.0 (20230121.1956)
 -->
<!-- Title: kepler::Variable Pages: 1 -->
<svg width="381pt" height="624pt"
 viewBox="0.00 0.00 381.44 624.00" xmlns="http://www.w3.org/2000/svg" xmlns:xlink="http://www.w3.org/1999/xlink">
<g id="graph0" class="graph" transform="scale(1 1) rotate(0) translate(4 620)">
<title>kepler::Variable</title>
<!-- Node1 -->
<g id="node1" class="node">
<title>Node1</title>
<g id="a_node1"><a xlink:title=" ">
<polygon fill="#999999" stroke="#666666" points="84.44,-0.5 84.44,-101.5 218.44,-101.5 218.44,-0.5 84.44,-0.5"/>
<text text-anchor="middle" x="151.44" y="-89.5" font-family="Helvetica,sans-Serif" font-size="10.00">kepler::Variable</text>
<polyline fill="none" stroke="#666666" points="84.44,-82.5 218.44,-82.5"/>
<text text-anchor="middle" x="151.44" y="-70.5" font-family="Helvetica,sans-Serif" font-size="10.00"> </text>
<polyline fill="none" stroke="#666666" points="84.44,-63.5 218.44,-63.5"/>
<text text-anchor="start" x="92.44" y="-51.5" font-family="Helvetica,sans-Serif" font-size="10.00">+ Variable(Token token_)</text>
<text text-anchor="start" x="92.44" y="-40.5" font-family="Helvetica,sans-Serif" font-size="10.00">+ std::string to_string</text>
<text text-anchor="start" x="92.44" y="-29.5" font-family="Helvetica,sans-Serif" font-size="10.00">() const override</text>
<text text-anchor="start" x="92.44" y="-18.5" font-family="Helvetica,sans-Serif" font-size="10.00">+ Array accept(NodeVisitor</text>
<text text-anchor="start" x="92.44" y="-7.5" font-family="Helvetica,sans-Serif" font-size="10.00"> &amp;visitor) override</text>
</a>
</g>
</g>
<!-- Node2 -->
<g id="node2" class="node">
<title>Node2</title>
<g id="a_node2"><a xlink:href="structkepler_1_1_a_s_t_node.html" target="_top" xlink:title=" ">
<polygon fill="white" stroke="#666666" points="11.94,-139.5 11.94,-251.5 158.94,-251.5 158.94,-139.5 11.94,-139.5"/>
<text text-anchor="middle" x="85.44" y="-239.5" font-family="Helvetica,sans-Serif" font-size="10.00">kepler::ASTNode&lt; Array &gt;</text>
<polyline fill="none" stroke="#666666" points="11.94,-232.5 158.94,-232.5"/>
<text text-anchor="middle" x="85.44" y="-220.5" font-family="Helvetica,sans-Serif" font-size="10.00"> </text>
<polyline fill="none" stroke="#666666" points="11.94,-213.5 158.94,-213.5"/>
<text text-anchor="start" x="19.94" y="-201.5" font-family="Helvetica,sans-Serif" font-size="10.00">+ virtual ~ASTNode()</text>
<text text-anchor="start" x="19.94" y="-190.5" font-family="Helvetica,sans-Serif" font-size="10.00">=default</text>
<text text-anchor="start" x="19.94" y="-179.5" font-family="Helvetica,sans-Serif" font-size="10.00">+ virtual Array accept</text>
<text text-anchor="start" x="19.94" y="-168.5" font-family="Helvetica,sans-Serif" font-size="10.00">(class NodeVisitor &amp;visitor)=0</text>
<text text-anchor="start" x="19.94" y="-157.5" font-family="Helvetica,sans-Serif" font-size="10.00">+ virtual std::string</text>
<text text-anchor="start" x="19.94" y="-146.5" font-family="Helvetica,sans-Serif" font-size="10.00"> to_string() const=0</text>
</a>
</g>
</g>
<!-- Node2&#45;&gt;Node1 -->
<g id="edge1" class="edge">
<title>Node2&#45;&gt;Node1</title>
<path fill="none" stroke="#63b8ff" d="M115.52,-129.56C119.94,-120.02 124.43,-110.33 128.67,-101.18"/>
<polygon fill="none" stroke="#63b8ff" points="112.44,-127.89 111.41,-138.44 118.79,-130.84 112.44,-127.89"/>
</g>
<!-- Node3 -->
<g id="node3" class="node">
<title>Node3</title>
<g id="a_node3"><a xlink:href="structkepler_1_1position.html" target="_top" xlink:title=" ">
<polygon fill="white" stroke="#666666" points="25.44,-503.5 25.44,-615.5 145.44,-615.5 145.44,-503.5 25.44,-503.5"/>
<text text-anchor="middle" x="85.44" y="-603.5" font-family="Helvetica,sans-Serif" font-size="10.00">kepler::position</text>
<polyline fill="none" stroke="#666666" points="25.44,-596.5 145.44,-596.5"/>
<text text-anchor="middle" x="85.44" y="-584.5" font-family="Helvetica,sans-Serif" font-size="10.00"> </text>
<polyline fill="none" stroke="#666666" points="25.44,-577.5 145.44,-577.5"/>
<text text-anchor="start" x="33.44" y="-565.5" font-family="Helvetica,sans-Serif" font-size="10.00">+ position()</text>
<text text-anchor="start" x="33.44" y="-554.5" font-family="Helvetica,sans-Serif" font-size="10.00">+ position(long pos_)</text>
<text text-anchor="start" x="33.44" y="-543.5" font-family="Helvetica,sans-Serif" font-size="10.00">+ void set_position(long</text>
<text text-anchor="start" x="33.44" y="-532.5" font-family="Helvetica,sans-Serif" font-size="10.00"> new_pos)</text>
<text text-anchor="start" x="33.44" y="-521.5" font-family="Helvetica,sans-Serif" font-size="10.00">+ long get_position()</text>
<text text-anchor="start" x="33.44" y="-510.5" font-family="Helvetica,sans-Serif" font-size="10.00"> const</text>
</a>
</g>
</g>
<!-- Node3&#45;&gt;Node2 -->
<g id="edge2" class="edge">
<title>Node3&#45;&gt;Node2</title>
<path fill="none" stroke="#63b8ff" d="M33.22,-494.2C25.91,-482.14 19.51,-469.16 15.44,-456 -5.15,-389.33 -5.15,-365.67 15.44,-299 20.6,-282.32 29.5,-265.94 39.26,-251.33"/>
<polygon fill="none" stroke="#63b8ff" points="30.12,-495.84 38.44,-502.39 36.02,-492.08 30.12,-495.84"/>
</g>
<!-- Node4 -->
<g id="node4" class="node">
<title>Node4</title>
<g id="a_node4"><a xlink:href="structkepler_1_1_a_s_t_node.html" target="_top" xlink:title=" ">
<polygon fill="white" stroke="#666666" points="24.94,-321.5 24.94,-433.5 145.94,-433.5 145.94,-321.5 24.94,-321.5"/>
<text text-anchor="middle" x="85.44" y="-421.5" font-family="Helvetica,sans-Serif" font-size="10.00">kepler::ASTNode&lt; T &gt;</text>
<polyline fill="none" stroke="#666666" points="24.94,-414.5 145.94,-414.5"/>
<text text-anchor="middle" x="85.44" y="-402.5" font-family="Helvetica,sans-Serif" font-size="10.00"> </text>
<polyline fill="none" stroke="#666666" points="24.94,-395.5 145.94,-395.5"/>
<text text-anchor="start" x="32.94" y="-383.5" font-family="Helvetica,sans-Serif" font-size="10.00">+ virtual ~ASTNode()</text>
<text text-anchor="start" x="32.94" y="-372.5" font-family="Helvetica,sans-Serif" font-size="10.00">=default</text>
<text text-anchor="start" x="32.94" y="-361.5" font-family="Helvetica,sans-Serif" font-size="10.00">+ virtual T accept(class</text>
<text text-anchor="start" x="32.94" y="-350.5" font-family="Helvetica,sans-Serif" font-size="10.00"> NodeVisitor &amp;visitor)=0</text>
<text text-anchor="start" x="32.94" y="-339.5" font-family="Helvetica,sans-Serif" font-size="10.00">+ virtual std::string</text>
<text text-anchor="start" x="32.94" y="-328.5" font-family="Helvetica,sans-Serif" font-size="10.00"> to_string() const =0</text>
</a>
</g>
</g>
<!-- Node3&#45;&gt;Node4 -->
<g id="edge4" class="edge">
<title>Node3&#45;&gt;Node4</title>
<path fill="none" stroke="#63b8ff" d="M85.44,-492.06C85.44,-472.78 85.44,-451.95 85.44,-433.46"/>
<polygon fill="none" stroke="#63b8ff" points="81.95,-492 85.44,-502 88.95,-492 81.95,-492"/>
</g>
<!-- Node5 -->
<g id="node5" class="node">
<title>Node5</title>
<g id="a_node5"><a xlink:href="structkepler_1_1_token.html" target="_top" xlink:title=" ">
<polygon fill="white" stroke="#666666" points="164.44,-299.5 164.44,-455.5 316.44,-455.5 316.44,-299.5 164.44,-299.5"/>
<text text-anchor="middle" x="240.44" y="-443.5" font-family="Helvetica,sans-Serif" font-size="10.00">kepler::Token</text>
<polyline fill="none" stroke="#666666" points="164.44,-436.5 316.44,-436.5"/>
<text text-anchor="middle" x="240.44" y="-424.5" font-family="Helvetica,sans-Serif" font-size="10.00"> </text>
<polyline fill="none" stroke="#666666" points="164.44,-417.5 316.44,-417.5"/>
<text text-anchor="start" x="172.44" y="-405.5" font-family="Helvetica,sans-Serif" font-size="10.00">+ Token(long pos, TokenType</text>
<text text-anchor="start" x="172.44" y="-394.5" font-family="Helvetica,sans-Serif" font-size="10.00"> type_, Char content_)</text>
<text text-anchor="start" x="172.44" y="-383.5" font-family="Helvetica,sans-Serif" font-size="10.00">+ Token(long pos, TokenType</text>
<text text-anchor="start" x="172.44" y="-372.5" font-family="Helvetica,sans-Serif" font-size="10.00"> type_, std::u32string content_)</text>
<text text-anchor="start" x="172.44" y="-361.5" font-family="Helvetica,sans-Serif" font-size="10.00">+ Token(TokenType type</text>
<text text-anchor="start" x="172.44" y="-350.5" font-family="Helvetica,sans-Serif" font-size="10.00">_, std::u32string content_)</text>
<text text-anchor="start" x="172.44" y="-339.5" font-family="Helvetica,sans-Serif" font-size="10.00">+ Token(long pos, TokenType</text>
<text text-anchor="start" x="172.44" y="-328.5" font-family="Helvetica,sans-Serif" font-size="10.00"> type_)</text>
<text text-anchor="start" x="172.44" y="-317.5" font-family="Helvetica,sans-Serif" font-size="10.00">+ std::string to_string</text>
<text text-anchor="start" x="172.44" y="-306.5" font-family="Helvetica,sans-Serif" font-size="10.00">() const</text>
</a>
</g>
</g>
<!-- Node3&#45;&gt;Node5 -->
<g id="edge6" class="edge">
<title>Node3&#45;&gt;Node5</title>
<path fill="none" stroke="#63b8ff" d="M140.28,-494.81C151.28,-482.05 162.94,-468.5 174.27,-455.35"/>
<polygon fill="none" stroke="#63b8ff" points="137.65,-492.51 133.78,-502.37 142.96,-497.08 137.65,-492.51"/>
</g>
<!-- Node4&#45;&gt;Node2 -->
<g id="edge3" class="edge">
<title>Node4&#45;&gt;Node2</title>
<path fill="none" stroke="orange" d="M85.44,-310.06C85.44,-290.78 85.44,-269.95 85.44,-251.46"/>
<polygon fill="orange" stroke="orange" points="81.95,-310 85.44,-320 88.95,-310 81.95,-310"/>
<text text-anchor="middle" x="107.44" y="-273" font-family="Helvetica,sans-Serif" font-size="10.00"> &lt; Array &gt;</text>
</g>
<!-- Node5&#45;&gt;Node1 -->
<g id="edge5" class="edge">
<title>Node5&#45;&gt;Node1</title>
<path fill="none" stroke="#404040" d="M219.35,-299.6C203.78,-242.81 182.85,-166.51 168.37,-113.69"/>
<polygon fill="none" stroke="#404040" points="168.33,-113.57 162.89,-108.84 165.16,-102 170.6,-106.73 168.33,-113.57"/>
<text text-anchor="middle" x="223.44" y="-193" font-family="Helvetica,sans-Serif" font-size="10.00"> +token</text>
</g>
<!-- Node6 -->
<g id="node6" class="node">
<title>Node6</title>
<g id="a_node6"><a xlink:title=" ">
<polygon fill="white" stroke="#666666" points="185.44,-531 185.44,-588 249.44,-588 249.44,-531 185.44,-531"/>
<text text-anchor="middle" x="217.44" y="-576" font-family="Helvetica,sans-Serif" font-size="10.00">TokenType</text>
<polyline fill="none" stroke="#666666" points="185.44,-569 249.44,-569"/>
<text text-anchor="middle" x="217.44" y="-557" font-family="Helvetica,sans-Serif" font-size="10.00"> </text>
<polyline fill="none" stroke="#666666" points="185.44,-550 249.44,-550"/>
<text text-anchor="middle" x="217.44" y="-538" font-family="Helvetica,sans-Serif" font-size="10.00"> </text>
</a>
</g>
</g>
<!-- Node6&#45;&gt;Node5 -->
<g id="edge7" class="edge">
<title>Node6&#45;&gt;Node5</title>
<path fill="none" stroke="#404040" d="M220.94,-531.16C223.12,-514.07 226.07,-490.99 229.01,-467.95"/>
<polygon fill="none" stroke="#404040" points="229.01,-468 225.8,-461.54 230.53,-456.09 233.74,-462.55 229.01,-468"/>
<text text-anchor="middle" x="242.44" y="-477" font-family="Helvetica,sans-Serif" font-size="10.00"> +type</text>
</g>
<!-- Node7 -->
<g id="node7" class="node">
<title>Node7</title>
<g id="a_node7"><a xlink:title=" ">
<polygon fill="white" stroke="#666666" points="267.44,-525.5 267.44,-593.5 373.44,-593.5 373.44,-525.5 267.44,-525.5"/>
<text text-anchor="start" x="275.44" y="-581.5" font-family="Helvetica,sans-Serif" font-size="10.00">optional&lt; std::vector</text>
<text text-anchor="middle" x="320.44" y="-570.5" font-family="Helvetica,sans-Serif" font-size="10.00">&lt; Char &gt; &gt;</text>
<polyline fill="none" stroke="#666666" points="267.44,-563.5 373.44,-563.5"/>
<text text-anchor="middle" x="320.44" y="-551.5" font-family="Helvetica,sans-Serif" font-size="10.00"> </text>
<polyline fill="none" stroke="#666666" points="267.44,-544.5 373.44,-544.5"/>
<text text-anchor="middle" x="320.44" y="-532.5" font-family="Helvetica,sans-Serif" font-size="10.00"> </text>
</a>
</g>
</g>
<!-- Node7&#45;&gt;Node5 -->
<g id="edge8" class="edge">
<title>Node7&#45;&gt;Node5</title>
<path fill="none" stroke="#404040" d="M305.96,-525.9C298.55,-509.23 289.14,-488.06 279.77,-466.99"/>
<polygon fill="none" stroke="#404040" points="279.83,-467.12 273.74,-463.26 274.96,-456.15 281.05,-460.01 279.83,-467.12"/>
<text text-anchor="middle" x="309.44" y="-477" font-family="Helvetica,sans-Serif" font-size="10.00"> +content</text>
</g>
</g>
</svg>
