<?xml version="1.0" encoding="UTF-8" standalone="no"?>
<!DOCTYPE svg PUBLIC "-//W3C//DTD SVG 1.1//EN"
 "http://www.w3.org/Graphics/SVG/1.1/DTD/svg11.dtd">
<!-- Generated by graphviz version 7.1.0 (20230121.1956)
 -->
<!-- Title: kepler::Assignment::to_string Pages: 1 -->
<svg width="386pt" height="76pt"
 viewBox="0.00 0.00 386.00 75.50" xmlns="http://www.w3.org/2000/svg" xmlns:xlink="http://www.w3.org/1999/xlink">
<g id="graph0" class="graph" transform="scale(1 1) rotate(0) translate(4 71.5)">
<title>kepler::Assignment::to_string</title>
<!-- Node1 -->
<g id="node1" class="node">
<title>Node1</title>
<g id="a_node1"><a xlink:title=" ">
<polygon fill="#999999" stroke="#666666" points="101,-51 0,-51 0,-21 101,-21 101,-51"/>
<text text-anchor="start" x="8" y="-39" font-family="Helvetica,sans-Serif" font-size="10.00">kepler::Assignment</text>
<text text-anchor="middle" x="50.5" y="-28" font-family="Helvetica,sans-Serif" font-size="10.00">::to_string</text>
</a>
</g>
</g>
<!-- Node2 -->
<g id="node2" class="node">
<title>Node2</title>
<g id="a_node2"><a xlink:href="structkepler_1_1_token.html#aa138d51909b8ce9e3435d7ba9864e6be" target="_top" xlink:title=" ">
<polygon fill="white" stroke="#666666" points="256,-67.5 137,-67.5 137,-48.5 256,-48.5 256,-67.5"/>
<text text-anchor="middle" x="196.5" y="-55.5" font-family="Helvetica,sans-Serif" font-size="10.00">kepler::Token::to_string</text>
</a>
</g>
</g>
<!-- Node1&#45;&gt;Node2 -->
<g id="edge1" class="edge">
<title>Node1&#45;&gt;Node2</title>
<path fill="none" stroke="#63b8ff" d="M101.46,-43.63C109.19,-44.81 117.29,-46.05 125.37,-47.29"/>
<polygon fill="#63b8ff" stroke="#63b8ff" points="124.81,-50.74 135.22,-48.79 125.87,-43.82 124.81,-50.74"/>
</g>
<!-- Node4 -->
<g id="node4" class="node">
<title>Node4</title>
<g id="a_node4"><a xlink:href="structkepler_1_1_a_s_t_node.html#a0824700896d42c783deaacfde0d94ba8" target="_top" xlink:title=" ">
<polygon fill="white" stroke="#666666" points="249.5,-30 143.5,-30 143.5,0 249.5,0 249.5,-30"/>
<text text-anchor="start" x="151.5" y="-18" font-family="Helvetica,sans-Serif" font-size="10.00">kepler::ASTNode::to</text>
<text text-anchor="middle" x="196.5" y="-7" font-family="Helvetica,sans-Serif" font-size="10.00">_string</text>
</a>
</g>
</g>
<!-- Node1&#45;&gt;Node4 -->
<g id="edge3" class="edge">
<title>Node1&#45;&gt;Node4</title>
<path fill="none" stroke="#63b8ff" d="M101.46,-28.71C111.26,-27.29 121.66,-25.77 131.83,-24.28"/>
<polygon fill="#63b8ff" stroke="#63b8ff" points="132.29,-27.75 141.68,-22.85 131.28,-20.83 132.29,-27.75"/>
</g>
<!-- Node3 -->
<g id="node3" class="node">
<title>Node3</title>
<g id="a_node3"><a xlink:href="namespacekepler.html#a76d95d0e078e053088ec440c6e878ab3" target="_top" xlink:title=" ">
<polygon fill="white" stroke="#666666" points="378,-67.5 292,-67.5 292,-48.5 378,-48.5 378,-67.5"/>
<text text-anchor="middle" x="335" y="-55.5" font-family="Helvetica,sans-Serif" font-size="10.00">kepler::to_string</text>
</a>
</g>
</g>
<!-- Node2&#45;&gt;Node3 -->
<g id="edge2" class="edge">
<title>Node2&#45;&gt;Node3</title>
<path fill="none" stroke="#63b8ff" d="M256.18,-58C264.24,-58 272.48,-58 280.44,-58"/>
<polygon fill="#63b8ff" stroke="#63b8ff" points="280.34,-61.5 290.34,-58 280.34,-54.5 280.34,-61.5"/>
</g>
</g>
</svg>
