<?xml version="1.0" encoding="UTF-8" standalone="no"?>
<!DOCTYPE svg PUBLIC "-//W3C//DTD SVG 1.1//EN"
 "http://www.w3.org/Graphics/SVG/1.1/DTD/svg11.dtd">
<!-- Generated by graphviz version 7.1.0 (20230121.1956)
 -->
<!-- Title: kepler::Conditional Pages: 1 -->
<svg width="215pt" height="680pt"
 viewBox="0.00 0.00 215.00 680.00" xmlns="http://www.w3.org/2000/svg" xmlns:xlink="http://www.w3.org/1999/xlink">
<g id="graph0" class="graph" transform="scale(1 1) rotate(0) translate(4 676)">
<title>kepler::Conditional</title>
<!-- Node1 -->
<g id="node1" class="node">
<title>Node1</title>
<g id="a_node1"><a xlink:title=" ">
<polygon fill="#999999" stroke="#666666" points="6.5,-0.5 6.5,-211.5 140.5,-211.5 140.5,-0.5 6.5,-0.5"/>
<text text-anchor="middle" x="73.5" y="-199.5" font-family="Helvetica,sans-Serif" font-size="10.00">kepler::Conditional</text>
<polyline fill="none" stroke="#666666" points="6.5,-192.5 140.5,-192.5"/>
<text text-anchor="start" x="14.5" y="-180.5" font-family="Helvetica,sans-Serif" font-size="10.00">+ ASTNode&lt; Array &gt; *</text>
<text text-anchor="start" x="14.5" y="-169.5" font-family="Helvetica,sans-Serif" font-size="10.00"> condition</text>
<text text-anchor="start" x="14.5" y="-158.5" font-family="Helvetica,sans-Serif" font-size="10.00">+ ASTNode&lt; Array &gt; *</text>
<text text-anchor="start" x="14.5" y="-147.5" font-family="Helvetica,sans-Serif" font-size="10.00"> true_case</text>
<text text-anchor="start" x="14.5" y="-136.5" font-family="Helvetica,sans-Serif" font-size="10.00">+ ASTNode&lt; Array &gt; *</text>
<text text-anchor="start" x="14.5" y="-125.5" font-family="Helvetica,sans-Serif" font-size="10.00"> false_case</text>
<polyline fill="none" stroke="#666666" points="6.5,-118.5 140.5,-118.5"/>
<text text-anchor="start" x="14.5" y="-106.5" font-family="Helvetica,sans-Serif" font-size="10.00">+ ~Conditional()</text>
<text text-anchor="start" x="14.5" y="-95.5" font-family="Helvetica,sans-Serif" font-size="10.00">+ Conditional(ASTNode</text>
<text text-anchor="start" x="14.5" y="-84.5" font-family="Helvetica,sans-Serif" font-size="10.00">&lt; Array &gt; *condition,</text>
<text text-anchor="start" x="14.5" y="-73.5" font-family="Helvetica,sans-Serif" font-size="10.00"> ASTNode&lt; Array &gt; *true</text>
<text text-anchor="start" x="14.5" y="-62.5" font-family="Helvetica,sans-Serif" font-size="10.00">_case, ASTNode&lt; Array &gt;</text>
<text text-anchor="start" x="14.5" y="-51.5" font-family="Helvetica,sans-Serif" font-size="10.00"> *false_case)</text>
<text text-anchor="start" x="14.5" y="-40.5" font-family="Helvetica,sans-Serif" font-size="10.00">+ std::string to_string</text>
<text text-anchor="start" x="14.5" y="-29.5" font-family="Helvetica,sans-Serif" font-size="10.00">() const override</text>
<text text-anchor="start" x="14.5" y="-18.5" font-family="Helvetica,sans-Serif" font-size="10.00">+ Array accept(NodeVisitor</text>
<text text-anchor="start" x="14.5" y="-7.5" font-family="Helvetica,sans-Serif" font-size="10.00"> &amp;visitor) override</text>
</a>
</g>
</g>
<!-- Node2 -->
<g id="node2" class="node">
<title>Node2</title>
<g id="a_node2"><a xlink:href="structkepler_1_1_a_s_t_node.html" target="_top" xlink:title=" ">
<polygon fill="white" stroke="#666666" points="0,-249.5 0,-361.5 147,-361.5 147,-249.5 0,-249.5"/>
<text text-anchor="middle" x="73.5" y="-349.5" font-family="Helvetica,sans-Serif" font-size="10.00">kepler::ASTNode&lt; Array &gt;</text>
<polyline fill="none" stroke="#666666" points="0,-342.5 147,-342.5"/>
<text text-anchor="middle" x="73.5" y="-330.5" font-family="Helvetica,sans-Serif" font-size="10.00"> </text>
<polyline fill="none" stroke="#666666" points="0,-323.5 147,-323.5"/>
<text text-anchor="start" x="8" y="-311.5" font-family="Helvetica,sans-Serif" font-size="10.00">+ virtual ~ASTNode()</text>
<text text-anchor="start" x="8" y="-300.5" font-family="Helvetica,sans-Serif" font-size="10.00">=default</text>
<text text-anchor="start" x="8" y="-289.5" font-family="Helvetica,sans-Serif" font-size="10.00">+ virtual Array accept</text>
<text text-anchor="start" x="8" y="-278.5" font-family="Helvetica,sans-Serif" font-size="10.00">(class NodeVisitor &amp;visitor)=0</text>
<text text-anchor="start" x="8" y="-267.5" font-family="Helvetica,sans-Serif" font-size="10.00">+ virtual std::string</text>
<text text-anchor="start" x="8" y="-256.5" font-family="Helvetica,sans-Serif" font-size="10.00"> to_string() const=0</text>
</a>
</g>
</g>
<!-- Node2&#45;&gt;Node1 -->
<g id="edge1" class="edge">
<title>Node2&#45;&gt;Node1</title>
<path fill="none" stroke="#63b8ff" d="M73.5,-238.52C73.5,-229.78 73.5,-220.66 73.5,-211.48"/>
<polygon fill="none" stroke="#63b8ff" points="70,-238.23 73.5,-248.23 77,-238.23 70,-238.23"/>
</g>
<!-- Node3 -->
<g id="node3" class="node">
<title>Node3</title>
<g id="a_node3"><a xlink:href="structkepler_1_1position.html" target="_top" xlink:title=" ">
<polygon fill="white" stroke="#666666" points="9.5,-559.5 9.5,-671.5 129.5,-671.5 129.5,-559.5 9.5,-559.5"/>
<text text-anchor="middle" x="69.5" y="-659.5" font-family="Helvetica,sans-Serif" font-size="10.00">kepler::position</text>
<polyline fill="none" stroke="#666666" points="9.5,-652.5 129.5,-652.5"/>
<text text-anchor="middle" x="69.5" y="-640.5" font-family="Helvetica,sans-Serif" font-size="10.00"> </text>
<polyline fill="none" stroke="#666666" points="9.5,-633.5 129.5,-633.5"/>
<text text-anchor="start" x="17.5" y="-621.5" font-family="Helvetica,sans-Serif" font-size="10.00">+ position()</text>
<text text-anchor="start" x="17.5" y="-610.5" font-family="Helvetica,sans-Serif" font-size="10.00">+ position(long pos_)</text>
<text text-anchor="start" x="17.5" y="-599.5" font-family="Helvetica,sans-Serif" font-size="10.00">+ void set_position(long</text>
<text text-anchor="start" x="17.5" y="-588.5" font-family="Helvetica,sans-Serif" font-size="10.00"> new_pos)</text>
<text text-anchor="start" x="17.5" y="-577.5" font-family="Helvetica,sans-Serif" font-size="10.00">+ long get_position()</text>
<text text-anchor="start" x="17.5" y="-566.5" font-family="Helvetica,sans-Serif" font-size="10.00"> const</text>
</a>
</g>
</g>
<!-- Node3&#45;&gt;Node2 -->
<g id="edge2" class="edge">
<title>Node3&#45;&gt;Node2</title>
<path fill="none" stroke="#63b8ff" d="M70.36,-548.61C71.08,-492.86 72.11,-413.89 72.79,-361.48"/>
<polygon fill="none" stroke="#63b8ff" points="66.86,-548.23 70.23,-558.28 73.86,-548.32 66.86,-548.23"/>
</g>
<!-- Node4 -->
<g id="node4" class="node">
<title>Node4</title>
<g id="a_node4"><a xlink:href="structkepler_1_1_a_s_t_node.html" target="_top" xlink:title=" ">
<polygon fill="white" stroke="#666666" points="86,-409.5 86,-521.5 207,-521.5 207,-409.5 86,-409.5"/>
<text text-anchor="middle" x="146.5" y="-509.5" font-family="Helvetica,sans-Serif" font-size="10.00">kepler::ASTNode&lt; T &gt;</text>
<polyline fill="none" stroke="#666666" points="86,-502.5 207,-502.5"/>
<text text-anchor="middle" x="146.5" y="-490.5" font-family="Helvetica,sans-Serif" font-size="10.00"> </text>
<polyline fill="none" stroke="#666666" points="86,-483.5 207,-483.5"/>
<text text-anchor="start" x="94" y="-471.5" font-family="Helvetica,sans-Serif" font-size="10.00">+ virtual ~ASTNode()</text>
<text text-anchor="start" x="94" y="-460.5" font-family="Helvetica,sans-Serif" font-size="10.00">=default</text>
<text text-anchor="start" x="94" y="-449.5" font-family="Helvetica,sans-Serif" font-size="10.00">+ virtual T accept(class</text>
<text text-anchor="start" x="94" y="-438.5" font-family="Helvetica,sans-Serif" font-size="10.00"> NodeVisitor &amp;visitor)=0</text>
<text text-anchor="start" x="94" y="-427.5" font-family="Helvetica,sans-Serif" font-size="10.00">+ virtual std::string</text>
<text text-anchor="start" x="94" y="-416.5" font-family="Helvetica,sans-Serif" font-size="10.00"> to_string() const =0</text>
</a>
</g>
</g>
<!-- Node3&#45;&gt;Node4 -->
<g id="edge4" class="edge">
<title>Node3&#45;&gt;Node4</title>
<path fill="none" stroke="#63b8ff" d="M103.21,-549.7C108.11,-540.28 113.12,-530.66 117.91,-521.46"/>
<polygon fill="none" stroke="#63b8ff" points="100.16,-547.98 98.65,-558.47 106.37,-551.21 100.16,-547.98"/>
</g>
<!-- Node4&#45;&gt;Node2 -->
<g id="edge3" class="edge">
<title>Node4&#45;&gt;Node2</title>
<path fill="none" stroke="orange" d="M116.36,-399.28C110.56,-386.72 104.54,-373.68 98.91,-361.49"/>
<polygon fill="orange" stroke="orange" points="113.17,-400.7 120.54,-408.31 119.52,-397.76 113.17,-400.7"/>
<text text-anchor="middle" x="133.5" y="-383" font-family="Helvetica,sans-Serif" font-size="10.00"> &lt; Array &gt;</text>
</g>
</g>
</svg>
