<?xml version="1.0" encoding="UTF-8" standalone="no"?>
<!DOCTYPE svg PUBLIC "-//W3C//DTD SVG 1.1//EN"
 "http://www.w3.org/Graphics/SVG/1.1/DTD/svg11.dtd">
<!-- Generated by graphviz version 7.1.0 (20230121.1956)
 -->
<!-- Title: kepler::FunctionAssignment Pages: 1 -->
<svg width="497pt" height="700pt"
 viewBox="0.00 0.00 496.50 700.00" xmlns="http://www.w3.org/2000/svg" xmlns:xlink="http://www.w3.org/1999/xlink">
<g id="graph0" class="graph" transform="scale(1 1) rotate(0) translate(4 696)">
<title>kepler::FunctionAssignment</title>
<!-- Node1 -->
<g id="node1" class="node">
<title>Node1</title>
<g id="a_node1"><a xlink:title=" ">
<polygon fill="#999999" stroke="#666666" points="165.5,-0.5 165.5,-145.5 303.5,-145.5 303.5,-0.5 165.5,-0.5"/>
<text text-anchor="middle" x="234.5" y="-133.5" font-family="Helvetica,sans-Serif" font-size="10.00">kepler::FunctionAssignment</text>
<polyline fill="none" stroke="#666666" points="165.5,-126.5 303.5,-126.5"/>
<text text-anchor="middle" x="234.5" y="-114.5" font-family="Helvetica,sans-Serif" font-size="10.00"> </text>
<polyline fill="none" stroke="#666666" points="165.5,-107.5 303.5,-107.5"/>
<text text-anchor="start" x="173.5" y="-95.5" font-family="Helvetica,sans-Serif" font-size="10.00">+ ~FunctionAssignment</text>
<text text-anchor="start" x="173.5" y="-84.5" font-family="Helvetica,sans-Serif" font-size="10.00">() override</text>
<text text-anchor="start" x="173.5" y="-73.5" font-family="Helvetica,sans-Serif" font-size="10.00">+ FunctionAssignment</text>
<text text-anchor="start" x="173.5" y="-62.5" font-family="Helvetica,sans-Serif" font-size="10.00">(Token identifier, ASTNode</text>
<text text-anchor="start" x="173.5" y="-51.5" font-family="Helvetica,sans-Serif" font-size="10.00">&lt; Operation_ptr &gt; *function)</text>
<text text-anchor="start" x="173.5" y="-40.5" font-family="Helvetica,sans-Serif" font-size="10.00">+ std::string to_string</text>
<text text-anchor="start" x="173.5" y="-29.5" font-family="Helvetica,sans-Serif" font-size="10.00">() const override</text>
<text text-anchor="start" x="173.5" y="-18.5" font-family="Helvetica,sans-Serif" font-size="10.00">+ Array accept(NodeVisitor</text>
<text text-anchor="start" x="173.5" y="-7.5" font-family="Helvetica,sans-Serif" font-size="10.00"> &amp;visitor) override</text>
</a>
</g>
</g>
<!-- Node2 -->
<g id="node2" class="node">
<title>Node2</title>
<g id="a_node2"><a xlink:href="structkepler_1_1_a_s_t_node.html" target="_top" xlink:title=" ">
<polygon fill="white" stroke="#666666" points="161,-204.5 161,-316.5 308,-316.5 308,-204.5 161,-204.5"/>
<text text-anchor="middle" x="234.5" y="-304.5" font-family="Helvetica,sans-Serif" font-size="10.00">kepler::ASTNode&lt; Array &gt;</text>
<polyline fill="none" stroke="#666666" points="161,-297.5 308,-297.5"/>
<text text-anchor="middle" x="234.5" y="-285.5" font-family="Helvetica,sans-Serif" font-size="10.00"> </text>
<polyline fill="none" stroke="#666666" points="161,-278.5 308,-278.5"/>
<text text-anchor="start" x="169" y="-266.5" font-family="Helvetica,sans-Serif" font-size="10.00">+ virtual ~ASTNode()</text>
<text text-anchor="start" x="169" y="-255.5" font-family="Helvetica,sans-Serif" font-size="10.00">=default</text>
<text text-anchor="start" x="169" y="-244.5" font-family="Helvetica,sans-Serif" font-size="10.00">+ virtual Array accept</text>
<text text-anchor="start" x="169" y="-233.5" font-family="Helvetica,sans-Serif" font-size="10.00">(class NodeVisitor &amp;visitor)=0</text>
<text text-anchor="start" x="169" y="-222.5" font-family="Helvetica,sans-Serif" font-size="10.00">+ virtual std::string</text>
<text text-anchor="start" x="169" y="-211.5" font-family="Helvetica,sans-Serif" font-size="10.00"> to_string() const=0</text>
</a>
</g>
</g>
<!-- Node2&#45;&gt;Node1 -->
<g id="edge1" class="edge">
<title>Node2&#45;&gt;Node1</title>
<path fill="none" stroke="#63b8ff" d="M234.5,-193.45C234.5,-177.84 234.5,-161.13 234.5,-145.3"/>
<polygon fill="none" stroke="#63b8ff" points="231,-193.08 234.5,-203.08 238,-193.08 231,-193.08"/>
</g>
<!-- Node3 -->
<g id="node3" class="node">
<title>Node3</title>
<g id="a_node3"><a xlink:href="structkepler_1_1position.html" target="_top" xlink:title=" ">
<polygon fill="white" stroke="#666666" points="144.5,-579.5 144.5,-691.5 264.5,-691.5 264.5,-579.5 144.5,-579.5"/>
<text text-anchor="middle" x="204.5" y="-679.5" font-family="Helvetica,sans-Serif" font-size="10.00">kepler::position</text>
<polyline fill="none" stroke="#666666" points="144.5,-672.5 264.5,-672.5"/>
<text text-anchor="middle" x="204.5" y="-660.5" font-family="Helvetica,sans-Serif" font-size="10.00"> </text>
<polyline fill="none" stroke="#666666" points="144.5,-653.5 264.5,-653.5"/>
<text text-anchor="start" x="152.5" y="-641.5" font-family="Helvetica,sans-Serif" font-size="10.00">+ position()</text>
<text text-anchor="start" x="152.5" y="-630.5" font-family="Helvetica,sans-Serif" font-size="10.00">+ position(long pos_)</text>
<text text-anchor="start" x="152.5" y="-619.5" font-family="Helvetica,sans-Serif" font-size="10.00">+ void set_position(long</text>
<text text-anchor="start" x="152.5" y="-608.5" font-family="Helvetica,sans-Serif" font-size="10.00"> new_pos)</text>
<text text-anchor="start" x="152.5" y="-597.5" font-family="Helvetica,sans-Serif" font-size="10.00">+ long get_position()</text>
<text text-anchor="start" x="152.5" y="-586.5" font-family="Helvetica,sans-Serif" font-size="10.00"> const</text>
</a>
</g>
</g>
<!-- Node3&#45;&gt;Node2 -->
<g id="edge2" class="edge">
<title>Node3&#45;&gt;Node2</title>
<path fill="none" stroke="#63b8ff" d="M215.87,-568.22C217.64,-556.19 219.28,-543.74 220.5,-532 228.22,-457.51 231.75,-371.02 233.32,-316.29"/>
<polygon fill="none" stroke="#63b8ff" points="212.41,-567.67 214.37,-578.08 219.33,-568.72 212.41,-567.67"/>
</g>
<!-- Node4 -->
<g id="node4" class="node">
<title>Node4</title>
<g id="a_node4"><a xlink:href="structkepler_1_1_a_s_t_node.html" target="_top" xlink:title=" ">
<polygon fill="white" stroke="#666666" points="91,-397.5 91,-509.5 212,-509.5 212,-397.5 91,-397.5"/>
<text text-anchor="middle" x="151.5" y="-497.5" font-family="Helvetica,sans-Serif" font-size="10.00">kepler::ASTNode&lt; T &gt;</text>
<polyline fill="none" stroke="#666666" points="91,-490.5 212,-490.5"/>
<text text-anchor="middle" x="151.5" y="-478.5" font-family="Helvetica,sans-Serif" font-size="10.00"> </text>
<polyline fill="none" stroke="#666666" points="91,-471.5 212,-471.5"/>
<text text-anchor="start" x="99" y="-459.5" font-family="Helvetica,sans-Serif" font-size="10.00">+ virtual ~ASTNode()</text>
<text text-anchor="start" x="99" y="-448.5" font-family="Helvetica,sans-Serif" font-size="10.00">=default</text>
<text text-anchor="start" x="99" y="-437.5" font-family="Helvetica,sans-Serif" font-size="10.00">+ virtual T accept(class</text>
<text text-anchor="start" x="99" y="-426.5" font-family="Helvetica,sans-Serif" font-size="10.00"> NodeVisitor &amp;visitor)=0</text>
<text text-anchor="start" x="99" y="-415.5" font-family="Helvetica,sans-Serif" font-size="10.00">+ virtual std::string</text>
<text text-anchor="start" x="99" y="-404.5" font-family="Helvetica,sans-Serif" font-size="10.00"> to_string() const =0</text>
</a>
</g>
</g>
<!-- Node3&#45;&gt;Node4 -->
<g id="edge4" class="edge">
<title>Node3&#45;&gt;Node4</title>
<path fill="none" stroke="#63b8ff" d="M185.1,-568.6C179.38,-549.17 173.18,-528.12 167.68,-509.46"/>
<polygon fill="none" stroke="#63b8ff" points="181.7,-569.46 187.88,-578.06 188.42,-567.48 181.7,-569.46"/>
</g>
<!-- Node5 -->
<g id="node5" class="node">
<title>Node5</title>
<g id="a_node5"><a xlink:href="structkepler_1_1_token.html" target="_top" xlink:title=" ">
<polygon fill="white" stroke="#666666" points="268.5,-375.5 268.5,-531.5 420.5,-531.5 420.5,-375.5 268.5,-375.5"/>
<text text-anchor="middle" x="344.5" y="-519.5" font-family="Helvetica,sans-Serif" font-size="10.00">kepler::Token</text>
<polyline fill="none" stroke="#666666" points="268.5,-512.5 420.5,-512.5"/>
<text text-anchor="middle" x="344.5" y="-500.5" font-family="Helvetica,sans-Serif" font-size="10.00"> </text>
<polyline fill="none" stroke="#666666" points="268.5,-493.5 420.5,-493.5"/>
<text text-anchor="start" x="276.5" y="-481.5" font-family="Helvetica,sans-Serif" font-size="10.00">+ Token(long pos, TokenType</text>
<text text-anchor="start" x="276.5" y="-470.5" font-family="Helvetica,sans-Serif" font-size="10.00"> type_, Char content_)</text>
<text text-anchor="start" x="276.5" y="-459.5" font-family="Helvetica,sans-Serif" font-size="10.00">+ Token(long pos, TokenType</text>
<text text-anchor="start" x="276.5" y="-448.5" font-family="Helvetica,sans-Serif" font-size="10.00"> type_, std::u32string content_)</text>
<text text-anchor="start" x="276.5" y="-437.5" font-family="Helvetica,sans-Serif" font-size="10.00">+ Token(TokenType type</text>
<text text-anchor="start" x="276.5" y="-426.5" font-family="Helvetica,sans-Serif" font-size="10.00">_, std::u32string content_)</text>
<text text-anchor="start" x="276.5" y="-415.5" font-family="Helvetica,sans-Serif" font-size="10.00">+ Token(long pos, TokenType</text>
<text text-anchor="start" x="276.5" y="-404.5" font-family="Helvetica,sans-Serif" font-size="10.00"> type_)</text>
<text text-anchor="start" x="276.5" y="-393.5" font-family="Helvetica,sans-Serif" font-size="10.00">+ std::string to_string</text>
<text text-anchor="start" x="276.5" y="-382.5" font-family="Helvetica,sans-Serif" font-size="10.00">() const</text>
</a>
</g>
</g>
<!-- Node3&#45;&gt;Node5 -->
<g id="edge6" class="edge">
<title>Node3&#45;&gt;Node5</title>
<path fill="none" stroke="#63b8ff" d="M254.32,-570.45C264.17,-557.79 274.59,-544.38 284.73,-531.35"/>
<polygon fill="none" stroke="#63b8ff" points="251.57,-568.28 248.19,-578.32 257.1,-572.58 251.57,-568.28"/>
</g>
<!-- Node8 -->
<g id="node8" class="node">
<title>Node8</title>
<g id="a_node8"><a xlink:href="structkepler_1_1_a_s_t_node.html" target="_top" xlink:title=" ">
<polygon fill="white" stroke="#666666" points="0,-193.5 0,-327.5 143,-327.5 143,-193.5 0,-193.5"/>
<text text-anchor="start" x="8" y="-315.5" font-family="Helvetica,sans-Serif" font-size="10.00">kepler::ASTNode&lt; Operation</text>
<text text-anchor="middle" x="71.5" y="-304.5" font-family="Helvetica,sans-Serif" font-size="10.00">_ptr &gt;</text>
<polyline fill="none" stroke="#666666" points="0,-297.5 143,-297.5"/>
<text text-anchor="middle" x="71.5" y="-285.5" font-family="Helvetica,sans-Serif" font-size="10.00"> </text>
<polyline fill="none" stroke="#666666" points="0,-278.5 143,-278.5"/>
<text text-anchor="start" x="8" y="-266.5" font-family="Helvetica,sans-Serif" font-size="10.00">+ virtual ~ASTNode()</text>
<text text-anchor="start" x="8" y="-255.5" font-family="Helvetica,sans-Serif" font-size="10.00">=default</text>
<text text-anchor="start" x="8" y="-244.5" font-family="Helvetica,sans-Serif" font-size="10.00">+ virtual Operation_ptr</text>
<text text-anchor="start" x="8" y="-233.5" font-family="Helvetica,sans-Serif" font-size="10.00"> accept(class NodeVisitor</text>
<text text-anchor="start" x="8" y="-222.5" font-family="Helvetica,sans-Serif" font-size="10.00"> &amp;visitor)=0</text>
<text text-anchor="start" x="8" y="-211.5" font-family="Helvetica,sans-Serif" font-size="10.00">+ virtual std::string</text>
<text text-anchor="start" x="8" y="-200.5" font-family="Helvetica,sans-Serif" font-size="10.00"> to_string() const=0</text>
</a>
</g>
</g>
<!-- Node3&#45;&gt;Node8 -->
<g id="edge10" class="edge">
<title>Node3&#45;&gt;Node8</title>
<path fill="none" stroke="#63b8ff" d="M135.7,-593.4C114.57,-577.1 93.68,-556.36 81.5,-532 49.5,-468.01 52.02,-384.46 59.33,-327.24"/>
<polygon fill="none" stroke="#63b8ff" points="133.42,-596.07 143.53,-599.22 137.59,-590.45 133.42,-596.07"/>
</g>
<!-- Node4&#45;&gt;Node2 -->
<g id="edge3" class="edge">
<title>Node4&#45;&gt;Node2</title>
<path fill="none" stroke="orange" d="M167.64,-386.73C171.83,-373.03 176.8,-358.85 182.5,-346 186.9,-336.08 192.28,-325.92 197.9,-316.25"/>
<polygon fill="orange" stroke="orange" points="164.34,-385.56 164.87,-396.14 171.05,-387.53 164.34,-385.56"/>
<text text-anchor="middle" x="204.5" y="-349" font-family="Helvetica,sans-Serif" font-size="10.00"> &lt; Array &gt;</text>
</g>
<!-- Node4&#45;&gt;Node8 -->
<g id="edge11" class="edge">
<title>Node4&#45;&gt;Node8</title>
<path fill="none" stroke="orange" d="M95.69,-388.23C89.29,-378.28 83.6,-367.73 79.5,-357 75.94,-347.67 73.61,-337.47 72.12,-327.32"/>
<polygon fill="orange" stroke="orange" points="92.66,-390.01 101.17,-396.32 98.46,-386.08 92.66,-390.01"/>
<text text-anchor="middle" x="119.5" y="-349" font-family="Helvetica,sans-Serif" font-size="10.00"> &lt; Operation_ptr &gt;</text>
</g>
<!-- Node5&#45;&gt;Node1 -->
<g id="edge5" class="edge">
<title>Node5&#45;&gt;Node1</title>
<path fill="none" stroke="#404040" d="M346.01,-375.58C344.72,-322.71 338.3,-251.73 316.5,-193 311.9,-180.61 305.72,-168.28 298.81,-156.52"/>
<polygon fill="none" stroke="#404040" points="298.75,-156.41 292.2,-153.4 292.46,-146.19 299.01,-149.2 298.75,-156.41"/>
<text text-anchor="middle" x="366.5" y="-258" font-family="Helvetica,sans-Serif" font-size="10.00"> +identifier</text>
</g>
<!-- Node6 -->
<g id="node6" class="node">
<title>Node6</title>
<g id="a_node6"><a xlink:title=" ">
<polygon fill="white" stroke="#666666" points="300.5,-607 300.5,-664 364.5,-664 364.5,-607 300.5,-607"/>
<text text-anchor="middle" x="332.5" y="-652" font-family="Helvetica,sans-Serif" font-size="10.00">TokenType</text>
<polyline fill="none" stroke="#666666" points="300.5,-645 364.5,-645"/>
<text text-anchor="middle" x="332.5" y="-633" font-family="Helvetica,sans-Serif" font-size="10.00"> </text>
<polyline fill="none" stroke="#666666" points="300.5,-626 364.5,-626"/>
<text text-anchor="middle" x="332.5" y="-614" font-family="Helvetica,sans-Serif" font-size="10.00"> </text>
</a>
</g>
</g>
<!-- Node6&#45;&gt;Node5 -->
<g id="edge7" class="edge">
<title>Node6&#45;&gt;Node5</title>
<path fill="none" stroke="#404040" d="M334.32,-607.16C335.46,-590.07 337,-566.99 338.54,-543.95"/>
<polygon fill="none" stroke="#404040" points="338.53,-544.07 334.94,-537.82 339.33,-532.1 342.92,-538.35 338.53,-544.07"/>
<text text-anchor="middle" x="352.5" y="-553" font-family="Helvetica,sans-Serif" font-size="10.00"> +type</text>
</g>
<!-- Node7 -->
<g id="node7" class="node">
<title>Node7</title>
<g id="a_node7"><a xlink:title=" ">
<polygon fill="white" stroke="#666666" points="382.5,-601.5 382.5,-669.5 488.5,-669.5 488.5,-601.5 382.5,-601.5"/>
<text text-anchor="start" x="390.5" y="-657.5" font-family="Helvetica,sans-Serif" font-size="10.00">optional&lt; std::vector</text>
<text text-anchor="middle" x="435.5" y="-646.5" font-family="Helvetica,sans-Serif" font-size="10.00">&lt; Char &gt; &gt;</text>
<polyline fill="none" stroke="#666666" points="382.5,-639.5 488.5,-639.5"/>
<text text-anchor="middle" x="435.5" y="-627.5" font-family="Helvetica,sans-Serif" font-size="10.00"> </text>
<polyline fill="none" stroke="#666666" points="382.5,-620.5 488.5,-620.5"/>
<text text-anchor="middle" x="435.5" y="-608.5" font-family="Helvetica,sans-Serif" font-size="10.00"> </text>
</a>
</g>
</g>
<!-- Node7&#45;&gt;Node5 -->
<g id="edge8" class="edge">
<title>Node7&#45;&gt;Node5</title>
<path fill="none" stroke="#404040" d="M419.02,-601.9C410.55,-585.16 399.79,-563.86 389.09,-542.7"/>
<polygon fill="none" stroke="#404040" points="389.16,-542.84 382.88,-539.29 383.75,-532.13 390.02,-535.68 389.16,-542.84"/>
<text text-anchor="middle" x="419.5" y="-553" font-family="Helvetica,sans-Serif" font-size="10.00"> +content</text>
</g>
<!-- Node8&#45;&gt;Node1 -->
<g id="edge9" class="edge">
<title>Node8&#45;&gt;Node1</title>
<path fill="none" stroke="#404040" d="M129.43,-193.58C140.36,-181.13 151.92,-167.98 163.21,-155.13"/>
<polygon fill="none" stroke="#404040" points="163.27,-155.07 164.22,-147.92 171.19,-146.05 170.23,-153.2 163.27,-155.07"/>
<text text-anchor="middle" x="175.5" y="-167" font-family="Helvetica,sans-Serif" font-size="10.00"> +function</text>
</g>
</g>
</svg>
