<?xml version="1.0" encoding="UTF-8" standalone="no"?>
<!DOCTYPE svg PUBLIC "-//W3C//DTD SVG 1.1//EN"
 "http://www.w3.org/Graphics/SVG/1.1/DTD/svg11.dtd">
<!-- Generated by graphviz version 7.1.0 (20230121.1956)
 -->
<!-- Title: kepler::Statements Pages: 1 -->
<!--zoomable 954 -->
<svg id="main" version="1.1" xmlns="http://www.w3.org/2000/svg" xmlns:xlink="http://www.w3.org/1999/xlink" xml:space="preserve" onload="init(evt)">
<style type="text/css"><![CDATA[
.edge:hover path { stroke: red; }
.edge:hover polygon { stroke: red; fill: red; }
]]></style>
<script type="text/javascript"><![CDATA[
var edges = document.getElementsByTagName('g');
if (edges && edges.length) {
  for (var i=0;i<edges.length;i++) {
    if (edges[i].id.substr(0,4)=='edge') {
      edges[i].setAttribute('class','edge');
    }
  }
}
]]></script>
        <defs>
                <circle id="rim" cx="0" cy="0" r="7"/>
                <circle id="rim2" cx="0" cy="0" r="3.5"/>
                <g id="zoomPlus">
                        <use xlink:href="#rim" fill="#404040">
                                <set attributeName="fill" to="#808080" begin="zoomplus.mouseover" end="zoomplus.mouseout"/>
                        </use>
                        <path d="M-4,0h8M0,-4v8" fill="none" stroke="white" stroke-width="1.5" pointer-events="none"/>
                </g>
                <g id="zoomMin">
                        <use xlink:href="#rim" fill="#404040">
                                <set attributeName="fill" to="#808080" begin="zoomminus.mouseover" end="zoomminus.mouseout"/>
                        </use>
                        <path d="M-4,0h8" fill="none" stroke="white" stroke-width="1.5" pointer-events="none"/>
                </g>
                <g id="dirArrow">
                        <path fill="none" stroke="white" stroke-width="1.5" d="M0,-3.0v7 M-2.5,-0.5L0,-3.0L2.5,-0.5"/>
                </g>
               <g id="resetDef">
                       <use xlink:href="#rim2" fill="#404040">
                               <set attributeName="fill" to="#808080" begin="reset.mouseover" end="reset.mouseout"/>
                       </use>
               </g>
        </defs>

<script type="text/javascript">
var viewWidth = 462;
var viewHeight = 954;
var sectionId = 'dynsection-1';
</script>
<script xlink:href="svgpan.js"/>
<svg id="graph" class="graph">
<g id="viewport">
<title>kepler::Statements</title>
<!-- Node1 -->
<g id="node1" class="node">
<title>Node1</title>
<g id="a_node1"><a xlink:title=" ">
<polygon fill="#999999" stroke="#666666" points="162.5,-0.5 162.5,-145.5 296.5,-145.5 296.5,-0.5 162.5,-0.5"/>
<text text-anchor="middle" x="229.5" y="-133.5" font-family="Helvetica,sans-Serif" font-size="10.00">kepler::Statements</text>
<polyline fill="none" stroke="#666666" points="162.5,-126.5 296.5,-126.5"/>
<text text-anchor="middle" x="229.5" y="-114.5" font-family="Helvetica,sans-Serif" font-size="10.00"> </text>
<polyline fill="none" stroke="#666666" points="162.5,-107.5 296.5,-107.5"/>
<text text-anchor="start" x="170.5" y="-95.5" font-family="Helvetica,sans-Serif" font-size="10.00">+ ~Statements() override</text>
<text text-anchor="start" x="170.5" y="-84.5" font-family="Helvetica,sans-Serif" font-size="10.00">+ Statements(std::vector</text>
<text text-anchor="start" x="170.5" y="-73.5" font-family="Helvetica,sans-Serif" font-size="10.00">&lt; ASTNode&lt; Array &gt; * &gt;</text>
<text text-anchor="start" x="170.5" y="-62.5" font-family="Helvetica,sans-Serif" font-size="10.00"> children_, SymbolTable</text>
<text text-anchor="start" x="170.5" y="-51.5" font-family="Helvetica,sans-Serif" font-size="10.00"> *symbol_table)</text>
<text text-anchor="start" x="170.5" y="-40.5" font-family="Helvetica,sans-Serif" font-size="10.00">+ std::string to_string</text>
<text text-anchor="start" x="170.5" y="-29.5" font-family="Helvetica,sans-Serif" font-size="10.00">() const override</text>
<text text-anchor="start" x="170.5" y="-18.5" font-family="Helvetica,sans-Serif" font-size="10.00">+ Array accept(NodeVisitor</text>
<text text-anchor="start" x="170.5" y="-7.5" font-family="Helvetica,sans-Serif" font-size="10.00"> &amp;visitor) override</text>
</a>
</g>
</g>
<!-- Node2 -->
<g id="node2" class="node">
<title>Node2</title>
<g id="a_node2"><a xlink:href="structkepler_1_1_a_s_t_node.html" target="_top" xlink:title=" ">
<polygon fill="white" stroke="#666666" points="0,-358.5 0,-470.5 147,-470.5 147,-358.5 0,-358.5"/>
<text text-anchor="middle" x="73.5" y="-458.5" font-family="Helvetica,sans-Serif" font-size="10.00">kepler::ASTNode&lt; Array &gt;</text>
<polyline fill="none" stroke="#666666" points="0,-451.5 147,-451.5"/>
<text text-anchor="middle" x="73.5" y="-439.5" font-family="Helvetica,sans-Serif" font-size="10.00"> </text>
<polyline fill="none" stroke="#666666" points="0,-432.5 147,-432.5"/>
<text text-anchor="start" x="8" y="-420.5" font-family="Helvetica,sans-Serif" font-size="10.00">+ virtual ~ASTNode()</text>
<text text-anchor="start" x="8" y="-409.5" font-family="Helvetica,sans-Serif" font-size="10.00">=default</text>
<text text-anchor="start" x="8" y="-398.5" font-family="Helvetica,sans-Serif" font-size="10.00">+ virtual Array accept</text>
<text text-anchor="start" x="8" y="-387.5" font-family="Helvetica,sans-Serif" font-size="10.00">(class NodeVisitor &amp;visitor)=0</text>
<text text-anchor="start" x="8" y="-376.5" font-family="Helvetica,sans-Serif" font-size="10.00">+ virtual std::string</text>
<text text-anchor="start" x="8" y="-365.5" font-family="Helvetica,sans-Serif" font-size="10.00"> to_string() const=0</text>
</a>
</g>
</g>
<!-- Node2&#45;&gt;Node1 -->
<g id="edge1" class="edge">
<title>Node2&#45;&gt;Node1</title>
<path fill="none" stroke="#63b8ff" d="M94.45,-348.12C109.62,-303.51 131.75,-243.57 156.5,-193 164.22,-177.22 173.43,-160.83 182.65,-145.44"/>
<polygon fill="none" stroke="#63b8ff" points="91.2,-346.8 91.32,-357.39 97.83,-349.04 91.2,-346.8"/>
</g>
<!-- Node3 -->
<g id="node3" class="node">
<title>Node3</title>
<g id="a_node3"><a xlink:href="structkepler_1_1position.html" target="_top" xlink:title=" ">
<polygon fill="white" stroke="#666666" points="9.5,-833.5 9.5,-945.5 129.5,-945.5 129.5,-833.5 9.5,-833.5"/>
<text text-anchor="middle" x="69.5" y="-933.5" font-family="Helvetica,sans-Serif" font-size="10.00">kepler::position</text>
<polyline fill="none" stroke="#666666" points="9.5,-926.5 129.5,-926.5"/>
<text text-anchor="middle" x="69.5" y="-914.5" font-family="Helvetica,sans-Serif" font-size="10.00"> </text>
<polyline fill="none" stroke="#666666" points="9.5,-907.5 129.5,-907.5"/>
<text text-anchor="start" x="17.5" y="-895.5" font-family="Helvetica,sans-Serif" font-size="10.00">+ position()</text>
<text text-anchor="start" x="17.5" y="-884.5" font-family="Helvetica,sans-Serif" font-size="10.00">+ position(long pos_)</text>
<text text-anchor="start" x="17.5" y="-873.5" font-family="Helvetica,sans-Serif" font-size="10.00">+ void set_position(long</text>
<text text-anchor="start" x="17.5" y="-862.5" font-family="Helvetica,sans-Serif" font-size="10.00"> new_pos)</text>
<text text-anchor="start" x="17.5" y="-851.5" font-family="Helvetica,sans-Serif" font-size="10.00">+ long get_position()</text>
<text text-anchor="start" x="17.5" y="-840.5" font-family="Helvetica,sans-Serif" font-size="10.00"> const</text>
</a>
</g>
</g>
<!-- Node3&#45;&gt;Node2 -->
<g id="edge2" class="edge">
<title>Node3&#45;&gt;Node2</title>
<path fill="none" stroke="#63b8ff" d="M70.06,-822.43C70.85,-728.46 72.3,-557.92 73.04,-470.46"/>
<polygon fill="none" stroke="#63b8ff" points="66.56,-822.24 69.98,-832.27 73.56,-822.3 66.56,-822.24"/>
</g>
<!-- Node4 -->
<g id="node4" class="node">
<title>Node4</title>
<g id="a_node4"><a xlink:href="structkepler_1_1_a_s_t_node.html" target="_top" xlink:title=" ">
<polygon fill="white" stroke="#666666" points="86,-683.5 86,-795.5 207,-795.5 207,-683.5 86,-683.5"/>
<text text-anchor="middle" x="146.5" y="-783.5" font-family="Helvetica,sans-Serif" font-size="10.00">kepler::ASTNode&lt; T &gt;</text>
<polyline fill="none" stroke="#666666" points="86,-776.5 207,-776.5"/>
<text text-anchor="middle" x="146.5" y="-764.5" font-family="Helvetica,sans-Serif" font-size="10.00"> </text>
<polyline fill="none" stroke="#666666" points="86,-757.5 207,-757.5"/>
<text text-anchor="start" x="94" y="-745.5" font-family="Helvetica,sans-Serif" font-size="10.00">+ virtual ~ASTNode()</text>
<text text-anchor="start" x="94" y="-734.5" font-family="Helvetica,sans-Serif" font-size="10.00">=default</text>
<text text-anchor="start" x="94" y="-723.5" font-family="Helvetica,sans-Serif" font-size="10.00">+ virtual T accept(class</text>
<text text-anchor="start" x="94" y="-712.5" font-family="Helvetica,sans-Serif" font-size="10.00"> NodeVisitor &amp;visitor)=0</text>
<text text-anchor="start" x="94" y="-701.5" font-family="Helvetica,sans-Serif" font-size="10.00">+ virtual std::string</text>
<text text-anchor="start" x="94" y="-690.5" font-family="Helvetica,sans-Serif" font-size="10.00"> to_string() const =0</text>
</a>
</g>
</g>
<!-- Node3&#45;&gt;Node4 -->
<g id="edge4" class="edge">
<title>Node3&#45;&gt;Node4</title>
<path fill="none" stroke="#63b8ff" d="M103.21,-823.7C108.11,-814.28 113.12,-804.66 117.91,-795.46"/>
<polygon fill="none" stroke="#63b8ff" points="100.16,-821.98 98.65,-832.47 106.37,-825.21 100.16,-821.98"/>
</g>
<!-- Node4&#45;&gt;Node2 -->
<g id="edge3" class="edge">
<title>Node4&#45;&gt;Node2</title>
<path fill="none" stroke="orange" d="M131.59,-672.53C118.12,-612.91 98.51,-526.17 85.88,-470.29"/>
<polygon fill="orange" stroke="orange" points="128.16,-673.25 133.78,-682.23 134.99,-671.71 128.16,-673.25"/>
<text text-anchor="middle" x="151.5" y="-657" font-family="Helvetica,sans-Serif" font-size="10.00"> &lt; Array &gt;</text>
</g>
<!-- Node5 -->
<g id="node5" class="node">
<title>Node5</title>
<g id="a_node5"><a xlink:title=" ">
<polygon fill="white" stroke="#666666" points="165.5,-380.5 165.5,-448.5 293.5,-448.5 293.5,-380.5 165.5,-380.5"/>
<text text-anchor="start" x="173.5" y="-436.5" font-family="Helvetica,sans-Serif" font-size="10.00">vector&lt; kepler::ASTNode</text>
<text text-anchor="middle" x="229.5" y="-425.5" font-family="Helvetica,sans-Serif" font-size="10.00">&lt; kepler::Array &gt; * &gt;</text>
<polyline fill="none" stroke="#666666" points="165.5,-418.5 293.5,-418.5"/>
<text text-anchor="middle" x="229.5" y="-406.5" font-family="Helvetica,sans-Serif" font-size="10.00"> </text>
<polyline fill="none" stroke="#666666" points="165.5,-399.5 293.5,-399.5"/>
<text text-anchor="middle" x="229.5" y="-387.5" font-family="Helvetica,sans-Serif" font-size="10.00"> </text>
</a>
</g>
</g>
<!-- Node5&#45;&gt;Node1 -->
<g id="edge5" class="edge">
<title>Node5&#45;&gt;Node1</title>
<path fill="none" stroke="#404040" d="M229.5,-380.64C229.5,-329.62 229.5,-229.75 229.5,-157.83"/>
<polygon fill="none" stroke="#404040" points="229.5,-158.09 225.5,-152.09 229.5,-146.09 233.5,-152.09 229.5,-158.09"/>
<text text-anchor="middle" x="251" y="-167" font-family="Helvetica,sans-Serif" font-size="10.00"> +children</text>
</g>
<!-- Node6 -->
<g id="node6" class="node">
<title>Node6</title>
<g id="a_node6"><a xlink:href="classkepler_1_1_symbol_table.html" target="_top" xlink:title=" ">
<polygon fill="white" stroke="#666666" points="311.5,-193.5 311.5,-635.5 453.5,-635.5 453.5,-193.5 311.5,-193.5"/>
<text text-anchor="middle" x="382.5" y="-623.5" font-family="Helvetica,sans-Serif" font-size="10.00">kepler::SymbolTable</text>
<polyline fill="none" stroke="#666666" points="311.5,-616.5 453.5,-616.5"/>
<text text-anchor="middle" x="382.5" y="-604.5" font-family="Helvetica,sans-Serif" font-size="10.00"> </text>
<polyline fill="none" stroke="#666666" points="311.5,-597.5 453.5,-597.5"/>
<text text-anchor="start" x="319.5" y="-585.5" font-family="Helvetica,sans-Serif" font-size="10.00">+ SymbolTable()</text>
<text text-anchor="start" x="319.5" y="-574.5" font-family="Helvetica,sans-Serif" font-size="10.00">+ SymbolTable(SymbolTable</text>
<text text-anchor="start" x="319.5" y="-563.5" font-family="Helvetica,sans-Serif" font-size="10.00"> *parent)</text>
<text text-anchor="start" x="319.5" y="-552.5" font-family="Helvetica,sans-Serif" font-size="10.00">+ ~SymbolTable()</text>
<text text-anchor="start" x="319.5" y="-541.5" font-family="Helvetica,sans-Serif" font-size="10.00">+ void attach_parent</text>
<text text-anchor="start" x="319.5" y="-530.5" font-family="Helvetica,sans-Serif" font-size="10.00">(SymbolTable *parent)</text>
<text text-anchor="start" x="319.5" y="-519.5" font-family="Helvetica,sans-Serif" font-size="10.00">+ bool contains(const</text>
<text text-anchor="start" x="319.5" y="-508.5" font-family="Helvetica,sans-Serif" font-size="10.00"> std::u32string &amp;id)</text>
<text text-anchor="start" x="319.5" y="-497.5" font-family="Helvetica,sans-Serif" font-size="10.00"> const</text>
<text text-anchor="start" x="319.5" y="-486.5" font-family="Helvetica,sans-Serif" font-size="10.00">+ const T &amp; get(const</text>
<text text-anchor="start" x="319.5" y="-475.5" font-family="Helvetica,sans-Serif" font-size="10.00"> std::u32string &amp;id)</text>
<text text-anchor="start" x="319.5" y="-464.5" font-family="Helvetica,sans-Serif" font-size="10.00"> const</text>
<text text-anchor="start" x="319.5" y="-453.5" font-family="Helvetica,sans-Serif" font-size="10.00">+ SymbolType get_type</text>
<text text-anchor="start" x="319.5" y="-442.5" font-family="Helvetica,sans-Serif" font-size="10.00">(const std::u32string</text>
<text text-anchor="start" x="319.5" y="-431.5" font-family="Helvetica,sans-Serif" font-size="10.00"> &amp;id) const</text>
<text text-anchor="start" x="319.5" y="-420.5" font-family="Helvetica,sans-Serif" font-size="10.00">+ void set(const std</text>
<text text-anchor="start" x="319.5" y="-409.5" font-family="Helvetica,sans-Serif" font-size="10.00">::u32string &amp;id, const</text>
<text text-anchor="start" x="319.5" y="-398.5" font-family="Helvetica,sans-Serif" font-size="10.00"> Array &amp;value, bool locally</text>
<text text-anchor="start" x="319.5" y="-387.5" font-family="Helvetica,sans-Serif" font-size="10.00">_only=false)</text>
<text text-anchor="start" x="319.5" y="-376.5" font-family="Helvetica,sans-Serif" font-size="10.00">+ void set(const std</text>
<text text-anchor="start" x="319.5" y="-365.5" font-family="Helvetica,sans-Serif" font-size="10.00">::u32string &amp;id, const</text>
<text text-anchor="start" x="319.5" y="-354.5" font-family="Helvetica,sans-Serif" font-size="10.00"> Operation_ptr &amp;value,</text>
<text text-anchor="start" x="319.5" y="-343.5" font-family="Helvetica,sans-Serif" font-size="10.00"> bool locally_only=false)</text>
<text text-anchor="start" x="319.5" y="-332.5" font-family="Helvetica,sans-Serif" font-size="10.00">+ void set(const std</text>
<text text-anchor="start" x="319.5" y="-321.5" font-family="Helvetica,sans-Serif" font-size="10.00">::u32string &amp;id, const</text>
<text text-anchor="start" x="319.5" y="-310.5" font-family="Helvetica,sans-Serif" font-size="10.00"> Number &amp;value, bool locally</text>
<text text-anchor="start" x="319.5" y="-299.5" font-family="Helvetica,sans-Serif" font-size="10.00">_only=false)</text>
<text text-anchor="start" x="319.5" y="-288.5" font-family="Helvetica,sans-Serif" font-size="10.00">+ void remove(const std</text>
<text text-anchor="start" x="319.5" y="-277.5" font-family="Helvetica,sans-Serif" font-size="10.00">::u32string &amp;id, bool</text>
<text text-anchor="start" x="319.5" y="-266.5" font-family="Helvetica,sans-Serif" font-size="10.00"> locally_only=false)</text>
<text text-anchor="start" x="319.5" y="-255.5" font-family="Helvetica,sans-Serif" font-size="10.00">+ void bind_function</text>
<text text-anchor="start" x="319.5" y="-244.5" font-family="Helvetica,sans-Serif" font-size="10.00">(const std::u32string &amp;id)</text>
<text text-anchor="start" x="319.5" y="-233.5" font-family="Helvetica,sans-Serif" font-size="10.00">+ void clear()</text>
<text text-anchor="start" x="319.5" y="-222.5" font-family="Helvetica,sans-Serif" font-size="10.00">+ void strip_values()</text>
<text text-anchor="start" x="319.5" y="-211.5" font-family="Helvetica,sans-Serif" font-size="10.00">+ void insert_system</text>
<text text-anchor="start" x="319.5" y="-200.5" font-family="Helvetica,sans-Serif" font-size="10.00">_parameters()</text>
</a>
</g>
</g>
<!-- Node6&#45;&gt;Node1 -->
<g id="edge6" class="edge">
<title>Node6&#45;&gt;Node1</title>
<path fill="none" stroke="#404040" d="M311.63,-212.67C308.64,-205.99 305.59,-199.42 302.5,-193 296.66,-180.88 289.92,-168.42 282.94,-156.34"/>
<polygon fill="none" stroke="#404040" points="283.03,-156.49 276.54,-153.35 276.95,-146.15 283.44,-149.29 283.03,-156.49"/>
<text text-anchor="middle" x="325" y="-167" font-family="Helvetica,sans-Serif" font-size="10.00"> +symbol_table</text>
</g>
</g>
</svg>
        <g id="navigator" transform="translate(0 0)" fill="#404254">
                <rect fill="#f2f5e9" fill-opacity="0.5" stroke="#606060" stroke-width=".5" x="0" y="0" width="60" height="60"/>
                <use id="zoomplus" xlink:href="#zoomPlus" x="17" y="9" onmousedown="handleZoom(evt,'in')"/>
                <use id="zoomminus" xlink:href="#zoomMin" x="42" y="9" onmousedown="handleZoom(evt,'out')"/>
                <use id="reset" xlink:href="#resetDef" x="30" y="36" onmousedown="handleReset()"/>
                <g id="arrowUp" xlink:href="#dirArrow" transform="translate(30 24)" onmousedown="handlePan(0,-1)">
                  <use xlink:href="#rim" fill="#404040">
                        <set attributeName="fill" to="#808080" begin="arrowUp.mouseover" end="arrowUp.mouseout"/>
                  </use>
                  <path fill="none" stroke="white" stroke-width="1.5" d="M0,-3.0v7 M-2.5,-0.5L0,-3.0L2.5,-0.5"/>
                </g>
                <g id="arrowRight" xlink:href="#dirArrow" transform="rotate(90) translate(36 -43)" onmousedown="handlePan(1,0)">
                  <use xlink:href="#rim" fill="#404040">
                        <set attributeName="fill" to="#808080" begin="arrowRight.mouseover" end="arrowRight.mouseout"/>
                  </use>
                  <path fill="none" stroke="white" stroke-width="1.5" d="M0,-3.0v7 M-2.5,-0.5L0,-3.0L2.5,-0.5"/>
                </g>
                <g id="arrowDown" xlink:href="#dirArrow" transform="rotate(180) translate(-30 -48)" onmousedown="handlePan(0,1)">
                  <use xlink:href="#rim" fill="#404040">
                        <set attributeName="fill" to="#808080" begin="arrowDown.mouseover" end="arrowDown.mouseout"/>
                  </use>
                  <path fill="none" stroke="white" stroke-width="1.5" d="M0,-3.0v7 M-2.5,-0.5L0,-3.0L2.5,-0.5"/>
                </g>
                <g id="arrowLeft" xlink:href="#dirArrow" transform="rotate(270) translate(-36 17)" onmousedown="handlePan(-1,0)">
                  <use xlink:href="#rim" fill="#404040">
                        <set attributeName="fill" to="#808080" begin="arrowLeft.mouseover" end="arrowLeft.mouseout"/>
                  </use>
                  <path fill="none" stroke="white" stroke-width="1.5" d="M0,-3.0v7 M-2.5,-0.5L0,-3.0L2.5,-0.5"/>
                </g>
        </g>
        <svg viewBox="0 0 15 15" width="100%" height="30px" preserveAspectRatio="xMaxYMin meet">
         <g id="arrow_out" transform="scale(0.3 0.3)">
          <a xlink:href="structkepler_1_1_statements__coll__graph_org.svg" target="_base">
           <rect id="button" ry="5" rx="5" y="6" x="6" height="38" width="38"
                fill="#f2f5e9" fill-opacity="0.5" stroke="#606060" stroke-width="1.0"/>
           <path id="arrow"
             d="M 11.500037,31.436501 C 11.940474,20.09759 22.043105,11.32322 32.158766,21.979434 L 37.068811,17.246167 C 37.068811,17.246167 37.088388,32 37.088388,32 L 22.160133,31.978069 C 22.160133,31.978069 26.997745,27.140456 26.997745,27.140456 C 18.528582,18.264221 13.291696,25.230495 11.500037,31.436501 z"
             style="fill:#404040;"/>
          </a>
         </g>
        </svg>
</svg>
