<?xml version="1.0" encoding="UTF-8" standalone="no"?>
<!DOCTYPE svg PUBLIC "-//W3C//DTD SVG 1.1//EN"
 "http://www.w3.org/Graphics/SVG/1.1/DTD/svg11.dtd">
<!-- Generated by graphviz version 7.1.0 (20230121.1956)
 -->
<!-- Title: kepler::Array::is_integer_numeric Pages: 1 -->
<svg width="448pt" height="198pt"
 viewBox="0.00 0.00 448.00 197.50" xmlns="http://www.w3.org/2000/svg" xmlns:xlink="http://www.w3.org/1999/xlink">
<g id="graph0" class="graph" transform="scale(1 1) rotate(0) translate(4 193.5)">
<title>kepler::Array::is_integer_numeric</title>
<!-- Node1 -->
<g id="node1" class="node">
<title>Node1</title>
<g id="a_node1"><a xlink:title=" ">
<polygon fill="#999999" stroke="#666666" points="440,-98.5 320,-98.5 320,-68.5 440,-68.5 440,-98.5"/>
<text text-anchor="start" x="328" y="-86.5" font-family="Helvetica,sans-Serif" font-size="10.00">kepler::Array::is_integer</text>
<text text-anchor="middle" x="380" y="-75.5" font-family="Helvetica,sans-Serif" font-size="10.00">_numeric</text>
</a>
</g>
</g>
<!-- Node2 -->
<g id="node2" class="node">
<title>Node2</title>
<g id="a_node2"><a xlink:href="structkepler_1_1_circle_bar.html#ad4d789ada13f9e9152417c8034abee01" target="_top" xlink:title=" ">
<polygon fill="white" stroke="#666666" points="264.5,-189.5 169.5,-189.5 169.5,-159.5 264.5,-159.5 264.5,-189.5"/>
<text text-anchor="start" x="177.5" y="-177.5" font-family="Helvetica,sans-Serif" font-size="10.00">kepler::CircleBar::</text>
<text text-anchor="middle" x="217" y="-166.5" font-family="Helvetica,sans-Serif" font-size="10.00">operator()</text>
</a>
</g>
</g>
<!-- Node1&#45;&gt;Node2 -->
<g id="edge1" class="edge">
<title>Node1&#45;&gt;Node2</title>
<path fill="none" stroke="#63b8ff" d="M351.39,-105.94C333.08,-120.06 308.07,-137.92 284,-150.5 277.95,-153.66 271.39,-156.59 264.83,-159.23"/>
<polygon fill="#63b8ff" stroke="#63b8ff" points="353.41,-108.8 359.13,-99.88 349.1,-103.29 353.41,-108.8"/>
</g>
<!-- Node3 -->
<g id="node3" class="node">
<title>Node3</title>
<g id="a_node3"><a xlink:href="structkepler_1_1_circle_stile.html#a29677d4fd43e1db4bacaddc636efa189" target="_top" xlink:title=" ">
<polygon fill="white" stroke="#666666" points="264,-141.5 170,-141.5 170,-111.5 264,-111.5 264,-141.5"/>
<text text-anchor="start" x="178" y="-129.5" font-family="Helvetica,sans-Serif" font-size="10.00">kepler::CircleStile</text>
<text text-anchor="middle" x="217" y="-118.5" font-family="Helvetica,sans-Serif" font-size="10.00">::operator()</text>
</a>
</g>
</g>
<!-- Node1&#45;&gt;Node3 -->
<g id="edge2" class="edge">
<title>Node1&#45;&gt;Node3</title>
<path fill="none" stroke="#63b8ff" d="M310.22,-101.87C294.76,-106 278.72,-110.28 264.43,-114.1"/>
<polygon fill="#63b8ff" stroke="#63b8ff" points="311.11,-105.25 319.87,-99.29 309.3,-98.49 311.11,-105.25"/>
</g>
<!-- Node4 -->
<g id="node4" class="node">
<title>Node4</title>
<g id="a_node4"><a xlink:href="structkepler_1_1_arrow_up.html#ab1b075f1c3ad3585a1ecbe0bf5e4ed24" target="_top" xlink:title=" ">
<polygon fill="white" stroke="#666666" points="284,-93 150,-93 150,-74 284,-74 284,-93"/>
<text text-anchor="middle" x="217" y="-81" font-family="Helvetica,sans-Serif" font-size="10.00">kepler::ArrowUp::operator()</text>
</a>
</g>
</g>
<!-- Node1&#45;&gt;Node4 -->
<g id="edge3" class="edge">
<title>Node1&#45;&gt;Node4</title>
<path fill="none" stroke="#63b8ff" d="M308.06,-83.5C300.16,-83.5 292.14,-83.5 284.3,-83.5"/>
<polygon fill="#63b8ff" stroke="#63b8ff" points="307.99,-87 317.99,-83.5 307.99,-80 307.99,-87"/>
</g>
<!-- Node5 -->
<g id="node5" class="node">
<title>Node5</title>
<g id="a_node5"><a xlink:href="structkepler_1_1_power.html#a67d479325a5c7fe90d9d8c66f18f2625" target="_top" xlink:title=" ">
<polygon fill="white" stroke="#666666" points="279,-56 155,-56 155,-37 279,-37 279,-56"/>
<text text-anchor="middle" x="217" y="-44" font-family="Helvetica,sans-Serif" font-size="10.00">kepler::Power::operator()</text>
</a>
</g>
</g>
<!-- Node1&#45;&gt;Node5 -->
<g id="edge4" class="edge">
<title>Node1&#45;&gt;Node5</title>
<path fill="none" stroke="#63b8ff" d="M308.52,-67.3C292.49,-63.62 275.92,-59.81 261.4,-56.47"/>
<polygon fill="#63b8ff" stroke="#63b8ff" points="307.5,-70.66 318.03,-69.49 309.07,-63.84 307.5,-70.66"/>
</g>
<!-- Node6 -->
<g id="node6" class="node">
<title>Node6</title>
<g id="a_node6"><a xlink:href="namespacekepler.html#a2e1be937349f3fa654c55c00517d6761" target="_top" xlink:title=" ">
<polygon fill="white" stroke="#666666" points="248,-19 186,-19 186,0 248,0 248,-19"/>
<text text-anchor="middle" x="217" y="-7" font-family="Helvetica,sans-Serif" font-size="10.00">kepler::rho</text>
</a>
</g>
</g>
<!-- Node1&#45;&gt;Node6 -->
<g id="edge5" class="edge">
<title>Node1&#45;&gt;Node6</title>
<path fill="none" stroke="#63b8ff" d="M346.38,-61.95C328.51,-50.84 305.65,-37.72 284,-28.5 272.7,-23.69 259.81,-19.67 248.44,-16.59"/>
<polygon fill="#63b8ff" stroke="#63b8ff" points="344.42,-64.85 354.74,-67.24 348.16,-58.93 344.42,-64.85"/>
</g>
<!-- Node7 -->
<g id="node7" class="node">
<title>Node7</title>
<g id="a_node7"><a xlink:href="structkepler_1_1_rho.html#af4c3435cbe66a0e278faad380ed11221" target="_top" xlink:title=" ">
<polygon fill="white" stroke="#666666" points="114,-19 0,-19 0,0 114,0 114,-19"/>
<text text-anchor="middle" x="57" y="-7" font-family="Helvetica,sans-Serif" font-size="10.00">kepler::Rho::operator()</text>
</a>
</g>
</g>
<!-- Node6&#45;&gt;Node7 -->
<g id="edge6" class="edge">
<title>Node6&#45;&gt;Node7</title>
<path fill="none" stroke="#63b8ff" d="M174.05,-9.5C155.73,-9.5 133.97,-9.5 114.28,-9.5"/>
<polygon fill="#63b8ff" stroke="#63b8ff" points="174.02,-13 184.02,-9.5 174.02,-6 174.02,-13"/>
</g>
</g>
</svg>
