<?xml version="1.0" encoding="UTF-8" standalone="no"?>
<!DOCTYPE svg PUBLIC "-//W3C//DTD SVG 1.1//EN"
 "http://www.w3.org/Graphics/SVG/1.1/DTD/svg11.dtd">
<!-- Generated by graphviz version 7.1.0 (20230121.1956)
 -->
<!-- Title: kepler::ArrowUp::operator() Pages: 1 -->
<svg width="393pt" height="64pt"
 viewBox="0.00 0.00 393.00 64.00" xmlns="http://www.w3.org/2000/svg" xmlns:xlink="http://www.w3.org/1999/xlink">
<g id="graph0" class="graph" transform="scale(1 1) rotate(0) translate(4 60)">
<title>kepler::ArrowUp::operator()</title>
<!-- Node1 -->
<g id="node1" class="node">
<title>Node1</title>
<g id="a_node1"><a xlink:title=" ">
<polygon fill="#999999" stroke="#666666" points="134,-37 0,-37 0,-18 134,-18 134,-37"/>
<text text-anchor="middle" x="67" y="-25" font-family="Helvetica,sans-Serif" font-size="10.00">kepler::ArrowUp::operator()</text>
</a>
</g>
</g>
<!-- Node2 -->
<g id="node2" class="node">
<title>Node2</title>
<g id="a_node2"><a xlink:href="namespacekepler.html#a9c26d292ba4263ed7f68f4f1ede08fbb" target="_top" xlink:title=" ">
<polygon fill="white" stroke="#666666" points="253,-56 170,-56 170,-37 253,-37 253,-56"/>
<text text-anchor="middle" x="211.5" y="-44" font-family="Helvetica,sans-Serif" font-size="10.00">kepler::reshape</text>
</a>
</g>
</g>
<!-- Node1&#45;&gt;Node2 -->
<g id="edge1" class="edge">
<title>Node1&#45;&gt;Node2</title>
<path fill="none" stroke="#63b8ff" d="M134.24,-36.33C142.35,-37.41 150.54,-38.51 158.4,-39.55"/>
<polygon fill="#63b8ff" stroke="#63b8ff" points="157.75,-43 168.12,-40.85 158.67,-36.06 157.75,-43"/>
</g>
<!-- Node4 -->
<g id="node4" class="node">
<title>Node4</title>
<g id="a_node4"><a xlink:href="structkepler_1_1_array.html#a98194b5409eace27b9eae7dcac74e350" target="_top" xlink:title=" ">
<polygon fill="white" stroke="#666666" points="385,-19 289,-19 289,0 385,0 385,-19"/>
<text text-anchor="middle" x="337" y="-7" font-family="Helvetica,sans-Serif" font-size="10.00">kepler::Array::size</text>
</a>
</g>
</g>
<!-- Node1&#45;&gt;Node4 -->
<g id="edge4" class="edge">
<title>Node1&#45;&gt;Node4</title>
<path fill="none" stroke="#63b8ff" d="M134.25,-23.05C178.12,-20.1 235.15,-16.27 277.37,-13.44"/>
<polygon fill="#63b8ff" stroke="#63b8ff" points="277.34,-16.95 287.08,-12.79 276.87,-9.96 277.34,-16.95"/>
</g>
<!-- Node3 -->
<g id="node3" class="node">
<title>Node3</title>
<g id="a_node3"><a xlink:href="namespacekepler.html#afce205dbe450fbcc7234f5a42f565eae" target="_top" xlink:title=" ">
<polygon fill="white" stroke="#666666" points="369.5,-56 304.5,-56 304.5,-37 369.5,-37 369.5,-56"/>
<text text-anchor="middle" x="337" y="-44" font-family="Helvetica,sans-Serif" font-size="10.00">kepler::pad</text>
</a>
</g>
</g>
<!-- Node2&#45;&gt;Node3 -->
<g id="edge2" class="edge">
<title>Node2&#45;&gt;Node3</title>
<path fill="none" stroke="#63b8ff" d="M253.28,-46.5C265.98,-46.5 280.01,-46.5 292.86,-46.5"/>
<polygon fill="#63b8ff" stroke="#63b8ff" points="292.74,-50 302.74,-46.5 292.74,-43 292.74,-50"/>
</g>
<!-- Node2&#45;&gt;Node4 -->
<g id="edge3" class="edge">
<title>Node2&#45;&gt;Node4</title>
<path fill="none" stroke="#63b8ff" d="M245.6,-36.58C259.85,-32.31 276.73,-27.26 292.02,-22.68"/>
<polygon fill="#63b8ff" stroke="#63b8ff" points="292.79,-26.1 301.36,-19.88 290.78,-19.39 292.79,-26.1"/>
</g>
</g>
</svg>
