<?xml version="1.0" encoding="UTF-8" standalone="no"?>
<!DOCTYPE svg PUBLIC "-//W3C//DTD SVG 1.1//EN"
 "http://www.w3.org/Graphics/SVG/1.1/DTD/svg11.dtd">
<!-- Generated by graphviz version 7.1.0 (20230121.1956)
 -->
<!-- Title: kepler::Symbol Pages: 1 -->
<svg width="226pt" height="237pt"
 viewBox="0.00 0.00 226.00 237.00" xmlns="http://www.w3.org/2000/svg" xmlns:xlink="http://www.w3.org/1999/xlink">
<g id="graph0" class="graph" transform="scale(1 1) rotate(0) translate(4 233)">
<title>kepler::Symbol</title>
<!-- Node1 -->
<g id="node1" class="node">
<title>Node1</title>
<g id="a_node1"><a xlink:title=" ">
<polygon fill="#999999" stroke="#666666" points="65.5,-0.5 65.5,-112.5 181.5,-112.5 181.5,-0.5 65.5,-0.5"/>
<text text-anchor="middle" x="123.5" y="-100.5" font-family="Helvetica,sans-Serif" font-size="10.00">kepler::Symbol</text>
<polyline fill="none" stroke="#666666" points="65.5,-93.5 181.5,-93.5"/>
<text text-anchor="middle" x="123.5" y="-81.5" font-family="Helvetica,sans-Serif" font-size="10.00"> </text>
<polyline fill="none" stroke="#666666" points="65.5,-74.5 181.5,-74.5"/>
<text text-anchor="start" x="73.5" y="-62.5" font-family="Helvetica,sans-Serif" font-size="10.00">+ Symbol(SymbolType</text>
<text text-anchor="start" x="73.5" y="-51.5" font-family="Helvetica,sans-Serif" font-size="10.00"> type_, std::variant</text>
<text text-anchor="start" x="73.5" y="-40.5" font-family="Helvetica,sans-Serif" font-size="10.00">&lt; Array, Operation_ptr</text>
<text text-anchor="start" x="73.5" y="-29.5" font-family="Helvetica,sans-Serif" font-size="10.00"> &gt; content_)</text>
<text text-anchor="start" x="73.5" y="-18.5" font-family="Helvetica,sans-Serif" font-size="10.00">+ Symbol(SymbolType</text>
<text text-anchor="start" x="73.5" y="-7.5" font-family="Helvetica,sans-Serif" font-size="10.00"> type_)</text>
</a>
</g>
</g>
<!-- Node2 -->
<g id="node2" class="node">
<title>Node2</title>
<g id="a_node2"><a xlink:title=" ">
<polygon fill="white" stroke="#666666" points="0,-160.5 0,-228.5 129,-228.5 129,-160.5 0,-160.5"/>
<text text-anchor="start" x="8" y="-216.5" font-family="Helvetica,sans-Serif" font-size="10.00">optional&lt; std::variant</text>
<text text-anchor="middle" x="64.5" y="-205.5" font-family="Helvetica,sans-Serif" font-size="10.00">&lt; Array, Operation_ptr &gt; &gt;</text>
<polyline fill="none" stroke="#666666" points="0,-198.5 129,-198.5"/>
<text text-anchor="middle" x="64.5" y="-186.5" font-family="Helvetica,sans-Serif" font-size="10.00"> </text>
<polyline fill="none" stroke="#666666" points="0,-179.5 129,-179.5"/>
<text text-anchor="middle" x="64.5" y="-167.5" font-family="Helvetica,sans-Serif" font-size="10.00"> </text>
</a>
</g>
</g>
<!-- Node2&#45;&gt;Node1 -->
<g id="edge1" class="edge">
<title>Node2&#45;&gt;Node1</title>
<path fill="none" stroke="#404040" d="M78.78,-160.58C83.59,-149.5 89.13,-136.72 94.65,-124.01"/>
<polygon fill="none" stroke="#404040" points="94.55,-124.24 93.27,-117.14 99.32,-113.23 100.61,-120.32 94.55,-124.24"/>
<text text-anchor="middle" x="111.5" y="-134" font-family="Helvetica,sans-Serif" font-size="10.00"> +content</text>
</g>
<!-- Node3 -->
<g id="node3" class="node">
<title>Node3</title>
<g id="a_node3"><a xlink:title=" ">
<polygon fill="white" stroke="#666666" points="147,-166 147,-223 218,-223 218,-166 147,-166"/>
<text text-anchor="middle" x="182.5" y="-211" font-family="Helvetica,sans-Serif" font-size="10.00">SymbolType</text>
<polyline fill="none" stroke="#666666" points="147,-204 218,-204"/>
<text text-anchor="middle" x="182.5" y="-192" font-family="Helvetica,sans-Serif" font-size="10.00"> </text>
<polyline fill="none" stroke="#666666" points="147,-185 218,-185"/>
<text text-anchor="middle" x="182.5" y="-173" font-family="Helvetica,sans-Serif" font-size="10.00"> </text>
</a>
</g>
</g>
<!-- Node3&#45;&gt;Node1 -->
<g id="edge2" class="edge">
<title>Node3&#45;&gt;Node1</title>
<path fill="none" stroke="#404040" d="M170.7,-166.31C165.42,-154.13 158.94,-139.19 152.49,-124.33"/>
<polygon fill="none" stroke="#404040" points="152.49,-124.31 146.43,-120.4 147.71,-113.3 153.77,-117.22 152.49,-124.31"/>
<text text-anchor="middle" x="173.5" y="-134" font-family="Helvetica,sans-Serif" font-size="10.00"> +type</text>
</g>
</g>
</svg>
