<?xml version="1.0" encoding="UTF-8" standalone="no"?>
<!DOCTYPE svg PUBLIC "-//W3C//DTD SVG 1.1//EN"
 "http://www.w3.org/Graphics/SVG/1.1/DTD/svg11.dtd">
<!-- Generated by graphviz version 7.1.0 (20230121.1956)
 -->
<!-- Title: kepler::Array::empty Pages: 1 -->
<!--zoomable 275 -->
<svg id="main" version="1.1" xmlns="http://www.w3.org/2000/svg" xmlns:xlink="http://www.w3.org/1999/xlink" xml:space="preserve" onload="init(evt)">
<style type="text/css"><![CDATA[
.edge:hover path { stroke: red; }
.edge:hover polygon { stroke: red; fill: red; }
]]></style>
<script type="text/javascript"><![CDATA[
var edges = document.getElementsByTagName('g');
if (edges && edges.length) {
  for (var i=0;i<edges.length;i++) {
    if (edges[i].id.substr(0,4)=='edge') {
      edges[i].setAttribute('class','edge');
    }
  }
}
]]></script>
        <defs>
                <circle id="rim" cx="0" cy="0" r="7"/>
                <circle id="rim2" cx="0" cy="0" r="3.5"/>
                <g id="zoomPlus">
                        <use xlink:href="#rim" fill="#404040">
                                <set attributeName="fill" to="#808080" begin="zoomplus.mouseover" end="zoomplus.mouseout"/>
                        </use>
                        <path d="M-4,0h8M0,-4v8" fill="none" stroke="white" stroke-width="1.5" pointer-events="none"/>
                </g>
                <g id="zoomMin">
                        <use xlink:href="#rim" fill="#404040">
                                <set attributeName="fill" to="#808080" begin="zoomminus.mouseover" end="zoomminus.mouseout"/>
                        </use>
                        <path d="M-4,0h8" fill="none" stroke="white" stroke-width="1.5" pointer-events="none"/>
                </g>
                <g id="dirArrow">
                        <path fill="none" stroke="white" stroke-width="1.5" d="M0,-3.0v7 M-2.5,-0.5L0,-3.0L2.5,-0.5"/>
                </g>
               <g id="resetDef">
                       <use xlink:href="#rim2" fill="#404040">
                               <set attributeName="fill" to="#808080" begin="reset.mouseover" end="reset.mouseout"/>
                       </use>
               </g>
        </defs>

<script type="text/javascript">
var viewWidth = 728;
var viewHeight = 275;
var sectionId = 'dynsection-1';
</script>
<script xlink:href="svgpan.js"/>
<svg id="graph" class="graph">
<g id="viewport">
<title>kepler::Array::empty</title>
<!-- Node1 -->
<g id="node1" class="node">
<title>Node1</title>
<g id="a_node1"><a xlink:title=" ">
<polygon fill="#999999" stroke="#666666" points="720,-124.5 615,-124.5 615,-105.5 720,-105.5 720,-124.5"/>
<text text-anchor="middle" x="667.5" y="-112.5" font-family="Helvetica,sans-Serif" font-size="10.00">kepler::Array::empty</text>
</a>
</g>
</g>
<!-- Node2 -->
<g id="node2" class="node">
<title>Node2</title>
<g id="a_node2"><a xlink:href="namespacekepler_1_1constants.html#aab9ab312a9b1f53017e59153beb8c0b5" target="_top" xlink:title=" ">
<polygon fill="white" stroke="#666666" points="579,-232 412,-232 412,-202 579,-202 579,-232"/>
<text text-anchor="start" x="420" y="-220" font-family="Helvetica,sans-Serif" font-size="10.00">kepler::constants::</text>
<text text-anchor="middle" x="495.5" y="-209" font-family="Helvetica,sans-Serif" font-size="10.00">check_valid_system_param_value</text>
</a>
</g>
</g>
<!-- Node1&#45;&gt;Node2 -->
<g id="edge1" class="edge">
<title>Node1&#45;&gt;Node2</title>
<path fill="none" stroke="#63b8ff" d="M640.29,-130.72C608.19,-149.98 554.16,-182.41 522.26,-201.54"/>
<polygon fill="#63b8ff" stroke="#63b8ff" points="641.82,-133.89 648.59,-125.74 638.22,-127.89 641.82,-133.89"/>
</g>
<!-- Node4 -->
<g id="node4" class="node">
<title>Node4</title>
<g id="a_node4"><a xlink:href="structkepler_1_1_array.html#a31e9d1137447bf3402d6278c41569f5e" target="_top" xlink:title=" ">
<polygon fill="white" stroke="#666666" points="555,-130 436,-130 436,-100 555,-100 555,-130"/>
<text text-anchor="start" x="444" y="-118" font-family="Helvetica,sans-Serif" font-size="10.00">kepler::Array::is_simple</text>
<text text-anchor="middle" x="495.5" y="-107" font-family="Helvetica,sans-Serif" font-size="10.00">_scalar</text>
</a>
</g>
</g>
<!-- Node1&#45;&gt;Node4 -->
<g id="edge4" class="edge">
<title>Node1&#45;&gt;Node4</title>
<path fill="none" stroke="#63b8ff" d="M603.33,-115C587.58,-115 570.76,-115 555.24,-115"/>
<polygon fill="#63b8ff" stroke="#63b8ff" points="603.06,-118.5 613.06,-115 603.06,-111.5 603.06,-118.5"/>
</g>
<!-- Node9 -->
<g id="node9" class="node">
<title>Node9</title>
<g id="a_node9"><a xlink:href="structkepler_1_1_array_printer.html#a258d0cb2d48a33d2324f73e9e63a71f7" target="_top" xlink:title=" ">
<polygon fill="white" stroke="#666666" points="359,-30 258,-30 258,0 359,0 359,-30"/>
<text text-anchor="start" x="266" y="-18" font-family="Helvetica,sans-Serif" font-size="10.00">kepler::ArrayPrinter</text>
<text text-anchor="middle" x="308.5" y="-7" font-family="Helvetica,sans-Serif" font-size="10.00">::operator()</text>
</a>
</g>
</g>
<!-- Node1&#45;&gt;Node9 -->
<g id="edge14" class="edge">
<title>Node1&#45;&gt;Node9</title>
<path fill="none" stroke="#63b8ff" d="M620.28,-102.05C553.01,-83.21 428.63,-48.37 359.37,-28.97"/>
<polygon fill="#63b8ff" stroke="#63b8ff" points="618.93,-105.31 629.51,-104.64 620.82,-98.57 618.93,-105.31"/>
</g>
<!-- Node2&#45;&gt;Node2 -->
<g id="edge2" class="edge">
<title>Node2&#45;&gt;Node2</title>
<path fill="none" stroke="#63b8ff" d="M524.52,-243.61C519.87,-247.43 510.2,-250 495.5,-250 468.62,-250 458.55,-241.41 465.27,-232.28"/>
<polygon fill="#63b8ff" stroke="#63b8ff" points="527.99,-244.1 525.57,-233.78 521.03,-243.35 527.99,-244.1"/>
</g>
<!-- Node3 -->
<g id="node3" class="node">
<title>Node3</title>
<g id="a_node3"><a xlink:href="structkepler_1_1_interpreter.html#a0a7e662ee6f13a895e37906f91f3daf0" target="_top" xlink:title=" ">
<polygon fill="white" stroke="#666666" points="355,-267 262,-267 262,-237 355,-237 355,-267"/>
<text text-anchor="start" x="270" y="-255" font-family="Helvetica,sans-Serif" font-size="10.00">kepler::Interpreter</text>
<text text-anchor="middle" x="308.5" y="-244" font-family="Helvetica,sans-Serif" font-size="10.00">::visit</text>
</a>
</g>
</g>
<!-- Node2&#45;&gt;Node3 -->
<g id="edge3" class="edge">
<title>Node2&#45;&gt;Node3</title>
<path fill="none" stroke="#63b8ff" d="M401.66,-234.56C385.52,-237.62 369.39,-240.67 355.25,-243.35"/>
<polygon fill="#63b8ff" stroke="#63b8ff" points="402.16,-238.03 411.33,-232.73 400.85,-231.15 402.16,-238.03"/>
</g>
<!-- Node5 -->
<g id="node5" class="node">
<title>Node5</title>
<g id="a_node5"><a xlink:href="namespacekepler.html#a39278d07695647da0a30c3b209c7a4d7" target="_top" xlink:title=" ">
<polygon fill="white" stroke="#666666" points="351.5,-105.5 265.5,-105.5 265.5,-86.5 351.5,-86.5 351.5,-105.5"/>
<text text-anchor="middle" x="308.5" y="-93.5" font-family="Helvetica,sans-Serif" font-size="10.00">kepler::get_shift</text>
</a>
</g>
</g>
<!-- Node4&#45;&gt;Node5 -->
<g id="edge5" class="edge">
<title>Node4&#45;&gt;Node5</title>
<path fill="none" stroke="#63b8ff" d="M424.29,-107.79C399.84,-105.28 373.18,-102.54 351.71,-100.34"/>
<polygon fill="#63b8ff" stroke="#63b8ff" points="423.9,-111.27 434.21,-108.81 424.61,-104.3 423.9,-111.27"/>
</g>
<!-- Node7 -->
<g id="node7" class="node">
<title>Node7</title>
<g id="a_node7"><a xlink:href="structkepler_1_1_circle_bar.html#ad4d789ada13f9e9152417c8034abee01" target="_top" xlink:title=" ">
<polygon fill="white" stroke="#666666" points="95,-142 0,-142 0,-112 95,-112 95,-142"/>
<text text-anchor="start" x="8" y="-130" font-family="Helvetica,sans-Serif" font-size="10.00">kepler::CircleBar::</text>
<text text-anchor="middle" x="47.5" y="-119" font-family="Helvetica,sans-Serif" font-size="10.00">operator()</text>
</a>
</g>
</g>
<!-- Node4&#45;&gt;Node7 -->
<g id="edge9" class="edge">
<title>Node4&#45;&gt;Node7</title>
<path fill="none" stroke="#63b8ff" d="M424.33,-116.89C332.51,-119.36 174.06,-123.62 95.49,-125.74"/>
<polygon fill="#63b8ff" stroke="#63b8ff" points="424.32,-120.39 434.22,-116.62 424.13,-113.39 424.32,-120.39"/>
</g>
<!-- Node8 -->
<g id="node8" class="node">
<title>Node8</title>
<g id="a_node8"><a xlink:href="structkepler_1_1_circle_stile.html#a29677d4fd43e1db4bacaddc636efa189" target="_top" xlink:title=" ">
<polygon fill="white" stroke="#666666" points="94.5,-87 0.5,-87 0.5,-57 94.5,-57 94.5,-87"/>
<text text-anchor="start" x="8.5" y="-75" font-family="Helvetica,sans-Serif" font-size="10.00">kepler::CircleStile</text>
<text text-anchor="middle" x="47.5" y="-64" font-family="Helvetica,sans-Serif" font-size="10.00">::operator()</text>
</a>
</g>
</g>
<!-- Node4&#45;&gt;Node8 -->
<g id="edge10" class="edge">
<title>Node4&#45;&gt;Node8</title>
<path fill="none" stroke="#63b8ff" d="M444.07,-95.78C423.31,-88.78 398.81,-81.69 376,-78 276.92,-61.96 158.79,-65.19 94.97,-68.74"/>
<polygon fill="#63b8ff" stroke="#63b8ff" points="442.84,-99.06 453.44,-99.02 445.14,-92.44 442.84,-99.06"/>
</g>
<!-- Node4&#45;&gt;Node9 -->
<g id="edge11" class="edge">
<title>Node4&#45;&gt;Node9</title>
<path fill="none" stroke="#63b8ff" d="M457.26,-93.77C443.03,-85.54 426.68,-75.96 412,-67 395.79,-57.11 392.75,-52.93 376,-44 367,-39.2 357.03,-34.53 347.62,-30.4"/>
<polygon fill="#63b8ff" stroke="#63b8ff" points="455.48,-96.79 465.9,-98.74 458.98,-90.72 455.48,-96.79"/>
</g>
<!-- Node10 -->
<g id="node10" class="node">
<title>Node10</title>
<g id="a_node10"><a xlink:href="structkepler_1_1_power.html#a67d479325a5c7fe90d9d8c66f18f2625" target="_top" xlink:title=" ">
<polygon fill="white" stroke="#666666" points="370.5,-218.5 246.5,-218.5 246.5,-199.5 370.5,-199.5 370.5,-218.5"/>
<text text-anchor="middle" x="308.5" y="-206.5" font-family="Helvetica,sans-Serif" font-size="10.00">kepler::Power::operator()</text>
</a>
</g>
</g>
<!-- Node4&#45;&gt;Node10 -->
<g id="edge12" class="edge">
<title>Node4&#45;&gt;Node10</title>
<path fill="none" stroke="#63b8ff" d="M465.38,-137.29C442.23,-154.08 408.45,-176.61 376,-191 369,-194.1 361.35,-196.78 353.8,-199.05"/>
<polygon fill="#63b8ff" stroke="#63b8ff" points="467.42,-140.13 473.39,-131.38 463.27,-134.49 467.42,-140.13"/>
</g>
<!-- Node11 -->
<g id="node11" class="node">
<title>Node11</title>
<g id="a_node11"><a xlink:href="structkepler_1_1_left_shoe.html#a8e54fab10919256786409887381785f4" target="_top" xlink:title=" ">
<polygon fill="white" stroke="#666666" points="376,-181.5 241,-181.5 241,-162.5 376,-162.5 376,-181.5"/>
<text text-anchor="middle" x="308.5" y="-169.5" font-family="Helvetica,sans-Serif" font-size="10.00">kepler::LeftShoe::operator()</text>
</a>
</g>
</g>
<!-- Node4&#45;&gt;Node11 -->
<g id="edge13" class="edge">
<title>Node4&#45;&gt;Node11</title>
<path fill="none" stroke="#63b8ff" d="M433.43,-133.82C402.85,-143.24 367.06,-154.26 341.83,-162.04"/>
<polygon fill="#63b8ff" stroke="#63b8ff" points="434.46,-137.16 442.99,-130.87 432.4,-130.47 434.46,-137.16"/>
</g>
<!-- Node6 -->
<g id="node6" class="node">
<title>Node6</title>
<g id="a_node6"><a xlink:href="namespacekepler.html#a2e0061e6ccc074df0dabcaf61f4517b8" target="_top" xlink:title=" ">
<polygon fill="white" stroke="#666666" points="205,-105.5 131,-105.5 131,-86.5 205,-86.5 205,-105.5"/>
<text text-anchor="middle" x="168" y="-93.5" font-family="Helvetica,sans-Serif" font-size="10.00">kepler::rotate</text>
</a>
</g>
</g>
<!-- Node5&#45;&gt;Node6 -->
<g id="edge6" class="edge">
<title>Node5&#45;&gt;Node6</title>
<path fill="none" stroke="#63b8ff" d="M253.69,-96C237.53,-96 220.19,-96 205.43,-96"/>
<polygon fill="#63b8ff" stroke="#63b8ff" points="253.68,-99.5 263.68,-96 253.68,-92.5 253.68,-99.5"/>
</g>
<!-- Node6&#45;&gt;Node7 -->
<g id="edge7" class="edge">
<title>Node6&#45;&gt;Node7</title>
<path fill="none" stroke="#63b8ff" d="M119.74,-108.36C111.73,-110.46 103.41,-112.63 95.41,-114.73"/>
<polygon fill="#63b8ff" stroke="#63b8ff" points="120.55,-111.77 129.34,-105.85 118.78,-105 120.55,-111.77"/>
</g>
<!-- Node6&#45;&gt;Node8 -->
<g id="edge8" class="edge">
<title>Node6&#45;&gt;Node8</title>
<path fill="none" stroke="#63b8ff" d="M119.6,-86.4C111.49,-84.76 103.07,-83.05 94.98,-81.41"/>
<polygon fill="#63b8ff" stroke="#63b8ff" points="118.82,-89.81 129.32,-88.37 120.21,-82.95 118.82,-89.81"/>
</g>
</g>
</svg>
        <g id="navigator" transform="translate(0 0)" fill="#404254">
                <rect fill="#f2f5e9" fill-opacity="0.5" stroke="#606060" stroke-width=".5" x="0" y="0" width="60" height="60"/>
                <use id="zoomplus" xlink:href="#zoomPlus" x="17" y="9" onmousedown="handleZoom(evt,'in')"/>
                <use id="zoomminus" xlink:href="#zoomMin" x="42" y="9" onmousedown="handleZoom(evt,'out')"/>
                <use id="reset" xlink:href="#resetDef" x="30" y="36" onmousedown="handleReset()"/>
                <g id="arrowUp" xlink:href="#dirArrow" transform="translate(30 24)" onmousedown="handlePan(0,-1)">
                  <use xlink:href="#rim" fill="#404040">
                        <set attributeName="fill" to="#808080" begin="arrowUp.mouseover" end="arrowUp.mouseout"/>
                  </use>
                  <path fill="none" stroke="white" stroke-width="1.5" d="M0,-3.0v7 M-2.5,-0.5L0,-3.0L2.5,-0.5"/>
                </g>
                <g id="arrowRight" xlink:href="#dirArrow" transform="rotate(90) translate(36 -43)" onmousedown="handlePan(1,0)">
                  <use xlink:href="#rim" fill="#404040">
                        <set attributeName="fill" to="#808080" begin="arrowRight.mouseover" end="arrowRight.mouseout"/>
                  </use>
                  <path fill="none" stroke="white" stroke-width="1.5" d="M0,-3.0v7 M-2.5,-0.5L0,-3.0L2.5,-0.5"/>
                </g>
                <g id="arrowDown" xlink:href="#dirArrow" transform="rotate(180) translate(-30 -48)" onmousedown="handlePan(0,1)">
                  <use xlink:href="#rim" fill="#404040">
                        <set attributeName="fill" to="#808080" begin="arrowDown.mouseover" end="arrowDown.mouseout"/>
                  </use>
                  <path fill="none" stroke="white" stroke-width="1.5" d="M0,-3.0v7 M-2.5,-0.5L0,-3.0L2.5,-0.5"/>
                </g>
                <g id="arrowLeft" xlink:href="#dirArrow" transform="rotate(270) translate(-36 17)" onmousedown="handlePan(-1,0)">
                  <use xlink:href="#rim" fill="#404040">
                        <set attributeName="fill" to="#808080" begin="arrowLeft.mouseover" end="arrowLeft.mouseout"/>
                  </use>
                  <path fill="none" stroke="white" stroke-width="1.5" d="M0,-3.0v7 M-2.5,-0.5L0,-3.0L2.5,-0.5"/>
                </g>
        </g>
        <svg viewBox="0 0 15 15" width="100%" height="30px" preserveAspectRatio="xMaxYMin meet">
         <g id="arrow_out" transform="scale(0.3 0.3)">
          <a xlink:href="structkepler_1_1_array_a9d4e4ca37cd263142d76ca0a56346991_icgraph_org.svg" target="_base">
           <rect id="button" ry="5" rx="5" y="6" x="6" height="38" width="38"
                fill="#f2f5e9" fill-opacity="0.5" stroke="#606060" stroke-width="1.0"/>
           <path id="arrow"
             d="M 11.500037,31.436501 C 11.940474,20.09759 22.043105,11.32322 32.158766,21.979434 L 37.068811,17.246167 C 37.068811,17.246167 37.088388,32 37.088388,32 L 22.160133,31.978069 C 22.160133,31.978069 26.997745,27.140456 26.997745,27.140456 C 18.528582,18.264221 13.291696,25.230495 11.500037,31.436501 z"
             style="fill:#404040;"/>
          </a>
         </g>
        </svg>
</svg>
