<?xml version="1.0" encoding="UTF-8" standalone="no"?>
<!DOCTYPE svg PUBLIC "-//W3C//DTD SVG 1.1//EN"
 "http://www.w3.org/Graphics/SVG/1.1/DTD/svg11.dtd">
<!-- Generated by graphviz version 7.1.0 (20230121.1956)
 -->
<!-- Title: kepler::FunctionVariable Pages: 1 -->
<svg width="379pt" height="668pt"
 viewBox="0.00 0.00 378.96 668.00" xmlns="http://www.w3.org/2000/svg" xmlns:xlink="http://www.w3.org/1999/xlink">
<g id="graph0" class="graph" transform="scale(1 1) rotate(0) translate(4 664)">
<title>kepler::FunctionVariable</title>
<!-- Node1 -->
<g id="node1" class="node">
<title>Node1</title>
<g id="a_node1"><a xlink:title=" ">
<polygon fill="#999999" stroke="#666666" points="85.46,-0.5 85.46,-123.5 212.46,-123.5 212.46,-0.5 85.46,-0.5"/>
<text text-anchor="middle" x="148.96" y="-111.5" font-family="Helvetica,sans-Serif" font-size="10.00">kepler::FunctionVariable</text>
<polyline fill="none" stroke="#666666" points="85.46,-104.5 212.46,-104.5"/>
<text text-anchor="middle" x="148.96" y="-92.5" font-family="Helvetica,sans-Serif" font-size="10.00"> </text>
<polyline fill="none" stroke="#666666" points="85.46,-85.5 212.46,-85.5"/>
<text text-anchor="start" x="93.46" y="-73.5" font-family="Helvetica,sans-Serif" font-size="10.00">+ FunctionVariable(Token</text>
<text text-anchor="start" x="93.46" y="-62.5" font-family="Helvetica,sans-Serif" font-size="10.00"> identifier)</text>
<text text-anchor="start" x="93.46" y="-51.5" font-family="Helvetica,sans-Serif" font-size="10.00">+ std::string to_string</text>
<text text-anchor="start" x="93.46" y="-40.5" font-family="Helvetica,sans-Serif" font-size="10.00">() const override</text>
<text text-anchor="start" x="93.46" y="-29.5" font-family="Helvetica,sans-Serif" font-size="10.00">+ Operation_ptr accept</text>
<text text-anchor="start" x="93.46" y="-18.5" font-family="Helvetica,sans-Serif" font-size="10.00">(NodeVisitor &amp;visitor)</text>
<text text-anchor="start" x="93.46" y="-7.5" font-family="Helvetica,sans-Serif" font-size="10.00"> override</text>
</a>
</g>
</g>
<!-- Node2 -->
<g id="node2" class="node">
<title>Node2</title>
<g id="a_node2"><a xlink:href="structkepler_1_1_a_s_t_node.html" target="_top" xlink:title=" ">
<polygon fill="white" stroke="#666666" points="13.46,-161.5 13.46,-295.5 156.46,-295.5 156.46,-161.5 13.46,-161.5"/>
<text text-anchor="start" x="21.46" y="-283.5" font-family="Helvetica,sans-Serif" font-size="10.00">kepler::ASTNode&lt; Operation</text>
<text text-anchor="middle" x="84.96" y="-272.5" font-family="Helvetica,sans-Serif" font-size="10.00">_ptr &gt;</text>
<polyline fill="none" stroke="#666666" points="13.46,-265.5 156.46,-265.5"/>
<text text-anchor="middle" x="84.96" y="-253.5" font-family="Helvetica,sans-Serif" font-size="10.00"> </text>
<polyline fill="none" stroke="#666666" points="13.46,-246.5 156.46,-246.5"/>
<text text-anchor="start" x="21.46" y="-234.5" font-family="Helvetica,sans-Serif" font-size="10.00">+ virtual ~ASTNode()</text>
<text text-anchor="start" x="21.46" y="-223.5" font-family="Helvetica,sans-Serif" font-size="10.00">=default</text>
<text text-anchor="start" x="21.46" y="-212.5" font-family="Helvetica,sans-Serif" font-size="10.00">+ virtual Operation_ptr</text>
<text text-anchor="start" x="21.46" y="-201.5" font-family="Helvetica,sans-Serif" font-size="10.00"> accept(class NodeVisitor</text>
<text text-anchor="start" x="21.46" y="-190.5" font-family="Helvetica,sans-Serif" font-size="10.00"> &amp;visitor)=0</text>
<text text-anchor="start" x="21.46" y="-179.5" font-family="Helvetica,sans-Serif" font-size="10.00">+ virtual std::string</text>
<text text-anchor="start" x="21.46" y="-168.5" font-family="Helvetica,sans-Serif" font-size="10.00"> to_string() const=0</text>
</a>
</g>
</g>
<!-- Node2&#45;&gt;Node1 -->
<g id="edge1" class="edge">
<title>Node2&#45;&gt;Node1</title>
<path fill="none" stroke="#63b8ff" d="M114.68,-151.11C118.3,-141.81 121.96,-132.41 125.47,-123.38"/>
<polygon fill="none" stroke="#63b8ff" points="111.53,-149.54 111.17,-160.13 118.06,-152.08 111.53,-149.54"/>
</g>
<!-- Node3 -->
<g id="node3" class="node">
<title>Node3</title>
<g id="a_node3"><a xlink:href="structkepler_1_1_position.html" target="_top" xlink:title=" ">
<polygon fill="white" stroke="#666666" points="24.96,-547.5 24.96,-659.5 144.96,-659.5 144.96,-547.5 24.96,-547.5"/>
<text text-anchor="middle" x="84.96" y="-647.5" font-family="Helvetica,sans-Serif" font-size="10.00">kepler::Position</text>
<polyline fill="none" stroke="#666666" points="24.96,-640.5 144.96,-640.5"/>
<text text-anchor="middle" x="84.96" y="-628.5" font-family="Helvetica,sans-Serif" font-size="10.00"> </text>
<polyline fill="none" stroke="#666666" points="24.96,-621.5 144.96,-621.5"/>
<text text-anchor="start" x="32.96" y="-609.5" font-family="Helvetica,sans-Serif" font-size="10.00">+ Position()</text>
<text text-anchor="start" x="32.96" y="-598.5" font-family="Helvetica,sans-Serif" font-size="10.00">+ Position(long pos_)</text>
<text text-anchor="start" x="32.96" y="-587.5" font-family="Helvetica,sans-Serif" font-size="10.00">+ void set_position(long</text>
<text text-anchor="start" x="32.96" y="-576.5" font-family="Helvetica,sans-Serif" font-size="10.00"> new_pos)</text>
<text text-anchor="start" x="32.96" y="-565.5" font-family="Helvetica,sans-Serif" font-size="10.00">+ long get_position()</text>
<text text-anchor="start" x="32.96" y="-554.5" font-family="Helvetica,sans-Serif" font-size="10.00"> const</text>
</a>
</g>
</g>
<!-- Node3&#45;&gt;Node2 -->
<g id="edge2" class="edge">
<title>Node3&#45;&gt;Node2</title>
<path fill="none" stroke="#63b8ff" d="M32.73,-538.2C25.42,-526.14 19.02,-513.16 14.96,-500 -5.63,-433.33 -4.08,-410.13 14.96,-343 19.6,-326.63 27.35,-310.3 36.03,-295.35"/>
<polygon fill="none" stroke="#63b8ff" points="29.63,-539.84 37.96,-546.39 35.53,-536.08 29.63,-539.84"/>
</g>
<!-- Node4 -->
<g id="node4" class="node">
<title>Node4</title>
<g id="a_node4"><a xlink:href="structkepler_1_1_a_s_t_node.html" target="_top" xlink:title=" ">
<polygon fill="white" stroke="#666666" points="24.46,-365.5 24.46,-477.5 145.46,-477.5 145.46,-365.5 24.46,-365.5"/>
<text text-anchor="middle" x="84.96" y="-465.5" font-family="Helvetica,sans-Serif" font-size="10.00">kepler::ASTNode&lt; T &gt;</text>
<polyline fill="none" stroke="#666666" points="24.46,-458.5 145.46,-458.5"/>
<text text-anchor="middle" x="84.96" y="-446.5" font-family="Helvetica,sans-Serif" font-size="10.00"> </text>
<polyline fill="none" stroke="#666666" points="24.46,-439.5 145.46,-439.5"/>
<text text-anchor="start" x="32.46" y="-427.5" font-family="Helvetica,sans-Serif" font-size="10.00">+ virtual ~ASTNode()</text>
<text text-anchor="start" x="32.46" y="-416.5" font-family="Helvetica,sans-Serif" font-size="10.00">=default</text>
<text text-anchor="start" x="32.46" y="-405.5" font-family="Helvetica,sans-Serif" font-size="10.00">+ virtual T accept(class</text>
<text text-anchor="start" x="32.46" y="-394.5" font-family="Helvetica,sans-Serif" font-size="10.00"> NodeVisitor &amp;visitor)=0</text>
<text text-anchor="start" x="32.46" y="-383.5" font-family="Helvetica,sans-Serif" font-size="10.00">+ virtual std::string</text>
<text text-anchor="start" x="32.46" y="-372.5" font-family="Helvetica,sans-Serif" font-size="10.00"> to_string() const =0</text>
</a>
</g>
</g>
<!-- Node3&#45;&gt;Node4 -->
<g id="edge4" class="edge">
<title>Node3&#45;&gt;Node4</title>
<path fill="none" stroke="#63b8ff" d="M84.96,-536.06C84.96,-516.78 84.96,-495.95 84.96,-477.46"/>
<polygon fill="none" stroke="#63b8ff" points="81.46,-536 84.96,-546 88.46,-536 81.46,-536"/>
</g>
<!-- Node5 -->
<g id="node5" class="node">
<title>Node5</title>
<g id="a_node5"><a xlink:href="structkepler_1_1_token.html" target="_top" xlink:title=" ">
<polygon fill="white" stroke="#666666" points="163.46,-343.5 163.46,-499.5 308.46,-499.5 308.46,-343.5 163.46,-343.5"/>
<text text-anchor="middle" x="235.96" y="-487.5" font-family="Helvetica,sans-Serif" font-size="10.00">kepler::Token</text>
<polyline fill="none" stroke="#666666" points="163.46,-480.5 308.46,-480.5"/>
<text text-anchor="middle" x="235.96" y="-468.5" font-family="Helvetica,sans-Serif" font-size="10.00"> </text>
<polyline fill="none" stroke="#666666" points="163.46,-461.5 308.46,-461.5"/>
<text text-anchor="start" x="171.46" y="-449.5" font-family="Helvetica,sans-Serif" font-size="10.00">+ Token(long pos, TokenType</text>
<text text-anchor="start" x="171.46" y="-438.5" font-family="Helvetica,sans-Serif" font-size="10.00"> type_, Char content_)</text>
<text text-anchor="start" x="171.46" y="-427.5" font-family="Helvetica,sans-Serif" font-size="10.00">+ Token(long pos, TokenType</text>
<text text-anchor="start" x="171.46" y="-416.5" font-family="Helvetica,sans-Serif" font-size="10.00"> type_, String content_)</text>
<text text-anchor="start" x="171.46" y="-405.5" font-family="Helvetica,sans-Serif" font-size="10.00">+ Token(TokenType type</text>
<text text-anchor="start" x="171.46" y="-394.5" font-family="Helvetica,sans-Serif" font-size="10.00">_, String content_)</text>
<text text-anchor="start" x="171.46" y="-383.5" font-family="Helvetica,sans-Serif" font-size="10.00">+ Token(long pos, TokenType</text>
<text text-anchor="start" x="171.46" y="-372.5" font-family="Helvetica,sans-Serif" font-size="10.00"> type_)</text>
<text text-anchor="start" x="171.46" y="-361.5" font-family="Helvetica,sans-Serif" font-size="10.00">+ std::string to_string</text>
<text text-anchor="start" x="171.46" y="-350.5" font-family="Helvetica,sans-Serif" font-size="10.00">() const</text>
</a>
</g>
</g>
<!-- Node3&#45;&gt;Node5 -->
<g id="edge6" class="edge">
<title>Node3&#45;&gt;Node5</title>
<path fill="none" stroke="#63b8ff" d="M138.38,-538.81C149.09,-526.05 160.45,-512.5 171.49,-499.35"/>
<polygon fill="none" stroke="#63b8ff" points="135.8,-536.45 132.06,-546.36 141.17,-540.94 135.8,-536.45"/>
</g>
<!-- Node4&#45;&gt;Node2 -->
<g id="edge3" class="edge">
<title>Node4&#45;&gt;Node2</title>
<path fill="none" stroke="orange" d="M84.96,-354.19C84.96,-335.11 84.96,-314.3 84.96,-295.25"/>
<polygon fill="orange" stroke="orange" points="81.46,-354 84.96,-364 88.46,-354 81.46,-354"/>
<text text-anchor="middle" x="124.96" y="-317" font-family="Helvetica,sans-Serif" font-size="10.00"> &lt; Operation_ptr &gt;</text>
</g>
<!-- Node5&#45;&gt;Node1 -->
<g id="edge5" class="edge">
<title>Node5&#45;&gt;Node1</title>
<path fill="none" stroke="#404040" d="M217.29,-343.81C202.31,-282.23 181.41,-196.34 166.68,-135.81"/>
<polygon fill="none" stroke="#404040" points="166.68,-135.84 161.38,-130.95 163.85,-124.18 169.15,-129.06 166.68,-135.84"/>
<text text-anchor="middle" x="228.96" y="-226" font-family="Helvetica,sans-Serif" font-size="10.00"> +identifier</text>
</g>
<!-- Node6 -->
<g id="node6" class="node">
<title>Node6</title>
<g id="a_node6"><a xlink:title=" ">
<polygon fill="white" stroke="#666666" points="182.96,-575 182.96,-632 246.96,-632 246.96,-575 182.96,-575"/>
<text text-anchor="middle" x="214.96" y="-620" font-family="Helvetica,sans-Serif" font-size="10.00">TokenType</text>
<polyline fill="none" stroke="#666666" points="182.96,-613 246.96,-613"/>
<text text-anchor="middle" x="214.96" y="-601" font-family="Helvetica,sans-Serif" font-size="10.00"> </text>
<polyline fill="none" stroke="#666666" points="182.96,-594 246.96,-594"/>
<text text-anchor="middle" x="214.96" y="-582" font-family="Helvetica,sans-Serif" font-size="10.00"> </text>
</a>
</g>
</g>
<!-- Node6&#45;&gt;Node5 -->
<g id="edge7" class="edge">
<title>Node6&#45;&gt;Node5</title>
<path fill="none" stroke="#404040" d="M218.15,-575.16C220.14,-558.07 222.84,-534.99 225.52,-511.95"/>
<polygon fill="none" stroke="#404040" points="225.52,-512.01 222.24,-505.59 226.91,-500.09 230.18,-506.52 225.52,-512.01"/>
<text text-anchor="middle" x="238.96" y="-521" font-family="Helvetica,sans-Serif" font-size="10.00"> +type</text>
</g>
<!-- Node7 -->
<g id="node7" class="node">
<title>Node7</title>
<g id="a_node7"><a xlink:title=" ">
<polygon fill="white" stroke="#666666" points="264.96,-569.5 264.96,-637.5 370.96,-637.5 370.96,-569.5 264.96,-569.5"/>
<text text-anchor="start" x="272.96" y="-625.5" font-family="Helvetica,sans-Serif" font-size="10.00">optional&lt; std::vector</text>
<text text-anchor="middle" x="317.96" y="-614.5" font-family="Helvetica,sans-Serif" font-size="10.00">&lt; Char &gt; &gt;</text>
<polyline fill="none" stroke="#666666" points="264.96,-607.5 370.96,-607.5"/>
<text text-anchor="middle" x="317.96" y="-595.5" font-family="Helvetica,sans-Serif" font-size="10.00"> </text>
<polyline fill="none" stroke="#666666" points="264.96,-588.5 370.96,-588.5"/>
<text text-anchor="middle" x="317.96" y="-576.5" font-family="Helvetica,sans-Serif" font-size="10.00"> </text>
</a>
</g>
</g>
<!-- Node7&#45;&gt;Node5 -->
<g id="edge8" class="edge">
<title>Node7&#45;&gt;Node5</title>
<path fill="none" stroke="#404040" d="M303.11,-569.9C295.52,-553.23 285.87,-532.06 276.27,-510.99"/>
<polygon fill="none" stroke="#404040" points="276.31,-511.07 270.18,-507.27 271.33,-500.15 277.46,-503.95 276.31,-511.07"/>
<text text-anchor="middle" x="305.96" y="-521" font-family="Helvetica,sans-Serif" font-size="10.00"> +content</text>
</g>
</g>
</svg>
