<?xml version="1.0" encoding="UTF-8" standalone="no"?>
<!DOCTYPE svg PUBLIC "-//W3C//DTD SVG 1.1//EN"
 "http://www.w3.org/Graphics/SVG/1.1/DTD/svg11.dtd">
<!-- Generated by graphviz version 7.1.0 (20230121.1956)
 -->
<!-- Title: kepler::ArrowUp::operator() Pages: 1 -->
<svg width="430pt" height="187pt"
 viewBox="0.00 0.00 430.00 186.50" xmlns="http://www.w3.org/2000/svg" xmlns:xlink="http://www.w3.org/1999/xlink">
<g id="graph0" class="graph" transform="scale(1 1) rotate(0) translate(4 182.5)">
<title>kepler::ArrowUp::operator()</title>
<!-- Node1 -->
<g id="node1" class="node">
<title>Node1</title>
<g id="a_node1"><a xlink:title=" ">
<polygon fill="#999999" stroke="#666666" points="134,-93 0,-93 0,-74 134,-74 134,-93"/>
<text text-anchor="middle" x="67" y="-81" font-family="Helvetica,sans-Serif" font-size="10.00">kepler::ArrowUp::operator()</text>
</a>
</g>
</g>
<!-- Node2 -->
<g id="node2" class="node">
<title>Node2</title>
<g id="a_node2"><a xlink:href="structkepler_1_1_array.html#aeba04f1c5287e3e0cbbefa7db410267d" target="_top" xlink:title=" ">
<polygon fill="white" stroke="#666666" points="290,-178.5 170,-178.5 170,-148.5 290,-148.5 290,-178.5"/>
<text text-anchor="start" x="178" y="-166.5" font-family="Helvetica,sans-Serif" font-size="10.00">kepler::Array::is_integer</text>
<text text-anchor="middle" x="230" y="-155.5" font-family="Helvetica,sans-Serif" font-size="10.00">_numeric</text>
</a>
</g>
</g>
<!-- Node1&#45;&gt;Node2 -->
<g id="edge1" class="edge">
<title>Node1&#45;&gt;Node2</title>
<path fill="none" stroke="#63b8ff" d="M84.65,-93.42C104.59,-105.12 139.17,-124.83 170,-139.5 172.9,-140.88 175.91,-142.26 178.95,-143.61"/>
<polygon fill="#63b8ff" stroke="#63b8ff" points="177.41,-146.76 187.98,-147.52 180.19,-140.34 177.41,-146.76"/>
</g>
<!-- Node3 -->
<g id="node3" class="node">
<title>Node3</title>
<g id="a_node3"><a xlink:href="structkepler_1_1_array.html#ae82484749f93ec527be3eff64ddf3d37" target="_top" xlink:title=" ">
<polygon fill="white" stroke="#666666" points="288.5,-130 171.5,-130 171.5,-111 288.5,-111 288.5,-130"/>
<text text-anchor="middle" x="230" y="-118" font-family="Helvetica,sans-Serif" font-size="10.00">kepler::Array::is_scalar</text>
</a>
</g>
</g>
<!-- Node1&#45;&gt;Node3 -->
<g id="edge2" class="edge">
<title>Node1&#45;&gt;Node3</title>
<path fill="none" stroke="#63b8ff" d="M111.15,-93.42C130.64,-97.89 153.88,-103.24 174.55,-107.99"/>
<polygon fill="#63b8ff" stroke="#63b8ff" points="173.73,-111.39 184.26,-110.22 175.3,-104.57 173.73,-111.39"/>
</g>
<!-- Node4 -->
<g id="node4" class="node">
<title>Node4</title>
<g id="a_node4"><a xlink:href="structkepler_1_1_array.html#a5701013e5ec1699d7d8663bba09cfcdb" target="_top" xlink:title=" ">
<polygon fill="white" stroke="#666666" points="278.5,-93 181.5,-93 181.5,-74 278.5,-74 278.5,-93"/>
<text text-anchor="middle" x="230" y="-81" font-family="Helvetica,sans-Serif" font-size="10.00">kepler::Array::rank</text>
</a>
</g>
</g>
<!-- Node1&#45;&gt;Node4 -->
<g id="edge3" class="edge">
<title>Node1&#45;&gt;Node4</title>
<path fill="none" stroke="#63b8ff" d="M134.41,-83.5C146.24,-83.5 158.48,-83.5 170.08,-83.5"/>
<polygon fill="#63b8ff" stroke="#63b8ff" points="169.91,-87 179.91,-83.5 169.91,-80 169.91,-87"/>
</g>
<!-- Node5 -->
<g id="node5" class="node">
<title>Node5</title>
<g id="a_node5"><a xlink:href="namespacekepler.html#a9c26d292ba4263ed7f68f4f1ede08fbb" target="_top" xlink:title=" ">
<polygon fill="white" stroke="#666666" points="271.5,-56 188.5,-56 188.5,-37 271.5,-37 271.5,-56"/>
<text text-anchor="middle" x="230" y="-44" font-family="Helvetica,sans-Serif" font-size="10.00">kepler::reshape</text>
</a>
</g>
</g>
<!-- Node1&#45;&gt;Node5 -->
<g id="edge4" class="edge">
<title>Node1&#45;&gt;Node5</title>
<path fill="none" stroke="#63b8ff" d="M111.15,-73.58C131.44,-68.92 155.8,-63.32 177.09,-58.43"/>
<polygon fill="#63b8ff" stroke="#63b8ff" points="177.79,-61.86 186.76,-56.21 176.23,-55.04 177.79,-61.86"/>
</g>
<!-- Node7 -->
<g id="node7" class="node">
<title>Node7</title>
<g id="a_node7"><a xlink:href="structkepler_1_1_array.html#a98194b5409eace27b9eae7dcac74e350" target="_top" xlink:title=" ">
<polygon fill="white" stroke="#666666" points="422,-19 326,-19 326,0 422,0 422,-19"/>
<text text-anchor="middle" x="374" y="-7" font-family="Helvetica,sans-Serif" font-size="10.00">kepler::Array::size</text>
</a>
</g>
</g>
<!-- Node1&#45;&gt;Node7 -->
<g id="edge7" class="edge">
<title>Node1&#45;&gt;Node7</title>
<path fill="none" stroke="#63b8ff" d="M81.69,-73.54C100.53,-60.44 135.98,-37.85 170,-27.5 217.08,-13.18 272.93,-9.11 314.12,-8.37"/>
<polygon fill="#63b8ff" stroke="#63b8ff" points="314.12,-11.87 324.09,-8.26 314.05,-4.87 314.12,-11.87"/>
</g>
<!-- Node6 -->
<g id="node6" class="node">
<title>Node6</title>
<g id="a_node6"><a xlink:href="namespacekepler.html#afce205dbe450fbcc7234f5a42f565eae" target="_top" xlink:title=" ">
<polygon fill="white" stroke="#666666" points="406.5,-56 341.5,-56 341.5,-37 406.5,-37 406.5,-56"/>
<text text-anchor="middle" x="374" y="-44" font-family="Helvetica,sans-Serif" font-size="10.00">kepler::pad</text>
</a>
</g>
</g>
<!-- Node5&#45;&gt;Node6 -->
<g id="edge5" class="edge">
<title>Node5&#45;&gt;Node6</title>
<path fill="none" stroke="#63b8ff" d="M271.69,-46.5C289.93,-46.5 311.45,-46.5 329.96,-46.5"/>
<polygon fill="#63b8ff" stroke="#63b8ff" points="329.81,-50 339.81,-46.5 329.81,-43 329.81,-50"/>
</g>
<!-- Node5&#45;&gt;Node7 -->
<g id="edge6" class="edge">
<title>Node5&#45;&gt;Node7</title>
<path fill="none" stroke="#63b8ff" d="M269.05,-36.58C285.85,-32.21 305.8,-27.01 323.71,-22.34"/>
<polygon fill="#63b8ff" stroke="#63b8ff" points="324.58,-25.73 333.38,-19.82 322.82,-18.96 324.58,-25.73"/>
</g>
</g>
</svg>
