<?xml version="1.0" encoding="UTF-8" standalone="no"?>
<!DOCTYPE svg PUBLIC "-//W3C//DTD SVG 1.1//EN"
 "http://www.w3.org/Graphics/SVG/1.1/DTD/svg11.dtd">
<!-- Generated by graphviz version 7.1.0 (20230121.1956)
 -->
<!-- Title: kepler::DyadicOperator Pages: 1 -->
<svg width="221pt" height="713pt"
 viewBox="0.00 0.00 220.50 713.00" xmlns="http://www.w3.org/2000/svg" xmlns:xlink="http://www.w3.org/1999/xlink">
<g id="graph0" class="graph" transform="scale(1 1) rotate(0) translate(4 709)">
<title>kepler::DyadicOperator</title>
<!-- Node1 -->
<g id="node1" class="node">
<title>Node1</title>
<g id="a_node1"><a xlink:title=" ">
<polygon fill="#999999" stroke="#666666" points="0,-0.5 0,-222.5 158,-222.5 158,-0.5 0,-0.5"/>
<text text-anchor="middle" x="79" y="-210.5" font-family="Helvetica,sans-Serif" font-size="10.00">kepler::DyadicOperator</text>
<polyline fill="none" stroke="#666666" points="0,-203.5 158,-203.5"/>
<text text-anchor="start" x="8" y="-191.5" font-family="Helvetica,sans-Serif" font-size="10.00">+ Token token</text>
<text text-anchor="start" x="8" y="-180.5" font-family="Helvetica,sans-Serif" font-size="10.00">+ ASTNode&lt; Operation</text>
<text text-anchor="start" x="8" y="-169.5" font-family="Helvetica,sans-Serif" font-size="10.00">_ptr &gt; * left</text>
<text text-anchor="start" x="8" y="-158.5" font-family="Helvetica,sans-Serif" font-size="10.00">+ std::variant&lt; ASTNode</text>
<text text-anchor="start" x="8" y="-147.5" font-family="Helvetica,sans-Serif" font-size="10.00">&lt; Operation_ptr &gt; *,</text>
<text text-anchor="start" x="8" y="-136.5" font-family="Helvetica,sans-Serif" font-size="10.00"> ASTNode&lt; Array &gt; * &gt; right</text>
<polyline fill="none" stroke="#666666" points="0,-129.5 158,-129.5"/>
<text text-anchor="start" x="8" y="-117.5" font-family="Helvetica,sans-Serif" font-size="10.00">+ ~DyadicOperator()</text>
<text text-anchor="start" x="8" y="-106.5" font-family="Helvetica,sans-Serif" font-size="10.00">+ DyadicOperator(Token</text>
<text text-anchor="start" x="8" y="-95.5" font-family="Helvetica,sans-Serif" font-size="10.00"> token_, ASTNode&lt; Operation</text>
<text text-anchor="start" x="8" y="-84.5" font-family="Helvetica,sans-Serif" font-size="10.00">_ptr &gt; *left_, std::variant</text>
<text text-anchor="start" x="8" y="-73.5" font-family="Helvetica,sans-Serif" font-size="10.00">&lt; ASTNode&lt; Operation_ptr &gt;</text>
<text text-anchor="start" x="8" y="-62.5" font-family="Helvetica,sans-Serif" font-size="10.00"> *, ASTNode&lt; Array &gt; * &gt; right_)</text>
<text text-anchor="start" x="8" y="-51.5" font-family="Helvetica,sans-Serif" font-size="10.00">+ std::string to_string</text>
<text text-anchor="start" x="8" y="-40.5" font-family="Helvetica,sans-Serif" font-size="10.00">() const override</text>
<text text-anchor="start" x="8" y="-29.5" font-family="Helvetica,sans-Serif" font-size="10.00">+ Operation_ptr accept</text>
<text text-anchor="start" x="8" y="-18.5" font-family="Helvetica,sans-Serif" font-size="10.00">(NodeVisitor &amp;visitor)</text>
<text text-anchor="start" x="8" y="-7.5" font-family="Helvetica,sans-Serif" font-size="10.00"> override</text>
</a>
</g>
</g>
<!-- Node2 -->
<g id="node2" class="node">
<title>Node2</title>
<g id="a_node2"><a xlink:href="structkepler_1_1_a_s_t_node.html" target="_top" xlink:title=" ">
<polygon fill="white" stroke="#666666" points="7.5,-260.5 7.5,-394.5 150.5,-394.5 150.5,-260.5 7.5,-260.5"/>
<text text-anchor="start" x="15.5" y="-382.5" font-family="Helvetica,sans-Serif" font-size="10.00">kepler::ASTNode&lt; Operation</text>
<text text-anchor="middle" x="79" y="-371.5" font-family="Helvetica,sans-Serif" font-size="10.00">_ptr &gt;</text>
<polyline fill="none" stroke="#666666" points="7.5,-364.5 150.5,-364.5"/>
<text text-anchor="middle" x="79" y="-352.5" font-family="Helvetica,sans-Serif" font-size="10.00"> </text>
<polyline fill="none" stroke="#666666" points="7.5,-345.5 150.5,-345.5"/>
<text text-anchor="start" x="15.5" y="-333.5" font-family="Helvetica,sans-Serif" font-size="10.00">+ virtual ~ASTNode()</text>
<text text-anchor="start" x="15.5" y="-322.5" font-family="Helvetica,sans-Serif" font-size="10.00">=default</text>
<text text-anchor="start" x="15.5" y="-311.5" font-family="Helvetica,sans-Serif" font-size="10.00">+ virtual Operation_ptr</text>
<text text-anchor="start" x="15.5" y="-300.5" font-family="Helvetica,sans-Serif" font-size="10.00"> accept(class NodeVisitor</text>
<text text-anchor="start" x="15.5" y="-289.5" font-family="Helvetica,sans-Serif" font-size="10.00"> &amp;visitor)=0</text>
<text text-anchor="start" x="15.5" y="-278.5" font-family="Helvetica,sans-Serif" font-size="10.00">+ virtual std::string</text>
<text text-anchor="start" x="15.5" y="-267.5" font-family="Helvetica,sans-Serif" font-size="10.00"> to_string() const=0</text>
</a>
</g>
</g>
<!-- Node2&#45;&gt;Node1 -->
<g id="edge1" class="edge">
<title>Node2&#45;&gt;Node1</title>
<path fill="none" stroke="#63b8ff" d="M79,-249.22C79,-240.47 79,-231.42 79,-222.35"/>
<polygon fill="none" stroke="#63b8ff" points="75.5,-249.03 79,-259.03 82.5,-249.03 75.5,-249.03"/>
</g>
<!-- Node3 -->
<g id="node3" class="node">
<title>Node3</title>
<g id="a_node3"><a xlink:href="structkepler_1_1position.html" target="_top" xlink:title=" ">
<polygon fill="white" stroke="#666666" points="15,-592.5 15,-704.5 135,-704.5 135,-592.5 15,-592.5"/>
<text text-anchor="middle" x="75" y="-692.5" font-family="Helvetica,sans-Serif" font-size="10.00">kepler::position</text>
<polyline fill="none" stroke="#666666" points="15,-685.5 135,-685.5"/>
<text text-anchor="middle" x="75" y="-673.5" font-family="Helvetica,sans-Serif" font-size="10.00"> </text>
<polyline fill="none" stroke="#666666" points="15,-666.5 135,-666.5"/>
<text text-anchor="start" x="23" y="-654.5" font-family="Helvetica,sans-Serif" font-size="10.00">+ position()</text>
<text text-anchor="start" x="23" y="-643.5" font-family="Helvetica,sans-Serif" font-size="10.00">+ position(long pos_)</text>
<text text-anchor="start" x="23" y="-632.5" font-family="Helvetica,sans-Serif" font-size="10.00">+ void set_position(long</text>
<text text-anchor="start" x="23" y="-621.5" font-family="Helvetica,sans-Serif" font-size="10.00"> new_pos)</text>
<text text-anchor="start" x="23" y="-610.5" font-family="Helvetica,sans-Serif" font-size="10.00">+ long get_position()</text>
<text text-anchor="start" x="23" y="-599.5" font-family="Helvetica,sans-Serif" font-size="10.00"> const</text>
</a>
</g>
</g>
<!-- Node3&#45;&gt;Node2 -->
<g id="edge2" class="edge">
<title>Node3&#45;&gt;Node2</title>
<path fill="none" stroke="#63b8ff" d="M75.83,-581.34C76.52,-526.58 77.49,-449.18 78.17,-394.48"/>
<polygon fill="none" stroke="#63b8ff" points="72.33,-581.11 75.71,-591.15 79.33,-581.19 72.33,-581.11"/>
</g>
<!-- Node4 -->
<g id="node4" class="node">
<title>Node4</title>
<g id="a_node4"><a xlink:href="structkepler_1_1_a_s_t_node.html" target="_top" xlink:title=" ">
<polygon fill="white" stroke="#666666" points="91.5,-442.5 91.5,-554.5 212.5,-554.5 212.5,-442.5 91.5,-442.5"/>
<text text-anchor="middle" x="152" y="-542.5" font-family="Helvetica,sans-Serif" font-size="10.00">kepler::ASTNode&lt; T &gt;</text>
<polyline fill="none" stroke="#666666" points="91.5,-535.5 212.5,-535.5"/>
<text text-anchor="middle" x="152" y="-523.5" font-family="Helvetica,sans-Serif" font-size="10.00"> </text>
<polyline fill="none" stroke="#666666" points="91.5,-516.5 212.5,-516.5"/>
<text text-anchor="start" x="99.5" y="-504.5" font-family="Helvetica,sans-Serif" font-size="10.00">+ virtual ~ASTNode()</text>
<text text-anchor="start" x="99.5" y="-493.5" font-family="Helvetica,sans-Serif" font-size="10.00">=default</text>
<text text-anchor="start" x="99.5" y="-482.5" font-family="Helvetica,sans-Serif" font-size="10.00">+ virtual T accept(class</text>
<text text-anchor="start" x="99.5" y="-471.5" font-family="Helvetica,sans-Serif" font-size="10.00"> NodeVisitor &amp;visitor)=0</text>
<text text-anchor="start" x="99.5" y="-460.5" font-family="Helvetica,sans-Serif" font-size="10.00">+ virtual std::string</text>
<text text-anchor="start" x="99.5" y="-449.5" font-family="Helvetica,sans-Serif" font-size="10.00"> to_string() const =0</text>
</a>
</g>
</g>
<!-- Node3&#45;&gt;Node4 -->
<g id="edge4" class="edge">
<title>Node3&#45;&gt;Node4</title>
<path fill="none" stroke="#63b8ff" d="M108.71,-582.7C113.61,-573.28 118.62,-563.66 123.41,-554.46"/>
<polygon fill="none" stroke="#63b8ff" points="105.66,-580.98 104.15,-591.47 111.87,-584.21 105.66,-580.98"/>
</g>
<!-- Node4&#45;&gt;Node2 -->
<g id="edge3" class="edge">
<title>Node4&#45;&gt;Node2</title>
<path fill="none" stroke="orange" d="M123.85,-432.32C118.46,-419.85 112.81,-406.78 107.42,-394.29"/>
<polygon fill="orange" stroke="orange" points="120.52,-433.45 127.7,-441.24 126.95,-430.67 120.52,-433.45"/>
<text text-anchor="middle" x="159" y="-416" font-family="Helvetica,sans-Serif" font-size="10.00"> &lt; Operation_ptr &gt;</text>
</g>
</g>
</svg>
