<?xml version="1.0" encoding="UTF-8" standalone="no"?>
<!DOCTYPE svg PUBLIC "-//W3C//DTD SVG 1.1//EN"
 "http://www.w3.org/Graphics/SVG/1.1/DTD/svg11.dtd">
<!-- Generated by graphviz version 7.1.0 (20230121.1956)
 -->
<!-- Title: kepler::Function Pages: 1 -->
<svg width="381pt" height="657pt"
 viewBox="0.00 0.00 380.96 657.00" xmlns="http://www.w3.org/2000/svg" xmlns:xlink="http://www.w3.org/1999/xlink">
<g id="graph0" class="graph" transform="scale(1 1) rotate(0) translate(4 653)">
<title>kepler::Function</title>
<!-- Node1 -->
<g id="node1" class="node">
<title>Node1</title>
<g id="a_node1"><a xlink:title=" ">
<polygon fill="#999999" stroke="#666666" points="85.96,-0.5 85.96,-112.5 213.96,-112.5 213.96,-0.5 85.96,-0.5"/>
<text text-anchor="middle" x="149.96" y="-100.5" font-family="Helvetica,sans-Serif" font-size="10.00">kepler::Function</text>
<polyline fill="none" stroke="#666666" points="85.96,-93.5 213.96,-93.5"/>
<text text-anchor="middle" x="149.96" y="-81.5" font-family="Helvetica,sans-Serif" font-size="10.00"> </text>
<polyline fill="none" stroke="#666666" points="85.96,-74.5 213.96,-74.5"/>
<text text-anchor="start" x="93.96" y="-62.5" font-family="Helvetica,sans-Serif" font-size="10.00">+ Function(Token token_)</text>
<text text-anchor="start" x="93.96" y="-51.5" font-family="Helvetica,sans-Serif" font-size="10.00">+ std::string to_string</text>
<text text-anchor="start" x="93.96" y="-40.5" font-family="Helvetica,sans-Serif" font-size="10.00">() const override</text>
<text text-anchor="start" x="93.96" y="-29.5" font-family="Helvetica,sans-Serif" font-size="10.00">+ Operation_ptr accept</text>
<text text-anchor="start" x="93.96" y="-18.5" font-family="Helvetica,sans-Serif" font-size="10.00">(NodeVisitor &amp;visitor)</text>
<text text-anchor="start" x="93.96" y="-7.5" font-family="Helvetica,sans-Serif" font-size="10.00"> override</text>
</a>
</g>
</g>
<!-- Node2 -->
<g id="node2" class="node">
<title>Node2</title>
<g id="a_node2"><a xlink:href="structkepler_1_1_a_s_t_node.html" target="_top" xlink:title=" ">
<polygon fill="white" stroke="#666666" points="13.46,-150.5 13.46,-284.5 156.46,-284.5 156.46,-150.5 13.46,-150.5"/>
<text text-anchor="start" x="21.46" y="-272.5" font-family="Helvetica,sans-Serif" font-size="10.00">kepler::ASTNode&lt; Operation</text>
<text text-anchor="middle" x="84.96" y="-261.5" font-family="Helvetica,sans-Serif" font-size="10.00">_ptr &gt;</text>
<polyline fill="none" stroke="#666666" points="13.46,-254.5 156.46,-254.5"/>
<text text-anchor="middle" x="84.96" y="-242.5" font-family="Helvetica,sans-Serif" font-size="10.00"> </text>
<polyline fill="none" stroke="#666666" points="13.46,-235.5 156.46,-235.5"/>
<text text-anchor="start" x="21.46" y="-223.5" font-family="Helvetica,sans-Serif" font-size="10.00">+ virtual ~ASTNode()</text>
<text text-anchor="start" x="21.46" y="-212.5" font-family="Helvetica,sans-Serif" font-size="10.00">=default</text>
<text text-anchor="start" x="21.46" y="-201.5" font-family="Helvetica,sans-Serif" font-size="10.00">+ virtual Operation_ptr</text>
<text text-anchor="start" x="21.46" y="-190.5" font-family="Helvetica,sans-Serif" font-size="10.00"> accept(class NodeVisitor</text>
<text text-anchor="start" x="21.46" y="-179.5" font-family="Helvetica,sans-Serif" font-size="10.00"> &amp;visitor)=0</text>
<text text-anchor="start" x="21.46" y="-168.5" font-family="Helvetica,sans-Serif" font-size="10.00">+ virtual std::string</text>
<text text-anchor="start" x="21.46" y="-157.5" font-family="Helvetica,sans-Serif" font-size="10.00"> to_string() const=0</text>
</a>
</g>
</g>
<!-- Node2&#45;&gt;Node1 -->
<g id="edge1" class="edge">
<title>Node2&#45;&gt;Node1</title>
<path fill="none" stroke="#63b8ff" d="M116.11,-140.3C119.97,-130.86 123.86,-121.35 127.55,-112.31"/>
<polygon fill="none" stroke="#63b8ff" points="112.89,-138.93 112.34,-149.51 119.37,-141.58 112.89,-138.93"/>
</g>
<!-- Node3 -->
<g id="node3" class="node">
<title>Node3</title>
<g id="a_node3"><a xlink:href="structkepler_1_1position.html" target="_top" xlink:title=" ">
<polygon fill="white" stroke="#666666" points="24.96,-536.5 24.96,-648.5 144.96,-648.5 144.96,-536.5 24.96,-536.5"/>
<text text-anchor="middle" x="84.96" y="-636.5" font-family="Helvetica,sans-Serif" font-size="10.00">kepler::position</text>
<polyline fill="none" stroke="#666666" points="24.96,-629.5 144.96,-629.5"/>
<text text-anchor="middle" x="84.96" y="-617.5" font-family="Helvetica,sans-Serif" font-size="10.00"> </text>
<polyline fill="none" stroke="#666666" points="24.96,-610.5 144.96,-610.5"/>
<text text-anchor="start" x="32.96" y="-598.5" font-family="Helvetica,sans-Serif" font-size="10.00">+ position()</text>
<text text-anchor="start" x="32.96" y="-587.5" font-family="Helvetica,sans-Serif" font-size="10.00">+ position(long pos_)</text>
<text text-anchor="start" x="32.96" y="-576.5" font-family="Helvetica,sans-Serif" font-size="10.00">+ void set_position(long</text>
<text text-anchor="start" x="32.96" y="-565.5" font-family="Helvetica,sans-Serif" font-size="10.00"> new_pos)</text>
<text text-anchor="start" x="32.96" y="-554.5" font-family="Helvetica,sans-Serif" font-size="10.00">+ long get_position()</text>
<text text-anchor="start" x="32.96" y="-543.5" font-family="Helvetica,sans-Serif" font-size="10.00"> const</text>
</a>
</g>
</g>
<!-- Node3&#45;&gt;Node2 -->
<g id="edge2" class="edge">
<title>Node3&#45;&gt;Node2</title>
<path fill="none" stroke="#63b8ff" d="M32.73,-527.2C25.42,-515.14 19.02,-502.16 14.96,-489 -5.63,-422.33 -4.08,-399.13 14.96,-332 19.6,-315.63 27.35,-299.3 36.03,-284.35"/>
<polygon fill="none" stroke="#63b8ff" points="29.63,-528.84 37.96,-535.39 35.53,-525.08 29.63,-528.84"/>
</g>
<!-- Node4 -->
<g id="node4" class="node">
<title>Node4</title>
<g id="a_node4"><a xlink:href="structkepler_1_1_a_s_t_node.html" target="_top" xlink:title=" ">
<polygon fill="white" stroke="#666666" points="24.46,-354.5 24.46,-466.5 145.46,-466.5 145.46,-354.5 24.46,-354.5"/>
<text text-anchor="middle" x="84.96" y="-454.5" font-family="Helvetica,sans-Serif" font-size="10.00">kepler::ASTNode&lt; T &gt;</text>
<polyline fill="none" stroke="#666666" points="24.46,-447.5 145.46,-447.5"/>
<text text-anchor="middle" x="84.96" y="-435.5" font-family="Helvetica,sans-Serif" font-size="10.00"> </text>
<polyline fill="none" stroke="#666666" points="24.46,-428.5 145.46,-428.5"/>
<text text-anchor="start" x="32.46" y="-416.5" font-family="Helvetica,sans-Serif" font-size="10.00">+ virtual ~ASTNode()</text>
<text text-anchor="start" x="32.46" y="-405.5" font-family="Helvetica,sans-Serif" font-size="10.00">=default</text>
<text text-anchor="start" x="32.46" y="-394.5" font-family="Helvetica,sans-Serif" font-size="10.00">+ virtual T accept(class</text>
<text text-anchor="start" x="32.46" y="-383.5" font-family="Helvetica,sans-Serif" font-size="10.00"> NodeVisitor &amp;visitor)=0</text>
<text text-anchor="start" x="32.46" y="-372.5" font-family="Helvetica,sans-Serif" font-size="10.00">+ virtual std::string</text>
<text text-anchor="start" x="32.46" y="-361.5" font-family="Helvetica,sans-Serif" font-size="10.00"> to_string() const =0</text>
</a>
</g>
</g>
<!-- Node3&#45;&gt;Node4 -->
<g id="edge4" class="edge">
<title>Node3&#45;&gt;Node4</title>
<path fill="none" stroke="#63b8ff" d="M84.96,-525.06C84.96,-505.78 84.96,-484.95 84.96,-466.46"/>
<polygon fill="none" stroke="#63b8ff" points="81.46,-525 84.96,-535 88.46,-525 81.46,-525"/>
</g>
<!-- Node5 -->
<g id="node5" class="node">
<title>Node5</title>
<g id="a_node5"><a xlink:href="structkepler_1_1_token.html" target="_top" xlink:title=" ">
<polygon fill="white" stroke="#666666" points="163.96,-332.5 163.96,-488.5 315.96,-488.5 315.96,-332.5 163.96,-332.5"/>
<text text-anchor="middle" x="239.96" y="-476.5" font-family="Helvetica,sans-Serif" font-size="10.00">kepler::Token</text>
<polyline fill="none" stroke="#666666" points="163.96,-469.5 315.96,-469.5"/>
<text text-anchor="middle" x="239.96" y="-457.5" font-family="Helvetica,sans-Serif" font-size="10.00"> </text>
<polyline fill="none" stroke="#666666" points="163.96,-450.5 315.96,-450.5"/>
<text text-anchor="start" x="171.96" y="-438.5" font-family="Helvetica,sans-Serif" font-size="10.00">+ Token(long pos, TokenType</text>
<text text-anchor="start" x="171.96" y="-427.5" font-family="Helvetica,sans-Serif" font-size="10.00"> type_, Char content_)</text>
<text text-anchor="start" x="171.96" y="-416.5" font-family="Helvetica,sans-Serif" font-size="10.00">+ Token(long pos, TokenType</text>
<text text-anchor="start" x="171.96" y="-405.5" font-family="Helvetica,sans-Serif" font-size="10.00"> type_, std::u32string content_)</text>
<text text-anchor="start" x="171.96" y="-394.5" font-family="Helvetica,sans-Serif" font-size="10.00">+ Token(TokenType type</text>
<text text-anchor="start" x="171.96" y="-383.5" font-family="Helvetica,sans-Serif" font-size="10.00">_, std::u32string content_)</text>
<text text-anchor="start" x="171.96" y="-372.5" font-family="Helvetica,sans-Serif" font-size="10.00">+ Token(long pos, TokenType</text>
<text text-anchor="start" x="171.96" y="-361.5" font-family="Helvetica,sans-Serif" font-size="10.00"> type_)</text>
<text text-anchor="start" x="171.96" y="-350.5" font-family="Helvetica,sans-Serif" font-size="10.00">+ std::string to_string</text>
<text text-anchor="start" x="171.96" y="-339.5" font-family="Helvetica,sans-Serif" font-size="10.00">() const</text>
</a>
</g>
</g>
<!-- Node3&#45;&gt;Node5 -->
<g id="edge6" class="edge">
<title>Node3&#45;&gt;Node5</title>
<path fill="none" stroke="#63b8ff" d="M139.8,-527.81C150.79,-515.05 162.45,-501.5 173.79,-488.35"/>
<polygon fill="none" stroke="#63b8ff" points="137.17,-525.51 133.29,-535.37 142.47,-530.08 137.17,-525.51"/>
</g>
<!-- Node4&#45;&gt;Node2 -->
<g id="edge3" class="edge">
<title>Node4&#45;&gt;Node2</title>
<path fill="none" stroke="orange" d="M84.96,-343.19C84.96,-324.11 84.96,-303.3 84.96,-284.25"/>
<polygon fill="orange" stroke="orange" points="81.46,-343 84.96,-353 88.46,-343 81.46,-343"/>
<text text-anchor="middle" x="124.96" y="-306" font-family="Helvetica,sans-Serif" font-size="10.00"> &lt; Operation_ptr &gt;</text>
</g>
<!-- Node5&#45;&gt;Node1 -->
<g id="edge5" class="edge">
<title>Node5&#45;&gt;Node1</title>
<path fill="none" stroke="#404040" d="M220.32,-332.69C204.47,-270.68 182.38,-184.29 167.2,-124.94"/>
<polygon fill="none" stroke="#404040" points="167.17,-124.83 161.81,-120.01 164.2,-113.2 169.56,-118.02 167.17,-124.83"/>
<text text-anchor="middle" x="224.96" y="-215" font-family="Helvetica,sans-Serif" font-size="10.00"> +token</text>
</g>
<!-- Node6 -->
<g id="node6" class="node">
<title>Node6</title>
<g id="a_node6"><a xlink:title=" ">
<polygon fill="white" stroke="#666666" points="184.96,-564 184.96,-621 248.96,-621 248.96,-564 184.96,-564"/>
<text text-anchor="middle" x="216.96" y="-609" font-family="Helvetica,sans-Serif" font-size="10.00">TokenType</text>
<polyline fill="none" stroke="#666666" points="184.96,-602 248.96,-602"/>
<text text-anchor="middle" x="216.96" y="-590" font-family="Helvetica,sans-Serif" font-size="10.00"> </text>
<polyline fill="none" stroke="#666666" points="184.96,-583 248.96,-583"/>
<text text-anchor="middle" x="216.96" y="-571" font-family="Helvetica,sans-Serif" font-size="10.00"> </text>
</a>
</g>
</g>
<!-- Node6&#45;&gt;Node5 -->
<g id="edge7" class="edge">
<title>Node6&#45;&gt;Node5</title>
<path fill="none" stroke="#404040" d="M220.45,-564.16C222.64,-547.07 225.59,-523.99 228.53,-500.95"/>
<polygon fill="none" stroke="#404040" points="228.52,-501 225.32,-494.54 230.04,-489.09 233.25,-495.55 228.52,-501"/>
<text text-anchor="middle" x="241.96" y="-510" font-family="Helvetica,sans-Serif" font-size="10.00"> +type</text>
</g>
<!-- Node7 -->
<g id="node7" class="node">
<title>Node7</title>
<g id="a_node7"><a xlink:title=" ">
<polygon fill="white" stroke="#666666" points="266.96,-558.5 266.96,-626.5 372.96,-626.5 372.96,-558.5 266.96,-558.5"/>
<text text-anchor="start" x="274.96" y="-614.5" font-family="Helvetica,sans-Serif" font-size="10.00">optional&lt; std::vector</text>
<text text-anchor="middle" x="319.96" y="-603.5" font-family="Helvetica,sans-Serif" font-size="10.00">&lt; Char &gt; &gt;</text>
<polyline fill="none" stroke="#666666" points="266.96,-596.5 372.96,-596.5"/>
<text text-anchor="middle" x="319.96" y="-584.5" font-family="Helvetica,sans-Serif" font-size="10.00"> </text>
<polyline fill="none" stroke="#666666" points="266.96,-577.5 372.96,-577.5"/>
<text text-anchor="middle" x="319.96" y="-565.5" font-family="Helvetica,sans-Serif" font-size="10.00"> </text>
</a>
</g>
</g>
<!-- Node7&#45;&gt;Node5 -->
<g id="edge8" class="edge">
<title>Node7&#45;&gt;Node5</title>
<path fill="none" stroke="#404040" d="M305.47,-558.9C298.06,-542.23 288.65,-521.06 279.29,-499.99"/>
<polygon fill="none" stroke="#404040" points="279.34,-500.12 273.25,-496.26 274.47,-489.15 280.56,-493.01 279.34,-500.12"/>
<text text-anchor="middle" x="308.96" y="-510" font-family="Helvetica,sans-Serif" font-size="10.00"> +content</text>
</g>
</g>
</svg>
