<?xml version="1.0" encoding="UTF-8" standalone="no"?>
<!DOCTYPE svg PUBLIC "-//W3C//DTD SVG 1.1//EN"
 "http://www.w3.org/Graphics/SVG/1.1/DTD/svg11.dtd">
<!-- Generated by graphviz version 7.1.0 (20230121.1956)
 -->
<!-- Title: kepler::MonadicOperator::to_string Pages: 1 -->
<svg width="408pt" height="76pt"
 viewBox="0.00 0.00 408.00 75.50" xmlns="http://www.w3.org/2000/svg" xmlns:xlink="http://www.w3.org/1999/xlink">
<g id="graph0" class="graph" transform="scale(1 1) rotate(0) translate(4 71.5)">
<title>kepler::MonadicOperator::to_string</title>
<!-- Node1 -->
<g id="node1" class="node">
<title>Node1</title>
<g id="a_node1"><a xlink:title=" ">
<polygon fill="#999999" stroke="#666666" points="123,-51 0,-51 0,-21 123,-21 123,-51"/>
<text text-anchor="start" x="8" y="-39" font-family="Helvetica,sans-Serif" font-size="10.00">kepler::MonadicOperator</text>
<text text-anchor="middle" x="61.5" y="-28" font-family="Helvetica,sans-Serif" font-size="10.00">::to_string</text>
</a>
</g>
</g>
<!-- Node2 -->
<g id="node2" class="node">
<title>Node2</title>
<g id="a_node2"><a xlink:href="structkepler_1_1_token.html#aa138d51909b8ce9e3435d7ba9864e6be" target="_top" xlink:title=" ">
<polygon fill="white" stroke="#666666" points="278,-67.5 159,-67.5 159,-48.5 278,-48.5 278,-67.5"/>
<text text-anchor="middle" x="218.5" y="-55.5" font-family="Helvetica,sans-Serif" font-size="10.00">kepler::Token::to_string</text>
</a>
</g>
</g>
<!-- Node1&#45;&gt;Node2 -->
<g id="edge1" class="edge">
<title>Node1&#45;&gt;Node2</title>
<path fill="none" stroke="#63b8ff" d="M123.32,-44.63C131.21,-45.75 139.35,-46.91 147.39,-48.05"/>
<polygon fill="#63b8ff" stroke="#63b8ff" points="146.74,-51.49 157.14,-49.43 147.73,-44.56 146.74,-51.49"/>
</g>
<!-- Node4 -->
<g id="node4" class="node">
<title>Node4</title>
<g id="a_node4"><a xlink:href="structkepler_1_1_a_s_t_node.html#a0824700896d42c783deaacfde0d94ba8" target="_top" xlink:title=" ">
<polygon fill="white" stroke="#666666" points="271.5,-30 165.5,-30 165.5,0 271.5,0 271.5,-30"/>
<text text-anchor="start" x="173.5" y="-18" font-family="Helvetica,sans-Serif" font-size="10.00">kepler::ASTNode::to</text>
<text text-anchor="middle" x="218.5" y="-7" font-family="Helvetica,sans-Serif" font-size="10.00">_string</text>
</a>
</g>
</g>
<!-- Node1&#45;&gt;Node4 -->
<g id="edge3" class="edge">
<title>Node1&#45;&gt;Node4</title>
<path fill="none" stroke="#63b8ff" d="M123.32,-27.76C133.42,-26.39 143.92,-24.97 154.09,-23.59"/>
<polygon fill="#63b8ff" stroke="#63b8ff" points="154.45,-27.07 163.89,-22.26 153.51,-20.14 154.45,-27.07"/>
</g>
<!-- Node3 -->
<g id="node3" class="node">
<title>Node3</title>
<g id="a_node3"><a xlink:href="namespacekepler.html#a76d95d0e078e053088ec440c6e878ab3" target="_top" xlink:title=" ">
<polygon fill="white" stroke="#666666" points="400,-67.5 314,-67.5 314,-48.5 400,-48.5 400,-67.5"/>
<text text-anchor="middle" x="357" y="-55.5" font-family="Helvetica,sans-Serif" font-size="10.00">kepler::to_string</text>
</a>
</g>
</g>
<!-- Node2&#45;&gt;Node3 -->
<g id="edge2" class="edge">
<title>Node2&#45;&gt;Node3</title>
<path fill="none" stroke="#63b8ff" d="M278.18,-58C286.24,-58 294.48,-58 302.44,-58"/>
<polygon fill="#63b8ff" stroke="#63b8ff" points="302.34,-61.5 312.34,-58 302.34,-54.5 302.34,-61.5"/>
</g>
</g>
</svg>
