<?xml version="1.0" encoding="UTF-8" standalone="no"?>
<!DOCTYPE svg PUBLIC "-//W3C//DTD SVG 1.1//EN"
 "http://www.w3.org/Graphics/SVG/1.1/DTD/svg11.dtd">
<!-- Generated by graphviz version 7.1.0 (20230121.1956)
 -->
<!-- Title: kepler::Interpreter::visit Pages: 1 -->
<svg width="465pt" height="272pt"
 viewBox="0.00 0.00 465.00 272.00" xmlns="http://www.w3.org/2000/svg" xmlns:xlink="http://www.w3.org/1999/xlink">
<g id="graph0" class="graph" transform="scale(1 1) rotate(0) translate(4 268)">
<title>kepler::Interpreter::visit</title>
<!-- Node1 -->
<g id="node1" class="node">
<title>Node1</title>
<g id="a_node1"><a xlink:title=" ">
<polygon fill="#999999" stroke="#666666" points="93,-143.5 0,-143.5 0,-113.5 93,-113.5 93,-143.5"/>
<text text-anchor="start" x="8" y="-131.5" font-family="Helvetica,sans-Serif" font-size="10.00">kepler::Interpreter</text>
<text text-anchor="middle" x="46.5" y="-120.5" font-family="Helvetica,sans-Serif" font-size="10.00">::visit</text>
</a>
</g>
</g>
<!-- Node2 -->
<g id="node2" class="node">
<title>Node2</title>
<g id="a_node2"><a xlink:href="structkepler_1_1_a_s_t_node.html#a05bfe92973fce5532d1bdc50fc9b56eb" target="_top" xlink:title=" ">
<polygon fill="white" stroke="#666666" points="276,-264 149,-264 149,-245 276,-245 276,-264"/>
<text text-anchor="middle" x="212.5" y="-252" font-family="Helvetica,sans-Serif" font-size="10.00">kepler::ASTNode::accept</text>
</a>
</g>
</g>
<!-- Node1&#45;&gt;Node2 -->
<g id="edge1" class="edge">
<title>Node1&#45;&gt;Node2</title>
<path fill="none" stroke="#63b8ff" d="M54.84,-143.99C66.88,-167.61 93.09,-212.33 129,-235.5 131.93,-237.39 135.03,-239.1 138.23,-240.63"/>
<polygon fill="#63b8ff" stroke="#63b8ff" points="136.8,-243.83 147.38,-244.4 139.47,-237.36 136.8,-243.83"/>
</g>
<!-- Node3 -->
<g id="node3" class="node">
<title>Node3</title>
<g id="a_node3"><a xlink:href="namespacekepler_1_1constants.html#aab9ab312a9b1f53017e59153beb8c0b5" target="_top" xlink:title=" ">
<polygon fill="white" stroke="#666666" points="296,-208.5 129,-208.5 129,-178.5 296,-178.5 296,-208.5"/>
<text text-anchor="start" x="137" y="-196.5" font-family="Helvetica,sans-Serif" font-size="10.00">kepler::constants::</text>
<text text-anchor="middle" x="212.5" y="-185.5" font-family="Helvetica,sans-Serif" font-size="10.00">check_valid_system_param_value</text>
</a>
</g>
</g>
<!-- Node1&#45;&gt;Node3 -->
<g id="edge2" class="edge">
<title>Node1&#45;&gt;Node3</title>
<path fill="none" stroke="#63b8ff" d="M80.96,-143.98C95.59,-150.57 113.04,-158.18 129,-164.5 137.24,-167.76 146.01,-171.04 154.64,-174.17"/>
<polygon fill="#63b8ff" stroke="#63b8ff" points="153.42,-177.45 164.02,-177.51 155.78,-170.86 153.42,-177.45"/>
</g>
<!-- Node5 -->
<g id="node5" class="node">
<title>Node5</title>
<g id="a_node5"><a xlink:href="classkepler_1_1_symbol_table.html#a57403652693faf5adf05509f540520e9" target="_top" xlink:title=" ">
<polygon fill="white" stroke="#666666" points="447,-107.5 342,-107.5 342,-77.5 447,-77.5 447,-107.5"/>
<text text-anchor="start" x="350" y="-95.5" font-family="Helvetica,sans-Serif" font-size="10.00">kepler::SymbolTable</text>
<text text-anchor="middle" x="394.5" y="-84.5" font-family="Helvetica,sans-Serif" font-size="10.00">::contains</text>
</a>
</g>
</g>
<!-- Node1&#45;&gt;Node5 -->
<g id="edge5" class="edge">
<title>Node1&#45;&gt;Node5</title>
<path fill="none" stroke="#63b8ff" d="M93.33,-134.52C143.57,-139.86 226.31,-144.92 296,-131.5 315.57,-127.73 336.2,-120.07 353.43,-112.53"/>
<polygon fill="#63b8ff" stroke="#63b8ff" points="354.63,-115.83 362.29,-108.51 351.74,-109.45 354.63,-115.83"/>
</g>
<!-- Node6 -->
<g id="node6" class="node">
<title>Node6</title>
<g id="a_node6"><a xlink:href="structkepler_1_1position.html#ae2562200674c270ac36e3736cf943332" target="_top" xlink:title=" ">
<polygon fill="white" stroke="#666666" points="263.5,-122.5 161.5,-122.5 161.5,-92.5 263.5,-92.5 263.5,-122.5"/>
<text text-anchor="start" x="169.5" y="-110.5" font-family="Helvetica,sans-Serif" font-size="10.00">kepler::position::get</text>
<text text-anchor="middle" x="212.5" y="-99.5" font-family="Helvetica,sans-Serif" font-size="10.00">_position</text>
</a>
</g>
</g>
<!-- Node1&#45;&gt;Node6 -->
<g id="edge7" class="edge">
<title>Node1&#45;&gt;Node6</title>
<path fill="none" stroke="#63b8ff" d="M93.18,-122.65C110.77,-120.4 131.15,-117.79 149.98,-115.38"/>
<polygon fill="#63b8ff" stroke="#63b8ff" points="150.19,-118.88 159.67,-114.14 149.3,-111.94 150.19,-118.88"/>
</g>
<!-- Node7 -->
<g id="node7" class="node">
<title>Node7</title>
<g id="a_node7"><a xlink:href="classkepler_1_1_symbol_table.html#a928b41896a0c0f1b5eef23ae3f35c3b3" target="_top" xlink:title=" ">
<polygon fill="white" stroke="#666666" points="275,-56 150,-56 150,-37 275,-37 275,-56"/>
<text text-anchor="middle" x="212.5" y="-44" font-family="Helvetica,sans-Serif" font-size="10.00">kepler::SymbolTable::set</text>
</a>
</g>
</g>
<!-- Node1&#45;&gt;Node7 -->
<g id="edge8" class="edge">
<title>Node1&#45;&gt;Node7</title>
<path fill="none" stroke="#63b8ff" d="M74,-113.14C89.8,-104.17 110.35,-92.81 129,-83.5 144.82,-75.6 162.7,-67.49 177.75,-60.88"/>
<polygon fill="#63b8ff" stroke="#63b8ff" points="178.98,-64.16 186.76,-56.96 176.19,-57.74 178.98,-64.16"/>
</g>
<!-- Node8 -->
<g id="node8" class="node">
<title>Node8</title>
<g id="a_node8"><a xlink:href="structkepler_1_1_array.html#afccb5c77a5934c2bcdfed7032b381ced" target="_top" xlink:title=" ">
<polygon fill="white" stroke="#666666" points="270.5,-19 154.5,-19 154.5,0 270.5,0 270.5,-19"/>
<text text-anchor="middle" x="212.5" y="-7" font-family="Helvetica,sans-Serif" font-size="10.00">kepler::Array::to_string</text>
</a>
</g>
</g>
<!-- Node1&#45;&gt;Node8 -->
<g id="edge11" class="edge">
<title>Node1&#45;&gt;Node8</title>
<path fill="none" stroke="#63b8ff" d="M55.45,-113.09C67.93,-90.55 94.3,-48.93 129,-27.5 133.52,-24.71 138.41,-22.35 143.48,-20.35"/>
<polygon fill="#63b8ff" stroke="#63b8ff" points="144.3,-23.77 152.63,-17.23 142.04,-17.14 144.3,-23.77"/>
</g>
<!-- Node3&#45;&gt;Node3 -->
<g id="edge3" class="edge">
<title>Node3&#45;&gt;Node3</title>
<path fill="none" stroke="#63b8ff" d="M183.32,-208.78C176.84,-217.91 186.56,-226.5 212.5,-226.5 226.68,-226.5 236.02,-223.93 240.51,-220.11"/>
<polygon fill="#63b8ff" stroke="#63b8ff" points="243.98,-220.59 241.52,-210.28 237.01,-219.87 243.98,-220.59"/>
</g>
<!-- Node4 -->
<g id="node4" class="node">
<title>Node4</title>
<g id="a_node4"><a xlink:href="structkepler_1_1_array.html#a9d4e4ca37cd263142d76ca0a56346991" target="_top" xlink:title=" ">
<polygon fill="white" stroke="#666666" points="447,-203 342,-203 342,-184 447,-184 447,-203"/>
<text text-anchor="middle" x="394.5" y="-191" font-family="Helvetica,sans-Serif" font-size="10.00">kepler::Array::empty</text>
</a>
</g>
</g>
<!-- Node3&#45;&gt;Node4 -->
<g id="edge4" class="edge">
<title>Node3&#45;&gt;Node4</title>
<path fill="none" stroke="#63b8ff" d="M296.39,-193.5C307.82,-193.5 319.41,-193.5 330.41,-193.5"/>
<polygon fill="#63b8ff" stroke="#63b8ff" points="330.12,-197 340.12,-193.5 330.12,-190 330.12,-197"/>
</g>
<!-- Node5&#45;&gt;Node5 -->
<g id="edge6" class="edge">
<title>Node5&#45;&gt;Node5</title>
<path fill="none" stroke="#63b8ff" d="M362.51,-107.78C355.4,-116.91 366.06,-125.5 394.5,-125.5 410.05,-125.5 420.29,-122.93 425.21,-119.11"/>
<polygon fill="#63b8ff" stroke="#63b8ff" points="428.67,-119.61 426.32,-109.28 421.72,-118.82 428.67,-119.61"/>
</g>
<!-- Node7&#45;&gt;Node5 -->
<g id="edge9" class="edge">
<title>Node7&#45;&gt;Node5</title>
<path fill="none" stroke="#63b8ff" d="M252.56,-56.48C275.36,-62.31 304.66,-69.8 330.63,-76.43"/>
<polygon fill="#63b8ff" stroke="#63b8ff" points="329.51,-79.76 340.07,-78.85 331.25,-72.98 329.51,-79.76"/>
</g>
<!-- Node7&#45;&gt;Node7 -->
<g id="edge10" class="edge">
<title>Node7&#45;&gt;Node7</title>
<path fill="none" stroke="#63b8ff" d="M186.51,-56.37C174.66,-64.94 183.32,-74 212.5,-74 228.91,-74 238.84,-71.13 242.27,-67.1"/>
<polygon fill="#63b8ff" stroke="#63b8ff" points="245.61,-66.07 238.99,-57.8 239.01,-68.39 245.61,-66.07"/>
</g>
<!-- Node9 -->
<g id="node9" class="node">
<title>Node9</title>
<g id="a_node9"><a xlink:href="classkepler_1_1_symbol_table.html#a1d080f6571e21935f800524195b5e5a7" target="_top" xlink:title=" ">
<polygon fill="white" stroke="#666666" points="457,-19 332,-19 332,0 457,0 457,-19"/>
<text text-anchor="middle" x="394.5" y="-7" font-family="Helvetica,sans-Serif" font-size="10.00">kepler::SymbolTable::get</text>
</a>
</g>
</g>
<!-- Node8&#45;&gt;Node9 -->
<g id="edge12" class="edge">
<title>Node8&#45;&gt;Node9</title>
<path fill="none" stroke="#63b8ff" d="M270.95,-9.5C286.66,-9.5 303.91,-9.5 320.38,-9.5"/>
<polygon fill="#63b8ff" stroke="#63b8ff" points="320.11,-13 330.11,-9.5 320.11,-6 320.11,-13"/>
</g>
</g>
</svg>
