<?xml version="1.0" encoding="UTF-8" standalone="no"?>
<!DOCTYPE svg PUBLIC "-//W3C//DTD SVG 1.1//EN"
 "http://www.w3.org/Graphics/SVG/1.1/DTD/svg11.dtd">
<!-- Generated by graphviz version 7.1.0 (20230121.1956)
 -->
<!-- Title: kepler::CircleBar::operator() Pages: 1 -->
<svg width="722pt" height="301pt"
 viewBox="0.00 0.00 722.00 300.50" xmlns="http://www.w3.org/2000/svg" xmlns:xlink="http://www.w3.org/1999/xlink">
<g id="graph0" class="graph" transform="scale(1 1) rotate(0) translate(4 296.5)">
<title>kepler::CircleBar::operator()</title>
<!-- Node1 -->
<g id="node1" class="node">
<title>Node1</title>
<g id="a_node1"><a xlink:title=" ">
<polygon fill="#999999" stroke="#666666" points="95,-192.5 0,-192.5 0,-162.5 95,-162.5 95,-192.5"/>
<text text-anchor="start" x="8" y="-180.5" font-family="Helvetica,sans-Serif" font-size="10.00">kepler::CircleBar::</text>
<text text-anchor="middle" x="47.5" y="-169.5" font-family="Helvetica,sans-Serif" font-size="10.00">operator()</text>
</a>
</g>
</g>
<!-- Node2 -->
<g id="node2" class="node">
<title>Node2</title>
<g id="a_node2"><a xlink:href="structkepler_1_1_array.html#aeba04f1c5287e3e0cbbefa7db410267d" target="_top" xlink:title=" ">
<polygon fill="white" stroke="#666666" points="253.5,-292.5 133.5,-292.5 133.5,-262.5 253.5,-262.5 253.5,-292.5"/>
<text text-anchor="start" x="141.5" y="-280.5" font-family="Helvetica,sans-Serif" font-size="10.00">kepler::Array::is_integer</text>
<text text-anchor="middle" x="193.5" y="-269.5" font-family="Helvetica,sans-Serif" font-size="10.00">_numeric</text>
</a>
</g>
</g>
<!-- Node1&#45;&gt;Node2 -->
<g id="edge1" class="edge">
<title>Node1&#45;&gt;Node2</title>
<path fill="none" stroke="#63b8ff" d="M61.75,-192.73C77.03,-209.5 103.58,-236.38 131,-253.5 132.97,-254.73 135.02,-255.92 137.12,-257.07"/>
<polygon fill="#63b8ff" stroke="#63b8ff" points="135.34,-260.09 145.86,-261.41 138.46,-253.82 135.34,-260.09"/>
</g>
<!-- Node3 -->
<g id="node3" class="node">
<title>Node3</title>
<g id="a_node3"><a xlink:href="structkepler_1_1_array.html#add830056588269ea267c11f89b14f774" target="_top" xlink:title=" ">
<polygon fill="white" stroke="#666666" points="256,-244 131,-244 131,-225 256,-225 256,-244"/>
<text text-anchor="middle" x="193.5" y="-232" font-family="Helvetica,sans-Serif" font-size="10.00">kepler::Array::is_numeric</text>
</a>
</g>
</g>
<!-- Node1&#45;&gt;Node3 -->
<g id="edge2" class="edge">
<title>Node1&#45;&gt;Node3</title>
<path fill="none" stroke="#63b8ff" d="M86.67,-192.85C100.61,-198.43 116.51,-204.77 131,-210.5 139.15,-213.72 147.92,-217.16 156.22,-220.4"/>
<polygon fill="#63b8ff" stroke="#63b8ff" points="154.75,-223.58 165.34,-223.96 157.29,-217.06 154.75,-223.58"/>
</g>
<!-- Node4 -->
<g id="node4" class="node">
<title>Node4</title>
<g id="a_node4"><a xlink:href="structkepler_1_1_array.html#ae82484749f93ec527be3eff64ddf3d37" target="_top" xlink:title=" ">
<polygon fill="white" stroke="#666666" points="714,-203 597,-203 597,-184 714,-184 714,-203"/>
<text text-anchor="middle" x="655.5" y="-191" font-family="Helvetica,sans-Serif" font-size="10.00">kepler::Array::is_scalar</text>
</a>
</g>
</g>
<!-- Node1&#45;&gt;Node4 -->
<g id="edge3" class="edge">
<title>Node1&#45;&gt;Node4</title>
<path fill="none" stroke="#63b8ff" d="M95.17,-180.65C106.86,-181.35 119.39,-182.03 131,-182.5 293.73,-189.14 485.08,-191.87 585.3,-192.92"/>
<polygon fill="#63b8ff" stroke="#63b8ff" points="585.22,-196.42 595.25,-193.02 585.29,-189.42 585.22,-196.42"/>
</g>
<!-- Node5 -->
<g id="node5" class="node">
<title>Node5</title>
<g id="a_node5"><a xlink:href="structkepler_1_1_array.html#a31e9d1137447bf3402d6278c41569f5e" target="_top" xlink:title=" ">
<polygon fill="white" stroke="#666666" points="561,-168.5 442,-168.5 442,-138.5 561,-138.5 561,-168.5"/>
<text text-anchor="start" x="450" y="-156.5" font-family="Helvetica,sans-Serif" font-size="10.00">kepler::Array::is_simple</text>
<text text-anchor="middle" x="501.5" y="-145.5" font-family="Helvetica,sans-Serif" font-size="10.00">_scalar</text>
</a>
</g>
</g>
<!-- Node1&#45;&gt;Node5 -->
<g id="edge4" class="edge">
<title>Node1&#45;&gt;Node5</title>
<path fill="none" stroke="#63b8ff" d="M95.17,-175.02C174.74,-170.8 337.1,-162.18 430.38,-157.22"/>
<polygon fill="#63b8ff" stroke="#63b8ff" points="430.36,-160.73 440.16,-156.7 429.99,-153.74 430.36,-160.73"/>
</g>
<!-- Node7 -->
<g id="node7" class="node">
<title>Node7</title>
<g id="a_node7"><a xlink:href="namespacekepler.html#a2e0061e6ccc074df0dabcaf61f4517b8" target="_top" xlink:title=" ">
<polygon fill="white" stroke="#666666" points="230.5,-93 156.5,-93 156.5,-74 230.5,-74 230.5,-93"/>
<text text-anchor="middle" x="193.5" y="-81" font-family="Helvetica,sans-Serif" font-size="10.00">kepler::rotate</text>
</a>
</g>
</g>
<!-- Node1&#45;&gt;Node7 -->
<g id="edge7" class="edge">
<title>Node1&#45;&gt;Node7</title>
<path fill="none" stroke="#63b8ff" d="M71.96,-162.19C98.39,-144.94 141.15,-117.02 168,-99.49"/>
<polygon fill="#63b8ff" stroke="#63b8ff" points="169.72,-102.55 176.18,-94.15 165.89,-96.69 169.72,-102.55"/>
</g>
<!-- Node12 -->
<g id="node12" class="node">
<title>Node12</title>
<g id="a_node12"><a xlink:href="structkepler_1_1_array.html#a98194b5409eace27b9eae7dcac74e350" target="_top" xlink:title=" ">
<polygon fill="white" stroke="#666666" points="397,-19 301,-19 301,0 397,0 397,-19"/>
<text text-anchor="middle" x="349" y="-7" font-family="Helvetica,sans-Serif" font-size="10.00">kepler::Array::size</text>
</a>
</g>
</g>
<!-- Node1&#45;&gt;Node12 -->
<g id="edge14" class="edge">
<title>Node1&#45;&gt;Node12</title>
<path fill="none" stroke="#63b8ff" d="M55.43,-162.05C67.26,-137.47 93.77,-89.66 131,-64.5 178.35,-32.51 242.9,-19.12 289.26,-13.52"/>
<polygon fill="#63b8ff" stroke="#63b8ff" points="289.58,-17.01 299.13,-12.43 288.81,-10.05 289.58,-17.01"/>
</g>
<!-- Node5&#45;&gt;Node4 -->
<g id="edge6" class="edge">
<title>Node5&#45;&gt;Node4</title>
<path fill="none" stroke="#63b8ff" d="M561.27,-168.97C575.9,-172.82 591.43,-176.9 605.54,-180.62"/>
<polygon fill="#63b8ff" stroke="#63b8ff" points="604.48,-183.95 615.04,-183.12 606.26,-177.19 604.48,-183.95"/>
</g>
<!-- Node6 -->
<g id="node6" class="node">
<title>Node6</title>
<g id="a_node6"><a xlink:href="structkepler_1_1_array.html#a9d4e4ca37cd263142d76ca0a56346991" target="_top" xlink:title=" ">
<polygon fill="white" stroke="#666666" points="708,-163 603,-163 603,-144 708,-144 708,-163"/>
<text text-anchor="middle" x="655.5" y="-151" font-family="Helvetica,sans-Serif" font-size="10.00">kepler::Array::empty</text>
</a>
</g>
</g>
<!-- Node5&#45;&gt;Node6 -->
<g id="edge5" class="edge">
<title>Node5&#45;&gt;Node6</title>
<path fill="none" stroke="#63b8ff" d="M561.27,-153.5C571.11,-153.5 581.37,-153.5 591.32,-153.5"/>
<polygon fill="#63b8ff" stroke="#63b8ff" points="591.31,-157 601.31,-153.5 591.31,-150 591.31,-157"/>
</g>
<!-- Node8 -->
<g id="node8" class="node">
<title>Node8</title>
<g id="a_node8"><a xlink:href="namespacekepler.html#ad171f0351cbb21e92ca7ea0cc0bbd317" target="_top" xlink:title=" ">
<polygon fill="white" stroke="#666666" points="406,-93 292,-93 292,-74 406,-74 406,-93"/>
<text text-anchor="middle" x="349" y="-81" font-family="Helvetica,sans-Serif" font-size="10.00">kepler::get_block_size</text>
</a>
</g>
</g>
<!-- Node7&#45;&gt;Node8 -->
<g id="edge8" class="edge">
<title>Node7&#45;&gt;Node8</title>
<path fill="none" stroke="#63b8ff" d="M230.88,-83.5C245.79,-83.5 263.54,-83.5 280.65,-83.5"/>
<polygon fill="#63b8ff" stroke="#63b8ff" points="280.26,-87 290.26,-83.5 280.26,-80 280.26,-87"/>
</g>
<!-- Node10 -->
<g id="node10" class="node">
<title>Node10</title>
<g id="a_node10"><a xlink:href="namespacekepler.html#a39278d07695647da0a30c3b209c7a4d7" target="_top" xlink:title=" ">
<polygon fill="white" stroke="#666666" points="392,-130 306,-130 306,-111 392,-111 392,-130"/>
<text text-anchor="middle" x="349" y="-118" font-family="Helvetica,sans-Serif" font-size="10.00">kepler::get_shift</text>
</a>
</g>
</g>
<!-- Node7&#45;&gt;Node10 -->
<g id="edge10" class="edge">
<title>Node7&#45;&gt;Node10</title>
<path fill="none" stroke="#63b8ff" d="M230.88,-92.27C250.19,-96.92 274.27,-102.73 295.57,-107.86"/>
<polygon fill="#63b8ff" stroke="#63b8ff" points="294.72,-111.26 305.27,-110.2 296.36,-104.45 294.72,-111.26"/>
</g>
<!-- Node11 -->
<g id="node11" class="node">
<title>Node11</title>
<g id="a_node11"><a xlink:href="namespacekepler.html#a381bfabdccfab574253acbb27e3d8df2" target="_top" xlink:title=" ">
<polygon fill="white" stroke="#666666" points="404,-56 294,-56 294,-37 404,-37 404,-56"/>
<text text-anchor="middle" x="349" y="-44" font-family="Helvetica,sans-Serif" font-size="10.00">kepler::get_step_size</text>
</a>
</g>
</g>
<!-- Node7&#45;&gt;Node11 -->
<g id="edge12" class="edge">
<title>Node7&#45;&gt;Node11</title>
<path fill="none" stroke="#63b8ff" d="M230.88,-74.73C250.19,-70.08 274.27,-64.27 295.57,-59.14"/>
<polygon fill="#63b8ff" stroke="#63b8ff" points="296.36,-62.55 305.27,-56.8 294.72,-55.74 296.36,-62.55"/>
</g>
<!-- Node7&#45;&gt;Node12 -->
<g id="edge13" class="edge">
<title>Node7&#45;&gt;Node12</title>
<path fill="none" stroke="#63b8ff" d="M209.51,-73.54C228.22,-61.45 261.47,-40.99 292,-27.5 295.36,-26.01 298.89,-24.59 302.46,-23.24"/>
<polygon fill="#63b8ff" stroke="#63b8ff" points="303.54,-26.57 311.79,-19.93 301.2,-19.97 303.54,-26.57"/>
</g>
<!-- Node9 -->
<g id="node9" class="node">
<title>Node9</title>
<g id="a_node9"><a xlink:href="namespacekepler.html#a7f5815983171b78737f0e166e9d89fba" target="_top" xlink:title=" ">
<polygon fill="white" stroke="#666666" points="545.5,-93 457.5,-93 457.5,-74 545.5,-74 545.5,-93"/>
<text text-anchor="middle" x="501.5" y="-81" font-family="Helvetica,sans-Serif" font-size="10.00">kepler::vec_size</text>
</a>
</g>
</g>
<!-- Node8&#45;&gt;Node9 -->
<g id="edge9" class="edge">
<title>Node8&#45;&gt;Node9</title>
<path fill="none" stroke="#63b8ff" d="M406.47,-83.5C419.37,-83.5 433.05,-83.5 445.88,-83.5"/>
<polygon fill="#63b8ff" stroke="#63b8ff" points="445.85,-87 455.85,-83.5 445.84,-80 445.85,-87"/>
</g>
<!-- Node10&#45;&gt;Node5 -->
<g id="edge11" class="edge">
<title>Node10&#45;&gt;Node5</title>
<path fill="none" stroke="#63b8ff" d="M392.32,-129.78C404.28,-132.4 417.61,-135.33 430.73,-138.2"/>
<polygon fill="#63b8ff" stroke="#63b8ff" points="429.66,-141.55 440.17,-140.27 431.16,-134.71 429.66,-141.55"/>
</g>
</g>
</svg>
