<?xml version="1.0" encoding="UTF-8" standalone="no"?>
<!DOCTYPE svg PUBLIC "-//W3C//DTD SVG 1.1//EN"
 "http://www.w3.org/Graphics/SVG/1.1/DTD/svg11.dtd">
<!-- Generated by graphviz version 7.1.0 (20230121.1956)
 -->
<!-- Title: kepler::Array::is_scalar Pages: 1 -->
<svg width="707pt" height="459pt"
 viewBox="0.00 0.00 707.00 459.30" xmlns="http://www.w3.org/2000/svg" xmlns:xlink="http://www.w3.org/1999/xlink">
<g id="graph0" class="graph" transform="scale(1 1) rotate(0) translate(4 455.3)">
<title>kepler::Array::is_scalar</title>
<!-- Node1 -->
<g id="node1" class="node">
<title>Node1</title>
<g id="a_node1"><a xlink:title=" ">
<polygon fill="#999999" stroke="#666666" points="699,-153 582,-153 582,-134 699,-134 699,-153"/>
<text text-anchor="middle" x="640.5" y="-141" font-family="Helvetica,sans-Serif" font-size="10.00">kepler::Array::is_scalar</text>
</a>
</g>
</g>
<!-- Node2 -->
<g id="node2" class="node">
<title>Node2</title>
<g id="a_node2"><a xlink:href="structkepler_1_1_array.html#a31e9d1137447bf3402d6278c41569f5e" target="_top" xlink:title=" ">
<polygon fill="white" stroke="#666666" points="538.5,-310.5 419.5,-310.5 419.5,-280.5 538.5,-280.5 538.5,-310.5"/>
<text text-anchor="start" x="427.5" y="-298.5" font-family="Helvetica,sans-Serif" font-size="10.00">kepler::Array::is_simple</text>
<text text-anchor="middle" x="479" y="-287.5" font-family="Helvetica,sans-Serif" font-size="10.00">_scalar</text>
</a>
</g>
</g>
<!-- Node1&#45;&gt;Node2 -->
<g id="edge1" class="edge">
<title>Node1&#45;&gt;Node2</title>
<path fill="none" stroke="#63b8ff" d="M621.07,-161.06C589.63,-191.03 526.13,-251.54 496.25,-280.02"/>
<polygon fill="#63b8ff" stroke="#63b8ff" points="623.11,-163.95 627.94,-154.52 618.29,-158.88 623.11,-163.95"/>
</g>
<!-- Node5 -->
<g id="node5" class="node">
<title>Node5</title>
<g id="a_node5"><a xlink:href="structkepler_1_1_circle_bar.html#ad4d789ada13f9e9152417c8034abee01" target="_top" xlink:title=" ">
<polygon fill="white" stroke="#666666" points="95,-310.5 0,-310.5 0,-280.5 95,-280.5 95,-310.5"/>
<text text-anchor="start" x="8" y="-298.5" font-family="Helvetica,sans-Serif" font-size="10.00">kepler::CircleBar::</text>
<text text-anchor="middle" x="47.5" y="-287.5" font-family="Helvetica,sans-Serif" font-size="10.00">operator()</text>
</a>
</g>
</g>
<!-- Node1&#45;&gt;Node5 -->
<g id="edge11" class="edge">
<title>Node1&#45;&gt;Node5</title>
<path fill="none" stroke="#63b8ff" d="M632.33,-163.94C619.32,-198.86 589.16,-270.9 546,-319.5 484.93,-388.27 463.77,-410.02 376,-437.5 318.74,-455.43 298,-456.25 241,-437.5 163.28,-411.94 91.18,-341.63 62.08,-310.58"/>
<polygon fill="#63b8ff" stroke="#63b8ff" points="635.57,-165.26 635.69,-154.67 628.99,-162.88 635.57,-165.26"/>
</g>
<!-- Node6 -->
<g id="node6" class="node">
<title>Node6</title>
<g id="a_node6"><a xlink:href="structkepler_1_1_circle_stile.html#a29677d4fd43e1db4bacaddc636efa189" target="_top" xlink:title=" ">
<polygon fill="white" stroke="#666666" points="94.5,-234.5 0.5,-234.5 0.5,-204.5 94.5,-204.5 94.5,-234.5"/>
<text text-anchor="start" x="8.5" y="-222.5" font-family="Helvetica,sans-Serif" font-size="10.00">kepler::CircleStile</text>
<text text-anchor="middle" x="47.5" y="-211.5" font-family="Helvetica,sans-Serif" font-size="10.00">::operator()</text>
</a>
</g>
</g>
<!-- Node1&#45;&gt;Node6 -->
<g id="edge12" class="edge">
<title>Node1&#45;&gt;Node6</title>
<path fill="none" stroke="#63b8ff" d="M583.41,-155.73C571.12,-158.18 558.15,-160.58 546,-162.5 362.65,-191.45 315.36,-187.89 131,-209.5 119.25,-210.88 106.56,-212.4 94.74,-213.83"/>
<polygon fill="#63b8ff" stroke="#63b8ff" points="583.88,-159.21 592.98,-153.78 582.49,-152.35 583.88,-159.21"/>
</g>
<!-- Node10 -->
<g id="node10" class="node">
<title>Node10</title>
<g id="a_node10"><a xlink:href="structkepler_1_1_arrow_up.html#ab1b075f1c3ad3585a1ecbe0bf5e4ed24" target="_top" xlink:title=" ">
<polygon fill="white" stroke="#666666" points="546,-153 412,-153 412,-134 546,-134 546,-153"/>
<text text-anchor="middle" x="479" y="-141" font-family="Helvetica,sans-Serif" font-size="10.00">kepler::ArrowUp::operator()</text>
</a>
</g>
</g>
<!-- Node1&#45;&gt;Node10 -->
<g id="edge13" class="edge">
<title>Node1&#45;&gt;Node10</title>
<path fill="none" stroke="#63b8ff" d="M570.41,-143.5C562.46,-143.5 554.36,-143.5 546.44,-143.5"/>
<polygon fill="#63b8ff" stroke="#63b8ff" points="570.4,-147 580.4,-143.5 570.4,-140 570.4,-147"/>
</g>
<!-- Node11 -->
<g id="node11" class="node">
<title>Node11</title>
<g id="a_node11"><a xlink:href="structkepler_1_1_diaeresis.html#a6c7fc7da4066b5f448a5a9c5bc9c401f" target="_top" xlink:title=" ">
<polygon fill="white" stroke="#666666" points="527,-115.5 431,-115.5 431,-85.5 527,-85.5 527,-115.5"/>
<text text-anchor="start" x="439" y="-103.5" font-family="Helvetica,sans-Serif" font-size="10.00">kepler::Diaeresis::</text>
<text text-anchor="middle" x="479" y="-92.5" font-family="Helvetica,sans-Serif" font-size="10.00">operator()</text>
</a>
</g>
</g>
<!-- Node1&#45;&gt;Node11 -->
<g id="edge14" class="edge">
<title>Node1&#45;&gt;Node11</title>
<path fill="none" stroke="#63b8ff" d="M591.6,-130.59C571.28,-125.11 547.66,-118.74 527.4,-113.28"/>
<polygon fill="#63b8ff" stroke="#63b8ff" points="590.48,-133.91 601.05,-133.13 592.3,-127.15 590.48,-133.91"/>
</g>
<!-- Node12 -->
<g id="node12" class="node">
<title>Node12</title>
<g id="a_node12"><a xlink:href="structkepler_1_1_outer_product.html#a4b0449458081029233704a679beb1d21" target="_top" xlink:title=" ">
<polygon fill="white" stroke="#666666" points="532.5,-67.5 425.5,-67.5 425.5,-37.5 532.5,-37.5 532.5,-67.5"/>
<text text-anchor="start" x="433.5" y="-55.5" font-family="Helvetica,sans-Serif" font-size="10.00">kepler::OuterProduct</text>
<text text-anchor="middle" x="479" y="-44.5" font-family="Helvetica,sans-Serif" font-size="10.00">::operator()</text>
</a>
</g>
</g>
<!-- Node1&#45;&gt;Node12 -->
<g id="edge15" class="edge">
<title>Node1&#45;&gt;Node12</title>
<path fill="none" stroke="#63b8ff" d="M619.5,-126.69C601.25,-111.98 573.08,-90.78 546,-76.5 540.07,-73.37 533.64,-70.48 527.2,-67.87"/>
<polygon fill="#63b8ff" stroke="#63b8ff" points="616.95,-129.13 626.91,-132.76 621.39,-123.72 616.95,-129.13"/>
</g>
<!-- Node13 -->
<g id="node13" class="node">
<title>Node13</title>
<g id="a_node13"><a xlink:href="namespacekepler.html#a2e1be937349f3fa654c55c00517d6761" target="_top" xlink:title=" ">
<polygon fill="white" stroke="#666666" points="510,-19 448,-19 448,0 510,0 510,-19"/>
<text text-anchor="middle" x="479" y="-7" font-family="Helvetica,sans-Serif" font-size="10.00">kepler::rho</text>
</a>
</g>
</g>
<!-- Node1&#45;&gt;Node13 -->
<g id="edge16" class="edge">
<title>Node1&#45;&gt;Node13</title>
<path fill="none" stroke="#63b8ff" d="M628.85,-124.09C613.76,-98.4 583.75,-53.46 546,-28.5 535.36,-21.46 522.08,-16.99 510.23,-14.17"/>
<polygon fill="#63b8ff" stroke="#63b8ff" points="625.64,-125.53 633.63,-132.49 631.73,-122.07 625.64,-125.53"/>
</g>
<!-- Node3 -->
<g id="node3" class="node">
<title>Node3</title>
<g id="a_node3"><a xlink:href="namespacekepler.html#a39278d07695647da0a30c3b209c7a4d7" target="_top" xlink:title=" ">
<polygon fill="white" stroke="#666666" points="351.5,-267 265.5,-267 265.5,-248 351.5,-248 351.5,-267"/>
<text text-anchor="middle" x="308.5" y="-255" font-family="Helvetica,sans-Serif" font-size="10.00">kepler::get_shift</text>
</a>
</g>
</g>
<!-- Node2&#45;&gt;Node3 -->
<g id="edge2" class="edge">
<title>Node2&#45;&gt;Node3</title>
<path fill="none" stroke="#63b8ff" d="M408.01,-279.72C388.97,-275.42 368.94,-270.91 351.95,-267.07"/>
<polygon fill="#63b8ff" stroke="#63b8ff" points="407.07,-283.09 417.59,-281.88 408.61,-276.26 407.07,-283.09"/>
</g>
<!-- Node2&#45;&gt;Node5 -->
<g id="edge6" class="edge">
<title>Node2&#45;&gt;Node5</title>
<path fill="none" stroke="#63b8ff" d="M407.68,-295.5C319.53,-295.5 170.84,-295.5 95.41,-295.5"/>
<polygon fill="#63b8ff" stroke="#63b8ff" points="407.67,-299 417.67,-295.5 407.67,-292 407.67,-299"/>
</g>
<!-- Node2&#45;&gt;Node6 -->
<g id="edge7" class="edge">
<title>Node2&#45;&gt;Node6</title>
<path fill="none" stroke="#63b8ff" d="M447.04,-273.78C427.59,-261.38 401.45,-246.86 376,-239.5 279.01,-211.45 159.33,-212.65 94.87,-216.05"/>
<polygon fill="#63b8ff" stroke="#63b8ff" points="445.01,-276.64 455.29,-279.2 448.85,-270.79 445.01,-276.64"/>
</g>
<!-- Node7 -->
<g id="node7" class="node">
<title>Node7</title>
<g id="a_node7"><a xlink:href="structkepler_1_1_array_printer.html#a258d0cb2d48a33d2324f73e9e63a71f7" target="_top" xlink:title=" ">
<polygon fill="white" stroke="#666666" points="359,-428.5 258,-428.5 258,-398.5 359,-398.5 359,-428.5"/>
<text text-anchor="start" x="266" y="-416.5" font-family="Helvetica,sans-Serif" font-size="10.00">kepler::ArrayPrinter</text>
<text text-anchor="middle" x="308.5" y="-405.5" font-family="Helvetica,sans-Serif" font-size="10.00">::operator()</text>
</a>
</g>
</g>
<!-- Node2&#45;&gt;Node7 -->
<g id="edge8" class="edge">
<title>Node2&#45;&gt;Node7</title>
<path fill="none" stroke="#63b8ff" d="M457.42,-319.21C438.18,-340.15 407.7,-370.26 376,-389.5 370.75,-392.68 365.02,-395.54 359.19,-398.07"/>
<polygon fill="#63b8ff" stroke="#63b8ff" points="459.85,-321.75 463.94,-311.98 454.65,-317.07 459.85,-321.75"/>
</g>
<!-- Node8 -->
<g id="node8" class="node">
<title>Node8</title>
<g id="a_node8"><a xlink:href="structkepler_1_1_power.html#a67d479325a5c7fe90d9d8c66f18f2625" target="_top" xlink:title=" ">
<polygon fill="white" stroke="#666666" points="370.5,-380 246.5,-380 246.5,-361 370.5,-361 370.5,-380"/>
<text text-anchor="middle" x="308.5" y="-368" font-family="Helvetica,sans-Serif" font-size="10.00">kepler::Power::operator()</text>
</a>
</g>
</g>
<!-- Node2&#45;&gt;Node8 -->
<g id="edge9" class="edge">
<title>Node2&#45;&gt;Node8</title>
<path fill="none" stroke="#63b8ff" d="M444.91,-316.72C425.44,-328.51 400,-342.72 376,-352.5 368.47,-355.57 360.25,-358.28 352.23,-360.6"/>
<polygon fill="#63b8ff" stroke="#63b8ff" points="446.54,-319.83 453.22,-311.61 442.87,-313.87 446.54,-319.83"/>
</g>
<!-- Node9 -->
<g id="node9" class="node">
<title>Node9</title>
<g id="a_node9"><a xlink:href="structkepler_1_1_left_shoe.html#a8e54fab10919256786409887381785f4" target="_top" xlink:title=" ">
<polygon fill="white" stroke="#666666" points="376,-343 241,-343 241,-324 376,-324 376,-343"/>
<text text-anchor="middle" x="308.5" y="-331" font-family="Helvetica,sans-Serif" font-size="10.00">kepler::LeftShoe::operator()</text>
</a>
</g>
</g>
<!-- Node2&#45;&gt;Node9 -->
<g id="edge10" class="edge">
<title>Node2&#45;&gt;Node9</title>
<path fill="none" stroke="#63b8ff" d="M408.08,-311.27C389.71,-315.41 370.4,-319.77 353.79,-323.51"/>
<polygon fill="#63b8ff" stroke="#63b8ff" points="408.61,-314.74 417.59,-309.12 407.07,-307.91 408.61,-314.74"/>
</g>
<!-- Node4 -->
<g id="node4" class="node">
<title>Node4</title>
<g id="a_node4"><a xlink:href="namespacekepler.html#a2e0061e6ccc074df0dabcaf61f4517b8" target="_top" xlink:title=" ">
<polygon fill="white" stroke="#666666" points="205,-267 131,-267 131,-248 205,-248 205,-267"/>
<text text-anchor="middle" x="168" y="-255" font-family="Helvetica,sans-Serif" font-size="10.00">kepler::rotate</text>
</a>
</g>
</g>
<!-- Node3&#45;&gt;Node4 -->
<g id="edge3" class="edge">
<title>Node3&#45;&gt;Node4</title>
<path fill="none" stroke="#63b8ff" d="M253.69,-257.5C237.53,-257.5 220.19,-257.5 205.43,-257.5"/>
<polygon fill="#63b8ff" stroke="#63b8ff" points="253.68,-261 263.68,-257.5 253.68,-254 253.68,-261"/>
</g>
<!-- Node4&#45;&gt;Node5 -->
<g id="edge4" class="edge">
<title>Node4&#45;&gt;Node5</title>
<path fill="none" stroke="#63b8ff" d="M125.02,-270.96C115.46,-274.03 105.24,-277.3 95.49,-280.43"/>
<polygon fill="#63b8ff" stroke="#63b8ff" points="125.97,-274.33 134.42,-267.95 123.83,-267.67 125.97,-274.33"/>
</g>
<!-- Node4&#45;&gt;Node6 -->
<g id="edge5" class="edge">
<title>Node4&#45;&gt;Node6</title>
<path fill="none" stroke="#63b8ff" d="M125.08,-244.06C115.21,-240.89 104.64,-237.5 94.59,-234.28"/>
<polygon fill="#63b8ff" stroke="#63b8ff" points="123.83,-247.33 134.42,-247.05 125.97,-240.67 123.83,-247.33"/>
</g>
<!-- Node14 -->
<g id="node14" class="node">
<title>Node14</title>
<g id="a_node14"><a xlink:href="structkepler_1_1_rho.html#af4c3435cbe66a0e278faad380ed11221" target="_top" xlink:title=" ">
<polygon fill="white" stroke="#666666" points="365.5,-19 251.5,-19 251.5,0 365.5,0 365.5,-19"/>
<text text-anchor="middle" x="308.5" y="-7" font-family="Helvetica,sans-Serif" font-size="10.00">kepler::Rho::operator()</text>
</a>
</g>
</g>
<!-- Node13&#45;&gt;Node14 -->
<g id="edge17" class="edge">
<title>Node13&#45;&gt;Node14</title>
<path fill="none" stroke="#63b8ff" d="M436.61,-9.5C415.32,-9.5 389.05,-9.5 365.93,-9.5"/>
<polygon fill="#63b8ff" stroke="#63b8ff" points="436.36,-13 446.36,-9.5 436.36,-6 436.36,-13"/>
</g>
</g>
</svg>
