<?xml version="1.0" encoding="UTF-8" standalone="no"?>
<!DOCTYPE svg PUBLIC "-//W3C//DTD SVG 1.1//EN"
 "http://www.w3.org/Graphics/SVG/1.1/DTD/svg11.dtd">
<!-- Generated by graphviz version 7.1.0 (20230121.1956)
 -->
<!-- Title: kepler::Array Pages: 1 -->
<svg width="218pt" height="380pt"
 viewBox="0.00 0.00 218.00 380.00" xmlns="http://www.w3.org/2000/svg" xmlns:xlink="http://www.w3.org/1999/xlink">
<g id="graph0" class="graph" transform="scale(1 1) rotate(0) translate(4 376)">
<title>kepler::Array</title>
<!-- Node1 -->
<g id="node1" class="node">
<title>Node1</title>
<g id="a_node1"><a xlink:title=" ">
<polygon fill="#999999" stroke="#666666" points="22.5,-0.5 22.5,-266.5 163.5,-266.5 163.5,-0.5 22.5,-0.5"/>
<text text-anchor="middle" x="93" y="-254.5" font-family="Helvetica,sans-Serif" font-size="10.00">kepler::Array</text>
<polyline fill="none" stroke="#666666" points="22.5,-247.5 163.5,-247.5"/>
<text text-anchor="middle" x="93" y="-235.5" font-family="Helvetica,sans-Serif" font-size="10.00"> </text>
<polyline fill="none" stroke="#666666" points="22.5,-228.5 163.5,-228.5"/>
<text text-anchor="start" x="30.5" y="-216.5" font-family="Helvetica,sans-Serif" font-size="10.00">+ Array(std::vector</text>
<text text-anchor="start" x="30.5" y="-205.5" font-family="Helvetica,sans-Serif" font-size="10.00">&lt; int &gt; shape_, std</text>
<text text-anchor="start" x="30.5" y="-194.5" font-family="Helvetica,sans-Serif" font-size="10.00">::vector&lt; element_type</text>
<text text-anchor="start" x="30.5" y="-183.5" font-family="Helvetica,sans-Serif" font-size="10.00"> &gt; data_)</text>
<text text-anchor="start" x="30.5" y="-172.5" font-family="Helvetica,sans-Serif" font-size="10.00">+ Array(element_type</text>
<text text-anchor="start" x="30.5" y="-161.5" font-family="Helvetica,sans-Serif" font-size="10.00"> scalar_)</text>
<text text-anchor="start" x="30.5" y="-150.5" font-family="Helvetica,sans-Serif" font-size="10.00">+ int rank() const</text>
<text text-anchor="start" x="30.5" y="-139.5" font-family="Helvetica,sans-Serif" font-size="10.00">+ int size() const</text>
<text text-anchor="start" x="30.5" y="-128.5" font-family="Helvetica,sans-Serif" font-size="10.00">+ int flattened_shape</text>
<text text-anchor="start" x="30.5" y="-117.5" font-family="Helvetica,sans-Serif" font-size="10.00">() const</text>
<text text-anchor="start" x="30.5" y="-106.5" font-family="Helvetica,sans-Serif" font-size="10.00">+ bool empty() const</text>
<text text-anchor="start" x="30.5" y="-95.5" font-family="Helvetica,sans-Serif" font-size="10.00">+ bool is_scalar() const</text>
<text text-anchor="start" x="30.5" y="-84.5" font-family="Helvetica,sans-Serif" font-size="10.00">+ bool is_simple_scalar</text>
<text text-anchor="start" x="30.5" y="-73.5" font-family="Helvetica,sans-Serif" font-size="10.00">() const</text>
<text text-anchor="start" x="30.5" y="-62.5" font-family="Helvetica,sans-Serif" font-size="10.00">+ bool is_numeric() const</text>
<text text-anchor="start" x="30.5" y="-51.5" font-family="Helvetica,sans-Serif" font-size="10.00">+ bool is_integer_numeric</text>
<text text-anchor="start" x="30.5" y="-40.5" font-family="Helvetica,sans-Serif" font-size="10.00">() const</text>
<text text-anchor="start" x="30.5" y="-29.5" font-family="Helvetica,sans-Serif" font-size="10.00">+ std::string to_string</text>
<text text-anchor="start" x="30.5" y="-18.5" font-family="Helvetica,sans-Serif" font-size="10.00">(const SymbolTable *symbol</text>
<text text-anchor="start" x="30.5" y="-7.5" font-family="Helvetica,sans-Serif" font-size="10.00">_table) const</text>
</a>
</g>
</g>
<!-- Node2 -->
<g id="node2" class="node">
<title>Node2</title>
<g id="a_node2"><a xlink:title=" ">
<polygon fill="white" stroke="#666666" points="0,-314.5 0,-371.5 72,-371.5 72,-314.5 0,-314.5"/>
<text text-anchor="middle" x="36" y="-359.5" font-family="Helvetica,sans-Serif" font-size="10.00">vector&lt; int &gt;</text>
<polyline fill="none" stroke="#666666" points="0,-352.5 72,-352.5"/>
<text text-anchor="middle" x="36" y="-340.5" font-family="Helvetica,sans-Serif" font-size="10.00"> </text>
<polyline fill="none" stroke="#666666" points="0,-333.5 72,-333.5"/>
<text text-anchor="middle" x="36" y="-321.5" font-family="Helvetica,sans-Serif" font-size="10.00"> </text>
</a>
</g>
</g>
<!-- Node2&#45;&gt;Node1 -->
<g id="edge1" class="edge">
<title>Node2&#45;&gt;Node1</title>
<path fill="none" stroke="#404040" d="M43.45,-314.87C46.28,-304.59 49.72,-292.04 53.47,-278.4"/>
<polygon fill="none" stroke="#404040" points="53.42,-278.6 51.15,-271.75 56.6,-267.03 58.86,-273.87 53.42,-278.6"/>
<text text-anchor="middle" x="70" y="-288" font-family="Helvetica,sans-Serif" font-size="10.00"> +shape</text>
</g>
<!-- Node3 -->
<g id="node3" class="node">
<title>Node3</title>
<g id="a_node3"><a xlink:title=" ">
<polygon fill="white" stroke="#666666" points="90,-314.5 90,-371.5 210,-371.5 210,-314.5 90,-314.5"/>
<text text-anchor="middle" x="150" y="-359.5" font-family="Helvetica,sans-Serif" font-size="10.00">vector&lt; element_type &gt;</text>
<polyline fill="none" stroke="#666666" points="90,-352.5 210,-352.5"/>
<text text-anchor="middle" x="150" y="-340.5" font-family="Helvetica,sans-Serif" font-size="10.00"> </text>
<polyline fill="none" stroke="#666666" points="90,-333.5 210,-333.5"/>
<text text-anchor="middle" x="150" y="-321.5" font-family="Helvetica,sans-Serif" font-size="10.00"> </text>
</a>
</g>
</g>
<!-- Node3&#45;&gt;Node1 -->
<g id="edge2" class="edge">
<title>Node3&#45;&gt;Node1</title>
<path fill="none" stroke="#404040" d="M142.55,-314.87C139.72,-304.59 136.28,-292.04 132.53,-278.4"/>
<polygon fill="none" stroke="#404040" points="132.58,-278.6 127.14,-273.87 129.4,-267.03 134.85,-271.75 132.58,-278.6"/>
<text text-anchor="middle" x="150" y="-288" font-family="Helvetica,sans-Serif" font-size="10.00"> +data</text>
</g>
</g>
</svg>
