<?xml version="1.0" encoding="UTF-8" standalone="no"?>
<!DOCTYPE svg PUBLIC "-//W3C//DTD SVG 1.1//EN"
 "http://www.w3.org/Graphics/SVG/1.1/DTD/svg11.dtd">
<!-- Generated by graphviz version 7.1.0 (20230121.1956)
 -->
<!-- Title: kepler::DefinedFunction::operator() Pages: 1 -->
<svg width="452pt" height="99pt"
 viewBox="0.00 0.00 452.00 99.00" xmlns="http://www.w3.org/2000/svg" xmlns:xlink="http://www.w3.org/1999/xlink">
<g id="graph0" class="graph" transform="scale(1 1) rotate(0) translate(4 95)">
<title>kepler::DefinedFunction::operator()</title>
<!-- Node1 -->
<g id="node1" class="node">
<title>Node1</title>
<g id="a_node1"><a xlink:title=" ">
<polygon fill="#999999" stroke="#666666" points="120,-60 0,-60 0,-30 120,-30 120,-60"/>
<text text-anchor="start" x="8" y="-48" font-family="Helvetica,sans-Serif" font-size="10.00">kepler::DefinedFunction</text>
<text text-anchor="middle" x="60" y="-37" font-family="Helvetica,sans-Serif" font-size="10.00">::operator()</text>
</a>
</g>
</g>
<!-- Node2 -->
<g id="node2" class="node">
<title>Node2</title>
<g id="a_node2"><a xlink:href="structkepler_1_1_interpreter.html#a2ec19db70151e2f0eb937421a8618935" target="_top" xlink:title=" ">
<polygon fill="white" stroke="#666666" points="265,-91 172,-91 172,-61 265,-61 265,-91"/>
<text text-anchor="start" x="180" y="-79" font-family="Helvetica,sans-Serif" font-size="10.00">kepler::Interpreter</text>
<text text-anchor="middle" x="218.5" y="-68" font-family="Helvetica,sans-Serif" font-size="10.00">::interpret</text>
</a>
</g>
</g>
<!-- Node1&#45;&gt;Node2 -->
<g id="edge1" class="edge">
<title>Node1&#45;&gt;Node2</title>
<path fill="none" stroke="#63b8ff" d="M120.17,-56.72C133.56,-59.37 147.74,-62.18 161.01,-64.81"/>
<polygon fill="#63b8ff" stroke="#63b8ff" points="159.94,-68.17 170.43,-66.68 161.3,-61.3 159.94,-68.17"/>
</g>
<!-- Node4 -->
<g id="node4" class="node">
<title>Node4</title>
<g id="a_node4"><a xlink:href="classkepler_1_1_symbol_table.html#a86e00168373c906d584687a60a889245" target="_top" xlink:title=" ">
<polygon fill="white" stroke="#666666" points="281,-24.5 156,-24.5 156,-5.5 281,-5.5 281,-24.5"/>
<text text-anchor="middle" x="218.5" y="-12.5" font-family="Helvetica,sans-Serif" font-size="10.00">kepler::SymbolTable::set</text>
</a>
</g>
</g>
<!-- Node1&#45;&gt;Node4 -->
<g id="edge3" class="edge">
<title>Node1&#45;&gt;Node4</title>
<path fill="none" stroke="#63b8ff" d="M120.17,-33.66C131.33,-31.52 143.05,-29.27 154.33,-27.11"/>
<polygon fill="#63b8ff" stroke="#63b8ff" points="154.79,-30.59 163.95,-25.27 153.47,-23.71 154.79,-30.59"/>
</g>
<!-- Node3 -->
<g id="node3" class="node">
<title>Node3</title>
<g id="a_node3"><a xlink:href="structkepler_1_1_a_s_t_node.html#a05bfe92973fce5532d1bdc50fc9b56eb" target="_top" xlink:title=" ">
<polygon fill="white" stroke="#666666" points="444,-85.5 317,-85.5 317,-66.5 444,-66.5 444,-85.5"/>
<text text-anchor="middle" x="380.5" y="-73.5" font-family="Helvetica,sans-Serif" font-size="10.00">kepler::ASTNode::accept</text>
</a>
</g>
</g>
<!-- Node2&#45;&gt;Node3 -->
<g id="edge2" class="edge">
<title>Node2&#45;&gt;Node3</title>
<path fill="none" stroke="#63b8ff" d="M265.35,-76C277.83,-76 291.68,-76 305.3,-76"/>
<polygon fill="#63b8ff" stroke="#63b8ff" points="305.14,-79.5 315.14,-76 305.14,-72.5 305.14,-79.5"/>
</g>
<!-- Node4&#45;&gt;Node4 -->
<g id="edge6" class="edge">
<title>Node4&#45;&gt;Node4</title>
<path fill="none" stroke="#63b8ff" d="M193.69,-24.87C182.37,-33.44 190.64,-42.5 218.5,-42.5 234.17,-42.5 243.65,-39.63 246.92,-35.6"/>
<polygon fill="#63b8ff" stroke="#63b8ff" points="250.3,-34.67 243.8,-26.3 243.67,-36.9 250.3,-34.67"/>
</g>
<!-- Node5 -->
<g id="node5" class="node">
<title>Node5</title>
<g id="a_node5"><a xlink:href="classkepler_1_1_symbol_table.html#acc1befc5ef14ca2b0da939f93218c05a" target="_top" xlink:title=" ">
<polygon fill="white" stroke="#666666" points="433,-30 328,-30 328,0 433,0 433,-30"/>
<text text-anchor="start" x="336" y="-18" font-family="Helvetica,sans-Serif" font-size="10.00">kepler::SymbolTable</text>
<text text-anchor="middle" x="380.5" y="-7" font-family="Helvetica,sans-Serif" font-size="10.00">::contains</text>
</a>
</g>
</g>
<!-- Node4&#45;&gt;Node5 -->
<g id="edge4" class="edge">
<title>Node4&#45;&gt;Node5</title>
<path fill="none" stroke="#63b8ff" d="M281.36,-15C292.84,-15 304.84,-15 316.35,-15"/>
<polygon fill="#63b8ff" stroke="#63b8ff" points="316.15,-18.5 326.15,-15 316.15,-11.5 316.15,-18.5"/>
</g>
<!-- Node5&#45;&gt;Node5 -->
<g id="edge5" class="edge">
<title>Node5&#45;&gt;Node5</title>
<path fill="none" stroke="#63b8ff" d="M352.02,-30.28C345.7,-39.41 355.19,-48 380.5,-48 394.34,-48 403.45,-45.43 407.83,-41.61"/>
<polygon fill="#63b8ff" stroke="#63b8ff" points="411.3,-42.08 408.82,-31.78 404.34,-41.38 411.3,-42.08"/>
</g>
</g>
</svg>
