<?xml version="1.0" encoding="UTF-8" standalone="no"?>
<!DOCTYPE svg PUBLIC "-//W3C//DTD SVG 1.1//EN"
 "http://www.w3.org/Graphics/SVG/1.1/DTD/svg11.dtd">
<!-- Generated by graphviz version 7.1.0 (20230121.1956)
 -->
<!-- Title: kepler::Assignment Pages: 1 -->
<svg width="483pt" height="678pt"
 viewBox="0.00 0.00 482.50 678.00" xmlns="http://www.w3.org/2000/svg" xmlns:xlink="http://www.w3.org/1999/xlink">
<g id="graph0" class="graph" transform="scale(1 1) rotate(0) translate(4 674)">
<title>kepler::Assignment</title>
<!-- Node1 -->
<g id="node1" class="node">
<title>Node1</title>
<g id="a_node1"><a xlink:title=" ">
<polygon fill="#999999" stroke="#666666" points="146,-0.5 146,-123.5 295,-123.5 295,-0.5 146,-0.5"/>
<text text-anchor="middle" x="220.5" y="-111.5" font-family="Helvetica,sans-Serif" font-size="10.00">kepler::Assignment</text>
<polyline fill="none" stroke="#666666" points="146,-104.5 295,-104.5"/>
<text text-anchor="middle" x="220.5" y="-92.5" font-family="Helvetica,sans-Serif" font-size="10.00"> </text>
<polyline fill="none" stroke="#666666" points="146,-85.5 295,-85.5"/>
<text text-anchor="start" x="154" y="-73.5" font-family="Helvetica,sans-Serif" font-size="10.00">+ ~Assignment() override</text>
<text text-anchor="start" x="154" y="-62.5" font-family="Helvetica,sans-Serif" font-size="10.00">+ Assignment(Token identifier</text>
<text text-anchor="start" x="154" y="-51.5" font-family="Helvetica,sans-Serif" font-size="10.00">_, ASTNode&lt; Array &gt; *value_)</text>
<text text-anchor="start" x="154" y="-40.5" font-family="Helvetica,sans-Serif" font-size="10.00">+ std::string to_string</text>
<text text-anchor="start" x="154" y="-29.5" font-family="Helvetica,sans-Serif" font-size="10.00">() const override</text>
<text text-anchor="start" x="154" y="-18.5" font-family="Helvetica,sans-Serif" font-size="10.00">+ Array accept(NodeVisitor</text>
<text text-anchor="start" x="154" y="-7.5" font-family="Helvetica,sans-Serif" font-size="10.00"> &amp;visitor) override</text>
</a>
</g>
</g>
<!-- Node2 -->
<g id="node2" class="node">
<title>Node2</title>
<g id="a_node2"><a xlink:href="structkepler_1_1_a_s_t_node.html" target="_top" xlink:title=" ">
<polygon fill="white" stroke="#666666" points="147,-182.5 147,-294.5 294,-294.5 294,-182.5 147,-182.5"/>
<text text-anchor="middle" x="220.5" y="-282.5" font-family="Helvetica,sans-Serif" font-size="10.00">kepler::ASTNode&lt; Array &gt;</text>
<polyline fill="none" stroke="#666666" points="147,-275.5 294,-275.5"/>
<text text-anchor="middle" x="220.5" y="-263.5" font-family="Helvetica,sans-Serif" font-size="10.00"> </text>
<polyline fill="none" stroke="#666666" points="147,-256.5 294,-256.5"/>
<text text-anchor="start" x="155" y="-244.5" font-family="Helvetica,sans-Serif" font-size="10.00">+ virtual ~ASTNode()</text>
<text text-anchor="start" x="155" y="-233.5" font-family="Helvetica,sans-Serif" font-size="10.00">=default</text>
<text text-anchor="start" x="155" y="-222.5" font-family="Helvetica,sans-Serif" font-size="10.00">+ virtual Array accept</text>
<text text-anchor="start" x="155" y="-211.5" font-family="Helvetica,sans-Serif" font-size="10.00">(class NodeVisitor &amp;visitor)=0</text>
<text text-anchor="start" x="155" y="-200.5" font-family="Helvetica,sans-Serif" font-size="10.00">+ virtual std::string</text>
<text text-anchor="start" x="155" y="-189.5" font-family="Helvetica,sans-Serif" font-size="10.00"> to_string() const=0</text>
</a>
</g>
</g>
<!-- Node2&#45;&gt;Node1 -->
<g id="edge1" class="edge">
<title>Node2&#45;&gt;Node1</title>
<path fill="none" stroke="#63b8ff" d="M220.5,-171.46C220.5,-155.64 220.5,-138.84 220.5,-123.3"/>
<polygon fill="none" stroke="#63b8ff" points="217,-171.25 220.5,-181.25 224,-171.25 217,-171.25"/>
</g>
<!-- Node3 -->
<g id="node3" class="node">
<title>Node3</title>
<g id="a_node3"><a xlink:href="structkepler_1_1position.html" target="_top" xlink:title=" ">
<polygon fill="white" stroke="#666666" points="130.5,-557.5 130.5,-669.5 250.5,-669.5 250.5,-557.5 130.5,-557.5"/>
<text text-anchor="middle" x="190.5" y="-657.5" font-family="Helvetica,sans-Serif" font-size="10.00">kepler::position</text>
<polyline fill="none" stroke="#666666" points="130.5,-650.5 250.5,-650.5"/>
<text text-anchor="middle" x="190.5" y="-638.5" font-family="Helvetica,sans-Serif" font-size="10.00"> </text>
<polyline fill="none" stroke="#666666" points="130.5,-631.5 250.5,-631.5"/>
<text text-anchor="start" x="138.5" y="-619.5" font-family="Helvetica,sans-Serif" font-size="10.00">+ position()</text>
<text text-anchor="start" x="138.5" y="-608.5" font-family="Helvetica,sans-Serif" font-size="10.00">+ position(long pos_)</text>
<text text-anchor="start" x="138.5" y="-597.5" font-family="Helvetica,sans-Serif" font-size="10.00">+ void set_position(long</text>
<text text-anchor="start" x="138.5" y="-586.5" font-family="Helvetica,sans-Serif" font-size="10.00"> new_pos)</text>
<text text-anchor="start" x="138.5" y="-575.5" font-family="Helvetica,sans-Serif" font-size="10.00">+ long get_position()</text>
<text text-anchor="start" x="138.5" y="-564.5" font-family="Helvetica,sans-Serif" font-size="10.00"> const</text>
</a>
</g>
</g>
<!-- Node3&#45;&gt;Node2 -->
<g id="edge2" class="edge">
<title>Node3&#45;&gt;Node2</title>
<path fill="none" stroke="#63b8ff" d="M201.87,-546.22C203.64,-534.19 205.28,-521.74 206.5,-510 214.22,-435.51 217.75,-349.02 219.32,-294.29"/>
<polygon fill="none" stroke="#63b8ff" points="198.41,-545.67 200.37,-556.08 205.33,-546.72 198.41,-545.67"/>
</g>
<!-- Node4 -->
<g id="node4" class="node">
<title>Node4</title>
<g id="a_node4"><a xlink:href="structkepler_1_1_a_s_t_node.html" target="_top" xlink:title=" ">
<polygon fill="white" stroke="#666666" points="77,-375.5 77,-487.5 198,-487.5 198,-375.5 77,-375.5"/>
<text text-anchor="middle" x="137.5" y="-475.5" font-family="Helvetica,sans-Serif" font-size="10.00">kepler::ASTNode&lt; T &gt;</text>
<polyline fill="none" stroke="#666666" points="77,-468.5 198,-468.5"/>
<text text-anchor="middle" x="137.5" y="-456.5" font-family="Helvetica,sans-Serif" font-size="10.00"> </text>
<polyline fill="none" stroke="#666666" points="77,-449.5 198,-449.5"/>
<text text-anchor="start" x="85" y="-437.5" font-family="Helvetica,sans-Serif" font-size="10.00">+ virtual ~ASTNode()</text>
<text text-anchor="start" x="85" y="-426.5" font-family="Helvetica,sans-Serif" font-size="10.00">=default</text>
<text text-anchor="start" x="85" y="-415.5" font-family="Helvetica,sans-Serif" font-size="10.00">+ virtual T accept(class</text>
<text text-anchor="start" x="85" y="-404.5" font-family="Helvetica,sans-Serif" font-size="10.00"> NodeVisitor &amp;visitor)=0</text>
<text text-anchor="start" x="85" y="-393.5" font-family="Helvetica,sans-Serif" font-size="10.00">+ virtual std::string</text>
<text text-anchor="start" x="85" y="-382.5" font-family="Helvetica,sans-Serif" font-size="10.00"> to_string() const =0</text>
</a>
</g>
</g>
<!-- Node3&#45;&gt;Node4 -->
<g id="edge4" class="edge">
<title>Node3&#45;&gt;Node4</title>
<path fill="none" stroke="#63b8ff" d="M171.1,-546.6C165.38,-527.17 159.18,-506.12 153.68,-487.46"/>
<polygon fill="none" stroke="#63b8ff" points="167.7,-547.46 173.88,-556.06 174.42,-545.48 167.7,-547.46"/>
</g>
<!-- Node5 -->
<g id="node5" class="node">
<title>Node5</title>
<g id="a_node5"><a xlink:href="structkepler_1_1_token.html" target="_top" xlink:title=" ">
<polygon fill="white" stroke="#666666" points="254.5,-353.5 254.5,-509.5 406.5,-509.5 406.5,-353.5 254.5,-353.5"/>
<text text-anchor="middle" x="330.5" y="-497.5" font-family="Helvetica,sans-Serif" font-size="10.00">kepler::Token</text>
<polyline fill="none" stroke="#666666" points="254.5,-490.5 406.5,-490.5"/>
<text text-anchor="middle" x="330.5" y="-478.5" font-family="Helvetica,sans-Serif" font-size="10.00"> </text>
<polyline fill="none" stroke="#666666" points="254.5,-471.5 406.5,-471.5"/>
<text text-anchor="start" x="262.5" y="-459.5" font-family="Helvetica,sans-Serif" font-size="10.00">+ Token(long pos, TokenType</text>
<text text-anchor="start" x="262.5" y="-448.5" font-family="Helvetica,sans-Serif" font-size="10.00"> type_, Char content_)</text>
<text text-anchor="start" x="262.5" y="-437.5" font-family="Helvetica,sans-Serif" font-size="10.00">+ Token(long pos, TokenType</text>
<text text-anchor="start" x="262.5" y="-426.5" font-family="Helvetica,sans-Serif" font-size="10.00"> type_, std::u32string content_)</text>
<text text-anchor="start" x="262.5" y="-415.5" font-family="Helvetica,sans-Serif" font-size="10.00">+ Token(TokenType type</text>
<text text-anchor="start" x="262.5" y="-404.5" font-family="Helvetica,sans-Serif" font-size="10.00">_, std::u32string content_)</text>
<text text-anchor="start" x="262.5" y="-393.5" font-family="Helvetica,sans-Serif" font-size="10.00">+ Token(long pos, TokenType</text>
<text text-anchor="start" x="262.5" y="-382.5" font-family="Helvetica,sans-Serif" font-size="10.00"> type_)</text>
<text text-anchor="start" x="262.5" y="-371.5" font-family="Helvetica,sans-Serif" font-size="10.00">+ std::string to_string</text>
<text text-anchor="start" x="262.5" y="-360.5" font-family="Helvetica,sans-Serif" font-size="10.00">() const</text>
</a>
</g>
</g>
<!-- Node3&#45;&gt;Node5 -->
<g id="edge6" class="edge">
<title>Node3&#45;&gt;Node5</title>
<path fill="none" stroke="#63b8ff" d="M240.32,-548.45C250.17,-535.79 260.59,-522.38 270.73,-509.35"/>
<polygon fill="none" stroke="#63b8ff" points="237.57,-546.28 234.19,-556.32 243.1,-550.58 237.57,-546.28"/>
</g>
<!-- Node8 -->
<g id="node8" class="node">
<title>Node8</title>
<g id="a_node8"><a xlink:href="structkepler_1_1_a_s_t_node.html" target="_top" xlink:title=" ">
<polygon fill="white" stroke="#666666" points="0,-171.5 0,-305.5 129,-305.5 129,-171.5 0,-171.5"/>
<text text-anchor="start" x="8" y="-293.5" font-family="Helvetica,sans-Serif" font-size="10.00">kepler::ASTNode&lt; kepler</text>
<text text-anchor="middle" x="64.5" y="-282.5" font-family="Helvetica,sans-Serif" font-size="10.00">::Array &gt;</text>
<polyline fill="none" stroke="#666666" points="0,-275.5 129,-275.5"/>
<text text-anchor="middle" x="64.5" y="-263.5" font-family="Helvetica,sans-Serif" font-size="10.00"> </text>
<polyline fill="none" stroke="#666666" points="0,-256.5 129,-256.5"/>
<text text-anchor="start" x="8" y="-244.5" font-family="Helvetica,sans-Serif" font-size="10.00">+ virtual ~ASTNode()</text>
<text text-anchor="start" x="8" y="-233.5" font-family="Helvetica,sans-Serif" font-size="10.00">=default</text>
<text text-anchor="start" x="8" y="-222.5" font-family="Helvetica,sans-Serif" font-size="10.00">+ virtual kepler::Array</text>
<text text-anchor="start" x="8" y="-211.5" font-family="Helvetica,sans-Serif" font-size="10.00"> accept(class NodeVisitor</text>
<text text-anchor="start" x="8" y="-200.5" font-family="Helvetica,sans-Serif" font-size="10.00"> &amp;visitor)=0</text>
<text text-anchor="start" x="8" y="-189.5" font-family="Helvetica,sans-Serif" font-size="10.00">+ virtual std::string</text>
<text text-anchor="start" x="8" y="-178.5" font-family="Helvetica,sans-Serif" font-size="10.00"> to_string() const=0</text>
</a>
</g>
</g>
<!-- Node3&#45;&gt;Node8 -->
<g id="edge10" class="edge">
<title>Node3&#45;&gt;Node8</title>
<path fill="none" stroke="#63b8ff" d="M121.66,-571.78C100.41,-555.45 79.46,-534.61 67.5,-510 36.3,-445.79 41.09,-362.47 50.14,-305.37"/>
<polygon fill="none" stroke="#63b8ff" points="119.43,-574.48 129.55,-577.6 123.58,-568.85 119.43,-574.48"/>
</g>
<!-- Node4&#45;&gt;Node2 -->
<g id="edge3" class="edge">
<title>Node4&#45;&gt;Node2</title>
<path fill="none" stroke="orange" d="M153.64,-364.73C157.83,-351.03 162.8,-336.85 168.5,-324 172.9,-314.08 178.28,-303.92 183.9,-294.25"/>
<polygon fill="orange" stroke="orange" points="150.34,-363.56 150.87,-374.14 157.05,-365.53 150.34,-363.56"/>
<text text-anchor="middle" x="190.5" y="-327" font-family="Helvetica,sans-Serif" font-size="10.00"> &lt; Array &gt;</text>
</g>
<!-- Node4&#45;&gt;Node8 -->
<g id="edge11" class="edge">
<title>Node4&#45;&gt;Node8</title>
<path fill="none" stroke="orange" d="M83.73,-366.36C77.61,-356.37 72.23,-345.76 68.5,-335 65.27,-325.67 63.32,-315.52 62.23,-305.43"/>
<polygon fill="orange" stroke="orange" points="80.61,-367.99 88.98,-374.48 86.49,-364.19 80.61,-367.99"/>
<text text-anchor="middle" x="107" y="-327" font-family="Helvetica,sans-Serif" font-size="10.00"> &lt; kepler::Array &gt;</text>
</g>
<!-- Node5&#45;&gt;Node1 -->
<g id="edge5" class="edge">
<title>Node5&#45;&gt;Node1</title>
<path fill="none" stroke="#404040" d="M332.87,-353.54C331.98,-300.49 325.69,-229.32 302.5,-171 297.44,-158.27 290.44,-145.75 282.65,-134"/>
<polygon fill="none" stroke="#404040" points="282.67,-134.03 275.96,-131.39 275.82,-124.18 282.53,-126.82 282.67,-134.03"/>
<text text-anchor="middle" x="354.5" y="-236" font-family="Helvetica,sans-Serif" font-size="10.00"> +identifier</text>
</g>
<!-- Node6 -->
<g id="node6" class="node">
<title>Node6</title>
<g id="a_node6"><a xlink:title=" ">
<polygon fill="white" stroke="#666666" points="286.5,-585 286.5,-642 350.5,-642 350.5,-585 286.5,-585"/>
<text text-anchor="middle" x="318.5" y="-630" font-family="Helvetica,sans-Serif" font-size="10.00">TokenType</text>
<polyline fill="none" stroke="#666666" points="286.5,-623 350.5,-623"/>
<text text-anchor="middle" x="318.5" y="-611" font-family="Helvetica,sans-Serif" font-size="10.00"> </text>
<polyline fill="none" stroke="#666666" points="286.5,-604 350.5,-604"/>
<text text-anchor="middle" x="318.5" y="-592" font-family="Helvetica,sans-Serif" font-size="10.00"> </text>
</a>
</g>
</g>
<!-- Node6&#45;&gt;Node5 -->
<g id="edge7" class="edge">
<title>Node6&#45;&gt;Node5</title>
<path fill="none" stroke="#404040" d="M320.32,-585.16C321.46,-568.07 323,-544.99 324.54,-521.95"/>
<polygon fill="none" stroke="#404040" points="324.53,-522.07 320.94,-515.82 325.33,-510.1 328.92,-516.35 324.53,-522.07"/>
<text text-anchor="middle" x="338.5" y="-531" font-family="Helvetica,sans-Serif" font-size="10.00"> +type</text>
</g>
<!-- Node7 -->
<g id="node7" class="node">
<title>Node7</title>
<g id="a_node7"><a xlink:title=" ">
<polygon fill="white" stroke="#666666" points="368.5,-579.5 368.5,-647.5 474.5,-647.5 474.5,-579.5 368.5,-579.5"/>
<text text-anchor="start" x="376.5" y="-635.5" font-family="Helvetica,sans-Serif" font-size="10.00">optional&lt; std::vector</text>
<text text-anchor="middle" x="421.5" y="-624.5" font-family="Helvetica,sans-Serif" font-size="10.00">&lt; Char &gt; &gt;</text>
<polyline fill="none" stroke="#666666" points="368.5,-617.5 474.5,-617.5"/>
<text text-anchor="middle" x="421.5" y="-605.5" font-family="Helvetica,sans-Serif" font-size="10.00"> </text>
<polyline fill="none" stroke="#666666" points="368.5,-598.5 474.5,-598.5"/>
<text text-anchor="middle" x="421.5" y="-586.5" font-family="Helvetica,sans-Serif" font-size="10.00"> </text>
</a>
</g>
</g>
<!-- Node7&#45;&gt;Node5 -->
<g id="edge8" class="edge">
<title>Node7&#45;&gt;Node5</title>
<path fill="none" stroke="#404040" d="M405.02,-579.9C396.55,-563.16 385.79,-541.86 375.09,-520.7"/>
<polygon fill="none" stroke="#404040" points="375.16,-520.84 368.88,-517.29 369.75,-510.13 376.02,-513.68 375.16,-520.84"/>
<text text-anchor="middle" x="405.5" y="-531" font-family="Helvetica,sans-Serif" font-size="10.00"> +content</text>
</g>
<!-- Node8&#45;&gt;Node1 -->
<g id="edge9" class="edge">
<title>Node8&#45;&gt;Node1</title>
<path fill="none" stroke="#404040" d="M123.48,-171.53C134.75,-158.92 146.59,-145.67 157.98,-132.94"/>
<polygon fill="none" stroke="#404040" points="157.98,-132.94 158.99,-125.8 165.97,-123.99 164.96,-131.13 157.98,-132.94"/>
<text text-anchor="middle" x="164" y="-145" font-family="Helvetica,sans-Serif" font-size="10.00"> +value</text>
</g>
</g>
</svg>
