<?xml version="1.0" encoding="UTF-8" standalone="no"?>
<!DOCTYPE svg PUBLIC "-//W3C//DTD SVG 1.1//EN"
 "http://www.w3.org/Graphics/SVG/1.1/DTD/svg11.dtd">
<!-- Generated by graphviz version 7.1.0 (20230121.1956)
 -->
<!-- Title: kepler::Scalar Pages: 1 -->
<svg width="405pt" height="656pt"
 viewBox="0.00 0.00 404.94 656.00" xmlns="http://www.w3.org/2000/svg" xmlns:xlink="http://www.w3.org/1999/xlink">
<g id="graph0" class="graph" transform="scale(1 1) rotate(0) translate(4 652)">
<title>kepler::Scalar</title>
<!-- Node1 -->
<g id="node1" class="node">
<title>Node1</title>
<g id="a_node1"><a xlink:title=" ">
<polygon fill="#999999" stroke="#666666" points="148.44,-0.5 148.44,-123.5 282.44,-123.5 282.44,-0.5 148.44,-0.5"/>
<text text-anchor="middle" x="215.44" y="-111.5" font-family="Helvetica,sans-Serif" font-size="10.00">kepler::Scalar</text>
<polyline fill="none" stroke="#666666" points="148.44,-104.5 282.44,-104.5"/>
<text text-anchor="middle" x="215.44" y="-92.5" font-family="Helvetica,sans-Serif" font-size="10.00"> </text>
<polyline fill="none" stroke="#666666" points="148.44,-85.5 282.44,-85.5"/>
<text text-anchor="start" x="156.44" y="-73.5" font-family="Helvetica,sans-Serif" font-size="10.00">+ Scalar(Token token</text>
<text text-anchor="start" x="156.44" y="-62.5" font-family="Helvetica,sans-Serif" font-size="10.00">_, std::variant&lt; Number,</text>
<text text-anchor="start" x="156.44" y="-51.5" font-family="Helvetica,sans-Serif" font-size="10.00"> String &gt; content_)</text>
<text text-anchor="start" x="156.44" y="-40.5" font-family="Helvetica,sans-Serif" font-size="10.00">+ std::string to_string</text>
<text text-anchor="start" x="156.44" y="-29.5" font-family="Helvetica,sans-Serif" font-size="10.00">() const override</text>
<text text-anchor="start" x="156.44" y="-18.5" font-family="Helvetica,sans-Serif" font-size="10.00">+ Array accept(NodeVisitor</text>
<text text-anchor="start" x="156.44" y="-7.5" font-family="Helvetica,sans-Serif" font-size="10.00"> &amp;visitor) override</text>
</a>
</g>
</g>
<!-- Node2 -->
<g id="node2" class="node">
<title>Node2</title>
<g id="a_node2"><a xlink:href="structkepler_1_1_a_s_t_node.html" target="_top" xlink:title=" ">
<polygon fill="white" stroke="#666666" points="11.94,-171.5 11.94,-283.5 158.94,-283.5 158.94,-171.5 11.94,-171.5"/>
<text text-anchor="middle" x="85.44" y="-271.5" font-family="Helvetica,sans-Serif" font-size="10.00">kepler::ASTNode&lt; Array &gt;</text>
<polyline fill="none" stroke="#666666" points="11.94,-264.5 158.94,-264.5"/>
<text text-anchor="middle" x="85.44" y="-252.5" font-family="Helvetica,sans-Serif" font-size="10.00"> </text>
<polyline fill="none" stroke="#666666" points="11.94,-245.5 158.94,-245.5"/>
<text text-anchor="start" x="19.94" y="-233.5" font-family="Helvetica,sans-Serif" font-size="10.00">+ virtual ~ASTNode()</text>
<text text-anchor="start" x="19.94" y="-222.5" font-family="Helvetica,sans-Serif" font-size="10.00">=default</text>
<text text-anchor="start" x="19.94" y="-211.5" font-family="Helvetica,sans-Serif" font-size="10.00">+ virtual Array accept</text>
<text text-anchor="start" x="19.94" y="-200.5" font-family="Helvetica,sans-Serif" font-size="10.00">(class NodeVisitor &amp;visitor)=0</text>
<text text-anchor="start" x="19.94" y="-189.5" font-family="Helvetica,sans-Serif" font-size="10.00">+ virtual std::string</text>
<text text-anchor="start" x="19.94" y="-178.5" font-family="Helvetica,sans-Serif" font-size="10.00"> to_string() const=0</text>
</a>
</g>
</g>
<!-- Node2&#45;&gt;Node1 -->
<g id="edge1" class="edge">
<title>Node2&#45;&gt;Node1</title>
<path fill="none" stroke="#63b8ff" d="M136.13,-162.75C146.43,-149.8 157.24,-136.21 167.44,-123.37"/>
<polygon fill="none" stroke="#63b8ff" points="133.52,-160.41 130.04,-170.42 139,-164.77 133.52,-160.41"/>
</g>
<!-- Node3 -->
<g id="node3" class="node">
<title>Node3</title>
<g id="a_node3"><a xlink:href="structkepler_1_1_position.html" target="_top" xlink:title=" ">
<polygon fill="white" stroke="#666666" points="25.44,-535.5 25.44,-647.5 145.44,-647.5 145.44,-535.5 25.44,-535.5"/>
<text text-anchor="middle" x="85.44" y="-635.5" font-family="Helvetica,sans-Serif" font-size="10.00">kepler::Position</text>
<polyline fill="none" stroke="#666666" points="25.44,-628.5 145.44,-628.5"/>
<text text-anchor="middle" x="85.44" y="-616.5" font-family="Helvetica,sans-Serif" font-size="10.00"> </text>
<polyline fill="none" stroke="#666666" points="25.44,-609.5 145.44,-609.5"/>
<text text-anchor="start" x="33.44" y="-597.5" font-family="Helvetica,sans-Serif" font-size="10.00">+ Position()</text>
<text text-anchor="start" x="33.44" y="-586.5" font-family="Helvetica,sans-Serif" font-size="10.00">+ Position(long pos_)</text>
<text text-anchor="start" x="33.44" y="-575.5" font-family="Helvetica,sans-Serif" font-size="10.00">+ void set_position(long</text>
<text text-anchor="start" x="33.44" y="-564.5" font-family="Helvetica,sans-Serif" font-size="10.00"> new_pos)</text>
<text text-anchor="start" x="33.44" y="-553.5" font-family="Helvetica,sans-Serif" font-size="10.00">+ long get_position()</text>
<text text-anchor="start" x="33.44" y="-542.5" font-family="Helvetica,sans-Serif" font-size="10.00"> const</text>
</a>
</g>
</g>
<!-- Node3&#45;&gt;Node2 -->
<g id="edge2" class="edge">
<title>Node3&#45;&gt;Node2</title>
<path fill="none" stroke="#63b8ff" d="M33.22,-526.2C25.91,-514.14 19.51,-501.16 15.44,-488 -5.15,-421.33 -5.15,-397.67 15.44,-331 20.6,-314.32 29.5,-297.94 39.26,-283.33"/>
<polygon fill="none" stroke="#63b8ff" points="30.12,-527.84 38.44,-534.39 36.02,-524.08 30.12,-527.84"/>
</g>
<!-- Node4 -->
<g id="node4" class="node">
<title>Node4</title>
<g id="a_node4"><a xlink:href="structkepler_1_1_a_s_t_node.html" target="_top" xlink:title=" ">
<polygon fill="white" stroke="#666666" points="24.94,-353.5 24.94,-465.5 145.94,-465.5 145.94,-353.5 24.94,-353.5"/>
<text text-anchor="middle" x="85.44" y="-453.5" font-family="Helvetica,sans-Serif" font-size="10.00">kepler::ASTNode&lt; T &gt;</text>
<polyline fill="none" stroke="#666666" points="24.94,-446.5 145.94,-446.5"/>
<text text-anchor="middle" x="85.44" y="-434.5" font-family="Helvetica,sans-Serif" font-size="10.00"> </text>
<polyline fill="none" stroke="#666666" points="24.94,-427.5 145.94,-427.5"/>
<text text-anchor="start" x="32.94" y="-415.5" font-family="Helvetica,sans-Serif" font-size="10.00">+ virtual ~ASTNode()</text>
<text text-anchor="start" x="32.94" y="-404.5" font-family="Helvetica,sans-Serif" font-size="10.00">=default</text>
<text text-anchor="start" x="32.94" y="-393.5" font-family="Helvetica,sans-Serif" font-size="10.00">+ virtual T accept(class</text>
<text text-anchor="start" x="32.94" y="-382.5" font-family="Helvetica,sans-Serif" font-size="10.00"> NodeVisitor &amp;visitor)=0</text>
<text text-anchor="start" x="32.94" y="-371.5" font-family="Helvetica,sans-Serif" font-size="10.00">+ virtual std::string</text>
<text text-anchor="start" x="32.94" y="-360.5" font-family="Helvetica,sans-Serif" font-size="10.00"> to_string() const =0</text>
</a>
</g>
</g>
<!-- Node3&#45;&gt;Node4 -->
<g id="edge4" class="edge">
<title>Node3&#45;&gt;Node4</title>
<path fill="none" stroke="#63b8ff" d="M85.44,-524.06C85.44,-504.78 85.44,-483.95 85.44,-465.46"/>
<polygon fill="none" stroke="#63b8ff" points="81.95,-524 85.44,-534 88.95,-524 81.95,-524"/>
</g>
<!-- Node5 -->
<g id="node5" class="node">
<title>Node5</title>
<g id="a_node5"><a xlink:href="structkepler_1_1_token.html" target="_top" xlink:title=" ">
<polygon fill="white" stroke="#666666" points="163.94,-331.5 163.94,-487.5 308.94,-487.5 308.94,-331.5 163.94,-331.5"/>
<text text-anchor="middle" x="236.44" y="-475.5" font-family="Helvetica,sans-Serif" font-size="10.00">kepler::Token</text>
<polyline fill="none" stroke="#666666" points="163.94,-468.5 308.94,-468.5"/>
<text text-anchor="middle" x="236.44" y="-456.5" font-family="Helvetica,sans-Serif" font-size="10.00"> </text>
<polyline fill="none" stroke="#666666" points="163.94,-449.5 308.94,-449.5"/>
<text text-anchor="start" x="171.94" y="-437.5" font-family="Helvetica,sans-Serif" font-size="10.00">+ Token(long pos, TokenType</text>
<text text-anchor="start" x="171.94" y="-426.5" font-family="Helvetica,sans-Serif" font-size="10.00"> type_, Char content_)</text>
<text text-anchor="start" x="171.94" y="-415.5" font-family="Helvetica,sans-Serif" font-size="10.00">+ Token(long pos, TokenType</text>
<text text-anchor="start" x="171.94" y="-404.5" font-family="Helvetica,sans-Serif" font-size="10.00"> type_, String content_)</text>
<text text-anchor="start" x="171.94" y="-393.5" font-family="Helvetica,sans-Serif" font-size="10.00">+ Token(TokenType type</text>
<text text-anchor="start" x="171.94" y="-382.5" font-family="Helvetica,sans-Serif" font-size="10.00">_, String content_)</text>
<text text-anchor="start" x="171.94" y="-371.5" font-family="Helvetica,sans-Serif" font-size="10.00">+ Token(long pos, TokenType</text>
<text text-anchor="start" x="171.94" y="-360.5" font-family="Helvetica,sans-Serif" font-size="10.00"> type_)</text>
<text text-anchor="start" x="171.94" y="-349.5" font-family="Helvetica,sans-Serif" font-size="10.00">+ std::string to_string</text>
<text text-anchor="start" x="171.94" y="-338.5" font-family="Helvetica,sans-Serif" font-size="10.00">() const</text>
</a>
</g>
</g>
<!-- Node3&#45;&gt;Node5 -->
<g id="edge6" class="edge">
<title>Node3&#45;&gt;Node5</title>
<path fill="none" stroke="#63b8ff" d="M138.87,-526.81C149.58,-514.05 160.94,-500.5 171.98,-487.35"/>
<polygon fill="none" stroke="#63b8ff" points="136.29,-524.45 132.54,-534.36 141.65,-528.94 136.29,-524.45"/>
</g>
<!-- Node4&#45;&gt;Node2 -->
<g id="edge3" class="edge">
<title>Node4&#45;&gt;Node2</title>
<path fill="none" stroke="orange" d="M85.44,-342.06C85.44,-322.78 85.44,-301.95 85.44,-283.46"/>
<polygon fill="orange" stroke="orange" points="81.95,-342 85.44,-352 88.95,-342 81.95,-342"/>
<text text-anchor="middle" x="107.44" y="-305" font-family="Helvetica,sans-Serif" font-size="10.00"> &lt; Array &gt;</text>
</g>
<!-- Node5&#45;&gt;Node1 -->
<g id="edge5" class="edge">
<title>Node5&#45;&gt;Node1</title>
<path fill="none" stroke="#404040" d="M228.35,-331.52C226.89,-315.81 225.5,-299.38 224.44,-284 221.07,-234.7 218.81,-179.12 217.4,-136.03"/>
<polygon fill="none" stroke="#404040" points="217.4,-135.98 213.21,-130.1 217.02,-123.98 221.21,-129.85 217.4,-135.98"/>
<text text-anchor="middle" x="241.44" y="-225" font-family="Helvetica,sans-Serif" font-size="10.00"> +token</text>
</g>
<!-- Node6 -->
<g id="node6" class="node">
<title>Node6</title>
<g id="a_node6"><a xlink:title=" ">
<polygon fill="white" stroke="#666666" points="183.44,-563 183.44,-620 247.44,-620 247.44,-563 183.44,-563"/>
<text text-anchor="middle" x="215.44" y="-608" font-family="Helvetica,sans-Serif" font-size="10.00">TokenType</text>
<polyline fill="none" stroke="#666666" points="183.44,-601 247.44,-601"/>
<text text-anchor="middle" x="215.44" y="-589" font-family="Helvetica,sans-Serif" font-size="10.00"> </text>
<polyline fill="none" stroke="#666666" points="183.44,-582 247.44,-582"/>
<text text-anchor="middle" x="215.44" y="-570" font-family="Helvetica,sans-Serif" font-size="10.00"> </text>
</a>
</g>
</g>
<!-- Node6&#45;&gt;Node5 -->
<g id="edge7" class="edge">
<title>Node6&#45;&gt;Node5</title>
<path fill="none" stroke="#404040" d="M218.63,-563.16C220.63,-546.07 223.32,-522.99 226.01,-499.95"/>
<polygon fill="none" stroke="#404040" points="226,-500.01 222.72,-493.59 227.39,-488.09 230.67,-494.52 226,-500.01"/>
<text text-anchor="middle" x="239.44" y="-509" font-family="Helvetica,sans-Serif" font-size="10.00"> +type</text>
</g>
<!-- Node7 -->
<g id="node7" class="node">
<title>Node7</title>
<g id="a_node7"><a xlink:title=" ">
<polygon fill="white" stroke="#666666" points="265.44,-557.5 265.44,-625.5 371.44,-625.5 371.44,-557.5 265.44,-557.5"/>
<text text-anchor="start" x="273.44" y="-613.5" font-family="Helvetica,sans-Serif" font-size="10.00">optional&lt; std::vector</text>
<text text-anchor="middle" x="318.44" y="-602.5" font-family="Helvetica,sans-Serif" font-size="10.00">&lt; Char &gt; &gt;</text>
<polyline fill="none" stroke="#666666" points="265.44,-595.5 371.44,-595.5"/>
<text text-anchor="middle" x="318.44" y="-583.5" font-family="Helvetica,sans-Serif" font-size="10.00"> </text>
<polyline fill="none" stroke="#666666" points="265.44,-576.5 371.44,-576.5"/>
<text text-anchor="middle" x="318.44" y="-564.5" font-family="Helvetica,sans-Serif" font-size="10.00"> </text>
</a>
</g>
</g>
<!-- Node7&#45;&gt;Node5 -->
<g id="edge8" class="edge">
<title>Node7&#45;&gt;Node5</title>
<path fill="none" stroke="#404040" d="M303.6,-557.9C296,-541.23 286.35,-520.06 276.76,-498.99"/>
<polygon fill="none" stroke="#404040" points="276.79,-499.07 270.66,-495.27 271.82,-488.15 277.94,-491.95 276.79,-499.07"/>
<text text-anchor="middle" x="305.44" y="-509" font-family="Helvetica,sans-Serif" font-size="10.00"> +content</text>
</g>
<!-- Node8 -->
<g id="node8" class="node">
<title>Node8</title>
<g id="a_node8"><a xlink:title=" ">
<polygon fill="white" stroke="#666666" points="267.94,-199 267.94,-256 396.94,-256 396.94,-199 267.94,-199"/>
<text text-anchor="middle" x="332.44" y="-244" font-family="Helvetica,sans-Serif" font-size="10.00">variant&lt; Number, String &gt;</text>
<polyline fill="none" stroke="#666666" points="267.94,-237 396.94,-237"/>
<text text-anchor="middle" x="332.44" y="-225" font-family="Helvetica,sans-Serif" font-size="10.00"> </text>
<polyline fill="none" stroke="#666666" points="267.94,-218 396.94,-218"/>
<text text-anchor="middle" x="332.44" y="-206" font-family="Helvetica,sans-Serif" font-size="10.00"> </text>
</a>
</g>
</g>
<!-- Node8&#45;&gt;Node1 -->
<g id="edge9" class="edge">
<title>Node8&#45;&gt;Node1</title>
<path fill="none" stroke="#404040" d="M312.86,-199.13C300.06,-181.24 282.7,-156.98 266.18,-133.9"/>
<polygon fill="none" stroke="#404040" points="266.18,-133.89 259.43,-131.34 259.19,-124.13 265.94,-126.69 266.18,-133.89"/>
<text text-anchor="middle" x="298.44" y="-145" font-family="Helvetica,sans-Serif" font-size="10.00"> +content</text>
</g>
</g>
</svg>
