<?xml version="1.0" encoding="UTF-8" standalone="no"?>
<!DOCTYPE svg PUBLIC "-//W3C//DTD SVG 1.1//EN"
 "http://www.w3.org/Graphics/SVG/1.1/DTD/svg11.dtd">
<!-- Generated by graphviz version 7.1.0 (20230121.1956)
 -->
<!-- Title: kepler::Assignment Pages: 1 -->
<svg width="484pt" height="678pt"
 viewBox="0.00 0.00 483.50 678.00" xmlns="http://www.w3.org/2000/svg" xmlns:xlink="http://www.w3.org/1999/xlink">
<g id="graph0" class="graph" transform="scale(1 1) rotate(0) translate(4 674)">
<title>kepler::Assignment</title>
<!-- Node1 -->
<g id="node1" class="node">
<title>Node1</title>
<g id="a_node1"><a xlink:title=" ">
<polygon fill="#999999" stroke="#666666" points="146,-0.5 146,-123.5 295,-123.5 295,-0.5 146,-0.5"/>
<text text-anchor="middle" x="220.5" y="-111.5" font-family="Helvetica,sans-Serif" font-size="10.00">kepler::Assignment</text>
<polyline fill="none" stroke="#666666" points="146,-104.5 295,-104.5"/>
<text text-anchor="middle" x="220.5" y="-92.5" font-family="Helvetica,sans-Serif" font-size="10.00"> </text>
<polyline fill="none" stroke="#666666" points="146,-85.5 295,-85.5"/>
<text text-anchor="start" x="154" y="-73.5" font-family="Helvetica,sans-Serif" font-size="10.00">+ ~Assignment() override</text>
<text text-anchor="start" x="154" y="-62.5" font-family="Helvetica,sans-Serif" font-size="10.00">+ Assignment(Token identifier</text>
<text text-anchor="start" x="154" y="-51.5" font-family="Helvetica,sans-Serif" font-size="10.00">_, ASTNode&lt; Array &gt; *value_)</text>
<text text-anchor="start" x="154" y="-40.5" font-family="Helvetica,sans-Serif" font-size="10.00">+ std::string to_string</text>
<text text-anchor="start" x="154" y="-29.5" font-family="Helvetica,sans-Serif" font-size="10.00">() const override</text>
<text text-anchor="start" x="154" y="-18.5" font-family="Helvetica,sans-Serif" font-size="10.00">+ Array accept(NodeVisitor</text>
<text text-anchor="start" x="154" y="-7.5" font-family="Helvetica,sans-Serif" font-size="10.00"> &amp;visitor) override</text>
</a>
</g>
</g>
<!-- Node2 -->
<g id="node2" class="node">
<title>Node2</title>
<g id="a_node2"><a xlink:href="structkepler_1_1_a_s_t_node.html" target="_top" xlink:title=" ">
<polygon fill="white" stroke="#666666" points="147,-182.5 147,-294.5 294,-294.5 294,-182.5 147,-182.5"/>
<text text-anchor="middle" x="220.5" y="-282.5" font-family="Helvetica,sans-Serif" font-size="10.00">kepler::ASTNode&lt; Array &gt;</text>
<polyline fill="none" stroke="#666666" points="147,-275.5 294,-275.5"/>
<text text-anchor="middle" x="220.5" y="-263.5" font-family="Helvetica,sans-Serif" font-size="10.00"> </text>
<polyline fill="none" stroke="#666666" points="147,-256.5 294,-256.5"/>
<text text-anchor="start" x="155" y="-244.5" font-family="Helvetica,sans-Serif" font-size="10.00">+ virtual ~ASTNode()</text>
<text text-anchor="start" x="155" y="-233.5" font-family="Helvetica,sans-Serif" font-size="10.00">=default</text>
<text text-anchor="start" x="155" y="-222.5" font-family="Helvetica,sans-Serif" font-size="10.00">+ virtual Array accept</text>
<text text-anchor="start" x="155" y="-211.5" font-family="Helvetica,sans-Serif" font-size="10.00">(class NodeVisitor &amp;visitor)=0</text>
<text text-anchor="start" x="155" y="-200.5" font-family="Helvetica,sans-Serif" font-size="10.00">+ virtual std::string</text>
<text text-anchor="start" x="155" y="-189.5" font-family="Helvetica,sans-Serif" font-size="10.00"> to_string() const=0</text>
</a>
</g>
</g>
<!-- Node2&#45;&gt;Node1 -->
<g id="edge1" class="edge">
<title>Node2&#45;&gt;Node1</title>
<path fill="none" stroke="#63b8ff" d="M220.5,-171.46C220.5,-155.64 220.5,-138.84 220.5,-123.3"/>
<polygon fill="none" stroke="#63b8ff" points="217,-171.25 220.5,-181.25 224,-171.25 217,-171.25"/>
</g>
<!-- Node3 -->
<g id="node3" class="node">
<title>Node3</title>
<g id="a_node3"><a xlink:href="structkepler_1_1_position.html" target="_top" xlink:title=" ">
<polygon fill="white" stroke="#666666" points="131.5,-557.5 131.5,-669.5 251.5,-669.5 251.5,-557.5 131.5,-557.5"/>
<text text-anchor="middle" x="191.5" y="-657.5" font-family="Helvetica,sans-Serif" font-size="10.00">kepler::Position</text>
<polyline fill="none" stroke="#666666" points="131.5,-650.5 251.5,-650.5"/>
<text text-anchor="middle" x="191.5" y="-638.5" font-family="Helvetica,sans-Serif" font-size="10.00"> </text>
<polyline fill="none" stroke="#666666" points="131.5,-631.5 251.5,-631.5"/>
<text text-anchor="start" x="139.5" y="-619.5" font-family="Helvetica,sans-Serif" font-size="10.00">+ Position()</text>
<text text-anchor="start" x="139.5" y="-608.5" font-family="Helvetica,sans-Serif" font-size="10.00">+ Position(long pos_)</text>
<text text-anchor="start" x="139.5" y="-597.5" font-family="Helvetica,sans-Serif" font-size="10.00">+ void set_position(long</text>
<text text-anchor="start" x="139.5" y="-586.5" font-family="Helvetica,sans-Serif" font-size="10.00"> new_pos)</text>
<text text-anchor="start" x="139.5" y="-575.5" font-family="Helvetica,sans-Serif" font-size="10.00">+ long get_position()</text>
<text text-anchor="start" x="139.5" y="-564.5" font-family="Helvetica,sans-Serif" font-size="10.00"> const</text>
</a>
</g>
</g>
<!-- Node3&#45;&gt;Node2 -->
<g id="edge2" class="edge">
<title>Node3&#45;&gt;Node2</title>
<path fill="none" stroke="#63b8ff" d="M204.4,-546.64C206.4,-534.5 208.22,-521.9 209.5,-510 217.51,-435.58 219.81,-349.07 220.41,-294.32"/>
<polygon fill="none" stroke="#63b8ff" points="201.01,-545.7 202.78,-556.14 207.91,-546.87 201.01,-545.7"/>
</g>
<!-- Node4 -->
<g id="node4" class="node">
<title>Node4</title>
<g id="a_node4"><a xlink:href="structkepler_1_1_a_s_t_node.html" target="_top" xlink:title=" ">
<polygon fill="white" stroke="#666666" points="80,-375.5 80,-487.5 201,-487.5 201,-375.5 80,-375.5"/>
<text text-anchor="middle" x="140.5" y="-475.5" font-family="Helvetica,sans-Serif" font-size="10.00">kepler::ASTNode&lt; T &gt;</text>
<polyline fill="none" stroke="#666666" points="80,-468.5 201,-468.5"/>
<text text-anchor="middle" x="140.5" y="-456.5" font-family="Helvetica,sans-Serif" font-size="10.00"> </text>
<polyline fill="none" stroke="#666666" points="80,-449.5 201,-449.5"/>
<text text-anchor="start" x="88" y="-437.5" font-family="Helvetica,sans-Serif" font-size="10.00">+ virtual ~ASTNode()</text>
<text text-anchor="start" x="88" y="-426.5" font-family="Helvetica,sans-Serif" font-size="10.00">=default</text>
<text text-anchor="start" x="88" y="-415.5" font-family="Helvetica,sans-Serif" font-size="10.00">+ virtual T accept(class</text>
<text text-anchor="start" x="88" y="-404.5" font-family="Helvetica,sans-Serif" font-size="10.00"> NodeVisitor &amp;visitor)=0</text>
<text text-anchor="start" x="88" y="-393.5" font-family="Helvetica,sans-Serif" font-size="10.00">+ virtual std::string</text>
<text text-anchor="start" x="88" y="-382.5" font-family="Helvetica,sans-Serif" font-size="10.00"> to_string() const =0</text>
</a>
</g>
</g>
<!-- Node3&#45;&gt;Node4 -->
<g id="edge4" class="edge">
<title>Node3&#45;&gt;Node4</title>
<path fill="none" stroke="#63b8ff" d="M172.83,-546.6C167.32,-527.17 161.36,-506.12 156.07,-487.46"/>
<polygon fill="none" stroke="#63b8ff" points="169.42,-547.39 175.51,-556.06 176.15,-545.48 169.42,-547.39"/>
</g>
<!-- Node5 -->
<g id="node5" class="node">
<title>Node5</title>
<g id="a_node5"><a xlink:href="structkepler_1_1_token.html" target="_top" xlink:title=" ">
<polygon fill="white" stroke="#666666" points="258,-353.5 258,-509.5 403,-509.5 403,-353.5 258,-353.5"/>
<text text-anchor="middle" x="330.5" y="-497.5" font-family="Helvetica,sans-Serif" font-size="10.00">kepler::Token</text>
<polyline fill="none" stroke="#666666" points="258,-490.5 403,-490.5"/>
<text text-anchor="middle" x="330.5" y="-478.5" font-family="Helvetica,sans-Serif" font-size="10.00"> </text>
<polyline fill="none" stroke="#666666" points="258,-471.5 403,-471.5"/>
<text text-anchor="start" x="266" y="-459.5" font-family="Helvetica,sans-Serif" font-size="10.00">+ Token(long pos, TokenType</text>
<text text-anchor="start" x="266" y="-448.5" font-family="Helvetica,sans-Serif" font-size="10.00"> type_, Char content_)</text>
<text text-anchor="start" x="266" y="-437.5" font-family="Helvetica,sans-Serif" font-size="10.00">+ Token(long pos, TokenType</text>
<text text-anchor="start" x="266" y="-426.5" font-family="Helvetica,sans-Serif" font-size="10.00"> type_, String content_)</text>
<text text-anchor="start" x="266" y="-415.5" font-family="Helvetica,sans-Serif" font-size="10.00">+ Token(TokenType type</text>
<text text-anchor="start" x="266" y="-404.5" font-family="Helvetica,sans-Serif" font-size="10.00">_, String content_)</text>
<text text-anchor="start" x="266" y="-393.5" font-family="Helvetica,sans-Serif" font-size="10.00">+ Token(long pos, TokenType</text>
<text text-anchor="start" x="266" y="-382.5" font-family="Helvetica,sans-Serif" font-size="10.00"> type_)</text>
<text text-anchor="start" x="266" y="-371.5" font-family="Helvetica,sans-Serif" font-size="10.00">+ std::string to_string</text>
<text text-anchor="start" x="266" y="-360.5" font-family="Helvetica,sans-Serif" font-size="10.00">() const</text>
</a>
</g>
</g>
<!-- Node3&#45;&gt;Node5 -->
<g id="edge6" class="edge">
<title>Node3&#45;&gt;Node5</title>
<path fill="none" stroke="#63b8ff" d="M240.96,-548.45C250.74,-535.79 261.09,-522.38 271.16,-509.35"/>
<polygon fill="none" stroke="#63b8ff" points="238.23,-546.26 234.88,-556.32 243.77,-550.54 238.23,-546.26"/>
</g>
<!-- Node8 -->
<g id="node8" class="node">
<title>Node8</title>
<g id="a_node8"><a xlink:href="structkepler_1_1_a_s_t_node.html" target="_top" xlink:title=" ">
<polygon fill="white" stroke="#666666" points="0,-171.5 0,-305.5 129,-305.5 129,-171.5 0,-171.5"/>
<text text-anchor="start" x="8" y="-293.5" font-family="Helvetica,sans-Serif" font-size="10.00">kepler::ASTNode&lt; kepler</text>
<text text-anchor="middle" x="64.5" y="-282.5" font-family="Helvetica,sans-Serif" font-size="10.00">::Array &gt;</text>
<polyline fill="none" stroke="#666666" points="0,-275.5 129,-275.5"/>
<text text-anchor="middle" x="64.5" y="-263.5" font-family="Helvetica,sans-Serif" font-size="10.00"> </text>
<polyline fill="none" stroke="#666666" points="0,-256.5 129,-256.5"/>
<text text-anchor="start" x="8" y="-244.5" font-family="Helvetica,sans-Serif" font-size="10.00">+ virtual ~ASTNode()</text>
<text text-anchor="start" x="8" y="-233.5" font-family="Helvetica,sans-Serif" font-size="10.00">=default</text>
<text text-anchor="start" x="8" y="-222.5" font-family="Helvetica,sans-Serif" font-size="10.00">+ virtual kepler::Array</text>
<text text-anchor="start" x="8" y="-211.5" font-family="Helvetica,sans-Serif" font-size="10.00"> accept(class NodeVisitor</text>
<text text-anchor="start" x="8" y="-200.5" font-family="Helvetica,sans-Serif" font-size="10.00"> &amp;visitor)=0</text>
<text text-anchor="start" x="8" y="-189.5" font-family="Helvetica,sans-Serif" font-size="10.00">+ virtual std::string</text>
<text text-anchor="start" x="8" y="-178.5" font-family="Helvetica,sans-Serif" font-size="10.00"> to_string() const=0</text>
</a>
</g>
</g>
<!-- Node3&#45;&gt;Node8 -->
<g id="edge10" class="edge">
<title>Node3&#45;&gt;Node8</title>
<path fill="none" stroke="#63b8ff" d="M122.45,-570.43C102.03,-554.25 82.05,-533.85 70.5,-510 39.37,-445.74 43.09,-362.43 51.25,-305.34"/>
<polygon fill="none" stroke="#63b8ff" points="120.24,-573.15 130.32,-576.42 124.48,-567.58 120.24,-573.15"/>
</g>
<!-- Node4&#45;&gt;Node2 -->
<g id="edge3" class="edge">
<title>Node4&#45;&gt;Node2</title>
<path fill="none" stroke="orange" d="M156.9,-364.85C161.07,-351.13 165.97,-336.92 171.5,-324 175.7,-314.18 180.81,-304.07 186.11,-294.42"/>
<polygon fill="orange" stroke="orange" points="153.6,-363.67 154.13,-374.25 160.31,-365.65 153.6,-363.67"/>
<text text-anchor="middle" x="193.5" y="-327" font-family="Helvetica,sans-Serif" font-size="10.00"> &lt; Array &gt;</text>
</g>
<!-- Node4&#45;&gt;Node8 -->
<g id="edge11" class="edge">
<title>Node4&#45;&gt;Node8</title>
<path fill="none" stroke="orange" d="M87.04,-366.26C80.87,-356.27 75.4,-345.7 71.5,-335 68.11,-325.71 65.92,-315.57 64.56,-305.49"/>
<polygon fill="orange" stroke="orange" points="83.93,-367.89 92.32,-374.36 89.8,-364.07 83.93,-367.89"/>
<text text-anchor="middle" x="110" y="-327" font-family="Helvetica,sans-Serif" font-size="10.00"> &lt; kepler::Array &gt;</text>
</g>
<!-- Node5&#45;&gt;Node1 -->
<g id="edge5" class="edge">
<title>Node5&#45;&gt;Node1</title>
<path fill="none" stroke="#404040" d="M332.87,-353.54C331.98,-300.49 325.69,-229.32 302.5,-171 297.44,-158.27 290.44,-145.75 282.65,-134"/>
<polygon fill="none" stroke="#404040" points="282.67,-134.03 275.96,-131.39 275.82,-124.18 282.53,-126.82 282.67,-134.03"/>
<text text-anchor="middle" x="354.5" y="-236" font-family="Helvetica,sans-Serif" font-size="10.00"> +identifier</text>
</g>
<!-- Node6 -->
<g id="node6" class="node">
<title>Node6</title>
<g id="a_node6"><a xlink:title=" ">
<polygon fill="white" stroke="#666666" points="287.5,-585 287.5,-642 351.5,-642 351.5,-585 287.5,-585"/>
<text text-anchor="middle" x="319.5" y="-630" font-family="Helvetica,sans-Serif" font-size="10.00">TokenType</text>
<polyline fill="none" stroke="#666666" points="287.5,-623 351.5,-623"/>
<text text-anchor="middle" x="319.5" y="-611" font-family="Helvetica,sans-Serif" font-size="10.00"> </text>
<polyline fill="none" stroke="#666666" points="287.5,-604 351.5,-604"/>
<text text-anchor="middle" x="319.5" y="-592" font-family="Helvetica,sans-Serif" font-size="10.00"> </text>
</a>
</g>
</g>
<!-- Node6&#45;&gt;Node5 -->
<g id="edge7" class="edge">
<title>Node6&#45;&gt;Node5</title>
<path fill="none" stroke="#404040" d="M321.17,-585.16C322.22,-568.07 323.63,-544.99 325.03,-521.95"/>
<polygon fill="none" stroke="#404040" points="325.03,-522.08 321.4,-515.84 325.76,-510.1 329.38,-516.33 325.03,-522.08"/>
<text text-anchor="middle" x="338.5" y="-531" font-family="Helvetica,sans-Serif" font-size="10.00"> +type</text>
</g>
<!-- Node7 -->
<g id="node7" class="node">
<title>Node7</title>
<g id="a_node7"><a xlink:title=" ">
<polygon fill="white" stroke="#666666" points="369.5,-579.5 369.5,-647.5 475.5,-647.5 475.5,-579.5 369.5,-579.5"/>
<text text-anchor="start" x="377.5" y="-635.5" font-family="Helvetica,sans-Serif" font-size="10.00">optional&lt; std::vector</text>
<text text-anchor="middle" x="422.5" y="-624.5" font-family="Helvetica,sans-Serif" font-size="10.00">&lt; Char &gt; &gt;</text>
<polyline fill="none" stroke="#666666" points="369.5,-617.5 475.5,-617.5"/>
<text text-anchor="middle" x="422.5" y="-605.5" font-family="Helvetica,sans-Serif" font-size="10.00"> </text>
<polyline fill="none" stroke="#666666" points="369.5,-598.5 475.5,-598.5"/>
<text text-anchor="middle" x="422.5" y="-586.5" font-family="Helvetica,sans-Serif" font-size="10.00"> </text>
</a>
</g>
</g>
<!-- Node7&#45;&gt;Node5 -->
<g id="edge8" class="edge">
<title>Node7&#45;&gt;Node5</title>
<path fill="none" stroke="#404040" d="M405.84,-579.9C397.28,-563.16 386.4,-541.86 375.58,-520.7"/>
<polygon fill="none" stroke="#404040" points="375.64,-520.81 369.35,-517.29 370.18,-510.13 376.47,-513.65 375.64,-520.81"/>
<text text-anchor="middle" x="406.5" y="-531" font-family="Helvetica,sans-Serif" font-size="10.00"> +content</text>
</g>
<!-- Node8&#45;&gt;Node1 -->
<g id="edge9" class="edge">
<title>Node8&#45;&gt;Node1</title>
<path fill="none" stroke="#404040" d="M123.48,-171.53C134.75,-158.92 146.59,-145.67 157.98,-132.94"/>
<polygon fill="none" stroke="#404040" points="157.98,-132.94 158.99,-125.8 165.97,-123.99 164.96,-131.13 157.98,-132.94"/>
<text text-anchor="middle" x="164" y="-145" font-family="Helvetica,sans-Serif" font-size="10.00"> +value</text>
</g>
</g>
</svg>
