<?xml version="1.0" encoding="UTF-8" standalone="no"?>
<!DOCTYPE svg PUBLIC "-//W3C//DTD SVG 1.1//EN"
 "http://www.w3.org/Graphics/SVG/1.1/DTD/svg11.dtd">
<!-- Generated by graphviz version 7.1.0 (20230121.1956)
 -->
<!-- Title: src/core/symbol.h Pages: 1 -->
<svg width="833pt" height="368pt"
 viewBox="0.00 0.00 832.50 368.00" xmlns="http://www.w3.org/2000/svg" xmlns:xlink="http://www.w3.org/1999/xlink">
<g id="graph0" class="graph" transform="scale(1 1) rotate(0) translate(4 364)">
<title>src/core/symbol.h</title>
<!-- Node1 -->
<g id="node1" class="node">
<title>Node1</title>
<g id="a_node1"><a xlink:title=" ">
<polygon fill="#999999" stroke="#666666" points="236,-360 141,-360 141,-341 236,-341 236,-360"/>
<text text-anchor="middle" x="188.5" y="-348" font-family="Helvetica,sans-Serif" font-size="10.00">src/core/symbol.h</text>
</a>
</g>
</g>
<!-- Node2 -->
<g id="node2" class="node">
<title>Node2</title>
<g id="a_node2"><a xlink:title=" ">
<polygon fill="#e0e0e0" stroke="#999999" points="35,-305 0,-305 0,-286 35,-286 35,-305"/>
<text text-anchor="middle" x="17.5" y="-293" font-family="Helvetica,sans-Serif" font-size="10.00">map</text>
</a>
</g>
</g>
<!-- Node1&#45;&gt;Node2 -->
<g id="edge1" class="edge">
<title>Node1&#45;&gt;Node2</title>
<path fill="none" stroke="#63b8ff" d="M159.49,-340.51C127.75,-330.67 77.21,-315.01 45.77,-305.26"/>
<polygon fill="#63b8ff" stroke="#63b8ff" points="47.15,-302.03 36.56,-302.41 45.08,-308.71 47.15,-302.03"/>
</g>
<!-- Node3 -->
<g id="node3" class="node">
<title>Node3</title>
<g id="a_node3"><a xlink:title=" ">
<polygon fill="#e0e0e0" stroke="#999999" points="796.5,-129 746.5,-129 746.5,-110 796.5,-110 796.5,-129"/>
<text text-anchor="middle" x="771.5" y="-117" font-family="Helvetica,sans-Serif" font-size="10.00">optional</text>
</a>
</g>
</g>
<!-- Node1&#45;&gt;Node3 -->
<g id="edge2" class="edge">
<title>Node1&#45;&gt;Node3</title>
<path fill="none" stroke="#63b8ff" d="M236.26,-341.09C274.95,-333.61 330.54,-321.33 377.5,-305 521.53,-254.93 683.42,-169.09 745.43,-135.04"/>
<polygon fill="#63b8ff" stroke="#63b8ff" points="747.1,-138.11 754.17,-130.21 743.72,-131.98 747.1,-138.11"/>
</g>
<!-- Node4 -->
<g id="node4" class="node">
<title>Node4</title>
<g id="a_node4"><a xlink:href="array_8h.html" target="_top" xlink:title=" ">
<polygon fill="white" stroke="#666666" points="192,-129 125,-129 125,-110 192,-110 192,-129"/>
<text text-anchor="middle" x="158.5" y="-117" font-family="Helvetica,sans-Serif" font-size="10.00">core/array.h</text>
</a>
</g>
</g>
<!-- Node1&#45;&gt;Node4 -->
<g id="edge3" class="edge">
<title>Node1&#45;&gt;Node4</title>
<path fill="none" stroke="#63b8ff" d="M186.8,-340.57C182.14,-315.81 169.1,-244.14 162.5,-184 160.91,-169.49 159.89,-153.05 159.28,-140.53"/>
<polygon fill="#63b8ff" stroke="#63b8ff" points="162.79,-140.5 158.86,-130.66 155.79,-140.8 162.79,-140.5"/>
</g>
<!-- Node10 -->
<g id="node10" class="node">
<title>Node10</title>
<g id="a_node10"><a xlink:href="ast_8h.html" target="_top" xlink:title=" ">
<polygon fill="white" stroke="#666666" points="368,-305 261,-305 261,-286 368,-286 368,-305"/>
<text text-anchor="middle" x="314.5" y="-293" font-family="Helvetica,sans-Serif" font-size="10.00">core/evaluation/ast.h</text>
</a>
</g>
</g>
<!-- Node1&#45;&gt;Node10 -->
<g id="edge9" class="edge">
<title>Node1&#45;&gt;Node10</title>
<path fill="none" stroke="#63b8ff" d="M209.87,-340.51C229.91,-332.08 260.1,-319.38 282.91,-309.79"/>
<polygon fill="#63b8ff" stroke="#63b8ff" points="284.19,-313.05 292.05,-305.94 281.47,-306.6 284.19,-313.05"/>
</g>
<!-- Node5 -->
<g id="node5" class="node">
<title>Node5</title>
<g id="a_node5"><a xlink:href="datatypes_8h.html" target="_top" xlink:title=" ">
<polygon fill="white" stroke="#666666" points="292.5,-74 224.5,-74 224.5,-55 292.5,-55 292.5,-74"/>
<text text-anchor="middle" x="258.5" y="-62" font-family="Helvetica,sans-Serif" font-size="10.00">datatypes.h</text>
</a>
</g>
</g>
<!-- Node4&#45;&gt;Node5 -->
<g id="edge4" class="edge">
<title>Node4&#45;&gt;Node5</title>
<path fill="none" stroke="#63b8ff" d="M175.46,-109.51C190.86,-101.35 213.81,-89.19 231.69,-79.71"/>
<polygon fill="#63b8ff" stroke="#63b8ff" points="233.25,-82.84 240.45,-75.07 229.97,-76.66 233.25,-82.84"/>
</g>
<!-- Node9 -->
<g id="node9" class="node">
<title>Node9</title>
<g id="a_node9"><a xlink:title=" ">
<polygon fill="#e0e0e0" stroke="#999999" points="181.5,-74 135.5,-74 135.5,-55 181.5,-55 181.5,-74"/>
<text text-anchor="middle" x="158.5" y="-62" font-family="Helvetica,sans-Serif" font-size="10.00">variant</text>
</a>
</g>
</g>
<!-- Node4&#45;&gt;Node9 -->
<g id="edge8" class="edge">
<title>Node4&#45;&gt;Node9</title>
<path fill="none" stroke="#63b8ff" d="M158.5,-109.75C158.5,-103.27 158.5,-94.16 158.5,-85.9"/>
<polygon fill="#63b8ff" stroke="#63b8ff" points="162,-85.96 158.5,-75.96 155,-85.96 162,-85.96"/>
</g>
<!-- Node6 -->
<g id="node6" class="node">
<title>Node6</title>
<g id="a_node6"><a xlink:title=" ">
<polygon fill="#e0e0e0" stroke="#999999" points="213.5,-19 169.5,-19 169.5,0 213.5,0 213.5,-19"/>
<text text-anchor="middle" x="191.5" y="-7" font-family="Helvetica,sans-Serif" font-size="10.00">vector</text>
</a>
</g>
</g>
<!-- Node5&#45;&gt;Node6 -->
<g id="edge5" class="edge">
<title>Node5&#45;&gt;Node6</title>
<path fill="none" stroke="#63b8ff" d="M247.13,-54.51C237.45,-46.85 223.3,-35.66 211.69,-26.47"/>
<polygon fill="#63b8ff" stroke="#63b8ff" points="213.9,-23.76 203.88,-20.3 209.56,-29.25 213.9,-23.76"/>
</g>
<!-- Node7 -->
<g id="node7" class="node">
<title>Node7</title>
<g id="a_node7"><a xlink:title=" ">
<polygon fill="#e0e0e0" stroke="#999999" points="344,-19 303,-19 303,0 344,0 344,-19"/>
<text text-anchor="middle" x="323.5" y="-7" font-family="Helvetica,sans-Serif" font-size="10.00">string</text>
</a>
</g>
</g>
<!-- Node5&#45;&gt;Node7 -->
<g id="edge6" class="edge">
<title>Node5&#45;&gt;Node7</title>
<path fill="none" stroke="#63b8ff" d="M269.53,-54.51C278.92,-46.85 292.65,-35.66 303.91,-26.47"/>
<polygon fill="#63b8ff" stroke="#63b8ff" points="305.93,-29.35 311.46,-20.31 301.5,-23.92 305.93,-29.35"/>
</g>
<!-- Node8 -->
<g id="node8" class="node">
<title>Node8</title>
<g id="a_node8"><a xlink:title=" ">
<polygon fill="#e0e0e0" stroke="#999999" points="285,-19 232,-19 232,0 285,0 285,-19"/>
<text text-anchor="middle" x="258.5" y="-7" font-family="Helvetica,sans-Serif" font-size="10.00">complex</text>
</a>
</g>
</g>
<!-- Node5&#45;&gt;Node8 -->
<g id="edge7" class="edge">
<title>Node5&#45;&gt;Node8</title>
<path fill="none" stroke="#63b8ff" d="M258.5,-54.75C258.5,-48.27 258.5,-39.16 258.5,-30.9"/>
<polygon fill="#63b8ff" stroke="#63b8ff" points="262,-30.96 258.5,-20.96 255,-30.96 262,-30.96"/>
</g>
<!-- Node10&#45;&gt;Node4 -->
<g id="edge12" class="edge">
<title>Node10&#45;&gt;Node4</title>
<path fill="none" stroke="#63b8ff" d="M271.63,-285.56C249.64,-279.01 223.89,-268.02 206.5,-250 176.76,-219.17 165.15,-168.31 160.85,-140.38"/>
<polygon fill="#63b8ff" stroke="#63b8ff" points="164.37,-140.26 159.56,-130.82 157.43,-141.2 164.37,-140.26"/>
</g>
<!-- Node10&#45;&gt;Node5 -->
<g id="edge26" class="edge">
<title>Node10&#45;&gt;Node5</title>
<path fill="none" stroke="#63b8ff" d="M286.46,-285.57C269.91,-278.69 250.31,-267.36 240.5,-250 210.18,-196.39 235.25,-119.83 249.84,-84.59"/>
<polygon fill="#63b8ff" stroke="#63b8ff" points="252.93,-86.27 253.69,-75.71 246.5,-83.49 252.93,-86.27"/>
</g>
<!-- Node10&#45;&gt;Node7 -->
<g id="edge10" class="edge">
<title>Node10&#45;&gt;Node7</title>
<path fill="none" stroke="#63b8ff" d="M260.54,-285.74C234.68,-279.34 204.6,-268.43 182.5,-250 129.52,-205.82 108.7,-178.64 115.5,-110 117.96,-85.19 108.99,-72.75 126.5,-55 177.72,-3.08 216.82,-34.6 291.82,-19.3"/>
<polygon fill="#63b8ff" stroke="#63b8ff" points="292.2,-22.8 301.17,-17.15 290.64,-15.98 292.2,-22.8"/>
</g>
<!-- Node11 -->
<g id="node11" class="node">
<title>Node11</title>
<g id="a_node11"><a xlink:title=" ">
<polygon fill="#e0e0e0" stroke="#999999" points="759.5,-19 705.5,-19 705.5,0 759.5,0 759.5,-19"/>
<text text-anchor="middle" x="732.5" y="-7" font-family="Helvetica,sans-Serif" font-size="10.00">iostream</text>
</a>
</g>
</g>
<!-- Node10&#45;&gt;Node11 -->
<g id="edge11" class="edge">
<title>Node10&#45;&gt;Node11</title>
<path fill="none" stroke="#63b8ff" d="M364.33,-285.51C492.66,-262.01 824.5,-198.97 824.5,-175.5 824.5,-175.5 824.5,-175.5 824.5,-118.5 824.5,-77.04 784.72,-43.41 757.48,-25.24"/>
<polygon fill="#63b8ff" stroke="#63b8ff" points="759.7,-22.5 749.38,-20.07 755.93,-28.4 759.7,-22.5"/>
</g>
<!-- Node12 -->
<g id="node12" class="node">
<title>Node12</title>
<g id="a_node12"><a xlink:href="token_8h.html" target="_top" xlink:title=" ">
<polygon fill="white" stroke="#666666" points="482,-184 411,-184 411,-165 482,-165 482,-184"/>
<text text-anchor="middle" x="446.5" y="-172" font-family="Helvetica,sans-Serif" font-size="10.00">core/token.h</text>
</a>
</g>
</g>
<!-- Node10&#45;&gt;Node12 -->
<g id="edge13" class="edge">
<title>Node10&#45;&gt;Node12</title>
<path fill="none" stroke="#63b8ff" d="M343.48,-285.52C362.86,-278.36 387.93,-266.74 405.5,-250 421.67,-234.59 433.05,-211.38 439.65,-194.97"/>
<polygon fill="#63b8ff" stroke="#63b8ff" points="442.84,-196.43 443.08,-185.84 436.28,-193.97 442.84,-196.43"/>
</g>
<!-- Node17 -->
<g id="node17" class="node">
<title>Node17</title>
<g id="a_node17"><a xlink:href="position_8h.html" target="_top" xlink:title=" ">
<polygon fill="white" stroke="#666666" points="728,-129 669,-129 669,-110 728,-110 728,-129"/>
<text text-anchor="middle" x="698.5" y="-117" font-family="Helvetica,sans-Serif" font-size="10.00">position.h</text>
</a>
</g>
</g>
<!-- Node10&#45;&gt;Node17 -->
<g id="edge33" class="edge">
<title>Node10&#45;&gt;Node17</title>
<path fill="none" stroke="#63b8ff" d="M339.63,-285.55C363.3,-276.96 399.62,-263.36 430.5,-250 519.82,-211.37 622.76,-159.49 670.95,-134.76"/>
<polygon fill="#63b8ff" stroke="#63b8ff" points="672.54,-137.88 679.83,-130.19 669.34,-131.66 672.54,-137.88"/>
</g>
<!-- Node18 -->
<g id="node18" class="node">
<title>Node18</title>
<g id="a_node18"><a xlink:title=" ">
<polygon fill="#e0e0e0" stroke="#999999" points="366.5,-184 314.5,-184 314.5,-165 366.5,-165 366.5,-184"/>
<text text-anchor="middle" x="340.5" y="-172" font-family="Helvetica,sans-Serif" font-size="10.00">memory</text>
</a>
</g>
</g>
<!-- Node10&#45;&gt;Node18 -->
<g id="edge27" class="edge">
<title>Node10&#45;&gt;Node18</title>
<path fill="none" stroke="#63b8ff" d="M343.28,-285.52C359.98,-278.66 379.61,-267.37 389.5,-250 396.1,-238.41 394.9,-232.19 389.5,-220 384.34,-208.34 374.44,-198.42 364.88,-190.93"/>
<polygon fill="#63b8ff" stroke="#63b8ff" points="367.02,-188.16 356.86,-185.16 362.93,-193.84 367.02,-188.16"/>
</g>
<!-- Node19 -->
<g id="node19" class="node">
<title>Node19</title>
<g id="a_node19"><a xlink:href="operation_8h.html" target="_top" xlink:title=" ">
<polygon fill="white" stroke="#666666" points="380,-250 249,-250 249,-220 380,-220 380,-250"/>
<text text-anchor="start" x="257" y="-238" font-family="Helvetica,sans-Serif" font-size="10.00">core/evaluation/operations</text>
<text text-anchor="middle" x="314.5" y="-227" font-family="Helvetica,sans-Serif" font-size="10.00">/operation.h</text>
</a>
</g>
</g>
<!-- Node10&#45;&gt;Node19 -->
<g id="edge28" class="edge">
<title>Node10&#45;&gt;Node19</title>
<path fill="none" stroke="#63b8ff" d="M314.5,-285.87C314.5,-279.4 314.5,-270.2 314.5,-261.45"/>
<polygon fill="#63b8ff" stroke="#63b8ff" points="318,-261.63 314.5,-251.63 311,-261.63 318,-261.63"/>
</g>
<!-- Node12&#45;&gt;Node3 -->
<g id="edge24" class="edge">
<title>Node12&#45;&gt;Node3</title>
<path fill="none" stroke="#63b8ff" d="M482.08,-169.15C535.06,-162.43 638.04,-148.47 735.11,-129.31"/>
<polygon fill="#63b8ff" stroke="#63b8ff" points="735.7,-132.76 744.82,-127.37 734.33,-125.9 735.7,-132.76"/>
</g>
<!-- Node12&#45;&gt;Node4 -->
<g id="edge18" class="edge">
<title>Node12&#45;&gt;Node4</title>
<path fill="none" stroke="#63b8ff" d="M410.61,-166.89C358.13,-157.24 260.51,-139.27 203.36,-128.76"/>
<polygon fill="#63b8ff" stroke="#63b8ff" points="204.12,-125.34 193.65,-126.97 202.85,-132.22 204.12,-125.34"/>
</g>
<!-- Node12&#45;&gt;Node5 -->
<g id="edge16" class="edge">
<title>Node12&#45;&gt;Node5</title>
<path fill="none" stroke="#63b8ff" d="M410.65,-166.54C383,-159.99 344.67,-148.25 315.5,-129 297.19,-116.92 281,-97.57 270.59,-83.4"/>
<polygon fill="#63b8ff" stroke="#63b8ff" points="273.59,-81.58 264.96,-75.42 267.86,-85.61 273.59,-81.58"/>
</g>
<!-- Node13 -->
<g id="node13" class="node">
<title>Node13</title>
<g id="a_node13"><a xlink:href="token__type_8h.html" target="_top" xlink:title=" ">
<polygon fill="white" stroke="#666666" points="677,-74 604,-74 604,-55 677,-55 677,-74"/>
<text text-anchor="middle" x="640.5" y="-62" font-family="Helvetica,sans-Serif" font-size="10.00">token_type.h</text>
</a>
</g>
</g>
<!-- Node12&#45;&gt;Node13 -->
<g id="edge14" class="edge">
<title>Node12&#45;&gt;Node13</title>
<path fill="none" stroke="#63b8ff" d="M482.25,-174.22C521.51,-173.04 583.94,-165.02 621.5,-129 633.2,-117.78 637.78,-99.68 639.53,-85.67"/>
<polygon fill="#63b8ff" stroke="#63b8ff" points="643.01,-86.03 640.34,-75.77 636.03,-85.45 643.01,-86.03"/>
</g>
<!-- Node14 -->
<g id="node14" class="node">
<title>Node14</title>
<g id="a_node14"><a xlink:title=" ">
<polygon fill="#e0e0e0" stroke="#999999" points="612,-129 529,-129 529,-110 612,-110 612,-129"/>
<text text-anchor="middle" x="570.5" y="-117" font-family="Helvetica,sans-Serif" font-size="10.00">uni_algo/conv.h</text>
</a>
</g>
</g>
<!-- Node12&#45;&gt;Node14 -->
<g id="edge17" class="edge">
<title>Node12&#45;&gt;Node14</title>
<path fill="none" stroke="#63b8ff" d="M467.53,-164.51C487.25,-156.08 516.97,-143.38 539.41,-133.79"/>
<polygon fill="#63b8ff" stroke="#63b8ff" points="540.56,-137.1 548.38,-129.95 537.81,-130.66 540.56,-137.1"/>
</g>
<!-- Node15 -->
<g id="node15" class="node">
<title>Node15</title>
<g id="a_node15"><a xlink:href="conversion_8h.html" target="_top" xlink:title=" ">
<polygon fill="white" stroke="#666666" points="510.5,-129 382.5,-129 382.5,-110 510.5,-110 510.5,-129"/>
<text text-anchor="middle" x="446.5" y="-117" font-family="Helvetica,sans-Serif" font-size="10.00">core/helpers/conversion.h</text>
</a>
</g>
</g>
<!-- Node12&#45;&gt;Node15 -->
<g id="edge19" class="edge">
<title>Node12&#45;&gt;Node15</title>
<path fill="none" stroke="#63b8ff" d="M446.5,-164.75C446.5,-158.27 446.5,-149.16 446.5,-140.9"/>
<polygon fill="#63b8ff" stroke="#63b8ff" points="450,-140.96 446.5,-130.96 443,-140.96 450,-140.96"/>
</g>
<!-- Node16 -->
<g id="node16" class="node">
<title>Node16</title>
<g id="a_node16"><a xlink:title=" ">
<polygon fill="#e0e0e0" stroke="#999999" points="364.5,-129 324.5,-129 324.5,-110 364.5,-110 364.5,-129"/>
<text text-anchor="middle" x="344.5" y="-117" font-family="Helvetica,sans-Serif" font-size="10.00">utility</text>
</a>
</g>
</g>
<!-- Node12&#45;&gt;Node16 -->
<g id="edge23" class="edge">
<title>Node12&#45;&gt;Node16</title>
<path fill="none" stroke="#63b8ff" d="M429.2,-164.51C413.42,-156.31 389.86,-144.07 371.59,-134.58"/>
<polygon fill="#63b8ff" stroke="#63b8ff" points="373.38,-131.56 362.89,-130.06 370.15,-137.77 373.38,-131.56"/>
</g>
<!-- Node12&#45;&gt;Node17 -->
<g id="edge25" class="edge">
<title>Node12&#45;&gt;Node17</title>
<path fill="none" stroke="#63b8ff" d="M482.34,-165.96C528.63,-156.23 609.03,-139.32 657.64,-129.09"/>
<polygon fill="#63b8ff" stroke="#63b8ff" points="658.14,-132.56 667.21,-127.08 656.7,-125.71 658.14,-132.56"/>
</g>
<!-- Node13&#45;&gt;Node11 -->
<g id="edge15" class="edge">
<title>Node13&#45;&gt;Node11</title>
<path fill="none" stroke="#63b8ff" d="M656.11,-54.51C670.2,-46.39 691.19,-34.3 707.6,-24.85"/>
<polygon fill="#63b8ff" stroke="#63b8ff" points="708.89,-28.14 715.81,-20.11 705.4,-22.07 708.89,-28.14"/>
</g>
<!-- Node15&#45;&gt;Node5 -->
<g id="edge21" class="edge">
<title>Node15&#45;&gt;Node5</title>
<path fill="none" stroke="#63b8ff" d="M414.61,-109.51C383.32,-100.69 335.41,-87.18 300.92,-77.46"/>
<polygon fill="#63b8ff" stroke="#63b8ff" points="302.27,-74.2 291.69,-74.86 300.37,-80.94 302.27,-74.2"/>
</g>
<!-- Node15&#45;&gt;Node7 -->
<g id="edge20" class="edge">
<title>Node15&#45;&gt;Node7</title>
<path fill="none" stroke="#63b8ff" d="M436.43,-109.66C415.8,-91.55 368.44,-49.96 342.08,-26.81"/>
<polygon fill="#63b8ff" stroke="#63b8ff" points="344.67,-24.43 334.84,-20.46 340.05,-29.69 344.67,-24.43"/>
</g>
<!-- Node15&#45;&gt;Node13 -->
<g id="edge22" class="edge">
<title>Node15&#45;&gt;Node13</title>
<path fill="none" stroke="#63b8ff" d="M479.41,-109.51C511.7,-100.69 561.13,-87.18 596.72,-77.46"/>
<polygon fill="#63b8ff" stroke="#63b8ff" points="597.57,-80.86 606.29,-74.85 595.72,-74.1 597.57,-80.86"/>
</g>
<!-- Node19&#45;&gt;Node4 -->
<g id="edge30" class="edge">
<title>Node19&#45;&gt;Node4</title>
<path fill="none" stroke="#63b8ff" d="M294.22,-219.64C280.21,-209.69 261.18,-196.11 244.5,-184 222.28,-167.86 197.02,-149.17 179.65,-136.26"/>
<polygon fill="#63b8ff" stroke="#63b8ff" points="181.75,-133.46 171.64,-130.3 177.57,-139.07 181.75,-133.46"/>
</g>
<!-- Node19&#45;&gt;Node5 -->
<g id="edge29" class="edge">
<title>Node19&#45;&gt;Node5</title>
<path fill="none" stroke="#63b8ff" d="M309.73,-219.63C299.69,-189.44 276.4,-119.36 265.01,-85.08"/>
<polygon fill="#63b8ff" stroke="#63b8ff" points="268.35,-84.04 261.87,-75.65 261.71,-86.25 268.35,-84.04"/>
</g>
<!-- Node19&#45;&gt;Node12 -->
<g id="edge31" class="edge">
<title>Node19&#45;&gt;Node12</title>
<path fill="none" stroke="#63b8ff" d="M347.13,-219.54C368.23,-210.19 395.5,-198.1 416.13,-188.96"/>
<polygon fill="#63b8ff" stroke="#63b8ff" points="417.43,-192.21 425.16,-184.96 414.6,-185.81 417.43,-192.21"/>
</g>
<!-- Node19&#45;&gt;Node18 -->
<g id="edge32" class="edge">
<title>Node19&#45;&gt;Node18</title>
<path fill="none" stroke="#63b8ff" d="M320.93,-219.54C324.28,-212 328.42,-202.67 332.03,-194.55"/>
<polygon fill="#63b8ff" stroke="#63b8ff" points="335.17,-196.12 336.03,-185.56 328.77,-193.27 335.17,-196.12"/>
</g>
</g>
</svg>
