<?xml version="1.0" encoding="UTF-8" standalone="no"?>
<!DOCTYPE svg PUBLIC "-//W3C//DTD SVG 1.1//EN"
 "http://www.w3.org/Graphics/SVG/1.1/DTD/svg11.dtd">
<!-- Generated by graphviz version 7.1.0 (20230121.1956)
 -->
<!-- Title: src/core/symbol_table.h Pages: 1 -->
<svg width="1374pt" height="225pt"
 viewBox="0.00 0.00 1374.00 225.00" xmlns="http://www.w3.org/2000/svg" xmlns:xlink="http://www.w3.org/1999/xlink">
<g id="graph0" class="graph" transform="scale(1 1) rotate(0) translate(4 221)">
<title>src/core/symbol_table.h</title>
<!-- Node1 -->
<g id="node1" class="node">
<title>Node1</title>
<g id="a_node1"><a xlink:title=" ">
<polygon fill="#999999" stroke="#666666" points="718.5,-217 597.5,-217 597.5,-198 718.5,-198 718.5,-217"/>
<text text-anchor="middle" x="658" y="-205" font-family="Helvetica,sans-Serif" font-size="10.00">src/core/symbol_table.h</text>
</a>
</g>
</g>
<!-- Node2 -->
<g id="node2" class="node">
<title>Node2</title>
<g id="a_node2"><a xlink:href="array_8cpp.html" target="_top" xlink:title=" ">
<polygon fill="white" stroke="#666666" points="94,-151 0,-151 0,-132 94,-132 94,-151"/>
<text text-anchor="middle" x="47" y="-139" font-family="Helvetica,sans-Serif" font-size="10.00">src/core/array.cpp</text>
</a>
</g>
</g>
<!-- Node1&#45;&gt;Node2 -->
<g id="edge1" class="edge">
<title>Node1&#45;&gt;Node2</title>
<path fill="none" stroke="#63b8ff" d="M586.07,-206.55C479.45,-205.32 273.66,-197.94 103,-162 91.31,-159.54 78.72,-155.3 68.44,-151.41"/>
<polygon fill="#63b8ff" stroke="#63b8ff" points="585.78,-210.05 595.81,-206.65 585.85,-203.05 585.78,-210.05"/>
</g>
<!-- Node3 -->
<g id="node3" class="node">
<title>Node3</title>
<g id="a_node3"><a xlink:href="ast_8cpp.html" target="_top" xlink:title=" ">
<polygon fill="white" stroke="#666666" points="211.5,-156.5 112.5,-156.5 112.5,-126.5 211.5,-126.5 211.5,-156.5"/>
<text text-anchor="start" x="120.5" y="-144.5" font-family="Helvetica,sans-Serif" font-size="10.00">src/core/evaluation</text>
<text text-anchor="middle" x="162" y="-133.5" font-family="Helvetica,sans-Serif" font-size="10.00">/ast.cpp</text>
</a>
</g>
</g>
<!-- Node1&#45;&gt;Node3 -->
<g id="edge2" class="edge">
<title>Node1&#45;&gt;Node3</title>
<path fill="none" stroke="#63b8ff" d="M585.72,-204.09C498.25,-200.04 346.91,-189.42 220,-162 213.77,-160.65 207.27,-158.87 200.98,-156.92"/>
<polygon fill="#63b8ff" stroke="#63b8ff" points="585.45,-207.58 595.6,-204.53 585.76,-200.59 585.45,-207.58"/>
</g>
<!-- Node4 -->
<g id="node4" class="node">
<title>Node4</title>
<g id="a_node4"><a xlink:href="interpreter_8cpp.html" target="_top" xlink:title=" ">
<polygon fill="white" stroke="#666666" points="328.5,-156.5 229.5,-156.5 229.5,-126.5 328.5,-126.5 328.5,-156.5"/>
<text text-anchor="start" x="237.5" y="-144.5" font-family="Helvetica,sans-Serif" font-size="10.00">src/core/evaluation</text>
<text text-anchor="middle" x="279" y="-133.5" font-family="Helvetica,sans-Serif" font-size="10.00">/interpreter.cpp</text>
</a>
</g>
</g>
<!-- Node1&#45;&gt;Node4 -->
<g id="edge3" class="edge">
<title>Node1&#45;&gt;Node4</title>
<path fill="none" stroke="#63b8ff" d="M585.6,-200.36C520.07,-193.88 421.21,-181.81 337,-162 331,-160.59 324.74,-158.82 318.65,-156.92"/>
<polygon fill="#63b8ff" stroke="#63b8ff" points="585.24,-203.84 595.53,-201.32 585.91,-196.87 585.24,-203.84"/>
</g>
<!-- Node5 -->
<g id="node5" class="node">
<title>Node5</title>
<g id="a_node5"><a xlink:href="defined__function_8cpp.html" target="_top" xlink:title=" ">
<polygon fill="white" stroke="#666666" points="445.5,-162 346.5,-162 346.5,-121 445.5,-121 445.5,-162"/>
<text text-anchor="start" x="354.5" y="-150" font-family="Helvetica,sans-Serif" font-size="10.00">src/core/evaluation</text>
<text text-anchor="start" x="354.5" y="-139" font-family="Helvetica,sans-Serif" font-size="10.00">/operations/defined</text>
<text text-anchor="middle" x="396" y="-128" font-family="Helvetica,sans-Serif" font-size="10.00">_function.cpp</text>
</a>
</g>
</g>
<!-- Node1&#45;&gt;Node5 -->
<g id="edge4" class="edge">
<title>Node1&#45;&gt;Node5</title>
<path fill="none" stroke="#63b8ff" d="M599.4,-195.33C558.64,-187.15 503.19,-175.21 455,-162 451.98,-161.17 448.89,-160.28 445.78,-159.36"/>
<polygon fill="#63b8ff" stroke="#63b8ff" points="598.52,-198.72 609.01,-197.24 599.88,-191.85 598.52,-198.72"/>
</g>
<!-- Node6 -->
<g id="node6" class="node">
<title>Node6</title>
<g id="a_node6"><a xlink:href="functions_8cpp.html" target="_top" xlink:title=" ">
<polygon fill="white" stroke="#666666" points="590,-156.5 464,-156.5 464,-126.5 590,-126.5 590,-156.5"/>
<text text-anchor="start" x="472" y="-144.5" font-family="Helvetica,sans-Serif" font-size="10.00">src/core/evaluation</text>
<text text-anchor="middle" x="527" y="-133.5" font-family="Helvetica,sans-Serif" font-size="10.00">/operations/functions.cpp</text>
</a>
</g>
</g>
<!-- Node1&#45;&gt;Node6 -->
<g id="edge5" class="edge">
<title>Node1&#45;&gt;Node6</title>
<path fill="none" stroke="#63b8ff" d="M629.62,-192.63C608.06,-182.1 578.49,-167.66 556.63,-156.98"/>
<polygon fill="#63b8ff" stroke="#63b8ff" points="627.9,-195.69 638.43,-196.94 630.98,-189.4 627.9,-195.69"/>
</g>
<!-- Node7 -->
<g id="node7" class="node">
<title>Node7</title>
<g id="a_node7"><a xlink:href="parser_8cpp.html" target="_top" xlink:title=" ">
<polygon fill="white" stroke="#666666" points="707.5,-156.5 608.5,-156.5 608.5,-126.5 707.5,-126.5 707.5,-156.5"/>
<text text-anchor="start" x="616.5" y="-144.5" font-family="Helvetica,sans-Serif" font-size="10.00">src/core/evaluation</text>
<text text-anchor="middle" x="658" y="-133.5" font-family="Helvetica,sans-Serif" font-size="10.00">/parser/parser.cpp</text>
</a>
</g>
</g>
<!-- Node1&#45;&gt;Node7 -->
<g id="edge6" class="edge">
<title>Node1&#45;&gt;Node7</title>
<path fill="none" stroke="#63b8ff" d="M658,-186.28C658,-176.67 658,-165.42 658,-156.73"/>
<polygon fill="#63b8ff" stroke="#63b8ff" points="654.5,-186.09 658,-196.09 661.5,-186.09 654.5,-186.09"/>
</g>
<!-- Node8 -->
<g id="node8" class="node">
<title>Node8</title>
<g id="a_node8"><a xlink:href="execution_8cpp.html" target="_top" xlink:title=" ">
<polygon fill="white" stroke="#666666" points="688,-79.5 572,-79.5 572,-60.5 688,-60.5 688,-79.5"/>
<text text-anchor="middle" x="630" y="-67.5" font-family="Helvetica,sans-Serif" font-size="10.00">src/core/execution.cpp</text>
</a>
</g>
</g>
<!-- Node1&#45;&gt;Node8 -->
<g id="edge7" class="edge">
<title>Node1&#45;&gt;Node8</title>
<path fill="none" stroke="#63b8ff" d="M687.1,-191.77C698.28,-184.47 709.83,-174.5 716,-162 724.06,-145.66 725.09,-136.79 716,-121 704.11,-100.34 680.05,-87.43 660.4,-79.91"/>
<polygon fill="#63b8ff" stroke="#63b8ff" points="685.6,-188.59 678.82,-196.72 689.2,-194.6 685.6,-188.59"/>
</g>
<!-- Node9 -->
<g id="node9" class="node">
<title>Node9</title>
<g id="a_node9"><a xlink:href="execution_8h.html" target="_top" xlink:title=" ">
<polygon fill="white" stroke="#666666" points="869.5,-151 764.5,-151 764.5,-132 869.5,-132 869.5,-151"/>
<text text-anchor="middle" x="817" y="-139" font-family="Helvetica,sans-Serif" font-size="10.00">src/core/execution.h</text>
</a>
</g>
</g>
<!-- Node1&#45;&gt;Node9 -->
<g id="edge8" class="edge">
<title>Node1&#45;&gt;Node9</title>
<path fill="none" stroke="#63b8ff" d="M690.43,-193.45C721.55,-180.92 767.69,-162.35 794.82,-151.43"/>
<polygon fill="#63b8ff" stroke="#63b8ff" points="689.48,-190.05 681.51,-197.04 692.1,-196.55 689.48,-190.05"/>
</g>
<!-- Node13 -->
<g id="node13" class="node">
<title>Node13</title>
<g id="a_node13"><a xlink:href="fixture_8h.html" target="_top" xlink:title=" ">
<polygon fill="white" stroke="#666666" points="1012,-85 914,-85 914,-55 1012,-55 1012,-85"/>
<text text-anchor="start" x="922" y="-73" font-family="Helvetica,sans-Serif" font-size="10.00">src/testing/fixtures</text>
<text text-anchor="middle" x="963" y="-62" font-family="Helvetica,sans-Serif" font-size="10.00">/fixture.h</text>
</a>
</g>
</g>
<!-- Node1&#45;&gt;Node13 -->
<g id="edge19" class="edge">
<title>Node1&#45;&gt;Node13</title>
<path fill="none" stroke="#63b8ff" d="M730.3,-203.05C775.2,-198.29 832.78,-187.27 878,-162 882.51,-159.48 927.6,-110.07 950.21,-85.13"/>
<polygon fill="#63b8ff" stroke="#63b8ff" points="730,-199.57 720.38,-204.01 730.67,-206.53 730,-199.57"/>
</g>
<!-- Node17 -->
<g id="node17" class="node">
<title>Node17</title>
<g id="a_node17"><a xlink:href="symbol__table_8cpp.html" target="_top" xlink:title=" ">
<polygon fill="white" stroke="#666666" points="1057.5,-151 926.5,-151 926.5,-132 1057.5,-132 1057.5,-151"/>
<text text-anchor="middle" x="992" y="-139" font-family="Helvetica,sans-Serif" font-size="10.00">src/core/symbol_table.cpp</text>
</a>
</g>
</g>
<!-- Node1&#45;&gt;Node17 -->
<g id="edge18" class="edge">
<title>Node1&#45;&gt;Node17</title>
<path fill="none" stroke="#63b8ff" d="M726.72,-195.71C777.95,-187.37 849.57,-175.06 912,-162 926.97,-158.87 943.4,-154.95 957.46,-151.44"/>
<polygon fill="#63b8ff" stroke="#63b8ff" points="726.26,-192.24 716.95,-197.3 727.38,-199.15 726.26,-192.24"/>
</g>
<!-- Node18 -->
<g id="node18" class="node">
<title>Node18</title>
<g id="a_node18"><a xlink:href="parser__fixture_8h.html" target="_top" xlink:title=" ">
<polygon fill="white" stroke="#666666" points="1174,-156.5 1076,-156.5 1076,-126.5 1174,-126.5 1174,-156.5"/>
<text text-anchor="start" x="1084" y="-144.5" font-family="Helvetica,sans-Serif" font-size="10.00">src/testing/fixtures</text>
<text text-anchor="middle" x="1125" y="-133.5" font-family="Helvetica,sans-Serif" font-size="10.00">/parser_fixture.h</text>
</a>
</g>
</g>
<!-- Node1&#45;&gt;Node18 -->
<g id="edge20" class="edge">
<title>Node1&#45;&gt;Node18</title>
<path fill="none" stroke="#63b8ff" d="M730.44,-203.35C812.79,-198.67 950.85,-187.53 1067,-162 1073.12,-160.65 1079.5,-158.89 1085.7,-156.98"/>
<polygon fill="#63b8ff" stroke="#63b8ff" points="730.26,-199.85 720.46,-203.89 730.64,-206.84 730.26,-199.85"/>
</g>
<!-- Node9&#45;&gt;Node8 -->
<g id="edge9" class="edge">
<title>Node9&#45;&gt;Node8</title>
<path fill="none" stroke="#63b8ff" d="M782.55,-127.69C745.21,-113.82 686.6,-92.04 653.97,-79.91"/>
<polygon fill="#63b8ff" stroke="#63b8ff" points="780.92,-130.83 791.52,-131.03 783.36,-124.26 780.92,-130.83"/>
</g>
<!-- Node10 -->
<g id="node10" class="node">
<title>Node10</title>
<g id="a_node10"><a xlink:href="main_8cpp.html" target="_top" xlink:title=" ">
<polygon fill="white" stroke="#666666" points="779.5,-79.5 706.5,-79.5 706.5,-60.5 779.5,-60.5 779.5,-79.5"/>
<text text-anchor="middle" x="743" y="-67.5" font-family="Helvetica,sans-Serif" font-size="10.00">src/main.cpp</text>
</a>
</g>
</g>
<!-- Node9&#45;&gt;Node10 -->
<g id="edge10" class="edge">
<title>Node9&#45;&gt;Node10</title>
<path fill="none" stroke="#63b8ff" d="M799.34,-123.92C784.66,-110.13 764.33,-91.03 752.53,-79.95"/>
<polygon fill="#63b8ff" stroke="#63b8ff" points="796.84,-126.37 806.52,-130.66 801.63,-121.26 796.84,-126.37"/>
</g>
<!-- Node11 -->
<g id="node11" class="node">
<title>Node11</title>
<g id="a_node11"><a xlink:href="file__fixture_8h.html" target="_top" xlink:title=" ">
<polygon fill="white" stroke="#666666" points="896,-85 798,-85 798,-55 896,-55 896,-85"/>
<text text-anchor="start" x="806" y="-73" font-family="Helvetica,sans-Serif" font-size="10.00">src/testing/fixtures</text>
<text text-anchor="middle" x="847" y="-62" font-family="Helvetica,sans-Serif" font-size="10.00">/file_fixture.h</text>
</a>
</g>
</g>
<!-- Node9&#45;&gt;Node11 -->
<g id="edge11" class="edge">
<title>Node9&#45;&gt;Node11</title>
<path fill="none" stroke="#63b8ff" d="M825.21,-121.47C830.15,-110.04 836.32,-95.73 840.84,-85.27"/>
<polygon fill="#63b8ff" stroke="#63b8ff" points="822.15,-119.74 821.4,-130.31 828.58,-122.51 822.15,-119.74"/>
</g>
<!-- Node9&#45;&gt;Node13 -->
<g id="edge13" class="edge">
<title>Node9&#45;&gt;Node13</title>
<path fill="none" stroke="#63b8ff" d="M846.12,-126.64C871.17,-114.71 907.18,-97.57 932.6,-85.47"/>
<polygon fill="#63b8ff" stroke="#63b8ff" points="844.68,-123.45 837.15,-130.91 847.69,-129.77 844.68,-123.45"/>
</g>
<!-- Node12 -->
<g id="node12" class="node">
<title>Node12</title>
<g id="a_node12"><a xlink:href="test__examples_8cpp.html" target="_top" xlink:title=" ">
<polygon fill="white" stroke="#666666" points="870,-19 722,-19 722,0 870,0 870,-19"/>
<text text-anchor="middle" x="796" y="-7" font-family="Helvetica,sans-Serif" font-size="10.00">src/testing/test_examples.cpp</text>
</a>
</g>
</g>
<!-- Node11&#45;&gt;Node12 -->
<g id="edge12" class="edge">
<title>Node11&#45;&gt;Node12</title>
<path fill="none" stroke="#63b8ff" d="M826.89,-45.93C818.69,-36.53 809.72,-26.23 803.56,-19.18"/>
<polygon fill="#63b8ff" stroke="#63b8ff" points="824.19,-48.16 833.4,-53.4 829.47,-43.56 824.19,-48.16"/>
</g>
<!-- Node13&#45;&gt;Node12 -->
<g id="edge15" class="edge">
<title>Node13&#45;&gt;Node12</title>
<path fill="none" stroke="#63b8ff" d="M911.03,-50.8C881.15,-40.33 844.96,-27.65 821.25,-19.35"/>
<polygon fill="#63b8ff" stroke="#63b8ff" points="909.7,-54.04 920.29,-54.04 912.01,-47.43 909.7,-54.04"/>
</g>
<!-- Node14 -->
<g id="node14" class="node">
<title>Node14</title>
<g id="a_node14"><a xlink:href="test__datatypes_8cpp.html" target="_top" xlink:title=" ">
<polygon fill="white" stroke="#666666" points="1037.5,-19 888.5,-19 888.5,0 1037.5,0 1037.5,-19"/>
<text text-anchor="middle" x="963" y="-7" font-family="Helvetica,sans-Serif" font-size="10.00">src/testing/test_datatypes.cpp</text>
</a>
</g>
</g>
<!-- Node13&#45;&gt;Node14 -->
<g id="edge14" class="edge">
<title>Node13&#45;&gt;Node14</title>
<path fill="none" stroke="#63b8ff" d="M963,-43.3C963,-34.65 963,-25.58 963,-19.18"/>
<polygon fill="#63b8ff" stroke="#63b8ff" points="959.5,-43.03 963,-53.03 966.5,-43.03 959.5,-43.03"/>
</g>
<!-- Node15 -->
<g id="node15" class="node">
<title>Node15</title>
<g id="a_node15"><a xlink:href="test__functions_8cpp.html" target="_top" xlink:title=" ">
<polygon fill="white" stroke="#666666" points="1202,-19 1056,-19 1056,0 1202,0 1202,-19"/>
<text text-anchor="middle" x="1129" y="-7" font-family="Helvetica,sans-Serif" font-size="10.00">src/testing/test_functions.cpp</text>
</a>
</g>
</g>
<!-- Node13&#45;&gt;Node15 -->
<g id="edge16" class="edge">
<title>Node13&#45;&gt;Node15</title>
<path fill="none" stroke="#63b8ff" d="M1014.66,-50.8C1044.36,-40.33 1080.33,-27.65 1103.9,-19.35"/>
<polygon fill="#63b8ff" stroke="#63b8ff" points="1013.73,-47.41 1005.46,-54.04 1016.06,-54.01 1013.73,-47.41"/>
</g>
<!-- Node16 -->
<g id="node16" class="node">
<title>Node16</title>
<g id="a_node16"><a xlink:href="test__operators_8cpp.html" target="_top" xlink:title=" ">
<polygon fill="white" stroke="#666666" points="1366,-19 1220,-19 1220,0 1366,0 1366,-19"/>
<text text-anchor="middle" x="1293" y="-7" font-family="Helvetica,sans-Serif" font-size="10.00">src/testing/test_operators.cpp</text>
</a>
</g>
</g>
<!-- Node13&#45;&gt;Node16 -->
<g id="edge17" class="edge">
<title>Node13&#45;&gt;Node16</title>
<path fill="none" stroke="#63b8ff" d="M1023.72,-58.24C1086.58,-47.09 1183.63,-29.89 1242.44,-19.46"/>
<polygon fill="#63b8ff" stroke="#63b8ff" points="1023.13,-54.79 1013.89,-59.98 1024.35,-61.68 1023.13,-54.79"/>
</g>
<!-- Node19 -->
<g id="node19" class="node">
<title>Node19</title>
<g id="a_node19"><a xlink:href="test__parser_8cpp.html" target="_top" xlink:title=" ">
<polygon fill="white" stroke="#666666" points="1191,-79.5 1059,-79.5 1059,-60.5 1191,-60.5 1191,-79.5"/>
<text text-anchor="middle" x="1125" y="-67.5" font-family="Helvetica,sans-Serif" font-size="10.00">src/testing/test_parser.cpp</text>
</a>
</g>
</g>
<!-- Node18&#45;&gt;Node19 -->
<g id="edge21" class="edge">
<title>Node18&#45;&gt;Node19</title>
<path fill="none" stroke="#63b8ff" d="M1125,-114.96C1125,-102.57 1125,-88.49 1125,-79.68"/>
<polygon fill="#63b8ff" stroke="#63b8ff" points="1121.5,-114.59 1125,-124.59 1128.5,-114.59 1121.5,-114.59"/>
</g>
</g>
</svg>
