<?xml version="1.0" encoding="UTF-8" standalone="no"?>
<!DOCTYPE svg PUBLIC "-//W3C//DTD SVG 1.1//EN"
 "http://www.w3.org/Graphics/SVG/1.1/DTD/svg11.dtd">
<!-- Generated by graphviz version 7.1.0 (20230121.1956)
 -->
<!-- Title: /Users/nikolajbankejensen/Desktop/Kepler/src/core/symbol_table.cpp Pages: 1 -->
<!--zoomable 500 -->
<svg id="main" version="1.1" xmlns="http://www.w3.org/2000/svg" xmlns:xlink="http://www.w3.org/1999/xlink" xml:space="preserve" onload="init(evt)">
<style type="text/css"><![CDATA[
.edge:hover path { stroke: red; }
.edge:hover polygon { stroke: red; fill: red; }
]]></style>
<script type="text/javascript"><![CDATA[
var edges = document.getElementsByTagName('g');
if (edges && edges.length) {
  for (var i=0;i<edges.length;i++) {
    if (edges[i].id.substr(0,4)=='edge') {
      edges[i].setAttribute('class','edge');
    }
  }
}
]]></script>
        <defs>
                <circle id="rim" cx="0" cy="0" r="7"/>
                <circle id="rim2" cx="0" cy="0" r="3.5"/>
                <g id="zoomPlus">
                        <use xlink:href="#rim" fill="#404040">
                                <set attributeName="fill" to="#808080" begin="zoomplus.mouseover" end="zoomplus.mouseout"/>
                        </use>
                        <path d="M-4,0h8M0,-4v8" fill="none" stroke="white" stroke-width="1.5" pointer-events="none"/>
                </g>
                <g id="zoomMin">
                        <use xlink:href="#rim" fill="#404040">
                                <set attributeName="fill" to="#808080" begin="zoomminus.mouseover" end="zoomminus.mouseout"/>
                        </use>
                        <path d="M-4,0h8" fill="none" stroke="white" stroke-width="1.5" pointer-events="none"/>
                </g>
                <g id="dirArrow">
                        <path fill="none" stroke="white" stroke-width="1.5" d="M0,-3.0v7 M-2.5,-0.5L0,-3.0L2.5,-0.5"/>
                </g>
               <g id="resetDef">
                       <use xlink:href="#rim2" fill="#404040">
                               <set attributeName="fill" to="#808080" begin="reset.mouseover" end="reset.mouseout"/>
                       </use>
               </g>
        </defs>

<script type="text/javascript">
var viewWidth = 1045;
var viewHeight = 500;
var sectionId = 'dynsection-0';
</script>
<script xlink:href="svgpan.js"/>
<svg id="graph" class="graph">
<g id="viewport">
<title>/Users/nikolajbankejensen/Desktop/Kepler/src/core/symbol_table.cpp</title>
<!-- Node1 -->
<g id="node1" class="node">
<title>Node1</title>
<g id="a_node1"><a xlink:title=" ">
<polygon fill="#999999" stroke="#666666" points="727.71,-492 596.71,-492 596.71,-451 727.71,-451 727.71,-492"/>
<text text-anchor="start" x="604.71" y="-480" font-family="Helvetica,sans-Serif" font-size="10.00">/Users/nikolajbankejensen</text>
<text text-anchor="start" x="604.71" y="-469" font-family="Helvetica,sans-Serif" font-size="10.00">/Desktop/Kepler/src/core</text>
<text text-anchor="middle" x="662.21" y="-458" font-family="Helvetica,sans-Serif" font-size="10.00">/symbol_table.cpp</text>
</a>
</g>
</g>
<!-- Node2 -->
<g id="node2" class="node">
<title>Node2</title>
<g id="a_node2"><a xlink:href="symbol__table_8h.html" target="_top" xlink:title=" ">
<polygon fill="white" stroke="#666666" points="703.71,-415 620.71,-415 620.71,-396 703.71,-396 703.71,-415"/>
<text text-anchor="middle" x="662.21" y="-403" font-family="Helvetica,sans-Serif" font-size="10.00">symbol_table.h</text>
</a>
</g>
</g>
<!-- Node1&#45;&gt;Node2 -->
<g id="edge1" class="edge">
<title>Node1&#45;&gt;Node2</title>
<path fill="none" stroke="#63b8ff" d="M662.21,-450.6C662.21,-442.98 662.21,-434.3 662.21,-426.66"/>
<polygon fill="#63b8ff" stroke="#63b8ff" points="665.71,-426.68 662.21,-416.68 658.71,-426.68 665.71,-426.68"/>
</g>
<!-- Node21 -->
<g id="node21" class="node">
<title>Node21</title>
<g id="a_node21"><a xlink:href="error_8h.html" target="_top" xlink:title=" ">
<polygon fill="white" stroke="#666666" points="875.21,-184 831.21,-184 831.21,-165 875.21,-165 875.21,-184"/>
<text text-anchor="middle" x="853.21" y="-172" font-family="Helvetica,sans-Serif" font-size="10.00">error.h</text>
</a>
</g>
</g>
<!-- Node1&#45;&gt;Node21 -->
<g id="edge48" class="edge">
<title>Node1&#45;&gt;Node21</title>
<path fill="none" stroke="#63b8ff" d="M727.99,-460.97C826.06,-444.89 999.21,-408.43 999.21,-351.5 999.21,-351.5 999.21,-351.5 999.21,-294.5 999.21,-236.72 929.65,-202 886.55,-186.05"/>
<polygon fill="#63b8ff" stroke="#63b8ff" points="887.73,-182.75 877.13,-182.72 885.39,-189.35 887.73,-182.75"/>
</g>
<!-- Node25 -->
<g id="node25" class="node">
<title>Node25</title>
<g id="a_node25"><a xlink:href="literals_8h.html" target="_top" xlink:title=" ">
<polygon fill="white" stroke="#666666" points="139.71,-360 64.71,-360 64.71,-341 139.71,-341 139.71,-360"/>
<text text-anchor="middle" x="102.21" y="-348" font-family="Helvetica,sans-Serif" font-size="10.00">core/literals.h</text>
</a>
</g>
</g>
<!-- Node1&#45;&gt;Node25 -->
<g id="edge49" class="edge">
<title>Node1&#45;&gt;Node25</title>
<path fill="none" stroke="#63b8ff" d="M596.33,-456.5C482.6,-432.33 251.99,-383.33 151.2,-361.91"/>
<polygon fill="#63b8ff" stroke="#63b8ff" points="152.13,-358.53 141.62,-359.88 150.68,-365.38 152.13,-358.53"/>
</g>
<!-- Node3 -->
<g id="node3" class="node">
<title>Node3</title>
<g id="a_node3"><a xlink:title=" ">
<polygon fill="#e0e0e0" stroke="#999999" points="198.71,-305 163.71,-305 163.71,-286 198.71,-286 198.71,-305"/>
<text text-anchor="middle" x="181.21" y="-293" font-family="Helvetica,sans-Serif" font-size="10.00">map</text>
</a>
</g>
</g>
<!-- Node2&#45;&gt;Node3 -->
<g id="edge2" class="edge">
<title>Node2&#45;&gt;Node3</title>
<path fill="none" stroke="#63b8ff" d="M620.63,-400.3C564.1,-394.09 460.08,-380.9 373.21,-360 313.97,-345.75 246.81,-321.64 209.7,-307.58"/>
<polygon fill="#63b8ff" stroke="#63b8ff" points="211.19,-304.41 200.6,-304.11 208.69,-310.95 211.19,-304.41"/>
</g>
<!-- Node4 -->
<g id="node4" class="node">
<title>Node4</title>
<g id="a_node4"><a xlink:title=" ">
<polygon fill="#e0e0e0" stroke="#999999" points="957.71,-19 916.71,-19 916.71,0 957.71,0 957.71,-19"/>
<text text-anchor="middle" x="937.21" y="-7" font-family="Helvetica,sans-Serif" font-size="10.00">string</text>
</a>
</g>
</g>
<!-- Node2&#45;&gt;Node4 -->
<g id="edge3" class="edge">
<title>Node2&#45;&gt;Node4</title>
<path fill="none" stroke="#63b8ff" d="M704.14,-398.97C801.99,-383.48 1037.21,-330.16 1037.21,-175.5 1037.21,-175.5 1037.21,-175.5 1037.21,-118.5 1037.21,-75.76 994.51,-42.76 964.92,-25.02"/>
<polygon fill="#63b8ff" stroke="#63b8ff" points="966.82,-22.08 956.4,-20.15 963.34,-28.15 966.82,-22.08"/>
</g>
<!-- Node5 -->
<g id="node5" class="node">
<title>Node5</title>
<g id="a_node5"><a xlink:href="array_8h.html" target="_top" xlink:title=" ">
<polygon fill="white" stroke="#666666" points="627.71,-129 560.71,-129 560.71,-110 627.71,-110 627.71,-129"/>
<text text-anchor="middle" x="594.21" y="-117" font-family="Helvetica,sans-Serif" font-size="10.00">core/array.h</text>
</a>
</g>
</g>
<!-- Node2&#45;&gt;Node5 -->
<g id="edge4" class="edge">
<title>Node2&#45;&gt;Node5</title>
<path fill="none" stroke="#63b8ff" d="M684.66,-395.51C718.12,-380.46 777.21,-346.76 777.21,-296.5 777.21,-296.5 777.21,-296.5 777.21,-234 777.21,-199.36 681.31,-155.39 628.36,-133.76"/>
<polygon fill="#63b8ff" stroke="#63b8ff" points="629.75,-130.54 619.16,-130.06 627.13,-137.04 629.75,-130.54"/>
</g>
<!-- Node10 -->
<g id="node10" class="node">
<title>Node10</title>
<g id="a_node10"><a xlink:href="ast_8h.html" target="_top" xlink:title=" ">
<polygon fill="white" stroke="#666666" points="463.71,-305 356.71,-305 356.71,-286 463.71,-286 463.71,-305"/>
<text text-anchor="middle" x="410.21" y="-293" font-family="Helvetica,sans-Serif" font-size="10.00">core/evaluation/ast.h</text>
</a>
</g>
</g>
<!-- Node2&#45;&gt;Node10 -->
<g id="edge10" class="edge">
<title>Node2&#45;&gt;Node10</title>
<path fill="none" stroke="#63b8ff" d="M641.59,-395.66C597.47,-376.75 493.71,-332.29 441.45,-309.89"/>
<polygon fill="#63b8ff" stroke="#63b8ff" points="443.08,-306.78 432.51,-306.06 440.32,-313.21 443.08,-306.78"/>
</g>
<!-- Node2&#45;&gt;Node21 -->
<g id="edge35" class="edge">
<title>Node2&#45;&gt;Node21</title>
<path fill="none" stroke="#63b8ff" d="M669.7,-395.52C698.23,-361.32 800.44,-238.77 838.66,-192.95"/>
<polygon fill="#63b8ff" stroke="#63b8ff" points="841.29,-195.25 845.01,-185.33 835.92,-190.77 841.29,-195.25"/>
</g>
<!-- Node24 -->
<g id="node24" class="node">
<title>Node24</title>
<g id="a_node24"><a xlink:href="symbol_8h.html" target="_top" xlink:title=" ">
<polygon fill="white" stroke="#666666" points="438.21,-360 382.21,-360 382.21,-341 438.21,-341 438.21,-360"/>
<text text-anchor="middle" x="410.21" y="-348" font-family="Helvetica,sans-Serif" font-size="10.00">symbol.h</text>
</a>
</g>
</g>
<!-- Node2&#45;&gt;Node24 -->
<g id="edge43" class="edge">
<title>Node2&#45;&gt;Node24</title>
<path fill="none" stroke="#63b8ff" d="M620.32,-395.69C572.84,-385.7 496.03,-369.55 449.61,-359.79"/>
<polygon fill="#63b8ff" stroke="#63b8ff" points="450.49,-356.39 439.98,-357.76 449.05,-363.24 450.49,-356.39"/>
</g>
<!-- Node6 -->
<g id="node6" class="node">
<title>Node6</title>
<g id="a_node6"><a xlink:href="datatypes_8h.html" target="_top" xlink:title=" ">
<polygon fill="white" stroke="#666666" points="493.21,-74 425.21,-74 425.21,-55 493.21,-55 493.21,-74"/>
<text text-anchor="middle" x="459.21" y="-62" font-family="Helvetica,sans-Serif" font-size="10.00">datatypes.h</text>
</a>
</g>
</g>
<!-- Node5&#45;&gt;Node6 -->
<g id="edge5" class="edge">
<title>Node5&#45;&gt;Node6</title>
<path fill="none" stroke="#63b8ff" d="M571.31,-109.51C549.65,-101.01 516.91,-88.15 492.39,-78.53"/>
<polygon fill="#63b8ff" stroke="#63b8ff" points="493.77,-75.31 483.18,-74.91 491.21,-81.82 493.77,-75.31"/>
</g>
<!-- Node9 -->
<g id="node9" class="node">
<title>Node9</title>
<g id="a_node9"><a xlink:title=" ">
<polygon fill="#e0e0e0" stroke="#999999" points="617.21,-74 571.21,-74 571.21,-55 617.21,-55 617.21,-74"/>
<text text-anchor="middle" x="594.21" y="-62" font-family="Helvetica,sans-Serif" font-size="10.00">variant</text>
</a>
</g>
</g>
<!-- Node5&#45;&gt;Node9 -->
<g id="edge9" class="edge">
<title>Node5&#45;&gt;Node9</title>
<path fill="none" stroke="#63b8ff" d="M594.21,-109.75C594.21,-103.27 594.21,-94.16 594.21,-85.9"/>
<polygon fill="#63b8ff" stroke="#63b8ff" points="597.71,-85.96 594.21,-75.96 590.71,-85.96 597.71,-85.96"/>
</g>
<!-- Node6&#45;&gt;Node4 -->
<g id="edge7" class="edge">
<title>Node6&#45;&gt;Node4</title>
<path fill="none" stroke="#63b8ff" d="M493.52,-58.7C502.82,-57.44 512.9,-56.13 522.21,-55 665.02,-37.71 835.89,-20.48 905.43,-13.61"/>
<polygon fill="#63b8ff" stroke="#63b8ff" points="905.35,-17.13 914.95,-12.67 904.66,-10.17 905.35,-17.13"/>
</g>
<!-- Node7 -->
<g id="node7" class="node">
<title>Node7</title>
<g id="a_node7"><a xlink:title=" ">
<polygon fill="#e0e0e0" stroke="#999999" points="463.21,-19 419.21,-19 419.21,0 463.21,0 463.21,-19"/>
<text text-anchor="middle" x="441.21" y="-7" font-family="Helvetica,sans-Serif" font-size="10.00">vector</text>
</a>
</g>
</g>
<!-- Node6&#45;&gt;Node7 -->
<g id="edge6" class="edge">
<title>Node6&#45;&gt;Node7</title>
<path fill="none" stroke="#63b8ff" d="M456.24,-54.75C453.99,-48.11 450.8,-38.73 447.94,-30.31"/>
<polygon fill="#63b8ff" stroke="#63b8ff" points="451.26,-29.22 444.73,-20.88 444.64,-31.47 451.26,-29.22"/>
</g>
<!-- Node8 -->
<g id="node8" class="node">
<title>Node8</title>
<g id="a_node8"><a xlink:title=" ">
<polygon fill="#e0e0e0" stroke="#999999" points="534.71,-19 481.71,-19 481.71,0 534.71,0 534.71,-19"/>
<text text-anchor="middle" x="508.21" y="-7" font-family="Helvetica,sans-Serif" font-size="10.00">complex</text>
</a>
</g>
</g>
<!-- Node6&#45;&gt;Node8 -->
<g id="edge8" class="edge">
<title>Node6&#45;&gt;Node8</title>
<path fill="none" stroke="#63b8ff" d="M467.3,-54.75C474.07,-47.43 483.93,-36.76 492.28,-27.74"/>
<polygon fill="#63b8ff" stroke="#63b8ff" points="494.7,-30.27 498.92,-20.55 489.56,-25.52 494.7,-30.27"/>
</g>
<!-- Node10&#45;&gt;Node4 -->
<g id="edge11" class="edge">
<title>Node10&#45;&gt;Node4</title>
<path fill="none" stroke="#63b8ff" d="M464.03,-289.09C554.4,-278.46 740.83,-249.91 884.21,-184 943.17,-156.9 968.44,-137.81 980.21,-74 981.74,-65.7 983.38,-62.83 980.21,-55 975.78,-44.03 967.2,-34.26 958.86,-26.69"/>
<polygon fill="#63b8ff" stroke="#63b8ff" points="961.2,-24.08 951.28,-20.36 956.71,-29.45 961.2,-24.08"/>
</g>
<!-- Node10&#45;&gt;Node5 -->
<g id="edge13" class="edge">
<title>Node10&#45;&gt;Node5</title>
<path fill="none" stroke="#63b8ff" d="M436.2,-285.54C455.31,-278.08 481.16,-266.08 500.21,-250 538.46,-217.71 569.43,-166.73 584.42,-139.36"/>
<polygon fill="#63b8ff" stroke="#63b8ff" points="587.35,-141.3 588.97,-130.83 581.18,-138.01 587.35,-141.3"/>
</g>
<!-- Node10&#45;&gt;Node6 -->
<g id="edge27" class="edge">
<title>Node10&#45;&gt;Node6</title>
<path fill="none" stroke="#63b8ff" d="M374.91,-285.55C349.83,-278.26 316,-266.46 289.21,-250 253.04,-227.77 131.43,-142.1 159.21,-110 195.65,-67.89 352.17,-82.49 407.21,-74 409.26,-73.68 411.35,-73.36 413.46,-73.03"/>
<polygon fill="#63b8ff" stroke="#63b8ff" points="414,-76.48 423.33,-71.45 412.9,-69.57 414,-76.48"/>
</g>
<!-- Node11 -->
<g id="node11" class="node">
<title>Node11</title>
<g id="a_node11"><a xlink:title=" ">
<polygon fill="#e0e0e0" stroke="#999999" points="389.21,-19 335.21,-19 335.21,0 389.21,0 389.21,-19"/>
<text text-anchor="middle" x="362.21" y="-7" font-family="Helvetica,sans-Serif" font-size="10.00">iostream</text>
</a>
</g>
</g>
<!-- Node10&#45;&gt;Node11 -->
<g id="edge12" class="edge">
<title>Node10&#45;&gt;Node11</title>
<path fill="none" stroke="#63b8ff" d="M356.59,-287.74C322.35,-281.67 278.02,-270.42 243.21,-250 184.94,-215.81 166.97,-194.69 151.21,-129 132.58,-51.34 257.95,-23.68 323.75,-14.58"/>
<polygon fill="#63b8ff" stroke="#63b8ff" points="323.94,-18.08 333.41,-13.33 323.04,-11.14 323.94,-18.08"/>
</g>
<!-- Node12 -->
<g id="node12" class="node">
<title>Node12</title>
<g id="a_node12"><a xlink:href="token_8h.html" target="_top" xlink:title=" ">
<polygon fill="white" stroke="#666666" points="484.71,-184 413.71,-184 413.71,-165 484.71,-165 484.71,-184"/>
<text text-anchor="middle" x="449.21" y="-172" font-family="Helvetica,sans-Serif" font-size="10.00">core/token.h</text>
</a>
</g>
</g>
<!-- Node10&#45;&gt;Node12 -->
<g id="edge14" class="edge">
<title>Node10&#45;&gt;Node12</title>
<path fill="none" stroke="#63b8ff" d="M438.25,-285.57C454.81,-278.69 474.4,-267.36 484.21,-250 495.03,-230.87 480.21,-207.83 466.66,-192.49"/>
<polygon fill="#63b8ff" stroke="#63b8ff" points="469.49,-190.39 460.07,-185.53 464.41,-195.2 469.49,-190.39"/>
</g>
<!-- Node18 -->
<g id="node18" class="node">
<title>Node18</title>
<g id="a_node18"><a xlink:href="position_8h.html" target="_top" xlink:title=" ">
<polygon fill="white" stroke="#666666" points="333.71,-129 274.71,-129 274.71,-110 333.71,-110 333.71,-129"/>
<text text-anchor="middle" x="304.21" y="-117" font-family="Helvetica,sans-Serif" font-size="10.00">position.h</text>
</a>
</g>
</g>
<!-- Node10&#45;&gt;Node18 -->
<g id="edge34" class="edge">
<title>Node10&#45;&gt;Node18</title>
<path fill="none" stroke="#63b8ff" d="M381.15,-285.61C361.73,-278.49 336.65,-266.88 319.21,-250 289.85,-221.59 275.65,-204.95 284.21,-165 286.1,-156.21 289.86,-147.06 293.61,-139.35"/>
<polygon fill="#63b8ff" stroke="#63b8ff" points="296.63,-141.14 298.19,-130.66 290.44,-137.88 296.63,-141.14"/>
</g>
<!-- Node19 -->
<g id="node19" class="node">
<title>Node19</title>
<g id="a_node19"><a xlink:title=" ">
<polygon fill="#e0e0e0" stroke="#999999" points="345.21,-184 293.21,-184 293.21,-165 345.21,-165 345.21,-184"/>
<text text-anchor="middle" x="319.21" y="-172" font-family="Helvetica,sans-Serif" font-size="10.00">memory</text>
</a>
</g>
</g>
<!-- Node10&#45;&gt;Node19 -->
<g id="edge28" class="edge">
<title>Node10&#45;&gt;Node19</title>
<path fill="none" stroke="#63b8ff" d="M384.51,-285.51C367.95,-278.4 347.32,-266.84 335.21,-250 323.75,-234.07 320.2,-211.58 319.24,-195.49"/>
<polygon fill="#63b8ff" stroke="#63b8ff" points="322.75,-195.61 318.97,-185.72 315.75,-195.81 322.75,-195.61"/>
</g>
<!-- Node20 -->
<g id="node20" class="node">
<title>Node20</title>
<g id="a_node20"><a xlink:href="operation_8h.html" target="_top" xlink:title=" ">
<polygon fill="white" stroke="#666666" points="475.71,-250 344.71,-250 344.71,-220 475.71,-220 475.71,-250"/>
<text text-anchor="start" x="352.71" y="-238" font-family="Helvetica,sans-Serif" font-size="10.00">core/evaluation/operations</text>
<text text-anchor="middle" x="410.21" y="-227" font-family="Helvetica,sans-Serif" font-size="10.00">/operation.h</text>
</a>
</g>
</g>
<!-- Node10&#45;&gt;Node20 -->
<g id="edge29" class="edge">
<title>Node10&#45;&gt;Node20</title>
<path fill="none" stroke="#63b8ff" d="M410.21,-285.87C410.21,-279.4 410.21,-270.2 410.21,-261.45"/>
<polygon fill="#63b8ff" stroke="#63b8ff" points="413.71,-261.63 410.21,-251.63 406.71,-261.63 413.71,-261.63"/>
</g>
<!-- Node12&#45;&gt;Node5 -->
<g id="edge19" class="edge">
<title>Node12&#45;&gt;Node5</title>
<path fill="none" stroke="#63b8ff" d="M473.81,-164.51C497.28,-155.93 532.88,-142.92 559.28,-133.27"/>
<polygon fill="#63b8ff" stroke="#63b8ff" points="560.36,-136.6 568.56,-129.88 557.96,-130.02 560.36,-136.6"/>
</g>
<!-- Node12&#45;&gt;Node6 -->
<g id="edge17" class="edge">
<title>Node12&#45;&gt;Node6</title>
<path fill="none" stroke="#63b8ff" d="M470.98,-164.62C485.56,-157.39 503.59,-145.65 512.21,-129 521.8,-110.5 503.48,-92.56 485.82,-80.5"/>
<polygon fill="#63b8ff" stroke="#63b8ff" points="487.85,-77.65 477.53,-75.25 484.1,-83.56 487.85,-77.65"/>
</g>
<!-- Node13 -->
<g id="node13" class="node">
<title>Node13</title>
<g id="a_node13"><a xlink:href="token__type_8h.html" target="_top" xlink:title=" ">
<polygon fill="white" stroke="#666666" points="398.71,-74 325.71,-74 325.71,-55 398.71,-55 398.71,-74"/>
<text text-anchor="middle" x="362.21" y="-62" font-family="Helvetica,sans-Serif" font-size="10.00">token_type.h</text>
</a>
</g>
</g>
<!-- Node12&#45;&gt;Node13 -->
<g id="edge15" class="edge">
<title>Node12&#45;&gt;Node13</title>
<path fill="none" stroke="#63b8ff" d="M428.21,-164.6C413.08,-157.16 393.28,-145.17 381.21,-129 371.72,-116.28 366.94,-98.83 364.55,-85.45"/>
<polygon fill="#63b8ff" stroke="#63b8ff" points="368.03,-85.04 363.13,-75.64 361.1,-86.04 368.03,-85.04"/>
</g>
<!-- Node14 -->
<g id="node14" class="node">
<title>Node14</title>
<g id="a_node14"><a xlink:title=" ">
<polygon fill="#e0e0e0" stroke="#999999" points="728.71,-129 645.71,-129 645.71,-110 728.71,-110 728.71,-129"/>
<text text-anchor="middle" x="687.21" y="-117" font-family="Helvetica,sans-Serif" font-size="10.00">uni_algo/conv.h</text>
</a>
</g>
</g>
<!-- Node12&#45;&gt;Node14 -->
<g id="edge18" class="edge">
<title>Node12&#45;&gt;Node14</title>
<path fill="none" stroke="#63b8ff" d="M485.1,-165.51C525.2,-156.58 590.46,-142.05 635.94,-131.92"/>
<polygon fill="#63b8ff" stroke="#63b8ff" points="636.57,-135.36 645.57,-129.77 635.05,-128.53 636.57,-135.36"/>
</g>
<!-- Node15 -->
<g id="node15" class="node">
<title>Node15</title>
<g id="a_node15"><a xlink:href="conversion_8h.html" target="_top" xlink:title=" ">
<polygon fill="white" stroke="#666666" points="503.71,-129 390.71,-129 390.71,-110 503.71,-110 503.71,-129"/>
<text text-anchor="middle" x="447.21" y="-117" font-family="Helvetica,sans-Serif" font-size="10.00">interface/conversion.h</text>
</a>
</g>
</g>
<!-- Node12&#45;&gt;Node15 -->
<g id="edge20" class="edge">
<title>Node12&#45;&gt;Node15</title>
<path fill="none" stroke="#63b8ff" d="M448.88,-164.75C448.64,-158.27 448.29,-149.16 447.98,-140.9"/>
<polygon fill="#63b8ff" stroke="#63b8ff" points="451.48,-140.82 447.61,-130.95 444.49,-141.08 451.48,-140.82"/>
</g>
<!-- Node16 -->
<g id="node16" class="node">
<title>Node16</title>
<g id="a_node16"><a xlink:title=" ">
<polygon fill="#e0e0e0" stroke="#999999" points="787.21,-129 747.21,-129 747.21,-110 787.21,-110 787.21,-129"/>
<text text-anchor="middle" x="767.21" y="-117" font-family="Helvetica,sans-Serif" font-size="10.00">utility</text>
</a>
</g>
</g>
<!-- Node12&#45;&gt;Node16 -->
<g id="edge24" class="edge">
<title>Node12&#45;&gt;Node16</title>
<path fill="none" stroke="#63b8ff" d="M484.94,-169.41C537.61,-163.08 639.33,-149.66 735.83,-129.02"/>
<polygon fill="#63b8ff" stroke="#63b8ff" points="736.46,-132.47 745.48,-126.92 734.97,-125.63 736.46,-132.47"/>
</g>
<!-- Node17 -->
<g id="node17" class="node">
<title>Node17</title>
<g id="a_node17"><a xlink:title=" ">
<polygon fill="#e0e0e0" stroke="#999999" points="218.21,-129 168.21,-129 168.21,-110 218.21,-110 218.21,-129"/>
<text text-anchor="middle" x="193.21" y="-117" font-family="Helvetica,sans-Serif" font-size="10.00">optional</text>
</a>
</g>
</g>
<!-- Node12&#45;&gt;Node17 -->
<g id="edge25" class="edge">
<title>Node12&#45;&gt;Node17</title>
<path fill="none" stroke="#63b8ff" d="M413.35,-166.07C364.68,-156 278.22,-138.1 229.39,-127.99"/>
<polygon fill="#63b8ff" stroke="#63b8ff" points="230.4,-124.62 219.9,-126.02 228.98,-131.48 230.4,-124.62"/>
</g>
<!-- Node12&#45;&gt;Node18 -->
<g id="edge26" class="edge">
<title>Node12&#45;&gt;Node18</title>
<path fill="none" stroke="#63b8ff" d="M424.61,-164.51C401.14,-155.93 365.54,-142.92 339.14,-133.27"/>
<polygon fill="#63b8ff" stroke="#63b8ff" points="340.46,-130.02 329.87,-129.88 338.06,-136.6 340.46,-130.02"/>
</g>
<!-- Node13&#45;&gt;Node11 -->
<g id="edge16" class="edge">
<title>Node13&#45;&gt;Node11</title>
<path fill="none" stroke="#63b8ff" d="M362.21,-54.75C362.21,-48.27 362.21,-39.16 362.21,-30.9"/>
<polygon fill="#63b8ff" stroke="#63b8ff" points="365.71,-30.96 362.21,-20.96 358.71,-30.96 365.71,-30.96"/>
</g>
<!-- Node15&#45;&gt;Node4 -->
<g id="edge21" class="edge">
<title>Node15&#45;&gt;Node4</title>
<path fill="none" stroke="#63b8ff" d="M459.57,-109.54C479.88,-95.33 522.05,-67.92 562.21,-55 684.42,-15.68 839.07,-10.47 905.04,-10.2"/>
<polygon fill="#63b8ff" stroke="#63b8ff" points="904.78,-13.7 914.78,-10.2 904.78,-6.7 904.78,-13.7"/>
</g>
<!-- Node15&#45;&gt;Node6 -->
<g id="edge22" class="edge">
<title>Node15&#45;&gt;Node6</title>
<path fill="none" stroke="#63b8ff" d="M449.19,-109.75C450.68,-103.19 452.77,-93.95 454.66,-85.6"/>
<polygon fill="#63b8ff" stroke="#63b8ff" points="458.06,-86.44 456.85,-75.92 451.23,-84.9 458.06,-86.44"/>
</g>
<!-- Node15&#45;&gt;Node13 -->
<g id="edge23" class="edge">
<title>Node15&#45;&gt;Node13</title>
<path fill="none" stroke="#63b8ff" d="M432.79,-109.51C420.02,-101.54 401.11,-89.75 386.08,-80.38"/>
<polygon fill="#63b8ff" stroke="#63b8ff" points="388.04,-77.48 377.7,-75.16 384.34,-83.42 388.04,-77.48"/>
</g>
<!-- Node20&#45;&gt;Node5 -->
<g id="edge31" class="edge">
<title>Node20&#45;&gt;Node5</title>
<path fill="none" stroke="#63b8ff" d="M434.26,-219.68C450.87,-209.75 473.44,-196.17 493.21,-184 519.8,-167.64 550.09,-148.53 570.51,-135.58"/>
<polygon fill="#63b8ff" stroke="#63b8ff" points="572.37,-138.55 578.93,-130.23 568.62,-132.64 572.37,-138.55"/>
</g>
<!-- Node20&#45;&gt;Node6 -->
<g id="edge30" class="edge">
<title>Node20&#45;&gt;Node6</title>
<path fill="none" stroke="#63b8ff" d="M401.77,-219.78C392.03,-204.42 374.68,-180.13 354.21,-165 316.82,-137.35 236.24,-146.37 265.21,-110 274.51,-98.33 359.56,-82.15 413.92,-72.86"/>
<polygon fill="#63b8ff" stroke="#63b8ff" points="414.25,-76.35 423.53,-71.24 413.08,-69.45 414.25,-76.35"/>
</g>
<!-- Node20&#45;&gt;Node12 -->
<g id="edge32" class="edge">
<title>Node20&#45;&gt;Node12</title>
<path fill="none" stroke="#63b8ff" d="M419.85,-219.54C425.05,-211.74 431.53,-202.03 437.07,-193.71"/>
<polygon fill="#63b8ff" stroke="#63b8ff" points="439.95,-195.7 442.59,-185.43 434.13,-191.81 439.95,-195.7"/>
</g>
<!-- Node20&#45;&gt;Node19 -->
<g id="edge33" class="edge">
<title>Node20&#45;&gt;Node19</title>
<path fill="none" stroke="#63b8ff" d="M387.72,-219.54C373.91,-210.66 356.27,-199.32 342.34,-190.37"/>
<polygon fill="#63b8ff" stroke="#63b8ff" points="344.55,-187.63 334.24,-185.16 340.76,-193.52 344.55,-187.63"/>
</g>
<!-- Node21&#45;&gt;Node6 -->
<g id="edge41" class="edge">
<title>Node21&#45;&gt;Node6</title>
<path fill="none" stroke="#63b8ff" d="M848.22,-164.74C839.63,-150.55 820.58,-122.85 796.21,-110 770.91,-96.66 590.71,-78.01 504.69,-69.74"/>
<polygon fill="#63b8ff" stroke="#63b8ff" points="505.25,-66.27 494.96,-68.81 504.58,-73.24 505.25,-66.27"/>
</g>
<!-- Node21&#45;&gt;Node11 -->
<g id="edge36" class="edge">
<title>Node21&#45;&gt;Node11</title>
<path fill="none" stroke="#63b8ff" d="M851.35,-164.69C847.98,-150.94 839.55,-124.46 822.21,-110 678.2,10.1 595.03,-50.76 410.21,-19 407.19,-18.48 404.06,-17.94 400.91,-17.39"/>
<polygon fill="#63b8ff" stroke="#63b8ff" points="401.56,-13.95 391.11,-15.66 400.35,-20.84 401.56,-13.95"/>
</g>
<!-- Node21&#45;&gt;Node14 -->
<g id="edge42" class="edge">
<title>Node21&#45;&gt;Node14</title>
<path fill="none" stroke="#63b8ff" d="M830.82,-166.35C804.07,-157.81 758.83,-143.37 726.27,-132.97"/>
<polygon fill="#63b8ff" stroke="#63b8ff" points="727.37,-129.65 716.77,-129.94 725.24,-136.31 727.37,-129.65"/>
</g>
<!-- Node21&#45;&gt;Node16 -->
<g id="edge38" class="edge">
<title>Node21&#45;&gt;Node16</title>
<path fill="none" stroke="#63b8ff" d="M838.62,-164.51C825.7,-156.54 806.57,-144.75 791.36,-135.38"/>
<polygon fill="#63b8ff" stroke="#63b8ff" points="793.22,-132.42 782.87,-130.15 789.55,-138.38 793.22,-132.42"/>
</g>
<!-- Node22 -->
<g id="node22" class="node">
<title>Node22</title>
<g id="a_node22"><a xlink:title=" ">
<polygon fill="#e0e0e0" stroke="#999999" points="933.21,-129 881.21,-129 881.21,-110 933.21,-110 933.21,-129"/>
<text text-anchor="middle" x="907.21" y="-117" font-family="Helvetica,sans-Serif" font-size="10.00">sstream</text>
</a>
</g>
</g>
<!-- Node21&#45;&gt;Node22 -->
<g id="edge37" class="edge">
<title>Node21&#45;&gt;Node22</title>
<path fill="none" stroke="#63b8ff" d="M862.13,-164.75C869.66,-157.35 880.68,-146.54 889.94,-137.45"/>
<polygon fill="#63b8ff" stroke="#63b8ff" points="892.33,-140 897.02,-130.5 887.43,-135.01 892.33,-140"/>
</g>
<!-- Node23 -->
<g id="node23" class="node">
<title>Node23</title>
<g id="a_node23"><a xlink:href="error__type_8h.html" target="_top" xlink:title=" ">
<polygon fill="white" stroke="#666666" points="971.21,-74 903.21,-74 903.21,-55 971.21,-55 971.21,-74"/>
<text text-anchor="middle" x="937.21" y="-62" font-family="Helvetica,sans-Serif" font-size="10.00">error_type.h</text>
</a>
</g>
</g>
<!-- Node21&#45;&gt;Node23 -->
<g id="edge39" class="edge">
<title>Node21&#45;&gt;Node23</title>
<path fill="none" stroke="#63b8ff" d="M875.64,-169.24C896.94,-163.87 927.77,-152.37 942.21,-129 950.22,-116.04 948.16,-98.63 944.55,-85.32"/>
<polygon fill="#63b8ff" stroke="#63b8ff" points="947.92,-84.36 941.5,-75.93 941.26,-86.52 947.92,-84.36"/>
</g>
<!-- Node23&#45;&gt;Node4 -->
<g id="edge40" class="edge">
<title>Node23&#45;&gt;Node4</title>
<path fill="none" stroke="#63b8ff" d="M937.21,-54.75C937.21,-48.27 937.21,-39.16 937.21,-30.9"/>
<polygon fill="#63b8ff" stroke="#63b8ff" points="940.71,-30.96 937.21,-20.96 933.71,-30.96 940.71,-30.96"/>
</g>
<!-- Node24&#45;&gt;Node3 -->
<g id="edge44" class="edge">
<title>Node24&#45;&gt;Node3</title>
<path fill="none" stroke="#63b8ff" d="M381.75,-343.42C343.38,-335.15 272.97,-319.68 213.21,-305 212.21,-304.75 211.19,-304.5 210.16,-304.24"/>
<polygon fill="#63b8ff" stroke="#63b8ff" points="211.14,-300.88 200.59,-301.76 209.39,-307.66 211.14,-300.88"/>
</g>
<!-- Node24&#45;&gt;Node5 -->
<g id="edge46" class="edge">
<title>Node24&#45;&gt;Node5</title>
<path fill="none" stroke="#63b8ff" d="M424.25,-340.81C457.83,-319.16 542.6,-259.1 578.21,-184 584.79,-170.13 588.88,-153.23 591.27,-140.35"/>
<polygon fill="#63b8ff" stroke="#63b8ff" points="594.71,-141.01 592.89,-130.57 587.81,-139.87 594.71,-141.01"/>
</g>
<!-- Node24&#45;&gt;Node10 -->
<g id="edge47" class="edge">
<title>Node24&#45;&gt;Node10</title>
<path fill="none" stroke="#63b8ff" d="M410.21,-340.75C410.21,-334.27 410.21,-325.16 410.21,-316.9"/>
<polygon fill="#63b8ff" stroke="#63b8ff" points="413.71,-316.96 410.21,-306.96 406.71,-316.96 413.71,-316.96"/>
</g>
<!-- Node24&#45;&gt;Node17 -->
<g id="edge45" class="edge">
<title>Node24&#45;&gt;Node17</title>
<path fill="none" stroke="#63b8ff" d="M396.77,-340.83C383.73,-332.22 363.57,-318.42 347.21,-305 319.74,-282.47 312.77,-276.59 289.21,-250 256.1,-212.62 222.51,-164.44 205.19,-138.67"/>
<polygon fill="#63b8ff" stroke="#63b8ff" points="208.3,-137.03 199.85,-130.64 202.48,-140.91 208.3,-137.03"/>
</g>
<!-- Node25&#45;&gt;Node3 -->
<g id="edge52" class="edge">
<title>Node25&#45;&gt;Node3</title>
<path fill="none" stroke="#63b8ff" d="M115.61,-340.51C127.37,-332.62 144.72,-320.98 158.62,-311.65"/>
<polygon fill="#63b8ff" stroke="#63b8ff" points="160.4,-314.68 166.75,-306.2 156.5,-308.87 160.4,-314.68"/>
</g>
<!-- Node25&#45;&gt;Node6 -->
<g id="edge50" class="edge">
<title>Node25&#45;&gt;Node6</title>
<path fill="none" stroke="#63b8ff" d="M102.21,-340.67C102.21,-321.58 102.21,-275.02 102.21,-236 102.21,-236 102.21,-236 102.21,-173.5 102.21,-137.85 120.39,-127.92 151.21,-110 250.54,-52.25 293.62,-91.27 407.21,-74 409.26,-73.69 411.35,-73.37 413.46,-73.04"/>
<polygon fill="#63b8ff" stroke="#63b8ff" points="414,-76.49 423.33,-71.47 412.9,-69.58 414,-76.49"/>
</g>
<!-- Node25&#45;&gt;Node13 -->
<g id="edge51" class="edge">
<title>Node25&#45;&gt;Node13</title>
<path fill="none" stroke="#63b8ff" d="M73.34,-340.63C55.31,-333.68 32.98,-322.25 19.21,-305 -0.63,-280.14 0.21,-267.81 0.21,-236 0.21,-236 0.21,-236 0.21,-173.5 0.21,-108.74 215.61,-79.63 314.1,-69.7"/>
<polygon fill="#63b8ff" stroke="#63b8ff" points="314.39,-73.19 324,-68.73 313.71,-66.22 314.39,-73.19"/>
</g>
<!-- Node26 -->
<g id="node26" class="node">
<title>Node26</title>
<g id="a_node26"><a xlink:title=" ">
<polygon fill="#e0e0e0" stroke="#999999" points="74.21,-305 28.21,-305 28.21,-286 74.21,-286 74.21,-305"/>
<text text-anchor="middle" x="51.21" y="-293" font-family="Helvetica,sans-Serif" font-size="10.00">ranges</text>
</a>
</g>
</g>
<!-- Node25&#45;&gt;Node26 -->
<g id="edge53" class="edge">
<title>Node25&#45;&gt;Node26</title>
<path fill="none" stroke="#63b8ff" d="M93.79,-340.75C86.74,-333.43 76.48,-322.76 67.8,-313.74"/>
<polygon fill="#63b8ff" stroke="#63b8ff" points="70.32,-311.31 60.87,-306.53 65.28,-316.17 70.32,-311.31"/>
</g>
</g>
</svg>
        <g id="navigator" transform="translate(0 0)" fill="#404254">
                <rect fill="#f2f5e9" fill-opacity="0.5" stroke="#606060" stroke-width=".5" x="0" y="0" width="60" height="60"/>
                <use id="zoomplus" xlink:href="#zoomPlus" x="17" y="9" onmousedown="handleZoom(evt,'in')"/>
                <use id="zoomminus" xlink:href="#zoomMin" x="42" y="9" onmousedown="handleZoom(evt,'out')"/>
                <use id="reset" xlink:href="#resetDef" x="30" y="36" onmousedown="handleReset()"/>
                <g id="arrowUp" xlink:href="#dirArrow" transform="translate(30 24)" onmousedown="handlePan(0,-1)">
                  <use xlink:href="#rim" fill="#404040">
                        <set attributeName="fill" to="#808080" begin="arrowUp.mouseover" end="arrowUp.mouseout"/>
                  </use>
                  <path fill="none" stroke="white" stroke-width="1.5" d="M0,-3.0v7 M-2.5,-0.5L0,-3.0L2.5,-0.5"/>
                </g>
                <g id="arrowRight" xlink:href="#dirArrow" transform="rotate(90) translate(36 -43)" onmousedown="handlePan(1,0)">
                  <use xlink:href="#rim" fill="#404040">
                        <set attributeName="fill" to="#808080" begin="arrowRight.mouseover" end="arrowRight.mouseout"/>
                  </use>
                  <path fill="none" stroke="white" stroke-width="1.5" d="M0,-3.0v7 M-2.5,-0.5L0,-3.0L2.5,-0.5"/>
                </g>
                <g id="arrowDown" xlink:href="#dirArrow" transform="rotate(180) translate(-30 -48)" onmousedown="handlePan(0,1)">
                  <use xlink:href="#rim" fill="#404040">
                        <set attributeName="fill" to="#808080" begin="arrowDown.mouseover" end="arrowDown.mouseout"/>
                  </use>
                  <path fill="none" stroke="white" stroke-width="1.5" d="M0,-3.0v7 M-2.5,-0.5L0,-3.0L2.5,-0.5"/>
                </g>
                <g id="arrowLeft" xlink:href="#dirArrow" transform="rotate(270) translate(-36 17)" onmousedown="handlePan(-1,0)">
                  <use xlink:href="#rim" fill="#404040">
                        <set attributeName="fill" to="#808080" begin="arrowLeft.mouseover" end="arrowLeft.mouseout"/>
                  </use>
                  <path fill="none" stroke="white" stroke-width="1.5" d="M0,-3.0v7 M-2.5,-0.5L0,-3.0L2.5,-0.5"/>
                </g>
        </g>
        <svg viewBox="0 0 15 15" width="100%" height="30px" preserveAspectRatio="xMaxYMin meet">
         <g id="arrow_out" transform="scale(0.3 0.3)">
          <a xlink:href="symbol__table_8cpp__incl_org.svg" target="_base">
           <rect id="button" ry="5" rx="5" y="6" x="6" height="38" width="38"
                fill="#f2f5e9" fill-opacity="0.5" stroke="#606060" stroke-width="1.0"/>
           <path id="arrow"
             d="M 11.500037,31.436501 C 11.940474,20.09759 22.043105,11.32322 32.158766,21.979434 L 37.068811,17.246167 C 37.068811,17.246167 37.088388,32 37.088388,32 L 22.160133,31.978069 C 22.160133,31.978069 26.997745,27.140456 26.997745,27.140456 C 18.528582,18.264221 13.291696,25.230495 11.500037,31.436501 z"
             style="fill:#404040;"/>
          </a>
         </g>
        </svg>
</svg>
