<?xml version="1.0" encoding="UTF-8" standalone="no"?>
<!DOCTYPE svg PUBLIC "-//W3C//DTD SVG 1.1//EN"
 "http://www.w3.org/Graphics/SVG/1.1/DTD/svg11.dtd">
<!-- Generated by graphviz version 7.1.0 (20230121.1956)
 -->
<!-- Title: src/core/symbol_table.cpp Pages: 1 -->
<!--zoomable 478 -->
<svg id="main" version="1.1" xmlns="http://www.w3.org/2000/svg" xmlns:xlink="http://www.w3.org/1999/xlink" xml:space="preserve" onload="init(evt)">
<style type="text/css"><![CDATA[
.edge:hover path { stroke: red; }
.edge:hover polygon { stroke: red; fill: red; }
]]></style>
<script type="text/javascript"><![CDATA[
var edges = document.getElementsByTagName('g');
if (edges && edges.length) {
  for (var i=0;i<edges.length;i++) {
    if (edges[i].id.substr(0,4)=='edge') {
      edges[i].setAttribute('class','edge');
    }
  }
}
]]></script>
        <defs>
                <circle id="rim" cx="0" cy="0" r="7"/>
                <circle id="rim2" cx="0" cy="0" r="3.5"/>
                <g id="zoomPlus">
                        <use xlink:href="#rim" fill="#404040">
                                <set attributeName="fill" to="#808080" begin="zoomplus.mouseover" end="zoomplus.mouseout"/>
                        </use>
                        <path d="M-4,0h8M0,-4v8" fill="none" stroke="white" stroke-width="1.5" pointer-events="none"/>
                </g>
                <g id="zoomMin">
                        <use xlink:href="#rim" fill="#404040">
                                <set attributeName="fill" to="#808080" begin="zoomminus.mouseover" end="zoomminus.mouseout"/>
                        </use>
                        <path d="M-4,0h8" fill="none" stroke="white" stroke-width="1.5" pointer-events="none"/>
                </g>
                <g id="dirArrow">
                        <path fill="none" stroke="white" stroke-width="1.5" d="M0,-3.0v7 M-2.5,-0.5L0,-3.0L2.5,-0.5"/>
                </g>
               <g id="resetDef">
                       <use xlink:href="#rim2" fill="#404040">
                               <set attributeName="fill" to="#808080" begin="reset.mouseover" end="reset.mouseout"/>
                       </use>
               </g>
        </defs>

<script type="text/javascript">
var viewWidth = 1081;
var viewHeight = 478;
var sectionId = 'dynsection-0';
</script>
<script xlink:href="svgpan.js"/>
<svg id="graph" class="graph">
<g id="viewport">
<title>src/core/symbol_table.cpp</title>
<!-- Node1 -->
<g id="node1" class="node">
<title>Node1</title>
<g id="a_node1"><a xlink:title=" ">
<polygon fill="#999999" stroke="#666666" points="609.25,-470 478.25,-470 478.25,-451 609.25,-451 609.25,-470"/>
<text text-anchor="middle" x="543.75" y="-458" font-family="Helvetica,sans-Serif" font-size="10.00">src/core/symbol_table.cpp</text>
</a>
</g>
</g>
<!-- Node2 -->
<g id="node2" class="node">
<title>Node2</title>
<g id="a_node2"><a xlink:href="symbol__table_8h.html" target="_top" xlink:title=" ">
<polygon fill="white" stroke="#666666" points="314.25,-415 231.25,-415 231.25,-396 314.25,-396 314.25,-415"/>
<text text-anchor="middle" x="272.75" y="-403" font-family="Helvetica,sans-Serif" font-size="10.00">symbol_table.h</text>
</a>
</g>
</g>
<!-- Node1&#45;&gt;Node2 -->
<g id="edge1" class="edge">
<title>Node1&#45;&gt;Node2</title>
<path fill="none" stroke="#63b8ff" d="M497.78,-450.51C450.15,-441.19 375.8,-426.65 325.73,-416.86"/>
<polygon fill="#63b8ff" stroke="#63b8ff" points="326.46,-413.44 315.98,-414.95 325.12,-420.31 326.46,-413.44"/>
</g>
<!-- Node21 -->
<g id="node21" class="node">
<title>Node21</title>
<g id="a_node21"><a xlink:href="error_8h.html" target="_top" xlink:title=" ">
<polygon fill="white" stroke="#666666" points="888.75,-184 844.75,-184 844.75,-165 888.75,-165 888.75,-184"/>
<text text-anchor="middle" x="866.75" y="-172" font-family="Helvetica,sans-Serif" font-size="10.00">error.h</text>
</a>
</g>
</g>
<!-- Node1&#45;&gt;Node21 -->
<g id="edge48" class="edge">
<title>Node1&#45;&gt;Node21</title>
<path fill="none" stroke="#63b8ff" d="M609.41,-457.13C733.2,-450.87 988.75,-428.61 988.75,-351.5 988.75,-351.5 988.75,-351.5 988.75,-294.5 988.75,-260.33 991.93,-246 969.75,-220 952.01,-199.21 922.78,-187.84 899.98,-181.81"/>
<polygon fill="#63b8ff" stroke="#63b8ff" points="901.08,-178.48 890.54,-179.55 899.44,-185.28 901.08,-178.48"/>
</g>
<!-- Node25 -->
<g id="node25" class="node">
<title>Node25</title>
<g id="a_node25"><a xlink:href="literals_8h.html" target="_top" xlink:title=" ">
<polygon fill="white" stroke="#666666" points="150.25,-360 29.25,-360 29.25,-341 150.25,-341 150.25,-360"/>
<text text-anchor="middle" x="89.75" y="-348" font-family="Helvetica,sans-Serif" font-size="10.00">core/constants/literals.h</text>
</a>
</g>
</g>
<!-- Node1&#45;&gt;Node25 -->
<g id="edge49" class="edge">
<title>Node1&#45;&gt;Node25</title>
<path fill="none" stroke="#63b8ff" d="M477.94,-456.29C412.16,-451.72 308.7,-440.8 222.75,-415 182.9,-403.04 140.02,-380.66 114.03,-365.91"/>
<polygon fill="#63b8ff" stroke="#63b8ff" points="116.03,-363.02 105.62,-361.06 112.53,-369.09 116.03,-363.02"/>
</g>
<!-- Node26 -->
<g id="node26" class="node">
<title>Node26</title>
<g id="a_node26"><a xlink:href="config_8h.html" target="_top" xlink:title=" ">
<polygon fill="white" stroke="#666666" points="960.25,-244.5 841.25,-244.5 841.25,-225.5 960.25,-225.5 960.25,-244.5"/>
<text text-anchor="middle" x="900.75" y="-232.5" font-family="Helvetica,sans-Serif" font-size="10.00">core/constants/config.h</text>
</a>
</g>
</g>
<!-- Node1&#45;&gt;Node26 -->
<g id="edge53" class="edge">
<title>Node1&#45;&gt;Node26</title>
<path fill="none" stroke="#63b8ff" d="M579.06,-450.59C629,-436.84 721.63,-407.01 788.75,-360 831.75,-329.88 869.93,-280.38 888.61,-253.95"/>
<polygon fill="#63b8ff" stroke="#63b8ff" points="891.31,-256.2 894.13,-245.99 885.56,-252.21 891.31,-256.2"/>
</g>
<!-- Node3 -->
<g id="node3" class="node">
<title>Node3</title>
<g id="a_node3"><a xlink:title=" ">
<polygon fill="#e0e0e0" stroke="#999999" points="168.25,-305 133.25,-305 133.25,-286 168.25,-286 168.25,-305"/>
<text text-anchor="middle" x="150.75" y="-293" font-family="Helvetica,sans-Serif" font-size="10.00">map</text>
</a>
</g>
</g>
<!-- Node2&#45;&gt;Node3 -->
<g id="edge2" class="edge">
<title>Node2&#45;&gt;Node3</title>
<path fill="none" stroke="#63b8ff" d="M255.59,-395.62C240.74,-387.49 219.13,-374.52 202.75,-360 187.46,-346.44 172.98,-328.14 163.2,-314.67"/>
<polygon fill="#63b8ff" stroke="#63b8ff" points="166.21,-312.85 157.58,-306.7 160.49,-316.89 166.21,-312.85"/>
</g>
<!-- Node4 -->
<g id="node4" class="node">
<title>Node4</title>
<g id="a_node4"><a xlink:title=" ">
<polygon fill="#e0e0e0" stroke="#999999" points="844.25,-19 803.25,-19 803.25,0 844.25,0 844.25,-19"/>
<text text-anchor="middle" x="823.75" y="-7" font-family="Helvetica,sans-Serif" font-size="10.00">string</text>
</a>
</g>
</g>
<!-- Node2&#45;&gt;Node4 -->
<g id="edge3" class="edge">
<title>Node2&#45;&gt;Node4</title>
<path fill="none" stroke="#63b8ff" d="M230.99,-402.38C167.38,-398.3 50.36,-387.24 19.75,-360 -2.26,-340.42 0.75,-325.96 0.75,-296.5 0.75,-296.5 0.75,-296.5 0.75,-118.5 0.75,-38.68 90.76,-72 168.75,-55 289.63,-28.65 676.52,-14.99 791.33,-11.45"/>
<polygon fill="#63b8ff" stroke="#63b8ff" points="791.37,-14.95 801.26,-11.14 791.16,-7.95 791.37,-14.95"/>
</g>
<!-- Node5 -->
<g id="node5" class="node">
<title>Node5</title>
<g id="a_node5"><a xlink:href="array_8h.html" target="_top" xlink:title=" ">
<polygon fill="white" stroke="#666666" points="254.25,-129 187.25,-129 187.25,-110 254.25,-110 254.25,-129"/>
<text text-anchor="middle" x="220.75" y="-117" font-family="Helvetica,sans-Serif" font-size="10.00">core/array.h</text>
</a>
</g>
</g>
<!-- Node2&#45;&gt;Node5 -->
<g id="edge4" class="edge">
<title>Node2&#45;&gt;Node5</title>
<path fill="none" stroke="#63b8ff" d="M262.53,-395.78C253.69,-387.56 241.46,-374.38 235.75,-360 205.43,-283.67 212.91,-182.87 217.96,-140.56"/>
<polygon fill="#63b8ff" stroke="#63b8ff" points="221.42,-141.05 219.24,-130.69 214.48,-140.15 221.42,-141.05"/>
</g>
<!-- Node10 -->
<g id="node10" class="node">
<title>Node10</title>
<g id="a_node10"><a xlink:href="ast_8h.html" target="_top" xlink:title=" ">
<polygon fill="white" stroke="#666666" points="459.25,-305 352.25,-305 352.25,-286 459.25,-286 459.25,-305"/>
<text text-anchor="middle" x="405.75" y="-293" font-family="Helvetica,sans-Serif" font-size="10.00">core/evaluation/ast.h</text>
</a>
</g>
</g>
<!-- Node2&#45;&gt;Node10 -->
<g id="edge10" class="edge">
<title>Node2&#45;&gt;Node10</title>
<path fill="none" stroke="#63b8ff" d="M283.64,-395.66C306.04,-377.47 357.6,-335.6 386.04,-312.51"/>
<polygon fill="#63b8ff" stroke="#63b8ff" points="387.99,-315.44 393.54,-306.41 383.57,-310 387.99,-315.44"/>
</g>
<!-- Node2&#45;&gt;Node21 -->
<g id="edge35" class="edge">
<title>Node2&#45;&gt;Node21</title>
<path fill="none" stroke="#63b8ff" d="M296.04,-395.52C388.02,-360.06 726.27,-229.66 833.74,-188.23"/>
<polygon fill="#63b8ff" stroke="#63b8ff" points="834.78,-191.58 842.85,-184.71 832.26,-185.05 834.78,-191.58"/>
</g>
<!-- Node24 -->
<g id="node24" class="node">
<title>Node24</title>
<g id="a_node24"><a xlink:href="symbol_8h.html" target="_top" xlink:title=" ">
<polygon fill="white" stroke="#666666" points="300.75,-360 244.75,-360 244.75,-341 300.75,-341 300.75,-360"/>
<text text-anchor="middle" x="272.75" y="-348" font-family="Helvetica,sans-Serif" font-size="10.00">symbol.h</text>
</a>
</g>
</g>
<!-- Node2&#45;&gt;Node24 -->
<g id="edge43" class="edge">
<title>Node2&#45;&gt;Node24</title>
<path fill="none" stroke="#63b8ff" d="M272.75,-395.75C272.75,-389.27 272.75,-380.16 272.75,-371.9"/>
<polygon fill="#63b8ff" stroke="#63b8ff" points="276.25,-371.96 272.75,-361.96 269.25,-371.96 276.25,-371.96"/>
</g>
<!-- Node6 -->
<g id="node6" class="node">
<title>Node6</title>
<g id="a_node6"><a xlink:href="datatypes_8h.html" target="_top" xlink:title=" ">
<polygon fill="white" stroke="#666666" points="1005.75,-74 937.75,-74 937.75,-55 1005.75,-55 1005.75,-74"/>
<text text-anchor="middle" x="971.75" y="-62" font-family="Helvetica,sans-Serif" font-size="10.00">datatypes.h</text>
</a>
</g>
</g>
<!-- Node5&#45;&gt;Node6 -->
<g id="edge5" class="edge">
<title>Node5&#45;&gt;Node6</title>
<path fill="none" stroke="#63b8ff" d="M254.48,-111.37C257.61,-110.85 260.73,-110.38 263.75,-110 553.72,-73.68 633.05,-109.85 926.14,-74.13"/>
<polygon fill="#63b8ff" stroke="#63b8ff" points="926.56,-77.6 936.05,-72.9 925.7,-70.65 926.56,-77.6"/>
</g>
<!-- Node9 -->
<g id="node9" class="node">
<title>Node9</title>
<g id="a_node9"><a xlink:title=" ">
<polygon fill="#e0e0e0" stroke="#999999" points="243.75,-74 197.75,-74 197.75,-55 243.75,-55 243.75,-74"/>
<text text-anchor="middle" x="220.75" y="-62" font-family="Helvetica,sans-Serif" font-size="10.00">variant</text>
</a>
</g>
</g>
<!-- Node5&#45;&gt;Node9 -->
<g id="edge9" class="edge">
<title>Node5&#45;&gt;Node9</title>
<path fill="none" stroke="#63b8ff" d="M220.75,-109.75C220.75,-103.27 220.75,-94.16 220.75,-85.9"/>
<polygon fill="#63b8ff" stroke="#63b8ff" points="224.25,-85.96 220.75,-75.96 217.25,-85.96 224.25,-85.96"/>
</g>
<!-- Node6&#45;&gt;Node4 -->
<g id="edge7" class="edge">
<title>Node6&#45;&gt;Node4</title>
<path fill="none" stroke="#63b8ff" d="M946.65,-54.51C921.42,-45.48 882.48,-31.53 855.21,-21.76"/>
<polygon fill="#63b8ff" stroke="#63b8ff" points="856.69,-18.58 846.09,-18.5 854.33,-25.17 856.69,-18.58"/>
</g>
<!-- Node7 -->
<g id="node7" class="node">
<title>Node7</title>
<g id="a_node7"><a xlink:title=" ">
<polygon fill="#e0e0e0" stroke="#999999" points="959.75,-19 915.75,-19 915.75,0 959.75,0 959.75,-19"/>
<text text-anchor="middle" x="937.75" y="-7" font-family="Helvetica,sans-Serif" font-size="10.00">vector</text>
</a>
</g>
</g>
<!-- Node6&#45;&gt;Node7 -->
<g id="edge6" class="edge">
<title>Node6&#45;&gt;Node7</title>
<path fill="none" stroke="#63b8ff" d="M966.14,-54.75C961.64,-47.73 955.17,-37.64 949.54,-28.87"/>
<polygon fill="#63b8ff" stroke="#63b8ff" points="952.65,-27.24 944.31,-20.72 946.76,-31.02 952.65,-27.24"/>
</g>
<!-- Node8 -->
<g id="node8" class="node">
<title>Node8</title>
<g id="a_node8"><a xlink:title=" ">
<polygon fill="#e0e0e0" stroke="#999999" points="1031.25,-19 978.25,-19 978.25,0 1031.25,0 1031.25,-19"/>
<text text-anchor="middle" x="1004.75" y="-7" font-family="Helvetica,sans-Serif" font-size="10.00">complex</text>
</a>
</g>
</g>
<!-- Node6&#45;&gt;Node8 -->
<g id="edge8" class="edge">
<title>Node6&#45;&gt;Node8</title>
<path fill="none" stroke="#63b8ff" d="M977.2,-54.75C981.52,-47.81 987.71,-37.86 993.13,-29.16"/>
<polygon fill="#63b8ff" stroke="#63b8ff" points="996.07,-31.07 998.38,-20.73 990.13,-27.37 996.07,-31.07"/>
</g>
<!-- Node10&#45;&gt;Node4 -->
<g id="edge11" class="edge">
<title>Node10&#45;&gt;Node4</title>
<path fill="none" stroke="#63b8ff" d="M386.81,-285.63C319.06,-252.9 97.64,-136.61 188.75,-55 233.96,-14.5 669.2,-10.74 791.77,-10.49"/>
<polygon fill="#63b8ff" stroke="#63b8ff" points="791.44,-13.99 801.44,-10.47 791.43,-6.99 791.44,-13.99"/>
</g>
<!-- Node10&#45;&gt;Node5 -->
<g id="edge13" class="edge">
<title>Node10&#45;&gt;Node5</title>
<path fill="none" stroke="#63b8ff" d="M402.28,-285.91C396.02,-271.18 381.72,-240.7 362.75,-220 328.92,-183.07 279.08,-152.11 248.34,-134.96"/>
<polygon fill="#63b8ff" stroke="#63b8ff" points="250.1,-131.94 239.64,-130.21 246.74,-138.08 250.1,-131.94"/>
</g>
<!-- Node10&#45;&gt;Node6 -->
<g id="edge27" class="edge">
<title>Node10&#45;&gt;Node6</title>
<path fill="none" stroke="#63b8ff" d="M459.6,-292.58C591.82,-287.52 924.95,-272.68 969.75,-250 1035.96,-216.48 1099.77,-173.13 1060.75,-110 1050.9,-94.06 1033.41,-83.64 1016.54,-76.92"/>
<polygon fill="#63b8ff" stroke="#63b8ff" points="1018.2,-73.8 1007.6,-73.71 1015.83,-80.38 1018.2,-73.8"/>
</g>
<!-- Node11 -->
<g id="node11" class="node">
<title>Node11</title>
<g id="a_node11"><a xlink:title=" ">
<polygon fill="#e0e0e0" stroke="#999999" points="377.75,-19 323.75,-19 323.75,0 377.75,0 377.75,-19"/>
<text text-anchor="middle" x="350.75" y="-7" font-family="Helvetica,sans-Serif" font-size="10.00">iostream</text>
</a>
</g>
</g>
<!-- Node10&#45;&gt;Node11 -->
<g id="edge12" class="edge">
<title>Node10&#45;&gt;Node11</title>
<path fill="none" stroke="#63b8ff" d="M352,-288.95C290.01,-279.35 190.75,-253.43 144.75,-184 113.09,-136.21 108.74,-99.62 144.75,-55 165.37,-29.46 258.28,-17.86 312.02,-13.21"/>
<polygon fill="#63b8ff" stroke="#63b8ff" points="312.3,-16.69 321.99,-12.39 311.73,-9.72 312.3,-16.69"/>
</g>
<!-- Node12 -->
<g id="node12" class="node">
<title>Node12</title>
<g id="a_node12"><a xlink:href="token_8h.html" target="_top" xlink:title=" ">
<polygon fill="white" stroke="#666666" points="628.25,-184 557.25,-184 557.25,-165 628.25,-165 628.25,-184"/>
<text text-anchor="middle" x="592.75" y="-172" font-family="Helvetica,sans-Serif" font-size="10.00">core/token.h</text>
</a>
</g>
</g>
<!-- Node10&#45;&gt;Node12 -->
<g id="edge14" class="edge">
<title>Node10&#45;&gt;Node12</title>
<path fill="none" stroke="#63b8ff" d="M459.61,-289.12C509.12,-282.94 577.26,-270.85 593.75,-250 605.77,-234.8 603.38,-211.88 599.33,-195.48"/>
<polygon fill="#63b8ff" stroke="#63b8ff" points="602.7,-194.52 596.54,-185.89 595.98,-196.47 602.7,-194.52"/>
</g>
<!-- Node18 -->
<g id="node18" class="node">
<title>Node18</title>
<g id="a_node18"><a xlink:href="position_8h.html" target="_top" xlink:title=" ">
<polygon fill="white" stroke="#666666" points="660.25,-129 601.25,-129 601.25,-110 660.25,-110 660.25,-129"/>
<text text-anchor="middle" x="630.75" y="-117" font-family="Helvetica,sans-Serif" font-size="10.00">position.h</text>
</a>
</g>
</g>
<!-- Node10&#45;&gt;Node18 -->
<g id="edge34" class="edge">
<title>Node10&#45;&gt;Node18</title>
<path fill="none" stroke="#63b8ff" d="M459.54,-288.67C512.67,-281.91 589.16,-269.19 611.75,-250 641.86,-224.42 640.83,-204.39 637.75,-165 637.12,-156.91 635.85,-148.07 634.56,-140.41"/>
<polygon fill="#63b8ff" stroke="#63b8ff" points="638.05,-140.02 632.83,-130.81 631.16,-141.27 638.05,-140.02"/>
</g>
<!-- Node19 -->
<g id="node19" class="node">
<title>Node19</title>
<g id="a_node19"><a xlink:title=" ">
<polygon fill="#e0e0e0" stroke="#999999" points="458.75,-184 406.75,-184 406.75,-165 458.75,-165 458.75,-184"/>
<text text-anchor="middle" x="432.75" y="-172" font-family="Helvetica,sans-Serif" font-size="10.00">memory</text>
</a>
</g>
</g>
<!-- Node10&#45;&gt;Node19 -->
<g id="edge28" class="edge">
<title>Node10&#45;&gt;Node19</title>
<path fill="none" stroke="#63b8ff" d="M407.78,-285.56C412.1,-266.51 422.3,-221.56 428.24,-195.37"/>
<polygon fill="#63b8ff" stroke="#63b8ff" points="431.64,-196.23 430.44,-185.7 424.81,-194.68 431.64,-196.23"/>
</g>
<!-- Node20 -->
<g id="node20" class="node">
<title>Node20</title>
<g id="a_node20"><a xlink:href="operation_8h.html" target="_top" xlink:title=" ">
<polygon fill="white" stroke="#666666" points="584.25,-250 453.25,-250 453.25,-220 584.25,-220 584.25,-250"/>
<text text-anchor="start" x="461.25" y="-238" font-family="Helvetica,sans-Serif" font-size="10.00">core/evaluation/operations</text>
<text text-anchor="middle" x="518.75" y="-227" font-family="Helvetica,sans-Serif" font-size="10.00">/operation.h</text>
</a>
</g>
</g>
<!-- Node10&#45;&gt;Node20 -->
<g id="edge29" class="edge">
<title>Node10&#45;&gt;Node20</title>
<path fill="none" stroke="#63b8ff" d="M422.91,-285.62C438.2,-277.7 461.1,-265.85 480.69,-255.71"/>
<polygon fill="#63b8ff" stroke="#63b8ff" points="482.24,-258.84 489.52,-251.14 479.03,-252.62 482.24,-258.84"/>
</g>
<!-- Node12&#45;&gt;Node5 -->
<g id="edge19" class="edge">
<title>Node12&#45;&gt;Node5</title>
<path fill="none" stroke="#63b8ff" d="M557.11,-169.4C498.57,-162.51 378.16,-147.68 265.72,-129.23"/>
<polygon fill="#63b8ff" stroke="#63b8ff" points="266.45,-125.8 256.01,-127.62 265.31,-132.71 266.45,-125.8"/>
</g>
<!-- Node12&#45;&gt;Node6 -->
<g id="edge17" class="edge">
<title>Node12&#45;&gt;Node6</title>
<path fill="none" stroke="#63b8ff" d="M589.53,-164.84C585.13,-151.29 579.19,-125.09 592.75,-110 640.79,-56.54 836.63,-82.78 926.14,-73.96"/>
<polygon fill="#63b8ff" stroke="#63b8ff" points="926.54,-77.44 936.03,-72.73 925.68,-70.49 926.54,-77.44"/>
</g>
<!-- Node13 -->
<g id="node13" class="node">
<title>Node13</title>
<g id="a_node13"><a xlink:href="token__type_8h.html" target="_top" xlink:title=" ">
<polygon fill="white" stroke="#666666" points="387.25,-74 314.25,-74 314.25,-55 387.25,-55 387.25,-74"/>
<text text-anchor="middle" x="350.75" y="-62" font-family="Helvetica,sans-Serif" font-size="10.00">token_type.h</text>
</a>
</g>
</g>
<!-- Node12&#45;&gt;Node13 -->
<g id="edge15" class="edge">
<title>Node12&#45;&gt;Node13</title>
<path fill="none" stroke="#63b8ff" d="M556.81,-168.39C497.31,-159.63 383.47,-141.49 369.75,-129 357.64,-117.98 353.12,-99.58 351.5,-85.42"/>
<polygon fill="#63b8ff" stroke="#63b8ff" points="355.02,-85.59 350.81,-75.87 348.04,-86.1 355.02,-85.59"/>
</g>
<!-- Node14 -->
<g id="node14" class="node">
<title>Node14</title>
<g id="a_node14"><a xlink:title=" ">
<polygon fill="#e0e0e0" stroke="#999999" points="761.25,-129 678.25,-129 678.25,-110 761.25,-110 761.25,-129"/>
<text text-anchor="middle" x="719.75" y="-117" font-family="Helvetica,sans-Serif" font-size="10.00">uni_algo/conv.h</text>
</a>
</g>
</g>
<!-- Node12&#45;&gt;Node14 -->
<g id="edge18" class="edge">
<title>Node12&#45;&gt;Node14</title>
<path fill="none" stroke="#63b8ff" d="M614.3,-164.51C634.49,-156.08 664.92,-143.38 687.91,-133.79"/>
<polygon fill="#63b8ff" stroke="#63b8ff" points="689.25,-137.02 697.13,-129.94 686.55,-130.56 689.25,-137.02"/>
</g>
<!-- Node15 -->
<g id="node15" class="node">
<title>Node15</title>
<g id="a_node15"><a xlink:href="conversion_8h.html" target="_top" xlink:title=" ">
<polygon fill="white" stroke="#666666" points="506.75,-129 378.75,-129 378.75,-110 506.75,-110 506.75,-129"/>
<text text-anchor="middle" x="442.75" y="-117" font-family="Helvetica,sans-Serif" font-size="10.00">core/helpers/conversion.h</text>
</a>
</g>
</g>
<!-- Node12&#45;&gt;Node15 -->
<g id="edge20" class="edge">
<title>Node12&#45;&gt;Node15</title>
<path fill="none" stroke="#63b8ff" d="M567.31,-164.51C542.99,-155.92 506.09,-142.88 478.77,-133.22"/>
<polygon fill="#63b8ff" stroke="#63b8ff" points="480.09,-129.98 469.5,-129.95 477.76,-136.58 480.09,-129.98"/>
</g>
<!-- Node16 -->
<g id="node16" class="node">
<title>Node16</title>
<g id="a_node16"><a xlink:title=" ">
<polygon fill="#e0e0e0" stroke="#999999" points="819.75,-129 779.75,-129 779.75,-110 819.75,-110 819.75,-129"/>
<text text-anchor="middle" x="799.75" y="-117" font-family="Helvetica,sans-Serif" font-size="10.00">utility</text>
</a>
</g>
</g>
<!-- Node12&#45;&gt;Node16 -->
<g id="edge24" class="edge">
<title>Node12&#45;&gt;Node16</title>
<path fill="none" stroke="#63b8ff" d="M628.66,-164.97C662.44,-156.85 714.67,-144.04 768.68,-129.48"/>
<polygon fill="#63b8ff" stroke="#63b8ff" points="769.3,-132.94 778.04,-126.94 767.47,-126.18 769.3,-132.94"/>
</g>
<!-- Node17 -->
<g id="node17" class="node">
<title>Node17</title>
<g id="a_node17"><a xlink:title=" ">
<polygon fill="#e0e0e0" stroke="#999999" points="322.75,-129 272.75,-129 272.75,-110 322.75,-110 322.75,-129"/>
<text text-anchor="middle" x="297.75" y="-117" font-family="Helvetica,sans-Serif" font-size="10.00">optional</text>
</a>
</g>
</g>
<!-- Node12&#45;&gt;Node17 -->
<g id="edge25" class="edge">
<title>Node12&#45;&gt;Node17</title>
<path fill="none" stroke="#63b8ff" d="M557.05,-167.79C507.49,-159.74 415.11,-144.34 336.75,-129 335.77,-128.81 334.78,-128.61 333.77,-128.41"/>
<polygon fill="#63b8ff" stroke="#63b8ff" points="334.88,-125.06 324.38,-126.45 333.45,-131.92 334.88,-125.06"/>
</g>
<!-- Node12&#45;&gt;Node18 -->
<g id="edge26" class="edge">
<title>Node12&#45;&gt;Node18</title>
<path fill="none" stroke="#63b8ff" d="M599.03,-164.75C604.11,-157.66 611.45,-147.42 617.78,-138.59"/>
<polygon fill="#63b8ff" stroke="#63b8ff" points="620.48,-140.84 623.46,-130.67 614.79,-136.76 620.48,-140.84"/>
</g>
<!-- Node13&#45;&gt;Node11 -->
<g id="edge16" class="edge">
<title>Node13&#45;&gt;Node11</title>
<path fill="none" stroke="#63b8ff" d="M350.75,-54.75C350.75,-48.27 350.75,-39.16 350.75,-30.9"/>
<polygon fill="#63b8ff" stroke="#63b8ff" points="354.25,-30.96 350.75,-20.96 347.25,-30.96 354.25,-30.96"/>
</g>
<!-- Node15&#45;&gt;Node4 -->
<g id="edge21" class="edge">
<title>Node15&#45;&gt;Node4</title>
<path fill="none" stroke="#63b8ff" d="M474.26,-109.57C545.86,-89.27 720.19,-39.86 792.02,-19.49"/>
<polygon fill="#63b8ff" stroke="#63b8ff" points="792.9,-22.88 801.57,-16.79 791,-16.15 792.9,-22.88"/>
</g>
<!-- Node15&#45;&gt;Node6 -->
<g id="edge22" class="edge">
<title>Node15&#45;&gt;Node6</title>
<path fill="none" stroke="#63b8ff" d="M507.01,-111.39C511.66,-110.91 516.28,-110.44 520.75,-110 698.28,-92.5 746.62,-99.4 926.36,-74.19"/>
<polygon fill="#63b8ff" stroke="#63b8ff" points="926.63,-77.69 936.04,-72.82 925.65,-70.76 926.63,-77.69"/>
</g>
<!-- Node15&#45;&gt;Node13 -->
<g id="edge23" class="edge">
<title>Node15&#45;&gt;Node13</title>
<path fill="none" stroke="#63b8ff" d="M427.15,-109.51C413.05,-101.39 392.07,-89.3 375.65,-79.85"/>
<polygon fill="#63b8ff" stroke="#63b8ff" points="377.85,-77.07 367.44,-75.11 374.36,-83.14 377.85,-77.07"/>
</g>
<!-- Node20&#45;&gt;Node5 -->
<g id="edge31" class="edge">
<title>Node20&#45;&gt;Node5</title>
<path fill="none" stroke="#63b8ff" d="M512.21,-219.53C504.16,-203.47 488.9,-178.1 467.75,-165 392.46,-118.37 357,-143.8 265.66,-129.18"/>
<polygon fill="#63b8ff" stroke="#63b8ff" points="266.48,-125.77 256.03,-127.51 265.28,-132.67 266.48,-125.77"/>
</g>
<!-- Node20&#45;&gt;Node6 -->
<g id="edge30" class="edge">
<title>Node20&#45;&gt;Node6</title>
<path fill="none" stroke="#63b8ff" d="M521.08,-219.75C526.31,-192.88 541.73,-135.2 580.75,-110 643.32,-69.59 834.83,-84.17 926.13,-74.04"/>
<polygon fill="#63b8ff" stroke="#63b8ff" points="926.57,-77.51 936.03,-72.75 925.67,-70.57 926.57,-77.51"/>
</g>
<!-- Node20&#45;&gt;Node12 -->
<g id="edge32" class="edge">
<title>Node20&#45;&gt;Node12</title>
<path fill="none" stroke="#63b8ff" d="M537.04,-219.54C547.9,-210.96 561.68,-200.07 572.81,-191.26"/>
<polygon fill="#63b8ff" stroke="#63b8ff" points="574.92,-194.06 580.59,-185.11 570.58,-188.57 574.92,-194.06"/>
</g>
<!-- Node20&#45;&gt;Node19 -->
<g id="edge33" class="edge">
<title>Node20&#45;&gt;Node19</title>
<path fill="none" stroke="#63b8ff" d="M497.49,-219.54C484.57,-210.75 468.1,-199.54 455,-190.63"/>
<polygon fill="#63b8ff" stroke="#63b8ff" points="457.25,-187.93 447.01,-185.2 453.31,-193.72 457.25,-187.93"/>
</g>
<!-- Node21&#45;&gt;Node6 -->
<g id="edge41" class="edge">
<title>Node21&#45;&gt;Node6</title>
<path fill="none" stroke="#63b8ff" d="M889.09,-171.44C914.73,-167.75 955.69,-157.48 974.75,-129 983.31,-116.22 981.66,-98.54 978.38,-85.08"/>
<polygon fill="#63b8ff" stroke="#63b8ff" points="981.78,-84.22 975.59,-75.62 975.06,-86.2 981.78,-84.22"/>
</g>
<!-- Node21&#45;&gt;Node11 -->
<g id="edge36" class="edge">
<title>Node21&#45;&gt;Node11</title>
<path fill="none" stroke="#63b8ff" d="M864,-164.51C859.22,-150.51 848.01,-123.7 828.75,-110 757.42,-59.25 489.97,-25.61 389.35,-14.52"/>
<polygon fill="#63b8ff" stroke="#63b8ff" points="390.03,-11.07 379.71,-13.47 389.28,-18.03 390.03,-11.07"/>
</g>
<!-- Node21&#45;&gt;Node14 -->
<g id="edge42" class="edge">
<title>Node21&#45;&gt;Node14</title>
<path fill="none" stroke="#63b8ff" d="M844.43,-165.45C820.67,-156.89 782.76,-143.22 754.98,-133.2"/>
<polygon fill="#63b8ff" stroke="#63b8ff" points="756.52,-130.04 745.93,-129.94 754.15,-136.62 756.52,-130.04"/>
</g>
<!-- Node21&#45;&gt;Node16 -->
<g id="edge38" class="edge">
<title>Node21&#45;&gt;Node16</title>
<path fill="none" stroke="#63b8ff" d="M855.39,-164.51C845.7,-156.85 831.55,-145.66 819.95,-136.47"/>
<polygon fill="#63b8ff" stroke="#63b8ff" points="822.15,-133.76 812.14,-130.3 817.81,-139.25 822.15,-133.76"/>
</g>
<!-- Node22 -->
<g id="node22" class="node">
<title>Node22</title>
<g id="a_node22"><a xlink:title=" ">
<polygon fill="#e0e0e0" stroke="#999999" points="965.75,-129 913.75,-129 913.75,-110 965.75,-110 965.75,-129"/>
<text text-anchor="middle" x="939.75" y="-117" font-family="Helvetica,sans-Serif" font-size="10.00">sstream</text>
</a>
</g>
</g>
<!-- Node21&#45;&gt;Node22 -->
<g id="edge37" class="edge">
<title>Node21&#45;&gt;Node22</title>
<path fill="none" stroke="#63b8ff" d="M879.14,-164.51C889.9,-156.7 905.72,-145.21 918.5,-135.93"/>
<polygon fill="#63b8ff" stroke="#63b8ff" points="920.29,-138.95 926.33,-130.25 916.18,-133.29 920.29,-138.95"/>
</g>
<!-- Node23 -->
<g id="node23" class="node">
<title>Node23</title>
<g id="a_node23"><a xlink:href="error__type_8h.html" target="_top" xlink:title=" ">
<polygon fill="white" stroke="#666666" points="919.75,-74 851.75,-74 851.75,-55 919.75,-55 919.75,-74"/>
<text text-anchor="middle" x="885.75" y="-62" font-family="Helvetica,sans-Serif" font-size="10.00">error_type.h</text>
</a>
</g>
</g>
<!-- Node21&#45;&gt;Node23 -->
<g id="edge39" class="edge">
<title>Node21&#45;&gt;Node23</title>
<path fill="none" stroke="#63b8ff" d="M868.31,-164.66C871.33,-147.5 878.05,-109.26 882.22,-85.6"/>
<polygon fill="#63b8ff" stroke="#63b8ff" points="885.63,-86.41 883.91,-75.95 878.73,-85.19 885.63,-86.41"/>
</g>
<!-- Node23&#45;&gt;Node4 -->
<g id="edge40" class="edge">
<title>Node23&#45;&gt;Node4</title>
<path fill="none" stroke="#63b8ff" d="M875.23,-54.51C866.36,-46.93 853.44,-35.88 842.76,-26.75"/>
<polygon fill="#63b8ff" stroke="#63b8ff" points="845.14,-24.18 835.26,-20.34 840.59,-29.5 845.14,-24.18"/>
</g>
<!-- Node24&#45;&gt;Node3 -->
<g id="edge44" class="edge">
<title>Node24&#45;&gt;Node3</title>
<path fill="none" stroke="#63b8ff" d="M252.06,-340.51C231.93,-331.77 201.22,-318.42 178.89,-308.72"/>
<polygon fill="#63b8ff" stroke="#63b8ff" points="180.33,-305.53 169.76,-304.76 177.54,-311.95 180.33,-305.53"/>
</g>
<!-- Node24&#45;&gt;Node5 -->
<g id="edge46" class="edge">
<title>Node24&#45;&gt;Node5</title>
<path fill="none" stroke="#63b8ff" d="M270.71,-340.52C263.08,-306.89 236.05,-187.86 225.25,-140.32"/>
<polygon fill="#63b8ff" stroke="#63b8ff" points="228.68,-139.62 223.06,-130.65 221.86,-141.17 228.68,-139.62"/>
</g>
<!-- Node24&#45;&gt;Node10 -->
<g id="edge47" class="edge">
<title>Node24&#45;&gt;Node10</title>
<path fill="none" stroke="#63b8ff" d="M295.31,-340.51C316.65,-332.01 348.91,-319.15 373.07,-309.53"/>
<polygon fill="#63b8ff" stroke="#63b8ff" points="374.12,-312.87 382.12,-305.92 371.53,-306.37 374.12,-312.87"/>
</g>
<!-- Node24&#45;&gt;Node17 -->
<g id="edge45" class="edge">
<title>Node24&#45;&gt;Node17</title>
<path fill="none" stroke="#63b8ff" d="M273.73,-340.52C277.4,-306.89 290.4,-187.86 295.59,-140.32"/>
<polygon fill="#63b8ff" stroke="#63b8ff" points="299.04,-140.99 296.64,-130.67 292.08,-140.23 299.04,-140.99"/>
</g>
<!-- Node25&#45;&gt;Node3 -->
<g id="edge52" class="edge">
<title>Node25&#45;&gt;Node3</title>
<path fill="none" stroke="#63b8ff" d="M100.1,-340.51C108.83,-332.93 121.54,-321.88 132.05,-312.75"/>
<polygon fill="#63b8ff" stroke="#63b8ff" points="134.16,-315.55 139.41,-306.35 129.57,-310.27 134.16,-315.55"/>
</g>
<!-- Node25&#45;&gt;Node6 -->
<g id="edge50" class="edge">
<title>Node25&#45;&gt;Node6</title>
<path fill="none" stroke="#63b8ff" d="M150.6,-345.33C225.86,-339.5 357.63,-327.05 468.75,-305 663.07,-266.44 715.45,-261.54 897.75,-184 942.29,-165.05 967.67,-170.99 991.75,-129 999.92,-114.76 992.87,-96.77 984.97,-83.58"/>
<polygon fill="#63b8ff" stroke="#63b8ff" points="988.02,-81.85 979.57,-75.46 982.19,-85.72 988.02,-81.85"/>
</g>
<!-- Node25&#45;&gt;Node13 -->
<g id="edge51" class="edge">
<title>Node25&#45;&gt;Node13</title>
<path fill="none" stroke="#63b8ff" d="M88.84,-340.68C86.94,-321.61 82.75,-275.09 82.75,-236 82.75,-236 82.75,-236 82.75,-173.5 82.75,-126.58 225.83,-90.57 302.9,-74.57"/>
<polygon fill="#63b8ff" stroke="#63b8ff" points="303.19,-78.09 312.29,-72.66 301.79,-71.23 303.19,-78.09"/>
</g>
<!-- Node26&#45;&gt;Node6 -->
<g id="edge54" class="edge">
<title>Node26&#45;&gt;Node6</title>
<path fill="none" stroke="#63b8ff" d="M927.83,-225.01C964.16,-211.16 1026.38,-180.66 1045.75,-129 1048.72,-121.09 1049.91,-117.35 1045.75,-110 1037.93,-96.17 1023.9,-86.16 1010.15,-79.19"/>
<polygon fill="#63b8ff" stroke="#63b8ff" points="1011.71,-76.05 1001.16,-75.06 1008.79,-82.41 1011.71,-76.05"/>
</g>
<!-- Node26&#45;&gt;Node12 -->
<g id="edge55" class="edge">
<title>Node26&#45;&gt;Node12</title>
<path fill="none" stroke="#63b8ff" d="M853.64,-225.05C795.5,-214.01 697.26,-195.35 639.36,-184.35"/>
<polygon fill="#63b8ff" stroke="#63b8ff" points="640.3,-180.97 629.82,-182.54 639,-187.85 640.3,-180.97"/>
</g>
</g>
</svg>
        <g id="navigator" transform="translate(0 0)" fill="#404254">
                <rect fill="#f2f5e9" fill-opacity="0.5" stroke="#606060" stroke-width=".5" x="0" y="0" width="60" height="60"/>
                <use id="zoomplus" xlink:href="#zoomPlus" x="17" y="9" onmousedown="handleZoom(evt,'in')"/>
                <use id="zoomminus" xlink:href="#zoomMin" x="42" y="9" onmousedown="handleZoom(evt,'out')"/>
                <use id="reset" xlink:href="#resetDef" x="30" y="36" onmousedown="handleReset()"/>
                <g id="arrowUp" xlink:href="#dirArrow" transform="translate(30 24)" onmousedown="handlePan(0,-1)">
                  <use xlink:href="#rim" fill="#404040">
                        <set attributeName="fill" to="#808080" begin="arrowUp.mouseover" end="arrowUp.mouseout"/>
                  </use>
                  <path fill="none" stroke="white" stroke-width="1.5" d="M0,-3.0v7 M-2.5,-0.5L0,-3.0L2.5,-0.5"/>
                </g>
                <g id="arrowRight" xlink:href="#dirArrow" transform="rotate(90) translate(36 -43)" onmousedown="handlePan(1,0)">
                  <use xlink:href="#rim" fill="#404040">
                        <set attributeName="fill" to="#808080" begin="arrowRight.mouseover" end="arrowRight.mouseout"/>
                  </use>
                  <path fill="none" stroke="white" stroke-width="1.5" d="M0,-3.0v7 M-2.5,-0.5L0,-3.0L2.5,-0.5"/>
                </g>
                <g id="arrowDown" xlink:href="#dirArrow" transform="rotate(180) translate(-30 -48)" onmousedown="handlePan(0,1)">
                  <use xlink:href="#rim" fill="#404040">
                        <set attributeName="fill" to="#808080" begin="arrowDown.mouseover" end="arrowDown.mouseout"/>
                  </use>
                  <path fill="none" stroke="white" stroke-width="1.5" d="M0,-3.0v7 M-2.5,-0.5L0,-3.0L2.5,-0.5"/>
                </g>
                <g id="arrowLeft" xlink:href="#dirArrow" transform="rotate(270) translate(-36 17)" onmousedown="handlePan(-1,0)">
                  <use xlink:href="#rim" fill="#404040">
                        <set attributeName="fill" to="#808080" begin="arrowLeft.mouseover" end="arrowLeft.mouseout"/>
                  </use>
                  <path fill="none" stroke="white" stroke-width="1.5" d="M0,-3.0v7 M-2.5,-0.5L0,-3.0L2.5,-0.5"/>
                </g>
        </g>
        <svg viewBox="0 0 15 15" width="100%" height="30px" preserveAspectRatio="xMaxYMin meet">
         <g id="arrow_out" transform="scale(0.3 0.3)">
          <a xlink:href="symbol__table_8cpp__incl_org.svg" target="_base">
           <rect id="button" ry="5" rx="5" y="6" x="6" height="38" width="38"
                fill="#f2f5e9" fill-opacity="0.5" stroke="#606060" stroke-width="1.0"/>
           <path id="arrow"
             d="M 11.500037,31.436501 C 11.940474,20.09759 22.043105,11.32322 32.158766,21.979434 L 37.068811,17.246167 C 37.068811,17.246167 37.088388,32 37.088388,32 L 22.160133,31.978069 C 22.160133,31.978069 26.997745,27.140456 26.997745,27.140456 C 18.528582,18.264221 13.291696,25.230495 11.500037,31.436501 z"
             style="fill:#404040;"/>
          </a>
         </g>
        </svg>
</svg>
