<?xml version="1.0" encoding="UTF-8" standalone="no"?>
<!DOCTYPE svg PUBLIC "-//W3C//DTD SVG 1.1//EN"
 "http://www.w3.org/Graphics/SVG/1.1/DTD/svg11.dtd">
<!-- Generated by graphviz version 7.1.0 (20230121.1956)
 -->
<!-- Title: src/core/symbol_table.h Pages: 1 -->
<svg width="961pt" height="423pt"
 viewBox="0.00 0.00 961.00 423.00" xmlns="http://www.w3.org/2000/svg" xmlns:xlink="http://www.w3.org/1999/xlink">
<g id="graph0" class="graph" transform="scale(1 1) rotate(0) translate(4 419)">
<title>src/core/symbol_table.h</title>
<!-- Node1 -->
<g id="node1" class="node">
<title>Node1</title>
<g id="a_node1"><a xlink:title=" ">
<polygon fill="#999999" stroke="#666666" points="275.5,-415 154.5,-415 154.5,-396 275.5,-396 275.5,-415"/>
<text text-anchor="middle" x="215" y="-403" font-family="Helvetica,sans-Serif" font-size="10.00">src/core/symbol_table.h</text>
</a>
</g>
</g>
<!-- Node2 -->
<g id="node2" class="node">
<title>Node2</title>
<g id="a_node2"><a xlink:title=" ">
<polygon fill="#e0e0e0" stroke="#999999" points="63.5,-305 28.5,-305 28.5,-286 63.5,-286 63.5,-305"/>
<text text-anchor="middle" x="46" y="-293" font-family="Helvetica,sans-Serif" font-size="10.00">map</text>
</a>
</g>
</g>
<!-- Node1&#45;&gt;Node2 -->
<g id="edge1" class="edge">
<title>Node1&#45;&gt;Node2</title>
<path fill="none" stroke="#63b8ff" d="M172.49,-395.52C147.57,-388.74 116.48,-377.54 93,-360 77.05,-348.08 64.07,-329.26 55.83,-315.19"/>
<polygon fill="#63b8ff" stroke="#63b8ff" points="58.91,-313.53 51,-306.48 52.79,-316.93 58.91,-313.53"/>
</g>
<!-- Node3 -->
<g id="node3" class="node">
<title>Node3</title>
<g id="a_node3"><a xlink:title=" ">
<polygon fill="#e0e0e0" stroke="#999999" points="629.5,-19 588.5,-19 588.5,0 629.5,0 629.5,-19"/>
<text text-anchor="middle" x="609" y="-7" font-family="Helvetica,sans-Serif" font-size="10.00">string</text>
</a>
</g>
</g>
<!-- Node1&#45;&gt;Node3 -->
<g id="edge2" class="edge">
<title>Node1&#45;&gt;Node3</title>
<path fill="none" stroke="#63b8ff" d="M275.71,-401.98C452.24,-393.85 953,-364.77 953,-296.5 953,-296.5 953,-296.5 953,-118.5 953,-53.48 726.44,-22.86 641.05,-13.63"/>
<polygon fill="#63b8ff" stroke="#63b8ff" points="641.56,-10.17 631.25,-12.61 640.83,-17.13 641.56,-10.17"/>
</g>
<!-- Node4 -->
<g id="node4" class="node">
<title>Node4</title>
<g id="a_node4"><a xlink:href="array_8h.html" target="_top" xlink:title=" ">
<polygon fill="white" stroke="#666666" points="98.5,-129 31.5,-129 31.5,-110 98.5,-110 98.5,-129"/>
<text text-anchor="middle" x="65" y="-117" font-family="Helvetica,sans-Serif" font-size="10.00">core/array.h</text>
</a>
</g>
</g>
<!-- Node1&#45;&gt;Node4 -->
<g id="edge3" class="edge">
<title>Node1&#45;&gt;Node4</title>
<path fill="none" stroke="#63b8ff" d="M154.25,-399.59C90.67,-390.74 0,-365.94 0,-296.5 0,-296.5 0,-296.5 0,-234 0,-195.63 28.32,-158.46 47.58,-137.62"/>
<polygon fill="#63b8ff" stroke="#63b8ff" points="49.94,-140.22 54.36,-130.59 44.9,-135.36 49.94,-140.22"/>
</g>
<!-- Node9 -->
<g id="node9" class="node">
<title>Node9</title>
<g id="a_node9"><a xlink:href="ast_8h.html" target="_top" xlink:title=" ">
<polygon fill="white" stroke="#666666" points="400.5,-305 293.5,-305 293.5,-286 400.5,-286 400.5,-305"/>
<text text-anchor="middle" x="347" y="-293" font-family="Helvetica,sans-Serif" font-size="10.00">core/evaluation/ast.h</text>
</a>
</g>
</g>
<!-- Node1&#45;&gt;Node9 -->
<g id="edge9" class="edge">
<title>Node1&#45;&gt;Node9</title>
<path fill="none" stroke="#63b8ff" d="M225.8,-395.66C248.04,-377.47 299.21,-335.6 327.43,-312.51"/>
<polygon fill="#63b8ff" stroke="#63b8ff" points="329.35,-315.46 334.88,-306.42 324.92,-310.04 329.35,-315.46"/>
</g>
<!-- Node20 -->
<g id="node20" class="node">
<title>Node20</title>
<g id="a_node20"><a xlink:href="error_8h.html" target="_top" xlink:title=" ">
<polygon fill="white" stroke="#666666" points="829,-184 785,-184 785,-165 829,-165 829,-184"/>
<text text-anchor="middle" x="807" y="-172" font-family="Helvetica,sans-Serif" font-size="10.00">error.h</text>
</a>
</g>
</g>
<!-- Node1&#45;&gt;Node20 -->
<g id="edge34" class="edge">
<title>Node1&#45;&gt;Node20</title>
<path fill="none" stroke="#63b8ff" d="M238.99,-395.63C302.06,-372.27 477.72,-306.91 623,-250 676.36,-229.1 738.04,-203.91 774.71,-188.83"/>
<polygon fill="#63b8ff" stroke="#63b8ff" points="775.94,-192.11 783.85,-185.07 773.28,-185.64 775.94,-192.11"/>
</g>
<!-- Node23 -->
<g id="node23" class="node">
<title>Node23</title>
<g id="a_node23"><a xlink:href="symbol_8h.html" target="_top" xlink:title=" ">
<polygon fill="white" stroke="#666666" points="158,-360 102,-360 102,-341 158,-341 158,-360"/>
<text text-anchor="middle" x="130" y="-348" font-family="Helvetica,sans-Serif" font-size="10.00">symbol.h</text>
</a>
</g>
</g>
<!-- Node1&#45;&gt;Node23 -->
<g id="edge42" class="edge">
<title>Node1&#45;&gt;Node23</title>
<path fill="none" stroke="#63b8ff" d="M200.58,-395.51C187.8,-387.54 168.9,-375.75 153.87,-366.38"/>
<polygon fill="#63b8ff" stroke="#63b8ff" points="155.83,-363.48 145.49,-361.16 152.12,-369.42 155.83,-363.48"/>
</g>
<!-- Node5 -->
<g id="node5" class="node">
<title>Node5</title>
<g id="a_node5"><a xlink:href="datatypes_8h.html" target="_top" xlink:title=" ">
<polygon fill="white" stroke="#666666" points="305,-74 237,-74 237,-55 305,-55 305,-74"/>
<text text-anchor="middle" x="271" y="-62" font-family="Helvetica,sans-Serif" font-size="10.00">datatypes.h</text>
</a>
</g>
</g>
<!-- Node4&#45;&gt;Node5 -->
<g id="edge4" class="edge">
<title>Node4&#45;&gt;Node5</title>
<path fill="none" stroke="#63b8ff" d="M98.56,-109.87C133.21,-100.95 187.51,-86.98 225.9,-77.1"/>
<polygon fill="#63b8ff" stroke="#63b8ff" points="226.49,-80.56 235.31,-74.68 224.75,-73.79 226.49,-80.56"/>
</g>
<!-- Node8 -->
<g id="node8" class="node">
<title>Node8</title>
<g id="a_node8"><a xlink:title=" ">
<polygon fill="#e0e0e0" stroke="#999999" points="88,-74 42,-74 42,-55 88,-55 88,-74"/>
<text text-anchor="middle" x="65" y="-62" font-family="Helvetica,sans-Serif" font-size="10.00">variant</text>
</a>
</g>
</g>
<!-- Node4&#45;&gt;Node8 -->
<g id="edge8" class="edge">
<title>Node4&#45;&gt;Node8</title>
<path fill="none" stroke="#63b8ff" d="M65,-109.75C65,-103.27 65,-94.16 65,-85.9"/>
<polygon fill="#63b8ff" stroke="#63b8ff" points="68.5,-85.96 65,-75.96 61.5,-85.96 68.5,-85.96"/>
</g>
<!-- Node5&#45;&gt;Node3 -->
<g id="edge6" class="edge">
<title>Node5&#45;&gt;Node3</title>
<path fill="none" stroke="#63b8ff" d="M305.27,-58.13C370.86,-47.84 513.28,-25.51 577.03,-15.51"/>
<polygon fill="#63b8ff" stroke="#63b8ff" points="577.5,-18.98 586.84,-13.98 576.42,-12.07 577.5,-18.98"/>
</g>
<!-- Node6 -->
<g id="node6" class="node">
<title>Node6</title>
<g id="a_node6"><a xlink:title=" ">
<polygon fill="#e0e0e0" stroke="#999999" points="260,-19 216,-19 216,0 260,0 260,-19"/>
<text text-anchor="middle" x="238" y="-7" font-family="Helvetica,sans-Serif" font-size="10.00">vector</text>
</a>
</g>
</g>
<!-- Node5&#45;&gt;Node6 -->
<g id="edge5" class="edge">
<title>Node5&#45;&gt;Node6</title>
<path fill="none" stroke="#63b8ff" d="M265.55,-54.75C261.23,-47.81 255.04,-37.86 249.62,-29.16"/>
<polygon fill="#63b8ff" stroke="#63b8ff" points="252.62,-27.37 244.37,-20.73 246.68,-31.07 252.62,-27.37"/>
</g>
<!-- Node7 -->
<g id="node7" class="node">
<title>Node7</title>
<g id="a_node7"><a xlink:title=" ">
<polygon fill="#e0e0e0" stroke="#999999" points="331.5,-19 278.5,-19 278.5,0 331.5,0 331.5,-19"/>
<text text-anchor="middle" x="305" y="-7" font-family="Helvetica,sans-Serif" font-size="10.00">complex</text>
</a>
</g>
</g>
<!-- Node5&#45;&gt;Node7 -->
<g id="edge7" class="edge">
<title>Node5&#45;&gt;Node7</title>
<path fill="none" stroke="#63b8ff" d="M276.61,-54.75C281.12,-47.73 287.59,-37.64 293.21,-28.87"/>
<polygon fill="#63b8ff" stroke="#63b8ff" points="295.99,-31.02 298.45,-20.72 290.1,-27.24 295.99,-31.02"/>
</g>
<!-- Node9&#45;&gt;Node3 -->
<g id="edge10" class="edge">
<title>Node9&#45;&gt;Node3</title>
<path fill="none" stroke="#63b8ff" d="M400.97,-293.15C477.67,-288.03 609,-266.05 609,-175.5 609,-175.5 609,-175.5 609,-118.5 609,-87.92 609,-52.48 609,-30.77"/>
<polygon fill="#63b8ff" stroke="#63b8ff" points="612.5,-30.97 609,-20.97 605.5,-30.97 612.5,-30.97"/>
</g>
<!-- Node9&#45;&gt;Node4 -->
<g id="edge12" class="edge">
<title>Node9&#45;&gt;Node4</title>
<path fill="none" stroke="#63b8ff" d="M293.32,-286.16C262.14,-279.64 223.03,-268.49 192,-250 142.13,-220.28 98.22,-166.21 77.55,-138.27"/>
<polygon fill="#63b8ff" stroke="#63b8ff" points="80.61,-136.52 71.91,-130.48 74.94,-140.63 80.61,-136.52"/>
</g>
<!-- Node9&#45;&gt;Node5 -->
<g id="edge26" class="edge">
<title>Node9&#45;&gt;Node5</title>
<path fill="none" stroke="#63b8ff" d="M295.66,-285.58C271.94,-279.17 244.89,-268.29 226,-250 184.32,-209.64 188.09,-185.95 177,-129 175.39,-120.71 172.48,-117.14 177,-110 187.85,-92.86 207.27,-82.2 225.66,-75.62"/>
<polygon fill="#63b8ff" stroke="#63b8ff" points="226.69,-78.97 235.15,-72.58 224.56,-72.3 226.69,-78.97"/>
</g>
<!-- Node10 -->
<g id="node10" class="node">
<title>Node10</title>
<g id="a_node10"><a xlink:title=" ">
<polygon fill="#e0e0e0" stroke="#999999" points="942,-19 888,-19 888,0 942,0 942,-19"/>
<text text-anchor="middle" x="915" y="-7" font-family="Helvetica,sans-Serif" font-size="10.00">iostream</text>
</a>
</g>
</g>
<!-- Node9&#45;&gt;Node10 -->
<g id="edge11" class="edge">
<title>Node9&#45;&gt;Node10</title>
<path fill="none" stroke="#63b8ff" d="M400.75,-290.22C493.87,-281.13 689.45,-254.62 838,-184 875.98,-165.94 890.96,-163.51 915,-129 934.18,-101.46 935.43,-88.12 930,-55 928.63,-46.66 925.91,-37.77 923.16,-30.15"/>
<polygon fill="#63b8ff" stroke="#63b8ff" points="926.44,-28.94 919.55,-20.89 919.92,-31.48 926.44,-28.94"/>
</g>
<!-- Node11 -->
<g id="node11" class="node">
<title>Node11</title>
<g id="a_node11"><a xlink:href="token_8h.html" target="_top" xlink:title=" ">
<polygon fill="white" stroke="#666666" points="417.5,-184 346.5,-184 346.5,-165 417.5,-165 417.5,-184"/>
<text text-anchor="middle" x="382" y="-172" font-family="Helvetica,sans-Serif" font-size="10.00">core/token.h</text>
</a>
</g>
</g>
<!-- Node9&#45;&gt;Node11 -->
<g id="edge13" class="edge">
<title>Node9&#45;&gt;Node11</title>
<path fill="none" stroke="#63b8ff" d="M354.38,-285.61C361.02,-277.06 370.42,-263.48 375,-250 381.01,-232.32 382.48,-211 382.61,-195.71"/>
<polygon fill="#63b8ff" stroke="#63b8ff" points="386.11,-195.96 382.49,-186.01 379.11,-196.05 386.11,-195.96"/>
</g>
<!-- Node17 -->
<g id="node17" class="node">
<title>Node17</title>
<g id="a_node17"><a xlink:href="position_8h.html" target="_top" xlink:title=" ">
<polygon fill="white" stroke="#666666" points="580.5,-129 521.5,-129 521.5,-110 580.5,-110 580.5,-129"/>
<text text-anchor="middle" x="551" y="-117" font-family="Helvetica,sans-Serif" font-size="10.00">position.h</text>
</a>
</g>
</g>
<!-- Node9&#45;&gt;Node17 -->
<g id="edge33" class="edge">
<title>Node9&#45;&gt;Node17</title>
<path fill="none" stroke="#63b8ff" d="M362.88,-285.6C377.77,-277.05 400.45,-263.47 419,-250 455.75,-223.32 464.85,-216.07 497,-184 511.7,-169.34 526.88,-151.17 537.38,-138.03"/>
<polygon fill="#63b8ff" stroke="#63b8ff" points="540.04,-140.31 543.49,-130.29 534.55,-135.98 540.04,-140.31"/>
</g>
<!-- Node18 -->
<g id="node18" class="node">
<title>Node18</title>
<g id="a_node18"><a xlink:title=" ">
<polygon fill="#e0e0e0" stroke="#999999" points="488,-184 436,-184 436,-165 488,-165 488,-184"/>
<text text-anchor="middle" x="462" y="-172" font-family="Helvetica,sans-Serif" font-size="10.00">memory</text>
</a>
</g>
</g>
<!-- Node9&#45;&gt;Node18 -->
<g id="edge27" class="edge">
<title>Node9&#45;&gt;Node18</title>
<path fill="none" stroke="#63b8ff" d="M356.06,-285.73C365.22,-276.82 379.73,-262.59 392,-250 410.88,-230.64 432.08,-207.93 446.16,-192.72"/>
<polygon fill="#63b8ff" stroke="#63b8ff" points="448.68,-195.15 452.89,-185.43 443.53,-190.4 448.68,-195.15"/>
</g>
<!-- Node19 -->
<g id="node19" class="node">
<title>Node19</title>
<g id="a_node19"><a xlink:href="operation_8h.html" target="_top" xlink:title=" ">
<polygon fill="white" stroke="#666666" points="365.5,-250 234.5,-250 234.5,-220 365.5,-220 365.5,-250"/>
<text text-anchor="start" x="242.5" y="-238" font-family="Helvetica,sans-Serif" font-size="10.00">core/evaluation/operations</text>
<text text-anchor="middle" x="300" y="-227" font-family="Helvetica,sans-Serif" font-size="10.00">/operation.h</text>
</a>
</g>
</g>
<!-- Node9&#45;&gt;Node19 -->
<g id="edge28" class="edge">
<title>Node9&#45;&gt;Node19</title>
<path fill="none" stroke="#63b8ff" d="M340.06,-285.87C334.4,-278.81 326.11,-268.5 318.54,-259.08"/>
<polygon fill="#63b8ff" stroke="#63b8ff" points="321.28,-256.9 312.29,-251.29 315.82,-261.28 321.28,-256.9"/>
</g>
<!-- Node11&#45;&gt;Node4 -->
<g id="edge18" class="edge">
<title>Node11&#45;&gt;Node4</title>
<path fill="none" stroke="#63b8ff" d="M346.25,-167.52C288.18,-157.81 173.44,-138.63 109.94,-128.01"/>
<polygon fill="#63b8ff" stroke="#63b8ff" points="110.63,-124.58 100.19,-126.38 109.48,-131.48 110.63,-124.58"/>
</g>
<!-- Node11&#45;&gt;Node5 -->
<g id="edge16" class="edge">
<title>Node11&#45;&gt;Node5</title>
<path fill="none" stroke="#63b8ff" d="M352.3,-164.52C333.63,-157.51 310.27,-146.07 295,-129 284.05,-116.76 277.91,-99.03 274.59,-85.41"/>
<polygon fill="#63b8ff" stroke="#63b8ff" points="278.06,-84.9 272.58,-75.82 271.2,-86.33 278.06,-84.9"/>
</g>
<!-- Node12 -->
<g id="node12" class="node">
<title>Node12</title>
<g id="a_node12"><a xlink:href="token__type_8h.html" target="_top" xlink:title=" ">
<polygon fill="white" stroke="#666666" points="529.5,-74 456.5,-74 456.5,-55 529.5,-55 529.5,-74"/>
<text text-anchor="middle" x="493" y="-62" font-family="Helvetica,sans-Serif" font-size="10.00">token_type.h</text>
</a>
</g>
</g>
<!-- Node11&#45;&gt;Node12 -->
<g id="edge14" class="edge">
<title>Node11&#45;&gt;Node12</title>
<path fill="none" stroke="#63b8ff" d="M416.05,-164.53C435.55,-157.76 459.04,-146.56 474,-129 484.4,-116.79 489.1,-99.06 491.24,-85.44"/>
<polygon fill="#63b8ff" stroke="#63b8ff" points="494.67,-86.2 492.38,-75.86 487.72,-85.37 494.67,-86.2"/>
</g>
<!-- Node13 -->
<g id="node13" class="node">
<title>Node13</title>
<g id="a_node13"><a xlink:title=" ">
<polygon fill="#e0e0e0" stroke="#999999" points="778.5,-129 695.5,-129 695.5,-110 778.5,-110 778.5,-129"/>
<text text-anchor="middle" x="737" y="-117" font-family="Helvetica,sans-Serif" font-size="10.00">uni_algo/conv.h</text>
</a>
</g>
</g>
<!-- Node11&#45;&gt;Node13 -->
<g id="edge17" class="edge">
<title>Node11&#45;&gt;Node13</title>
<path fill="none" stroke="#63b8ff" d="M417.83,-166.57C420.93,-166.02 424.02,-165.49 427,-165 538.1,-146.8 569.19,-146.55 683.9,-129.28"/>
<polygon fill="#63b8ff" stroke="#63b8ff" points="684.41,-132.74 693.77,-127.78 683.36,-125.82 684.41,-132.74"/>
</g>
<!-- Node14 -->
<g id="node14" class="node">
<title>Node14</title>
<g id="a_node14"><a xlink:href="conversion_8h.html" target="_top" xlink:title=" ">
<polygon fill="white" stroke="#666666" points="465,-129 337,-129 337,-110 465,-110 465,-129"/>
<text text-anchor="middle" x="401" y="-117" font-family="Helvetica,sans-Serif" font-size="10.00">core/helpers/conversion.h</text>
</a>
</g>
</g>
<!-- Node11&#45;&gt;Node14 -->
<g id="edge19" class="edge">
<title>Node11&#45;&gt;Node14</title>
<path fill="none" stroke="#63b8ff" d="M385.14,-164.75C387.54,-158.04 390.96,-148.52 394,-140.02"/>
<polygon fill="#63b8ff" stroke="#63b8ff" points="397.2,-141.46 397.28,-130.87 390.61,-139.1 397.2,-141.46"/>
</g>
<!-- Node15 -->
<g id="node15" class="node">
<title>Node15</title>
<g id="a_node15"><a xlink:title=" ">
<polygon fill="#e0e0e0" stroke="#999999" points="677,-129 637,-129 637,-110 677,-110 677,-129"/>
<text text-anchor="middle" x="657" y="-117" font-family="Helvetica,sans-Serif" font-size="10.00">utility</text>
</a>
</g>
</g>
<!-- Node11&#45;&gt;Node15 -->
<g id="edge23" class="edge">
<title>Node11&#45;&gt;Node15</title>
<path fill="none" stroke="#63b8ff" d="M417.95,-166.57C472.25,-156.11 574.28,-136.44 625.7,-126.53"/>
<polygon fill="#63b8ff" stroke="#63b8ff" points="626.1,-130.02 635.26,-124.69 624.78,-123.15 626.1,-130.02"/>
</g>
<!-- Node16 -->
<g id="node16" class="node">
<title>Node16</title>
<g id="a_node16"><a xlink:title=" ">
<polygon fill="#e0e0e0" stroke="#999999" points="243,-129 193,-129 193,-110 243,-110 243,-129"/>
<text text-anchor="middle" x="218" y="-117" font-family="Helvetica,sans-Serif" font-size="10.00">optional</text>
</a>
</g>
</g>
<!-- Node11&#45;&gt;Node16 -->
<g id="edge24" class="edge">
<title>Node11&#45;&gt;Node16</title>
<path fill="none" stroke="#63b8ff" d="M354.18,-164.51C326.63,-155.61 284.31,-141.93 254.16,-132.19"/>
<polygon fill="#63b8ff" stroke="#63b8ff" points="255.29,-128.87 244.7,-129.13 253.14,-135.53 255.29,-128.87"/>
</g>
<!-- Node11&#45;&gt;Node17 -->
<g id="edge25" class="edge">
<title>Node11&#45;&gt;Node17</title>
<path fill="none" stroke="#63b8ff" d="M410.67,-164.51C438.43,-155.8 480.75,-142.53 511.65,-132.84"/>
<polygon fill="#63b8ff" stroke="#63b8ff" points="512.53,-136.23 521.03,-129.9 510.44,-129.55 512.53,-136.23"/>
</g>
<!-- Node12&#45;&gt;Node10 -->
<g id="edge15" class="edge">
<title>Node12&#45;&gt;Node10</title>
<path fill="none" stroke="#63b8ff" d="M529.71,-58.89C608.95,-48.94 795.36,-25.53 876.33,-15.36"/>
<polygon fill="#63b8ff" stroke="#63b8ff" points="876.73,-18.83 886.21,-14.12 875.85,-11.89 876.73,-18.83"/>
</g>
<!-- Node14&#45;&gt;Node3 -->
<g id="edge20" class="edge">
<title>Node14&#45;&gt;Node3</title>
<path fill="none" stroke="#63b8ff" d="M405.12,-109.65C412.02,-95.84 427.19,-69.28 448,-55 487.24,-28.06 542.35,-17.37 576.85,-13.17"/>
<polygon fill="#63b8ff" stroke="#63b8ff" points="577.07,-16.67 586.63,-12.1 576.31,-9.71 577.07,-16.67"/>
</g>
<!-- Node14&#45;&gt;Node5 -->
<g id="edge21" class="edge">
<title>Node14&#45;&gt;Node5</title>
<path fill="none" stroke="#63b8ff" d="M378.95,-109.51C358.19,-101.04 326.84,-88.27 303.27,-78.66"/>
<polygon fill="#63b8ff" stroke="#63b8ff" points="304.71,-75.46 294.13,-74.93 302.07,-81.95 304.71,-75.46"/>
</g>
<!-- Node14&#45;&gt;Node12 -->
<g id="edge22" class="edge">
<title>Node14&#45;&gt;Node12</title>
<path fill="none" stroke="#63b8ff" d="M416.61,-109.51C430.7,-101.39 451.69,-89.3 468.1,-79.85"/>
<polygon fill="#63b8ff" stroke="#63b8ff" points="469.39,-83.14 476.31,-75.11 465.9,-77.07 469.39,-83.14"/>
</g>
<!-- Node19&#45;&gt;Node4 -->
<g id="edge30" class="edge">
<title>Node19&#45;&gt;Node4</title>
<path fill="none" stroke="#63b8ff" d="M270.24,-219.63C224.71,-197.64 138.36,-155.93 93.56,-134.3"/>
<polygon fill="#63b8ff" stroke="#63b8ff" points="95.27,-131.23 84.74,-130.03 92.22,-137.53 95.27,-131.23"/>
</g>
<!-- Node19&#45;&gt;Node5 -->
<g id="edge29" class="edge">
<title>Node19&#45;&gt;Node5</title>
<path fill="none" stroke="#63b8ff" d="M283.35,-219.57C251.91,-192.22 186.67,-135.02 184,-129 173.47,-105.26 199.96,-88.59 226.41,-78.31"/>
<polygon fill="#63b8ff" stroke="#63b8ff" points="227.59,-81.6 235.82,-74.93 225.23,-75.02 227.59,-81.6"/>
</g>
<!-- Node19&#45;&gt;Node11 -->
<g id="edge31" class="edge">
<title>Node19&#45;&gt;Node11</title>
<path fill="none" stroke="#63b8ff" d="M320.27,-219.54C332.54,-210.78 348.18,-199.63 360.65,-190.73"/>
<polygon fill="#63b8ff" stroke="#63b8ff" points="362.5,-193.71 368.61,-185.05 358.43,-188.01 362.5,-193.71"/>
</g>
<!-- Node19&#45;&gt;Node18 -->
<g id="edge32" class="edge">
<title>Node19&#45;&gt;Node18</title>
<path fill="none" stroke="#63b8ff" d="M340.04,-219.54C366.65,-209.93 401.26,-197.43 426.81,-188.21"/>
<polygon fill="#63b8ff" stroke="#63b8ff" points="427.86,-191.55 436.08,-184.86 425.49,-184.96 427.86,-191.55"/>
</g>
<!-- Node20&#45;&gt;Node5 -->
<g id="edge40" class="edge">
<title>Node20&#45;&gt;Node5</title>
<path fill="none" stroke="#63b8ff" d="M784.71,-173.55C701.49,-173.44 409.61,-170.04 328,-129 308,-118.94 291.75,-98.63 281.79,-83.68"/>
<polygon fill="#63b8ff" stroke="#63b8ff" points="285.03,-82.25 276.74,-75.65 279.1,-85.98 285.03,-82.25"/>
</g>
<!-- Node20&#45;&gt;Node10 -->
<g id="edge35" class="edge">
<title>Node20&#45;&gt;Node10</title>
<path fill="none" stroke="#63b8ff" d="M829.44,-168.49C850.12,-162.65 879.95,-150.87 896,-129 917.31,-99.96 918.5,-56.11 917.03,-30.69"/>
<polygon fill="#63b8ff" stroke="#63b8ff" points="920.52,-30.45 916.23,-20.76 913.55,-31.01 920.52,-30.45"/>
</g>
<!-- Node20&#45;&gt;Node13 -->
<g id="edge41" class="edge">
<title>Node20&#45;&gt;Node13</title>
<path fill="none" stroke="#63b8ff" d="M795.13,-164.51C784.91,-156.77 769.93,-145.43 757.74,-136.2"/>
<polygon fill="#63b8ff" stroke="#63b8ff" points="759.99,-133.52 749.91,-130.27 755.77,-139.1 759.99,-133.52"/>
</g>
<!-- Node20&#45;&gt;Node15 -->
<g id="edge37" class="edge">
<title>Node20&#45;&gt;Node15</title>
<path fill="none" stroke="#63b8ff" d="M784.54,-165.57C758.86,-156.49 716.65,-141.58 687.88,-131.41"/>
<polygon fill="#63b8ff" stroke="#63b8ff" points="689.22,-128.17 678.63,-128.14 686.89,-134.77 689.22,-128.17"/>
</g>
<!-- Node21 -->
<g id="node21" class="node">
<title>Node21</title>
<g id="a_node21"><a xlink:title=" ">
<polygon fill="#e0e0e0" stroke="#999999" points="887,-129 835,-129 835,-110 887,-110 887,-129"/>
<text text-anchor="middle" x="861" y="-117" font-family="Helvetica,sans-Serif" font-size="10.00">sstream</text>
</a>
</g>
</g>
<!-- Node20&#45;&gt;Node21 -->
<g id="edge36" class="edge">
<title>Node20&#45;&gt;Node21</title>
<path fill="none" stroke="#63b8ff" d="M815.92,-164.75C823.45,-157.35 834.47,-146.54 843.73,-137.45"/>
<polygon fill="#63b8ff" stroke="#63b8ff" points="846.12,-140 850.81,-130.5 841.22,-135.01 846.12,-140"/>
</g>
<!-- Node22 -->
<g id="node22" class="node">
<title>Node22</title>
<g id="a_node22"><a xlink:href="error__type_8h.html" target="_top" xlink:title=" ">
<polygon fill="white" stroke="#666666" points="773,-74 705,-74 705,-55 773,-55 773,-74"/>
<text text-anchor="middle" x="739" y="-62" font-family="Helvetica,sans-Serif" font-size="10.00">error_type.h</text>
</a>
</g>
</g>
<!-- Node20&#45;&gt;Node22 -->
<g id="edge38" class="edge">
<title>Node20&#45;&gt;Node22</title>
<path fill="none" stroke="#63b8ff" d="M805.89,-164.67C803.95,-151.8 799.04,-127.53 788,-110 781.02,-98.92 770.54,-88.88 761.06,-81.15"/>
<polygon fill="#63b8ff" stroke="#63b8ff" points="763.34,-78.49 753.28,-75.17 759.07,-84.04 763.34,-78.49"/>
</g>
<!-- Node22&#45;&gt;Node3 -->
<g id="edge39" class="edge">
<title>Node22&#45;&gt;Node3</title>
<path fill="none" stroke="#63b8ff" d="M716.95,-54.51C695.93,-45.94 664.08,-32.96 640.42,-23.31"/>
<polygon fill="#63b8ff" stroke="#63b8ff" points="641.85,-20.11 631.27,-19.58 639.21,-26.6 641.85,-20.11"/>
</g>
<!-- Node23&#45;&gt;Node2 -->
<g id="edge43" class="edge">
<title>Node23&#45;&gt;Node2</title>
<path fill="none" stroke="#63b8ff" d="M115.75,-340.51C103.12,-332.54 84.44,-320.75 69.59,-311.38"/>
<polygon fill="#63b8ff" stroke="#63b8ff" points="71.64,-308.54 61.32,-306.17 67.91,-314.46 71.64,-308.54"/>
</g>
<!-- Node23&#45;&gt;Node4 -->
<g id="edge45" class="edge">
<title>Node23&#45;&gt;Node4</title>
<path fill="none" stroke="#63b8ff" d="M127.12,-340.66C124.22,-331.7 119.67,-317.43 116,-305 98.38,-245.37 79.28,-174.35 70.27,-140.44"/>
<polygon fill="#63b8ff" stroke="#63b8ff" points="73.66,-139.6 67.72,-130.83 66.9,-141.39 73.66,-139.6"/>
</g>
<!-- Node23&#45;&gt;Node9 -->
<g id="edge46" class="edge">
<title>Node23&#45;&gt;Node9</title>
<path fill="none" stroke="#63b8ff" d="M158.37,-342.57C194.12,-333.84 256.1,-318.7 299.21,-308.17"/>
<polygon fill="#63b8ff" stroke="#63b8ff" points="299.93,-311.6 308.81,-305.83 298.27,-304.8 299.93,-311.6"/>
</g>
<!-- Node23&#45;&gt;Node16 -->
<g id="edge44" class="edge">
<title>Node23&#45;&gt;Node16</title>
<path fill="none" stroke="#63b8ff" d="M133.45,-340.52C146.43,-306.75 192.51,-186.84 210.62,-139.72"/>
<polygon fill="#63b8ff" stroke="#63b8ff" points="213.81,-141.17 214.13,-130.58 207.27,-138.66 213.81,-141.17"/>
</g>
</g>
</svg>
