<?xml version="1.0" encoding="UTF-8" standalone="no"?>
<!DOCTYPE svg PUBLIC "-//W3C//DTD SVG 1.1//EN"
 "http://www.w3.org/Graphics/SVG/1.1/DTD/svg11.dtd">
<!-- Generated by graphviz version 7.1.0 (20230121.1956)
 -->
<!-- Title: /Users/nikolajbankejensen/Desktop/Kepler/src/core/symbol.h Pages: 1 -->
<svg width="1473pt" height="368pt"
 viewBox="0.00 0.00 1472.50 368.00" xmlns="http://www.w3.org/2000/svg" xmlns:xlink="http://www.w3.org/1999/xlink">
<g id="graph0" class="graph" transform="scale(1 1) rotate(0) translate(4 364)">
<title>/Users/nikolajbankejensen/Desktop/Kepler/src/core/symbol.h</title>
<!-- Node1 -->
<g id="node1" class="node">
<title>Node1</title>
<g id="a_node1"><a xlink:title=" ">
<polygon fill="#999999" stroke="#666666" points="656,-360 525,-360 525,-319 656,-319 656,-360"/>
<text text-anchor="start" x="533" y="-348" font-family="Helvetica,sans-Serif" font-size="10.00">/Users/nikolajbankejensen</text>
<text text-anchor="start" x="533" y="-337" font-family="Helvetica,sans-Serif" font-size="10.00">/Desktop/Kepler/src/core</text>
<text text-anchor="middle" x="590.5" y="-326" font-family="Helvetica,sans-Serif" font-size="10.00">/symbol.h</text>
</a>
</g>
</g>
<!-- Node2 -->
<g id="node2" class="node">
<title>Node2</title>
<g id="a_node2"><a xlink:href="symbol__table_8h.html" target="_top" xlink:title=" ">
<polygon fill="white" stroke="#666666" points="656,-283 525,-283 525,-242 656,-242 656,-283"/>
<text text-anchor="start" x="533" y="-271" font-family="Helvetica,sans-Serif" font-size="10.00">/Users/nikolajbankejensen</text>
<text text-anchor="start" x="533" y="-260" font-family="Helvetica,sans-Serif" font-size="10.00">/Desktop/Kepler/src/core</text>
<text text-anchor="middle" x="590.5" y="-249" font-family="Helvetica,sans-Serif" font-size="10.00">/symbol_table.h</text>
</a>
</g>
</g>
<!-- Node1&#45;&gt;Node2 -->
<g id="edge1" class="edge">
<title>Node1&#45;&gt;Node2</title>
<path fill="none" stroke="#63b8ff" d="M590.5,-307.36C590.5,-299.24 590.5,-290.7 590.5,-283.33"/>
<polygon fill="#63b8ff" stroke="#63b8ff" points="587,-307.28 590.5,-317.28 594,-307.28 587,-307.28"/>
</g>
<!-- Node3 -->
<g id="node3" class="node">
<title>Node3</title>
<g id="a_node3"><a xlink:href="array_8cpp.html" target="_top" xlink:title=" ">
<polygon fill="white" stroke="#666666" points="131,-200.5 0,-200.5 0,-159.5 131,-159.5 131,-200.5"/>
<text text-anchor="start" x="8" y="-188.5" font-family="Helvetica,sans-Serif" font-size="10.00">/Users/nikolajbankejensen</text>
<text text-anchor="start" x="8" y="-177.5" font-family="Helvetica,sans-Serif" font-size="10.00">/Desktop/Kepler/src/core</text>
<text text-anchor="middle" x="65.5" y="-166.5" font-family="Helvetica,sans-Serif" font-size="10.00">/array.cpp</text>
</a>
</g>
</g>
<!-- Node2&#45;&gt;Node3 -->
<g id="edge2" class="edge">
<title>Node2&#45;&gt;Node3</title>
<path fill="none" stroke="#63b8ff" d="M513.56,-256.81C423.12,-250.21 268.95,-235.51 139.5,-206 133.29,-204.58 126.86,-202.84 120.51,-200.95"/>
<polygon fill="#63b8ff" stroke="#63b8ff" points="513.07,-260.29 523.29,-257.51 513.57,-253.3 513.07,-260.29"/>
</g>
<!-- Node4 -->
<g id="node4" class="node">
<title>Node4</title>
<g id="a_node4"><a xlink:href="ast_8cpp.html" target="_top" xlink:title=" ">
<polygon fill="white" stroke="#666666" points="280,-200.5 149,-200.5 149,-159.5 280,-159.5 280,-200.5"/>
<text text-anchor="start" x="157" y="-188.5" font-family="Helvetica,sans-Serif" font-size="10.00">/Users/nikolajbankejensen</text>
<text text-anchor="start" x="157" y="-177.5" font-family="Helvetica,sans-Serif" font-size="10.00">/Desktop/Kepler/src/core</text>
<text text-anchor="middle" x="214.5" y="-166.5" font-family="Helvetica,sans-Serif" font-size="10.00">/evaluation/ast.cpp</text>
</a>
</g>
</g>
<!-- Node2&#45;&gt;Node4 -->
<g id="edge3" class="edge">
<title>Node2&#45;&gt;Node4</title>
<path fill="none" stroke="#63b8ff" d="M513.48,-249.61C453.43,-239.73 368.14,-224.34 294.5,-206 288.43,-204.49 282.14,-202.78 275.88,-200.98"/>
<polygon fill="#63b8ff" stroke="#63b8ff" points="512.84,-253.05 523.28,-251.21 513.97,-246.14 512.84,-253.05"/>
</g>
<!-- Node5 -->
<g id="node5" class="node">
<title>Node5</title>
<g id="a_node5"><a xlink:href="execution_8cpp.html" target="_top" xlink:title=" ">
<polygon fill="white" stroke="#666666" points="232,-118 101,-118 101,-77 232,-77 232,-118"/>
<text text-anchor="start" x="109" y="-106" font-family="Helvetica,sans-Serif" font-size="10.00">/Users/nikolajbankejensen</text>
<text text-anchor="start" x="109" y="-95" font-family="Helvetica,sans-Serif" font-size="10.00">/Desktop/Kepler/src/core</text>
<text text-anchor="middle" x="166.5" y="-84" font-family="Helvetica,sans-Serif" font-size="10.00">/evaluation/execution.cpp</text>
</a>
</g>
</g>
<!-- Node2&#45;&gt;Node5 -->
<g id="edge4" class="edge">
<title>Node2&#45;&gt;Node5</title>
<path fill="none" stroke="#63b8ff" d="M513.42,-259.45C457.9,-254.76 383.27,-241.56 327.5,-206 303.14,-190.47 311.02,-172.1 288.5,-154 270,-139.13 246.88,-127.3 225.75,-118.44"/>
<polygon fill="#63b8ff" stroke="#63b8ff" points="512.86,-262.92 523.1,-260.19 513.39,-255.94 512.86,-262.92"/>
</g>
<!-- Node6 -->
<g id="node6" class="node">
<title>Node6</title>
<g id="a_node6"><a xlink:href="execution_8h.html" target="_top" xlink:title=" ">
<polygon fill="white" stroke="#666666" points="468,-200.5 337,-200.5 337,-159.5 468,-159.5 468,-200.5"/>
<text text-anchor="start" x="345" y="-188.5" font-family="Helvetica,sans-Serif" font-size="10.00">/Users/nikolajbankejensen</text>
<text text-anchor="start" x="345" y="-177.5" font-family="Helvetica,sans-Serif" font-size="10.00">/Desktop/Kepler/src/core</text>
<text text-anchor="middle" x="402.5" y="-166.5" font-family="Helvetica,sans-Serif" font-size="10.00">/evaluation/execution.h</text>
</a>
</g>
</g>
<!-- Node2&#45;&gt;Node6 -->
<g id="edge5" class="edge">
<title>Node2&#45;&gt;Node6</title>
<path fill="none" stroke="#63b8ff" d="M533.55,-237.11C506.53,-225.54 474.64,-211.89 449.09,-200.95"/>
<polygon fill="#63b8ff" stroke="#63b8ff" points="532.07,-240.29 542.64,-241.01 534.82,-233.85 532.07,-240.29"/>
</g>
<!-- Node10 -->
<g id="node10" class="node">
<title>Node10</title>
<g id="a_node10"><a xlink:href="general__fixture_8h.html" target="_top" xlink:title=" ">
<polygon fill="white" stroke="#666666" points="704.5,-118 568.5,-118 568.5,-77 704.5,-77 704.5,-118"/>
<text text-anchor="start" x="576.5" y="-106" font-family="Helvetica,sans-Serif" font-size="10.00">/Users/nikolajbankejensen</text>
<text text-anchor="start" x="576.5" y="-95" font-family="Helvetica,sans-Serif" font-size="10.00">/Desktop/Kepler/src/testing</text>
<text text-anchor="middle" x="636.5" y="-84" font-family="Helvetica,sans-Serif" font-size="10.00">/fixtures/general_fixture.h</text>
</a>
</g>
</g>
<!-- Node2&#45;&gt;Node10 -->
<g id="edge20" class="edge">
<title>Node2&#45;&gt;Node10</title>
<path fill="none" stroke="#63b8ff" d="M541.04,-235.18C530.76,-227.25 521.31,-217.52 515.5,-206 505.1,-185.36 503.02,-173.45 515.5,-154 527.54,-135.23 547.7,-122.72 568.14,-114.43"/>
<polygon fill="#63b8ff" stroke="#63b8ff" points="538.79,-237.88 548.97,-240.81 542.84,-232.17 538.79,-237.88"/>
</g>
<!-- Node14 -->
<g id="node14" class="node">
<title>Node14</title>
<g id="a_node14"><a xlink:href="interpreter_8cpp.html" target="_top" xlink:title=" ">
<polygon fill="white" stroke="#666666" points="656,-200.5 525,-200.5 525,-159.5 656,-159.5 656,-200.5"/>
<text text-anchor="start" x="533" y="-188.5" font-family="Helvetica,sans-Serif" font-size="10.00">/Users/nikolajbankejensen</text>
<text text-anchor="start" x="533" y="-177.5" font-family="Helvetica,sans-Serif" font-size="10.00">/Desktop/Kepler/src/core</text>
<text text-anchor="middle" x="590.5" y="-166.5" font-family="Helvetica,sans-Serif" font-size="10.00">/evaluation/interpreter.cpp</text>
</a>
</g>
</g>
<!-- Node2&#45;&gt;Node14 -->
<g id="edge15" class="edge">
<title>Node2&#45;&gt;Node14</title>
<path fill="none" stroke="#63b8ff" d="M590.5,-230.16C590.5,-220.33 590.5,-209.76 590.5,-200.95"/>
<polygon fill="#63b8ff" stroke="#63b8ff" points="587,-230.09 590.5,-240.09 594,-230.09 587,-230.09"/>
</g>
<!-- Node15 -->
<g id="node15" class="node">
<title>Node15</title>
<g id="a_node15"><a xlink:href="defined__function_8cpp.html" target="_top" xlink:title=" ">
<polygon fill="white" stroke="#666666" points="820.5,-206 674.5,-206 674.5,-154 820.5,-154 820.5,-206"/>
<text text-anchor="start" x="682.5" y="-194" font-family="Helvetica,sans-Serif" font-size="10.00">/Users/nikolajbankejensen</text>
<text text-anchor="start" x="682.5" y="-183" font-family="Helvetica,sans-Serif" font-size="10.00">/Desktop/Kepler/src/core</text>
<text text-anchor="start" x="682.5" y="-172" font-family="Helvetica,sans-Serif" font-size="10.00">/evaluation/operations/defined</text>
<text text-anchor="middle" x="747.5" y="-161" font-family="Helvetica,sans-Serif" font-size="10.00">_function.cpp</text>
</a>
</g>
</g>
<!-- Node2&#45;&gt;Node15 -->
<g id="edge16" class="edge">
<title>Node2&#45;&gt;Node15</title>
<path fill="none" stroke="#63b8ff" d="M639.35,-236.45C657.96,-226.91 679.17,-216.03 697.86,-206.45"/>
<polygon fill="#63b8ff" stroke="#63b8ff" points="637.96,-233.23 630.66,-240.91 641.15,-239.46 637.96,-233.23"/>
</g>
<!-- Node16 -->
<g id="node16" class="node">
<title>Node16</title>
<g id="a_node16"><a xlink:href="functions_8cpp.html" target="_top" xlink:title=" ">
<polygon fill="white" stroke="#666666" points="1012,-200.5 839,-200.5 839,-159.5 1012,-159.5 1012,-200.5"/>
<text text-anchor="start" x="847" y="-188.5" font-family="Helvetica,sans-Serif" font-size="10.00">/Users/nikolajbankejensen</text>
<text text-anchor="start" x="847" y="-177.5" font-family="Helvetica,sans-Serif" font-size="10.00">/Desktop/Kepler/src/core</text>
<text text-anchor="middle" x="925.5" y="-166.5" font-family="Helvetica,sans-Serif" font-size="10.00">/evaluation/operations/functions.cpp</text>
</a>
</g>
</g>
<!-- Node2&#45;&gt;Node16 -->
<g id="edge17" class="edge">
<title>Node2&#45;&gt;Node16</title>
<path fill="none" stroke="#63b8ff" d="M667.3,-244.21C714.22,-233.51 775.41,-219.32 829.5,-206 836.02,-204.39 842.78,-202.7 849.56,-200.97"/>
<polygon fill="#63b8ff" stroke="#63b8ff" points="666.75,-240.75 657.77,-246.38 668.3,-247.57 666.75,-240.75"/>
</g>
<!-- Node17 -->
<g id="node17" class="node">
<title>Node17</title>
<g id="a_node17"><a xlink:href="parser_8cpp.html" target="_top" xlink:title=" ">
<polygon fill="white" stroke="#666666" points="1161,-200.5 1030,-200.5 1030,-159.5 1161,-159.5 1161,-200.5"/>
<text text-anchor="start" x="1038" y="-188.5" font-family="Helvetica,sans-Serif" font-size="10.00">/Users/nikolajbankejensen</text>
<text text-anchor="start" x="1038" y="-177.5" font-family="Helvetica,sans-Serif" font-size="10.00">/Desktop/Kepler/src/core</text>
<text text-anchor="middle" x="1095.5" y="-166.5" font-family="Helvetica,sans-Serif" font-size="10.00">/evaluation/parser.cpp</text>
</a>
</g>
</g>
<!-- Node2&#45;&gt;Node17 -->
<g id="edge18" class="edge">
<title>Node2&#45;&gt;Node17</title>
<path fill="none" stroke="#63b8ff" d="M667.54,-256.2C754.4,-249.16 899.44,-234.18 1021.5,-206 1027.71,-204.57 1034.13,-202.82 1040.48,-200.91"/>
<polygon fill="#63b8ff" stroke="#63b8ff" points="667.4,-252.7 657.71,-256.98 667.95,-259.68 667.4,-252.7"/>
</g>
<!-- Node18 -->
<g id="node18" class="node">
<title>Node18</title>
<g id="a_node18"><a xlink:href="symbol__table_8cpp.html" target="_top" xlink:title=" ">
<polygon fill="white" stroke="#666666" points="1310,-200.5 1179,-200.5 1179,-159.5 1310,-159.5 1310,-200.5"/>
<text text-anchor="start" x="1187" y="-188.5" font-family="Helvetica,sans-Serif" font-size="10.00">/Users/nikolajbankejensen</text>
<text text-anchor="start" x="1187" y="-177.5" font-family="Helvetica,sans-Serif" font-size="10.00">/Desktop/Kepler/src/core</text>
<text text-anchor="middle" x="1244.5" y="-166.5" font-family="Helvetica,sans-Serif" font-size="10.00">/symbol_table.cpp</text>
</a>
</g>
</g>
<!-- Node2&#45;&gt;Node18 -->
<g id="edge19" class="edge">
<title>Node2&#45;&gt;Node18</title>
<path fill="none" stroke="#63b8ff" d="M667.65,-259.75C779.61,-255.95 993.1,-243.92 1170.5,-206 1176.87,-204.64 1183.45,-202.91 1189.94,-201"/>
<polygon fill="#63b8ff" stroke="#63b8ff" points="667.88,-256.24 658,-260.07 668.11,-263.24 667.88,-256.24"/>
</g>
<!-- Node19 -->
<g id="node19" class="node">
<title>Node19</title>
<g id="a_node19"><a xlink:href="parser__fixture_8h.html" target="_top" xlink:title=" ">
<polygon fill="white" stroke="#666666" points="1464.5,-200.5 1328.5,-200.5 1328.5,-159.5 1464.5,-159.5 1464.5,-200.5"/>
<text text-anchor="start" x="1336.5" y="-188.5" font-family="Helvetica,sans-Serif" font-size="10.00">/Users/nikolajbankejensen</text>
<text text-anchor="start" x="1336.5" y="-177.5" font-family="Helvetica,sans-Serif" font-size="10.00">/Desktop/Kepler/src/testing</text>
<text text-anchor="middle" x="1396.5" y="-166.5" font-family="Helvetica,sans-Serif" font-size="10.00">/fixtures/parser_fixture.h</text>
</a>
</g>
</g>
<!-- Node2&#45;&gt;Node19 -->
<g id="edge21" class="edge">
<title>Node2&#45;&gt;Node19</title>
<path fill="none" stroke="#63b8ff" d="M667.37,-261.62C801.18,-260.51 1085.07,-252.29 1319.5,-206 1326.26,-204.67 1333.25,-202.93 1340.14,-200.99"/>
<polygon fill="#63b8ff" stroke="#63b8ff" points="667.54,-258.12 657.57,-261.69 667.59,-265.12 667.54,-258.12"/>
</g>
<!-- Node6&#45;&gt;Node5 -->
<g id="edge6" class="edge">
<title>Node6&#45;&gt;Node5</title>
<path fill="none" stroke="#63b8ff" d="M333.7,-155.53C299.22,-143.77 257.91,-129.68 224.98,-118.45"/>
<polygon fill="#63b8ff" stroke="#63b8ff" points="332.14,-158.7 342.73,-158.61 334.4,-152.07 332.14,-158.7"/>
</g>
<!-- Node7 -->
<g id="node7" class="node">
<title>Node7</title>
<g id="a_node7"><a xlink:href="main_8cpp.html" target="_top" xlink:title=" ">
<polygon fill="white" stroke="#666666" points="396.5,-112.5 250.5,-112.5 250.5,-82.5 396.5,-82.5 396.5,-112.5"/>
<text text-anchor="start" x="258.5" y="-100.5" font-family="Helvetica,sans-Serif" font-size="10.00">/Users/nikolajbankejensen</text>
<text text-anchor="middle" x="323.5" y="-89.5" font-family="Helvetica,sans-Serif" font-size="10.00">/Desktop/Kepler/src/main.cpp</text>
</a>
</g>
</g>
<!-- Node6&#45;&gt;Node7 -->
<g id="edge7" class="edge">
<title>Node6&#45;&gt;Node7</title>
<path fill="none" stroke="#63b8ff" d="M375,-150.98C362.39,-138.12 347.97,-123.43 337.6,-112.87"/>
<polygon fill="#63b8ff" stroke="#63b8ff" points="372.41,-153.34 381.91,-158.02 377.41,-148.43 372.41,-153.34"/>
</g>
<!-- Node8 -->
<g id="node8" class="node">
<title>Node8</title>
<g id="a_node8"><a xlink:href="file__fixture_8h.html" target="_top" xlink:title=" ">
<polygon fill="white" stroke="#666666" points="550.5,-118 414.5,-118 414.5,-77 550.5,-77 550.5,-118"/>
<text text-anchor="start" x="422.5" y="-106" font-family="Helvetica,sans-Serif" font-size="10.00">/Users/nikolajbankejensen</text>
<text text-anchor="start" x="422.5" y="-95" font-family="Helvetica,sans-Serif" font-size="10.00">/Desktop/Kepler/src/testing</text>
<text text-anchor="middle" x="482.5" y="-84" font-family="Helvetica,sans-Serif" font-size="10.00">/fixtures/file_fixture.h</text>
</a>
</g>
</g>
<!-- Node6&#45;&gt;Node8 -->
<g id="edge8" class="edge">
<title>Node6&#45;&gt;Node8</title>
<path fill="none" stroke="#63b8ff" d="M430.15,-151.18C440.85,-140.41 452.86,-128.33 462.67,-118.45"/>
<polygon fill="#63b8ff" stroke="#63b8ff" points="427.91,-148.47 423.34,-158.03 432.87,-153.4 427.91,-148.47"/>
</g>
<!-- Node6&#45;&gt;Node10 -->
<g id="edge10" class="edge">
<title>Node6&#45;&gt;Node10</title>
<path fill="none" stroke="#63b8ff" d="M471.16,-155.38C505.26,-143.65 546,-129.63 578.51,-118.45"/>
<polygon fill="#63b8ff" stroke="#63b8ff" points="470.09,-152.05 461.77,-158.61 472.37,-158.67 470.09,-152.05"/>
</g>
<!-- Node9 -->
<g id="node9" class="node">
<title>Node9</title>
<g id="a_node9"><a xlink:href="test__examples_8cpp.html" target="_top" xlink:title=" ">
<polygon fill="white" stroke="#666666" points="550.5,-41 414.5,-41 414.5,0 550.5,0 550.5,-41"/>
<text text-anchor="start" x="422.5" y="-29" font-family="Helvetica,sans-Serif" font-size="10.00">/Users/nikolajbankejensen</text>
<text text-anchor="start" x="422.5" y="-18" font-family="Helvetica,sans-Serif" font-size="10.00">/Desktop/Kepler/src/testing</text>
<text text-anchor="middle" x="482.5" y="-7" font-family="Helvetica,sans-Serif" font-size="10.00">/test_examples.cpp</text>
</a>
</g>
</g>
<!-- Node8&#45;&gt;Node9 -->
<g id="edge9" class="edge">
<title>Node8&#45;&gt;Node9</title>
<path fill="none" stroke="#63b8ff" d="M482.5,-65.36C482.5,-57.24 482.5,-48.7 482.5,-41.33"/>
<polygon fill="#63b8ff" stroke="#63b8ff" points="479,-65.28 482.5,-75.28 486,-65.28 479,-65.28"/>
</g>
<!-- Node10&#45;&gt;Node9 -->
<g id="edge12" class="edge">
<title>Node10&#45;&gt;Node9</title>
<path fill="none" stroke="#63b8ff" d="M585.4,-71.62C565.31,-61.83 542.55,-50.75 523.56,-41.49"/>
<polygon fill="#63b8ff" stroke="#63b8ff" points="583.75,-74.7 594.27,-75.94 586.82,-68.41 583.75,-74.7"/>
</g>
<!-- Node11 -->
<g id="node11" class="node">
<title>Node11</title>
<g id="a_node11"><a xlink:href="test__datatypes_8cpp.html" target="_top" xlink:title=" ">
<polygon fill="white" stroke="#666666" points="704.5,-41 568.5,-41 568.5,0 704.5,0 704.5,-41"/>
<text text-anchor="start" x="576.5" y="-29" font-family="Helvetica,sans-Serif" font-size="10.00">/Users/nikolajbankejensen</text>
<text text-anchor="start" x="576.5" y="-18" font-family="Helvetica,sans-Serif" font-size="10.00">/Desktop/Kepler/src/testing</text>
<text text-anchor="middle" x="636.5" y="-7" font-family="Helvetica,sans-Serif" font-size="10.00">/test_datatypes.cpp</text>
</a>
</g>
</g>
<!-- Node10&#45;&gt;Node11 -->
<g id="edge11" class="edge">
<title>Node10&#45;&gt;Node11</title>
<path fill="none" stroke="#63b8ff" d="M636.5,-65.36C636.5,-57.24 636.5,-48.7 636.5,-41.33"/>
<polygon fill="#63b8ff" stroke="#63b8ff" points="633,-65.28 636.5,-75.28 640,-65.28 633,-65.28"/>
</g>
<!-- Node12 -->
<g id="node12" class="node">
<title>Node12</title>
<g id="a_node12"><a xlink:href="test__functions_8cpp.html" target="_top" xlink:title=" ">
<polygon fill="white" stroke="#666666" points="858.5,-41 722.5,-41 722.5,0 858.5,0 858.5,-41"/>
<text text-anchor="start" x="730.5" y="-29" font-family="Helvetica,sans-Serif" font-size="10.00">/Users/nikolajbankejensen</text>
<text text-anchor="start" x="730.5" y="-18" font-family="Helvetica,sans-Serif" font-size="10.00">/Desktop/Kepler/src/testing</text>
<text text-anchor="middle" x="790.5" y="-7" font-family="Helvetica,sans-Serif" font-size="10.00">/test_functions.cpp</text>
</a>
</g>
</g>
<!-- Node10&#45;&gt;Node12 -->
<g id="edge13" class="edge">
<title>Node10&#45;&gt;Node12</title>
<path fill="none" stroke="#63b8ff" d="M687.6,-71.62C707.69,-61.83 730.45,-50.75 749.44,-41.49"/>
<polygon fill="#63b8ff" stroke="#63b8ff" points="686.18,-68.41 678.73,-75.94 689.25,-74.7 686.18,-68.41"/>
</g>
<!-- Node13 -->
<g id="node13" class="node">
<title>Node13</title>
<g id="a_node13"><a xlink:href="test__operators_8cpp.html" target="_top" xlink:title=" ">
<polygon fill="white" stroke="#666666" points="1012.5,-41 876.5,-41 876.5,0 1012.5,0 1012.5,-41"/>
<text text-anchor="start" x="884.5" y="-29" font-family="Helvetica,sans-Serif" font-size="10.00">/Users/nikolajbankejensen</text>
<text text-anchor="start" x="884.5" y="-18" font-family="Helvetica,sans-Serif" font-size="10.00">/Desktop/Kepler/src/testing</text>
<text text-anchor="middle" x="944.5" y="-7" font-family="Helvetica,sans-Serif" font-size="10.00">/test_operators.cpp</text>
</a>
</g>
</g>
<!-- Node10&#45;&gt;Node13 -->
<g id="edge14" class="edge">
<title>Node10&#45;&gt;Node13</title>
<path fill="none" stroke="#63b8ff" d="M715.85,-77.69C760.44,-67.05 817.11,-53.43 867.5,-41 870.31,-40.31 873.18,-39.6 876.08,-38.87"/>
<polygon fill="#63b8ff" stroke="#63b8ff" points="715.17,-74.25 706.25,-79.98 716.79,-81.06 715.17,-74.25"/>
</g>
<!-- Node20 -->
<g id="node20" class="node">
<title>Node20</title>
<g id="a_node20"><a xlink:href="test__parser_8cpp.html" target="_top" xlink:title=" ">
<polygon fill="white" stroke="#666666" points="1464.5,-118 1328.5,-118 1328.5,-77 1464.5,-77 1464.5,-118"/>
<text text-anchor="start" x="1336.5" y="-106" font-family="Helvetica,sans-Serif" font-size="10.00">/Users/nikolajbankejensen</text>
<text text-anchor="start" x="1336.5" y="-95" font-family="Helvetica,sans-Serif" font-size="10.00">/Desktop/Kepler/src/testing</text>
<text text-anchor="middle" x="1396.5" y="-84" font-family="Helvetica,sans-Serif" font-size="10.00">/test_parser.cpp</text>
</a>
</g>
</g>
<!-- Node19&#45;&gt;Node20 -->
<g id="edge22" class="edge">
<title>Node19&#45;&gt;Node20</title>
<path fill="none" stroke="#63b8ff" d="M1396.5,-147.66C1396.5,-137.83 1396.5,-127.26 1396.5,-118.45"/>
<polygon fill="#63b8ff" stroke="#63b8ff" points="1393,-147.59 1396.5,-157.59 1400,-147.59 1393,-147.59"/>
</g>
</g>
</svg>
