<?xml version="1.0" encoding="UTF-8" standalone="no"?>
<!DOCTYPE svg PUBLIC "-//W3C//DTD SVG 1.1//EN"
 "http://www.w3.org/Graphics/SVG/1.1/DTD/svg11.dtd">
<!-- Generated by graphviz version 7.1.0 (20230121.1956)
 -->
<!-- Title: /Users/nikolajbankejensen/Desktop/Kepler/src/core/symbol.h Pages: 1 -->
<svg width="818pt" height="390pt"
 viewBox="0.00 0.00 817.50 390.00" xmlns="http://www.w3.org/2000/svg" xmlns:xlink="http://www.w3.org/1999/xlink">
<g id="graph0" class="graph" transform="scale(1 1) rotate(0) translate(4 386)">
<title>/Users/nikolajbankejensen/Desktop/Kepler/src/core/symbol.h</title>
<!-- Node1 -->
<g id="node1" class="node">
<title>Node1</title>
<g id="a_node1"><a xlink:title=" ">
<polygon fill="#999999" stroke="#666666" points="254,-382 123,-382 123,-341 254,-341 254,-382"/>
<text text-anchor="start" x="131" y="-370" font-family="Helvetica,sans-Serif" font-size="10.00">/Users/nikolajbankejensen</text>
<text text-anchor="start" x="131" y="-359" font-family="Helvetica,sans-Serif" font-size="10.00">/Desktop/Kepler/src/core</text>
<text text-anchor="middle" x="188.5" y="-348" font-family="Helvetica,sans-Serif" font-size="10.00">/symbol.h</text>
</a>
</g>
</g>
<!-- Node2 -->
<g id="node2" class="node">
<title>Node2</title>
<g id="a_node2"><a xlink:title=" ">
<polygon fill="#e0e0e0" stroke="#999999" points="35,-305 0,-305 0,-286 35,-286 35,-305"/>
<text text-anchor="middle" x="17.5" y="-293" font-family="Helvetica,sans-Serif" font-size="10.00">map</text>
</a>
</g>
</g>
<!-- Node1&#45;&gt;Node2 -->
<g id="edge1" class="edge">
<title>Node1&#45;&gt;Node2</title>
<path fill="none" stroke="#63b8ff" d="M135.33,-340.6C105.71,-329.51 70.01,-316.15 45.73,-307.06"/>
<polygon fill="#63b8ff" stroke="#63b8ff" points="47.13,-303.85 36.54,-303.62 44.67,-310.41 47.13,-303.85"/>
</g>
<!-- Node3 -->
<g id="node3" class="node">
<title>Node3</title>
<g id="a_node3"><a xlink:title=" ">
<polygon fill="#e0e0e0" stroke="#999999" points="781.5,-129 731.5,-129 731.5,-110 781.5,-110 781.5,-129"/>
<text text-anchor="middle" x="756.5" y="-117" font-family="Helvetica,sans-Serif" font-size="10.00">optional</text>
</a>
</g>
</g>
<!-- Node1&#45;&gt;Node3 -->
<g id="edge2" class="edge">
<title>Node1&#45;&gt;Node3</title>
<path fill="none" stroke="#63b8ff" d="M254.13,-344.13C290.9,-334.24 337.32,-320.55 377.5,-305 514.95,-251.79 670.71,-168.11 730.9,-134.83"/>
<polygon fill="#63b8ff" stroke="#63b8ff" points="732.31,-138.05 739.36,-130.14 728.91,-131.93 732.31,-138.05"/>
</g>
<!-- Node4 -->
<g id="node4" class="node">
<title>Node4</title>
<g id="a_node4"><a xlink:href="array_8h.html" target="_top" xlink:title=" ">
<polygon fill="white" stroke="#666666" points="192,-129 125,-129 125,-110 192,-110 192,-129"/>
<text text-anchor="middle" x="158.5" y="-117" font-family="Helvetica,sans-Serif" font-size="10.00">core/array.h</text>
</a>
</g>
</g>
<!-- Node1&#45;&gt;Node4 -->
<g id="edge3" class="edge">
<title>Node1&#45;&gt;Node4</title>
<path fill="none" stroke="#63b8ff" d="M185.04,-340.72C179.46,-308.15 168.5,-241.14 162.5,-184 160.98,-169.49 159.96,-153.04 159.33,-140.52"/>
<polygon fill="#63b8ff" stroke="#63b8ff" points="162.84,-140.49 158.88,-130.66 155.84,-140.81 162.84,-140.49"/>
</g>
<!-- Node10 -->
<g id="node10" class="node">
<title>Node10</title>
<g id="a_node10"><a xlink:href="ast_8h.html" target="_top" xlink:title=" ">
<polygon fill="white" stroke="#666666" points="368,-305 261,-305 261,-286 368,-286 368,-305"/>
<text text-anchor="middle" x="314.5" y="-293" font-family="Helvetica,sans-Serif" font-size="10.00">core/evaluation/ast.h</text>
</a>
</g>
</g>
<!-- Node1&#45;&gt;Node10 -->
<g id="edge9" class="edge">
<title>Node1&#45;&gt;Node10</title>
<path fill="none" stroke="#63b8ff" d="M227.68,-340.6C246.94,-330.82 269.69,-319.26 287.07,-310.43"/>
<polygon fill="#63b8ff" stroke="#63b8ff" points="288.43,-313.67 295.77,-306.02 285.26,-307.42 288.43,-313.67"/>
</g>
<!-- Node5 -->
<g id="node5" class="node">
<title>Node5</title>
<g id="a_node5"><a xlink:href="datatypes_8h.html" target="_top" xlink:title=" ">
<polygon fill="white" stroke="#666666" points="292.5,-74 224.5,-74 224.5,-55 292.5,-55 292.5,-74"/>
<text text-anchor="middle" x="258.5" y="-62" font-family="Helvetica,sans-Serif" font-size="10.00">datatypes.h</text>
</a>
</g>
</g>
<!-- Node4&#45;&gt;Node5 -->
<g id="edge4" class="edge">
<title>Node4&#45;&gt;Node5</title>
<path fill="none" stroke="#63b8ff" d="M175.46,-109.51C190.86,-101.35 213.81,-89.19 231.69,-79.71"/>
<polygon fill="#63b8ff" stroke="#63b8ff" points="233.25,-82.84 240.45,-75.07 229.97,-76.66 233.25,-82.84"/>
</g>
<!-- Node9 -->
<g id="node9" class="node">
<title>Node9</title>
<g id="a_node9"><a xlink:title=" ">
<polygon fill="#e0e0e0" stroke="#999999" points="181.5,-74 135.5,-74 135.5,-55 181.5,-55 181.5,-74"/>
<text text-anchor="middle" x="158.5" y="-62" font-family="Helvetica,sans-Serif" font-size="10.00">variant</text>
</a>
</g>
</g>
<!-- Node4&#45;&gt;Node9 -->
<g id="edge8" class="edge">
<title>Node4&#45;&gt;Node9</title>
<path fill="none" stroke="#63b8ff" d="M158.5,-109.75C158.5,-103.27 158.5,-94.16 158.5,-85.9"/>
<polygon fill="#63b8ff" stroke="#63b8ff" points="162,-85.96 158.5,-75.96 155,-85.96 162,-85.96"/>
</g>
<!-- Node6 -->
<g id="node6" class="node">
<title>Node6</title>
<g id="a_node6"><a xlink:title=" ">
<polygon fill="#e0e0e0" stroke="#999999" points="213.5,-19 169.5,-19 169.5,0 213.5,0 213.5,-19"/>
<text text-anchor="middle" x="191.5" y="-7" font-family="Helvetica,sans-Serif" font-size="10.00">vector</text>
</a>
</g>
</g>
<!-- Node5&#45;&gt;Node6 -->
<g id="edge5" class="edge">
<title>Node5&#45;&gt;Node6</title>
<path fill="none" stroke="#63b8ff" d="M247.13,-54.51C237.45,-46.85 223.3,-35.66 211.69,-26.47"/>
<polygon fill="#63b8ff" stroke="#63b8ff" points="213.9,-23.76 203.88,-20.3 209.56,-29.25 213.9,-23.76"/>
</g>
<!-- Node7 -->
<g id="node7" class="node">
<title>Node7</title>
<g id="a_node7"><a xlink:title=" ">
<polygon fill="#e0e0e0" stroke="#999999" points="344,-19 303,-19 303,0 344,0 344,-19"/>
<text text-anchor="middle" x="323.5" y="-7" font-family="Helvetica,sans-Serif" font-size="10.00">string</text>
</a>
</g>
</g>
<!-- Node5&#45;&gt;Node7 -->
<g id="edge6" class="edge">
<title>Node5&#45;&gt;Node7</title>
<path fill="none" stroke="#63b8ff" d="M269.53,-54.51C278.92,-46.85 292.65,-35.66 303.91,-26.47"/>
<polygon fill="#63b8ff" stroke="#63b8ff" points="305.93,-29.35 311.46,-20.31 301.5,-23.92 305.93,-29.35"/>
</g>
<!-- Node8 -->
<g id="node8" class="node">
<title>Node8</title>
<g id="a_node8"><a xlink:title=" ">
<polygon fill="#e0e0e0" stroke="#999999" points="285,-19 232,-19 232,0 285,0 285,-19"/>
<text text-anchor="middle" x="258.5" y="-7" font-family="Helvetica,sans-Serif" font-size="10.00">complex</text>
</a>
</g>
</g>
<!-- Node5&#45;&gt;Node8 -->
<g id="edge7" class="edge">
<title>Node5&#45;&gt;Node8</title>
<path fill="none" stroke="#63b8ff" d="M258.5,-54.75C258.5,-48.27 258.5,-39.16 258.5,-30.9"/>
<polygon fill="#63b8ff" stroke="#63b8ff" points="262,-30.96 258.5,-20.96 255,-30.96 262,-30.96"/>
</g>
<!-- Node10&#45;&gt;Node4 -->
<g id="edge12" class="edge">
<title>Node10&#45;&gt;Node4</title>
<path fill="none" stroke="#63b8ff" d="M271.63,-285.56C249.64,-279.01 223.89,-268.02 206.5,-250 176.76,-219.17 165.15,-168.31 160.85,-140.38"/>
<polygon fill="#63b8ff" stroke="#63b8ff" points="164.37,-140.26 159.56,-130.82 157.43,-141.2 164.37,-140.26"/>
</g>
<!-- Node10&#45;&gt;Node5 -->
<g id="edge26" class="edge">
<title>Node10&#45;&gt;Node5</title>
<path fill="none" stroke="#63b8ff" d="M286.46,-285.57C269.91,-278.69 250.31,-267.36 240.5,-250 210.18,-196.39 235.25,-119.83 249.84,-84.59"/>
<polygon fill="#63b8ff" stroke="#63b8ff" points="252.93,-86.27 253.69,-75.71 246.5,-83.49 252.93,-86.27"/>
</g>
<!-- Node10&#45;&gt;Node7 -->
<g id="edge10" class="edge">
<title>Node10&#45;&gt;Node7</title>
<path fill="none" stroke="#63b8ff" d="M260.54,-285.74C234.68,-279.34 204.6,-268.43 182.5,-250 129.52,-205.82 108.7,-178.64 115.5,-110 117.96,-85.19 108.99,-72.75 126.5,-55 177.72,-3.08 216.82,-34.6 291.82,-19.3"/>
<polygon fill="#63b8ff" stroke="#63b8ff" points="292.2,-22.8 301.17,-17.15 290.64,-15.98 292.2,-22.8"/>
</g>
<!-- Node11 -->
<g id="node11" class="node">
<title>Node11</title>
<g id="a_node11"><a xlink:title=" ">
<polygon fill="#e0e0e0" stroke="#999999" points="744.5,-19 690.5,-19 690.5,0 744.5,0 744.5,-19"/>
<text text-anchor="middle" x="717.5" y="-7" font-family="Helvetica,sans-Serif" font-size="10.00">iostream</text>
</a>
</g>
</g>
<!-- Node10&#45;&gt;Node11 -->
<g id="edge11" class="edge">
<title>Node10&#45;&gt;Node11</title>
<path fill="none" stroke="#63b8ff" d="M362.41,-285.52C486.64,-261.91 809.5,-198.34 809.5,-175.5 809.5,-175.5 809.5,-175.5 809.5,-118.5 809.5,-77.04 769.72,-43.41 742.48,-25.24"/>
<polygon fill="#63b8ff" stroke="#63b8ff" points="744.7,-22.5 734.38,-20.07 740.93,-28.4 744.7,-22.5"/>
</g>
<!-- Node12 -->
<g id="node12" class="node">
<title>Node12</title>
<g id="a_node12"><a xlink:href="token_8h.html" target="_top" xlink:title=" ">
<polygon fill="white" stroke="#666666" points="478,-184 407,-184 407,-165 478,-165 478,-184"/>
<text text-anchor="middle" x="442.5" y="-172" font-family="Helvetica,sans-Serif" font-size="10.00">core/token.h</text>
</a>
</g>
</g>
<!-- Node10&#45;&gt;Node12 -->
<g id="edge13" class="edge">
<title>Node10&#45;&gt;Node12</title>
<path fill="none" stroke="#63b8ff" d="M344.13,-285.6C363.55,-278.53 388.41,-266.98 405.5,-250 421,-234.6 431.1,-211.38 436.77,-194.97"/>
<polygon fill="#63b8ff" stroke="#63b8ff" points="439.97,-196.46 439.67,-185.87 433.3,-194.33 439.97,-196.46"/>
</g>
<!-- Node17 -->
<g id="node17" class="node">
<title>Node17</title>
<g id="a_node17"><a xlink:href="position_8h.html" target="_top" xlink:title=" ">
<polygon fill="white" stroke="#666666" points="713,-129 654,-129 654,-110 713,-110 713,-129"/>
<text text-anchor="middle" x="683.5" y="-117" font-family="Helvetica,sans-Serif" font-size="10.00">position.h</text>
</a>
</g>
</g>
<!-- Node10&#45;&gt;Node17 -->
<g id="edge33" class="edge">
<title>Node10&#45;&gt;Node17</title>
<path fill="none" stroke="#63b8ff" d="M339.93,-285.51C363.44,-277 399.21,-263.54 429.5,-250 514.63,-211.95 612.03,-159.77 657.53,-134.86"/>
<polygon fill="#63b8ff" stroke="#63b8ff" points="659.03,-138.03 666.11,-130.15 655.66,-131.89 659.03,-138.03"/>
</g>
<!-- Node18 -->
<g id="node18" class="node">
<title>Node18</title>
<g id="a_node18"><a xlink:title=" ">
<polygon fill="#e0e0e0" stroke="#999999" points="366.5,-184 314.5,-184 314.5,-165 366.5,-165 366.5,-184"/>
<text text-anchor="middle" x="340.5" y="-172" font-family="Helvetica,sans-Serif" font-size="10.00">memory</text>
</a>
</g>
</g>
<!-- Node10&#45;&gt;Node18 -->
<g id="edge27" class="edge">
<title>Node10&#45;&gt;Node18</title>
<path fill="none" stroke="#63b8ff" d="M343.28,-285.52C359.98,-278.66 379.61,-267.37 389.5,-250 396.1,-238.41 394.9,-232.19 389.5,-220 384.34,-208.34 374.44,-198.42 364.88,-190.93"/>
<polygon fill="#63b8ff" stroke="#63b8ff" points="367.02,-188.16 356.86,-185.16 362.93,-193.84 367.02,-188.16"/>
</g>
<!-- Node19 -->
<g id="node19" class="node">
<title>Node19</title>
<g id="a_node19"><a xlink:href="operation_8h.html" target="_top" xlink:title=" ">
<polygon fill="white" stroke="#666666" points="380,-250 249,-250 249,-220 380,-220 380,-250"/>
<text text-anchor="start" x="257" y="-238" font-family="Helvetica,sans-Serif" font-size="10.00">core/evaluation/operations</text>
<text text-anchor="middle" x="314.5" y="-227" font-family="Helvetica,sans-Serif" font-size="10.00">/operation.h</text>
</a>
</g>
</g>
<!-- Node10&#45;&gt;Node19 -->
<g id="edge28" class="edge">
<title>Node10&#45;&gt;Node19</title>
<path fill="none" stroke="#63b8ff" d="M314.5,-285.87C314.5,-279.4 314.5,-270.2 314.5,-261.45"/>
<polygon fill="#63b8ff" stroke="#63b8ff" points="318,-261.63 314.5,-251.63 311,-261.63 318,-261.63"/>
</g>
<!-- Node12&#45;&gt;Node3 -->
<g id="edge24" class="edge">
<title>Node12&#45;&gt;Node3</title>
<path fill="none" stroke="#63b8ff" d="M478.48,-168.81C529.87,-161.88 627.44,-147.91 720.04,-129.35"/>
<polygon fill="#63b8ff" stroke="#63b8ff" points="720.72,-132.78 729.82,-127.36 719.33,-125.92 720.72,-132.78"/>
</g>
<!-- Node12&#45;&gt;Node4 -->
<g id="edge18" class="edge">
<title>Node12&#45;&gt;Node4</title>
<path fill="none" stroke="#63b8ff" d="M406.53,-166.79C354.86,-157.15 259.69,-139.38 203.45,-128.89"/>
<polygon fill="#63b8ff" stroke="#63b8ff" points="204.37,-125.5 193.9,-127.11 203.08,-132.38 204.37,-125.5"/>
</g>
<!-- Node12&#45;&gt;Node5 -->
<g id="edge16" class="edge">
<title>Node12&#45;&gt;Node5</title>
<path fill="none" stroke="#63b8ff" d="M406.64,-166.05C379.92,-159.33 343.39,-147.6 315.5,-129 297.25,-116.83 281.04,-97.5 270.62,-83.36"/>
<polygon fill="#63b8ff" stroke="#63b8ff" points="273.62,-81.53 264.98,-75.39 267.9,-85.57 273.62,-81.53"/>
</g>
<!-- Node13 -->
<g id="node13" class="node">
<title>Node13</title>
<g id="a_node13"><a xlink:href="token__type_8h.html" target="_top" xlink:title=" ">
<polygon fill="white" stroke="#666666" points="662,-74 589,-74 589,-55 662,-55 662,-74"/>
<text text-anchor="middle" x="625.5" y="-62" font-family="Helvetica,sans-Serif" font-size="10.00">token_type.h</text>
</a>
</g>
</g>
<!-- Node12&#45;&gt;Node13 -->
<g id="edge14" class="edge">
<title>Node12&#45;&gt;Node13</title>
<path fill="none" stroke="#63b8ff" d="M478.41,-173.42C515.34,-171.37 572.17,-162.46 606.5,-129 618.11,-117.69 622.7,-99.59 624.47,-85.61"/>
<polygon fill="#63b8ff" stroke="#63b8ff" points="627.95,-86 625.31,-75.74 620.98,-85.41 627.95,-86"/>
</g>
<!-- Node14 -->
<g id="node14" class="node">
<title>Node14</title>
<g id="a_node14"><a xlink:title=" ">
<polygon fill="#e0e0e0" stroke="#999999" points="597,-129 514,-129 514,-110 597,-110 597,-129"/>
<text text-anchor="middle" x="555.5" y="-117" font-family="Helvetica,sans-Serif" font-size="10.00">uni_algo/conv.h</text>
</a>
</g>
</g>
<!-- Node12&#45;&gt;Node14 -->
<g id="edge17" class="edge">
<title>Node12&#45;&gt;Node14</title>
<path fill="none" stroke="#63b8ff" d="M461.67,-164.51C479.39,-156.2 505.98,-143.73 526.33,-134.18"/>
<polygon fill="#63b8ff" stroke="#63b8ff" points="527.68,-137.42 535.24,-130 524.7,-131.08 527.68,-137.42"/>
</g>
<!-- Node15 -->
<g id="node15" class="node">
<title>Node15</title>
<g id="a_node15"><a xlink:href="conversion_8h.html" target="_top" xlink:title=" ">
<polygon fill="white" stroke="#666666" points="496,-129 383,-129 383,-110 496,-110 496,-129"/>
<text text-anchor="middle" x="439.5" y="-117" font-family="Helvetica,sans-Serif" font-size="10.00">interface/conversion.h</text>
</a>
</g>
</g>
<!-- Node12&#45;&gt;Node15 -->
<g id="edge19" class="edge">
<title>Node12&#45;&gt;Node15</title>
<path fill="none" stroke="#63b8ff" d="M442,-164.75C441.64,-158.27 441.12,-149.16 440.65,-140.9"/>
<polygon fill="#63b8ff" stroke="#63b8ff" points="444.15,-140.74 440.09,-130.95 437.16,-141.13 444.15,-140.74"/>
</g>
<!-- Node16 -->
<g id="node16" class="node">
<title>Node16</title>
<g id="a_node16"><a xlink:title=" ">
<polygon fill="#e0e0e0" stroke="#999999" points="364.5,-129 324.5,-129 324.5,-110 364.5,-110 364.5,-129"/>
<text text-anchor="middle" x="344.5" y="-117" font-family="Helvetica,sans-Serif" font-size="10.00">utility</text>
</a>
</g>
</g>
<!-- Node12&#45;&gt;Node16 -->
<g id="edge23" class="edge">
<title>Node12&#45;&gt;Node16</title>
<path fill="none" stroke="#63b8ff" d="M425.88,-164.51C410.72,-156.31 388.08,-144.07 370.53,-134.58"/>
<polygon fill="#63b8ff" stroke="#63b8ff" points="372.67,-131.76 362.21,-130.08 369.34,-137.91 372.67,-131.76"/>
</g>
<!-- Node12&#45;&gt;Node17 -->
<g id="edge25" class="edge">
<title>Node12&#45;&gt;Node17</title>
<path fill="none" stroke="#63b8ff" d="M478.32,-165.62C522.2,-155.97 596.37,-139.66 642.49,-129.52"/>
<polygon fill="#63b8ff" stroke="#63b8ff" points="643.08,-132.97 652.1,-127.41 641.58,-126.14 643.08,-132.97"/>
</g>
<!-- Node13&#45;&gt;Node11 -->
<g id="edge15" class="edge">
<title>Node13&#45;&gt;Node11</title>
<path fill="none" stroke="#63b8ff" d="M641.11,-54.51C655.2,-46.39 676.19,-34.3 692.6,-24.85"/>
<polygon fill="#63b8ff" stroke="#63b8ff" points="693.89,-28.14 700.81,-20.11 690.4,-22.07 693.89,-28.14"/>
</g>
<!-- Node15&#45;&gt;Node5 -->
<g id="edge21" class="edge">
<title>Node15&#45;&gt;Node5</title>
<path fill="none" stroke="#63b8ff" d="M408.8,-109.51C378.8,-100.73 332.95,-87.3 299.77,-77.59"/>
<polygon fill="#63b8ff" stroke="#63b8ff" points="301.09,-74.32 290.5,-74.87 299.12,-81.04 301.09,-74.32"/>
</g>
<!-- Node15&#45;&gt;Node7 -->
<g id="edge20" class="edge">
<title>Node15&#45;&gt;Node7</title>
<path fill="none" stroke="#63b8ff" d="M430.01,-109.66C410.63,-91.62 366.27,-50.32 341.35,-27.12"/>
<polygon fill="#63b8ff" stroke="#63b8ff" points="343.94,-24.74 334.23,-20.49 339.17,-29.87 343.94,-24.74"/>
</g>
<!-- Node15&#45;&gt;Node13 -->
<g id="edge22" class="edge">
<title>Node15&#45;&gt;Node13</title>
<path fill="none" stroke="#63b8ff" d="M471.05,-109.51C501.87,-100.73 549,-87.3 583.09,-77.59"/>
<polygon fill="#63b8ff" stroke="#63b8ff" points="583.99,-80.97 592.65,-74.86 582.07,-74.24 583.99,-80.97"/>
</g>
<!-- Node19&#45;&gt;Node4 -->
<g id="edge30" class="edge">
<title>Node19&#45;&gt;Node4</title>
<path fill="none" stroke="#63b8ff" d="M294.22,-219.64C280.21,-209.69 261.18,-196.11 244.5,-184 222.28,-167.86 197.02,-149.17 179.65,-136.26"/>
<polygon fill="#63b8ff" stroke="#63b8ff" points="181.75,-133.46 171.64,-130.3 177.57,-139.07 181.75,-133.46"/>
</g>
<!-- Node19&#45;&gt;Node5 -->
<g id="edge29" class="edge">
<title>Node19&#45;&gt;Node5</title>
<path fill="none" stroke="#63b8ff" d="M309.73,-219.63C299.69,-189.44 276.4,-119.36 265.01,-85.08"/>
<polygon fill="#63b8ff" stroke="#63b8ff" points="268.35,-84.04 261.87,-75.65 261.71,-86.25 268.35,-84.04"/>
</g>
<!-- Node19&#45;&gt;Node12 -->
<g id="edge31" class="edge">
<title>Node19&#45;&gt;Node12</title>
<path fill="none" stroke="#63b8ff" d="M346.14,-219.54C366.5,-210.23 392.8,-198.22 412.77,-189.09"/>
<polygon fill="#63b8ff" stroke="#63b8ff" points="414.13,-192.32 421.77,-184.98 411.22,-185.95 414.13,-192.32"/>
</g>
<!-- Node19&#45;&gt;Node18 -->
<g id="edge32" class="edge">
<title>Node19&#45;&gt;Node18</title>
<path fill="none" stroke="#63b8ff" d="M320.93,-219.54C324.28,-212 328.42,-202.67 332.03,-194.55"/>
<polygon fill="#63b8ff" stroke="#63b8ff" points="335.17,-196.12 336.03,-185.56 328.77,-193.27 335.17,-196.12"/>
</g>
</g>
</svg>
