<?xml version="1.0" encoding="UTF-8" standalone="no"?>
<!DOCTYPE svg PUBLIC "-//W3C//DTD SVG 1.1//EN"
 "http://www.w3.org/Graphics/SVG/1.1/DTD/svg11.dtd">
<!-- Generated by graphviz version 7.1.0 (20230121.1956)
 -->
<!-- Title: src/core/token.h Pages: 1 -->
<svg width="1829pt" height="511pt"
 viewBox="0.00 0.00 1829.00 511.00" xmlns="http://www.w3.org/2000/svg" xmlns:xlink="http://www.w3.org/1999/xlink">
<g id="graph0" class="graph" transform="scale(1 1) rotate(0) translate(4 507)">
<title>src/core/token.h</title>
<!-- Node1 -->
<g id="node1" class="node">
<title>Node1</title>
<g id="a_node1"><a xlink:title=" ">
<polygon fill="#999999" stroke="#666666" points="1265.5,-503 1178.5,-503 1178.5,-484 1265.5,-484 1265.5,-503"/>
<text text-anchor="middle" x="1222" y="-491" font-family="Helvetica,sans-Serif" font-size="10.00">src/core/token.h</text>
</a>
</g>
</g>
<!-- Node2 -->
<g id="node2" class="node">
<title>Node2</title>
<g id="a_node2"><a xlink:href="config_8h.html" target="_top" xlink:title=" ">
<polygon fill="white" stroke="#666666" points="302,-233.5 204,-233.5 204,-203.5 302,-203.5 302,-233.5"/>
<text text-anchor="start" x="212" y="-221.5" font-family="Helvetica,sans-Serif" font-size="10.00">src/core/constants</text>
<text text-anchor="middle" x="253" y="-210.5" font-family="Helvetica,sans-Serif" font-size="10.00">/config.h</text>
</a>
</g>
</g>
<!-- Node1&#45;&gt;Node2 -->
<g id="edge1" class="edge">
<title>Node1&#45;&gt;Node2</title>
<path fill="none" stroke="#63b8ff" d="M1166.67,-491.5C1069.18,-488.94 860.75,-479.87 688,-448 584.26,-428.86 559.9,-415.89 460,-382 383.64,-356.1 348.1,-372.94 291,-316 268.05,-293.11 258.59,-254.7 254.99,-233.91"/>
<polygon fill="#63b8ff" stroke="#63b8ff" points="1166.41,-494.99 1176.49,-491.74 1166.58,-488 1166.41,-494.99"/>
</g>
<!-- Node10 -->
<g id="node10" class="node">
<title>Node10</title>
<g id="a_node10"><a xlink:href="ast_8h.html" target="_top" xlink:title=" ">
<polygon fill="white" stroke="#666666" points="1018.5,-382 919.5,-382 919.5,-352 1018.5,-352 1018.5,-382"/>
<text text-anchor="start" x="927.5" y="-370" font-family="Helvetica,sans-Serif" font-size="10.00">src/core/evaluation</text>
<text text-anchor="middle" x="969" y="-359" font-family="Helvetica,sans-Serif" font-size="10.00">/ast.h</text>
</a>
</g>
</g>
<!-- Node1&#45;&gt;Node10 -->
<g id="edge9" class="edge">
<title>Node1&#45;&gt;Node10</title>
<path fill="none" stroke="#63b8ff" d="M1193.74,-478.59C1145.42,-454.81 1047.41,-406.59 998.35,-382.45"/>
<polygon fill="#63b8ff" stroke="#63b8ff" points="1191.93,-481.6 1202.45,-482.88 1195.02,-475.32 1191.93,-481.6"/>
</g>
<!-- Node19 -->
<g id="node19" class="node">
<title>Node19</title>
<g id="a_node19"><a xlink:href="parser_8h.html" target="_top" xlink:title=" ">
<polygon fill="white" stroke="#666666" points="1248.5,-233.5 1149.5,-233.5 1149.5,-203.5 1248.5,-203.5 1248.5,-233.5"/>
<text text-anchor="start" x="1157.5" y="-221.5" font-family="Helvetica,sans-Serif" font-size="10.00">src/core/evaluation</text>
<text text-anchor="middle" x="1199" y="-210.5" font-family="Helvetica,sans-Serif" font-size="10.00">/parser/parser.h</text>
</a>
</g>
</g>
<!-- Node1&#45;&gt;Node19 -->
<g id="edge73" class="edge">
<title>Node1&#45;&gt;Node19</title>
<path fill="none" stroke="#63b8ff" d="M1254.68,-478.9C1303.16,-456.53 1385.69,-408.75 1359,-352 1332.22,-295.05 1267.61,-254.17 1229.18,-233.92"/>
<polygon fill="#63b8ff" stroke="#63b8ff" points="1253.41,-475.64 1245.71,-482.91 1256.27,-482.03 1253.41,-475.64"/>
</g>
<!-- Node33 -->
<g id="node33" class="node">
<title>Node33</title>
<g id="a_node33"><a xlink:href="matcher_8h.html" target="_top" xlink:title=" ">
<polygon fill="white" stroke="#666666" points="1451,-151 1343,-151 1343,-132 1451,-132 1451,-151"/>
<text text-anchor="middle" x="1397" y="-139" font-family="Helvetica,sans-Serif" font-size="10.00">src/testing/matcher.h</text>
</a>
</g>
</g>
<!-- Node1&#45;&gt;Node33 -->
<g id="edge83" class="edge">
<title>Node1&#45;&gt;Node33</title>
<path fill="none" stroke="#63b8ff" d="M1276.65,-481.9C1334.03,-467.22 1416,-434.6 1416,-368 1416,-368 1416,-368 1416,-294.5 1416,-239.72 1403.7,-174.68 1398.89,-151.36"/>
<polygon fill="#63b8ff" stroke="#63b8ff" points="1275.9,-478.48 1267.01,-484.24 1277.55,-485.28 1275.9,-478.48"/>
</g>
<!-- Node35 -->
<g id="node35" class="node">
<title>Node35</title>
<g id="a_node35"><a xlink:href="operation_8h.html" target="_top" xlink:title=" ">
<polygon fill="white" stroke="#666666" points="813,-448 697,-448 697,-418 813,-418 813,-448"/>
<text text-anchor="start" x="705" y="-436" font-family="Helvetica,sans-Serif" font-size="10.00">src/core/evaluation</text>
<text text-anchor="middle" x="755" y="-425" font-family="Helvetica,sans-Serif" font-size="10.00">/operations/operation.h</text>
</a>
</g>
</g>
<!-- Node1&#45;&gt;Node35 -->
<g id="edge63" class="edge">
<title>Node1&#45;&gt;Node35</title>
<path fill="none" stroke="#63b8ff" d="M1166.89,-485.6C1078.07,-474.47 904.06,-452.67 813.27,-441.3"/>
<polygon fill="#63b8ff" stroke="#63b8ff" points="1166.21,-489.04 1176.56,-486.81 1167.08,-482.09 1166.21,-489.04"/>
</g>
<!-- Node38 -->
<g id="node38" class="node">
<title>Node38</title>
<g id="a_node38"><a xlink:href="tokenizer_8h.html" target="_top" xlink:title=" ">
<polygon fill="white" stroke="#666666" points="1573,-233.5 1463,-233.5 1463,-203.5 1573,-203.5 1573,-233.5"/>
<text text-anchor="start" x="1471" y="-221.5" font-family="Helvetica,sans-Serif" font-size="10.00">src/core/evaluation</text>
<text text-anchor="middle" x="1518" y="-210.5" font-family="Helvetica,sans-Serif" font-size="10.00">/tokenizer/tokenizer.h</text>
</a>
</g>
</g>
<!-- Node1&#45;&gt;Node38 -->
<g id="edge74" class="edge">
<title>Node1&#45;&gt;Node38</title>
<path fill="none" stroke="#63b8ff" d="M1277.16,-486.66C1330.79,-479.96 1407.37,-467.33 1430,-448 1497.55,-390.29 1513.46,-274.51 1517.02,-233.94"/>
<polygon fill="#63b8ff" stroke="#63b8ff" points="1276.77,-483.18 1267.26,-487.86 1277.61,-490.13 1276.77,-483.18"/>
</g>
<!-- Node41 -->
<g id="node41" class="node">
<title>Node41</title>
<g id="a_node41"><a xlink:href="classifiers_8h.html" target="_top" xlink:title=" ">
<polygon fill="white" stroke="#666666" points="1293,-442.5 1151,-442.5 1151,-423.5 1293,-423.5 1293,-442.5"/>
<text text-anchor="middle" x="1222" y="-430.5" font-family="Helvetica,sans-Serif" font-size="10.00">src/core/helpers/classifiers.h</text>
</a>
</g>
</g>
<!-- Node1&#45;&gt;Node41 -->
<g id="edge80" class="edge">
<title>Node1&#45;&gt;Node41</title>
<path fill="none" stroke="#63b8ff" d="M1222,-472.66C1222,-462.45 1222,-450.54 1222,-442.67"/>
<polygon fill="#63b8ff" stroke="#63b8ff" points="1218.5,-472.35 1222,-482.35 1225.5,-472.35 1218.5,-472.35"/>
</g>
<!-- Node3 -->
<g id="node3" class="node">
<title>Node3</title>
<g id="a_node3"><a xlink:href="array_8cpp.html" target="_top" xlink:title=" ">
<polygon fill="white" stroke="#666666" points="697,-151 603,-151 603,-132 697,-132 697,-151"/>
<text text-anchor="middle" x="650" y="-139" font-family="Helvetica,sans-Serif" font-size="10.00">src/core/array.cpp</text>
</a>
</g>
</g>
<!-- Node2&#45;&gt;Node3 -->
<g id="edge2" class="edge">
<title>Node2&#45;&gt;Node3</title>
<path fill="none" stroke="#63b8ff" d="M303.58,-199.85C306.08,-199.18 308.56,-198.56 311,-198 434.15,-169.73 469.93,-190.6 593,-162 604.51,-159.33 616.97,-155.21 627.29,-151.45"/>
<polygon fill="#63b8ff" stroke="#63b8ff" points="302.72,-196.46 294.09,-202.6 304.67,-203.18 302.72,-196.46"/>
</g>
<!-- Node4 -->
<g id="node4" class="node">
<title>Node4</title>
<g id="a_node4"><a xlink:href="config_8cpp.html" target="_top" xlink:title=" ">
<polygon fill="white" stroke="#666666" points="242,-156.5 144,-156.5 144,-126.5 242,-126.5 242,-156.5"/>
<text text-anchor="start" x="152" y="-144.5" font-family="Helvetica,sans-Serif" font-size="10.00">src/core/constants</text>
<text text-anchor="middle" x="193" y="-133.5" font-family="Helvetica,sans-Serif" font-size="10.00">/config.cpp</text>
</a>
</g>
</g>
<!-- Node2&#45;&gt;Node4 -->
<g id="edge3" class="edge">
<title>Node2&#45;&gt;Node4</title>
<path fill="none" stroke="#63b8ff" d="M234.42,-194.27C224.65,-182.07 212.99,-167.49 204.53,-156.92"/>
<polygon fill="#63b8ff" stroke="#63b8ff" points="231.51,-196.24 240.49,-201.86 236.97,-191.86 231.51,-196.24"/>
</g>
<!-- Node5 -->
<g id="node5" class="node">
<title>Node5</title>
<g id="a_node5"><a xlink:href="interpreter_8cpp.html" target="_top" xlink:title=" ">
<polygon fill="white" stroke="#666666" points="814.5,-156.5 715.5,-156.5 715.5,-126.5 814.5,-126.5 814.5,-156.5"/>
<text text-anchor="start" x="723.5" y="-144.5" font-family="Helvetica,sans-Serif" font-size="10.00">src/core/evaluation</text>
<text text-anchor="middle" x="765" y="-133.5" font-family="Helvetica,sans-Serif" font-size="10.00">/interpreter.cpp</text>
</a>
</g>
</g>
<!-- Node2&#45;&gt;Node5 -->
<g id="edge4" class="edge">
<title>Node2&#45;&gt;Node5</title>
<path fill="none" stroke="#63b8ff" d="M303,-199.88C305.69,-199.19 308.37,-198.55 311,-198 483.5,-161.66 533.41,-197.89 706,-162 712.34,-160.68 718.94,-158.91 725.35,-156.97"/>
<polygon fill="#63b8ff" stroke="#63b8ff" points="302.08,-196.51 293.42,-202.61 304,-203.24 302.08,-196.51"/>
</g>
<!-- Node6 -->
<g id="node6" class="node">
<title>Node6</title>
<g id="a_node6"><a xlink:href="defined__function_8cpp.html" target="_top" xlink:title=" ">
<polygon fill="white" stroke="#666666" points="435.5,-162 336.5,-162 336.5,-121 435.5,-121 435.5,-162"/>
<text text-anchor="start" x="344.5" y="-150" font-family="Helvetica,sans-Serif" font-size="10.00">src/core/evaluation</text>
<text text-anchor="start" x="344.5" y="-139" font-family="Helvetica,sans-Serif" font-size="10.00">/operations/defined</text>
<text text-anchor="middle" x="386" y="-128" font-family="Helvetica,sans-Serif" font-size="10.00">_function.cpp</text>
</a>
</g>
</g>
<!-- Node2&#45;&gt;Node6 -->
<g id="edge5" class="edge">
<title>Node2&#45;&gt;Node6</title>
<path fill="none" stroke="#63b8ff" d="M288.53,-197.47C307.75,-186.62 331.43,-173.27 350.63,-162.44"/>
<polygon fill="#63b8ff" stroke="#63b8ff" points="286.95,-194.34 279.96,-202.3 290.39,-200.43 286.95,-194.34"/>
</g>
<!-- Node7 -->
<g id="node7" class="node">
<title>Node7</title>
<g id="a_node7"><a xlink:href="functions_8cpp.html" target="_top" xlink:title=" ">
<polygon fill="white" stroke="#666666" points="126,-156.5 0,-156.5 0,-126.5 126,-126.5 126,-156.5"/>
<text text-anchor="start" x="8" y="-144.5" font-family="Helvetica,sans-Serif" font-size="10.00">src/core/evaluation</text>
<text text-anchor="middle" x="63" y="-133.5" font-family="Helvetica,sans-Serif" font-size="10.00">/operations/functions.cpp</text>
</a>
</g>
</g>
<!-- Node2&#45;&gt;Node7 -->
<g id="edge6" class="edge">
<title>Node2&#45;&gt;Node7</title>
<path fill="none" stroke="#63b8ff" d="M206.08,-198.98C173.19,-186 129.85,-168.89 99.52,-156.92"/>
<polygon fill="#63b8ff" stroke="#63b8ff" points="204.37,-202.07 214.96,-202.48 206.94,-195.56 204.37,-202.07"/>
</g>
<!-- Node8 -->
<g id="node8" class="node">
<title>Node8</title>
<g id="a_node8"><a xlink:href="execution_8cpp.html" target="_top" xlink:title=" ">
<polygon fill="white" stroke="#666666" points="1035,-79.5 919,-79.5 919,-60.5 1035,-60.5 1035,-79.5"/>
<text text-anchor="middle" x="977" y="-67.5" font-family="Helvetica,sans-Serif" font-size="10.00">src/core/execution.cpp</text>
</a>
</g>
</g>
<!-- Node2&#45;&gt;Node8 -->
<g id="edge7" class="edge">
<title>Node2&#45;&gt;Node8</title>
<path fill="none" stroke="#63b8ff" d="M261.47,-192.64C270.73,-169.69 287.96,-136.85 315,-121 372.05,-87.57 843.45,-93.69 909,-85 918.56,-83.73 928.78,-81.89 938.33,-79.96"/>
<polygon fill="#63b8ff" stroke="#63b8ff" points="258.24,-191.28 257.99,-201.87 264.79,-193.75 258.24,-191.28"/>
</g>
<!-- Node9 -->
<g id="node9" class="node">
<title>Node9</title>
<g id="a_node9"><a xlink:href="symbol__table_8cpp.html" target="_top" xlink:title=" ">
<polygon fill="white" stroke="#666666" points="584.5,-151 453.5,-151 453.5,-132 584.5,-132 584.5,-151"/>
<text text-anchor="middle" x="519" y="-139" font-family="Helvetica,sans-Serif" font-size="10.00">src/core/symbol_table.cpp</text>
</a>
</g>
</g>
<!-- Node2&#45;&gt;Node9 -->
<g id="edge8" class="edge">
<title>Node2&#45;&gt;Node9</title>
<path fill="none" stroke="#63b8ff" d="M305.58,-199.66C307.41,-199.09 309.22,-198.54 311,-198 327.69,-192.97 430.45,-165.82 485.02,-151.44"/>
<polygon fill="#63b8ff" stroke="#63b8ff" points="304.94,-196.19 296.47,-202.56 307.06,-202.86 304.94,-196.19"/>
</g>
<!-- Node11 -->
<g id="node11" class="node">
<title>Node11</title>
<g id="a_node11"><a xlink:href="ast_8cpp.html" target="_top" xlink:title=" ">
<polygon fill="white" stroke="#666666" points="1131.5,-156.5 1032.5,-156.5 1032.5,-126.5 1131.5,-126.5 1131.5,-156.5"/>
<text text-anchor="start" x="1040.5" y="-144.5" font-family="Helvetica,sans-Serif" font-size="10.00">src/core/evaluation</text>
<text text-anchor="middle" x="1082" y="-133.5" font-family="Helvetica,sans-Serif" font-size="10.00">/ast.cpp</text>
</a>
</g>
</g>
<!-- Node10&#45;&gt;Node11 -->
<g id="edge10" class="edge">
<title>Node10&#45;&gt;Node11</title>
<path fill="none" stroke="#63b8ff" d="M1030.1,-358.4C1056.48,-351.74 1084.92,-339.29 1101,-316 1135.44,-266.13 1104.47,-188.29 1089.27,-156.62"/>
<polygon fill="#63b8ff" stroke="#63b8ff" points="1029.43,-354.96 1020.45,-360.57 1030.97,-361.79 1029.43,-354.96"/>
</g>
<!-- Node12 -->
<g id="node12" class="node">
<title>Node12</title>
<g id="a_node12"><a xlink:href="node__visitor_8h.html" target="_top" xlink:title=" ">
<polygon fill="white" stroke="#666666" points="940.5,-310.5 841.5,-310.5 841.5,-280.5 940.5,-280.5 940.5,-310.5"/>
<text text-anchor="start" x="849.5" y="-298.5" font-family="Helvetica,sans-Serif" font-size="10.00">src/core/evaluation</text>
<text text-anchor="middle" x="891" y="-287.5" font-family="Helvetica,sans-Serif" font-size="10.00">/node_visitor.h</text>
</a>
</g>
</g>
<!-- Node10&#45;&gt;Node12 -->
<g id="edge11" class="edge">
<title>Node10&#45;&gt;Node12</title>
<path fill="none" stroke="#63b8ff" d="M944.44,-344.12C932.27,-333.27 917.91,-320.48 907.14,-310.88"/>
<polygon fill="#63b8ff" stroke="#63b8ff" points="941.91,-346.55 951.71,-350.59 946.57,-341.33 941.91,-346.55"/>
</g>
<!-- Node14 -->
<g id="node14" class="node">
<title>Node14</title>
<g id="a_node14"><a xlink:href="defined__function_8h.html" target="_top" xlink:title=" ">
<polygon fill="white" stroke="#666666" points="823.5,-316 724.5,-316 724.5,-275 823.5,-275 823.5,-316"/>
<text text-anchor="start" x="732.5" y="-304" font-family="Helvetica,sans-Serif" font-size="10.00">src/core/evaluation</text>
<text text-anchor="start" x="732.5" y="-293" font-family="Helvetica,sans-Serif" font-size="10.00">/operations/defined</text>
<text text-anchor="middle" x="774" y="-282" font-family="Helvetica,sans-Serif" font-size="10.00">_function.h</text>
</a>
</g>
</g>
<!-- Node10&#45;&gt;Node14 -->
<g id="edge17" class="edge">
<title>Node10&#45;&gt;Node14</title>
<path fill="none" stroke="#63b8ff" d="M917.83,-347.76C888.76,-337.4 852.53,-324.49 823.7,-314.21"/>
<polygon fill="#63b8ff" stroke="#63b8ff" points="916.58,-351.03 927.17,-351.09 918.93,-344.44 916.58,-351.03"/>
</g>
<!-- Node15 -->
<g id="node15" class="node">
<title>Node15</title>
<g id="a_node15"><a xlink:href="dyadic__operators_8h.html" target="_top" xlink:title=" ">
<polygon fill="white" stroke="#666666" points="706,-310.5 556,-310.5 556,-280.5 706,-280.5 706,-310.5"/>
<text text-anchor="start" x="564" y="-298.5" font-family="Helvetica,sans-Serif" font-size="10.00">src/core/evaluation</text>
<text text-anchor="middle" x="631" y="-287.5" font-family="Helvetica,sans-Serif" font-size="10.00">/operations/dyadic_operators.h</text>
</a>
</g>
</g>
<!-- Node10&#45;&gt;Node15 -->
<g id="edge20" class="edge">
<title>Node10&#45;&gt;Node15</title>
<path fill="none" stroke="#63b8ff" d="M907.99,-354.59C856.47,-344.81 780.78,-330.1 715,-316 707.53,-314.4 699.71,-312.66 691.97,-310.91"/>
<polygon fill="#63b8ff" stroke="#63b8ff" points="907.29,-358.02 917.77,-356.44 908.59,-351.14 907.29,-358.02"/>
</g>
<!-- Node17 -->
<g id="node17" class="node">
<title>Node17</title>
<g id="a_node17"><a xlink:href="monadic__operators_8h.html" target="_top" xlink:title=" ">
<polygon fill="white" stroke="#666666" points="538,-316 434,-316 434,-275 538,-275 538,-316"/>
<text text-anchor="start" x="442" y="-304" font-family="Helvetica,sans-Serif" font-size="10.00">src/core/evaluation</text>
<text text-anchor="start" x="442" y="-293" font-family="Helvetica,sans-Serif" font-size="10.00">/operations/monadic</text>
<text text-anchor="middle" x="486" y="-282" font-family="Helvetica,sans-Serif" font-size="10.00">_operators.h</text>
</a>
</g>
</g>
<!-- Node10&#45;&gt;Node17 -->
<g id="edge23" class="edge">
<title>Node10&#45;&gt;Node17</title>
<path fill="none" stroke="#63b8ff" d="M907.67,-362.43C825,-356.77 673.57,-343.46 547,-316 544.17,-315.39 541.29,-314.7 538.4,-313.95"/>
<polygon fill="#63b8ff" stroke="#63b8ff" points="907.39,-365.92 917.61,-363.09 907.86,-358.93 907.39,-365.92"/>
</g>
<!-- Node10&#45;&gt;Node19 -->
<g id="edge27" class="edge">
<title>Node10&#45;&gt;Node19</title>
<path fill="none" stroke="#63b8ff" d="M1029.85,-358.02C1063.43,-351.21 1104.39,-338.74 1135,-316 1164.21,-294.3 1184.11,-255.05 1193.26,-233.91"/>
<polygon fill="#63b8ff" stroke="#63b8ff" points="1029.44,-354.54 1020.26,-359.83 1030.74,-361.41 1029.44,-354.54"/>
</g>
<!-- Node23 -->
<g id="node23" class="node">
<title>Node23</title>
<g id="a_node23"><a xlink:href="symbol_8h.html" target="_top" xlink:title=" ">
<polygon fill="white" stroke="#666666" points="1092.5,-305 997.5,-305 997.5,-286 1092.5,-286 1092.5,-305"/>
<text text-anchor="middle" x="1045" y="-293" font-family="Helvetica,sans-Serif" font-size="10.00">src/core/symbol.h</text>
</a>
</g>
</g>
<!-- Node10&#45;&gt;Node23 -->
<g id="edge33" class="edge">
<title>Node10&#45;&gt;Node23</title>
<path fill="none" stroke="#63b8ff" d="M993.21,-343.86C1007.57,-330.73 1024.98,-314.81 1035.51,-305.18"/>
<polygon fill="#63b8ff" stroke="#63b8ff" points="990.88,-341.25 985.86,-350.58 995.61,-346.41 990.88,-341.25"/>
</g>
<!-- Node24 -->
<g id="node24" class="node">
<title>Node24</title>
<g id="a_node24"><a xlink:href="symbol__table_8h.html" target="_top" xlink:title=" ">
<polygon fill="white" stroke="#666666" points="1026.5,-228 905.5,-228 905.5,-209 1026.5,-209 1026.5,-228"/>
<text text-anchor="middle" x="966" y="-216" font-family="Helvetica,sans-Serif" font-size="10.00">src/core/symbol_table.h</text>
</a>
</g>
</g>
<!-- Node10&#45;&gt;Node24 -->
<g id="edge55" class="edge">
<title>Node10&#45;&gt;Node24</title>
<path fill="none" stroke="#63b8ff" d="M968.48,-340.52C967.79,-307.02 966.62,-249.87 966.18,-228.19"/>
<polygon fill="#63b8ff" stroke="#63b8ff" points="964.97,-340.25 968.68,-350.17 971.97,-340.1 964.97,-340.25"/>
</g>
<!-- Node10&#45;&gt;Node33 -->
<g id="edge56" class="edge">
<title>Node10&#45;&gt;Node33</title>
<path fill="none" stroke="#63b8ff" d="M1030.15,-357.06C1070.43,-349.63 1123.55,-336.82 1167,-316 1263.53,-269.75 1359.4,-179.58 1388.25,-151.24"/>
<polygon fill="#63b8ff" stroke="#63b8ff" points="1029.61,-353.6 1020.38,-358.8 1030.84,-360.49 1029.61,-353.6"/>
</g>
<!-- Node12&#45;&gt;Node11 -->
<g id="edge12" class="edge">
<title>Node12&#45;&gt;Node11</title>
<path fill="none" stroke="#63b8ff" d="M951.85,-281.93C979.86,-273.61 1011.91,-260.19 1035,-239 1059.71,-216.32 1072.91,-177.82 1078.57,-156.97"/>
<polygon fill="#63b8ff" stroke="#63b8ff" points="951.09,-278.5 942.4,-284.57 952.98,-285.25 951.09,-278.5"/>
</g>
<!-- Node13 -->
<g id="node13" class="node">
<title>Node13</title>
<g id="a_node13"><a xlink:href="interpreter_8h.html" target="_top" xlink:title=" ">
<polygon fill="white" stroke="#666666" points="541.5,-233.5 442.5,-233.5 442.5,-203.5 541.5,-203.5 541.5,-233.5"/>
<text text-anchor="start" x="450.5" y="-221.5" font-family="Helvetica,sans-Serif" font-size="10.00">src/core/evaluation</text>
<text text-anchor="middle" x="492" y="-210.5" font-family="Helvetica,sans-Serif" font-size="10.00">/interpreter.h</text>
</a>
</g>
</g>
<!-- Node12&#45;&gt;Node13 -->
<g id="edge13" class="edge">
<title>Node12&#45;&gt;Node13</title>
<path fill="none" stroke="#63b8ff" d="M839.83,-276.93C837.2,-276.23 834.57,-275.58 832,-275 708.78,-247.05 673.15,-267.27 550,-239 543.99,-237.62 537.73,-235.87 531.64,-233.98"/>
<polygon fill="#63b8ff" stroke="#63b8ff" points="838.63,-280.23 849.21,-279.62 840.56,-273.5 838.63,-280.23"/>
</g>
<!-- Node13&#45;&gt;Node5 -->
<g id="edge14" class="edge">
<title>Node13&#45;&gt;Node5</title>
<path fill="none" stroke="#63b8ff" d="M544.34,-199.65C546.25,-199.08 548.14,-198.53 550,-198 618.47,-178.64 637.48,-181.19 706,-162 711.51,-160.46 717.26,-158.72 722.93,-156.93"/>
<polygon fill="#63b8ff" stroke="#63b8ff" points="543.31,-196.3 534.8,-202.6 545.38,-202.99 543.31,-196.3"/>
</g>
<!-- Node13&#45;&gt;Node6 -->
<g id="edge15" class="edge">
<title>Node13&#45;&gt;Node6</title>
<path fill="none" stroke="#63b8ff" d="M462.59,-196.69C447.4,-185.94 428.96,-172.9 413.99,-162.3"/>
<polygon fill="#63b8ff" stroke="#63b8ff" points="460.14,-199.25 470.33,-202.17 464.18,-193.53 460.14,-199.25"/>
</g>
<!-- Node13&#45;&gt;Node8 -->
<g id="edge16" class="edge">
<title>Node13&#45;&gt;Node8</title>
<path fill="none" stroke="#63b8ff" d="M437.9,-199.51C389.96,-183.53 327.43,-162.6 327,-162 316.37,-147.2 314.52,-134.28 327,-121 371.38,-73.79 844.78,-93.55 909,-85 918.56,-83.73 928.78,-81.88 938.32,-79.95"/>
<polygon fill="#63b8ff" stroke="#63b8ff" points="436.78,-202.82 447.37,-202.66 438.99,-196.18 436.78,-202.82"/>
</g>
<!-- Node14&#45;&gt;Node5 -->
<g id="edge18" class="edge">
<title>Node14&#45;&gt;Node5</title>
<path fill="none" stroke="#63b8ff" d="M772.16,-263.5C770.24,-230.97 767.29,-181.25 765.85,-156.92"/>
<polygon fill="#63b8ff" stroke="#63b8ff" points="768.65,-263.34 772.73,-273.12 775.64,-262.93 768.65,-263.34"/>
</g>
<!-- Node14&#45;&gt;Node6 -->
<g id="edge19" class="edge">
<title>Node14&#45;&gt;Node6</title>
<path fill="none" stroke="#63b8ff" d="M767.85,-263.52C761.8,-241.63 750.27,-213.51 729,-198 677.42,-160.39 506.23,-176.24 444,-162 441.31,-161.38 438.56,-160.69 435.81,-159.95"/>
<polygon fill="#63b8ff" stroke="#63b8ff" points="764.43,-264.29 770.23,-273.15 771.22,-262.6 764.43,-264.29"/>
</g>
<!-- Node15&#45;&gt;Node13 -->
<g id="edge21" class="edge">
<title>Node15&#45;&gt;Node13</title>
<path fill="none" stroke="#63b8ff" d="M594.15,-274.62C570.43,-261.82 540.14,-245.47 518.72,-233.92"/>
<polygon fill="#63b8ff" stroke="#63b8ff" points="592.4,-277.65 602.87,-279.32 595.73,-271.49 592.4,-277.65"/>
</g>
<!-- Node16 -->
<g id="node16" class="node">
<title>Node16</title>
<g id="a_node16"><a xlink:href="dyadic__operators_8cpp.html" target="_top" xlink:title=" ">
<polygon fill="white" stroke="#666666" points="720.5,-233.5 559.5,-233.5 559.5,-203.5 720.5,-203.5 720.5,-233.5"/>
<text text-anchor="start" x="567.5" y="-221.5" font-family="Helvetica,sans-Serif" font-size="10.00">src/core/evaluation</text>
<text text-anchor="middle" x="640" y="-210.5" font-family="Helvetica,sans-Serif" font-size="10.00">/operations/dyadic_operators.cpp</text>
</a>
</g>
</g>
<!-- Node15&#45;&gt;Node16 -->
<g id="edge22" class="edge">
<title>Node15&#45;&gt;Node16</title>
<path fill="none" stroke="#63b8ff" d="M634.09,-268.73C635.49,-257.08 637.09,-243.76 638.27,-233.92"/>
<polygon fill="#63b8ff" stroke="#63b8ff" points="630.63,-268.19 632.92,-278.54 637.58,-269.02 630.63,-268.19"/>
</g>
<!-- Node17&#45;&gt;Node13 -->
<g id="edge24" class="edge">
<title>Node17&#45;&gt;Node13</title>
<path fill="none" stroke="#63b8ff" d="M488.47,-263.62C489.3,-253.3 490.18,-242.3 490.85,-233.86"/>
<polygon fill="#63b8ff" stroke="#63b8ff" points="485.01,-263.04 487.7,-273.29 491.98,-263.6 485.01,-263.04"/>
</g>
<!-- Node17&#45;&gt;Node16 -->
<g id="edge25" class="edge">
<title>Node17&#45;&gt;Node16</title>
<path fill="none" stroke="#63b8ff" d="M537.07,-269.63C561.51,-257.73 589.9,-243.9 610.67,-233.79"/>
<polygon fill="#63b8ff" stroke="#63b8ff" points="535.68,-266.41 528.23,-273.94 538.75,-272.7 535.68,-266.41"/>
</g>
<!-- Node18 -->
<g id="node18" class="node">
<title>Node18</title>
<g id="a_node18"><a xlink:href="monadic__operators_8cpp.html" target="_top" xlink:title=" ">
<polygon fill="white" stroke="#666666" points="424,-239 320,-239 320,-198 424,-198 424,-239"/>
<text text-anchor="start" x="328" y="-227" font-family="Helvetica,sans-Serif" font-size="10.00">src/core/evaluation</text>
<text text-anchor="start" x="328" y="-216" font-family="Helvetica,sans-Serif" font-size="10.00">/operations/monadic</text>
<text text-anchor="middle" x="372" y="-205" font-family="Helvetica,sans-Serif" font-size="10.00">_operators.cpp</text>
</a>
</g>
</g>
<!-- Node17&#45;&gt;Node18 -->
<g id="edge26" class="edge">
<title>Node17&#45;&gt;Node18</title>
<path fill="none" stroke="#63b8ff" d="M446.53,-268.53C432.07,-259.02 415.94,-248.41 402.39,-239.49"/>
<polygon fill="#63b8ff" stroke="#63b8ff" points="444.21,-271.19 454.48,-273.77 448.05,-265.35 444.21,-271.19"/>
</g>
<!-- Node19&#45;&gt;Node5 -->
<g id="edge28" class="edge">
<title>Node19&#45;&gt;Node5</title>
<path fill="none" stroke="#63b8ff" d="M1137.86,-209.82C1047.18,-198.2 881.46,-176.02 823,-162 817.11,-160.59 810.97,-158.84 804.98,-156.97"/>
<polygon fill="#63b8ff" stroke="#63b8ff" points="1137.2,-213.26 1147.56,-211.06 1138.09,-206.32 1137.2,-213.26"/>
</g>
<!-- Node19&#45;&gt;Node8 -->
<g id="edge30" class="edge">
<title>Node19&#45;&gt;Node8</title>
<path fill="none" stroke="#63b8ff" d="M1230.07,-196.11C1240.69,-186.97 1251.31,-175.32 1257,-162 1264.16,-145.24 1268.74,-134.94 1257,-121 1226.79,-85.11 1095.14,-93.48 1049,-85 1040.36,-83.41 1031.14,-81.66 1022.29,-79.96"/>
<polygon fill="#63b8ff" stroke="#63b8ff" points="1228.05,-193.24 1222.44,-202.23 1232.43,-198.7 1228.05,-193.24"/>
</g>
<!-- Node20 -->
<g id="node20" class="node">
<title>Node20</title>
<g id="a_node20"><a xlink:href="parser_8cpp.html" target="_top" xlink:title=" ">
<polygon fill="white" stroke="#666666" points="1248.5,-156.5 1149.5,-156.5 1149.5,-126.5 1248.5,-126.5 1248.5,-156.5"/>
<text text-anchor="start" x="1157.5" y="-144.5" font-family="Helvetica,sans-Serif" font-size="10.00">src/core/evaluation</text>
<text text-anchor="middle" x="1199" y="-133.5" font-family="Helvetica,sans-Serif" font-size="10.00">/parser/parser.cpp</text>
</a>
</g>
</g>
<!-- Node19&#45;&gt;Node20 -->
<g id="edge29" class="edge">
<title>Node19&#45;&gt;Node20</title>
<path fill="none" stroke="#63b8ff" d="M1199,-191.73C1199,-180.08 1199,-166.76 1199,-156.92"/>
<polygon fill="#63b8ff" stroke="#63b8ff" points="1195.5,-191.53 1199,-201.53 1202.5,-191.53 1195.5,-191.53"/>
</g>
<!-- Node21 -->
<g id="node21" class="node">
<title>Node21</title>
<g id="a_node21"><a xlink:href="parser__fixture_8h.html" target="_top" xlink:title=" ">
<polygon fill="white" stroke="#666666" points="1567,-156.5 1469,-156.5 1469,-126.5 1567,-126.5 1567,-156.5"/>
<text text-anchor="start" x="1477" y="-144.5" font-family="Helvetica,sans-Serif" font-size="10.00">src/testing/fixtures</text>
<text text-anchor="middle" x="1518" y="-133.5" font-family="Helvetica,sans-Serif" font-size="10.00">/parser_fixture.h</text>
</a>
</g>
</g>
<!-- Node19&#45;&gt;Node21 -->
<g id="edge31" class="edge">
<title>Node19&#45;&gt;Node21</title>
<path fill="none" stroke="#63b8ff" d="M1260.24,-206.54C1313.44,-196.53 1392.35,-180.5 1460,-162 1465.53,-160.49 1471.31,-158.74 1476.99,-156.94"/>
<polygon fill="#63b8ff" stroke="#63b8ff" points="1259.63,-203.09 1250.45,-208.37 1260.92,-209.97 1259.63,-203.09"/>
</g>
<!-- Node22 -->
<g id="node22" class="node">
<title>Node22</title>
<g id="a_node22"><a xlink:href="test__parser_8cpp.html" target="_top" xlink:title=" ">
<polygon fill="white" stroke="#666666" points="1578,-79.5 1446,-79.5 1446,-60.5 1578,-60.5 1578,-79.5"/>
<text text-anchor="middle" x="1512" y="-67.5" font-family="Helvetica,sans-Serif" font-size="10.00">src/testing/test_parser.cpp</text>
</a>
</g>
</g>
<!-- Node21&#45;&gt;Node22 -->
<g id="edge32" class="edge">
<title>Node21&#45;&gt;Node22</title>
<path fill="none" stroke="#63b8ff" d="M1515.8,-114.96C1514.73,-102.57 1513.51,-88.49 1512.75,-79.68"/>
<polygon fill="#63b8ff" stroke="#63b8ff" points="1512.28,-114.93 1516.63,-124.59 1519.25,-114.33 1512.28,-114.93"/>
</g>
<!-- Node23&#45;&gt;Node24 -->
<g id="edge34" class="edge">
<title>Node23&#45;&gt;Node24</title>
<path fill="none" stroke="#63b8ff" d="M1027.54,-277.92C1011.45,-262.65 988.18,-240.56 975.36,-228.39"/>
<polygon fill="#63b8ff" stroke="#63b8ff" points="1024.87,-280.21 1034.53,-284.56 1029.69,-275.14 1024.87,-280.21"/>
</g>
<!-- Node24&#45;&gt;Node3 -->
<g id="edge35" class="edge">
<title>Node24&#45;&gt;Node3</title>
<path fill="none" stroke="#63b8ff" d="M903.47,-206.42C850.47,-196.49 772.67,-180.65 706,-162 695.19,-158.98 683.44,-154.99 673.5,-151.42"/>
<polygon fill="#63b8ff" stroke="#63b8ff" points="902.77,-209.85 913.24,-208.24 904.04,-202.97 902.77,-209.85"/>
</g>
<!-- Node24&#45;&gt;Node5 -->
<g id="edge37" class="edge">
<title>Node24&#45;&gt;Node5</title>
<path fill="none" stroke="#63b8ff" d="M931.8,-204.74C896.25,-191.47 840.71,-170.75 803.6,-156.9"/>
<polygon fill="#63b8ff" stroke="#63b8ff" points="930.14,-207.86 940.74,-208.07 932.59,-201.3 930.14,-207.86"/>
</g>
<!-- Node24&#45;&gt;Node6 -->
<g id="edge38" class="edge">
<title>Node24&#45;&gt;Node6</title>
<path fill="none" stroke="#63b8ff" d="M893.91,-210.26C755.82,-196.32 465.65,-166.73 444,-162 441.3,-161.41 438.55,-160.74 435.79,-160.01"/>
<polygon fill="#63b8ff" stroke="#63b8ff" points="893.38,-213.72 903.68,-211.24 894.08,-206.76 893.38,-213.72"/>
</g>
<!-- Node24&#45;&gt;Node7 -->
<g id="edge39" class="edge">
<title>Node24&#45;&gt;Node7</title>
<path fill="none" stroke="#63b8ff" d="M893.86,-211.16C846.92,-207.13 784.35,-201.95 729,-198 465.19,-179.15 396,-204.79 135,-162 127.2,-160.72 119.04,-158.95 111.11,-156.98"/>
<polygon fill="#63b8ff" stroke="#63b8ff" points="893.37,-214.63 903.63,-212 893.97,-207.65 893.37,-214.63"/>
</g>
<!-- Node24&#45;&gt;Node8 -->
<g id="edge41" class="edge">
<title>Node24&#45;&gt;Node8</title>
<path fill="none" stroke="#63b8ff" d="M967.49,-197.71C969.91,-165.49 974.6,-102.97 976.33,-79.87"/>
<polygon fill="#63b8ff" stroke="#63b8ff" points="964.03,-197.03 966.77,-207.27 971.01,-197.56 964.03,-197.03"/>
</g>
<!-- Node24&#45;&gt;Node9 -->
<g id="edge52" class="edge">
<title>Node24&#45;&gt;Node9</title>
<path fill="none" stroke="#63b8ff" d="M893.87,-209.05C818.63,-199.69 697.46,-183.1 594,-162 579.5,-159.04 563.61,-155.03 550.21,-151.41"/>
<polygon fill="#63b8ff" stroke="#63b8ff" points="893.23,-212.49 903.58,-210.24 894.09,-205.55 893.23,-212.49"/>
</g>
<!-- Node24&#45;&gt;Node11 -->
<g id="edge36" class="edge">
<title>Node24&#45;&gt;Node11</title>
<path fill="none" stroke="#63b8ff" d="M989.32,-202.42C1009.91,-189.11 1039.73,-169.83 1059.94,-156.77"/>
<polygon fill="#63b8ff" stroke="#63b8ff" points="987.53,-199.41 981.03,-207.78 991.33,-205.29 987.53,-199.41"/>
</g>
<!-- Node24&#45;&gt;Node20 -->
<g id="edge40" class="edge">
<title>Node24&#45;&gt;Node20</title>
<path fill="none" stroke="#63b8ff" d="M1005.15,-205.14C1040.44,-193.97 1093.74,-177.02 1140,-162 1145.03,-160.37 1150.29,-158.65 1155.52,-156.93"/>
<polygon fill="#63b8ff" stroke="#63b8ff" points="1004.28,-201.74 995.8,-208.1 1006.39,-208.42 1004.28,-201.74"/>
</g>
<!-- Node24&#45;&gt;Node21 -->
<g id="edge54" class="edge">
<title>Node24&#45;&gt;Node21</title>
<path fill="none" stroke="#63b8ff" d="M1038.17,-209.4C1175.15,-194.04 1459.36,-162.14 1460,-162 1466.12,-160.64 1472.5,-158.88 1478.69,-156.96"/>
<polygon fill="#63b8ff" stroke="#63b8ff" points="1038.03,-205.9 1028.48,-210.49 1038.81,-212.85 1038.03,-205.9"/>
</g>
<!-- Node25 -->
<g id="node25" class="node">
<title>Node25</title>
<g id="a_node25"><a xlink:href="execution_8h.html" target="_top" xlink:title=" ">
<polygon fill="white" stroke="#666666" points="937.5,-151 832.5,-151 832.5,-132 937.5,-132 937.5,-151"/>
<text text-anchor="middle" x="885" y="-139" font-family="Helvetica,sans-Serif" font-size="10.00">src/core/execution.h</text>
</a>
</g>
</g>
<!-- Node24&#45;&gt;Node25 -->
<g id="edge42" class="edge">
<title>Node24&#45;&gt;Node25</title>
<path fill="none" stroke="#63b8ff" d="M948.1,-200.92C931.6,-185.65 907.74,-163.56 894.6,-151.39"/>
<polygon fill="#63b8ff" stroke="#63b8ff" points="945.56,-203.35 955.28,-207.57 950.32,-198.21 945.56,-203.35"/>
</g>
<!-- Node29 -->
<g id="node29" class="node">
<title>Node29</title>
<g id="a_node29"><a xlink:href="fixture_8h.html" target="_top" xlink:title=" ">
<polygon fill="white" stroke="#666666" points="1189,-85 1091,-85 1091,-55 1189,-55 1189,-85"/>
<text text-anchor="start" x="1099" y="-73" font-family="Helvetica,sans-Serif" font-size="10.00">src/testing/fixtures</text>
<text text-anchor="middle" x="1140" y="-62" font-family="Helvetica,sans-Serif" font-size="10.00">/fixture.h</text>
</a>
</g>
</g>
<!-- Node24&#45;&gt;Node29 -->
<g id="edge53" class="edge">
<title>Node24&#45;&gt;Node29</title>
<path fill="none" stroke="#63b8ff" d="M973.27,-197.79C982.08,-176.33 998.81,-142.24 1023,-121 1042.25,-104.09 1068.08,-92.24 1090.57,-84.34"/>
<polygon fill="#63b8ff" stroke="#63b8ff" points="970.01,-196.52 969.65,-207.11 976.53,-199.06 970.01,-196.52"/>
</g>
<!-- Node25&#45;&gt;Node8 -->
<g id="edge43" class="edge">
<title>Node25&#45;&gt;Node8</title>
<path fill="none" stroke="#63b8ff" d="M905.67,-124.88C924,-111.04 950.14,-91.29 965.15,-79.95"/>
<polygon fill="#63b8ff" stroke="#63b8ff" points="903.73,-121.96 897.86,-130.79 907.95,-127.55 903.73,-121.96"/>
</g>
<!-- Node26 -->
<g id="node26" class="node">
<title>Node26</title>
<g id="a_node26"><a xlink:href="main_8cpp.html" target="_top" xlink:title=" ">
<polygon fill="white" stroke="#666666" points="900.5,-79.5 827.5,-79.5 827.5,-60.5 900.5,-60.5 900.5,-79.5"/>
<text text-anchor="middle" x="864" y="-67.5" font-family="Helvetica,sans-Serif" font-size="10.00">src/main.cpp</text>
</a>
</g>
</g>
<!-- Node25&#45;&gt;Node26 -->
<g id="edge44" class="edge">
<title>Node25&#45;&gt;Node26</title>
<path fill="none" stroke="#63b8ff" d="M879.02,-120.71C874.97,-107.29 869.8,-90.2 866.7,-79.95"/>
<polygon fill="#63b8ff" stroke="#63b8ff" points="875.66,-121.69 881.9,-130.25 882.36,-119.66 875.66,-121.69"/>
</g>
<!-- Node27 -->
<g id="node27" class="node">
<title>Node27</title>
<g id="a_node27"><a xlink:href="file__fixture_8h.html" target="_top" xlink:title=" ">
<polygon fill="white" stroke="#666666" points="809,-85 711,-85 711,-55 809,-55 809,-85"/>
<text text-anchor="start" x="719" y="-73" font-family="Helvetica,sans-Serif" font-size="10.00">src/testing/fixtures</text>
<text text-anchor="middle" x="760" y="-62" font-family="Helvetica,sans-Serif" font-size="10.00">/file_fixture.h</text>
</a>
</g>
</g>
<!-- Node25&#45;&gt;Node27 -->
<g id="edge45" class="edge">
<title>Node25&#45;&gt;Node27</title>
<path fill="none" stroke="#63b8ff" d="M858.91,-125.99C837.52,-114.1 807.4,-97.35 786.03,-85.47"/>
<polygon fill="#63b8ff" stroke="#63b8ff" points="857.15,-129.02 867.59,-130.82 860.55,-122.9 857.15,-129.02"/>
</g>
<!-- Node25&#45;&gt;Node29 -->
<g id="edge47" class="edge">
<title>Node25&#45;&gt;Node29</title>
<path fill="none" stroke="#63b8ff" d="M928.69,-128.59C973.7,-116.32 1043.73,-97.24 1090.7,-84.44"/>
<polygon fill="#63b8ff" stroke="#63b8ff" points="928,-125.15 919.28,-131.16 929.84,-131.91 928,-125.15"/>
</g>
<!-- Node28 -->
<g id="node28" class="node">
<title>Node28</title>
<g id="a_node28"><a xlink:href="test__examples_8cpp.html" target="_top" xlink:title=" ">
<polygon fill="white" stroke="#666666" points="1049,-19 901,-19 901,0 1049,0 1049,-19"/>
<text text-anchor="middle" x="975" y="-7" font-family="Helvetica,sans-Serif" font-size="10.00">src/testing/test_examples.cpp</text>
</a>
</g>
</g>
<!-- Node27&#45;&gt;Node28 -->
<g id="edge46" class="edge">
<title>Node27&#45;&gt;Node28</title>
<path fill="none" stroke="#63b8ff" d="M820.39,-52.57C859.77,-41.85 909.66,-28.28 941.94,-19.49"/>
<polygon fill="#63b8ff" stroke="#63b8ff" points="819.52,-49.18 810.79,-55.18 821.35,-55.93 819.52,-49.18"/>
</g>
<!-- Node29&#45;&gt;Node28 -->
<g id="edge49" class="edge">
<title>Node29&#45;&gt;Node28</title>
<path fill="none" stroke="#63b8ff" d="M1088.65,-50.8C1059.13,-40.33 1023.38,-27.65 999.95,-19.35"/>
<polygon fill="#63b8ff" stroke="#63b8ff" points="1087.19,-53.99 1097.79,-54.03 1089.53,-47.39 1087.19,-53.99"/>
</g>
<!-- Node30 -->
<g id="node30" class="node">
<title>Node30</title>
<g id="a_node30"><a xlink:href="test__datatypes_8cpp.html" target="_top" xlink:title=" ">
<polygon fill="white" stroke="#666666" points="1380.5,-19 1231.5,-19 1231.5,0 1380.5,0 1380.5,-19"/>
<text text-anchor="middle" x="1306" y="-7" font-family="Helvetica,sans-Serif" font-size="10.00">src/testing/test_datatypes.cpp</text>
</a>
</g>
</g>
<!-- Node29&#45;&gt;Node30 -->
<g id="edge48" class="edge">
<title>Node29&#45;&gt;Node30</title>
<path fill="none" stroke="#63b8ff" d="M1191.66,-50.8C1221.36,-40.33 1257.33,-27.65 1280.9,-19.35"/>
<polygon fill="#63b8ff" stroke="#63b8ff" points="1190.73,-47.41 1182.46,-54.04 1193.06,-54.01 1190.73,-47.41"/>
</g>
<!-- Node31 -->
<g id="node31" class="node">
<title>Node31</title>
<g id="a_node31"><a xlink:href="test__functions_8cpp.html" target="_top" xlink:title=" ">
<polygon fill="white" stroke="#666666" points="1545,-19 1399,-19 1399,0 1545,0 1545,-19"/>
<text text-anchor="middle" x="1472" y="-7" font-family="Helvetica,sans-Serif" font-size="10.00">src/testing/test_functions.cpp</text>
</a>
</g>
</g>
<!-- Node29&#45;&gt;Node31 -->
<g id="edge50" class="edge">
<title>Node29&#45;&gt;Node31</title>
<path fill="none" stroke="#63b8ff" d="M1200.33,-58.37C1263.49,-47.24 1361.6,-29.95 1421.02,-19.48"/>
<polygon fill="#63b8ff" stroke="#63b8ff" points="1200.08,-54.86 1190.84,-60.04 1201.29,-61.75 1200.08,-54.86"/>
</g>
<!-- Node32 -->
<g id="node32" class="node">
<title>Node32</title>
<g id="a_node32"><a xlink:href="test__operators_8cpp.html" target="_top" xlink:title=" ">
<polygon fill="white" stroke="#666666" points="1213,-19 1067,-19 1067,0 1213,0 1213,-19"/>
<text text-anchor="middle" x="1140" y="-7" font-family="Helvetica,sans-Serif" font-size="10.00">src/testing/test_operators.cpp</text>
</a>
</g>
</g>
<!-- Node29&#45;&gt;Node32 -->
<g id="edge51" class="edge">
<title>Node29&#45;&gt;Node32</title>
<path fill="none" stroke="#63b8ff" d="M1140,-43.3C1140,-34.65 1140,-25.58 1140,-19.18"/>
<polygon fill="#63b8ff" stroke="#63b8ff" points="1136.5,-43.03 1140,-53.03 1143.5,-43.03 1136.5,-43.03"/>
</g>
<!-- Node33&#45;&gt;Node22 -->
<g id="edge62" class="edge">
<title>Node33&#45;&gt;Node22</title>
<path fill="none" stroke="#63b8ff" d="M1421.27,-125.83C1444.24,-111.95 1477.99,-91.56 1497.19,-79.95"/>
<polygon fill="#63b8ff" stroke="#63b8ff" points="1419.61,-122.75 1412.86,-130.91 1423.23,-128.74 1419.61,-122.75"/>
</g>
<!-- Node33&#45;&gt;Node28 -->
<g id="edge58" class="edge">
<title>Node33&#45;&gt;Node28</title>
<path fill="none" stroke="#63b8ff" d="M1358.31,-128.43C1348.79,-125.73 1338.58,-123.06 1329,-121 1220.55,-97.66 1183.9,-128.87 1082,-85 1062.24,-76.49 1061.51,-67.51 1044,-55 1025.79,-41.99 1003.97,-28.2 989.81,-19.48"/>
<polygon fill="#63b8ff" stroke="#63b8ff" points="1357.06,-131.71 1367.64,-131.16 1359.02,-124.99 1357.06,-131.71"/>
</g>
<!-- Node33&#45;&gt;Node30 -->
<g id="edge57" class="edge">
<title>Node33&#45;&gt;Node30</title>
<path fill="none" stroke="#63b8ff" d="M1384.34,-122.42C1364.59,-94.19 1327.15,-40.71 1312.3,-19.5"/>
<polygon fill="#63b8ff" stroke="#63b8ff" points="1381.28,-124.14 1389.88,-130.32 1387.01,-120.13 1381.28,-124.14"/>
</g>
<!-- Node33&#45;&gt;Node31 -->
<g id="edge59" class="edge">
<title>Node33&#45;&gt;Node31</title>
<path fill="none" stroke="#63b8ff" d="M1404.53,-121.22C1411.81,-103.45 1423.67,-76.64 1437,-55 1445.14,-41.78 1456.57,-27.93 1464.12,-19.26"/>
<polygon fill="#63b8ff" stroke="#63b8ff" points="1401.37,-119.68 1400.91,-130.26 1407.87,-122.28 1401.37,-119.68"/>
</g>
<!-- Node33&#45;&gt;Node32 -->
<g id="edge61" class="edge">
<title>Node33&#45;&gt;Node32</title>
<path fill="none" stroke="#63b8ff" d="M1369.3,-126.49C1316.28,-99.67 1201.84,-41.78 1157.79,-19.5"/>
<polygon fill="#63b8ff" stroke="#63b8ff" points="1367.48,-129.49 1377.98,-130.88 1370.64,-123.24 1367.48,-129.49"/>
</g>
<!-- Node34 -->
<g id="node34" class="node">
<title>Node34</title>
<g id="a_node34"><a xlink:href="test__lexer_8cpp.html" target="_top" xlink:title=" ">
<polygon fill="white" stroke="#666666" points="1775,-79.5 1649,-79.5 1649,-60.5 1775,-60.5 1775,-79.5"/>
<text text-anchor="middle" x="1712" y="-67.5" font-family="Helvetica,sans-Serif" font-size="10.00">src/testing/test_lexer.cpp</text>
</a>
</g>
</g>
<!-- Node33&#45;&gt;Node34 -->
<g id="edge60" class="edge">
<title>Node33&#45;&gt;Node34</title>
<path fill="none" stroke="#63b8ff" d="M1434.71,-128.13C1443,-125.6 1451.76,-123.09 1460,-121 1527.88,-103.81 1607.28,-88.9 1658.54,-79.94"/>
<polygon fill="#63b8ff" stroke="#63b8ff" points="1433.75,-124.76 1425.25,-131.08 1435.84,-131.44 1433.75,-124.76"/>
</g>
<!-- Node35&#45;&gt;Node10 -->
<g id="edge64" class="edge">
<title>Node35&#45;&gt;Node10</title>
<path fill="none" stroke="#63b8ff" d="M813.91,-414.38C847.56,-404.32 889.22,-391.86 920.88,-382.39"/>
<polygon fill="#63b8ff" stroke="#63b8ff" points="813.32,-410.91 804.74,-417.12 815.33,-417.61 813.32,-410.91"/>
</g>
<!-- Node35&#45;&gt;Node12 -->
<g id="edge65" class="edge">
<title>Node35&#45;&gt;Node12</title>
<path fill="none" stroke="#63b8ff" d="M777.34,-409.74C805.39,-381.79 852.73,-334.63 876.48,-310.96"/>
<polygon fill="#63b8ff" stroke="#63b8ff" points="774.98,-407.15 770.37,-416.69 779.92,-412.11 774.98,-407.15"/>
</g>
<!-- Node35&#45;&gt;Node14 -->
<g id="edge66" class="edge">
<title>Node35&#45;&gt;Node14</title>
<path fill="none" stroke="#63b8ff" d="M758.58,-406.48C762.25,-380.28 767.89,-340.06 771.24,-316.21"/>
<polygon fill="#63b8ff" stroke="#63b8ff" points="755.13,-405.87 757.21,-416.26 762.06,-406.84 755.13,-405.87"/>
</g>
<!-- Node35&#45;&gt;Node15 -->
<g id="edge67" class="edge">
<title>Node35&#45;&gt;Node15</title>
<path fill="none" stroke="#63b8ff" d="M747.16,-406.89C740.97,-389.99 731.01,-367.96 717,-352 701.76,-334.64 679.82,-320.6 661.92,-310.98"/>
<polygon fill="#63b8ff" stroke="#63b8ff" points="743.8,-407.88 750.36,-416.2 750.42,-405.6 743.8,-407.88"/>
</g>
<!-- Node35&#45;&gt;Node17 -->
<g id="edge71" class="edge">
<title>Node35&#45;&gt;Node17</title>
<path fill="none" stroke="#63b8ff" d="M685.53,-421.52C650.16,-414.11 607.46,-401.84 573,-382 543.64,-365.09 516.99,-335.92 501.14,-316.42"/>
<polygon fill="#63b8ff" stroke="#63b8ff" points="684.76,-424.94 695.25,-423.47 686.13,-418.07 684.76,-424.94"/>
</g>
<!-- Node36 -->
<g id="node36" class="node">
<title>Node36</title>
<g id="a_node36"><a xlink:href="functions_8h.html" target="_top" xlink:title=" ">
<polygon fill="white" stroke="#666666" points="416,-310.5 300,-310.5 300,-280.5 416,-280.5 416,-310.5"/>
<text text-anchor="start" x="308" y="-298.5" font-family="Helvetica,sans-Serif" font-size="10.00">src/core/evaluation</text>
<text text-anchor="middle" x="358" y="-287.5" font-family="Helvetica,sans-Serif" font-size="10.00">/operations/functions.h</text>
</a>
</g>
</g>
<!-- Node35&#45;&gt;Node36 -->
<g id="edge68" class="edge">
<title>Node35&#45;&gt;Node36</title>
<path fill="none" stroke="#63b8ff" d="M685.35,-420.76C640.76,-412.5 582.09,-399.64 532,-382 476.44,-362.43 415.53,-329.66 382.55,-310.89"/>
<polygon fill="#63b8ff" stroke="#63b8ff" points="684.7,-424.2 695.17,-422.54 685.95,-417.32 684.7,-424.2"/>
</g>
<!-- Node37 -->
<g id="node37" class="node">
<title>Node37</title>
<g id="a_node37"><a xlink:href="operation_8cpp.html" target="_top" xlink:title=" ">
<polygon fill="white" stroke="#666666" points="708,-382 582,-382 582,-352 708,-352 708,-382"/>
<text text-anchor="start" x="590" y="-370" font-family="Helvetica,sans-Serif" font-size="10.00">src/core/evaluation</text>
<text text-anchor="middle" x="645" y="-359" font-family="Helvetica,sans-Serif" font-size="10.00">/operations/operation.cpp</text>
</a>
</g>
</g>
<!-- Node35&#45;&gt;Node37 -->
<g id="edge72" class="edge">
<title>Node35&#45;&gt;Node37</title>
<path fill="none" stroke="#63b8ff" d="M720.47,-411.91C703.97,-402.31 684.59,-391.03 669.6,-382.31"/>
<polygon fill="#63b8ff" stroke="#63b8ff" points="718.6,-414.87 729.01,-416.88 722.12,-408.82 718.6,-414.87"/>
</g>
<!-- Node36&#45;&gt;Node7 -->
<g id="edge70" class="edge">
<title>Node36&#45;&gt;Node7</title>
<path fill="none" stroke="#63b8ff" d="M291.44,-276.84C261.14,-267.55 225.35,-254.79 195,-239 149.67,-215.42 102.83,-177.29 79.01,-156.73"/>
<polygon fill="#63b8ff" stroke="#63b8ff" points="290.3,-280.15 300.89,-279.67 292.31,-273.45 290.3,-280.15"/>
</g>
<!-- Node36&#45;&gt;Node13 -->
<g id="edge69" class="edge">
<title>Node36&#45;&gt;Node13</title>
<path fill="none" stroke="#63b8ff" d="M393.83,-274.44C416.66,-261.67 445.69,-245.42 466.24,-233.92"/>
<polygon fill="#63b8ff" stroke="#63b8ff" points="392.17,-271.36 385.16,-279.3 395.59,-277.47 392.17,-271.36"/>
</g>
<!-- Node38&#45;&gt;Node8 -->
<g id="edge76" class="edge">
<title>Node38&#45;&gt;Node8</title>
<path fill="none" stroke="#63b8ff" d="M1451.93,-202.94C1416.02,-193.72 1371.44,-180.09 1334,-162 1305.25,-148.11 1304.66,-132.83 1275,-121 1176.86,-81.84 1143.85,-104.47 1040,-85 1032.07,-83.51 1023.62,-81.76 1015.56,-80"/>
<polygon fill="#63b8ff" stroke="#63b8ff" points="1450.76,-206.26 1461.31,-205.3 1452.46,-199.47 1450.76,-206.26"/>
</g>
<!-- Node38&#45;&gt;Node21 -->
<g id="edge79" class="edge">
<title>Node38&#45;&gt;Node21</title>
<path fill="none" stroke="#63b8ff" d="M1518,-191.73C1518,-180.08 1518,-166.76 1518,-156.92"/>
<polygon fill="#63b8ff" stroke="#63b8ff" points="1514.5,-191.53 1518,-201.53 1521.5,-191.53 1514.5,-191.53"/>
</g>
<!-- Node39 -->
<g id="node39" class="node">
<title>Node39</title>
<g id="a_node39"><a xlink:href="tokenizer_8cpp.html" target="_top" xlink:title=" ">
<polygon fill="white" stroke="#666666" points="1705,-156.5 1585,-156.5 1585,-126.5 1705,-126.5 1705,-156.5"/>
<text text-anchor="start" x="1593" y="-144.5" font-family="Helvetica,sans-Serif" font-size="10.00">src/core/evaluation</text>
<text text-anchor="middle" x="1645" y="-133.5" font-family="Helvetica,sans-Serif" font-size="10.00">/tokenizer/tokenizer.cpp</text>
</a>
</g>
</g>
<!-- Node38&#45;&gt;Node39 -->
<g id="edge75" class="edge">
<title>Node38&#45;&gt;Node39</title>
<path fill="none" stroke="#63b8ff" d="M1552.25,-197.27C1573.84,-184.52 1601.19,-168.37 1620.59,-156.92"/>
<polygon fill="#63b8ff" stroke="#63b8ff" points="1550.62,-194.17 1543.79,-202.27 1554.18,-200.2 1550.62,-194.17"/>
</g>
<!-- Node40 -->
<g id="node40" class="node">
<title>Node40</title>
<g id="a_node40"><a xlink:href="lexer__fixture_8h.html" target="_top" xlink:title=" ">
<polygon fill="white" stroke="#666666" points="1821,-156.5 1723,-156.5 1723,-126.5 1821,-126.5 1821,-156.5"/>
<text text-anchor="start" x="1731" y="-144.5" font-family="Helvetica,sans-Serif" font-size="10.00">src/testing/fixtures</text>
<text text-anchor="middle" x="1772" y="-133.5" font-family="Helvetica,sans-Serif" font-size="10.00">/lexer_fixture.h</text>
</a>
</g>
</g>
<!-- Node38&#45;&gt;Node40 -->
<g id="edge77" class="edge">
<title>Node38&#45;&gt;Node40</title>
<path fill="none" stroke="#63b8ff" d="M1582.86,-199.98C1621.15,-189.43 1670.49,-175.47 1714,-162 1719.18,-160.4 1724.59,-158.66 1729.95,-156.91"/>
<polygon fill="#63b8ff" stroke="#63b8ff" points="1582.04,-196.58 1573.32,-202.6 1583.89,-203.33 1582.04,-196.58"/>
</g>
<!-- Node40&#45;&gt;Node34 -->
<g id="edge78" class="edge">
<title>Node40&#45;&gt;Node34</title>
<path fill="none" stroke="#63b8ff" d="M1752.24,-117.62C1741.03,-104.63 1727.65,-89.13 1719.49,-79.68"/>
<polygon fill="#63b8ff" stroke="#63b8ff" points="1749.39,-119.67 1758.58,-124.95 1754.69,-115.1 1749.39,-119.67"/>
</g>
<!-- Node41&#45;&gt;Node19 -->
<g id="edge81" class="edge">
<title>Node41&#45;&gt;Node19</title>
<path fill="none" stroke="#63b8ff" d="M1206.82,-414.55C1199.94,-405.49 1192.56,-393.85 1189,-382 1173.15,-329.21 1187.25,-262.56 1194.87,-233.79"/>
<polygon fill="#63b8ff" stroke="#63b8ff" points="1203.91,-416.52 1212.93,-422.08 1209.34,-412.11 1203.91,-416.52"/>
</g>
<!-- Node42 -->
<g id="node42" class="node">
<title>Node42</title>
<g id="a_node42"><a xlink:href="classifiers_8cpp.html" target="_top" xlink:title=" ">
<polygon fill="white" stroke="#666666" points="1350,-376.5 1198,-376.5 1198,-357.5 1350,-357.5 1350,-376.5"/>
<text text-anchor="middle" x="1274" y="-364.5" font-family="Helvetica,sans-Serif" font-size="10.00">src/core/helpers/classifiers.cpp</text>
</a>
</g>
</g>
<!-- Node41&#45;&gt;Node42 -->
<g id="edge82" class="edge">
<title>Node41&#45;&gt;Node42</title>
<path fill="none" stroke="#63b8ff" d="M1236.41,-414.26C1246.31,-402.08 1259.02,-386.44 1266.83,-376.82"/>
<polygon fill="#63b8ff" stroke="#63b8ff" points="1233.77,-411.96 1230.18,-421.93 1239.21,-416.37 1233.77,-411.96"/>
</g>
</g>
</svg>
