<?xml version="1.0" encoding="UTF-8" standalone="no"?>
<!DOCTYPE svg PUBLIC "-//W3C//DTD SVG 1.1//EN"
 "http://www.w3.org/Graphics/SVG/1.1/DTD/svg11.dtd">
<!-- Generated by graphviz version 7.1.0 (20230121.1956)
 -->
<!-- Title: /Users/nikolajbankejensen/Desktop/Kepler/src/core/evaluation/tokenizer.cpp Pages: 1 -->
<svg width="918pt" height="324pt"
 viewBox="0.00 0.00 918.00 324.00" xmlns="http://www.w3.org/2000/svg" xmlns:xlink="http://www.w3.org/1999/xlink">
<g id="graph0" class="graph" transform="scale(1 1) rotate(0) translate(4 320)">
<title>/Users/nikolajbankejensen/Desktop/Kepler/src/core/evaluation/tokenizer.cpp</title>
<!-- Node1 -->
<g id="node1" class="node">
<title>Node1</title>
<g id="a_node1"><a xlink:title=" ">
<polygon fill="#999999" stroke="#666666" points="565.5,-316 434.5,-316 434.5,-275 565.5,-275 565.5,-316"/>
<text text-anchor="start" x="442.5" y="-304" font-family="Helvetica,sans-Serif" font-size="10.00">/Users/nikolajbankejensen</text>
<text text-anchor="start" x="442.5" y="-293" font-family="Helvetica,sans-Serif" font-size="10.00">/Desktop/Kepler/src/core</text>
<text text-anchor="middle" x="500" y="-282" font-family="Helvetica,sans-Serif" font-size="10.00">/evaluation/tokenizer.cpp</text>
</a>
</g>
</g>
<!-- Node2 -->
<g id="node2" class="node">
<title>Node2</title>
<g id="a_node2"><a xlink:title=" ">
<polygon fill="#e0e0e0" stroke="#999999" points="373,-239 317,-239 317,-220 373,-220 373,-239"/>
<text text-anchor="middle" x="345" y="-227" font-family="Helvetica,sans-Serif" font-size="10.00">algorithm</text>
</a>
</g>
</g>
<!-- Node1&#45;&gt;Node2 -->
<g id="edge1" class="edge">
<title>Node1&#45;&gt;Node2</title>
<path fill="none" stroke="#63b8ff" d="M451.81,-274.6C427.44,-264.54 398.54,-252.61 376.95,-243.69"/>
<polygon fill="#63b8ff" stroke="#63b8ff" points="378.36,-240.49 367.79,-239.91 375.69,-246.96 378.36,-240.49"/>
</g>
<!-- Node3 -->
<g id="node3" class="node">
<title>Node3</title>
<g id="a_node3"><a xlink:href="tokenizer_8h.html" target="_top" xlink:title=" ">
<polygon fill="white" stroke="#666666" points="455,-239 391,-239 391,-220 455,-220 455,-239"/>
<text text-anchor="middle" x="423" y="-227" font-family="Helvetica,sans-Serif" font-size="10.00">tokenizer.h</text>
</a>
</g>
</g>
<!-- Node1&#45;&gt;Node3 -->
<g id="edge2" class="edge">
<title>Node1&#45;&gt;Node3</title>
<path fill="none" stroke="#63b8ff" d="M476.06,-274.6C465.11,-265.5 452.31,-254.86 442.03,-246.32"/>
<polygon fill="#63b8ff" stroke="#63b8ff" points="444.51,-243.83 434.59,-240.13 440.04,-249.21 444.51,-243.83"/>
</g>
<!-- Node18 -->
<g id="node18" class="node">
<title>Node18</title>
<g id="a_node18"><a xlink:href="literals_8h.html" target="_top" xlink:title=" ">
<polygon fill="white" stroke="#666666" points="875.5,-129 800.5,-129 800.5,-110 875.5,-110 875.5,-129"/>
<text text-anchor="middle" x="838" y="-117" font-family="Helvetica,sans-Serif" font-size="10.00">core/literals.h</text>
</a>
</g>
</g>
<!-- Node1&#45;&gt;Node18 -->
<g id="edge22" class="edge">
<title>Node1&#45;&gt;Node18</title>
<path fill="none" stroke="#63b8ff" d="M538.77,-274.54C607.82,-238.99 750.47,-165.56 810.46,-134.68"/>
<polygon fill="#63b8ff" stroke="#63b8ff" points="812.03,-137.8 819.32,-130.12 808.83,-131.58 812.03,-137.8"/>
</g>
<!-- Node21 -->
<g id="node21" class="node">
<title>Node21</title>
<g id="a_node21"><a xlink:href="error_8h.html" target="_top" xlink:title=" ">
<polygon fill="white" stroke="#666666" points="658.5,-184 593.5,-184 593.5,-165 658.5,-165 658.5,-184"/>
<text text-anchor="middle" x="626" y="-172" font-family="Helvetica,sans-Serif" font-size="10.00">core/error.h</text>
</a>
</g>
</g>
<!-- Node1&#45;&gt;Node21 -->
<g id="edge27" class="edge">
<title>Node1&#45;&gt;Node21</title>
<path fill="none" stroke="#63b8ff" d="M521.09,-274.58C545.58,-251.45 585.54,-213.71 608.42,-192.1"/>
<polygon fill="#63b8ff" stroke="#63b8ff" points="610.59,-194.87 615.46,-185.46 605.78,-189.78 610.59,-194.87"/>
</g>
<!-- Node4 -->
<g id="node4" class="node">
<title>Node4</title>
<g id="a_node4"><a xlink:href="token_8h.html" target="_top" xlink:title=" ">
<polygon fill="white" stroke="#666666" points="410.5,-184 339.5,-184 339.5,-165 410.5,-165 410.5,-184"/>
<text text-anchor="middle" x="375" y="-172" font-family="Helvetica,sans-Serif" font-size="10.00">core/token.h</text>
</a>
</g>
</g>
<!-- Node3&#45;&gt;Node4 -->
<g id="edge3" class="edge">
<title>Node3&#45;&gt;Node4</title>
<path fill="none" stroke="#63b8ff" d="M415.07,-219.75C408.44,-212.43 398.78,-201.76 390.61,-192.74"/>
<polygon fill="#63b8ff" stroke="#63b8ff" points="393.42,-190.63 384.11,-185.56 388.23,-195.33 393.42,-190.63"/>
</g>
<!-- Node7 -->
<g id="node7" class="node">
<title>Node7</title>
<g id="a_node7"><a xlink:href="datatypes_8h.html" target="_top" xlink:title=" ">
<polygon fill="white" stroke="#666666" points="278,-74 210,-74 210,-55 278,-55 278,-74"/>
<text text-anchor="middle" x="244" y="-62" font-family="Helvetica,sans-Serif" font-size="10.00">datatypes.h</text>
</a>
</g>
</g>
<!-- Node3&#45;&gt;Node7 -->
<g id="edge21" class="edge">
<title>Node3&#45;&gt;Node7</title>
<path fill="none" stroke="#63b8ff" d="M390.52,-221.02C310.92,-202.37 111.24,-153.56 93,-129 63.47,-89.25 143.96,-74.2 198.47,-68.63"/>
<polygon fill="#63b8ff" stroke="#63b8ff" points="198.52,-72.14 208.15,-67.73 197.87,-65.18 198.52,-72.14"/>
</g>
<!-- Node5 -->
<g id="node5" class="node">
<title>Node5</title>
<g id="a_node5"><a xlink:href="token__type_8h.html" target="_top" xlink:title=" ">
<polygon fill="white" stroke="#666666" points="494.5,-74 421.5,-74 421.5,-55 494.5,-55 494.5,-74"/>
<text text-anchor="middle" x="458" y="-62" font-family="Helvetica,sans-Serif" font-size="10.00">token_type.h</text>
</a>
</g>
</g>
<!-- Node4&#45;&gt;Node5 -->
<g id="edge4" class="edge">
<title>Node4&#45;&gt;Node5</title>
<path fill="none" stroke="#63b8ff" d="M381.79,-164.66C395.41,-146.94 426.29,-106.77 444.28,-83.35"/>
<polygon fill="#63b8ff" stroke="#63b8ff" points="446.87,-85.72 450.19,-75.66 441.32,-81.46 446.87,-85.72"/>
</g>
<!-- Node4&#45;&gt;Node7 -->
<g id="edge6" class="edge">
<title>Node4&#45;&gt;Node7</title>
<path fill="none" stroke="#63b8ff" d="M339.3,-169.01C295.4,-162.68 224.76,-149.54 209,-129 197.58,-114.11 211.32,-95.03 224.8,-81.69"/>
<polygon fill="#63b8ff" stroke="#63b8ff" points="226.83,-84.58 231.82,-75.24 222.09,-79.43 226.83,-84.58"/>
</g>
<!-- Node11 -->
<g id="node11" class="node">
<title>Node11</title>
<g id="a_node11"><a xlink:title=" ">
<polygon fill="#e0e0e0" stroke="#999999" points="539.5,-129 456.5,-129 456.5,-110 539.5,-110 539.5,-129"/>
<text text-anchor="middle" x="498" y="-117" font-family="Helvetica,sans-Serif" font-size="10.00">uni_algo/conv.h</text>
</a>
</g>
</g>
<!-- Node4&#45;&gt;Node11 -->
<g id="edge10" class="edge">
<title>Node4&#45;&gt;Node11</title>
<path fill="none" stroke="#63b8ff" d="M395.87,-164.51C415.42,-156.08 444.9,-143.38 467.17,-133.79"/>
<polygon fill="#63b8ff" stroke="#63b8ff" points="468.25,-137.13 476.05,-129.96 465.48,-130.7 468.25,-137.13"/>
</g>
<!-- Node12 -->
<g id="node12" class="node">
<title>Node12</title>
<g id="a_node12"><a xlink:href="array_8h.html" target="_top" xlink:title=" ">
<polygon fill="white" stroke="#666666" points="45.5,-129 0.5,-129 0.5,-110 45.5,-110 45.5,-129"/>
<text text-anchor="middle" x="23" y="-117" font-family="Helvetica,sans-Serif" font-size="10.00">array.h</text>
</a>
</g>
</g>
<!-- Node4&#45;&gt;Node12 -->
<g id="edge11" class="edge">
<title>Node4&#45;&gt;Node12</title>
<path fill="none" stroke="#63b8ff" d="M339.31,-168.13C271.21,-157.87 123.6,-135.65 56.91,-125.61"/>
<polygon fill="#63b8ff" stroke="#63b8ff" points="57.71,-122.19 47.31,-124.16 56.67,-129.11 57.71,-122.19"/>
</g>
<!-- Node14 -->
<g id="node14" class="node">
<title>Node14</title>
<g id="a_node14"><a xlink:href="conversion_8h.html" target="_top" xlink:title=" ">
<polygon fill="white" stroke="#666666" points="331.5,-129 218.5,-129 218.5,-110 331.5,-110 331.5,-129"/>
<text text-anchor="middle" x="275" y="-117" font-family="Helvetica,sans-Serif" font-size="10.00">interface/conversion.h</text>
</a>
</g>
</g>
<!-- Node4&#45;&gt;Node14 -->
<g id="edge14" class="edge">
<title>Node4&#45;&gt;Node14</title>
<path fill="none" stroke="#63b8ff" d="M358.04,-164.51C342.64,-156.35 319.69,-144.19 301.81,-134.71"/>
<polygon fill="#63b8ff" stroke="#63b8ff" points="303.53,-131.66 293.05,-130.07 300.25,-137.84 303.53,-131.66"/>
</g>
<!-- Node15 -->
<g id="node15" class="node">
<title>Node15</title>
<g id="a_node15"><a xlink:title=" ">
<polygon fill="#e0e0e0" stroke="#999999" points="598,-129 558,-129 558,-110 598,-110 598,-129"/>
<text text-anchor="middle" x="578" y="-117" font-family="Helvetica,sans-Serif" font-size="10.00">utility</text>
</a>
</g>
</g>
<!-- Node4&#45;&gt;Node15 -->
<g id="edge18" class="edge">
<title>Node4&#45;&gt;Node15</title>
<path fill="none" stroke="#63b8ff" d="M410.85,-164.55C443.63,-156.31 493.71,-143.56 546.7,-129.3"/>
<polygon fill="#63b8ff" stroke="#63b8ff" points="547.48,-132.71 556.22,-126.72 545.66,-125.95 547.48,-132.71"/>
</g>
<!-- Node16 -->
<g id="node16" class="node">
<title>Node16</title>
<g id="a_node16"><a xlink:title=" ">
<polygon fill="#e0e0e0" stroke="#999999" points="400,-129 350,-129 350,-110 400,-110 400,-129"/>
<text text-anchor="middle" x="375" y="-117" font-family="Helvetica,sans-Serif" font-size="10.00">optional</text>
</a>
</g>
</g>
<!-- Node4&#45;&gt;Node16 -->
<g id="edge19" class="edge">
<title>Node4&#45;&gt;Node16</title>
<path fill="none" stroke="#63b8ff" d="M375,-164.75C375,-158.27 375,-149.16 375,-140.9"/>
<polygon fill="#63b8ff" stroke="#63b8ff" points="378.5,-140.96 375,-130.96 371.5,-140.96 378.5,-140.96"/>
</g>
<!-- Node17 -->
<g id="node17" class="node">
<title>Node17</title>
<g id="a_node17"><a xlink:href="position_8h.html" target="_top" xlink:title=" ">
<polygon fill="white" stroke="#666666" points="161.5,-129 102.5,-129 102.5,-110 161.5,-110 161.5,-129"/>
<text text-anchor="middle" x="132" y="-117" font-family="Helvetica,sans-Serif" font-size="10.00">position.h</text>
</a>
</g>
</g>
<!-- Node4&#45;&gt;Node17 -->
<g id="edge20" class="edge">
<title>Node4&#45;&gt;Node17</title>
<path fill="none" stroke="#63b8ff" d="M339.14,-165.68C294.84,-156.02 219.63,-139.61 173.06,-129.46"/>
<polygon fill="#63b8ff" stroke="#63b8ff" points="173.87,-126.05 163.35,-127.34 172.38,-132.89 173.87,-126.05"/>
</g>
<!-- Node6 -->
<g id="node6" class="node">
<title>Node6</title>
<g id="a_node6"><a xlink:title=" ">
<polygon fill="#e0e0e0" stroke="#999999" points="642,-19 588,-19 588,0 642,0 642,-19"/>
<text text-anchor="middle" x="615" y="-7" font-family="Helvetica,sans-Serif" font-size="10.00">iostream</text>
</a>
</g>
</g>
<!-- Node5&#45;&gt;Node6 -->
<g id="edge5" class="edge">
<title>Node5&#45;&gt;Node6</title>
<path fill="none" stroke="#63b8ff" d="M484.63,-54.51C510.2,-45.88 549.05,-32.76 577.69,-23.1"/>
<polygon fill="#63b8ff" stroke="#63b8ff" points="578.71,-26.45 587.06,-19.93 576.47,-19.81 578.71,-26.45"/>
</g>
<!-- Node8 -->
<g id="node8" class="node">
<title>Node8</title>
<g id="a_node8"><a xlink:title=" ">
<polygon fill="#e0e0e0" stroke="#999999" points="266,-19 222,-19 222,0 266,0 266,-19"/>
<text text-anchor="middle" x="244" y="-7" font-family="Helvetica,sans-Serif" font-size="10.00">vector</text>
</a>
</g>
</g>
<!-- Node7&#45;&gt;Node8 -->
<g id="edge7" class="edge">
<title>Node7&#45;&gt;Node8</title>
<path fill="none" stroke="#63b8ff" d="M244,-54.75C244,-48.27 244,-39.16 244,-30.9"/>
<polygon fill="#63b8ff" stroke="#63b8ff" points="247.5,-30.96 244,-20.96 240.5,-30.96 247.5,-30.96"/>
</g>
<!-- Node9 -->
<g id="node9" class="node">
<title>Node9</title>
<g id="a_node9"><a xlink:title=" ">
<polygon fill="#e0e0e0" stroke="#999999" points="326.5,-19 285.5,-19 285.5,0 326.5,0 326.5,-19"/>
<text text-anchor="middle" x="306" y="-7" font-family="Helvetica,sans-Serif" font-size="10.00">string</text>
</a>
</g>
</g>
<!-- Node7&#45;&gt;Node9 -->
<g id="edge8" class="edge">
<title>Node7&#45;&gt;Node9</title>
<path fill="none" stroke="#63b8ff" d="M254.52,-54.51C263.39,-46.93 276.31,-35.88 286.99,-26.75"/>
<polygon fill="#63b8ff" stroke="#63b8ff" points="289.16,-29.5 294.49,-20.34 284.61,-24.18 289.16,-29.5"/>
</g>
<!-- Node10 -->
<g id="node10" class="node">
<title>Node10</title>
<g id="a_node10"><a xlink:title=" ">
<polygon fill="#e0e0e0" stroke="#999999" points="203.5,-19 150.5,-19 150.5,0 203.5,0 203.5,-19"/>
<text text-anchor="middle" x="177" y="-7" font-family="Helvetica,sans-Serif" font-size="10.00">complex</text>
</a>
</g>
</g>
<!-- Node7&#45;&gt;Node10 -->
<g id="edge9" class="edge">
<title>Node7&#45;&gt;Node10</title>
<path fill="none" stroke="#63b8ff" d="M232.63,-54.51C222.95,-46.85 208.8,-35.66 197.19,-26.47"/>
<polygon fill="#63b8ff" stroke="#63b8ff" points="199.4,-23.76 189.38,-20.3 195.06,-29.25 199.4,-23.76"/>
</g>
<!-- Node12&#45;&gt;Node7 -->
<g id="edge12" class="edge">
<title>Node12&#45;&gt;Node7</title>
<path fill="none" stroke="#63b8ff" d="M45.82,-113.03C81.78,-104.4 152.33,-87.48 198.82,-76.33"/>
<polygon fill="#63b8ff" stroke="#63b8ff" points="199.42,-79.79 208.32,-74.06 197.78,-72.98 199.42,-79.79"/>
</g>
<!-- Node13 -->
<g id="node13" class="node">
<title>Node13</title>
<g id="a_node13"><a xlink:title=" ">
<polygon fill="#e0e0e0" stroke="#999999" points="46,-74 0,-74 0,-55 46,-55 46,-74"/>
<text text-anchor="middle" x="23" y="-62" font-family="Helvetica,sans-Serif" font-size="10.00">variant</text>
</a>
</g>
</g>
<!-- Node12&#45;&gt;Node13 -->
<g id="edge13" class="edge">
<title>Node12&#45;&gt;Node13</title>
<path fill="none" stroke="#63b8ff" d="M23,-109.75C23,-103.27 23,-94.16 23,-85.9"/>
<polygon fill="#63b8ff" stroke="#63b8ff" points="26.5,-85.96 23,-75.96 19.5,-85.96 26.5,-85.96"/>
</g>
<!-- Node14&#45;&gt;Node5 -->
<g id="edge17" class="edge">
<title>Node14&#45;&gt;Node5</title>
<path fill="none" stroke="#63b8ff" d="M306.04,-109.51C336.37,-100.73 382.73,-87.3 416.27,-77.59"/>
<polygon fill="#63b8ff" stroke="#63b8ff" points="417.02,-81.01 425.66,-74.87 415.08,-74.29 417.02,-81.01"/>
</g>
<!-- Node14&#45;&gt;Node7 -->
<g id="edge16" class="edge">
<title>Node14&#45;&gt;Node7</title>
<path fill="none" stroke="#63b8ff" d="M269.88,-109.75C265.82,-102.81 260.01,-92.86 254.91,-84.16"/>
<polygon fill="#63b8ff" stroke="#63b8ff" points="258.06,-82.61 249.99,-75.75 252.02,-86.15 258.06,-82.61"/>
</g>
<!-- Node14&#45;&gt;Node9 -->
<g id="edge15" class="edge">
<title>Node14&#45;&gt;Node9</title>
<path fill="none" stroke="#63b8ff" d="M277.54,-109.66C282.49,-92.42 293.54,-53.9 300.33,-30.27"/>
<polygon fill="#63b8ff" stroke="#63b8ff" points="303.62,-31.49 303.01,-20.92 296.89,-29.56 303.62,-31.49"/>
</g>
<!-- Node18&#45;&gt;Node5 -->
<g id="edge24" class="edge">
<title>Node18&#45;&gt;Node5</title>
<path fill="none" stroke="#63b8ff" d="M800.17,-113.22C730.63,-103.52 582.57,-82.87 506.03,-72.2"/>
<polygon fill="#63b8ff" stroke="#63b8ff" points="506.72,-68.76 496.33,-70.85 505.75,-75.69 506.72,-68.76"/>
</g>
<!-- Node18&#45;&gt;Node7 -->
<g id="edge23" class="edge">
<title>Node18&#45;&gt;Node7</title>
<path fill="none" stroke="#63b8ff" d="M800.08,-115.42C715.16,-108.48 503.2,-90.88 326,-74 314.25,-72.88 301.55,-71.6 289.74,-70.38"/>
<polygon fill="#63b8ff" stroke="#63b8ff" points="290.11,-66.9 279.8,-69.34 289.39,-73.86 290.11,-66.9"/>
</g>
<!-- Node19 -->
<g id="node19" class="node">
<title>Node19</title>
<g id="a_node19"><a xlink:title=" ">
<polygon fill="#e0e0e0" stroke="#999999" points="845.5,-74 810.5,-74 810.5,-55 845.5,-55 845.5,-74"/>
<text text-anchor="middle" x="828" y="-62" font-family="Helvetica,sans-Serif" font-size="10.00">map</text>
</a>
</g>
</g>
<!-- Node18&#45;&gt;Node19 -->
<g id="edge25" class="edge">
<title>Node18&#45;&gt;Node19</title>
<path fill="none" stroke="#63b8ff" d="M836.35,-109.75C835.11,-103.19 833.37,-93.95 831.79,-85.6"/>
<polygon fill="#63b8ff" stroke="#63b8ff" points="835.26,-85.11 829.97,-75.93 828.38,-86.4 835.26,-85.11"/>
</g>
<!-- Node20 -->
<g id="node20" class="node">
<title>Node20</title>
<g id="a_node20"><a xlink:title=" ">
<polygon fill="#e0e0e0" stroke="#999999" points="910,-74 864,-74 864,-55 910,-55 910,-74"/>
<text text-anchor="middle" x="887" y="-62" font-family="Helvetica,sans-Serif" font-size="10.00">ranges</text>
</a>
</g>
</g>
<!-- Node18&#45;&gt;Node20 -->
<g id="edge26" class="edge">
<title>Node18&#45;&gt;Node20</title>
<path fill="none" stroke="#63b8ff" d="M846.09,-109.75C852.86,-102.43 862.72,-91.76 871.06,-82.74"/>
<polygon fill="#63b8ff" stroke="#63b8ff" points="873.49,-85.27 877.71,-75.55 868.35,-80.52 873.49,-85.27"/>
</g>
<!-- Node21&#45;&gt;Node6 -->
<g id="edge28" class="edge">
<title>Node21&#45;&gt;Node6</title>
<path fill="none" stroke="#63b8ff" d="M658.71,-167.96C694.86,-160.11 746.13,-142.91 731,-110 712.94,-70.71 670.86,-41.12 642.66,-24.8"/>
<polygon fill="#63b8ff" stroke="#63b8ff" points="644.73,-21.95 634.29,-20.13 641.32,-28.06 644.73,-21.95"/>
</g>
<!-- Node21&#45;&gt;Node7 -->
<g id="edge33" class="edge">
<title>Node21&#45;&gt;Node7</title>
<path fill="none" stroke="#63b8ff" d="M626.18,-164.95C625.97,-151.07 623.36,-123.81 607,-110 600.98,-104.92 386.11,-80.97 289.84,-70.46"/>
<polygon fill="#63b8ff" stroke="#63b8ff" points="290.26,-66.99 279.94,-69.38 289.51,-73.95 290.26,-66.99"/>
</g>
<!-- Node21&#45;&gt;Node11 -->
<g id="edge34" class="edge">
<title>Node21&#45;&gt;Node11</title>
<path fill="none" stroke="#63b8ff" d="M604.29,-164.51C583.84,-156.04 552.98,-143.27 529.77,-133.66"/>
<polygon fill="#63b8ff" stroke="#63b8ff" points="531.37,-130.53 520.79,-129.94 528.69,-137 531.37,-130.53"/>
</g>
<!-- Node21&#45;&gt;Node15 -->
<g id="edge30" class="edge">
<title>Node21&#45;&gt;Node15</title>
<path fill="none" stroke="#63b8ff" d="M618.07,-164.75C611.44,-157.43 601.78,-146.76 593.61,-137.74"/>
<polygon fill="#63b8ff" stroke="#63b8ff" points="596.42,-135.63 587.11,-130.56 591.23,-140.33 596.42,-135.63"/>
</g>
<!-- Node22 -->
<g id="node22" class="node">
<title>Node22</title>
<g id="a_node22"><a xlink:title=" ">
<polygon fill="#e0e0e0" stroke="#999999" points="706,-129 654,-129 654,-110 706,-110 706,-129"/>
<text text-anchor="middle" x="680" y="-117" font-family="Helvetica,sans-Serif" font-size="10.00">sstream</text>
</a>
</g>
</g>
<!-- Node21&#45;&gt;Node22 -->
<g id="edge29" class="edge">
<title>Node21&#45;&gt;Node22</title>
<path fill="none" stroke="#63b8ff" d="M634.92,-164.75C642.45,-157.35 653.47,-146.54 662.73,-137.45"/>
<polygon fill="#63b8ff" stroke="#63b8ff" points="665.12,-140 669.81,-130.5 660.22,-135.01 665.12,-140"/>
</g>
<!-- Node23 -->
<g id="node23" class="node">
<title>Node23</title>
<g id="a_node23"><a xlink:href="error__type_8h.html" target="_top" xlink:title=" ">
<polygon fill="white" stroke="#666666" points="403,-74 335,-74 335,-55 403,-55 403,-74"/>
<text text-anchor="middle" x="369" y="-62" font-family="Helvetica,sans-Serif" font-size="10.00">error_type.h</text>
</a>
</g>
</g>
<!-- Node21&#45;&gt;Node23 -->
<g id="edge31" class="edge">
<title>Node21&#45;&gt;Node23</title>
<path fill="none" stroke="#63b8ff" d="M658.13,-164.5C691.5,-153.62 736.11,-133.77 715,-110 672.08,-61.68 496.56,-82.38 414.61,-73.97"/>
<polygon fill="#63b8ff" stroke="#63b8ff" points="415.09,-70.51 404.73,-72.7 414.2,-77.45 415.09,-70.51"/>
</g>
<!-- Node23&#45;&gt;Node9 -->
<g id="edge32" class="edge">
<title>Node23&#45;&gt;Node9</title>
<path fill="none" stroke="#63b8ff" d="M358.31,-54.51C349.3,-46.93 336.17,-35.88 325.32,-26.75"/>
<polygon fill="#63b8ff" stroke="#63b8ff" points="327.59,-24.09 317.69,-20.33 323.09,-29.45 327.59,-24.09"/>
</g>
</g>
</svg>
