<?xml version="1.0" encoding="UTF-8" standalone="no"?>
<!DOCTYPE svg PUBLIC "-//W3C//DTD SVG 1.1//EN"
 "http://www.w3.org/Graphics/SVG/1.1/DTD/svg11.dtd">
<!-- Generated by graphviz version 7.1.0 (20230121.1956)
 -->
<!-- Title: src/core/evaluation/tokenizer/tokenizer.h Pages: 1 -->
<svg width="595pt" height="258pt"
 viewBox="0.00 0.00 595.42 258.00" xmlns="http://www.w3.org/2000/svg" xmlns:xlink="http://www.w3.org/1999/xlink">
<g id="graph0" class="graph" transform="scale(1 1) rotate(0) translate(4 254)">
<title>src/core/evaluation/tokenizer/tokenizer.h</title>
<!-- Node1 -->
<g id="node1" class="node">
<title>Node1</title>
<g id="a_node1"><a xlink:title=" ">
<polygon fill="#999999" stroke="#666666" points="183.92,-250 73.92,-250 73.92,-220 183.92,-220 183.92,-250"/>
<text text-anchor="start" x="81.92" y="-238" font-family="Helvetica,sans-Serif" font-size="10.00">src/core/evaluation</text>
<text text-anchor="middle" x="128.92" y="-227" font-family="Helvetica,sans-Serif" font-size="10.00">/tokenizer/tokenizer.h</text>
</a>
</g>
</g>
<!-- Node2 -->
<g id="node2" class="node">
<title>Node2</title>
<g id="a_node2"><a xlink:href="token_8h.html" target="_top" xlink:title=" ">
<polygon fill="white" stroke="#666666" points="302.42,-184 231.42,-184 231.42,-165 302.42,-165 302.42,-184"/>
<text text-anchor="middle" x="266.92" y="-172" font-family="Helvetica,sans-Serif" font-size="10.00">core/token.h</text>
</a>
</g>
</g>
<!-- Node1&#45;&gt;Node2 -->
<g id="edge1" class="edge">
<title>Node1&#45;&gt;Node2</title>
<path fill="none" stroke="#63b8ff" d="M163.04,-219.54C185.19,-210.15 213.87,-197.99 235.47,-188.83"/>
<polygon fill="#63b8ff" stroke="#63b8ff" points="236.82,-192.06 244.66,-184.94 234.09,-185.62 236.82,-192.06"/>
</g>
<!-- Node5 -->
<g id="node5" class="node">
<title>Node5</title>
<g id="a_node5"><a xlink:href="datatypes_8h.html" target="_top" xlink:title=" ">
<polygon fill="white" stroke="#666666" points="431.92,-74 363.92,-74 363.92,-55 431.92,-55 431.92,-74"/>
<text text-anchor="middle" x="397.92" y="-62" font-family="Helvetica,sans-Serif" font-size="10.00">datatypes.h</text>
</a>
</g>
</g>
<!-- Node1&#45;&gt;Node5 -->
<g id="edge19" class="edge">
<title>Node1&#45;&gt;Node5</title>
<path fill="none" stroke="#63b8ff" d="M96.93,-219.63C50.43,-196.86 -26.52,-150.86 9.92,-110 32.39,-84.81 254.72,-71.88 352.35,-67.38"/>
<polygon fill="#63b8ff" stroke="#63b8ff" points="352.27,-70.89 362.1,-66.94 351.96,-63.9 352.27,-70.89"/>
</g>
<!-- Node3 -->
<g id="node3" class="node">
<title>Node3</title>
<g id="a_node3"><a xlink:href="token__type_8h.html" target="_top" xlink:title=" ">
<polygon fill="white" stroke="#666666" points="587.42,-74 514.42,-74 514.42,-55 587.42,-55 587.42,-74"/>
<text text-anchor="middle" x="550.92" y="-62" font-family="Helvetica,sans-Serif" font-size="10.00">token_type.h</text>
</a>
</g>
</g>
<!-- Node2&#45;&gt;Node3 -->
<g id="edge2" class="edge">
<title>Node2&#45;&gt;Node3</title>
<path fill="none" stroke="#63b8ff" d="M302.88,-173.67C374.24,-173.16 529.74,-167.55 562.92,-129 573.44,-116.79 568.38,-98.3 561.91,-84.41"/>
<polygon fill="#63b8ff" stroke="#63b8ff" points="565.14,-83.04 557.4,-75.81 558.95,-86.29 565.14,-83.04"/>
</g>
<!-- Node2&#45;&gt;Node5 -->
<g id="edge4" class="edge">
<title>Node2&#45;&gt;Node5</title>
<path fill="none" stroke="#63b8ff" d="M302.88,-167.67C327.5,-161.88 359.14,-150.6 378.92,-129 389.76,-117.18 394.43,-99.41 396.43,-85.68"/>
<polygon fill="#63b8ff" stroke="#63b8ff" points="399.89,-86.3 397.47,-75.98 392.92,-85.56 399.89,-86.3"/>
</g>
<!-- Node9 -->
<g id="node9" class="node">
<title>Node9</title>
<g id="a_node9"><a xlink:title=" ">
<polygon fill="#e0e0e0" stroke="#999999" points="165.42,-129 82.42,-129 82.42,-110 165.42,-110 165.42,-129"/>
<text text-anchor="middle" x="123.92" y="-117" font-family="Helvetica,sans-Serif" font-size="10.00">uni_algo/conv.h</text>
</a>
</g>
</g>
<!-- Node2&#45;&gt;Node9 -->
<g id="edge8" class="edge">
<title>Node2&#45;&gt;Node9</title>
<path fill="none" stroke="#63b8ff" d="M242.67,-164.51C219.52,-155.93 184.41,-142.92 158.37,-133.27"/>
<polygon fill="#63b8ff" stroke="#63b8ff" points="159.84,-130.08 149.24,-129.88 157.4,-136.64 159.84,-130.08"/>
</g>
<!-- Node10 -->
<g id="node10" class="node">
<title>Node10</title>
<g id="a_node10"><a xlink:href="array_8h.html" target="_top" xlink:title=" ">
<polygon fill="white" stroke="#666666" points="64.42,-129 19.42,-129 19.42,-110 64.42,-110 64.42,-129"/>
<text text-anchor="middle" x="41.92" y="-117" font-family="Helvetica,sans-Serif" font-size="10.00">array.h</text>
</a>
</g>
</g>
<!-- Node2&#45;&gt;Node10 -->
<g id="edge9" class="edge">
<title>Node2&#45;&gt;Node10</title>
<path fill="none" stroke="#63b8ff" d="M231.27,-165.65C194.67,-157.51 135.81,-144.19 75.5,-129.32"/>
<polygon fill="#63b8ff" stroke="#63b8ff" points="76.64,-126 66.1,-126.99 74.96,-132.8 76.64,-126"/>
</g>
<!-- Node12 -->
<g id="node12" class="node">
<title>Node12</title>
<g id="a_node12"><a xlink:href="conversion_8h.html" target="_top" xlink:title=" ">
<polygon fill="white" stroke="#666666" points="553.92,-129 425.92,-129 425.92,-110 553.92,-110 553.92,-129"/>
<text text-anchor="middle" x="489.92" y="-117" font-family="Helvetica,sans-Serif" font-size="10.00">core/helpers/conversion.h</text>
</a>
</g>
</g>
<!-- Node2&#45;&gt;Node12 -->
<g id="edge12" class="edge">
<title>Node2&#45;&gt;Node12</title>
<path fill="none" stroke="#63b8ff" d="M302.75,-164.98C340.31,-156.06 399.55,-141.98 441.31,-132.05"/>
<polygon fill="#63b8ff" stroke="#63b8ff" points="441.93,-135.5 450.85,-129.79 440.31,-128.69 441.93,-135.5"/>
</g>
<!-- Node13 -->
<g id="node13" class="node">
<title>Node13</title>
<g id="a_node13"><a xlink:title=" ">
<polygon fill="#e0e0e0" stroke="#999999" points="223.92,-129 183.92,-129 183.92,-110 223.92,-110 223.92,-129"/>
<text text-anchor="middle" x="203.92" y="-117" font-family="Helvetica,sans-Serif" font-size="10.00">utility</text>
</a>
</g>
</g>
<!-- Node2&#45;&gt;Node13 -->
<g id="edge16" class="edge">
<title>Node2&#45;&gt;Node13</title>
<path fill="none" stroke="#63b8ff" d="M256.24,-164.51C247.22,-156.93 234.09,-145.88 223.24,-136.75"/>
<polygon fill="#63b8ff" stroke="#63b8ff" points="225.52,-134.09 215.61,-130.33 221.01,-139.45 225.52,-134.09"/>
</g>
<!-- Node14 -->
<g id="node14" class="node">
<title>Node14</title>
<g id="a_node14"><a xlink:title=" ">
<polygon fill="#e0e0e0" stroke="#999999" points="291.92,-129 241.92,-129 241.92,-110 291.92,-110 291.92,-129"/>
<text text-anchor="middle" x="266.92" y="-117" font-family="Helvetica,sans-Serif" font-size="10.00">optional</text>
</a>
</g>
</g>
<!-- Node2&#45;&gt;Node14 -->
<g id="edge17" class="edge">
<title>Node2&#45;&gt;Node14</title>
<path fill="none" stroke="#63b8ff" d="M266.92,-164.75C266.92,-158.27 266.92,-149.16 266.92,-140.9"/>
<polygon fill="#63b8ff" stroke="#63b8ff" points="270.43,-140.96 266.92,-130.96 263.43,-140.96 270.43,-140.96"/>
</g>
<!-- Node15 -->
<g id="node15" class="node">
<title>Node15</title>
<g id="a_node15"><a xlink:href="position_8h.html" target="_top" xlink:title=" ">
<polygon fill="white" stroke="#666666" points="369.42,-129 310.42,-129 310.42,-110 369.42,-110 369.42,-129"/>
<text text-anchor="middle" x="339.92" y="-117" font-family="Helvetica,sans-Serif" font-size="10.00">position.h</text>
</a>
</g>
</g>
<!-- Node2&#45;&gt;Node15 -->
<g id="edge18" class="edge">
<title>Node2&#45;&gt;Node15</title>
<path fill="none" stroke="#63b8ff" d="M279.31,-164.51C290.07,-156.7 305.9,-145.21 318.68,-135.93"/>
<polygon fill="#63b8ff" stroke="#63b8ff" points="320.46,-138.95 326.5,-130.25 316.35,-133.29 320.46,-138.95"/>
</g>
<!-- Node4 -->
<g id="node4" class="node">
<title>Node4</title>
<g id="a_node4"><a xlink:title=" ">
<polygon fill="#e0e0e0" stroke="#999999" points="577.92,-19 523.92,-19 523.92,0 577.92,0 577.92,-19"/>
<text text-anchor="middle" x="550.92" y="-7" font-family="Helvetica,sans-Serif" font-size="10.00">iostream</text>
</a>
</g>
</g>
<!-- Node3&#45;&gt;Node4 -->
<g id="edge3" class="edge">
<title>Node3&#45;&gt;Node4</title>
<path fill="none" stroke="#63b8ff" d="M550.92,-54.75C550.92,-48.27 550.92,-39.16 550.92,-30.9"/>
<polygon fill="#63b8ff" stroke="#63b8ff" points="554.43,-30.96 550.92,-20.96 547.43,-30.96 554.43,-30.96"/>
</g>
<!-- Node6 -->
<g id="node6" class="node">
<title>Node6</title>
<g id="a_node6"><a xlink:title=" ">
<polygon fill="#e0e0e0" stroke="#999999" points="355.92,-19 311.92,-19 311.92,0 355.92,0 355.92,-19"/>
<text text-anchor="middle" x="333.92" y="-7" font-family="Helvetica,sans-Serif" font-size="10.00">vector</text>
</a>
</g>
</g>
<!-- Node5&#45;&gt;Node6 -->
<g id="edge5" class="edge">
<title>Node5&#45;&gt;Node6</title>
<path fill="none" stroke="#63b8ff" d="M387.07,-54.51C377.82,-46.85 364.3,-35.66 353.22,-26.47"/>
<polygon fill="#63b8ff" stroke="#63b8ff" points="355.72,-24.01 345.79,-20.32 351.26,-29.4 355.72,-24.01"/>
</g>
<!-- Node7 -->
<g id="node7" class="node">
<title>Node7</title>
<g id="a_node7"><a xlink:title=" ">
<polygon fill="#e0e0e0" stroke="#999999" points="499.42,-19 458.42,-19 458.42,0 499.42,0 499.42,-19"/>
<text text-anchor="middle" x="478.92" y="-7" font-family="Helvetica,sans-Serif" font-size="10.00">string</text>
</a>
</g>
</g>
<!-- Node5&#45;&gt;Node7 -->
<g id="edge6" class="edge">
<title>Node5&#45;&gt;Node7</title>
<path fill="none" stroke="#63b8ff" d="M411.67,-54.51C423.72,-46.62 441.51,-34.98 455.76,-25.65"/>
<polygon fill="#63b8ff" stroke="#63b8ff" points="457.67,-28.59 464.12,-20.19 453.84,-22.73 457.67,-28.59"/>
</g>
<!-- Node8 -->
<g id="node8" class="node">
<title>Node8</title>
<g id="a_node8"><a xlink:title=" ">
<polygon fill="#e0e0e0" stroke="#999999" points="427.42,-19 374.42,-19 374.42,0 427.42,0 427.42,-19"/>
<text text-anchor="middle" x="400.92" y="-7" font-family="Helvetica,sans-Serif" font-size="10.00">complex</text>
</a>
</g>
</g>
<!-- Node5&#45;&gt;Node8 -->
<g id="edge7" class="edge">
<title>Node5&#45;&gt;Node8</title>
<path fill="none" stroke="#63b8ff" d="M398.42,-54.75C398.79,-48.27 399.3,-39.16 399.77,-30.9"/>
<polygon fill="#63b8ff" stroke="#63b8ff" points="403.26,-31.13 400.33,-20.95 396.27,-30.74 403.26,-31.13"/>
</g>
<!-- Node10&#45;&gt;Node5 -->
<g id="edge10" class="edge">
<title>Node10&#45;&gt;Node5</title>
<path fill="none" stroke="#63b8ff" d="M64.92,-112.03C67.93,-111.29 70.99,-110.59 73.92,-110 172.45,-90.23 289.6,-76.52 352.54,-69.95"/>
<polygon fill="#63b8ff" stroke="#63b8ff" points="352.55,-73.47 362.14,-68.96 351.83,-66.5 352.55,-73.47"/>
</g>
<!-- Node11 -->
<g id="node11" class="node">
<title>Node11</title>
<g id="a_node11"><a xlink:title=" ">
<polygon fill="#e0e0e0" stroke="#999999" points="64.92,-74 18.92,-74 18.92,-55 64.92,-55 64.92,-74"/>
<text text-anchor="middle" x="41.92" y="-62" font-family="Helvetica,sans-Serif" font-size="10.00">variant</text>
</a>
</g>
</g>
<!-- Node10&#45;&gt;Node11 -->
<g id="edge11" class="edge">
<title>Node10&#45;&gt;Node11</title>
<path fill="none" stroke="#63b8ff" d="M41.92,-109.75C41.92,-103.27 41.92,-94.16 41.92,-85.9"/>
<polygon fill="#63b8ff" stroke="#63b8ff" points="45.43,-85.96 41.92,-75.96 38.43,-85.96 45.43,-85.96"/>
</g>
<!-- Node12&#45;&gt;Node3 -->
<g id="edge15" class="edge">
<title>Node12&#45;&gt;Node3</title>
<path fill="none" stroke="#63b8ff" d="M500.27,-109.51C509,-101.93 521.71,-90.88 532.22,-81.75"/>
<polygon fill="#63b8ff" stroke="#63b8ff" points="534.33,-84.55 539.59,-75.35 529.74,-79.27 534.33,-84.55"/>
</g>
<!-- Node12&#45;&gt;Node5 -->
<g id="edge14" class="edge">
<title>Node12&#45;&gt;Node5</title>
<path fill="none" stroke="#63b8ff" d="M474.32,-109.51C460.22,-101.39 439.24,-89.3 422.83,-79.85"/>
<polygon fill="#63b8ff" stroke="#63b8ff" points="425.02,-77.07 414.61,-75.11 421.53,-83.14 425.02,-77.07"/>
</g>
<!-- Node12&#45;&gt;Node7 -->
<g id="edge13" class="edge">
<title>Node12&#45;&gt;Node7</title>
<path fill="none" stroke="#63b8ff" d="M489.02,-109.66C487.28,-92.5 483.38,-54.26 480.97,-30.6"/>
<polygon fill="#63b8ff" stroke="#63b8ff" points="484.49,-30.56 479.99,-20.97 477.52,-31.27 484.49,-30.56"/>
</g>
</g>
</svg>
