<?xml version="1.0" encoding="UTF-8" standalone="no"?>
<!DOCTYPE svg PUBLIC "-//W3C//DTD SVG 1.1//EN"
 "http://www.w3.org/Graphics/SVG/1.1/DTD/svg11.dtd">
<!-- Generated by graphviz version 7.1.0 (20230121.1956)
 -->
<!-- Title: src/core/evaluation/tokenizer/tokenizer.h Pages: 1 -->
<svg width="534pt" height="159pt"
 viewBox="0.00 0.00 534.00 159.00" xmlns="http://www.w3.org/2000/svg" xmlns:xlink="http://www.w3.org/1999/xlink">
<g id="graph0" class="graph" transform="scale(1 1) rotate(0) translate(4 155)">
<title>src/core/evaluation/tokenizer/tokenizer.h</title>
<!-- Node1 -->
<g id="node1" class="node">
<title>Node1</title>
<g id="a_node1"><a xlink:title=" ">
<polygon fill="#999999" stroke="#666666" points="313,-151 203,-151 203,-121 313,-121 313,-151"/>
<text text-anchor="start" x="211" y="-139" font-family="Helvetica,sans-Serif" font-size="10.00">src/core/evaluation</text>
<text text-anchor="middle" x="258" y="-128" font-family="Helvetica,sans-Serif" font-size="10.00">/tokenizer/tokenizer.h</text>
</a>
</g>
</g>
<!-- Node2 -->
<g id="node2" class="node">
<title>Node2</title>
<g id="a_node2"><a xlink:href="tokenizer_8cpp.html" target="_top" xlink:title=" ">
<polygon fill="white" stroke="#666666" points="120,-85 0,-85 0,-55 120,-55 120,-85"/>
<text text-anchor="start" x="8" y="-73" font-family="Helvetica,sans-Serif" font-size="10.00">src/core/evaluation</text>
<text text-anchor="middle" x="60" y="-62" font-family="Helvetica,sans-Serif" font-size="10.00">/tokenizer/tokenizer.cpp</text>
</a>
</g>
</g>
<!-- Node1&#45;&gt;Node2 -->
<g id="edge1" class="edge">
<title>Node1&#45;&gt;Node2</title>
<path fill="none" stroke="#63b8ff" d="M202.93,-117.2C171.94,-107.18 133.74,-94.83 104.63,-85.43"/>
<polygon fill="#63b8ff" stroke="#63b8ff" points="201.53,-120.43 212.12,-120.17 203.69,-113.77 201.53,-120.43"/>
</g>
<!-- Node3 -->
<g id="node3" class="node">
<title>Node3</title>
<g id="a_node3"><a xlink:href="execution_8cpp.html" target="_top" xlink:title=" ">
<polygon fill="white" stroke="#666666" points="254,-79.5 138,-79.5 138,-60.5 254,-60.5 254,-79.5"/>
<text text-anchor="middle" x="196" y="-67.5" font-family="Helvetica,sans-Serif" font-size="10.00">src/core/execution.cpp</text>
</a>
</g>
</g>
<!-- Node1&#45;&gt;Node3 -->
<g id="edge2" class="edge">
<title>Node1&#45;&gt;Node3</title>
<path fill="none" stroke="#63b8ff" d="M236.31,-112.61C225.38,-101.32 212.74,-88.28 204.57,-79.84"/>
<polygon fill="#63b8ff" stroke="#63b8ff" points="233.72,-114.96 243.19,-119.71 238.74,-110.09 233.72,-114.96"/>
</g>
<!-- Node4 -->
<g id="node4" class="node">
<title>Node4</title>
<g id="a_node4"><a xlink:href="lexer__fixture_8h.html" target="_top" xlink:title=" ">
<polygon fill="white" stroke="#666666" points="370,-85 272,-85 272,-55 370,-55 370,-85"/>
<text text-anchor="start" x="280" y="-73" font-family="Helvetica,sans-Serif" font-size="10.00">src/testing/fixtures</text>
<text text-anchor="middle" x="321" y="-62" font-family="Helvetica,sans-Serif" font-size="10.00">/lexer_fixture.h</text>
</a>
</g>
</g>
<!-- Node1&#45;&gt;Node4 -->
<g id="edge3" class="edge">
<title>Node1&#45;&gt;Node4</title>
<path fill="none" stroke="#63b8ff" d="M279.85,-112.81C288.87,-103.64 299.07,-93.28 307.06,-85.16"/>
<polygon fill="#63b8ff" stroke="#63b8ff" points="277.56,-110.14 273.04,-119.72 282.55,-115.05 277.56,-110.14"/>
</g>
<!-- Node6 -->
<g id="node6" class="node">
<title>Node6</title>
<g id="a_node6"><a xlink:href="parser__fixture_8h.html" target="_top" xlink:title=" ">
<polygon fill="white" stroke="#666666" points="494,-85 396,-85 396,-55 494,-55 494,-85"/>
<text text-anchor="start" x="404" y="-73" font-family="Helvetica,sans-Serif" font-size="10.00">src/testing/fixtures</text>
<text text-anchor="middle" x="445" y="-62" font-family="Helvetica,sans-Serif" font-size="10.00">/parser_fixture.h</text>
</a>
</g>
</g>
<!-- Node1&#45;&gt;Node6 -->
<g id="edge5" class="edge">
<title>Node1&#45;&gt;Node6</title>
<path fill="none" stroke="#63b8ff" d="M310.78,-116.94C339.91,-106.97 375.6,-94.75 402.85,-85.43"/>
<polygon fill="#63b8ff" stroke="#63b8ff" points="309.73,-113.6 301.4,-120.15 311.99,-120.22 309.73,-113.6"/>
</g>
<!-- Node5 -->
<g id="node5" class="node">
<title>Node5</title>
<g id="a_node5"><a xlink:href="test__lexer_8cpp.html" target="_top" xlink:title=" ">
<polygon fill="white" stroke="#666666" points="376,-19 250,-19 250,0 376,0 376,-19"/>
<text text-anchor="middle" x="313" y="-7" font-family="Helvetica,sans-Serif" font-size="10.00">src/testing/test_lexer.cpp</text>
</a>
</g>
</g>
<!-- Node4&#45;&gt;Node5 -->
<g id="edge4" class="edge">
<title>Node4&#45;&gt;Node5</title>
<path fill="none" stroke="#63b8ff" d="M317.48,-43.3C316.3,-34.65 315.06,-25.58 314.19,-19.18"/>
<polygon fill="#63b8ff" stroke="#63b8ff" points="313.99,-43.61 318.82,-53.04 320.93,-42.66 313.99,-43.61"/>
</g>
<!-- Node7 -->
<g id="node7" class="node">
<title>Node7</title>
<g id="a_node7"><a xlink:href="test__parser_8cpp.html" target="_top" xlink:title=" ">
<polygon fill="white" stroke="#666666" points="526,-19 394,-19 394,0 526,0 526,-19"/>
<text text-anchor="middle" x="460" y="-7" font-family="Helvetica,sans-Serif" font-size="10.00">src/testing/test_parser.cpp</text>
</a>
</g>
</g>
<!-- Node6&#45;&gt;Node7 -->
<g id="edge6" class="edge">
<title>Node6&#45;&gt;Node7</title>
<path fill="none" stroke="#63b8ff" d="M451.52,-43.59C453.76,-34.85 456.12,-25.65 457.78,-19.18"/>
<polygon fill="#63b8ff" stroke="#63b8ff" points="448.18,-42.52 449.08,-53.07 454.96,-44.26 448.18,-42.52"/>
</g>
</g>
</svg>
