<?xml version="1.0" encoding="UTF-8" standalone="no"?>
<!DOCTYPE svg PUBLIC "-//W3C//DTD SVG 1.1//EN"
 "http://www.w3.org/Graphics/SVG/1.1/DTD/svg11.dtd">
<!-- Generated by graphviz version 7.1.0 (20230121.1956)
 -->
<!-- Title: /Users/nikolajbankejensen/Desktop/Kepler/src/core/evaluation/tokenizer.h Pages: 1 -->
<svg width="597pt" height="203pt"
 viewBox="0.00 0.00 596.50 203.00" xmlns="http://www.w3.org/2000/svg" xmlns:xlink="http://www.w3.org/1999/xlink">
<g id="graph0" class="graph" transform="scale(1 1) rotate(0) translate(4 199)">
<title>/Users/nikolajbankejensen/Desktop/Kepler/src/core/evaluation/tokenizer.h</title>
<!-- Node1 -->
<g id="node1" class="node">
<title>Node1</title>
<g id="a_node1"><a xlink:title=" ">
<polygon fill="#999999" stroke="#666666" points="356,-195 225,-195 225,-154 356,-154 356,-195"/>
<text text-anchor="start" x="233" y="-183" font-family="Helvetica,sans-Serif" font-size="10.00">/Users/nikolajbankejensen</text>
<text text-anchor="start" x="233" y="-172" font-family="Helvetica,sans-Serif" font-size="10.00">/Desktop/Kepler/src/core</text>
<text text-anchor="middle" x="290.5" y="-161" font-family="Helvetica,sans-Serif" font-size="10.00">/evaluation/tokenizer.h</text>
</a>
</g>
</g>
<!-- Node2 -->
<g id="node2" class="node">
<title>Node2</title>
<g id="a_node2"><a xlink:href="execution_8cpp.html" target="_top" xlink:title=" ">
<polygon fill="white" stroke="#666666" points="131,-118 0,-118 0,-77 131,-77 131,-118"/>
<text text-anchor="start" x="8" y="-106" font-family="Helvetica,sans-Serif" font-size="10.00">/Users/nikolajbankejensen</text>
<text text-anchor="start" x="8" y="-95" font-family="Helvetica,sans-Serif" font-size="10.00">/Desktop/Kepler/src/core</text>
<text text-anchor="middle" x="65.5" y="-84" font-family="Helvetica,sans-Serif" font-size="10.00">/evaluation/execution.cpp</text>
</a>
</g>
</g>
<!-- Node1&#45;&gt;Node2 -->
<g id="edge1" class="edge">
<title>Node1&#45;&gt;Node2</title>
<path fill="none" stroke="#63b8ff" d="M220.26,-150.09C189.86,-139.95 154.64,-128.21 125.48,-118.49"/>
<polygon fill="#63b8ff" stroke="#63b8ff" points="218.77,-153.28 229.36,-153.12 220.98,-146.64 218.77,-153.28"/>
</g>
<!-- Node3 -->
<g id="node3" class="node">
<title>Node3</title>
<g id="a_node3"><a xlink:href="tokenizer_8cpp.html" target="_top" xlink:title=" ">
<polygon fill="white" stroke="#666666" points="280,-118 149,-118 149,-77 280,-77 280,-118"/>
<text text-anchor="start" x="157" y="-106" font-family="Helvetica,sans-Serif" font-size="10.00">/Users/nikolajbankejensen</text>
<text text-anchor="start" x="157" y="-95" font-family="Helvetica,sans-Serif" font-size="10.00">/Desktop/Kepler/src/core</text>
<text text-anchor="middle" x="214.5" y="-84" font-family="Helvetica,sans-Serif" font-size="10.00">/evaluation/tokenizer.cpp</text>
</a>
</g>
</g>
<!-- Node1&#45;&gt;Node3 -->
<g id="edge2" class="edge">
<title>Node1&#45;&gt;Node3</title>
<path fill="none" stroke="#63b8ff" d="M262.37,-145.74C253.15,-136.64 243.1,-126.72 234.6,-118.33"/>
<polygon fill="#63b8ff" stroke="#63b8ff" points="259.88,-148.2 269.45,-152.73 264.8,-143.22 259.88,-148.2"/>
</g>
<!-- Node4 -->
<g id="node4" class="node">
<title>Node4</title>
<g id="a_node4"><a xlink:href="parser__fixture_8h.html" target="_top" xlink:title=" ">
<polygon fill="white" stroke="#666666" points="434.5,-118 298.5,-118 298.5,-77 434.5,-77 434.5,-118"/>
<text text-anchor="start" x="306.5" y="-106" font-family="Helvetica,sans-Serif" font-size="10.00">/Users/nikolajbankejensen</text>
<text text-anchor="start" x="306.5" y="-95" font-family="Helvetica,sans-Serif" font-size="10.00">/Desktop/Kepler/src/testing</text>
<text text-anchor="middle" x="366.5" y="-84" font-family="Helvetica,sans-Serif" font-size="10.00">/fixtures/parser_fixture.h</text>
</a>
</g>
</g>
<!-- Node1&#45;&gt;Node4 -->
<g id="edge3" class="edge">
<title>Node1&#45;&gt;Node4</title>
<path fill="none" stroke="#63b8ff" d="M318.63,-145.74C327.85,-136.64 337.9,-126.72 346.4,-118.33"/>
<polygon fill="#63b8ff" stroke="#63b8ff" points="316.2,-143.22 311.55,-152.73 321.12,-148.2 316.2,-143.22"/>
</g>
<!-- Node6 -->
<g id="node6" class="node">
<title>Node6</title>
<g id="a_node6"><a xlink:href="tokenizer__fixture_8h.html" target="_top" xlink:title=" ">
<polygon fill="white" stroke="#666666" points="588.5,-118 452.5,-118 452.5,-77 588.5,-77 588.5,-118"/>
<text text-anchor="start" x="460.5" y="-106" font-family="Helvetica,sans-Serif" font-size="10.00">/Users/nikolajbankejensen</text>
<text text-anchor="start" x="460.5" y="-95" font-family="Helvetica,sans-Serif" font-size="10.00">/Desktop/Kepler/src/testing</text>
<text text-anchor="middle" x="520.5" y="-84" font-family="Helvetica,sans-Serif" font-size="10.00">/fixtures/tokenizer_fixture.h</text>
</a>
</g>
</g>
<!-- Node1&#45;&gt;Node6 -->
<g id="edge5" class="edge">
<title>Node1&#45;&gt;Node6</title>
<path fill="none" stroke="#63b8ff" d="M362.3,-150.09C393.38,-139.95 429.38,-128.21 459.18,-118.49"/>
<polygon fill="#63b8ff" stroke="#63b8ff" points="361.39,-146.7 352.97,-153.13 363.56,-153.36 361.39,-146.7"/>
</g>
<!-- Node5 -->
<g id="node5" class="node">
<title>Node5</title>
<g id="a_node5"><a xlink:href="test__parser_8cpp.html" target="_top" xlink:title=" ">
<polygon fill="white" stroke="#666666" points="434.5,-41 298.5,-41 298.5,0 434.5,0 434.5,-41"/>
<text text-anchor="start" x="306.5" y="-29" font-family="Helvetica,sans-Serif" font-size="10.00">/Users/nikolajbankejensen</text>
<text text-anchor="start" x="306.5" y="-18" font-family="Helvetica,sans-Serif" font-size="10.00">/Desktop/Kepler/src/testing</text>
<text text-anchor="middle" x="366.5" y="-7" font-family="Helvetica,sans-Serif" font-size="10.00">/test_parser.cpp</text>
</a>
</g>
</g>
<!-- Node4&#45;&gt;Node5 -->
<g id="edge4" class="edge">
<title>Node4&#45;&gt;Node5</title>
<path fill="none" stroke="#63b8ff" d="M366.5,-65.36C366.5,-57.24 366.5,-48.7 366.5,-41.33"/>
<polygon fill="#63b8ff" stroke="#63b8ff" points="363,-65.28 366.5,-75.28 370,-65.28 363,-65.28"/>
</g>
<!-- Node7 -->
<g id="node7" class="node">
<title>Node7</title>
<g id="a_node7"><a xlink:href="test__lexer_8cpp.html" target="_top" xlink:title=" ">
<polygon fill="white" stroke="#666666" points="588.5,-41 452.5,-41 452.5,0 588.5,0 588.5,-41"/>
<text text-anchor="start" x="460.5" y="-29" font-family="Helvetica,sans-Serif" font-size="10.00">/Users/nikolajbankejensen</text>
<text text-anchor="start" x="460.5" y="-18" font-family="Helvetica,sans-Serif" font-size="10.00">/Desktop/Kepler/src/testing</text>
<text text-anchor="middle" x="520.5" y="-7" font-family="Helvetica,sans-Serif" font-size="10.00">/test_lexer.cpp</text>
</a>
</g>
</g>
<!-- Node6&#45;&gt;Node7 -->
<g id="edge6" class="edge">
<title>Node6&#45;&gt;Node7</title>
<path fill="none" stroke="#63b8ff" d="M520.5,-65.36C520.5,-57.24 520.5,-48.7 520.5,-41.33"/>
<polygon fill="#63b8ff" stroke="#63b8ff" points="517,-65.28 520.5,-75.28 524,-65.28 517,-65.28"/>
</g>
</g>
</svg>
