<?xml version="1.0" encoding="UTF-8" standalone="no"?>
<!DOCTYPE svg PUBLIC "-//W3C//DTD SVG 1.1//EN"
 "http://www.w3.org/Graphics/SVG/1.1/DTD/svg11.dtd">
<!-- Generated by graphviz version 7.1.0 (20230121.1956)
 -->
<!-- Title: /Users/nikolajbankejensen/Desktop/Kepler/src/core/evaluation/tokenizer.h Pages: 1 -->
<!--zoomable 269 -->
<svg id="main" version="1.1" xmlns="http://www.w3.org/2000/svg" xmlns:xlink="http://www.w3.org/1999/xlink" xml:space="preserve" onload="init(evt)">
<style type="text/css"><![CDATA[
.edge:hover path { stroke: red; }
.edge:hover polygon { stroke: red; fill: red; }
]]></style>
<script type="text/javascript"><![CDATA[
var edges = document.getElementsByTagName('g');
if (edges && edges.length) {
  for (var i=0;i<edges.length;i++) {
    if (edges[i].id.substr(0,4)=='edge') {
      edges[i].setAttribute('class','edge');
    }
  }
}
]]></script>
        <defs>
                <circle id="rim" cx="0" cy="0" r="7"/>
                <circle id="rim2" cx="0" cy="0" r="3.5"/>
                <g id="zoomPlus">
                        <use xlink:href="#rim" fill="#404040">
                                <set attributeName="fill" to="#808080" begin="zoomplus.mouseover" end="zoomplus.mouseout"/>
                        </use>
                        <path d="M-4,0h8M0,-4v8" fill="none" stroke="white" stroke-width="1.5" pointer-events="none"/>
                </g>
                <g id="zoomMin">
                        <use xlink:href="#rim" fill="#404040">
                                <set attributeName="fill" to="#808080" begin="zoomminus.mouseover" end="zoomminus.mouseout"/>
                        </use>
                        <path d="M-4,0h8" fill="none" stroke="white" stroke-width="1.5" pointer-events="none"/>
                </g>
                <g id="dirArrow">
                        <path fill="none" stroke="white" stroke-width="1.5" d="M0,-3.0v7 M-2.5,-0.5L0,-3.0L2.5,-0.5"/>
                </g>
               <g id="resetDef">
                       <use xlink:href="#rim2" fill="#404040">
                               <set attributeName="fill" to="#808080" begin="reset.mouseover" end="reset.mouseout"/>
                       </use>
               </g>
        </defs>

<script type="text/javascript">
var viewWidth = 590;
var viewHeight = 269;
var sectionId = 'dynsection-0';
</script>
<script xlink:href="svgpan.js"/>
<svg id="graph" class="graph">
<g id="viewport">
<title>/Users/nikolajbankejensen/Desktop/Kepler/src/core/evaluation/tokenizer.h</title>
<!-- Node1 -->
<g id="node1" class="node">
<title>Node1</title>
<g id="a_node1"><a xlink:title=" ">
<polygon fill="#999999" stroke="#666666" points="194.69,-261 63.69,-261 63.69,-220 194.69,-220 194.69,-261"/>
<text text-anchor="start" x="71.69" y="-249" font-family="Helvetica,sans-Serif" font-size="10.00">/Users/nikolajbankejensen</text>
<text text-anchor="start" x="71.69" y="-238" font-family="Helvetica,sans-Serif" font-size="10.00">/Desktop/Kepler/src/core</text>
<text text-anchor="middle" x="129.19" y="-227" font-family="Helvetica,sans-Serif" font-size="10.00">/evaluation/tokenizer.h</text>
</a>
</g>
</g>
<!-- Node2 -->
<g id="node2" class="node">
<title>Node2</title>
<g id="a_node2"><a xlink:href="token_8h.html" target="_top" xlink:title=" ">
<polygon fill="white" stroke="#666666" points="302.69,-184 231.69,-184 231.69,-165 302.69,-165 302.69,-184"/>
<text text-anchor="middle" x="267.19" y="-172" font-family="Helvetica,sans-Serif" font-size="10.00">core/token.h</text>
</a>
</g>
</g>
<!-- Node1&#45;&gt;Node2 -->
<g id="edge1" class="edge">
<title>Node1&#45;&gt;Node2</title>
<path fill="none" stroke="#63b8ff" d="M172.1,-219.6C193.5,-209.68 218.82,-197.93 237.95,-189.06"/>
<polygon fill="#63b8ff" stroke="#63b8ff" points="239.18,-192.35 246.78,-184.97 236.23,-186 239.18,-192.35"/>
</g>
<!-- Node5 -->
<g id="node5" class="node">
<title>Node5</title>
<g id="a_node5"><a xlink:href="datatypes_8h.html" target="_top" xlink:title=" ">
<polygon fill="white" stroke="#666666" points="432.19,-74 364.19,-74 364.19,-55 432.19,-55 432.19,-74"/>
<text text-anchor="middle" x="398.19" y="-62" font-family="Helvetica,sans-Serif" font-size="10.00">datatypes.h</text>
</a>
</g>
</g>
<!-- Node1&#45;&gt;Node5 -->
<g id="edge19" class="edge">
<title>Node1&#45;&gt;Node5</title>
<path fill="none" stroke="#63b8ff" d="M88.28,-219.7C41.36,-194.44 -24.86,-149.31 10.19,-110 32.66,-84.81 254.99,-71.88 352.62,-67.38"/>
<polygon fill="#63b8ff" stroke="#63b8ff" points="352.54,-70.89 362.37,-66.94 352.23,-63.9 352.54,-70.89"/>
</g>
<!-- Node3 -->
<g id="node3" class="node">
<title>Node3</title>
<g id="a_node3"><a xlink:href="token__type_8h.html" target="_top" xlink:title=" ">
<polygon fill="white" stroke="#666666" points="581.69,-74 508.69,-74 508.69,-55 581.69,-55 581.69,-74"/>
<text text-anchor="middle" x="545.19" y="-62" font-family="Helvetica,sans-Serif" font-size="10.00">token_type.h</text>
</a>
</g>
</g>
<!-- Node2&#45;&gt;Node3 -->
<g id="edge2" class="edge">
<title>Node2&#45;&gt;Node3</title>
<path fill="none" stroke="#63b8ff" d="M303.04,-173.37C371.74,-172.28 517.92,-165.6 549.19,-129 559.41,-117.05 557.03,-98.76 552.9,-84.88"/>
<polygon fill="#63b8ff" stroke="#63b8ff" points="556.22,-83.77 549.6,-75.5 549.62,-86.1 556.22,-83.77"/>
</g>
<!-- Node2&#45;&gt;Node5 -->
<g id="edge4" class="edge">
<title>Node2&#45;&gt;Node5</title>
<path fill="none" stroke="#63b8ff" d="M303.15,-167.67C327.76,-161.88 359.41,-150.6 379.19,-129 390.02,-117.18 394.69,-99.41 396.7,-85.68"/>
<polygon fill="#63b8ff" stroke="#63b8ff" points="400.15,-86.3 397.73,-75.98 393.19,-85.56 400.15,-86.3"/>
</g>
<!-- Node9 -->
<g id="node9" class="node">
<title>Node9</title>
<g id="a_node9"><a xlink:title=" ">
<polygon fill="#e0e0e0" stroke="#999999" points="165.69,-129 82.69,-129 82.69,-110 165.69,-110 165.69,-129"/>
<text text-anchor="middle" x="124.19" y="-117" font-family="Helvetica,sans-Serif" font-size="10.00">uni_algo/conv.h</text>
</a>
</g>
</g>
<!-- Node2&#45;&gt;Node9 -->
<g id="edge8" class="edge">
<title>Node2&#45;&gt;Node9</title>
<path fill="none" stroke="#63b8ff" d="M242.94,-164.51C219.79,-155.93 184.68,-142.92 158.64,-133.27"/>
<polygon fill="#63b8ff" stroke="#63b8ff" points="160.11,-130.08 149.51,-129.88 157.67,-136.64 160.11,-130.08"/>
</g>
<!-- Node10 -->
<g id="node10" class="node">
<title>Node10</title>
<g id="a_node10"><a xlink:href="array_8h.html" target="_top" xlink:title=" ">
<polygon fill="white" stroke="#666666" points="64.69,-129 19.69,-129 19.69,-110 64.69,-110 64.69,-129"/>
<text text-anchor="middle" x="42.19" y="-117" font-family="Helvetica,sans-Serif" font-size="10.00">array.h</text>
</a>
</g>
</g>
<!-- Node2&#45;&gt;Node10 -->
<g id="edge9" class="edge">
<title>Node2&#45;&gt;Node10</title>
<path fill="none" stroke="#63b8ff" d="M231.54,-165.65C194.94,-157.51 136.08,-144.19 75.77,-129.32"/>
<polygon fill="#63b8ff" stroke="#63b8ff" points="76.91,-126 66.36,-126.99 75.23,-132.8 76.91,-126"/>
</g>
<!-- Node12 -->
<g id="node12" class="node">
<title>Node12</title>
<g id="a_node12"><a xlink:href="conversion_8h.html" target="_top" xlink:title=" ">
<polygon fill="white" stroke="#666666" points="539.69,-129 426.69,-129 426.69,-110 539.69,-110 539.69,-129"/>
<text text-anchor="middle" x="483.19" y="-117" font-family="Helvetica,sans-Serif" font-size="10.00">interface/conversion.h</text>
</a>
</g>
</g>
<!-- Node2&#45;&gt;Node12 -->
<g id="edge12" class="edge">
<title>Node2&#45;&gt;Node12</title>
<path fill="none" stroke="#63b8ff" d="M302.86,-164.75C339.15,-155.84 395.59,-141.99 435.66,-132.16"/>
<polygon fill="#63b8ff" stroke="#63b8ff" points="436.4,-135.58 445.28,-129.8 434.73,-128.79 436.4,-135.58"/>
</g>
<!-- Node13 -->
<g id="node13" class="node">
<title>Node13</title>
<g id="a_node13"><a xlink:title=" ">
<polygon fill="#e0e0e0" stroke="#999999" points="224.19,-129 184.19,-129 184.19,-110 224.19,-110 224.19,-129"/>
<text text-anchor="middle" x="204.19" y="-117" font-family="Helvetica,sans-Serif" font-size="10.00">utility</text>
</a>
</g>
</g>
<!-- Node2&#45;&gt;Node13 -->
<g id="edge16" class="edge">
<title>Node2&#45;&gt;Node13</title>
<path fill="none" stroke="#63b8ff" d="M256.51,-164.51C247.49,-156.93 234.36,-145.88 223.51,-136.75"/>
<polygon fill="#63b8ff" stroke="#63b8ff" points="225.79,-134.09 215.88,-130.33 221.28,-139.45 225.79,-134.09"/>
</g>
<!-- Node14 -->
<g id="node14" class="node">
<title>Node14</title>
<g id="a_node14"><a xlink:title=" ">
<polygon fill="#e0e0e0" stroke="#999999" points="292.19,-129 242.19,-129 242.19,-110 292.19,-110 292.19,-129"/>
<text text-anchor="middle" x="267.19" y="-117" font-family="Helvetica,sans-Serif" font-size="10.00">optional</text>
</a>
</g>
</g>
<!-- Node2&#45;&gt;Node14 -->
<g id="edge17" class="edge">
<title>Node2&#45;&gt;Node14</title>
<path fill="none" stroke="#63b8ff" d="M267.19,-164.75C267.19,-158.27 267.19,-149.16 267.19,-140.9"/>
<polygon fill="#63b8ff" stroke="#63b8ff" points="270.69,-140.96 267.19,-130.96 263.69,-140.96 270.69,-140.96"/>
</g>
<!-- Node15 -->
<g id="node15" class="node">
<title>Node15</title>
<g id="a_node15"><a xlink:href="position_8h.html" target="_top" xlink:title=" ">
<polygon fill="white" stroke="#666666" points="369.69,-129 310.69,-129 310.69,-110 369.69,-110 369.69,-129"/>
<text text-anchor="middle" x="340.19" y="-117" font-family="Helvetica,sans-Serif" font-size="10.00">position.h</text>
</a>
</g>
</g>
<!-- Node2&#45;&gt;Node15 -->
<g id="edge18" class="edge">
<title>Node2&#45;&gt;Node15</title>
<path fill="none" stroke="#63b8ff" d="M279.58,-164.51C290.34,-156.7 306.16,-145.21 318.95,-135.93"/>
<polygon fill="#63b8ff" stroke="#63b8ff" points="320.73,-138.95 326.77,-130.25 316.62,-133.29 320.73,-138.95"/>
</g>
<!-- Node4 -->
<g id="node4" class="node">
<title>Node4</title>
<g id="a_node4"><a xlink:title=" ">
<polygon fill="#e0e0e0" stroke="#999999" points="572.19,-19 518.19,-19 518.19,0 572.19,0 572.19,-19"/>
<text text-anchor="middle" x="545.19" y="-7" font-family="Helvetica,sans-Serif" font-size="10.00">iostream</text>
</a>
</g>
</g>
<!-- Node3&#45;&gt;Node4 -->
<g id="edge3" class="edge">
<title>Node3&#45;&gt;Node4</title>
<path fill="none" stroke="#63b8ff" d="M545.19,-54.75C545.19,-48.27 545.19,-39.16 545.19,-30.9"/>
<polygon fill="#63b8ff" stroke="#63b8ff" points="548.69,-30.96 545.19,-20.96 541.69,-30.96 548.69,-30.96"/>
</g>
<!-- Node6 -->
<g id="node6" class="node">
<title>Node6</title>
<g id="a_node6"><a xlink:title=" ">
<polygon fill="#e0e0e0" stroke="#999999" points="355.19,-19 311.19,-19 311.19,0 355.19,0 355.19,-19"/>
<text text-anchor="middle" x="333.19" y="-7" font-family="Helvetica,sans-Serif" font-size="10.00">vector</text>
</a>
</g>
</g>
<!-- Node5&#45;&gt;Node6 -->
<g id="edge5" class="edge">
<title>Node5&#45;&gt;Node6</title>
<path fill="none" stroke="#63b8ff" d="M387.17,-54.51C377.77,-46.85 364.04,-35.66 352.79,-26.47"/>
<polygon fill="#63b8ff" stroke="#63b8ff" points="355.19,-23.92 345.23,-20.31 350.77,-29.35 355.19,-23.92"/>
</g>
<!-- Node7 -->
<g id="node7" class="node">
<title>Node7</title>
<g id="a_node7"><a xlink:title=" ">
<polygon fill="#e0e0e0" stroke="#999999" points="494.69,-19 453.69,-19 453.69,0 494.69,0 494.69,-19"/>
<text text-anchor="middle" x="474.19" y="-7" font-family="Helvetica,sans-Serif" font-size="10.00">string</text>
</a>
</g>
</g>
<!-- Node5&#45;&gt;Node7 -->
<g id="edge6" class="edge">
<title>Node5&#45;&gt;Node7</title>
<path fill="none" stroke="#63b8ff" d="M411.09,-54.51C422.29,-46.7 438.77,-35.21 452.07,-25.93"/>
<polygon fill="#63b8ff" stroke="#63b8ff" points="454.05,-28.81 460.25,-20.22 450.05,-23.07 454.05,-28.81"/>
</g>
<!-- Node8 -->
<g id="node8" class="node">
<title>Node8</title>
<g id="a_node8"><a xlink:title=" ">
<polygon fill="#e0e0e0" stroke="#999999" points="426.69,-19 373.69,-19 373.69,0 426.69,0 426.69,-19"/>
<text text-anchor="middle" x="400.19" y="-7" font-family="Helvetica,sans-Serif" font-size="10.00">complex</text>
</a>
</g>
</g>
<!-- Node5&#45;&gt;Node8 -->
<g id="edge7" class="edge">
<title>Node5&#45;&gt;Node8</title>
<path fill="none" stroke="#63b8ff" d="M398.52,-54.75C398.77,-48.27 399.11,-39.16 399.42,-30.9"/>
<polygon fill="#63b8ff" stroke="#63b8ff" points="402.92,-31.08 399.8,-20.95 395.92,-30.82 402.92,-31.08"/>
</g>
<!-- Node10&#45;&gt;Node5 -->
<g id="edge10" class="edge">
<title>Node10&#45;&gt;Node5</title>
<path fill="none" stroke="#63b8ff" d="M65.19,-112.03C68.2,-111.29 71.26,-110.59 74.19,-110 172.72,-90.23 289.87,-76.52 352.81,-69.95"/>
<polygon fill="#63b8ff" stroke="#63b8ff" points="352.82,-73.47 362.4,-68.96 352.1,-66.5 352.82,-73.47"/>
</g>
<!-- Node11 -->
<g id="node11" class="node">
<title>Node11</title>
<g id="a_node11"><a xlink:title=" ">
<polygon fill="#e0e0e0" stroke="#999999" points="65.19,-74 19.19,-74 19.19,-55 65.19,-55 65.19,-74"/>
<text text-anchor="middle" x="42.19" y="-62" font-family="Helvetica,sans-Serif" font-size="10.00">variant</text>
</a>
</g>
</g>
<!-- Node10&#45;&gt;Node11 -->
<g id="edge11" class="edge">
<title>Node10&#45;&gt;Node11</title>
<path fill="none" stroke="#63b8ff" d="M42.19,-109.75C42.19,-103.27 42.19,-94.16 42.19,-85.9"/>
<polygon fill="#63b8ff" stroke="#63b8ff" points="45.69,-85.96 42.19,-75.96 38.69,-85.96 45.69,-85.96"/>
</g>
<!-- Node12&#45;&gt;Node3 -->
<g id="edge15" class="edge">
<title>Node12&#45;&gt;Node3</title>
<path fill="none" stroke="#63b8ff" d="M493.71,-109.51C502.58,-101.93 515.5,-90.88 526.18,-81.75"/>
<polygon fill="#63b8ff" stroke="#63b8ff" points="528.35,-84.5 533.68,-75.34 523.81,-79.18 528.35,-84.5"/>
</g>
<!-- Node12&#45;&gt;Node5 -->
<g id="edge14" class="edge">
<title>Node12&#45;&gt;Node5</title>
<path fill="none" stroke="#63b8ff" d="M468.77,-109.51C456,-101.54 437.09,-89.75 422.06,-80.38"/>
<polygon fill="#63b8ff" stroke="#63b8ff" points="424.02,-77.48 413.68,-75.16 420.32,-83.42 424.02,-77.48"/>
</g>
<!-- Node12&#45;&gt;Node7 -->
<g id="edge13" class="edge">
<title>Node12&#45;&gt;Node7</title>
<path fill="none" stroke="#63b8ff" d="M482.46,-109.66C481.03,-92.57 477.87,-54.61 475.9,-30.92"/>
<polygon fill="#63b8ff" stroke="#63b8ff" points="479.38,-30.64 475.07,-20.97 472.41,-31.22 479.38,-30.64"/>
</g>
</g>
</svg>
        <g id="navigator" transform="translate(0 0)" fill="#404254">
                <rect fill="#f2f5e9" fill-opacity="0.5" stroke="#606060" stroke-width=".5" x="0" y="0" width="60" height="60"/>
                <use id="zoomplus" xlink:href="#zoomPlus" x="17" y="9" onmousedown="handleZoom(evt,'in')"/>
                <use id="zoomminus" xlink:href="#zoomMin" x="42" y="9" onmousedown="handleZoom(evt,'out')"/>
                <use id="reset" xlink:href="#resetDef" x="30" y="36" onmousedown="handleReset()"/>
                <g id="arrowUp" xlink:href="#dirArrow" transform="translate(30 24)" onmousedown="handlePan(0,-1)">
                  <use xlink:href="#rim" fill="#404040">
                        <set attributeName="fill" to="#808080" begin="arrowUp.mouseover" end="arrowUp.mouseout"/>
                  </use>
                  <path fill="none" stroke="white" stroke-width="1.5" d="M0,-3.0v7 M-2.5,-0.5L0,-3.0L2.5,-0.5"/>
                </g>
                <g id="arrowRight" xlink:href="#dirArrow" transform="rotate(90) translate(36 -43)" onmousedown="handlePan(1,0)">
                  <use xlink:href="#rim" fill="#404040">
                        <set attributeName="fill" to="#808080" begin="arrowRight.mouseover" end="arrowRight.mouseout"/>
                  </use>
                  <path fill="none" stroke="white" stroke-width="1.5" d="M0,-3.0v7 M-2.5,-0.5L0,-3.0L2.5,-0.5"/>
                </g>
                <g id="arrowDown" xlink:href="#dirArrow" transform="rotate(180) translate(-30 -48)" onmousedown="handlePan(0,1)">
                  <use xlink:href="#rim" fill="#404040">
                        <set attributeName="fill" to="#808080" begin="arrowDown.mouseover" end="arrowDown.mouseout"/>
                  </use>
                  <path fill="none" stroke="white" stroke-width="1.5" d="M0,-3.0v7 M-2.5,-0.5L0,-3.0L2.5,-0.5"/>
                </g>
                <g id="arrowLeft" xlink:href="#dirArrow" transform="rotate(270) translate(-36 17)" onmousedown="handlePan(-1,0)">
                  <use xlink:href="#rim" fill="#404040">
                        <set attributeName="fill" to="#808080" begin="arrowLeft.mouseover" end="arrowLeft.mouseout"/>
                  </use>
                  <path fill="none" stroke="white" stroke-width="1.5" d="M0,-3.0v7 M-2.5,-0.5L0,-3.0L2.5,-0.5"/>
                </g>
        </g>
        <svg viewBox="0 0 15 15" width="100%" height="30px" preserveAspectRatio="xMaxYMin meet">
         <g id="arrow_out" transform="scale(0.3 0.3)">
          <a xlink:href="tokenizer_8h__incl_org.svg" target="_base">
           <rect id="button" ry="5" rx="5" y="6" x="6" height="38" width="38"
                fill="#f2f5e9" fill-opacity="0.5" stroke="#606060" stroke-width="1.0"/>
           <path id="arrow"
             d="M 11.500037,31.436501 C 11.940474,20.09759 22.043105,11.32322 32.158766,21.979434 L 37.068811,17.246167 C 37.068811,17.246167 37.088388,32 37.088388,32 L 22.160133,31.978069 C 22.160133,31.978069 26.997745,27.140456 26.997745,27.140456 C 18.528582,18.264221 13.291696,25.230495 11.500037,31.436501 z"
             style="fill:#404040;"/>
          </a>
         </g>
        </svg>
</svg>
