<?xml version="1.0" encoding="UTF-8" standalone="no"?>
<!DOCTYPE svg PUBLIC "-//W3C//DTD SVG 1.1//EN"
 "http://www.w3.org/Graphics/SVG/1.1/DTD/svg11.dtd">
<!-- Generated by graphviz version 7.1.0 (20230121.1956)
 -->
<!-- Title: /Users/nikolajbankejensen/Desktop/Kepler/src/core/token.h Pages: 1 -->
<svg width="583pt" height="214pt"
 viewBox="0.00 0.00 583.00 214.00" xmlns="http://www.w3.org/2000/svg" xmlns:xlink="http://www.w3.org/1999/xlink">
<g id="graph0" class="graph" transform="scale(1 1) rotate(0) translate(4 210)">
<title>/Users/nikolajbankejensen/Desktop/Kepler/src/core/token.h</title>
<!-- Node1 -->
<g id="node1" class="node">
<title>Node1</title>
<g id="a_node1"><a xlink:title=" ">
<polygon fill="#999999" stroke="#666666" points="354,-206 223,-206 223,-165 354,-165 354,-206"/>
<text text-anchor="start" x="231" y="-194" font-family="Helvetica,sans-Serif" font-size="10.00">/Users/nikolajbankejensen</text>
<text text-anchor="start" x="231" y="-183" font-family="Helvetica,sans-Serif" font-size="10.00">/Desktop/Kepler/src/core</text>
<text text-anchor="middle" x="288.5" y="-172" font-family="Helvetica,sans-Serif" font-size="10.00">/token.h</text>
</a>
</g>
</g>
<!-- Node2 -->
<g id="node2" class="node">
<title>Node2</title>
<g id="a_node2"><a xlink:href="token__type_8h.html" target="_top" xlink:title=" ">
<polygon fill="white" stroke="#666666" points="73,-74 0,-74 0,-55 73,-55 73,-74"/>
<text text-anchor="middle" x="36.5" y="-62" font-family="Helvetica,sans-Serif" font-size="10.00">token_type.h</text>
</a>
</g>
</g>
<!-- Node1&#45;&gt;Node2 -->
<g id="edge1" class="edge">
<title>Node1&#45;&gt;Node2</title>
<path fill="none" stroke="#63b8ff" d="M222.69,-177.84C159.11,-169.98 69.08,-154.64 45.5,-129 34.88,-117.45 33.23,-99.39 33.88,-85.47"/>
<polygon fill="#63b8ff" stroke="#63b8ff" points="37.35,-85.96 34.8,-75.67 30.38,-85.3 37.35,-85.96"/>
</g>
<!-- Node4 -->
<g id="node4" class="node">
<title>Node4</title>
<g id="a_node4"><a xlink:href="datatypes_8h.html" target="_top" xlink:title=" ">
<polygon fill="white" stroke="#666666" points="207.5,-74 139.5,-74 139.5,-55 207.5,-55 207.5,-74"/>
<text text-anchor="middle" x="173.5" y="-62" font-family="Helvetica,sans-Serif" font-size="10.00">datatypes.h</text>
</a>
</g>
</g>
<!-- Node1&#45;&gt;Node4 -->
<g id="edge3" class="edge">
<title>Node1&#45;&gt;Node4</title>
<path fill="none" stroke="#63b8ff" d="M258.35,-164.57C244.73,-154.76 228.93,-142.22 216.5,-129 203.67,-115.36 191.96,-97.54 184.01,-84.26"/>
<polygon fill="#63b8ff" stroke="#63b8ff" points="187.08,-82.56 179.04,-75.66 181.02,-86.07 187.08,-82.56"/>
</g>
<!-- Node8 -->
<g id="node8" class="node">
<title>Node8</title>
<g id="a_node8"><a xlink:title=" ">
<polygon fill="#e0e0e0" stroke="#999999" points="371,-129 288,-129 288,-110 371,-110 371,-129"/>
<text text-anchor="middle" x="329.5" y="-117" font-family="Helvetica,sans-Serif" font-size="10.00">uni_algo/conv.h</text>
</a>
</g>
</g>
<!-- Node1&#45;&gt;Node8 -->
<g id="edge7" class="edge">
<title>Node1&#45;&gt;Node8</title>
<path fill="none" stroke="#63b8ff" d="M301.25,-164.6C306.54,-156.33 312.65,-146.8 317.83,-138.72"/>
<polygon fill="#63b8ff" stroke="#63b8ff" points="320.69,-140.75 323.13,-130.44 314.79,-136.97 320.69,-140.75"/>
</g>
<!-- Node9 -->
<g id="node9" class="node">
<title>Node9</title>
<g id="a_node9"><a xlink:href="array_8h.html" target="_top" xlink:title=" ">
<polygon fill="white" stroke="#666666" points="270,-129 225,-129 225,-110 270,-110 270,-129"/>
<text text-anchor="middle" x="247.5" y="-117" font-family="Helvetica,sans-Serif" font-size="10.00">array.h</text>
</a>
</g>
</g>
<!-- Node1&#45;&gt;Node9 -->
<g id="edge8" class="edge">
<title>Node1&#45;&gt;Node9</title>
<path fill="none" stroke="#63b8ff" d="M275.75,-164.6C270.46,-156.33 264.35,-146.8 259.17,-138.72"/>
<polygon fill="#63b8ff" stroke="#63b8ff" points="262.21,-136.97 253.87,-130.44 256.31,-140.75 262.21,-136.97"/>
</g>
<!-- Node11 -->
<g id="node11" class="node">
<title>Node11</title>
<g id="a_node11"><a xlink:href="conversion_8h.html" target="_top" xlink:title=" ">
<polygon fill="white" stroke="#666666" points="168,-129 55,-129 55,-110 168,-110 168,-129"/>
<text text-anchor="middle" x="111.5" y="-117" font-family="Helvetica,sans-Serif" font-size="10.00">interface/conversion.h</text>
</a>
</g>
</g>
<!-- Node1&#45;&gt;Node11 -->
<g id="edge11" class="edge">
<title>Node1&#45;&gt;Node11</title>
<path fill="none" stroke="#63b8ff" d="M233.47,-164.6C205.13,-154.35 171.42,-142.17 146.63,-133.2"/>
<polygon fill="#63b8ff" stroke="#63b8ff" points="147.94,-129.95 137.35,-129.85 145.56,-136.54 147.94,-129.95"/>
</g>
<!-- Node12 -->
<g id="node12" class="node">
<title>Node12</title>
<g id="a_node12"><a xlink:title=" ">
<polygon fill="#e0e0e0" stroke="#999999" points="429.5,-129 389.5,-129 389.5,-110 429.5,-110 429.5,-129"/>
<text text-anchor="middle" x="409.5" y="-117" font-family="Helvetica,sans-Serif" font-size="10.00">utility</text>
</a>
</g>
</g>
<!-- Node1&#45;&gt;Node12 -->
<g id="edge15" class="edge">
<title>Node1&#45;&gt;Node12</title>
<path fill="none" stroke="#63b8ff" d="M326.12,-164.6C344.45,-154.91 366.06,-143.48 382.68,-134.68"/>
<polygon fill="#63b8ff" stroke="#63b8ff" points="384.26,-137.81 391.47,-130.04 380.99,-131.62 384.26,-137.81"/>
</g>
<!-- Node13 -->
<g id="node13" class="node">
<title>Node13</title>
<g id="a_node13"><a xlink:title=" ">
<polygon fill="#e0e0e0" stroke="#999999" points="497.5,-129 447.5,-129 447.5,-110 497.5,-110 497.5,-129"/>
<text text-anchor="middle" x="472.5" y="-117" font-family="Helvetica,sans-Serif" font-size="10.00">optional</text>
</a>
</g>
</g>
<!-- Node1&#45;&gt;Node13 -->
<g id="edge16" class="edge">
<title>Node1&#45;&gt;Node13</title>
<path fill="none" stroke="#63b8ff" d="M345.96,-164.51C375.54,-154.23 410.69,-142 436.42,-133.05"/>
<polygon fill="#63b8ff" stroke="#63b8ff" points="437.46,-136.39 445.75,-129.8 435.16,-129.78 437.46,-136.39"/>
</g>
<!-- Node14 -->
<g id="node14" class="node">
<title>Node14</title>
<g id="a_node14"><a xlink:href="position_8h.html" target="_top" xlink:title=" ">
<polygon fill="white" stroke="#666666" points="575,-129 516,-129 516,-110 575,-110 575,-129"/>
<text text-anchor="middle" x="545.5" y="-117" font-family="Helvetica,sans-Serif" font-size="10.00">position.h</text>
</a>
</g>
</g>
<!-- Node1&#45;&gt;Node14 -->
<g id="edge17" class="edge">
<title>Node1&#45;&gt;Node14</title>
<path fill="none" stroke="#63b8ff" d="M354.35,-168.1C401.83,-156.28 464.41,-140.69 504.81,-130.63"/>
<polygon fill="#63b8ff" stroke="#63b8ff" points="505.51,-134.07 514.36,-128.25 503.82,-127.27 505.51,-134.07"/>
</g>
<!-- Node3 -->
<g id="node3" class="node">
<title>Node3</title>
<g id="a_node3"><a xlink:title=" ">
<polygon fill="#e0e0e0" stroke="#999999" points="63.5,-19 9.5,-19 9.5,0 63.5,0 63.5,-19"/>
<text text-anchor="middle" x="36.5" y="-7" font-family="Helvetica,sans-Serif" font-size="10.00">iostream</text>
</a>
</g>
</g>
<!-- Node2&#45;&gt;Node3 -->
<g id="edge2" class="edge">
<title>Node2&#45;&gt;Node3</title>
<path fill="none" stroke="#63b8ff" d="M36.5,-54.75C36.5,-48.27 36.5,-39.16 36.5,-30.9"/>
<polygon fill="#63b8ff" stroke="#63b8ff" points="40,-30.96 36.5,-20.96 33,-30.96 40,-30.96"/>
</g>
<!-- Node5 -->
<g id="node5" class="node">
<title>Node5</title>
<g id="a_node5"><a xlink:title=" ">
<polygon fill="#e0e0e0" stroke="#999999" points="195.5,-19 151.5,-19 151.5,0 195.5,0 195.5,-19"/>
<text text-anchor="middle" x="173.5" y="-7" font-family="Helvetica,sans-Serif" font-size="10.00">vector</text>
</a>
</g>
</g>
<!-- Node4&#45;&gt;Node5 -->
<g id="edge4" class="edge">
<title>Node4&#45;&gt;Node5</title>
<path fill="none" stroke="#63b8ff" d="M173.5,-54.75C173.5,-48.27 173.5,-39.16 173.5,-30.9"/>
<polygon fill="#63b8ff" stroke="#63b8ff" points="177,-30.96 173.5,-20.96 170,-30.96 177,-30.96"/>
</g>
<!-- Node6 -->
<g id="node6" class="node">
<title>Node6</title>
<g id="a_node6"><a xlink:title=" ">
<polygon fill="#e0e0e0" stroke="#999999" points="133,-19 92,-19 92,0 133,0 133,-19"/>
<text text-anchor="middle" x="112.5" y="-7" font-family="Helvetica,sans-Serif" font-size="10.00">string</text>
</a>
</g>
</g>
<!-- Node4&#45;&gt;Node6 -->
<g id="edge5" class="edge">
<title>Node4&#45;&gt;Node6</title>
<path fill="none" stroke="#63b8ff" d="M163.15,-54.51C154.42,-46.93 141.71,-35.88 131.2,-26.75"/>
<polygon fill="#63b8ff" stroke="#63b8ff" points="133.68,-24.27 123.84,-20.35 129.09,-29.55 133.68,-24.27"/>
</g>
<!-- Node7 -->
<g id="node7" class="node">
<title>Node7</title>
<g id="a_node7"><a xlink:title=" ">
<polygon fill="#e0e0e0" stroke="#999999" points="267,-19 214,-19 214,0 267,0 267,-19"/>
<text text-anchor="middle" x="240.5" y="-7" font-family="Helvetica,sans-Serif" font-size="10.00">complex</text>
</a>
</g>
</g>
<!-- Node4&#45;&gt;Node7 -->
<g id="edge6" class="edge">
<title>Node4&#45;&gt;Node7</title>
<path fill="none" stroke="#63b8ff" d="M184.87,-54.51C194.55,-46.85 208.7,-35.66 220.31,-26.47"/>
<polygon fill="#63b8ff" stroke="#63b8ff" points="222.44,-29.25 228.12,-20.3 218.1,-23.76 222.44,-29.25"/>
</g>
<!-- Node9&#45;&gt;Node4 -->
<g id="edge9" class="edge">
<title>Node9&#45;&gt;Node4</title>
<path fill="none" stroke="#63b8ff" d="M234.95,-109.51C224.04,-101.7 208,-90.21 195.04,-80.93"/>
<polygon fill="#63b8ff" stroke="#63b8ff" points="197.27,-78.22 187.1,-75.24 193.19,-83.91 197.27,-78.22"/>
</g>
<!-- Node10 -->
<g id="node10" class="node">
<title>Node10</title>
<g id="a_node10"><a xlink:title=" ">
<polygon fill="#e0e0e0" stroke="#999999" points="271.5,-74 225.5,-74 225.5,-55 271.5,-55 271.5,-74"/>
<text text-anchor="middle" x="248.5" y="-62" font-family="Helvetica,sans-Serif" font-size="10.00">variant</text>
</a>
</g>
</g>
<!-- Node9&#45;&gt;Node10 -->
<g id="edge10" class="edge">
<title>Node9&#45;&gt;Node10</title>
<path fill="none" stroke="#63b8ff" d="M247.67,-109.75C247.79,-103.27 247.96,-94.16 248.12,-85.9"/>
<polygon fill="#63b8ff" stroke="#63b8ff" points="251.61,-86.02 248.3,-75.96 244.61,-85.89 251.61,-86.02"/>
</g>
<!-- Node11&#45;&gt;Node2 -->
<g id="edge14" class="edge">
<title>Node11&#45;&gt;Node2</title>
<path fill="none" stroke="#63b8ff" d="M98.78,-109.51C87.72,-101.7 71.46,-90.21 58.33,-80.93"/>
<polygon fill="#63b8ff" stroke="#63b8ff" points="60.46,-78.14 50.27,-75.23 56.42,-83.86 60.46,-78.14"/>
</g>
<!-- Node11&#45;&gt;Node4 -->
<g id="edge13" class="edge">
<title>Node11&#45;&gt;Node4</title>
<path fill="none" stroke="#63b8ff" d="M122.02,-109.51C130.89,-101.93 143.81,-90.88 154.49,-81.75"/>
<polygon fill="#63b8ff" stroke="#63b8ff" points="156.66,-84.5 161.99,-75.34 152.11,-79.18 156.66,-84.5"/>
</g>
<!-- Node11&#45;&gt;Node6 -->
<g id="edge12" class="edge">
<title>Node11&#45;&gt;Node6</title>
<path fill="none" stroke="#63b8ff" d="M111.58,-109.66C111.74,-92.57 112.09,-54.61 112.31,-30.92"/>
<polygon fill="#63b8ff" stroke="#63b8ff" points="115.81,-31.01 112.4,-20.97 108.81,-30.94 115.81,-31.01"/>
</g>
</g>
</svg>
